<?xml version="1.0" encoding="UTF-8"?>
<!DOCTYPE svg PUBLIC "-//W3C//DTD SVG 1.1//EN"
    "http://www.w3.org/Graphics/SVG/1.1/DTD/svg11.dtd"><svg width="400" height="400" stroke="black" fill="none" fill-opacity="0.75" font-style="italic" font-family="CMU Serif, sans-serif" xmlns="http://www.w3.org/2000/svg" xmlns:xlink="http://www.w3.org/1999/xlink" version="1.1"><filter id="blur1"><feGaussianBlur stdDeviation="0.5"/></filter><rect width="100%" height="100%" fill="white" stroke="none" fill-opacity="1"/><polygon points="315.4283440112696,265.4857434763272 115.65794187149992,465.25614561609683 -50.748875059198724,299.51355159610966 149.40108302954894,99.36359350736205 " class="polygon"/><polygon points="156.8971334197123,63.49963941042208 300.32517523287373,88.40041387099697 342.1850571244118,171.32213567383286 337.83936142741317,226.56441568192957 325.07415086326836,258.68327009360644 312.75725488607145,278.26429271280824 302.3126613097576,291.049202674487 293.62782258804356,299.92483258980576 286.34994733323464,306.40808070328103 280.1553322399983,311.34608112857376 274.79017650150695,315.23996996846563 270.06271018910206,318.40153619157684 265.82830320049436,321.03336463365736 261.97659265833175,323.27209176508086 258.4218190423951,325.21290489965844 255.09584381273524,326.9240206866765 251.94312051909736,328.4555660703213 248.91702092654248,329.84520499257263 245.97707754719573,331.1218032492584 243.08682912744425,332.3078695341311 240.21204100334478,333.42120599378575 237.31912498797902,334.476026848468 234.3736105648963,335.4836979320331 231.33852447999493,336.4531804767808 228.17251937405172,337.3912093461129 224.82754931188742,338.302184445649 221.24580995561124,339.18768857948135 217.35552240443604,340.04544209303896 213.06490309052856,340.86732070564767 208.25325548360195,341.63570792498393 202.7574098489011,342.316728228024 196.35048108137087,342.84734567479586 188.70768185744737,343.10975792409465 179.3500793059755,342.8779074744494 167.55148717892934,341.698595013971 152.19128750028136,338.60722334683487 131.5797869344195,331.3908205546355 103.66343747030542,314.5356439646754 69.61257045377266,273.6653494544168 56.907316172295054,179.71116466622686 156.8971334197123,63.49963941042208 " class="polygon" fill="blue" stroke="blue" opacity="0.25"/><polyline points="198.5966291592405,198.5966291592405 156.8971334197123,63.49963941042208 " class="polyline" fill="blue" stroke="blue" opacity="0.25"/><polyline points="198.5966291592405,198.5966291592405 300.32517523287373,88.40041387099697 " class="polyline" fill="blue" stroke="blue" opacity="0.25"/><polyline points="198.5966291592405,198.5966291592405 342.1850571244118,171.32213567383286 " class="polyline" fill="blue" stroke="blue" opacity="0.25"/><polyline points="198.5966291592405,198.5966291592405 337.83936142741317,226.56441568192957 " class="polyline" fill="blue" stroke="blue" opacity="0.25"/><polyline points="198.5966291592405,198.5966291592405 325.07415086326836,258.68327009360644 " class="polyline" fill="blue" stroke="blue" opacity="0.25"/><polyline points="198.5966291592405,198.5966291592405 312.75725488607145,278.26429271280824 " class="polyline" fill="blue" stroke="blue" opacity="0.25"/><polyline points="198.5966291592405,198.5966291592405 302.3126613097576,291.049202674487 " class="polyline" fill="blue" stroke="blue" opacity="0.25"/><polyline points="198.5966291592405,198.5966291592405 293.62782258804356,299.92483258980576 " class="polyline" fill="blue" stroke="blue" opacity="0.25"/><polyline points="198.5966291592405,198.5966291592405 286.34994733323464,306.40808070328103 " class="polyline" fill="blue" stroke="blue" opacity="0.25"/><polyline points="198.5966291592405,198.5966291592405 280.1553322399983,311.34608112857376 " class="polyline" fill="blue" stroke="blue" opacity="0.25"/><polyline points="198.5966291592405,198.5966291592405 274.79017650150695,315.23996996846563 " class="polyline" fill="blue" stroke="blue" opacity="0.25"/><polyline points="198.5966291592405,198.5966291592405 270.06271018910206,318.40153619157684 " class="polyline" fill="blue" stroke="blue" opacity="0.25"/><polyline points="198.5966291592405,198.5966291592405 265.82830320049436,321.03336463365736 " class="polyline" fill="blue" stroke="blue" opacity="0.25"/><polyline points="198.5966291592405,198.5966291592405 261.97659265833175,323.27209176508086 " class="polyline" fill="blue" stroke="blue" opacity="0.25"/><polyline points="198.5966291592405,198.5966291592405 258.4218190423951,325.21290489965844 " class="polyline" fill="blue" stroke="blue" opacity="0.25"/><polyline points="198.5966291592405,198.5966291592405 255.09584381273524,326.9240206866765 " class="polyline" fill="blue" stroke="blue" opacity="0.25"/><polyline points="198.5966291592405,198.5966291592405 251.94312051909736,328.4555660703213 " class="polyline" fill="blue" stroke="blue" opacity="0.25"/><polyline points="198.5966291592405,198.5966291592405 248.91702092654248,329.84520499257263 " class="polyline" fill="blue" stroke="blue" opacity="0.25"/><polyline points="198.5966291592405,198.5966291592405 245.97707754719573,331.1218032492584 " class="polyline" fill="blue" stroke="blue" opacity="0.25"/><polyline points="198.5966291592405,198.5966291592405 243.08682912744425,332.3078695341311 " class="polyline" fill="blue" stroke="blue" opacity="0.25"/><polyline points="198.5966291592405,198.5966291592405 240.21204100334478,333.42120599378575 " class="polyline" fill="blue" stroke="blue" opacity="0.25"/><polyline points="198.5966291592405,198.5966291592405 237.31912498797902,334.476026848468 " class="polyline" fill="blue" stroke="blue" opacity="0.25"/><polyline points="198.5966291592405,198.5966291592405 234.3736105648963,335.4836979320331 " class="polyline" fill="blue" stroke="blue" opacity="0.25"/><polyline points="198.5966291592405,198.5966291592405 231.33852447999493,336.4531804767808 " class="polyline" fill="blue" stroke="blue" opacity="0.25"/><polyline points="198.5966291592405,198.5966291592405 228.17251937405172,337.3912093461129 " class="polyline" fill="blue" stroke="blue" opacity="0.25"/><polyline points="198.5966291592405,198.5966291592405 224.82754931188742,338.302184445649 " class="polyline" fill="blue" stroke="blue" opacity="0.25"/><polyline points="198.5966291592405,198.5966291592405 221.24580995561124,339.18768857948135 " class="polyline" fill="blue" stroke="blue" opacity="0.25"/><polyline points="198.5966291592405,198.5966291592405 217.35552240443604,340.04544209303896 " class="polyline" fill="blue" stroke="blue" opacity="0.25"/><polyline points="198.5966291592405,198.5966291592405 213.06490309052856,340.86732070564767 " class="polyline" fill="blue" stroke="blue" opacity="0.25"/><polyline points="198.5966291592405,198.5966291592405 208.25325548360195,341.63570792498393 " class="polyline" fill="blue" stroke="blue" opacity="0.25"/><polyline points="198.5966291592405,198.5966291592405 202.7574098489011,342.316728228024 " class="polyline" fill="blue" stroke="blue" opacity="0.25"/><polyline points="198.5966291592405,198.5966291592405 196.35048108137087,342.84734567479586 " class="polyline" fill="blue" stroke="blue" opacity="0.25"/><polyline points="198.5966291592405,198.5966291592405 188.70768185744737,343.10975792409465 " class="polyline" fill="blue" stroke="blue" opacity="0.25"/><polyline points="198.5966291592405,198.5966291592405 179.3500793059755,342.8779074744494 " class="polyline" fill="blue" stroke="blue" opacity="0.25"/><polyline points="198.5966291592405,198.5966291592405 167.55148717892934,341.698595013971 " class="polyline" fill="blue" stroke="blue" opacity="0.25"/><polyline points="198.5966291592405,198.5966291592405 152.19128750028136,338.60722334683487 " class="polyline" fill="blue" stroke="blue" opacity="0.25"/><polyline points="198.5966291592405,198.5966291592405 131.5797869344195,331.3908205546355 " class="polyline" fill="blue" stroke="blue" opacity="0.25"/><polyline points="198.5966291592405,198.5966291592405 103.66343747030542,314.5356439646754 " class="polyline" fill="blue" stroke="blue" opacity="0.25"/><polyline points="198.5966291592405,198.5966291592405 69.61257045377266,273.6653494544168 " class="polyline" fill="blue" stroke="blue" opacity="0.25"/><polyline points="198.5966291592405,198.5966291592405 56.907316172295054,179.71116466622686 " class="polyline" fill="blue" stroke="blue" opacity="0.25"/><polyline points="198.5966291592405,198.5966291592405 156.8971334197123,63.49963941042208 " class="polyline" fill="blue" stroke="blue" opacity="0.25"/><polyline points="0.0,0.0 400.0,400.0 "/><circle cx="200.0" cy="200.0" r="2.25" fill="black" stroke="white"/></svg>
