<?xml version="1.0" encoding="UTF-8"?>
<!DOCTYPE svg PUBLIC "-//W3C//DTD SVG 1.1//EN"
    "http://www.w3.org/Graphics/SVG/1.1/DTD/svg11.dtd"><svg width="400" height="400" stroke="black" fill="none" fill-opacity="0.75" font-size="14" font-style="italic" font-family="sans-serif" xmlns="http://www.w3.org/2000/svg" xmlns:xlink="http://www.w3.org/1999/xlink" version="1.1"><filter id="blur1"><feGaussianBlur stdDeviation="0.5"/></filter><rect width="100%" height="100%" fill="white" stroke="none" fill-opacity="1"/><rect class="bg" fill="black" width="100%" height="100%" stroke="none" fill-opacity="1"/><polyline class="polyline" opacity="0.5" stroke="blue" points="269.75214496503474,200.0 339.0938651655191,199.27153980610046 "/><polyline class="polyline" opacity="0.5" stroke="blue" points="269.50315406589226,200.0 338.1858362308635,198.55159791320884 "/><polyline class="polyline" opacity="0.5" stroke="blue" points="269.22538850633265,200.0 337.22145113888985,197.84009110134815 "/><polyline class="polyline" opacity="0.5" stroke="blue" points="268.9192167483744,200.0 336.2022434331876,197.13692851761064 "/><polyline class="polyline" opacity="0.5" stroke="blue" points="268.5850140062913,200.0 335.12974018304794,196.44201219241373 "/><polyline class="polyline" opacity="0.5" stroke="blue" points="268.2231617550332,200.0 334.0054600667575,195.75523754084085 "/><polyline class="polyline" opacity="0.5" stroke="blue" points="267.83404725334816,200.0 332.8309116084772,195.0764938485017 "/><polyline class="polyline" opacity="0.5" stroke="blue" points="267.4180630818316,200.0 331.6075915636758,194.40566474146613 "/><polyline class="polyline" opacity="0.5" stroke="blue" points="266.9756066960834,200.0 330.3369834478548,193.74262863993894 "/><polyline class="polyline" opacity="0.5" stroke="blue" points="266.507079995107,200.0 329.02055620311864,193.08725919544693 "/><polyline class="polyline" opacity="0.5" stroke="blue" points="266.0128889050429,200.0 327.6597629970143,192.4394257114043 "/><polyline class="polyline" opacity="0.5" stroke="blue" points="265.4934429782894,200.0 326.2560401479695,191.7989935470104 "/><polyline class="polyline" opacity="0.5" stroke="blue" points="264.9491550080238,200.0 324.81080617161354,191.16582450451304 "/><polyline class="polyline" opacity="0.5" stroke="blue" points="264.3804406581054,200.0 323.32546094224733,190.53977719994185 "/><polyline class="polyline" opacity="0.5" stroke="blue" points="263.78771810830347,200.0 321.8013849637481,189.92070741748174 "/><polyline class="polyline" opacity="0.5" stroke="blue" points="263.1714077147693,200.0 320.23993874424036,189.30846844771273 "/><polyline class="polyline" opacity="0.5" stroke="blue" points="262.53193168563564,200.0 318.6424622689366,188.70291140999427 "/><polyline class="polyline" opacity="0.5" stroke="blue" points="261.8697137716065,200.0 317.010274565643,188.1038855593172 "/><polyline class="polyline" opacity="0.5" stroke="blue" points="261.185178971373,200.0 315.34467335754107,187.51123857798427 "/><polyline class="polyline" opacity="0.5" stroke="blue" points="260.478753251669,200.0 313.64693479797916,186.92481685251525 "/><polyline class="polyline" opacity="0.5" stroke="blue" points="259.750863281761,200.0 311.9183132821559,186.34446573620008 "/><polyline class="polyline" opacity="0.5" stroke="blue" points="259.00193618214723,200.0 310.16004133072676,185.7700297977477 "/><polyline class="polyline" opacity="0.5" stroke="blue" points="258.23239928722614,200.0 308.3733295405282,185.20135305649782 "/><polyline class="polyline" opacity="0.5" stroke="blue" points="257.4426799216769,200.0 306.5593665977835,184.6382792046785 "/><polyline class="polyline" opacity="0.5" stroke="blue" points="256.6332051902848,200.0 304.7193193493286,184.08065181720372 "/><polyline class="polyline" opacity="0.5" stroke="blue" points="255.80440178093048,200.0 302.8543329275734,183.5283145495149 "/><polyline class="polyline" opacity="0.5" stroke="blue" points="254.95669578045243,200.0 300.9655309250951,182.98111132397457 "/><polyline class="polyline" opacity="0.5" stroke="blue" points="254.0905125030843,200.0 299.0540156149393,182.4388865053247 "/><polyline class="polyline" opacity="0.5" stroke="blue" points="253.20627633116106,200.0 297.1208682128861,181.90148506572135 "/><polyline class="polyline" opacity="0.5" stroke="blue" points="252.30441056778093,200.0 295.1671491781151,181.36875273985694 "/><polyline class="polyline" opacity="0.5" stroke="blue" points="251.38533730110748,200.0 293.19389854888226,180.84053617067696 "/><polyline class="polyline" opacity="0.5" stroke="blue" points="250.44947727999028,200.0 291.2021363099907,180.31668304619276 "/><polyline class="polyline" opacity="0.5" stroke="blue" points="249.49724980058116,200.0 289.1928627890098,179.79704222788615 "/><polyline class="polyline" opacity="0.5" stroke="blue" points="248.5290726036214,200.0 287.1670590783597,179.28146387119205 "/><polyline class="polyline" opacity="0.5" stroke="blue" points="247.5453617820736,200.0 285.12568748053866,178.76979953853794 "/><polyline class="polyline" opacity="0.5" stroke="blue" points="246.54653169877318,200.0 283.0696919739233,178.2619023054075 "/><polyline class="polyline" opacity="0.5" stroke="blue" points="245.53299491377368,200.0 280.9999986967231,177.75762685988528 "/><polyline class="polyline" opacity="0.5" stroke="blue" points="244.50516212106322,200.0 278.91751644681,177.25682959612874 "/><polyline class="polyline" opacity="0.5" stroke="blue" points="243.46344209433028,200.0 276.82313719528264,176.7593687022 "/><polyline class="polyline" opacity="0.5" stroke="blue" points="242.40824164145965,200.0 274.71773661175274,176.26510424267903 "/><polyline class="polyline" opacity="0.5" stroke="blue" points="241.339965567444,200.0 272.6021745994677,175.77389823646632 "/><polyline class="polyline" opacity="0.5" stroke="blue" points="240.25901664539794,200.0 270.47729583849747,175.2856147301701 "/><polyline class="polyline" opacity="0.5" stroke="blue" points="239.1657955953669,200.0 268.343930335328,174.80011986745996 "/><polyline class="polyline" opacity="0.5" stroke="blue" points="238.06070107062783,200.0 266.2028939773047,174.317281954756 "/><polyline class="polyline" opacity="0.5" stroke="blue" points="236.94412965118136,200.0 264.0549890904715,173.83697152360878 "/><polyline class="polyline" opacity="0.5" stroke="blue" points="235.81647584414267,200.0 261.901004999439,173.3590613901119 "/><polyline class="polyline" opacity="0.5" stroke="blue" points="234.67813209074126,200.0 259.7417185880048,172.88342671167652 "/><polyline class="polyline" opacity="0.5" stroke="blue" points="233.52948877964576,200.0 257.57789485932557,172.40994504148387 "/><polyline class="polyline" opacity="0.5" stroke="blue" points="232.37093426633658,200.0 255.41028749451772,171.93849638091768 "/><polyline class="polyline" opacity="0.5" stroke="blue" points="231.20285489825199,200.0 253.23963940862893,171.4689632302674 "/><polyline class="polyline" opacity="0.5" stroke="blue" points="230.02563504544202,200.0 251.0666833029871,171.00123063797906 "/><polyline class="polyline" opacity="0.5" stroke="blue" points="228.83965713646757,200.0 248.8921422129906,170.5351862487184 "/><polyline class="polyline" opacity="0.5" stroke="blue" points="227.64530169928898,200.0 246.71673005045517,170.07072035049885 "/><polyline class="polyline" opacity="0.5" stroke="blue" points="226.4429474068941,200.0 244.54115213968012,169.60772592111462 "/><polyline class="polyline" opacity="0.5" stroke="blue" points="225.23297112742046,200.0 242.3661057464393,169.1460986741066 "/><polyline class="polyline" opacity="0.5" stroke="blue" points="224.01574797853226,200.0 240.192280599139,168.68573710447814 "/><polyline class="polyline" opacity="0.5" stroke="blue" points="222.79165138581877,200.0 238.02035940141866,168.2265425343644 "/><polyline class="polyline" opacity="0.5" stroke="blue" points="221.5610531449841,200.0 235.85101833549962,167.7684191588496 "/><polyline class="polyline" opacity="0.5" stroke="blue" points="220.32432348760605,200.0 233.68492755560976,167.31127409211257 "/><polyline class="polyline" opacity="0.5" stroke="blue" points="219.08183115024414,200.0 231.5227516708365,166.8550174140717 "/><polyline class="polyline" opacity="0.5" stroke="blue" points="217.83394344668338,200.0 229.36515021677363,166.3995622176885 "/><polyline class="polyline" opacity="0.5" stroke="blue" points="216.58102634310444,200.0 227.21277811534424,165.94482465707722 "/><polyline class="polyline" opacity="0.5" stroke="blue" points="215.32344453597455,200.0 225.0662861221912,165.4907239965576 "/><polyline class="polyline" opacity="0.5" stroke="blue" points="214.0615615324591,200.0 222.92632126103373,165.03718266077703 "/><polyline class="polyline" opacity="0.5" stroke="blue" points="212.79573973315615,200.0 220.7935272443933,164.58412628601565 "/><polyline class="polyline" opacity="0.5" stroke="blue" points="211.5263405169608,200.0 218.66854488009363,164.131483772779 "/><polyline class="polyline" opacity="0.5" stroke="blue" points="210.25372432787006,200.0 216.55201246293876,163.6791873397698 "/><polyline class="polyline" opacity="0.5" stroke="blue" points="208.97825076354064,200.0 214.44456615096954,163.22717257931993 "/><polyline class="polyline" opacity="0.5" stroke="blue" points="207.7002786654166,200.0 212.3468403256935,162.77537851435235 "/><polyline class="polyline" opacity="0.5" stroke="blue" points="206.42016621024533,200.0 210.2594679356768,162.32374765693078 "/><polyline class="polyline" opacity="0.5" stroke="blue" points="205.1382710028033,200.0 208.18308082287558,161.8722260684432 "/><polyline class="polyline" opacity="0.5" stroke="blue" points="203.8549501696547,200.0 206.11831003107645,161.42076342145361 "/><polyline class="polyline" opacity="0.5" stroke="blue" points="202.57056045376828,200.0 204.06578609580117,160.96931306324382 "/><polyline class="polyline" opacity="0.5" stroke="blue" points="201.2854583098186,200.0 202.02613931501958,160.51783208105496 "/><polyline class="polyline" opacity="0.5" stroke="blue" points="200.0,200.0 200.0,160.06628136902543 "/><polyline class="polyline" opacity="0.5" stroke="blue" points="198.71454169018142,200.0 197.98799870561228,159.6146256968089 "/><polyline class="polyline" opacity="0.5" stroke="blue" points="197.42943954623175,200.0 195.99076643938366,159.162833779843 "/><polyline class="polyline" opacity="0.5" stroke="blue" points="196.14504983034533,200.0 194.00893484859324,158.71087835122438 "/><polyline class="polyline" opacity="0.5" stroke="blue" points="194.86172899719674,200.0 192.04313638467468,158.25873623513377 "/><polyline class="polyline" opacity="0.5" stroke="blue" points="193.57983378975473,200.0 190.0940044441843,157.8063884217376 "/><polyline class="polyline" opacity="0.5" stroke="blue" points="192.29972133458344,200.0 188.1621734855761,157.35382014348002 "/><polyline class="polyline" opacity="0.5" stroke="blue" points="191.02174923645939,200.0 186.24827912101375,156.90102095266218 "/><polyline class="polyline" opacity="0.5" stroke="blue" points="189.74627567212997,200.0 184.35295818243767,156.4479848001912 "/><polyline class="polyline" opacity="0.5" stroke="blue" points="188.47365948303923,200.0 182.47684876109474,155.99471011536366 "/><polyline class="polyline" opacity="0.5" stroke="blue" points="187.20426026684387,200.0 180.62059021973116,155.5411998865332 "/><polyline class="polyline" opacity="0.5" stroke="blue" points="185.9384384675409,200.0 178.78482317664287,155.08746174249345 "/><polyline class="polyline" opacity="0.5" stroke="blue" points="184.67655546402548,200.0 176.9701894607733,154.63350803439124 "/><polyline class="polyline" opacity="0.5" stroke="blue" points="183.4189736568956,200.0 175.1773320370499,154.1793559179663 "/><polyline class="polyline" opacity="0.5" stroke="blue" points="182.16605655331662,200.0 173.40689490115224,153.725027435896 "/><polyline class="polyline" opacity="0.5" stroke="blue" points="180.9181688497559,200.0 171.6595229429113,153.27054960000487 "/><polyline class="polyline" opacity="0.5" stroke="blue" points="179.67567651239398,200.0 169.93586177755014,152.81595447307953 "/><polyline class="polyline" opacity="0.5" stroke="blue" points="178.4389468550159,200.0 168.23655754399107,152.3612792500113 "/><polyline class="polyline" opacity="0.5" stroke="blue" points="177.20834861418126,200.0 166.56225666947347,151.90656633796874 "/><polyline class="polyline" opacity="0.5" stroke="blue" points="175.98425202146774,200.0 164.91360559975203,151.45186343528297 "/><polyline class="polyline" opacity="0.5" stroke="blue" points="174.76702887257957,200.0 163.2912504941745,150.99722360870942 "/><polyline class="polyline" opacity="0.5" stroke="blue" points="173.5570525931059,200.0 161.6958368849747,150.54270536870965 "/><polyline class="polyline" opacity="0.5" stroke="blue" points="172.35469830071102,200.0 160.12800930015956,150.0883727423779 "/><polyline class="polyline" opacity="0.5" stroke="blue" points="171.16034286353243,200.0 158.5884108494169,149.6342953436168 "/><polyline class="polyline" opacity="0.5" stroke="blue" points="169.97436495455798,200.0 157.07768277252828,149.18054844014878 "/><polyline class="polyline" opacity="0.5" stroke="blue" points="168.79714510174804,200.0 155.5964639498335,148.72721301693025 "/><polyline class="polyline" opacity="0.5" stroke="blue" points="167.62906573366345,200.0 154.1453903743665,148.2743758355171 "/><polyline class="polyline" opacity="0.5" stroke="blue" points="166.47051122035424,200.0 152.7250945853598,147.8221294889143 "/><polyline class="polyline" opacity="0.5" stroke="blue" points="165.32186790925877,200.0 151.33620506290418,147.37057245142307 "/><polyline class="polyline" opacity="0.5" stroke="blue" points="164.18352415585733,200.0 149.97934558364562,146.91980912298533 "/><polyline class="polyline" opacity="0.5" stroke="blue" points="163.05587034881867,200.0 148.65513453750734,146.46994986751014 "/><polyline class="polyline" opacity="0.5" stroke="blue" points="161.93929892937217,200.0 147.36418420553832,146.0211110446518 "/><polyline class="polyline" opacity="0.5" stroke="blue" points="160.8342044046331,200.0 146.10709999911393,145.5734150344996 "/><polyline class="polyline" opacity="0.5" stroke="blue" points="159.7409833546021,200.0 144.88447966084578,145.1269902546272 "/><polyline class="polyline" opacity="0.5" stroke="blue" points="158.66003443255602,200.0 143.6969124277003,144.68197116894157 "/><polyline class="polyline" opacity="0.5" stroke="blue" points="157.59175835854037,200.0 142.54497815697644,144.238498287765 "/><polyline class="polyline" opacity="0.5" stroke="blue" points="156.53655790566975,200.0 141.42924641595258,143.79671815857944 "/><polyline class="polyline" opacity="0.5" stroke="blue" points="155.49483787893678,200.0 140.35027553618062,143.35678334686017 "/><polyline class="polyline" opacity="0.5" stroke="blue" points="154.46700508622635,200.0 139.30861163358497,142.91885240642696 "/><polyline class="polyline" opacity="0.5" stroke="blue" points="153.45346830122685,200.0 138.3047875957066,142.48308983874472 "/><polyline class="polyline" opacity="0.5" stroke="blue" points="152.4546382179264,200.0 137.3393220376273,142.0496660406115 "/><polyline class="polyline" opacity="0.5" stroke="blue" points="151.4709273963786,200.0 136.41271822830925,141.6187572396824 "/><polyline class="polyline" opacity="0.5" stroke="blue" points="150.50275019941884,200.0 135.52546298929104,141.19054541729136 "/><polyline class="polyline" opacity="0.5" stroke="blue" points="149.55052272000972,200.0 134.67802556789454,140.76521821804914 "/><polyline class="polyline" opacity="0.5" stroke="blue" points="148.61466269889252,200.0 133.87085648731278,140.3429688457178 "/><polyline class="polyline" opacity="0.5" stroke="blue" points="147.69558943221907,200.0 133.10438637617148,139.92399594488506 "/><polyline class="polyline" opacity="0.5" stroke="blue" points="146.79372366883896,200.0 132.3790247803782,139.50850346799393 "/><polyline class="polyline" opacity="0.5" stroke="blue" points="145.9094874969157,200.0 131.69515896029975,139.09670052731218 "/><polyline class="polyline" opacity="0.5" stroke="blue" points="145.0433042195476,200.0 131.05315267653128,138.6888012314678 "/><polyline class="polyline" opacity="0.5" stroke="blue" points="144.19559821906955,200.0 130.45334496774558,138.28502450621585 "/><polyline class="polyline" opacity="0.5" stroke="blue" points="143.3667948097152,200.0 129.89604892432882,137.88559389915005 "/><polyline class="polyline" opacity="0.5" stroke="blue" points="142.55732007832313,200.0 129.3815504617263,137.49073736812318 "/><polyline class="polyline" opacity="0.5" stroke="blue" points="141.76760071277386,200.0 128.9101070976293,137.1006870531955 "/><polyline class="polyline" opacity="0.5" stroke="blue" points="140.99806381785274,200.0 128.48194673733425,136.71567903199102 "/><polyline class="polyline" opacity="0.5" stroke="blue" points="140.24913671823907,200.0 128.097266471796,136.33595305840552 "/><polyline class="polyline" opacity="0.5" stroke="blue" points="139.52124674833104,200.0 127.756231393073,135.9617522846779 "/><polyline class="polyline" opacity="0.5" stroke="blue" points="138.81482102862702,200.0 127.45897343202681,135.59332296691065 "/><polyline class="polyline" opacity="0.5" stroke="blue" points="138.13028622839354,200.0 127.20559022328302,135.23091415419992 "/><polyline class="polyline" opacity="0.5" stroke="blue" points="137.46806831436433,200.0 126.99614400258928,134.8747773616162 "/><polyline class="polyline" opacity="0.5" stroke="blue" points="136.82859228523066,200.0 126.83066054181296,134.52516622735936 "/><polyline class="polyline" opacity="0.5" stroke="blue" points="136.21228189169653,200.0 126.70912812690418,134.18233615449785 "/><polyline class="polyline" opacity="0.5" stroke="blue" points="135.61955934189464,200.0 126.63149658421118,133.84654393778965 "/><polyline class="polyline" opacity="0.5" stroke="blue" points="135.0508449919762,200.0 126.59767636056475,133.51804737617272 "/><polyline class="polyline" opacity="0.5" stroke="blue" points="134.50655702171062,200.0 126.60753766255475,133.19710487160336 "/><polyline class="polyline" opacity="0.5" stroke="blue" points="133.98711109495707,200.0 126.66090966039485,132.88397501501476 "/><polyline class="polyline" opacity="0.5" stroke="blue" points="133.492920004893,200.0 126.75757976171245,132.57891616025836 "/><polyline class="polyline" opacity="0.5" stroke="blue" points="133.0243933039166,200.0 126.8972929605108,132.28218598698314 "/><polyline class="polyline" opacity="0.5" stroke="blue" points="132.58193691816842,200.0 127.0797512664246,131.99404105349973 "/><polyline class="polyline" opacity="0.5" stroke="blue" points="132.16595274665184,200.0 127.30461321922914,131.7147363407629 "/><polyline class="polyline" opacity="0.5" stroke="blue" points="131.7768382449668,200.0 127.57149349336734,131.4445247886939 "/><polyline class="polyline" opacity="0.5" stroke="blue" points="131.4149859937087,200.0 127.87996259702552,131.18365682614623 "/><polyline class="polyline" opacity="0.5" stroke="blue" points="131.08078325162558,200.0 128.2295466700211,130.93237989589608 "/><polyline class="polyline" opacity="0.5" stroke="blue" points="130.77461149366735,200.0 128.6197273844599,130.6909379761148 "/><polyline class="polyline" opacity="0.5" stroke="blue" points="130.49684593410774,200.0 129.04994195178017,130.45957109984522 "/><polyline class="polyline" opacity="0.5" stroke="blue" points="130.24785503496526,200.0 129.5195832394282,130.2385148740685 "/><polyline class="polyline" opacity="0.5" stroke="blue" points="130.028,200.0 130.028,130.02800000000002 "/><polyline class="polyline" opacity="0.5" stroke="blue" points="129.83763425461518,200.0 130.57449721524762,129.8282517963005 "/><polyline class="polyline" opacity="0.5" stroke="blue" points="129.67710291204617,200.0 131.15833655687877,129.6394897269265 "/><polyline class="polyline" opacity="0.5" stroke="blue" points="129.5467422262767,200.0 131.77873696558453,129.4619269353717 "/><polyline class="polyline" opacity="0.5" stroke="blue" points="129.44687903218053,200.0 132.43487534921064,129.29576978707144 "/><polyline class="polyline" opacity="0.5" stroke="blue" points="129.37783017344765,200.0 133.12588740044777,129.1412174217503 "/><polyline class="polyline" opacity="0.5" stroke="blue" points="129.33990191891715,200.0 133.85086853385894,128.99846131749126 "/><polyline class="polyline" opacity="0.5" stroke="blue" points="129.333389368003,200.0 134.6088749414898,128.86768486829294 "/><polyline class="polyline" opacity="0.5" stroke="blue" points="129.3585758459654,200.0 135.39892476572635,128.74906297685618 "/><polyline class="polyline" opacity="0.5" stroke="blue" points="129.41573228984834,200.0 136.21999938747751,128.64276166430795 "/><polyline class="polyline" opacity="0.5" stroke="blue" points="129.5051166259729,200.0 137.07104482716935,128.54893769852342 "/><polyline class="polyline" opacity="0.5" stroke="blue" points="129.62697313994525,200.0 137.9509732554525,128.46773824264884 "/><polyline class="polyline" opacity="0.5" stroke="blue" points="129.78153184021085,200.0 138.8586646099457,128.39930052536147 "/><polyline class="polyline" opacity="0.5" stroke="blue" points="129.9690078162556,200.0 139.7929683137699,128.34375153432097 "/><polyline class="polyline" opacity="0.5" stroke="blue" points="130.18960059262884,200.0 140.75270509107878,128.30120773417906 "/><polyline class="polyline" opacity="0.5" stroke="blue" points="130.44349348003243,200.0 141.7366688742612,128.2717748104135 "/><polyline class="polyline" opacity="0.5" stroke="blue" points="130.7308529247939,200.0 142.74362879698805,128.25554744014528 "/><polyline class="polyline" opacity="0.5" stroke="blue" points="131.05182785811,200.0 143.77233126680102,128.25260909097884 "/><polyline class="polyline" opacity="0.5" stroke="blue" points="131.40654904651842,200.0 144.82150211050248,128.2630318487815 "/><polyline class="polyline" opacity="0.5" stroke="blue" points="131.7951284451224,200.0 145.88984878520083,128.28687627518644 "/><polyline class="polyline" opacity="0.5" stroke="blue" points="132.217658555159,200.0 146.97606264750544,128.3241912954647 "/><polyline class="polyline" opacity="0.5" stroke="blue" points="132.67421178756666,200.0 148.07882127304794,128.37501411727135 "/><polyline class="polyline" opacity="0.5" stroke="blue" points="133.16483983426767,200.0 149.19679081823475,128.43937018062155 "/><polyline class="polyline" opacity="0.5" stroke="blue" points="133.689573048939,200.0 150.32862841591427,128.51727313930493 "/><polyline class="polyline" opacity="0.5" stroke="blue" points="134.24841983909977,200.0 151.47298459647305,128.6087248737968 "/><polyline class="polyline" opacity="0.5" stroke="blue" points="134.84136607139274,200.0 152.62850572575357,128.71371553557054 "/><polyline class="polyline" opacity="0.5" stroke="blue" points="135.4683744919823,200.0 153.7938364511236,128.8322236225684 "/><polyline class="polyline" opacity="0.5" stroke="blue" points="136.129384164032,200.0 154.96762214701351,128.9642160854363 "/><polyline class="polyline" opacity="0.5" stroke="blue" points="136.82430992425844,200.0 156.1485113512792,129.10964846398628 "/><polyline class="polyline" opacity="0.5" stroke="blue" points="137.55304186058655,200.0 157.33515818384245,129.26846505320444 "/><polyline class="polyline" opacity="0.5" stroke="blue" points="138.3154448129527,200.0 158.5262247392066,129.44059909799057 "/><polyline class="polyline" opacity="0.5" stroke="blue" points="139.1113578993166,200.0 159.72038344463812,129.6259730156812 "/><polyline class="polyline" opacity="0.5" stroke="blue" points="139.94059406894948,200.0 160.91631937605132,129.82449864528877 "/><polyline class="polyline" opacity="0.5" stroke="blue" points="140.80293968506487,200.0 162.1127325239188,130.03607752227094 "/><polyline class="polyline" opacity="0.5" stroke="blue" points="141.69815413884885,200.0 163.30834000186275,130.2606011775407 "/><polyline class="polyline" opacity="0.5" stroke="blue" points="142.6259694969276,200.0 164.50187819095214,130.49795145932842 "/><polyline class="polyline" opacity="0.5" stroke="blue" points="143.58609018428302,200.0 165.6921048131368,130.74800087642103 "/><polyline class="polyline" opacity="0.5" stroke="blue" points="144.57819270459024,200.0 166.8778009276872,131.0106129612272 "/><polyline class="polyline" opacity="0.5" stroke="blue" points="145.6019253999033,200.0 168.05777284497563,131.28564265104922 "/><polyline class="polyline" opacity="0.5" stroke="blue" points="146.65690825155923,200.0 169.23085395242364,131.57293668589 "/><polyline class="polyline" opacity="0.5" stroke="blue" points="147.74273272410397,200.0 170.3959064479503,131.872334021077 "/><polyline class="polyline" opacity="0.5" stroke="blue" points="148.85896165396608,200.0 171.55182297678155,132.1836662529536 "/><polyline class="polyline" opacity="0.5" stroke="blue" points="150.0051291845175,200.0 172.69752816801608,132.50675805586684 "/><polyline class="polyline" opacity="0.5" stroke="blue" points="151.1807407490625,200.0 173.83198006788618,132.84142762866827 "/><polyline class="polyline" opacity="0.5" stroke="blue" points="152.38527310318932,200.0 174.9541714671969,133.18748714894622 "/><polyline class="polyline" opacity="0.5" stroke="blue" points="153.6181744077995,200.0 176.0631311209703,133.54474323321608 "/><polyline class="polyline" opacity="0.5" stroke="blue" points="154.8788643640053,200.0 177.1579248588602,133.91299740131842 "/><polyline class="polyline" opacity="0.5" stroke="blue" points="156.16673440094502,200.0 178.23765658542976,134.29204654330027 "/><polyline class="polyline" opacity="0.5" stroke="blue" points="157.4811479174245,200.0 179.3014691699018,134.68168338709705 "/><polyline class="polyline" opacity="0.5" stroke="blue" points="158.82144057813272,200.0 180.34854522548974,135.0816969653768 "/><polyline class="polyline" opacity="0.5" stroke="blue" points="160.18692066502348,200.0 181.37810777889933,135.49187307996414 "/><polyline class="polyline" opacity="0.5" stroke="blue" points="161.5768694842772,200.0 182.38942083104752,135.91199476232174 "/><polyline class="polyline" opacity="0.5" stroke="blue" points="162.990541829087,200.0 183.38178981048245,136.3418427286349 "/><polyline class="polyline" opacity="0.5" stroke="blue" points="164.42716649832357,200.0 184.35456192139463,136.78119582811678 "/><polyline class="polyline" opacity="0.5" stroke="blue" points="165.88594687094866,200.0 185.3071263884903,137.22983148323078 "/><polyline class="polyline" opacity="0.5" stroke="blue" points="167.36606153585265,200.0 186.23891460135016,137.6875261206057 "/><polyline class="polyline" opacity="0.5" stroke="blue" points="168.8666649765941,200.0 187.14940016121554,138.1540555915064 "/><polyline class="polyline" opacity="0.5" stroke="blue" points="170.38688831032124,200.0 188.03809883343513,138.629195580807 "/><polyline class="polyline" opacity="0.5" stroke="blue" points="171.92584007995342,200.0 188.90456840906145,139.11272200350373 "/><polyline class="polyline" opacity="0.5" stroke="blue" points="173.48260709850075,200.0 189.74840847931458,139.6044113878944 "/><polyline class="polyline" opacity="0.5" stroke="blue" points="175.05625534419767,200.0 190.56926012682104,140.10404124463963 "/><polyline class="polyline" opacity="0.5" stroke="blue" points="176.6458309049293,200.0 191.366805537703,140.61139042101266 "/><polyline class="polyline" opacity="0.5" stroke="blue" points="178.25036097023178,200.0 192.1407675387206,141.12623943973193 "/><polyline class="polyline" opacity="0.5" stroke="blue" points="179.86885486895775,200.0 192.89090906377533,141.6483708218582 "/><polyline class="polyline" opacity="0.5" stroke="blue" points="181.5003051505094,200.0 193.61703255415262,142.17756939332403 "/><polyline class="polyline" opacity="0.5" stroke="blue" points="183.14368870736362,200.0 194.31897929692985,142.7136225747454 "/><polyline class="polyline" opacity="0.5" stroke="blue" points="184.79796793643897,200.0 194.99662870599118,143.25632065424603 "/><polyline class="polyline" opacity="0.5" stroke="blue" points="186.46209193669003,200.0 195.64989755008682,143.80545704310322 "/><polyline class="polyline" opacity="0.5" stroke="blue" points="188.13499774016285,200.0 196.27873913234336,144.3608285140947 "/><polyline class="polyline" opacity="0.5" stroke="blue" points="189.81561157359585,200.0 196.88314242557936,144.92223542249926 "/><polyline class="polyline" opacity="0.5" stroke="blue" points="191.5028501475239,200.0 197.46313116770966,145.48948190976876 "/><polyline class="polyline" opacity="0.5" stroke="blue" points="193.19562196971765,200.0 198.01876292143,146.06237608994977 "/><polyline class="polyline" opacity="0.5" stroke="blue" points="194.89282867968814,200.0 198.55012810226808,146.64073021899353 "/><polyline class="polyline" opacity="0.5" stroke="blue" points="196.5933664008888,200.0 199.0573489789631,147.22436084714428 "/><polyline class="polyline" opacity="0.5" stroke="blue" points="198.2961271071735,200.0 199.54057865000308,147.81308895464755 "/><polyline class="polyline" opacity="0.5" stroke="blue" points="200.0,200.0 200.0,148.40674007106162 "/><polyline class="polyline" opacity="0.5" stroke="blue" points="201.70387289282638,200.0 200.43582463942863,149.0051443785003 "/><polyline class="polyline" opacity="0.5" stroke="blue" points="203.406633599111,200.0 200.8482918310893,149.60813679916816 "/><polyline class="polyline" opacity="0.5" stroke="blue" points="205.10717132031178,200.0 201.2376674064837,150.2155570675839 "/><polyline class="polyline" opacity="0.5" stroke="blue" points="206.80437803028215,200.0 201.60424267511723,150.82724978791464 "/><polyline class="polyline" opacity="0.5" stroke="blue" points="208.49714985247593,200.0 201.94833332956156,151.4430644768696 "/><polyline class="polyline" opacity="0.5" stroke="blue" points="210.18438842640398,200.0 202.27027834892857,152.06285559262093 "/><polyline class="polyline" opacity="0.5" stroke="blue" points="211.86500225983698,200.0 202.57043890322456,152.68648255023842 "/><polyline class="polyline" opacity="0.5" stroke="blue" points="213.53790806330983,200.0 202.8491972608702,153.31380972413746 "/><polyline class="polyline" opacity="0.5" stroke="blue" points="215.2020320635609,200.0 203.10695570149025,153.9447064380504 "/><polyline class="polyline" opacity="0.5" stroke="blue" points="216.8563112926362,200.0 203.34413543589798,154.57904694304034 "/><polyline class="polyline" opacity="0.5" stroke="blue" points="218.49969484949045,200.0 203.56117553502216,155.21671038407902 "/><polyline class="polyline" opacity="0.5" stroke="blue" points="220.13114513104213,200.0 203.75853186935367,155.85758075571638 "/><polyline class="polyline" opacity="0.5" stroke="blue" points="221.74963902976805,200.0 203.93667606031917,156.50154684736492 "/><polyline class="polyline" opacity="0.5" stroke="blue" points="223.3541690950706,200.0 204.0960944448292,157.14850217872458 "/><polyline class="polyline" opacity="0.5" stroke="blue" points="224.9437446558022,200.0 204.2372870540895,157.79834492586605 "/><polyline class="polyline" opacity="0.5" stroke="blue" points="226.51739290149916,200.0 204.36076660761648,158.45097783848675 "/><polyline class="polyline" opacity="0.5" stroke="blue" points="228.07415992004644,200.0 204.46705752325215,159.10630814884638 "/><polyline class="polyline" opacity="0.5" stroke="blue" points="229.61311168967856,200.0 204.55669494383994,159.76424747287885 "/><polyline class="polyline" opacity="0.5" stroke="blue" points="231.13333502340575,200.0 204.63022378109238,160.42471170397005 "/><polyline class="polyline" opacity="0.5" stroke="blue" points="232.63393846414718,200.0 204.68819777706122,161.08762089987744 "/><polyline class="polyline" opacity="0.5" stroke="blue" points="234.11405312905123,200.0 204.73117858350713,161.75289916325897 "/><polyline class="polyline" opacity="0.5" stroke="blue" points="235.57283350167626,200.0 204.75973485936,162.42047451626425 "/><polyline class="polyline" opacity="0.5" stroke="blue" points="237.00945817091284,200.0 204.77444138636383,163.09027876962978 "/><polyline class="polyline" opacity="0.5" stroke="blue" points="238.42313051572265,200.0 204.7758782029103,163.76224738670675 "/><polyline class="polyline" opacity="0.5" stroke="blue" points="239.81307933497646,200.0 204.7646297559826,164.43631934283684 "/><polyline class="polyline" opacity="0.5" stroke="blue" points="241.1785594218671,200.0 204.74128407105826,165.11243698047855 "/><polyline class="polyline" opacity="0.5" stroke="blue" points="242.51885208257542,200.0 204.70643193975218,165.79054586047354 "/><polyline class="polyline" opacity="0.5" stroke="blue" points="243.8332655990548,200.0 204.66066612492347,166.470594609829 "/><polyline class="polyline" opacity="0.5" stroke="blue" points="245.12113563599462,200.0 204.6045805829179,167.15253476638077 "/><polyline class="polyline" opacity="0.5" stroke="blue" points="246.38182559220036,200.0 204.53876970257355,167.83632062068816 "/><polyline class="polyline" opacity="0.5" stroke="blue" points="247.6147268968106,200.0 204.4638275605822,168.52190905550066 "/><polyline class="polyline" opacity="0.5" stroke="blue" points="248.8192592509374,200.0 204.38034719276644,169.2092593831249 "/><polyline class="polyline" opacity="0.5" stroke="blue" points="249.99487081548241,200.0 204.28891988081224,169.8983331810095 "/><polyline class="polyline" opacity="0.5" stroke="blue" points="251.14103834603384,200.0 204.19013445397823,170.58909412585538 "/><polyline class="polyline" opacity="0.5" stroke="blue" points="252.25726727589597,200.0 204.08457660529308,171.28150782654944 "/><polyline class="polyline" opacity="0.5" stroke="blue" points="253.3430917484407,200.0 203.9728282217485,171.9755416562104 "/><polyline class="polyline" opacity="0.5" stroke="blue" points="254.39807460009663,200.0 203.85546672799663,172.671164583628 "/><polyline class="polyline" opacity="0.5" stroke="blue" points="255.4218072954097,200.0 203.73306444306695,173.36834700436873 "/><polyline class="polyline" opacity="0.5" stroke="blue" points="256.4139098157169,200.0 203.60618794963165,174.0670605718142 "/><polyline class="polyline" opacity="0.5" stroke="blue" points="257.37403050307233,200.0 203.47539747536342,174.76727802839392 "/><polyline class="polyline" opacity="0.5" stroke="blue" points="258.30184586115104,200.0 203.34124628595464,175.46897303726576 "/><polyline class="polyline" opacity="0.5" stroke="blue" points="259.1970603149351,200.0 203.20428008939015,176.17212001469684 "/><polyline class="polyline" opacity="0.5" stroke="blue" points="260.0594059310505,200.0 203.06503645109967,176.87669396338936 "/><polyline class="polyline" opacity="0.5" stroke="blue" points="260.88864210068334,200.0 202.92404421964827,177.58267030699645 "/><polyline class="polyline" opacity="0.5" stroke="blue" points="261.68455518704724,200.0 202.78182296266303,178.29002472606723 "/><polyline class="polyline" opacity="0.5" stroke="blue" points="262.4469581394134,200.0 202.63888241273537,178.998732995661 "/><polyline class="polyline" opacity="0.5" stroke="blue" points="263.1756900757415,200.0 202.49572192308324,179.70877082486612 "/><polyline class="polyline" opacity="0.5" stroke="blue" points="263.87061583596795,200.0 202.35282993280566,180.4201136984616 "/><polyline class="polyline" opacity="0.5" stroke="blue" points="264.53162550801767,200.0 202.2106834416115,181.13273672095448 "/><polyline class="polyline" opacity="0.5" stroke="blue" points="265.1586339286072,200.0 202.06974749395812,181.84661446323088 "/><polyline class="polyline" opacity="0.5" stroke="blue" points="265.7515801609002,200.0 201.93047467258833,182.56172081205403 "/><polyline class="polyline" opacity="0.5" stroke="blue" points="266.310426951061,200.0 201.79330460151206,183.27802882264692 "/><polyline class="polyline" opacity="0.5" stroke="blue" points="266.8351601657323,200.0 201.65866345853541,183.99551057459524 "/><polyline class="polyline" opacity="0.5" stroke="blue" points="267.3257882124333,200.0 201.52696349749806,184.71413703130847 "/><polyline class="polyline" opacity="0.5" stroke="blue" points="267.782341444841,200.0 201.39860258044064,185.43387790327756 "/><polyline class="polyline" opacity="0.5" stroke="blue" points="268.20487155487757,200.0 201.27396371998125,186.15470151536786 "/><polyline class="polyline" opacity="0.5" stroke="blue" points="268.5934509534816,200.0 201.15341463224195,186.87657467838835 "/><polyline class="polyline" opacity="0.5" stroke="blue" points="268.94817214189,200.0 201.03730730072326,187.59946256517645 "/><polyline class="polyline" opacity="0.5" stroke="blue" points="269.2691470752061,200.0 200.92597755158565,188.32332859144083 "/><polyline class="polyline" opacity="0.5" stroke="blue" points="269.5565065199675,200.0 200.8197446408523,189.04813430160178 "/><polyline class="polyline" opacity="0.5" stroke="blue" points="269.8103994073711,200.0 200.7189108541057,189.7738392598714 "/><polyline class="polyline" opacity="0.5" stroke="blue" points="270.0309921837444,200.0 200.62376111930425,190.50040094681225 "/><polyline class="polyline" opacity="0.5" stroke="blue" points="270.21846815978915,200.0 200.53456263339726,191.22777466161315 "/><polyline class="polyline" opacity="0.5" stroke="blue" points="270.3730268600548,200.0 200.45156450346795,191.95591343031927 "/><polyline class="polyline" opacity="0.5" stroke="blue" points="270.4948833740271,200.0 200.37499740317992,192.68476792024893 "/><polyline class="polyline" opacity="0.5" stroke="blue" points="270.58426771015166,200.0 200.305073245348,193.41428636082804 "/><polyline class="polyline" opacity="0.5" stroke="blue" points="270.64142415403467,200.0 200.24198487149326,194.14441447106714 "/><polyline class="polyline" opacity="0.5" stroke="blue" points="270.666610631997,200.0 200.18590575928047,194.8750953939017 "/><polyline class="polyline" opacity="0.5" stroke="blue" points="270.6600980810829,200.0 200.1369897487669,195.60626963760853 "/><polyline class="polyline" opacity="0.5" stroke="blue" points="270.6221698265524,200.0 200.09537078842004,196.33787502450593 "/><polyline class="polyline" opacity="0.5" stroke="blue" points="270.5531209678195,200.0 200.06116270188457,197.06984664713355 "/><polyline class="polyline" opacity="0.5" stroke="blue" points="270.4532577737233,200.0 200.03445897649573,197.80211683210135 "/><polyline class="polyline" opacity="0.5" stroke="blue" points="270.32289708795383,200.0 200.01533257454892,198.53461511178375 "/><polyline class="polyline" opacity="0.5" stroke="blue" points="270.1623657453848,200.0 200.00383576834125,199.26726820402402 "/><polyline class="polyline" opacity="0.5" stroke="blue" points="269.972,200.0 200.0,200.0 "/><polyline class="polyline" opacity="0.5" stroke="blue" points="269.75214496503474,200.0 200.00383576710797,200.73273156038792 "/><polyline class="polyline" opacity="0.5" stroke="blue" points="269.50315406589226,200.0 200.01533253512088,201.4653811199451 "/><polyline class="polyline" opacity="0.5" stroke="blue" points="269.2253885063327,200.0 200.0344586775539,202.19786410061363 "/><polyline class="polyline" opacity="0.5" stroke="blue" points="268.9192167483744,200.0 200.06116144488703,202.93009313323148 "/><polyline class="polyline" opacity="0.5" stroke="blue" points="268.5850140062913,200.0 200.0953669631043,203.66197808791435 "/><polyline class="polyline" opacity="0.5" stroke="blue" points="268.22316175503323,200.0 200.136980262744,204.3934261131532 "/><polyline class="polyline" opacity="0.5" stroke="blue" points="267.83404725334816,200.0 200.18588533928565,205.1243416836485 "/><polyline class="polyline" opacity="0.5" stroke="blue" points="267.41806308183163,200.0 200.2419452456473,205.85462665688044 "/><polyline class="polyline" opacity="0.5" stroke="blue" points="266.97560669608345,200.0 200.30500221750322,206.58418033838825 "/><polyline class="polyline" opacity="0.5" stroke="blue" points="266.507079995107,200.0 200.3748778320646,207.31289955570932 "/><polyline class="polyline" opacity="0.5" stroke="blue" points="266.012888905043,200.0 200.45137320088827,208.04067874089898 "/><polyline class="polyline" opacity="0.5" stroke="blue" points="265.4934429782894,200.0 200.53426919719826,208.76741002152923 "/><polyline class="polyline" opacity="0.5" stroke="blue" points="264.94915500802387,200.0 200.6233267181159,209.4929833200332 "/><polyline class="polyline" opacity="0.5" stroke="blue" points="264.3804406581054,200.0 200.71828698209947,210.21728646123785 "/><polyline class="polyline" opacity="0.5" stroke="blue" points="263.7877181083035,200.0 200.81887186179503,210.94020528789585 "/><polyline class="polyline" opacity="0.5" stroke="blue" points="263.1714077147694,200.0 200.9247842523947,211.66162378400176 "/><polyline class="polyline" opacity="0.5" stroke="blue" points="262.5319316856357,200.0 201.03570847548932,212.3814242056472 "/><polyline class="polyline" opacity="0.5" stroke="blue" points="261.86971377160654,200.0 201.15131071828802,213.09948721914154 "/><polyline class="polyline" opacity="0.5" stroke="blue" points="261.18517897137303,200.0 201.27123950795993,213.81569204609775 "/><polyline class="polyline" opacity="0.5" stroke="blue" points="260.478753251669,200.0 201.39512622073323,214.52991661515227 "/><polyline class="polyline" opacity="0.5" stroke="blue" points="259.750863281761,200.0 201.52258562526328,215.24203771996406 "/><polyline class="polyline" opacity="0.5" stroke="blue" points="259.00193618214735,200.0 201.65321645965744,215.9519311831081 "/><polyline class="polyline" opacity="0.5" stroke="blue" points="258.2323992872262,200.0 201.78660204141914,216.65947202545556 "/><polyline class="polyline" opacity="0.5" stroke="blue" points="257.4426799216769,200.0 201.9223109094472,217.36453464060696 "/><polyline class="polyline" opacity="0.5" stroke="blue" points="256.63320519028485,200.0 202.05989749710284,218.06699297392163 "/><polyline class="polyline" opacity="0.5" stroke="blue" points="255.80440178093053,200.0 202.19890283523208,218.7667207056658 "/><polyline class="polyline" opacity="0.5" stroke="blue" points="254.95669578045246,200.0 202.33885528390996,219.46359143778042 "/><polyline class="polyline" opacity="0.5" stroke="blue" points="254.0905125030844,200.0 202.47927129155474,220.15747888375196 "/><polyline class="polyline" opacity="0.5" stroke="blue" points="253.20627633116112,200.0 202.61965617994537,220.8482570610535 "/><polyline class="polyline" opacity="0.5" stroke="blue" points="252.30441056778096,200.0 202.75950495356508,221.53580048560755 "/><polyline class="polyline" opacity="0.5" stroke="blue" points="251.38533730110757,200.0 202.89830313158834,222.21998436771116 "/><polyline class="polyline" opacity="0.5" stroke="blue" points="250.44947727999036,200.0 203.035527600731,222.90068480885373 "/><polyline class="polyline" opacity="0.5" stroke="blue" points="249.49724980058124,200.0 203.17064748708867,223.57777899884874 "/><polyline class="polyline" opacity="0.5" stroke="blue" points="248.52907260362144,200.0 203.30312504500597,224.25114541269824 "/><polyline class="polyline" opacity="0.5" stroke="blue" points="247.54536178207368,200.0 203.43241656093977,224.92066400660323 "/><polyline class="polyline" opacity="0.5" stroke="blue" points="246.54653169877324,200.0 203.55797327021364,225.5862164125359 "/><polyline class="polyline" opacity="0.5" stroke="blue" points="245.53299491377373,200.0 203.67924228449905,226.24768613078956 "/><polyline class="polyline" opacity="0.5" stroke="blue" points="244.50516212106328,200.0 203.7956675278109,226.90495871992974 "/><polyline class="polyline" opacity="0.5" stroke="blue" points="243.46344209433033,200.0 203.90669067876394,227.5579219835753 "/><polyline class="polyline" opacity="0.5" stroke="blue" points="242.40824164145968,200.0 204.0117521168081,228.2064661534511 "/><polyline class="polyline" opacity="0.5" stroke="blue" points="241.33996556744407,200.0 204.11029187014057,228.85048406816443 "/><polyline class="polyline" opacity="0.5" stroke="blue" points="240.25901664539796,200.0 204.2017505629854,229.4898713471747 "/><polyline class="polyline" opacity="0.5" stroke="blue" points="239.16579559536697,200.0 204.2855703599331,230.1245265594418 "/><polyline class="polyline" opacity="0.5" stroke="blue" points="238.06070107062789,200.0 204.36119590504612,230.75435138626074 "/><polyline class="polyline" opacity="0.5" stroke="blue" points="236.94412965118138,200.0 204.42807525346092,231.37925077781003 "/><polyline class="polyline" opacity="0.5" stroke="blue" points="235.81647584414276,200.0 204.4856607932512,231.99913310296722 "/><polyline class="polyline" opacity="0.5" stroke="blue" points="234.67813209074131,200.0 204.533410155363,232.61391029197125 "/><polyline class="polyline" opacity="0.5" stroke="blue" points="233.52948877964585,200.0 204.57078710948704,233.22349797153748 "/><polyline class="polyline" opacity="0.5" stroke="blue" points="232.37093426633663,200.0 204.59726244379982,233.8278155920632 "/><polyline class="polyline" opacity="0.5" stroke="blue" points="231.20285489825207,200.0 204.61231482657877,234.4267865465903 "/><polyline class="polyline" opacity="0.5" stroke="blue" points="230.02563504544207,200.0 204.61543164778092,235.02033828122532 "/><polyline class="polyline" opacity="0.5" stroke="blue" points="228.83965713646765,200.0 204.60610983876646,235.60840239674897 "/><polyline class="polyline" opacity="0.5" stroke="blue" points="227.64530169928904,200.0 204.58385666844802,236.19091474118306 "/><polyline class="polyline" opacity="0.5" stroke="blue" points="226.44294740689418,200.0 204.54819051425363,236.76781549311482 "/><polyline class="polyline" opacity="0.5" stroke="blue" points="225.23297112742048,200.0 204.49864160640448,237.3390492356161 "/><polyline class="polyline" opacity="0.5" stroke="blue" points="224.01574797853235,200.0 204.43475274412796,237.90456502062798 "/><polyline class="polyline" opacity="0.5" stroke="blue" points="222.79165138581885,200.0 204.35607998254977,238.4643164237186 "/><polyline class="polyline" opacity="0.5" stroke="blue" points="221.5610531449842,200.0 204.26219328913774,239.0182615891544 "/><polyline class="polyline" opacity="0.5" stroke="blue" points="220.32432348760614,200.0 204.1526771687013,239.56636326526225 "/><polyline class="polyline" opacity="0.5" stroke="blue" points="219.0818311502442,200.0 204.02713125608466,240.10858883009195 "/><polyline class="polyline" opacity="0.5" stroke="blue" points="217.83394344668346,200.0 203.88517087582764,240.64491030742158 "/><polyline class="polyline" opacity="0.5" stroke="blue" points="216.58102634310447,200.0 203.72642756820537,241.17530437318356 "/><polyline class="polyline" opacity="0.5" stroke="blue" points="215.32344453597463,200.0 203.55054958119456,241.6997523524142 "/><polyline class="polyline" opacity="0.5" stroke="blue" points="214.06156153245917,200.0 203.35720232805176,242.21824020686708 "/><polyline class="polyline" opacity="0.5" stroke="blue" points="212.79573973315624,200.0 203.14606881032273,242.73075851345175 "/><polyline class="polyline" opacity="0.5" stroke="blue" points="211.52634051696086,200.0 202.91685000623696,243.23730243369135 "/><polyline class="polyline" opacity="0.5" stroke="blue" points="210.25372432787015,200.0 202.66926522457038,243.73787167441486 "/><polyline class="polyline" opacity="0.5" stroke="blue" points="208.9782507635407,200.0 202.40305242418808,244.23247043992478 "/><polyline class="polyline" opacity="0.5" stroke="blue" points="207.70027866541665,200.0 202.11796849960032,244.7211073759018 "/><polyline class="polyline" opacity="0.5" stroke="blue" points="206.42016621024536,200.0 201.81378953298577,245.20379550532851 "/><polyline class="polyline" opacity="0.5" stroke="blue" points="205.13827100280335,200.0 201.4903110132477,245.6805521567311 "/><polyline class="polyline" opacity="0.5" stroke="blue" points="203.85495016965478,200.0 201.14734802277903,246.15139888505473 "/><polyline class="polyline" opacity="0.5" stroke="blue" points="202.57056045376834,200.0 200.78473539271272,246.61636138550168 "/><polyline class="polyline" opacity="0.5" stroke="blue" points="201.28545830981872,200.0 200.40232782753156,247.0754694006722 "/><polyline class="polyline" opacity="0.5" stroke="blue" points="200.0,200.0 200.0,247.52875662136069 "/><polyline class="polyline" opacity="0.5" stroke="blue" points="198.7145416901815,200.0 199.57764661746435,247.9762605813628 "/><polyline class="polyline" opacity="0.5" stroke="blue" points="197.4294395462318,200.0 199.13518246064245,248.41802254666067 "/><polyline class="polyline" opacity="0.5" stroke="blue" points="196.1450498303454,200.0 198.67254239609423,248.8540873993516 "/><polyline class="polyline" opacity="0.5" stroke="blue" points="194.8617289971968,200.0 198.1896813636244,249.28450351669247 "/><polyline class="polyline" opacity="0.5" stroke="blue" points="193.5798337897548,200.0 197.68657433992442,249.7093226456281 "/><polyline class="polyline" opacity="0.5" stroke="blue" points="192.2997213345835,200.0 197.1632162798063,250.12859977317441 "/><polyline class="polyline" opacity="0.5" stroke="blue" points="191.02174923645939,200.0 196.61962203642284,250.54239299301958 "/><polyline class="polyline" opacity="0.5" stroke="blue" points="189.74627567212997,200.0 196.05582626189957,250.95076336870494 "/><polyline class="polyline" opacity="0.5" stroke="blue" points="188.47365948303917,200.0 195.47188328983077,251.3537747937404 "/><polyline class="polyline" opacity="0.5" stroke="blue" points="187.20426026684393,200.0 194.86786700111088,251.75149384899902 "/><polyline class="polyline" opacity="0.5" stroke="blue" points="185.93843846754092,200.0 194.24387067458443,252.14398965773051 "/><polyline class="polyline" opacity="0.5" stroke="blue" points="184.67655546402545,200.0 193.60000682400505,252.53133373851864 "/><polyline class="polyline" opacity="0.5" stroke="blue" points="183.41897365689567,200.0 192.9364070227917,252.91359985650044 "/><polyline class="polyline" opacity="0.5" stroke="blue" points="182.16605655331665,200.0 192.25322171806698,253.29086387314985 "/><polyline class="polyline" opacity="0.5" stroke="blue" points="180.9181688497559,200.0 191.5506200354494,253.66320359491576 "/><polyline class="polyline" opacity="0.5" stroke="blue" points="179.67567651239392,200.0 190.8287895760544,254.03069862099233 "/><polyline class="polyline" opacity="0.5" stroke="blue" points="178.43894685501596,200.0 190.08793620713828,254.39343019048175 "/><polyline class="polyline" opacity="0.5" stroke="blue" points="177.2083486141813,200.0 189.3282838477918,254.75148102919772 "/><polyline class="polyline" opacity="0.5" stroke="blue" points="175.98425202146774,200.0 188.55007425106044,255.1049351963388 "/><polyline class="polyline" opacity="0.5" stroke="blue" points="174.76702887257954,200.0 187.75356678383216,255.45387793124797 "/><polyline class="polyline" opacity="0.5" stroke="blue" points="173.55705259310596,200.0 186.9390382057966,255.79839550045637 "/><polyline class="polyline" opacity="0.5" stroke="blue" points="172.35469830071105,200.0 186.1067824487364,256.13857504519297 "/><polyline class="polyline" opacity="0.5" stroke="blue" points="171.16034286353243,200.0 185.25711039736834,256.47450442952606 "/><polyline class="polyline" opacity="0.5" stroke="blue" points="169.97436495455793,200.0 184.39034967290155,256.80627208928524 "/><polyline class="polyline" opacity="0.5" stroke="blue" points="168.79714510174807,200.0 183.5068444204332,257.1339668818957 "/><polyline class="polyline" opacity="0.5" stroke="blue" points="167.62906573366348,200.0 182.60695510124657,257.4576779372419 "/><polyline class="polyline" opacity="0.5" stroke="blue" points="166.47051122035424,200.0 181.69105829102529,257.7774945096584 "/><polyline class="polyline" opacity="0.5" stroke="blue" points="165.32186790925886,200.0 180.75954648493865,258.09350583113286 "/><polyline class="polyline" opacity="0.5" stroke="blue" points="164.18352415585736,200.0 179.81282791049716,258.4058009657891 "/><polyline class="polyline" opacity="0.5" stroke="blue" points="163.05587034881867,200.0 178.8513263490197,258.71446866570244 "/><polyline class="polyline" opacity="0.5" stroke="blue" points="161.93929892937217,200.0 177.87548096649044,259.019597228086 "/><polyline class="polyline" opacity="0.5" stroke="blue" points="160.83420440463317,200.0 176.88574615452762,259.3212743538713 "/><polyline class="polyline" opacity="0.5" stroke="blue" points="159.74098335460212,200.0 175.88259138212072,259.619587007693 "/><polyline class="polyline" opacity="0.5" stroke="blue" points="158.66003443255602,200.0 174.86650105873434,259.91462127927514 "/><polyline class="polyline" opacity="0.5" stroke="blue" points="157.59175835854035,200.0 173.8379744093106,260.2064622462024 "/><polyline class="polyline" opacity="0.5" stroke="blue" points="156.53655790566978,200.0 172.79752536164273,260.49519383804824 "/><polyline class="polyline" opacity="0.5" stroke="blue" points="155.4948378789368,200.0 171.7456824465265,260.7808987018216 "/><polyline class="polyline" opacity="0.5" stroke="blue" points="154.46700508622632,200.0 170.68298871103445,261.0636580686817 "/><polyline class="polyline" opacity="0.5" stroke="blue" points="153.4534683012269,200.0 169.61000164519203,261.3435516218608 "/><polyline class="polyline" opacity="0.5" stroke="blue" points="152.45463821792643,200.0 168.52729312227217,261.62065736572686 "/><polyline class="polyline" opacity="0.5" stroke="blue" points="151.4709273963786,200.0 167.43544935286067,261.89505149590735 "/><polyline class="polyline" opacity="0.5" stroke="blue" points="150.50275019941884,200.0 166.3350708527775,262.1668082703899 "/><polyline class="polyline" opacity="0.5" stroke="blue" points="149.55052272000978,200.0 165.22677242487703,262.4359998815073 "/><polyline class="polyline" opacity="0.5" stroke="blue" points="148.61466269889254,200.0 164.11118315468215,262.70269632870856 "/><polyline class="polyline" opacity="0.5" stroke="blue" points="147.6955894322191,200.0 162.98894641974363,262.96696529201154 "/><polyline class="polyline" opacity="0.5" stroke="blue" points="146.79372366883894,200.0 161.86071991254607,263.2288720060307 "/><polyline class="polyline" opacity="0.5" stroke="blue" points="145.90948749691574,200.0 160.7271756767178,263.48847913446616 "/><polyline class="polyline" opacity="0.5" stroke="blue" points="145.0433042195476,200.0 159.5890001562305,263.74584664494034 "/><polyline class="polyline" opacity="0.5" stroke="blue" points="144.19559821906955,200.0 158.44689425720884,264.00103168406514 "/><polyline class="polyline" opacity="0.5" stroke="blue" points="143.36679480971517,200.0 157.30157342189557,264.254088452622 "/><polyline class="polyline" opacity="0.5" stroke="blue" points="142.55732007832316,200.0 156.1537677142494,264.5050680807362 "/><polyline class="polyline" opacity="0.5" stroke="blue" points="141.76760071277386,200.0 155.0042219165776,264.7540185029288 "/><polyline class="polyline" opacity="0.5" stroke="blue" points="140.99806381785274,200.0 153.85369563653268,265.00098433292936 "/><polyline class="polyline" opacity="0.5" stroke="blue" points="140.24913671823907,200.0 152.7029634237228,265.24600673813757 "/><polyline class="polyline" opacity="0.5" stroke="blue" points="139.52124674833107,200.0 151.55281489510932,265.4891233136234 "/><polyline class="polyline" opacity="0.5" stroke="blue" points="138.81482102862702,200.0 150.4040548682849,265.73036795556015 "/><polyline class="polyline" opacity="0.5" stroke="blue" points="138.13028622839352,200.0 149.25750350163895,265.9697707339926 "/><polyline class="polyline" opacity="0.5" stroke="blue" points="137.46806831436442,200.0 148.1139964403352,266.2073577648458 "/><polyline class="polyline" opacity="0.5" stroke="blue" points="136.82859228523068,200.0 146.9743849669362,266.4431510810913 "/><polyline class="polyline" opacity="0.5" stroke="blue" points="136.21228189169653,200.0 145.83953615541964,266.6771685029923 "/><polyline class="polyline" opacity="0.5" stroke="blue" points="135.61955934189464,200.0 144.7103330272343,266.9094235073648 "/><polyline class="polyline" opacity="0.5" stroke="blue" points="135.05084499197622,200.0 143.5876747079509,267.13992509579725 "/><polyline class="polyline" opacity="0.5" stroke="blue" points="134.50655702171065,200.0 142.4724765829573,267.3686776617891 "/><polyline class="polyline" opacity="0.5" stroke="blue" points="133.98711109495707,200.0 141.36567045054943,267.59568085677756 "/><polyline class="polyline" opacity="0.5" stroke="blue" points="133.49292000489302,200.0 140.268204670655,267.82092945504246 "/><polyline class="polyline" opacity="0.5" stroke="blue" points="133.0243933039166,200.0 139.18104430732305,268.04441321749005 "/><polyline class="polyline" opacity="0.5" stroke="blue" points="132.58193691816842,200.0 138.10517126299237,268.2661167543397 "/><polyline class="polyline" opacity="0.5" stroke="blue" points="132.16595274665184,200.0 137.04158440243776,268.4860193867539 "/><polyline class="polyline" opacity="0.5" stroke="blue" points="131.77683824496683,200.0 135.9912996641683,268.7040950074744 "/><polyline class="polyline" opacity="0.5" stroke="blue" points="131.4149859937087,200.0 134.95535015692855,268.92031194054977 "/><polyline class="polyline" opacity="0.5" stroke="blue" points="131.08078325162558,200.0 133.93478623882555,269.1346328002644 "/><polyline class="polyline" opacity="0.5" stroke="blue" points="130.77461149366735,200.0 132.9306755764711,269.34701434940496 "/><polyline class="polyline" opacity="0.5" stroke="blue" points="130.49684593410774,200.0 131.9441031813958,269.5574073570284 "/><polyline class="polyline" opacity="0.5" stroke="blue" points="130.24785503496526,200.0 130.97617142085414,269.7657564559245 "/><polyline class="polyline" opacity="0.5" stroke="blue" points="130.028,200.0 130.028,269.972 "/><polyline class="polyline" opacity="0.5" stroke="blue" points="129.83763425461518,200.0 129.10072591227132,270.1760699218416 "/><polyline class="polyline" opacity="0.5" stroke="blue" points="129.67710291204617,200.0 128.19550335468062,270.3778915907528 "/><polyline class="polyline" opacity="0.5" stroke="blue" points="129.5467422262767,200.0 127.31350360456413,270.57738367159715 "/><polyline class="polyline" opacity="0.5" stroke="blue" points="129.44687903218053,200.0 126.45591485420174,270.7744579848171 "/><polyline class="polyline" opacity="0.5" stroke="blue" points="129.37783017344762,200.0 125.62394199957494,270.96901936804335 "/><polyline class="polyline" opacity="0.5" stroke="blue" points="129.33990191891715,200.0 124.81880637939315,271.1609655397482 "/><polyline class="polyline" opacity="0.5" stroke="blue" points="129.333389368003,200.0 124.04174546038027,271.3501869654455 "/><polyline class="polyline" opacity="0.5" stroke="blue" points="129.3585758459654,200.0 123.29401246468116,271.53656672698355 "/><polyline class="polyline" opacity="0.5" stroke="blue" points="129.41573228984834,200.0 122.57687593512007,271.7199803955291 "/><polyline class="polyline" opacity="0.5" stroke="blue" points="129.5051166259729,200.0 121.8916192339237,271.9002959088893 "/><polyline class="polyline" opacity="0.5" stroke="blue" points="129.62697313994525,200.0 121.2395399704101,272.0773734538708 "/><polyline class="polyline" opacity="0.5" stroke="blue" points="129.78153184021085,200.0 120.62194935304179,272.25106535443007 "/><polyline class="polyline" opacity="0.5" stroke="blue" points="129.9690078162556,200.0 120.04017146115604,272.4212159664225 "/><polyline class="polyline" opacity="0.5" stroke="blue" points="130.18960059262884,200.0 119.4955424316072,272.5876615798146 "/><polyline class="polyline" opacity="0.5" stroke="blue" points="130.44349348003246,200.0 118.98940955550235,272.75023032928175 "/><polyline class="polyline" opacity="0.5" stroke="blue" points="130.7308529247939,200.0 118.52313028016972,272.9087421141681 "/><polyline class="polyline" opacity="0.5" stroke="blue" points="131.05182785810996,200.0 118.09807111148564,273.06300852884755 "/><polyline class="polyline" opacity="0.5" stroke="blue" points="131.40654904651842,200.0 117.71560641169158,273.2128328045784 "/><polyline class="polyline" opacity="0.5" stroke="blue" points="131.79512844512243,200.0 117.37711708787032,273.3580097640046 "/><polyline class="polyline" opacity="0.5" stroke="blue" points="132.217658555159,200.0 117.08398916631421,273.4983257895101 "/><polyline class="polyline" opacity="0.5" stroke="blue" points="132.67421178756666,200.0 116.83761224812017,273.63355880668985 "/><polyline class="polyline" opacity="0.5" stroke="blue" points="133.16483983426767,200.0 116.63937784148037,273.76347828425276 "/><polyline class="polyline" opacity="0.5" stroke="blue" points="133.689573048939,200.0 116.49067756631719,273.8878452517215 "/><polyline class="polyline" opacity="0.5" stroke="blue" points="134.24841983909974,200.0 116.39290122712994,274.00641233634144 "/><polyline class="polyline" opacity="0.5" stroke="blue" points="134.8413660713927,200.0 116.34743475018949,274.1189238206547 "/><polyline class="polyline" opacity="0.5" stroke="blue" points="135.4683744919823,200.0 116.35565798153726,274.2251157222305 "/><polyline class="polyline" opacity="0.5" stroke="blue" points="136.129384164032,200.0 116.41894234261669,274.3247158970773 "/><polyline class="polyline" opacity="0.5" stroke="blue" points="136.8243099242584,200.0 116.53864834079887,274.4174441682873 "/><polyline class="polyline" opacity="0.5" stroke="blue" points="137.55304186058652,200.0 116.71612293255444,274.503012481481 "/><polyline class="polyline" opacity="0.5" stroke="blue" points="138.3154448129527,200.0 116.95269673758213,274.5811250886294 "/><polyline class="polyline" opacity="0.5" stroke="blue" points="139.11135789931663,200.0 117.2496811028273,274.6514787618306 "/><polyline class="polyline" opacity="0.5" stroke="blue" points="139.94059406894942,200.0 117.60836501601763,274.713763038608 "/><polyline class="polyline" opacity="0.5" stroke="blue" points="140.80293968506487,200.0 118.03001186910777,274.7676605002714 "/><polyline class="polyline" opacity="0.5" stroke="blue" points="141.69815413884885,200.0 118.51585607286395,274.81284708485026 "/><polyline class="polyline" opacity="0.5" stroke="blue" points="142.62596949692755,200.0 119.06709952473253,274.8489924360548 "/><polyline class="polyline" opacity="0.5" stroke="blue" points="143.58609018428297,200.0 119.68490793312438,274.8757602896584 "/><polyline class="polyline" opacity="0.5" stroke="blue" points="144.5781927045902,200.0 120.37040700230986,274.89280889861095 "/><polyline class="polyline" opacity="0.5" stroke="blue" points="145.6019253999033,200.0 121.12467848325647,274.8997914980963 "/><polyline class="polyline" opacity="0.5" stroke="blue" points="146.65690825155917,200.0 121.94875609694827,274.89635681162656 "/><polyline class="polyline" opacity="0.5" stroke="blue" points="147.74273272410392,200.0 122.84362133800414,274.88214959913284 "/><polyline class="polyline" opacity="0.5" stroke="blue" points="148.85896165396608,200.0 123.81019916775033,274.8568112478531 "/><polyline class="polyline" opacity="0.5" stroke="blue" points="150.0051291845175,200.0 124.84935360730597,274.81998040664143 "/><polyline class="polyline" opacity="0.5" stroke="blue" points="151.18074074906247,200.0 125.96188324268918,274.771293664122 "/><polyline class="polyline" opacity="0.5" stroke="blue" points="152.3852731031893,200.0 127.14851665544862,274.7103862708955 "/><polyline class="polyline" opacity="0.5" stroke="blue" points="153.61817440779953,200.0 128.40990779385444,274.63689290575655 "/><polyline class="polyline" opacity="0.5" stroke="blue" points="154.87886436400532,200.0 129.74663130123835,274.55044848562255 "/><polyline class="polyline" opacity="0.5" stroke="blue" points="156.16673440094502,200.0 131.15917781963526,274.4506890185862 "/><polyline class="polyline" opacity="0.5" stroke="blue" points="157.48114791742447,200.0 132.64794928844185,274.33725249919684 "/><polyline class="polyline" opacity="0.5" stroke="blue" points="158.82144057813278,200.0 134.21325425934833,274.20977984475275 "/><polyline class="polyline" opacity="0.5" stroke="blue" points="160.18692066502342,200.0 135.85530325031118,274.0679158710394 "/><polyline class="polyline" opacity="0.5" stroke="blue" points="161.5768694842772,200.0 137.5742041627832,273.91131030558904 "/><polyline class="polyline" opacity="0.5" stroke="blue" points="162.99054182908708,200.0 139.36995778780016,273.73961883616107 "/><polyline class="polyline" opacity="0.5" stroke="blue" points="164.42716649832363,200.0 141.24245342780915,273.5525041917532 "/><polyline class="polyline" opacity="0.5" stroke="blue" points="165.88594687094863,200.0 143.19146466229168,273.3496372530588 "/><polyline class="polyline" opacity="0.5" stroke="blue" points="167.36606153585262,200.0 145.2166452862701,273.13069818887817 "/><polyline class="polyline" opacity="0.5" stroke="blue" points="168.86666497659417,200.0 147.3175254516509,272.89537761458905 "/><polyline class="polyline" opacity="0.5" stroke="blue" points="170.3868883103213,200.0 149.4935080420537,272.6433777683751 "/><polyline class="polyline" opacity="0.5" stroke="blue" points="171.92584007995336,200.0 151.74386531224945,272.3744137005115 "/><polyline class="polyline" opacity="0.5" stroke="blue" points="173.48260709850075,200.0 154.0677358235876,272.0882144706215 "/><polyline class="polyline" opacity="0.5" stroke="blue" points="175.0562553441977,200.0 156.464121706792,271.78452434744116 "/><polyline class="polyline" opacity="0.5" stroke="blue" points="176.64583090492937,200.0 158.931886283245,271.46310400528154 "/><polyline class="polyline" opacity="0.5" stroke="blue" points="178.25036097023175,200.0 161.46975207531912,271.123731711049 "/><polyline class="polyline" opacity="0.5" stroke="blue" points="179.86885486895773,200.0 164.07629923546858,270.7662044953916 "/><polyline class="polyline" opacity="0.5" stroke="blue" points="181.50030515050943,200.0 166.74996442261317,270.3903393012837 "/><polyline class="polyline" opacity="0.5" stroke="blue" points="183.14368870736362,200.0 169.48904015286206,269.9959741031437 "/><polyline class="polyline" opacity="0.5" stroke="blue" points="184.79796793643894,200.0 172.2916746497937,269.5829689894187 "/><polyline class="polyline" opacity="0.5" stroke="blue" points="186.46209193669006,200.0 175.15587221734833,269.1512072014518 "/><polyline class="polyline" opacity="0.5" stroke="blue" points="188.1349977401629,200.0 178.07949415591168,268.7005961213963 "/><polyline class="polyline" opacity="0.5" stroke="blue" points="189.81561157359585,200.0 181.0602602393473,268.2310682019464 "/><polyline class="polyline" opacity="0.5" stroke="blue" points="191.5028501475239,200.0 184.0957507676261,267.742581830726 "/><polyline class="polyline" opacity="0.5" stroke="blue" points="193.1956219697177,200.0 187.18340920627932,267.23512212232043 "/><polyline class="polyline" opacity="0.5" stroke="blue" points="194.8928286796882,200.0 190.32054542022937,266.7087016311451 "/><polyline class="polyline" opacity="0.5" stroke="blue" points="196.5933664008888,200.0 193.50433950561967,266.16336097863274 "/><polyline class="polyline" opacity="0.5" stroke="blue" points="198.29612710717348,200.0 196.7318462191361,265.59916938857435 "/><polyline class="polyline" opacity="0.5" stroke="blue" points="200.0,200.0 200.0,265.01622512488245 "/><polyline class="polyline" opacity="0.5" stroke="blue" points="201.70387289282644,200.0 203.30562057538347,264.41465582654087 "/><polyline class="polyline" opacity="0.5" stroke="blue" points="203.40663359911096,200.0 206.64541913546856,263.7946187350764 "/><polyline class="polyline" opacity="0.5" stroke="blue" points="205.10717132031175,200.0 210.01600505981847,263.15630081051575 "/><polyline class="polyline" opacity="0.5" stroke="blue" points="206.8043780302822,200.0 213.4138931721842,262.49991873248695 "/><polyline class="polyline" opacity="0.5" stroke="blue" points="208.4971498524759,200.0 216.83551149640527,261.82571878386364 "/><polyline class="polyline" opacity="0.5" stroke="blue" points="210.18438842640396,200.0 220.27720948171017,261.1339766151432 "/><polyline class="polyline" opacity="0.5" stroke="blue" points="211.86500225983704,200.0 223.7352666615563,260.42499688858106 "/><polyline class="polyline" opacity="0.5" stroke="blue" points="213.53790806330986,200.0 227.20590170622347,259.6991128019571 "/><polyline class="polyline" opacity="0.5" stroke="blue" points="215.20203206356084,200.0 230.6852818257196,258.95668549273483 "/><polyline class="polyline" opacity="0.5" stroke="blue" points="216.85631129263618,200.0 234.1695324762578,258.19810332426124 "/><polyline class="polyline" opacity="0.5" stroke="blue" points="218.49969484949048,200.0 237.6547473206258,257.42378105654615 "/><polyline class="polyline" opacity="0.5" stroke="blue" points="220.1311451310422,200.0 241.1369983902815,256.63415890504064 "/><polyline class="polyline" opacity="0.5" stroke="blue" points="221.74963902976802,200.0 244.61234639495333,255.8297014916934 "/><polyline class="polyline" opacity="0.5" stroke="blue" points="223.35416909507057,200.0 248.076851123984,255.0108966933924 "/><polyline class="polyline" opacity="0.5" stroke="blue" points="224.94374465580222,200.0 251.5265818826121,254.1782543936866 "/><polyline class="polyline" opacity="0.5" stroke="blue" points="226.5173929014992,200.0 254.95762790589265,253.3323051444179 "/><polyline class="polyline" opacity="0.5" stroke="blue" points="228.0741599200464,200.0 258.36610869298204,252.47359874457013 "/><polyline class="polyline" opacity="0.5" stroke="blue" points="229.61311168967865,200.0 261.7481842050996,251.60270274425034 "/><polyline class="polyline" opacity="0.5" stroke="blue" points="231.13333502340578,200.0 265.10006487157796,250.72020088225088 "/><polyline class="polyline" opacity="0.5" stroke="blue" points="232.63393846414718,200.0 268.4180213500588,249.82669146609044 "/><polyline class="polyline" opacity="0.5" stroke="blue" points="234.1140531290512,200.0 271.6983939890095,248.92278570379935 "/><polyline class="polyline" opacity="0.5" stroke="blue" points="235.5728335016763,200.0 274.93760194333555,248.0091059969905 "/><polyline class="polyline" opacity="0.5" stroke="blue" points="237.0094581709129,200.0 278.1321518969039,247.08628420493793 "/><polyline class="polyline" opacity="0.5" stroke="blue" points="238.42313051572262,200.0 281.27864634920945,246.1549598894771 "/><polyline class="polyline" opacity="0.5" stroke="blue" points="239.8130793349764,200.0 284.3737914271966,245.21577855053874 "/><polyline class="polyline" opacity="0.5" stroke="blue" points="241.17855942186716,200.0 287.41440418731014,244.26938986203294 "/><polyline class="polyline" opacity="0.5" stroke="blue" points="242.51885208257548,200.0 290.3974193771772,243.3164459176194 "/><polyline class="polyline" opacity="0.5" stroke="blue" points="243.8332655990548,200.0 293.31989563080987,242.3575994956337 "/><polyline class="polyline" opacity="0.5" stroke="blue" points="245.12113563599462,200.0 296.1790210758665,241.39350235209463 "/><polyline class="polyline" opacity="0.5" stroke="blue" points="246.3818255922004,200.0 298.97211833620895,240.42480355030122 "/><polyline class="polyline" opacity="0.5" stroke="blue" points="247.61472689681054,200.0 301.6966489177349,239.4521478350439 "/><polyline class="polyline" opacity="0.5" stroke="blue" points="248.8192592509374,200.0 304.3502169701499,238.47617405891344 "/><polyline class="polyline" opacity="0.5" stroke="blue" points="249.99487081548244,200.0 306.9305724219563,237.4975136676019 "/><polyline class="polyline" opacity="0.5" stroke="blue" points="251.14103834603387,200.0 309.435613490411,236.51678925045417 "/><polyline class="polyline" opacity="0.5" stroke="blue" points="252.25726727589594,200.0 311.86338857249547,235.5346131618668 "/><polyline class="polyline" opacity="0.5" stroke="blue" points="253.34309174844068,200.0 314.2120975270144,234.55158621843833 "/><polyline class="polyline" opacity="0.5" stroke="blue" points="254.39807460009666,200.0 316.48009236175693,233.56829647607577 "/><polyline class="polyline" opacity="0.5" stroke="blue" points="255.4218072954097,200.0 318.6658773431906,232.5853180905435 "/><polyline class="polyline" opacity="0.5" stroke="blue" points="256.4139098157169,200.0 320.7681085493721,231.60321026423838 "/><polyline class="polyline" opacity="0.5" stroke="blue" points="257.37403050307233,200.0 322.7855928896592,230.62251628126816 "/><polyline class="polyline" opacity="0.5" stroke="blue" points="258.3018458611511,200.0 324.7172866173476,229.64376263222945 "/><polyline class="polyline" opacity="0.5" stroke="blue" points="259.1970603149351,200.0 326.5622933635616,228.66745822941544 "/><polyline class="polyline" opacity="0.5" stroke="blue" points="260.05940593105043,200.0 328.3198617225595,227.69409371255244 "/><polyline class="polyline" opacity="0.5" stroke="blue" points="260.88864210068334,200.0 329.9893824201067,226.72414084456125 "/><polyline class="polyline" opacity="0.5" stroke="blue" points="261.6845551870473,200.0 331.57038509770257,225.75805199627914 "/><polyline class="polyline" opacity="0.5" stroke="blue" points="262.44695813941337,200.0 333.06253474625026,224.7962597185521 "/><polyline class="polyline" opacity="0.5" stroke="blue" points="263.1756900757415,200.0 334.46562782323053,223.8391763996329 "/><polyline class="polyline" opacity="0.5" stroke="blue" points="263.870615835968,200.0 335.7795880876049,222.8871940053869 "/><polyline class="polyline" opacity="0.5" stroke="blue" points="264.53162550801767,200.0 337.00446218655424,221.94068389942205 "/><polyline class="polyline" opacity="0.5" stroke="blue" points="265.1586339286072,200.0 338.14041502776234,220.99999673992383 "/><polyline class="polyline" opacity="0.5" stroke="blue" points="265.75158016090023,200.0 339.1877249703232,220.06546244968564 "/><polyline class="polyline" opacity="0.5" stroke="blue" points="266.310426951061,200.0 340.1467788664868,219.13739025558507 "/><polyline class="polyline" opacity="0.5" stroke="blue" points="266.8351601657323,200.0 341.0180669854136,218.21606879355753 "/><polyline class="polyline" opacity="0.5" stroke="blue" points="267.3257882124333,200.0 341.8021778488787,217.30176627497082 "/><polyline class="polyline" opacity="0.5" stroke="blue" points="267.782341444841,200.0 342.49979300749754,216.3947307101928 "/><polyline class="polyline" opacity="0.5" stroke="blue" points="268.20487155487757,200.0 343.1116817845606,215.49519018507817 "/><polyline class="polyline" opacity="0.5" stroke="blue" points="268.5934509534816,200.0 343.6386960129697,214.60335318606684 "/><polyline class="polyline" opacity="0.5" stroke="blue" points="268.94817214189,200.0 344.08176478911514,213.71940896959268 "/><polyline class="polyline" opacity="0.5" stroke="blue" points="269.2691470752061,200.0 344.4418892658125,212.843527971536 "/><polyline class="polyline" opacity="0.5" stroke="blue" points="269.5565065199675,200.0 344.72013750467687,211.97586225251922 "/><polyline class="polyline" opacity="0.5" stroke="blue" points="269.8103994073711,200.0 344.91763940655073,211.11654597493438 "/><polyline class="polyline" opacity="0.5" stroke="blue" points="270.0309921837444,200.0 345.03558173684746,210.26569590770552 "/><polyline class="polyline" opacity="0.5" stroke="blue" points="270.21846815978915,200.0 345.0752032609338,209.42341195492367 "/><polyline class="polyline" opacity="0.5" stroke="blue" points="270.3730268600548,200.0 345.03779000297504,208.58977770463886 "/><polyline class="polyline" opacity="0.5" stroke="blue" points="270.49488337402704,200.0 344.92467064000505,207.764860994262 "/><polyline class="polyline" opacity="0.5" stroke="blue" points="270.58426771015166,200.0 344.7372120413818,206.9487144892008 "/><polyline class="polyline" opacity="0.5" stroke="blue" points="270.6414241540346,200.0 344.4768149622496,206.14137627154233 "/><polyline class="polyline" opacity="0.5" stroke="blue" points="270.666610631997,200.0 344.1449098981638,205.34287043578104 "/><polyline class="polyline" opacity="0.5" stroke="blue" points="270.6600980810829,200.0 343.74295310663933,204.55320768878957 "/><polyline class="polyline" opacity="0.5" stroke="blue" points="270.62216982655235,200.0 343.2724228000798,203.77238595142347 "/><polyline class="polyline" opacity="0.5" stroke="blue" points="270.5531209678195,200.0 342.73481551331776,203.0003909593512 "/><polyline class="polyline" opacity="0.5" stroke="blue" points="270.4532577737233,200.0 342.13164264785564,202.23719686089302 "/><polyline class="polyline" opacity="0.5" stroke="blue" points="270.32289708795383,200.0 341.46442719385254,201.4827668098486 "/><polyline class="polyline" opacity="0.5" stroke="blue" points="270.1623657453848,200.0 340.73470062993,200.73705355147965 "/><polyline class="polyline" opacity="0.5" stroke="blue" points="269.972,200.0 339.944,200.0 "/></svg>
