<?xml version="1.0" encoding="UTF-8"?>
<!DOCTYPE svg PUBLIC "-//W3C//DTD SVG 1.1//EN"
    "http://www.w3.org/Graphics/SVG/1.1/DTD/svg11.dtd"><svg width="400" height="400" stroke="black" fill="none" fill-opacity="0.75" font-style="italic" font-family="CMU Serif, sans-serif" xmlns="http://www.w3.org/2000/svg" xmlns:xlink="http://www.w3.org/1999/xlink" version="1.1"><filter id="blur"><feGaussianBlur stdDeviation="2"/></filter><rect width="100%" height="100%" fill="white" stroke="none" fill-opacity="1"/><polygon points="269.22538850633265,200.0 337.22145113888985,197.84009110134815 " opacity="0.5" stroke="blue"/><polygon points="268.2231617550332,200.0 334.0054600667575,195.75523754084085 " opacity="0.5" stroke="blue"/><polygon points="266.9756066960834,200.0 330.3369834478548,193.74262863993894 " opacity="0.5" stroke="blue"/><polygon points="265.49344297828935,200.0 326.2560401479695,191.7989935470104 " opacity="0.5" stroke="blue"/><polygon points="263.78771810830347,200.0 321.8013849637481,189.92070741748174 " opacity="0.5" stroke="blue"/><polygon points="261.8697137716065,200.0 317.010274565643,188.1038855593172 " opacity="0.5" stroke="blue"/><polygon points="259.750863281761,200.0 311.91831328215585,186.34446573620005 " opacity="0.5" stroke="blue"/><polygon points="257.4426799216769,200.0 306.5593665977835,184.6382792046785 " opacity="0.5" stroke="blue"/><polygon points="254.95669578045243,200.0 300.9655309250951,182.98111132397457 " opacity="0.5" stroke="blue"/><polygon points="252.30441056778093,200.0 295.1671491781151,181.36875273985694 " opacity="0.5" stroke="blue"/><polygon points="249.49724980058116,200.0 289.1928627890098,179.79704222788615 " opacity="0.5" stroke="blue"/><polygon points="246.54653169877318,200.0 283.0696919739233,178.2619023054075 " opacity="0.5" stroke="blue"/><polygon points="243.46344209433025,200.0 276.82313719528264,176.75936870219996 " opacity="0.5" stroke="blue"/><polygon points="240.25901664539794,200.0 270.47729583849747,175.2856147301701 " opacity="0.5" stroke="blue"/><polygon points="236.94412965118136,200.0 264.0549890904715,173.83697152360878 " opacity="0.5" stroke="blue"/><polygon points="233.52948877964576,200.0 257.5778948593255,172.40994504148387 " opacity="0.5" stroke="blue"/><polygon points="230.02563504544202,200.0 251.0666833029871,171.00123063797906 " opacity="0.5" stroke="blue"/><polygon points="226.4429474068941,200.0 244.5411521396801,169.6077259211146 " opacity="0.5" stroke="blue"/><polygon points="222.79165138581877,200.0 238.02035940141866,168.2265425343644 " opacity="0.5" stroke="blue"/><polygon points="219.0818311502441,200.0 231.52275167083647,166.85501741407168 " opacity="0.5" stroke="blue"/><polygon points="215.32344453597455,200.0 225.06628612219117,165.4907239965576 " opacity="0.5" stroke="blue"/><polygon points="211.52634051696077,200.0 218.66854488009358,164.131483772779 " opacity="0.5" stroke="blue"/><polygon points="207.70027866541656,200.0 212.34684032569348,162.77537851435233 " opacity="0.5" stroke="blue"/><polygon points="203.8549501696547,200.0 206.11831003107645,161.42076342145361 " opacity="0.5" stroke="blue"/><polygon points="200.0,200.0 200.0,160.06628136902543 " opacity="0.5" stroke="blue"/><polygon points="196.1450498303453,200.0 194.00893484859319,158.71087835122438 " opacity="0.5" stroke="blue"/><polygon points="192.2997213345834,200.0 188.16217348557603,157.35382014348 " opacity="0.5" stroke="blue"/><polygon points="188.4736594830392,200.0 182.4768487610947,155.99471011536366 " opacity="0.5" stroke="blue"/><polygon points="184.67655546402545,200.0 176.97018946077324,154.6335080343912 " opacity="0.5" stroke="blue"/><polygon points="180.91816884975586,200.0 171.65952294291125,153.27054960000487 " opacity="0.5" stroke="blue"/><polygon points="177.20834861418123,200.0 166.56225666947344,151.90656633796874 " opacity="0.5" stroke="blue"/><polygon points="173.55705259310588,200.0 161.69583688497468,150.54270536870965 " opacity="0.5" stroke="blue"/><polygon points="169.97436495455796,200.0 157.07768277252825,149.18054844014878 " opacity="0.5" stroke="blue"/><polygon points="166.47051122035424,200.0 152.72509458535978,147.8221294889143 " opacity="0.5" stroke="blue"/><polygon points="163.05587034881864,200.0 148.65513453750734,146.46994986751014 " opacity="0.5" stroke="blue"/><polygon points="159.74098335460206,200.0 144.88447966084578,145.1269902546272 " opacity="0.5" stroke="blue"/><polygon points="156.53655790566972,200.0 141.42924641595255,143.79671815857947 " opacity="0.5" stroke="blue"/><polygon points="153.45346830122682,200.0 138.30478759570659,142.48308983874472 " opacity="0.5" stroke="blue"/><polygon points="150.5027501994188,200.0 135.525462989291,141.19054541729136 " opacity="0.5" stroke="blue"/><polygon points="147.69558943221907,200.0 133.10438637617148,139.92399594488506 " opacity="0.5" stroke="blue"/><polygon points="145.04330421954757,200.0 131.05315267653125,138.6888012314678 " opacity="0.5" stroke="blue"/><polygon points="142.55732007832313,200.0 129.3815504617263,137.49073736812318 " opacity="0.5" stroke="blue"/><polygon points="140.24913671823901,200.0 128.097266471796,136.33595305840547 " opacity="0.5" stroke="blue"/><polygon points="138.13028622839352,200.0 127.20559022328302,135.23091415419995 " opacity="0.5" stroke="blue"/><polygon points="136.2122818916965,200.0 126.70912812690419,134.18233615449782 " opacity="0.5" stroke="blue"/><polygon points="134.50655702171062,200.0 126.60753766255475,133.19710487160336 " opacity="0.5" stroke="blue"/><polygon points="133.0243933039166,200.0 126.8972929605108,132.28218598698314 " opacity="0.5" stroke="blue"/><polygon points="131.7768382449668,200.0 127.57149349336736,131.4445247886939 " opacity="0.5" stroke="blue"/><polygon points="130.77461149366735,200.0 128.6197273844599,130.6909379761148 " opacity="0.5" stroke="blue"/><polygon points="130.028,200.0 130.028,130.02800000000002 " opacity="0.5" stroke="blue"/><polygon points="129.5467422262767,200.0 131.77873696558453,129.4619269353717 " opacity="0.5" stroke="blue"/><polygon points="129.33990191891715,200.0 133.850868533859,128.99846131749126 " opacity="0.5" stroke="blue"/><polygon points="129.41573228984834,200.0 136.21999938747754,128.64276166430795 " opacity="0.5" stroke="blue"/><polygon points="129.78153184021085,200.0 138.85866460994572,128.39930052536147 " opacity="0.5" stroke="blue"/><polygon points="130.44349348003246,200.0 141.73666887426126,128.2717748104135 " opacity="0.5" stroke="blue"/><polygon points="131.40654904651845,200.0 144.82150211050254,128.26303184878154 " opacity="0.5" stroke="blue"/><polygon points="132.67421178756672,200.0 148.07882127304802,128.3750141172714 " opacity="0.5" stroke="blue"/><polygon points="134.24841983909977,200.0 151.47298459647305,128.6087248737968 " opacity="0.5" stroke="blue"/><polygon points="136.129384164032,200.0 154.96762214701354,128.9642160854363 " opacity="0.5" stroke="blue"/><polygon points="138.3154448129527,200.0 158.52622473920667,129.44059909799057 " opacity="0.5" stroke="blue"/><polygon points="140.80293968506493,200.0 162.11273252391885,130.03607752227094 " opacity="0.5" stroke="blue"/><polygon points="143.58609018428308,200.0 165.69210481313687,130.74800087642106 " opacity="0.5" stroke="blue"/><polygon points="146.65690825155926,200.0 169.23085395242367,131.57293668589006 " opacity="0.5" stroke="blue"/><polygon points="150.0051291845175,200.0 172.6975281680161,132.50675805586684 " opacity="0.5" stroke="blue"/><polygon points="153.61817440779956,200.0 176.06313112097035,133.54474323321608 " opacity="0.5" stroke="blue"/><polygon points="157.4811479174245,200.0 179.3014691699018,134.68168338709705 " opacity="0.5" stroke="blue"/><polygon points="161.57686948427727,200.0 182.38942083104757,135.91199476232174 " opacity="0.5" stroke="blue"/><polygon points="165.8859468709487,200.0 185.30712638849033,137.22983148323078 " opacity="0.5" stroke="blue"/><polygon points="170.38688831032135,200.0 188.03809883343516,138.629195580807 " opacity="0.5" stroke="blue"/><polygon points="175.05625534419772,200.0 190.56926012682106,140.10404124463963 " opacity="0.5" stroke="blue"/><polygon points="179.86885486895775,200.0 192.89090906377533,141.6483708218582 " opacity="0.5" stroke="blue"/><polygon points="184.79796793643902,200.0 194.9966287059912,143.25632065424608 " opacity="0.5" stroke="blue"/><polygon points="189.81561157359593,200.0 196.8831424255794,144.92223542249928 " opacity="0.5" stroke="blue"/><polygon points="194.89282867968822,200.0 198.5501281022681,146.64073021899353 " opacity="0.5" stroke="blue"/><polygon points="200.0,200.0 200.0,148.40674007106168 " opacity="0.5" stroke="blue"/><polygon points="205.10717132031178,200.0 201.2376674064837,150.2155570675839 " opacity="0.5" stroke="blue"/><polygon points="210.18438842640404,200.0 202.2702783489286,152.06285559262096 " opacity="0.5" stroke="blue"/><polygon points="215.20203206356095,200.0 203.10695570149025,153.94470643805042 " opacity="0.5" stroke="blue"/><polygon points="220.13114513104222,200.0 203.75853186935367,155.8575807557164 " opacity="0.5" stroke="blue"/><polygon points="224.94374465580225,200.0 204.2372870540895,157.79834492586605 " opacity="0.5" stroke="blue"/><polygon points="229.61311168967865,200.0 204.55669494383994,159.7642474728789 " opacity="0.5" stroke="blue"/><polygon points="234.11405312905126,200.0 204.73117858350713,161.75289916325903 " opacity="0.5" stroke="blue"/><polygon points="238.4231305157227,200.0 204.7758782029103,163.76224738670675 " opacity="0.5" stroke="blue"/><polygon points="242.51885208257548,200.0 204.70643193975215,165.79054586047357 " opacity="0.5" stroke="blue"/><polygon points="246.3818255922004,200.0 204.53876970257357,167.83632062068818 " opacity="0.5" stroke="blue"/><polygon points="249.9948708154825,200.0 204.28891988081224,169.89833318100955 " opacity="0.5" stroke="blue"/><polygon points="253.34309174844074,200.0 203.9728282217485,171.97554165621042 " opacity="0.5" stroke="blue"/><polygon points="256.4139098157169,200.0 203.60618794963165,174.06706057181424 " opacity="0.5" stroke="blue"/><polygon points="259.19706031493513,200.0 203.20428008939015,176.17212001469687 " opacity="0.5" stroke="blue"/><polygon points="261.6845551870473,200.0 202.78182296266303,178.29002472606726 " opacity="0.5" stroke="blue"/><polygon points="263.870615835968,200.0 202.35282993280563,180.42011369846162 " opacity="0.5" stroke="blue"/><polygon points="265.75158016090023,200.0 201.93047467258833,182.56172081205406 " opacity="0.5" stroke="blue"/><polygon points="267.3257882124333,200.0 201.52696349749806,184.7141370313085 " opacity="0.5" stroke="blue"/><polygon points="268.5934509534816,200.0 201.15341463224195,186.87657467838838 " opacity="0.5" stroke="blue"/><polygon points="269.55650651996757,200.0 200.8197446408523,189.0481343016018 " opacity="0.5" stroke="blue"/><polygon points="270.21846815978915,200.0 200.53456263339726,191.2277746616132 " opacity="0.5" stroke="blue"/><polygon points="270.58426771015166,200.0 200.305073245348,193.41428636082807 " opacity="0.5" stroke="blue"/><polygon points="270.6600980810829,200.0 200.1369897487669,195.60626963760856 " opacity="0.5" stroke="blue"/><polygon points="270.4532577737233,200.0 200.03445897649573,197.80211683210138 " opacity="0.5" stroke="blue"/><polygon points="269.972,200.0 200.0,200.0 " opacity="0.5" stroke="blue"/><polygon points="269.22538850633265,200.0 200.03445867755394,202.19786410061369 " opacity="0.5" stroke="blue"/><polygon points="268.2231617550332,200.0 200.136980262744,204.39342611315323 " opacity="0.5" stroke="blue"/><polygon points="266.9756066960834,200.0 200.30500221750322,206.58418033838828 " opacity="0.5" stroke="blue"/><polygon points="265.49344297828935,200.0 200.53426919719826,208.76741002152926 " opacity="0.5" stroke="blue"/><polygon points="263.78771810830347,200.0 200.81887186179503,210.94020528789588 " opacity="0.5" stroke="blue"/><polygon points="261.8697137716065,200.0 201.15131071828804,213.0994872191416 " opacity="0.5" stroke="blue"/><polygon points="259.750863281761,200.0 201.52258562526328,215.24203771996412 " opacity="0.5" stroke="blue"/><polygon points="257.44267992167687,200.0 201.9223109094472,217.36453464060696 " opacity="0.5" stroke="blue"/><polygon points="254.95669578045243,200.0 202.33885528390996,219.46359143778045 " opacity="0.5" stroke="blue"/><polygon points="252.30441056778093,200.0 202.75950495356508,221.53580048560755 " opacity="0.5" stroke="blue"/><polygon points="249.49724980058116,200.0 203.1706474870887,223.5777789988488 " opacity="0.5" stroke="blue"/><polygon points="246.54653169877318,200.0 203.55797327021364,225.58621641253592 " opacity="0.5" stroke="blue"/><polygon points="243.46344209433025,200.0 203.90669067876397,227.55792198357534 " opacity="0.5" stroke="blue"/><polygon points="240.2590166453979,200.0 204.2017505629854,229.48987134717473 " opacity="0.5" stroke="blue"/><polygon points="236.94412965118136,200.0 204.42807525346092,231.37925077781006 " opacity="0.5" stroke="blue"/><polygon points="233.52948877964576,200.0 204.57078710948704,233.22349797153754 " opacity="0.5" stroke="blue"/><polygon points="230.02563504544204,200.0 204.61543164778092,235.02033828122535 " opacity="0.5" stroke="blue"/><polygon points="226.4429474068941,200.0 204.54819051425363,236.76781549311488 " opacity="0.5" stroke="blue"/><polygon points="222.79165138581877,200.0 204.35607998254977,238.46431642371866 " opacity="0.5" stroke="blue"/><polygon points="219.08183115024414,200.0 204.02713125608463,240.10858883009195 " opacity="0.5" stroke="blue"/><polygon points="215.32344453597452,200.0 203.55054958119456,241.69975235241424 " opacity="0.5" stroke="blue"/><polygon points="211.5263405169608,200.0 202.91685000623693,243.23730243369138 " opacity="0.5" stroke="blue"/><polygon points="207.70027866541656,200.0 202.11796849960032,244.72110737590185 " opacity="0.5" stroke="blue"/><polygon points="203.8549501696547,200.0 201.147348022779,246.1513988850548 " opacity="0.5" stroke="blue"/><polygon points="200.0,200.0 200.0,247.52875662136069 " opacity="0.5" stroke="blue"/><polygon points="196.1450498303453,200.0 198.67254239609417,248.85408739935167 " opacity="0.5" stroke="blue"/><polygon points="192.29972133458344,200.0 197.16321627980628,250.12859977317444 " opacity="0.5" stroke="blue"/><polygon points="188.47365948303917,200.0 195.47188328983077,251.3537747937404 " opacity="0.5" stroke="blue"/><polygon points="184.67655546402545,200.0 193.60000682400505,252.53133373851864 " opacity="0.5" stroke="blue"/><polygon points="180.9181688497559,200.0 191.5506200354494,253.66320359491576 " opacity="0.5" stroke="blue"/><polygon points="177.2083486141813,200.0 189.3282838477918,254.75148102919772 " opacity="0.5" stroke="blue"/><polygon points="173.55705259310585,200.0 186.93903820579652,255.7983955004564 " opacity="0.5" stroke="blue"/><polygon points="169.97436495455793,200.0 184.39034967290155,256.80627208928524 " opacity="0.5" stroke="blue"/><polygon points="166.47051122035424,200.0 181.69105829102529,257.7774945096584 " opacity="0.5" stroke="blue"/><polygon points="163.05587034881867,200.0 178.8513263490197,258.71446866570244 " opacity="0.5" stroke="blue"/><polygon points="159.74098335460212,200.0 175.88259138212072,259.619587007693 " opacity="0.5" stroke="blue"/><polygon points="156.5365579056697,200.0 172.79752536164264,260.4951938380483 " opacity="0.5" stroke="blue"/><polygon points="153.4534683012268,200.0 169.61000164519194,261.34355162186085 " opacity="0.5" stroke="blue"/><polygon points="150.50275019941884,200.0 166.3350708527775,262.1668082703899 " opacity="0.5" stroke="blue"/><polygon points="147.6955894322191,200.0 162.98894641974363,262.96696529201154 " opacity="0.5" stroke="blue"/><polygon points="145.0433042195476,200.0 159.5890001562305,263.74584664494034 " opacity="0.5" stroke="blue"/><polygon points="142.55732007832307,200.0 156.1537677142493,264.5050680807362 " opacity="0.5" stroke="blue"/><polygon points="140.24913671823901,200.0 152.7029634237227,265.2460067381376 " opacity="0.5" stroke="blue"/><polygon points="138.13028622839352,200.0 149.25750350163895,265.9697707339926 " opacity="0.5" stroke="blue"/><polygon points="136.21228189169653,200.0 145.83953615541964,266.6771685029923 " opacity="0.5" stroke="blue"/><polygon points="134.50655702171065,200.0 142.4724765829573,267.3686776617891 " opacity="0.5" stroke="blue"/><polygon points="133.02439330391658,200.0 139.18104430732294,268.04441321749005 " opacity="0.5" stroke="blue"/><polygon points="131.7768382449668,200.0 135.99129966416825,268.7040950074744 " opacity="0.5" stroke="blue"/><polygon points="130.77461149366735,200.0 132.9306755764711,269.34701434940496 " opacity="0.5" stroke="blue"/><polygon points="130.028,200.0 130.028,269.972 " opacity="0.5" stroke="blue"/><polygon points="129.5467422262767,200.0 127.31350360456413,270.57738367159715 " opacity="0.5" stroke="blue"/><polygon points="129.33990191891715,200.0 124.81880637939311,271.1609655397482 " opacity="0.5" stroke="blue"/><polygon points="129.41573228984834,200.0 122.57687593512,271.7199803955291 " opacity="0.5" stroke="blue"/><polygon points="129.78153184021085,200.0 120.62194935304179,272.25106535443007 " opacity="0.5" stroke="blue"/><polygon points="130.44349348003246,200.0 118.98940955550235,272.75023032928175 " opacity="0.5" stroke="blue"/><polygon points="131.40654904651842,200.0 117.71560641169158,273.2128328045784 " opacity="0.5" stroke="blue"/><polygon points="132.67421178756672,200.0 116.83761224812021,273.63355880668985 " opacity="0.5" stroke="blue"/><polygon points="134.24841983909977,200.0 116.39290122712993,274.00641233634144 " opacity="0.5" stroke="blue"/><polygon points="136.129384164032,200.0 116.41894234261669,274.3247158970773 " opacity="0.5" stroke="blue"/><polygon points="138.3154448129527,200.0 116.95269673758213,274.5811250886294 " opacity="0.5" stroke="blue"/><polygon points="140.80293968506487,200.0 118.03001186910777,274.7676605002714 " opacity="0.5" stroke="blue"/><polygon points="143.58609018428308,200.0 119.68490793312444,274.8757602896584 " opacity="0.5" stroke="blue"/><polygon points="146.6569082515593,200.0 121.94875609694834,274.89635681162656 " opacity="0.5" stroke="blue"/><polygon points="150.0051291845175,200.0 124.84935360730597,274.81998040664143 " opacity="0.5" stroke="blue"/><polygon points="153.61817440779953,200.0 128.40990779385444,274.63689290575655 " opacity="0.5" stroke="blue"/><polygon points="157.48114791742458,200.0 132.64794928844196,274.33725249919684 " opacity="0.5" stroke="blue"/><polygon points="161.57686948427732,200.0 137.57420416278333,273.91131030558904 " opacity="0.5" stroke="blue"/><polygon points="165.88594687094874,200.0 143.19146466229185,273.34963725305886 " opacity="0.5" stroke="blue"/><polygon points="170.3868883103213,200.0 149.4935080420537,272.6433777683751 " opacity="0.5" stroke="blue"/><polygon points="175.0562553441977,200.0 156.464121706792,271.78452434744116 " opacity="0.5" stroke="blue"/><polygon points="179.8688548689579,200.0 164.07629923546884,270.76620449539155 " opacity="0.5" stroke="blue"/><polygon points="184.79796793643905,200.0 172.2916746497939,269.58296898941865 " opacity="0.5" stroke="blue"/><polygon points="189.81561157359596,200.0 181.06026023934754,268.23106820194636 " opacity="0.5" stroke="blue"/><polygon points="194.8928286796882,200.0 190.32054542022937,266.7087016311451 " opacity="0.5" stroke="blue"/><polygon points="200.0,200.0 200.0,265.01622512488245 " opacity="0.5" stroke="blue"/><polygon points="205.1071713203119,200.0 210.01600505981875,263.15630081051563 " opacity="0.5" stroke="blue"/><polygon points="210.1843884264041,200.0 220.27720948171046,261.1339766151431 " opacity="0.5" stroke="blue"/><polygon points="215.202032063561,200.0 230.68528182571993,258.9566854927348 " opacity="0.5" stroke="blue"/><polygon points="220.1311451310422,200.0 241.1369983902815,256.63415890504064 " opacity="0.5" stroke="blue"/><polygon points="224.94374465580222,200.0 251.5265818826121,254.1782543936866 " opacity="0.5" stroke="blue"/><polygon points="229.61311168967876,200.0 261.7481842050999,251.60270274425025 " opacity="0.5" stroke="blue"/><polygon points="234.11405312905134,200.0 271.69839398900984,248.92278570379926 " opacity="0.5" stroke="blue"/><polygon points="238.42313051572273,200.0 281.2786463492097,246.15495988947703 " opacity="0.5" stroke="blue"/><polygon points="242.51885208257548,200.0 290.3974193771772,243.3164459176194 " opacity="0.5" stroke="blue"/><polygon points="246.3818255922004,200.0 298.97211833620895,240.42480355030122 " opacity="0.5" stroke="blue"/><polygon points="249.99487081548256,200.0 306.93057242195647,237.49751366760182 " opacity="0.5" stroke="blue"/><polygon points="253.34309174844077,200.0 314.2120975270145,234.55158621843827 " opacity="0.5" stroke="blue"/><polygon points="256.413909815717,200.0 320.7681085493722,231.6032102642383 " opacity="0.5" stroke="blue"/><polygon points="259.1970603149351,200.0 326.5622933635616,228.66745822941544 " opacity="0.5" stroke="blue"/><polygon points="261.6845551870473,200.0 331.57038509770257,225.75805199627914 " opacity="0.5" stroke="blue"/><polygon points="263.870615835968,200.0 335.779588087605,222.88719400538682 " opacity="0.5" stroke="blue"/><polygon points="265.7515801609003,200.0 339.1877249703233,220.06546244968555 " opacity="0.5" stroke="blue"/><polygon points="267.32578821243334,200.0 341.8021778488787,217.30176627497073 " opacity="0.5" stroke="blue"/><polygon points="268.5934509534816,200.0 343.6386960129697,214.60335318606684 " opacity="0.5" stroke="blue"/><polygon points="269.5565065199675,200.0 344.72013750467687,211.97586225251922 " opacity="0.5" stroke="blue"/><polygon points="270.21846815978915,200.0 345.0752032609338,209.42341195492358 " opacity="0.5" stroke="blue"/><polygon points="270.58426771015166,200.0 344.7372120413818,206.94871448920074 " opacity="0.5" stroke="blue"/><polygon points="270.6600980810829,200.0 343.74295310663933,204.5532076887895 " opacity="0.5" stroke="blue"/><polygon points="270.4532577737233,200.0 342.13164264785564,202.23719686089302 " opacity="0.5" stroke="blue"/><polygon points="269.972,200.0 339.944,200.0 " opacity="0.5" stroke="blue"/></svg>
