<?xml version="1.0" encoding="UTF-8"?>
<!DOCTYPE svg PUBLIC "-//W3C//DTD SVG 1.1//EN"
    "http://www.w3.org/Graphics/SVG/1.1/DTD/svg11.dtd"><svg width="400" height="400" stroke="black" fill="none" fill-opacity="0.75" font-style="italic" font-family="CMU Serif, sans-serif" xmlns="http://www.w3.org/2000/svg" xmlns:xlink="http://www.w3.org/1999/xlink" version="1.1"><filter id="blur"><feGaussianBlur stdDeviation="2"/></filter><rect width="100%" height="100%" fill="white" stroke="none" fill-opacity="1"/><polygon points="217.5,0.0 217.5,400.0 " stroke-opacity="0.25" stroke="green"/><polygon points="230.0,0.0 230.0,400.0 " stroke-opacity="0.25" stroke="green"/><polygon points="239.375,0.0 239.375,400.0 " stroke-opacity="0.25" stroke="green"/><polygon points="246.66666666666666,0.0 246.66666666666666,400.0 " stroke-opacity="0.25" stroke="green"/><polygon points="252.5,0.0 252.5,400.0 " stroke-opacity="0.25" stroke="green"/><polygon points="257.27272727272725,0.0 257.27272727272725,400.0 " stroke-opacity="0.25" stroke="green"/><polygon points="261.25,5.684341886080802e-14 261.25,399.99999999999994 " stroke-opacity="0.25" stroke="green"/><polygon points="264.61538461538464,0.0 264.61538461538464,400.0 " stroke-opacity="0.25" stroke="green"/><polygon points="267.5,0.0 267.5,400.0 " stroke-opacity="0.25" stroke="green"/><polygon points="270.0,0.0 270.0,400.0 " stroke-opacity="0.25" stroke="green"/><polygon points="272.1875,0.0 272.1875,400.0 " stroke-opacity="0.25" stroke="green"/><polygon points="274.11764705882354,0.0 274.11764705882354,400.0 " stroke-opacity="0.25" stroke="green"/><polygon points="275.8333333333333,0.0 275.8333333333333,400.0 " stroke-opacity="0.25" stroke="green"/><polygon points="277.36842105263156,0.0 277.36842105263156,400.0 " stroke-opacity="0.25" stroke="green"/><polygon points="278.75,0.0 278.75,400.0 " stroke-opacity="0.25" stroke="green"/><polygon points="235.0815609291206,5.684341886080802e-14 200.07894986842433,399.99999999999994 " stroke-opacity="0.25" stroke="green"/><polygon points="245.1091466275746,-5.684341886080802e-14 215.1265515561508,400.00000000000006 " stroke-opacity="0.25" stroke="green"/><polygon points="252.62122326275846,0.0 226.39932851893963,400.0 " stroke-opacity="0.25" stroke="green"/><polygon points="258.45885353881505,0.0 235.15939677822712,400.0 " stroke-opacity="0.25" stroke="green"/><polygon points="263.1257510614007,0.0 242.1626393481842,400.0 " stroke-opacity="0.25" stroke="green"/><polygon points="266.94200361526936,0.0 247.889386553071,400.0 " stroke-opacity="0.25" stroke="green"/><polygon points="270.1207589616578,-5.684341886080802e-14 252.65949231467613,400.00000000000006 " stroke-opacity="0.25" stroke="green"/><polygon points="272.8094424605798,5.684341886080802e-14 256.69418616549785,399.99999999999994 " stroke-opacity="0.25" stroke="green"/><polygon points="275.1132753697278,0.0 260.1513652926012,400.0 " stroke-opacity="0.25" stroke="green"/><polygon points="277.10936861429536,0.0 263.14674393897326,400.0 " stroke-opacity="0.25" stroke="green"/><polygon points="278.8555223298885,5.684341886080802e-14 265.76705817890445,399.99999999999994 " stroke-opacity="0.25" stroke="green"/><polygon points="280.39591467237335,-5.684341886080802e-14 268.0786026632471,400.00000000000006 " stroke-opacity="0.25" stroke="green"/><polygon points="281.7648914678315,0.0 270.1329174462133,400.0 " stroke-opacity="0.25" stroke="green"/><polygon points="282.9895574032438,-5.684341886080802e-14 271.970676379498,400.00000000000006 " stroke-opacity="0.25" stroke="green"/><polygon points="284.0915887938979,5.684341886080802e-14 273.6244073883979,399.99999999999994 " stroke-opacity="0.25" stroke="green"/><polygon points="253.11926801410337,0.0 182.52991547855956,400.0 " stroke-opacity="0.25" stroke="green"/><polygon points="260.6483210644838,0.0 200.30306030807276,400.0 " stroke-opacity="0.25" stroke="green"/><polygon points="266.26904740400914,-5.684341886080802e-14 213.57139333893065,400.00000000000006 " stroke-opacity="0.25" stroke="green"/><polygon points="270.6253733445562,0.0 223.854972342534,400.0 " stroke-opacity="0.25" stroke="green"/><polygon points="274.1008093173514,5.684341886080802e-14 232.05911521108078,399.99999999999994 " stroke-opacity="0.25" stroke="green"/><polygon points="276.93800829066606,0.0 238.75663054606966,400.0 " stroke-opacity="0.25" stroke="green"/><polygon points="279.2979956775444,0.0 244.32763626779106,400.0 " stroke-opacity="0.25" stroke="green"/><polygon points="281.2918306554285,0.0 249.03429958799353,400.0 " stroke-opacity="0.25" stroke="green"/><polygon points="282.9985916164595,0.0 253.06329361244522,400.0 " stroke-opacity="0.25" stroke="green"/><polygon points="284.47611464977854,-5.684341886080802e-14 256.5511466909668,400.00000000000006 " stroke-opacity="0.25" stroke="green"/><polygon points="285.7676774044777,0.0 259.6000203995287,400.0 " stroke-opacity="0.25" stroke="green"/><polygon points="286.9063086822434,-5.684341886080802e-14 262.28788280024855,400.00000000000006 " stroke-opacity="0.25" stroke="green"/><polygon points="287.91765272596285,-5.684341886080802e-14 264.6752699047376,400.00000000000006 " stroke-opacity="0.25" stroke="green"/><polygon points="288.82192376453844,0.0 266.8098995887357,400.0 " stroke-opacity="0.25" stroke="green"/><polygon points="289.6352709732985,0.0 268.729893728934,400.0 " stroke-opacity="0.25" stroke="green"/><polygon points="271.93686643771804,0.0 164.55135060933299,400.0 " stroke-opacity="0.25" stroke="green"/><polygon points="276.8312780575883,0.0 185.3422868428228,400.0 " stroke-opacity="0.25" stroke="green"/><polygon points="280.4634760653946,5.684341886080802e-14 200.77147487047648,399.99999999999994 " stroke-opacity="0.25" stroke="green"/><polygon points="283.26595830469086,5.684341886080802e-14 212.67611919915274,399.99999999999994 " stroke-opacity="0.25" stroke="green"/><polygon points="285.49388368909536,0.0 222.14010755928086,400.0 " stroke-opacity="0.25" stroke="green"/><polygon points="287.30751491292773,0.0 229.84421870773474,400.0 " stroke-opacity="0.25" stroke="green"/><polygon points="288.8125816745684,0.0 236.2375810766409,400.0 " stroke-opacity="0.25" stroke="green"/><polygon points="290.08165730829364,0.0 241.62847841538127,400.0 " stroke-opacity="0.25" stroke="green"/><polygon points="291.16621101363137,-5.684341886080802e-14 246.23554636976567,400.00000000000006 " stroke-opacity="0.25" stroke="green"/><polygon points="292.1037592381388,0.0 250.21815078996218,400.0 " stroke-opacity="0.25" stroke="green"/><polygon points="292.92229363732656,0.0 253.69519722989386,400.0 " stroke-opacity="0.25" stroke="green"/><polygon points="293.64312339975777,0.0 256.7572048397701,400.0 " stroke-opacity="0.25" stroke="green"/><polygon points="294.28275707205376,0.0 259.47430015711313,400.0 " stroke-opacity="0.25" stroke="green"/><polygon points="294.8541823695074,-5.684341886080802e-14 261.9016536051413,400.00000000000006 " stroke-opacity="0.25" stroke="green"/><polygon points="295.36775728743874,5.684341886080802e-14 264.08326483834486,399.99999999999994 " stroke-opacity="0.25" stroke="green"/><polygon points="291.91122635606763,0.0 145.80613822185887,400.0 " stroke-opacity="0.25" stroke="green"/><polygon points="293.9041187326166,0.0 170.0449433354396,400.0 " stroke-opacity="0.25" stroke="green"/><polygon points="295.370329240052,0.0 187.8779137273243,400.0 " stroke-opacity="0.25" stroke="green"/><polygon points="296.49427616740064,0.0 201.5480601188657,400.0 " stroke-opacity="0.25" stroke="green"/><polygon points="297.383277659226,-5.684341886080802e-14 212.36065299121714,400.00000000000006 " stroke-opacity="0.25" stroke="green"/><polygon points="298.1040307722694,0.0 221.1269037168685,400.0 " stroke-opacity="0.25" stroke="green"/><polygon points="298.7001694135008,0.0 228.37751519770745,400.0 " stroke-opacity="0.25" stroke="green"/><polygon points="299.20143988524376,0.0 234.47428059093454,400.0 " stroke-opacity="0.25" stroke="green"/><polygon points="299.6288187668781,-5.684341886080802e-14 239.67233019135176,400.00000000000006 " stroke-opacity="0.25" stroke="green"/><polygon points="299.9975228980618,0.0 244.1567407322812,400.0 " stroke-opacity="0.25" stroke="green"/><polygon points="300.3188592761551,0.0 248.0650349965176,400.0 " stroke-opacity="0.25" stroke="green"/><polygon points="300.60140501356443,0.0 251.50153319648425,400.0 " stroke-opacity="0.25" stroke="green"/><polygon points="300.8517842979347,0.0 254.54680285065348,400.0 " stroke-opacity="0.25" stroke="green"/><polygon points="301.0751942843954,0.0 257.26405501437813,400.0 " stroke-opacity="0.25" stroke="green"/><polygon points="301.2757697348704,5.684341886080802e-14 259.70357925153246,399.99999999999994 " stroke-opacity="0.25" stroke="green"/><polygon points="313.5057378280522,0.0 125.89294802961881,400.0 " stroke-opacity="0.25" stroke="green"/><polygon points="312.1620463345598,0.0 154.1873331872925,400.0 " stroke-opacity="0.25" stroke="green"/><polygon points="311.1849764534961,5.684341886080802e-14 174.76169246147634,399.99999999999994 " stroke-opacity="0.25" stroke="green"/><polygon points="310.442493603061,0.0 190.39630490408166,400.0 " stroke-opacity="0.25" stroke="green"/><polygon points="309.8591688967603,5.684341886080802e-14 202.67949192431124,399.99999999999994 " stroke-opacity="0.25" stroke="green"/><polygon points="309.38878078944475,0.0 212.5845500023255,400.0 " stroke-opacity="0.25" stroke="green"/><polygon points="309.0014258390444,-5.684341886080802e-14 220.7411620017615,400.00000000000006 " stroke-opacity="0.25" stroke="green"/><polygon points="308.6769015390997,0.0 227.57473621141335,400.0 " stroke-opacity="0.25" stroke="green"/><polygon points="308.40106759289046,0.0 233.38302773621888,400.0 " stroke-opacity="0.25" stroke="green"/><polygon points="308.1637307159458,0.0 238.38067864114208,400.0 " stroke-opacity="0.25" stroke="green"/><polygon points="307.9573572976408,0.0 242.72632569785785,400.0 " stroke-opacity="0.25" stroke="green"/><polygon points="307.7762590554646,0.0 246.53974822849608,400.0 " stroke-opacity="0.25" stroke="green"/><polygon points="307.61606063035015,0.0 249.91307905911682,400.0 " stroke-opacity="0.25" stroke="green"/><polygon points="307.47334145401004,-5.684341886080802e-14 252.918345792076,400.00000000000006 " stroke-opacity="0.25" stroke="green"/><polygon points="307.34538877932823,0.0 255.61267129531464,400.0 " stroke-opacity="0.25" stroke="green"/><polygon points="337.3188471858456,0.0 104.30582339367979,400.0 " stroke-opacity="0.25" stroke="green"/><polygon points="331.97254563074557,0.0 137.50538593747638,400.0 " stroke-opacity="0.25" stroke="green"/><polygon points="328.1439834858709,0.0 161.28006214524288,400.0 " stroke-opacity="0.25" stroke="green"/><polygon points="325.2671980240912,0.0 179.1443778556668,400.0 " stroke-opacity="0.25" stroke="green"/><polygon points="323.02651171908565,0.0 193.05863322592313,400.0 " stroke-opacity="0.25" stroke="green"/><polygon points="321.23195131769955,0.0 204.20252768649783,400.0 " stroke-opacity="0.25" stroke="green"/><polygon points="319.7623427670154,0.0 213.32853011836443,400.0 " stroke-opacity="0.25" stroke="green"/><polygon points="318.53675217952804,0.0 220.93922527706928,400.0 " stroke-opacity="0.25" stroke="green"/><polygon points="317.4990623362872,0.0 227.38309090954053,400.0 " stroke-opacity="0.25" stroke="green"/><polygon points="316.60913804168047,-5.684341886080802e-14 232.90935929779786,400.00000000000006 " stroke-opacity="0.25" stroke="green"/><polygon points="315.83751474653906,-5.684341886080802e-14 237.7009999456884,400.00000000000006 " stroke-opacity="0.25" stroke="green"/><polygon points="315.1620733409288,0.0 241.8953685122793,400.0 " stroke-opacity="0.25" stroke="green"/><polygon points="314.565885445257,5.684341886080802e-14 245.5975871631013,399.99999999999994 " stroke-opacity="0.25" stroke="green"/><polygon points="314.03577514319045,0.0 248.88947594774734,400.0 " stroke-opacity="0.25" stroke="green"/><polygon points="313.5613338289861,0.0 251.83567041918786,400.0 " stroke-opacity="0.25" stroke="green"/><polygon points="364.1594345740092,-5.684341886080802e-14 80.37243250031925,400.00000000000006 " stroke-opacity="0.25" stroke="green"/><polygon points="353.809138923709,0.0 119.67236414386632,400.0 " stroke-opacity="0.25" stroke="green"/><polygon points="346.5412497135695,-5.684341886080802e-14 147.26844050745024,400.00000000000006 " stroke-opacity="0.25" stroke="green"/><polygon points="341.15727679959264,0.0 167.71131234791446,400.0 " stroke-opacity="0.25" stroke="green"/><polygon points="337.00876587025084,-5.684341886080802e-14 183.46315185608458,400.00000000000006 " stroke-opacity="0.25" stroke="green"/><polygon points="333.7142336819579,0.0 195.97244571317586,400.0 " stroke-opacity="0.25" stroke="green"/><polygon points="331.0345982844236,0.0 206.14698482884555,400.0 " stroke-opacity="0.25" stroke="green"/><polygon points="328.81240544330296,0.0 214.58462078683752,400.0 " stroke-opacity="0.25" stroke="green"/><polygon points="326.93973148429376,5.684341886080802e-14 221.69513830887362,399.99999999999994 " stroke-opacity="0.25" stroke="green"/><polygon points="325.3401271702579,0.0 227.76881410735274,400.0 " stroke-opacity="0.25" stroke="green"/><polygon points="323.957923549547,0.0 233.0170224336365,400.0 " stroke-opacity="0.25" stroke="green"/><polygon points="322.7516206521507,0.0 237.5973381087458,400.0 " stroke-opacity="0.25" stroke="green"/><polygon points="321.6896492701831,-5.684341886080802e-14 241.62962898514414,400.00000000000006 " stroke-opacity="0.25" stroke="green"/><polygon points="320.747568147776,0.0 245.20669817854454,400.0 " stroke-opacity="0.25" stroke="green"/><polygon points="319.9061597127835,0.0 248.40151454869817,400.0 " stroke-opacity="0.25" stroke="green"/><polygon points="395.1708567785038,5.684341886080802e-14 53.153295762798535,399.99999999999994 " stroke-opacity="0.25" stroke="green"/><polygon points="378.3027854236674,-5.684341886080802e-14 100.2657257576551,400.00000000000006 " stroke-opacity="0.25" stroke="green"/><polygon points="366.7511318654928,-5.684341886080802e-14 132.5294302521403,400.00000000000006 " stroke-opacity="0.25" stroke="green"/><polygon points="358.344645526128,-5.684341886080802e-14 156.0087001007641,400.00000000000006 " stroke-opacity="0.25" stroke="green"/><polygon points="351.9527376283395,0.0 173.8612635049251,400.0 " stroke-opacity="0.25" stroke="green"/><polygon points="346.9287187108166,-5.684341886080802e-14 187.89332055315228,400.00000000000006 " stroke-opacity="0.25" stroke="green"/><polygon points="342.8759326196959,0.0 199.2127296892363,400.0 " stroke-opacity="0.25" stroke="green"/><polygon points="339.53756747548124,0.0 208.53676507215454,400.0 " stroke-opacity="0.25" stroke="green"/><polygon points="336.74001862273644,-5.684341886080802e-14 216.35030354431308,400.00000000000006 " stroke-opacity="0.25" stroke="green"/><polygon points="334.36171472504634,-5.684341886080802e-14 222.99289317589503,400.00000000000006 " stroke-opacity="0.25" stroke="green"/><polygon points="332.314982194992,0.0 228.70940581162884,400.0 " stroke-opacity="0.25" stroke="green"/><polygon points="330.53500045433884,-5.684341886080802e-14 233.68088496799362,400.00000000000006 " stroke-opacity="0.25" stroke="green"/><polygon points="328.97281138763896,0.0 238.0440703906428,400.0 " stroke-opacity="0.25" stroke="green"/><polygon points="327.5907468816963,0.0 241.9041689113862,400.0 " stroke-opacity="0.25" stroke="green"/><polygon points="326.3593518017532,-5.684341886080802e-14 245.3434485586827,400.00000000000006 " stroke-opacity="0.25" stroke="green"/><polygon points="400.0,31.20620282643185 21.266774840924768,400.0 " stroke-opacity="0.25" stroke="green"/><polygon points="400.0,7.720911253935782 78.71513712424112,400.00000000000006 " stroke-opacity="0.25" stroke="green"/><polygon points="389.2626621193603,0.0 116.81711935360794,400.0 " stroke-opacity="0.25" stroke="green"/><polygon points="377.1191893478825,0.0 143.9370041247617,400.0 " stroke-opacity="0.25" stroke="green"/><polygon points="368.03493954221705,0.0 164.22475974444546,400.0 " stroke-opacity="0.25" stroke="green"/><polygon points="360.9832045017375,-5.684341886080802e-14 179.9733223948017,400.00000000000006 " stroke-opacity="0.25" stroke="green"/><polygon points="355.3504829150195,-5.684341886080802e-14 192.55281783687798,400.00000000000006 " stroke-opacity="0.25" stroke="green"/><polygon points="350.74761041075885,0.0 202.83236259981066,400.0 " stroke-opacity="0.25" stroke="green"/><polygon points="346.91580766661866,-5.684341886080802e-14 211.38988571057615,400.00000000000006 " stroke-opacity="0.25" stroke="green"/><polygon points="343.67629560668354,0.0 218.6246525218095,400.0 " stroke-opacity="0.25" stroke="green"/><polygon points="340.9015986980978,5.684341886080802e-14 224.82135274519734,399.99999999999994 " stroke-opacity="0.25" stroke="green"/><polygon points="338.49837385651654,0.0 230.18844846891332,400.0 " stroke-opacity="0.25" stroke="green"/><polygon points="336.3967031851671,0.0 234.88208656622783,400.0 " stroke-opacity="0.25" stroke="green"/><polygon points="334.54317937258656,0.0 239.02154100102854,400.0 " stroke-opacity="0.25" stroke="green"/><polygon points="332.8963038047855,0.0 242.69949017353338,400.0 " stroke-opacity="0.25" stroke="green"/><polygon points="0.0,385.90678667905956 400.0,62.59063593286902 " stroke-opacity="0.25" stroke="green"/><polygon points="400.0,40.65132570366325 54.216576936791455,400.0 " stroke-opacity="0.25" stroke="green"/><polygon points="400.0,18.712015474457473 99.8135629482839,400.0 " stroke-opacity="0.25" stroke="green"/><polygon points="397.85006212068276,0.0 131.38070711008638,400.0 " stroke-opacity="0.25" stroke="green"/><polygon points="385.47005383792515,0.0 154.52994616207485,400.0 " stroke-opacity="0.25" stroke="green"/><polygon points="376.0029886805222,0.0 172.23230543712486,400.0 " stroke-opacity="0.25" stroke="green"/><polygon points="368.52898987204617,0.0 186.20785223321698,400.0 " stroke-opacity="0.25" stroke="green"/><polygon points="362.47860988423224,0.0 197.52139011576776,400.0 " stroke-opacity="0.25" stroke="green"/><polygon points="357.48046989429895,-5.684341886080802e-14 206.86735619265752,400.00000000000006 " stroke-opacity="0.25" stroke="green"/><polygon points="353.2820323027551,0.0 214.7179676972449,400.0 " stroke-opacity="0.25" stroke="green"/><polygon points="349.705585465514,5.684341886080802e-14 221.40552564559715,399.99999999999994 " stroke-opacity="0.25" stroke="green"/><polygon points="346.6224416403061,0.0 227.17066180796974,400.0 " stroke-opacity="0.25" stroke="green"/><polygon points="343.9371228248025,0.0 232.19190943326203,400.0 " stroke-opacity="0.25" stroke="green"/><polygon points="341.5772971990569,-5.684341886080802e-14 236.6045209827613,400.00000000000006 " stroke-opacity="0.25" stroke="green"/><polygon points="339.48716593053933,5.684341886080802e-14 240.51283406946067,399.99999999999994 " stroke-opacity="0.25" stroke="green"/><polygon points="0.0,355.8185500505761 400.0,90.15617364667786 " stroke-opacity="0.25" stroke="green"/><polygon points="400.0,69.35808435506294 25.582372219952276,400.0 " stroke-opacity="0.25" stroke="green"/><polygon points="400.0,48.55999506344807 81.09194956609235,400.0 " stroke-opacity="0.25" stroke="green"/><polygon points="400.0,27.76190577183317 118.20162908377034,400.00000000000006 " stroke-opacity="0.25" stroke="green"/><polygon points="400.0,6.96381648021827 144.7593180208835,399.99999999999994 " stroke-opacity="0.25" stroke="green"/><polygon points="392.13421991643486,5.684341886080802e-14 164.70542215309095,399.99999999999994 " stroke-opacity="0.25" stroke="green"/><polygon points="382.4887389050909,5.684341886080802e-14 180.23558570897816,399.99999999999994 " stroke-opacity="0.25" stroke="green"/><polygon points="374.7658780929894,0.0 192.6701435490932,400.0 " stroke-opacity="0.25" stroke="green"/><polygon points="368.44288723570725,0.0 202.8507744642838,400.0 " stroke-opacity="0.25" stroke="green"/><polygon points="363.17077843076316,0.0 211.33938295658396,400.0 " stroke-opacity="0.25" stroke="green"/><polygon points="358.7076671620986,-5.684341886080802e-14 218.5254266478179,400.00000000000006 " stroke-opacity="0.25" stroke="green"/><polygon points="354.88061290001843,0.0 224.68735662906602,400.0 " stroke-opacity="0.25" stroke="green"/><polygon points="351.56268926245025,0.0 230.02953673359133,400.0 " stroke-opacity="0.25" stroke="green"/><polygon points="348.658634801789,0.0 234.70534716712285,400.0 " stroke-opacity="0.25" stroke="green"/><polygon points="346.09555820527396,0.0 238.8321500402332,400.0 " stroke-opacity="0.25" stroke="green"/><polygon points="0.0,329.12313492511555 400.0,115.03827849289165 " stroke-opacity="0.25" stroke="green"/><polygon points="0.0,393.26233060364984 400.0,95.06049623236457 " stroke-opacity="0.25" stroke="green"/><polygon points="399.99999999999994,75.0827139718375 60.05618811724972,400.0 " stroke-opacity="0.25" stroke="green"/><polygon points="400.0,55.1049317113104 104.22932759574852,400.0 " stroke-opacity="0.25" stroke="green"/><polygon points="400.00000000000006,35.12714945078332 134.9043567614499,400.0 " stroke-opacity="0.25" stroke="green"/><polygon points="399.99999999999994,15.149367190256243 157.4482570452245,400.0 " stroke-opacity="0.25" stroke="green"/><polygon points="397.31301933738916,0.0 174.71569715148755,400.0 " stroke-opacity="0.25" stroke="green"/><polygon points="387.6417571527783,0.0 188.3650573439221,400.0 " stroke-opacity="0.25" stroke="green"/><polygon points="379.8047641486256,-5.684341886080802e-14 199.42565505054657,400.00000000000006 " stroke-opacity="0.25" stroke="green"/><polygon points="373.32540394202175,0.0 208.57018237162265,400.0 " stroke-opacity="0.25" stroke="green"/><polygon points="367.8790156477054,5.684341886080802e-14 216.25684354965108,399.99999999999994 " stroke-opacity="0.25" stroke="green"/><polygon points="363.23681400937915,-5.684341886080802e-14 222.8085304999077,400.00000000000006 " stroke-opacity="0.25" stroke="green"/><polygon points="359.2329313148477,0.0 228.4593376047835,400.0 " stroke-opacity="0.25" stroke="green"/><polygon points="355.74418027791415,-5.684341886080802e-14 233.38312300278548,400.00000000000006 " stroke-opacity="0.25" stroke="green"/><polygon points="352.67715581934084,0.0 237.71171225566374,400.0 " stroke-opacity="0.25" stroke="green"/><polygon points="0.0,304.87408862077126 400.0,138.06421636355998 " stroke-opacity="0.25" stroke="green"/><polygon points="0.0,367.23686490753806 400.0,118.63974506112442 " stroke-opacity="0.25" stroke="green"/><polygon points="400.00000000000006,99.21527375868884 35.83661227563752,400.0 " stroke-opacity="0.25" stroke="green"/><polygon points="400.0,79.79080245625332 89.24672551799495,400.0 " stroke-opacity="0.25" stroke="green"/><polygon points="400.0,60.36633115381778 124.97007783292113,399.99999999999994 " stroke-opacity="0.25" stroke="green"/><polygon points="400.00000000000006,40.941859851382134 150.544113951978,400.0 " stroke-opacity="0.25" stroke="green"/><polygon points="400.0,21.517388548946627 169.75610014874084,399.99999999999994 " stroke-opacity="0.25" stroke="green"/><polygon points="400.0,2.092917246511064 184.71743930464677,400.0 " stroke-opacity="0.25" stroke="green"/><polygon points="391.5569902330284,-5.684341886080802e-14 196.69830093769656,400.00000000000006 " stroke-opacity="0.25" stroke="green"/><polygon points="383.71636956029045,0.0 206.50862981205393,400.0 " stroke-opacity="0.25" stroke="green"/><polygon points="377.17822533677383,-5.684341886080802e-14 214.6892761840558,400.00000000000006 " stroke-opacity="0.25" stroke="green"/><polygon points="371.6428979258874,0.0 221.61517970555317,400.0 " stroke-opacity="0.25" stroke="green"/><polygon points="366.8961034918731,0.0 227.5544562552485,400.0 " stroke-opacity="0.25" stroke="green"/><polygon points="362.78055025400215,5.684341886080802e-14 232.7039122037838,399.99999999999994 " stroke-opacity="0.25" stroke="green"/><polygon points="359.1781723943253,0.0 237.21127367530775,400.0 " stroke-opacity="0.25" stroke="green"/><polygon points="0.0,282.3568521065098 400.0,159.87449563515784 " stroke-opacity="0.25" stroke="green"/><polygon points="0.0,343.69285715988434 400.0,140.76983832345104 " stroke-opacity="0.25" stroke="green"/><polygon points="400.0,121.66518101174421 7.098809829030358,400.0 " stroke-opacity="0.25" stroke="green"/><polygon points="400.0,102.56052370003742 72.96764696761788,399.99999999999994 " stroke-opacity="0.25" stroke="green"/><polygon points="400.0,83.4558663883306 114.98238189729712,400.0 " stroke-opacity="0.25" stroke="green"/><polygon points="400.0,64.35120907662377 144.11438222586588,400.00000000000006 " stroke-opacity="0.25" stroke="green"/><polygon points="400.00000000000006,45.246551764916944 165.50123155468617,399.99999999999994 " stroke-opacity="0.25" stroke="green"/><polygon points="400.0,26.141894453210142 181.86925021222018,400.0 " stroke-opacity="0.25" stroke="green"/><polygon points="400.0,7.037237141503283 194.79956363757282,400.0 " stroke-opacity="0.25" stroke="green"/><polygon points="394.2973859516056,0.0 205.27225985298264,400.0 " stroke-opacity="0.25" stroke="green"/><polygon points="386.5476542928359,5.684341886080802e-14 213.92719657748816,399.99999999999994 " stroke-opacity="0.25" stroke="green"/><polygon points="380.0356377205474,0.0 221.19984727866563,400.0 " stroke-opacity="0.25" stroke="green"/><polygon points="374.4867489778578,0.0 227.39687229500325,400.0 " stroke-opacity="0.25" stroke="green"/><polygon points="369.70203091731014,5.684341886080802e-14 232.7404679034754,399.99999999999994 " stroke-opacity="0.25" stroke="green"/><polygon points="365.5337952781233,-5.684341886080802e-14 237.39557304755698,400.00000000000006 " stroke-opacity="0.25" stroke="green"/><polygon points="0.0,261.0 400.0,181.0 " stroke-opacity="0.25" stroke="green"/><polygon points="0.0,322.0 400.0,162.0 " stroke-opacity="0.25" stroke="green"/><polygon points="0.0,383.00000000000006 400.0,142.99999999999997 " stroke-opacity="0.25" stroke="green"/><polygon points="400.0,123.99999999999997 55.00000000000003,400.0 " stroke-opacity="0.25" stroke="green"/><polygon points="400.0,105.0 105.0,400.0 " stroke-opacity="0.25" stroke="green"/><polygon points="400.0,85.99999999999999 138.33333333333334,400.0 " stroke-opacity="0.25" stroke="green"/><polygon points="400.0,67.0 162.14285714285717,400.0 " stroke-opacity="0.25" stroke="green"/><polygon points="400.0,48.0 180.0,400.0 " stroke-opacity="0.25" stroke="green"/><polygon points="399.99999999999994,29.00000000000003 193.88888888888889,400.0 " stroke-opacity="0.25" stroke="green"/><polygon points="400.0,10.0 205.0,400.0 " stroke-opacity="0.25" stroke="green"/><polygon points="395.90909090909093,0.0 214.0909090909091,400.0 " stroke-opacity="0.25" stroke="green"/><polygon points="388.33333333333337,0.0 221.66666666666669,400.0 " stroke-opacity="0.25" stroke="green"/><polygon points="381.9230769230769,0.0 228.07692307692307,400.0 " stroke-opacity="0.25" stroke="green"/><polygon points="376.42857142857144,0.0 233.57142857142858,400.0 " stroke-opacity="0.25" stroke="green"/><polygon points="371.6666666666667,0.0 238.33333333333331,400.0 " stroke-opacity="0.25" stroke="green"/><polygon points="0.0,240.31515800023925 400.0,201.91618974142844 " stroke-opacity="0.25" stroke="green"/><polygon points="0.0,301.6511630536138 400.0,182.81153242972164 " stroke-opacity="0.25" stroke="green"/><polygon points="0.0,362.98716810698824 400.0,163.7068751180148 " stroke-opacity="0.25" stroke="green"/><polygon points="400.0,144.602217806308 34.78205360706835,400.0 " stroke-opacity="0.25" stroke="green"/><polygon points="400.00000000000006,125.49756049460122 95.13415533416068,400.0 " stroke-opacity="0.25" stroke="green"/><polygon points="400.0,106.39290318289439 133.44931691140124,400.0 " stroke-opacity="0.25" stroke="green"/><polygon points="400.0,87.28824587118757 159.93398727649662,400.0 " stroke-opacity="0.25" stroke="green"/><polygon points="400.0,68.18358855948074 179.3346925604604,400.0 " stroke-opacity="0.25" stroke="green"/><polygon points="400.00000000000006,49.07893124777391 194.1583336204256,400.0 " stroke-opacity="0.25" stroke="green"/><polygon points="400.00000000000006,29.974273936067107 205.85375233092307,400.00000000000006 " stroke-opacity="0.25" stroke="green"/><polygon points="400.00000000000006,10.869616624360333 215.31665802361354,400.0 " stroke-opacity="0.25" stroke="green"/><polygon points="396.4321368652328,5.684341886080802e-14 223.13059433615462,399.99999999999994 " stroke-opacity="0.25" stroke="green"/><polygon points="389.10429236615613,5.684341886080802e-14 229.69203208118677,399.99999999999994 " stroke-opacity="0.25" stroke="green"/><polygon points="382.8638783072406,0.0 235.27977188051756,400.0 " stroke-opacity="0.25" stroke="green"/><polygon points="377.4855572068983,-5.684341886080802e-14 240.09558355298626,400.00000000000006 " stroke-opacity="0.25" stroke="green"/><polygon points="0.0,219.8514639527624 400.0,223.08684103156884 " stroke-opacity="0.25" stroke="green"/><polygon points="0.0,282.2142402395292 400.0,203.66236972913327 " stroke-opacity="0.25" stroke="green"/><polygon points="0.0,344.577016526296 400.0,184.2378984266977 " stroke-opacity="0.25" stroke="green"/><polygon points="400.0,164.81342712426215 11.464745350338745,400.0 " stroke-opacity="0.25" stroke="green"/><polygon points="400.00000000000006,145.38895582182658 85.58154552195334,400.00000000000006 " stroke-opacity="0.25" stroke="green"/><polygon points="400.0,125.96448451939101 129.81519941087163,400.00000000000006 " stroke-opacity="0.25" stroke="green"/><polygon points="400.0,106.54001321695544 159.20644488148668,400.0 " stroke-opacity="0.25" stroke="green"/><polygon points="400.0,87.11554191451991 180.1524659286941,400.0 " stroke-opacity="0.25" stroke="green"/><polygon points="399.99999999999994,67.69107061208442 195.8359595328187,400.0 " stroke-opacity="0.25" stroke="green"/><polygon points="400.00000000000006,48.2665993096488 208.01884582339378,400.00000000000006 " stroke-opacity="0.25" stroke="green"/><polygon points="400.00000000000006,28.84212800721326 217.75547785216338,400.0 " stroke-opacity="0.25" stroke="green"/><polygon points="400.0,9.417656704777613 225.71542378886548,400.00000000000006 " stroke-opacity="0.25" stroke="green"/><polygon points="395.9081185873806,0.0 232.34432422759875,400.0 " stroke-opacity="0.25" stroke="green"/><polygon points="388.89384223997786,-5.684341886080802e-14 237.95028105515166,400.00000000000006 " stroke-opacity="0.25" stroke="green"/><polygon points="382.8844447603867,0.0 242.75311760758765,400.0 " stroke-opacity="0.25" stroke="green"/><polygon points="-5.684341886080802e-14,199.15525643195306 400.00000000000006,245.00615698605418 " stroke-opacity="0.25" stroke="green"/><polygon points="-5.684341886080802e-14,263.2944521104873 400.00000000000006,225.0283747255271 " stroke-opacity="0.25" stroke="green"/><polygon points="-5.684341886080802e-14,327.4336477890217 400.00000000000006,205.050592465 " stroke-opacity="0.25" stroke="green"/><polygon points="-5.684341886080802e-14,391.572843467556 400.00000000000006,185.07281020447292 " stroke-opacity="0.25" stroke="green"/><polygon points="400.0,165.09502794394587 76.68104343326085,400.0 " stroke-opacity="0.25" stroke="green"/><polygon points="400.00000000000006,145.11724568341876 127.93206733052729,400.0 " stroke-opacity="0.25" stroke="green"/><polygon points="400.0,125.13946342289172 160.39232230361478,400.0 " stroke-opacity="0.25" stroke="green"/><polygon points="400.00000000000006,105.1616811623646 182.79504597484865,400.0 " stroke-opacity="0.25" stroke="green"/><polygon points="400.0,85.18389890183748 199.18758077425375,400.00000000000006 " stroke-opacity="0.25" stroke="green"/><polygon points="400.0,65.20611664131047 211.70248114566627,400.0 " stroke-opacity="0.25" stroke="green"/><polygon points="400.00000000000006,45.228334380783366 221.57010222706194,400.00000000000006 " stroke-opacity="0.25" stroke="green"/><polygon points="400.00000000000006,25.25055212025623 229.5500712223622,400.0 " stroke-opacity="0.25" stroke="green"/><polygon points="400.00000000000006,5.272769859729209 236.1367572512315,400.0 " stroke-opacity="0.25" stroke="green"/><polygon points="394.385630959987,-5.684341886080802e-14 241.6657586609773,400.00000000000006 " stroke-opacity="0.25" stroke="green"/><polygon points="387.7422868159964,-5.684341886080802e-14 246.37290405778086,400.00000000000006 " stroke-opacity="0.25" stroke="green"/><polygon points="0.0,177.72707592716165 400.0,268.24764777009227 " stroke-opacity="0.25" stroke="green"/><polygon points="0.0,244.4998889160305 400.0,247.4495584784774 " stroke-opacity="0.25" stroke="green"/><polygon points="-5.684341886080802e-14,311.2727019048994 400.00000000000006,226.6514691868625 " stroke-opacity="0.25" stroke="green"/><polygon points="0.0,378.0455148937682 400.0,205.85337989524763 " stroke-opacity="0.25" stroke="green"/><polygon points="400.0,185.05529060363276 69.01417284322696,400.0 " stroke-opacity="0.25" stroke="green"/><polygon points="400.00000000000006,164.25720131201786 128.51164618468692,400.0 " stroke-opacity="0.25" stroke="green"/><polygon points="400.0,143.45911202040296 164.04871751324933,399.99999999999994 " stroke-opacity="0.25" stroke="green"/><polygon points="400.0,122.66102272878811 187.67322281106922,399.99999999999994 " stroke-opacity="0.25" stroke="green"/><polygon points="399.99999999999994,101.86293343717321 204.51523284540247,400.00000000000006 " stroke-opacity="0.25" stroke="green"/><polygon points="400.0,81.06484414555833 217.1289375060787,400.00000000000006 " stroke-opacity="0.25" stroke="green"/><polygon points="400.00000000000006,60.26675485394338 226.92906665661656,400.00000000000006 " stroke-opacity="0.25" stroke="green"/><polygon points="400.00000000000006,39.46866556232848 234.76254566702238,400.00000000000006 " stroke-opacity="0.25" stroke="green"/><polygon points="400.0,18.67057627071364 241.1673811019678,400.00000000000006 " stroke-opacity="0.25" stroke="green"/><polygon points="399.1878955357351,0.0 246.50173920454364,400.0 " stroke-opacity="0.25" stroke="green"/><polygon points="391.92385154388626,0.0 251.01329493522266,400.0 " stroke-opacity="0.25" stroke="green"/><polygon points="-5.684341886080802e-14,154.96667900320926 400.00000000000006,293.5307436087193 " stroke-opacity="0.25" stroke="green"/><polygon points="-5.684341886080802e-14,225.4034118443436 400.00000000000006,271.59143337951355 " stroke-opacity="0.25" stroke="green"/><polygon points="0.0,295.840144685478 400.0,249.65212315030774 " stroke-opacity="0.25" stroke="green"/><polygon points="-5.684341886080802e-14,366.27687752661234 400.00000000000006,227.71281292110197 " stroke-opacity="0.25" stroke="green"/><polygon points="399.99999999999994,205.7735026918962 63.58983848622458,400.0 " stroke-opacity="0.25" stroke="green"/><polygon points="400.0,183.8341924626904 132.56417034730327,400.00000000000006 " stroke-opacity="0.25" stroke="green"/><polygon points="400.0,161.89488223348462 170.8832436034581,400.0 " stroke-opacity="0.25" stroke="green"/><polygon points="400.00000000000006,139.95557200427885 195.2681084028293,400.0 " stroke-opacity="0.25" stroke="green"/><polygon points="400.0,118.01626177507308 212.14993787931712,400.0 " stroke-opacity="0.25" stroke="green"/><polygon points="399.99999999999994,96.07695154586735 224.52994616207485,400.0 " stroke-opacity="0.25" stroke="green"/><polygon points="400.0,74.13764131666152 233.9970113194778,400.0 " stroke-opacity="0.25" stroke="green"/><polygon points="400.0,52.1983310874557 241.4710101279538,399.99999999999994 " stroke-opacity="0.25" stroke="green"/><polygon points="400.0,30.259020858249954 247.52139011576773,399.99999999999994 " stroke-opacity="0.25" stroke="green"/><polygon points="400.0,8.31971062904421 252.519530105701,400.0 " stroke-opacity="0.25" stroke="green"/><polygon points="395.28203230275506,5.684341886080802e-14 256.7179676972449,399.99999999999994 " stroke-opacity="0.25" stroke="green"/><polygon points="0.0,130.09164102641503 400.0,321.82321402857616 " stroke-opacity="0.25" stroke="green"/><polygon points="0.0,205.4917876539022 400.0,298.33792245608015 " stroke-opacity="0.25" stroke="green"/><polygon points="-5.684341886080802e-14,280.89193428138935 400.00000000000006,274.85263088358414 " stroke-opacity="0.25" stroke="green"/><polygon points="0.0,356.2920809088765 400.0,251.36733931108813 " stroke-opacity="0.25" stroke="green"/><polygon points="400.00000000000006,227.88204773859212 62.19949870572691,400.00000000000006 " stroke-opacity="0.25" stroke="green"/><polygon points="400.00000000000006,204.3967561660961 141.51823521230523,400.0 " stroke-opacity="0.25" stroke="green"/><polygon points="400.0,180.9114645936001 181.77403338615554,400.0 " stroke-opacity="0.25" stroke="green"/><polygon points="400.0,157.42617302110406 206.12182458222884,400.0 " stroke-opacity="0.25" stroke="green"/><polygon points="400.0,133.94088144860805 222.43546465380263,400.0 " stroke-opacity="0.25" stroke="green"/><polygon points="400.00000000000006,110.4555898761121 234.12837969809397,400.0 " stroke-opacity="0.25" stroke="green"/><polygon points="400.00000000000006,86.97029830361606 242.92021346622954,400.0 " stroke-opacity="0.25" stroke="green"/><polygon points="400.00000000000006,63.48500673112008 249.77147506337772,400.0 " stroke-opacity="0.25" stroke="green"/><polygon points="400.0,39.99971515862413 255.26080218410803,400.0 " stroke-opacity="0.25" stroke="green"/><polygon points="400.0,16.514423586128117 259.75758061553614,400.0 " stroke-opacity="0.25" stroke="green"/><polygon points="397.66208598472605,0.0 263.5086910361536,400.0 " stroke-opacity="0.25" stroke="green"/><polygon points="0.0,102.00278764642106 400.0,354.51378699704674 " stroke-opacity="0.25" stroke="green"/><polygon points="0.0,184.08638415241 400.0,328.94676513452555 " stroke-opacity="0.25" stroke="green"/><polygon points="0.0,266.1699806583989 400.0,303.3797432720044 " stroke-opacity="0.25" stroke="green"/><polygon points="0.0,348.2535771643878 400.0,277.8127214094833 " stroke-opacity="0.25" stroke="green"/><polygon points="400.00000000000006,252.24569954696216 68.1384076799848,399.99999999999994 " stroke-opacity="0.25" stroke="green"/><polygon points="400.0,226.678677684441 157.37376204668593,400.0 " stroke-opacity="0.25" stroke="green"/><polygon points="399.99999999999994,201.11165582191984 197.77119536041386,400.0 " stroke-opacity="0.25" stroke="green"/><polygon points="400.0,175.54463395939874 220.80961629724482,400.0 " stroke-opacity="0.25" stroke="green"/><polygon points="400.0,149.97761209687752 235.69911355946735,400.0 " stroke-opacity="0.25" stroke="green"/><polygon points="400.00000000000006,124.4105902343565 246.11349182553167,400.0 " stroke-opacity="0.25" stroke="green"/><polygon points="400.00000000000006,98.8435683718353 253.806703071255,400.0 " stroke-opacity="0.25" stroke="green"/><polygon points="400.0,73.27654650931412 259.72203060744215,400.0 " stroke-opacity="0.25" stroke="green"/><polygon points="399.99999999999994,47.709524646793085 264.41193553230863,400.0 " stroke-opacity="0.25" stroke="green"/><polygon points="399.99999999999994,22.14250278427187 268.22146647670274,400.0 " stroke-opacity="0.25" stroke="green"/><polygon points="398.90816978433355,-5.684341886080802e-14 271.37724462743336,400.00000000000006 " stroke-opacity="0.25" stroke="green"/><polygon points="-5.684341886080802e-14,69.04056657590263 400.00000000000006,393.72744851841094 " stroke-opacity="0.25" stroke="green"/><polygon points="-5.684341886080802e-14,160.20363611764375 400.00000000000006,365.33239407098336 " stroke-opacity="0.25" stroke="green"/><polygon points="0.0,251.36670565938488 400.0,336.9373396235558 " stroke-opacity="0.25" stroke="green"/><polygon points="-5.684341886080802e-14,342.529775201126 400.00000000000006,308.5422851761282 " stroke-opacity="0.25" stroke="green"/><polygon points="400.0,280.14723072870066 87.772861398069,399.99999999999994 " stroke-opacity="0.25" stroke="green"/><polygon points="400.0,251.75217628127308 182.86957944615682,400.0 " stroke-opacity="0.25" stroke="green"/><polygon points="400.0,223.35712183384553 220.0559868281512,400.0 " stroke-opacity="0.25" stroke="green"/><polygon points="400.00000000000006,194.96206738641794 239.882911073354,400.00000000000006 " stroke-opacity="0.25" stroke="green"/><polygon points="400.00000000000006,166.5670129389904 252.20571376125497,400.00000000000006 " stroke-opacity="0.25" stroke="green"/><polygon points="400.0,138.17195849156295 260.6067272286655,400.0 " stroke-opacity="0.25" stroke="green"/><polygon points="400.00000000000006,109.77690404413532 266.7011247429389,400.0 " stroke-opacity="0.25" stroke="green"/><polygon points="400.0,81.38184959670771 271.3242053653109,400.00000000000006 " stroke-opacity="0.25" stroke="green"/><polygon points="400.00000000000006,52.98679514928014 274.9513912758488,400.0 " stroke-opacity="0.25" stroke="green"/><polygon points="400.0,24.59174070185253 277.87319239207227,400.00000000000006 " stroke-opacity="0.25" stroke="green"/><polygon points="398.8723628961757,0.0 280.277139966038,400.0 " stroke-opacity="0.25" stroke="green"/><polygon points="0.0,28.503014524714246 358.54574067771966,400.00000000000006 " stroke-opacity="0.25" stroke="green"/><polygon points="0.0,132.28241314366306 384.7283890342005,400.00000000000006 " stroke-opacity="0.25" stroke="green"/><polygon points="5.684341886080802e-14,236.06181176261197 399.99999999999994,378.302191942102 " stroke-opacity="0.25" stroke="green"/><polygon points="0.0,339.8412103815608 400.0,345.9774612247246 " stroke-opacity="0.25" stroke="green"/><polygon points="400.0,313.6527305073471 134.2504302024271,400.0 " stroke-opacity="0.25" stroke="green"/><polygon points="399.99999999999994,281.3279997899695 221.5941598996301,400.0 " stroke-opacity="0.25" stroke="green"/><polygon points="399.99999999999994,249.00326907259205 249.82029814946213,399.99999999999994 " stroke-opacity="0.25" stroke="green"/><polygon points="400.0,216.67853835521453 263.7724820669746,400.0 " stroke-opacity="0.25" stroke="green"/><polygon points="400.0,184.353807637837 272.0930118235917,400.0 " stroke-opacity="0.25" stroke="green"/><polygon points="400.0,152.0290769204595 277.61903327326604,400.0 " stroke-opacity="0.25" stroke="green"/><polygon points="400.0,119.704346203082 281.5559565305606,400.0 " stroke-opacity="0.25" stroke="green"/><polygon points="399.99999999999994,87.3796154857045 284.5030707846477,400.00000000000006 " stroke-opacity="0.25" stroke="green"/><polygon points="400.0,55.05488476832693 286.7919734879091,400.0 " stroke-opacity="0.25" stroke="green"/><polygon points="399.99999999999994,22.730154050949324 288.62102240099864,400.00000000000006 " stroke-opacity="0.25" stroke="green"/><polygon points="397.42601806949796,0.0 290.11614833825604,400.0 " stroke-opacity="0.25" stroke="green"/><polygon points="18.325248087440542,-5.684341886080802e-14 318.6140942239025,400.00000000000006 " stroke-opacity="0.25" stroke="green"/><polygon points="-5.684341886080802e-14,97.58983848622466 324.4567346093179,400.0 " stroke-opacity="0.25" stroke="green"/><polygon points="-5.684341886080802e-14,219.58983848622464 339.08446138467787,400.0 " stroke-opacity="0.25" stroke="green"/><polygon points="-5.684341886080802e-14,341.5898384862245 400.00000000000006,394.4101615137753 " stroke-opacity="0.25" stroke="green"/><polygon points="400.0,356.4101615137753 237.3205080756882,400.0 " stroke-opacity="0.25" stroke="green"/><polygon points="400.00000000000006,318.4101615137753 277.8502326063699,400.0 " stroke-opacity="0.25" stroke="green"/><polygon points="400.0,280.4101615137753 288.01916857675076,400.00000000000006 " stroke-opacity="0.25" stroke="green"/><polygon points="400.00000000000006,242.4101615137753 292.64625826372463,400.0 " stroke-opacity="0.25" stroke="green"/><polygon points="400.0,204.41016151377536 295.29167105896175,399.99999999999994 " stroke-opacity="0.25" stroke="green"/><polygon points="400.0,166.41016151377536 297.0039367434732,400.00000000000006 " stroke-opacity="0.25" stroke="green"/><polygon points="400.00000000000006,128.41016151377542 298.20276965666534,400.0 " stroke-opacity="0.25" stroke="green"/><polygon points="400.00000000000006,90.41016151377544 299.08899428647396,400.00000000000006 " stroke-opacity="0.25" stroke="green"/><polygon points="400.0,52.41016151377559 299.77078117382825,400.0 " stroke-opacity="0.25" stroke="green"/><polygon points="400.0,14.41016151377542 300.3115554773175,400.0 " stroke-opacity="0.25" stroke="green"/><polygon points="394.4727930388535,5.684341886080802e-14 300.7509650683217,399.99999999999994 " stroke-opacity="0.25" stroke="green"/><polygon points="56.565089835630914,0.0 284.573909018403,400.0 " stroke-opacity="0.25" stroke="green"/><polygon points="0.0,50.741032159214 276.6189789620214,400.0 " stroke-opacity="0.25" stroke="green"/><polygon points="0.0,200.71522562924247 258.5156894094557,399.99999999999994 " stroke-opacity="0.25" stroke="green"/><polygon points="0.0,350.68941909927094 176.63780269229656,400.0 " stroke-opacity="0.25" stroke="green"/><polygon points="400.0,368.9277145253799 355.88047938555064,400.0 " stroke-opacity="0.25" stroke="green"/><polygon points="400.0,322.2144411494693 334.96157537491905,400.0 " stroke-opacity="0.25" stroke="green"/><polygon points="400.0,275.50116777355885 326.2322062685465,400.0 " stroke-opacity="0.25" stroke="green"/><polygon points="400.0,228.7878943976483 321.4418407722893,400.00000000000006 " stroke-opacity="0.25" stroke="green"/><polygon points="400.0,182.07462102173787 318.41514427809204,400.0 " stroke-opacity="0.25" stroke="green"/><polygon points="400.0,135.3613476458273 316.32954485170126,400.00000000000006 " stroke-opacity="0.25" stroke="green"/><polygon points="400.0,88.6480742699168 314.8051733315694,400.0 " stroke-opacity="0.25" stroke="green"/><polygon points="400.0,41.93480089400637 313.6423583151785,400.0 " stroke-opacity="0.25" stroke="green"/><polygon points="398.96971816034807,0.0 312.72610423949016,400.0 " stroke-opacity="0.25" stroke="green"/><polygon points="389.9621202230188,0.0 311.985507779549,400.0 " stroke-opacity="0.25" stroke="green"/><polygon points="89.75077497037644,0.0 254.32800060941673,400.0 " stroke-opacity="0.25" stroke="green"/><polygon points="11.62839780413563,0.0 235.93714671615012,400.0 " stroke-opacity="0.25" stroke="green"/><polygon points="5.684341886080802e-14,176.66373244741092 196.59142881710687,400.0 " stroke-opacity="0.25" stroke="green"/><polygon points="-5.684341886080802e-14,374.063879074898 53.057639157784195,400.0 " stroke-opacity="0.25" stroke="green"/><polygon points="400.0,385.1396664275785 389.77132805656703,400.0 " stroke-opacity="0.25" stroke="green"/><polygon points="400.00000000000006,323.65437485508255 363.6453771270335,400.0 " stroke-opacity="0.25" stroke="green"/><polygon points="400.0,262.1690832825865 349.8292920159019,400.00000000000006 " stroke-opacity="0.25" stroke="green"/><polygon points="400.0,200.68379171009056 341.2817786918159,400.0 " stroke-opacity="0.25" stroke="green"/><polygon points="400.0,139.19850013759452 335.4717834173796,400.0 " stroke-opacity="0.25" stroke="green"/><polygon points="399.99999999999994,77.71320856509858 331.2657141317142,400.0 " stroke-opacity="0.25" stroke="green"/><polygon points="400.0,16.227916992602445 328.07995132161466,400.00000000000006 " stroke-opacity="0.25" stroke="green"/><polygon points="392.4360598421556,5.684341886080802e-14 325.5833956913292,399.99999999999994 " stroke-opacity="0.25" stroke="green"/><polygon points="383.90131395604107,0.0 323.5742240518938,400.0 " stroke-opacity="0.25" stroke="green"/><polygon points="119.57523469257526,-5.684341886080802e-14 226.4504293840172,400.00000000000006 " stroke-opacity="0.25" stroke="green"/><polygon points="55.43079646535543,-5.684341886080802e-14 199.2775861459635,400.00000000000006 " stroke-opacity="0.25" stroke="green"/><polygon points="0.0,139.25536319248536 143.36163499414906,400.0 " stroke-opacity="0.25" stroke="green"/><polygon points="400.0,318.46144894444404 379.37242985245587,400.0 " stroke-opacity="0.25" stroke="green"/><polygon points="400.0,227.07649639430585 364.8160360120415,400.0 " stroke-opacity="0.25" stroke="green"/><polygon points="400.0,135.6915438441676 355.0249947949574,399.99999999999994 " stroke-opacity="0.25" stroke="green"/><polygon points="400.0,44.30659129402903 347.9884001637883,400.0 " stroke-opacity="0.25" stroke="green"/><polygon points="393.9648381726256,0.0 342.6872518986023,400.0 " stroke-opacity="0.25" stroke="green"/><polygon points="384.1984226047718,0.0 338.5500065417576,400.0 " stroke-opacity="0.25" stroke="green"/><polygon points="376.3641788554738,0.0 335.2312670972824,400.0 " stroke-opacity="0.25" stroke="green"/><polygon points="147.25671765898056,0.0 199.88130302384488,400.0 " stroke-opacity="0.25" stroke="green"/><polygon points="94.1911254343893,-5.684341886080802e-14 164.5188722050304,400.00000000000006 " stroke-opacity="0.25" stroke="green"/><polygon points="0.0,47.846427887013334 93.3029881467653,400.00000000000006 " stroke-opacity="0.25" stroke="green"/><polygon points="400.0,285.1861664784475 388.0640726788657,400.0 " stroke-opacity="0.25" stroke="green"/><polygon points="400.0,103.41749404184124 374.28297248970193,400.0 " stroke-opacity="0.25" stroke="green"/><polygon points="394.1728524650616,0.0 364.42398254722167,400.0 " stroke-opacity="0.25" stroke="green"/><polygon points="383.06427960968574,0.0 357.02133004442067,400.0 " stroke-opacity="0.25" stroke="green"/><polygon points="374.4167884648835,0.0 351.2587201394911,400.0 " stroke-opacity="0.25" stroke="green"/><polygon points="367.4940713028699,0.0 346.645484020617,400.0 " stroke-opacity="0.25" stroke="green"/><polygon points="173.75,0.0 173.75,400.0 " stroke-opacity="0.25" stroke="green"/><polygon points="130.0,0.0 130.0,400.0 " stroke-opacity="0.25" stroke="green"/><polygon points="42.49999999999994,0.0 42.49999999999994,400.0 " stroke-opacity="0.25" stroke="green"/><polygon points="392.5,0.0 392.5,400.0 " stroke-opacity="0.25" stroke="green"/><polygon points="380.0,0.0 380.0,400.0 " stroke-opacity="0.25" stroke="green"/><polygon points="370.625,0.0 370.625,400.0 " stroke-opacity="0.25" stroke="green"/><polygon points="363.33333333333337,0.0 363.33333333333337,400.0 " stroke-opacity="0.25" stroke="green"/><polygon points="357.5,0.0 357.5,400.0 " stroke-opacity="0.25" stroke="green"/><polygon points="199.8813030238447,0.0 147.25671765898073,400.0 " stroke-opacity="0.25" stroke="green"/><polygon points="164.51887220503016,-5.684341886080802e-14 94.19112543438955,400.00000000000006 " stroke-opacity="0.25" stroke="green"/><polygon points="0.0,352.15357211298794 93.302988146765,0.0 " stroke-opacity="0.25" stroke="green"/><polygon points="388.0640726788659,0.0 400.00000000000006,114.81383352155164 " stroke-opacity="0.25" stroke="green"/><polygon points="374.28297248970205,0.0 400.0,296.5825059581594 " stroke-opacity="0.25" stroke="green"/><polygon points="364.4239825472218,-5.684341886080802e-14 394.1728524650615,400.00000000000006 " stroke-opacity="0.25" stroke="green"/><polygon points="357.0213300444207,0.0 383.0642796096856,400.0 " stroke-opacity="0.25" stroke="green"/><polygon points="351.25872013949123,0.0 374.41678846488344,400.0 " stroke-opacity="0.25" stroke="green"/><polygon points="346.6454840206171,0.0 367.49407130286977,400.0 " stroke-opacity="0.25" stroke="green"/><polygon points="226.45042938401704,0.0 119.57523469257548,400.0 " stroke-opacity="0.25" stroke="green"/><polygon points="199.27758614596328,-5.684341886080802e-14 55.43079646535571,400.00000000000006 " stroke-opacity="0.25" stroke="green"/><polygon points="0.0,260.744636807515 143.36163499414874,0.0 " stroke-opacity="0.25" stroke="green"/><polygon points="379.3724298524561,0.0 399.99999999999994,81.53855105555543 " stroke-opacity="0.25" stroke="green"/><polygon points="364.8160360120416,0.0 400.00000000000006,172.9235036056939 " stroke-opacity="0.25" stroke="green"/><polygon points="355.0249947949576,-5.684341886080802e-14 400.0,264.30845615583263 " stroke-opacity="0.25" stroke="green"/><polygon points="347.9884001637884,0.0 400.0,355.69340870597125 " stroke-opacity="0.25" stroke="green"/><polygon points="342.6872518986024,0.0 393.9648381726255,400.0 " stroke-opacity="0.25" stroke="green"/><polygon points="338.5500065417577,0.0 384.1984226047717,400.0 " stroke-opacity="0.25" stroke="green"/><polygon points="335.2312670972825,0.0 376.3641788554737,400.0 " stroke-opacity="0.25" stroke="green"/><polygon points="254.32800060941665,0.0 89.75077497037654,400.0 " stroke-opacity="0.25" stroke="green"/><polygon points="235.93714671615004,0.0 11.628397804135773,400.0 " stroke-opacity="0.25" stroke="green"/><polygon points="5.684341886080802e-14,223.3362675525892 196.59142881710676,5.684341886080802e-14 " stroke-opacity="0.25" stroke="green"/><polygon points="0.0,25.936120925101903 53.05763915778397,-5.684341886080802e-14 " stroke-opacity="0.25" stroke="green"/><polygon points="389.7713280565672,5.684341886080802e-14 400.00000000000006,14.860333572421212 " stroke-opacity="0.25" stroke="green"/><polygon points="363.6453771270335,0.0 400.0,76.34562514491734 " stroke-opacity="0.25" stroke="green"/><polygon points="349.82929201590196,5.684341886080802e-14 400.00000000000006,137.83091671741334 " stroke-opacity="0.25" stroke="green"/><polygon points="341.28177869181593,0.0 400.0,199.31620828990933 " stroke-opacity="0.25" stroke="green"/><polygon points="335.4717834173796,-5.684341886080802e-14 400.00000000000006,260.8014998624054 " stroke-opacity="0.25" stroke="green"/><polygon points="331.2657141317143,-5.684341886080802e-14 399.99999999999994,322.2867914349015 " stroke-opacity="0.25" stroke="green"/><polygon points="328.0799513216148,-5.684341886080802e-14 400.0,383.7720830073977 " stroke-opacity="0.25" stroke="green"/><polygon points="325.58339569132926,5.684341886080802e-14 392.4360598421556,399.99999999999994 " stroke-opacity="0.25" stroke="green"/><polygon points="323.5742240518938,0.0 383.901313956041,400.0 " stroke-opacity="0.25" stroke="green"/><polygon points="284.57390901840284,-5.684341886080802e-14 56.565089835631085,400.00000000000006 " stroke-opacity="0.25" stroke="green"/><polygon points="0.0,349.2589678407864 276.6189789620212,-5.684341886080802e-14 " stroke-opacity="0.25" stroke="green"/><polygon points="0.0,199.2847743707577 258.5156894094553,-5.684341886080802e-14 " stroke-opacity="0.25" stroke="green"/><polygon points="0.0,49.31058090072901 176.63780269229565,0.0 " stroke-opacity="0.25" stroke="green"/><polygon points="355.8804793855512,0.0 400.0,31.07228547461972 " stroke-opacity="0.25" stroke="green"/><polygon points="334.96157537491945,-5.684341886080802e-14 400.0,77.78555885053034 " stroke-opacity="0.25" stroke="green"/><polygon points="326.23220626854675,-5.684341886080802e-14 400.0,124.4988322264409 " stroke-opacity="0.25" stroke="green"/><polygon points="321.44184077228954,5.684341886080802e-14 400.00000000000006,171.21210560235141 " stroke-opacity="0.25" stroke="green"/><polygon points="318.41514427809216,0.0 400.00000000000006,217.925378978262 " stroke-opacity="0.25" stroke="green"/><polygon points="316.32954485170137,-5.684341886080802e-14 400.0,264.63865235417256 " stroke-opacity="0.25" stroke="green"/><polygon points="314.8051733315695,0.0 400.0,311.35192573008317 " stroke-opacity="0.25" stroke="green"/><polygon points="313.64235831517857,0.0 400.0,358.0651991059938 " stroke-opacity="0.25" stroke="green"/><polygon points="312.7261042394902,0.0 398.96971816034795,400.0 " stroke-opacity="0.25" stroke="green"/><polygon points="311.9855077795491,5.684341886080802e-14 389.9621202230188,399.99999999999994 " stroke-opacity="0.25" stroke="green"/><polygon points="318.6140942239022,-5.684341886080802e-14 18.325248087440883,400.00000000000006 " stroke-opacity="0.25" stroke="green"/><polygon points="0.0,302.41016151377556 324.45673460931755,5.684341886080802e-14 " stroke-opacity="0.25" stroke="green"/><polygon points="-5.684341886080802e-14,180.41016151377548 339.08446138467724,0.0 " stroke-opacity="0.25" stroke="green"/><polygon points="0.0,58.41016151377539 400.0,5.589838486224352 " stroke-opacity="0.25" stroke="green"/><polygon points="237.32050807568925,-5.684341886080802e-14 399.99999999999994,43.58983848622438 " stroke-opacity="0.25" stroke="green"/><polygon points="277.85023260637035,-5.684341886080802e-14 400.00000000000006,81.58983848622445 " stroke-opacity="0.25" stroke="green"/><polygon points="288.01916857675104,5.684341886080802e-14 399.99999999999994,119.5898384862245 " stroke-opacity="0.25" stroke="green"/><polygon points="292.64625826372486,0.0 400.0,157.58983848622447 " stroke-opacity="0.25" stroke="green"/><polygon points="295.2916710589619,0.0 400.0,195.5898384862245 " stroke-opacity="0.25" stroke="green"/><polygon points="297.0039367434734,0.0 399.99999999999994,233.58983848622444 " stroke-opacity="0.25" stroke="green"/><polygon points="298.20276965666545,0.0 400.00000000000006,271.5898384862246 " stroke-opacity="0.25" stroke="green"/><polygon points="299.088994286474,-5.684341886080802e-14 400.00000000000006,309.5898384862247 " stroke-opacity="0.25" stroke="green"/><polygon points="299.77078117382825,0.0 400.00000000000006,347.5898384862246 " stroke-opacity="0.25" stroke="green"/><polygon points="300.31155547731754,0.0 399.99999999999994,385.5898384862246 " stroke-opacity="0.25" stroke="green"/><polygon points="300.75096506832176,0.0 394.4727930388535,400.0 " stroke-opacity="0.25" stroke="green"/><polygon points="-5.684341886080802e-14,371.4969854752859 358.54574067771955,-5.684341886080802e-14 " stroke-opacity="0.25" stroke="green"/><polygon points="-5.684341886080802e-14,267.71758685633705 384.72838903420023,0.0 " stroke-opacity="0.25" stroke="green"/><polygon points="0.0,163.9381882373881 400.0,21.697808057897817 " stroke-opacity="0.25" stroke="green"/><polygon points="-5.684341886080802e-14,60.158789618439215 400.00000000000006,54.02253877527531 " stroke-opacity="0.25" stroke="green"/><polygon points="134.25043020242725,-5.684341886080802e-14 400.00000000000006,86.34726949265283 " stroke-opacity="0.25" stroke="green"/><polygon points="221.59415989963017,0.0 400.0,118.67200021003038 " stroke-opacity="0.25" stroke="green"/><polygon points="249.8202981494622,0.0 400.0,150.9967309274079 " stroke-opacity="0.25" stroke="green"/><polygon points="263.7724820669747,0.0 400.00000000000006,183.32146164478542 " stroke-opacity="0.25" stroke="green"/><polygon points="272.0930118235917,0.0 400.00000000000006,215.64619236216294 " stroke-opacity="0.25" stroke="green"/><polygon points="277.61903327326604,0.0 400.00000000000006,247.97092307954046 " stroke-opacity="0.25" stroke="green"/><polygon points="281.55595653056065,0.0 400.00000000000006,280.29565379691803 " stroke-opacity="0.25" stroke="green"/><polygon points="284.5030707846477,-5.684341886080802e-14 400.0,312.62038451429555 " stroke-opacity="0.25" stroke="green"/><polygon points="286.79197348790916,0.0 400.0,344.94511523167296 " stroke-opacity="0.25" stroke="green"/><polygon points="288.62102240099864,-5.684341886080802e-14 400.0,377.2698459490507 " stroke-opacity="0.25" stroke="green"/><polygon points="290.11614833825604,0.0 397.42601806949796,400.0 " stroke-opacity="0.25" stroke="green"/><polygon points="0.0,330.9594334240976 400.0,6.272551481588749 " stroke-opacity="0.25" stroke="green"/><polygon points="0.0,239.79636388235645 400.0,34.66760592901636 " stroke-opacity="0.25" stroke="green"/><polygon points="5.684341886080802e-14,148.63329434061524 399.99999999999994,63.062660376444 " stroke-opacity="0.25" stroke="green"/><polygon points="0.0,57.47022479887406 400.0,91.45771482387156 " stroke-opacity="0.25" stroke="green"/><polygon points="87.7728613980691,5.684341886080802e-14 400.0,119.85276927129911 " stroke-opacity="0.25" stroke="green"/><polygon points="182.869579446157,0.0 399.99999999999994,148.24782371872675 " stroke-opacity="0.25" stroke="green"/><polygon points="220.05598682815133,-5.684341886080802e-14 400.00000000000006,176.6428781661543 " stroke-opacity="0.25" stroke="green"/><polygon points="239.88291107335417,-5.684341886080802e-14 400.0,205.0379326135819 " stroke-opacity="0.25" stroke="green"/><polygon points="252.20571376125508,-5.684341886080802e-14 400.0,233.4329870610095 " stroke-opacity="0.25" stroke="green"/><polygon points="260.6067272286656,0.0 400.0,261.82804150843697 " stroke-opacity="0.25" stroke="green"/><polygon points="266.701124742939,0.0 399.99999999999994,290.22309595586455 " stroke-opacity="0.25" stroke="green"/><polygon points="271.32420536531095,-5.684341886080802e-14 399.99999999999994,318.6181504032922 " stroke-opacity="0.25" stroke="green"/><polygon points="274.9513912758489,-5.684341886080802e-14 400.0,347.0132048507197 " stroke-opacity="0.25" stroke="green"/><polygon points="277.8731923920723,-5.684341886080802e-14 400.00000000000006,375.4082592981474 " stroke-opacity="0.25" stroke="green"/><polygon points="280.277139966038,0.0 398.8723628961757,400.0 " stroke-opacity="0.25" stroke="green"/><polygon points="0.0,297.99721235357913 400.0,45.486213002953065 " stroke-opacity="0.25" stroke="green"/><polygon points="0.0,215.91361584759017 400.0,71.05323486547422 " stroke-opacity="0.25" stroke="green"/><polygon points="0.0,133.83001934160117 400.0,96.6202567279954 " stroke-opacity="0.25" stroke="green"/><polygon points="0.0,51.746422835612236 400.0,122.18727859051651 " stroke-opacity="0.25" stroke="green"/><polygon points="68.13840767998482,0.0 400.0,147.75430045303767 " stroke-opacity="0.25" stroke="green"/><polygon points="157.37376204668604,0.0 400.0,173.32132231555886 " stroke-opacity="0.25" stroke="green"/><polygon points="197.771195360414,0.0 400.0,198.88834417808002 " stroke-opacity="0.25" stroke="green"/><polygon points="220.80961629724493,0.0 400.0,224.45536604060115 " stroke-opacity="0.25" stroke="green"/><polygon points="235.69911355946743,-5.684341886080802e-14 400.0,250.02238790312236 " stroke-opacity="0.25" stroke="green"/><polygon points="246.11349182553175,-5.684341886080802e-14 400.0,275.5894097656434 " stroke-opacity="0.25" stroke="green"/><polygon points="253.80670307125507,0.0 400.0,301.15643162816457 " stroke-opacity="0.25" stroke="green"/><polygon points="259.7220306074422,0.0 400.0,326.7234534906858 " stroke-opacity="0.25" stroke="green"/><polygon points="264.4119355323087,-5.684341886080802e-14 400.0,352.29047535320694 " stroke-opacity="0.25" stroke="green"/><polygon points="268.22146647670286,0.0 400.0,377.85749721572813 " stroke-opacity="0.25" stroke="green"/><polygon points="271.3772446274334,-5.684341886080802e-14 398.90816978433355,400.00000000000006 " stroke-opacity="0.25" stroke="green"/><polygon points="0.0,269.90835897358505 400.0,78.17678597142378 " stroke-opacity="0.25" stroke="green"/><polygon points="0.0,194.50821234609785 400.0,101.6620775439198 " stroke-opacity="0.25" stroke="green"/><polygon points="0.0,119.10806571861065 400.0,125.14736911641582 " stroke-opacity="0.25" stroke="green"/><polygon points="0.0,43.70791909112347 400.0,148.6326606889118 " stroke-opacity="0.25" stroke="green"/><polygon points="62.19949870572691,-5.684341886080802e-14 400.00000000000006,172.11795226140782 " stroke-opacity="0.25" stroke="green"/><polygon points="141.51823521230529,0.0 400.0,195.60324383390383 " stroke-opacity="0.25" stroke="green"/><polygon points="181.77403338615557,0.0 400.0,219.08853540639984 " stroke-opacity="0.25" stroke="green"/><polygon points="206.1218245822289,-5.684341886080802e-14 400.0,242.57382697889585 " stroke-opacity="0.25" stroke="green"/><polygon points="222.43546465380268,-5.684341886080802e-14 400.0,266.05911855139186 " stroke-opacity="0.25" stroke="green"/><polygon points="234.128379698094,0.0 400.00000000000006,289.5444101238879 " stroke-opacity="0.25" stroke="green"/><polygon points="242.9202134662296,0.0 400.0,313.0297016963838 " stroke-opacity="0.25" stroke="green"/><polygon points="249.77147506337775,-5.684341886080802e-14 400.0,336.5149932688799 " stroke-opacity="0.25" stroke="green"/><polygon points="255.26080218410806,0.0 400.0,360.0002848413759 " stroke-opacity="0.25" stroke="green"/><polygon points="259.7575806155362,0.0 400.0,383.48557641387197 " stroke-opacity="0.25" stroke="green"/><polygon points="263.5086910361536,5.684341886080802e-14 397.66208598472605,399.99999999999994 " stroke-opacity="0.25" stroke="green"/><polygon points="0.0,245.0333209967909 400.0,106.4692563912805 " stroke-opacity="0.25" stroke="green"/><polygon points="0.0,174.59658815565655 400.0,128.40856662048628 " stroke-opacity="0.25" stroke="green"/><polygon points="-5.684341886080802e-14,104.15985531452216 400.00000000000006,150.34787684969208 " stroke-opacity="0.25" stroke="green"/><polygon points="0.0,33.72312247338783 400.0,172.28718707889786 " stroke-opacity="0.25" stroke="green"/><polygon points="63.58983848622452,-5.684341886080802e-14 400.0,194.22649730810366 " stroke-opacity="0.25" stroke="green"/><polygon points="132.56417034730333,0.0 400.00000000000006,216.16580753730943 " stroke-opacity="0.25" stroke="green"/><polygon points="170.88324360345814,0.0 400.00000000000006,238.1051177665152 " stroke-opacity="0.25" stroke="green"/><polygon points="195.2681084028294,0.0 400.0,260.04442799572104 " stroke-opacity="0.25" stroke="green"/><polygon points="212.1499378793172,0.0 399.99999999999994,281.9837382249268 " stroke-opacity="0.25" stroke="green"/><polygon points="224.52994616207488,0.0 400.0,303.9230484541326 " stroke-opacity="0.25" stroke="green"/><polygon points="233.99701131947785,0.0 400.0,325.86235868333836 " stroke-opacity="0.25" stroke="green"/><polygon points="241.4710101279539,0.0 400.00000000000006,347.8016689125442 " stroke-opacity="0.25" stroke="green"/><polygon points="247.52139011576776,-5.684341886080802e-14 400.00000000000006,369.74097914175 " stroke-opacity="0.25" stroke="green"/><polygon points="252.51953010570102,-5.684341886080802e-14 400.00000000000006,391.6802893709558 " stroke-opacity="0.25" stroke="green"/><polygon points="256.71796769724494,0.0 395.28203230275506,400.0 " stroke-opacity="0.25" stroke="green"/><polygon points="0.0,222.27292407283852 400.0,131.7523522299075 " stroke-opacity="0.25" stroke="green"/><polygon points="0.0,155.50011108396967 400.0,152.55044152152237 " stroke-opacity="0.25" stroke="green"/><polygon points="5.684341886080802e-14,88.72729809510076 399.99999999999994,173.3485308131373 " stroke-opacity="0.25" stroke="green"/><polygon points="0.0,21.954485106231914 400.0,194.14662010475217 " stroke-opacity="0.25" stroke="green"/><polygon points="69.01417284322696,0.0 400.0,214.94470939636707 " stroke-opacity="0.25" stroke="green"/><polygon points="128.51164618468698,0.0 399.99999999999994,235.74279868798197 " stroke-opacity="0.25" stroke="green"/><polygon points="164.04871751324936,5.684341886080802e-14 400.00000000000006,256.54088797959685 " stroke-opacity="0.25" stroke="green"/><polygon points="187.67322281106928,0.0 400.0,277.3389772712118 " stroke-opacity="0.25" stroke="green"/><polygon points="204.51523284540252,0.0 400.0,298.1370665628267 " stroke-opacity="0.25" stroke="green"/><polygon points="217.12893750607878,0.0 400.0,318.9351558544416 " stroke-opacity="0.25" stroke="green"/><polygon points="226.92906665661664,0.0 400.0,339.73324514605645 " stroke-opacity="0.25" stroke="green"/><polygon points="234.76254566702244,0.0 399.99999999999994,360.5313344376714 " stroke-opacity="0.25" stroke="green"/><polygon points="241.16738110196786,0.0 400.00000000000006,381.3294237292863 " stroke-opacity="0.25" stroke="green"/><polygon points="246.5017392045437,0.0 399.1878955357351,400.0 " stroke-opacity="0.25" stroke="green"/><polygon points="251.0132949352227,0.0 391.92385154388626,400.0 " stroke-opacity="0.25" stroke="green"/><polygon points="0.0,200.844743568047 400.0,154.99384301394576 " stroke-opacity="0.25" stroke="green"/><polygon points="0.0,136.7055478895127 400.0,174.97162527447287 " stroke-opacity="0.25" stroke="green"/><polygon points="5.684341886080802e-14,72.56635221097838 399.99999999999994,194.94940753499995 " stroke-opacity="0.25" stroke="green"/><polygon points="0.0,8.427156532444087 400.0,214.92718979552703 " stroke-opacity="0.25" stroke="green"/><polygon points="76.68104343326083,0.0 400.00000000000006,234.90497205605413 " stroke-opacity="0.25" stroke="green"/><polygon points="127.93206733052732,0.0 399.99999999999994,254.88275431658118 " stroke-opacity="0.25" stroke="green"/><polygon points="160.3923223036148,0.0 400.0,274.8605365771083 " stroke-opacity="0.25" stroke="green"/><polygon points="182.79504597484868,0.0 400.0,294.83831883763537 " stroke-opacity="0.25" stroke="green"/><polygon points="199.18758077425375,-5.684341886080802e-14 400.00000000000006,314.81610109816245 " stroke-opacity="0.25" stroke="green"/><polygon points="211.70248114566627,5.684341886080802e-14 400.00000000000006,334.79388335868947 " stroke-opacity="0.25" stroke="green"/><polygon points="221.57010222706197,0.0 400.0,354.77166561921655 " stroke-opacity="0.25" stroke="green"/><polygon points="229.55007122236222,0.0 399.99999999999994,374.7494478797437 " stroke-opacity="0.25" stroke="green"/><polygon points="236.1367572512315,0.0 400.00000000000006,394.72723014027065 " stroke-opacity="0.25" stroke="green"/><polygon points="241.6657586609773,-5.684341886080802e-14 394.385630959987,400.00000000000006 " stroke-opacity="0.25" stroke="green"/><polygon points="246.37290405778086,-5.684341886080802e-14 387.7422868159964,400.00000000000006 " stroke-opacity="0.25" stroke="green"/><polygon points="0.0,180.1485360472377 400.0,176.91315896843105 " stroke-opacity="0.25" stroke="green"/><polygon points="0.0,117.78575976047094 400.0,196.3376302708666 " stroke-opacity="0.25" stroke="green"/><polygon points="-5.684341886080802e-14,55.42298347370411 400.00000000000006,215.76210157330217 " stroke-opacity="0.25" stroke="green"/><polygon points="11.464745350338603,-5.684341886080802e-14 400.0,235.1865728757377 " stroke-opacity="0.25" stroke="green"/><polygon points="85.58154552195332,5.684341886080802e-14 400.0,254.6110441781733 " stroke-opacity="0.25" stroke="green"/><polygon points="129.81519941087157,-5.684341886080802e-14 400.00000000000006,274.03551548060886 " stroke-opacity="0.25" stroke="green"/><polygon points="159.20644488148665,0.0 400.0,293.4599867830444 " stroke-opacity="0.25" stroke="green"/><polygon points="180.1524659286941,-5.684341886080802e-14 400.0,312.88445808548 " stroke-opacity="0.25" stroke="green"/><polygon points="195.8359595328187,0.0 400.0,332.30892938791555 " stroke-opacity="0.25" stroke="green"/><polygon points="208.0188458233938,0.0 400.0,351.7334006903511 " stroke-opacity="0.25" stroke="green"/><polygon points="217.75547785216338,0.0 400.0,371.1578719927867 " stroke-opacity="0.25" stroke="green"/><polygon points="225.71542378886548,-5.684341886080802e-14 400.00000000000006,390.58234329522224 " stroke-opacity="0.25" stroke="green"/><polygon points="232.34432422759875,0.0 395.9081185873806,400.0 " stroke-opacity="0.25" stroke="green"/><polygon points="237.95028105515166,0.0 388.89384223997786,400.0 " stroke-opacity="0.25" stroke="green"/><polygon points="242.75311760758765,-5.684341886080802e-14 382.88444476038677,400.00000000000006 " stroke-opacity="0.25" stroke="green"/><polygon points="0.0,159.68484199976095 400.0,198.08381025857136 " stroke-opacity="0.25" stroke="green"/><polygon points="0.0,98.34883694638646 400.0,217.1884675702782 " stroke-opacity="0.25" stroke="green"/><polygon points="0.0,37.01283189301191 400.0,236.293124881985 " stroke-opacity="0.25" stroke="green"/><polygon points="34.78205360706812,0.0 400.0,255.39778219369185 " stroke-opacity="0.25" stroke="green"/><polygon points="95.13415533416061,-5.684341886080802e-14 400.0,274.5024395053986 " stroke-opacity="0.25" stroke="green"/><polygon points="133.44931691140124,5.684341886080802e-14 400.0,293.6070968171054 " stroke-opacity="0.25" stroke="green"/><polygon points="159.93398727649662,5.684341886080802e-14 400.00000000000006,312.7117541288123 " stroke-opacity="0.25" stroke="green"/><polygon points="179.3346925604604,0.0 400.0,331.8164114405191 " stroke-opacity="0.25" stroke="green"/><polygon points="194.15833362042562,0.0 400.0,350.9210687522259 " stroke-opacity="0.25" stroke="green"/><polygon points="205.85375233092307,0.0 400.0,370.02572606393267 " stroke-opacity="0.25" stroke="green"/><polygon points="215.31665802361357,-5.684341886080802e-14 400.00000000000006,389.1303833756395 " stroke-opacity="0.25" stroke="green"/><polygon points="223.13059433615462,0.0 396.4321368652329,400.0 " stroke-opacity="0.25" stroke="green"/><polygon points="229.6920320811868,0.0 389.10429236615624,400.0 " stroke-opacity="0.25" stroke="green"/><polygon points="235.2797718805176,-5.684341886080802e-14 382.86387830724067,400.00000000000006 " stroke-opacity="0.25" stroke="green"/><polygon points="240.09558355298628,0.0 377.4855572068983,400.0 " stroke-opacity="0.25" stroke="green"/><polygon points="0.0,139.00000000000003 400.0,218.99999999999997 " stroke-opacity="0.25" stroke="green"/><polygon points="0.0,78.00000000000003 400.0,237.99999999999997 " stroke-opacity="0.25" stroke="green"/><polygon points="0.0,17.0 400.0,257.0 " stroke-opacity="0.25" stroke="green"/><polygon points="54.99999999999997,0.0 400.0,276.0 " stroke-opacity="0.25" stroke="green"/><polygon points="104.99999999999999,-5.684341886080802e-14 400.0,295.0 " stroke-opacity="0.25" stroke="green"/><polygon points="138.33333333333334,-5.684341886080802e-14 400.0,314.0 " stroke-opacity="0.25" stroke="green"/><polygon points="162.14285714285714,-5.684341886080802e-14 400.0,333.0 " stroke-opacity="0.25" stroke="green"/><polygon points="180.0,-5.684341886080802e-14 400.0,352.0 " stroke-opacity="0.25" stroke="green"/><polygon points="193.88888888888889,-5.684341886080802e-14 399.99999999999994,371.0 " stroke-opacity="0.25" stroke="green"/><polygon points="205.0,-5.684341886080802e-14 400.0,390.0 " stroke-opacity="0.25" stroke="green"/><polygon points="214.0909090909091,-5.684341886080802e-14 395.909090909091,400.00000000000006 " stroke-opacity="0.25" stroke="green"/><polygon points="221.66666666666669,-5.684341886080802e-14 388.33333333333337,400.00000000000006 " stroke-opacity="0.25" stroke="green"/><polygon points="228.07692307692307,-5.684341886080802e-14 381.92307692307696,400.00000000000006 " stroke-opacity="0.25" stroke="green"/><polygon points="233.57142857142858,0.0 376.42857142857144,400.0 " stroke-opacity="0.25" stroke="green"/><polygon points="238.33333333333331,0.0 371.6666666666667,400.0 " stroke-opacity="0.25" stroke="green"/><polygon points="0.0,117.64314789349031 400.0,240.12550436484202 " stroke-opacity="0.25" stroke="green"/><polygon points="0.0,56.3071428401158 400.0,259.23016167654885 " stroke-opacity="0.25" stroke="green"/><polygon points="7.098809829030159,0.0 400.0,278.3348189882556 " stroke-opacity="0.25" stroke="green"/><polygon points="72.9676469676178,0.0 400.0,297.43947629996245 " stroke-opacity="0.25" stroke="green"/><polygon points="114.98238189729705,0.0 400.00000000000006,316.5441336116693 " stroke-opacity="0.25" stroke="green"/><polygon points="144.11438222586582,0.0 400.0,335.64879092337605 " stroke-opacity="0.25" stroke="green"/><polygon points="165.50123155468611,0.0 400.0,354.7534482350829 " stroke-opacity="0.25" stroke="green"/><polygon points="181.86925021222018,-5.684341886080802e-14 400.0,373.8581055467897 " stroke-opacity="0.25" stroke="green"/><polygon points="194.79956363757282,5.684341886080802e-14 400.00000000000006,392.9627628584965 " stroke-opacity="0.25" stroke="green"/><polygon points="205.27225985298264,0.0 394.29738595160563,400.0 " stroke-opacity="0.25" stroke="green"/><polygon points="213.92719657748816,0.0 386.547654292836,400.0 " stroke-opacity="0.25" stroke="green"/><polygon points="221.1998472786656,0.0 380.03563772054747,400.0 " stroke-opacity="0.25" stroke="green"/><polygon points="227.39687229500328,0.0 374.4867489778579,400.0 " stroke-opacity="0.25" stroke="green"/><polygon points="232.7404679034754,0.0 369.70203091731014,400.0 " stroke-opacity="0.25" stroke="green"/><polygon points="237.39557304755698,5.684341886080802e-14 365.53379527812336,399.99999999999994 " stroke-opacity="0.25" stroke="green"/><polygon points="0.0,95.12591137922897 400.0,261.9357836364398 " stroke-opacity="0.25" stroke="green"/><polygon points="0.0,32.76313509246219 400.0,281.36025493887536 " stroke-opacity="0.25" stroke="green"/><polygon points="35.83661227563729,0.0 399.99999999999994,300.78472624131086 " stroke-opacity="0.25" stroke="green"/><polygon points="89.24672551799482,5.684341886080802e-14 400.0,320.2091975437464 " stroke-opacity="0.25" stroke="green"/><polygon points="124.97007783292105,-5.684341886080802e-14 400.00000000000006,339.6336688461821 " stroke-opacity="0.25" stroke="green"/><polygon points="150.54411395197792,-5.684341886080802e-14 399.99999999999994,359.0581401486176 " stroke-opacity="0.25" stroke="green"/><polygon points="169.75610014874079,0.0 400.0,378.48261145105323 " stroke-opacity="0.25" stroke="green"/><polygon points="184.71743930464672,5.684341886080802e-14 400.0,397.9070827534887 " stroke-opacity="0.25" stroke="green"/><polygon points="196.69830093769653,0.0 391.5569902330285,400.0 " stroke-opacity="0.25" stroke="green"/><polygon points="206.50862981205393,0.0 383.71636956029045,400.0 " stroke-opacity="0.25" stroke="green"/><polygon points="214.6892761840558,-5.684341886080802e-14 377.17822533677395,400.00000000000006 " stroke-opacity="0.25" stroke="green"/><polygon points="221.61517970555317,-5.684341886080802e-14 371.6428979258875,400.00000000000006 " stroke-opacity="0.25" stroke="green"/><polygon points="227.5544562552485,5.684341886080802e-14 366.8961034918731,399.99999999999994 " stroke-opacity="0.25" stroke="green"/><polygon points="232.7039122037838,0.0 362.78055025400226,400.0 " stroke-opacity="0.25" stroke="green"/><polygon points="237.21127367530775,0.0 359.17817239432543,400.0 " stroke-opacity="0.25" stroke="green"/><polygon points="-5.684341886080802e-14,70.87686507488448 400.00000000000006,284.96172150710834 " stroke-opacity="0.25" stroke="green"/><polygon points="-5.684341886080802e-14,6.737669396350157 400.00000000000006,304.9395037676354 " stroke-opacity="0.25" stroke="green"/><polygon points="60.05618811724966,-5.684341886080802e-14 400.00000000000006,324.9172860281625 " stroke-opacity="0.25" stroke="green"/><polygon points="104.22932759574849,0.0 400.00000000000006,344.8950682886896 " stroke-opacity="0.25" stroke="green"/><polygon points="134.9043567614499,0.0 400.0,364.87285054921665 " stroke-opacity="0.25" stroke="green"/><polygon points="157.44825704522447,5.684341886080802e-14 400.00000000000006,384.85063280974373 " stroke-opacity="0.25" stroke="green"/><polygon points="174.71569715148752,-5.684341886080802e-14 397.3130193373892,400.00000000000006 " stroke-opacity="0.25" stroke="green"/><polygon points="188.36505734392208,0.0 387.6417571527784,400.0 " stroke-opacity="0.25" stroke="green"/><polygon points="199.42565505054657,0.0 379.8047641486256,400.0 " stroke-opacity="0.25" stroke="green"/><polygon points="208.57018237162265,5.684341886080802e-14 373.32540394202175,399.99999999999994 " stroke-opacity="0.25" stroke="green"/><polygon points="216.25684354965105,-5.684341886080802e-14 367.8790156477055,400.00000000000006 " stroke-opacity="0.25" stroke="green"/><polygon points="222.8085304999077,0.0 363.23681400937915,400.0 " stroke-opacity="0.25" stroke="green"/><polygon points="228.4593376047835,0.0 359.2329313148477,400.0 " stroke-opacity="0.25" stroke="green"/><polygon points="233.38312300278548,0.0 355.7441802779142,400.0 " stroke-opacity="0.25" stroke="green"/><polygon points="237.71171225566374,0.0 352.67715581934084,400.0 " stroke-opacity="0.25" stroke="green"/><polygon points="-5.684341886080802e-14,44.181449949424035 400.00000000000006,309.843826353322 " stroke-opacity="0.25" stroke="green"/><polygon points="25.582372219952106,0.0 400.00000000000006,330.64191564493694 " stroke-opacity="0.25" stroke="green"/><polygon points="81.09194956609218,0.0 400.00000000000006,351.44000493655176 " stroke-opacity="0.25" stroke="green"/><polygon points="118.20162908377026,5.684341886080802e-14 400.00000000000006,372.2380942281667 " stroke-opacity="0.25" stroke="green"/><polygon points="144.75931802088348,0.0 400.0,393.0361835197816 " stroke-opacity="0.25" stroke="green"/><polygon points="164.7054221530909,0.0 392.134219916435,400.0 " stroke-opacity="0.25" stroke="green"/><polygon points="180.23558570897814,0.0 382.488738905091,400.0 " stroke-opacity="0.25" stroke="green"/><polygon points="192.67014354909318,0.0 374.7658780929895,400.0 " stroke-opacity="0.25" stroke="green"/><polygon points="202.85077446428377,-5.684341886080802e-14 368.4428872357073,400.00000000000006 " stroke-opacity="0.25" stroke="green"/><polygon points="211.33938295658396,5.684341886080802e-14 363.1707784307632,399.99999999999994 " stroke-opacity="0.25" stroke="green"/><polygon points="218.52542664781788,0.0 358.7076671620986,400.0 " stroke-opacity="0.25" stroke="green"/><polygon points="224.687356629066,5.684341886080802e-14 354.88061290001843,399.99999999999994 " stroke-opacity="0.25" stroke="green"/><polygon points="230.02953673359133,5.684341886080802e-14 351.56268926245025,399.99999999999994 " stroke-opacity="0.25" stroke="green"/><polygon points="234.70534716712285,0.0 348.658634801789,400.0 " stroke-opacity="0.25" stroke="green"/><polygon points="238.8321500402332,0.0 346.09555820527396,400.0 " stroke-opacity="0.25" stroke="green"/><polygon points="0.0,14.093213320940777 400.0,337.4093640671307 " stroke-opacity="0.25" stroke="green"/><polygon points="54.2165769367912,0.0 400.0,359.34867429633647 " stroke-opacity="0.25" stroke="green"/><polygon points="99.81356294828376,0.0 400.0,381.2879845255423 " stroke-opacity="0.25" stroke="green"/><polygon points="131.38070711008626,-5.684341886080802e-14 397.85006212068305,400.00000000000006 " stroke-opacity="0.25" stroke="green"/><polygon points="154.52994616207476,0.0 385.4700538379253,400.0 " stroke-opacity="0.25" stroke="green"/><polygon points="172.2323054371248,0.0 376.0029886805223,400.0 " stroke-opacity="0.25" stroke="green"/><polygon points="186.20785223321693,0.0 368.5289898720463,400.0 " stroke-opacity="0.25" stroke="green"/><polygon points="197.5213901157677,-5.684341886080802e-14 362.47860988423236,400.00000000000006 " stroke-opacity="0.25" stroke="green"/><polygon points="206.86735619265747,0.0 357.48046989429906,400.0 " stroke-opacity="0.25" stroke="green"/><polygon points="214.7179676972449,5.684341886080802e-14 353.28203230275517,399.99999999999994 " stroke-opacity="0.25" stroke="green"/><polygon points="221.4055256455971,0.0 349.70558546551405,400.0 " stroke-opacity="0.25" stroke="green"/><polygon points="227.17066180796974,0.0 346.6224416403062,400.0 " stroke-opacity="0.25" stroke="green"/><polygon points="232.191909433262,0.0 343.93712282480254,400.0 " stroke-opacity="0.25" stroke="green"/><polygon points="236.60452098276127,0.0 341.57729719905694,400.0 " stroke-opacity="0.25" stroke="green"/><polygon points="240.51283406946064,0.0 339.4871659305394,400.0 " stroke-opacity="0.25" stroke="green"/><polygon points="21.266774840924654,-5.684341886080802e-14 400.0,368.7937971735681 " stroke-opacity="0.25" stroke="green"/><polygon points="78.71513712424107,0.0 400.0,392.2790887460641 " stroke-opacity="0.25" stroke="green"/><polygon points="116.81711935360791,-5.684341886080802e-14 389.2626621193604,400.00000000000006 " stroke-opacity="0.25" stroke="green"/><polygon points="143.93700412476164,0.0 377.1191893478826,400.0 " stroke-opacity="0.25" stroke="green"/><polygon points="164.22475974444544,-5.684341886080802e-14 368.03493954221705,400.00000000000006 " stroke-opacity="0.25" stroke="green"/><polygon points="179.9733223948017,-5.684341886080802e-14 360.9832045017375,400.00000000000006 " stroke-opacity="0.25" stroke="green"/><polygon points="192.55281783687798,-5.684341886080802e-14 355.3504829150195,400.00000000000006 " stroke-opacity="0.25" stroke="green"/><polygon points="202.83236259981064,0.0 350.74761041075885,400.0 " stroke-opacity="0.25" stroke="green"/><polygon points="211.38988571057615,-5.684341886080802e-14 346.91580766661866,400.00000000000006 " stroke-opacity="0.25" stroke="green"/><polygon points="218.6246525218095,0.0 343.67629560668354,400.0 " stroke-opacity="0.25" stroke="green"/><polygon points="224.82135274519734,5.684341886080802e-14 340.9015986980978,399.99999999999994 " stroke-opacity="0.25" stroke="green"/><polygon points="230.18844846891332,0.0 338.49837385651654,400.0 " stroke-opacity="0.25" stroke="green"/><polygon points="234.88208656622783,5.684341886080802e-14 336.3967031851671,399.99999999999994 " stroke-opacity="0.25" stroke="green"/><polygon points="239.0215410010285,0.0 334.54317937258656,400.0 " stroke-opacity="0.25" stroke="green"/><polygon points="242.69949017353338,0.0 332.8963038047855,400.0 " stroke-opacity="0.25" stroke="green"/><polygon points="53.15329576279834,0.0 395.170856778504,400.0 " stroke-opacity="0.25" stroke="green"/><polygon points="100.26572575765499,0.0 378.3027854236675,400.0 " stroke-opacity="0.25" stroke="green"/><polygon points="132.5294302521402,0.0 366.75113186549294,400.0 " stroke-opacity="0.25" stroke="green"/><polygon points="156.00870010076403,0.0 358.34464552612803,400.0 " stroke-opacity="0.25" stroke="green"/><polygon points="173.861263504925,-5.684341886080802e-14 351.9527376283396,400.00000000000006 " stroke-opacity="0.25" stroke="green"/><polygon points="187.89332055315222,0.0 346.9287187108167,400.0 " stroke-opacity="0.25" stroke="green"/><polygon points="199.21272968923626,-5.684341886080802e-14 342.87593261969596,400.00000000000006 " stroke-opacity="0.25" stroke="green"/><polygon points="208.5367650721545,0.0 339.5375674754813,400.0 " stroke-opacity="0.25" stroke="green"/><polygon points="216.35030354431308,-5.684341886080802e-14 336.74001862273656,400.00000000000006 " stroke-opacity="0.25" stroke="green"/><polygon points="222.992893175895,-5.684341886080802e-14 334.3617147250464,400.00000000000006 " stroke-opacity="0.25" stroke="green"/><polygon points="228.7094058116288,0.0 332.314982194992,400.0 " stroke-opacity="0.25" stroke="green"/><polygon points="233.6808849679936,0.0 330.5350004543389,400.0 " stroke-opacity="0.25" stroke="green"/><polygon points="238.0440703906428,0.0 328.972811387639,400.0 " stroke-opacity="0.25" stroke="green"/><polygon points="241.90416891138617,0.0 327.59074688169636,400.0 " stroke-opacity="0.25" stroke="green"/><polygon points="245.3434485586827,-5.684341886080802e-14 326.3593518017532,400.00000000000006 " stroke-opacity="0.25" stroke="green"/><polygon points="80.37243250031901,-5.684341886080802e-14 364.1594345740094,400.00000000000006 " stroke-opacity="0.25" stroke="green"/><polygon points="119.67236414386613,0.0 353.8091389237092,400.0 " stroke-opacity="0.25" stroke="green"/><polygon points="147.2684405074501,0.0 346.5412497135697,400.0 " stroke-opacity="0.25" stroke="green"/><polygon points="167.71131234791437,0.0 341.15727679959275,400.0 " stroke-opacity="0.25" stroke="green"/><polygon points="183.4631518560845,0.0 337.00876587025095,400.0 " stroke-opacity="0.25" stroke="green"/><polygon points="195.9724457131758,0.0 333.71423368195804,400.0 " stroke-opacity="0.25" stroke="green"/><polygon points="206.1469848288455,0.0 331.0345982844238,400.0 " stroke-opacity="0.25" stroke="green"/><polygon points="214.58462078683746,0.0 328.81240544330313,400.0 " stroke-opacity="0.25" stroke="green"/><polygon points="221.6951383088736,0.0 326.9397314842938,400.0 " stroke-opacity="0.25" stroke="green"/><polygon points="227.7688141073527,0.0 325.34012717025803,400.0 " stroke-opacity="0.25" stroke="green"/><polygon points="233.0170224336365,-5.684341886080802e-14 323.95792354954705,400.00000000000006 " stroke-opacity="0.25" stroke="green"/><polygon points="237.59733810874576,-5.684341886080802e-14 322.75162065215085,400.00000000000006 " stroke-opacity="0.25" stroke="green"/><polygon points="241.6296289851441,0.0 321.68964927018317,400.0 " stroke-opacity="0.25" stroke="green"/><polygon points="245.2066981785445,0.0 320.74756814777606,400.0 " stroke-opacity="0.25" stroke="green"/><polygon points="248.40151454869815,-5.684341886080802e-14 319.90615971278356,400.00000000000006 " stroke-opacity="0.25" stroke="green"/><polygon points="104.30582339367976,0.0 337.31884718584564,400.0 " stroke-opacity="0.25" stroke="green"/><polygon points="137.50538593747635,0.0 331.9725456307456,400.0 " stroke-opacity="0.25" stroke="green"/><polygon points="161.28006214524285,0.0 328.1439834858709,400.0 " stroke-opacity="0.25" stroke="green"/><polygon points="179.14437785566676,0.0 325.2671980240913,400.0 " stroke-opacity="0.25" stroke="green"/><polygon points="193.0586332259231,0.0 323.0265117190857,400.0 " stroke-opacity="0.25" stroke="green"/><polygon points="204.2025276864978,0.0 321.23195131769955,400.0 " stroke-opacity="0.25" stroke="green"/><polygon points="213.32853011836443,0.0 319.76234276701547,400.0 " stroke-opacity="0.25" stroke="green"/><polygon points="220.93922527706926,0.0 318.5367521795281,400.0 " stroke-opacity="0.25" stroke="green"/><polygon points="227.3830909095405,0.0 317.49906233628724,400.0 " stroke-opacity="0.25" stroke="green"/><polygon points="232.90935929779783,-5.684341886080802e-14 316.60913804168047,400.00000000000006 " stroke-opacity="0.25" stroke="green"/><polygon points="237.70099994568838,-5.684341886080802e-14 315.8375147465391,400.00000000000006 " stroke-opacity="0.25" stroke="green"/><polygon points="241.8953685122793,0.0 315.1620733409288,400.0 " stroke-opacity="0.25" stroke="green"/><polygon points="245.5975871631013,5.684341886080802e-14 314.565885445257,399.99999999999994 " stroke-opacity="0.25" stroke="green"/><polygon points="248.88947594774731,0.0 314.03577514319045,400.0 " stroke-opacity="0.25" stroke="green"/><polygon points="251.83567041918786,0.0 313.5613338289861,400.0 " stroke-opacity="0.25" stroke="green"/><polygon points="125.89294802961871,0.0 313.50573782805236,400.0 " stroke-opacity="0.25" stroke="green"/><polygon points="154.18733318729238,-5.684341886080802e-14 312.16204633455993,400.00000000000006 " stroke-opacity="0.25" stroke="green"/><polygon points="174.7616924614763,0.0 311.18497645349623,400.0 " stroke-opacity="0.25" stroke="green"/><polygon points="190.3963049040816,5.684341886080802e-14 310.44249360306105,399.99999999999994 " stroke-opacity="0.25" stroke="green"/><polygon points="202.67949192431118,-5.684341886080802e-14 309.85916889676037,400.00000000000006 " stroke-opacity="0.25" stroke="green"/><polygon points="212.58455000232547,0.0 309.3887807894448,400.0 " stroke-opacity="0.25" stroke="green"/><polygon points="220.74116200176144,-5.684341886080802e-14 309.0014258390444,400.00000000000006 " stroke-opacity="0.25" stroke="green"/><polygon points="227.57473621141332,0.0 308.67690153909973,400.0 " stroke-opacity="0.25" stroke="green"/><polygon points="233.38302773621882,0.0 308.4010675928905,400.0 " stroke-opacity="0.25" stroke="green"/><polygon points="238.38067864114205,-5.684341886080802e-14 308.1637307159459,400.00000000000006 " stroke-opacity="0.25" stroke="green"/><polygon points="242.72632569785782,0.0 307.95735729764084,400.0 " stroke-opacity="0.25" stroke="green"/><polygon points="246.53974822849605,0.0 307.7762590554646,400.0 " stroke-opacity="0.25" stroke="green"/><polygon points="249.9130790591168,0.0 307.61606063035015,400.0 " stroke-opacity="0.25" stroke="green"/><polygon points="252.918345792076,0.0 307.4733414540101,400.0 " stroke-opacity="0.25" stroke="green"/><polygon points="255.6126712953146,0.0 307.34538877932823,400.0 " stroke-opacity="0.25" stroke="green"/><polygon points="145.8061382218587,-5.684341886080802e-14 291.9112263560678,400.00000000000006 " stroke-opacity="0.25" stroke="green"/><polygon points="170.04494333543948,0.0 293.9041187326168,400.0 " stroke-opacity="0.25" stroke="green"/><polygon points="187.8779137273242,0.0 295.3703292400521,400.0 " stroke-opacity="0.25" stroke="green"/><polygon points="201.5480601188656,0.0 296.49427616740076,400.0 " stroke-opacity="0.25" stroke="green"/><polygon points="212.36065299121705,0.0 297.3832776592261,400.0 " stroke-opacity="0.25" stroke="green"/><polygon points="221.1269037168684,0.0 298.10403077226954,400.0 " stroke-opacity="0.25" stroke="green"/><polygon points="228.3775151977074,0.0 298.70016941350093,400.0 " stroke-opacity="0.25" stroke="green"/><polygon points="234.47428059093448,0.0 299.2014398852439,400.0 " stroke-opacity="0.25" stroke="green"/><polygon points="239.6723301913517,0.0 299.6288187668782,400.0 " stroke-opacity="0.25" stroke="green"/><polygon points="244.15674073228118,0.0 299.9975228980619,400.0 " stroke-opacity="0.25" stroke="green"/><polygon points="248.06503499651754,0.0 300.3188592761552,400.0 " stroke-opacity="0.25" stroke="green"/><polygon points="251.50153319648422,-5.684341886080802e-14 300.60140501356454,400.00000000000006 " stroke-opacity="0.25" stroke="green"/><polygon points="254.54680285065342,0.0 300.8517842979348,400.0 " stroke-opacity="0.25" stroke="green"/><polygon points="257.2640550143781,0.0 301.0751942843955,400.0 " stroke-opacity="0.25" stroke="green"/><polygon points="259.70357925153246,0.0 301.27576973487044,400.0 " stroke-opacity="0.25" stroke="green"/><polygon points="164.55135060933296,0.0 271.9368664377181,400.0 " stroke-opacity="0.25" stroke="green"/><polygon points="185.34228684282274,0.0 276.8312780575883,400.0 " stroke-opacity="0.25" stroke="green"/><polygon points="200.77147487047645,5.684341886080802e-14 280.4634760653947,399.99999999999994 " stroke-opacity="0.25" stroke="green"/><polygon points="212.6761191991527,5.684341886080802e-14 283.26595830469086,399.99999999999994 " stroke-opacity="0.25" stroke="green"/><polygon points="222.14010755928084,0.0 285.4938836890954,400.0 " stroke-opacity="0.25" stroke="green"/><polygon points="229.8442187077347,0.0 287.3075149129278,400.0 " stroke-opacity="0.25" stroke="green"/><polygon points="236.23758107664088,0.0 288.8125816745684,400.0 " stroke-opacity="0.25" stroke="green"/><polygon points="241.62847841538124,0.0 290.08165730829364,400.0 " stroke-opacity="0.25" stroke="green"/><polygon points="246.23554636976564,-5.684341886080802e-14 291.16621101363137,400.00000000000006 " stroke-opacity="0.25" stroke="green"/><polygon points="250.21815078996218,0.0 292.1037592381388,400.0 " stroke-opacity="0.25" stroke="green"/><polygon points="253.69519722989386,0.0 292.92229363732656,400.0 " stroke-opacity="0.25" stroke="green"/><polygon points="256.7572048397701,0.0 293.64312339975777,400.0 " stroke-opacity="0.25" stroke="green"/><polygon points="259.47430015711313,0.0 294.28275707205376,400.0 " stroke-opacity="0.25" stroke="green"/><polygon points="261.9016536051413,-5.684341886080802e-14 294.8541823695074,400.00000000000006 " stroke-opacity="0.25" stroke="green"/><polygon points="264.0832648383448,5.684341886080802e-14 295.36775728743874,399.99999999999994 " stroke-opacity="0.25" stroke="green"/><polygon points="182.52991547855945,0.0 253.11926801410345,400.0 " stroke-opacity="0.25" stroke="green"/><polygon points="200.3030603080727,0.0 260.64832106448387,400.0 " stroke-opacity="0.25" stroke="green"/><polygon points="213.57139333893056,0.0 266.26904740400926,400.0 " stroke-opacity="0.25" stroke="green"/><polygon points="223.85497234253396,5.684341886080802e-14 270.62537334455624,399.99999999999994 " stroke-opacity="0.25" stroke="green"/><polygon points="232.05911521108075,0.0 274.10080931735143,400.0 " stroke-opacity="0.25" stroke="green"/><polygon points="238.7566305460696,0.0 276.93800829066606,400.0 " stroke-opacity="0.25" stroke="green"/><polygon points="244.327636267791,0.0 279.29799567754446,400.0 " stroke-opacity="0.25" stroke="green"/><polygon points="249.03429958799347,0.0 281.29183065542856,400.0 " stroke-opacity="0.25" stroke="green"/><polygon points="253.06329361244516,0.0 282.9985916164595,400.0 " stroke-opacity="0.25" stroke="green"/><polygon points="256.55114669096673,-5.684341886080802e-14 284.4761146497786,400.00000000000006 " stroke-opacity="0.25" stroke="green"/><polygon points="259.6000203995287,-5.684341886080802e-14 285.76767740447775,400.00000000000006 " stroke-opacity="0.25" stroke="green"/><polygon points="262.28788280024855,-5.684341886080802e-14 286.9063086822434,400.00000000000006 " stroke-opacity="0.25" stroke="green"/><polygon points="264.67526990473755,-5.684341886080802e-14 287.91765272596285,400.00000000000006 " stroke-opacity="0.25" stroke="green"/><polygon points="266.8098995887357,0.0 288.8219237645385,400.0 " stroke-opacity="0.25" stroke="green"/><polygon points="268.7298937289339,0.0 289.6352709732985,400.0 " stroke-opacity="0.25" stroke="green"/><polygon points="200.0789498684242,5.684341886080802e-14 235.08156092912074,399.99999999999994 " stroke-opacity="0.25" stroke="green"/><polygon points="215.12655155615067,-5.684341886080802e-14 245.10914662757472,400.00000000000006 " stroke-opacity="0.25" stroke="green"/><polygon points="226.3993285189395,0.0 252.62122326275855,400.0 " stroke-opacity="0.25" stroke="green"/><polygon points="235.15939677822703,0.0 258.45885353881516,400.0 " stroke-opacity="0.25" stroke="green"/><polygon points="242.16263934818414,0.0 263.12575106140076,400.0 " stroke-opacity="0.25" stroke="green"/><polygon points="247.88938655307095,0.0 266.9420036152694,400.0 " stroke-opacity="0.25" stroke="green"/><polygon points="252.65949231467607,-5.684341886080802e-14 270.1207589616579,400.00000000000006 " stroke-opacity="0.25" stroke="green"/><polygon points="256.6941861654978,5.684341886080802e-14 272.8094424605798,399.99999999999994 " stroke-opacity="0.25" stroke="green"/><polygon points="260.15136529260116,0.0 275.11327536972783,400.0 " stroke-opacity="0.25" stroke="green"/><polygon points="263.1467439389732,0.0 277.1093686142954,400.0 " stroke-opacity="0.25" stroke="green"/><polygon points="265.76705817890434,5.684341886080802e-14 278.8555223298886,399.99999999999994 " stroke-opacity="0.25" stroke="green"/><polygon points="268.0786026632471,-5.684341886080802e-14 280.39591467237335,400.00000000000006 " stroke-opacity="0.25" stroke="green"/><polygon points="270.13291744621324,0.0 281.7648914678315,400.0 " stroke-opacity="0.25" stroke="green"/><polygon points="271.97067637949795,-5.684341886080802e-14 282.9895574032438,400.00000000000006 " stroke-opacity="0.25" stroke="green"/><polygon points="273.6244073883979,5.684341886080802e-14 284.091588793898,399.99999999999994 " stroke-opacity="0.25" stroke="green"/></svg>
