<?xml version="1.0" encoding="UTF-8"?>
<!DOCTYPE svg PUBLIC "-//W3C//DTD SVG 1.1//EN"
    "http://www.w3.org/Graphics/SVG/1.1/DTD/svg11.dtd"><svg width="400" height="400" stroke="black" fill="none" fill-opacity="0.75" font-style="italic" font-family="CMU Serif, sans-serif" xmlns="http://www.w3.org/2000/svg" xmlns:xlink="http://www.w3.org/1999/xlink" version="1.1"><filter id="blur"><feGaussianBlur stdDeviation="2"/></filter><rect width="100%" height="100%" fill="white" stroke="none" fill-opacity="1"/><polygon points="228.02920765720324,0.0 207.25864407550657,400.0 " stroke-opacity="0.25" stroke="green"/><polygon points="248.33400962498857,0.0 212.51692080991586,400.0 " stroke-opacity="0.25" stroke="green"/><polygon points="263.72079368845255,-5.684341886080802e-14 216.50159245491182,400.00000000000006 " stroke-opacity="0.25" stroke="green"/><polygon points="275.78333297672657,0.0 219.62539389843545,400.0 " stroke-opacity="0.25" stroke="green"/><polygon points="285.49388368909536,0.0 222.14010755928086,400.0 " stroke-opacity="0.25" stroke="green"/><polygon points="293.4792354427023,0.0 224.20805135940677,400.0 " stroke-opacity="0.25" stroke="green"/><polygon points="300.1616339344309,0.0 225.93857306431462,400.0 " stroke-opacity="0.25" stroke="green"/><polygon points="305.8359247592817,0.0 227.40802799797626,400.0 " stroke-opacity="0.25" stroke="green"/><polygon points="310.7142322775163,0.0 228.671349401806,400.0 " stroke-opacity="0.25" stroke="green"/><polygon points="314.95306833456283,-5.684341886080802e-14 229.76906870264457,400.00000000000006 " stroke-opacity="0.25" stroke="green"/><polygon points="318.6704361087614,0.0 230.7317448474956,400.0 " stroke-opacity="0.25" stroke="green"/><polygon points="321.9569873150609,0.0 231.58285365278942,400.0 " stroke-opacity="0.25" stroke="green"/><polygon points="324.8835127558484,-5.684341886080802e-14 232.34072761099716,400.00000000000006 " stroke-opacity="0.25" stroke="green"/><polygon points="327.5060990410217,0.0 233.0198913117408,400.0 " stroke-opacity="0.25" stroke="green"/><polygon points="329.8697579424486,-5.684341886080802e-14 233.6320013253805,400.00000000000006 " stroke-opacity="0.25" stroke="green"/><polygon points="245.80471999215058,0.0 189.64629973842122,400.0 " stroke-opacity="0.25" stroke="green"/><polygon points="263.73133758003166,-5.684341886080802e-14 197.3620373778357,400.00000000000006 " stroke-opacity="0.25" stroke="green"/><polygon points="277.30075918370795,0.0 203.20240835129516,400.0 " stroke-opacity="0.25" stroke="green"/><polygon points="287.92942001392674,-5.684341886080802e-14 207.77705596801732,400.00000000000006 " stroke-opacity="0.25" stroke="green"/><polygon points="296.47983879921503,0.0 211.45721413120614,400.0 " stroke-opacity="0.25" stroke="green"/><polygon points="303.5072740349554,0.0 214.48186985843074,400.0 " stroke-opacity="0.25" stroke="green"/><polygon points="309.3853567086718,0.0 217.01183645758687,400.0 " stroke-opacity="0.25" stroke="green"/><polygon points="314.3747403195112,0.0 219.15930096029686,400.0 " stroke-opacity="0.25" stroke="green"/><polygon points="318.66280197142606,-5.684341886080802e-14 221.0049117413388,400.00000000000006 " stroke-opacity="0.25" stroke="green"/><polygon points="322.38770132256684,0.0 222.60813365343319,400.0 " stroke-opacity="0.25" stroke="green"/><polygon points="325.6535444674581,0.0 224.01377466484718,400.0 " stroke-opacity="0.25" stroke="green"/><polygon points="328.5402668466662,-5.684341886080802e-14 225.2562395306595,400.00000000000006 " stroke-opacity="0.25" stroke="green"/><polygon points="331.11026315034167,0.0 226.36238334815414,400.0 " stroke-opacity="0.25" stroke="green"/><polygon points="333.4129484489272,0.0 227.35347469837257,400.0 " stroke-opacity="0.25" stroke="green"/><polygon points="335.48796644207243,5.684341886080802e-14 228.24657649817874,399.99999999999994 " stroke-opacity="0.25" stroke="green"/><polygon points="264.14383258640294,-5.684341886080802e-14 171.80402543604723,400.00000000000006 " stroke-opacity="0.25" stroke="green"/><polygon points="279.71888175924727,-5.684341886080802e-14 182.11082682086084,400.00000000000006 " stroke-opacity="0.25" stroke="green"/><polygon points="291.4682778217146,-5.684341886080802e-14 189.8859991662876,400.00000000000006 " stroke-opacity="0.25" stroke="green"/><polygon points="300.6473723626896,5.684341886080802e-14 195.96027240140575,399.99999999999994 " stroke-opacity="0.25" stroke="green"/><polygon points="308.01642770670765,0.0 200.83675073425857,400.0 " stroke-opacity="0.25" stroke="green"/><polygon points="314.0627809439502,0.0 204.8379298783565,400.0 " stroke-opacity="0.25" stroke="green"/><polygon points="319.11322889702285,5.684341886080802e-14 208.1800678953212,399.99999999999994 " stroke-opacity="0.25" stroke="green"/><polygon points="323.39510522513837,0.0 211.01360301796907,400.0 " stroke-opacity="0.25" stroke="green"/><polygon points="327.07144524010005,0.0 213.4464239957235,400.0 " stroke-opacity="0.25" stroke="green"/><polygon points="330.2622170968342,0.0 215.5579198521187,400.0 " stroke-opacity="0.25" stroke="green"/><polygon points="333.0576615343267,0.0 217.40780746915124,400.0 " stroke-opacity="0.25" stroke="green"/><polygon points="335.5269625898762,0.0 219.04186943944873,400.0 " stroke-opacity="0.25" stroke="green"/><polygon points="337.72405076493993,5.684341886080802e-14 220.4957943159613,399.99999999999994 " stroke-opacity="0.25" stroke="green"/><polygon points="339.6915872473103,0.0 221.7978131742082,400.0 " stroke-opacity="0.25" stroke="green"/><polygon points="341.4637613183185,-5.684341886080802e-14 222.9705507987574,400.00000000000006 " stroke-opacity="0.25" stroke="green"/><polygon points="283.38452817075097,-5.684341886080802e-14 153.41664967758842,400.00000000000006 " stroke-opacity="0.25" stroke="green"/><polygon points="296.5278059737293,0.0 166.55992748056676,400.0 " stroke-opacity="0.25" stroke="green"/><polygon points="306.385264325963,5.684341886080802e-14 176.4173858328005,399.99999999999994 " stroke-opacity="0.25" stroke="green"/><polygon points="314.0521763777004,5.684341886080802e-14 184.08429788453788,399.99999999999994 " stroke-opacity="0.25" stroke="green"/><polygon points="320.1857060190903,-5.684341886080802e-14 190.21782752592776,400.00000000000006 " stroke-opacity="0.25" stroke="green"/><polygon points="325.20404845295474,0.0 195.23616995979222,400.0 " stroke-opacity="0.25" stroke="green"/><polygon points="329.38600048117513,0.0 199.41812198801262,400.0 " stroke-opacity="0.25" stroke="green"/><polygon points="332.9245752742847,0.0 202.95669678112216,400.0 " stroke-opacity="0.25" stroke="green"/><polygon points="335.9576393826643,0.0 205.98976088950178,400.0 " stroke-opacity="0.25" stroke="green"/><polygon points="338.58629494326,-5.684341886080802e-14 208.61841645009744,400.00000000000006 " stroke-opacity="0.25" stroke="green"/><polygon points="340.8863685587812,0.0 210.91849006561864,400.0 " stroke-opacity="0.25" stroke="green"/><polygon points="342.9158452783587,0.0 212.9479667851962,400.0 " stroke-opacity="0.25" stroke="green"/><polygon points="344.7198245846498,0.0 214.75194609148733,400.0 " stroke-opacity="0.25" stroke="green"/><polygon points="346.3339113323841,-5.684341886080802e-14 216.36603283922153,400.00000000000006 " stroke-opacity="0.25" stroke="green"/><polygon points="347.7865894053448,5.684341886080802e-14 217.8187109121823,399.99999999999994 " stroke-opacity="0.25" stroke="green"/><polygon points="303.9250788339052,0.0 134.12678321375395,400.0 " stroke-opacity="0.25" stroke="green"/><polygon points="314.42994017105144,0.0 150.48665423847672,400.0 " stroke-opacity="0.25" stroke="green"/><polygon points="322.2422113680075,0.0 162.65318791183577,400.0 " stroke-opacity="0.25" stroke="green"/><polygon points="328.27952966799876,0.0 172.05547753309864,400.0 " stroke-opacity="0.25" stroke="green"/><polygon points="333.0850932041508,-5.684341886080802e-14 179.53947918998443,400.00000000000006 " stroke-opacity="0.25" stroke="green"/><polygon points="337.00096762523873,0.0 185.63791289814546,400.0 " stroke-opacity="0.25" stroke="green"/><polygon points="340.2532915591578,0.0 190.70295834537922,400.0 " stroke-opacity="0.25" stroke="green"/><polygon points="342.9975507275826,0.0 194.97676307377557,400.0 " stroke-opacity="0.25" stroke="green"/><polygon points="345.344171645658,0.0 198.63130113301463,400.0 " stroke-opacity="0.25" stroke="green"/><polygon points="347.37374145499246,-5.684341886080802e-14 201.7920758687051,400.00000000000006 " stroke-opacity="0.25" stroke="green"/><polygon points="349.1464490946318,0.0 204.55282324254136,400.0 " stroke-opacity="0.25" stroke="green"/><polygon points="350.70815518567105,0.0 206.98496483945905,400.0 " stroke-opacity="0.25" stroke="green"/><polygon points="352.09441620830256,0.0 209.14387496773045,400.0 " stroke-opacity="0.25" stroke="green"/><polygon points="353.3332245577935,0.0 211.07314791780334,400.0 " stroke-opacity="0.25" stroke="green"/><polygon points="354.4469183975665,0.0 212.8075722947616,400.0 " stroke-opacity="0.25" stroke="green"/><polygon points="326.2602207305312,0.0 113.50359330842879,400.0 " stroke-opacity="0.25" stroke="green"/><polygon points="333.75717091444045,0.0 133.63432821404228,400.0 " stroke-opacity="0.25" stroke="green"/><polygon points="339.2689536317298,0.0 148.43451149086863,400.0 " stroke-opacity="0.25" stroke="green"/><polygon points="343.49187740338886,0.0 159.77386374591475,400.0 " stroke-opacity="0.25" stroke="green"/><polygon points="346.8306937219995,5.684341886080802e-14 168.73921959858512,399.99999999999994 " stroke-opacity="0.25" stroke="green"/><polygon points="349.53673691516815,0.0 176.00545944658816,400.0 " stroke-opacity="0.25" stroke="green"/><polygon points="351.774321457883,0.0 182.01379885838938,400.0 " stroke-opacity="0.25" stroke="green"/><polygon points="353.65540304769195,0.0 187.06486014215648,400.0 " stroke-opacity="0.25" stroke="green"/><polygon points="355.2588949600133,5.684341886080802e-14 191.37054042792354,399.99999999999994 " stroke-opacity="0.25" stroke="green"/><polygon points="356.6420205189759,0.0 195.08449520761727,400.0 " stroke-opacity="0.25" stroke="green"/><polygon points="357.84728602872497,0.0 198.32086197976315,400.0 " stroke-opacity="0.25" stroke="green"/><polygon points="358.90692620661014,0.0 201.16619708177922,400.0 " stroke-opacity="0.25" stroke="green"/><polygon points="359.84583006687626,0.0 203.68733224330697,400.0 " stroke-opacity="0.25" stroke="green"/><polygon points="360.68352057812285,0.0 205.93669034242393,400.0 " stroke-opacity="0.25" stroke="green"/><polygon points="361.4355268453868,0.0 207.95596997511248,400.0 " stroke-opacity="0.25" stroke="green"/><polygon points="351.03428374761097,0.0 90.99815278310943,400.0 " stroke-opacity="0.25" stroke="green"/><polygon points="354.92876634520803,-5.684341886080802e-14 115.69272627781746,400.00000000000006 " stroke-opacity="0.25" stroke="green"/><polygon points="357.7493908991808,0.0 133.57805984999408,400.0 " stroke-opacity="0.25" stroke="green"/><polygon points="359.8864972820902,0.0 147.12926448789105,400.0 " stroke-opacity="0.25" stroke="green"/><polygon points="361.56168910537235,5.684341886080802e-14 157.75150930760083,399.99999999999994 " stroke-opacity="0.25" stroke="green"/><polygon points="362.91011796804526,0.0 166.30177877656894,400.0 " stroke-opacity="0.25" stroke="green"/><polygon points="364.0188954627371,0.0 173.33243988385985,400.0 " stroke-opacity="0.25" stroke="green"/><polygon points="364.9466961343071,0.0 179.21554278606828,400.0 " stroke-opacity="0.25" stroke="green"/><polygon points="365.7344858065185,0.0 184.21084818833128,400.0 " stroke-opacity="0.25" stroke="green"/><polygon points="366.41173374981605,0.0 188.50521815681512,400.0 " stroke-opacity="0.25" stroke="green"/><polygon points="367.0001812389361,-5.684341886080802e-14 192.236512212877,400.00000000000006 " stroke-opacity="0.25" stroke="green"/><polygon points="367.5162189216742,0.0 195.5086620204733,400.0 " stroke-opacity="0.25" stroke="green"/><polygon points="367.97243743273725,-5.684341886080802e-14 198.40150369295768,400.00000000000006 " stroke-opacity="0.25" stroke="green"/><polygon points="368.3786683076211,0.0 200.97737813692862,400.0 " stroke-opacity="0.25" stroke="green"/><polygon points="368.7427005106335,0.0 203.28567449374773,400.0 " stroke-opacity="0.25" stroke="green"/><polygon points="379.1243405377394,0.0 65.87456042502549,400.0 " stroke-opacity="0.25" stroke="green"/><polygon points="378.4917176404758,0.0 96.27015032397381,400.0 " stroke-opacity="0.25" stroke="green"/><polygon points="378.0422793579894,0.0 117.86428132750765,400.0 " stroke-opacity="0.25" stroke="green"/><polygon points="377.70652300059174,0.0 133.9963445037997,400.0 " stroke-opacity="0.25" stroke="green"/><polygon points="377.44615869104985,0.0 146.50605101519957,400.0 " stroke-opacity="0.25" stroke="green"/><polygon points="377.2383563665601,0.0 156.49031535744922,400.0 " stroke-opacity="0.25" stroke="green"/><polygon points="377.06865863542953,0.0 164.64377085919858,400.0 " stroke-opacity="0.25" stroke="green"/><polygon points="376.9274648995246,-5.684341886080802e-14 171.42769681482216,400.00000000000006 " stroke-opacity="0.25" stroke="green"/><polygon points="376.8081498888649,0.0 177.16041712654098,400.0 " stroke-opacity="0.25" stroke="green"/><polygon points="376.7059939340656,0.0 182.06869743262035,400.0 " stroke-opacity="0.25" stroke="green"/><polygon points="376.61754380090815,0.0 186.31845504586735,400.0 " stroke-opacity="0.25" stroke="green"/><polygon points="376.54021461412844,0.0 190.0338852946672,400.0 " stroke-opacity="0.25" stroke="green"/><polygon points="376.47203305199474,0.0 193.3098002358571,400.0 " stroke-opacity="0.25" stroke="green"/><polygon points="376.4114665875378,0.0 196.21983308991014,400.0 " stroke-opacity="0.25" stroke="green"/><polygon points="376.35730691900517,0.0 198.8220390500509,400.0 " stroke-opacity="0.25" stroke="green"/><polygon points="400.00000000000006,12.573806166280974 37.096686076065026,399.99999999999994 " stroke-opacity="0.25" stroke="green"/><polygon points="400.0,6.2759410242993 74.85120045944922,400.0 " stroke-opacity="0.25" stroke="green"/><polygon points="400.0,0.8164310948058073 101.02071577033567,400.0 " stroke-opacity="0.25" stroke="green"/><polygon points="397.2562615183341,-5.684341886080802e-14 120.22824257005,400.00000000000006 " stroke-opacity="0.25" stroke="green"/><polygon points="394.6888477015925,0.0 134.9258104225883,400.0 " stroke-opacity="0.25" stroke="green"/><polygon points="392.6609296346237,0.0 146.5349492354699,400.0 " stroke-opacity="0.25" stroke="green"/><polygon points="391.018626945603,0.0 155.9365716186208,400.0 " stroke-opacity="0.25" stroke="green"/><polygon points="389.6615000242057,-5.684341886080802e-14 163.70566006150366,400.00000000000006 " stroke-opacity="0.25" stroke="green"/><polygon points="388.5212041609485,0.0 170.23346470012683,400.0 " stroke-opacity="0.25" stroke="green"/><polygon points="387.5496182238652,-5.684341886080802e-14 175.79546259144357,400.00000000000006 " stroke-opacity="0.25" stroke="green"/><polygon points="386.7118795746706,0.0 180.59123044115387,400.0 " stroke-opacity="0.25" stroke="green"/><polygon points="385.982112048904,0.0 184.76890045936167,400.0 " stroke-opacity="0.25" stroke="green"/><polygon points="385.34070572117867,-5.684341886080802e-14 188.44073277611503,400.00000000000006 " stroke-opacity="0.25" stroke="green"/><polygon points="384.7725283731923,0.0 191.6933541766276,400.0 " stroke-opacity="0.25" stroke="green"/><polygon points="384.2657164677176,0.0 194.59467936254666,400.0 " stroke-opacity="0.25" stroke="green"/><polygon points="400.00000000000006,45.433901004579496 3.1301327016635128,400.0 " stroke-opacity="0.25" stroke="green"/><polygon points="400.00000000000006,37.403277674697875 50.72961646630583,400.00000000000006 " stroke-opacity="0.25" stroke="green"/><polygon points="400.0,30.37085677001835 82.69752206341437,400.00000000000006 " stroke-opacity="0.25" stroke="green"/><polygon points="400.0,24.161414329312635 105.64789892687368,400.00000000000006 " stroke-opacity="0.25" stroke="green"/><polygon points="400.0,18.63847096075648 122.92463060783814,400.0 " stroke-opacity="0.25" stroke="green"/><polygon points="400.0,13.694144061810533 136.40017225872091,400.0 " stroke-opacity="0.25" stroke="green"/><polygon points="400.00000000000006,9.24203070936909 147.2046901853243,400.00000000000006 " stroke-opacity="0.25" stroke="green"/><polygon points="400.0,5.212115315912115 156.06072256456366,400.0 " stroke-opacity="0.25" stroke="green"/><polygon points="400.0,1.547060437672343 163.45175777330124,400.0 " stroke-opacity="0.25" stroke="green"/><polygon points="398.96804605746837,0.0 169.71354328696256,400.0 " stroke-opacity="0.25" stroke="green"/><polygon points="397.2944982322819,0.0 175.08651262045584,400.0 " stroke-opacity="0.25" stroke="green"/><polygon points="395.84275676599333,0.0 179.7473668016981,400.0 " stroke-opacity="0.25" stroke="green"/><polygon points="394.57146603097283,5.684341886080802e-14 183.82887916150074,399.99999999999994 " stroke-opacity="0.25" stroke="green"/><polygon points="393.44894979488413,0.0 187.4327470773644,400.0 " stroke-opacity="0.25" stroke="green"/><polygon points="392.45053590162354,0.0 190.63818115572738,400.0 " stroke-opacity="0.25" stroke="green"/><polygon points="5.684341886080802e-14,371.4133687119268 399.99999999999994,73.85360282378726 " stroke-opacity="0.25" stroke="green"/><polygon points="400.0,64.51075349436363 22.895914811241568,400.0 " stroke-opacity="0.25" stroke="green"/><polygon points="399.99999999999994,56.26624978593759 62.429987751325,400.0 " stroke-opacity="0.25" stroke="green"/><polygon points="400.00000000000006,48.93716199726592 90.03582801173937,400.00000000000006 " stroke-opacity="0.25" stroke="green"/><polygon points="400.0,42.3790464504514 110.40426187960229,400.0 " stroke-opacity="0.25" stroke="green"/><polygon points="400.0,36.476330035816375 126.0515816121695,400.0 " stroke-opacity="0.25" stroke="green"/><polygon points="400.00000000000006,31.135440384203577 138.4487446361299,400.0 " stroke-opacity="0.25" stroke="green"/><polygon points="400.0,26.279808557452043 148.5131266318065,400.0 " stroke-opacity="0.25" stroke="green"/><polygon points="400.0,21.846174671882267 156.84654636048117,400.00000000000006 " stroke-opacity="0.25" stroke="green"/><polygon points="400.0,17.781816631839888 163.86020252625102,400.0 " stroke-opacity="0.25" stroke="green"/><polygon points="400.00000000000006,14.042443632533917 169.84460732755784,400.0 " stroke-opacity="0.25" stroke="green"/><polygon points="400.0,10.590575542412665 175.01083649043807,400.0 " stroke-opacity="0.25" stroke="green"/><polygon points="400.00000000000006,7.3942822549986715 179.51594299400188,400.0 " stroke-opacity="0.25" stroke="green"/><polygon points="400.0,4.42619305824951 183.47920094136143,399.99999999999994 " stroke-opacity="0.25" stroke="green"/><polygon points="400.00000000000006,1.6627108730726832 186.99282074884846,400.0 " stroke-opacity="0.25" stroke="green"/><polygon points="0.0,343.9378211486469 400.0,99.12369445096923 " stroke-opacity="0.25" stroke="green"/><polygon points="-5.684341886080802e-14,392.2879200058086 400.00000000000006,88.70308161738565 " stroke-opacity="0.25" stroke="green"/><polygon points="400.0,79.45454390616908 39.57862205296763,400.0 " stroke-opacity="0.25" stroke="green"/><polygon points="400.0,71.19086358396743 73.11227058472711,400.00000000000006 " stroke-opacity="0.25" stroke="green"/><polygon points="399.99999999999994,63.76268009922484 97.25055731747554,400.0 " stroke-opacity="0.25" stroke="green"/><polygon points="399.99999999999994,57.049381686372215 115.45685213583923,400.00000000000006 " stroke-opacity="0.25" stroke="green"/><polygon points="400.00000000000006,50.95250599993085 129.67855179302865,400.0 " stroke-opacity="0.25" stroke="green"/><polygon points="400.0,45.390878835971336 141.09472349468322,400.0 " stroke-opacity="0.25" stroke="green"/><polygon points="400.0,40.29697934057566 150.461007942447,400.0 " stroke-opacity="0.25" stroke="green"/><polygon points="400.00000000000006,35.61418526068363 158.28403629148707,400.0 " stroke-opacity="0.25" stroke="green"/><polygon points="400.0,31.29465929457683 164.9161946055405,400.0 " stroke-opacity="0.25" stroke="green"/><polygon points="400.0,27.29770897478042 170.6101723681536,400.0 " stroke-opacity="0.25" stroke="green"/><polygon points="400.0,23.5885007690992 175.55189098511306,400.0 " stroke-opacity="0.25" stroke="green"/><polygon points="400.00000000000006,20.13704224969092 179.8811899495978,400.00000000000006 " stroke-opacity="0.25" stroke="green"/><polygon points="400.0,16.917369322008057 183.70527094169836,400.0 " stroke-opacity="0.25" stroke="green"/><polygon points="0.0,319.3113259956542 400.0,122.15541522980409 " stroke-opacity="0.25" stroke="green"/><polygon points="-5.684341886080802e-14,367.39002609243914 400.00000000000006,110.77398946683054 " stroke-opacity="0.25" stroke="green"/><polygon points="400.00000000000006,100.63045441934963 13.228927738784193,400.0 " stroke-opacity="0.25" stroke="green"/><polygon points="400.0,91.5332693331521 54.51021516529207,400.00000000000006 " stroke-opacity="0.25" stroke="green"/><polygon points="400.0,83.3284718001583 83.3284718001583,400.0 " stroke-opacity="0.25" stroke="green"/><polygon points="400.0,75.89089301644223 104.58744339042647,400.0 " stroke-opacity="0.25" stroke="green"/><polygon points="400.0,69.11772731346014 120.91656888137854,400.00000000000006 " stroke-opacity="0.25" stroke="green"/><polygon points="400.0,62.92375134395644 133.85248778342026,400.0 " stroke-opacity="0.25" stroke="green"/><polygon points="400.00000000000006,57.23771943620221 144.3533181642393,400.00000000000006 " stroke-opacity="0.25" stroke="green"/><polygon points="400.0,51.9996108278128 153.0474916703571,399.99999999999994 " stroke-opacity="0.25" stroke="green"/><polygon points="400.00000000000006,47.15850280284164 160.36432655947422,400.00000000000006 " stroke-opacity="0.25" stroke="green"/><polygon points="400.0,42.670909762233265 166.6070989873405,400.0 " stroke-opacity="0.25" stroke="green"/><polygon points="400.0,38.49947333804954 171.99613550773464,400.0 " stroke-opacity="0.25" stroke="green"/><polygon points="400.00000000000006,34.6119199366791 176.6953576272159,400.0 " stroke-opacity="0.25" stroke="green"/><polygon points="400.0,30.980224108516808 180.82924613881423,400.0 " stroke-opacity="0.25" stroke="green"/><polygon points="0.0,296.7589808108369 400.0,143.62753741530975 " stroke-opacity="0.25" stroke="green"/><polygon points="-5.684341886080802e-14,344.9205555130027 400.00000000000006,131.32148183724468 " stroke-opacity="0.25" stroke="green"/><polygon points="0.0,387.96584116013025 400.0,120.32272025556784 " stroke-opacity="0.25" stroke="green"/><polygon points="400.00000000000006,110.43344516857123 33.733066978950575,400.0 " stroke-opacity="0.25" stroke="green"/><polygon points="400.00000000000006,101.49384010063625 68.47532306216252,400.0 " stroke-opacity="0.25" stroke="green"/><polygon points="400.0,93.37337674734908 93.42144785677391,400.0 " stroke-opacity="0.25" stroke="green"/><polygon points="400.0,85.96439966067237 112.2027510006008,400.00000000000006 " stroke-opacity="0.25" stroke="green"/><polygon points="400.00000000000006,79.17732642392434 126.85314321063004,400.0 " stroke-opacity="0.25" stroke="green"/><polygon points="399.99999999999994,72.9370078230436 138.60047185596224,400.0 " stroke-opacity="0.25" stroke="green"/><polygon points="400.00000000000006,67.17993361257334 148.2298398284623,400.0 " stroke-opacity="0.25" stroke="green"/><polygon points="400.0,61.852063232392084 156.26666285307385,400.0 " stroke-opacity="0.25" stroke="green"/><polygon points="400.0,56.90712426482517 163.07583929130374,400.0 " stroke-opacity="0.25" stroke="green"/><polygon points="400.0,52.30526505077751 168.9186992367115,400.0 " stroke-opacity="0.25" stroke="green"/><polygon points="400.0,48.01197834781058 173.9873144203712,400.0 " stroke-opacity="0.25" stroke="green"/><polygon points="400.00000000000006,43.99723448319793 178.42601629934776,400.0 " stroke-opacity="0.25" stroke="green"/><polygon points="0.0,275.68497482833686 400.0,164.0755044756149 " stroke-opacity="0.25" stroke="green"/><polygon points="0.0,324.3060971537411 400.0,150.81942329573388 " stroke-opacity="0.25" stroke="green"/><polygon points="0.0,367.83378971786067 400.0,138.95201673236483 " stroke-opacity="0.25" stroke="green"/><polygon points="400.0,128.26593431869009 10.085397009517237,400.0 " stroke-opacity="0.25" stroke="green"/><polygon points="399.99999999999994,118.59314919751644 52.49148011452968,400.0 " stroke-opacity="0.25" stroke="green"/><polygon points="400.00000000000006,109.79605803537333 81.94822881432987,399.99999999999994 " stroke-opacity="0.25" stroke="green"/><polygon points="400.0,101.76089347791843 103.6013884324673,400.00000000000006 " stroke-opacity="0.25" stroke="green"/><polygon points="400.00000000000006,94.3927772228093 120.18920815369391,399.99999999999994 " stroke-opacity="0.25" stroke="green"/><polygon points="399.99999999999994,87.61195601601398 133.30297110108327,400.0 " stroke-opacity="0.25" stroke="green"/><polygon points="400.00000000000006,81.35090321150587 143.93060391909802,400.0 " stroke-opacity="0.25" stroke="green"/><polygon points="400.0,75.55206224860771 152.71788048776773,400.00000000000006 " stroke-opacity="0.25" stroke="green"/><polygon points="400.0,70.16607209143814 160.10474277635137,399.99999999999994 " stroke-opacity="0.25" stroke="green"/><polygon points="400.0,65.15035866149438 166.40125616404958,400.0 " stroke-opacity="0.25" stroke="green"/><polygon points="400.0,60.46800712521622 171.83224198580655,400.00000000000006 " stroke-opacity="0.25" stroke="green"/><polygon points="400.00000000000006,56.08685180471352 176.56468800607396,400.0 " stroke-opacity="0.25" stroke="green"/><polygon points="0.0,255.60564292256277 400.0,183.94970229906693 " stroke-opacity="0.25" stroke="green"/><polygon points="-5.684341886080802e-14,305.09416776409364 400.00000000000006,169.66508090564554 " stroke-opacity="0.25" stroke="green"/><polygon points="0.0,349.42235393260796 400.0,156.869966108792 " stroke-opacity="0.25" stroke="green"/><polygon points="0.0,389.35733499004544 400.0,145.34292854633424 " stroke-opacity="0.25" stroke="green"/><polygon points="400.0,134.9043567614499 35.12714945078332,400.00000000000006 " stroke-opacity="0.25" stroke="green"/><polygon points="400.0,125.40703040723342 70.17589025872559,400.00000000000006 " stroke-opacity="0.25" stroke="green"/><polygon points="400.0,116.72913348332813 95.21070512154147,400.00000000000006 " stroke-opacity="0.25" stroke="green"/><polygon points="400.0,108.76900123636946 113.98681626865337,400.00000000000006 " stroke-opacity="0.25" stroke="green"/><polygon points="400.00000000000006,101.4411187749596 128.59045827196263,400.00000000000006 " stroke-opacity="0.25" stroke="green"/><polygon points="400.00000000000006,94.67303672048864 140.27337187461006,400.00000000000006 " stroke-opacity="0.25" stroke="green"/><polygon points="400.0,88.4029677212248 149.8321193676852,400.00000000000006 " stroke-opacity="0.25" stroke="green"/><polygon points="400.0,82.57789470315176 157.7977422785812,400.00000000000006 " stroke-opacity="0.25" stroke="green"/><polygon points="400.0,77.15206809828233 164.537884741647,400.00000000000006 " stroke-opacity="0.25" stroke="green"/><polygon points="399.99999999999994,72.08580183137427 170.31514970998916,400.00000000000006 " stroke-opacity="0.25" stroke="green"/><polygon points="400.0,67.34450099365577 175.32211268255233,400.00000000000006 " stroke-opacity="0.25" stroke="green"/><polygon points="0.0,236.1030529195043 400.0,203.65742638444746 " stroke-opacity="0.25" stroke="green"/><polygon points="0.0,286.91202475009203 400.0,188.21349569938295 " stroke-opacity="0.25" stroke="green"/><polygon points="-5.684341886080802e-14,332.39837306059354 400.00000000000006,174.387433389632 " stroke-opacity="0.25" stroke="green"/><polygon points="0.0,373.35684736141354 400.0,161.93766683704354 " stroke-opacity="0.25" stroke="green"/><polygon points="400.0,150.66843719701575 16.063062066549236,400.00000000000006 " stroke-opacity="0.25" stroke="green"/><polygon points="400.0,140.41943039819415 58.14326731993407,400.0 " stroke-opacity="0.25" stroke="green"/><polygon points="400.0,131.05810235678467 87.17628013671602,400.0 " stroke-opacity="0.25" stroke="green"/><polygon points="400.00000000000006,122.47391558399184 108.41567817923845,400.0 " stroke-opacity="0.25" stroke="green"/><polygon points="399.99999999999994,114.57395395245756 124.62827421204582,400.00000000000006 " stroke-opacity="0.25" stroke="green"/><polygon points="400.00000000000006,107.27954588296662 137.40980049354292,400.0 " stroke-opacity="0.25" stroke="green"/><polygon points="400.0,100.52363539407837 147.74520964080372,399.99999999999994 " stroke-opacity="0.25" stroke="green"/><polygon points="400.0,94.24871465928295 156.27537988396688,400.0 " stroke-opacity="0.25" stroke="green"/><polygon points="400.0,88.40518296261793 163.43529243064398,400.00000000000006 " stroke-opacity="0.25" stroke="green"/><polygon points="400.0,82.95003286296878 169.53057048462176,400.0 " stroke-opacity="0.25" stroke="green"/><polygon points="400.0,77.84578989914048 174.78223837178675,400.00000000000006 " stroke-opacity="0.25" stroke="green"/><polygon points="-5.684341886080802e-14,216.7891780428331 400.00000000000006,223.59734018331352 " stroke-opacity="0.25" stroke="green"/><polygon points="-5.684341886080802e-14,269.43669409928515 400.00000000000006,206.8053432509622 " stroke-opacity="0.25" stroke="green"/><polygon points="-5.684341886080802e-14,316.491371635811 400.00000000000006,191.7971897798871 " stroke-opacity="0.25" stroke="green"/><polygon points="0.0,358.79946667296883 400.0,178.3029652600483 " stroke-opacity="0.25" stroke="green"/><polygon points="0.0,397.04470279812944 400.0,166.1045951222791 " stroke-opacity="0.25" stroke="green"/><polygon points="400.0,155.02396942116314 45.9391925872755,400.0 " stroke-opacity="0.25" stroke="green"/><polygon points="400.0,144.91418893771612 79.70968655462683,400.0 " stroke-opacity="0.25" stroke="green"/><polygon points="400.00000000000006,135.65301566833318 103.70147198170501,399.99999999999994 " stroke-opacity="0.25" stroke="green"/><polygon points="399.99999999999994,127.13790616487353 121.62472150530623,400.00000000000006 " stroke-opacity="0.25" stroke="green"/><polygon points="400.00000000000006,119.28219871513231 135.52341436440355,400.0 " stroke-opacity="0.25" stroke="green"/><polygon points="399.99999999999994,112.01215328811205 146.61625842037787,400.0 " stroke-opacity="0.25" stroke="green"/><polygon points="400.0,105.264629725643 155.67501400795814,400.0 " stroke-opacity="0.25" stroke="green"/><polygon points="400.0,98.98524919504155 163.21217750177374,400.0 " stroke-opacity="0.25" stroke="green"/><polygon points="400.0,93.12692548696188 169.5814171627586,400.0 " stroke-opacity="0.25" stroke="green"/><polygon points="400.00000000000006,87.64868217568365 175.03467702767924,400.00000000000006 " stroke-opacity="0.25" stroke="green"/><polygon points="-5.684341886080802e-14,197.2739189478937 400.00000000000006,244.19282227756463 " stroke-opacity="0.25" stroke="green"/><polygon points="0.0,252.37093487147658 400.0,225.79308068779304 " stroke-opacity="0.25" stroke="green"/><polygon points="0.0,301.4753725466437 400.0,209.39457073242184 " stroke-opacity="0.25" stroke="green"/><polygon points="0.0,345.51447291881493 400.0,194.68763873055397 " stroke-opacity="0.25" stroke="green"/><polygon points="0.0,385.23356169904406 400.0,181.42338190127253 " stroke-opacity="0.25" stroke="green"/><polygon points="400.0,169.39944654168454 33.73355997668486,400.0 " stroke-opacity="0.25" stroke="green"/><polygon points="400.00000000000006,158.4496322323906 73.11406645234099,400.0 " stroke-opacity="0.25" stroke="green"/><polygon points="400.0,148.4361629513374 100.14068231912788,399.99999999999994 " stroke-opacity="0.25" stroke="green"/><polygon points="400.00000000000006,139.24385963603294 119.83844543186044,400.0 " stroke-opacity="0.25" stroke="green"/><polygon points="400.0,130.77568993386174 134.83249062290665,399.99999999999994 " stroke-opacity="0.25" stroke="green"/><polygon points="400.0,122.94932981671185 146.6279431646839,400.0 " stroke-opacity="0.25" stroke="green"/><polygon points="400.0,115.69447844511359 156.14966152463433,400.0 " stroke-opacity="0.25" stroke="green"/><polygon points="400.0,108.95074054605016 163.99729069411805,400.0 " stroke-opacity="0.25" stroke="green"/><polygon points="400.00000000000006,102.66594112888426 170.57665730944709,400.0 " stroke-opacity="0.25" stroke="green"/><polygon points="400.0,96.79477294991786 176.17222293666168,400.0 " stroke-opacity="0.25" stroke="green"/><polygon points="0.0,177.13118971298903 400.0,265.93032588662714 " stroke-opacity="0.25" stroke="green"/><polygon points="-5.684341886080802e-14,235.42121467454808 400.00000000000006,245.56978694864617 " stroke-opacity="0.25" stroke="green"/><polygon points="-5.684341886080802e-14,287.1549756974438 400.00000000000006,227.49933224546984 " stroke-opacity="0.25" stroke="green"/><polygon points="0.0,333.37971698166893 400.0,211.35316237444582 " stroke-opacity="0.25" stroke="green"/><polygon points="0.0,374.9309201267707 400.0,196.83944600335622 " stroke-opacity="0.25" stroke="green"/><polygon points="400.0,183.722523234989 21.827616894408436,400.00000000000006 " stroke-opacity="0.25" stroke="green"/><polygon points="400.00000000000006,171.81001129387226 67.81849797987616,400.00000000000006 " stroke-opacity="0.25" stroke="green"/><polygon points="400.0,160.94330621244103 98.1172749392201,400.0 " stroke-opacity="0.25" stroke="green"/><polygon points="400.0,150.9904809152652 119.58472486831675,400.00000000000006 " stroke-opacity="0.25" stroke="green"/><polygon points="400.00000000000006,141.8409027930542 135.590872001283,400.0 " stroke-opacity="0.25" stroke="green"/><polygon points="400.0,133.40110390300248 147.98456975606513,400.0 " stroke-opacity="0.25" stroke="green"/><polygon points="400.0,125.59157639065515 157.8647557677216,400.0 " stroke-opacity="0.25" stroke="green"/><polygon points="400.0,118.34426000850732 165.92566424880306,400.0 " stroke-opacity="0.25" stroke="green"/><polygon points="400.00000000000006,111.60055340511444 172.62741908477722,400.0 " stroke-opacity="0.25" stroke="green"/><polygon points="400.00000000000006,105.30972607484628 178.28704477145325,400.00000000000006 " stroke-opacity="0.25" stroke="green"/><polygon points="5.684341886080802e-14,155.85636139900274 399.99999999999994,289.41061013671134 " stroke-opacity="0.25" stroke="green"/><polygon points="0.0,218.27398226894033 400.0,266.6060366610809 " stroke-opacity="0.25" stroke="green"/><polygon points="5.684341886080802e-14,273.35378593361963 399.99999999999994,246.48236946281 " stroke-opacity="0.25" stroke="green"/><polygon points="-5.684341886080802e-14,322.31788743904565 400.00000000000006,228.59310302031884 " stroke-opacity="0.25" stroke="green"/><polygon points="0.0,366.1312847645449 400.0,212.58567075037854 " stroke-opacity="0.25" stroke="green"/><polygon points="400.0,198.17797504245044 10.735615126840287,400.0 " stroke-opacity="0.25" stroke="green"/><polygon points="400.00000000000006,185.14161898115114 64.42252596738157,400.00000000000006 " stroke-opacity="0.25" stroke="green"/><polygon points="400.0,173.28970862067476 98.11931647726875,400.00000000000006 " stroke-opacity="0.25" stroke="green"/><polygon points="400.0,162.4678355343666 121.23849944125548,400.00000000000006 " stroke-opacity="0.25" stroke="green"/><polygon points="400.00000000000006,152.5473125453554 138.08496427246826,400.0 " stroke-opacity="0.25" stroke="green"/><polygon points="400.00000000000006,143.42003206498805 150.90663596485967,400.0 " stroke-opacity="0.25" stroke="green"/><polygon points="400.0,134.99451039447945 160.99195071822336,400.0 " stroke-opacity="0.25" stroke="green"/><polygon points="400.00000000000006,127.19281066108626 169.13242315875317,400.0 " stroke-opacity="0.25" stroke="green"/><polygon points="400.0,119.94812482886091 175.84114362238907,400.00000000000006 " stroke-opacity="0.25" stroke="green"/><polygon points="400.0,113.20285576602916 181.46530605815727,400.0 " stroke-opacity="0.25" stroke="green"/><polygon points="-5.684341886080802e-14,132.80498451775009 400.00000000000006,315.42539722980445 " stroke-opacity="0.25" stroke="green"/><polygon points="-5.684341886080802e-14,200.56557729876894 400.00000000000006,289.5028948003731 " stroke-opacity="0.25" stroke="green"/><polygon points="0.0,259.9035626097727 400.0,266.80254633451773 " stroke-opacity="0.25" stroke="green"/><polygon points="0.0,312.29744081051257 400.0,246.75873651521425 " stroke-opacity="0.25" stroke="green"/><polygon points="0.0,358.8987943015724 400.0,228.93091580840988 " stroke-opacity="0.25" stroke="green"/><polygon points="400.0,212.97084387066678 1.3171795653333902,400.0 " stroke-opacity="0.25" stroke="green"/><polygon points="400.00000000000006,198.59961582846364 63.75017824333585,400.0 " stroke-opacity="0.25" stroke="green"/><polygon points="400.0,185.59122441399114 100.75133998901057,400.0 " stroke-opacity="0.25" stroke="green"/><polygon points="400.0,173.76058685542804 125.2305979257795,400.0 " stroke-opacity="0.25" stroke="green"/><polygon points="400.00000000000006,162.9546829898074 142.62451288377994,400.0 " stroke-opacity="0.25" stroke="green"/><polygon points="400.00000000000006,153.04590055511497 155.6203776095241,400.0 " stroke-opacity="0.25" stroke="green"/><polygon points="399.99999999999994,143.92697187246227 165.6990453419031,400.00000000000006 " stroke-opacity="0.25" stroke="green"/><polygon points="400.0,135.50707494792485 173.74363828689016,400.0 " stroke-opacity="0.25" stroke="green"/><polygon points="400.0,127.7087981122994 180.31348911334567,400.0 " stroke-opacity="0.25" stroke="green"/><polygon points="400.00000000000006,120.46575300729305 185.7800746882525,400.0 " stroke-opacity="0.25" stroke="green"/><polygon points="0.0,107.09481882498429 400.0,345.0824501338867 " stroke-opacity="0.25" stroke="green"/><polygon points="0.0,181.83839574531743 400.0,315.0751810498707 " stroke-opacity="0.25" stroke="green"/><polygon points="0.0,246.63230465934998 400.0,289.0624005555553 " stroke-opacity="0.25" stroke="green"/><polygon points="-5.684341886080802e-14,303.33927512269156 400.00000000000006,266.29627948208105 " stroke-opacity="0.25" stroke="green"/><polygon points="-5.684341886080802e-14,353.3843739073402 400.00000000000006,246.20469693489105 " stroke-opacity="0.25" stroke="green"/><polygon points="0.0,397.8764138532946 400.0,228.34249833850768 " stroke-opacity="0.25" stroke="green"/><polygon points="400.0,212.35812598805316 66.90734359553915,400.0 " stroke-opacity="0.25" stroke="green"/><polygon points="400.0,197.97024826900358 106.73451708972976,400.0 " stroke-opacity="0.25" stroke="green"/><polygon points="400.0,184.9510585136152 132.03198524674275,400.0 " stroke-opacity="0.25" stroke="green"/><polygon points="400.0,173.11412368178475 149.5242093306403,400.00000000000006 " stroke-opacity="0.25" stroke="green"/><polygon points="400.0,162.30539960077448 162.3407259954385,400.00000000000006 " stroke-opacity="0.25" stroke="green"/><polygon points="400.0,152.39649011968993 172.1352534032702,400.00000000000006 " stroke-opacity="0.25" stroke="green"/><polygon points="400.0,143.2795224935888 179.8638981886669,400.00000000000006 " stroke-opacity="0.25" stroke="green"/><polygon points="400.0,134.8632042653815 186.1179164134684,400.0 " stroke-opacity="0.25" stroke="green"/><polygon points="400.0,127.06975560712263 191.28259054830684,400.0 " stroke-opacity="0.25" stroke="green"/><polygon points="0.0,77.43530359486941 400.0,380.0254243220961 " stroke-opacity="0.25" stroke="green"/><polygon points="0.0,161.46965737512625 400.0,344.49229113975343 " stroke-opacity="0.25" stroke="green"/><polygon points="0.0,233.34869061890657 400.0,314.0989204957902 " stroke-opacity="0.25" stroke="green"/><polygon points="0.0,295.5318725585534 400.0,287.80534904355835 " stroke-opacity="0.25" stroke="green"/><polygon points="-5.684341886080802e-14,349.8570747948325 400.00000000000006,264.83445012682364 " stroke-opacity="0.25" stroke="green"/><polygon points="0.0,397.72527637620345 400.0,244.59383298067627 " stroke-opacity="0.25" stroke="green"/><polygon points="400.0,226.62402852505383 75.32448808625504,400.0 " stroke-opacity="0.25" stroke="green"/><polygon points="400.00000000000006,210.56318810198292 116.88147820460146,400.0 " stroke-opacity="0.25" stroke="green"/><polygon points="400.0,196.12246512670697 142.11939133162545,400.0 " stroke-opacity="0.25" stroke="green"/><polygon points="400.0,183.06848906084053 159.07314909016355,400.0 " stroke-opacity="0.25" stroke="green"/><polygon points="400.0,171.2106571485811 171.2465253893058,400.0 " stroke-opacity="0.25" stroke="green"/><polygon points="400.0,160.39176651224437 180.41155091693628,400.0 " stroke-opacity="0.25" stroke="green"/><polygon points="399.99999999999994,150.48100525193092 187.56074698530648,400.0 " stroke-opacity="0.25" stroke="green"/><polygon points="399.99999999999994,141.36863741909832 193.29328673994652,400.0 " stroke-opacity="0.25" stroke="green"/><polygon points="400.0,132.96192276204297 197.99228992450017,400.0 " stroke-opacity="0.25" stroke="green"/><polygon points="0.0,41.80582890649714 376.01281274106725,400.00000000000006 " stroke-opacity="0.25" stroke="green"/><polygon points="-5.684341886080802e-14,138.544607619992 400.00000000000006,379.53374312203175 " stroke-opacity="0.25" stroke="green"/><polygon points="-5.684341886080802e-14,219.81825307156603 400.00000000000006,343.1418370019255 " stroke-opacity="0.25" stroke="green"/><polygon points="0.0,289.060774070339 400.0,312.13710835088614 " stroke-opacity="0.25" stroke="green"/><polygon points="0.0,348.759556390268 400.0,285.4057802604535 " stroke-opacity="0.25" stroke="green"/><polygon points="400.0,262.1213063380796 2.194233609418717,400.0 " stroke-opacity="0.25" stroke="green"/><polygon points="400.0,241.65738685373577 90.7445998926131,400.00000000000006 " stroke-opacity="0.25" stroke="green"/><polygon points="399.99999999999994,223.53078992796256 132.02708771799234,400.00000000000006 " stroke-opacity="0.25" stroke="green"/><polygon points="400.00000000000006,207.36270661495072 155.91555943694084,400.0 " stroke-opacity="0.25" stroke="green"/><polygon points="400.0,192.85199029033484 171.49029260104794,400.0 " stroke-opacity="0.25" stroke="green"/><polygon points="400.0,179.75622437877013 182.44806426682393,399.99999999999994 " stroke-opacity="0.25" stroke="green"/><polygon points="400.0,167.8780709113563 190.57683605966085,399.99999999999994 " stroke-opacity="0.25" stroke="green"/><polygon points="400.0,157.05525775916158 196.8469116398384,400.0 " stroke-opacity="0.25" stroke="green"/><polygon points="400.0,147.15312116894495 201.83038847064012,400.0 " stroke-opacity="0.25" stroke="green"/><polygon points="400.0,138.05897382943593 205.8864260839956,400.00000000000006 " stroke-opacity="0.25" stroke="green"/><polygon points="2.666621381061077,0.0 335.18611065375836,400.0 " stroke-opacity="0.25" stroke="green"/><polygon points="0.0,111.61007280203714 370.3477822114338,400.0 " stroke-opacity="0.25" stroke="green"/><polygon points="0.0,205.7216849382189 400.0,378.1098375871785 " stroke-opacity="0.25" stroke="green"/><polygon points="-5.684341886080802e-14,284.2650110082752 400.00000000000006,340.57029848256957 " stroke-opacity="0.25" stroke="green"/><polygon points="5.684341886080802e-14,350.8079846906131 399.99999999999994,308.7662905843425 " stroke-opacity="0.25" stroke="green"/><polygon points="400.00000000000006,281.476636739359 25.01214968887973,400.00000000000006 " stroke-opacity="0.25" stroke="green"/><polygon points="400.0,257.80386115972414 115.08337604980723,399.99999999999994 " stroke-opacity="0.25" stroke="green"/><polygon points="400.00000000000006,237.07359963213403 152.89448552217272,400.00000000000006 " stroke-opacity="0.25" stroke="green"/><polygon points="399.99999999999994,218.76932469166638 173.7005076237362,400.0 " stroke-opacity="0.25" stroke="green"/><polygon points="400.0,202.48872061746303 186.8671361652475,399.99999999999994 " stroke-opacity="0.25" stroke="green"/><polygon points="399.99999999999994,187.9137696749159 195.949211570614,400.00000000000006 " stroke-opacity="0.25" stroke="green"/><polygon points="400.0,174.78977220696413 202.59217519821559,400.0 " stroke-opacity="0.25" stroke="green"/><polygon points="400.0,162.9103353568695 207.66228785100188,400.0 " stroke-opacity="0.25" stroke="green"/><polygon points="399.99999999999994,152.10643906443863 211.659024011467,400.0 " stroke-opacity="0.25" stroke="green"/><polygon points="400.0,142.23834327228565 214.8906174964611,400.0 " stroke-opacity="0.25" stroke="green"/><polygon points="41.41767992704166,0.0 300.5178698524477,400.0 " stroke-opacity="0.25" stroke="green"/><polygon points="0.0,78.14581033700883 320.17621835194836,400.0 " stroke-opacity="0.25" stroke="green"/><polygon points="-5.684341886080802e-14,190.57276135101446 361.64334005425036,400.0 " stroke-opacity="0.25" stroke="green"/><polygon points="-5.684341886080802e-14,281.7492645849249 400.00000000000006,375.1510163384189 " stroke-opacity="0.25" stroke="green"/><polygon points="0.0,357.1800768364967 400.0,336.2169651232802 " stroke-opacity="0.25" stroke="green"/><polygon points="400.00000000000006,303.47218770968533 70.4061954328152,400.0 " stroke-opacity="0.25" stroke="green"/><polygon points="400.0,275.549506870326 150.0588519672741,400.0 " stroke-opacity="0.25" stroke="green"/><polygon points="400.0,251.45679904213165 179.8851138294694,400.0 " stroke-opacity="0.25" stroke="green"/><polygon points="400.0,230.45663929020333 195.49894362007038,400.0 " stroke-opacity="0.25" stroke="green"/><polygon points="400.0,211.98949758012637 205.10422733127564,400.0 " stroke-opacity="0.25" stroke="green"/><polygon points="400.0,195.6231462312047 211.60963613522006,400.0 " stroke-opacity="0.25" stroke="green"/><polygon points="399.99999999999994,181.01840411369986 216.30728575493688,400.0 " stroke-opacity="0.25" stroke="green"/><polygon points="400.00000000000006,167.90537741811275 219.85877682468498,400.0 " stroke-opacity="0.25" stroke="green"/><polygon points="400.00000000000006,156.06662693116965 222.637970184562,400.0 " stroke-opacity="0.25" stroke="green"/><polygon points="400.0,145.32501515529742 224.87207442807073,400.0 " stroke-opacity="0.25" stroke="green"/><polygon points="74.92320774387355,-5.684341886080802e-14 269.87502548361743,400.00000000000006 " stroke-opacity="0.25" stroke="green"/><polygon points="0.0,33.2805932814006 278.0268358786776,400.0 " stroke-opacity="0.25" stroke="green"/><polygon points="0.0,173.53599975529158 294.330456668798,400.00000000000006 " stroke-opacity="0.25" stroke="green"/><polygon points="5.684341886080802e-14,282.62353812387346 343.2413190391592,400.0 " stroke-opacity="0.25" stroke="green"/><polygon points="0.0,369.89356881873897 400.0,369.89356881873897 " stroke-opacity="0.25" stroke="green"/><polygon points="400.00000000000006,329.38055621725607 147.5978695577144,400.0 " stroke-opacity="0.25" stroke="green"/><polygon points="400.00000000000006,295.619712382687 196.50873192807558,399.99999999999994 " stroke-opacity="0.25" stroke="green"/><polygon points="400.00000000000006,267.052844522667 212.812352718196,400.00000000000006 " stroke-opacity="0.25" stroke="green"/><polygon points="400.0,242.56695778550704 220.9641631132562,399.99999999999994 " stroke-opacity="0.25" stroke="green"/><polygon points="400.00000000000006,221.34585594663503 225.8552493502923,400.00000000000006 " stroke-opacity="0.25" stroke="green"/><polygon points="399.99999999999994,202.77739183762208 229.11597350831642,400.0 " stroke-opacity="0.25" stroke="green"/><polygon points="400.00000000000006,186.3934529179047 231.4450621926193,400.0 " stroke-opacity="0.25" stroke="green"/><polygon points="400.0,171.82995165593377 233.19187870584648,400.0 " stroke-opacity="0.25" stroke="green"/><polygon points="400.0,158.79945052680182 234.55051377168985,400.0 " stroke-opacity="0.25" stroke="green"/><polygon points="400.0,147.0719995105831 235.6374218243646,399.99999999999994 " stroke-opacity="0.25" stroke="green"/><polygon points="104.8869582747594,-5.684341886080802e-14 241.80924021919992,400.00000000000006 " stroke-opacity="0.25" stroke="green"/><polygon points="18.80681122319541,-5.684341886080802e-14 240.66033367976496,400.00000000000006 " stroke-opacity="0.25" stroke="green"/><polygon points="0.0,152.95777127572933 238.43889870735538,399.99999999999994 " stroke-opacity="0.25" stroke="green"/><polygon points="0.0,289.073324816682 232.32848629954765,400.00000000000006 " stroke-opacity="0.25" stroke="green"/><polygon points="-5.684341886080802e-14,392.6412403969152 140.4134978385943,400.00000000000006 " stroke-opacity="0.25" stroke="green"/><polygon points="400.0,361.345739775854 262.85905732968337,400.0 " stroke-opacity="0.25" stroke="green"/><polygon points="400.0,319.17168933941525 253.47075545446722,400.0 " stroke-opacity="0.25" stroke="green"/><polygon points="400.0,284.4199808201759 250.65327395191315,400.0 " stroke-opacity="0.25" stroke="green"/><polygon points="400.00000000000006,255.28966967016743 249.2965456025533,400.00000000000006 " stroke-opacity="0.25" stroke="green"/><polygon points="400.0,230.51885160522227 248.4984205485174,400.0 " stroke-opacity="0.25" stroke="green"/><polygon points="400.0,209.19702782594447 247.97280595338296,400.0 " stroke-opacity="0.25" stroke="green"/><polygon points="400.0,190.65074560176944 247.6004859825646,399.99999999999994 " stroke-opacity="0.25" stroke="green"/><polygon points="400.00000000000006,174.37116949940776 247.322933170952,400.0 " stroke-opacity="0.25" stroke="green"/><polygon points="400.00000000000006,159.96667971227464 247.108050526079,400.0 " stroke-opacity="0.25" stroke="green"/><polygon points="400.0,147.13095768877625 246.9367653526589,400.0 " stroke-opacity="0.25" stroke="green"/><polygon points="132.53057592314025,0.0 215.25079061356263,400.0 " stroke-opacity="0.25" stroke="green"/><polygon points="57.30800573374364,-5.684341886080802e-14 205.90629604915767,400.00000000000006 " stroke-opacity="0.25" stroke="green"/><polygon points="0.0,124.88895021346421 188.1754892994074,400.0 " stroke-opacity="0.25" stroke="green"/><polygon points="5.684341886080802e-14,305.9431552317997 141.5791592458799,400.00000000000006 " stroke-opacity="0.25" stroke="green"/><polygon points="400.0,348.2048222115895 317.43196375851466,400.0 " stroke-opacity="0.25" stroke="green"/><polygon points="400.00000000000006,304.4589752403531 291.44868545569045,400.0 " stroke-opacity="0.25" stroke="green"/><polygon points="400.00000000000006,268.8965712855357 279.24419767620617,400.0 " stroke-opacity="0.25" stroke="green"/><polygon points="399.99999999999994,239.4177312647039 272.15529869202476,400.00000000000006 " stroke-opacity="0.25" stroke="green"/><polygon points="400.00000000000006,214.58440839918003 267.5229231490955,400.0 " stroke-opacity="0.25" stroke="green"/><polygon points="399.99999999999994,193.37869019754814 264.25874758615595,400.0 " stroke-opacity="0.25" stroke="green"/><polygon points="400.0,175.05981107065168 261.8346106751841,400.0 " stroke-opacity="0.25" stroke="green"/><polygon points="400.0,159.07584008367155 259.963204758167,400.0 " stroke-opacity="0.25" stroke="green"/><polygon points="400.0,145.00711418609148 258.47483277200706,400.0 " stroke-opacity="0.25" stroke="green"/><polygon points="158.80322865797032,0.0 189.33138946027353,400.0 " stroke-opacity="0.25" stroke="green"/><polygon points="92.31150094900804,0.0 172.11221611411509,400.0 " stroke-opacity="0.25" stroke="green"/><polygon points="5.684341886080802e-14,76.63451923926547 139.63668471920818,400.0 " stroke-opacity="0.25" stroke="green"/><polygon points="0.0,346.3068506975811 55.50244952768577,400.0 " stroke-opacity="0.25" stroke="green"/><polygon points="400.0,386.54585555954 382.4405744222144,400.0 " stroke-opacity="0.25" stroke="green"/><polygon points="400.0,328.7589273899009 332.4819439765712,400.00000000000006 " stroke-opacity="0.25" stroke="green"/><polygon points="400.0,283.813538813515 309.21996508992453,399.99999999999994 " stroke-opacity="0.25" stroke="green"/><polygon points="400.0,247.85722795240622 295.76760242777283,400.0 " stroke-opacity="0.25" stroke="green"/><polygon points="400.0,218.43842815695362 287.0002794555799,400.0 " stroke-opacity="0.25" stroke="green"/><polygon points="400.0,193.92276166074302 280.83349853115885,400.00000000000006 " stroke-opacity="0.25" stroke="green"/><polygon points="400.0,173.17873616394957 276.25964766526033,400.0 " stroke-opacity="0.25" stroke="green"/><polygon points="400.0,155.39814288098364 272.7321226904695,400.0 " stroke-opacity="0.25" stroke="green"/><polygon points="400.0,139.98829536907988 269.92873558329825,400.0 " stroke-opacity="0.25" stroke="green"/><polygon points="184.5147045884289,0.0 163.266661948274,400.0 " stroke-opacity="0.25" stroke="green"/><polygon points="125.39371445577375,-5.684341886080802e-14 137.82058732712755,400.00000000000006 " stroke-opacity="0.25" stroke="green"/><polygon points="13.213987272985094,0.0 89.53767287545631,400.0 " stroke-opacity="0.25" stroke="green"/><polygon points="400.0,360.46806365105357 370.76181374737195,399.99999999999994 " stroke-opacity="0.25" stroke="green"/><polygon points="400.0,300.78330502743415 337.52766666652303,400.0 " stroke-opacity="0.25" stroke="green"/><polygon points="400.00000000000006,255.4653672496426 318.22382403597885,400.00000000000006 " stroke-opacity="0.25" stroke="green"/><polygon points="400.00000000000006,219.88412037335945 305.60936180625436,400.0 " stroke-opacity="0.25" stroke="green"/><polygon points="400.0,191.2060267181853 296.7206568711071,399.99999999999994 " stroke-opacity="0.25" stroke="green"/><polygon points="400.00000000000006,167.59979968464418 290.11946851326536,400.0 " stroke-opacity="0.25" stroke="green"/><polygon points="400.0,147.82927238585873 285.02342674421516,400.0 " stroke-opacity="0.25" stroke="green"/><polygon points="400.0,131.0298145839373 280.9704280118795,399.99999999999994 " stroke-opacity="0.25" stroke="green"/><polygon points="210.43442016176076,-5.684341886080802e-14 136.2617783321986,400.00000000000006 " stroke-opacity="0.25" stroke="green"/><polygon points="157.94216131211297,0.0 101.52498359084747,400.0 " stroke-opacity="0.25" stroke="green"/><polygon points="56.44727414162932,-5.684341886080802e-14 34.36065993245836,400.00000000000006 " stroke-opacity="0.25" stroke="green"/><polygon points="400.0,321.2945217582762 362.6378858224282,400.00000000000006 " stroke-opacity="0.25" stroke="green"/><polygon points="400.0,261.4619438050423 338.50684885086525,399.99999999999994 " stroke-opacity="0.25" stroke="green"/><polygon points="400.00000000000006,217.30071710892756 322.61507203739,400.0 " stroke-opacity="0.25" stroke="green"/><polygon points="399.99999999999994,183.36682832783012 311.3581055562137,400.00000000000006 " stroke-opacity="0.25" stroke="green"/><polygon points="400.0,156.47614771047006 302.9663915952043,400.0 " stroke-opacity="0.25" stroke="green"/><polygon points="400.0,134.6420461627156 296.4694886076885,400.0 " stroke-opacity="0.25" stroke="green"/><polygon points="400.0,116.56082448529554 291.29074020030544,400.0 " stroke-opacity="0.25" stroke="green"/><polygon points="237.38305586032672,0.0 107.41517736716425,400.0 " stroke-opacity="0.25" stroke="green"/><polygon points="191.38158354990253,0.0 61.4137050567401,400.0 " stroke-opacity="0.25" stroke="green"/><polygon points="0.0,305.85600097883406 99.37863892905415,0.0 " stroke-opacity="0.25" stroke="green"/><polygon points="400.0,348.9843522492746 383.4240112297094,400.00000000000006 " stroke-opacity="0.25" stroke="green"/><polygon points="400.0,264.0375678399052 355.8231278434549,400.0 " stroke-opacity="0.25" stroke="green"/><polygon points="400.0,207.40637823365896 337.4225389192852,399.99999999999994 " stroke-opacity="0.25" stroke="green"/><polygon points="400.0,166.95552851491152 324.2792611163069,400.00000000000006 " stroke-opacity="0.25" stroke="green"/><polygon points="400.0,136.617391225851 314.42180276407305,400.0 " stroke-opacity="0.25" stroke="green"/><polygon points="400.0,113.02106222324838 306.75489071233574,400.0 " stroke-opacity="0.25" stroke="green"/><polygon points="400.0,94.14399902116624 300.6213610709458,399.99999999999994 " stroke-opacity="0.25" stroke="green"/><polygon points="266.3409138768742,0.0 75.59463590261515,400.0 " stroke-opacity="0.25" stroke="green"/><polygon points="227.43451914378267,-5.684341886080802e-14 15.00329828832497,400.00000000000006 " stroke-opacity="0.25" stroke="green"/><polygon points="-5.684341886080802e-14,225.2220629871357 145.3657631933074,0.0 " stroke-opacity="0.25" stroke="green"/><polygon points="400.00000000000006,396.1868442852591 399.28597830596306,400.00000000000006 " stroke-opacity="0.25" stroke="green"/><polygon points="400.0,258.1478436052361 369.68038919752576,400.0 " stroke-opacity="0.25" stroke="green"/><polygon points="400.0,182.58600265188008 349.6292937980937,399.99999999999994 " stroke-opacity="0.25" stroke="green"/><polygon points="400.0,134.91261090325884 335.1501083207818,400.00000000000006 " stroke-opacity="0.25" stroke="green"/><polygon points="400.0,102.09337407636345 324.2036346408228,399.99999999999994 " stroke-opacity="0.25" stroke="green"/><polygon points="400.0,78.12164862702262 315.63755172862,400.0 " stroke-opacity="0.25" stroke="green"/><polygon points="400.0,59.84468880542795 308.75155291303304,400.00000000000006 " stroke-opacity="0.25" stroke="green"/><polygon points="298.60599264382563,0.0 39.24673939099378,400.0 " stroke-opacity="0.25" stroke="green"/><polygon points="0.0,346.4440885854825 268.5305781542876,0.0 " stroke-opacity="0.25" stroke="green"/><polygon points="-5.684341886080802e-14,187.53392145435973 199.72226916936307,-5.684341886080802e-14 " stroke-opacity="0.25" stroke="green"/><polygon points="400.0,223.57350004262085 379.9010016796036,400.0 " stroke-opacity="0.25" stroke="green"/><polygon points="400.0,120.70733121010578 359.04158225647177,399.99999999999994 " stroke-opacity="0.25" stroke="green"/><polygon points="400.0,70.46041556894926 343.78423651379353,400.0 " stroke-opacity="0.25" stroke="green"/><polygon points="400.0,40.68138377122193 332.1393644304252,400.0 " stroke-opacity="0.25" stroke="green"/><polygon points="400.0,20.98014829395936 322.95978903893734,400.0 " stroke-opacity="0.25" stroke="green"/><polygon points="400.00000000000006,6.981291982865201 315.53756879743605,400.0 " stroke-opacity="0.25" stroke="green"/><polygon points="-5.684341886080802e-14,395.3701207665421 336.0626960809977,0.0 " stroke-opacity="0.25" stroke="green"/><polygon points="-5.684341886080802e-14,294.1854951334776 318.61025797069834,0.0 " stroke-opacity="0.25" stroke="green"/><polygon points="0.0,161.91766148373983 273.3064225718058,0.0 " stroke-opacity="0.25" stroke="green"/><polygon points="397.64937364901385,5.684341886080802e-14 386.5803603510397,399.99999999999994 " stroke-opacity="0.25" stroke="green"/><polygon points="394.34972356655805,0.0 365.6575678038854,400.0 " stroke-opacity="0.25" stroke="green"/><polygon points="391.90195377041675,-5.684341886080802e-14 350.1364736369136,400.00000000000006 " stroke-opacity="0.25" stroke="green"/><polygon points="390.0138823598986,0.0 338.1643779754603,400.0 " stroke-opacity="0.25" stroke="green"/><polygon points="388.51323695157816,5.684341886080802e-14 328.64891670516647,399.99999999999994 " stroke-opacity="0.25" stroke="green"/><polygon points="387.2918659234564,-5.684341886080802e-14 320.90430985113403,400.00000000000006 " stroke-opacity="0.25" stroke="green"/><polygon points="0.0,347.5097827657463 381.69533489976754,0.0 " stroke-opacity="0.25" stroke="green"/><polygon points="0.0,255.99103707271172 385.0031738179769,0.0 " stroke-opacity="0.25" stroke="green"/><polygon points="5.684341886080802e-14,141.086180598381 395.6054885558685,-5.684341886080802e-14 " stroke-opacity="0.25" stroke="green"/><polygon points="178.33933463276452,0.0 399.99999999999994,9.299173966791699 " stroke-opacity="0.25" stroke="green"/><polygon points="358.6119446843588,-5.684341886080802e-14 400.00000000000006,23.895404877720523 " stroke-opacity="0.25" stroke="green"/><polygon points="366.626792135047,0.0 400.0,44.539680015215765 " stroke-opacity="0.25" stroke="green"/><polygon points="369.45916225636233,0.0 400.00000000000006,75.97338102984979 " stroke-opacity="0.25" stroke="green"/><polygon points="370.9075445632819,0.0 400.0,129.64716885598835 " stroke-opacity="0.25" stroke="green"/><polygon points="371.7871594423349,0.0 400.0,242.08485453544404 " stroke-opacity="0.25" stroke="green"/><polygon points="372.3780473459905,0.0 390.0132567660139,400.0 " stroke-opacity="0.25" stroke="green"/><polygon points="372.8023250137653,0.0 369.6280161293754,400.0 " stroke-opacity="0.25" stroke="green"/><polygon points="373.12175288327376,0.0 354.2804867151366,400.0 " stroke-opacity="0.25" stroke="green"/><polygon points="373.37092321694416,-5.684341886080802e-14 342.30861641137335,400.00000000000006 " stroke-opacity="0.25" stroke="green"/><polygon points="373.5707189463916,0.0 332.7090444039206,400.0 " stroke-opacity="0.25" stroke="green"/><polygon points="373.7344929120537,0.0 324.8402076641735,400.0 " stroke-opacity="0.25" stroke="green"/><polygon points="0.0,309.7597440873143 400.0,28.597152528471526 " stroke-opacity="0.25" stroke="green"/><polygon points="0.0,225.40860974410663 400.0,39.006492734544764 " stroke-opacity="0.25" stroke="green"/><polygon points="0.0,122.36332756898992 400.0,51.72278169904493 " stroke-opacity="0.25" stroke="green"/><polygon points="34.41845802243594,-5.684341886080802e-14 400.00000000000006,67.60850155063957 " stroke-opacity="0.25" stroke="green"/><polygon points="264.4652837464191,0.0 400.00000000000006,88.01727387694538 " stroke-opacity="0.25" stroke="green"/><polygon points="309.15283124100665,0.0 400.0,115.20148927093025 " stroke-opacity="0.25" stroke="green"/><polygon points="328.17390123248924,5.684341886080802e-14 400.00000000000006,153.20672306073521 " stroke-opacity="0.25" stroke="green"/><polygon points="338.7075374303468,0.0 400.0,210.0996616020201 " stroke-opacity="0.25" stroke="green"/><polygon points="345.39830413343026,5.684341886080802e-14 400.0,304.6160263366438 " stroke-opacity="0.25" stroke="green"/><polygon points="350.02471139826054,0.0 390.61274706390896,400.0 " stroke-opacity="0.25" stroke="green"/><polygon points="353.4144705005592,0.0 371.2075331147895,400.0 " stroke-opacity="0.25" stroke="green"/><polygon points="356.00496285520984,0.0 356.37784850933656,400.0 " stroke-opacity="0.25" stroke="green"/><polygon points="358.04906303429266,0.0 344.6760726274939,400.0 " stroke-opacity="0.25" stroke="green"/><polygon points="359.70314859887424,0.0 335.20699730320604,400.0 " stroke-opacity="0.25" stroke="green"/><polygon points="361.06912046290347,5.684341886080802e-14 327.3872745825005,399.99999999999994 " stroke-opacity="0.25" stroke="green"/><polygon points="0.0,278.31065997606277 400.0,65.48051265122604 " stroke-opacity="0.25" stroke="green"/><polygon points="0.0,199.2304304083672 400.0,78.2152212413678 " stroke-opacity="0.25" stroke="green"/><polygon points="0.0,104.47549367348795 400.0,93.47411102194249 " stroke-opacity="0.25" stroke="green"/><polygon points="36.12223385969665,5.684341886080802e-14 400.00000000000006,112.09022951771117 " stroke-opacity="0.25" stroke="green"/><polygon points="213.76381920471175,0.0 400.0,135.3085056010721 " stroke-opacity="0.25" stroke="green"/><polygon points="269.3078373990762,-5.684341886080802e-14 400.0,165.07620892456 " stroke-opacity="0.25" stroke="green"/><polygon points="296.43935817270597,-5.684341886080802e-14 400.0,204.61956829654267 " stroke-opacity="0.25" stroke="green"/><polygon points="312.5189604632959,0.0 399.99999999999994,259.70007468285644 " stroke-opacity="0.25" stroke="green"/><polygon points="323.1569165009337,5.684341886080802e-14 399.99999999999994,341.71369492204894 " stroke-opacity="0.25" stroke="green"/><polygon points="330.7157936173714,0.0 388.8391958578003,400.0 " stroke-opacity="0.25" stroke="green"/><polygon points="336.3634091611374,-5.684341886080802e-14 370.7073775330779,400.00000000000006 " stroke-opacity="0.25" stroke="green"/><polygon points="340.74329782164955,-5.684341886080802e-14 356.6456297282757,400.00000000000006 " stroke-opacity="0.25" stroke="green"/><polygon points="344.23923819331094,0.0 345.42182116662593,400.0 " stroke-opacity="0.25" stroke="green"/><polygon points="347.09429958635644,0.0 336.25557143105874,400.0 " stroke-opacity="0.25" stroke="green"/><polygon points="349.4699147774728,0.0 328.62859634379043,400.0 " stroke-opacity="0.25" stroke="green"/><polygon points="0.0,250.92839924568537 400.0,96.84721526920347 " stroke-opacity="0.25" stroke="green"/><polygon points="-5.684341886080802e-14,175.6410720897628 400.00000000000006,111.21521179477506 " stroke-opacity="0.25" stroke="green"/><polygon points="0.0,86.68078358503773 400.0,128.19258586866906 " stroke-opacity="0.25" stroke="green"/><polygon points="47.56338368613376,0.0 400.0,148.56116679314857 " stroke-opacity="0.25" stroke="green"/><polygon points="185.80736193663768,0.0 400.00000000000006,173.44977833162784 " stroke-opacity="0.25" stroke="green"/><polygon points="242.04015400592206,0.0 400.0,204.55076960631797 " stroke-opacity="0.25" stroke="green"/><polygon points="272.54502971044286,0.0 399.99999999999994,244.52181081828104 " stroke-opacity="0.25" stroke="green"/><polygon points="291.69152910949487,0.0 400.00000000000006,297.7886436593825 " stroke-opacity="0.25" stroke="green"/><polygon points="304.8278372275237,0.0 400.0,372.3087136050103 " stroke-opacity="0.25" stroke="green"/><polygon points="314.3999900612579,-5.684341886080802e-14 385.14789961499673,400.00000000000006 " stroke-opacity="0.25" stroke="green"/><polygon points="321.6852574602757,0.0 368.4566373777327,400.0 " stroke-opacity="0.25" stroke="green"/><polygon points="327.41572822448313,-5.684341886080802e-14 355.3275667438593,400.00000000000006 " stroke-opacity="0.25" stroke="green"/><polygon points="332.04114056590095,0.0 344.73029335393653,400.0 " stroke-opacity="0.25" stroke="green"/><polygon points="335.8530321550338,-5.684341886080802e-14 335.99687580733894,400.00000000000006 " stroke-opacity="0.25" stroke="green"/><polygon points="339.04867841888233,0.0 328.6753367496758,400.0 " stroke-opacity="0.25" stroke="green"/><polygon points="0.0,226.18758547115465 400.0,124.50171116781846 " stroke-opacity="0.25" stroke="green"/><polygon points="0.0,153.4936134237994 400.0,140.169016011987 " stroke-opacity="0.25" stroke="green"/><polygon points="0.0,68.4592568606028 400.0,158.49597145246625 " stroke-opacity="0.25" stroke="green"/><polygon points="60.87212621245277,0.0 400.0,180.22263866302328 " stroke-opacity="0.25" stroke="green"/><polygon points="170.77877653178965,0.0 400.0,206.39171664967537 " stroke-opacity="0.25" stroke="green"/><polygon points="223.76343942969584,0.0 400.0,238.52085828958684 " stroke-opacity="0.25" stroke="green"/><polygon points="254.95115452130474,5.684341886080802e-14 400.0,278.9078527095141 " stroke-opacity="0.25" stroke="green"/><polygon points="275.4976107128303,-5.684341886080802e-14 399.99999999999994,331.2058217834033 " stroke-opacity="0.25" stroke="green"/><polygon points="290.05529467821975,5.684341886080802e-14 399.56324015746424,399.99999999999994 " stroke-opacity="0.25" stroke="green"/><polygon points="300.9095150087596,5.684341886080802e-14 379.9562275193531,399.99999999999994 " stroke-opacity="0.25" stroke="green"/><polygon points="309.31403141255157,-5.684341886080802e-14 364.77434855171225,400.00000000000006 " stroke-opacity="0.25" stroke="green"/><polygon points="316.0140645302256,0.0 352.67144018855913,400.0 " stroke-opacity="0.25" stroke="green"/><polygon points="321.4803941841478,-5.684341886080802e-14 342.79708796936063,400.00000000000006 " stroke-opacity="0.25" stroke="green"/><polygon points="326.02504337340235,0.0 334.5876550137036,400.0 " stroke-opacity="0.25" stroke="green"/><polygon points="329.8629953603013,0.0 327.654796566021,400.0 " stroke-opacity="0.25" stroke="green"/><polygon points="0.0,203.10500820193218 400.0,149.6643448908663 " stroke-opacity="0.25" stroke="green"/><polygon points="5.684341886080802e-14,131.9824260408518 399.99999999999994,166.50083147032467 " stroke-opacity="0.25" stroke="green"/><polygon points="0.0,49.377734709015016 400.0,186.05541926438016 " stroke-opacity="0.25" stroke="green"/><polygon points="74.35803738143734,0.0 400.00000000000006,209.0441255344917 " stroke-opacity="0.25" stroke="green"/><polygon points="163.54133416268036,0.0 400.0,236.45866583731956 " stroke-opacity="0.25" stroke="green"/><polygon points="211.95886515199695,0.0 400.00000000000006,269.71328297100035 " stroke-opacity="0.25" stroke="green"/><polygon points="242.36191635978986,0.0 400.0,310.8965985503181 " stroke-opacity="0.25" stroke="green"/><polygon points="263.22735613464937,0.0 400.0,363.2279886782754 " stroke-opacity="0.25" stroke="green"/><polygon points="278.4346796099223,0.0 391.0101226473116,400.0 " stroke-opacity="0.25" stroke="green"/><polygon points="290.01057754910045,-5.684341886080802e-14 373.62701235445513,400.00000000000006 " stroke-opacity="0.25" stroke="green"/><polygon points="299.11705635653857,0.0 359.95214010514974,400.0 " stroke-opacity="0.25" stroke="green"/><polygon points="306.4681373047409,0.0 348.91328579201394,400.0 " stroke-opacity="0.25" stroke="green"/><polygon points="312.5267661252482,0.0 339.81526043245094,400.0 " stroke-opacity="0.25" stroke="green"/><polygon points="317.6062543802899,0.0 332.187575303177,400.0 " stroke-opacity="0.25" stroke="green"/><polygon points="321.92621579078974,0.0 325.70044436489815,400.0 " stroke-opacity="0.25" stroke="green"/><polygon points="0.0,180.94610905723363 400.0,173.21958554223846 " stroke-opacity="0.25" stroke="green"/><polygon points="0.0,110.47568135665931 400.0,191.22591123354283 " stroke-opacity="0.25" stroke="green"/><polygon points="0.0,29.017221731526575 400.0,212.0398554961538 " stroke-opacity="0.25" stroke="green"/><polygon points="87.5329518867353,-5.684341886080802e-14 400.00000000000006,236.3736045296822 " stroke-opacity="0.25" stroke="green"/><polygon points="161.21062774910146,0.0 400.0,265.2024652300545 " stroke-opacity="0.25" stroke="green"/><polygon points="204.85833688087007,0.0 399.99999999999994,299.898744860523 " stroke-opacity="0.25" stroke="green"/><polygon points="233.72760476949946,-5.684341886080802e-14 400.0,342.4566355724519 " stroke-opacity="0.25" stroke="green"/><polygon points="254.23738118231864,0.0 400.0,395.88949555183206 " stroke-opacity="0.25" stroke="green"/><polygon points="269.5593688450349,0.0 381.77208303984594,400.0 " stroke-opacity="0.25" stroke="green"/><polygon points="281.440897372245,0.0 366.4635220402539,400.0 " stroke-opacity="0.25" stroke="green"/><polygon points="290.9237994289433,0.0 354.24543206507377,400.0 " stroke-opacity="0.25" stroke="green"/><polygon points="298.6678271606166,-5.684341886080802e-14 344.26776625874606,400.00000000000006 " stroke-opacity="0.25" stroke="green"/><polygon points="305.11109660860643,5.684341886080802e-14 335.9660411772071,399.99999999999994 " stroke-opacity="0.25" stroke="green"/><polygon points="310.55594696222045,0.0 328.950712839522,400.0 " stroke-opacity="0.25" stroke="green"/><polygon points="315.217756767517,-5.684341886080802e-14 322.944280282512,400.00000000000006 " stroke-opacity="0.25" stroke="green"/><polygon points="0.0,159.11245660758706 400.0,195.8578799324234 " stroke-opacity="0.25" stroke="green"/><polygon points="0.0,88.41756341595412 400.0,215.13216234983386 " stroke-opacity="0.25" stroke="green"/><polygon points="5.684341886080802e-14,6.922715930906861 399.99999999999994,237.3509483904711 " stroke-opacity="0.25" stroke="green"/><polygon points="100.25904413264443,0.0 400.0,263.24478125296093 " stroke-opacity="0.25" stroke="green"/><polygon points="162.07924819046443,0.0 400.0,293.8076598902769 " stroke-opacity="0.25" stroke="green"/><polygon points="201.2150590876041,0.0 399.99999999999994,330.4275698888275 " stroke-opacity="0.25" stroke="green"/><polygon points="228.2166027476226,0.0 400.0,375.1031572115867 " stroke-opacity="0.25" stroke="green"/><polygon points="247.9698587109921,0.0 389.12371903015,400.0 " stroke-opacity="0.25" stroke="green"/><polygon points="263.048043065633,0.0 372.11824219037567,400.0 " stroke-opacity="0.25" stroke="green"/><polygon points="274.9352330761726,-5.684341886080802e-14 358.7116323718659,400.00000000000006 " stroke-opacity="0.25" stroke="green"/><polygon points="284.5474632327551,0.0 347.87076761907264,400.0 " stroke-opacity="0.25" stroke="green"/><polygon points="292.4807688700889,-5.684341886080802e-14 338.9234274018794,400.00000000000006 " stroke-opacity="0.25" stroke="green"/><polygon points="299.13969512245717,0.0 331.4133576548172,400.0 " stroke-opacity="0.25" stroke="green"/><polygon points="304.8084804301708,-5.684341886080802e-14 325.0199885997223,400.00000000000006 " stroke-opacity="0.25" stroke="green"/><polygon points="309.69268382435786,0.0 319.5114866642733,400.0 " stroke-opacity="0.25" stroke="green"/><polygon points="5.684341886080802e-14,137.0683494472189 399.99999999999994,218.16491408236865 " stroke-opacity="0.25" stroke="green"/><polygon points="0.0,65.26079732197121 400.0,238.8918138754441 " stroke-opacity="0.25" stroke="green"/><polygon points="24.900064712176885,0.0 400.00000000000006,262.76383738611565 " stroke-opacity="0.25" stroke="green"/><polygon points="112.5219167320325,0.0 400.0,290.5556240119646 " stroke-opacity="0.25" stroke="green"/><polygon points="165.09502794394587,0.0 400.0,323.3189565667391 " stroke-opacity="0.25" stroke="green"/><polygon points="200.14376875188813,0.0 399.99999999999994,362.5188782564218 " stroke-opacity="0.25" stroke="green"/><polygon points="225.178583614704,0.0 395.62848347533213,400.0 " stroke-opacity="0.25" stroke="green"/><polygon points="243.95469476181592,0.0 376.8523723282202,400.0 " stroke-opacity="0.25" stroke="green"/><polygon points="258.5583367651252,0.0 362.248730324911,400.0 " stroke-opacity="0.25" stroke="green"/><polygon points="270.24125036777264,0.0 350.56581672226355,400.0 " stroke-opacity="0.25" stroke="green"/><polygon points="279.7999978608478,0.0 341.0070692291884,400.0 " stroke-opacity="0.25" stroke="green"/><polygon points="287.7656207717437,0.0 333.0414463182924,400.0 " stroke-opacity="0.25" stroke="green"/><polygon points="294.5057632348096,0.0 326.3013038552266,400.0 " stroke-opacity="0.25" stroke="green"/><polygon points="300.2830282031517,-5.684341886080802e-14 320.52403888688445,400.00000000000006 " stroke-opacity="0.25" stroke="green"/><polygon points="305.2899911757148,-5.684341886080802e-14 315.51707591432125,400.00000000000006 " stroke-opacity="0.25" stroke="green"/><polygon points="0.0,114.28501353204116 400.0,240.68532300796932 " stroke-opacity="0.25" stroke="green"/><polygon points="-5.684341886080802e-14,40.40899699954488 400.00000000000006,263.1407287662431 " stroke-opacity="0.25" stroke="green"/><polygon points="53.631742979089694,0.0 400.0,289.0266136564684 " stroke-opacity="0.25" stroke="green"/><polygon points="124.35445892777096,-5.684341886080802e-14 400.0,319.1940933567193 " stroke-opacity="0.25" stroke="green"/><polygon points="169.58939278203775,0.0 400.0,354.8012213461833 " stroke-opacity="0.25" stroke="green"/><polygon points="201.01116016615444,0.0 400.00000000000006,397.46506324911843 " stroke-opacity="0.25" stroke="green"/><polygon points="224.10877190824323,5.684341886080802e-14 380.62552256883595,399.99999999999994 " stroke-opacity="0.25" stroke="green"/><polygon points="241.80314198288693,0.0 364.81111038038887,400.0 " stroke-opacity="0.25" stroke="green"/><polygon points="255.79170579427978,-5.684341886080802e-14 352.3087769769087,400.00000000000006 " stroke-opacity="0.25" stroke="green"/><polygon points="267.1282931975504,5.684341886080802e-14 342.17665781983334,399.99999999999994 " stroke-opacity="0.25" stroke="green"/><polygon points="276.50175674896104,0.0 333.7990882533521,400.0 " stroke-opacity="0.25" stroke="green"/><polygon points="284.3813863338769,0.0 326.7566386141467,400.0 " stroke-opacity="0.25" stroke="green"/><polygon points="291.0979313611484,-5.684341886080802e-14 320.7537003295141,400.00000000000006 " stroke-opacity="0.25" stroke="green"/><polygon points="296.8912106838878,0.0 315.57593436519215,400.0 " stroke-opacity="0.25" stroke="green"/><polygon points="301.93935158776634,0.0 311.0641387656587,400.0 " stroke-opacity="0.25" stroke="green"/><polygon points="0.0,90.18908112122112 400.0,263.97661347825095 " stroke-opacity="0.25" stroke="green"/><polygon points="5.684341886080802e-14,13.15478569349736 399.99999999999994,288.5468068967048 " stroke-opacity="0.25" stroke="green"/><polygon points="77.27439375578764,5.684341886080802e-14 400.0,316.9480834869775 " stroke-opacity="0.25" stroke="green"/><polygon points="135.80763058371014,5.684341886080802e-14 400.0,350.1522435471633 " stroke-opacity="0.25" stroke="green"/><polygon points="175.12777219007586,0.0 400.0,389.49012377799124 " stroke-opacity="0.25" stroke="green"/><polygon points="203.36097492466078,0.0 383.419211153416,400.0 " stroke-opacity="0.25" stroke="green"/><polygon points="224.61703548096426,0.0 366.36760428477515,400.0 " stroke-opacity="0.25" stroke="green"/><polygon points="241.19786704548397,-5.684341886080802e-14 353.06646503348065,400.00000000000006 " stroke-opacity="0.25" stroke="green"/><polygon points="254.4931068458197,0.0 342.4010267365239,400.0 " stroke-opacity="0.25" stroke="green"/><polygon points="265.39130848683135,-5.684341886080802e-14 333.6584918973202,400.00000000000006 " stroke-opacity="0.25" stroke="green"/><polygon points="274.48712018760705,0.0 326.3618338518661,400.0 " stroke-opacity="0.25" stroke="green"/><polygon points="282.1935219000538,0.0 320.1797601781301,400.0 " stroke-opacity="0.25" stroke="green"/><polygon points="288.8062784202215,-5.684341886080802e-14 314.8750084250353,400.00000000000006 " stroke-opacity="0.25" stroke="green"/><polygon points="294.54277020971057,5.684341886080802e-14 310.2731960364952,399.99999999999994 " stroke-opacity="0.25" stroke="green"/><polygon points="299.56634685976405,-5.684341886080802e-14 306.24328400814466,400.00000000000006 " stroke-opacity="0.25" stroke="green"/><polygon points="0.0,64.10431725290528 400.0,288.66503583989316 " stroke-opacity="0.25" stroke="green"/><polygon points="20.883593647532763,0.0 400.0,315.8836821495235 " stroke-opacity="0.25" stroke="green"/><polygon points="97.53973592408308,0.0 400.0,347.49653714662196 " stroke-opacity="0.25" stroke="green"/><polygon points="146.9384152783452,-5.684341886080802e-14 400.0,384.6611475972114 " stroke-opacity="0.25" stroke="green"/><polygon points="181.42338190127253,5.684341886080802e-14 385.2335616990441,399.99999999999994 " stroke-opacity="0.25" stroke="green"/><polygon points="206.86263504614135,0.0 366.89633807395785,400.0 " stroke-opacity="0.25" stroke="green"/><polygon points="226.4026563136245,0.0 352.81142223227346,400.0 " stroke-opacity="0.25" stroke="green"/><polygon points="241.88224403559963,5.684341886080802e-14 341.6533642474127,399.99999999999994 " stroke-opacity="0.25" stroke="green"/><polygon points="254.44791689304267,0.0 332.5957259639914,400.0 " stroke-opacity="0.25" stroke="green"/><polygon points="264.85167888916806,5.684341886080802e-14 325.09644486565435,399.99999999999994 " stroke-opacity="0.25" stroke="green"/><polygon points="273.6072677554078,0.0 318.78520647766976,400.0 " stroke-opacity="0.25" stroke="green"/><polygon points="281.07759469215375,5.684341886080802e-14 313.4004157052549,399.99999999999994 " stroke-opacity="0.25" stroke="green"/><polygon points="287.5263104104629,0.0 308.7520267943133,400.0 " stroke-opacity="0.25" stroke="green"/><polygon points="293.14956930489484,5.684341886080802e-14 304.6986469540426,399.99999999999994 " stroke-opacity="0.25" stroke="green"/><polygon points="298.09632958785016,0.0 301.1329035333658,400.0 " stroke-opacity="0.25" stroke="green"/><polygon points="5.684341886080802e-14,35.173585920958004 399.99999999999994,315.51571071801516 " stroke-opacity="0.25" stroke="green"/><polygon points="52.650233052118864,0.0 400.0,346.12761190149 " stroke-opacity="0.25" stroke="green"/><polygon points="115.45985096200961,0.0 400.0,381.93612871519804 " stroke-opacity="0.25" stroke="green"/><polygon points="157.80478073495686,5.684341886080802e-14 386.0823472814413,399.99999999999994 " stroke-opacity="0.25" stroke="green"/><polygon points="188.28562911533623,0.0 366.3771032387508,400.0 " stroke-opacity="0.25" stroke="green"/><polygon points="211.27579896753787,0.0 351.51442940936505,400.0 " stroke-opacity="0.25" stroke="green"/><polygon points="229.2343838398424,-5.684341886080802e-14 339.90457219167945,400.00000000000006 " stroke-opacity="0.25" stroke="green"/><polygon points="243.65026192494332,0.0 330.585002335499,400.0 " stroke-opacity="0.25" stroke="green"/><polygon points="255.4776256190064,-5.684341886080802e-14 322.93885400443116,400.00000000000006 " stroke-opacity="0.25" stroke="green"/><polygon points="265.35622817363566,0.0 316.5525398273947,400.0 " stroke-opacity="0.25" stroke="green"/><polygon points="273.7310484019111,5.684341886080802e-14 311.13839011763605,399.99999999999994 " stroke-opacity="0.25" stroke="green"/><polygon points="280.9211723235064,0.0 306.49012230028006,400.0 " stroke-opacity="0.25" stroke="green"/><polygon points="287.16137394053686,-5.684341886080802e-14 302.45595979257484,400.00000000000006 " stroke-opacity="0.25" stroke="green"/><polygon points="292.62823688697625,0.0 298.9217448926748,400.0 " stroke-opacity="0.25" stroke="green"/><polygon points="297.45713109164944,0.0 295.7999637148034,400.0 " stroke-opacity="0.25" stroke="green"/><polygon points="5.684341886080802e-14,2.240849316584928 399.99999999999994,345.53476519830394 " stroke-opacity="0.25" stroke="green"/><polygon points="79.0538538895325,0.0 400.00000000000006,380.6050120696847 " stroke-opacity="0.25" stroke="green"/><polygon points="131.7011718346204,0.0 385.98611496748873,400.0 " stroke-opacity="0.25" stroke="green"/><polygon points="168.4637247730447,-5.684341886080802e-14 364.7802279842133,400.00000000000006 " stroke-opacity="0.25" stroke="green"/><polygon points="195.5882615115205,0.0 349.133875525687,400.0 " stroke-opacity="0.25" stroke="green"/><polygon points="216.42571527444096,0.0 337.11412569340945,400.0 " stroke-opacity="0.25" stroke="green"/><polygon points="232.93495236541074,0.0 327.5910379873518,400.0 " stroke-opacity="0.25" stroke="green"/><polygon points="246.33763717479644,5.684341886080802e-14 319.8599149661528,399.99999999999994 " stroke-opacity="0.25" stroke="green"/><polygon points="257.43520859604445,0.0 313.45845950298127,400.0 " stroke-opacity="0.25" stroke="green"/><polygon points="266.77525779048074,-5.684341886080802e-14 308.0708024496967,400.00000000000006 " stroke-opacity="0.25" stroke="green"/><polygon points="274.7446583317306,0.0 303.47378201193595,400.0 " stroke-opacity="0.25" stroke="green"/><polygon points="281.6244986590238,5.684341886080802e-14 299.50525684754035,399.99999999999994 " stroke-opacity="0.25" stroke="green"/><polygon points="287.6239254023567,5.684341886080802e-14 296.04458408913183,399.99999999999994 " stroke-opacity="0.25" stroke="green"/><polygon points="292.901775260358,0.0 293.0001413435223,400.0 " stroke-opacity="0.25" stroke="green"/><polygon points="297.58084436166916,0.0 290.3010956402618,400.0 " stroke-opacity="0.25" stroke="green"/><polygon points="34.90579979632227,-5.684341886080802e-14 400.0,380.1349867305891 " stroke-opacity="0.25" stroke="green"/><polygon points="101.79584015997948,0.0 384.96238973416325,400.0 " stroke-opacity="0.25" stroke="green"/><polygon points="146.71932097555433,-5.684341886080802e-14 362.04959801823685,400.00000000000006 " stroke-opacity="0.25" stroke="green"/><polygon points="178.97075551523463,0.0 345.6000623025777,400.0 " stroke-opacity="0.25" stroke="green"/><polygon points="203.24919696232905,0.0 333.2170754554917,400.0 " stroke-opacity="0.25" stroke="green"/><polygon points="222.18594697849733,0.0 323.5585672317344,400.0 " stroke-opacity="0.25" stroke="green"/><polygon points="237.36919232195214,-5.684341886080802e-14 315.81449816561314,400.00000000000006 " stroke-opacity="0.25" stroke="green"/><polygon points="249.8142929082994,0.0 309.46699364366015,400.0 " stroke-opacity="0.25" stroke="green"/><polygon points="260.20067957346123,0.0 304.1695164664816,400.0 " stroke-opacity="0.25" stroke="green"/><polygon points="269.0001675643058,-5.684341886080802e-14 299.68142178012516,400.00000000000006 " stroke-opacity="0.25" stroke="green"/><polygon points="276.55063045098575,5.684341886080802e-14 295.830380401752,399.99999999999994 " stroke-opacity="0.25" stroke="green"/><polygon points="283.10038056705736,0.0 292.48974300063406,400.0 " stroke-opacity="0.25" stroke="green"/><polygon points="288.83600005070315,5.684341886080802e-14 289.5643451417704,399.99999999999994 " stroke-opacity="0.25" stroke="green"/><polygon points="293.9004009914645,0.0 286.98129588078405,400.0 " stroke-opacity="0.25" stroke="green"/><polygon points="298.40489553482786,0.0 284.6838215225231,400.0 " stroke-opacity="0.25" stroke="green"/><polygon points="65.86446671530805,0.0 383.0101424826485,400.0 " stroke-opacity="0.25" stroke="green"/><polygon points="121.95954951062743,0.0 358.074505904008,400.0 " stroke-opacity="0.25" stroke="green"/><polygon points="160.84181702361155,0.0 340.7903868022504,400.0 " stroke-opacity="0.25" stroke="green"/><polygon points="189.38006797771408,5.684341886080802e-14 328.10443611067,399.99999999999994 " stroke-opacity="0.25" stroke="green"/><polygon points="211.21749057586584,-5.684341886080802e-14 318.39716754831505,400.00000000000006 " stroke-opacity="0.25" stroke="green"/><polygon points="228.46617231702334,-5.684341886080802e-14 310.7297065530703,400.00000000000006 " stroke-opacity="0.25" stroke="green"/><polygon points="242.43495974831603,0.0 304.52023881590776,400.0 " stroke-opacity="0.25" stroke="green"/><polygon points="253.97815310056512,-5.684341886080802e-14 299.3890069851442,400.00000000000006 " stroke-opacity="0.25" stroke="green"/><polygon points="263.6770658704878,0.0 295.0776029905875,400.0 " stroke-opacity="0.25" stroke="green"/><polygon points="271.9409976761666,0.0 291.4040831391422,400.0 " stroke-opacity="0.25" stroke="green"/><polygon points="279.06647654909904,0.0 288.23663346672544,400.0 " stroke-opacity="0.25" stroke="green"/><polygon points="285.2735950722822,-5.684341886080802e-14 285.47741743598345,400.00000000000006 " stroke-opacity="0.25" stroke="green"/><polygon points="290.7291476381883,0.0 283.0522908591054,400.0 " stroke-opacity="0.25" stroke="green"/><polygon points="295.56184300570914,5.684341886080802e-14 280.9040395441108,399.99999999999994 " stroke-opacity="0.25" stroke="green"/><polygon points="299.8725878047974,0.0 278.98780802546685,400.0 " stroke-opacity="0.25" stroke="green"/><polygon points="92.36108447395766,0.0 352.63781648880723,400.0 " stroke-opacity="0.25" stroke="green"/><polygon points="140.27526981393726,0.0 334.48659815051246,400.0 " stroke-opacity="0.25" stroke="green"/><polygon points="174.31524727773763,-5.684341886080802e-14 321.5913134077595,400.00000000000006 " stroke-opacity="0.25" stroke="green"/><polygon points="199.74507665479013,0.0 311.95779084960134,400.0 " stroke-opacity="0.25" stroke="green"/><polygon points="219.46479251912024,5.684341886080802e-14 304.48741718712927,399.99999999999994 " stroke-opacity="0.25" stroke="green"/><polygon points="235.20351954393936,0.0 298.52515218006994,400.0 " stroke-opacity="0.25" stroke="green"/><polygon points="248.0562451982493,-5.684341886080802e-14 293.6561842963789,400.00000000000006 " stroke-opacity="0.25" stroke="green"/><polygon points="258.750108572873,-5.684341886080802e-14 289.60505314147383,400.00000000000006 " stroke-opacity="0.25" stroke="green"/><polygon points="267.78690056905214,0.0 286.18166644635374,400.0 " stroke-opacity="0.25" stroke="green"/><polygon points="275.5240839258454,5.684341886080802e-14 283.25060744084055,399.99999999999994 " stroke-opacity="0.25" stroke="green"/><polygon points="282.2232029298873,-5.684341886080802e-14 280.7127959168883,400.00000000000006 " stroke-opacity="0.25" stroke="green"/><polygon points="288.08003328424473,0.0 278.4940666245509,400.0 " stroke-opacity="0.25" stroke="green"/><polygon points="293.2440322779149,0.0 276.53780100993697,400.0 " stroke-opacity="0.25" stroke="green"/><polygon points="297.83127187346395,5.684341886080802e-14 274.800027803984,399.99999999999994 " stroke-opacity="0.25" stroke="green"/><polygon points="301.9332675603876,0.0 273.2460784086685,400.0 " stroke-opacity="0.25" stroke="green"/><polygon points="115.73860459830743,0.0 326.293831932413,400.0 " stroke-opacity="0.25" stroke="green"/><polygon points="157.26080511332194,-5.684341886080802e-14 313.36068750970355,400.00000000000006 " stroke-opacity="0.25" stroke="green"/><polygon points="187.33374429653892,0.0 303.993706452636,400.0 " stroke-opacity="0.25" stroke="green"/><polygon points="210.11914839818627,0.0 296.89661337179496,400.0 " stroke-opacity="0.25" stroke="green"/><polygon points="227.9797111415793,5.684341886080802e-14 291.3334872713939,399.99999999999994 " stroke-opacity="0.25" stroke="green"/><polygon points="242.3563920518198,0.0 286.8555046927944,400.0 " stroke-opacity="0.25" stroke="green"/><polygon points="254.17795764041387,0.0 283.17337770618315,400.0 " stroke-opacity="0.25" stroke="green"/><polygon points="264.06998425947296,0.0 280.0922546609024,400.0 " stroke-opacity="0.25" stroke="green"/><polygon points="272.46924139144767,0.0 277.4760926034021,400.0 " stroke-opacity="0.25" stroke="green"/><polygon points="279.68992454903497,0.0 275.2270273575962,400.0 " stroke-opacity="0.25" stroke="green"/><polygon points="285.96383488846584,-5.684341886080802e-14 273.27285856334726,400.00000000000006 " stroke-opacity="0.25" stroke="green"/><polygon points="291.4657262434753,0.0 271.55915469867216,400.0 " stroke-opacity="0.25" stroke="green"/><polygon points="296.3298374624371,-5.684341886080802e-14 270.04410366325783,400.00000000000006 " stroke-opacity="0.25" stroke="green"/><polygon points="300.6609904255358,0.0 268.695056019014,400.0 " stroke-opacity="0.25" stroke="green"/><polygon points="304.5422295243386,0.0 267.48614548004264,400.0 " stroke-opacity="0.25" stroke="green"/><polygon points="136.90872530691203,0.0 302.855088732048,400.0 " stroke-opacity="0.25" stroke="green"/><polygon points="173.3012206085291,-5.684341886080802e-14 294.0902785199537,400.00000000000006 " stroke-opacity="0.25" stroke="green"/><polygon points="200.05710423077983,0.0 287.6463608918187,400.0 " stroke-opacity="0.25" stroke="green"/><polygon points="220.55647127326543,0.0 282.7092698760382,400.0 " stroke-opacity="0.25" stroke="green"/><polygon points="236.764109607157,-5.684341886080802e-14 278.80580371342774,400.00000000000006 " stroke-opacity="0.25" stroke="green"/><polygon points="249.90007313599642,0.0 275.6421232257598,400.0 " stroke-opacity="0.25" stroke="green"/><polygon points="260.7619947121195,-5.684341886080802e-14 273.0261256041529,400.00000000000006 " stroke-opacity="0.25" stroke="green"/><polygon points="269.8933416251631,5.684341886080802e-14 270.82692156468534,399.99999999999994 " stroke-opacity="0.25" stroke="green"/><polygon points="277.67718311454405,0.0 268.9522522733928,400.0 " stroke-opacity="0.25" stroke="green"/><polygon points="284.3912987444078,0.0 267.3352169821855,400.0 " stroke-opacity="0.25" stroke="green"/><polygon points="290.2420271505916,0.0 265.9261208578966,400.0 " stroke-opacity="0.25" stroke="green"/><polygon points="295.38584553661434,0.0 264.687277751775,400.0 " stroke-opacity="0.25" stroke="green"/><polygon points="299.9435728103989,0.0 263.5895894997844,400.0 " stroke-opacity="0.25" stroke="green"/><polygon points="304.00997944868516,0.0 262.61023147186165,400.0 " stroke-opacity="0.25" stroke="green"/><polygon points="307.6604484896727,0.0 261.7310483308265,400.0 " stroke-opacity="0.25" stroke="green"/><polygon points="156.52425376677812,0.0 281.52760828088105,400.0 " stroke-opacity="0.25" stroke="green"/><polygon points="188.69680831369544,-5.684341886080802e-14 276.2197860958327,400.00000000000006 " stroke-opacity="0.25" stroke="green"/><polygon points="212.62294242939421,-5.684341886080802e-14 272.27245685044903,400.00000000000006 " stroke-opacity="0.25" stroke="green"/><polygon points="231.11304392523533,5.684341886080802e-14 269.22196327586204,399.99999999999994 " stroke-opacity="0.25" stroke="green"/><polygon points="245.8307303404593,0.0 266.7938420536759,400.0 " stroke-opacity="0.25" stroke="green"/><polygon points="257.82362385594433,0.0 264.8152566674398,400.0 " stroke-opacity="0.25" stroke="green"/><polygon points="267.7843045170258,0.0 263.17194538751113,400.0 " stroke-opacity="0.25" stroke="green"/><polygon points="276.1889683153784,-5.684341886080802e-14 261.78534548597975,400.00000000000006 " stroke-opacity="0.25" stroke="green"/><polygon points="283.37581134592403,0.0 260.5996614327486,400.0 " stroke-opacity="0.25" stroke="green"/><polygon points="289.59164259794596,0.0 259.5741747257516,400.0 " stroke-opacity="0.25" stroke="green"/><polygon points="295.02079881444564,0.0 258.6784735227276,400.0 " stroke-opacity="0.25" stroke="green"/><polygon points="299.80373433236093,0.0 257.88938569276917,400.0 " stroke-opacity="0.25" stroke="green"/><polygon points="304.0493456674834,0.0 257.18894550854964,400.0 " stroke-opacity="0.25" stroke="green"/><polygon points="307.84336330541674,0.0 256.5630091701802,400.0 " stroke-opacity="0.25" stroke="green"/><polygon points="311.2542008842012,0.0 256.0002898081268,400.0 " stroke-opacity="0.25" stroke="green"/><polygon points="175.07796275978214,-5.684341886080802e-14 261.7232150885572,400.00000000000006 " stroke-opacity="0.25" stroke="green"/><polygon points="203.69360705004172,0.0 259.3941264042543,400.0 " stroke-opacity="0.25" stroke="green"/><polygon points="225.15534026773642,5.684341886080802e-14 257.64730989102713,399.99999999999994 " stroke-opacity="0.25" stroke="green"/><polygon points="241.8477994370545,5.684341886080802e-14 256.28867482518376,399.99999999999994 " stroke-opacity="0.25" stroke="green"/><polygon points="255.20176677250902,-5.684341886080802e-14 255.20176677250902,400.00000000000006 " stroke-opacity="0.25" stroke="green"/><polygon points="266.1277400469718,0.0 254.3124783657752,400.0 " stroke-opacity="0.25" stroke="green"/><polygon points="275.23271777569073,0.0 253.57140469349702,400.0 " stroke-opacity="0.25" stroke="green"/><polygon points="282.9369296999914,0.0 252.94434235541547,400.0 " stroke-opacity="0.25" stroke="green"/><polygon points="289.54053992082055,0.0 252.40686035134556,400.0 " stroke-opacity="0.25" stroke="green"/><polygon points="295.26366877887244,-5.684341886080802e-14 251.94104261448499,400.00000000000006 " stroke-opacity="0.25" stroke="green"/><polygon points="300.2714065296679,0.0 251.53345209473196,400.0 " stroke-opacity="0.25" stroke="green"/><polygon points="304.6899986627227,0.0 251.17381340083224,400.0 " stroke-opacity="0.25" stroke="green"/><polygon points="308.6176361143269,0.0 250.85413456181027,400.0 " stroke-opacity="0.25" stroke="green"/><polygon points="312.1318380447097,-5.684341886080802e-14 250.56810612689588,400.00000000000006 " stroke-opacity="0.25" stroke="green"/><polygon points="315.29461978205416,5.684341886080802e-14 250.31068053547293,399.99999999999994 " stroke-opacity="0.25" stroke="green"/><polygon points="192.96307122712312,-5.684341886080802e-14 242.98478679532707,400.00000000000006 " stroke-opacity="0.25" stroke="green"/><polygon points="218.504028170392,-5.684341886080802e-14 243.3256804097161,400.00000000000006 " stroke-opacity="0.25" stroke="green"/><polygon points="237.7714356508197,0.0 243.5828413371825,400.0 " stroke-opacity="0.25" stroke="green"/><polygon points="252.82389910358359,5.684341886080802e-14 243.78374566051184,399.99999999999994 " stroke-opacity="0.25" stroke="green"/><polygon points="264.90814507709126,0.0 243.94503336387493,400.0 " stroke-opacity="0.25" stroke="green"/><polygon points="274.82333994950693,5.684341886080802e-14 244.0773708727998,399.99999999999994 " stroke-opacity="0.25" stroke="green"/><polygon points="283.10538595027026,5.684341886080802e-14 244.18791084207376,399.99999999999994 " stroke-opacity="0.25" stroke="green"/><polygon points="290.12707928292957,0.0 244.2816289601779,400.0 " stroke-opacity="0.25" stroke="green"/><polygon points="296.1557756285351,0.0 244.3620936072885,400.0 " stroke-opacity="0.25" stroke="green"/><polygon points="301.3882064031827,0.0 244.43193054577017,400.0 " stroke-opacity="0.25" stroke="green"/><polygon points="305.9723541142399,0.0 244.4931148892381,400.0 " stroke-opacity="0.25" stroke="green"/><polygon points="310.02167114944507,0.0 244.54716087987987,400.0 " stroke-opacity="0.25" stroke="green"/><polygon points="313.6245961776182,5.684341886080802e-14 244.595248903283,399.99999999999994 " stroke-opacity="0.25" stroke="green"/><polygon points="316.85108772977003,0.0 244.6383126917484,400.0 " stroke-opacity="0.25" stroke="green"/><polygon points="319.75721156548263,-5.684341886080802e-14 244.67710055159324,400.00000000000006 " stroke-opacity="0.25" stroke="green"/><polygon points="210.51290462350346,0.0 224.93811510706834,400.0 " stroke-opacity="0.25" stroke="green"/><polygon points="233.3218299601248,-5.684341886080802e-14 227.77154499774255,400.00000000000006 " stroke-opacity="0.25" stroke="green"/><polygon points="250.58687857858934,0.0 229.91628895641375,400.0 " stroke-opacity="0.25" stroke="green"/><polygon points="264.1102513016524,-5.684341886080802e-14 231.5962246802917,400.00000000000006 " stroke-opacity="0.25" stroke="green"/><polygon points="274.9893735183458,0.0 232.94767941207536,400.0 " stroke-opacity="0.25" stroke="green"/><polygon points="283.93072817234946,0.0 234.05841572103668,400.0 " stroke-opacity="0.25" stroke="green"/><polygon points="291.4097045140952,0.0 234.9874886521635,400.0 " stroke-opacity="0.25" stroke="green"/><polygon points="297.7579449279662,0.0 235.77609635184186,400.0 " stroke-opacity="0.25" stroke="green"/><polygon points="303.2138586036992,-5.684341886080802e-14 236.4538551090657,400.00000000000006 " stroke-opacity="0.25" stroke="green"/><polygon points="307.953232931851,0.0 237.04260204414902,400.0 " stroke-opacity="0.25" stroke="green"/><polygon points="312.10852726374435,0.0 237.55879186856095,400.0 " stroke-opacity="0.25" stroke="green"/><polygon points="315.7814474279711,-5.684341886080802e-14 238.01505894935457,400.00000000000006 " stroke-opacity="0.25" stroke="green"/><polygon points="319.0513812857422,0.0 238.4212652127536,400.0 " stroke-opacity="0.25" stroke="green"/><polygon points="321.9812020838764,0.0 238.78522106342334,400.0 " stroke-opacity="0.25" stroke="green"/><polygon points="324.62135046913517,5.684341886080802e-14 239.11319247111595,399.99999999999994 " stroke-opacity="0.25" stroke="green"/></svg>
