<?xml version="1.0" encoding="UTF-8"?>
<!DOCTYPE svg PUBLIC "-//W3C//DTD SVG 1.1//EN"
    "http://www.w3.org/Graphics/SVG/1.1/DTD/svg11.dtd"><svg width="400" height="400" stroke="black" fill="none" fill-opacity="0.75" font-size="14" font-style="italic" font-family="sans-serif" xmlns="http://www.w3.org/2000/svg" xmlns:xlink="http://www.w3.org/1999/xlink" version="1.1"><filter id="blur1"><feGaussianBlur stdDeviation="0.5"/></filter><rect width="100%" height="100%" fill="white" stroke="none" fill-opacity="1"/><rect class="bg" fill="black" width="100%" height="100%" stroke="none" fill-opacity="1"/><polyline class="polyline" opacity="0.5" stroke="blue" points="267.2177550395691,198.94219852077634 331.31440180341457,197.24370042763545 "/><polyline class="polyline" opacity="0.5" stroke="blue" points="266.7657594484813,198.7240292701389 330.1145186582863,196.1410066395153 "/><polyline class="polyline" opacity="0.5" stroke="blue" points="266.28783002771075,198.50760540376297 328.86668225022385,195.05099850353199 "/><polyline class="polyline" opacity="0.5" stroke="blue" points="265.78437125284347,198.29299914693829 327.5722984159619,193.97370657817964 "/><polyline class="polyline" opacity="0.5" stroke="blue" points="265.25579118490765,198.08028076823823 326.2327610636421,192.90914836942807 "/><polyline class="polyline" opacity="0.5" stroke="blue" points="264.70250109347097,197.869518602815 324.84945098822504,191.85732899241623 "/><polyline class="polyline" opacity="0.5" stroke="blue" points="264.1249150947956,197.66077907718613 323.4237348036903,190.81824181993503 "/><polyline class="polyline" opacity="0.5" stroke="blue" points="263.52344980499544,197.45412673538928 321.9569639871782,189.79186911668253 "/><polyline class="polyline" opacity="0.5" stroke="blue" points="262.89852400811105,197.24962426638723 320.4504740301707,188.77818265842052 "/><polyline class="polyline" opacity="0.5" stroke="blue" points="262.250558338989,197.04733253260804 318.9055836918027,187.77714433529792 "/><polyline class="polyline" opacity="0.5" stroke="blue" points="261.5799749808285,196.847310599509 317.32359434939434,186.78870673873337 "/><polyline class="polyline" opacity="0.5" stroke="blue" points="260.88719737723295,196.64961576605697 315.7057894413369,185.81281373136872 "/><polyline class="polyline" opacity="0.5" stroke="blue" points="260.1726499585849,196.45430359602122 314.0534339975148,184.84940099971425 "/><polyline class="polyline" opacity="0.5" stroke="blue" points="259.4367578825414,196.26142794997924 312.3677742525224,183.89839658920886 "/><polyline class="polyline" opacity="0.5" stroke="blue" points="258.6799467884306,196.07104101793897 310.6500373370241,182.95972142151078 "/><polyline class="polyline" opacity="0.5" stroke="blue" points="257.90264256531293,195.8831933524857 308.90143104270896,182.03328979392063 "/><polyline class="polyline" opacity="0.5" stroke="blue" points="257.1052711334584,195.69793390236518 307.1231436564074,181.1190098609159 "/><polyline class="polyline" opacity="0.5" stroke="blue" points="256.2882582389754,195.51531004641814 305.3163438590642,180.21678409784658 "/><polyline class="polyline" opacity="0.5" stroke="blue" points="255.452029261319,195.33536762778562 303.48218068539256,179.32650974690614 "/><polyline class="polyline" opacity="0.5" stroke="blue" points="254.59700903339484,195.15815098830797 301.6217835401766,178.44807924554686 "/><polyline class="polyline" opacity="0.5" stroke="blue" points="253.72362167396636,194.98370300304413 299.7362622673323,177.58138063756306 "/><polyline class="polyline" opacity="0.5" stroke="blue" points="252.8322904320671,194.81206511484092 297.8267072679853,176.72629796710692 "/><polyline class="polyline" opacity="0.5" stroke="blue" points="251.92343754311406,194.64327736888663 295.8941896639741,175.88271165594432 "/><polyline class="polyline" opacity="0.5" stroke="blue" points="250.99748409641182,194.47737844718517 293.93976150333697,175.05049886429066 "/><polyline class="polyline" opacity="0.5" stroke="blue" points="250.05484991373555,194.31440570289197 291.9644560044935,174.22953383559764 "/><polyline class="polyline" opacity="0.5" stroke="blue" points="249.09595343867733,194.15439519445448 289.9692878359794,173.41968822568612 "/><polyline class="polyline" opacity="0.5" stroke="blue" points="248.1212116364387,193.99738171950455 287.95525342874345,172.62083141664274 "/><polyline class="polyline" opacity="0.5" stroke="blue" points="247.13103990375146,193.84339884845218 285.92333131815985,171.83283081591404 "/><polyline class="polyline" opacity="0.5" stroke="blue" points="246.12585198860918,193.69247895773378 283.87448251305153,171.05555214104714 "/><polyline class="polyline" opacity="0.5" stroke="blue" points="245.1060599194919,193.54465326266978 281.809650889161,170.28885969053584 "/><polyline class="polyline" opacity="0.5" stroke="blue" points="244.07207394376837,193.39995184989087 279.7297636046379,169.53261660123923 "/><polyline class="polyline" opacity="0.5" stroke="blue" points="243.0243024749619,193.25840370929274 277.63573153524544,168.78668509284552 "/><polyline class="polyline" opacity="0.5" stroke="blue" points="241.96315204856825,193.12003676548386 275.5284497271118,168.0509266998563 "/><polyline class="polyline" opacity="0.5" stroke="blue" points="240.8890272861176,192.98487790869092 273.40879786497686,167.3252024915671 "/><polyline class="polyline" opacity="0.5" stroke="blue" points="239.80233086717502,192.85295302509124 271.2776407539961,166.6093732805191 "/><polyline class="polyline" opacity="0.5" stroke="blue" points="238.70346350897836,192.72428702654156 269.13582881327824,165.90329981989436 "/><polyline class="polyline" opacity="0.5" stroke="blue" points="237.5928239534171,192.59890387967613 266.9841985794376,165.2068429903211 "/><polyline class="polyline" opacity="0.5" stroke="blue" points="236.47080896105862,192.4768266343482 264.82357321854016,164.5198639765515 "/><polyline class="polyline" opacity="0.5" stroke="blue" points="235.33781331193399,192.35807745139138 262.6547630449192,163.84222443446578 "/><polyline class="polyline" opacity="0.5" stroke="blue" points="234.1942298128011,192.2426776296785 260.4785660454242,163.17378664884944 "/><polyline class="polyline" opacity="0.5" stroke="blue" points="233.04044931060557,192.1306476324582 258.2957684077504,162.5144136823809 "/><polyline class="polyline" opacity="0.5" stroke="blue" points="231.87686071186766,192.02200711295004 256.1071450515745,161.863969516257 "/><polyline class="polyline" opacity="0.5" stroke="blue" points="230.70385100772688,191.91677493918098 253.9134601612947,161.22231918287372 "/><polyline class="polyline" opacity="0.5" stroke="blue" points="229.52180530438173,191.81496921804745 251.71546771924102,160.5893288909681 "/><polyline class="polyline" opacity="0.5" stroke="blue" points="228.33110685866816,191.71660731858836 249.5139120382839,159.9648661436157 "/><polyline class="polyline" opacity="0.5" stroke="blue" points="227.1321371185244,191.62170589445554 247.30952829282705,159.3487998494668 "/><polyline class="polyline" opacity="0.5" stroke="blue" points="225.92527576809573,191.53028090556973 245.1030430472208,158.74100042759125 "/><polyline class="polyline" opacity="0.5" stroke="blue" points="224.71090077723846,191.44234763895025 242.8951747806828,158.14133990629063 "/><polyline class="polyline" opacity="0.5" stroke="blue" points="223.48938845518657,191.35792072870888 240.68663440785318,157.54969201622248 "/><polyline class="polyline" opacity="0.5" stroke="blue" points="222.26111350815037,191.2770141751979 238.47812579415051,156.96593227816982 "/><polyline class="polyline" opacity="0.5" stroke="blue" points="221.02644910062108,191.19964136330424 236.27034626512858,156.38993808577584 "/><polyline class="polyline" opacity="0.5" stroke="blue" points="219.78576692016023,191.12581507988165 234.0639871090641,155.82158878355017 "/><polyline class="polyline" opacity="0.5" stroke="blue" points="218.53943724545707,191.055547530314 231.85973407202994,155.26076574044185 "/><polyline class="polyline" opacity="0.5" stroke="blue" points="217.28782901744265,190.988850354203 229.65826784473109,154.70735241925965 "/><polyline class="polyline" opacity="0.5" stroke="blue" points="216.03130991325185,190.92573464017474 227.46026454039753,154.16123444220815 "/><polyline class="polyline" opacity="0.5" stroke="blue" points="214.77024642283072,190.86621093979923 225.26639616304254,153.62229965279653 "/><polyline class="polyline" opacity="0.5" stroke="blue" points="213.50500392798892,190.8102892806185 223.07733106540596,153.09043817436188 "/><polyline class="polyline" opacity="0.5" stroke="blue" points="212.2359467837011,190.75797917827828 220.89373439590855,152.5655424654391 "/><polyline class="polyline" opacity="0.5" stroke="blue" points="210.96343840146494,190.70928964775933 218.71626853394807,152.04750737219462 "/><polyline class="polyline" opacity="0.5" stroke="blue" points="209.68784133452618,190.66422921370474 216.54559351286983,151.53623017813095 "/><polyline class="polyline" opacity="0.5" stroke="blue" points="208.4095173647843,190.62280591983904 214.3823674299408,151.03161065125522 "/><polyline class="polyline" opacity="0.5" stroke="blue" points="207.12882759119492,190.58502733747648 212.22724684265447,150.5335510888944 "/><polyline class="polyline" opacity="0.5" stroke="blue" points="205.8461325194874,190.55090057311523 210.08088715068473,150.04195636032605 "/><polyline class="polyline" opacity="0.5" stroke="blue" points="204.5617921530191,190.5204322751142 207.94394296280106,149.55673394738434 "/><polyline class="polyline" opacity="0.5" stroke="blue" points="203.2761660845875,190.49362863945024 205.81706844804225,149.07779398318604 "/><polyline class="polyline" opacity="0.5" stroke="blue" points="201.98961358902605,190.47049541455286 203.70091767043706,148.6050492891134 "/><polyline class="polyline" opacity="0.5" stroke="blue" points="200.70249371640782,190.45103790521398 201.59614490654303,148.1384154101757 "/><polyline class="polyline" opacity="0.5" stroke="blue" points="199.41516538568428,190.43526097557054 199.5034049450594,147.677810648863 "/><polyline class="polyline" opacity="0.5" stroke="blue" points="198.12798747858608,190.42316905115746 197.42335336775312,147.22315609759198 "/><polyline class="polyline" opacity="0.5" stroke="blue" points="196.8413189336136,190.4147661200287 195.356646810918,146.77437566983497 "/><polyline class="polyline" opacity="0.5" stroke="blue" points="195.5555188399448,190.41005573294473 193.30394320656828,146.33139613000918 "/><polyline class="polyline" opacity="0.5" stroke="blue" points="194.27094653108838,190.40904100262372 191.26590200254827,145.89414712219548 "/><polyline class="polyline" opacity="0.5" stroke="blue" points="192.987961678109,190.411724602055 189.2431843607193,145.46256119774253 "/><polyline class="polyline" opacity="0.5" stroke="blue" points="191.70692438225106,190.41810876187253 187.23645333236544,145.03657384180255 "/><polyline class="polyline" opacity="0.5" stroke="blue" points="190.42819526678673,190.42819526678673 185.24637400994015,144.6161234988335 "/><polyline class="polyline" opacity="0.5" stroke="blue" points="189.1521355679117,190.4419854510728 183.27361365425577,144.20115159709297 "/><polyline class="polyline" opacity="0.5" stroke="blue" points="187.8791072245115,190.45948019311405 181.31884179619996,143.79160257213576 "/><polyline class="polyline" opacity="0.5" stroke="blue" points="186.60947296661908,190.48067990899844 179.38273031204685,143.38742388932005 "/><polyline class="polyline" opacity="0.5" stroke="blue" points="185.34359640238122,190.50558454516732 177.4659534714122,142.9885660653129 "/><polyline class="polyline" opacity="0.5" stroke="blue" points="184.08184210335074,190.53419357011475 175.56918795689185,142.59498268857823 "/><polyline class="polyline" opacity="0.5" stroke="blue" points="182.8245756879168,190.56650596513649 173.69311285440747,142.20663043881765 "/><polyline class="polyline" opacity="0.5" stroke="blue" points="181.57216390268425,190.60252021412805 171.83840961327698,141.82346910532576 "/><polyline class="polyline" opacity="0.5" stroke="blue" points="180.3249747016087,190.64223429243097 170.00576197502,141.44546160421004 "/><polyline class="polyline" opacity="0.5" stroke="blue" points="179.0833773226907,190.68564565472693 168.1958558699054,141.07257399441616 "/><polyline class="polyline" opacity="0.5" stroke="blue" points="177.8477423620295,190.73275122198004 166.4093792802508,140.70477549248838 "/><polyline class="polyline" opacity="0.5" stroke="blue" points="176.61844184503158,190.7835473674275 164.64702206948792,140.3420384859856 "/><polyline class="polyline" opacity="0.5" stroke="blue" points="175.39584929456657,190.83802990161936 162.90947577601773,139.9843385454631 "/><polyline class="polyline" opacity="0.5" stroke="blue" points="174.18033979585715,190.89619405650896 161.19743337089545,139.63165443492085 "/><polyline class="polyline" opacity="0.5" stroke="blue" points="172.97229005788665,190.9580344685954 159.51158897840597,139.28396812060888 "/><polyline class="polyline" opacity="0.5" stroke="blue" points="171.77207847110216,191.0235451611208 157.8526375586166,138.94126477807194 "/><polyline class="polyline" opacity="0.5" stroke="blue" points="170.58008516118673,191.0927195253251 156.2212745510284,138.6035327973064 "/><polyline class="polyline" opacity="0.5" stroke="blue" points="169.39669203866907,191.16555030076213 154.61819547848688,138.27076378589237 "/><polyline class="polyline" opacity="0.5" stroke="blue" points="168.22228284413387,191.24202955468175 153.0440955105628,137.94295256995778 "/><polyline class="polyline" opacity="0.5" stroke="blue" points="167.05724318879135,191.32214866048275 151.4996689856665,137.62009719282165 "/><polyline class="polyline" opacity="0.5" stroke="blue" points="165.90196059015824,191.40589827524335 149.98560889122717,137.3021989111565 "/><polyline class="polyline" opacity="0.5" stroke="blue" points="164.756824502598,191.49326831633618 148.50260630133945,136.9892621885031 "/><polyline class="polyline" opacity="0.5" stroke="blue" points="163.62222634246262,191.58424793713633 147.05134977136254,136.68129468596442 "/><polyline class="polyline" opacity="0.5" stroke="blue" points="162.49855950757254,191.67882550183162 145.63252468905029,136.37830724989917 "/><polyline class="polyline" opacity="0.5" stroke="blue" points="161.38621939076572,191.77698855934614 144.24681258189207,136.08031389643102 "/><polyline class="polyline" opacity="0.5" stroke="blue" points="160.28560338724307,191.87872381638914 142.89489038045627,135.78733179258393 "/><polyline class="polyline" opacity="0.5" stroke="blue" points="159.19711089543017,191.98401710964262 141.5774296376534,135.49938123385198 "/><polyline class="polyline" opacity="0.5" stroke="blue" points="158.12114331107196,192.0928533771029 140.29509570396763,135.21648561800833 "/><polyline class="polyline" opacity="0.5" stroke="blue" points="157.05810401427078,192.2052166285931 139.0485468588527,134.9386714149565 "/><polyline class="polyline" opacity="0.5" stroke="blue" points="156.00839834917477,192.32108991546465 137.83843339864308,134.66596813242654 "/><polyline class="polyline" opacity="0.5" stroke="blue" points="154.97243359601828,192.4404552995087 136.66539668149917,134.3984082773194 "/><polyline class="polyline" opacity="0.5" stroke="blue" points="153.9506189352117,192.56329382109942 135.53006813008432,134.13602731250413 "/><polyline class="polyline" opacity="0.5" stroke="blue" points="152.94336540317553,192.68958546659414 134.43306819286073,133.8788636088756 "/><polyline class="polyline" opacity="0.5" stroke="blue" points="151.95108583960803,192.8193091350166 133.3750052650918,133.6269583924851 "/><polyline class="polyline" opacity="0.5" stroke="blue" points="150.97419482587526,192.95244260405272 132.35647457084897,133.38035568656173 "/><polyline class="polyline" opacity="0.5" stroke="blue" points="150.01310861420762,193.0889624953903 131.37805700754262,133.13910224824946 "/><polyline class="polyline" opacity="0.5" stroke="blue" points="149.0682450473862,193.22884423943654 130.4403179547266,132.90324749989486 "/><polyline class="polyline" opacity="0.5" stroke="blue" points="148.14002346860087,193.37206203945075 129.54380604916378,132.6728434547292 "/><polyline class="polyline" opacity="0.5" stroke="blue" points="147.22886462116085,193.51858883513125 128.68905192838932,132.44794463680222 "/><polyline class="polyline" opacity="0.5" stroke="blue" points="146.335190537739,193.66839626569944 127.87656694525927,132.22860799503962 "/><polyline class="polyline" opacity="0.5" stroke="blue" points="145.45942441883145,193.8214546325266 127.10684185623313,132.01489281130836 "/><polyline class="polyline" opacity="0.5" stroke="blue" points="144.60199050011636,193.97773286135228 126.38034548640388,131.80686060239685 "/><polyline class="polyline" opacity="0.5" stroke="blue" points="143.7633139083979,194.13719846414642 125.69752337455394,131.60457501583198 "/><polyline class="polyline" opacity="0.5" stroke="blue" points="142.943820505825,194.299817500671 125.05879640178634,131.40810171947845 "/><polyline class="polyline" opacity="0.5" stroke="blue" points="142.14393672207953,194.46555453979988 124.46455940754848,131.2175082848884 "/><polyline class="polyline" opacity="0.5" stroke="blue" points="141.36408937423423,194.63437262066043 123.9151797971321,131.03286406439398 "/><polyline class="polyline" opacity="0.5" stroke="blue" points="140.604705473987,194.80623321366252 123.41099614499693,130.8542400619629 "/><polyline class="polyline" opacity="0.5" stroke="blue" points="139.8662120219883,194.9810961814863 122.95231679852162,130.68170879786408 "/><polyline class="polyline" opacity="0.5" stroke="blue" points="139.14903578898583,195.15891974010242 122.53941848703495,130.51534416722188 "/><polyline class="polyline" opacity="0.5" stroke="blue" points="138.4536030835236,195.33966041990334 122.17254494121705,130.3552212925671 "/><polyline class="polyline" opacity="0.5" stroke="blue" points="137.78033950594445,195.52327302702844 121.85190552818787,130.20141637052876 "/><polyline class="polyline" opacity="0.5" stroke="blue" points="137.12966968845961,195.7097106049695 121.57767390780695,130.0540065128404 "/><polyline class="polyline" opacity="0.5" stroke="blue" points="136.50201702106392,195.89892439654716 121.34998671590247,129.91306958187482 "/><polyline class="polyline" opacity="0.5" stroke="blue" points="135.89780336309508,196.09086380635446 121.16894228031776,129.7786840209531 "/><polyline class="polyline" opacity="0.5" stroke="blue" points="135.31744874025281,196.28547636376607 121.03459937581069,129.65092867971396 "/><polyline class="polyline" opacity="0.5" stroke="blue" points="134.76137102691615,196.48270768661766 120.9469760239641,129.52988263486395 "/><polyline class="polyline" opacity="0.5" stroke="blue" points="134.22998561362095,196.6825014456636 120.90604834435979,129.4156250066696 "/><polyline class="polyline" opacity="0.5" stroke="blue" points="133.723705059584,196.8847993299253 120.91174946332941,129.30823477158768 "/><polyline class="polyline" opacity="0.5" stroke="blue" points="133.24293873018894,197.0895410130471 120.96396848662766,129.20779057146882 "/><polyline class="polyline" opacity="0.5" stroke="blue" points="132.7880924193782,197.29666412078092 121.0625495423663,129.11437051980556 "/><polyline class="polyline" opacity="0.5" stroke="blue" points="132.35956795692664,197.5061041997248 121.20729090050497,129.02805200553257 "/><polyline class="polyline" opacity="0.5" stroke="blue" points="131.9577628006084,197.7177946874444 121.3979441751128,128.94891149492065 "/><polyline class="polyline" opacity="0.5" stroke="blue" points="131.58306961330248,197.931666884111 121.63421361549146,128.87702433214025 "/><polyline class="polyline" opacity="0.5" stroke="blue" points="131.23587582512357,198.1476499257928 121.91575549208602,128.81246453910026 "/><polyline class="polyline" opacity="0.5" stroke="blue" points="130.91656318070426,198.36567075954002 122.2421775829012,128.75530461519818 "/><polyline class="polyline" opacity="0.5" stroke="blue" points="130.62550727179877,198.5856541204083 122.6130387658891,128.7056153376438 "/><polyline class="polyline" opacity="0.5" stroke="blue" points="130.36307705542356,198.8075225105669 123.02784872247908,128.6634655630416 "/><polyline class="polyline" opacity="0.5" stroke="blue" points="130.12963435779892,199.03119618064267 123.48606775708015,128.6289220309389 "/><polyline class="polyline" opacity="0.5" stroke="blue" points="129.92553336440517,199.25659311345157 123.98710673700376,128.60204917006195 "/><polyline class="polyline" opacity="0.5" stroke="blue" points="129.75112009652014,199.48362901027386 124.53032715682887,128.58290890797764 "/><polyline class="polyline" opacity="0.5" stroke="blue" points="129.6067318746587,199.71221727982913 125.11504133076573,128.57156048492476 "/><polyline class="polyline" opacity="0.5" stroke="blue" points="129.4926967693932,199.94226903011017 125.74051271606794,128.5680602725659 "/><polyline class="polyline" opacity="0.5" stroke="blue" points="129.40933304009053,200.17369306323513 126.40595637000165,128.57246159841142 "/><polyline class="polyline" opacity="0.5" stroke="blue" points="129.35694856216423,200.40639587347866 127.11053954230294,128.58481457665877 "/><polyline class="polyline" opacity="0.5" stroke="blue" points="129.33584024350114,200.64028164864195 127.85338240444844,128.60516594618747 "/><polyline class="polyline" opacity="0.5" stroke="blue" points="129.34629343078717,200.8752522749223 128.6335589164292,128.6335589164292 "/><polyline class="polyline" opacity="0.5" stroke="blue" points="129.3885813065213,201.1112073454413 129.45009783106093,128.6700330218182 "/><polyline class="polyline" opacity="0.5" stroke="blue" points="129.4629642775759,201.34804417258863 130.30198383518805,128.7146239855005 "/><polyline class="polyline" opacity="0.5" stroke="blue" points="129.56968935622615,201.5856578043379 131.1881588264468,128.76736359295114 "/><polyline class="polyline" opacity="0.5" stroke="blue" points="129.7089895346431,201.82394104468617 132.10752332355707,128.8282795761151 "/><polyline class="polyline" opacity="0.5" stroke="blue" points="129.88108315391355,202.06278447836627 133.05893800740697,128.89739550865033 "/><polyline class="polyline" opacity="0.5" stroke="blue" points="130.08617326871803,202.30207649997695 134.04122538949508,128.97473071280217 "/><polyline class="polyline" opacity="0.5" stroke="blue" points="130.3244470088702,202.54170334766968 135.05317160360107,129.06030017839865 "/><polyline class="polyline" opacity="0.5" stroke="blue" points="130.59607493898903,202.78154914152628 136.0935283158759,129.15411449439674 "/><polyline class="polyline" opacity="0.5" stroke="blue" points="130.9012104176442,203.02149592675366 137.16101474788016,129.25617979335837 "/><polyline class="polyline" opacity="0.5" stroke="blue" points="131.2399889573828,203.26142372181565 138.25431980646383,129.36649770917506 "/><polyline class="polyline" opacity="0.5" stroke="blue" points="131.6125275871131,203.50121057161198 139.3721043137706,129.48506534829633 "/><polyline class="polyline" opacity="0.5" stroke="blue" points="132.01892421838357,203.74073260580687 140.5130033300814,129.61187527465515 "/><polyline class="polyline" opacity="0.5" stroke="blue" points="132.4592570171601,203.9798641023976 141.67562856167666,129.74691550841476 "/><polyline class="polyline" opacity="0.5" stroke="blue" points="132.93358378276292,204.21847755660423 142.85857084541135,129.89016953859425 "/><polyline class="polyline" opacity="0.5" stroke="blue" points="133.44194133568237,204.45644375514797 144.06040270125982,130.0416163495622 "/><polyline class="polyline" opacity="0.5" stroke="blue" points="133.98434491604527,204.6936318559741 145.2796809437006,130.20123046131448 "/><polyline class="polyline" opacity="0.5" stroke="blue" points="134.56078759455383,204.92990947346095 146.5149493424849,130.36898198338793 "/><polyline class="polyline" opacity="0.5" stroke="blue" points="135.17123969776355,205.16514276914137 147.76474132306382,130.54483668218882 "/><polyline class="polyline" opacity="0.5" stroke="blue" points="135.81564824960697,205.39919654794897 149.0275826967408,130.72875606144885 "/><polyline class="polyline" opacity="0.5" stroke="blue" points="136.49393643110417,205.63193435998355 150.3019944104729,130.9206974554554 "/><polyline class="polyline" opacity="0.5" stroke="blue" points="137.2060030602313,205.86321860777414 151.58649530616628,131.12061413464036 "/><polyline class="polyline" opacity="0.5" stroke="blue" points="137.95172209393834,206.09291065899956 152.8796048792943,131.32845542304784 "/><polyline class="polyline" opacity="0.5" stroke="blue" points="138.73094215432627,206.32087096460816 154.17984602671916,131.54416682714705 "/><polyline class="polyline" opacity="0.5" stroke="blue" points="139.5434860809996,206.5469591822592 155.48574777371186,131.76769017540013 "/><polyline class="polyline" opacity="0.5" stroke="blue" points="140.38915051161302,206.77103430498818 156.7958479703405,131.99896376794575 "/><polyline class="polyline" opacity="0.5" stroke="blue" points="141.26770549262264,206.9929547949785 158.10869594763628,132.23792253571406 "/><polyline class="polyline" opacity="0.5" stroke="blue" points="142.17889412223704,207.21257872230103 159.42285512423967,132.484498208246 "/><polyline class="polyline" opacity="0.5" stroke="blue" points="143.12243222754034,207.42976390846175 160.7369055545803,132.7386194894571 "/><polyline class="polyline" opacity="0.5" stroke="blue" points="144.0980080777234,207.64436807457628 162.04944641004485,133.00021224055246 "/><polyline class="polyline" opacity="0.5" stroke="blue" points="145.10528213532018,207.8562489939692 163.35909838503503,133.26919966927517 "/><polyline class="polyline" opacity="0.5" stroke="blue" points="146.14388684729016,208.06526464897325 164.66450602030918,133.54550252465157 "/><polyline class="polyline" opacity="0.5" stroke="blue" points="147.2134264777298,208.2712733916832 165.9643399365304,133.8290392963805 "/><polyline class="polyline" opacity="0.5" stroke="blue" points="148.3134769839208,208.4741341083964 167.25729897150558,134.1197264180056 "/><polyline class="polyline" opacity="0.5" stroke="blue" points="149.44358593734347,208.67370638745234 168.54211221519122,134.41747847300746 "/><polyline class="polyline" opacity="0.5" stroke="blue" points="150.6032724911911,208.86985069016092 169.81754093715304,134.72220840295034 "/><polyline class="polyline" opacity="0.5" stroke="blue" points="151.79202739581967,209.06242852449105 171.08238040179882,135.03382771682982 "/><polyline class="polyline" opacity="0.5" stroke="blue" points="153.0093130634565,209.25130262116934 172.33546156734477,135.35224670077588 "/><polyline class="polyline" opacity="0.5" stroke="blue" points="154.25456368337046,209.43633711182144 173.57565266512512,135.6773746272837 "/><polyline class="polyline" opacity="0.5" stroke="blue" points="155.52718538857664,209.61739770876974 174.8018606565052,136.00911996316628 "/><polyline class="polyline" opacity="0.5" stroke="blue" points="156.82655647500894,209.7943518860848 176.0130325653055,136.34739057544562 "/><polyline class="polyline" opacity="0.5" stroke="blue" points="158.15202767394732,209.96706906147125 177.20815668428264,136.6920939344309 "/><polyline class="polyline" opacity="0.5" stroke="blue" points="159.50292247833076,210.13542077855564 178.38626365483896,137.0431373132616 "/><polyline class="polyline" opacity="0.5" stroke="blue" points="160.87853752342346,210.29928088912925 179.54642741974237,137.40042798323162 "/><polyline class="polyline" opacity="0.5" stroke="blue" points="162.27814302213278,210.45852573488884 180.6877660492241,137.76387340424498 "/><polyline class="polyline" opacity="0.5" stroke="blue" points="163.7009832551003,210.6130343282068 181.80944244138706,138.13338140979744 "/><polyline class="polyline" opacity="0.5" stroke="blue" points="165.14627711550807,210.7626885314554 182.91066489839295,138.50886038591827 "/><polyline class="polyline" opacity="0.5" stroke="blue" points="166.613218708352,210.90737323440274 183.99068758039994,138.8902194435505 "/><polyline class="polyline" opacity="0.5" stroke="blue" points="168.10097800374996,211.04697652919364 185.04881083969784,139.27736858389372 "/><polyline class="polyline" opacity="0.5" stroke="blue" points="169.6087015436535,211.18138988242669 186.08438143792245,139.67021885627668 "/><polyline class="polyline" opacity="0.5" stroke="blue" points="171.135513201143,211.31050830383808 187.09679264963512,140.0686825081765 "/><polyline class="polyline" opacity="0.5" stroke="blue" points="172.68051499128646,211.43423051110472 188.08548425591388,140.4726731270425 "/><polyline class="polyline" opacity="0.5" stroke="blue" points="174.24278793234987,211.5524590902832 189.04994243193255,140.8821057736332 "/><polyline class="polyline" opacity="0.5" stroke="blue" points="175.82139295595152,211.6651006514073 189.98969953278674,141.2968971066154 "/><polyline class="polyline" opacity="0.5" stroke="blue" points="177.41537186456108,211.772065978775 190.9043337820777,141.71696549822204 "/><polyline class="polyline" opacity="0.5" stroke="blue" points="179.02374833455895,211.8732701754674 191.79346886797362,142.14223114080613 "/><polyline class="polyline" opacity="0.5" stroke="blue" points="180.64552896288268,211.96863280165329 192.6567734516392,142.57261614417084 "/><polyline class="polyline" opacity="0.5" stroke="blue" points="182.27970435511588,212.05807800624981 193.49396059306352,143.00804462359494 "/><polyline class="polyline" opacity="0.5" stroke="blue" points="183.92525025269808,212.14153465152557 194.30478709941147,143.44844277851206 "/><polyline class="polyline" opacity="0.5" stroke="blue" points="185.5811286967758,212.21893643025257 195.08905280109417,143.89373896183733 "/><polyline class="polyline" opacity="0.5" stroke="blue" points="187.24628922605683,212.29022197503403 195.84659976078322,144.34386373997006 "/><polyline class="polyline" opacity="0.5" stroke="blue" points="188.91967010588849,212.35533495945847 196.57731142059848,144.79874994353332 "/><polyline class="polyline" opacity="0.5" stroke="blue" points="190.6001995856438,212.414224190756 197.28111169266984,145.2583327089402 "/><polyline class="polyline" opacity="0.5" stroke="blue" points="192.28679718138082,212.46684369365792 197.95796399822083,145.72254951090568 "/><polyline class="polyline" opacity="0.5" stroke="blue" points="193.97837498062702,212.5131527851908 198.60787026024204,146.19134018604655 "/><polyline class="polyline" opacity="0.5" stroke="blue" points="195.67383896604724,212.55311614016415 199.23086985472057,146.66464694773754 "/><polyline class="polyline" opacity="0.5" stroke="blue" points="197.37209035466904,212.5867038471428 199.82703852526882,147.1424143924089 "/><polyline class="polyline" opacity="0.5" stroke="blue" points="199.07202694927076,212.6138914547264 200.39648726585506,147.62458949749367 "/><polyline class="polyline" opacity="0.5" stroke="blue" points="200.7725444984867,212.63466000799207 200.9393611761802,148.11112161124498 "/><polyline class="polyline" opacity="0.5" stroke="blue" points="202.47253806214,212.64899607498862 201.4558382940733,148.60196243466152 "/><polyline class="polyline" opacity="0.5" stroke="blue" points="204.1709033782974,212.65689176320674 201.9461284090947,149.09706599576865 "/><polyline class="polyline" opacity="0.5" stroke="blue" points="205.86653822852588,212.65834472598246 202.41047186134088,149.5963886165153 "/><polyline class="polyline" opacity="0.5" stroke="blue" points="207.55834379784542,212.65335815882705 202.84913832924295,150.09988887255355 "/><polyline class="polyline" opacity="0.5" stroke="blue" points="209.24522602588993,212.64194078571097 203.26242560994214,150.6075275461744 "/><polyline class="polyline" opacity="0.5" stroke="blue" points="210.92609694583342,212.62410683536376 203.65065839561208,151.11926757268037 "/><polyline class="polyline" opacity="0.5" stroke="blue" points="212.59987600768656,212.59987600768656 204.01418704888079,151.63507398047574 "/><polyline class="polyline" opacity="0.5" stroke="blue" points="214.2654913826434,212.56927343040672 204.35338638028918,152.15491382516007 "/><polyline class="polyline" opacity="0.5" stroke="blue" points="215.9218812452377,212.53232960613786 204.66865443050318,152.6787561179104 "/><polyline class="polyline" opacity="0.5" stroke="blue" points="217.56799503016566,212.4890803500396 204.9604112597823,153.20657174843709 "/><polyline class="polyline" opacity="0.5" stroke="blue" points="219.2027946607439,212.4395667183024 205.22909774699227,153.73833340279668 "/><polyline class="polyline" opacity="0.5" stroke="blue" points="220.82525574609306,212.38383492771285 205.47517440024103,154.27401547634437 "/><polyline class="polyline" opacity="0.5" stroke="blue" points="222.43436874426982,212.32193626658236 205.6991201810105,154.81359398210355 "/><polyline class="polyline" opacity="0.5" stroke="blue" points="224.0291400887179,212.25392699734863 205.90143134345817,155.3570464548277 "/><polyline class="polyline" opacity="0.5" stroke="blue" points="225.60859327556173,212.17986825118484 206.0826202903688,155.9043518510253 "/><polyline class="polyline" opacity="0.5" stroke="blue" points="227.17176990942846,212.09982591497428 206.2432144470499,156.45549044521343 "/><polyline class="polyline" opacity="0.5" stroke="blue" points="228.71773070565925,212.0138705110288 206.3837551542867,157.01044372266117 "/><polyline class="polyline" opacity="0.5" stroke="blue" points="230.2455564469428,211.92207706994984 206.50479658130067,157.5691942688786 "/><polyline class="polyline" opacity="0.5" stroke="blue" points="231.7543488925945,211.82452499704652 206.60690465949472,158.13172565610128 "/><polyline class="polyline" opacity="0.5" stroke="blue" points="233.24323163888533,211.72129793274254 206.69065603761302,158.69802232701588 "/><polyline class="polyline" opacity="0.5" stroke="blue" points="234.7113509290234,211.6124836074135 206.75663705880075,159.26806947596594 "/><polyline class="polyline" opacity="0.5" stroke="blue" points="236.15787641157834,211.49817369111062 206.80544275991232,159.84185292787228 "/><polyline class="polyline" opacity="0.5" stroke="blue" points="237.58200184633893,211.37846363863216 206.83767589329122,160.41935901509765 "/><polyline class="polyline" opacity="0.5" stroke="blue" points="238.98294575678617,211.25345253041294 206.85394597112787,161.00057445247938 "/><polyline class="polyline" opacity="0.5" stroke="blue" points="240.35995202856057,211.1232429097049 206.8548683323935,161.58548621075062 "/><polyline class="polyline" opacity="0.5" stroke="blue" points="241.71229045349335,210.98794061652487 206.84106323225114,162.17408138856553 "/><polyline class="polyline" opacity="0.5" stroke="blue" points="243.03925721896144,210.8476546188448 206.8131549537542,162.76634708334024 "/><polyline class="polyline" opacity="0.5" stroke="blue" points="244.3401753425133,210.7024968414998 206.77177094156366,163.36227026111868 "/><polyline class="polyline" opacity="0.5" stroke="blue" points="245.61439505189063,210.55258199328227 206.71754095734318,163.9618376256686 "/><polyline class="polyline" opacity="0.5" stroke="blue" points="246.8612941107502,210.39802739268862 206.65109625642867,164.56503548701096 "/><polyline class="polyline" opacity="0.5" stroke="blue" points="248.08027809055727,210.23895279277374 206.57306878531415,165.17184962958447 "/><polyline class="polyline" opacity="0.5" stroke="blue" points="249.27078058928532,210.0754802055622 206.4840903994496,165.7822651802452 "/><polyline class="polyline" opacity="0.5" stroke="blue" points="250.43226339771192,209.90773372645273 206.38479210080783,166.39626647630018 "/><polyline class="polyline" opacity="0.5" stroke="blue" points="251.56421661424838,209.73583935904068 206.27580329464666,167.01383693377431 "/><polyline class="polyline" opacity="0.5" stroke="blue" points="252.66615870937667,209.55992484076984 206.15775106486893,167.6349589161087 "/><polyline class="polyline" opacity="0.5" stroke="blue" points="253.7376365409007,209.3801194698097 206.03125946736623,168.25961360349157 "/><polyline class="polyline" opacity="0.5" stroke="blue" points="254.77822532133465,209.19655393353875 205.89694884072287,168.88778086302128 "/><polyline class="polyline" opacity="0.5" stroke="blue" points="255.78752853886647,209.0093601389969 205.75543513365236,169.51943911990486 "/><polyline class="polyline" opacity="0.5" stroke="blue" points="256.7651778334316,208.81867104565296 205.60732924854221,170.1545652298964 "/><polyline class="polyline" opacity="0.5" stroke="blue" points="257.7108328295255,208.6246205008138 205.45323640049045,170.79313435318326 "/><polyline class="polyline" opacity="0.5" stroke="blue" points="258.62418092746435,208.42734307798298 205.29375549123222,171.43511982992916 "/><polyline class="polyline" opacity="0.5" stroke="blue" points="259.5049370548742,208.2269739184574 205.1294784973728,172.08049305768887 "/><polyline class="polyline" opacity="0.5" stroke="blue" points="260.3528433802506,208.02364857642897 204.96098987236846,172.729223370911 "/><polyline class="polyline" opacity="0.5" stroke="blue" points="261.1676689904833,207.81750286784018 204.78886596172472,173.38127792274972 "/><polyline class="polyline" opacity="0.5" stroke="blue" points="261.949209534281,207.60867272321923 204.6136744309139,174.0366215694114 "/><polyline class="polyline" opacity="0.5" stroke="blue" points="262.6972868334667,207.39729404470276 204.43597370555196,174.6952167572642 "/><polyline class="polyline" opacity="0.5" stroke="blue" points="263.4117484641363,207.1835025674308 204.25631242341348,175.35702341294535 "/><polyline class="polyline" opacity="0.5" stroke="blue" points="264.09246730968795,206.96743372548067 204.07522889790906,176.02199883670352 "/><polyline class="polyline" opacity="0.5" stroke="blue" points="264.73934108773994,206.74922252248484 203.89325059269456,176.69009759921886 "/><polyline class="polyline" opacity="0.5" stroke="blue" points="265.35229185294816,206.52900340705864 203.71089360713285,177.36127144214726 "/><polyline class="polyline" opacity="0.5" stroke="blue" points="265.9312654777309,206.30691015314432 203.52866217237957,178.03546918263976 "/><polyline class="polyline" opacity="0.5" stroke="blue" points="266.4762311128892,206.08307574535883 203.34704815791903,178.712636622091 "/><polyline class="polyline" opacity="0.5" stroke="blue" points="266.98718063008965,205.85763226941447 203.16653058843215,179.3927164593758 "/><polyline class="polyline" opacity="0.5" stroke="blue" points="267.46412804814815,205.6307108076637 202.98757517093625,180.07564820883414 "/><polyline class="polyline" opacity="0.5" stroke="blue" points="267.90710894501586,205.4024413398026 202.8106338321947,180.7613681232691 "/><polyline class="polyline" opacity="0.5" stroke="blue" points="268.31617985733243,205.1729526487504 202.6361442664539,181.44980912222368 "/><polyline class="polyline" opacity="0.5" stroke="blue" points="268.6914176693617,204.94237223170748 202.46452949362623,182.14090072580356 "/><polyline class="polyline" opacity="0.5" stroke="blue" points="269.0329189930806,204.71082621637905 202.29619742809638,182.83456899431533 "/><polyline class="polyline" opacity="0.5" stroke="blue" points="269.3407995411339,204.4784392823374 202.13154045839036,183.5307364739872 "/><polyline class="polyline" opacity="0.5" stroke="blue" points="269.61519349431455,204.24533458748257 201.97093503800525,184.22932214904102 "/><polyline class="polyline" opacity="0.5" stroke="blue" points="269.85625286516677,204.01163369954884 201.8147412877577,184.9302414003806 "/><polyline class="polyline" opacity="0.5" stroke="blue" points="270.0641468592479,203.77745653259205 201.66330261006684,185.63340597115968 "/><polyline class="polyline" opacity="0.5" stroke="blue" points="270.23906123551996,203.54292128838338 201.51694531564385,186.33872393948846 "/><polyline class="polyline" opacity="0.5" stroke="blue" points="270.3811976672754,203.3081444026234 201.37597826311625,187.04609969853334 "/><polyline class="polyline" opacity="0.5" stroke="blue" points="270.4907731049344,203.07324049588286 201.2406925121666,187.7554339442568 "/><polyline class="polyline" opacity="0.5" stroke="blue" points="270.56801914198167,202.83832232916626 201.11136099081648,188.4666236710386 "/><polyline class="polyline" opacity="0.5" stroke="blue" points="270.61318138524155,202.60350076398956 200.9882381775345,189.17956217540896 "/><polyline class="polyline" opacity="0.5" stroke="blue" points="270.62651883062074,202.36888472685305 200.87155979889093,189.89413906811546 "/><polyline class="polyline" opacity="0.5" stroke="blue" points="270.6083032453791,202.13458117798785 200.761542543523,190.6102402947325 "/><polyline class="polyline" opacity="0.5" stroke="blue" points="270.5588185579177,201.90069508424693 200.65838379321255,191.32774816500958 "/><polyline class="polyline" opacity="0.5" stroke="blue" points="270.4783602560077,201.66732939600791 200.56226137191013,192.04654139114055 "/><polyline class="polyline" opacity="0.5" stroke="blue" points="270.3672347943125,201.43458502795139 200.47333331356953,192.7664951351178 "/><polyline class="polyline" opacity="0.5" stroke="blue" points="270.22575901199144,201.20256084357436 200.3917376496797,193.48748106532025 "/><polyline class="polyline" opacity="0.5" stroke="blue" points="270.05425956110724,200.97135364329708 200.31759221740097,194.20936742246224 "/><polyline class="polyline" opacity="0.5" stroke="blue" points="269.85307234649395,200.74105815601845 200.25099448922563,194.9320190950113 "/><polyline class="polyline" opacity="0.5" stroke="blue" points="269.62254197768243,200.51176703397493 200.19202142509164,195.6552977041595 "/><polyline class="polyline" opacity="0.5" stroke="blue" points="269.3630212334176,200.28357085075635 200.14072934788035,196.37906169841006 "/><polyline class="polyline" opacity="0.5" stroke="blue" points="269.07487053924376,200.05655810233168 200.09715384322564,197.1031664578142 "/><polyline class="polyline" opacity="0.5" stroke="blue" points="268.75845745857885,199.8308152109388 200.0613096845522,197.8274644078692 "/><polyline class="polyline" opacity="0.5" stroke="blue" points="268.41415619764126,199.60642653169208 200.0331907842448,198.55180514305698 "/><polyline class="polyline" opacity="0.5" stroke="blue" points="268.0423471245436,199.38347436176284 200.01277017182701,199.27603555997797 "/><polyline class="polyline" opacity="0.5" stroke="blue" points="267.64341630281524,199.16203895198962 200.0,200.0 "/><polyline class="polyline" opacity="0.5" stroke="blue" points="267.21775503956917,198.94219852077637 199.99481157935494,200.72354040131435 "/><polyline class="polyline" opacity="0.5" stroke="blue" points="266.76575944848133,198.7240292701389 199.99711544253108,201.44649646025752 "/><polyline class="polyline" opacity="0.5" stroke="blue" points="266.2878300277108,198.50760540376297 200.00680143854203,202.16870580172295 "/><polyline class="polyline" opacity="0.5" stroke="blue" points="265.78437125284347,198.2929991469383 200.02373885793753,202.8900041584566 "/><polyline class="polyline" opacity="0.5" stroke="blue" points="265.2557911849077,198.08028076823823 200.04777658940512,203.61022555899245 "/><polyline class="polyline" opacity="0.5" stroke="blue" points="264.702501093471,197.869518602815 200.0787433083492,204.32920252395297 "/><polyline class="polyline" opacity="0.5" stroke="blue" points="264.1249150947956,197.66077907718616 200.11644769790882,205.04676627040243 "/><polyline class="polyline" opacity="0.5" stroke="blue" points="263.52344980499544,197.4541267353893 200.16067870279636,205.7627469239083 "/><polyline class="polyline" opacity="0.5" stroke="blue" points="262.89852400811105,197.24962426638726 200.21120581625266,206.47697373793082 "/><polyline class="polyline" opacity="0.5" stroke="blue" points="262.25055833898904,197.04733253260807 200.26777940032363,207.18927532012742 "/><polyline class="polyline" opacity="0.5" stroke="blue" points="261.5799749808285,196.84731059950903 200.33013103956648,207.89947986512536 "/><polyline class="polyline" opacity="0.5" stroke="blue" points="260.88719737723295,196.64961576605697 200.39797392819415,208.60741539328401 "/><polyline class="polyline" opacity="0.5" stroke="blue" points="260.1726499585849,196.45430359602125 200.47100329056144,209.31290999493632 "/><polyline class="polyline" opacity="0.5" stroke="blue" points="259.43675788254143,196.26142794997926 200.54889683478876,210.0157920795701 "/><polyline class="polyline" opacity="0.5" stroke="blue" points="258.6799467884306,196.07104101793897 200.63131523920924,210.7158906293803 "/><polyline class="polyline" opacity="0.5" stroke="blue" points="257.90264256531304,195.8831933524857 200.71790267121054,211.41303545659727 "/><polyline class="polyline" opacity="0.5" stroke="blue" points="257.1052711334585,195.69793390236518 200.8082873379298,212.10705746397088 "/><polyline class="polyline" opacity="0.5" stroke="blue" points="256.28825823897546,195.51531004641814 200.90208206814307,212.79778890776785 "/><polyline class="polyline" opacity="0.5" stroke="blue" points="255.45202926131904,195.33536762778562 200.99888492457526,213.48506366261878 "/><polyline class="polyline" opacity="0.5" stroke="blue" points="254.5970090333949,195.158150988308 201.09827984574065,214.16871748753323 "/><polyline class="polyline" opacity="0.5" stroke="blue" points="253.7236216739664,194.98370300304413 201.19983731630987,214.8485882923864 "/><polyline class="polyline" opacity="0.5" stroke="blue" points="252.83229043206714,194.81206511484095 201.30311506488565,215.52451640416712 "/><polyline class="polyline" opacity="0.5" stroke="blue" points="251.92343754311412,194.64327736888663 201.40765878795992,216.19634483226815 "/><polyline class="polyline" opacity="0.5" stroke="blue" points="250.99748409641188,194.47737844718517 201.51300289871767,216.8639195320923 "/><polyline class="polyline" opacity="0.5" stroke="blue" points="250.05484991373558,194.31440570289197 201.61867129924963,217.5270896662438 "/><polyline class="polyline" opacity="0.5" stroke="blue" points="249.0959534386774,194.15439519445448 201.72417817463705,218.1857078625753 "/><polyline class="polyline" opacity="0.5" stroke="blue" points="248.12121163643874,193.99738171950455 201.82902880727957,218.8396304683614 "/><polyline class="polyline" opacity="0.5" stroke="blue" points="247.1310399037515,193.8433988484522 201.93272040974836,219.48871779987778 "/><polyline class="polyline" opacity="0.5" stroke="blue" points="246.12585198860927,193.69247895773378 202.0347429743677,220.13283438667233 "/><polyline class="polyline" opacity="0.5" stroke="blue" points="245.10605991949197,193.5446532626698 202.13458013765322,220.77184920982907 "/><polyline class="polyline" opacity="0.5" stroke="blue" points="244.07207394376846,193.39995184989087 202.23171005766972,221.40563593353934 "/><polyline class="polyline" opacity="0.5" stroke="blue" points="243.02430247496196,193.25840370929276 202.32560630231413,222.03407312931625 "/><polyline class="polyline" opacity="0.5" stroke="blue" points="241.9631520485683,193.12003676548386 202.41573874647915,222.6570444922079 "/><polyline class="polyline" opacity="0.5" stroke="blue" points="240.88902728611768,192.98487790869092 202.50157447601407,223.2744390483921 "/><polyline class="polyline" opacity="0.5" stroke="blue" points="239.80233086717507,192.85295302509124 202.5825786963673,223.88615135356218 "/><polyline class="polyline" opacity="0.5" stroke="blue" points="238.70346350897842,192.72428702654156 202.65821564377535,224.4920816815445 "/><polyline class="polyline" opacity="0.5" stroke="blue" points="237.5928239534172,192.59890387967613 202.72794949684967,225.09213620262173 "/><polyline class="polyline" opacity="0.5" stroke="blue" points="236.47080896105865,192.4768266343482 202.79124528641287,225.68622715107202 "/><polyline class="polyline" opacity="0.5" stroke="blue" points="235.33781331193404,192.35807745139138 202.84756980144277,226.27427298147117 "/><polyline class="polyline" opacity="0.5" stroke="blue" points="234.19422981280115,192.2426776296785 202.89639248900173,226.85619851334627 "/><polyline class="polyline" opacity="0.5" stroke="blue" points="233.04044931060565,192.1306476324582 202.93718634605594,227.43193506380922 "/><polyline class="polyline" opacity="0.5" stroke="blue" points="231.87686071186772,192.02200711295006 202.96942880112726,228.00142056784395 "/><polyline class="polyline" opacity="0.5" stroke="blue" points="230.70385100772694,191.91677493918098 202.99260258376756,228.56459968596283 "/><polyline class="polyline" opacity="0.5" stroke="blue" points="229.52180530438181,191.81496921804745 203.00619657990026,229.12142389899628 "/><polyline class="polyline" opacity="0.5" stroke="blue" points="228.33110685866822,191.71660731858836 203.00970667114012,229.67185158982318 "/><polyline class="polyline" opacity="0.5" stroke="blue" points="227.1321371185245,191.62170589445554 203.00263655627452,230.21584811189743 "/><polyline class="polyline" opacity="0.5" stroke="blue" points="225.9252757680958,191.53028090556973 202.98449855317057,230.75338584447363 "/><polyline class="polyline" opacity="0.5" stroke="blue" points="224.71090077723855,191.44234763895025 202.95481437946108,231.28444423447922 "/><polyline class="polyline" opacity="0.5" stroke="blue" points="223.48938845518663,191.3579207287089 202.9131159104573,231.80900982502988 "/><polyline class="polyline" opacity="0.5" stroke="blue" points="222.26111350815043,191.2770141751979 202.85894591283733,232.32707627062743 "/><polyline class="polyline" opacity="0.5" stroke="blue" points="221.02644910062114,191.19964136330424 202.7918587527671,232.83864433912805 "/><polyline class="polyline" opacity="0.5" stroke="blue" points="219.7857669201603,191.12581507988165 202.71142107722076,233.34372190060822 "/><polyline class="polyline" opacity="0.5" stroke="blue" points="218.53943724545712,191.055547530314 202.61721246738458,233.84232390330243 "/><polyline class="polyline" opacity="0.5" stroke="blue" points="217.28782901744273,190.988850354203 202.50882606314732,234.33447233682446 "/><polyline class="polyline" opacity="0.5" stroke="blue" points="216.0313099132519,190.92573464017474 202.385869157802,234.8201961829244 "/><polyline class="polyline" opacity="0.5" stroke="blue" points="214.7702464228308,190.86621093979923 202.247963762208,235.29953135407084 "/><polyline class="polyline" opacity="0.5" stroke="blue" points="213.505003927989,190.8102892806185 202.09474713778803,235.77252062018243 "/><polyline class="polyline" opacity="0.5" stroke="blue" points="212.2359467837012,190.75797917827828 201.92587229786048,236.23921352386537 "/><polyline class="polyline" opacity="0.5" stroke="blue" points="210.96343840146503,190.70928964775936 201.74100847693282,236.6996662845444 "/><polyline class="polyline" opacity="0.5" stroke="blue" points="209.68784133452627,190.66422921370474 201.53984156770778,237.15394169190202 "/><polyline class="polyline" opacity="0.5" stroke="blue" points="208.4095173647844,190.62280591983904 201.32207452567658,237.60210898906604 "/><polyline class="polyline" opacity="0.5" stroke="blue" points="207.12882759119495,190.58502733747648 201.08742774129522,238.04424374600853 "/><polyline class="polyline" opacity="0.5" stroke="blue" points="205.8461325194875,190.55090057311523 200.83563937985903,238.48042772363684 "/><polyline class="polyline" opacity="0.5" stroke="blue" points="204.56179215301913,190.5204322751142 200.56646568930503,238.91074872907785 "/><polyline class="polyline" opacity="0.5" stroke="blue" points="203.2761660845876,190.49362863945024 200.27968127628438,239.33530046266657 "/><polyline class="polyline" opacity="0.5" stroke="blue" points="201.9896135890261,190.47049541455286 199.97507935095368,239.75418235716404 "/><polyline class="polyline" opacity="0.5" stroke="blue" points="200.7024937164079,190.45103790521398 199.65247194103716,240.16749940973762 "/><polyline class="polyline" opacity="0.5" stroke="blue" points="199.41516538568433,190.43526097557054 199.3116900758084,240.5753620072411 "/><polyline class="polyline" opacity="0.5" stroke="blue" points="198.12798747858614,190.42316905115746 198.9525839407331,240.97788574533618 "/><polyline class="polyline" opacity="0.5" stroke="blue" points="196.84131893361362,190.4147661200287 198.57502300360014,241.37519124199724 "/><polyline class="polyline" opacity="0.5" stroke="blue" points="195.55551883994485,190.41005573294473 198.17889611304832,241.76740394593747 "/><polyline class="polyline" opacity="0.5" stroke="blue" points="194.27094653108847,190.40904100262372 197.76411157047005,242.15465394049224 "/><polyline class="polyline" opacity="0.5" stroke="blue" points="192.98796167810906,190.41172460205502 197.33059717634114,242.53707574348587 "/><polyline class="polyline" opacity="0.5" stroke="blue" points="191.70692438225117,190.41810876187253 196.87830025208655,242.91480810360048 "/><polyline class="polyline" opacity="0.5" stroke="blue" points="190.42819526678673,190.42819526678673 196.40718763864604,243.28799379375337 "/><polyline class="polyline" opacity="0.5" stroke="blue" points="189.15213556791176,190.4419854510728 195.91724567295245,243.65677940197577 "/><polyline class="polyline" opacity="0.5" stroke="blue" points="187.87910722451156,190.45948019311405 195.40848014357488,244.0213151202711 "/><polyline class="polyline" opacity="0.5" stroke="blue" points="186.60947296661917,190.48067990899844 194.88091622681614,244.38175453191369 "/><polyline class="polyline" opacity="0.5" stroke="blue" points="185.34359640238128,190.50558454516732 194.33459840457874,244.7382543976296 "/><polyline class="polyline" opacity="0.5" stroke="blue" points="184.08184210335082,190.53419357011475 193.769590365339,245.0909744410825 "/><polyline class="polyline" opacity="0.5" stroke="blue" points="182.82457568791685,190.56650596513649 193.18597488958156,245.44007713406558 "/><polyline class="polyline" opacity="0.5" stroke="blue" points="181.57216390268428,190.60252021412805 192.5838537210582,245.78572748177822 "/><polyline class="polyline" opacity="0.5" stroke="blue" points="180.3249747016087,190.64223429243097 191.96334742523754,246.12809280854265 "/><polyline class="polyline" opacity="0.5" stroke="blue" points="179.08337732269067,190.68564565472693 191.3245952363108,246.4673425442926 "/><polyline class="polyline" opacity="0.5" stroke="blue" points="177.84774236202952,190.73275122198004 190.6677548941118,246.80364801214023 "/><polyline class="polyline" opacity="0.5" stroke="blue" points="176.6184418450316,190.7835473674275 189.99300247229644,247.1371822173028 "/><polyline class="polyline" opacity="0.5" stroke="blue" points="175.39584929456655,190.83802990161936 189.30053219911147,247.4681196376444 "/><polyline class="polyline" opacity="0.5" stroke="blue" points="174.18033979585724,190.89619405650896 188.59055627205802,247.79663601606316 "/><polyline class="polyline" opacity="0.5" stroke="blue" points="172.97229005788668,190.9580344685954 187.86330466773197,248.12290815492707 "/><polyline class="polyline" opacity="0.5" stroke="blue" points="171.77207847110216,191.0235451611208 187.1190249480927,248.4471137127355 "/><polyline class="polyline" opacity="0.5" stroke="blue" points="170.58008516118673,191.0927195253251 186.3579820643766,248.7694310031587 "/><polyline class="polyline" opacity="0.5" stroke="blue" points="169.3966920386691,191.16555030076213 185.58045815983698,249.09003879658007 "/><polyline class="polyline" opacity="0.5" stroke="blue" points="168.2222828441339,191.24202955468175 184.78675237244977,249.40911612424142 "/><polyline class="polyline" opacity="0.5" stroke="blue" points="167.05724318879138,191.32214866048275 183.97718063868348,249.72684208506595 "/><polyline class="polyline" opacity="0.5" stroke="blue" points="165.90196059015818,191.40589827524335 183.15207549938341,250.04339565520854 "/><polyline class="polyline" opacity="0.5" stroke="blue" points="164.75682450259802,191.49326831633618 182.31178590877494,250.35895550035934 "/><polyline class="polyline" opacity="0.5" stroke="blue" points="163.62222634246268,191.58424793713633 181.45667704753785,250.67369979080297 "/><polyline class="polyline" opacity="0.5" stroke="blue" points="162.49855950757254,191.67882550183162 180.58713014085447,250.98780601921092 "/><polyline class="polyline" opacity="0.5" stroke="blue" points="161.3862193907657,191.77698855934617 179.7035422822773,251.30145082112597 "/><polyline class="polyline" opacity="0.5" stroke="blue" points="160.2856033872431,191.87872381638914 178.80632626420942,251.61480979807152 "/><polyline class="polyline" opacity="0.5" stroke="blue" points="159.1971108954302,191.98401710964262 177.89591041573226,251.9280573432023 "/><polyline class="polyline" opacity="0.5" stroke="blue" points="158.12114331107196,192.0928533771029 176.97273844845984,252.241366469389 "/><polyline class="polyline" opacity="0.5" stroke="blue" points="157.05810401427084,192.2052166285931 176.0372693110371,252.55490863961344 "/><polyline class="polyline" opacity="0.5" stroke="blue" points="156.0083983491748,192.32108991546465 175.0899770528422,252.86885359953152 "/><polyline class="polyline" opacity="0.5" stroke="blue" points="154.97243359601828,192.4404552995087 174.13135069739295,253.18336921204266 "/><polyline class="polyline" opacity="0.5" stroke="blue" points="153.9506189352117,192.56329382109942 173.16189412589387,253.498621293691 "/><polyline class="polyline" opacity="0.5" stroke="blue" points="152.94336540317556,192.68958546659414 172.18212597130125,253.8147734527053 "/><polyline class="polyline" opacity="0.5" stroke="blue" points="151.95108583960806,192.8193091350166 171.19257952322033,254.13198692847214 "/><polyline class="polyline" opacity="0.5" stroke="blue" points="150.97419482587526,192.95244260405272 170.1938026438866,254.45042043222188 "/><polyline class="polyline" opacity="0.5" stroke="blue" points="150.0131086142076,193.0889624953903 169.1863576954193,254.7702299886962 "/><polyline class="polyline" opacity="0.5" stroke="blue" points="149.0682450473862,193.2288442394365 168.17082147847185,255.0915687785529 "/><polyline class="polyline" opacity="0.5" stroke="blue" points="148.14002346860087,193.37206203945075 167.14778518234095,255.41458698125354 "/><polyline class="polyline" opacity="0.5" stroke="blue" points="147.22886462116082,193.51858883513125 166.11785434653038,255.73943161817073 "/><polyline class="polyline" opacity="0.5" stroke="blue" points="146.33519053773904,193.66839626569944 165.0816488336998,256.0662463956425 "/><polyline class="polyline" opacity="0.5" stroke="blue" points="145.45942441883147,193.8214546325266 164.03980281386484,256.3951715476936 "/><polyline class="polyline" opacity="0.5" stroke="blue" points="144.60199050011636,193.97773286135225 162.99296475964783,256.7263436781378 "/><polyline class="polyline" opacity="0.5" stroke="blue" points="143.7633139083979,194.13719846414642 161.9417974523094,257.05989560176926 "/><polyline class="polyline" opacity="0.5" stroke="blue" points="142.94382050582502,194.29981750067097 160.8869779982267,257.3959561843464 "/><polyline class="polyline" opacity="0.5" stroke="blue" points="142.14393672207956,194.46555453979988 159.82919785541128,257.73465018106907 "/><polyline class="polyline" opacity="0.5" stroke="blue" points="141.36408937423423,194.63437262066043 158.76916286959306,258.0760980732463 "/><polyline class="polyline" opacity="0.5" stroke="blue" points="140.604705473987,194.80623321366252 157.70759331932288,258.4204159028526 "/><polyline class="polyline" opacity="0.5" stroke="blue" points="139.86621202198833,194.9810961814863 156.6452239694753,258.76771510466773 "/><polyline class="polyline" opacity="0.5" stroke="blue" points="139.14903578898583,195.15891974010242 155.58280413245828,259.1181023356999 "/><polyline class="polyline" opacity="0.5" stroke="blue" points="138.45360308352357,195.33966041990334 154.52109773636306,259.4716793015906 "/><polyline class="polyline" opacity="0.5" stroke="blue" points="137.78033950594445,195.52327302702847 153.4608833992072,259.82854257970564 "/><polyline class="polyline" opacity="0.5" stroke="blue" points="137.12966968845964,195.70971060496947 152.40295450834714,260.18878343862053 "/><polyline class="polyline" opacity="0.5" stroke="blue" points="136.50201702106392,195.89892439654716 151.34811930405576,260.5524876537147 "/><polyline class="polyline" opacity="0.5" stroke="blue" points="135.89780336309508,196.09086380635446 150.29720096617675,260.91973531859634 "/><polyline class="polyline" opacity="0.5" stroke="blue" points="135.31744874025281,196.28547636376607 149.25103770268197,261.29060065208955 "/><polyline class="polyline" opacity="0.5" stroke="blue" points="134.7613710269162,196.48270768661766 148.21048283887222,261.6651518005251 "/><polyline class="polyline" opacity="0.5" stroke="blue" points="134.22998561362095,196.6825014456636 147.1764049058719,262.0434506350876 "/><polyline class="polyline" opacity="0.5" stroke="blue" points="133.72370505958398,196.8847993299253 146.14968772697392,262.42555254398883 "/><polyline class="polyline" opacity="0.5" stroke="blue" points="133.242938730189,197.08954101304707 145.1312305002996,262.81150621924854 "/><polyline class="polyline" opacity="0.5" stroke="blue" points="132.78809241937822,197.29666412078092 144.1219478761385,263.20135343788445 "/><polyline class="polyline" opacity="0.5" stroke="blue" points="132.35956795692664,197.5061041997248 143.12277002723587,263.59512883733174 "/><polyline class="polyline" opacity="0.5" stroke="blue" points="131.9577628006084,197.7177946874444 142.13464271019097,263.9928596849339 "/><polyline class="polyline" opacity="0.5" stroke="blue" points="131.5830696133025,197.931666884111 141.15852731602587,264.39456564137106 "/><polyline class="polyline" opacity="0.5" stroke="blue" points="131.23587582512357,198.1476499257928 140.19540090787743,264.8002585179181 "/><polyline class="polyline" opacity="0.5" stroke="blue" points="130.9165631807043,198.36567075954002 139.24625624365558,265.20994202745305 "/><polyline class="polyline" opacity="0.5" stroke="blue" points="130.62550727179874,198.5856541204083 138.31210178139827,265.6236115291678 "/><polyline class="polyline" opacity="0.5" stroke="blue" points="130.36307705542356,198.8075225105669 137.3939616649419,266.0412537669684 "/><polyline class="polyline" opacity="0.5" stroke="blue" points="130.12963435779892,199.03119618064267 136.4928756874089,266.4628466015868 "/><polyline class="polyline" opacity="0.5" stroke="blue" points="129.92553336440517,199.25659311345157 135.60989922989984,266.8883587364684 "/><polyline class="polyline" opacity="0.5" stroke="blue" points="129.75112009652014,199.48362901027386 134.74610317265638,267.31774943754033 "/><polyline class="polyline" opacity="0.5" stroke="blue" points="129.60673187465866,199.71221727982913 133.90257377584692,267.7509682470149 "/><polyline class="polyline" opacity="0.5" stroke="blue" points="129.4926967693932,199.94226903011017 133.08041252700687,268.18795469142873 "/><polyline class="polyline" opacity="0.5" stroke="blue" points="129.40933304009053,200.17369306323513 132.2807359520471,268.6286379841755 "/><polyline class="polyline" opacity="0.5" stroke="blue" points="129.35694856216423,200.40639587347863 131.50467538662946,269.0729367228438 "/><polyline class="polyline" opacity="0.5" stroke="blue" points="129.33584024350114,200.64028164864192 130.75337670459243,269.5207585817351 "/><polyline class="polyline" opacity="0.5" stroke="blue" points="129.34629343078717,200.8752522749223 130.028,269.972 "/><polyline class="polyline" opacity="0.5" stroke="blue" points="129.3885813065213,201.1112073454413 129.32971921927762,270.4265458659013 "/><polyline class="polyline" opacity="0.5" stroke="blue" points="129.4629642775759,201.3480441725886 128.6597217397968,270.8842691977833 "/><polyline class="polyline" opacity="0.5" stroke="blue" points="129.56968935622615,201.5856578043379 128.0192078911739,271.3450308224062 "/><polyline class="polyline" opacity="0.5" stroke="blue" points="129.7089895346431,201.82394104468617 127.40939041545946,271.8086790513839 "/><polyline class="polyline" opacity="0.5" stroke="blue" points="129.8810831539136,202.06278447836627 126.83149386231216,272.2750493565492 "/><polyline class="polyline" opacity="0.5" stroke="blue" points="130.086173268718,202.30207649997692 126.2867539151834,272.74396404516136 "/><polyline class="polyline" opacity="0.5" stroke="blue" points="130.3244470088702,202.54170334766968 125.77641664447954,273.2152319359627 "/><polyline class="polyline" opacity="0.5" stroke="blue" points="130.59607493898906,202.78154914152628 125.30173768362464,273.6886480371888 "/><polyline class="polyline" opacity="0.5" stroke="blue" points="130.90121041764414,203.02149592675366 124.86398132391706,274.16399322774004 "/><polyline class="polyline" opacity="0.5" stroke="blue" points="131.2399889573828,203.26142372181562 124.4644195240639,274.64103394282586 "/><polyline class="polyline" opacity="0.5" stroke="blue" points="131.6125275871131,203.50121057161198 124.10433083028576,275.11952186549973 "/><polyline class="polyline" opacity="0.5" stroke="blue" points="132.01892421838357,203.74073260580687 123.78499920291407,275.5991936256188 "/><polyline class="polyline" opacity="0.5" stroke="blue" points="132.4592570171601,203.9798641023976 123.50771274546211,276.07977050787156 "/><polyline class="polyline" opacity="0.5" stroke="blue" points="132.93358378276292,204.21847755660423 123.27376233223045,276.56095817063573 "/><polyline class="polyline" opacity="0.5" stroke="blue" points="133.44194133568237,204.45644375514797 123.0844401306231,277.0424463775456 "/><polyline class="polyline" opacity="0.5" stroke="blue" points="133.9843449160453,204.69363185597413 122.94103801449371,277.52390874376675 "/><polyline class="polyline" opacity="0.5" stroke="blue" points="134.5607875945538,204.92990947346095 122.84484586502194,278.0050024990959 "/><polyline class="polyline" opacity="0.5" stroke="blue" points="135.17123969776355,205.16514276914137 122.79714975583799,278.48536827012083 "/><polyline class="polyline" opacity="0.5" stroke="blue" points="135.81564824960697,205.39919654794897 122.79923001937172,278.9646298837938 "/><polyline class="polyline" opacity="0.5" stroke="blue" points="136.4939364311042,205.63193435998357 122.85235919170464,279.44239419488616 "/><polyline class="polyline" opacity="0.5" stroke="blue" points="137.20600306023132,205.86321860777414 122.95779983355058,279.9182509399016 "/><polyline class="polyline" opacity="0.5" stroke="blue" points="137.95172209393834,206.09291065899956 123.11680222538797,280.39177262013453 "/><polyline class="polyline" opacity="0.5" stroke="blue" points="138.73094215432627,206.32087096460816 123.33060193521294,280.86251441665644 "/><polyline class="polyline" opacity="0.5" stroke="blue" points="139.54348608099954,206.5469591822592 123.60041725788537,281.33001414010903 "/><polyline class="polyline" opacity="0.5" stroke="blue" points="140.38915051161302,206.77103430498818 123.92744652559483,281.7937922182638 "/><polyline class="polyline" opacity="0.5" stroke="blue" points="141.26770549262264,206.9929547949785 124.31286528958707,282.25335172438037 "/><polyline class="polyline" opacity="0.5" stroke="blue" points="142.17889412223704,207.21257872230103 124.75782337396541,282.7081784494578 "/><polyline class="polyline" opacity="0.5" stroke="blue" points="143.12243222754023,207.42976390846175 125.26344180311229,283.15774102151494 "/><polyline class="polyline" opacity="0.5" stroke="blue" points="144.0980080777234,207.64436807457628 125.83080960506878,283.60149107506743 "/><polyline class="polyline" opacity="0.5" stroke="blue" points="145.10528213532018,207.8562489939692 126.46098049406235,284.03886347397923 "/><polyline class="polyline" opacity="0.5" stroke="blue" points="146.14388684729016,208.06526464897328 127.15496943628641,284.4692765908552 "/><polyline class="polyline" opacity="0.5" stroke="blue" points="147.21342647772977,208.2712733916832 127.91374910400438,284.89213264610953 "/><polyline class="polyline" opacity="0.5" stroke="blue" points="148.3134769839208,208.4741341083964 128.73824622407932,285.30681810978876 "/><polyline class="polyline" opacity="0.5" stroke="blue" points="149.44358593734347,208.67370638745234 129.62933782810887,285.71270416914325 "/><polyline class="polyline" opacity="0.5" stroke="blue" points="150.60327249119103,208.86985069016092 130.58784741247777,286.10914726482645 "/><polyline class="polyline" opacity="0.5" stroke="blue" points="151.79202739581962,209.06242852449105 131.61454101781248,286.4954896984638 "/><polyline class="polyline" opacity="0.5" stroke="blue" points="153.00931306345646,209.25130262116934 132.7101232385375,286.8710603141499 "/><polyline class="polyline" opacity="0.5" stroke="blue" points="154.25456368337046,209.43633711182144 133.87523317448063,287.23517525622765 "/><polyline class="polyline" opacity="0.5" stroke="blue" points="155.52718538857658,209.61739770876974 135.11044033774078,287.5871388054562 "/><polyline class="polyline" opacity="0.5" stroke="blue" points="156.82655647500889,209.7943518860848 136.41624052932275,287.92624429538836 "/><polyline class="polyline" opacity="0.5" stroke="blue" points="158.1520276739473,209.96706906147128 137.79305170132767,288.2517751104605 "/><polyline class="polyline" opacity="0.5" stroke="blue" points="159.5029224783308,210.13542077855564 139.24120982177638,288.5630057669376 "/><polyline class="polyline" opacity="0.5" stroke="blue" points="160.87853752342346,210.29928088912925 140.76096476040448,288.8592030774531 "/><polyline class="polyline" opacity="0.5" stroke="blue" points="162.27814302213278,210.45852573488884 142.35247621499911,289.13962739945066 "/><polyline class="polyline" opacity="0.5" stroke="blue" points="163.70098325510037,210.6130343282068 144.01580969903029,289.4035339673525 "/><polyline class="polyline" opacity="0.5" stroke="blue" points="165.14627711550813,210.7626885314554 145.75093261245263,289.6501743077696 "/><polyline class="polyline" opacity="0.5" stroke="blue" points="166.613218708352,210.90737323440274 147.55771041858867,289.8787977365153 "/><polyline class="polyline" opacity="0.5" stroke="blue" points="168.10097800374996,211.04697652919364 149.43590295095203,290.08865293560274 "/><polyline class="polyline" opacity="0.5" stroke="blue" points="169.60870154365352,211.18138988242669 151.38516087469225,290.2789896077893 "/><polyline class="polyline" opacity="0.5" stroke="blue" points="171.1355132011429,211.31050830383808 153.40502232804369,290.44906020559256 "/><polyline class="polyline" opacity="0.5" stroke="blue" points="172.68051499128643,211.43423051110472 155.49490976970156,290.5981217310347 "/><polyline class="polyline" opacity="0.5" stroke="blue" points="174.24278793234993,211.55245909028324 157.65412705842297,290.725437601688 "/><polyline class="polyline" opacity="0.5" stroke="blue" points="175.82139295595155,211.6651006514073 159.88185679134565,290.8302795778999 "/><polyline class="polyline" opacity="0.5" stroke="blue" points="177.41537186456105,211.772065978775 162.17715792749897,290.9119297453692 "/><polyline class="polyline" opacity="0.5" stroke="blue" points="179.02374833455892,211.8732701754674 164.53896372275494,290.9696825465435 "/><polyline class="polyline" opacity="0.5" stroke="blue" points="180.64552896288274,211.96863280165329 166.9660800019982,291.0028468536064 "/><polyline class="polyline" opacity="0.5" stroke="blue" points="182.27970435511594,212.05807800624981 169.4571837935959,291.0107480751459 "/><polyline class="polyline" opacity="0.5" stroke="blue" points="183.92525025269805,212.14153465152557 172.0108223502762,290.9927302879295 "/><polyline class="polyline" opacity="0.5" stroke="blue" points="185.5811286967758,212.21893643025257 174.62541257930863,290.9481583845868 "/><polyline class="polyline" opacity="0.5" stroke="blue" points="187.2462892260569,212.29022197503403 177.29924090338142,290.8764202274094 "/><polyline class="polyline" opacity="0.5" stroke="blue" points="188.91967010588854,212.35533495945847 180.03046357181935,290.7769287979403 "/><polyline class="polyline" opacity="0.5" stroke="blue" points="190.60019958564374,212.414224190756 182.81710743975123,290.64912433153887 "/><polyline class="polyline" opacity="0.5" stroke="blue" points="192.2867971813808,212.46684369365792 185.65707123055572,290.4924764256989 "/><polyline class="polyline" opacity="0.5" stroke="blue" points="193.97837498062708,212.5131527851908 188.54812729436424,290.3064861105488 "/><polyline class="polyline" opacity="0.5" stroke="blue" points="195.67383896604724,212.55311614016415 191.4879238726301,290.0906878697134 "/><polyline class="polyline" opacity="0.5" stroke="blue" points="197.372090354669,212.5867038471428 194.47398787576233,289.8446515995429 "/><polyline class="polyline" opacity="0.5" stroke="blue" points="199.07202694927082,212.6138914547264 197.5037281776178,289.5679844946518 "/><polyline class="polyline" opacity="0.5" stroke="blue" points="200.77254449848675,212.63466000799207 200.57443942727141,289.26033284773615 "/><polyline class="polyline" opacity="0.5" stroke="blue" points="202.47253806213996,212.64899607498862 203.6833063749454,288.9213837517849 "/><polyline class="polyline" opacity="0.5" stroke="blue" points="204.17090337829737,212.65689176320674 206.82740870534158,288.55086669304626 "/><polyline class="polyline" opacity="0.5" stroke="blue" points="205.86653822852594,212.65834472598246 210.0037263678855,288.14855502347825 "/><polyline class="polyline" opacity="0.5" stroke="blue" points="207.55834379784548,212.65335815882705 213.20914538963422,287.7142673018894 "/><polyline class="polyline" opacity="0.5" stroke="blue" points="209.24522602588993,212.64194078571097 216.44046415281773,287.2478684935632 "/><polyline class="polyline" opacity="0.5" stroke="blue" points="210.9260969458334,212.62410683536376 219.6944001152612,286.74927101886567 "/><polyline class="polyline" opacity="0.5" stroke="blue" points="212.59987600768656,212.59987600768656 222.96759694828077,286.21843564213805 "/><polyline class="polyline" opacity="0.5" stroke="blue" points="214.26549138264346,212.56927343040672 226.2566320631317,285.65537219308635 "/><polyline class="polyline" opacity="0.5" stroke="blue" points="215.9218812452377,212.53232960613786 229.55802449373158,285.06014011388163 "/><polyline class="polyline" opacity="0.5" stroke="blue" points="217.56799503016563,212.4890803500396 232.86824310024446,284.4328488262669 "/><polyline class="polyline" opacity="0.5" stroke="blue" points="219.20279466074396,212.4395667183024 236.18371505522487,283.77365791413257 "/><polyline class="polyline" opacity="0.5" stroke="blue" points="220.82525574609303,212.38383492771285 239.50083457143256,283.08277711823996 "/><polyline class="polyline" opacity="0.5" stroke="blue" points="222.4343687442698,212.32193626658236 242.81597182815534,282.36046614105 "/><polyline class="polyline" opacity="0.5" stroke="blue" points="224.02914008871795,212.25392699734863 246.12548205096874,281.60703426092505 "/><polyline class="polyline" opacity="0.5" stroke="blue" points="225.60859327556176,212.17986825118484 249.4257146983428,280.8228397563028 "/><polyline class="polyline" opacity="0.5" stroke="blue" points="227.17176990942843,212.09982591497428 252.71302270738084,280.0082891417864 "/><polyline class="polyline" opacity="0.5" stroke="blue" points="228.71773070565922,212.0138705110288 255.9837717502871,279.16383621942464 "/><polyline class="polyline" opacity="0.5" stroke="blue" points="230.24555644694286,211.92207706994984 259.2343494528929,278.2899809497734 "/><polyline class="polyline" opacity="0.5" stroke="blue" points="231.75434889259455,211.82452499704652 262.4611745267613,277.3872681485988 "/><polyline class="polyline" opacity="0.5" stroke="blue" points="233.2432316388853,211.72129793274254 265.66070576699667,276.4562860163091 "/><polyline class="polyline" opacity="0.5" stroke="blue" points="234.71135092902338,211.6124836074135 268.8294508689429,275.49766450835614 "/><polyline class="polyline" opacity="0.5" stroke="blue" points="236.15787641157834,211.49817369111062 271.96397501841477,274.5120735559315 "/><polyline class="polyline" opacity="0.5" stroke="blue" points="237.58200184633895,211.37846363863216 275.0609092119815,273.5002211472629 "/><polyline class="polyline" opacity="0.5" stroke="blue" points="238.98294575678614,211.25345253041294 278.1169582660558,272.4628512807127 "/><polyline class="polyline" opacity="0.5" stroke="blue" points="240.35995202856066,211.1232429097049 281.12890847613784,271.400741801653 "/><polyline class="polyline" opacity="0.5" stroke="blue" points="241.71229045349338,210.98794061652484 284.09363489045745,270.3147021357577 "/><polyline class="polyline" opacity="0.5" stroke="blue" points="243.03925721896144,210.8476546188448 287.00810816544663,269.20557093188836 "/><polyline class="polyline" opacity="0.5" stroke="blue" points="244.3401753425133,210.7024968414998 289.8694009738796,268.07421362816456 "/><polyline class="polyline" opacity="0.5" stroke="blue" points="245.61439505189065,210.55258199328227 292.6746939401279,266.92151995509823 "/><polyline class="polyline" opacity="0.5" stroke="blue" points="246.86129411075026,210.39802739268862 295.4212810807398,265.74840138981983 "/><polyline class="polyline" opacity="0.5" stroke="blue" points="248.08027809055721,210.23895279277374 298.106574732407,264.55578857546186 "/><polyline class="polyline" opacity="0.5" stroke="blue" points="249.2707805892853,210.0754802055622 300.72810995330866,263.3446287196646 "/><polyline class="polyline" opacity="0.5" stroke="blue" points="250.43226339771195,209.9077337264527 303.28354838775175,262.11588298595905 "/><polyline class="polyline" opacity="0.5" stroke="blue" points="251.5642166142484,209.73583935904065 305.7706815879411,260.8705238914503 "/><polyline class="polyline" opacity="0.5" stroke="blue" points="252.66615870937667,209.55992484076984 308.1874337905406,259.60953272379567 "/><polyline class="polyline" opacity="0.5" stroke="blue" points="253.7376365409007,209.3801194698097 310.53186414942144,258.33389698993864 "/><polyline class="polyline" opacity="0.5" stroke="blue" points="254.77822532133467,209.19655393353872 312.80216842957225,257.0446079084436 "/><polyline class="polyline" opacity="0.5" stroke="blue" points="255.78752853886644,209.0093601389969 314.99668017055603,255.74265795657732 "/><polyline class="polyline" opacity="0.5" stroke="blue" points="256.7651778334316,208.81867104565296 317.1138713310995,254.42903848252158 "/><polyline class="polyline" opacity="0.5" stroke="blue" points="257.7108328295255,208.6246205008138 319.15235242936683,253.1047373922842 "/><polyline class="polyline" opacity="0.5" stroke="blue" points="258.62418092746435,208.42734307798298 321.11087219619924,251.77073692000602 "/><polyline class="polyline" opacity="0.5" stroke="blue" points="259.5049370548742,208.2269739184574 322.9883167610495,250.42801148947026 "/><polyline class="polyline" opacity="0.5" stroke="blue" points="260.3528433802506,208.02364857642897 324.7837083925198,249.07752567369508 "/><polyline class="polyline" opacity="0.5" stroke="blue" points="261.1676689904833,207.81750286784015 326.496203817299,247.7202322585626 "/><polyline class="polyline" opacity="0.5" stroke="blue" points="261.949209534281,207.60867272321923 328.12509214290037,246.3570704154992 "/><polyline class="polyline" opacity="0.5" stroke="blue" points="262.69728683346676,207.39729404470276 329.6697924109077,244.98896398730005 "/><polyline class="polyline" opacity="0.5" stroke="blue" points="263.4117484641363,207.1835025674308 331.12985080846335,243.61681989027787 "/><polyline class="polyline" opacity="0.5" stroke="blue" points="264.09246730968795,206.96743372548067 332.50493756648154,242.2415266350358 "/><polyline class="polyline" opacity="0.5" stroke="blue" points="264.73934108773994,206.74922252248484 333.794843573544,240.8639529673063 "/><polyline class="polyline" opacity="0.5" stroke="blue" points="265.35229185294816,206.52900340705864 334.9994767346577,239.48494662948946 "/><polyline class="polyline" opacity="0.5" stroke="blue" points="265.9312654777309,206.30691015314432 336.1188581040357,238.10533324275016 "/><polyline class="polyline" opacity="0.5" stroke="blue" points="266.4762311128892,206.08307574535883 337.1531178208102,236.72591530881542 "/><polyline class="polyline" opacity="0.5" stroke="blue" points="266.98718063008965,205.85763226941447 338.1024908761432,235.34747132993982 "/><polyline class="polyline" opacity="0.5" stroke="blue" points="267.46412804814815,205.6307108076637 338.9673127395469,233.97075504489504 "/><polyline class="polyline" opacity="0.5" stroke="blue" points="267.9071089450159,205.4024413398026 339.7480148714251,232.59649477828262 "/><polyline class="polyline" opacity="0.5" stroke="blue" points="268.31617985733243,205.1729526487504 340.44512014788046,231.225392899964 "/><polyline class="polyline" opacity="0.5" stroke="blue" points="268.6914176693617,204.94237223170748 341.05923822274815,229.8581253909655 "/><polyline class="polyline" opacity="0.5" stroke="blue" points="269.0329189930806,204.71082621637905 341.591060850618,228.4953415118279 "/><polyline class="polyline" opacity="0.5" stroke="blue" points="269.34079954113395,204.47843928233738 342.0413571933201,227.13766356904497 "/><polyline class="polyline" opacity="0.5" stroke="blue" points="269.61519349431455,204.24533458748257 342.4109691309926,225.78568677496142 "/><polyline class="polyline" opacity="0.5" stroke="blue" points="269.85625286516677,204.01163369954884 342.70080659744224,224.4399791962836 "/><polyline class="polyline" opacity="0.5" stroke="blue" points="270.0641468592479,203.77745653259205 342.9118429580586,223.10108178618688 "/><polyline class="polyline" opacity="0.5" stroke="blue" points="270.23906123551996,203.54292128838335 343.04511044708113,221.76950849488668 "/><polyline class="polyline" opacity="0.5" stroke="blue" points="270.3811976672754,203.3081444026234 343.1016956795457,220.44574645346125 "/><polyline class="polyline" opacity="0.5" stroke="blue" points="270.49077310493436,203.07324049588286 343.0827352517729,219.13025622568637 "/><polyline class="polyline" opacity="0.5" stroke="blue" points="270.56801914198167,202.8383223291663 342.9894114428188,217.82347212264534 "/><polyline class="polyline" opacity="0.5" stroke="blue" points="270.61318138524155,202.60350076398956 342.8229480278924,216.52580257492127 "/><polyline class="polyline" opacity="0.5" stroke="blue" points="270.62651883062074,202.36888472685305 342.58460621337247,215.23763055724942 "/><polyline class="polyline" opacity="0.5" stroke="blue" points="270.6083032453791,202.13458117798785 342.2756807017298,213.95931406061055 "/><polyline class="polyline" opacity="0.5" stroke="blue" points="270.5588185579177,201.9006950842469 341.89749589338453,212.69118660687386 "/><polyline class="polyline" opacity="0.5" stroke="blue" points="270.4783602560077,201.6673293960079 341.45140223132205,211.4335578012423 "/><polyline class="polyline" opacity="0.5" stroke="blue" points="270.3672347943125,201.43458502795139 340.93877269313543,210.186713917924 "/><polyline class="polyline" opacity="0.5" stroke="blue" points="270.22575901199144,201.20256084357436 340.36099943408385,208.95091851463206 "/><polyline class="polyline" opacity="0.5" stroke="blue" points="270.05425956110724,200.97135364329708 339.7194905837455,207.72641307171224 "/><polyline class="polyline" opacity="0.5" stroke="blue" points="269.85307234649395,200.74105815601843 339.01566719789855,206.513417651899 "/><polyline class="polyline" opacity="0.5" stroke="blue" points="269.62254197768243,200.51176703397496 338.25096036639644,205.31213157691508 "/><polyline class="polyline" opacity="0.5" stroke="blue" points="269.3630212334176,200.28357085075635 337.4268084770043,204.1227341173436 "/><polyline class="polyline" opacity="0.5" stroke="blue" points="269.07487053924376,200.05655810233165 336.5446546344367,202.9453851924235 "/><polyline class="polyline" opacity="0.5" stroke="blue" points="268.75845745857885,199.8308152109388 335.6059442331748,201.78022607663564 "/><polyline class="polyline" opacity="0.5" stroke="blue" points="268.41415619764126,199.60642653169208 334.6121226820515,200.62738011017038 "/><polyline class="polyline" opacity="0.5" stroke="blue" points="268.0423471245436,199.38347436176284 333.5646332780669,199.48695341058055 "/><polyline class="polyline" opacity="0.5" stroke="blue" points="267.64341630281524,199.16203895198962 332.4649152264292,198.3590355831403 "/></svg>
