<?xml version="1.0" encoding="UTF-8"?>
<!DOCTYPE svg PUBLIC "-//W3C//DTD SVG 1.1//EN"
    "http://www.w3.org/Graphics/SVG/1.1/DTD/svg11.dtd"><svg width="400" height="400" stroke="black" fill="none" fill-opacity="0.75" font-style="italic" font-family="CMU Serif, sans-serif" xmlns="http://www.w3.org/2000/svg" xmlns:xlink="http://www.w3.org/1999/xlink" version="1.1"><filter id="blur"><feGaussianBlur stdDeviation="2"/></filter><rect width="100%" height="100%" fill="white" stroke="none" fill-opacity="1"/><polygon points="251.172681729755,186.5531810963957 295.73852785078094,173.36357062925595 " opacity="0.5" stroke="blue"/><polygon points="248.4481264726787,184.5224917010903 290.7327348795916,168.11524363157858 " opacity="0.5" stroke="blue"/><polygon points="245.57371843738687,182.56674441506772 285.4635888562532,163.05162993712233 " opacity="0.5" stroke="blue"/><polygon points="242.5599985160895,180.6907309395712 279.9564111978658,158.1789102098104 " opacity="0.5" stroke="blue"/><polygon points="239.4174991002916,178.89893902483533 274.23591131991117,153.50232378175235 " opacity="0.5" stroke="blue"/><polygon points="236.1567307475673,177.19557039405555 268.32619252186805,149.02629357372442 " opacity="0.5" stroke="blue"/><polygon points="232.7881736915643,175.5845581980674 262.2507789786305,144.7545416113138 " opacity="0.5" stroke="blue"/><polygon points="229.32227371500713,174.06958372937254 256.0326602762546,140.6901944270104 " opacity="0.5" stroke="blue"/><polygon points="225.76944191188704,172.65409215743833 249.6943502200776,136.8358779081658 " opacity="0.5" stroke="blue"/><polygon points="222.14005787469506,171.3413070766829 243.25795691819704,133.19380135316146 " opacity="0.5" stroke="blue"/><polygon points="218.44447585398459,170.134243684314 236.74526138925188,129.76583064262203 " opacity="0.5" stroke="blue"/><polygon points="214.6930334494642,169.0357204274141 230.1778021500119,126.55355052843876 " opacity="0.5" stroke="blue"/><polygon points="210.8960624031371,168.04836897763056 223.5769633984313,123.55831609985219 " opacity="0.5" stroke="blue"/><polygon points="207.06390107483242,167.17464240788934 216.96406451729047,120.78129351161911 " opacity="0.5" stroke="blue"/><polygon points="203.20690818809118,166.4168214591079 210.3604486804476,118.22349006264676 " opacity="0.5" stroke="blue"/><polygon points="199.33547743922367,165.77701879638929 203.78756834824577,115.88577370232841 " opacity="0.5" stroke="blue"/><polygon points="195.46005256403046,165.25718116412673 197.26706539295319,113.76888202374793 " opacity="0.5" stroke="blue"/><polygon points="191.59114245492052,164.8590893583584 190.82084350347517,111.87342078534608 " opacity="0.5" stroke="blue"/><polygon points="187.73933591584145,164.5843559431435 184.47113038739218,110.19985199288533 " opacity="0.5" stroke="blue"/><polygon points="183.91531563357586,164.4344206462654 178.24052712660983,108.74847157895708 " opacity="0.5" stroke="blue"/><polygon points="180.1298709317246,164.410543378818 172.15204186244424,107.519376745258 " opacity="0.5" stroke="blue"/><polygon points="176.39390885840177,164.51379483383425 166.22910480208225,106.51242309086904 " opacity="0.5" stroke="blue"/><polygon points="172.7184631407979,164.7450446317318 160.49556137018158,105.72717174517243 " opacity="0.5" stroke="blue"/><polygon points="169.11470051998558,165.10494699565817 154.97564020025624,105.1628268638985 " opacity="0.5" stroke="blue"/><polygon points="165.59392395850864,165.59392395850864 149.69389259821006,104.81816403744473 " opacity="0.5" stroke="blue"/><polygon points="162.1675721924863,166.21214612615228 144.67510014704808,104.6914504071446 " opacity="0.5" stroke="blue"/><polygon points="158.84721508049572,166.95951104892083 139.944147293322,104.78035759067225 " opacity="0.5" stroke="blue"/><polygon points="155.64454418492568,167.83561928632358 135.525856100809,105.08186888242996 " opacity="0.5" stroke="blue"/><polygon points="152.57135800965955,168.8397482888454 131.44478091458726,105.59218261480956 " opacity="0.5" stroke="blue"/><polygon points="149.63954131293656,169.97082426604172 127.72496148627985,106.3066140327555 " opacity="0.5" stroke="blue"/><polygon points="146.86103791843,171.22739226232667 124.38963420014521,107.21949853198082 " opacity="0.5" stroke="blue"/><polygon points="144.24781646357187,172.60758472102617 121.46090243056686,108.32409961817324 " opacity="0.5" stroke="blue"/><polygon points="141.81182855476905,174.1090888833667 118.95936875874449,109.61252543045251 " opacity="0.5" stroke="blue"/><polygon points="139.5649588473582,175.72911344173022 116.90373376203007,111.07565809923842 " opacity="0.5" stroke="blue"/><polygon points="137.51896663696323,177.46435494498382 115.31036831707301,112.70310053160402 " opacity="0.5" stroke="blue"/><polygon points="135.6854186413063,179.31096453682184 114.19286874802441,114.4831453860683 " opacity="0.5" stroke="blue"/><polygon points="134.07561277023774,181.2645156941661 113.56160658737295,116.40277096170811 " opacity="0.5" stroke="blue"/><polygon points="132.70049282911884,183.3199737195233 113.42328704709651,118.44766843414357 " opacity="0.5" stroke="blue"/><polygon points="131.57055427843278,185.47166782596838 113.78053233746644,120.60230428244503 " opacity="0.5" stroke="blue"/><polygon points="130.69574138141806,187.7132667326482 114.63150751364586,122.85002084029394 " opacity="0.5" stroke="blue"/><polygon points="130.085336311263,190.03775875831647 115.9696073630655,125.17317666738643 " opacity="0.5" stroke="blue"/><polygon points="129.74784105814652,192.43743745578422 117.78322277015431,127.55332689624458 " opacity="0.5" stroke="blue"/><polygon points="129.69085327058133,194.90389386621092 120.05560384827925,129.97144192013548 " opacity="0.5" stroke="blue"/><polygon points="129.92093747954988,197.42801648347734 122.76483481457473,132.4081608373675 " opacity="0.5" stroke="blue"/><polygon points="130.44349348003246,200.0 125.8839320919189,134.84407407359612 " opacity="0.5" stroke="blue"/><polygon points="131.26262397266908,202.6093638510127 129.3810725485339,137.2600277075875 " opacity="0.5" stroke="blue"/><polygon points="132.38100388611352,205.2449814798535 133.219953336132,139.63744037919457 " opacity="0.5" stroke="blue"/><polygon points="133.79975409374734,207.89512110842537 137.36027877444292,141.95862240961907 " opacity="0.5" stroke="blue"/><polygon points="135.5183224906956,210.5474986124111 141.7583635504965,144.20708604162192 " opacity="0.5" stroke="blue"/><polygon points="137.5343755913328,213.1893428695344 146.36783560305295,146.36783560305295 " opacity="0.5" stroke="blue"/><polygon points="139.84370392617728,215.80747367292943 151.1404169001323,148.42762695307735 " opacity="0.5" stroke="blue"/><polygon points="142.4401445434528,218.38839198488196 156.02675630204072,150.37518677136944 " opacity="0.5" stroke="blue"/><polygon points="145.31552383974912,220.91838195602924 160.97728615570026,152.20138402226246 " opacity="0.5" stroke="blue"/><polygon points="148.4596237443738,223.38362376162658 165.9430733841707,153.89934814198432 " opacity="0.5" stroke="blue"/><polygon points="151.86017395584577,225.77031592255443 170.8766366655076,155.46453099203336 " opacity="0.5" stroke="blue"/><polygon points="155.5028724748167,228.06480539956036 175.73270373341404,156.89471220845377 " opacity="0.5" stroke="blue"/><polygon points="159.37143610038441,230.25372339180868 180.46888663827042,158.18995006711882 " opacity="0.5" stroke="blue"/><polygon points="163.4476818683122,232.32412445307668 185.04625763597957,159.35248220923336 " opacity="0.5" stroke="blue"/><polygon points="167.71163962946366,234.263626278721 189.42981381577763,160.38658239363411 " opacity="0.5" stroke="blue"/><polygon points="172.14169512110647,236.06054733040546 193.588824212081,161.2983807726091 " opacity="0.5" stroke="blue"/><polygon points="176.71476200492393,237.70403936761699 197.49705857163838,162.09565598492134 " opacity="0.5" stroke="blue"/><polygon points="181.40648047032138,239.1842119556531 201.13290182986975,162.78760763024252 " opacity="0.5" stroke="blue"/><polygon points="186.19143916907015,240.49224612487393 204.4793624392714,163.38461748092823 " opacity="0.5" stroke="blue"/><polygon points="191.04341649666907,241.62049456608685 207.52398583475085,163.89800717817732 " opacity="0.5" stroke="blue"/><polygon points="195.9356366036799,242.56256605678774 210.2586864576199,164.33979924694106 " opacity="0.5" stroke="blue"/><polygon points="200.84103503833506,243.31339221183921 212.67951291779514,164.72248715114267 " opacity="0.5" stroke="blue"/><polygon points="205.73252861428435,243.86927512410887 214.78636114512926,165.0588188981369 " opacity="0.5" stroke="blue"/><polygon points="210.5832839797945,244.2279149855145 216.58264990410368,165.3615974779632 " opacity="0.5" stroke="blue"/><polygon points="215.36697944227075,244.3884173337452 218.07497198472916,165.64350026166522 " opacity="0.5" stroke="blue"/><polygon points="220.0580548694073,244.35128013009688 219.27273290630902,165.916918437988 " opacity="0.5" stroke="blue"/><polygon points="224.63194493038117,244.11836141491315 220.1877872413731,166.19381667465092 " opacity="0.5" stroke="blue"/><polygon points="229.06529153322154,243.69282878624387 220.8340808276148,166.48561246760954 " opacity="0.5" stroke="blue"/><polygon points="233.33613202678833,243.07909238473496 221.22730530436175,166.80307409338826 " opacity="0.5" stroke="blue"/><polygon points="237.4240605318575,242.2827234277559 221.38456967817189,167.15623569871948 " opacity="0.5" stroke="blue"/><polygon points="241.31036060754377,241.31036060754377 221.32409205418907,167.5543278335419 " opacity="0.5" stroke="blue"/><polygon points="244.97810830878862,240.16960684605135 221.06491330650596,168.00572163825 " opacity="0.5" stroke="blue"/><polygon points="248.41224551242945,238.8689189827405 220.62663332228223,168.51788491195137 " opacity="0.5" stroke="blue"/><polygon points="251.59962415235725,237.4174929649802 220.0291695450002,169.0973483930022 " opacity="0.5" stroke="blue"/><polygon points="254.52902268311016,235.8251470222366 219.29253685436532,169.74968075482408 " opacity="0.5" stroke="blue"/><polygon points="257.1911366672331,234.10220514624373 218.43664733821672,170.47947103934158 " opacity="0.5" stroke="blue"/><polygon points="259.5785458430894,232.2593829832958 217.48112821467862,171.2903174999149 " opacity="0.5" stroke="blue"/><polygon points="261.68566037150987,230.30767798628167 216.44515602744255,172.184822090285 " opacity="0.5" stroke="blue"/><polygon points="263.5086491828537,228.2582653878098 215.34730523960974,173.1645901028742 " opacity="0.5" stroke="blue"/><polygon points="265.04535345708376,226.1224012557892 214.20540946849428,174.23023471777898 " opacity="0.5" stroke="blue"/><polygon points="266.2951882788344,223.91133359185324 213.03643381287696,175.38138646352434 " opacity="0.5" stroke="blue"/><polygon points="267.25903543060036,221.6362221419443 211.85635700446775,176.6167078039591 " opacity="0.5" stroke="blue"/><polygon points="267.9391301353281,219.3080673160629 210.68006244720624,177.9339132454363 " opacity="0.5" stroke="blue"/><polygon points="268.3389443507611,216.93764836726675 209.52123757307544,179.32979549835613 " opacity="0.5" stroke="blue"/><polygon points="268.4630689675946,214.53547076301047 208.3922813237792,180.80025832179678 " opacity="0.5" stroke="blue"/><polygon points="268.3170969866108,212.11172249737092 207.3042199470061,182.34035672470745 " opacity="0.5" stroke="blue"/><polygon points="267.9075094597712,209.67623894140436 206.2666316575906,183.94434518844585 " opacity="0.5" stroke="blue"/><polygon points="267.2415656882141,207.2384757101772 205.28758104160877,185.60573451104855 " opacity="0.5" stroke="blue"/><polygon points="266.3271988856803,204.80748893709637 204.37356435978933,187.31735775294348 " opacity="0.5" stroke="blue"/><polygon points="265.1729182464946,202.39192228641397 203.52946712096636,189.07144558824427 " opacity="0.5" stroke="blue"/><polygon points="263.78771810830347,200.0 202.75853543344462,190.85971113907698 " opacity="0.5" stroke="blue"/><polygon points="262.1809946749695,197.63952526118592 202.06236269103073,192.67344409895438 " opacity="0.5" stroke="blue"/><polygon points="260.3624705664125,195.31788316310102 201.4408931029479,194.5036136441713 " opacity="0.5" stroke="blue"/><polygon points="258.3421272905048,193.04204758795018 200.89244342850887,196.34097930140763 " opacity="0.5" stroke="blue"/><polygon points="256.1301455870133,190.8185913338246 200.41374402840037,198.1762085995042 " opacity="0.5" stroke="blue"/><polygon points="253.73685347385268,188.6536988638789 200.0,200.0 " opacity="0.5" stroke="blue"/><polygon points="251.172681729755,186.55318109639566 199.64497273502914,201.8032092919542 " opacity="0.5" stroke="blue"/><polygon points="248.4481264726787,184.5224917010903 199.34108174023154,203.57697736954805 " opacity="0.5" stroke="blue"/><polygon points="245.5737184373869,182.56674441506772 199.07952601683607,205.3128571028024 " opacity="0.5" stroke="blue"/><polygon points="242.5599985160895,180.6907309395712 198.85042372762337,207.00293687721526 " opacity="0.5" stroke="blue"/><polygon points="239.41749910029162,178.89893902483533 198.64296831958228,208.6399583287372 " opacity="0.5" stroke="blue"/><polygon points="236.15673074756728,177.19557039405552 198.44559874466822,210.2174258435101 " opacity="0.5" stroke="blue"/><polygon points="232.7881736915643,175.5845581980674 198.246180959583,211.7297055294204 " opacity="0.5" stroke="blue"/><polygon points="229.32227371500713,174.06958372937254 198.032197513594,213.1721115955497 " opacity="0.5" stroke="blue"/><polygon points="225.76944191188704,172.65409215743833 197.79094177246668,214.54097838738403 " opacity="0.5" stroke="blue"/><polygon points="222.1400578746951,171.3413070766829 197.5097131917491,215.8337167065177 " opacity="0.5" stroke="blue"/><polygon points="218.44447585398456,170.13424368431401 197.17601005184895,217.04885347574404 " opacity="0.5" stroke="blue"/><polygon points="214.6930334494642,169.0357204274141 196.77771620072696,218.18605427308387 " opacity="0.5" stroke="blue"/><polygon points="210.8960624031371,168.04836897763056 196.3032786100201,219.24612872914102 " opacity="0.5" stroke="blue"/><polygon points="207.06390107483242,167.17464240788934 195.74187292236093,220.2310192388348 " opacity="0.5" stroke="blue"/><polygon points="203.20690818809118,166.4168214591079 195.0835546310703,221.14377386015127 " opacity="0.5" stroke="blue"/><polygon points="199.33547743922367,165.77701879638929 194.3193940634863,221.98850464094212 " opacity="0.5" stroke="blue"/><polygon points="195.46005256403046,165.25718116412673 193.4415939087267,222.7703329156409 " opacity="0.5" stroke="blue"/><polygon points="191.59114245492052,164.8590893583584 192.44358861191026,223.4953233371877 " opacity="0.5" stroke="blue"/><polygon points="187.73933591584145,164.5843559431435 191.32012552325136,224.1704085503161 " opacity="0.5" stroke="blue"/><polygon points="183.91531563357586,164.4344206462654 190.06732821825682,224.8033064701963 " opacity="0.5" stroke="blue"/><polygon points="180.1298709317246,164.41054337881803 188.68274287467608,225.40243210899948 " opacity="0.5" stroke="blue"/><polygon points="176.3939088584018,164.51379483383425 187.1653689877704,225.97680579956165 " opacity="0.5" stroke="blue"/><polygon points="172.71846314079784,164.7450446317318 185.5156760177398,226.53595951000108 " opacity="0.5" stroke="blue"/><polygon points="169.11470051998558,165.10494699565817 183.7356077865614,227.08984273766748 " opacity="0.5" stroke="blue"/><polygon points="165.59392395850864,165.59392395850864 181.82857657529453,227.6487292278439 " opacity="0.5" stroke="blue"/><polygon points="162.1675721924863,166.21214612615228 179.79944892015226,228.22312549488433 " opacity="0.5" stroke="blue"/><polygon points="158.84721508049572,166.95951104892083 177.6545250723138,228.82368184301777 " opacity="0.5" stroke="blue"/><polygon points="155.64454418492568,167.83561928632358 175.40151398061542,229.46110630179135 " opacity="0.5" stroke="blue"/><polygon points="152.57135800965958,168.8397482888454 173.04950548710838,230.1460816164828 " opacity="0.5" stroke="blue"/><polygon points="149.63954131293661,169.9708242660417 170.6089412025675,230.88918517458296 " opacity="0.5" stroke="blue"/><polygon points="146.86103791843001,171.22739226232665 168.09158526161838,231.70081151179411 " opacity="0.5" stroke="blue"/><polygon points="144.24781646357184,172.60758472102617 165.5104958536092,232.59109682961824 " opacity="0.5" stroke="blue"/><polygon points="141.81182855476902,174.1090888833667 162.87999809292648,233.56984477498884 " opacity="0.5" stroke="blue"/><polygon points="139.56495884735824,175.72911344173022 160.2156584370214,234.6464525831136 " opacity="0.5" stroke="blue"/><polygon points="137.51896663696323,177.4643549449838 157.53426048655706,235.82983656978303 " opacity="0.5" stroke="blue"/><polygon points="135.68541864130628,179.3109645368218 154.8537816132116,237.12835588074512 " opacity="0.5" stroke="blue"/><polygon points="134.0756127702377,181.2645156941661 152.193369459367,238.54973336543122 " opacity="0.5" stroke="blue"/><polygon points="132.70049282911884,183.31997371952332 149.57331694235594,240.10097244295986 " opacity="0.5" stroke="blue"/><polygon points="131.57055427843284,185.47166782596838 147.01503397649088,241.78826887336848 " opacity="0.5" stroke="blue"/><polygon points="130.695741381418,187.71326673264818 144.54101370196904,243.61691644084593 " opacity="0.5" stroke="blue"/><polygon points="130.085336311263,190.03775875831644 142.17479058574776,245.59120570389507 " opacity="0.5" stroke="blue"/><polygon points="129.74784105814652,192.43743745578425 139.94088734291927,247.71431517644265 " opacity="0.5" stroke="blue"/><polygon points="129.69085327058136,194.90389386621092 137.8647472286442,249.98819458143026 " opacity="0.5" stroke="blue"/><polygon points="129.92093747954988,197.42801648347734 135.9726478853152,252.41344017237728 " opacity="0.5" stroke="blue"/><polygon points="130.4434934800325,200.0 134.291592617501,254.98916255672827 " opacity="0.5" stroke="blue"/><polygon points="131.26262397266908,202.60936385101266 132.84917473453885,257.7128479844263 " opacity="0.5" stroke="blue"/><polygon points="132.3810038861135,205.24498147985352 131.67341048007788,260.5802146908802 " opacity="0.5" stroke="blue"/><polygon points="133.79975409374734,207.89512110842537 130.79253609878097,263.5850666063984 " opacity="0.5" stroke="blue"/><polygon points="135.5183224906956,210.5474986124111 130.23476481829886,266.7191475597882 " opacity="0.5" stroke="blue"/><polygon points="137.5343755913328,213.1893428695344 130.02800000000002,269.972 " opacity="0.5" stroke="blue"/><polygon points="139.84370392617723,215.80747367292938 130.19950148775865,273.3308332142457 " opacity="0.5" stroke="blue"/><polygon points="142.44014454345282,218.388391984882 130.7755033121935,276.78040699938106 " opacity="0.5" stroke="blue"/><polygon points="145.31552383974912,220.91838195602926 131.78078243351524,280.3029376965406 " opacity="0.5" stroke="blue"/><polygon points="148.4596237443738,223.38362376162655 133.23818016171987,283.87803436229353 " opacity="0.5" stroke="blue"/><polygon points="151.8601739558457,225.7703159225544 135.16808028875607,287.48267354215875 " opacity="0.5" stroke="blue"/><polygon points="155.50287247481663,228.0648053995603 137.58785078291615,291.0912215389138 " opacity="0.5" stroke="blue"/><polygon points="159.37143610038441,230.2537233918087 140.51125906956827,294.67551312282734 " opacity="0.5" stroke="blue"/><polygon points="163.44768186831217,232.3241244530767 143.94787434313815,298.2049952038649 " opacity="0.5" stroke="blue"/><polygon points="167.71163962946363,234.263626278721 147.90247385538567,301.64694297302793 " opacity="0.5" stroke="blue"/><polygon points="172.1416951211064,236.06054733040543 152.37447347865293,304.96675433598057 " opacity="0.5" stroke="blue"/><polygon points="176.71476200492384,237.70403936761699 157.3574057704641,308.1283260556702 " opacity="0.5" stroke="blue"/><polygon points="181.40648047032138,239.18421195565313 162.8384709476798,311.0945118907744 " opacity="0.5" stroke="blue"/><polygon points="186.19143916907018,240.49224612487396 168.79818727676772,313.82765922820687 " opacity="0.5" stroke="blue"/><polygon points="191.04341649666904,241.62049456608685 175.21016707889117,316.29021640265637 " opacity="0.5" stroke="blue"/><polygon points="195.93563660367988,242.56256605678774 182.04104256690607,318.44539829848827 " opacity="0.5" stroke="blue"/><polygon points="200.84103503833518,243.31339221183921 189.25056190818458,320.25789324103494 " opacity="0.5" stroke="blue"/><polygon points="205.7325286142844,243.86927512410892 196.79187021694167,321.69458996781026 " opacity="0.5" stroke="blue"/><polygon points="210.58328397979454,244.2279149855145 204.61198277282864,322.725300019755 " opacity="0.5" stroke="blue"/><polygon points="215.36697944227072,244.3884173337452 212.65244898188868,323.323448594341 " opacity="0.5" stroke="blue"/><polygon points="220.0580548694073,244.35128013009688 220.85019597037098,323.4667060874292 " opacity="0.5" stroke="blue"/><polygon points="224.63194493038128,244.11836141491312 229.13853091225144,323.13753344803945 " opacity="0.5" stroke="blue"/><polygon points="229.06529153322157,243.69282878624387 237.44827201043105,322.32361716564196 " opacity="0.5" stroke="blue"/><polygon points="233.33613202678833,243.07909238473496 245.70897026327867,321.01817412041635 " opacity="0.5" stroke="blue"/><polygon points="237.42406053185746,242.28272342775594 253.8501784560343,319.2201123962356 " opacity="0.5" stroke="blue"/><polygon points="241.3103606075438,241.3103606075438 261.80272075620064,316.9340410712636 " opacity="0.5" stroke="blue"/><polygon points="244.9781083087887,240.16960684605132 269.4999161609254,314.17012943453983 " opacity="0.5" stroke="blue"/><polygon points="248.41224551242948,238.8689189827405 276.8787118617819,310.94382344456824 " opacity="0.5" stroke="blue"/><polygon points="251.59962415235728,237.41749296498017 283.8806880961135,307.27543397355663 " opacity="0.5" stroke="blue"/><polygon points="254.52902268311016,235.8251470222366 290.45290373512864,303.189616969203 " opacity="0.5" stroke="blue"/><polygon points="257.1911366672331,234.10220514624373 296.5485610273839,298.7147697433359 " opacity="0.5" stroke="blue"/><polygon points="259.57854584308944,232.25938298329578 302.12747778789185,293.88236995339946 " opacity="0.5" stroke="blue"/><polygon points="261.68566037150987,230.30767798628165 307.15636511144555,288.7262844409921 " opacity="0.5" stroke="blue"/><polygon points="263.5086491828537,228.25826538780976 311.6089176895295,283.2820740536965 " opacity="0.5" stroke="blue"/><polygon points="265.04535345708376,226.1224012557892 315.46573146576884,277.58631815395387 " opacity="0.5" stroke="blue"/><polygon points="266.2951882788344,223.91133359185324 318.71406930303635,271.67597905040805 " opacity="0.5" stroke="blue"/><polygon points="267.2590354306004,221.63622214194427 321.3474993800815,265.587822452024 " opacity="0.5" stroke="blue"/><polygon points="267.9391301353281,219.30806731606287 323.3654331933921,259.3579056190588 " opacity="0.5" stroke="blue"/><polygon points="268.3389443507611,216.93764836726672 324.7725904679286,253.02114050429404 " opacity="0.5" stroke="blue"/><polygon points="268.4630689675946,214.53547076301047 325.5784172431102,246.61093511605358 " opacity="0.5" stroke="blue"/><polygon points="268.31709698661086,212.11172249737092 325.79648122486776,240.15891278859115 " opacity="0.5" stroke="blue"/><polygon points="267.9075094597712,209.67623894140434 325.4438655274522,233.69470613483514 " opacity="0.5" stroke="blue"/><polygon points="267.2415656882141,207.23847571017717 324.54057850197404,227.24582022943787 " opacity="0.5" stroke="blue"/><polygon points="266.32719888568033,204.80748893709634 323.1089937547017,220.83755801586534 " opacity="0.5" stroke="blue"/><polygon points="265.1729182464946,202.39192228641397 321.17333093491663,214.4929999951391 " opacity="0.5" stroke="blue"/><polygon points="263.78771810830347,200.0 318.7591845974108,208.2330298522248 " opacity="0.5" stroke="blue"/><polygon points="262.1809946749695,197.63952526118592 315.89310553743394,202.07639771046317 " opacity="0.5" stroke="blue"/><polygon points="260.3624705664125,195.317883163101 312.6022365224082,196.03981307273997 " opacity="0.5" stroke="blue"/><polygon points="258.3421272905047,193.04204758795015 308.91400232777795,190.13806011309768 " opacity="0.5" stroke="blue"/><polygon points="256.1301455870133,190.8185913338246 304.8558524133856,184.38412873754555 " opacity="0.5" stroke="blue"/><polygon points="253.73685347385268,188.6536988638789 300.45505341764095,178.7893556648923 " opacity="0.5" stroke="blue"/></svg>
