<?xml version="1.0" encoding="UTF-8"?>
<!DOCTYPE svg PUBLIC "-//W3C//DTD SVG 1.1//EN"
    "http://www.w3.org/Graphics/SVG/1.1/DTD/svg11.dtd"><svg width="400" height="400" stroke="black" fill="none" fill-opacity="0.75" font-style="italic" font-family="CMU Serif, sans-serif" xmlns="http://www.w3.org/2000/svg" xmlns:xlink="http://www.w3.org/1999/xlink" version="1.1"><filter id="blur"><feGaussianBlur stdDeviation="2"/></filter><rect width="100%" height="100%" fill="white" stroke="none" fill-opacity="1"/><polygon points="228.09660507534954,164.52597469623515 252.6371652474223,133.83986368719604 " opacity="0.5" stroke="blue"/><polygon points="225.11633054383572,161.8749289713626 248.22752017094854,127.87659681392489 " opacity="0.5" stroke="blue"/><polygon points="222.04013775774254,159.35619538227883 243.61575386954343,122.13225794495132 " opacity="0.5" stroke="blue"/><polygon points="218.87664440923095,156.97752690791182 238.8192698036134,116.62360056636047 " opacity="0.5" stroke="blue"/><polygon points="215.6347070395222,154.74647882148918 233.85617517492935,111.36727015311376 " opacity="0.5" stroke="blue"/><polygon points="212.3234302569383,152.6704041422038 228.74534681424598,106.37983115473553 " opacity="0.5" stroke="blue"/><polygon points="208.95217620707012,150.75644611729598 223.50650142700223,101.67778014882367 " opacity="0.5" stroke="blue"/><polygon points="205.5305739103082,149.01152749305825 218.16026797450348,97.27754315863453 " opacity="0.5" stroke="blue"/><polygon points="202.06852805893357,147.4423363501769 212.72825967570753,93.1954550709207 " opacity="0.5" stroke="blue"/><polygon points="198.57622684161686,146.05530829886285 207.23314278031003,89.44771904852871 " opacity="0.5" stroke="blue"/><polygon points="195.06414833796674,144.85660485335026 201.6986988911544,86.05034382557082 " opacity="0.5" stroke="blue"/><polygon points="191.5430650003424,143.8520878345547 196.1498772111139,83.01905682074344 " opacity="0.5" stroke="blue"/><polygon points="188.02404571532244,143.04728968501047 190.61283266955078,80.36919112885828 " opacity="0.5" stroke="blue"/><polygon points="184.51845491405143,142.44737962268073 185.1149454652561,78.1155446766841 " opacity="0.5" stroke="blue"/><polygon points="181.03794818041513,142.05712561084295 179.6848171722622,76.27221018337758 " opacity="0.5" stroke="blue"/><polygon points="177.59446379011104,141.88085218091922 174.3522382255095,74.85237507542391 " opacity="0.5" stroke="blue"/><polygon points="174.20020960387671,141.92239421462926 169.14812137636932,73.8680911973394 " opacity="0.5" stroke="blue"/><polygon points="170.8676447363266,142.18504687179714 164.1043956325246,73.33001505518368 " opacity="0.5" stroke="blue"/><polygon points="167.60945543011178,142.67151194087563 159.25385532842657,73.24712044630503 " opacity="0.5" stroke="blue"/><polygon points="164.43852458569108,143.38384099076887 154.6299593717718,73.6263866713808 " opacity="0.5" stroke="blue"/><polygon points="161.36789443219615,144.32337581440447 150.26657643953058,74.47246708443261 " opacity="0.5" stroke="blue"/><polygon points="158.41072187700559,145.49068677580067 146.19767301136196,75.7873444842176 " opacity="0.5" stroke="blue"/><polygon points="155.5802261429284,146.8855098015478 142.4569426754262,77.56998173311382 " opacity="0.5" stroke="blue"/><polygon points="152.88962839433108,148.50668289246653 139.07737714940723,79.81597792633264 " opacity="0.5" stroke="blue"/><polygon points="150.35208316874525,150.35208316874525 136.0907819275737,82.51724231401514 " opacity="0.5" stroke="blue"/><polygon points="147.9806015695455,152.41856559834665 133.52724235480486,85.66169986119436 " opacity="0.5" stroke="blue"/><polygon points="145.78796633855555,154.7019046893419 131.41454915621733,89.23304365034896 " opacity="0.5" stroke="blue"/><polygon points="143.7866391143719,157.19674054674869 129.77759587937135,93.21055010667914 " opacity="0.5" stroke="blue"/><polygon points="141.98866039114822,159.89653079738895 128.63776414368147,97.56897307308725 " opacity="0.5" stroke="blue"/><polygon points="140.40554292064837,162.79350996566345 128.01231579711316,102.2785319118751 " opacity="0.5" stroke="blue"/><polygon points="139.04815954325102,165.8786579320527 127.91381377368478,107.30500693324328 " opacity="0.5" stroke="blue"/><polygon points="137.92662668548144,169.14167911761484 128.3495953285749,112.60995247858071 " opacity="0.5" stroke="blue"/><polygon points="137.05018501528278,172.57099400508645 129.32132211223563,118.1510339354109 " opacity="0.5" stroke="blue"/><polygon points="136.42707899292532,176.15374452441318 130.8246309855874,123.88248994828015 " opacity="0.5" stroke="blue"/><polygon points="136.06443728526654,179.87581469282924 132.84890740916453,129.75571534287633 " opacity="0.5" stroke="blue"/><polygon points="135.96815621316807,183.72186770377348 135.3771996065464,135.71995413098514 " opacity="0.5" stroke="blue"/><polygon points="136.14278856488698,187.67540040390531 138.38628659047066,141.7230858286413 " opacity="0.5" stroke="blue"/><polygon points="136.59144022085508,191.71881578470487 141.84690678094202,147.71248266744655 " opacity="0.5" stroke="blue"/><polygon points="137.31567708676363,195.8335137489363 145.72414671199033,153.63591058347617 " opacity="0.5" stroke="blue"/><polygon points="138.3154448129527,200.0 149.97798170575555,159.44244355646788 " opacity="0.5" stroke="blue"/><polygon points="139.5890036815216,204.19801245440573 154.5639529477299,165.08335927240475 " opacity="0.5" stroke="blue"/><polygon points="141.13288086383437,208.40666410770265 159.4339586964223,170.51298438169437 " opacity="0.5" stroke="blue"/><polygon points="142.94184198910725,212.60460080821133 164.53713192567415,175.68945984051862 " opacity="0.5" stroke="blue"/><polygon points="145.00888362225362,216.77017192876127 169.82077294118878,180.57540079699356 " opacity="0.5" stroke="blue"/><polygon points="147.32524783297973,220.88161149343205 175.23130369333086,185.13843089992343 " opacity="0.5" stroke="blue"/><polygon points="149.88045955921524,224.9172269332462 180.71521070496482,189.35157732688612 " opacity="0.5" stroke="blue"/><polygon points="152.66238694111598,228.8555923301451 186.21994564285293,193.1935197390995 " opacity="0.5" stroke="blue"/><polygon points="155.65732424517603,232.6757427785833 191.6947563188349,196.64869324762864 " opacity="0.5" stroke="blue"/><polygon points="158.85009643196224,236.3573663617471 197.09142592443672,199.70725183477938 " opacity="0.5" stroke="blue"/><polygon points="162.22418386759875,239.8809902136829 202.36490411871657,202.36490411871657 " opacity="0.5" stroke="blue"/><polygon points="165.761865160542,243.22815722367267 207.47381972405526,204.6226375988915 " opacity="0.5" stroke="blue"/><polygon points="169.44437564251422,246.38159013397035 212.38087078878823,206.48635042633825 " opacity="0.5" stroke="blue"/><polygon points="173.25207862451998,249.32534008020323 217.05309326935372,207.96641128559872 " opacity="0.5" stroke="blue"/><polygon points="177.16464626106057,252.04491701403322 221.46201428351822,209.07716824381902 " opacity="0.5" stroke="blue"/><polygon points="181.16124665911127,254.52739991440885 225.5836996117198,209.83642659152696 " opacity="0.5" stroke="blue"/><polygon points="185.2207337793322,256.76152521779875 229.3987078005725,210.26491399650683 " opacity="0.5" stroke="blue"/><polygon points="189.32183669640125,258.7377524577539 232.8919648666365,210.3857489682983 " opacity="0.5" stroke="blue"/><polygon points="193.44334490923382,260.44830667752575 236.05257429643402,210.22392593460364 " opacity="0.5" stroke="blue"/><polygon points="197.56428661145998,261.8871977440113 238.87357692611505,209.80582738768018 " opacity="0.5" stroke="blue"/><polygon points="201.6640971351594,263.0502172262204 241.35167452402277,209.15877075759076 " opacity="0.5" stroke="blue"/><polygon points="205.7227751507251,263.9349139884536 243.48692966252045,208.31059505584508 " opacity="0.5" stroke="blue"/><polygon points="209.7210246250444,264.54055007248166 245.2824529155082,207.2892900091441 " opacity="0.5" stroke="blue"/><polygon points="213.64038099024123,264.868038793137 246.7440867010552,206.12266842929444 " opacity="0.5" stroke="blue"/><polygon points="217.46332043745176,264.91986724092277 247.8800933265423,204.83808096740208 " opacity="0.5" stroke="blue"/><polygon points="221.1733517070512,264.70000557070364 248.70085308228,203.4621711758553 " opacity="0.5" stroke="blue"/><polygon points="224.75509018284646,264.2138055583121 249.21857663837548,202.0206679276921 " opacity="0.5" stroke="blue"/><polygon points="228.19431449991936,263.4678909314366 249.44703457468333,200.53821168371917 " opacity="0.5" stroke="blue"/><polygon points="231.47800623381778,262.4700419346725 249.40130564096745,199.03821080985884 " opacity="0.5" stroke="blue"/><polygon points="234.59437354543306,261.2290764804233 249.09754431387128,197.5427240846935 " opacity="0.5" stroke="blue"/><polygon points="237.53285990691884,259.7547300781083 248.55276738691458,196.07236565498866 " opacity="0.5" stroke="blue"/><polygon points="240.28413922793266,258.05753653518286 247.78465868912895,194.64622895320235 " opacity="0.5" stroke="blue"/><polygon points="242.84009883927195,256.14871119617794 246.81139056153177,193.28182644825304 " opacity="0.5" stroke="blue"/><polygon points="245.19381187564983,254.0400382411615 245.65146041006824,191.99504252675442 " opacity="0.5" stroke="blue"/><polygon points="247.3395006354845,251.743763312662 244.32354047968386,190.8000972691862 " opacity="0.5" stroke="blue"/><polygon points="249.27249248887907,249.27249248887907 242.84633893792164,189.70951937126927 " opacity="0.5" stroke="blue"/><polygon points="250.98916986183713,246.63909837825796 241.23847040008107,188.7341269463241 " opacity="0.5" stroke="blue"/><polygon points="252.4869157518728,243.85663388204034 239.51833415520264,187.88301541398693 " opacity="0.5" stroke="blue"/><polygon points="253.76405613417668,240.93825396158965 237.7039985481273,187.16355212122895 " opacity="0.5" stroke="blue"/><polygon points="254.81980050470577,237.89714555907776 235.8130902241398,186.58137774194145 " opacity="0.5" stroke="blue"/><polygon points="255.65418168277867,234.74646565522482 233.86268723676292,186.14041485158862 " opacity="0.5" stroke="blue"/><polygon points="256.26799586612395,231.49928730680807 231.86921534430977,185.8428843648527 " opacity="0.5" stroke="blue"/><polygon points="256.6627438002522,228.1685533893096 229.84834716527558,185.68933074904152 " opacity="0.5" stroke="blue"/><polygon points="256.8405737951441,224.7670376753267 227.81490421497418,185.67865707755038 " opacity="0.5" stroke="blue"/><polygon points="256.8042271984546,221.30731280566584 225.78276219415528,185.80817106038074 " opacity="0.5" stroke="blue"/><polygon points="256.5569868178891,217.8017246554418 223.76476023251237,186.07364317874868 " opacity="0.5" stroke="blue"/><polygon points="256.1026286776405,214.26237255983108 221.77261509356975,186.4693779563723 " opacity="0.5" stroke="blue"/><polygon points="255.44537739571388,210.70109484111902 219.8168416100183,186.98829922189805 " opacity="0.5" stroke="blue"/><polygon points="254.58986538106757,207.1294590680401 217.90668082813986,187.62204995895397 " opacity="0.5" stroke="blue"/><polygon points="253.5410959717955,203.5587564779497 216.0500374855207,188.36110700978327 " opacity="0.5" stroke="blue"/><polygon points="252.3044105677809,200.0 214.25342851844036,189.19491050624222 " opacity="0.5" stroke="blue"/><polygon points="250.88545975281482,196.46392533133678 212.5219442871634,190.1120074627153 " opacity="0.5" stroke="blue"/><polygon points="249.29017835137034,192.9609945366911 210.85922411494772,191.1002084971229 " opacity="0.5" stroke="blue"/><polygon points="247.52476432318937,189.50140166312826 209.26744755969702,192.14675616935435 " opacity="0.5" stroke="blue"/><polygon points="245.59566136363884,186.09507988488053 207.7473425797144,193.23850296369577 " opacity="0.5" stroke="blue"/><polygon points="243.50954504845078,182.75170971707828 206.2982114251488,194.36209651640408 " opacity="0.5" stroke="blue"/><polygon points="241.2733123369951,179.4807278609685 204.9179746968423,195.50416932414416 " opacity="0.5" stroke="blue"/><polygon points="238.89407422768792,176.2913362662265 203.60323358052236,196.6515298841251 " opacity="0.5" stroke="blue"/><polygon points="236.37915134159155,173.19251101774844 202.34934980576827,197.79135202954663 " opacity="0.5" stroke="blue"/><polygon points="233.73607219485683,170.19301067457525 201.15054241702936,198.91135914675766 " opacity="0.5" stroke="blue"/><polygon points="230.97257390659723,167.30138370717822 200.0,200.0 " opacity="0.5" stroke="blue"/><polygon points="228.09660507534952,164.52597469623515 198.89000660206122,201.0466130461159 " opacity="0.5" stroke="blue"/><polygon points="225.11633054383572,161.8749289713626 197.81207923947787,202.0415763890567 " opacity="0.5" stroke="blue"/><polygon points="222.04013775774257,159.35619538227883 196.75711461256654,202.9764408902519 " opacity="0.5" stroke="blue"/><polygon points="218.87664440923095,156.9775269079118 195.71554246487463,203.84404439838173 " opacity="0.5" stroke="blue"/><polygon points="215.6347070395222,154.74647882148918 194.67748293036192,204.63860556920352 " opacity="0.5" stroke="blue"/><polygon points="212.3234302569383,152.6704041422038 193.63290521526673,205.35579628850573 " opacity="0.5" stroke="blue"/><polygon points="208.95217620707012,150.75644611729598 192.57178505522393,205.99279226362242 " opacity="0.5" stroke="blue"/><polygon points="205.5305739103082,149.01152749305825 191.48425856503516,206.54830188641563 " opacity="0.5" stroke="blue"/><polygon points="202.06852805893357,147.4423363501769 190.3607703460791,207.0225739704296 " opacity="0.5" stroke="blue"/><polygon points="198.5762268416169,146.05530829886285 189.19221401951563,207.41738540753397 " opacity="0.5" stroke="blue"/><polygon points="195.06414833796674,144.8566048533503 187.97006369516117,207.7360101594939 " opacity="0.5" stroke="blue"/><polygon points="191.54306500034244,143.8520878345547 186.68649524843454,207.98317128696104 " opacity="0.5" stroke="blue"/><polygon points="188.02404571532244,143.04728968501047 185.33449664368388,208.1649779167249 " opacity="0.5" stroke="blue"/><polygon points="184.5184549140514,142.44737962268073 183.90796689536688,208.2888491567785 " opacity="0.5" stroke="blue"/><polygon points="181.03794818041513,142.05712561084295 182.40180358481422,208.36342699119285 " opacity="0.5" stroke="blue"/><polygon points="177.59446379011104,141.88085218091922 180.81197913800506,208.39848012991678 " opacity="0.5" stroke="blue"/><polygon points="174.20020960387674,141.9223942146293 179.13560631001297,208.40480066215994 " opacity="0.5" stroke="blue"/><polygon points="170.8676447363266,142.18504687179714 177.37099350843758,208.39409517766387 " opacity="0.5" stroke="blue"/><polygon points="167.60945543011178,142.67151194087563 175.51769071778747,208.3788717907138 " opacity="0.5" stroke="blue"/><polygon points="164.43852458569108,143.38384099076887 173.57652685837922,208.3723242403796 " opacity="0.5" stroke="blue"/><polygon points="161.36789443219612,144.32337581440447 171.549639427869,208.388213960152 " opacity="0.5" stroke="blue"/><polygon points="158.4107218770056,145.49068677580064 169.44049723366163,208.44075072314135 " opacity="0.5" stroke="blue"/><polygon points="155.58022614292835,146.88550980154778 167.2539169340114,208.54447218663339 " opacity="0.5" stroke="blue"/><polygon points="152.88962839433108,148.50668289246653 164.99607396937978,208.71412239222573 " opacity="0.5" stroke="blue"/><polygon points="150.35208316874525,150.35208316874525 162.67450828885333,208.96452903404204 " opacity="0.5" stroke="blue"/><polygon points="147.9806015695455,152.41856559834665 160.29812506484637,209.31047909561835 " opacity="0.5" stroke="blue"/><polygon points="145.78796633855555,154.7019046893419 157.87719034885902,209.7665922830725 " opacity="0.5" stroke="blue"/><polygon points="143.78663911437187,157.19674054674869 155.42332135793717,210.3471915544984 " opacity="0.5" stroke="blue"/><polygon points="141.98866039114822,159.89653079738895 152.94947080222406,211.06616996907232 " opacity="0.5" stroke="blue"/><polygon points="140.40554292064837,162.79350996566342 150.46990437564136,211.93685305970678 " opacity="0.5" stroke="blue"/><polygon points="139.04815954325102,165.87865793205262 148.00017024209293,212.97185597560514 " opacity="0.5" stroke="blue"/><polygon points="137.92662668548144,169.14167911761487 145.5570590674448,214.182934750939 " opacity="0.5" stroke="blue"/><polygon points="137.05018501528275,172.57099400508645 143.1585528830606,215.580831237974 " opacity="0.5" stroke="blue"/><polygon points="136.42707899292532,176.15374452441318 140.82376083160483,217.17511150164628 " opacity="0.5" stroke="blue"/><polygon points="136.0644372852665,179.8758146928292 138.57283965375944,218.97399781122817 " opacity="0.5" stroke="blue"/><polygon points="135.96815621316807,183.72186770377346 136.42689664095232,220.98419478516124 " opacity="0.5" stroke="blue"/><polygon points="136.14278856488696,187.67540040390534 134.40787272158406,223.2107107469227 " opacity="0.5" stroke="blue"/><polygon points="136.5914402208551,191.71881578470487 132.53840338556012,225.65667592923973 " opacity="0.5" stroke="blue"/><polygon points="137.31567708676357,195.83351374893627 130.84165530420083,228.32315981312843 " opacity="0.5" stroke="blue"/><polygon points="138.3154448129527,200.0 129.34113678989087,231.20899059376964 " opacity="0.5" stroke="blue"/><polygon points="139.58900368152158,204.19801245440567 128.06048068094495,234.31058050736289 " opacity="0.5" stroke="blue"/><polygon points="141.1328808638344,208.40666410770268 127.02319884787971,237.62176150466286 " opacity="0.5" stroke="blue"/><polygon points="142.94184198910727,212.60460080821136 126.2524083081608,241.13363648278587 " opacity="0.5" stroke="blue"/><polygon points="145.00888362225362,216.77017192876127 125.77052991040539,244.83445194394486 " opacity="0.5" stroke="blue"/><polygon points="147.3252478329797,220.88161149343196 125.59896169847671,248.70949848749223 " opacity="0.5" stroke="blue"/><polygon points="149.88045955921518,224.91722693324613 125.7577303703924,252.74104590371485 " opacity="0.5" stroke="blue"/><polygon points="152.66238694111598,228.85559233014516 126.26512567069697,256.90831976474703 " opacity="0.5" stroke="blue"/><polygon points="155.65732424517603,232.67574277858333 127.1373240452807,261.1875262409654 " opacity="0.5" stroke="blue"/><polygon points="158.85009643196224,236.35736636174707 128.38800937470378,265.5519313571583 " opacity="0.5" stroke="blue"/><polygon points="162.22418386759875,239.8809902136829 130.02800000000002,269.972 " opacity="0.5" stroke="blue"/><polygon points="165.7618651605419,243.2281572236726 132.0648924649114,274.415598673247 " opacity="0.5" stroke="blue"/><polygon points="169.44437564251425,246.38159013397038 134.50273331417299,278.84826427023813 " opacity="0.5" stroke="blue"/><polygon points="173.25207862451998,249.32534008020323 137.3417308023435,283.23353902513463 " opacity="0.5" stroke="blue"/><polygon points="177.16464626106054,252.04491701403322 140.57801838443365,287.53336937886064 " opacity="0.5" stroke="blue"/><polygon points="181.16124665911124,254.52739991440885 144.20348130046574,291.7085638514527 " opacity="0.5" stroke="blue"/><polygon points="185.2207337793321,256.7615252177987 148.20565638353912,295.7193022804304 " opacity="0.5" stroke="blue"/><polygon points="189.32183669640125,258.73775245775397 152.56771340698674,299.52568612180266 " opacity="0.5" stroke="blue"/><polygon points="193.44334490923384,260.4483066775258 157.26852387930924,303.0883170894433 " opacity="0.5" stroke="blue"/><polygon points="197.56428661145995,261.8871977440113 162.28282028381497,306.3688894053329 " opacity="0.5" stroke="blue"/><polygon points="201.66409713515935,263.05021722622035 167.58144547896524,309.33077951002826 " opacity="0.5" stroke="blue"/><polygon points="205.72277515072503,263.9349139884536 173.13168850148446,311.9396163728643 " opacity="0.5" stroke="blue"/><polygon points="209.72102462504444,264.5405500724817 178.89769955153912,314.1638156338727 " opacity="0.5" stroke="blue"/><polygon points="213.64038099024125,264.868038793137 184.8409737035363,315.9750617378206 " opacity="0.5" stroke="blue"/><polygon points="217.46332043745176,264.9198672409227 190.92089008581888,317.348723956968 " opacity="0.5" stroke="blue"/><polygon points="221.1733517070512,264.70000557070364 197.0952910897453,318.26419465320964 " opacity="0.5" stroke="blue"/><polygon points="224.75509018284654,264.2138055583121 203.3210847418793,318.70514115713706 " opacity="0.5" stroke="blue"/><polygon points="228.1943144999194,263.4678909314366 209.55485278457306,318.659666053421 " opacity="0.5" stroke="blue"/><polygon points="231.4780062338178,262.4700419346725 215.75344727937053,318.1203742452959 " opacity="0.5" stroke="blue"/><polygon points="234.59437354543306,261.2290764804233 221.87455963035066,317.0843487059242 " opacity="0.5" stroke="blue"/><polygon points="237.53285990691884,259.7547300781083 227.8772477198262,315.5530401041184 " opacity="0.5" stroke="blue"/><polygon points="240.2841392279327,258.0575365351828 233.72240921052935,313.5320783394005 " opacity="0.5" stroke="blue"/><polygon points="242.84009883927195,256.1487111961779 239.37319182070422,311.03101630270044 " opacity="0.5" stroke="blue"/><polygon points="245.19381187564983,254.0400382411615 244.79533433301734,308.0630178107132 " opacity="0.5" stroke="blue"/><polygon points="247.3395006354845,251.743763312662 249.95743507068545,304.6445026131281 " opacity="0.5" stroke="blue"/><polygon points="249.2724924888791,249.2724924888791 254.83114739919284,300.79476166088745 " opacity="0.5" stroke="blue"/><polygon points="250.98916986183718,246.63909837825793 259.39130435340644,296.53555551036584 " opacity="0.5" stroke="blue"/><polygon points="252.4869157518728,243.8566338820403 263.6159766479957,291.89070791425814 " opacity="0.5" stroke="blue"/><polygon points="253.76405613417668,240.93825396158962 267.48647004257725,286.88570542622534 " opacity="0.5" stroke="blue"/><polygon points="254.81980050470577,237.89714555907779 270.9872692777758,281.54731234243553 " opacity="0.5" stroke="blue"/><polygon points="255.65418168277864,234.74646565522482 274.1059365829667,275.90320863660247 " opacity="0.5" stroke="blue"/><polygon points="256.26799586612395,231.49928730680801 276.8329731156339,269.9816568234444 " opacity="0.5" stroke="blue"/><polygon points="256.6627438002522,228.16855338930958 279.161651679755,263.8112020003031 " opacity="0.5" stroke="blue"/><polygon points="256.8405737951441,224.76703767532666 281.08782875165946,257.4204077405294 " opacity="0.5" stroke="blue"/><polygon points="256.8042271984546,221.30731280566584 282.609743286356,250.8376290975523 " opacity="0.5" stroke="blue"/><polygon points="256.5569868178891,217.8017246554418 283.7278090545444,244.09082275827632 " opacity="0.5" stroke="blue"/><polygon points="256.1026286776405,214.26237255983105 284.4444064343351,237.20739337420497 " opacity="0.5" stroke="blue"/><polygon points="255.4453773957139,210.70109484111896 284.7636787079905,230.21407429956398 " opacity="0.5" stroke="blue"/><polygon points="254.58986538106757,207.12945906804003 284.6913370389703,223.13684036747532 " opacity="0.5" stroke="blue"/><polygon points="253.54109597179547,203.5587564779497 284.2344774641476,216.00084991962308 " opacity="0.5" stroke="blue"/><polygon points="252.30441056778093,200.0 283.40141245626955,208.83041304839332 " opacity="0.5" stroke="blue"/><polygon points="250.8854597528148,196.46392533133675 282.2015189094858,201.64898288713252 " opacity="0.5" stroke="blue"/><polygon points="249.29017835137032,192.96099453669103 280.64510378511045,194.47916676733286 " opacity="0.5" stroke="blue"/><polygon points="247.52476432318937,189.5014016631282 278.74328812831044,187.34275412555672 " opacity="0.5" stroke="blue"/><polygon points="245.59566136363884,186.09507988488056 276.50790972661844,180.26075816415025 " opacity="0.5" stroke="blue"/><polygon points="243.50954504845078,182.75170971707828 273.95144432177966,173.25346842727578 " opacity="0.5" stroke="blue"/><polygon points="241.27331233699508,179.48072786096847 271.08694499854107,166.34051162957556 " opacity="0.5" stroke="blue"/><polygon points="238.89407422768792,176.29133626622647 267.9279991469987,159.54091825394892 " opacity="0.5" stroke="blue"/><polygon points="236.37915134159152,173.19251101774842 264.4887022175302,152.87319260555122 " opacity="0.5" stroke="blue"/><polygon points="233.73607219485683,170.19301067457528 260.7836473473364,146.3553841620553 " opacity="0.5" stroke="blue"/><polygon points="230.97257390659723,167.30138370717822 256.8279298234511,140.0051581887862 " opacity="0.5" stroke="blue"/></svg>
