<?xml version="1.0" encoding="UTF-8"?>
<!DOCTYPE svg PUBLIC "-//W3C//DTD SVG 1.1//EN"
    "http://www.w3.org/Graphics/SVG/1.1/DTD/svg11.dtd"><svg width="400" height="400" stroke="black" fill="none" fill-opacity="0.75" font-size="14" font-style="italic" font-family="sans-serif" xmlns="http://www.w3.org/2000/svg" xmlns:xlink="http://www.w3.org/1999/xlink" version="1.1"><filter id="blur1"><feGaussianBlur stdDeviation="0.5"/></filter><rect width="100%" height="100%" fill="white" stroke="none" fill-opacity="1"/><rect class="bg" fill="black" width="100%" height="100%" stroke="none" fill-opacity="1"/><polyline class="polyline" opacity="0.5" stroke="blue" points="252.90059887969272,187.94609702503874 298.91664186505466,176.96153936258057 "/><polyline class="polyline" opacity="0.5" stroke="blue" points="252.04574534123614,187.24585713046406 297.3441399088615,175.15283998221528 "/><polyline class="polyline" opacity="0.5" stroke="blue" points="251.172681729755,186.5531810963957 295.73852785078094,173.36357062925595 "/><polyline class="polyline" opacity="0.5" stroke="blue" points="250.28179744971737,185.86826656875812 294.1007794896324,171.5940288286028 "/><polyline class="polyline" opacity="0.5" stroke="blue" points="249.37348232149645,185.1913069957289 292.43186183716307,169.84449711749943 "/><polyline class="polyline" opacity="0.5" stroke="blue" points="248.4481264726787,184.5224917010903 290.7327348795916,168.11524363157858 "/><polyline class="polyline" opacity="0.5" stroke="blue" points="247.50612023776176,183.8620059581773 289.00435138286923,166.40652268305936 "/><polyline class="polyline" opacity="0.5" stroke="blue" points="246.547854066029,183.21003106424286 287.2476567396833,164.71857533019107 "/><polyline class="polyline" opacity="0.5" stroke="blue" points="245.57371843738687,182.56674441506772 285.4635888562532,163.05162993712233 "/><polyline class="polyline" opacity="0.5" stroke="blue" points="244.58410378594644,181.93231957964906 283.65307807700117,161.40590272345418 "/><polyline class="polyline" opacity="0.5" stroke="blue" points="243.57940043113095,181.3069263748093 281.817047145216,159.78159830280802 "/><polyline class="polyline" opacity="0.5" stroke="blue" points="242.5599985160895,180.6907309395712 279.9564111978658,158.1789102098104 "/><polyline class="polyline" opacity="0.5" stroke="blue" points="241.52628795319592,180.08389580915377 278.0720777927529,156.59802141496172 "/><polyline class="polyline" opacity="0.5" stroke="blue" points="240.47865837641157,179.4865799884476 276.164946966252,155.0391048269155 "/><polyline class="polyline" opacity="0.5" stroke="blue" points="239.4174991002916,178.89893902483533 274.23591131991117,153.50232378175235 "/><polyline class="polyline" opacity="0.5" stroke="blue" points="238.34319908541323,178.32112508022777 272.2858561342422,151.9878325188855 "/><polyline class="polyline" opacity="0.5" stroke="blue" points="237.25614691000646,177.75328700219234 270.3156595080716,150.49577664328126 "/><polyline class="polyline" opacity="0.5" stroke="blue" points="236.15673074756734,177.19557039405555 268.32619252186805,149.02629357372442 "/><polyline class="polyline" opacity="0.5" stroke="blue" points="235.04533835023608,176.64811768386556 266.3183194235092,147.57951297689738 "/><polyline class="polyline" opacity="0.5" stroke="blue" points="233.9223570377227,176.11106819210767 264.29289783499087,146.15555718708055 "/><polyline class="polyline" opacity="0.5" stroke="blue" points="232.7881736915643,175.5845581980674 262.2507789786305,144.7545416113138 "/><polyline class="polyline" opacity="0.5" stroke="blue" points="231.64317475450056,175.06872100474365 260.19280792135544,143.3765751198904 "/><polyline class="polyline" opacity="0.5" stroke="blue" points="230.48774623475433,174.56368700221543 258.11982383571024,142.02176042208086 "/><polyline class="polyline" opacity="0.5" stroke="blue" points="229.32227371500713,174.06958372937254 256.0326602762546,140.6901944270104 "/><polyline class="polyline" opacity="0.5" stroke="blue" points="228.14714236586036,173.58653593392268 253.9321454700636,139.381968589633 "/><polyline class="polyline" opacity="0.5" stroke="blue" points="226.96273696357537,173.1146656305918 251.81910262007688,138.09716924176624 "/><polyline class="polyline" opacity="0.5" stroke="blue" points="225.76944191188704,172.65409215743833 249.6943502200776,136.8358779081658 "/><polyline class="polyline" opacity="0.5" stroke="blue" points="224.56764126768752,172.2049322302051 247.55870238011386,135.59817160763376 "/><polyline class="polyline" opacity="0.5" stroke="blue" points="223.35771877037897,171.7672999946352 245.41296916120416,134.3841231391671 "/><polyline class="polyline" opacity="0.5" stroke="blue" points="222.14005787469506,171.3413070766829 243.25795691819704,133.19380135316146 "/><polyline class="polyline" opacity="0.5" stroke="blue" points="220.91504178679412,170.92706263055135 241.09446864967816,132.0272714076952 "/><polyline class="polyline" opacity="0.5" stroke="blue" points="219.6830535034268,170.52467338449352 238.92330435384022,130.88459500992408 "/><polyline class="polyline" opacity="0.5" stroke="blue" points="218.44447585398459,170.134243684314 236.74526138925188,129.76583064262203 "/><polyline class="polyline" opacity="0.5" stroke="blue" points="217.1996915452354,169.7558755345124 234.56113483947712,128.67103377590826 "/><polyline class="polyline" opacity="0.5" stroke="blue" points="215.949083208555,169.38966863701137 232.37171788051143,127.60025706420045 "/><polyline class="polyline" opacity="0.5" stroke="blue" points="214.6930334494642,169.0357204274141 230.1778021500119,126.55355052843878 "/><polyline class="polyline" opacity="0.5" stroke="blue" points="213.43192489928165,168.69412610873835 227.98017811730796,125.53096172362197 "/><polyline class="polyline" opacity="0.5" stroke="blue" points="212.1661402687058,168.36497868257626 225.7796354531842,124.53253589169837 "/><polyline class="polyline" opacity="0.5" stroke="blue" points="210.89606240313714,168.04836897763056 223.57696339843136,123.55831609985222 "/><polyline class="polyline" opacity="0.5" stroke="blue" points="209.62207433955567,167.74438567557996 221.37295113016037,122.60834336422447 "/><polyline class="polyline" opacity="0.5" stroke="blue" points="208.3445593647671,167.45311533422773 219.168388124875,121.68265675910342 "/><polyline class="polyline" opacity="0.5" stroke="blue" points="207.06390107483242,167.17464240788934 216.9640645172905,120.78129351161913 "/><polyline class="polyline" opacity="0.5" stroke="blue" points="205.78048343549608,166.90904926497672 214.7607714538816,119.90428908197104 "/><polyline class="polyline" opacity="0.5" stroke="blue" points="204.49469084342758,166.65641620273715 212.55930144013232,119.05167722921715 "/><polyline class="polyline" opacity="0.5" stroke="blue" points="203.20690818809118,166.4168214591079 210.3604486804476,118.22349006264676 "/><polyline class="polyline" opacity="0.5" stroke="blue" points="201.91752091405888,166.19034122164686 208.16500940967342,117.41975807875905 "/><polyline class="polyline" opacity="0.5" stroke="blue" points="200.62691508358034,165.97704963350287 205.97378221515513,116.64051018386493 "/><polyline class="polyline" opacity="0.5" stroke="blue" points="199.3354774392237,165.77701879638929 203.7875683482458,115.88577370232841 "/><polyline class="polyline" opacity="0.5" stroke="blue" points="198.04359546639975,165.59031877052587 201.6071720241549,115.15557437046043 "/><polyline class="polyline" opacity="0.5" stroke="blue" points="196.75165745558172,165.41701757151603 199.43340070900672,114.44993631607906 "/><polyline class="polyline" opacity="0.5" stroke="blue" points="195.46005256403046,165.25718116412673 197.26706539295319,113.76888202374793 "/><polyline class="polyline" opacity="0.5" stroke="blue" points="194.1691708768352,165.11087345294015 195.10898084816156,113.1124322857055 "/><polyline class="polyline" opacity="0.5" stroke="blue" points="192.87940346707697,164.97815626984786 192.95996587046963,112.48060613849987 "/><polyline class="polyline" opacity="0.5" stroke="blue" points="191.59114245492052,164.8590893583584 190.8208435034752,111.87342078534611 "/><polyline class="polyline" opacity="0.5" stroke="blue" points="190.3047810654398,164.75373035469207 188.69244124379762,111.29089150422686 "/><polyline class="polyline" opacity="0.5" stroke="blue" points="189.02071368497778,164.66213476563723 186.5755912262198,110.73303154176281 "/><polyline class="polyline" opacity="0.5" stroke="blue" points="187.73933591584145,164.5843559431435 184.47113038739218,110.19985199288536 "/><polyline class="polyline" opacity="0.5" stroke="blue" points="186.46104462912928,164.52044505563043 182.37990060674892,109.6913616663545 "/><polyline class="polyline" opacity="0.5" stroke="blue" points="185.18623801548574,164.47045105599017 180.3027488232592,109.20756693617226 "/><polyline class="polyline" opacity="0.5" stroke="blue" points="183.91531563357586,164.4344206462654 178.24052712660983,108.74847157895708 "/><polyline class="polyline" opacity="0.5" stroke="blue" points="182.64867845606904,164.4123982389856 176.1940928213858,108.31407659735636 "/><polyline class="polyline" opacity="0.5" stroke="blue" points="181.38672891291918,164.4044259151461 174.1643084627933,107.904380029593 "/><polyline class="polyline" opacity="0.5" stroke="blue" points="180.1298709317246,164.41054337881803 172.1520418624443,107.51937674525803 "/><polyline class="polyline" opacity="0.5" stroke="blue" points="178.87850997494888,164.4307879083771 170.15816606270243,107.15905822748486 "/><polyline class="polyline" opacity="0.5" stroke="blue" points="177.63305307377993,164.46519430434472 168.18355927806988,106.82341234166195 "/><polyline class="polyline" opacity="0.5" stroke="blue" points="176.3939088584018,164.51379483383425 166.22910480208228,106.51242309086904 "/><polyline class="polyline" opacity="0.5" stroke="blue" points="175.1614875844506,164.57661917160144 164.29569087816623,106.22607035824817 "/><polyline class="polyline" opacity="0.5" stroke="blue" points="173.93620115542245,164.65369433769783 162.38421053290818,105.9643296365555 "/><polyline class="polyline" opacity="0.5" stroke="blue" points="172.7184631407979,164.7450446317318 160.4955613701816,105.72717174517243 "/><polyline class="polyline" opacity="0.5" stroke="blue" points="171.50868878964462,164.85069156374342 158.63064532458296,105.51456253489108 "/><polyline class="polyline" opacity="0.5" stroke="blue" points="170.30729503945676,164.9706537817046 156.790368372638,105.32646258083277 "/><polyline class="polyline" opacity="0.5" stroke="blue" points="169.11470051998558,165.10494699565817 154.97564020025624,105.16282686389849 "/><polyline class="polyline" opacity="0.5" stroke="blue" points="167.93132555181433,165.25358389851533 153.1873738249355,105.02360444119857 "/><polyline class="polyline" opacity="0.5" stroke="blue" points="166.7575921394256,165.41657408353439 151.4264851712517,104.9087381059577 "/><polyline class="polyline" opacity="0.5" stroke="blue" points="165.59392395850864,165.59392395850864 149.69389259821006,104.81816403744473 "/><polyline class="polyline" opacity="0.5" stroke="blue" points="164.44074633724944,165.7856366566962 147.99051637708453,104.75181144153196 "/><polyline class="polyline" opacity="0.5" stroke="blue" points="163.2984862313458,165.99171194453018 146.31727811843297,104.70960218254734 "/><polyline class="polyline" opacity="0.5" stroke="blue" points="162.16757219248632,166.21214612615228 144.6751001470481,104.69145040714463 "/><polyline class="polyline" opacity="0.5" stroke="blue" points="161.04843433003037,166.44693194482053 143.06490482368673,104.6972621609816 "/><polyline class="polyline" opacity="0.5" stroke="blue" points="159.94150426562544,166.69605848124587 141.48761381251586,104.72693499906273 "/><polyline class="polyline" opacity="0.5" stroke="blue" points="158.84721508049572,166.95951104892083 139.94414729332203,104.78035759067225 "/><polyline class="polyline" opacity="0.5" stroke="blue" points="157.76600125513616,167.23727108650917 138.43542311765145,104.8574093198955 "/><polyline class="polyline" opacity="0.5" stroke="blue" points="156.69829860114464,167.52931604737333 136.96235590818637,104.95795988280102 "/><polyline class="polyline" opacity="0.5" stroke="blue" points="155.64454418492573,167.83561928632358 135.52585610080905,105.08186888243 "/><polyline class="polyline" opacity="0.5" stroke="blue" points="154.60517624299982,168.15614994368107 134.1268289289742,105.2289854228167 "/><polyline class="polyline" opacity="0.5" stroke="blue" points="153.5806340886524,168.49087282675544 132.7661733501878,105.39914770334354 "/><polyline class="polyline" opacity="0.5" stroke="blue" points="152.5713580096596,168.8397482888454 131.44478091458728,105.5921826148096 "/><polyline class="polyline" opacity="0.5" stroke="blue" points="151.57778915682923,169.20273210588124 130.16353457582983,105.8079053386725 "/><polyline class="polyline" opacity="0.5" stroke="blue" points="150.60036942309887,169.57977535083572 128.92330744472386,106.04611895100142 "/><polyline class="polyline" opacity="0.5" stroke="blue" points="149.63954131293661,169.9708242660417 127.72496148627987,106.30661403275546 "/><polyline class="polyline" opacity="0.5" stroke="blue" points="148.69574780179397,170.37582013356257 126.56934616111991,106.58916828807763 "/><polyline class="polyline" opacity="0.5" stroke="blue" points="147.7694321853676,170.7946991437743 125.45729701245666,106.89354617236958 "/><polyline class="polyline" opacity="0.5" stroke="blue" points="146.86103791843001,171.22739226232665 124.38963420014521,107.21949853198076 "/><polyline class="polyline" opacity="0.5" stroke="blue" points="145.97100844299925,171.67382509566428 123.36716098361482,107.56676225741515 "/><polyline class="polyline" opacity="0.5" stroke="blue" points="145.09978700562425,172.13391775529743 122.39066215580537,107.93505995201905 "/><polyline class="polyline" opacity="0.5" stroke="blue" points="144.2478164635719,172.60758472102617 121.46090243056689,108.32409961817326 "/><polyline class="polyline" opacity="0.5" stroke="blue" points="143.4155390797134,173.0947347033322 120.57862478632059,108.73357436306262 "/><polyline class="polyline" opacity="0.5" stroke="blue" points="142.60339630591704,173.59527050516573 119.74454876913686,109.16316212614188 "/><polyline class="polyline" opacity="0.5" stroke="blue" points="141.81182855476908,174.10908888336667 118.95936875874453,109.61252543045251 "/><polyline class="polyline" opacity="0.5" stroke="blue" points="141.04127495945727,174.6360804099727 118.22375220135781,110.08131115997448 "/><polyline class="polyline" opacity="0.5" stroke="blue" points="140.2921731216672,175.17612933367923 117.53833781358128,110.56915036521409 "/><polyline class="polyline" opacity="0.5" stroke="blue" points="139.56495884735824,175.7291134417302 116.90373376203014,111.07565809923842 "/><polyline class="polyline" opacity="0.5" stroke="blue" points="138.86006587030354,176.29490392253038 116.32051582368254,111.60043328636256 "/><polyline class="polyline" opacity="0.5" stroke="blue" points="138.1779255632987,176.8733652292849 115.78922553235633,112.14305862568098 "/><polyline class="polyline" opacity="0.5" stroke="blue" points="137.51896663696323,177.4643549449838 115.31036831707301,112.70310053160398 "/><polyline class="polyline" opacity="0.5" stroke="blue" points="136.88361482608354,178.06772364906354 114.88441163843834,113.280109113521 "/><polyline class="polyline" opacity="0.5" stroke="blue" points="136.2722925634672,178.68331478609005 114.51178312951757,113.87361819665054 "/><polyline class="polyline" opacity="0.5" stroke="blue" points="135.68541864130628,179.3109645368218 114.19286874802441,114.48314538606829 "/><polyline class="polyline" opacity="0.5" stroke="blue" points="135.12340786007343,179.9505016920243 113.92801094696192,115.10819217581387 "/><polyline class="polyline" opacity="0.5" stroke="blue" points="134.58667066500254,180.60174752941913 113.71750687115325,115.7482441048727 "/><polyline class="polyline" opacity="0.5" stroke="blue" points="134.07561277023774,181.26451569416608 113.56160658737294,116.40277096170806 "/><polyline class="polyline" opacity="0.5" stroke="blue" points="133.5906347707642,181.93861208328525 113.46051135603498,117.07122703887983 "/><polyline class="polyline" opacity="0.5" stroke="blue" points="133.13213174226968,182.62383473444157 113.41437195260738,117.75305143912988 "/><polyline class="polyline" opacity="0.5" stroke="blue" points="132.70049282911887,183.3199737195233 113.42328704709652,118.44766843414357 "/><polyline class="polyline" opacity="0.5" stroke="blue" points="132.2961008206616,184.02681104345712 113.48730165008351,119.15448787700385 "/><polyline class="polyline" opacity="0.5" stroke="blue" points="131.9193317161314,184.74412054871416 113.60640563388633,119.87290566915216 "/><polyline class="polyline" opacity="0.5" stroke="blue" points="131.57055427843284,185.47166782596835 113.78053233746647,120.602304282445 "/><polyline class="polyline" opacity="0.5" stroke="blue" points="131.25012957715546,186.2092101313795 114.00955726369683,121.34205333665977 "/><polyline class="polyline" opacity="0.5" stroke="blue" points="130.9584105211969,186.9564963109795 114.29329687754898,122.09151023255112 "/><polyline class="polyline" opacity="0.5" stroke="blue" points="130.69574138141803,187.7132667326482 114.63150751364583,122.85002084029394 "/><polyline class="polyline" opacity="0.5" stroke="blue" points="130.46245730380238,188.47925322617004 115.02388440145637,123.61692024287356 "/><polyline class="polyline" opacity="0.5" stroke="blue" points="130.25888381363478,189.2541790318684 115.47006081617836,124.39153353369466 "/><polyline class="polyline" opacity="0.5" stroke="blue" points="130.085336311263,190.03775875831647 115.9696073630655,125.17317666738641 "/><polyline class="polyline" opacity="0.5" stroke="blue" points="129.94211956005518,190.8296983496268 116.52203140260254,125.96115736247808 "/><polyline class="polyline" opacity="0.5" stroke="blue" points="129.82952716721204,191.62969506282158 117.12677662351881,126.75477605431105 "/><polyline class="polyline" opacity="0.5" stroke="blue" points="129.7478410581465,192.4374374557842 117.78322277015431,127.5533268962446 "/><polyline class="polyline" opacity="0.5" stroke="blue" points="129.69733094518952,193.25260538629135 118.49068553015573,128.35609880690086 "/><polyline class="polyline" opacity="0.5" stroke="blue" points="129.67825379143454,194.07487002261905 119.24841658788668,129.16237656088802 "/><polyline class="polyline" opacity="0.5" stroke="blue" points="129.69085327058136,194.9038938662109 120.05560384827925,129.97144192013553 "/><polyline class="polyline" opacity="0.5" stroke="blue" points="129.73535922369285,195.73933078688836 120.91137183515347,130.78257480268013 "/><polyline class="polyline" opacity="0.5" stroke="blue" points="129.8119871138259,196.58082607107286 121.81478226726942,131.595054485456 "/><polyline class="polyline" opacity="0.5" stroke="blue" points="129.92093747954985,197.42801648347734 122.76483481457468,132.40816083736743 "/><polyline class="polyline" opacity="0.5" stroke="blue" points="130.0623953884142,198.28053034271096 123.76046803626743,133.22117557866608 "/><polyline class="polyline" opacity="0.5" stroke="blue" points="130.23652989147433,199.13798761122376 124.80056050140978,134.03338356241417 "/><polyline class="polyline" opacity="0.5" stroke="blue" points="130.4434934800325,200.0 125.88393209191887,134.84407407359612 "/><polyline class="polyline" opacity="0.5" stroke="blue" points="130.6834215457959,200.86617108838706 127.00934548682675,135.65254214124468 "/><polyline class="polyline" opacity="0.5" stroke="blue" points="130.95643184569803,201.73609645942477 128.17550782574784,136.4580898587763 "/><polyline class="polyline" opacity="0.5" stroke="blue" points="131.26262397266908,202.60936385101266 129.3810725485338,137.26002770758743 "/><polyline class="polyline" opacity="0.5" stroke="blue" points="131.6020788336831,203.48555332322618 130.62464140713166,138.05767587884839 "/><polyline class="polyline" opacity="0.5" stroke="blue" points="131.9748581364451,204.36423744206118 131.90476664470427,138.8503655883485 "/><polyline class="polyline" opacity="0.5" stroke="blue" points="132.38100388611352,205.2449814798535 133.219953336132,139.63744037919452 "/><polyline class="polyline" opacity="0.5" stroke="blue" points="132.82053789348623,206.12734363258542 134.56866188309237,140.41825740714717 "/><polyline class="polyline" opacity="0.5" stroke="blue" points="133.29346129610394,207.01087525425262 135.94931065602572,141.19218870339506 "/><polyline class="polyline" opacity="0.5" stroke="blue" points="133.79975409374734,207.89512110842534 137.36027877444292,141.95862240961907 "/><polyline class="polyline" opacity="0.5" stroke="blue" points="134.3393746998245,208.77961963709518 138.79990901622523,142.71696398028223 "/><polyline class="polyline" opacity="0.5" stroke="blue" points="134.9122595101586,209.6639032468549 140.2665108458145,143.46663734720312 "/><polyline class="polyline" opacity="0.5" stroke="blue" points="135.5183224906956,210.54749861241106 141.75836355049648,144.20708604162192 "/><polyline class="polyline" opacity="0.5" stroke="blue" points="136.1574547856568,211.4299269973818 143.27371947335521,144.93777426915588 "/><polyline class="polyline" opacity="0.5" stroke="blue" points="136.82952434766094,212.31070459228042 144.81080733092068,145.65818793325985 "/><polyline class="polyline" opacity="0.5" stroke="blue" points="137.5343755913328,213.1893428695344 146.36783560305295,146.36783560305295 "/><polyline class="polyline" opacity="0.5" stroke="blue" points="138.2718290719053,214.0653489553349 147.9429959822088,147.06624942165047 "/><polyline class="polyline" opacity="0.5" stroke="blue" points="139.04168119030388,214.9382260180562 149.53446686892605,147.7529859514417 "/><polyline class="polyline" opacity="0.5" stroke="blue" points="139.84370392617726,215.8074736729294 151.1404169001322,148.42762695307732 "/><polyline class="polyline" opacity="0.5" stroke="blue" points="140.67764460030978,216.67258840259552 152.75900849675003,149.089780095278 "/><polyline class="polyline" opacity="0.5" stroke="blue" points="141.54322566781315,217.53306399310648 154.38840141702485,149.7390795929373 "/><polyline class="polyline" opacity="0.5" stroke="blue" points="142.4401445434528,218.38839198488193 156.02675630204067,150.3751867713694 "/><polyline class="polyline" opacity="0.5" stroke="blue" points="143.3680734604138,219.23806213807205 157.67223820002448,150.9977905549433 "/><polyline class="polyline" opacity="0.5" stroke="blue" points="144.32665936375687,220.08156291171622 159.32302005625564,151.60660787873846 "/><polyline class="polyline" opacity="0.5" stroke="blue" points="145.3155238397491,220.91838195602924 160.9772861557002,152.2013840222624 "/><polyline class="polyline" opacity="0.5" stroke="blue" points="146.33426308218736,221.7480066170872 162.63323550587208,152.78189286467105 "/><polyline class="polyline" opacity="0.5" stroke="blue" points="147.38244789675565,222.56992445312832 164.2890851478826,153.34793706133397 "/><polyline class="polyline" opacity="0.5" stroke="blue" points="148.4596237443738,223.38362376162655 165.9430733841707,153.89934814198435 "/><polyline class="polyline" opacity="0.5" stroke="blue" points="149.56531082440907,224.18859411624123 167.59346291200126,154.43598653107804 "/><polyline class="polyline" opacity="0.5" stroke="blue" points="150.69900419852544,224.98432691269159 169.23854385247571,154.9577414913646 "/><polyline class="polyline" opacity="0.5" stroke="blue" points="151.8601739558457,225.7703159225544 170.8766366655075,155.4645309920333 "/><polyline class="polyline" opacity="0.5" stroke="blue" points="153.0482654199967,226.54605785393258 172.5060949419702,155.95630150314446 "/><polyline class="polyline" opacity="0.5" stroke="blue" points="154.26269939849493,227.31105291789714 174.1253080650191,156.43302771837992 "/><polyline class="polyline" opacity="0.5" stroke="blue" points="155.50287247481668,228.06480539956033 175.73270373341398,156.89471220845377 "/><polyline class="polyline" opacity="0.5" stroke="blue" points="156.7681573433738,228.80682423259793 177.32675034051815,157.3413850078052 "/><polyline class="polyline" opacity="0.5" stroke="blue" points="158.05790318749527,229.53662357600157 178.90595920351666,157.77310313745232 "/><polyline class="polyline" opacity="0.5" stroke="blue" points="159.37143610038433,230.25372339180865 180.46888663827033,158.18995006711876 "/><polyline class="polyline" opacity="0.5" stroke="blue" points="160.70805954889283,230.95765002252892 182.0141358761001,158.5920351199468 "/><polyline class="polyline" opacity="0.5" stroke="blue" points="162.06705487982035,231.64793676696152 183.54035881966766,158.97949282329114 "/><polyline class="polyline" opacity="0.5" stroke="blue" points="163.44768186831215,232.32412445307668 185.04625763597954,159.35248220923336 "/><polyline class="polyline" opacity="0.5" stroke="blue" points="164.84917930779335,232.98576200662023 186.53058618538324,159.7111860685805 "/><polyline class="polyline" opacity="0.5" stroke="blue" points="166.27076564074156,233.6324070140892 187.9921512862438,160.0558101622031 "/><polyline class="polyline" opacity="0.5" stroke="blue" points="167.7116396294636,234.263626278721 189.4298138157776,160.38658239363411 "/><polyline class="polyline" opacity="0.5" stroke="blue" points="169.170981065907,234.87899636813856 190.84248964827702,160.70375194688984 "/><polyline class="polyline" opacity="0.5" stroke="blue" points="170.6479515194029,235.47810415229924 192.22915043267577,161.00758839348575 "/><polyline class="polyline" opacity="0.5" stroke="blue" points="172.14169512110638,236.06054733040543 193.58882421208094,161.2983807726091 "/><polyline class="polyline" opacity="0.5" stroke="blue" points="173.65133938376997,236.6259349454511 194.92059588852717,161.5764366483749 "/><polyline class="polyline" opacity="0.5" stroke="blue" points="175.17599605536248,237.17388788509987 196.22360753679132,161.84208114803366 "/><polyline class="polyline" opacity="0.5" stroke="blue" points="176.71476200492384,237.704039367617 197.49705857163832,162.0956559849213 "/><polyline class="polyline" opacity="0.5" stroke="blue" points="178.26672013892963,238.21603541161016 198.7402057733503,162.337518469845 "/><polyline class="polyline" opacity="0.5" stroke="blue" points="179.83094034632984,238.70953528837103 199.95236317682048,162.5680405144822 "/><polyline class="polyline" opacity="0.5" stroke="blue" points="181.40648047032133,239.1842119556531 201.1329018298697,162.78760763024255 "/><polyline class="polyline" opacity="0.5" stroke="blue" points="182.99238730481454,239.6397524717675 202.28124942676834,162.99661792589637 "/><polyline class="polyline" opacity="0.5" stroke="blue" points="184.58769761346696,240.0758583889334 203.39688982321826,163.1954811071181 "/><polyline class="polyline" opacity="0.5" stroke="blue" points="186.19143916907012,240.49224612487396 204.47936243927137,163.38461748092823 "/><polyline class="polyline" opacity="0.5" stroke="blue" points="187.80263181100494,240.88864731171276 205.52826155683323,163.5644569678414 "/><polyline class="polyline" opacity="0.5" stroke="blue" points="189.4202885184121,241.26480912129 206.54323551852437,163.735438124349 "/><polyline class="polyline" opacity="0.5" stroke="blue" points="191.043416496669,241.62049456608685 207.52398583475082,163.89800717817735 "/><polyline class="polyline" opacity="0.5" stroke="blue" points="192.6710182747163,241.95548277502036 208.47026620586962,164.05261707857596 "/><polyline class="polyline" opacity="0.5" stroke="blue" points="194.30209281073905,242.26956924344654 209.3818814663292,164.1997265636976 "/><polyline class="polyline" opacity="0.5" stroke="blue" points="195.93563660367982,242.56256605678772 210.25868645761986,164.33979924694106 "/><polyline class="polyline" opacity="0.5" stroke="blue" points="197.5706448080432,242.8343020872819 211.1005848367899,164.47330272394058 "/><polyline class="polyline" opacity="0.5" stroke="blue" points="199.20611234944127,243.08462316343477 211.9075278271684,164.60070770169415 "/><polyline class="polyline" opacity="0.5" stroke="blue" points="200.84103503833506,243.31339221183921 212.67951291779514,164.72248715114267 "/><polyline class="polyline" opacity="0.5" stroke="blue" points="202.4744106794344,243.52048937111329 213.416582517886,164.8391154843303 "/><polyline class="polyline" opacity="0.5" stroke="blue" points="204.10524017424575,243.70581207779378 214.11882257247163,164.95106775710335 "/><polyline class="polyline" opacity="0.5" stroke="blue" points="205.73252861428426,243.8692751241089 214.7863611451292,165.0588188981369 "/><polyline class="polyline" opacity="0.5" stroke="blue" points="207.35528636251314,244.01081068764094 215.4193669734989,165.1628429649173 "/><polyline class="polyline" opacity="0.5" stroke="blue" points="208.97253012061884,244.13036833297502 216.0180480030249,165.26361242715578 "/><polyline class="polyline" opacity="0.5" stroke="blue" points="210.58328397979443,244.2279149855145 216.58264990410365,165.3615974779632 "/><polyline class="polyline" opacity="0.5" stroke="blue" points="212.18658045277104,244.30343487772865 217.113454577551,165.4572653729781 "/><polyline class="polyline" opacity="0.5" stroke="blue" points="213.78146148491177,244.35692946817818 217.61077865302104,165.55107979751324 "/><polyline class="polyline" opacity="0.5" stroke="blue" points="215.36697944227066,244.38841733374517 218.07497198472913,165.64350026166522 "/><polyline class="polyline" opacity="0.5" stroke="blue" points="216.94219807460772,244.39793403556962 218.50641614854362,165.73498152322304 "/><polyline class="polyline" opacity="0.5" stroke="blue" points="218.50619345145202,244.3855319592702 218.90552294422557,165.8259730381081 "/><polyline class="polyline" opacity="0.5" stroke="blue" points="220.0580548694073,244.35128013009688 219.272732906309,165.916918437988 "/><polyline class="polyline" opacity="0.5" stroke="blue" points="221.59688572900703,244.2952640037305 219.60851382683165,166.00825503462215 "/><polyline class="polyline" opacity="0.5" stroke="blue" points="223.12180437953918,244.21758523350812 219.91335929284682,166.10041335042303 "/><polyline class="polyline" opacity="0.5" stroke="blue" points="224.63194493038117,244.11836141491315 220.1877872413731,166.19381667465092 "/><polyline class="polyline" opacity="0.5" stroke="blue" points="226.12645802750822,243.99772580822346 220.43233853417217,166.2888806446034 "/><polyline class="polyline" opacity="0.5" stroke="blue" points="227.60451159396564,243.8558270402624 220.64757555448622,166.38601285111125 "/><polyline class="polyline" opacity="0.5" stroke="blue" points="229.06529153322148,243.69282878624387 220.8340808276148,166.48561246760949 "/><polyline class="polyline" opacity="0.5" stroke="blue" points="230.5080023944484,243.5089094327447 220.99245566697215,166.58806990202265 "/><polyline class="polyline" opacity="0.5" stroke="blue" points="231.9318679989139,243.30426172287292 221.1233188470337,166.6937664706708 "/><polyline class="polyline" opacity="0.5" stroke="blue" points="233.33613202678828,243.079092384735 221.22730530436172,166.80307409338826 "/><polyline class="polyline" opacity="0.5" stroke="blue" points="234.72005856381267,242.83362174432978 221.30506486769104,166.9163550090303 "/><polyline class="polyline" opacity="0.5" stroke="blue" points="236.08293260739822,242.56808332402093 221.357261017858,167.03396151053676 "/><polyline class="polyline" opacity="0.5" stroke="blue" points="237.4240605318574,242.28272342775594 221.38456967817189,167.1562356987195 "/><polyline class="polyline" opacity="0.5" stroke="blue" points="238.74277051259344,241.97780071421278 221.38767803565244,167.28350925394398 "/><polyline class="polyline" opacity="0.5" stroke="blue" points="240.03841290920025,241.6535857590631 221.36728339339697,167.4161032248842 "/><polyline class="polyline" opacity="0.5" stroke="blue" points="241.31036060754377,241.31036060754377 221.32409205418912,167.5543278335419 "/><polyline class="polyline" opacity="0.5" stroke="blue" points="242.55800932101533,240.9484183185271 221.2588182353244,167.69848229573824 "/><polyline class="polyline" opacity="0.5" stroke="blue" points="243.78077785125953,240.568062501275 221.17218301450083,167.84885465630833 "/><polyline class="polyline" opacity="0.5" stroke="blue" points="244.97810830878862,240.16960684605135 221.06491330650596,168.00572163825 "/><polyline class="polyline" opacity="0.5" stroke="blue" points="246.14946629399978,239.7533746497537 220.93774087033074,168.16934850510802 "/><polyline class="polyline" opacity="0.5" stroke="blue" points="247.29434103921182,239.31969833770688 220.79140134624413,168.33998893590373 "/><polyline class="polyline" opacity="0.5" stroke="blue" points="248.4122455124294,238.8689189827405 220.62663332228223,168.51788491195137 "/><polyline class="polyline" opacity="0.5" stroke="blue" points="249.50271648363372,238.4013858226466 220.44417742953112,168.70326661493806 "/><polyline class="polyline" opacity="0.5" stroke="blue" points="250.5653145544798,237.9174557770857 220.24477546552174,168.89635233567975 "/><polyline class="polyline" opacity="0.5" stroke="blue" points="251.59962415235722,237.41749296498023 220.02916954500023,169.0973483930022 "/><polyline class="polyline" opacity="0.5" stroke="blue" points="252.60525348984186,236.90186822339746 219.79810127729445,169.3064490622364 "/><polyline class="polyline" opacity="0.5" stroke="blue" points="253.58183449063068,236.37095862889208 219.55231096946022,169.52383651285572 "/><polyline class="polyline" opacity="0.5" stroke="blue" points="254.52902268311013,235.8251470222366 219.29253685436532,169.7496807548241 "/><polyline class="polyline" opacity="0.5" stroke="blue" points="255.4464970627588,235.26482153743063 219.01951434284757,169.9841395932642 "/><polyline class="polyline" opacity="0.5" stroke="blue" points="256.33395992463477,234.6903751358359 218.7339752990734,170.22735859109656 "/><polyline class="polyline" opacity="0.5" stroke="blue" points="257.1911366672331,234.10220514624376 218.43664733821672,170.47947103934158 "/><polyline class="polyline" opacity="0.5" stroke="blue" points="258.0177755690361,233.50071281163363 218.12825314557952,170.74059793481734 "/><polyline class="polyline" opacity="0.5" stroke="blue" points="258.8136475391058,232.88630284333996 217.809509816284,171.01084796500777 "/><polyline class="polyline" opacity="0.5" stroke="blue" points="259.5785458430894,232.25938298329584 217.48112821467862,171.29031749991483 "/><polyline class="polyline" opacity="0.5" stroke="blue" points="260.3122858060256,231.62036357497777 217.14381235262005,171.5790905907494 "/><polyline class="polyline" opacity="0.5" stroke="blue" points="261.01470449335085,230.96965714362753 216.79825878581585,171.87723897535338 "/><polyline class="polyline" opacity="0.5" stroke="blue" points="261.6856603715098,230.3076779862817 216.44515602744258,172.18482209028497 "/><polyline class="polyline" opacity="0.5" stroke="blue" points="262.32503294957553,229.63484177209335 216.08518397828584,172.5018870895341 "/><polyline class="polyline" opacity="0.5" stroke="blue" points="262.93272240328076,228.95156515338266 215.71901337268534,172.82846886987215 "/><polyline class="polyline" opacity="0.5" stroke="blue" points="263.5086491828536,228.25826538780984 215.34730523960977,173.16459010287417 "/><polyline class="polyline" opacity="0.5" stroke="blue" points="264.0527536060373,227.5553599720176 214.9707103782283,173.51026127368368 "/><polyline class="polyline" opacity="0.5" stroke="blue" points="264.564995437658,226.8432662870474 214.5898688473928,173.86548072662282 "/><polyline class="polyline" opacity="0.5" stroke="blue" points="265.04535345708376,226.12240125578924 214.2054094684943,174.23023471777898 "/><polyline class="polyline" opacity="0.5" stroke="blue" points="265.49382501489373,225.39318101268537 213.8179493412077,174.60449747472703 "/><polyline class="polyline" opacity="0.5" stroke="blue" points="265.9104255800501,224.65602058586555 213.42809337169322,174.98823126357254 "/><polyline class="polyline" opacity="0.5" stroke="blue" points="266.2951882788344,223.91133359185326 213.036433812877,175.3813864635243 "/><polyline class="polyline" opacity="0.5" stroke="blue" points="266.6481634267789,223.1595319429443 212.6435498164908,175.78390164922638 "/><polyline class="polyline" opacity="0.5" stroke="blue" points="266.96941805478696,222.40102556732273 212.2500069966076,176.19570368109964 "/><polyline class="polyline" opacity="0.5" stroke="blue" points="267.25903543060036,221.63622214194436 211.85635700446778,176.61670780395906 "/><polyline class="polyline" opacity="0.5" stroke="blue" points="267.51711457673343,220.86552683818502 211.46313711445092,177.0468177541882 "/><polyline class="polyline" opacity="0.5" stroke="blue" points="267.7437697859509,220.08934208021896 211.07086982110508,177.48592587576414 "/><polyline class="polyline" opacity="0.5" stroke="blue" points="267.9391301353281,219.30806731606293 210.68006244720624,177.93391324543626 "/><polyline class="polyline" opacity="0.5" stroke="blue" points="268.10333899988626,218.52209880119392 210.29120676287832,178.39064980736842 "/><polyline class="polyline" opacity="0.5" stroke="blue" points="268.2365535667541,217.73182939462072 209.90477861586152,178.85599451755928 "/><polyline class="polyline" opacity="0.5" stroke="blue" points="268.3389443507611,216.93764836726677 209.52123757307544,179.3297954983561 "/><polyline class="polyline" opacity="0.5" stroke="blue" points="268.4106947123249,216.13994122249628 209.1410265736773,179.81189020337754 "/><polyline class="polyline" opacity="0.5" stroke="blue" points="268.4520003784479,215.33908952859704 208.76457159387164,180.3021055931549 "/><polyline class="polyline" opacity="0.5" stroke="blue" points="268.46306896759467,214.5354707630105 208.3922813237792,180.80025832179675 "/><polyline class="polyline" opacity="0.5" stroke="blue" points="268.44411951917755,213.72945816808527 208.02454685672475,181.30615493496992 "/><polyline class="polyline" opacity="0.5" stroke="blue" points="268.3953820283306,212.92142061811006 207.66174139134995,181.8195920794787 "/><polyline class="polyline" opacity="0.5" stroke="blue" points="268.3170969866108,212.11172249737095 207.3042199470061,182.34035672470742 "/><polyline class="polyline" opacity="0.5" stroke="blue" points="268.20951492921876,211.300723588961 206.95231909292153,182.86822639617435 "/><polyline class="polyline" opacity="0.5" stroke="blue" points="268.0728959892908,210.488778974062 206.60635669168113,183.4029694214219 "/><polyline class="polyline" opacity="0.5" stroke="blue" points="267.9075094597712,209.67623894140442 206.26663165759064,183.94434518844582 "/><polyline class="polyline" opacity="0.5" stroke="blue" points="267.71363336333036,208.86344890660533 205.93342373053224,184.49210441683772 "/><polyline class="polyline" opacity="0.5" stroke="blue" points="267.49155403075736,208.0507493410751 205.60699326594744,185.045989441786 "/><polyline class="polyline" opacity="0.5" stroke="blue" points="267.2415656882141,207.23847571017723 205.28758104160877,185.60573451104852 "/><polyline class="polyline" opacity="0.5" stroke="blue" points="266.9639700537001,206.42695842032145 204.97540808186335,186.17106609497492 "/><polyline class="polyline" opacity="0.5" stroke="blue" points="266.65907594304144,205.61652277466513 204.67067550004805,186.74170320961912 "/><polyline class="polyline" opacity="0.5" stroke="blue" points="266.3271988856803,204.8074889370964 204.37356435978933,187.31735775294345 "/><polyline class="polyline" opacity="0.5" stroke="blue" points="265.9686607505084,204.0001719041688 204.08423555590733,187.89773485407412 "/><polyline class="polyline" opacity="0.5" stroke="blue" points="265.58378938195295,203.1948814846587 203.80282971564827,188.4825332355226 "/><polyline class="polyline" opacity="0.5" stroke="blue" points="265.1729182464946,202.391922286414 203.52946712096636,189.07144558824425 "/><polyline class="polyline" opacity="0.5" stroke="blue" points="264.73638608976336,201.59159371016634 203.26424765256908,189.66415895935552 "/><polyline class="polyline" opacity="0.5" stroke="blue" points="264.27453660433287,200.7941899499781 203.00725075642876,190.26035515228438 "/><polyline class="polyline" opacity="0.5" stroke="blue" points="263.78771810830347,200.0 202.75853543344462,190.85971113907695 "/><polyline class="polyline" opacity="0.5" stroke="blue" points="263.2762832347385,199.2093076672166 202.5181402529178,191.46189948453406 "/><polyline class="polyline" opacity="0.5" stroke="blue" points="262.74058863199576,198.422391589861 202.28608339047324,192.06658878179738 "/><polyline class="polyline" opacity="0.5" stroke="blue" points="262.18099467496955,197.639525261186 202.06236269103073,192.67344409895432 "/><polyline class="polyline" opacity="0.5" stroke="blue" points="261.5978651872392,196.86097705828007 201.8469557573867,193.28212743617755 "/><polyline class="polyline" opacity="0.5" stroke="blue" points="260.9915671740972,196.0870102756259 201.63982006492785,193.89229819286206 "/><polyline class="polyline" opacity="0.5" stroke="blue" points="260.3624705664125,195.31788316310104 201.44089310294794,194.50361364417128 "/><polyline class="polyline" opacity="0.5" stroke="blue" points="259.71094797526524,194.55384896812976 201.25009254298604,195.11572942635135 "/><polyline class="polyline" opacity="0.5" stroke="blue" points="259.03737445727165,193.79515598169755 201.06731643454788,195.72830003012265 "/><polyline class="polyline" opacity="0.5" stroke="blue" points="258.3421272905048,193.0420475879502 200.89244342850887,196.3409793014076 "/><polyline class="polyline" opacity="0.5" stroke="blue" points="257.6255857608982,192.294762317103 200.72533302843223,196.95342094860655 "/><polyline class="polyline" opacity="0.5" stroke="blue" points="256.8881309590107,191.55353390139436 200.56582586996487,197.56527905558636 "/><polyline class="polyline" opacity="0.5" stroke="blue" points="256.1301455870134,190.81859133382463 200.41374402840037,198.17620859950418 "/><polyline class="polyline" opacity="0.5" stroke="blue" points="255.35201377575362,190.09015892942824 200.268891354422,198.78586597254508 "/><polyline class="polyline" opacity="0.5" stroke="blue" points="254.55412091173565,189.3684563888343 200.13105383795786,199.3939095066159 "/><polyline class="polyline" opacity="0.5" stroke="blue" points="253.73685347385268,188.6536988638789 200.0,200.0 "/><polyline class="polyline" opacity="0.5" stroke="blue" points="252.90059887969278,187.9460970250388 199.87548131215277,200.6038012449463 "/><polyline class="polyline" opacity="0.5" stroke="blue" points="252.0457453412362,187.24585713046412 199.75723264359218,201.20498055513735 "/><polyline class="polyline" opacity="0.5" stroke="blue" points="251.17268172975506,186.55318109639572 199.64497273502914,201.80320929195415 "/><polyline class="polyline" opacity="0.5" stroke="blue" points="250.2817974497174,185.86826656875814 199.53840469918313,202.3981633884379 "/><polyline class="polyline" opacity="0.5" stroke="blue" points="249.37348232149648,185.19130699572895 199.43721654718382,202.98952386982822 "/><polyline class="polyline" opacity="0.5" stroke="blue" points="248.44812647267872,184.52249170109033 199.34108174023154,203.57697736954802 "/><polyline class="polyline" opacity="0.5" stroke="blue" points="247.50612023776176,183.86200595817735 199.24965976576019,204.16021663949502 "/><polyline class="polyline" opacity="0.5" stroke="blue" points="246.54785406602903,183.21003106424288 199.16259673726006,204.73894105349888 "/><polyline class="polyline" opacity="0.5" stroke="blue" points="245.57371843738696,182.56674441506775 199.07952601683607,205.31285710280238 "/><polyline class="polyline" opacity="0.5" stroke="blue" points="244.5841037859465,181.93231957964912 199.00006885949344,205.88167888243362 "/><polyline class="polyline" opacity="0.5" stroke="blue" points="243.57940043113103,181.30692637480934 198.9238350780656,206.44512856734517 "/><polyline class="polyline" opacity="0.5" stroke="blue" points="242.55999851608956,180.6907309395712 198.85042372762337,207.00293687721526 "/><polyline class="polyline" opacity="0.5" stroke="blue" points="241.52628795319598,180.08389580915377 198.7794238081332,207.5548435288242 "/><polyline class="polyline" opacity="0.5" stroke="blue" points="240.47865837641166,179.48657998844766 198.7104149840643,208.1005976749476 "/><polyline class="polyline" opacity="0.5" stroke="blue" points="239.41749910029168,178.89893902483536 198.64296831958228,208.63995832873718 "/><polyline class="polyline" opacity="0.5" stroke="blue" points="238.34319908541335,178.3211250802278 198.57664702790967,209.1726947725956 "/><polyline class="polyline" opacity="0.5" stroke="blue" points="237.25614691000652,177.75328700219237 198.51100723338016,209.69858695059236 "/><polyline class="polyline" opacity="0.5" stroke="blue" points="236.1567307475674,177.19557039405558 198.44559874466822,210.21742584351006 "/><polyline class="polyline" opacity="0.5" stroke="blue" points="235.04533835023614,176.6481176838656 198.3799658376345,210.72901382566084 "/><polyline class="polyline" opacity="0.5" stroke="blue" points="233.92235703772275,176.1110681921077 198.31364804619363,211.2331650026624 "/><polyline class="polyline" opacity="0.5" stroke="blue" points="232.78817369156437,175.58455819806744 198.246180959583,211.7297055294204 "/><polyline class="polyline" opacity="0.5" stroke="blue" points="231.64317475450065,175.06872100474368 198.17709702439086,212.21847390762187 "/><polyline class="polyline" opacity="0.5" stroke="blue" points="230.48774623475438,174.56368700221543 198.10592634968714,212.699321262107 "/><polyline class="polyline" opacity="0.5" stroke="blue" points="229.3222737150072,174.06958372937257 198.032197513594,213.1721115955497 "/><polyline class="polyline" opacity="0.5" stroke="blue" points="228.14714236586042,173.58653593392268 197.95543836963301,213.6367220209461 "/><polyline class="polyline" opacity="0.5" stroke="blue" points="226.96273696357545,173.1146656305918 197.87517685119153,214.09304297147733 "/><polyline class="polyline" opacity="0.5" stroke="blue" points="225.7694419118871,172.65409215743836 197.79094177246668,214.540978387384 "/><polyline class="polyline" opacity="0.5" stroke="blue" points="224.5676412676876,172.20493223020512 197.7022636242643,214.98044587956127 "/><polyline class="polyline" opacity="0.5" stroke="blue" points="223.35771877037905,171.76729999463524 197.60867536305815,215.4113768696557 "/><polyline class="polyline" opacity="0.5" stroke="blue" points="222.14005787469512,171.34130707668294 197.5097131917491,215.8337167065177 "/><polyline class="polyline" opacity="0.5" stroke="blue" points="220.9150417867942,170.92706263055138 197.40491733060387,216.24742475893626 "/><polyline class="polyline" opacity="0.5" stroke="blue" points="219.68305350342686,170.52467338449355 197.29383277689902,216.6524744846557 "/><polyline class="polyline" opacity="0.5" stroke="blue" points="218.44447585398467,170.13424368431401 197.17601005184895,217.04885347574404 "/><polyline class="polyline" opacity="0.5" stroke="blue" points="217.19969154523545,169.7558755345124 197.05100593345324,217.43656348045587 "/><polyline class="polyline" opacity="0.5" stroke="blue" points="215.94908320855512,169.3896686370114 196.9183841739623,217.81562040179915 "/><polyline class="polyline" opacity="0.5" stroke="blue" points="214.69303344946425,169.0357204274141 196.77771620072696,218.18605427308387 "/><polyline class="polyline" opacity="0.5" stroke="blue" points="213.43192489928174,168.69412610873837 196.6285817992705,218.5479092107958 "/><polyline class="polyline" opacity="0.5" stroke="blue" points="212.16614026870585,168.36497868257626 196.47056977749568,218.90124334520016 "/><polyline class="polyline" opacity="0.5" stroke="blue" points="210.8960624031372,168.04836897763056 196.30327861002013,219.246128729141 "/><polyline class="polyline" opacity="0.5" stroke="blue" points="209.62207433955572,167.74438567558 196.12631706171416,219.58265122555792 "/><polyline class="polyline" opacity="0.5" stroke="blue" points="208.34455936476718,167.45311533422773 195.9393047896004,219.91091037429607 "/><polyline class="polyline" opacity="0.5" stroke="blue" points="207.06390107483247,167.17464240788937 195.74187292236093,220.2310192388348 "/><polyline class="polyline" opacity="0.5" stroke="blue" points="205.78048343549617,166.90904926497672 195.53366461678516,220.5431042336067 "/><polyline class="polyline" opacity="0.5" stroke="blue" points="204.49469084342766,166.6564162027372 195.31433559058237,220.84730493262225 "/><polyline class="polyline" opacity="0.5" stroke="blue" points="203.20690818809123,166.41682145910792 195.08355463107034,221.14377386015127 "/><polyline class="polyline" opacity="0.5" stroke="blue" points="201.91752091405897,166.19034122164686 194.84100407934326,221.4326762642496 "/><polyline class="polyline" opacity="0.5" stroke="blue" points="200.6269150835804,165.9770496335029 194.58638028961045,221.7141898739474 "/><polyline class="polyline" opacity="0.5" stroke="blue" points="199.33547743922375,165.77701879638929 194.31939406348633,221.98850464094207 "/><polyline class="polyline" opacity="0.5" stroke="blue" points="198.0435954663998,165.59031877052587 194.0397710590995,222.2558224666604 "/><polyline class="polyline" opacity="0.5" stroke="blue" points="196.7516574555818,165.41701757151606 193.74725217497507,222.51635691557075 "/><polyline class="polyline" opacity="0.5" stroke="blue" points="195.46005256403052,165.2571811641267 193.4415939087267,222.7703329156409 "/><polyline class="polyline" opacity="0.5" stroke="blue" points="194.16917087683532,165.11087345294015 193.12256869067812,223.01798644684314 "/><polyline class="polyline" opacity="0.5" stroke="blue" points="192.87940346707703,164.9781562698479 192.7899651926106,223.25956421861585 "/><polyline class="polyline" opacity="0.5" stroke="blue" points="191.5911424549206,164.8590893583584 192.4435886119103,223.4953233371877 "/><polyline class="polyline" opacity="0.5" stroke="blue" points="190.30478106543987,164.7537303546921 192.08326093145936,223.72553096367 "/><polyline class="polyline" opacity="0.5" stroke="blue" points="189.02071368497784,164.6621347656372 191.7088211556861,223.95046396381363 "/><polyline class="polyline" opacity="0.5" stroke="blue" points="187.73933591584154,164.5843559431435 191.3201255232514,224.17040855031607 "/><polyline class="polyline" opacity="0.5" stroke="blue" points="186.46104462912936,164.52044505563043 190.91704769691185,224.38565991854975 "/><polyline class="polyline" opacity="0.5" stroke="blue" points="185.18623801548583,164.47045105599017 190.4994789311553,224.59652187656457 "/><polyline class="polyline" opacity="0.5" stroke="blue" points="183.91531563357586,164.4344206462654 190.06732821825685,224.8033064701963 "/><polyline class="polyline" opacity="0.5" stroke="blue" points="182.64867845606915,164.4123982389856 189.62052241345197,225.00633360408807 "/><polyline class="polyline" opacity="0.5" stroke="blue" points="181.38672891291924,164.40442591514608 189.15900633996563,225.2059306594061 "/><polyline class="polyline" opacity="0.5" stroke="blue" points="180.1298709317247,164.41054337881803 188.68274287467614,225.40243210899945 "/><polyline class="polyline" opacity="0.5" stroke="blue" points="178.87850997494897,164.43078790837714 188.19171301522525,225.59617913072435 "/><polyline class="polyline" opacity="0.5" stroke="blue" points="177.63305307378002,164.46519430434472 187.6859159294169,225.78751921961648 "/><polyline class="polyline" opacity="0.5" stroke="blue" points="176.39390885840186,164.51379483383425 187.16536898777042,225.97680579956162 "/><polyline class="polyline" opacity="0.5" stroke="blue" points="175.1614875844507,164.57661917160144 186.6301077801154,226.1643978350753 "/><polyline class="polyline" opacity="0.5" stroke="blue" points="173.9362011554225,164.65369433769783 186.0801861171305,226.35065944376416 "/><polyline class="polyline" opacity="0.5" stroke="blue" points="172.71846314079795,164.74504463173176 185.51567601773985,226.53595951000105 "/><polyline class="polyline" opacity="0.5" stroke="blue" points="171.50868878964468,164.8506915637434 184.93666768328788,226.72067130030453 "/><polyline class="polyline" opacity="0.5" stroke="blue" points="170.30729503945682,164.9706537817046 184.3432694594158,226.90517208087132 "/><polyline class="polyline" opacity="0.5" stroke="blue" points="169.1147005199857,165.10494699565817 183.73560778656145,227.08984273766745 "/><polyline class="polyline" opacity="0.5" stroke="blue" points="167.93132555181438,165.2535838985153 183.11382713999922,227.27506739944045 "/><polyline class="polyline" opacity="0.5" stroke="blue" points="166.7575921394257,165.41657408353439 182.4780899603271,227.4612330639716 "/><polyline class="polyline" opacity="0.5" stroke="blue" points="165.5939239585086,165.5939239585086 181.82857657529453,227.6487292278439 "/><polyline class="polyline" opacity="0.5" stroke="blue" points="164.4407463372495,165.78563665669623 181.1654851138494,227.83794751995725 "/><polyline class="polyline" opacity="0.5" stroke="blue" points="163.29848623134586,165.99171194453015 180.48903141326065,228.0292813389803 "/><polyline class="polyline" opacity="0.5" stroke="blue" points="162.1675721924864,166.21214612615228 179.79944892015232,228.22312549488427 "/><polyline class="polyline" opacity="0.5" stroke="blue" points="161.0484343300304,166.4469319448205 179.09698858625606,228.41987585466327 "/><polyline class="polyline" opacity="0.5" stroke="blue" points="159.9415042656255,166.69605848124587 178.38191875966186,228.61992899230262 "/><polyline class="polyline" opacity="0.5" stroke="blue" points="158.84721508049577,166.9595110489208 177.6545250723138,228.82368184301777 "/><polyline class="polyline" opacity="0.5" stroke="blue" points="157.7660012551362,167.23727108650917 176.91511032446445,229.0315313617446 "/><polyline class="polyline" opacity="0.5" stroke="blue" points="156.69829860114464,167.52931604737333 176.1639943667631,229.24387418582478 "/><polyline class="polyline" opacity="0.5" stroke="blue" points="155.64454418492568,167.83561928632358 175.40151398061542,229.46110630179135 "/><polyline class="polyline" opacity="0.5" stroke="blue" points="154.60517624299987,168.15614994368107 174.6280227574104,229.6836227161235 "/><polyline class="polyline" opacity="0.5" stroke="blue" points="153.5806340886524,168.49087282675544 173.84389097716684,229.91181712980458 "/><polyline class="polyline" opacity="0.5" stroke="blue" points="152.57135800965958,168.8397482888454 173.04950548710838,230.1460816164828 "/><polyline class="polyline" opacity="0.5" stroke="blue" points="151.57778915682928,169.2027321058812 172.24526958062702,230.3868063040031 "/><polyline class="polyline" opacity="0.5" stroke="blue" points="150.60036942309893,169.57977535083572 171.43160287704913,230.63437905904627 "/><polyline class="polyline" opacity="0.5" stroke="blue" points="149.63954131293661,169.9708242660417 170.6089412025675,230.88918517458296 "/><polyline class="polyline" opacity="0.5" stroke="blue" points="148.69574780179394,170.3758201335626 169.77773647265155,231.15160705982237 "/><polyline class="polyline" opacity="0.5" stroke="blue" points="147.76943218536763,170.79469914377427 168.93845657619647,231.42202393230852 "/><polyline class="polyline" opacity="0.5" stroke="blue" points="146.86103791843001,171.22739226232665 168.09158526161838,231.70081151179411 "/><polyline class="polyline" opacity="0.5" stroke="blue" points="145.97100844299928,171.67382509566428 167.23762202504844,231.98834171549612 "/><polyline class="polyline" opacity="0.5" stroke="blue" points="145.09978700562422,172.13391775529743 166.3770820007226,232.28498235432025 "/><polyline class="polyline" opacity="0.5" stroke="blue" points="144.24781646357195,172.60758472102614 165.51049585360929,232.5910968296182 "/><polyline class="polyline" opacity="0.5" stroke="blue" points="143.41553907971343,173.0947347033322 164.63840967425733,232.90704383002648 "/><polyline class="polyline" opacity="0.5" stroke="blue" points="142.60339630591704,173.59527050516573 163.76138487579234,233.23317702791852 "/><polyline class="polyline" opacity="0.5" stroke="blue" points="141.81182855476902,174.1090888833667 162.87999809292648,233.56984477498884 "/><polyline class="polyline" opacity="0.5" stroke="blue" points="141.04127495945727,174.63608040997266 161.99484108279188,233.91738979647477 "/><polyline class="polyline" opacity="0.5" stroke="blue" points="140.29217312166722,175.17612933367923 161.10652062734368,234.27614888351238 "/><polyline class="polyline" opacity="0.5" stroke="blue" points="139.56495884735824,175.72911344173022 160.2156584370214,234.6464525831136 "/><polyline class="polyline" opacity="0.5" stroke="blue" points="138.86006587030363,176.29490392253038 159.32289105529432,235.02862488524667 "/><polyline class="polyline" opacity="0.5" stroke="blue" points="138.17792556329871,176.87336522928487 158.42886976365384,235.422982906497 "/><polyline class="polyline" opacity="0.5" stroke="blue" points="137.51896663696323,177.4643549449838 157.53426048655706,235.82983656978303 "/><polyline class="polyline" opacity="0.5" stroke="blue" points="136.88361482608354,178.06772364906354 156.6397436957581,236.2494882796027 "/><polyline class="polyline" opacity="0.5" stroke="blue" points="136.27229256346726,178.68331478609002 155.74601431340486,236.6822325922874 "/><polyline class="polyline" opacity="0.5" stroke="blue" points="135.68541864130628,179.3109645368218 154.8537816132116,237.12835588074512 "/><polyline class="polyline" opacity="0.5" stroke="blue" points="135.12340786007343,179.9505016920243 153.9637691189573,237.58813599318017 "/><polyline class="polyline" opacity="0.5" stroke="blue" points="134.5866706650025,180.60174752941916 153.07671449949135,238.0618419052877 "/><polyline class="polyline" opacity="0.5" stroke="blue" points="134.07561277023777,181.26451569416605 152.1933694593671,238.5497333654312 "/><polyline class="polyline" opacity="0.5" stroke="blue" points="133.59063477076427,181.93861208328525 151.3144996241559,239.0520605323257 "/><polyline class="polyline" opacity="0.5" stroke="blue" points="133.13213174226965,182.62383473444157 150.44088441943288,239.56906360476617 "/><polyline class="polyline" opacity="0.5" stroke="blue" points="132.70049282911887,183.31997371952326 149.57331694235603,240.1009724429598 "/><polyline class="polyline" opacity="0.5" stroke="blue" points="132.29610082066162,184.0268110434571 148.71260382469939,240.6480061810442 "/><polyline class="polyline" opacity="0.5" stroke="blue" points="131.9193317161314,184.74412054871416 147.85956508613475,241.21037283039635 "/><polyline class="polyline" opacity="0.5" stroke="blue" points="131.57055427843284,185.47166782596838 147.01503397649088,241.78826887336848 "/><polyline class="polyline" opacity="0.5" stroke="blue" points="131.25012957715552,186.20921013137948 146.17985680565727,242.38187884711635 "/><polyline class="polyline" opacity="0.5" stroke="blue" points="130.9584105211969,186.95649631097947 145.35489275973384,242.99137491722152 "/><polyline class="polyline" opacity="0.5" stroke="blue" points="130.695741381418,187.71326673264818 144.54101370196904,243.61691644084593 "/><polyline class="polyline" opacity="0.5" stroke="blue" points="130.4624573038024,188.47925322617007 143.73910395696228,244.25864951920204 "/><polyline class="polyline" opacity="0.5" stroke="blue" points="130.25888381363478,189.25417903186838 142.95006007655198,244.91670653916356 "/><polyline class="polyline" opacity="0.5" stroke="blue" points="130.085336311263,190.03775875831644 142.17479058574776,245.59120570389507 "/><polyline class="polyline" opacity="0.5" stroke="blue" points="129.94211956005518,190.82969834962682 141.4142157070115,246.282250552429 "/><polyline class="polyline" opacity="0.5" stroke="blue" points="129.829527167212,191.62969506282158 140.66926706113608,246.98992946817964 "/><polyline class="polyline" opacity="0.5" stroke="blue" points="129.74784105814652,192.43743745578416 139.94088734291927,247.7143151764426 "/><polyline class="polyline" opacity="0.5" stroke="blue" points="129.69733094518952,193.25260538629135 139.23002996978153,248.45546423099785 "/><polyline class="polyline" opacity="0.5" stroke="blue" points="129.67825379143454,194.07487002261905 138.53765870143224,249.21341649000107 "/><polyline class="polyline" opacity="0.5" stroke="blue" points="129.69085327058136,194.90389386621086 137.86474722864432,249.98819458143015 "/><polyline class="polyline" opacity="0.5" stroke="blue" points="129.73535922369288,195.73933078688833 137.21227872916486,250.77980335842773 "/><polyline class="polyline" opacity="0.5" stroke="blue" points="129.81198711382586,196.58082607107283 136.58124538875344,251.58822934496925 "/><polyline class="polyline" opacity="0.5" stroke="blue" points="129.92093747954988,197.42801648347734 135.9726478853152,252.41344017237728 "/><polyline class="polyline" opacity="0.5" stroke="blue" points="130.06239538841425,198.2805303427109 135.38749483407577,253.25538400729525 "/><polyline class="polyline" opacity="0.5" stroke="blue" points="130.2365298914744,199.13798761122374 134.82680219173122,254.11398897183656 "/><polyline class="polyline" opacity="0.5" stroke="blue" points="130.4434934800325,200.0 134.291592617501,254.98916255672827 "/><polyline class="polyline" opacity="0.5" stroke="blue" points="130.68342154579594,200.8661710883871 133.78289478901405,255.88079102838134 "/><polyline class="polyline" opacity="0.5" stroke="blue" points="130.95643184569803,201.73609645942472 133.30174267096976,256.78873883093286 "/><polyline class="polyline" opacity="0.5" stroke="blue" points="131.26262397266908,202.60936385101266 132.84917473453885,257.7128479844263 "/><polyline class="polyline" opacity="0.5" stroke="blue" points="131.6020788336831,203.4855533232262 132.42623312549887,258.6529374804205 "/><polyline class="polyline" opacity="0.5" stroke="blue" points="131.9748581364451,204.3642374420612 132.03396277914578,259.60880267644865 "/><polyline class="polyline" opacity="0.5" stroke="blue" points="132.3810038861135,205.24498147985346 131.6734104800779,260.5802146908801 "/><polyline class="polyline" opacity="0.5" stroke="blue" points="132.82053789348623,206.1273436325854 131.34562386501932,261.5669197998777 "/><polyline class="polyline" opacity="0.5" stroke="blue" points="133.29346129610394,207.01087525425265 131.05165036693387,262.56863883828163 "/><polyline class="polyline" opacity="0.5" stroke="blue" points="133.7997540937473,207.8951211084253 130.792536098781,263.5850666063983 "/><polyline class="polyline" opacity="0.5" stroke="blue" points="134.3393746998245,208.77961963709515 130.56932467537973,264.61587128481824 "/><polyline class="polyline" opacity="0.5" stroke="blue" points="134.9122595101586,209.6639032468549 130.38305597198107,265.6606938595347 "/><polyline class="polyline" opacity="0.5" stroke="blue" points="135.5183224906956,210.5474986124111 130.23476481829886,266.7191475597882 "/><polyline class="polyline" opacity="0.5" stroke="blue" points="136.15745478565674,211.42992699738176 130.12547962692054,267.790817311212 "/><polyline class="polyline" opacity="0.5" stroke="blue" points="136.82952434766094,212.3107045922804 130.0562209552067,268.8752592070035 "/><polyline class="polyline" opacity="0.5" stroke="blue" points="137.5343755913328,213.1893428695344 130.02800000000002,269.972 "/><polyline class="polyline" opacity="0.5" stroke="blue" points="138.2718290719053,214.06534895533494 130.04181702469447,271.0805366186812 "/><polyline class="polyline" opacity="0.5" stroke="blue" points="139.04168119030382,214.93822601805618 130.09865971846824,272.2003357102707 "/><polyline class="polyline" opacity="0.5" stroke="blue" points="139.84370392617723,215.80747367292938 130.19950148775865,273.3308332142457 "/><polyline class="polyline" opacity="0.5" stroke="blue" points="140.6776446003098,216.67258840259552 130.34529968035574,274.4714339696998 "/><polyline class="polyline" opacity="0.5" stroke="blue" points="141.5432256678132,217.5330639931065 130.53699374280976,275.62151136013597 "/><polyline class="polyline" opacity="0.5" stroke="blue" points="142.44014454345273,218.3883919848819 130.7755033121935,276.78040699938094 "/><polyline class="polyline" opacity="0.5" stroke="blue" points="143.3680734604138,219.23806213807202 131.06172624362353,277.9474304624264 "/><polyline class="polyline" opacity="0.5" stroke="blue" points="144.3266593637569,220.08156291171622 131.39653657533523,279.12185906509774 "/><polyline class="polyline" opacity="0.5" stroke="blue" points="145.31552383974906,220.91838195602918 131.7807824335152,280.3029376965405 "/><polyline class="polyline" opacity="0.5" stroke="blue" points="146.33426308218733,221.74800661708719 132.21528387952935,281.4898787085781 "/><polyline class="polyline" opacity="0.5" stroke="blue" points="147.38244789675565,222.56992445312832 132.7008307026323,282.68186186605266 "/><polyline class="polyline" opacity="0.5" stroke="blue" points="148.4596237443738,223.38362376162655 133.23818016171987,283.87803436229353 "/><polyline class="polyline" opacity="0.5" stroke="blue" points="149.565310824409,224.18859411624118 133.8280546801729,285.0775109038692 "/><polyline class="polyline" opacity="0.5" stroke="blue" points="150.69900419852542,224.98432691269159 134.4711394983434,286.27937386877386 "/><polyline class="polyline" opacity="0.5" stroke="blue" points="151.8601739558457,225.7703159225544 135.16808028875607,287.48267354215875 "/><polyline class="polyline" opacity="0.5" stroke="blue" points="153.04826541999674,226.5460578539326 135.91948073962237,288.6864284336674 "/><polyline class="polyline" opacity="0.5" stroke="blue" points="154.2626993984949,227.31105291789714 136.72590011280582,289.88962568033685 "/><polyline class="polyline" opacity="0.5" stroke="blue" points="155.50287247481663,228.0648053995603 137.58785078291615,291.0912215389138 "/><polyline class="polyline" opacity="0.5" stroke="blue" points="156.7681573433738,228.80682423259793 138.50579576475488,292.29014197128123 "/><polyline class="polyline" opacity="0.5" stroke="blue" points="158.05790318749533,229.5366235760016 139.4801462368772,293.4852833265097 "/><polyline class="polyline" opacity="0.5" stroke="blue" points="159.3714361003843,230.25372339180862 140.51125906956815,294.6755131228273 "/><polyline class="polyline" opacity="0.5" stroke="blue" points="160.70805954889283,230.95765002252892 141.5994343660567,295.8596709325495 "/><polyline class="polyline" opacity="0.5" stroke="blue" points="162.06705487982035,231.64793676696152 142.74491302629718,297.0365693727169 "/><polyline class="polyline" opacity="0.5" stroke="blue" points="163.44768186831206,232.32412445307665 143.94787434313807,298.2049952038648 "/><polyline class="polyline" opacity="0.5" stroke="blue" points="164.8491793077933,232.98576200662023 145.20843364115606,299.3637105389763 "/><polyline class="polyline" opacity="0.5" stroke="blue" points="166.27076564074156,233.6324070140892 146.5266399688628,300.5114541642697 "/><polyline class="polyline" opacity="0.5" stroke="blue" points="167.71163962946363,234.263626278721 147.90247385538567,301.64694297302793 "/><polyline class="polyline" opacity="0.5" stroke="blue" points="169.17098106590691,234.87899636813853 149.33584514306912,302.7688735131971 "/><polyline class="polyline" opacity="0.5" stroke="blue" points="170.6479515194029,235.4781041522992 150.8265909077439,303.875923648965 "/><polyline class="polyline" opacity="0.5" stroke="blue" points="172.1416951211064,236.06054733040543 152.37447347865293,304.96675433598057 "/><polyline class="polyline" opacity="0.5" stroke="blue" points="173.65133938377,236.6259349454511 153.97917857020897,306.0400115092906 "/><polyline class="polyline" opacity="0.5" stroke="blue" points="175.17599605536245,237.17388788509984 155.64031353786976,307.0943280824564 "/><polyline class="polyline" opacity="0.5" stroke="blue" points="176.71476200492384,237.70403936761699 157.3574057704641,308.1283260556702 "/><polyline class="polyline" opacity="0.5" stroke="blue" points="178.26672013892963,238.21603541161016 159.12990123126326,309.14061873002566 "/><polyline class="polyline" opacity="0.5" stroke="blue" points="179.83094034632978,238.70953528837103 160.95716315998132,310.1298130244087 "/><polyline class="polyline" opacity="0.5" stroke="blue" points="181.40648047032124,239.1842119556531 162.83847094767964,311.0945118907743 "/><polyline class="polyline" opacity="0.5" stroke="blue" points="182.99238730481454,239.6397524717675 164.77301919625688,312.0333168228562 "/><polyline class="polyline" opacity="0.5" stroke="blue" points="184.58769761346696,240.07585838893343 166.75991697382318,312.9448304526401 "/><polyline class="polyline" opacity="0.5" stroke="blue" points="186.19143916907004,240.49224612487393 168.79818727676755,313.82765922820676 "/><polyline class="polyline" opacity="0.5" stroke="blue" points="187.8026318110049,240.88864731171276 170.88676670875094,314.68041616583616 "/><polyline class="polyline" opacity="0.5" stroke="blue" points="189.4202885184121,241.26480912129 173.02450538617308,315.5017236685586 "/><polyline class="polyline" opacity="0.5" stroke="blue" points="191.04341649666904,241.62049456608685 175.21016707889117,316.29021640265637 "/><polyline class="polyline" opacity="0.5" stroke="blue" points="192.67101827471626,241.95548277502036 177.44242959408658,317.04454422295237 "/><polyline class="polyline" opacity="0.5" stroke="blue" points="194.30209281073903,242.26956924344654 179.71988541021446,317.76337513709905 "/><polyline class="polyline" opacity="0.5" stroke="blue" points="195.93563660367988,242.56256605678774 182.04104256690607,318.44539829848827 "/><polyline class="polyline" opacity="0.5" stroke="blue" points="197.57064480804326,242.8343020872819 184.40432581555694,319.08932701685944 "/><polyline class="polyline" opacity="0.5" stroke="blue" points="199.20611234944124,243.08462316343474 186.80807803410158,319.6939017751914 "/><polyline class="polyline" opacity="0.5" stroke="blue" points="200.84103503833504,243.3133922118392 189.25056190818438,320.25789324103494 "/><polyline class="polyline" opacity="0.5" stroke="blue" points="202.47441067943447,243.5204893711133 191.72996187956727,320.78010526007205 "/><polyline class="polyline" opacity="0.5" stroke="blue" points="204.10524017424567,243.70581207779378 194.2443863612041,321.2593778193988 "/><polyline class="polyline" opacity="0.5" stroke="blue" points="205.73252861428426,243.86927512410887 196.79187021694145,321.69458996781026 "/><polyline class="polyline" opacity="0.5" stroke="blue" points="207.35528636251323,244.01081068764094 199.3703775023076,322.0846626802268 "/><polyline class="polyline" opacity="0.5" stroke="blue" points="208.9725301206189,244.13036833297502 201.97780446133564,322.42856165336104 "/><polyline class="polyline" opacity="0.5" stroke="blue" points="210.58328397979443,244.2279149855145 204.6119827728284,322.72530001975497 "/><polyline class="polyline" opacity="0.5" stroke="blue" points="212.18658045277104,244.30343487772868 207.27068303795141,322.97394096745853 "/><polyline class="polyline" opacity="0.5" stroke="blue" points="213.7814614849118,244.35692946817818 209.95161849952152,323.1736002528394 "/><polyline class="polyline" opacity="0.5" stroke="blue" points="215.36697944227072,244.3884173337452 212.65244898188868,323.323448594341 "/><polyline class="polyline" opacity="0.5" stroke="blue" points="216.9421980746077,244.39793403556962 215.37078503886198,323.4227139354148 "/><polyline class="polyline" opacity="0.5" stroke="blue" points="218.506193451452,244.3855319592702 218.10419229576226,323.47068356536363 "/><polyline class="polyline" opacity="0.5" stroke="blue" points="220.0580548694073,244.35128013009688 220.85019597037098,323.4667060874292 "/><polyline class="polyline" opacity="0.5" stroke="blue" points="221.59688572900706,244.2952640037305 223.60628555633383,323.4101932241382 "/><polyline class="polyline" opacity="0.5" stroke="blue" points="223.12180437953913,244.2175852335081 226.36991965144756,323.3006214506944 "/><polyline class="polyline" opacity="0.5" stroke="blue" points="224.63194493038114,244.11836141491312 229.13853091225116,323.1375334480395 "/><polyline class="polyline" opacity="0.5" stroke="blue" points="226.12645802750828,243.99772580822346 231.90953111544488,322.92053936812493 "/><polyline class="polyline" opacity="0.5" stroke="blue" points="227.60451159396564,243.8558270402624 234.68031630590497,322.64931790491073 "/><polyline class="polyline" opacity="0.5" stroke="blue" points="229.06529153322145,243.69282878624387 237.4482720104308,322.32361716564196 "/><polyline class="polyline" opacity="0.5" stroke="blue" points="230.50800239444843,243.50890943274467 240.21077849588022,321.9432553380278 "/><polyline class="polyline" opacity="0.5" stroke="blue" points="231.93186799891396,243.30426172287292 242.9652160500256,321.5081211500687 "/><polyline class="polyline" opacity="0.5" stroke="blue" points="233.33613202678825,243.079092384735 245.70897026327845,321.0181741204164 "/><polyline class="polyline" opacity="0.5" stroke="blue" points="234.72005856381264,242.83362174432978 248.43943728941554,320.47344459831334 "/><polyline class="polyline" opacity="0.5" stroke="blue" points="236.08293260739825,242.56808332402093 251.15402906356792,319.87403359332404 "/><polyline class="polyline" opacity="0.5" stroke="blue" points="237.42406053185746,242.28272342775594 253.8501784560343,319.2201123962356 "/><polyline class="polyline" opacity="0.5" stroke="blue" points="238.74277051259344,241.97780071421278 256.5253443409111,318.5119219936533 "/><polyline class="polyline" opacity="0.5" stroke="blue" points="240.03841290920025,241.65358575906316 259.17701655912776,317.74977227994293 "/><polyline class="polyline" opacity="0.5" stroke="blue" points="241.3103606075438,241.3103606075438 261.80272075620064,316.9340410712636 "/><polyline class="polyline" opacity="0.5" stroke="blue" points="242.55800932101536,240.9484183185271 264.4000230758853,316.06517292748254 "/><polyline class="polyline" opacity="0.5" stroke="blue" points="243.78077785125953,240.56806250127502 266.9665346918915,315.1436777887619 "/><polyline class="polyline" opacity="0.5" stroke="blue" points="244.9781083087886,240.16960684605138 269.4999161609252,314.17012943453994 "/><polyline class="polyline" opacity="0.5" stroke="blue" points="246.1494662939998,239.75337464975368 271.9978815815243,313.1451637735039 "/><polyline class="polyline" opacity="0.5" stroke="blue" points="247.2943410392118,239.31969833770688 274.45820254445294,312.0694769739405 "/><polyline class="polyline" opacity="0.5" stroke="blue" points="248.4122455124294,238.86891898274052 276.87871186178165,310.94382344456835 "/><polyline class="polyline" opacity="0.5" stroke="blue" points="249.50271648363372,238.4013858226466 279.25730706321906,309.76901367659065 "/><polyline class="polyline" opacity="0.5" stroke="blue" points="250.56531455447984,237.9174557770857 281.59195364974516,308.5459119582406 "/><polyline class="polyline" opacity="0.5" stroke="blue" points="251.5996241523572,237.41749296498023 283.8806880961133,307.2754339735568 "/><polyline class="polyline" opacity="0.5" stroke="blue" points="252.60525348984186,236.90186822339746 286.12162059533046,305.9585442974753 "/><polyline class="polyline" opacity="0.5" stroke="blue" points="253.5818344906307,236.37095862889208 288.3129375397707,304.59625379960283 "/><polyline class="polyline" opacity="0.5" stroke="blue" points="254.52902268311016,235.8251470222366 290.45290373512864,303.189616969203 "/><polyline class="polyline" opacity="0.5" stroke="blue" points="255.4464970627588,235.26482153743063 292.5398643449326,301.73972917402 "/><polyline class="polyline" opacity="0.5" stroke="blue" points="256.33395992463477,234.69037513583592 294.5722465648404,300.2477238655564 "/><polyline class="polyline" opacity="0.5" stroke="blue" points="257.1911366672331,234.10220514624373 296.5485610273839,298.7147697433359 "/><polyline class="polyline" opacity="0.5" stroke="blue" points="258.0177755690361,233.5007128116336 298.467402939233,297.1420678905091 "/><polyline class="polyline" opacity="0.5" stroke="blue" points="258.8136475391058,232.88630284333996 300.327452954377,295.5308488929163 "/><polyline class="polyline" opacity="0.5" stroke="blue" points="259.5785458430894,232.25938298329584 302.12747778789173,293.8823699533996 "/><polyline class="polyline" opacity="0.5" stroke="blue" points="260.3122858060256,231.62036357497774 303.86633057613534,292.1979120127754 "/><polyline class="polyline" opacity="0.5" stroke="blue" points="261.01470449335085,230.96965714362753 305.5429509903252,290.47877688842857 "/><polyline class="polyline" opacity="0.5" stroke="blue" points="261.68566037150987,230.30767798628173 307.1563651114453,288.7262844409923 "/><polyline class="polyline" opacity="0.5" stroke="blue" points="262.32503294957553,229.63484177209335 308.70568507535273,286.94176977903544 "/><polyline class="polyline" opacity="0.5" stroke="blue" points="262.9327224032808,228.95156515338263 310.19010849776544,285.126580511085 "/><polyline class="polyline" opacity="0.5" stroke="blue" points="263.5086491828537,228.25826538780984 311.60891768952945,283.28207405369665 "/><polyline class="polyline" opacity="0.5" stroke="blue" points="264.0527536060373,227.5553599720176 312.96147867317853,281.4096150036356 "/><polyline class="polyline" opacity="0.5" stroke="blue" points="264.564995437658,226.8432662870474 314.24724001231624,279.5105725815654 "/><polyline class="polyline" opacity="0.5" stroke="blue" points="265.04535345708376,226.1224012557892 315.46573146576884,277.58631815395387 "/><polyline class="polyline" opacity="0.5" stroke="blue" points="265.49382501489373,225.39318101268537 316.6165624787775,275.63822283922315 "/><polyline class="polyline" opacity="0.5" stroke="blue" points="265.9104255800501,224.65602058586555 317.6994205237254,273.6676552034707 "/><polyline class="polyline" opacity="0.5" stroke="blue" points="266.2951882788344,223.91133359185324 318.71406930303635,271.67597905040805 "/><polyline class="polyline" opacity="0.5" stroke="blue" points="266.6481634267789,223.15953194294434 319.66034682693186,269.6645513094744 "/><polyline class="polyline" opacity="0.5" stroke="blue" points="266.96941805478696,222.40102556732273 320.53816337870734,267.63472002542255 "/><polyline class="polyline" opacity="0.5" stroke="blue" points="267.25903543060036,221.63622214194433 321.34749938008144,265.58782245202417 "/><polyline class="polyline" opacity="0.5" stroke="blue" points="267.51711457673343,220.865526838185 322.0884031690051,263.52518325190874 "/><polyline class="polyline" opacity="0.5" stroke="blue" points="267.7437697859509,220.08934208021896 322.7609887020737,261.4481128039532 "/><polyline class="polyline" opacity="0.5" stroke="blue" points="267.9391301353281,219.30806731606296 323.36543319339205,259.35790561905895 "/><polyline class="polyline" opacity="0.5" stroke="blue" points="268.10333899988626,218.5220988011939 323.90197470139657,257.2558388646118 "/><polyline class="polyline" opacity="0.5" stroke="blue" points="268.2365535667541,217.73182939462072 324.370909674742,255.14317099740032 "/><polyline class="polyline" opacity="0.5" stroke="blue" points="268.3389443507611,216.93764836726677 324.77259046792847,253.02114050429424 "/><polyline class="polyline" opacity="0.5" stroke="blue" points="268.410694712325,216.1399412224963 325.10742283687676,250.89096474953337 "/><polyline class="polyline" opacity="0.5" stroke="blue" points="268.4520003784479,215.33908952859701 325.3758634241632,248.75383892707356 "/><polyline class="polyline" opacity="0.5" stroke="blue" points="268.4630689675946,214.53547076301047 325.5784172431102,246.61093511605358 "/><polyline class="polyline" opacity="0.5" stroke="blue" points="268.44411951917743,213.72945816808527 325.7156351693871,244.4634014371153 "/><polyline class="polyline" opacity="0.5" stroke="blue" points="268.3953820283306,212.9214206181101 325.788111448235,242.3123613070013 "/><polyline class="polyline" opacity="0.5" stroke="blue" points="268.31709698661086,212.11172249737092 325.79648122486776,240.15891278859115 "/><polyline class="polyline" opacity="0.5" stroke="blue" points="268.20951492921876,211.30072358896106 325.7414181050473,238.00412803329516 "/><polyline class="polyline" opacity="0.5" stroke="blue" points="268.0728959892908,210.48877897406203 325.62363175227017,235.84905281253063 "/><polyline class="polyline" opacity="0.5" stroke="blue" points="267.90750945977123,209.6762389414044 325.4438655274522,233.69470613483534 "/><polyline class="polyline" opacity="0.5" stroke="blue" points="267.71363336333036,208.8634489066053 325.20289417645114,231.54207994502838 "/><polyline class="polyline" opacity="0.5" stroke="blue" points="267.49155403075736,208.05074934107512 324.9015215702337,229.3921389017269 "/><polyline class="polyline" opacity="0.5" stroke="blue" points="267.2415656882141,207.23847571017723 324.5405785019741,227.24582022943807 "/><polyline class="polyline" opacity="0.5" stroke="blue" points="266.9639700537001,206.42695842032143 324.1209205448644,225.1040336413951 "/><polyline class="polyline" opacity="0.5" stroke="blue" points="266.6590759430414,205.6165227746651 323.64342597393346,222.96766132926678 "/><polyline class="polyline" opacity="0.5" stroke="blue" points="266.32719888568033,204.8074889370964 323.10899375470166,220.8375580158655 "/><polyline class="polyline" opacity="0.5" stroke="blue" points="265.9686607505084,204.00017190416884 322.51854160105444,218.71455106698468 "/><polyline class="polyline" opacity="0.5" stroke="blue" points="265.583789381953,203.1948814846587 321.87300410429265,216.59944065852872 "/><polyline class="polyline" opacity="0.5" stroke="blue" points="265.1729182464946,202.39192228641397 321.17333093491663,214.4929999951391 "/><polyline class="polyline" opacity="0.5" stroke="blue" points="264.7363860897633,201.59159371016634 320.42048511832434,212.3959755765858 "/><polyline class="polyline" opacity="0.5" stroke="blue" points="264.27453660433287,200.7941899499781 319.6154413852455,210.30908750826407 "/><polyline class="polyline" opacity="0.5" stroke="blue" points="263.78771810830347,200.0 318.7591845974108,208.2330298522248 "/><polyline class="polyline" opacity="0.5" stroke="blue" points="263.2762832347385,199.20930766721662 317.8527082486386,206.16847101525974 "/><polyline class="polyline" opacity="0.5" stroke="blue" points="262.74058863199576,198.422391589861 316.8970130412471,204.11605417067048 "/><polyline class="polyline" opacity="0.5" stroke="blue" points="262.1809946749695,197.63952526118598 315.893105537434,202.07639771046334 "/><polyline class="polyline" opacity="0.5" stroke="blue" points="261.59786518723917,196.86097705828004 314.8419968850304,200.0500957248256 "/><polyline class="polyline" opacity="0.5" stroke="blue" points="260.99156717409716,196.0870102756259 313.7447016168185,198.037718505868 "/><polyline class="polyline" opacity="0.5" stroke="blue" points="260.3624705664125,195.31788316310104 312.60223652240825,196.03981307274015 "/><polyline class="polyline" opacity="0.5" stroke="blue" points="259.71094797526524,194.55384896812973 311.41561959149567,194.05690371536005 "/><polyline class="polyline" opacity="0.5" stroke="blue" points="259.03737445727165,193.79515598169752 310.1858690271668,192.08949255412358 "/><polyline class="polyline" opacity="0.5" stroke="blue" points="258.3421272905048,193.04204758795024 308.914002327778,190.13806011309785 "/><polyline class="polyline" opacity="0.5" stroke="blue" points="257.6255857608982,192.294762317103 307.60103543582346,188.20306590432907 "/><polyline class="polyline" opacity="0.5" stroke="blue" points="256.88813095901065,191.55353390139433 306.2479819520991,186.28494902103128 "/><polyline class="polyline" opacity="0.5" stroke="blue" points="256.1301455870133,190.8185913338246 304.8558524133856,184.38412873754555 "/><polyline class="polyline" opacity="0.5" stroke="blue" points="255.35201377575362,190.09015892942824 303.42565363179926,182.5010051140921 "/><polyline class="polyline" opacity="0.5" stroke="blue" points="254.55412091173565,189.36845638883432 301.9583880939057,180.63595960445844 "/><polyline class="polyline" opacity="0.5" stroke="blue" points="253.73685347385268,188.6536988638789 300.45505341764095,178.7893556648923 "/></svg>
