<?xml version="1.0" encoding="UTF-8"?>
<!DOCTYPE svg PUBLIC "-//W3C//DTD SVG 1.1//EN"
    "http://www.w3.org/Graphics/SVG/1.1/DTD/svg11.dtd"><svg width="400" height="400" stroke="black" fill="none" fill-opacity="0.75" font-style="italic" font-family="CMU Serif, sans-serif" xmlns="http://www.w3.org/2000/svg" xmlns:xlink="http://www.w3.org/1999/xlink" version="1.1"><filter id="blur"><feGaussianBlur stdDeviation="2"/></filter><rect width="100%" height="100%" fill="white" stroke="none" fill-opacity="1"/><polygon points="218.66498789082462,154.61003171025556 235.79993740241343,115.34483554016978 " opacity="0.5" stroke="blue"/><polygon points="215.9131011516132,152.03424541455 232.10545355236076,109.53471248964959 " opacity="0.5" stroke="blue"/><polygon points="213.08471454770512,149.6159373645373 228.24096656441685,103.97136387422272 " opacity="0.5" stroke="blue"/><polygon points="210.18760933969773,147.36412078867758 224.2218242911533,98.67715179254013 " opacity="0.5" stroke="blue"/><polygon points="207.2299132765795,145.28765203115694 220.06450717941286,93.67483531261418 " opacity="0.5" stroke="blue"/><polygon points="204.2201128021912,143.39520563784944 215.78671993959827,88.98753983339085 " opacity="0.5" stroke="blue"/><polygon points="201.1670638340015,141.69524445614815 211.40748149393076,84.6386995611774 " opacity="0.5" stroke="blue"/><polygon points="198.08000060767156,140.1959845093507 206.94720978267634,80.6519693258505 " opacity="0.5" stroke="blue"/><polygon points="194.96854204536163,138.9053544516031 202.42779743149913,77.05110190879255 " opacity="0.5" stroke="blue"/><polygon points="191.84269507228043,137.8309494662201 197.87267367476576,73.85978713192034 " opacity="0.5" stroke="blue"/><polygon points="188.71285427620933,136.9799795399498 193.3068473131379,71.10144921011818 " opacity="0.5" stroke="blue"/><polygon points="185.58979728054598,136.35921212972477 188.75692489338482,68.79899934748232 " opacity="0.5" stroke="blue"/><polygon points="182.48467518497102,135.974909337694 184.25109777937587,66.97454131295842 " opacity="0.5" stroke="blue"/><polygon points="179.40899742155761,135.8327598255757 179.81909139279244,65.64902881401218 " opacity="0.5" stroke="blue"/><polygon points="176.3746103806364,135.93780583086584 175.4920697088667,64.84187494264503 " opacity="0.5" stroke="blue"/><polygon points="173.3936691827545,136.29436579484798 171.30248817494154,64.5705158285651 " opacity="0.5" stroke="blue"/><polygon points="170.4786020134358,136.90595327461313 167.2838886628738,64.84993291133458 " opacity="0.5" stroke="blue"/><polygon points="167.64206649890002,137.77519298650225 163.4706309561414,65.69214091888617 " opacity="0.5" stroke="blue"/><polygon points="164.89689768595247,138.9037350136091 159.89755668754947,67.10565165674046 " opacity="0.5" stroke="blue"/><polygon points="162.25604730003943,140.29216840124212 156.59958364431267,69.0949269652248 " opacity="0.5" stroke="blue"/><polygon points="159.73251409351062,141.93993555637073 153.6112309739462,71.65983753083171 " opacity="0.5" stroke="blue"/><polygon points="157.33926526214705,143.84524905374076 150.9660790420293,74.79514742506386 " opacity="0.5" stroke="blue"/><polygon points="155.0891491016662,146.0050126250526 148.6961714383529,78.49004701870919 " opacity="0.5" stroke="blue"/><polygon points="152.99479929559578,148.41474825987427 146.83137075859486,82.72775896908269 " opacity="0.5" stroke="blue"/><polygon points="151.0685314685315,151.0685314685315 145.398684086527,87.48524297033843 " opacity="0.5" stroke="blue"/><polygon points="149.32223289964313,153.9589368383304 144.421578275782,92.73302457248838 " opacity="0.5" stroke="blue"/><polygon points="147.76724656393571,157.07699604535748 143.91930882901994,98.43517134519337 " opacity="0.5" stroke="blue"/><polygon points="146.414250945039,160.41217045545272 143.90628900907677,104.54943581628213 " opacity="0.5" stroke="blue"/><polygon points="145.2731373334265,163.95234035159046 144.391527405597,111.02757892115443 " opacity="0.5" stroke="blue"/><polygon points="144.35288657680576,167.68381265438035 145.3781621828639,117.81588030206494 " opacity="0.5" stroke="blue"/><polygon points="143.66144747285082,171.5913487537493 146.8631184079133,124.85583303444979 " opacity="0.5" stroke="blue"/><polygon points="143.20561917587105,175.65821374218714 148.83691110392726,132.08501075926617 " opacity="0.5" stroke="blue"/><polygon points="142.99094011601753,179.8662479360102 151.28361107249583,139.4380854513951 " opacity="0.5" stroke="blue"/><polygon points="143.02158599073263,184.19596109773232 154.18098335420433,146.8479649373113 " opacity="0.5" stroke="blue"/><polygon points="143.30027937361078,188.62664924090691 157.5007999095087,154.24701158808642 " opacity="0.5" stroke="blue"/><polygon points="143.8282133884464,193.13653332394546 161.20931930813478,161.5682980746242 " opacity="0.5" stroke="blue"/><polygon points="144.60499171207863,197.70291854045053 165.26791760882548,168.74685322793323 " opacity="0.5" stroke="blue"/><polygon points="145.62858689867147,202.30237231264306 169.6338468943854,175.72085119996353 " opacity="0.5" stroke="blue"/><polygon points="146.89531866456062,206.91091851572403 174.2610917279846,182.43270028305488 " opacity="0.5" stroke="blue"/><polygon points="148.39985334547168,211.50424492956375 179.10128959581647,188.82999363808025 " opacity="0.5" stroke="blue"/><polygon points="150.1352252497844,216.05792045444005 184.10467947666586,194.86629226496675 " opacity="0.5" stroke="blue"/><polygon points="152.09288009941477,220.5476182620629 189.22104308143818,200.5017200983844 " opacity="0.5" stroke="blue"/><polygon points="154.26274019371027,224.94934080067333 194.40060586445637,205.7033613033657 " opacity="0.5" stroke="blue"/><polygon points="156.63329037340787,229.23964244758992 199.59486926574752,210.44545985938402 " opacity="0.5" stroke="blue"/><polygon points="159.19168332388045,233.39584561229879 204.7573513109227,214.7094306269479 " opacity="0.5" stroke="blue"/><polygon points="161.92386226175887,237.39624623962 209.84421911931605,218.48369871754997 " opacity="0.5" stroke="blue"/><polygon points="164.81469861684246,241.22030494046297 214.81480350008098,221.7633897649847 " opacity="0.5" stroke="blue"/><polygon points="167.8481419692241,244.84882037555175 219.63199215641447,224.5498974625156 " opacity="0.5" stroke="blue"/><polygon points="171.0073792428821,248.26408201783522 224.26250367530463,226.8503565183084 " opacity="0.5" stroke="blue"/><polygon points="174.27499999999998,251.45 228.67704918032786,228.67704918032786 " opacity="0.5" stroke="blue"/><polygon points="177.6331646281572,254.3922103892149 232.85039211917237,230.04677199095389 " opacity="0.5" stroke="blue"/><polygon points="181.06377226336062,257.0781548948903 236.7613191112098,230.9801868107122 " opacity="0.5" stroke="blue"/><polygon points="184.54862543890232,259.49713467970764 240.39253615270445,231.50117677441685 " opacity="0.5" stroke="blue"/><polygon points="188.0695886823291,261.6403385837871 243.73050489514128,231.6362240646346 " opacity="0.5" stroke="blue"/><polygon points="191.60873858621787,263.5008466637624 246.76523334392192,231.41382251233009 " opacity="0.5" stroke="blue"/><polygon points="195.14850323652925,265.0736104737087 249.49003435579186,230.86393430665953 " opacity="0.5" stroke="blue"/><polygon points="198.67178927747528,266.35541195892097 251.90126392701023,230.01749669250947 " opacity="0.5" stroke="blue"/><polygon points="202.16209530638727,267.34480318696166 253.99804962736673,228.90598156926245 " opacity="0.5" stroke="blue"/><polygon points="205.6036107091663,268.0420293986778 255.78201778960175,227.56100843544505 " opacity="0.5" stroke="blue"/><polygon points="208.98129945134087,268.4489380251123 257.25702632263716,226.01400916438124 " opacity="0.5" stroke="blue"/><polygon points="212.28096871859435,268.56887638862963 258.428908364063,224.29594162516824 " opacity="0.5" stroke="blue"/><polygon points="215.48932264352436,268.40658079570255 259.3052304794194,222.4370481380178 " opacity="0.5" stroke="blue"/><polygon points="218.59400165483413,267.9680596447936 259.8950677867035,220.46665411692032 " opacity="0.5" stroke="blue"/><polygon points="221.5836082363852,267.2604730274177 260.2087972493507,218.41300194382015 " opacity="0.5" stroke="blue"/><polygon points="224.4477200844333,266.2920111064732 260.257909440794,216.30311507533224 " opacity="0.5" stroke="blue"/><polygon points="227.17689180211013,265.0717733260699 260.0548383299112,214.16268754777442 " opacity="0.5" stroke="blue"/><polygon points="229.76264637293386,263.60965025368046 259.61280805435933,212.01599436753747 " opacity="0.5" stroke="blue"/><polygon points="232.19745771348892,261.91620958980576 258.94569521987165,209.8858187075276 " opacity="0.5" stroke="blue"/><polygon points="234.47472562417056,260.0025876124503 258.067904968913,207.7933923400326 " opacity="0.5" stroke="blue"/><polygon points="236.58874444149964,257.8803870619871 256.9942588830525,205.75834629232057 " opacity="0.5" stroke="blue"/><polygon points="238.53466665177277,255.56158222321847 255.73989270292293,203.79866929007488 " opacity="0.5" stroke="blue"/><polygon points="240.3084626595311,253.058431730763 254.32016185267446,201.9306721368968 " opacity="0.5" stroke="blue"/><polygon points="241.9068778210981,250.38339941489747 252.75055282955702,200.16895675087352 " opacity="0.5" stroke="blue"/><polygon points="243.32738775841798,247.54908331985092 251.04659865296213,198.52638912965216 " opacity="0.5" stroke="blue"/><polygon points="244.56815286624203,244.56815286624203 249.22379675197777,197.01407603337003 " opacity="0.5" stroke="blue"/><polygon points="245.6279728203606,241.45329399381478 247.29752789865842,195.64134565093144 " opacity="0.5" stroke="blue"/><polygon points="246.50624178939526,238.21716200899147 245.28297505903072,194.41573294065108 " opacity="0.5" stroke="blue"/><polygon points="247.20290495034516,234.87234177253197 243.19504132888886,193.34297070243625 " opacity="0.5" stroke="blue"/><polygon points="247.7184168106785,231.43131479383928 241.04826644003407,192.42698773666663 " opacity="0.5" stroke="blue"/><polygon points="248.0537017487781,227.90643274798828 238.85674165750544,191.66991566610446 " opacity="0.5" stroke="blue"/><polygon points="248.2101171009712,224.30989689702102 236.63402323129353,191.07210613338123 " opacity="0.5" stroke="blue"/><polygon points="248.18941904774968,220.6537428760936 234.3930449076443,190.63216013081086 " opacity="0.5" stroke="blue"/><polygon points="247.99373148430578,216.9498302953459 232.14603033478642,190.34697116619182 " opacity="0.5" stroke="blue"/><polygon points="247.62551800104498,213.2098366077151 229.90440650419933,190.21178381519175 " opacity="0.5" stroke="blue"/><polygon points="247.08755704795533,209.44525469929653 227.6787196391718,190.220268958529 " opacity="0.5" stroke="blue"/><polygon points="246.38292031207217,205.66739367044667 225.47855516507468,190.36461665520196 " opacity="0.5" stroke="blue"/><polygon points="245.51495429913228,201.88738229100645 223.31246355878216,190.63564717077804 " opacity="0.5" stroke="blue"/><polygon points="244.48726507811512,198.1161746304041 221.18789396771135,191.02294017634622 " opacity="0.5" stroke="blue"/><polygon points="243.30370611993507,194.36455738179876 219.11113750397476,191.51498157796604 " opacity="0.5" stroke="blue"/><polygon points="241.9683691382581,190.6431584178745 217.0872820511755,192.09932685128845 " opacity="0.5" stroke="blue"/><polygon points="240.48557782045953,186.96245613362223 215.1201802692306,192.76277916770533 " opacity="0.5" stroke="blue"/><polygon points="238.85988431931673,183.33278914787175 213.21243224934227,193.49158003506537 " opacity="0.5" stroke="blue"/><polygon points="237.09606836037403,179.76436595003952 211.36538396437044,194.27160966614468 " opacity="0.5" stroke="blue"/><polygon points="235.19913880530106,176.26727409130007 209.5791422912599,195.0885938586676 " opacity="0.5" stroke="blue"/><polygon points="233.17433749730537,172.85148853006666 207.85260696755128,195.9283138453752 " opacity="0.5" stroke="blue"/><polygon points="231.02714520013382,169.52687875032765 206.18351940210786,196.77681537003565 " opacity="0.5" stroke="blue"/><polygon points="228.76328942682963,166.30321427821426 204.56852781170235,197.62061317750744 " opacity="0.5" stroke="blue"/><polygon points="226.38875393770786,163.19016822747736 203.00326772133462,198.4468871777118 " opacity="0.5" stroke="blue"/><polygon points="223.90978966853135,160.19731850878384 201.48245646764659,199.24366675148892 " opacity="0.5" stroke="blue"/><polygon points="221.3329268292683,157.33414634146342 200.0,200.0 " opacity="0.5" stroke="blue"/><polygon points="218.6649878908246,154.61003171025556 198.5491099978358,200.70610518088327 " opacity="0.5" stroke="blue"/><polygon points="215.9131011516132,152.03424541455004 197.122429126758,201.35350210046977 " opacity="0.5" stroke="blue"/><polygon points="213.08471454770512,149.61593736453733 195.71216214550446,201.9351218147724 " opacity="0.5" stroke="blue"/><polygon points="210.18760933969773,147.36412078867758 194.3102105527002,202.44539360342 " opacity="0.5" stroke="blue"/><polygon points="207.22991327657954,145.28765203115694 192.90830852233,202.8803087908938 " opacity="0.5" stroke="blue"/><polygon points="204.22011280219118,143.39520563784944 191.49815801221402,203.23746157079157 " opacity="0.5" stroke="blue"/><polygon points="201.1670638340015,141.69524445614815 190.07156112890203,203.516067517202 " opacity="0.5" stroke="blue"/><polygon points="198.0800006076716,140.1959845093507 188.62054808126115,203.71696092297813 " opacity="0.5" stroke="blue"/><polygon points="194.96854204536163,138.9053544516031 187.1374993380755,203.84257247341813 " opacity="0.5" stroke="blue"/><polygon points="191.84269507228046,137.8309494662201 185.6152609062039,203.8968890368932 " opacity="0.5" stroke="blue"/><polygon points="188.71285427620933,136.9799795399498 184.04725194975293,203.88539752810743 " opacity="0.5" stroke="blue"/><polygon points="185.589797280546,136.35921212972477 182.42756426308827,203.81501487680163 " opacity="0.5" stroke="blue"/><polygon points="182.484675184971,135.974909337694 180.7510533789558,203.69400612102052 " opacity="0.5" stroke="blue"/><polygon points="179.4089974215576,135.8327598255757 179.01342132738833,203.5318925491908 " opacity="0.5" stroke="blue"/><polygon points="176.37461038063643,135.93780583086584 177.21129125369865,203.33935165135335 " opacity="0.5" stroke="blue"/><polygon points="173.3936691827545,136.29436579484798 175.3422742493846,203.12811042065636 " opacity="0.5" stroke="blue"/><polygon points="170.47860201343582,136.90595327461313 173.4050288451117,202.91083328608323 " opacity="0.5" stroke="blue"/><polygon points="167.64206649890002,137.77519298650225 171.39931365902044,202.70100567082338 " opacity="0.5" stroke="blue"/><polygon points="164.89689768595247,138.9037350136091 169.32603368704974,202.5128138716576 " opacity="0.5" stroke="blue"/><polygon points="162.25604730003946,140.2921684012421 167.1872806667929,202.36102165633872 " opacity="0.5" stroke="blue"/><polygon points="159.7325140935106,141.9399355563707 164.98636784571605,202.2608436902717 " opacity="0.5" stroke="blue"/><polygon points="157.33926526214708,143.84524905374076 162.72785934235932,202.22781564183384 " opacity="0.5" stroke="blue"/><polygon points="155.08914910166618,146.0050126250526 160.41759411008596,202.27766058739584 " opacity="0.5" stroke="blue"/><polygon points="152.99479929559578,148.41474825987427 158.06270430236592,202.42615115162303 " opacity="0.5" stroke="blue"/><polygon points="151.0685314685315,151.0685314685315 155.67162760242672,202.68896668435667 " opacity="0.5" stroke="blue"/><polygon points="149.32223289964313,153.9589368383304 153.25411282507437,203.0815447001774 " opacity="0.5" stroke="blue"/><polygon points="147.76724656393571,157.07699604535748 150.8212178321739,203.6189257980955 " opacity="0.5" stroke="blue"/><polygon points="146.41425094503896,160.41217045545272 148.3852985344132,204.3155913437557 " opacity="0.5" stroke="blue"/><polygon points="145.27313733342646,163.9523403515904 145.95998749065484,205.18529334165464 " opacity="0.5" stroke="blue"/><polygon points="144.3528865768058,167.68381265438032 143.5601603741209,206.24087615595496 " opacity="0.5" stroke="blue"/><polygon points="143.6614474728508,171.59134875374923 141.20188836537923,207.4940900601541 " opacity="0.5" stroke="blue"/><polygon points="143.20561917587105,175.6582137421872 138.90237437099307,208.9553970109064 " opacity="0.5" stroke="blue"/><polygon points="142.9909401160175,179.8662479360102 136.67987087098743,210.6337695498291 " opacity="0.5" stroke="blue"/><polygon points="143.02158599073266,184.1959610977323 134.5535771866816,212.53648433560363 " opacity="0.5" stroke="blue"/><polygon points="143.30027937361078,188.6266492409069 132.54351405260346,214.66891248877846 " opacity="0.5" stroke="blue"/><polygon points="143.82821338844636,193.1365333239454 130.67037359179182,217.0343096790831 " opacity="0.5" stroke="blue"/><polygon points="144.6049917120786,197.70291854045058 128.95534315118684,219.63360967836277 " opacity="0.5" stroke="blue"/><polygon points="145.6285868986715,202.3023723126431 127.41990196838987,222.4652259120138 " opacity="0.5" stroke="blue"/><polygon points="146.8953186645606,206.910918515724 126.08559032320524,225.52486633008638 " opacity="0.5" stroke="blue"/><polygon points="148.39985334547163,211.5042449295637 124.97375168005729,228.80536763959591 " opacity="0.5" stroke="blue"/><polygon points="150.13522524978438,216.05792045444 124.10524934380017,232.29655553807495 " opacity="0.5" stroke="blue"/><polygon points="152.09288009941477,220.54761826206297 123.50016031266506,235.98513800537194 " opacity="0.5" stroke="blue"/><polygon points="154.26274019371027,224.94934080067333 123.17745028509992,239.85463888394975 " opacity="0.5" stroke="blue"/><polygon points="156.63329037340785,229.2396424475899 123.15463511379161,243.88537884693386 " opacity="0.5" stroke="blue"/><polygon points="159.19168332388045,233.39584561229873 123.4474353367127,248.0545103643979 " opacity="0.5" stroke="blue"/><polygon points="161.9238622617588,237.39624623961993 124.06943167430842,252.33611239157983 " opacity="0.5" stroke="blue"/><polygon points="164.8146986168425,241.22030494046302 125.03173047613846,256.7013491972705 " opacity="0.5" stroke="blue"/><polygon points="167.8481419692241,244.84882037555178 126.34264893623512,261.11869603173875 " opacity="0.5" stroke="blue"/><polygon points="171.00737924288208,248.2640820178352 128.00743038251687,265.5542322372376 " opacity="0.5" stroke="blue"/><polygon points="174.27499999999998,251.45 130.02800000000002,269.972 " opacity="0.5" stroke="blue"/><polygon points="177.63316462815715,254.39221038921485 132.40277090730194,274.3344243339361 " opacity="0.5" stroke="blue"/><polygon points="181.06377226336065,257.0781548948903 135.12650953553825,278.6027872062595 " opacity="0.5" stroke="blue"/><polygon points="184.54862543890235,259.49713467970764 138.1902677575222,282.7377461200085 " opacity="0.5" stroke="blue"/><polygon points="188.06958868232908,261.6403385837872 141.58138722210498,286.69988512572735 " opacity="0.5" stroke="blue"/><polygon points="191.6087385862178,263.5008466637624 145.28357894329076,290.450284310431 " opacity="0.5" stroke="blue"/><polygon points="195.1485032365292,265.0736104737087 149.27707849405783,293.9510924555304 " opacity="0.5" stroke="blue"/><polygon points="198.67178927747528,266.35541195892097 153.53887430883677,297.1660868839433 " opacity="0.5" stroke="blue"/><polygon points="202.1620953063873,267.34480318696166 158.04300377403524,300.0612046029697 " opacity="0.5" stroke="blue"/><polygon points="205.6036107091663,268.0420293986778 162.76090915608495,302.6050297129708 " opacity="0.5" stroke="blue"/><polygon points="208.98129945134085,268.4489380251123 167.66184314471846,304.76922365457904 " opacity="0.5" stroke="blue"/><polygon points="212.2809687185943,268.56887638862963 172.71331201471526,306.5288871161265 " opacity="0.5" stroke="blue"/><polygon points="215.4893226435244,268.4065807957026 177.8815432345254,307.862845178035 " opacity="0.5" stroke="blue"/><polygon points="218.59400165483413,267.9680596447936 183.13196383206034,308.7538503574584 " opacity="0.5" stroke="blue"/><polygon points="221.5836082363852,267.2604730274177 188.4296759745287,309.18870144139294 " opacity="0.5" stroke="blue"/><polygon points="224.4477200844333,266.29201110647324 193.7399169907707,309.1582791654884 " opacity="0.5" stroke="blue"/><polygon points="227.1768918021102,265.07177332606983 199.0284923797457,308.6575027299166 " opacity="0.5" stroke="blue"/><polygon points="229.7626463729339,263.6096502536804 204.26217209431988,307.6852136930213 " opacity="0.5" stroke="blue"/><polygon points="232.19745771348897,261.91620958980576 209.4090424320812,306.2439958372696 " opacity="0.5" stroke="blue"/><polygon points="234.47472562417056,260.0025876124504 214.4388080641879,304.3399410935659 " opacity="0.5" stroke="blue"/><polygon points="236.58874444149964,257.8803870619871 219.32304095371464,301.98237251719024 " opacity="0.5" stroke="blue"/><polygon points="238.53466665177282,255.56158222321844 224.0353750359198,299.18353565018253 " opacity="0.5" stroke="blue"/><polygon points="240.3084626595311,253.05843173076295 228.5516474558177,295.9582694334679 " opacity="0.5" stroke="blue"/><polygon points="241.9068778210981,250.38339941489744 232.849988811262,292.3236672248488 " opacity="0.5" stroke="blue"/><polygon points="243.32738775841796,247.54908331985095 236.91086618784206,288.2987375288687 " opacity="0.5" stroke="blue"/><polygon points="244.56815286624206,244.56815286624206 240.71708377691266,283.9040728501063 " opacity="0.5" stroke="blue"/><polygon points="245.62797282036064,241.45329399381473 244.25374654451298,279.16153373919343 " opacity="0.5" stroke="blue"/><polygon points="246.5062417893953,238.21716200899147 247.50819278962044,274.09395369875995 " opacity="0.5" stroke="blue"/><polygon points="247.20290495034516,234.87234177253194 250.46990153118014,268.7248692297736 " opacity="0.5" stroke="blue"/><polygon points="247.7184168106785,231.4313147938393 253.13038053882275,263.0782779872197 " opacity="0.5" stroke="blue"/><polygon points="248.0537017487781,227.9064327479883 255.4830405199001,257.1784268215875 " opacity="0.5" stroke="blue"/><polygon points="248.21011710097122,224.30989689702096 257.5230605429058,251.0496304376622 " opacity="0.5" stroke="blue"/><polygon points="248.18941904774968,220.65374287609353 259.24724925885647,244.71612051928872 " opacity="0.5" stroke="blue"/><polygon points="247.99373148430578,216.94983029534586 260.65390591697127,238.2019244511555 " opacity="0.5" stroke="blue"/><polygon points="247.625518001045,213.2098366077151 261.74268459189983,231.53077221015272 " opacity="0.5" stroke="blue"/><polygon points="247.08755704795533,209.44525469929653 262.51446447297656,224.72602958671737 " opacity="0.5" stroke="blue"/><polygon points="246.38292031207217,205.66739367044664 262.9712285310592,217.8106556135997 " opacity="0.5" stroke="blue"/><polygon points="245.51495429913228,201.88738229100642 263.1159523888502,210.80718190597648 " opacity="0.5" stroke="blue"/><polygon points="244.48726507811512,198.11617463040403 262.95250478421605,203.73771153219909 " opacity="0.5" stroke="blue"/><polygon points="243.30370611993507,194.36455738179876 262.485560636381,196.62393501839432 " opacity="0.5" stroke="blue"/><polygon points="241.9683691382581,190.64315841787453 261.72052740176355,189.48716112344584 " opacity="0.5" stroke="blue"/><polygon points="240.48557782045953,186.96245613362217 260.66348513658386,182.3483600860859 " opacity="0.5" stroke="blue"/><polygon points="238.85988431931673,183.3327891478717 259.32114046199365,175.22821712739773 " opacity="0.5" stroke="blue"/><polygon points="237.09606836037403,179.7643659500395 257.7007944476435,168.14719407652197 " opacity="0.5" stroke="blue"/><polygon points="235.19913880530106,176.2672740913001 255.81032428356025,161.1255970634273 " opacity="0.5" stroke="blue"/><polygon points="233.1743374973054,172.85148853006666 253.65817848952736,154.18364828081445 " opacity="0.5" stroke="blue"/><polygon points="231.0271452001338,169.52687875032763 251.25338530704818,147.3415598500482 " opacity="0.5" stroke="blue"/><polygon points="228.7632894268296,166.30321427821423 248.60557382240222,140.6196078275995 " opacity="0.5" stroke="blue"/><polygon points="226.38875393770783,163.19016822747733 245.72500727117114,134.03820435463993 " opacity="0.5" stroke="blue"/><polygon points="223.90978966853135,160.19731850878384 242.62262786583062,127.61796588061158 " opacity="0.5" stroke="blue"/><polygon points="221.3329268292683,157.33414634146342 239.31011235955057,121.37977528089888 " opacity="0.5" stroke="blue"/></svg>
