<?xml version="1.0" encoding="UTF-8"?>
<!DOCTYPE svg PUBLIC "-//W3C//DTD SVG 1.1//EN"
    "http://www.w3.org/Graphics/SVG/1.1/DTD/svg11.dtd"><svg width="400" height="400" stroke="black" fill="none" fill-opacity="0.75" font-size="14" font-style="italic" font-family="sans-serif" xmlns="http://www.w3.org/2000/svg" xmlns:xlink="http://www.w3.org/1999/xlink" version="1.1"><filter id="blur1"><feGaussianBlur stdDeviation="0.5"/></filter><rect width="100%" height="100%" fill="white" stroke="none" fill-opacity="1"/><rect class="bg" fill="black" width="100%" height="100%" stroke="none" fill-opacity="1"/><polyline class="polyline" opacity="0.5" stroke="blue" points="247.05097134113294,182.73864249292873 287.3007149102775,167.5664500178195 "/><polyline class="polyline" opacity="0.5" stroke="blue" points="246.1305605452632,181.94177055667916 285.7226403628338,165.64029007055646 "/><polyline class="polyline" opacity="0.5" stroke="blue" points="245.19388471820633,181.15414540707314 284.11402733751027,163.73430971679068 "/><polyline class="polyline" opacity="0.5" stroke="blue" points="244.2413123457748,180.3759926693363 282.4757333511005,161.84888994482344 "/><polyline class="polyline" opacity="0.5" stroke="blue" points="243.27321263247822,179.60753397146283 280.8086130069282,159.98439910121562 "/><polyline class="polyline" opacity="0.5" stroke="blue" points="242.2899554439461,178.84898701173745 279.1135178897207,158.14119337158357 "/><polyline class="polyline" opacity="0.5" stroke="blue" points="241.29191125553518,178.100565626077 277.3912964919177,156.31961725470933 "/><polyline class="polyline" opacity="0.5" stroke="blue" points="240.27945110693858,177.36247985503255 275.6427941700598,154.52000402919057 "/><polyline class="polyline" opacity="0.5" stroke="blue" points="239.2529465626111,176.63493601030137 273.8688531299031,152.74267621191237 "/><polyline class="polyline" opacity="0.5" stroke="blue" points="238.21276967782586,175.91813674060123 272.07031243893516,150.98794600767314 "/><polyline class="polyline" opacity="0.5" stroke="blue" points="237.15929297017584,175.21228109676593 270.24800806497876,149.25611574934734 "/><polyline class="polyline" opacity="0.5" stroke="blue" points="236.09288939633385,174.51756459592494 268.4027729395916,147.54747832801147 "/><polyline class="polyline" opacity="0.5" stroke="blue" points="235.01393233388535,173.83417928463567 266.535437044991,145.86231761250343 "/><polyline class="polyline" opacity="0.5" stroke="blue" points="233.92279556804664,173.16231380084076 264.6468275232513,144.20090885792405 "/><polyline class="polyline" opacity="0.5" stroke="blue" points="232.81985328308326,172.50215343452803 262.7377688065454,142.56351910262632 "/><polyline class="polyline" opacity="0.5" stroke="blue" points="231.70548005824156,171.85388018697407 260.8090827672178,140.95040755327068 "/><polyline class="polyline" opacity="0.5" stroke="blue" points="230.58005086800884,171.21767282845758 258.86158888650317,139.3618259575569 "/><polyline class="polyline" opacity="0.5" stroke="blue" points="229.44394108651628,170.59370695433176 256.8961044407169,137.7980189642696 "/><polyline class="polyline" opacity="0.5" stroke="blue" points="228.29752649589983,169.98215503934935 254.91344470377032,136.25922447030072 "/><polyline class="polyline" opacity="0.5" stroke="blue" points="227.14118329843538,169.3831864901372 252.9144231648743,134.74567395433587 "/><polyline class="polyline" opacity="0.5" stroke="blue" points="225.97528813226378,168.79696769572098 250.89985176031692,133.25759279691096 "/><polyline class="polyline" opacity="0.5" stroke="blue" points="224.800218090523,168.2236620760042 248.87054111821377,131.79520058656504 "/><polyline class="polyline" opacity="0.5" stroke="blue" points="223.61635074370463,167.6634301281079 246.82730081514342,130.35871141183108 "/><polyline class="polyline" opacity="0.5" stroke="blue" points="222.42406416505193,167.1164294704823 244.77093964359324,128.94833413882185 "/><polyline class="polyline" opacity="0.5" stroke="blue" points="221.22373695881845,166.58281488470226 242.70226588915227,127.56427267417884 "/><polyline class="polyline" opacity="0.5" stroke="blue" points="220.01574829120494,166.06273835486346 240.62208761639454,126.20672621316461 "/><polyline class="polyline" opacity="0.5" stroke="blue" points="218.8004779237939,165.55634910449703 238.53121296240488,124.87588947268804 "/><polyline class="polyline" opacity="0.5" stroke="blue" points="217.5783062493004,165.06379363092455 236.43045043690293,123.57195290905854 "/><polyline class="polyline" opacity="0.5" stroke="blue" points="216.34961432945875,164.58521573697607 234.32060922792468,122.29510292027302 "/><polyline class="polyline" opacity="0.5" stroke="blue" points="215.11478393486408,164.1207565599978 232.20249951202027,121.04552203264436 "/><polyline class="polyline" opacity="0.5" stroke="blue" points="213.874197586588,163.67055459807742 230.07693276792668,119.82338907158356 "/><polyline class="polyline" opacity="0.5" stroke="blue" points="212.62823859938715,163.23474573341696 227.9447220926684,118.62887931635203 "/><polyline class="polyline" opacity="0.5" stroke="blue" points="211.37729112632402,162.81346325278628 225.80668251903506,117.46216463860239 "/><polyline class="polyline" opacity="0.5" stroke="blue" points="210.1217402046177,162.40683786499102 223.66363133337524,116.32341362452806 "/><polyline class="polyline" opacity="0.5" stroke="blue" points="208.8619718025426,162.0149977152917 221.5163883926352,115.21279168044269 "/><polyline class="polyline" opacity="0.5" stroke="blue" points="207.5983728671926,161.63806839671253 219.36577643956053,114.13046112161331 "/><polyline class="polyline" opacity="0.5" stroke="blue" points="206.33133137292668,161.2761729581793 217.21262141496035,113.07658124416837 "/><polyline class="polyline" opacity="0.5" stroke="blue" points="205.0612363703114,160.9294319094295 215.05775276592055,112.05130837990723 "/><polyline class="polyline" opacity="0.5" stroke="blue" points="203.78847803537494,160.5979632226373 212.90200374882988,111.0547959338328 "/><polyline class="polyline" opacity="0.5" stroke="blue" points="202.51344771898582,160.2818823307003 210.7462117260643,110.08719440423572 "/><polyline class="polyline" opacity="0.5" stroke="blue" points="201.23653799616775,159.98130212213437 208.5912184551501,109.14865138515492 "/><polyline class="polyline" opacity="0.5" stroke="blue" points="199.95814271516178,159.6963329325265 206.43787036920236,108.23931155104555 "/><polyline class="polyline" opacity="0.5" stroke="blue" points="198.67865704604355,159.4270825324969 204.28701884740812,107.3593166234837 "/><polyline class="polyline" opacity="0.5" stroke="blue" points="197.39847752870338,159.17365611212296 202.13952047429615,106.50880531974549 "/><polyline class="polyline" opacity="0.5" stroke="blue" points="196.1180021199943,158.9361562617801 199.99623728650445,105.68791328309808 "/><polyline class="polyline" opacity="0.5" stroke="blue" points="194.83763023985028,158.71468294935664 197.85803700572683,104.89677299465023 "/><polyline class="polyline" opacity="0.5" stroke="blue" points="193.55776281617727,158.50933349380148 195.7257932564877,104.13551366661386 "/><polyline class="polyline" opacity="0.5" stroke="blue" points="192.27880232831413,158.32020253496574 193.60038576736068,103.4042611168394 "/><polyline class="polyline" opacity="0.5" stroke="blue" points="191.00115284886084,158.14738199970174 191.48270055421492,102.70313762449621 "/><polyline class="polyline" opacity="0.5" stroke="blue" points="189.72522008366786,157.9909610641845 189.37363008403688,102.03226176678365 "/><polyline class="polyline" opacity="0.5" stroke="blue" points="188.45141140977776,157.85102611242465 187.27407341784442,101.39174823657291 "/><polyline class="polyline" opacity="0.5" stroke="blue" points="187.18013591110818,157.72766069094286 185.18493633117413,100.78170764089404 "/><polyline class="polyline" opacity="0.5" stroke="blue" points="185.9118044116618,157.62094545957916 183.10713141059122,100.20224628020668 "/><polyline class="polyline" opacity="0.5" stroke="blue" points="184.64682950604734,157.5309581384135 181.041578124639,99.65346590841102 "/><polyline class="polyline" opacity="0.5" stroke="blue" points="183.38562558709134,157.45777345077718 178.98920286761438,99.13546347358253 "/><polyline class="polyline" opacity="0.5" stroke="blue" points="182.1286088703188,157.40146306233692 176.95093897452682,98.64833083944238 "/><polyline class="polyline" opacity="0.5" stroke="blue" points="180.8761974150776,157.3620955162382 174.92772670557193,98.19215448760504 "/><polyline class="polyline" opacity="0.5" stroke="blue" points="179.62881114207818,157.33973616429734 172.9205131984267,97.76701520068207 "/><polyline class="polyline" opacity="0.5" stroke="blue" points="178.38687184711804,157.33444709423497 170.930252386652,97.37298772635579 "/><polyline class="polyline" opacity="0.5" stroke="blue" points="177.15080321075712,157.3462870529498 168.9579048824731,97.01014042258235 "/><polyline class="polyline" opacity="0.5" stroke="blue" points="175.92103080370757,157.37531136583314 167.00443782219298,96.67853488412696 "/><polyline class="polyline" opacity="0.5" stroke="blue" points="174.69798208769876,157.4215718521313 165.07082467248892,96.37822555068483 "/><polyline class="polyline" opacity="0.5" stroke="blue" points="173.48208641157598,157.4851167363673 163.1580449958374,96.10925929689644 "/><polyline class="polyline" opacity="0.5" stroke="blue" points="172.2737750023883,157.56599055583757 161.26708417331918,95.87167500462222 "/><polyline class="polyline" opacity="0.5" stroke="blue" points="171.0734809512194,157.66423406420643 159.39893308306407,95.66550311790638 "/><polyline class="polyline" opacity="0.5" stroke="blue" points="169.8816391935122,157.7798841312254 157.55458773261586,95.49076518112565 "/><polyline class="polyline" opacity="0.5" stroke="blue" points="168.69868648363735,157.91297363861108 155.73504884352263,95.34747336089093 "/><polyline class="polyline" opacity="0.5" stroke="blue" points="167.52506136345275,158.06353137212184 153.94132138649354,95.23562995234505 "/><polyline class="polyline" opacity="0.5" stroke="blue" points="166.36120412460048,158.2315819098802 152.1744140655081,95.15522687058235 "/><polyline class="polyline" opacity="0.5" stroke="blue" points="165.20755676428644,158.41714550699473 150.4353387493202,95.1062451279991 "/><polyline class="polyline" opacity="0.5" stroke="blue" points="164.0645629342863,158.62023797654268 148.72510984886407,95.08865429847337 "/><polyline class="polyline" opacity="0.5" stroke="blue" points="162.9326678829226,158.84087056698291 147.04474363915014,95.10241196936853 "/><polyline class="polyline" opacity="0.5" stroke="blue" points="161.81231838975566,159.07904983607594 145.39525752432775,95.14746318244998 "/><polyline class="polyline" opacity="0.5" stroke="blue" points="160.70396269273294,159.33477752139783 143.77766924469785,95.2237398649076 "/><polyline class="polyline" opacity="0.5" stroke="blue" points="159.6080504075419,159.6080504075419 142.19299602457613,95.33116025178221 "/><polyline class="polyline" opacity="0.5" stroke="blue" points="158.52503243891204,159.8988601901131 140.6422536600412,95.4696283012019 "/><polyline class="polyline" opacity="0.5" stroke="blue" points="157.45536088361493,160.20719333662882 139.1264555457495,95.63903310394619 "/><polyline class="polyline" opacity="0.5" stroke="blue" points="156.3994889249127,160.53303094444976 137.64661164016462,95.83924828896981 "/><polyline class="polyline" opacity="0.5" stroke="blue" points="155.35787071820857,160.87634859587646 136.20372736872736,96.0701314266353 "/><polyline class="polyline" opacity="0.5" stroke="blue" points="154.33096126765727,161.23711621055537 134.79880246469094,96.33152343151883 "/><polyline class="polyline" opacity="0.5" stroke="blue" points="153.31921629349762,161.61529789535302 133.43282974756085,96.62324796677493 "/><polyline class="polyline" opacity="0.5" stroke="blue" points="152.32309208987445,162.01085179186475 132.10679383930733,96.94511085216216 "/><polyline class="polyline" opacity="0.5" stroke="blue" points="151.34304537292388,162.42372992174006 130.82166981877083,97.2968994779514 "/><polyline class="polyline" opacity="0.5" stroke="blue" points="150.3795331189018,162.8538780300161 129.5784218149433,97.67838222705467 "/><polyline class="polyline" opacity="0.5" stroke="blue" points="149.43301239214497,163.30123542666524 128.37800154009392,98.08930790782632 "/><polyline class="polyline" opacity="0.5" stroke="blue" points="148.5039401626614,163.76573482657594 127.22134676400593,98.52940520010097 "/><polyline class="polyline" opacity="0.5" stroke="blue" points="147.5927731131568,164.24730218819712 126.10937973090756,98.99838211713762 "/><polyline class="polyline" opacity="0.5" stroke="blue" points="146.6999674353163,164.74585655109362 125.043005521013,99.49592548624335 "/><polyline class="polyline" opacity="0.5" stroke="blue" points="145.82597861516956,165.2613098726704 124.02311035893409,100.02170045094188 "/><polyline class="polyline" opacity="0.5" stroke="blue" points="144.97126120738403,165.79356686434065 123.05055987158498,100.57534999764395 "/><polyline class="polyline" opacity="0.5" stroke="blue" points="144.13626859834176,166.34252482742463 122.1261972985734,101.1564945098504 "/><polyline class="polyline" opacity="0.5" stroke="blue" points="143.3214527578739,166.90807348908277 121.2508416584576,101.76473135299095 "/><polyline class="polyline" opacity="0.5" stroke="blue" points="142.52726397954086,167.49009483859965 120.42528587463778,102.39963449305561 "/><polyline class="polyline" opacity="0.5" stroke="blue" points="141.75415060936575,168.08846296435152 119.65029486505534,103.06075415222213 "/><polyline class="polyline" opacity="0.5" stroke="blue" points="141.00255876294756,168.70304389180384 118.92660360027263,103.74761650471015 "/><polyline class="polyline" opacity="0.5" stroke="blue" points="140.27293203090062,169.33369542290137 118.25491513492005,104.45972341610894 "/><polyline class="polyline" opacity="0.5" stroke="blue" points="139.56571117258886,169.98026697722668 117.63589861790041,105.19655222942271 "/><polyline class="polyline" opacity="0.5" stroke="blue" points="138.88133379814764,170.64259943531957 117.070187287148,105.95755560105565 "/><polyline class="polyline" opacity="0.5" stroke="blue" points="138.22023403880885,171.32052498456292 116.55837645513898,106.74216138992121 "/><polyline class="polyline" opacity="0.5" stroke="blue" points="137.58284220557255,172.01386696805542 116.10102149173788,107.54977260279756 "/><polyline class="polyline" opacity="0.5" stroke="blue" points="136.96958443629492,172.72243973690644 115.69863581134608,108.37976739897096 "/><polyline class="polyline" opacity="0.5" stroke="blue" points="136.38088233129182,173.446048506401 115.35168887167573,109.23149915710418 "/><polyline class="polyline" opacity="0.5" stroke="blue" points="135.81715257758643,174.18448921649713 115.06060419181577,110.10429660713876 "/><polyline class="polyline" opacity="0.5" stroke="blue" points="135.2788065619627,174.93754839712997 114.82575739757411,110.99746402989001 "/><polyline class="polyline" opacity="0.5" stroke="blue" points="134.76624997301758,175.70500303881033 114.6474743023683,111.91028152681535 "/><polyline class="polyline" opacity="0.5" stroke="blue" points="134.27988239244047,176.4866204690158 114.52602903219658,112.84200536223894 "/><polyline class="polyline" opacity="0.5" stroke="blue" points="133.82009687578366,177.28215823488495 114.46164220344161,113.7918683800861 "/><polyline class="polyline" opacity="0.5" stroke="blue" points="133.38727952302395,178.09136399273376 114.45447916244184,114.75908049693419 "/><polyline class="polyline" opacity="0.5" stroke="blue" points="132.98180903925433,178.91397540492432 114.50464829590405,115.74282927290787 "/><polyline class="polyline" opacity="0.5" stroke="blue" points="132.60405628588353,179.74972004462177 114.6121994213224,116.7422805616504 "/><polyline class="polyline" opacity="0.5" stroke="blue" points="132.25438382276116,180.59831530898558 114.77712226660873,117.75657924027888 "/><polyline class="polyline" opacity="0.5" stroke="blue" points="131.93314544168825,181.4594683413441 114.99934504812526,118.78485001988734 "/><polyline class="polyline" opacity="0.5" stroke="blue" points="131.6406856918139,182.3328759629082 115.27873315624169,119.82619833679612 "/><polyline class="polyline" opacity="0.5" stroke="blue" points="131.37733939746295,183.21822461458171 115.61508795740518,120.87971132436392 "/><polyline class="polyline" opacity="0.5" stroke="blue" points="131.1434311689822,184.11519030942935 116.00814572152238,121.94445886477492 "/><polyline class="polyline" opacity="0.5" stroke="blue" points="130.93927490723746,185.023438596361 116.45757668319442,123.01949471980026 "/><polyline class="polyline" opacity="0.5" stroke="blue" points="130.765173302437,185.94262453559207 116.96298424502561,124.10385773910393 "/><polyline class="polyline" opacity="0.5" stroke="blue" points="130.62141732800438,186.8723926864351 117.52390433084008,125.19657314422487 "/><polyline class="polyline" opacity="0.5" stroke="blue" points="130.50828573026521,187.81237710797143 118.1398048961879,126.29665388592429 "/><polyline class="polyline" opacity="0.5" stroke="blue" points="130.42604451475955,188.76220137314783 118.81008560300522,127.40310207213732 "/><polyline class="polyline" opacity="0.5" stroke="blue" points="130.37494643003538,189.7214785968302 119.53407766471088,128.51491046332342 "/><polyline class="polyline" opacity="0.5" stroke="blue" points="130.35523044982313,190.68981147833756 120.31104386737948,129.63106403156266 "/><polyline class="polyline" opacity="0.5" stroke="blue" points="130.36712125453403,191.66679235896544 121.14017877192774,130.7505415793106 "/><polyline class="polyline" opacity="0.5" stroke="blue" points="130.41082871306824,192.6520032949908 122.02060910149046,131.87231741329757 "/><polyline class="polyline" opacity="0.5" stroke="blue" points="130.48654736596046,193.64501614663487 122.95139431735383,132.99536306864735 "/><polyline class="polyline" opacity="0.5" stroke="blue" points="130.5944559109305,194.64539268343714 123.93152738595245,134.1186490778992 "/><polyline class="polyline" opacity="0.5" stroke="blue" points="130.7347166919456,195.65268470647268 124.95993573853619,135.2411467792459 "/><polyline class="polyline" opacity="0.5" stroke="blue" points="130.9074751929382,196.6664341878187 126.03548242417669,136.3618301579591 "/><polyline class="polyline" opacity="0.5" stroke="blue" points="131.112859537357,197.68617342764827 127.15696745581337,137.47967771465906 "/><polyline class="polyline" opacity="0.5" stroke="blue" points="131.35097999476417,198.71142522929904 128.32312934805174,138.59367435380574 "/><polyline class="polyline" opacity="0.5" stroke="blue" points="131.6219284957189,199.74170309263138 129.5326468444187,139.70281328554645 "/><polyline class="polyline" opacity="0.5" stroke="blue" points="131.92577815621746,200.7765114259551 130.78414083076825,140.80609793384906 "/><polyline class="polyline" opacity="0.5" stroke="blue" points="132.26258281298325,201.81534577676607 132.0761764305181,141.90254384369058 "/><polyline class="polyline" opacity="0.5" stroke="blue" points="132.63237657092182,202.85769308149247 133.40726527639313,142.9911805799519 "/><polyline class="polyline" opacity="0.5" stroke="blue" points="133.03517336407333,203.90303193440974 134.775867952367,144.07105361059902 "/><polyline class="polyline" opacity="0.5" stroke="blue" points="133.47096653140983,204.9508328758351 136.18039659853264,145.14122616670798 "/><polyline class="polyline" opacity="0.5" stroke="blue" points="133.93972840883345,206.0005586996679 137.61921767070407,146.20078107191614 "/><polyline class="polyline" opacity="0.5" stroke="blue" points="134.44140993873847,207.05166478029014 139.09065484567174,147.2488225339562 "/><polyline class="polyline" opacity="0.5" stroke="blue" points="134.9759402985008,208.10359941879116 140.59299206219575,148.28447789105394 "/><polyline class="polyline" opacity="0.5" stroke="blue" points="135.54322654925593,209.1558042084261 142.1244766870481,149.30689930614338 "/><polyline class="polyline" opacity="0.5" stroke="blue" points="136.1431533063175,210.20771441916273 143.68332279470243,150.3152654020728 "/><polyline class="polyline" opacity="0.5" stroke="blue" points="136.77558243257596,211.25875940111374 145.26771454862876,151.30878283124258 "/><polyline class="polyline" opacity="0.5" stroke="blue" points="137.44035275619854,212.30836300659362 146.8758096715863,152.28668777342614 "/><polyline class="polyline" opacity="0.5" stroke="blue" points="138.13727981392833,213.35594403047912 148.50574299182705,153.2482473558795 "/><polyline class="polyline" opacity="0.5" stroke="blue" points="138.86615562124996,214.40091666849153 150.15563005172277,154.19276099023682 "/><polyline class="polyline" opacity="0.5" stroke="blue" points="139.62674847065773,215.44269099295772 151.8235707650234,155.11956162111773 "/><polyline class="polyline" opacity="0.5" stroke="blue" points="140.4188027592187,216.4806734455444 153.50765310873734,156.02801688183342 "/><polyline class="polyline" opacity="0.5" stroke="blue" points="141.24203884657987,217.514267346398 155.20595683549988,156.9175301530672 "/><polyline class="polyline" opacity="0.5" stroke="blue" points="142.09615294451675,218.54287341905945 156.9165571922684,157.7875415209202 "/><polyline class="polyline" opacity="0.5" stroke="blue" points="142.98081703906314,219.56589033046197 158.63752863124458,158.63752863124458 "/><polyline class="polyline" opacity="0.5" stroke="blue" points="143.89567884620072,220.5827152452566 160.36694849907855,159.4670074377371 "/><polyline class="polyline" opacity="0.5" stroke="blue" points="144.8403618020185,221.5927443936511 162.10290069065672,160.27553284182574 "/><polyline class="polyline" opacity="0.5" stroke="blue" points="145.8144650881788,222.59537365188623 163.84347925410228,161.06269922294615 "/><polyline class="polyline" opacity="0.5" stroke="blue" points="146.81756369344942,223.58999913441704 165.58679193403435,161.8281408583739 "/><polyline class="polyline" opacity="0.5" stroke="blue" points="147.8492085119768,224.57601779680795 167.33096364062018,162.57153223234155 "/><polyline class="polyline" opacity="0.5" stroke="blue" points="148.90892647888822,225.55282804829736 169.0741398325198,163.29258823472406 "/><polyline class="polyline" opacity="0.5" stroke="blue" points="149.99622074371814,226.51983037293493 170.81448980245216,163.99106425012323 "/><polyline class="polyline" opacity="0.5" stroke="blue" points="151.1105708820566,227.47642795814446 172.5502098548019,164.66675613870595 "/><polyline class="polyline" opacity="0.5" stroke="blue" points="152.25143314571798,228.42202732951952 174.27952636542875,165.3195001106605 "/><polyline class="polyline" opacity="0.5" stroke="blue" points="153.4182407516232,229.3560389906149 176.00069871463157,165.94917249661864 "/><polyline class="polyline" opacity="0.5" stroke="blue" points="154.61040420948262,230.27787806645767 177.7120220850441,166.55568941684703 "/><polyline class="polyline" opacity="0.5" stroke="blue" points="155.82731168825478,231.18696494946522 179.41183011710058,167.13900635243937 "/><polyline class="polyline" opacity="0.5" stroke="blue" points="157.06832942124632,232.08272594642608 181.09849741558693,167.69911762213417 "/><polyline class="polyline" opacity="0.5" stroke="blue" points="158.3328021496019,232.96459392517153 182.77044190169175,168.2360557687443 "/><polyline class="polyline" opacity="0.5" stroke="blue" points="159.62005360381966,233.83200895954263 184.42612700587404,168.74989085950696 "/><polyline class="polyline" opacity="0.5" stroke="blue" points="160.92938702281006,234.68441897124023 186.0640636977689,169.24072970494973 "/><polyline class="polyline" opacity="0.5" stroke="blue" points="162.26008570989927,235.52128036713026 187.68281235024955,169.70871500111656 "/><polyline class="polyline" opacity="0.5" stroke="blue" points="163.6114136250634,236.34205867057048 189.28098443564951,170.15402440020648 "/><polyline class="polyline" opacity="0.5" stroke="blue" points="164.9826160125629,237.14622914531992 190.8572440530102,170.57686951484737 "/><polyline class="polyline" opacity="0.5" stroke="blue" points="166.37292006303232,237.9332774105961 192.41030928606082,170.97749486135967 "/><polyline class="polyline" opacity="0.5" stroke="blue" points="167.78153560896965,238.70270004585194 193.9389533924426,171.35617674745822 "/><polyline class="polyline" opacity="0.5" stroke="blue" points="169.20765585245712,239.45400518385773 195.44200582546262,171.71322210989578 "/><polyline class="polyline" opacity="0.5" stroke="blue" points="170.65045812384162,240.1867130906924 196.91835309039342,172.0489673075731 "/><polyline class="polyline" opacity="0.5" stroke="blue" points="172.10910466999658,240.90035673127227 198.3669394380232,172.3637768756267 "/><polyline class="polyline" opacity="0.5" stroke="blue" points="173.58274347068945,241.59448231907524 199.7867673988017,172.65804224595854 "/><polyline class="polyline" opacity="0.5" stroke="blue" points="175.07050908148446,242.2686498487529 201.17689816152003,172.93218043959416 "/><polyline class="polyline" opacity="0.5" stroke="blue" points="176.5715235015195,242.92243361036398 202.5364518010021,173.1866327361517 "/><polyline class="polyline" opacity="0.5" stroke="blue" points="178.08489706441304,243.5554226840068 203.8646073597738,173.4218633255703 "/><polyline class="polyline" opacity="0.5" stroke="blue" points="179.6097293504784,244.1672214136797 205.16060278911164,173.63835794709277 "/><polyline class="polyline" opacity="0.5" stroke="blue" points="181.14511011835117,244.75744985925226 206.42373475525255,173.8366225203173 "/><polyline class="polyline" opacity="0.5" stroke="blue" points="182.69012025407005,245.32574422549058 207.65335831687452,174.01718177293978 "/><polyline class="polyline" opacity="0.5" stroke="blue" points="184.24383273559542,245.87175726714236 208.84888648023323,174.18057786959326 "/><polyline class="polyline" opacity="0.5" stroke="blue" points="185.8053136106969,246.3951586691567 210.0097896385627,174.3273690459652 "/><polyline class="polyline" opacity="0.5" stroke="blue" points="187.3736229861012,246.89563540118303 211.13559490252067,174.45812825213528 "/><polyline class="polyline" opacity="0.5" stroke="blue" points="188.94781602575443,247.37289204556976 212.2258853285846,174.57344180882842 "/><polyline class="polyline" opacity="0.5" stroke="blue" points="190.52694395602848,247.82665109815966 213.28029905238284,174.67390808002378 "/><polyline class="polyline" opacity="0.5" stroke="blue" points="192.11005507568063,248.25665324125993 214.29852833397806,174.76013616510218 "/><polyline class="polyline" opacity="0.5" stroke="blue" points="193.6961957683669,248.66265758824716 215.2803185221156,174.83274461345178 "/><polyline class="polyline" opacity="0.5" stroke="blue" points="195.28441151550666,249.04444189935083 216.2254669444013,174.89236016419176 "/><polyline class="polyline" opacity="0.5" stroke="blue" points="196.87374790730294,249.4018027682464 217.13382173029248,174.93961651341115 "/><polyline class="polyline" opacity="0.5" stroke="blue" points="198.46325164973723,249.734555779174 218.0052805736718,174.97515311106463 "/><polyline class="polyline" opacity="0.5" stroke="blue" points="200.05197156538054,250.04253563438735 218.83978944162777,174.9996139894116 "/><polyline class="polyline" opacity="0.5" stroke="blue" points="201.63895958589282,250.32559625182392 219.63734123589518,175.01364662464098 "/><polyline class="polyline" opacity="0.5" stroke="blue" points="203.22327173412125,250.58361083297646 220.39797441321312,175.01790083308052 "/><polyline class="polyline" opacity="0.5" stroke="blue" points="204.80396909375438,250.81647190103052 221.121771570641,175.0130277031612 "/><polyline class="polyline" opacity="0.5" stroke="blue" points="206.3801187645418,251.02409130942016 221.80885800163972,174.99967856408406 "/><polyline class="polyline" opacity="0.5" stroke="blue" points="207.95079480114862,251.2064002210378 222.45940022847387,174.9785039919227 "/><polyline class="polyline" opacity="0.5" stroke="blue" points="209.5150791337825,251.36334905841585 223.07360451622995,174.95015285369652 "/><polyline class="polyline" opacity="0.5" stroke="blue" points="211.07206246880065,251.49490742527996 223.6517153734716,174.9152713897572 "/><polyline class="polyline" opacity="0.5" stroke="blue" points="212.62084516758677,251.60106399994962 224.19401404427467,174.87450233465285 "/><polyline class="polyline" opacity="0.5" stroke="blue" points="214.16053810206702,251.68182640113918 224.70081699609815,174.82848407646838 "/><polyline class="polyline" opacity="0.5" stroke="blue" points="215.69026348532805,251.73722102678195 225.17247440766081,174.77784985448542 "/><polyline class="polyline" opacity="0.5" stroke="blue" points="217.20915567588762,251.76729286657098 225.6093686607021,174.72322699486335 "/><polyline class="polyline" opacity="0.5" stroke="blue" points="218.7163619542695,251.7721052889736 226.01191283921966,174.66523618391292 "/><polyline class="polyline" opacity="0.5" stroke="blue" points="220.21104327063298,251.75173980353844 226.38054923948894,174.60449077841557 "/><polyline class="polyline" opacity="0.5" stroke="blue" points="221.69237496230875,251.7062957993709 226.71574789388876,174.54159615233596 "/><polyline class="polyline" opacity="0.5" stroke="blue" points="223.15954744020104,251.6358902607052 227.01800511128076,174.47714907918052 "/><polyline class="polyline" opacity="0.5" stroke="blue" points="224.61176684312042,251.54065746054988 227.28784203642132,174.41173714917227 "/><polyline class="polyline" opacity="0.5" stroke="blue" points="226.04825565922152,251.4207486334281 227.52580323062242,174.34593822033875 "/><polyline class="polyline" opacity="0.5" stroke="blue" points="227.46825331382732,251.27633162827152 227.73245527562412,174.28031990255027 "/><polyline class="polyline" opacity="0.5" stroke="blue" points="228.87101672303297,251.10759054256317 227.9083854023997,174.21543907349283 "/><polyline class="polyline" opacity="0.5" stroke="blue" points="230.25582081258767,250.91472533885297 228.05420014637795,174.15184142551914 "/><polyline class="polyline" opacity="0.5" stroke="blue" points="231.6219590016656,250.69795144479508 228.1705240303476,174.09006104228837 "/><polyline class="polyline" opacity="0.5" stroke="blue" points="232.96874365123853,250.45749933787727 228.25799827609333,174.03062000408178 "/><polyline class="polyline" opacity="0.5" stroke="blue" points="234.29550647687265,250.19361411602628 228.31727954561603,173.97402802066568 "/><polyline class="polyline" opacity="0.5" stroke="blue" points="235.6015989258724,249.90655505528684 228.34903871259823,173.92078209056498 "/><polyline class="polyline" opacity="0.5" stroke="blue" points="236.88639251879457,249.59659515577573 228.35395966460004,173.87136618561047 "/><polyline class="polyline" opacity="0.5" stroke="blue" points="238.1492791554561,249.2640206771165 228.33273813630564,173.82625095962814 "/><polyline class="polyline" opacity="0.5" stroke="blue" points="239.38967138564993,248.90913066455647 228.28608057398557,173.785893480151 "/><polyline class="polyline" opacity="0.5" stroke="blue" points="240.60700264487778,248.5322364669629 228.21470303120014,173.75073698205208 "/><polyline class="polyline" opacity="0.5" stroke="blue" points="241.80072745549296,248.13366124788345 228.11933009563688,173.7212106420189 "/><polyline class="polyline" opacity="0.5" stroke="blue" points="242.9703215937317,247.71373949084264 228.00069384685756,173.697729372818 "/><polyline class="polyline" opacity="0.5" stroke="blue" points="244.1152822231888,247.27281650002757 227.85953284462127,173.68069363632878 "/><polyline class="polyline" opacity="0.5" stroke="blue" points="245.23512799536925,246.81124789749623 227.69659114735373,173.67048927436235 "/><polyline class="polyline" opacity="0.5" stroke="blue" points="246.3293991180155,246.3293991180155 227.51261736024557,173.66748735631825 "/><polyline class="polyline" opacity="0.5" stroke="blue" points="247.39765739197736,245.8276449026099 227.30836371238587,173.67204404277413 "/><polyline class="polyline" opacity="0.5" stroke="blue" points="248.43948621745025,245.3063687918717 227.0845851622721,173.6845004641476 "/><polyline class="polyline" opacity="0.5" stroke="blue" points="249.4544905704626,244.76596262005035 226.842038530977,173.70518261361485 "/><polyline class="polyline" opacity="0.5" stroke="blue" points="250.44229695054534,244.2068260109037 226.5814816622085,173.73440125351914 "/><polyline class="polyline" opacity="0.5" stroke="blue" points="251.4025533005605,243.62936587625768 226.30367260845568,173.7724518345507 "/><polyline class="polyline" opacity="0.5" stroke="blue" points="252.33492889970668,243.03399591818123 226.00936884238504,173.81961442703115 "/><polyline class="polyline" opacity="0.5" stroke="blue" points="253.2391142307548,242.42113613564388 225.69932649262574,173.87615366368547 "/><polyline class="polyline" opacity="0.5" stroke="blue" points="254.1148208225993,241.79121233648056 225.37429960306727,173.94231869333692 "/><polyline class="polyline" opacity="0.5" stroke="blue" points="254.96178106923367,241.14465565544725 225.0350394147837,174.0183431450125 "/><polyline class="polyline" opacity="0.5" stroke="blue" points="255.77974802628376,240.4819020791054 224.68229366969558,174.1044451019979 "/><polyline class="polyline" opacity="0.5" stroke="blue" points="256.56849518624574,239.8033919782303 224.3168059350848,174.20082708543288 "/><polyline class="polyline" opacity="0.5" stroke="blue" points="257.32781623359085,239.10956964839323 223.93931494808663,174.3076760470897 "/><polyline class="polyline" opacity="0.5" stroke="blue" points="258.05752478090506,238.400882859322 223.55055397929843,174.42516337102703 "/><polyline class="polyline" opacity="0.5" stroke="blue" points="258.75745408723753,237.67778241359977 223.15125021466417,174.55344488386265 "/><polyline class="polyline" opacity="0.5" stroke="blue" points="259.4274567598307,236.94072171521782 222.7421241548192,174.69266087345565 "/><polyline class="polyline" opacity="0.5" stroke="blue" points="260.06740444040184,236.19015634845073 222.32388903110754,174.84293611583723 "/><polyline class="polyline" opacity="0.5" stroke="blue" points="260.67718747713843,235.4265436674819 221.89725023751885,175.00437991027565 "/><polyline class="polyline" opacity="0.5" stroke="blue" points="261.2567145835605,234.65034239716044 221.46290477782694,175.1770861224036 "/><polyline class="polyline" opacity="0.5" stroke="blue" points="261.8059124853871,233.86201224523003 221.02154072725378,175.36113323538157 "/><polyline class="polyline" opacity="0.5" stroke="blue" points="262.3247255565299,233.06201352632672 220.57383670802454,175.5565844091095 "/><polyline class="polyline" opacity="0.5" stroke="blue" points="262.81311544531764,232.25080679800223 220.12046137822557,175.76348754753977 "/><polyline class="polyline" opacity="0.5" stroke="blue" points="263.27106069203063,231.42885250899073 219.66207293342669,175.9818753741804 "/><polyline class="polyline" opacity="0.5" stroke="blue" points="263.69855633880513,230.59661065989513 219.19931862057672,176.21176551591194 "/><polyline class="polyline" opacity="0.5" stroke="blue" points="264.0956135329374,229.75454047643578 218.73283426373726,176.45316059527536 "/><polyline class="polyline" opacity="0.5" stroke="blue" points="264.46225912459147,228.90310009536458 218.26324380126948,176.70604833141542 "/><polyline class="polyline" opacity="0.5" stroke="blue" points="264.79853525988466,228.0427462631154 217.79115883414715,176.9704016498941 "/><polyline class="polyline" opacity="0.5" stroke="blue" points="265.1044989702939,227.17393404722705 217.31717818512277,177.24617880161162 "/><polyline class="polyline" opacity="0.5" stroke="blue" points="265.38022175929376,226.29711656054462 216.84188746853152,177.53332349109468 "/><polyline class="polyline" opacity="0.5" stroke="blue" points="265.6257891871031,225.4127446981732 216.36585867057497,177.83176501443103 "/><polyline class="polyline" opacity="0.5" stroke="blue" points="265.8413004543853,224.52126688713167 215.8896497399826,178.14141840714558 "/><polyline class="polyline" opacity="0.5" stroke="blue" points="266.0268679857078,223.62312884862456 215.4138041890083,178.46218460232566 "/><polyline class="polyline" opacity="0.5" stroke="blue" points="266.18261701353697,222.71877337282746 214.93885070477398,178.7939505993142 "/><polyline class="polyline" opacity="0.5" stroke="blue" points="266.3086851635036,221.8086401060551 214.46530277103017,179.13658964329576 "/><polyline class="polyline" opacity="0.5" stroke="blue" points="266.4052220416397,220.89316535016033 213.99365830045758,179.48996141610434 "/><polyline class="polyline" opacity="0.5" stroke="blue" points="266.4723888242539,219.97278187399212 213.52439927768899,179.85391223858258 "/><polyline class="polyline" opacity="0.5" stroke="blue" points="266.5103578510707,219.04791873671914 213.0579914132826,180.2282752848195 "/><polyline class="polyline" opacity="0.5" stroke="blue" points="266.51931222222987,218.11900112281114 212.59488380893018,180.61287080858702 "/><polyline class="polyline" opacity="0.5" stroke="blue" points="266.49944539970056,217.18645018845132 212.13550863423137,181.00750638228797 "/><polyline class="polyline" opacity="0.5" stroke="blue" points="266.45096081363295,216.25068291914047 211.6802808154146,181.41197714871362 "/><polyline class="polyline" opacity="0.5" stroke="blue" points="266.3740714741339,215.31211199823835 211.22959773642697,181.82606608589552 "/><polyline class="polyline" opacity="0.5" stroke="blue" points="266.2689995889202,214.37114568617824 210.7838389528613,182.2495442853146 "/><polyline class="polyline" opacity="0.5" stroke="blue" points="266.1359761872668,213.42818771007737 210.34336591922388,182.68217124371108 "/><polyline class="polyline" opacity="0.5" stroke="blue" points="265.97524075063757,212.4836371634596 209.90852173008653,183.12369516871044 "/><polyline class="polyline" opacity="0.5" stroke="blue" points="265.7870408503521,211.53788841579592 209.4796308756958,183.57385329845513 "/><polyline class="polyline" opacity="0.5" stroke="blue" points="265.57163179261124,210.59133103156378 209.05699901264538,184.0323722353972 "/><polyline class="polyline" opacity="0.5" stroke="blue" points="265.32927627117374,209.64434969851897 208.6409127502399,184.49896829437517 "/><polyline class="polyline" opacity="0.5" stroke="blue" points="265.06024402794753,208.69732416487 208.2316394532029,184.97334786505908 "/><polyline class="polyline" opacity="0.5" stroke="blue" points="264.76481152172937,207.75062918504116 207.82942706139818,185.4552077888089 "/><polyline class="polyline" opacity="0.5" stroke="blue" points="264.44326160530056,206.80463447370755 207.43450392724753,185.94423574994855 "/><polyline class="polyline" opacity="0.5" stroke="blue" points="264.0958832110592,205.85970466778397 207.047078671537,186.44011068141228 "/><polyline class="polyline" opacity="0.5" stroke="blue" points="263.7229710453445,204.9161992960482 206.66734005830875,186.9425031846744 "/><polyline class="polyline" opacity="0.5" stroke="blue" points="263.3248252915839,203.9744727560804 206.29545688953561,187.4510759638221 "/><polyline class="polyline" opacity="0.5" stroke="blue" points="262.90175132237084,203.0348742981984 205.93157792027003,187.9654842735821 "/><polyline class="polyline" opacity="0.5" stroke="blue" points="262.45405942055885,202.0977480160741 205.57583179495077,188.4853763810578 "/><polyline class="polyline" opacity="0.5" stroke="blue" points="261.98206450943644,201.16343284371328 205.22832700553568,189.01039404088033 "/><polyline class="polyline" opacity="0.5" stroke="blue" points="261.486085892027,200.23226255848883 204.88915187210975,189.54017298342183 "/><polyline class="polyline" opacity="0.5" stroke="blue" points="260.9664469995392,199.30456578991578 204.5583745465941,190.07434341566292 "/><polyline class="polyline" opacity="0.5" stroke="blue" points="260.42347514897546,198.38066603386463 204.23604304015203,190.61253053425048 "/><polyline class="polyline" opacity="0.5" stroke="blue" points="259.8575013098882,197.4608816719092 203.92218527485488,191.15435505022486 "/><polyline class="polyline" opacity="0.5" stroke="blue" points="259.2688598802598,196.5455259955142 203.6168091601331,191.6994337248388 "/><polyline class="polyline" opacity="0.5" stroke="blue" points="258.6578884714635,195.63490723476852 203.31990269449238,192.2473799158345 "/><polyline class="polyline" opacity="0.5" stroke="blue" points="258.02492770225246,194.72932859137825 203.03143409293043,192.79780413348956 "/><polyline class="polyline" opacity="0.5" stroke="blue" points="257.3703210017095,193.82908827563784 202.751351940436,193.35031460568712 "/><polyline class="polyline" opacity="0.5" stroke="blue" points="256.69441442107495,192.93447954710317 202.4795853718964,193.90451785121382 "/><polyline class="polyline" opacity="0.5" stroke="blue" points="255.99755645436477,192.0457907586975 202.216044278681,194.46001926043579 "/><polyline class="polyline" opacity="0.5" stroke="blue" points="255.28009786767436,191.1633054039856 201.9606195421031,195.01642368245462 "/><polyline class="polyline" opacity="0.5" stroke="blue" points="254.54239153705814,190.2873021673595 201.7131832938974,195.5733360177967 "/><polyline class="polyline" opacity="0.5" stroke="blue" points="253.7847922948635,189.41805497688432 201.4735892037796,196.13036181564578 "/><polyline class="polyline" opacity="0.5" stroke="blue" points="253.00765678439137,188.55583305955932 201.2416727940821,196.68710787458548 "/><polyline class="polyline" opacity="0.5" stroke="blue" points="252.21134332274588,187.70090099875645 201.0172517813851,197.2431828457808 "/><polyline class="polyline" opacity="0.5" stroke="blue" points="251.39621177173194,186.85351879360476 200.80012644498538,197.79819783749204 "/><polyline class="polyline" opacity="0.5" stroke="blue" points="250.56262341664967,186.01394192009508 200.59008002196597,198.35176701978315 "/><polyline class="polyline" opacity="0.5" stroke="blue" points="249.71094085283292,185.18242139368698 200.386879128551,198.90350822825943 "/><polyline class="polyline" opacity="0.5" stroke="blue" points="248.8415278797702,184.3592038332058 200.19027420734784,199.453043565646 "/><polyline class="polyline" opacity="0.5" stroke="blue" points="247.95474940264606,183.5445315258242 200.0,200.0 "/><polyline class="polyline" opacity="0.5" stroke="blue" points="247.05097134113302,182.7386424929288 199.8157760446901,200.54400995833532 "/><polyline class="polyline" opacity="0.5" stroke="blue" points="246.13056054526322,181.9417705566792 199.63730719785508,201.08471191442965 "/><polyline class="polyline" opacity="0.5" stroke="blue" points="245.1938847182064,181.1541454070732 199.46428417939438,201.62175096957824 "/><polyline class="polyline" opacity="0.5" stroke="blue" points="244.24131234577484,180.37599266933637 199.29638414057408,202.15477942506158 "/><polyline class="polyline" opacity="0.5" stroke="blue" points="243.2732126324783,179.60753397146286 199.13327125375454,202.68345734509725 "/><polyline class="polyline" opacity="0.5" stroke="blue" points="242.28995544394616,178.84898701173748 198.9745973229949,203.2074531090595 "/><polyline class="polyline" opacity="0.5" stroke="blue" points="241.29191125553524,178.10056562607707 198.82000241451667,203.72644395176445 "/><polyline class="polyline" opacity="0.5" stroke="blue" points="240.2794511069386,177.36247985503257 198.66911550594122,204.24011649064144 "/><polyline class="polyline" opacity="0.5" stroke="blue" points="239.25294656261116,176.63493601030143 198.52155515315124,204.74816723863532 "/><polyline class="polyline" opacity="0.5" stroke="blue" points="238.21276967782592,175.91813674060126 198.37693017356665,205.2503031017183 "/><polyline class="polyline" opacity="0.5" stroke="blue" points="237.1592929701759,175.21228109676596 198.23484034456902,205.74624185992343 "/><polyline class="polyline" opacity="0.5" stroke="blue" points="236.09288939633387,174.51756459592497 198.09487711575747,206.23571263085435 "/><polyline class="polyline" opacity="0.5" stroke="blue" points="235.0139323338854,173.8341792846357 197.95662433367298,206.71845631467028 "/><polyline class="polyline" opacity="0.5" stroke="blue" points="233.92279556804675,173.16231380084082 197.81965897758712,207.19422601959522 "/><polyline class="polyline" opacity="0.5" stroke="blue" points="232.81985328308332,172.50215343452808 197.68355190491516,207.6627874670537 "/><polyline class="polyline" opacity="0.5" stroke="blue" points="231.70548005824162,171.85388018697412 197.547868604785,208.1239193755931 "/><polyline class="polyline" opacity="0.5" stroke="blue" points="230.5800508680089,171.2176728284576 197.41216995826835,208.577413822813 "/><polyline class="polyline" opacity="0.5" stroke="blue" points="229.44394108651636,170.5937069543318 197.27601300376347,209.02307658458687 "/><polyline class="polyline" opacity="0.5" stroke="blue" points="228.2975264958999,169.98215503934938 197.13895170600733,209.46072745092738 "/><polyline class="polyline" opacity="0.5" stroke="blue" points="227.14118329843546,169.38318649013723 197.0005377271894,209.8902005179171 "/><polyline class="polyline" opacity="0.5" stroke="blue" points="225.9752881322638,168.79696769572104 196.8603211986397,210.3113444551967 "/><polyline class="polyline" opacity="0.5" stroke="blue" points="224.80021809052306,168.22366207600422 196.71785149157196,210.72402274857728 "/><polyline class="polyline" opacity="0.5" stroke="blue" points="223.61635074370466,167.66343012810793 196.57267798537467,211.12811391741735 "/><polyline class="polyline" opacity="0.5" stroke="blue" points="222.424064165052,167.11642947048233 196.4243508319626,211.5235117064805 "/><polyline class="polyline" opacity="0.5" stroke="blue" points="221.2237369588185,166.5828148847023 196.2724217147272,211.91012525206642 "/><polyline class="polyline" opacity="0.5" stroke="blue" points="220.01574829120503,166.06273835486348 196.11644460065364,212.28787922228426 "/><polyline class="polyline" opacity="0.5" stroke="blue" points="218.80047792379395,165.55634910449706 195.9559764842104,212.65671393141253 "/><polyline class="polyline" opacity="0.5" stroke="blue" points="217.57830624930045,165.06379363092458 195.79057812165803,213.01658542836637 "/><polyline class="polyline" opacity="0.5" stroke="blue" points="216.34961432945883,164.5852157369761 195.61981475447092,213.36746555936696 "/><polyline class="polyline" opacity="0.5" stroke="blue" points="215.11478393486414,164.1207565599978 195.44325682061748,213.7093420049801 "/><polyline class="polyline" opacity="0.5" stroke="blue" points="213.87419758658808,163.67055459807744 195.26048065250015,214.04221829176373 "/><polyline class="polyline" opacity="0.5" stroke="blue" points="212.62823859938723,163.23474573341696 195.0710691604166,214.36611377883256 "/><polyline class="polyline" opacity="0.5" stroke="blue" points="211.3772911263241,162.81346325278633 194.8746125004676,214.68106361971417 "/><polyline class="polyline" opacity="0.5" stroke="blue" points="210.12174020461777,162.40683786499102 194.6707087259036,214.98711869993664 "/><polyline class="polyline" opacity="0.5" stroke="blue" points="208.86197180254268,162.01499771529174 194.45896442097305,215.2843455508473 "/><polyline class="polyline" opacity="0.5" stroke="blue" points="207.59837286719267,161.63806839671255 194.23899531640714,215.57282624022045 "/><polyline class="polyline" opacity="0.5" stroke="blue" points="206.33133137292677,161.27617295817936 194.01042688575134,215.85265824026698 "/><polyline class="polyline" opacity="0.5" stroke="blue" points="205.06123637031143,160.92943190942952 193.77289492182948,216.12395427370797 "/><polyline class="polyline" opacity="0.5" stroke="blue" points="203.78847803537502,160.59796322263733 193.52604609270523,216.38684213862263 "/><polyline class="polyline" opacity="0.5" stroke="blue" points="202.51344771898584,160.28188233070034 193.2695384765833,216.64146451282215 "/><polyline class="polyline" opacity="0.5" stroke="blue" points="201.23653799616784,159.98130212213437 193.00304207517223,216.88797873854057 "/><polyline class="polyline" opacity="0.5" stroke="blue" points="199.95814271516184,159.6963329325265 192.72623930511,217.1265565882677 "/><polyline class="polyline" opacity="0.5" stroke="blue" points="198.6786570460436,159.4270825324969 192.43882546713223,217.35738401257828 "/><polyline class="polyline" opacity="0.5" stroke="blue" points="197.3984775287035,159.173656112123 192.1405091927409,217.5806608708386 "/><polyline class="polyline" opacity="0.5" stroke="blue" points="196.11800211999434,158.93615626178013 191.83101286820826,217.79660064569106 "/><polyline class="polyline" opacity="0.5" stroke="blue" points="194.83763023985037,158.71468294935664 191.51007303582725,218.00543014223467 "/><polyline class="polyline" opacity="0.5" stroke="blue" points="193.55776281617733,158.50933349380148 191.17744077239163,218.2073891728326 "/><polyline class="polyline" opacity="0.5" stroke="blue" points="192.2788023283142,158.32020253496577 190.8328820449627,218.40273022848382 "/><polyline class="polyline" opacity="0.5" stroke="blue" points="191.0011528488609,158.14738199970174 190.47617804404737,218.5917181377015 "/><polyline class="polyline" opacity="0.5" stroke="blue" points="189.72522008366792,157.9909610641845 190.1071254943802,218.774629713839 "/><polyline class="polyline" opacity="0.5" stroke="blue" points="188.45141140977782,157.85102611242465 189.72553694356426,218.95175339180122 "/><polyline class="polyline" opacity="0.5" stroke="blue" points="187.18013591110827,157.72766069094286 189.331241028888,219.12338885506887 "/><polyline class="polyline" opacity="0.5" stroke="blue" points="185.91180441166185,157.62094545957916 188.9240827226913,219.2898466539533 "/><polyline class="polyline" opacity="0.5" stroke="blue" points="184.6468295060474,157.5309581384135 188.5039235567086,219.45144781598182 "/><polyline class="polyline" opacity="0.5" stroke="blue" points="183.38562558709137,157.45777345077718 188.07064182586626,219.60852344929577 "/><polyline class="polyline" opacity="0.5" stroke="blue" points="182.12860887031886,157.40146306233692 187.62413277205874,219.76141433992083 "/><polyline class="polyline" opacity="0.5" stroke="blue" points="180.87619741507768,157.36209551623824 187.16430874846975,219.9104705437437 "/><polyline class="polyline" opacity="0.5" stroke="blue" points="179.62881114207823,157.3397361642973 186.6910993650435,220.0560509740015 "/><polyline class="polyline" opacity="0.5" stroke="blue" points="178.38687184711813,157.33444709423497 186.20445161574597,220.1985229850594 "/><polyline class="polyline" opacity="0.5" stroke="blue" points="177.1508032107572,157.3462870529498 185.70432998828554,220.33826195321925 "/><polyline class="polyline" opacity="0.5" stroke="blue" points="175.92103080370765,157.37531136583314 185.19071655699048,220.4756508552663 "/><polyline class="polyline" opacity="0.5" stroke="blue" points="174.6979820876988,157.4215718521313 184.6636110595608,220.61107984542534 "/><polyline class="polyline" opacity="0.5" stroke="blue" points="173.48208641157603,157.48511673636727 184.123030958433,220.74494583135643 "/><polyline class="polyline" opacity="0.5" stroke="blue" points="172.27377500238836,157.56599055583757 183.5690114875076,220.87765204978382 "/><polyline class="polyline" opacity="0.5" stroke="blue" points="171.0734809512195,157.66423406420643 183.00160568500226,221.009607642306 "/><polyline class="polyline" opacity="0.5" stroke="blue" points="169.88163919351229,157.7798841312254 182.42088441319802,221.1412272318961 "/><polyline class="polyline" opacity="0.5" stroke="blue" points="168.69868648363743,157.91297363861105 181.82693636584995,221.27293050055573 "/><polyline class="polyline" opacity="0.5" stroke="blue" points="167.52506136345278,158.06353137212182 181.2198680640313,221.40514176854342 "/><polyline class="polyline" opacity="0.5" stroke="blue" points="166.36120412460056,158.23158190988016 180.59980384117708,221.53828957555254 "/><polyline class="polyline" opacity="0.5" stroke="blue" points="165.20755676428647,158.41714550699473 179.9668858180834,221.6728062641712 "/><polyline class="polyline" opacity="0.5" stroke="blue" points="164.06456293428636,158.62023797654268 179.32127386860867,221.80912756590942 "/><polyline class="polyline" opacity="0.5" stroke="blue" points="162.9326678829227,158.8408705669829 178.66314557680687,221.94769219003635 "/><polyline class="polyline" opacity="0.5" stroke="blue" points="161.81231838975572,159.0790498360759 177.9926961862064,222.08894141542532 "/><polyline class="polyline" opacity="0.5" stroke="blue" points="160.70396269273303,159.33477752139777 177.3101385419261,222.23331868555954 "/><polyline class="polyline" opacity="0.5" stroke="blue" points="159.6080504075419,159.6080504075419 176.61570302629758,222.38126920681066 "/><polyline class="polyline" opacity="0.5" stroke="blue" points="158.5250324389121,159.8988601901131 175.9096374886351,222.5332395500565 "/><polyline class="polyline" opacity="0.5" stroke="blue" points="157.455360883615,160.2071933366288 175.1922071697669,222.68967725566543 "/><polyline class="polyline" opacity="0.5" stroke="blue" points="156.3994889249128,160.53303094444976 174.46369462190987,222.85103044183273 "/><polyline class="polyline" opacity="0.5" stroke="blue" points="155.35787071820863,160.8763485958764 173.7243996244348,223.01774741621446 "/><polyline class="polyline" opacity="0.5" stroke="blue" points="154.33096126765736,161.23711621055534 172.97463909603584,223.190276290767 "/><polyline class="polyline" opacity="0.5" stroke="blue" points="153.31921629349767,161.61529789535297 172.21474700377763,223.3690645996623 "/><polyline class="polyline" opacity="0.5" stroke="blue" points="152.32309208987448,162.01085179186475 171.44507426945555,223.55455892011344 "/><polyline class="polyline" opacity="0.5" stroke="blue" points="151.34304537292388,162.42372992174006 170.66598867366204,223.7472044959109 "/><polyline class="polyline" opacity="0.5" stroke="blue" points="150.37953311890175,162.8538780300161 169.87787475790893,223.94744486343708 "/><polyline class="polyline" opacity="0.5" stroke="blue" points="149.43301239214503,163.30123542666524 169.08113372511133,224.1557214798955 "/><polyline class="polyline" opacity="0.5" stroke="blue" points="148.5039401626614,163.76573482657594 168.2761833386916,224.37247335346132 "/><polyline class="polyline" opacity="0.5" stroke="blue" points="147.5927731131568,164.24730218819715 167.46345782051588,224.59813667503252 "/><polyline class="polyline" opacity="0.5" stroke="blue" points="146.69996743531635,164.7458565510936 166.64340774782485,224.83314445123497 "/><polyline class="polyline" opacity="0.5" stroke="blue" points="145.8259786151696,165.26130987267038 165.81649994927153,225.07792613831054 "/><polyline class="polyline" opacity="0.5" stroke="blue" points="144.97126120738403,165.79356686434065 164.98321740012932,225.33290727649455 "/><polyline class="polyline" opacity="0.5" stroke="blue" points="144.13626859834176,166.34252482742465 164.14405911667768,225.59850912446987 "/><polyline class="polyline" opacity="0.5" stroke="blue" points="143.32145275787394,166.90807348908274 163.29954004972456,225.87514829346577 "/><polyline class="polyline" opacity="0.5" stroke="blue" points="142.52726397954086,167.49009483859962 162.45019097716684,226.16323638055354 "/><polyline class="polyline" opacity="0.5" stroke="blue" points="141.75415060936575,168.08846296435152 161.5965583954394,226.46317960067665 "/><polyline class="polyline" opacity="0.5" stroke="blue" points="141.00255876294756,168.70304389180387 160.7392044096443,226.77537841694198 "/><polyline class="polyline" opacity="0.5" stroke="blue" points="140.27293203090065,169.33369542290134 159.87870662209963,227.10022716868778 "/><polyline class="polyline" opacity="0.5" stroke="blue" points="139.56571117258886,169.98026697722665 159.0156580189883,227.43811369683752 "/><polyline class="polyline" opacity="0.5" stroke="blue" points="138.88133379814764,170.64259943531957 158.15066685473278,227.789418966042 "/><polyline class="polyline" opacity="0.5" stroke="blue" points="138.22023403880883,171.32052498456295 157.28435653366222,228.15451668311132 "/><polyline class="polyline" opacity="0.5" stroke="blue" points="137.58284220557255,172.0138669680554 156.41736548848314,228.53377291123547 "/><polyline class="polyline" opacity="0.5" stroke="blue" points="136.96958443629495,172.72243973690644 155.55034705500532,228.92754567949646 "/><polyline class="polyline" opacity="0.5" stroke="blue" points="136.38088233129182,173.44604850640098 154.6839693425187,229.33618458717672 "/><polyline class="polyline" opacity="0.5" stroke="blue" points="135.81715257758648,174.1844892164971 153.81891509915667,229.76003040237887 "/><polyline class="polyline" opacity="0.5" stroke="blue" points="135.2788065619627,174.93754839712994 152.95588157152474,230.19941465447894 "/><polyline class="polyline" opacity="0.5" stroke="blue" points="134.76624997301758,175.70500303881033 152.0955803578169,230.6546592199485 "/><polyline class="polyline" opacity="0.5" stroke="blue" points="134.27988239244047,176.4866204690158 151.23873725358013,231.1260759010976 "/><polyline class="polyline" opacity="0.5" stroke="blue" points="133.8200968757837,177.2821582348849 150.38609208923523,231.61396599730685 "/><polyline class="polyline" opacity="0.5" stroke="blue" points="133.38727952302395,178.09136399273376 149.53839855840155,232.1186198683399 "/><polyline class="polyline" opacity="0.5" stroke="blue" points="132.98180903925433,178.91397540492432 148.6964240360192,232.6403164893507 "/><polyline class="polyline" opacity="0.5" stroke="blue" points="132.60405628588353,179.7497200446218 147.8609493852046,233.17932299722884 "/><polyline class="polyline" opacity="0.5" stroke="blue" points="132.25438382276116,180.59831530898555 147.03276875172241,233.73589422795573 "/><polyline class="polyline" opacity="0.5" stroke="blue" points="131.93314544168823,181.4594683413441 146.21268934490246,234.3102722446804 "/><polyline class="polyline" opacity="0.5" stroke="blue" points="131.64068569181387,182.3328759629082 145.40153120377803,234.90268585626 "/><polyline class="polyline" opacity="0.5" stroke="blue" points="131.37733939746295,183.2182246145817 144.60012694717076,235.5133501260527 "/><polyline class="polyline" opacity="0.5" stroke="blue" points="131.14343116898223,184.11519030942935 143.8093215063983,236.142465870796 "/><polyline class="polyline" opacity="0.5" stroke="blue" points="130.93927490723746,185.02343859636096 143.02997183923546,236.79021914945093 "/><polyline class="polyline" opacity="0.5" stroke="blue" points="130.76517330243698,185.9426245355921 142.26294662371114,237.45678074194876 "/><polyline class="polyline" opacity="0.5" stroke="blue" points="130.62141732800438,186.87239268643503 141.50912593028517,238.14230561783052 "/><polyline class="polyline" opacity="0.5" stroke="blue" points="130.50828573026524,187.8123771079714 140.7694008709061,238.84693239483394 "/><polyline class="polyline" opacity="0.5" stroke="blue" points="130.42604451475955,188.76220137314783 140.04467322341867,239.57078278754528 "/><polyline class="polyline" opacity="0.5" stroke="blue" points="130.37494643003532,189.7214785968302 139.33585502975308,240.31396104630602 "/><polyline class="polyline" opacity="0.5" stroke="blue" points="130.3552304498231,190.68981147833753 138.64386816630346,241.07655338663633 "/><polyline class="polyline" opacity="0.5" stroke="blue" points="130.36712125453403,191.6667923589654 137.96964388487595,241.85862740951774 "/><polyline class="polyline" opacity="0.5" stroke="blue" points="130.41082871306824,192.6520032949908 137.31412232257057,242.6602315129587 "/><polyline class="polyline" opacity="0.5" stroke="blue" points="130.48654736596046,193.6450161466349 136.67825197894444,243.48139429535706 "/><polyline class="polyline" opacity="0.5" stroke="blue" points="130.59445591093046,194.6453926834371 136.0629891587985,244.3221239512631 "/><polyline class="polyline" opacity="0.5" stroke="blue" points="130.7347166919456,195.65268470647266 135.46929737892702,245.1824076602455 "/><polyline class="polyline" opacity="0.5" stroke="blue" points="130.9074751929382,196.6664341878187 134.8981467371761,246.06221096966192 "/><polyline class="polyline" opacity="0.5" stroke="blue" points="131.112859537357,197.6861734276482 134.35051324216892,246.96147717224406 "/><polyline class="polyline" opacity="0.5" stroke="blue" points="131.35097999476417,198.711425229299 133.82737810207817,247.88012667951492 "/><polyline class="polyline" opacity="0.5" stroke="blue" points="131.6219284957189,199.74170309263135 133.32972697085583,248.8180563921695 "/><polyline class="polyline" opacity="0.5" stroke="blue" points="131.92577815621743,200.77651142595514 132.85854915036902,249.77513906867122 "/><polyline class="polyline" opacity="0.5" stroke="blue" points="132.26258281298325,201.815345776766 132.41483674694192,250.75122269343467 "/><polyline class="polyline" opacity="0.5" stroke="blue" points="132.63237657092185,202.85769308149244 131.99958378086143,251.74612984609283 "/><polyline class="polyline" opacity="0.5" stroke="blue" points="133.03517336407333,203.9030319344097 131.6137852474779,252.759657073473 "/><polyline class="polyline" opacity="0.5" stroke="blue" points="133.47096653140983,204.9508328758351 131.25843612861428,253.7915742660398 "/><polyline class="polyline" opacity="0.5" stroke="blue" points="133.93972840883345,206.00055869966783 130.93453035309312,254.8416240406939 "/><polyline class="polyline" opacity="0.5" stroke="blue" points="134.44140993873847,207.05166478029014 130.6430597053,255.90952113195277 "/><polyline class="polyline" opacity="0.5" stroke="blue" points="134.9759402985008,208.10359941879116 130.38501268082547,256.9949517936738 "/><polyline class="polyline" opacity="0.5" stroke="blue" points="135.54322654925596,209.15580420842616 130.1613732883629,258.09757321362065 "/><polyline class="polyline" opacity="0.5" stroke="blue" points="136.1431533063175,210.2077144191627 129.97311979719422,259.21701294330717 "/><polyline class="polyline" opacity="0.5" stroke="blue" points="136.77558243257593,211.2587594011137 129.82122342976055,260.35286834569274 "/><polyline class="polyline" opacity="0.5" stroke="blue" points="137.44035275619854,212.30836300659362 129.70664699899982,261.5047060634348 "/><polyline class="polyline" opacity="0.5" stroke="blue" points="138.13727981392827,213.35594403047907 129.63034349033086,262.67206151053887 "/><polyline class="polyline" opacity="0.5" stroke="blue" points="138.8661556212499,214.4009166684915 129.59325458838083,263.85443839037475 "/><polyline class="polyline" opacity="0.5" stroke="blue" points="139.62674847065773,215.44269099295772 129.59630914878414,265.0513082431474 "/><polyline class="polyline" opacity="0.5" stroke="blue" points="140.4188027592187,216.48067344554443 129.6404216156302,266.26211002603804 "/><polyline class="polyline" opacity="0.5" stroke="blue" points="141.24203884657985,217.51426734639793 129.7264903854021,267.4862497293328 "/><polyline class="polyline" opacity="0.5" stroke="blue" points="142.09615294451672,218.5428734190594 129.85539611853272,268.72310003196674 "/><polyline class="polyline" opacity="0.5" stroke="blue" points="142.98081703906314,219.56589033046197 130.028,269.972 "/><polyline class="polyline" opacity="0.5" stroke="blue" points="143.89567884620072,220.58271524525665 130.24514195069858,271.23225483163037 "/><polyline class="polyline" opacity="0.5" stroke="blue" points="144.84036180201844,221.59274439365106 130.5076387916554,272.50313565241186 "/><polyline class="polyline" opacity="0.5" stroke="blue" points="145.81446508817876,222.5953736518862 130.8162823634976,273.7838793644107 "/><polyline class="polyline" opacity="0.5" stroke="blue" points="146.81756369344942,223.58999913441704 131.17183760394062,275.0736885530672 "/><polyline class="polyline" opacity="0.5" stroke="blue" points="147.8492085119768,224.57601779680797 131.57504058643218,276.3717314555597 "/><polyline class="polyline" opacity="0.5" stroke="blue" points="148.90892647888816,225.55282804829733 132.02659652346873,277.6771419944721 "/><polyline class="polyline" opacity="0.5" stroke="blue" points="149.99622074371814,226.5198303729349 132.52717773848968,278.98901988055167 "/><polyline class="polyline" opacity="0.5" stroke="blue" points="151.11057088205663,227.47642795814448 133.0774216106529,280.30643078830803 "/><polyline class="polyline" opacity="0.5" stroke="blue" points="152.2514331457179,228.42202732951947 133.6779284971958,281.6284066081503 "/><polyline class="polyline" opacity="0.5" stroke="blue" points="153.41824075162316,229.35603899061488 134.3292596384954,282.9539457786706 "/><polyline class="polyline" opacity="0.5" stroke="blue" points="154.6104042094826,230.27787806645765 135.0319350513422,284.28201370257625 "/><polyline class="polyline" opacity="0.5" stroke="blue" points="155.8273116882548,231.18696494946522 135.7864314163539,285.61154324964116 "/><polyline class="polyline" opacity="0.5" stroke="blue" points="157.06832942124623,232.08272594642602 136.5931799658499,286.9414353498745 "/><polyline class="polyline" opacity="0.5" stroke="blue" points="158.33280214960186,232.9645939251715 137.45256437890254,288.2705596799209 "/><polyline class="polyline" opacity="0.5" stroke="blue" points="159.62005360381968,233.83200895954263 138.3649186906605,289.5977554454761 "/><polyline class="polyline" opacity="0.5" stroke="blue" points="160.92938702281012,234.68441897124023 139.33052522340822,290.9218322622519 "/><polyline class="polyline" opacity="0.5" stroke="blue" points="162.26008570989922,235.52128036713026 140.34961254717075,292.24157113773845 "/><polyline class="polyline" opacity="0.5" stroke="blue" points="163.61141362506336,236.34205867057045 141.42235347800107,293.55572555569256 "/><polyline class="polyline" opacity="0.5" stroke="blue" points="164.98261601256291,237.14622914531992 142.54886312238574,294.86302266493567 "/><polyline class="polyline" opacity="0.5" stroke="blue" points="166.37292006303238,237.93327741059613 143.72919697647626,296.16216457366295 "/><polyline class="polyline" opacity="0.5" stroke="blue" points="167.7815356089696,238.7027000458519 144.96334908908733,297.45182975005736 "/><polyline class="polyline" opacity="0.5" stroke="blue" points="169.2076558524571,239.4540051838577 146.25125029760324,298.7306745295587 "/><polyline class="polyline" opacity="0.5" stroke="blue" points="170.65045812384164,240.1867130906924 147.5927665460865,299.99733472867325 "/><polyline class="polyline" opacity="0.5" stroke="blue" points="172.1091046699965,240.90035673127224 148.98769729499668,301.2504273647116 "/><polyline class="polyline" opacity="0.5" stroke="blue" points="173.5827434706894,241.5944823190752 150.4357740319854,302.488552480323 "/><polyline class="polyline" opacity="0.5" stroke="blue" points="175.07050908148446,242.2686498487529 151.93665889323788,303.7102950711504 "/><polyline class="polyline" opacity="0.5" stroke="blue" points="176.5715235015195,242.92243361036398 153.4899434047884,304.914227114369 "/><polyline class="polyline" opacity="0.5" stroke="blue" points="178.08489706441293,243.55542268400677 155.09514735312086,306.09890969528846 "/><polyline class="polyline" opacity="0.5" stroke="blue" points="179.6097293504784,244.16722141367967 156.75171779419847,307.2628952286086 "/><polyline class="polyline" opacity="0.5" stroke="blue" points="181.1451101183512,244.75744985925226 158.45902820982616,308.4047297703107 "/><polyline class="polyline" opacity="0.5" stroke="blue" points="182.6901202540701,245.32574422549058 160.21637781995207,309.5229554155604 "/><polyline class="polyline" opacity="0.5" stroke="blue" points="184.24383273559536,245.87175726714233 162.02299105913755,310.61611277738564 "/><polyline class="polyline" opacity="0.5" stroke="blue" points="185.80531361069689,246.39515866915667 163.87801722498972,311.6827435402864 "/><polyline class="polyline" opacity="0.5" stroke="blue" points="187.3736229861012,246.89563540118303 165.78053030583987,312.72139308233153 "/><polyline class="polyline" opacity="0.5" stroke="blue" points="188.94781602575435,247.37289204556973 167.7295289943777,313.7306131587118 "/><polyline class="polyline" opacity="0.5" stroke="blue" points="190.52694395602842,247.82665109815963 169.7239368933038,314.7089646391541 "/><polyline class="polyline" opacity="0.5" stroke="blue" points="192.1100550756806,248.25665324125993 171.7626029183554,315.6550202910488 "/><polyline class="polyline" opacity="0.5" stroke="blue" points="193.69619576836692,248.66265758824716 173.8443019032899,316.5673675996353 "/><polyline class="polyline" opacity="0.5" stroke="blue" points="195.2844115155066,249.0444418993508 175.96773541057678,317.4446116161048 "/><polyline class="polyline" opacity="0.5" stroke="blue" points="196.87374790730289,249.4018027682464 178.13153275066458,318.2853778240388 "/><polyline class="polyline" opacity="0.5" stroke="blue" points="198.46325164973723,249.73455577917403 180.3342522117477,319.0883150142059 "/><polyline class="polyline" opacity="0.5" stroke="blue" points="200.0519715653806,250.04253563438735 182.57438250098215,319.8520981573938 "/><polyline class="polyline" opacity="0.5" stroke="blue" points="201.6389595858928,250.3255962518239 184.85034439707115,320.5754312646583 "/><polyline class="polyline" opacity="0.5" stroke="blue" points="203.22327173412125,250.5836108329765 187.16049261309237,321.25705022413985 "/><polyline class="polyline" opacity="0.5" stroke="blue" points="204.80396909375443,250.8164719010305 189.50311786735534,321.8957256034287 "/><polyline class="polyline" opacity="0.5" stroke="blue" points="206.38011876454186,251.02409130942016 191.87644915898832,322.4902654063512 "/><polyline class="polyline" opacity="0.5" stroke="blue" points="207.95079480114862,251.20640022103777 194.27865624384313,323.03951777301893 "/><polyline class="polyline" opacity="0.5" stroke="blue" points="209.51507913378248,251.36334905841585 196.7078523052071,323.5423736120153 "/><polyline class="polyline" opacity="0.5" stroke="blue" points="211.0720624688007,251.49490742527996 199.16209681271098,323.9977691537042 "/><polyline class="polyline" opacity="0.5" stroke="blue" points="212.62084516758668,251.60106399994962 201.63939856175116,324.4046884138302 "/><polyline class="polyline" opacity="0.5" stroke="blue" points="214.16053810206702,251.6818264011392 204.1377188846895,324.76216555683374 "/><polyline class="polyline" opacity="0.5" stroke="blue" points="215.6902634853281,251.73722102678195 206.6549750240806,325.0692871486407 "/><polyline class="polyline" opacity="0.5" stroke="blue" points="217.20915567588764,251.76729286657098 209.18904365721457,325.32519428908745 "/><polyline class="polyline" opacity="0.5" stroke="blue" points="218.71636195426947,251.7721052889736 211.7377645603423,325.5290846146183 "/><polyline class="polyline" opacity="0.5" stroke="blue" points="220.21104327063298,251.75173980353844 214.29894440010668,325.6802141624372 "/><polyline class="polyline" opacity="0.5" stroke="blue" points="221.69237496230878,251.70629579937088 216.87036063891554,325.7778990879019 "/><polyline class="polyline" opacity="0.5" stroke="blue" points="223.1595474402011,251.6358902607052 219.44976554030032,325.82151722762046 "/><polyline class="polyline" opacity="0.5" stroke="blue" points="224.6117668431204,251.5406574605499 222.03489025967605,325.81050950143174 "/><polyline class="polyline" opacity="0.5" stroke="blue" points="226.04825565922152,251.4207486334281 224.6234490054018,325.7443811472313 "/><polyline class="polyline" opacity="0.5" stroke="blue" points="227.46825331382735,251.27633162827152 227.21314325459946,325.6227027834203 "/><polyline class="polyline" opacity="0.5" stroke="blue" points="228.871016723033,251.10759054256317 229.80166600786853,325.445111294616 "/><polyline class="polyline" opacity="0.5" stroke="blue" points="230.25582081258764,250.91472533885297 232.38670606679537,325.2113105371514 "/><polyline class="polyline" opacity="0.5" stroke="blue" points="231.62195900166557,250.69795144479508 234.96595231804116,324.9210718618044 "/><polyline class="polyline" opacity="0.5" stroke="blue" points="232.96874365123855,250.45749933787727 237.53709800776582,324.5742344521303 "/><polyline class="polyline" opacity="0.5" stroke="blue" points="234.29550647687265,250.1936141160263 240.0978449902451,324.1707054777057 "/><polyline class="polyline" opacity="0.5" stroke="blue" points="235.6015989258724,249.90655505528684 242.64590793472286,323.71046006253835 "/><polyline class="polyline" opacity="0.5" stroke="blue" points="236.8863925187946,249.59659515577573 245.1790184748397,323.19354106982917 "/><polyline class="polyline" opacity="0.5" stroke="blue" points="238.1492791554561,249.2640206771165 247.69492928538074,322.6200587051917 "/><polyline class="polyline" opacity="0.5" stroke="blue" points="239.38967138564988,248.90913066455647 250.19141807157172,321.9901899413384 "/><polyline class="polyline" opacity="0.5" stroke="blue" points="240.60700264487775,248.5322364669629 252.6662914567412,321.30417776810816 "/><polyline class="polyline" opacity="0.5" stroke="blue" points="241.800727455493,248.13366124788345 255.11738875483059,320.5623302725518 "/><polyline class="polyline" opacity="0.5" stroke="blue" points="242.97032159373177,247.7137394908426 257.54258561498955,319.76501955458093 "/><polyline class="polyline" opacity="0.5" stroke="blue" points="244.11528222318879,247.27281650002757 259.93979752630287,318.9126804844386 "/><polyline class="polyline" opacity="0.5" stroke="blue" points="245.23512799536925,246.81124789749626 262.3069831715882,318.0058093089411 "/><polyline class="polyline" opacity="0.5" stroke="blue" points="246.3293991180155,246.3293991180155 264.6421476201301,317.0449621140814 "/><polyline class="polyline" opacity="0.5" stroke="blue" points="247.39765739197742,245.8276449026099 266.9433453502141,316.0307531521627 "/><polyline class="polyline" opacity="0.5" stroke="blue" points="248.43948621745025,245.3063687918717 269.20868309333423,314.96385304214135 "/><polyline class="polyline" opacity="0.5" stroke="blue" points="249.4544905704626,244.76596262005035 271.4363224930077,313.8449868523094 "/><polyline class="polyline" opacity="0.5" stroke="blue" points="250.44229695054534,244.20682601090368 273.6244825721949,312.6749320748223 "/><polyline class="polyline" opacity="0.5" stroke="blue" points="251.40255330056047,243.62936587625768 275.7714420044105,311.45451650188977 "/><polyline class="polyline" opacity="0.5" stroke="blue" points="252.33492889970668,243.03399591818123 277.87554118469154,310.1846160136821 "/><polyline class="polyline" opacity="0.5" stroke="blue" points="253.23911423075486,242.42113613564385 279.93518409766386,308.86615228818175 "/><polyline class="polyline" opacity="0.5" stroke="blue" points="254.11482082259934,241.79121233648053 281.94883998101733,307.5000904433011 "/><polyline class="polyline" opacity="0.5" stroke="blue" points="254.96178106923367,241.14465565544725 283.91504478373224,306.08743662162954 "/><polyline class="polyline" opacity="0.5" stroke="blue" points="255.77974802628376,240.48190207910542 285.83240241941667,304.6292355281356 "/><polyline class="polyline" opacity="0.5" stroke="blue" points="256.56849518624574,239.8033919782303 287.6995858160801,303.12656793106044 "/><polyline class="polyline" opacity="0.5" stroke="blue" points="257.32781623359085,239.10956964839323 289.5153377646114,301.58054813608055 "/><polyline class="polyline" opacity="0.5" stroke="blue" points="258.05752478090506,238.400882859322 291.27847156910036,299.9923214436152 "/><polyline class="polyline" opacity="0.5" stroke="blue" points="258.75745408723753,237.67778241359977 292.9878715029828,298.363061598885 "/><polyline class="polyline" opacity="0.5" stroke="blue" points="259.4274567598307,236.94072171521782 294.6424930757578,296.69396824402895 "/><polyline class="polyline" opacity="0.5" stroke="blue" points="260.06740444040184,236.19015634845073 296.2413631157426,294.986264381226 "/><polyline class="polyline" opacity="0.5" stroke="blue" points="260.67718747713843,235.4265436674819 297.78357967498374,293.2411938553821 "/><polyline class="polyline" opacity="0.5" stroke="blue" points="261.25671458356055,234.65034239716044 299.26831176302875,291.46001886451916 "/><polyline class="polyline" opacity="0.5" stroke="blue" points="261.8059124853871,233.86201224523 300.6947989167842,289.6440175055465 "/><polyline class="polyline" opacity="0.5" stroke="blue" points="262.3247255565299,233.06201352632672 302.0623506141478,287.7944813626181 "/><polyline class="polyline" opacity="0.5" stroke="blue" points="262.8131154453177,232.25080679800226 303.3703455394846,285.9127131447799 "/><polyline class="polyline" opacity="0.5" stroke="blue" points="263.27106069203063,231.4288525089907 304.61823070934753,284.0000243791051 "/><polyline class="polyline" opacity="0.5" stroke="blue" points="263.69855633880513,230.59661065989508 305.80552046710204,282.05773316498073 "/><polyline class="polyline" opacity="0.5" stroke="blue" points="264.09561353293736,229.7545404764358 306.9317953553111,280.087161994691 "/><polyline class="polyline" opacity="0.5" stroke="blue" points="264.46225912459147,228.90310009536458 307.99670087487596,278.0896356449026 "/><polyline class="polyline" opacity="0.5" stroke="blue" points="264.79853525988466,228.04274626311536 308.99994614000695,276.06647914313584 "/><polyline class="polyline" opacity="0.5" stroke="blue" points="265.10449897029395,227.17393404722702 309.9413024381248,274.0190158127709 "/><polyline class="polyline" opacity="0.5" stroke="blue" points="265.3802217592937,226.29711656054462 310.8206017037637,271.9485653996334 "/><polyline class="polyline" opacity="0.5" stroke="blue" points="265.6257891871032,225.41274469817324 311.637734915473,269.8564422826925 "/><polyline class="polyline" opacity="0.5" stroke="blue" points="265.8413004543853,224.52126688713165 312.3926504245917,267.74395377091975 "/><polyline class="polyline" opacity="0.5" stroke="blue" points="266.0268679857077,223.62312884862462 313.0853522246127,265.61239848788153 "/><polyline class="polyline" opacity="0.5" stroke="blue" points="266.18261701353697,222.71877337282748 313.71589816964666,263.46306484518664 "/><polyline class="polyline" opacity="0.5" stroke="blue" points="266.3086851635035,221.80864010605504 314.2843981502677,261.29722960547923 "/><polyline class="polyline" opacity="0.5" stroke="blue" points="266.4052220416397,220.8931653501603 314.7910122347583,259.116156535253 "/><polyline class="polyline" opacity="0.5" stroke="blue" points="266.4723888242539,219.97278187399215 315.23594878347876,256.92109514738144 "/><polyline class="polyline" opacity="0.5" stroke="blue" points="266.5103578510707,219.04791873671914 315.61946254377807,254.71327953289122 "/><polyline class="polyline" opacity="0.5" stroke="blue" points="266.51931222222987,218.1190011228111 315.94185273252873,252.49392728117732 "/><polyline class="polyline" opacity="0.5" stroke="blue" points="266.49944539970056,217.1864501884513 316.2034611130239,250.26423848753532 "/><polyline class="polyline" opacity="0.5" stroke="blue" points="266.45096081363295,216.25068291914047 316.4046700726155,248.02539484661247 "/><polyline class="polyline" opacity="0.5" stroke="blue" points="266.3740714741339,215.31211199823838 316.5459007071044,245.77855883011156 "/><polyline class="polyline" opacity="0.5" stroke="blue" points="266.2689995889202,214.3711456861782 316.62761091752157,243.52487294685216 "/><polyline class="polyline" opacity="0.5" stroke="blue" points="266.1359761872668,213.42818771007734 316.6502935245604,241.26545908307986 "/><polyline class="polyline" opacity="0.5" stroke="blue" points="265.97524075063757,212.4836371634596 316.6144744055452,239.00141792073325 "/><polyline class="polyline" opacity="0.5" stroke="blue" points="265.7870408503521,211.53788841579592 316.5207106584447,236.73382843121541 "/><polyline class="polyline" opacity="0.5" stroke="blue" points="265.5716317926112,210.59133103156375 316.3695887970673,234.46374744208063 "/><polyline class="polyline" opacity="0.5" stroke="blue" points="265.32927627117374,209.644349698519 316.1617229812109,232.19220927392712 "/><polyline class="polyline" opacity="0.5" stroke="blue" points="265.06024402794753,208.69732416487 315.89775328518,229.92022544469472 "/><polyline class="polyline" opacity="0.5" stroke="blue" points="264.76481152172937,207.75062918504116 315.57834400773675,227.64878443849352 "/><polyline class="polyline" opacity="0.5" stroke="blue" points="264.44326160530056,206.80463447370752 315.20418202621266,225.3788515360252 "/><polyline class="polyline" opacity="0.5" stroke="blue" points="264.09588321105923,205.85970466778397 314.7759751971812,223.11136870362955 "/><polyline class="polyline" opacity="0.5" stroke="blue" points="263.7229710453445,204.91619929604823 314.29445080577955,220.84725453795917 "/><polyline class="polyline" opacity="0.5" stroke="blue" points="263.3248252915839,203.97447275608036 313.76035406546515,218.58740426328367 "/><polyline class="polyline" opacity="0.5" stroke="blue" points="262.90175132237084,203.03487429819836 313.17444666970783,216.3326897784264 "/><polyline class="polyline" opacity="0.5" stroke="blue" points="262.45405942055885,202.0977480160741 312.53750539684677,214.08395975036078 "/><polyline class="polyline" opacity="0.5" stroke="blue" points="261.98206450943644,201.16343284371328 311.8503207690819,211.8420397515215 "/><polyline class="polyline" opacity="0.5" stroke="blue" points="261.48608589202695,200.2322625584888 311.11369576633376,209.60773243793193 "/><polyline class="polyline" opacity="0.5" stroke="blue" points="260.9664469995392,199.30456578991576 310.32844459546965,207.381817765293 "/><polyline class="polyline" opacity="0.5" stroke="blue" points="260.42347514897546,198.38066603386463 309.495391515192,205.16505324024564 "/><polyline class="polyline" opacity="0.5" stroke="blue" points="259.8575013098882,197.4608816719092 308.61536971668085,202.95817420408028 "/><polyline class="polyline" opacity="0.5" stroke="blue" points="259.26885988025987,196.54552599551417 307.689220259905,200.7618941462435 "/><polyline class="polyline" opacity="0.5" stroke="blue" points="258.6578884714635,195.63490723476855 306.7177910653447,198.5769050450653 "/><polyline class="polyline" opacity="0.5" stroke="blue" points="258.02492770225246,194.72932859137825 305.7019359607189,196.40387773321672 "/><polyline class="polyline" opacity="0.5" stroke="blue" points="257.3703210017095,193.82908827563782 304.642513782168,194.24346228549373 "/><polyline class="polyline" opacity="0.5" stroke="blue" points="256.69441442107495,192.93447954710314 303.540387529216,192.09628842660706 "/><polyline class="polyline" opacity="0.5" stroke="blue" points="255.99755645436477,192.04579075869754 302.3964235727227,189.96296595675466 "/><polyline class="polyline" opacity="0.5" stroke="blue" points="255.28009786767436,191.1633054039856 301.2114909149333,187.8440851928407 "/><polyline class="polyline" opacity="0.5" stroke="blue" points="254.54239153705808,190.28730216735948 299.9864605006438,185.7402174233019 "/><polyline class="polyline" opacity="0.5" stroke="blue" points="253.78479229486348,189.4180549768843 298.7222045784173,183.65191537459026 "/><polyline class="polyline" opacity="0.5" stroke="blue" points="253.00765678439137,188.55583305955932 297.41959611072144,181.5797136874585 "/><polyline class="polyline" opacity="0.5" stroke="blue" points="252.21134332274588,187.70090099875645 296.0795082317919,179.5241294012829 "/><polyline class="polyline" opacity="0.5" stroke="blue" points="251.3962117717319,186.85351879360476 294.7028137519818,177.48566244475296 "/><polyline class="polyline" opacity="0.5" stroke="blue" points="250.56262341664967,186.01394192009505 293.29038470730825,175.46479613134073 "/><polyline class="polyline" opacity="0.5" stroke="blue" points="249.71094085283292,185.182421393687 291.843091952878,173.46199765805514 "/><polyline class="polyline" opacity="0.5" stroke="blue" points="248.8415278797702,184.3592038332058 290.3618047988431,171.47771860606846 "/><polyline class="polyline" opacity="0.5" stroke="blue" points="247.95474940264606,183.5445315258242 288.84739068751844,169.5123954418878 "/></svg>
