<?xml version="1.0" encoding="UTF-8"?>
<!DOCTYPE svg PUBLIC "-//W3C//DTD SVG 1.1//EN"
    "http://www.w3.org/Graphics/SVG/1.1/DTD/svg11.dtd"><svg width="400" height="400" stroke="black" fill="none" fill-opacity="0.75" font-style="italic" font-family="CMU Serif, sans-serif" xmlns="http://www.w3.org/2000/svg" xmlns:xlink="http://www.w3.org/1999/xlink" version="1.1"><filter id="blur"><feGaussianBlur stdDeviation="2"/></filter><rect width="100%" height="100%" fill="white" stroke="none" fill-opacity="1"/><polygon points="261.0,0.0 181.0,400.0 " stroke-opacity="0.25" stroke="green"/><polygon points="322.0,0.0 162.0,400.0 " stroke-opacity="0.25" stroke="green"/><polygon points="383.00000000000006,0.0 143.0,400.0 " stroke-opacity="0.25" stroke="green"/><polygon points="400.0,55.0 124.0,400.0 " stroke-opacity="0.25" stroke="green"/><polygon points="400.0,105.0 105.0,400.0 " stroke-opacity="0.25" stroke="green"/><polygon points="400.0,138.33333333333334 85.99999999999999,400.0 " stroke-opacity="0.25" stroke="green"/><polygon points="400.0,162.14285714285717 67.0,400.0 " stroke-opacity="0.25" stroke="green"/><polygon points="400.0,180.0 48.0,400.0 " stroke-opacity="0.25" stroke="green"/><polygon points="400.0,193.88888888888889 29.00000000000003,400.0 " stroke-opacity="0.25" stroke="green"/><polygon points="400.0,204.99999999999997 10.000000000000028,400.0 " stroke-opacity="0.25" stroke="green"/><polygon points="0.0,395.90909090909093 400.0,214.0909090909091 " stroke-opacity="0.25" stroke="green"/><polygon points="0.0,388.33333333333337 400.0,221.66666666666666 " stroke-opacity="0.25" stroke="green"/><polygon points="0.0,381.9230769230769 400.0,228.07692307692307 " stroke-opacity="0.25" stroke="green"/><polygon points="0.0,376.42857142857144 400.0,233.57142857142856 " stroke-opacity="0.25" stroke="green"/><polygon points="0.0,371.6666666666667 400.0,238.33333333333331 " stroke-opacity="0.25" stroke="green"/><polygon points="282.3568521065098,0.0 159.8744956351579,400.0 " stroke-opacity="0.25" stroke="green"/><polygon points="343.6928571598843,0.0 140.7698383234511,400.0 " stroke-opacity="0.25" stroke="green"/><polygon points="399.99999999999994,7.098809829030358 121.66518101174427,400.0 " stroke-opacity="0.25" stroke="green"/><polygon points="400.0,72.96764696761784 102.56052370003748,400.0 " stroke-opacity="0.25" stroke="green"/><polygon points="400.0,114.98238189729712 83.45586638833065,400.0 " stroke-opacity="0.25" stroke="green"/><polygon points="400.0,144.11438222586588 64.3512090766238,400.0 " stroke-opacity="0.25" stroke="green"/><polygon points="400.00000000000006,165.50123155468617 45.246551764916944,400.00000000000006 " stroke-opacity="0.25" stroke="green"/><polygon points="399.99999999999994,181.86925021222018 26.1418944532102,400.0 " stroke-opacity="0.25" stroke="green"/><polygon points="400.0,194.79956363757282 7.03723714150334,400.00000000000006 " stroke-opacity="0.25" stroke="green"/><polygon points="0.0,394.2973859516056 400.0,205.27225985298264 " stroke-opacity="0.25" stroke="green"/><polygon points="-5.684341886080802e-14,386.54765429283594 400.00000000000006,213.92719657748816 " stroke-opacity="0.25" stroke="green"/><polygon points="5.684341886080802e-14,380.0356377205474 399.99999999999994,221.1998472786656 " stroke-opacity="0.25" stroke="green"/><polygon points="0.0,374.4867489778578 400.0,227.39687229500325 " stroke-opacity="0.25" stroke="green"/><polygon points="5.684341886080802e-14,369.70203091731014 399.99999999999994,232.7404679034754 " stroke-opacity="0.25" stroke="green"/><polygon points="0.0,365.53379527812336 400.0,237.39557304755698 " stroke-opacity="0.25" stroke="green"/><polygon points="304.8740886207712,0.0 138.06421636356004,400.0 " stroke-opacity="0.25" stroke="green"/><polygon points="367.236864907538,0.0 118.63974506112447,400.0 " stroke-opacity="0.25" stroke="green"/><polygon points="400.0,35.83661227563749 99.21527375868891,400.0 " stroke-opacity="0.25" stroke="green"/><polygon points="400.0,89.24672551799495 79.79080245625335,400.0 " stroke-opacity="0.25" stroke="green"/><polygon points="400.0,124.97007783292109 60.36633115381781,400.00000000000006 " stroke-opacity="0.25" stroke="green"/><polygon points="400.00000000000006,150.54411395197798 40.94185985138222,400.0 " stroke-opacity="0.25" stroke="green"/><polygon points="400.0,169.75610014874084 21.517388548946627,400.0 " stroke-opacity="0.25" stroke="green"/><polygon points="400.0,184.71743930464672 2.0929172465110923,400.0 " stroke-opacity="0.25" stroke="green"/><polygon points="0.0,391.5569902330284 400.0,196.69830093769656 " stroke-opacity="0.25" stroke="green"/><polygon points="-5.684341886080802e-14,383.71636956029045 400.00000000000006,206.50862981205393 " stroke-opacity="0.25" stroke="green"/><polygon points="-5.684341886080802e-14,377.17822533677383 400.00000000000006,214.68927618405579 " stroke-opacity="0.25" stroke="green"/><polygon points="0.0,371.64289792588744 400.0,221.61517970555315 " stroke-opacity="0.25" stroke="green"/><polygon points="0.0,366.8961034918731 400.0,227.5544562552485 " stroke-opacity="0.25" stroke="green"/><polygon points="5.684341886080802e-14,362.7805502540022 399.99999999999994,232.70391220378377 " stroke-opacity="0.25" stroke="green"/><polygon points="0.0,359.17817239432543 400.0,237.21127367530772 " stroke-opacity="0.25" stroke="green"/><polygon points="329.12313492511555,0.0 115.03827849289165,400.0 " stroke-opacity="0.25" stroke="green"/><polygon points="393.26233060364984,0.0 95.06049623236457,400.0 " stroke-opacity="0.25" stroke="green"/><polygon points="400.0,60.05618811724972 75.0827139718375,399.99999999999994 " stroke-opacity="0.25" stroke="green"/><polygon points="400.0,104.22932759574852 55.1049317113104,400.0 " stroke-opacity="0.25" stroke="green"/><polygon points="400.0,134.9043567614499 35.12714945078332,400.00000000000006 " stroke-opacity="0.25" stroke="green"/><polygon points="400.0,157.4482570452245 15.149367190256243,399.99999999999994 " stroke-opacity="0.25" stroke="green"/><polygon points="0.0,397.31301933738916 400.0,174.71569715148755 " stroke-opacity="0.25" stroke="green"/><polygon points="0.0,387.6417571527783 400.0,188.36505734392208 " stroke-opacity="0.25" stroke="green"/><polygon points="0.0,379.8047641486256 400.0,199.42565505054657 " stroke-opacity="0.25" stroke="green"/><polygon points="0.0,373.32540394202175 400.0,208.57018237162265 " stroke-opacity="0.25" stroke="green"/><polygon points="5.684341886080802e-14,367.8790156477054 399.99999999999994,216.25684354965105 " stroke-opacity="0.25" stroke="green"/><polygon points="0.0,363.23681400937915 400.0,222.8085304999077 " stroke-opacity="0.25" stroke="green"/><polygon points="0.0,359.2329313148477 400.0,228.4593376047835 " stroke-opacity="0.25" stroke="green"/><polygon points="-5.684341886080802e-14,355.7441802779142 400.00000000000006,233.38312300278545 " stroke-opacity="0.25" stroke="green"/><polygon points="0.0,352.67715581934084 400.0,237.7117122556637 " stroke-opacity="0.25" stroke="green"/><polygon points="355.81855005057605,0.0 90.1561736466779,400.0 " stroke-opacity="0.25" stroke="green"/><polygon points="400.0,25.58237221995222 69.358084355063,400.0 " stroke-opacity="0.25" stroke="green"/><polygon points="400.00000000000006,81.09194956609231 48.55999506344807,400.0 " stroke-opacity="0.25" stroke="green"/><polygon points="400.00000000000006,118.20162908377031 27.761905771833227,400.0 " stroke-opacity="0.25" stroke="green"/><polygon points="400.0,144.75931802088348 6.963816480218384,400.0 " stroke-opacity="0.25" stroke="green"/><polygon points="0.0,392.13421991643486 400.0,164.70542215309095 " stroke-opacity="0.25" stroke="green"/><polygon points="0.0,382.48873890509094 400.0,180.23558570897816 " stroke-opacity="0.25" stroke="green"/><polygon points="0.0,374.7658780929894 400.0,192.6701435490932 " stroke-opacity="0.25" stroke="green"/><polygon points="0.0,368.4428872357073 400.0,202.8507744642838 " stroke-opacity="0.25" stroke="green"/><polygon points="0.0,363.1707784307632 400.0,211.33938295658396 " stroke-opacity="0.25" stroke="green"/><polygon points="0.0,358.7076671620986 400.0,218.52542664781788 " stroke-opacity="0.25" stroke="green"/><polygon points="0.0,354.88061290001843 400.0,224.68735662906602 " stroke-opacity="0.25" stroke="green"/><polygon points="0.0,351.56268926245025 400.0,230.02953673359133 " stroke-opacity="0.25" stroke="green"/><polygon points="0.0,348.658634801789 400.0,234.70534716712285 " stroke-opacity="0.25" stroke="green"/><polygon points="0.0,346.09555820527396 400.0,238.8321500402332 " stroke-opacity="0.25" stroke="green"/><polygon points="385.9067866790595,-5.684341886080802e-14 62.59063593286908,400.00000000000006 " stroke-opacity="0.25" stroke="green"/><polygon points="399.99999999999994,54.21657693679137 40.65132570366333,400.00000000000006 " stroke-opacity="0.25" stroke="green"/><polygon points="400.0,99.81356294828387 18.71201547445753,400.0 " stroke-opacity="0.25" stroke="green"/><polygon points="0.0,397.8500621206829 400.0,131.38070711008635 " stroke-opacity="0.25" stroke="green"/><polygon points="0.0,385.47005383792515 400.0,154.52994616207485 " stroke-opacity="0.25" stroke="green"/><polygon points="0.0,376.0029886805222 400.0,172.23230543712486 " stroke-opacity="0.25" stroke="green"/><polygon points="0.0,368.52898987204617 400.0,186.20785223321698 " stroke-opacity="0.25" stroke="green"/><polygon points="0.0,362.47860988423224 400.0,197.52139011576773 " stroke-opacity="0.25" stroke="green"/><polygon points="0.0,357.48046989429906 400.0,206.8673561926575 " stroke-opacity="0.25" stroke="green"/><polygon points="0.0,353.2820323027551 400.0,214.7179676972449 " stroke-opacity="0.25" stroke="green"/><polygon points="0.0,349.705585465514 400.0,221.40552564559712 " stroke-opacity="0.25" stroke="green"/><polygon points="-5.684341886080802e-14,346.62244164030614 400.00000000000006,227.17066180796974 " stroke-opacity="0.25" stroke="green"/><polygon points="0.0,343.9371228248025 400.0,232.19190943326203 " stroke-opacity="0.25" stroke="green"/><polygon points="0.0,341.5772971990569 400.0,236.6045209827613 " stroke-opacity="0.25" stroke="green"/><polygon points="5.684341886080802e-14,339.4871659305394 399.99999999999994,240.5128340694606 " stroke-opacity="0.25" stroke="green"/><polygon points="400.0,21.266774840924768 31.20620282643185,400.0 " stroke-opacity="0.25" stroke="green"/><polygon points="400.00000000000006,78.71513712424112 7.720911253935782,400.0 " stroke-opacity="0.25" stroke="green"/><polygon points="0.0,389.2626621193603 400.0,116.81711935360794 " stroke-opacity="0.25" stroke="green"/><polygon points="0.0,377.1191893478825 400.0,143.9370041247617 " stroke-opacity="0.25" stroke="green"/><polygon points="0.0,368.03493954221705 400.0,164.22475974444546 " stroke-opacity="0.25" stroke="green"/><polygon points="-5.684341886080802e-14,360.9832045017375 400.00000000000006,179.9733223948017 " stroke-opacity="0.25" stroke="green"/><polygon points="-5.684341886080802e-14,355.3504829150195 400.00000000000006,192.55281783687798 " stroke-opacity="0.25" stroke="green"/><polygon points="0.0,350.74761041075885 400.0,202.83236259981064 " stroke-opacity="0.25" stroke="green"/><polygon points="-5.684341886080802e-14,346.91580766661866 400.00000000000006,211.38988571057615 " stroke-opacity="0.25" stroke="green"/><polygon points="0.0,343.67629560668354 400.0,218.6246525218095 " stroke-opacity="0.25" stroke="green"/><polygon points="5.684341886080802e-14,340.9015986980978 399.99999999999994,224.82135274519734 " stroke-opacity="0.25" stroke="green"/><polygon points="0.0,338.49837385651654 400.0,230.1884484689133 " stroke-opacity="0.25" stroke="green"/><polygon points="0.0,336.3967031851671 400.0,234.88208656622783 " stroke-opacity="0.25" stroke="green"/><polygon points="0.0,334.54317937258656 400.0,239.0215410010285 " stroke-opacity="0.25" stroke="green"/><polygon points="0.0,332.8963038047855 400.0,242.69949017353338 " stroke-opacity="0.25" stroke="green"/><polygon points="5.684341886080802e-14,395.1708567785038 399.99999999999994,53.15329576279848 " stroke-opacity="0.25" stroke="green"/><polygon points="-5.684341886080802e-14,378.3027854236674 400.00000000000006,100.26572575765508 " stroke-opacity="0.25" stroke="green"/><polygon points="0.0,366.7511318654929 400.0,132.52943025214026 " stroke-opacity="0.25" stroke="green"/><polygon points="-5.684341886080802e-14,358.34464552612803 400.00000000000006,156.00870010076406 " stroke-opacity="0.25" stroke="green"/><polygon points="5.684341886080802e-14,351.95273762833955 399.99999999999994,173.86126350492503 " stroke-opacity="0.25" stroke="green"/><polygon points="0.0,346.9287187108167 400.0,187.89332055315222 " stroke-opacity="0.25" stroke="green"/><polygon points="0.0,342.87593261969596 400.0,199.21272968923626 " stroke-opacity="0.25" stroke="green"/><polygon points="0.0,339.53756747548124 400.0,208.5367650721545 " stroke-opacity="0.25" stroke="green"/><polygon points="-5.684341886080802e-14,336.74001862273644 400.00000000000006,216.35030354431308 " stroke-opacity="0.25" stroke="green"/><polygon points="-5.684341886080802e-14,334.3617147250464 400.00000000000006,222.992893175895 " stroke-opacity="0.25" stroke="green"/><polygon points="0.0,332.314982194992 400.0,228.7094058116288 " stroke-opacity="0.25" stroke="green"/><polygon points="-5.684341886080802e-14,330.53500045433884 400.00000000000006,233.6808849679936 " stroke-opacity="0.25" stroke="green"/><polygon points="0.0,328.972811387639 400.0,238.0440703906428 " stroke-opacity="0.25" stroke="green"/><polygon points="0.0,327.59074688169636 400.0,241.90416891138614 " stroke-opacity="0.25" stroke="green"/><polygon points="0.0,326.3593518017532 400.0,245.3434485586827 " stroke-opacity="0.25" stroke="green"/><polygon points="0.0,364.15943457400925 400.0,80.37243250031918 " stroke-opacity="0.25" stroke="green"/><polygon points="0.0,353.80913892370904 400.0,119.67236414386629 " stroke-opacity="0.25" stroke="green"/><polygon points="0.0,346.5412497135695 400.0,147.26844050745018 " stroke-opacity="0.25" stroke="green"/><polygon points="0.0,341.15727679959264 400.0,167.71131234791446 " stroke-opacity="0.25" stroke="green"/><polygon points="-5.684341886080802e-14,337.0087658702509 400.00000000000006,183.46315185608455 " stroke-opacity="0.25" stroke="green"/><polygon points="0.0,333.7142336819579 400.0,195.97244571317583 " stroke-opacity="0.25" stroke="green"/><polygon points="0.0,331.03459828442374 400.0,206.14698482884552 " stroke-opacity="0.25" stroke="green"/><polygon points="0.0,328.8124054433031 400.0,214.5846207868375 " stroke-opacity="0.25" stroke="green"/><polygon points="0.0,326.9397314842938 400.0,221.69513830887362 " stroke-opacity="0.25" stroke="green"/><polygon points="0.0,325.340127170258 400.0,227.76881410735274 " stroke-opacity="0.25" stroke="green"/><polygon points="-5.684341886080802e-14,323.957923549547 400.00000000000006,233.0170224336365 " stroke-opacity="0.25" stroke="green"/><polygon points="0.0,322.75162065215073 400.0,237.59733810874576 " stroke-opacity="0.25" stroke="green"/><polygon points="0.0,321.68964927018317 400.0,241.6296289851441 " stroke-opacity="0.25" stroke="green"/><polygon points="0.0,320.74756814777606 400.0,245.2066981785445 " stroke-opacity="0.25" stroke="green"/><polygon points="-5.684341886080802e-14,319.9061597127835 400.00000000000006,248.40151454869817 " stroke-opacity="0.25" stroke="green"/><polygon points="0.0,337.3188471858456 400.0,104.30582339367979 " stroke-opacity="0.25" stroke="green"/><polygon points="0.0,331.97254563074557 400.0,137.50538593747638 " stroke-opacity="0.25" stroke="green"/><polygon points="0.0,328.1439834858709 400.0,161.28006214524288 " stroke-opacity="0.25" stroke="green"/><polygon points="0.0,325.2671980240912 400.0,179.1443778556668 " stroke-opacity="0.25" stroke="green"/><polygon points="0.0,323.02651171908565 400.0,193.05863322592313 " stroke-opacity="0.25" stroke="green"/><polygon points="0.0,321.23195131769955 400.0,204.20252768649783 " stroke-opacity="0.25" stroke="green"/><polygon points="0.0,319.7623427670154 400.0,213.32853011836443 " stroke-opacity="0.25" stroke="green"/><polygon points="0.0,318.53675217952804 400.0,220.93922527706928 " stroke-opacity="0.25" stroke="green"/><polygon points="0.0,317.49906233628724 400.0,227.38309090954053 " stroke-opacity="0.25" stroke="green"/><polygon points="-5.684341886080802e-14,316.60913804168047 400.00000000000006,232.90935929779783 " stroke-opacity="0.25" stroke="green"/><polygon points="-5.684341886080802e-14,315.8375147465391 400.00000000000006,237.70099994568838 " stroke-opacity="0.25" stroke="green"/><polygon points="0.0,315.1620733409288 400.0,241.8953685122793 " stroke-opacity="0.25" stroke="green"/><polygon points="5.684341886080802e-14,314.565885445257 399.99999999999994,245.5975871631013 " stroke-opacity="0.25" stroke="green"/><polygon points="0.0,314.03577514319045 400.0,248.88947594774731 " stroke-opacity="0.25" stroke="green"/><polygon points="0.0,313.5613338289861 400.0,251.83567041918786 " stroke-opacity="0.25" stroke="green"/><polygon points="5.684341886080802e-14,313.50573782805225 399.99999999999994,125.89294802961876 " stroke-opacity="0.25" stroke="green"/><polygon points="0.0,312.1620463345598 400.0,154.18733318729244 " stroke-opacity="0.25" stroke="green"/><polygon points="5.684341886080802e-14,311.1849764534961 399.99999999999994,174.76169246147634 " stroke-opacity="0.25" stroke="green"/><polygon points="0.0,310.44249360306105 400.0,190.39630490408163 " stroke-opacity="0.25" stroke="green"/><polygon points="5.684341886080802e-14,309.8591688967603 399.99999999999994,202.6794919243112 " stroke-opacity="0.25" stroke="green"/><polygon points="0.0,309.38878078944475 400.0,212.58455000232547 " stroke-opacity="0.25" stroke="green"/><polygon points="-5.684341886080802e-14,309.0014258390444 400.00000000000006,220.74116200176147 " stroke-opacity="0.25" stroke="green"/><polygon points="0.0,308.67690153909973 400.0,227.57473621141332 " stroke-opacity="0.25" stroke="green"/><polygon points="0.0,308.40106759289046 400.0,233.38302773621885 " stroke-opacity="0.25" stroke="green"/><polygon points="0.0,308.16373071594586 400.0,238.38067864114205 " stroke-opacity="0.25" stroke="green"/><polygon points="0.0,307.9573572976408 400.0,242.72632569785782 " stroke-opacity="0.25" stroke="green"/><polygon points="0.0,307.7762590554646 400.0,246.53974822849605 " stroke-opacity="0.25" stroke="green"/><polygon points="0.0,307.61606063035015 400.0,249.9130790591168 " stroke-opacity="0.25" stroke="green"/><polygon points="-5.684341886080802e-14,307.47334145401004 400.00000000000006,252.918345792076 " stroke-opacity="0.25" stroke="green"/><polygon points="0.0,307.34538877932823 400.0,255.6126712953146 " stroke-opacity="0.25" stroke="green"/><polygon points="0.0,291.9112263560677 400.0,145.80613822185882 " stroke-opacity="0.25" stroke="green"/><polygon points="0.0,293.90411873261667 400.0,170.04494333543957 " stroke-opacity="0.25" stroke="green"/><polygon points="0.0,295.370329240052 400.0,187.87791372732428 " stroke-opacity="0.25" stroke="green"/><polygon points="0.0,296.49427616740064 400.0,201.54806011886566 " stroke-opacity="0.25" stroke="green"/><polygon points="-5.684341886080802e-14,297.383277659226 400.00000000000006,212.3606529912171 " stroke-opacity="0.25" stroke="green"/><polygon points="0.0,298.1040307722695 400.0,221.12690371686847 " stroke-opacity="0.25" stroke="green"/><polygon points="0.0,298.7001694135009 400.0,228.37751519770742 " stroke-opacity="0.25" stroke="green"/><polygon points="0.0,299.2014398852438 400.0,234.4742805909345 " stroke-opacity="0.25" stroke="green"/><polygon points="-5.684341886080802e-14,299.6288187668781 400.00000000000006,239.67233019135173 " stroke-opacity="0.25" stroke="green"/><polygon points="0.0,299.9975228980619 400.0,244.15674073228118 " stroke-opacity="0.25" stroke="green"/><polygon points="0.0,300.31885927615514 400.0,248.06503499651757 " stroke-opacity="0.25" stroke="green"/><polygon points="0.0,300.60140501356443 400.0,251.50153319648422 " stroke-opacity="0.25" stroke="green"/><polygon points="0.0,300.8517842979348 400.0,254.54680285065345 " stroke-opacity="0.25" stroke="green"/><polygon points="0.0,301.0751942843954 400.0,257.26405501437813 " stroke-opacity="0.25" stroke="green"/><polygon points="5.684341886080802e-14,301.27576973487044 399.99999999999994,259.70357925153246 " stroke-opacity="0.25" stroke="green"/><polygon points="0.0,271.93686643771804 400.0,164.55135060933299 " stroke-opacity="0.25" stroke="green"/><polygon points="0.0,276.8312780575883 400.0,185.34228684282277 " stroke-opacity="0.25" stroke="green"/><polygon points="5.684341886080802e-14,280.4634760653946 399.99999999999994,200.77147487047648 " stroke-opacity="0.25" stroke="green"/><polygon points="5.684341886080802e-14,283.26595830469086 399.99999999999994,212.67611919915274 " stroke-opacity="0.25" stroke="green"/><polygon points="0.0,285.4938836890954 400.0,222.14010755928086 " stroke-opacity="0.25" stroke="green"/><polygon points="0.0,287.3075149129278 400.0,229.8442187077347 " stroke-opacity="0.25" stroke="green"/><polygon points="0.0,288.8125816745684 400.0,236.23758107664088 " stroke-opacity="0.25" stroke="green"/><polygon points="0.0,290.08165730829364 400.0,241.62847841538127 " stroke-opacity="0.25" stroke="green"/><polygon points="-5.684341886080802e-14,291.16621101363137 400.00000000000006,246.23554636976564 " stroke-opacity="0.25" stroke="green"/><polygon points="0.0,292.1037592381388 400.0,250.21815078996218 " stroke-opacity="0.25" stroke="green"/><polygon points="0.0,292.92229363732656 400.0,253.69519722989386 " stroke-opacity="0.25" stroke="green"/><polygon points="0.0,293.64312339975777 400.0,256.7572048397701 " stroke-opacity="0.25" stroke="green"/><polygon points="0.0,294.28275707205376 400.0,259.47430015711313 " stroke-opacity="0.25" stroke="green"/><polygon points="-5.684341886080802e-14,294.8541823695074 400.00000000000006,261.9016536051413 " stroke-opacity="0.25" stroke="green"/><polygon points="5.684341886080802e-14,295.36775728743874 399.99999999999994,264.0832648383448 " stroke-opacity="0.25" stroke="green"/><polygon points="0.0,253.1192680141034 400.0,182.52991547855953 " stroke-opacity="0.25" stroke="green"/><polygon points="0.0,260.6483210644838 400.0,200.30306030807276 " stroke-opacity="0.25" stroke="green"/><polygon points="0.0,266.2690474040092 400.0,213.57139333893062 " stroke-opacity="0.25" stroke="green"/><polygon points="5.684341886080802e-14,270.62537334455624 399.99999999999994,223.85497234253398 " stroke-opacity="0.25" stroke="green"/><polygon points="0.0,274.1008093173514 400.0,232.05911521108078 " stroke-opacity="0.25" stroke="green"/><polygon points="0.0,276.93800829066606 400.0,238.75663054606963 " stroke-opacity="0.25" stroke="green"/><polygon points="0.0,279.2979956775444 400.0,244.32763626779104 " stroke-opacity="0.25" stroke="green"/><polygon points="0.0,281.29183065542856 400.0,249.03429958799353 " stroke-opacity="0.25" stroke="green"/><polygon points="0.0,282.9985916164595 400.0,253.0632936124452 " stroke-opacity="0.25" stroke="green"/><polygon points="-5.684341886080802e-14,284.4761146497786 400.00000000000006,256.55114669096673 " stroke-opacity="0.25" stroke="green"/><polygon points="-5.684341886080802e-14,285.7676774044777 400.00000000000006,259.6000203995287 " stroke-opacity="0.25" stroke="green"/><polygon points="-5.684341886080802e-14,286.9063086822434 400.00000000000006,262.28788280024855 " stroke-opacity="0.25" stroke="green"/><polygon points="-5.684341886080802e-14,287.91765272596285 400.00000000000006,264.67526990473755 " stroke-opacity="0.25" stroke="green"/><polygon points="0.0,288.82192376453844 400.0,266.8098995887357 " stroke-opacity="0.25" stroke="green"/><polygon points="0.0,289.6352709732985 400.0,268.729893728934 " stroke-opacity="0.25" stroke="green"/><polygon points="5.684341886080802e-14,235.08156092912063 399.99999999999994,200.0789498684243 " stroke-opacity="0.25" stroke="green"/><polygon points="-5.684341886080802e-14,245.10914662757466 400.00000000000006,215.12655155615076 " stroke-opacity="0.25" stroke="green"/><polygon points="0.0,252.6212232627585 400.0,226.39932851893957 " stroke-opacity="0.25" stroke="green"/><polygon points="0.0,258.4588535388151 400.0,235.1593967782271 " stroke-opacity="0.25" stroke="green"/><polygon points="0.0,263.1257510614007 400.0,242.16263934818417 " stroke-opacity="0.25" stroke="green"/><polygon points="0.0,266.94200361526936 400.0,247.88938655307098 " stroke-opacity="0.25" stroke="green"/><polygon points="-5.684341886080802e-14,270.1207589616578 400.00000000000006,252.65949231467613 " stroke-opacity="0.25" stroke="green"/><polygon points="5.684341886080802e-14,272.8094424605798 399.99999999999994,256.69418616549785 " stroke-opacity="0.25" stroke="green"/><polygon points="0.0,275.1132753697278 400.0,260.1513652926012 " stroke-opacity="0.25" stroke="green"/><polygon points="0.0,277.1093686142954 400.0,263.14674393897326 " stroke-opacity="0.25" stroke="green"/><polygon points="5.684341886080802e-14,278.8555223298885 399.99999999999994,265.7670581789044 " stroke-opacity="0.25" stroke="green"/><polygon points="-5.684341886080802e-14,280.39591467237335 400.00000000000006,268.0786026632471 " stroke-opacity="0.25" stroke="green"/><polygon points="0.0,281.7648914678315 400.0,270.1329174462133 " stroke-opacity="0.25" stroke="green"/><polygon points="-5.684341886080802e-14,282.9895574032438 400.00000000000006,271.97067637949795 " stroke-opacity="0.25" stroke="green"/><polygon points="5.684341886080802e-14,284.091588793898 399.99999999999994,273.6244073883979 " stroke-opacity="0.25" stroke="green"/><polygon points="0.0,217.5 400.0,217.5 " stroke-opacity="0.25" stroke="green"/><polygon points="0.0,230.0 400.0,230.0 " stroke-opacity="0.25" stroke="green"/><polygon points="0.0,239.375 400.0,239.375 " stroke-opacity="0.25" stroke="green"/><polygon points="0.0,246.66666666666666 400.0,246.66666666666666 " stroke-opacity="0.25" stroke="green"/><polygon points="0.0,252.5 400.0,252.5 " stroke-opacity="0.25" stroke="green"/><polygon points="0.0,257.27272727272725 400.0,257.27272727272725 " stroke-opacity="0.25" stroke="green"/><polygon points="5.684341886080802e-14,261.25 399.99999999999994,261.25 " stroke-opacity="0.25" stroke="green"/><polygon points="0.0,264.61538461538464 400.0,264.61538461538464 " stroke-opacity="0.25" stroke="green"/><polygon points="0.0,267.5 400.0,267.5 " stroke-opacity="0.25" stroke="green"/><polygon points="0.0,270.0 400.0,270.0 " stroke-opacity="0.25" stroke="green"/><polygon points="0.0,272.1875 400.0,272.1875 " stroke-opacity="0.25" stroke="green"/><polygon points="0.0,274.11764705882354 400.0,274.11764705882354 " stroke-opacity="0.25" stroke="green"/><polygon points="0.0,275.8333333333333 400.0,275.8333333333333 " stroke-opacity="0.25" stroke="green"/><polygon points="0.0,277.36842105263156 400.0,277.36842105263156 " stroke-opacity="0.25" stroke="green"/><polygon points="0.0,278.75 400.0,278.75 " stroke-opacity="0.25" stroke="green"/><polygon points="0.0,200.07894986842436 400.0,235.08156092912057 " stroke-opacity="0.25" stroke="green"/><polygon points="-5.684341886080802e-14,215.12655155615082 400.00000000000006,245.10914662757457 " stroke-opacity="0.25" stroke="green"/><polygon points="0.0,226.39932851893963 400.0,252.6212232627584 " stroke-opacity="0.25" stroke="green"/><polygon points="0.0,235.15939677822715 400.0,258.45885353881505 " stroke-opacity="0.25" stroke="green"/><polygon points="0.0,242.16263934818423 400.0,263.12575106140065 " stroke-opacity="0.25" stroke="green"/><polygon points="0.0,247.88938655307103 400.0,266.9420036152693 " stroke-opacity="0.25" stroke="green"/><polygon points="-5.684341886080802e-14,252.65949231467616 400.00000000000006,270.12075896165777 " stroke-opacity="0.25" stroke="green"/><polygon points="5.684341886080802e-14,256.6941861654979 399.99999999999994,272.80944246057976 " stroke-opacity="0.25" stroke="green"/><polygon points="0.0,260.1513652926012 400.0,275.1132753697277 " stroke-opacity="0.25" stroke="green"/><polygon points="0.0,263.1467439389733 400.0,277.10936861429536 " stroke-opacity="0.25" stroke="green"/><polygon points="5.684341886080802e-14,265.76705817890445 399.99999999999994,278.8555223298885 " stroke-opacity="0.25" stroke="green"/><polygon points="0.0,268.0786026632472 400.0,280.3959146723733 " stroke-opacity="0.25" stroke="green"/><polygon points="0.0,270.13291744621336 400.0,281.7648914678315 " stroke-opacity="0.25" stroke="green"/><polygon points="-5.684341886080802e-14,271.970676379498 400.00000000000006,282.98955740324374 " stroke-opacity="0.25" stroke="green"/><polygon points="5.684341886080802e-14,273.62440738839797 399.99999999999994,284.0915887938979 " stroke-opacity="0.25" stroke="green"/><polygon points="0.0,182.5299154785596 400.0,253.11926801410334 " stroke-opacity="0.25" stroke="green"/><polygon points="0.0,200.30306030807282 400.0,260.64832106448375 " stroke-opacity="0.25" stroke="green"/><polygon points="-5.684341886080802e-14,213.57139333893068 400.00000000000006,266.26904740400914 " stroke-opacity="0.25" stroke="green"/><polygon points="0.0,223.85497234253404 400.0,270.6253733445562 " stroke-opacity="0.25" stroke="green"/><polygon points="5.684341886080802e-14,232.0591152110808 399.99999999999994,274.1008093173514 " stroke-opacity="0.25" stroke="green"/><polygon points="0.0,238.7566305460697 400.0,276.938008290666 " stroke-opacity="0.25" stroke="green"/><polygon points="0.0,244.3276362677911 400.0,279.29799567754435 " stroke-opacity="0.25" stroke="green"/><polygon points="0.0,249.03429958799353 400.0,281.2918306554285 " stroke-opacity="0.25" stroke="green"/><polygon points="0.0,253.06329361244525 400.0,282.99859161645946 " stroke-opacity="0.25" stroke="green"/><polygon points="-5.684341886080802e-14,256.5511466909668 400.00000000000006,284.47611464977854 " stroke-opacity="0.25" stroke="green"/><polygon points="0.0,259.6000203995288 400.0,285.7676774044777 " stroke-opacity="0.25" stroke="green"/><polygon points="-5.684341886080802e-14,262.28788280024855 400.00000000000006,286.9063086822433 " stroke-opacity="0.25" stroke="green"/><polygon points="-5.684341886080802e-14,264.6752699047376 400.00000000000006,287.9176527259628 " stroke-opacity="0.25" stroke="green"/><polygon points="0.0,266.8098995887357 400.0,288.82192376453844 " stroke-opacity="0.25" stroke="green"/><polygon points="0.0,268.729893728934 400.0,289.6352709732985 " stroke-opacity="0.25" stroke="green"/><polygon points="0.0,164.55135060933299 400.0,271.93686643771804 " stroke-opacity="0.25" stroke="green"/><polygon points="0.0,185.3422868428228 400.0,276.8312780575883 " stroke-opacity="0.25" stroke="green"/><polygon points="5.684341886080802e-14,200.7714748704765 399.99999999999994,280.4634760653946 " stroke-opacity="0.25" stroke="green"/><polygon points="0.0,212.67611919915277 400.0,283.26595830469086 " stroke-opacity="0.25" stroke="green"/><polygon points="0.0,222.14010755928086 400.0,285.49388368909536 " stroke-opacity="0.25" stroke="green"/><polygon points="-5.684341886080802e-14,229.84421870773474 400.00000000000006,287.30751491292773 " stroke-opacity="0.25" stroke="green"/><polygon points="0.0,236.2375810766409 400.0,288.8125816745684 " stroke-opacity="0.25" stroke="green"/><polygon points="0.0,241.62847841538127 400.0,290.08165730829364 " stroke-opacity="0.25" stroke="green"/><polygon points="-5.684341886080802e-14,246.23554636976567 400.00000000000006,291.16621101363137 " stroke-opacity="0.25" stroke="green"/><polygon points="0.0,250.21815078996218 400.0,292.10375923813876 " stroke-opacity="0.25" stroke="green"/><polygon points="0.0,253.69519722989386 400.0,292.9222936373265 " stroke-opacity="0.25" stroke="green"/><polygon points="0.0,256.7572048397701 400.0,293.64312339975777 " stroke-opacity="0.25" stroke="green"/><polygon points="0.0,259.4743001571132 400.0,294.28275707205376 " stroke-opacity="0.25" stroke="green"/><polygon points="5.684341886080802e-14,261.9016536051413 399.99999999999994,294.8541823695073 " stroke-opacity="0.25" stroke="green"/><polygon points="5.684341886080802e-14,264.08326483834486 399.99999999999994,295.36775728743874 " stroke-opacity="0.25" stroke="green"/><polygon points="0.0,145.80613822185887 400.0,291.91122635606763 " stroke-opacity="0.25" stroke="green"/><polygon points="-5.684341886080802e-14,170.04494333543963 400.00000000000006,293.9041187326166 " stroke-opacity="0.25" stroke="green"/><polygon points="0.0,187.8779137273243 400.0,295.370329240052 " stroke-opacity="0.25" stroke="green"/><polygon points="0.0,201.54806011886572 400.0,296.4942761674006 " stroke-opacity="0.25" stroke="green"/><polygon points="0.0,212.36065299121714 400.0,297.38327765922594 " stroke-opacity="0.25" stroke="green"/><polygon points="-5.684341886080802e-14,221.12690371686853 400.00000000000006,298.1040307722694 " stroke-opacity="0.25" stroke="green"/><polygon points="0.0,228.37751519770748 400.0,298.7001694135008 " stroke-opacity="0.25" stroke="green"/><polygon points="0.0,234.47428059093454 400.0,299.20143988524376 " stroke-opacity="0.25" stroke="green"/><polygon points="-5.684341886080802e-14,239.67233019135176 400.00000000000006,299.6288187668781 " stroke-opacity="0.25" stroke="green"/><polygon points="0.0,244.15674073228124 400.0,299.9975228980618 " stroke-opacity="0.25" stroke="green"/><polygon points="5.684341886080802e-14,248.0650349965176 399.99999999999994,300.3188592761551 " stroke-opacity="0.25" stroke="green"/><polygon points="0.0,251.50153319648425 400.0,300.60140501356443 " stroke-opacity="0.25" stroke="green"/><polygon points="0.0,254.54680285065348 400.0,300.8517842979347 " stroke-opacity="0.25" stroke="green"/><polygon points="0.0,257.2640550143782 400.0,301.0751942843954 " stroke-opacity="0.25" stroke="green"/><polygon points="5.684341886080802e-14,259.70357925153246 399.99999999999994,301.2757697348703 " stroke-opacity="0.25" stroke="green"/><polygon points="0.0,125.89294802961885 400.0,313.5057378280522 " stroke-opacity="0.25" stroke="green"/><polygon points="0.0,154.1873331872925 400.0,312.16204633455976 " stroke-opacity="0.25" stroke="green"/><polygon points="5.684341886080802e-14,174.76169246147637 399.99999999999994,311.1849764534961 " stroke-opacity="0.25" stroke="green"/><polygon points="0.0,190.3963049040817 400.0,310.442493603061 " stroke-opacity="0.25" stroke="green"/><polygon points="5.684341886080802e-14,202.67949192431126 399.99999999999994,309.85916889676025 " stroke-opacity="0.25" stroke="green"/><polygon points="0.0,212.58455000232553 400.0,309.3887807894447 " stroke-opacity="0.25" stroke="green"/><polygon points="-5.684341886080802e-14,220.7411620017615 400.00000000000006,309.0014258390443 " stroke-opacity="0.25" stroke="green"/><polygon points="0.0,227.57473621141338 400.0,308.6769015390997 " stroke-opacity="0.25" stroke="green"/><polygon points="0.0,233.38302773621888 400.0,308.4010675928904 " stroke-opacity="0.25" stroke="green"/><polygon points="0.0,238.38067864114208 400.0,308.1637307159458 " stroke-opacity="0.25" stroke="green"/><polygon points="0.0,242.72632569785785 400.0,307.9573572976408 " stroke-opacity="0.25" stroke="green"/><polygon points="0.0,246.5397482284961 400.0,307.77625905546455 " stroke-opacity="0.25" stroke="green"/><polygon points="0.0,249.91307905911685 400.0,307.6160606303501 " stroke-opacity="0.25" stroke="green"/><polygon points="-5.684341886080802e-14,252.91834579207602 400.00000000000006,307.47334145401 " stroke-opacity="0.25" stroke="green"/><polygon points="0.0,255.61267129531464 400.0,307.34538877932823 " stroke-opacity="0.25" stroke="green"/><polygon points="0.0,104.30582339367982 400.0,337.3188471858456 " stroke-opacity="0.25" stroke="green"/><polygon points="0.0,137.5053859374764 400.0,331.97254563074557 " stroke-opacity="0.25" stroke="green"/><polygon points="0.0,161.28006214524288 400.0,328.1439834858708 " stroke-opacity="0.25" stroke="green"/><polygon points="0.0,179.14437785566682 400.0,325.26719802409116 " stroke-opacity="0.25" stroke="green"/><polygon points="0.0,193.05863322592316 400.0,323.02651171908565 " stroke-opacity="0.25" stroke="green"/><polygon points="0.0,204.20252768649786 400.0,321.2319513176995 " stroke-opacity="0.25" stroke="green"/><polygon points="0.0,213.32853011836445 400.0,319.7623427670154 " stroke-opacity="0.25" stroke="green"/><polygon points="0.0,220.93922527706928 400.0,318.536752179528 " stroke-opacity="0.25" stroke="green"/><polygon points="0.0,227.38309090954056 400.0,317.4990623362872 " stroke-opacity="0.25" stroke="green"/><polygon points="-5.684341886080802e-14,232.9093592977979 400.00000000000006,316.60913804168047 " stroke-opacity="0.25" stroke="green"/><polygon points="-5.684341886080802e-14,237.7009999456884 400.00000000000006,315.83751474653906 " stroke-opacity="0.25" stroke="green"/><polygon points="0.0,241.89536851227933 400.0,315.16207334092877 " stroke-opacity="0.25" stroke="green"/><polygon points="5.684341886080802e-14,245.59758716310134 399.99999999999994,314.565885445257 " stroke-opacity="0.25" stroke="green"/><polygon points="0.0,248.88947594774734 400.0,314.03577514319045 " stroke-opacity="0.25" stroke="green"/><polygon points="0.0,251.8356704191879 400.0,313.5613338289861 " stroke-opacity="0.25" stroke="green"/><polygon points="-5.684341886080802e-14,80.37243250031929 400.00000000000006,364.1594345740091 " stroke-opacity="0.25" stroke="green"/><polygon points="0.0,119.67236414386637 400.0,353.80913892370893 " stroke-opacity="0.25" stroke="green"/><polygon points="0.0,147.26844050745024 400.0,346.5412497135695 " stroke-opacity="0.25" stroke="green"/><polygon points="0.0,167.71131234791451 400.0,341.1572767995926 " stroke-opacity="0.25" stroke="green"/><polygon points="-5.684341886080802e-14,183.4631518560846 400.00000000000006,337.00876587025084 " stroke-opacity="0.25" stroke="green"/><polygon points="0.0,195.9724457131759 400.0,333.71423368195786 " stroke-opacity="0.25" stroke="green"/><polygon points="0.0,206.14698482884558 400.0,331.0345982844236 " stroke-opacity="0.25" stroke="green"/><polygon points="0.0,214.58462078683755 400.0,328.81240544330296 " stroke-opacity="0.25" stroke="green"/><polygon points="5.684341886080802e-14,221.69513830887365 399.99999999999994,326.93973148429376 " stroke-opacity="0.25" stroke="green"/><polygon points="0.0,227.76881410735277 400.0,325.3401271702579 " stroke-opacity="0.25" stroke="green"/><polygon points="0.0,233.01702243363655 400.0,323.95792354954693 " stroke-opacity="0.25" stroke="green"/><polygon points="0.0,237.59733810874582 400.0,322.7516206521507 " stroke-opacity="0.25" stroke="green"/><polygon points="-5.684341886080802e-14,241.62962898514417 400.00000000000006,321.68964927018305 " stroke-opacity="0.25" stroke="green"/><polygon points="0.0,245.20669817854454 400.0,320.74756814777595 " stroke-opacity="0.25" stroke="green"/><polygon points="0.0,248.40151454869817 400.0,319.9061597127835 " stroke-opacity="0.25" stroke="green"/><polygon points="-5.684341886080802e-14,53.153295762798564 400.00000000000006,395.17085677850366 " stroke-opacity="0.25" stroke="green"/><polygon points="-5.684341886080802e-14,100.26572575765516 400.00000000000006,378.3027854236673 " stroke-opacity="0.25" stroke="green"/><polygon points="5.684341886080802e-14,132.52943025214034 399.99999999999994,366.75113186549277 " stroke-opacity="0.25" stroke="green"/><polygon points="0.0,156.00870010076412 400.0,358.3446455261279 " stroke-opacity="0.25" stroke="green"/><polygon points="0.0,173.8612635049251 400.0,351.9527376283395 " stroke-opacity="0.25" stroke="green"/><polygon points="-5.684341886080802e-14,187.89332055315228 400.00000000000006,346.9287187108166 " stroke-opacity="0.25" stroke="green"/><polygon points="0.0,199.21272968923634 400.0,342.8759326196959 " stroke-opacity="0.25" stroke="green"/><polygon points="0.0,208.53676507215457 400.0,339.5375674754812 " stroke-opacity="0.25" stroke="green"/><polygon points="-5.684341886080802e-14,216.3503035443131 400.00000000000006,336.74001862273644 " stroke-opacity="0.25" stroke="green"/><polygon points="-5.684341886080802e-14,222.99289317589506 400.00000000000006,334.36171472504634 " stroke-opacity="0.25" stroke="green"/><polygon points="0.0,228.70940581162887 400.0,332.3149821949919 " stroke-opacity="0.25" stroke="green"/><polygon points="-5.684341886080802e-14,233.68088496799362 400.00000000000006,330.53500045433884 " stroke-opacity="0.25" stroke="green"/><polygon points="-5.684341886080802e-14,238.04407039064282 400.00000000000006,328.97281138763896 " stroke-opacity="0.25" stroke="green"/><polygon points="0.0,241.9041689113862 400.0,327.5907468816963 " stroke-opacity="0.25" stroke="green"/><polygon points="-5.684341886080802e-14,245.34344855868272 400.00000000000006,326.3593518017531 " stroke-opacity="0.25" stroke="green"/><polygon points="0.0,21.266774840924853 368.79379717356824,400.0 " stroke-opacity="0.25" stroke="green"/><polygon points="5.684341886080802e-14,78.71513712424118 392.2790887460642,400.0 " stroke-opacity="0.25" stroke="green"/><polygon points="0.0,116.81711935360796 400.0,389.26266211936024 " stroke-opacity="0.25" stroke="green"/><polygon points="0.0,143.9370041247617 400.0,377.1191893478825 " stroke-opacity="0.25" stroke="green"/><polygon points="0.0,164.22475974444546 400.0,368.034939542217 " stroke-opacity="0.25" stroke="green"/><polygon points="-5.684341886080802e-14,179.9733223948017 400.00000000000006,360.9832045017374 " stroke-opacity="0.25" stroke="green"/><polygon points="-5.684341886080802e-14,192.552817836878 400.00000000000006,355.3504829150194 " stroke-opacity="0.25" stroke="green"/><polygon points="0.0,202.83236259981066 400.0,350.74761041075885 " stroke-opacity="0.25" stroke="green"/><polygon points="-5.684341886080802e-14,211.38988571057618 400.00000000000006,346.91580766661866 " stroke-opacity="0.25" stroke="green"/><polygon points="0.0,218.62465252180954 400.0,343.67629560668354 " stroke-opacity="0.25" stroke="green"/><polygon points="5.684341886080802e-14,224.82135274519737 399.99999999999994,340.9015986980978 " stroke-opacity="0.25" stroke="green"/><polygon points="0.0,230.18844846891335 400.0,338.49837385651654 " stroke-opacity="0.25" stroke="green"/><polygon points="0.0,234.88208656622785 400.0,336.3967031851671 " stroke-opacity="0.25" stroke="green"/><polygon points="0.0,239.02154100102854 400.0,334.5431793725865 " stroke-opacity="0.25" stroke="green"/><polygon points="0.0,242.69949017353343 400.0,332.8963038047855 " stroke-opacity="0.25" stroke="green"/><polygon points="14.093213320940379,5.684341886080802e-14 337.40936406713104,399.99999999999994 " stroke-opacity="0.25" stroke="green"/><polygon points="5.684341886080802e-14,54.21657693679151 359.34867429633675,399.99999999999994 " stroke-opacity="0.25" stroke="green"/><polygon points="0.0,99.81356294828394 381.2879845255426,399.99999999999994 " stroke-opacity="0.25" stroke="green"/><polygon points="0.0,131.3807071100864 400.0,397.85006212068276 " stroke-opacity="0.25" stroke="green"/><polygon points="-5.684341886080802e-14,154.52994616207488 400.00000000000006,385.4700538379251 " stroke-opacity="0.25" stroke="green"/><polygon points="0.0,172.2323054371249 400.0,376.0029886805221 " stroke-opacity="0.25" stroke="green"/><polygon points="0.0,186.207852233217 400.0,368.52898987204617 " stroke-opacity="0.25" stroke="green"/><polygon points="0.0,197.5213901157678 400.0,362.4786098842322 " stroke-opacity="0.25" stroke="green"/><polygon points="-5.684341886080802e-14,206.86735619265755 400.00000000000006,357.48046989429895 " stroke-opacity="0.25" stroke="green"/><polygon points="0.0,214.71796769724492 400.0,353.282032302755 " stroke-opacity="0.25" stroke="green"/><polygon points="5.684341886080802e-14,221.40552564559715 399.99999999999994,349.7055854655139 " stroke-opacity="0.25" stroke="green"/><polygon points="0.0,227.17066180796976 400.0,346.6224416403061 " stroke-opacity="0.25" stroke="green"/><polygon points="0.0,232.19190943326203 400.0,343.93712282480243 " stroke-opacity="0.25" stroke="green"/><polygon points="-5.684341886080802e-14,236.6045209827613 400.00000000000006,341.5772971990569 " stroke-opacity="0.25" stroke="green"/><polygon points="0.0,240.51283406946067 400.0,339.4871659305393 " stroke-opacity="0.25" stroke="green"/><polygon points="44.18144994942378,-5.684341886080802e-14 309.84382635332224,400.00000000000006 " stroke-opacity="0.25" stroke="green"/><polygon points="0.0,25.582372219952333 330.6419156449371,400.00000000000006 " stroke-opacity="0.25" stroke="green"/><polygon points="0.0,81.09194956609235 351.44000493655193,400.0 " stroke-opacity="0.25" stroke="green"/><polygon points="-5.684341886080802e-14,118.20162908377034 372.2380942281669,400.00000000000006 " stroke-opacity="0.25" stroke="green"/><polygon points="5.684341886080802e-14,144.75931802088354 393.0361835197818,400.00000000000006 " stroke-opacity="0.25" stroke="green"/><polygon points="5.684341886080802e-14,164.70542215309095 399.99999999999994,392.13421991643486 " stroke-opacity="0.25" stroke="green"/><polygon points="5.684341886080802e-14,180.2355857089782 399.99999999999994,382.4887389050908 " stroke-opacity="0.25" stroke="green"/><polygon points="0.0,192.67014354909324 400.0,374.7658780929894 " stroke-opacity="0.25" stroke="green"/><polygon points="0.0,202.85077446428383 400.0,368.4428872357072 " stroke-opacity="0.25" stroke="green"/><polygon points="0.0,211.339382956584 400.0,363.17077843076316 " stroke-opacity="0.25" stroke="green"/><polygon points="-5.684341886080802e-14,218.52542664781794 400.00000000000006,358.7076671620985 " stroke-opacity="0.25" stroke="green"/><polygon points="-5.684341886080802e-14,224.68735662906602 400.00000000000006,354.8806129000184 " stroke-opacity="0.25" stroke="green"/><polygon points="0.0,230.02953673359133 400.0,351.5626892624502 " stroke-opacity="0.25" stroke="green"/><polygon points="-5.684341886080802e-14,234.70534716712288 400.00000000000006,348.65863480178893 " stroke-opacity="0.25" stroke="green"/><polygon points="0.0,238.83215004023322 400.0,346.0955582052739 " stroke-opacity="0.25" stroke="green"/><polygon points="70.87686507488439,0.0 284.96172150710834,400.0 " stroke-opacity="0.25" stroke="green"/><polygon points="6.737669396350071,0.0 304.9395037676355,400.0 " stroke-opacity="0.25" stroke="green"/><polygon points="0.0,60.05618811724972 324.9172860281625,399.99999999999994 " stroke-opacity="0.25" stroke="green"/><polygon points="0.0,104.22932759574852 344.8950682886896,400.0 " stroke-opacity="0.25" stroke="green"/><polygon points="0.0,134.9043567614499 364.87285054921665,400.00000000000006 " stroke-opacity="0.25" stroke="green"/><polygon points="0.0,157.4482570452245 384.85063280974373,399.99999999999994 " stroke-opacity="0.25" stroke="green"/><polygon points="5.684341886080802e-14,174.71569715148755 399.99999999999994,397.3130193373891 " stroke-opacity="0.25" stroke="green"/><polygon points="0.0,188.3650573439221 400.0,387.6417571527783 " stroke-opacity="0.25" stroke="green"/><polygon points="-5.684341886080802e-14,199.4256550505466 400.00000000000006,379.8047641486256 " stroke-opacity="0.25" stroke="green"/><polygon points="5.684341886080802e-14,208.57018237162265 399.99999999999994,373.32540394202175 " stroke-opacity="0.25" stroke="green"/><polygon points="5.684341886080802e-14,216.25684354965108 399.99999999999994,367.8790156477054 " stroke-opacity="0.25" stroke="green"/><polygon points="-5.684341886080802e-14,222.8085304999077 400.00000000000006,363.23681400937915 " stroke-opacity="0.25" stroke="green"/><polygon points="0.0,228.45933760478354 400.0,359.2329313148477 " stroke-opacity="0.25" stroke="green"/><polygon points="-5.684341886080802e-14,233.3831230027855 400.00000000000006,355.74418027791415 " stroke-opacity="0.25" stroke="green"/><polygon points="0.0,237.71171225566374 400.0,352.67715581934084 " stroke-opacity="0.25" stroke="green"/><polygon points="95.1259113792287,0.0 261.9357836364401,400.0 " stroke-opacity="0.25" stroke="green"/><polygon points="32.76313509246188,0.0 281.36025493887564,400.0 " stroke-opacity="0.25" stroke="green"/><polygon points="0.0,35.836612275637606 300.7847262413112,400.00000000000006 " stroke-opacity="0.25" stroke="green"/><polygon points="5.684341886080802e-14,89.24672551799505 320.20919754374677,400.0 " stroke-opacity="0.25" stroke="green"/><polygon points="0.0,124.97007783292115 339.63366884618233,400.0 " stroke-opacity="0.25" stroke="green"/><polygon points="0.0,150.544113951978 359.0581401486179,400.00000000000006 " stroke-opacity="0.25" stroke="green"/><polygon points="0.0,169.75610014874084 378.48261145105346,400.0 " stroke-opacity="0.25" stroke="green"/><polygon points="0.0,184.71743930464677 397.9070827534889,399.99999999999994 " stroke-opacity="0.25" stroke="green"/><polygon points="0.0,196.6983009376966 400.0,391.5569902330284 " stroke-opacity="0.25" stroke="green"/><polygon points="-5.684341886080802e-14,206.50862981205395 400.00000000000006,383.71636956029045 " stroke-opacity="0.25" stroke="green"/><polygon points="0.0,214.68927618405584 400.0,377.17822533677383 " stroke-opacity="0.25" stroke="green"/><polygon points="0.0,221.61517970555317 400.0,371.6428979258874 " stroke-opacity="0.25" stroke="green"/><polygon points="0.0,227.55445625524854 400.0,366.8961034918731 " stroke-opacity="0.25" stroke="green"/><polygon points="0.0,232.7039122037838 400.0,362.78055025400215 " stroke-opacity="0.25" stroke="green"/><polygon points="0.0,237.21127367530775 400.0,359.1781723943253 " stroke-opacity="0.25" stroke="green"/><polygon points="117.64314789349015,0.0 240.12550436484216,400.0 " stroke-opacity="0.25" stroke="green"/><polygon points="56.30714284011563,0.0 259.23016167654896,400.0 " stroke-opacity="0.25" stroke="green"/><polygon points="-5.684341886080802e-14,7.098809829030358 278.3348189882558,400.0 " stroke-opacity="0.25" stroke="green"/><polygon points="0.0,72.96764696761788 297.4394762999626,400.0 " stroke-opacity="0.25" stroke="green"/><polygon points="-5.684341886080802e-14,114.98238189729712 316.54413361166945,400.0 " stroke-opacity="0.25" stroke="green"/><polygon points="-5.684341886080802e-14,144.11438222586588 335.6487909233762,400.0 " stroke-opacity="0.25" stroke="green"/><polygon points="5.684341886080802e-14,165.50123155468617 354.75344823508306,400.00000000000006 " stroke-opacity="0.25" stroke="green"/><polygon points="0.0,181.8692502122202 373.85810554678994,400.0 " stroke-opacity="0.25" stroke="green"/><polygon points="0.0,194.79956363757285 392.9627628584967,400.0 " stroke-opacity="0.25" stroke="green"/><polygon points="0.0,205.27225985298267 400.0,394.2973859516056 " stroke-opacity="0.25" stroke="green"/><polygon points="5.684341886080802e-14,213.92719657748816 399.99999999999994,386.5476542928359 " stroke-opacity="0.25" stroke="green"/><polygon points="0.0,221.19984727866563 400.0,380.0356377205474 " stroke-opacity="0.25" stroke="green"/><polygon points="0.0,227.39687229500328 400.0,374.4867489778578 " stroke-opacity="0.25" stroke="green"/><polygon points="0.0,232.7404679034754 400.0,369.7020309173101 " stroke-opacity="0.25" stroke="green"/><polygon points="-5.684341886080802e-14,237.39557304755698 400.00000000000006,365.5337952781233 " stroke-opacity="0.25" stroke="green"/><polygon points="138.99999999999997,0.0 219.00000000000003,400.0 " stroke-opacity="0.25" stroke="green"/><polygon points="77.99999999999999,0.0 238.00000000000003,400.0 " stroke-opacity="0.25" stroke="green"/><polygon points="16.999999999999943,0.0 257.0,400.0 " stroke-opacity="0.25" stroke="green"/><polygon points="0.0,55.00000000000003 276.0,400.0 " stroke-opacity="0.25" stroke="green"/><polygon points="0.0,105.00000000000001 295.00000000000006,400.0 " stroke-opacity="0.25" stroke="green"/><polygon points="0.0,138.33333333333337 314.00000000000006,400.0 " stroke-opacity="0.25" stroke="green"/><polygon points="0.0,162.14285714285717 333.00000000000006,400.0 " stroke-opacity="0.25" stroke="green"/><polygon points="0.0,180.00000000000003 352.0000000000001,400.0 " stroke-opacity="0.25" stroke="green"/><polygon points="0.0,193.8888888888889 371.0,400.0 " stroke-opacity="0.25" stroke="green"/><polygon points="0.0,205.0 390.0,400.00000000000006 " stroke-opacity="0.25" stroke="green"/><polygon points="0.0,214.0909090909091 400.0,395.9090909090909 " stroke-opacity="0.25" stroke="green"/><polygon points="0.0,221.66666666666669 400.0,388.33333333333337 " stroke-opacity="0.25" stroke="green"/><polygon points="0.0,228.0769230769231 400.0,381.9230769230769 " stroke-opacity="0.25" stroke="green"/><polygon points="0.0,233.57142857142858 400.0,376.42857142857144 " stroke-opacity="0.25" stroke="green"/><polygon points="0.0,238.33333333333334 400.0,371.66666666666663 " stroke-opacity="0.25" stroke="green"/><polygon points="159.6848419997607,0.0 198.08381025857162,400.0 " stroke-opacity="0.25" stroke="green"/><polygon points="98.34883694638621,0.0 217.18846757027842,400.0 " stroke-opacity="0.25" stroke="green"/><polygon points="37.01283189301171,0.0 236.29312488198522,400.0 " stroke-opacity="0.25" stroke="green"/><polygon points="-5.684341886080802e-14,34.78205360706838 255.39778219369205,400.0 " stroke-opacity="0.25" stroke="green"/><polygon points="0.0,95.1341553341607 274.50243950539885,400.00000000000006 " stroke-opacity="0.25" stroke="green"/><polygon points="0.0,133.44931691140124 293.6070968171057,400.0 " stroke-opacity="0.25" stroke="green"/><polygon points="0.0,159.93398727649662 312.71175412881246,400.0 " stroke-opacity="0.25" stroke="green"/><polygon points="-5.684341886080802e-14,179.3346925604604 331.8164114405193,400.0 " stroke-opacity="0.25" stroke="green"/><polygon points="0.0,194.15833362042562 350.9210687522261,400.0 " stroke-opacity="0.25" stroke="green"/><polygon points="-5.684341886080802e-14,205.85375233092307 370.025726063933,400.0 " stroke-opacity="0.25" stroke="green"/><polygon points="0.0,215.31665802361357 389.1303833756398,400.00000000000006 " stroke-opacity="0.25" stroke="green"/><polygon points="0.0,223.13059433615462 400.0,396.4321368652328 " stroke-opacity="0.25" stroke="green"/><polygon points="5.684341886080802e-14,229.6920320811868 399.99999999999994,389.1042923661561 " stroke-opacity="0.25" stroke="green"/><polygon points="0.0,235.27977188051756 400.0,382.8638783072406 " stroke-opacity="0.25" stroke="green"/><polygon points="0.0,240.09558355298626 400.0,377.48555720689825 " stroke-opacity="0.25" stroke="green"/><polygon points="180.14853604723757,0.0 176.9131589684312,400.0 " stroke-opacity="0.25" stroke="green"/><polygon points="117.7857597604708,0.0 196.33763027086675,400.0 " stroke-opacity="0.25" stroke="green"/><polygon points="55.422983473703994,0.0 215.76210157330232,400.0 " stroke-opacity="0.25" stroke="green"/><polygon points="0.0,11.464745350338802 235.18657287573785,400.0 " stroke-opacity="0.25" stroke="green"/><polygon points="5.684341886080802e-14,85.58154552195336 254.61104417817342,400.00000000000006 " stroke-opacity="0.25" stroke="green"/><polygon points="5.684341886080802e-14,129.81519941087166 274.035515480609,400.0 " stroke-opacity="0.25" stroke="green"/><polygon points="0.0,159.20644488148668 293.45998678304454,400.0 " stroke-opacity="0.25" stroke="green"/><polygon points="0.0,180.15246592869414 312.8844580854801,400.0 " stroke-opacity="0.25" stroke="green"/><polygon points="0.0,195.8359595328187 332.30892938791567,400.0 " stroke-opacity="0.25" stroke="green"/><polygon points="-5.684341886080802e-14,208.0188458233938 351.73340069035123,400.0 " stroke-opacity="0.25" stroke="green"/><polygon points="0.0,217.75547785216338 371.15787199278674,400.0 " stroke-opacity="0.25" stroke="green"/><polygon points="-5.684341886080802e-14,225.71542378886548 390.5823432952225,400.00000000000006 " stroke-opacity="0.25" stroke="green"/><polygon points="0.0,232.34432422759875 400.0,395.9081185873806 " stroke-opacity="0.25" stroke="green"/><polygon points="-5.684341886080802e-14,237.95028105515166 400.00000000000006,388.89384223997786 " stroke-opacity="0.25" stroke="green"/><polygon points="0.0,242.75311760758768 400.0,382.8844447603867 " stroke-opacity="0.25" stroke="green"/><polygon points="200.84474356804694,-5.684341886080802e-14 154.99384301394585,400.00000000000006 " stroke-opacity="0.25" stroke="green"/><polygon points="136.70554788951264,-5.684341886080802e-14 174.97162527447293,400.00000000000006 " stroke-opacity="0.25" stroke="green"/><polygon points="72.56635221097834,-5.684341886080802e-14 194.949407535,400.00000000000006 " stroke-opacity="0.25" stroke="green"/><polygon points="8.427156532444002,-5.684341886080802e-14 214.92718979552708,400.00000000000006 " stroke-opacity="0.25" stroke="green"/><polygon points="-5.684341886080802e-14,76.6810434332609 234.90497205605416,400.0 " stroke-opacity="0.25" stroke="green"/><polygon points="0.0,127.93206733052729 254.88275431658124,400.00000000000006 " stroke-opacity="0.25" stroke="green"/><polygon points="0.0,160.39232230361478 274.86053657710835,400.0 " stroke-opacity="0.25" stroke="green"/><polygon points="0.0,182.79504597484868 294.83831883763537,400.0 " stroke-opacity="0.25" stroke="green"/><polygon points="-5.684341886080802e-14,199.18758077425375 314.81610109816256,400.00000000000006 " stroke-opacity="0.25" stroke="green"/><polygon points="0.0,211.70248114566627 334.7938833586895,400.00000000000006 " stroke-opacity="0.25" stroke="green"/><polygon points="-5.684341886080802e-14,221.57010222706197 354.7716656192166,400.0 " stroke-opacity="0.25" stroke="green"/><polygon points="0.0,229.5500712223622 374.7494478797438,399.99999999999994 " stroke-opacity="0.25" stroke="green"/><polygon points="0.0,236.13675725123153 394.7272301402708,400.0 " stroke-opacity="0.25" stroke="green"/><polygon points="-5.684341886080802e-14,241.6657586609773 400.00000000000006,394.385630959987 " stroke-opacity="0.25" stroke="green"/><polygon points="-5.684341886080802e-14,246.37290405778086 400.00000000000006,387.7422868159964 " stroke-opacity="0.25" stroke="green"/><polygon points="222.2729240728383,-5.684341886080802e-14 131.75235222990776,400.00000000000006 " stroke-opacity="0.25" stroke="green"/><polygon points="155.50011108396944,-5.684341886080802e-14 152.55044152152266,400.00000000000006 " stroke-opacity="0.25" stroke="green"/><polygon points="88.72729809510061,-5.684341886080802e-14 173.34853081313753,400.00000000000006 " stroke-opacity="0.25" stroke="green"/><polygon points="21.954485106231715,-5.684341886080802e-14 194.14662010475243,400.00000000000006 " stroke-opacity="0.25" stroke="green"/><polygon points="0.0,69.01417284322702 214.9447093963673,400.0 " stroke-opacity="0.25" stroke="green"/><polygon points="-5.684341886080802e-14,128.5116461846869 235.7427986879822,400.00000000000006 " stroke-opacity="0.25" stroke="green"/><polygon points="0.0,164.0487175132493 256.5408879795971,400.0 " stroke-opacity="0.25" stroke="green"/><polygon points="5.684341886080802e-14,187.67322281106922 277.338977271212,400.0 " stroke-opacity="0.25" stroke="green"/><polygon points="-5.684341886080802e-14,204.51523284540247 298.13706656282693,399.99999999999994 " stroke-opacity="0.25" stroke="green"/><polygon points="0.0,217.1289375060787 318.93515585444175,400.0 " stroke-opacity="0.25" stroke="green"/><polygon points="0.0,226.92906665661658 339.7332451460567,400.00000000000006 " stroke-opacity="0.25" stroke="green"/><polygon points="0.0,234.76254566702238 360.5313344376715,400.00000000000006 " stroke-opacity="0.25" stroke="green"/><polygon points="0.0,241.1673811019678 381.3294237292864,400.0 " stroke-opacity="0.25" stroke="green"/><polygon points="0.0,246.50173920454364 400.0,399.18789553573504 " stroke-opacity="0.25" stroke="green"/><polygon points="0.0,251.01329493522266 400.0,391.9238515438862 " stroke-opacity="0.25" stroke="green"/><polygon points="245.03332099679074,5.684341886080802e-14 106.46925639128071,399.99999999999994 " stroke-opacity="0.25" stroke="green"/><polygon points="174.5965881556564,5.684341886080802e-14 128.4085666204865,399.99999999999994 " stroke-opacity="0.25" stroke="green"/><polygon points="104.15985531452205,-5.684341886080802e-14 150.34787684969226,400.00000000000006 " stroke-opacity="0.25" stroke="green"/><polygon points="33.72312247338775,5.684341886080802e-14 172.28718707889803,399.99999999999994 " stroke-opacity="0.25" stroke="green"/><polygon points="5.684341886080802e-14,63.58983848622452 194.2264973081038,400.0 " stroke-opacity="0.25" stroke="green"/><polygon points="-5.684341886080802e-14,132.56417034730327 216.1658075373096,400.00000000000006 " stroke-opacity="0.25" stroke="green"/><polygon points="0.0,170.8832436034581 238.10511776651538,400.0 " stroke-opacity="0.25" stroke="green"/><polygon points="0.0,195.2681084028293 260.04442799572115,400.00000000000006 " stroke-opacity="0.25" stroke="green"/><polygon points="0.0,212.14993787931712 281.9837382249269,400.0 " stroke-opacity="0.25" stroke="green"/><polygon points="0.0,224.52994616207485 303.92304845413264,399.99999999999994 " stroke-opacity="0.25" stroke="green"/><polygon points="0.0,233.9970113194778 325.8623586833386,400.0 " stroke-opacity="0.25" stroke="green"/><polygon points="5.684341886080802e-14,241.4710101279538 347.8016689125443,400.0 " stroke-opacity="0.25" stroke="green"/><polygon points="5.684341886080802e-14,247.52139011576773 369.74097914175,400.0 " stroke-opacity="0.25" stroke="green"/><polygon points="0.0,252.519530105701 391.68028937095585,400.00000000000006 " stroke-opacity="0.25" stroke="green"/><polygon points="5.684341886080802e-14,256.7179676972449 399.99999999999994,395.28203230275506 " stroke-opacity="0.25" stroke="green"/><polygon points="269.908358973585,0.0 78.17678597142388,400.0 " stroke-opacity="0.25" stroke="green"/><polygon points="194.5082123460978,0.0 101.66207754391989,400.0 " stroke-opacity="0.25" stroke="green"/><polygon points="119.10806571861062,-5.684341886080802e-14 125.14736911641587,400.00000000000006 " stroke-opacity="0.25" stroke="green"/><polygon points="43.70791909112347,0.0 148.6326606889119,400.0 " stroke-opacity="0.25" stroke="green"/><polygon points="-5.684341886080802e-14,62.19949870572691 172.11795226140788,400.00000000000006 " stroke-opacity="0.25" stroke="green"/><polygon points="0.0,141.51823521230523 195.6032438339039,400.00000000000006 " stroke-opacity="0.25" stroke="green"/><polygon points="0.0,181.77403338615554 219.0885354063999,400.0 " stroke-opacity="0.25" stroke="green"/><polygon points="0.0,206.12182458222884 242.57382697889594,400.0 " stroke-opacity="0.25" stroke="green"/><polygon points="0.0,222.43546465380263 266.059118551392,400.0 " stroke-opacity="0.25" stroke="green"/><polygon points="0.0,234.128379698094 289.5444101238879,400.00000000000006 " stroke-opacity="0.25" stroke="green"/><polygon points="0.0,242.92021346622957 313.02970169638394,400.0 " stroke-opacity="0.25" stroke="green"/><polygon points="0.0,249.77147506337775 336.51499326887995,400.0 " stroke-opacity="0.25" stroke="green"/><polygon points="0.0,255.26080218410803 360.0002848413759,400.0 " stroke-opacity="0.25" stroke="green"/><polygon points="0.0,259.7575806155362 383.48557641387197,400.0 " stroke-opacity="0.25" stroke="green"/><polygon points="0.0,263.5086910361536 400.0,397.66208598472605 " stroke-opacity="0.25" stroke="green"/><polygon points="297.9972123535789,0.0 45.48621300295329,400.0 " stroke-opacity="0.25" stroke="green"/><polygon points="215.91361584759,0.0 71.05323486547445,400.0 " stroke-opacity="0.25" stroke="green"/><polygon points="133.8300193416011,-5.684341886080802e-14 96.6202567279956,400.00000000000006 " stroke-opacity="0.25" stroke="green"/><polygon points="51.74642283561218,0.0 122.18727859051673,400.0 " stroke-opacity="0.25" stroke="green"/><polygon points="5.684341886080802e-14,68.13840767998474 147.75430045303784,400.0 " stroke-opacity="0.25" stroke="green"/><polygon points="0.0,157.37376204668593 173.321322315559,400.0 " stroke-opacity="0.25" stroke="green"/><polygon points="0.0,197.77119536041386 198.88834417808016,399.99999999999994 " stroke-opacity="0.25" stroke="green"/><polygon points="0.0,220.80961629724482 224.45536604060126,400.0 " stroke-opacity="0.25" stroke="green"/><polygon points="0.0,235.69911355946735 250.02238790312248,400.0 " stroke-opacity="0.25" stroke="green"/><polygon points="0.0,246.11349182553167 275.5894097656435,400.00000000000006 " stroke-opacity="0.25" stroke="green"/><polygon points="0.0,253.806703071255 301.1564316281647,400.00000000000006 " stroke-opacity="0.25" stroke="green"/><polygon points="0.0,259.72203060744215 326.72345349068587,400.0 " stroke-opacity="0.25" stroke="green"/><polygon points="0.0,264.41193553230863 352.29047535320694,400.00000000000006 " stroke-opacity="0.25" stroke="green"/><polygon points="0.0,268.22146647670274 377.85749721572813,400.0 " stroke-opacity="0.25" stroke="green"/><polygon points="-5.684341886080802e-14,271.3772446274334 400.00000000000006,398.90816978433355 " stroke-opacity="0.25" stroke="green"/><polygon points="330.95943342409737,0.0 6.272551481589119,400.0 " stroke-opacity="0.25" stroke="green"/><polygon points="239.79636388235625,0.0 34.66760592901667,400.0 " stroke-opacity="0.25" stroke="green"/><polygon points="148.63329434061512,0.0 63.0626603764442,400.0 " stroke-opacity="0.25" stroke="green"/><polygon points="57.47022479887403,0.0 91.45771482387181,400.0 " stroke-opacity="0.25" stroke="green"/><polygon points="5.684341886080802e-14,87.77286139806893 119.85276927129934,400.0 " stroke-opacity="0.25" stroke="green"/><polygon points="0.0,182.86957944615682 148.24782371872692,400.0 " stroke-opacity="0.25" stroke="green"/><polygon points="0.0,220.0559868281512 176.64287816615447,400.0 " stroke-opacity="0.25" stroke="green"/><polygon points="-5.684341886080802e-14,239.882911073354 205.03793261358206,400.00000000000006 " stroke-opacity="0.25" stroke="green"/><polygon points="-5.684341886080802e-14,252.20571376125497 233.4329870610096,400.0 " stroke-opacity="0.25" stroke="green"/><polygon points="0.0,260.6067272286655 261.8280415084371,400.0 " stroke-opacity="0.25" stroke="green"/><polygon points="0.0,266.7011247429389 290.22309595586466,400.0 " stroke-opacity="0.25" stroke="green"/><polygon points="-5.684341886080802e-14,271.3242053653109 318.61815040329236,400.0 " stroke-opacity="0.25" stroke="green"/><polygon points="0.0,274.9513912758488 347.01320485071983,400.0 " stroke-opacity="0.25" stroke="green"/><polygon points="-5.684341886080802e-14,277.8731923920723 375.4082592981475,400.0 " stroke-opacity="0.25" stroke="green"/><polygon points="0.0,280.277139966038 400.0,398.8723628961757 " stroke-opacity="0.25" stroke="green"/><polygon points="-5.684341886080802e-14,358.54574067771966 371.4969854752858,0.0 " stroke-opacity="0.25" stroke="green"/><polygon points="-5.684341886080802e-14,384.7283890342005 267.71758685633694,0.0 " stroke-opacity="0.25" stroke="green"/><polygon points="163.93818823738803,5.684341886080802e-14 21.69780805789796,399.99999999999994 " stroke-opacity="0.25" stroke="green"/><polygon points="60.15878961843919,0.0 54.02253877527542,400.0 " stroke-opacity="0.25" stroke="green"/><polygon points="0.0,134.2504302024272 86.34726949265293,399.99999999999994 " stroke-opacity="0.25" stroke="green"/><polygon points="0.0,221.5941598996301 118.67200021003045,400.0 " stroke-opacity="0.25" stroke="green"/><polygon points="5.684341886080802e-14,249.82029814946213 150.99673092740795,400.0 " stroke-opacity="0.25" stroke="green"/><polygon points="0.0,263.77248206697465 183.32146164478547,400.0 " stroke-opacity="0.25" stroke="green"/><polygon points="0.0,272.0930118235917 215.646192362163,400.0 " stroke-opacity="0.25" stroke="green"/><polygon points="0.0,277.61903327326604 247.9709230795405,400.0 " stroke-opacity="0.25" stroke="green"/><polygon points="0.0,281.55595653056065 280.29565379691803,399.99999999999994 " stroke-opacity="0.25" stroke="green"/><polygon points="-5.684341886080802e-14,284.5030707846477 312.62038451429555,400.0 " stroke-opacity="0.25" stroke="green"/><polygon points="0.0,286.7919734879091 344.94511523167307,400.0 " stroke-opacity="0.25" stroke="green"/><polygon points="-5.684341886080802e-14,288.62102240099864 377.2698459490507,400.0 " stroke-opacity="0.25" stroke="green"/><polygon points="0.0,290.11614833825604 400.0,397.4260180694979 " stroke-opacity="0.25" stroke="green"/><polygon points="-5.684341886080802e-14,318.6140942239025 400.00000000000006,18.325248087440542 " stroke-opacity="0.25" stroke="green"/><polygon points="5.684341886080802e-14,324.45673460931795 302.4101615137753,0.0 " stroke-opacity="0.25" stroke="green"/><polygon points="-5.684341886080802e-14,339.084461384678 180.4101615137753,-5.684341886080802e-14 " stroke-opacity="0.25" stroke="green"/><polygon points="58.41016151377548,0.0 5.589838486224863,400.0 " stroke-opacity="0.25" stroke="green"/><polygon points="0.0,237.32050807568817 43.58983848622478,400.0 " stroke-opacity="0.25" stroke="green"/><polygon points="0.0,277.85023260636984 81.5898384862248,400.00000000000006 " stroke-opacity="0.25" stroke="green"/><polygon points="-5.684341886080802e-14,288.01916857675076 119.58983848622474,400.0 " stroke-opacity="0.25" stroke="green"/><polygon points="0.0,292.64625826372463 157.5898384862247,400.00000000000006 " stroke-opacity="0.25" stroke="green"/><polygon points="0.0,295.29167105896175 195.5898384862247,400.0 " stroke-opacity="0.25" stroke="green"/><polygon points="-8.526512829121202e-14,297.0039367434732 233.5898384862247,399.99999999999994 " stroke-opacity="0.25" stroke="green"/><polygon points="0.0,298.20276965666534 271.58983848622466,400.00000000000006 " stroke-opacity="0.25" stroke="green"/><polygon points="0.0,299.08899428647396 309.58983848622466,400.00000000000006 " stroke-opacity="0.25" stroke="green"/><polygon points="0.0,299.77078117382825 347.5898384862246,400.0 " stroke-opacity="0.25" stroke="green"/><polygon points="5.684341886080802e-14,300.3115554773175 385.58983848622466,400.0 " stroke-opacity="0.25" stroke="green"/><polygon points="5.684341886080802e-14,300.7509650683217 399.99999999999994,394.4727930388535 " stroke-opacity="0.25" stroke="green"/><polygon points="0.0,284.57390901840324 400.0,56.565089835630715 " stroke-opacity="0.25" stroke="green"/><polygon points="0.0,276.61897896202163 349.2589678407857,-5.684341886080802e-14 " stroke-opacity="0.25" stroke="green"/><polygon points="0.0,258.51568940945606 199.28477437075736,5.684341886080802e-14 " stroke-opacity="0.25" stroke="green"/><polygon points="0.0,176.63780269229727 49.31058090072912,0.0 " stroke-opacity="0.25" stroke="green"/><polygon points="0.0,355.8804793855502 31.0722854746204,400.0 " stroke-opacity="0.25" stroke="green"/><polygon points="0.0,334.9615753749189 77.78555885053086,399.99999999999994 " stroke-opacity="0.25" stroke="green"/><polygon points="-5.684341886080802e-14,326.23220626854635 124.49883222644135,400.0 " stroke-opacity="0.25" stroke="green"/><polygon points="5.684341886080802e-14,321.44184077228925 171.2121056023518,400.0 " stroke-opacity="0.25" stroke="green"/><polygon points="5.684341886080802e-14,318.41514427809193 217.92537897826222,400.00000000000006 " stroke-opacity="0.25" stroke="green"/><polygon points="0.0,316.3295448517012 264.6386523541727,400.00000000000006 " stroke-opacity="0.25" stroke="green"/><polygon points="5.684341886080802e-14,314.80517333156934 311.3519257300832,400.0 " stroke-opacity="0.25" stroke="green"/><polygon points="0.0,313.6423583151784 358.0651991059936,399.99999999999994 " stroke-opacity="0.25" stroke="green"/><polygon points="-5.684341886080802e-14,312.72610423949016 400.00000000000006,398.96971816034807 " stroke-opacity="0.25" stroke="green"/><polygon points="0.0,311.985507779549 400.0,389.96212022301887 " stroke-opacity="0.25" stroke="green"/><polygon points="0.0,254.32800060941673 400.0,89.75077497037644 " stroke-opacity="0.25" stroke="green"/><polygon points="0.0,235.93714671615015 400.0,11.62839780413563 " stroke-opacity="0.25" stroke="green"/><polygon points="0.0,196.59142881710693 223.33626755258908,0.0 " stroke-opacity="0.25" stroke="green"/><polygon points="0.0,53.057639157784195 25.93612092510199,-5.684341886080802e-14 " stroke-opacity="0.25" stroke="green"/><polygon points="0.0,389.7713280565671 14.860333572421467,400.0 " stroke-opacity="0.25" stroke="green"/><polygon points="0.0,363.6453771270335 76.3456251449174,400.00000000000006 " stroke-opacity="0.25" stroke="green"/><polygon points="-5.684341886080802e-14,349.8292920159019 137.8309167174135,400.0 " stroke-opacity="0.25" stroke="green"/><polygon points="0.0,341.2817786918159 199.31620828990944,400.0 " stroke-opacity="0.25" stroke="green"/><polygon points="0.0,335.4717834173796 260.8014998624055,400.0 " stroke-opacity="0.25" stroke="green"/><polygon points="0.0,331.2657141317142 322.2867914349015,400.00000000000006 " stroke-opacity="0.25" stroke="green"/><polygon points="-5.684341886080802e-14,328.0799513216147 383.7720830073976,400.0 " stroke-opacity="0.25" stroke="green"/><polygon points="5.684341886080802e-14,325.5833956913292 399.99999999999994,392.43605984215554 " stroke-opacity="0.25" stroke="green"/><polygon points="0.0,323.5742240518938 400.0,383.901313956041 " stroke-opacity="0.25" stroke="green"/><polygon points="-5.684341886080802e-14,226.45042938401724 400.00000000000006,119.57523469257525 " stroke-opacity="0.25" stroke="green"/><polygon points="-5.684341886080802e-14,199.27758614596354 400.00000000000006,55.43079646535543 " stroke-opacity="0.25" stroke="green"/><polygon points="0.0,143.36163499414909 260.7446368075146,0.0 " stroke-opacity="0.25" stroke="green"/><polygon points="0.0,379.37242985245587 81.53855105555591,400.0 " stroke-opacity="0.25" stroke="green"/><polygon points="0.0,364.8160360120415 172.92350360569415,400.0 " stroke-opacity="0.25" stroke="green"/><polygon points="5.684341886080802e-14,355.0249947949575 264.30845615583246,400.0 " stroke-opacity="0.25" stroke="green"/><polygon points="0.0,347.9884001637883 355.693408705971,400.0 " stroke-opacity="0.25" stroke="green"/><polygon points="0.0,342.68725189860237 400.0,393.96483817262555 " stroke-opacity="0.25" stroke="green"/><polygon points="0.0,338.5500065417576 400.0,384.19842260477174 " stroke-opacity="0.25" stroke="green"/><polygon points="0.0,335.2312670972824 400.0,376.3641788554738 " stroke-opacity="0.25" stroke="green"/><polygon points="0.0,199.881303023845 400.0,147.25671765898042 " stroke-opacity="0.25" stroke="green"/><polygon points="-5.684341886080802e-14,164.51887220503056 400.00000000000006,94.19112543438915 " stroke-opacity="0.25" stroke="green"/><polygon points="-5.684341886080802e-14,93.30298814676551 352.153572112986,-5.684341886080802e-14 " stroke-opacity="0.25" stroke="green"/><polygon points="0.0,388.06407267886567 114.81383352155284,400.0000000000001 " stroke-opacity="0.25" stroke="green"/><polygon points="0.0,374.2829724897018 296.58250595815844,400.0 " stroke-opacity="0.25" stroke="green"/><polygon points="0.0,364.4239825472216 400.0,394.1728524650616 " stroke-opacity="0.25" stroke="green"/><polygon points="0.0,357.02133004442055 400.0,383.0642796096858 " stroke-opacity="0.25" stroke="green"/><polygon points="0.0,351.25872013949106 400.0,374.41678846488355 " stroke-opacity="0.25" stroke="green"/><polygon points="0.0,346.645484020617 400.0,367.4940713028699 " stroke-opacity="0.25" stroke="green"/><polygon points="0.0,173.75 400.0,173.75 " stroke-opacity="0.25" stroke="green"/><polygon points="0.0,130.0 400.0,130.0 " stroke-opacity="0.25" stroke="green"/><polygon points="0.0,42.49999999999994 400.0,42.49999999999994 " stroke-opacity="0.25" stroke="green"/><polygon points="0.0,392.5 400.0,392.5 " stroke-opacity="0.25" stroke="green"/><polygon points="0.0,380.0 400.0,380.0 " stroke-opacity="0.25" stroke="green"/><polygon points="0.0,370.625 400.0,370.625 " stroke-opacity="0.25" stroke="green"/><polygon points="0.0,363.33333333333337 400.0,363.33333333333337 " stroke-opacity="0.25" stroke="green"/><polygon points="0.0,357.5 400.0,357.5 " stroke-opacity="0.25" stroke="green"/><polygon points="0.0,147.25671765898073 400.0,199.88130302384468 " stroke-opacity="0.25" stroke="green"/><polygon points="-5.684341886080802e-14,94.19112543438955 400.00000000000006,164.51887220503016 " stroke-opacity="0.25" stroke="green"/><polygon points="47.846427887012,-5.684341886080802e-14 400.0,93.30298814676499 " stroke-opacity="0.25" stroke="green"/><polygon points="400.0,388.0640726788659 285.18616647844834,400.0 " stroke-opacity="0.25" stroke="green"/><polygon points="400.0,374.28297248970205 103.41749404184067,400.0 " stroke-opacity="0.25" stroke="green"/><polygon points="-5.684341886080802e-14,394.1728524650615 400.00000000000006,364.4239825472218 " stroke-opacity="0.25" stroke="green"/><polygon points="0.0,383.0642796096857 400.0,357.02133004442067 " stroke-opacity="0.25" stroke="green"/><polygon points="0.0,374.4167884648835 400.0,351.2587201394912 " stroke-opacity="0.25" stroke="green"/><polygon points="0.0,367.49407130286977 400.0,346.6454840206171 " stroke-opacity="0.25" stroke="green"/><polygon points="0.0,119.5752346925756 400.0,226.4504293840169 " stroke-opacity="0.25" stroke="green"/><polygon points="0.0,55.43079646535588 400.0,199.2775861459631 " stroke-opacity="0.25" stroke="green"/><polygon points="139.25536319248474,0.0 400.00000000000006,143.36163499414852 " stroke-opacity="0.25" stroke="green"/><polygon points="400.00000000000006,379.3724298524562 318.4614489444448,400.0 " stroke-opacity="0.25" stroke="green"/><polygon points="400.0,364.81603601204165 227.07649639430613,400.0 " stroke-opacity="0.25" stroke="green"/><polygon points="400.00000000000006,355.0249947949576 135.69154384416728,399.99999999999994 " stroke-opacity="0.25" stroke="green"/><polygon points="399.99999999999994,347.9884001637884 44.306591294028664,400.00000000000006 " stroke-opacity="0.25" stroke="green"/><polygon points="5.684341886080802e-14,393.9648381726255 399.99999999999994,342.6872518986025 " stroke-opacity="0.25" stroke="green"/><polygon points="0.0,384.1984226047717 400.0,338.55000654175774 " stroke-opacity="0.25" stroke="green"/><polygon points="0.0,376.3641788554737 400.0,335.2312670972825 " stroke-opacity="0.25" stroke="green"/><polygon points="0.0,89.75077497037654 400.0,254.32800060941665 " stroke-opacity="0.25" stroke="green"/><polygon points="0.0,11.628397804135773 400.0,235.93714671615 " stroke-opacity="0.25" stroke="green"/><polygon points="176.6637324474108,5.684341886080802e-14 399.99999999999994,196.59142881710676 " stroke-opacity="0.25" stroke="green"/><polygon points="374.06387907489807,0.0 400.00000000000006,53.05763915778397 " stroke-opacity="0.25" stroke="green"/><polygon points="399.99999999999994,389.77132805656714 385.13966642757873,400.0 " stroke-opacity="0.25" stroke="green"/><polygon points="400.0,363.6453771270335 323.65437485508266,400.0 " stroke-opacity="0.25" stroke="green"/><polygon points="399.99999999999994,349.82929201590196 262.16908328258666,400.00000000000006 " stroke-opacity="0.25" stroke="green"/><polygon points="400.0,341.28177869181593 200.68379171009067,400.00000000000006 " stroke-opacity="0.25" stroke="green"/><polygon points="400.00000000000006,335.4717834173796 139.19850013759464,400.0 " stroke-opacity="0.25" stroke="green"/><polygon points="400.00000000000006,331.2657141317143 77.71320856509851,400.00000000000006 " stroke-opacity="0.25" stroke="green"/><polygon points="400.00000000000006,328.0799513216147 16.22791699260239,400.00000000000006 " stroke-opacity="0.25" stroke="green"/><polygon points="5.684341886080802e-14,392.4360598421556 399.99999999999994,325.58339569132926 " stroke-opacity="0.25" stroke="green"/><polygon points="0.0,383.901313956041 400.0,323.5742240518938 " stroke-opacity="0.25" stroke="green"/><polygon points="-5.684341886080802e-14,56.56508983563114 400.00000000000006,284.57390901840284 " stroke-opacity="0.25" stroke="green"/><polygon points="50.7410321592136,5.684341886080802e-14 400.00000000000006,276.6189789620211 " stroke-opacity="0.25" stroke="green"/><polygon points="200.7152256292423,0.0 400.00000000000006,258.51568940945526 " stroke-opacity="0.25" stroke="green"/><polygon points="350.689419099271,0.0 400.0,176.63780269229565 " stroke-opacity="0.25" stroke="green"/><polygon points="400.0,355.8804793855512 368.9277145253803,400.0 " stroke-opacity="0.25" stroke="green"/><polygon points="400.00000000000006,334.96157537491945 322.2144411494697,400.0 " stroke-opacity="0.25" stroke="green"/><polygon points="400.00000000000006,326.23220626854675 275.50116777355913,400.0 " stroke-opacity="0.25" stroke="green"/><polygon points="399.99999999999994,321.44184077228954 228.78789439764856,400.0 " stroke-opacity="0.25" stroke="green"/><polygon points="400.0,318.41514427809216 182.074621021738,400.00000000000006 " stroke-opacity="0.25" stroke="green"/><polygon points="400.00000000000006,316.32954485170137 135.3613476458274,400.0 " stroke-opacity="0.25" stroke="green"/><polygon points="400.0,314.8051733315695 88.64807426991688,400.0 " stroke-opacity="0.25" stroke="green"/><polygon points="400.0,313.64235831517857 41.93480089400617,400.00000000000006 " stroke-opacity="0.25" stroke="green"/><polygon points="0.0,398.96971816034795 400.0,312.7261042394902 " stroke-opacity="0.25" stroke="green"/><polygon points="5.684341886080802e-14,389.9621202230188 399.99999999999994,311.9855077795491 " stroke-opacity="0.25" stroke="green"/><polygon points="0.0,18.325248087441054 400.0,318.61409422390204 " stroke-opacity="0.25" stroke="green"/><polygon points="97.58983848622422,-5.684341886080802e-14 400.00000000000006,324.4567346093173 " stroke-opacity="0.25" stroke="green"/><polygon points="219.58983848622447,0.0 400.0,339.08446138467684 " stroke-opacity="0.25" stroke="green"/><polygon points="341.5898384862246,0.0 394.41016151377585,400.0 " stroke-opacity="0.25" stroke="green"/><polygon points="400.0,237.32050807568982 356.4101615137758,400.0 " stroke-opacity="0.25" stroke="green"/><polygon points="400.00000000000006,277.8502326063706 318.4101615137757,400.0 " stroke-opacity="0.25" stroke="green"/><polygon points="400.0,288.0191685767512 280.4101615137757,400.0 " stroke-opacity="0.25" stroke="green"/><polygon points="400.0,292.646258263725 242.4101615137756,399.99999999999994 " stroke-opacity="0.25" stroke="green"/><polygon points="400.0,295.29167105896204 204.41016151377556,400.0 " stroke-opacity="0.25" stroke="green"/><polygon points="400.00000000000006,297.00393674347345 166.41016151377553,400.0 " stroke-opacity="0.25" stroke="green"/><polygon points="400.00000000000006,298.2027696566655 128.41016151377545,400.0 " stroke-opacity="0.25" stroke="green"/><polygon points="400.0,299.0889942864741 90.41016151377544,400.0 " stroke-opacity="0.25" stroke="green"/><polygon points="400.0,299.7707811738283 52.41016151377545,400.0 " stroke-opacity="0.25" stroke="green"/><polygon points="400.0,300.31155547731754 14.410161513775364,400.0 " stroke-opacity="0.25" stroke="green"/><polygon points="0.0,394.4727930388535 400.0,300.75096506832176 " stroke-opacity="0.25" stroke="green"/><polygon points="28.503014524714075,-5.684341886080802e-14 400.00000000000006,358.54574067771955 " stroke-opacity="0.25" stroke="green"/><polygon points="132.28241314366295,-5.684341886080802e-14 400.0,384.7283890342002 " stroke-opacity="0.25" stroke="green"/><polygon points="236.06181176261194,-5.684341886080802e-14 378.3021919421023,400.00000000000006 " stroke-opacity="0.25" stroke="green"/><polygon points="339.8412103815608,-5.684341886080802e-14 345.9774612247247,400.00000000000006 " stroke-opacity="0.25" stroke="green"/><polygon points="400.00000000000006,134.2504302024273 313.6527305073472,400.0 " stroke-opacity="0.25" stroke="green"/><polygon points="400.0,221.59415989963023 281.3279997899696,399.99999999999994 " stroke-opacity="0.25" stroke="green"/><polygon points="400.0,249.8202981494622 249.0032690725921,400.0 " stroke-opacity="0.25" stroke="green"/><polygon points="400.0,263.7724820669747 216.67853835521458,400.00000000000006 " stroke-opacity="0.25" stroke="green"/><polygon points="400.0,272.0930118235917 184.35380763783706,400.0 " stroke-opacity="0.25" stroke="green"/><polygon points="400.0,277.61903327326604 152.02907692045954,400.00000000000006 " stroke-opacity="0.25" stroke="green"/><polygon points="400.0,281.55595653056065 119.70434620308197,399.99999999999994 " stroke-opacity="0.25" stroke="green"/><polygon points="400.00000000000006,284.5030707846477 87.37961548570445,400.0 " stroke-opacity="0.25" stroke="green"/><polygon points="400.0,286.7919734879091 55.05488476832707,400.00000000000006 " stroke-opacity="0.25" stroke="green"/><polygon points="400.00000000000006,288.62102240099864 22.730154050949324,400.0 " stroke-opacity="0.25" stroke="green"/><polygon points="0.0,397.42601806949796 400.0,290.11614833825604 " stroke-opacity="0.25" stroke="green"/><polygon points="69.04056657590237,0.0 393.7274485184113,400.0 " stroke-opacity="0.25" stroke="green"/><polygon points="160.20363611764355,0.0 365.33239407098364,400.0 " stroke-opacity="0.25" stroke="green"/><polygon points="251.36670565938476,0.0 336.93733962355606,400.0 " stroke-opacity="0.25" stroke="green"/><polygon points="342.529775201126,0.0 308.5422851761284,400.0 " stroke-opacity="0.25" stroke="green"/><polygon points="399.99999999999994,87.77286139806915 280.1472307287009,400.0 " stroke-opacity="0.25" stroke="green"/><polygon points="400.0,182.86957944615702 251.75217628127328,400.0 " stroke-opacity="0.25" stroke="green"/><polygon points="400.00000000000006,220.05598682815133 223.3571218338457,400.00000000000006 " stroke-opacity="0.25" stroke="green"/><polygon points="400.00000000000006,239.88291107335417 194.9620673864181,400.0 " stroke-opacity="0.25" stroke="green"/><polygon points="400.00000000000006,252.20571376125508 166.5670129389905,400.0 " stroke-opacity="0.25" stroke="green"/><polygon points="400.0,260.6067272286656 138.17195849156306,400.0 " stroke-opacity="0.25" stroke="green"/><polygon points="400.0,266.701124742939 109.77690404413543,399.99999999999994 " stroke-opacity="0.25" stroke="green"/><polygon points="400.00000000000006,271.32420536531095 81.38184959670782,399.99999999999994 " stroke-opacity="0.25" stroke="green"/><polygon points="400.00000000000006,274.95139127584883 52.986795149280255,400.00000000000006 " stroke-opacity="0.25" stroke="green"/><polygon points="400.00000000000006,277.8731923920723 24.591740701852586,400.00000000000006 " stroke-opacity="0.25" stroke="green"/><polygon points="0.0,398.8723628961757 400.0,280.277139966038 " stroke-opacity="0.25" stroke="green"/><polygon points="102.00278764642073,-5.684341886080802e-14 354.51378699704713,400.00000000000006 " stroke-opacity="0.25" stroke="green"/><polygon points="184.08638415240972,-5.684341886080802e-14 328.94676513452595,400.00000000000006 " stroke-opacity="0.25" stroke="green"/><polygon points="266.16998065839874,5.684341886080802e-14 303.37974327200476,399.99999999999994 " stroke-opacity="0.25" stroke="green"/><polygon points="348.25357716438776,-5.684341886080802e-14 277.81272140948363,400.00000000000006 " stroke-opacity="0.25" stroke="green"/><polygon points="400.00000000000006,68.13840767998497 252.24569954696244,400.0 " stroke-opacity="0.25" stroke="green"/><polygon points="400.0,157.37376204668607 226.67867768444125,400.0 " stroke-opacity="0.25" stroke="green"/><polygon points="400.0,197.77119536041403 201.1116558219201,400.00000000000006 " stroke-opacity="0.25" stroke="green"/><polygon points="400.0,220.809616297245 175.54463395939894,400.0 " stroke-opacity="0.25" stroke="green"/><polygon points="400.0,235.6991135594675 149.97761209687775,399.99999999999994 " stroke-opacity="0.25" stroke="green"/><polygon points="400.00000000000006,246.1134918255318 124.41059023435658,400.00000000000006 " stroke-opacity="0.25" stroke="green"/><polygon points="400.0,253.80670307125513 98.84356837183543,399.99999999999994 " stroke-opacity="0.25" stroke="green"/><polygon points="400.0,259.72203060744226 73.27654650931433,399.99999999999994 " stroke-opacity="0.25" stroke="green"/><polygon points="400.0,264.4119355323087 47.70952464679311,400.00000000000006 " stroke-opacity="0.25" stroke="green"/><polygon points="400.0,268.22146647670286 22.142502784271898,399.99999999999994 " stroke-opacity="0.25" stroke="green"/><polygon points="5.684341886080802e-14,398.90816978433355 399.99999999999994,271.37724462743347 " stroke-opacity="0.25" stroke="green"/><polygon points="130.09164102641495,0.0 321.8232140285763,400.0 " stroke-opacity="0.25" stroke="green"/><polygon points="205.49178765390212,0.0 298.33792245608026,400.0 " stroke-opacity="0.25" stroke="green"/><polygon points="280.89193428138935,0.0 274.8526308835842,400.0 " stroke-opacity="0.25" stroke="green"/><polygon points="356.29208090887647,0.0 251.36733931108822,400.0 " stroke-opacity="0.25" stroke="green"/><polygon points="400.0,62.19949870572691 227.8820477385922,400.00000000000006 " stroke-opacity="0.25" stroke="green"/><polygon points="400.00000000000006,141.51823521230526 204.3967561660962,400.0 " stroke-opacity="0.25" stroke="green"/><polygon points="400.00000000000006,181.77403338615554 180.9114645936002,400.0 " stroke-opacity="0.25" stroke="green"/><polygon points="400.00000000000006,206.12182458222887 157.42617302110415,400.0 " stroke-opacity="0.25" stroke="green"/><polygon points="400.00000000000006,222.43546465380265 133.94088144860814,400.0 " stroke-opacity="0.25" stroke="green"/><polygon points="400.0,234.128379698094 110.45558987611219,400.00000000000006 " stroke-opacity="0.25" stroke="green"/><polygon points="400.0,242.92021346622957 86.97029830361616,400.00000000000006 " stroke-opacity="0.25" stroke="green"/><polygon points="400.00000000000006,249.77147506337772 63.48500673112011,400.00000000000006 " stroke-opacity="0.25" stroke="green"/><polygon points="400.0,255.26080218410803 39.999715158624184,400.0 " stroke-opacity="0.25" stroke="green"/><polygon points="400.0,259.75758061553614 16.514423586128146,400.0 " stroke-opacity="0.25" stroke="green"/><polygon points="5.684341886080802e-14,397.66208598472605 399.99999999999994,263.5086910361536 " stroke-opacity="0.25" stroke="green"/><polygon points="154.9666790032091,0.0 293.5307436087195,400.0 " stroke-opacity="0.25" stroke="green"/><polygon points="225.40341184434345,0.0 271.5914333795137,400.0 " stroke-opacity="0.25" stroke="green"/><polygon points="295.84014468547787,-5.684341886080802e-14 249.65212315030792,400.00000000000006 " stroke-opacity="0.25" stroke="green"/><polygon points="366.27687752661217,0.0 227.71281292110214,400.0 " stroke-opacity="0.25" stroke="green"/><polygon points="400.00000000000006,63.58983848622452 205.77350269189634,400.0 " stroke-opacity="0.25" stroke="green"/><polygon points="400.0,132.56417034730333 183.83419246269057,400.00000000000006 " stroke-opacity="0.25" stroke="green"/><polygon points="400.0,170.8832436034581 161.8948822334848,400.0 " stroke-opacity="0.25" stroke="green"/><polygon points="400.0,195.26810840282937 139.955572004279,399.99999999999994 " stroke-opacity="0.25" stroke="green"/><polygon points="400.0,212.14993787931718 118.01626177507319,400.0 " stroke-opacity="0.25" stroke="green"/><polygon points="400.0,224.52994616207488 96.07695154586744,400.0 " stroke-opacity="0.25" stroke="green"/><polygon points="400.0,233.99701131947782 74.13764131666166,400.0 " stroke-opacity="0.25" stroke="green"/><polygon points="400.0,241.47101012795386 52.19833108745581,399.99999999999994 " stroke-opacity="0.25" stroke="green"/><polygon points="400.00000000000006,247.52139011576776 30.25902085825004,400.0 " stroke-opacity="0.25" stroke="green"/><polygon points="400.00000000000006,252.519530105701 8.319710629044266,400.00000000000006 " stroke-opacity="0.25" stroke="green"/><polygon points="0.0,395.2820323027551 400.0,256.71796769724494 " stroke-opacity="0.25" stroke="green"/><polygon points="177.72707592716145,0.0 268.2476477700925,400.0 " stroke-opacity="0.25" stroke="green"/><polygon points="244.49988891603033,0.0 247.44955847847763,400.0 " stroke-opacity="0.25" stroke="green"/><polygon points="311.27270190489924,5.684341886080802e-14 226.65146918686273,399.99999999999994 " stroke-opacity="0.25" stroke="green"/><polygon points="378.0455148937681,0.0 205.85337989524783,400.0 " stroke-opacity="0.25" stroke="green"/><polygon points="400.0,69.01417284322696 185.05529060363295,400.0 " stroke-opacity="0.25" stroke="green"/><polygon points="400.0,128.51164618468698 164.25720131201803,399.99999999999994 " stroke-opacity="0.25" stroke="green"/><polygon points="399.99999999999994,164.04871751324936 143.45911202040313,400.00000000000006 " stroke-opacity="0.25" stroke="green"/><polygon points="400.00000000000006,187.67322281106925 122.66102272878827,400.0 " stroke-opacity="0.25" stroke="green"/><polygon points="400.0,204.5152328454025 101.86293343717334,399.99999999999994 " stroke-opacity="0.25" stroke="green"/><polygon points="400.0,217.12893750607876 81.06484414555845,400.0 " stroke-opacity="0.25" stroke="green"/><polygon points="400.0,226.9290666566166 60.26675485394361,400.0 " stroke-opacity="0.25" stroke="green"/><polygon points="400.0,234.76254566702244 39.468665562328624,400.0 " stroke-opacity="0.25" stroke="green"/><polygon points="400.0,241.16738110196786 18.67057627071378,400.0 " stroke-opacity="0.25" stroke="green"/><polygon points="0.0,399.1878955357351 400.0,246.5017392045437 " stroke-opacity="0.25" stroke="green"/><polygon points="0.0,391.92385154388626 400.0,251.0132949352227 " stroke-opacity="0.25" stroke="green"/><polygon points="199.155256431953,0.0 245.00615698605424,400.0 " stroke-opacity="0.25" stroke="green"/><polygon points="263.2944521104873,0.0 225.02837472552716,400.0 " stroke-opacity="0.25" stroke="green"/><polygon points="327.4336477890216,5.684341886080802e-14 205.05059246500008,399.99999999999994 " stroke-opacity="0.25" stroke="green"/><polygon points="391.5728434675559,0.0 185.07281020447297,400.0 " stroke-opacity="0.25" stroke="green"/><polygon points="400.00000000000006,76.68104343326081 165.09502794394592,400.00000000000006 " stroke-opacity="0.25" stroke="green"/><polygon points="400.0,127.93206733052732 145.11724568341882,399.99999999999994 " stroke-opacity="0.25" stroke="green"/><polygon points="400.0,160.3923223036148 125.13946342289172,400.0 " stroke-opacity="0.25" stroke="green"/><polygon points="400.00000000000006,182.79504597484865 105.16168116236469,400.00000000000006 " stroke-opacity="0.25" stroke="green"/><polygon points="400.0,199.18758077425375 85.1838989018376,400.0 " stroke-opacity="0.25" stroke="green"/><polygon points="399.99999999999994,211.70248114566627 65.20611664131056,400.0 " stroke-opacity="0.25" stroke="green"/><polygon points="400.0,221.57010222706194 45.22833438078345,400.00000000000006 " stroke-opacity="0.25" stroke="green"/><polygon points="400.0,229.5500712223622 25.250552120256344,400.00000000000006 " stroke-opacity="0.25" stroke="green"/><polygon points="400.0,236.1367572512315 5.272769859729351,399.99999999999994 " stroke-opacity="0.25" stroke="green"/><polygon points="-5.684341886080802e-14,394.38563095998705 400.00000000000006,241.6657586609773 " stroke-opacity="0.25" stroke="green"/><polygon points="-5.684341886080802e-14,387.7422868159964 400.00000000000006,246.37290405778083 " stroke-opacity="0.25" stroke="green"/><polygon points="219.85146395276226,0.0 223.08684103156898,400.0 " stroke-opacity="0.25" stroke="green"/><polygon points="282.2142402395291,0.0 203.66236972913342,400.0 " stroke-opacity="0.25" stroke="green"/><polygon points="344.5770165262959,-5.684341886080802e-14 184.23789842669785,400.00000000000006 " stroke-opacity="0.25" stroke="green"/><polygon points="400.00000000000006,11.464745350338603 164.8134271242623,400.0 " stroke-opacity="0.25" stroke="green"/><polygon points="400.00000000000006,85.58154552195327 145.38895582182676,400.0 " stroke-opacity="0.25" stroke="green"/><polygon points="400.00000000000006,129.81519941087157 125.96448451939118,400.00000000000006 " stroke-opacity="0.25" stroke="green"/><polygon points="400.00000000000006,159.20644488148665 106.5400132169556,400.0 " stroke-opacity="0.25" stroke="green"/><polygon points="400.00000000000006,180.15246592869408 87.11554191452005,400.0 " stroke-opacity="0.25" stroke="green"/><polygon points="400.0,195.8359595328187 67.69107061208453,399.99999999999994 " stroke-opacity="0.25" stroke="green"/><polygon points="400.0,208.01884582339378 48.26659930964894,400.00000000000006 " stroke-opacity="0.25" stroke="green"/><polygon points="400.0,217.75547785216338 28.842128007213347,400.00000000000006 " stroke-opacity="0.25" stroke="green"/><polygon points="400.00000000000006,225.71542378886548 9.417656704777784,400.0 " stroke-opacity="0.25" stroke="green"/><polygon points="0.0,395.9081185873806 400.0,232.34432422759875 " stroke-opacity="0.25" stroke="green"/><polygon points="0.0,388.8938422399779 400.0,237.95028105515166 " stroke-opacity="0.25" stroke="green"/><polygon points="-5.684341886080802e-14,382.8844447603868 400.00000000000006,242.75311760758763 " stroke-opacity="0.25" stroke="green"/><polygon points="240.31515800023902,0.0 201.91618974142864,400.0 " stroke-opacity="0.25" stroke="green"/><polygon points="301.6511630536136,0.0 182.81153242972184,400.0 " stroke-opacity="0.25" stroke="green"/><polygon points="362.98716810698807,0.0 163.70687511801503,400.0 " stroke-opacity="0.25" stroke="green"/><polygon points="400.0,34.78205360706809 144.6022178063082,400.0 " stroke-opacity="0.25" stroke="green"/><polygon points="400.0,95.13415533416061 125.49756049460139,400.0 " stroke-opacity="0.25" stroke="green"/><polygon points="399.99999999999994,133.44931691140124 106.39290318289459,400.0 " stroke-opacity="0.25" stroke="green"/><polygon points="399.99999999999994,159.93398727649662 87.28824587118773,400.00000000000006 " stroke-opacity="0.25" stroke="green"/><polygon points="400.0,179.3346925604604 68.18358855948091,400.0 " stroke-opacity="0.25" stroke="green"/><polygon points="400.0,194.1583336204256 49.07893124777411,400.00000000000006 " stroke-opacity="0.25" stroke="green"/><polygon points="400.0,205.85375233092307 29.974273936067306,400.00000000000006 " stroke-opacity="0.25" stroke="green"/><polygon points="400.00000000000006,215.31665802361357 10.869616624360532,399.99999999999994 " stroke-opacity="0.25" stroke="green"/><polygon points="0.0,396.4321368652329 400.0,223.13059433615462 " stroke-opacity="0.25" stroke="green"/><polygon points="0.0,389.10429236615624 400.0,229.6920320811868 " stroke-opacity="0.25" stroke="green"/><polygon points="-5.684341886080802e-14,382.86387830724067 400.00000000000006,235.2797718805176 " stroke-opacity="0.25" stroke="green"/><polygon points="0.0,377.48555720689836 400.0,240.09558355298628 " stroke-opacity="0.25" stroke="green"/></svg>
