<?xml version="1.0" encoding="UTF-8"?>
<!DOCTYPE svg PUBLIC "-//W3C//DTD SVG 1.1//EN"
    "http://www.w3.org/Graphics/SVG/1.1/DTD/svg11.dtd"><svg width="400" height="400" stroke="black" fill="none" fill-opacity="0.75" font-size="14" font-style="italic" font-family="sans-serif" xmlns="http://www.w3.org/2000/svg" xmlns:xlink="http://www.w3.org/1999/xlink" version="1.1"><filter id="blur1"><feGaussianBlur stdDeviation="0.5"/></filter><rect width="100%" height="100%" fill="white" stroke="none" fill-opacity="1"/><rect class="bg" fill="black" width="100%" height="100%" stroke="none" fill-opacity="1"/><polyline class="polyline" opacity="0.5" stroke="blue" points="241.1617077581747,177.26353393010285 276.03377499025373,157.7118871521863 "/><polyline class="polyline" opacity="0.5" stroke="blue" points="240.20483217111757,176.3991526251587 274.48837168050545,155.71040010626052 "/><polyline class="polyline" opacity="0.5" stroke="blue" points="239.2333476928291,175.54554403287997 272.9144690782447,153.72958332775804 "/><polyline class="polyline" opacity="0.5" stroke="blue" points="238.24760092798886,174.7029595441541 271.3128253817481,151.76990074942688 "/><polyline class="polyline" opacity="0.5" stroke="blue" points="237.24793978943,173.8716469921435 269.6841996551884,149.83180672670358 "/><polyline class="polyline" opacity="0.5" stroke="blue" points="236.2347134783885,173.05185070518536 268.02935183432646,147.9157464167862 "/><polyline class="polyline" opacity="0.5" stroke="blue" points="235.20827246910588,172.24381155865672 266.3490427550276,146.02215615083063 "/><polyline class="polyline" opacity="0.5" stroke="blue" points="234.16896849762756,171.44776702566463 264.6440342036253,144.15146379857006 "/><polyline class="polyline" opacity="0.5" stroke="blue" points="233.1171545546353,170.66395122642652 262.9150889881573,142.30408912469136 "/><polyline class="polyline" opacity="0.5" stroke="blue" points="232.05318488215332,169.89259497620952 261.1629710295036,140.4804441363279 "/><polyline class="polyline" opacity="0.5" stroke="blue" points="230.97741497396575,169.13392583170025 259.3884454714564,138.68093342105857 "/><polyline class="polyline" opacity="0.5" stroke="blue" points="229.89020157958367,168.3881681356815 257.59227880875926,136.90595447482377 "/><polyline class="polyline" opacity="0.5" stroke="blue" points="228.7919027115977,167.65554305989372 255.77523903215015,135.15589801919526 "/><polyline class="polyline" opacity="0.5" stroke="blue" points="227.682877656253,166.93626864596473 253.938095789449,133.43114830745435 "/><polyline class="polyline" opacity="0.5" stroke="blue" points="226.56348698708248,166.23055984429178 252.08162056173006,131.73208341895244 "/><polyline class="polyline" opacity="0.5" stroke="blue" points="225.4340925814323,165.53862855076574 250.20658685361954,130.05907554124525 "/><polyline class="polyline" opacity="0.5" stroke="blue" points="224.29505763971505,164.86068364122707 248.3137703967589,128.41249123950524 "/><polyline class="polyline" opacity="0.5" stroke="blue" points="223.14674670722337,164.19693100354928 246.4039493654721,126.79269171273087 "/><polyline class="polyline" opacity="0.5" stroke="blue" points="221.98952569833722,163.54757356724554 244.47790460367227,125.20003303628229 "/><polyline class="polyline" opacity="0.5" stroke="blue" points="220.82376192295715,162.9128113304984 242.53641986203746,123.63486639028326 "/><polyline class="polyline" opacity="0.5" stroke="blue" points="219.64982411499392,162.29284138451476 240.58028204448078,122.09753827343707 "/><polyline class="polyline" opacity="0.5" stroke="blue" points="218.46808246274557,161.6878579351098 238.61028146293117,120.58839070181124 "/><polyline class="polyline" opacity="0.5" stroke="blue" points="217.2789086409907,161.0980523214277 236.62721209943206,119.10776139215302 "/><polyline class="polyline" opacity="0.5" stroke="blue" points="216.08267584462618,160.52361303170755 234.63187187455358,117.65598392930083 "/><polyline class="polyline" opacity="0.5" stroke="blue" points="214.87975882367658,159.96472571600623 232.62506292110163,116.23338791726225 "/><polyline class="polyline" opacity="0.5" stroke="blue" points="213.67053391950031,159.42157319579206 230.60759186209094,114.84029911353113 "/><polyline class="polyline" opacity="0.5" stroke="blue" points="212.45537910201764,158.89433547032502 228.5802700919334,113.47703954622078 "/><polyline class="polyline" opacity="0.5" stroke="blue" points="211.23467400778267,158.38318971974138 226.54391405977316,112.14392761358924 "/><polyline class="polyline" opacity="0.5" stroke="blue" points="210.0087999787213,157.88831030476362 224.49934555388006,110.84127816553828 "/><polyline class="polyline" opacity="0.5" stroke="blue" points="208.77814010135398,157.4098687629575 222.44739198598833,109.5694025666654 "/><polyline class="polyline" opacity="0.5" stroke="blue" points="207.54307924632192,156.948033801461 220.38888667444542,108.32860874045244 "/><polyline class="polyline" opacity="0.5" stroke="blue" points="206.3040041080319,156.5029712861126 218.3246691250053,107.11920119417495 "/><polyline class="polyline" opacity="0.5" stroke="blue" points="205.0613032442343,156.07484422690652 216.25558530807584,105.94148102411799 "/><polyline class="polyline" opacity="0.5" stroke="blue" points="203.81536711534568,155.6638127597077 214.18248793119633,104.79574590068765 "/><polyline class="polyline" opacity="0.5" stroke="blue" points="202.56658812332623,155.2700341241592 212.10623670549,103.68229003300961 "/><polyline class="polyline" opacity="0.5" stroke="blue" points="201.3153606499186,154.8936626377183 210.02769860480296,102.60140411261155 "/><polyline class="polyline" opacity="0.5" stroke="blue" points="200.062081094054,154.53484966575968 207.94774811620456,101.55337523578918 "/><polyline class="polyline" opacity="0.5" stroke="blue" points="198.80714790822748,154.19374358768636 205.86726748048702,100.53848680426537 "/><polyline class="polyline" opacity="0.5" stroke="blue" points="197.5509616336428,153.87048975899302 203.7871469212658,99.5570184037561 "/><polyline class="polyline" opacity="0.5" stroke="blue" points="196.2939249339239,153.56523046922655 201.70828486123986,98.60924566007027 "/><polyline class="polyline" opacity="0.5" stroke="blue" points="195.0364426271879,153.2781048957945 199.63158812413403,97.69544007237934 "/><polyline class="polyline" opacity="0.5" stroke="blue" points="193.77892171627147,153.009249053573 197.55797212080202,96.81586882330897 "/><polyline class="polyline" opacity="0.5" stroke="blue" points="192.52177141689958,152.75879574026973 195.48836101792875,95.97079456551911 "/><polyline class="polyline" opacity="0.5" stroke="blue" points="191.26540318358306,152.52687447750128 193.42368788772959,95.16047518446027 "/><polyline class="polyline" opacity="0.5" stroke="blue" points="190.01023073302838,152.3136114475464 191.3648948370012,94.38516353701377 "/><polyline class="polyline" opacity="0.5" stroke="blue" points="188.75667006483988,152.11912942574253 189.31293311383965,93.64510716575059 "/><polyline class="polyline" opacity="0.5" stroke="blue" points="187.50513947929258,151.94354770849458 187.2687631903,92.94054798857093 "/><polyline class="polyline" opacity="0.5" stroke="blue" points="186.25605959194993,151.78698203687094 185.23335481923442,92.27172196352006 "/><polyline class="polyline" opacity="0.5" stroke="blue" points="185.00985334489857,151.64954451576526 183.20768706350717,91.63885872861135 "/><polyline class="polyline" opacity="0.5" stroke="blue" points="183.7669460143694,151.53134352860735 181.19274829575124,91.04218121652848 "/><polyline class="polyline" opacity="0.5" stroke="blue" points="182.5277652145112,151.43248364761166 179.18953616679897,90.48190524412507 "/><polyline class="polyline" opacity="0.5" stroke="blue" points="181.29274089708065,151.353065539557 177.199057540889,89.95823907668621 "/><polyline class="polyline" opacity="0.5" stroke="blue" points="180.06230534681023,151.29318586709618 175.22232839572777,89.47138296697568 "/><polyline class="polyline" opacity="0.5" stroke="blue" points="178.8368931722124,151.25293718560093 173.2603736854615,89.02152866914857 "/><polyline class="polyline" opacity="0.5" stroke="blue" points="177.61694129157735,151.23240783555326 171.31422716460003,88.60885892767666 "/><polyline class="polyline" opacity="0.5" stroke="blue" points="176.4028889139182,151.23168183050024 169.38493117092074,88.23354694150385 "/><polyline class="polyline" opacity="0.5" stroke="blue" points="175.19517751461717,151.25083874059723 167.47353636538003,87.89575580372473 "/><polyline class="polyline" opacity="0.5" stroke="blue" points="173.99425080552302,151.289953571771 165.581101427059,87.59563791716434 "/><polyline class="polyline" opacity="0.5" stroke="blue" points="172.8005546992499,151.34909664054135 163.70869270118231,87.3333343863224 "/><polyline class="polyline" opacity="0.5" stroke="blue" points="171.61453726742624,151.42833344454937 161.8573837982685,87.10897438624268 "/><polyline class="polyline" opacity="0.5" stroke="blue" points="170.43664869264165,151.5277245288466 160.02825514249602,86.92267450896767 "/><polyline class="polyline" opacity="0.5" stroke="blue" points="169.26734121383893,151.64732534801004 158.2223934674102,86.77453808834674 "/><polyline class="polyline" opacity="0.5" stroke="blue" points="168.10706906489884,151.78718612415588 156.4408912571427,86.66465450407786 "/><polyline class="polyline" opacity="0.5" stroke="blue" points="166.956288406166,151.94735170093503 154.6848461313783,86.5930984659852 "/><polyline class="polyline" opacity="0.5" stroke="blue" points="165.81545724866376,152.12786139360261 152.95536017237492,86.55992927965738 "/><polyline class="polyline" opacity="0.5" stroke="blue" points="164.68503537074844,152.328748835265 151.253539192431,86.56519009470574 "/><polyline class="polyline" opacity="0.5" stroke="blue" points="163.56548422695522,152.55004181941845 149.58049194029346,86.60890713703672 "/><polyline class="polyline" opacity="0.5" stroke="blue" points="162.45726684878954,152.79176213890366 147.93732924511707,86.69108892667732 "/><polyline class="polyline" opacity="0.5" stroke="blue" points="161.36084773722183,153.05392542141396 146.3251630967142,86.81172548283871 "/><polyline class="polyline" opacity="0.5" stroke="blue" points="160.27669274664606,153.33654096170483 144.74510566098442,86.970787518056 "/><polyline class="polyline" opacity="0.5" stroke="blue" points="159.20526896006828,153.63961155066713 143.19826822957504,87.16822562339921 "/><polyline class="polyline" opacity="0.5" stroke="blue" points="158.14704455529534,153.96313330143704 141.6857601030076,87.40396944690907 "/><polyline class="polyline" opacity="0.5" stroke="blue" points="157.10248866190005,154.30709547273125 140.20868740670312,87.67792686757514 "/><polyline class="polyline" opacity="0.5" stroke="blue" points="156.07207120874628,154.6714802896071 138.76815183955873,87.98998316733821 "/><polyline class="polyline" opacity="0.5" stroke="blue" points="155.05626276186416,155.05626276186416 137.36524935496425,88.34000020376469 "/><polyline class="polyline" opacity="0.5" stroke="blue" points="154.0555343524746,155.46141050031548 136.001068774403,88.72781558620714 "/><polyline class="polyline" opacity="0.5" stroke="blue" points="153.07035729497156,155.88688353117368 134.67669033405645,89.15324185843065 "/><polyline class="polyline" opacity="0.5" stroke="blue" points="152.10120299468002,156.33263410881034 133.39318416512472,89.61606569084654 "/><polyline class="polyline" opacity="0.5" stroke="blue" points="151.14854274522054,156.7986065271637 132.15160870888812,90.11604708565861 "/><polyline class="polyline" opacity="0.5" stroke="blue" points="150.2128475153214,157.28473693008493 130.95300906786454,90.65291859837808 "/><polyline class="polyline" opacity="0.5" stroke="blue" points="149.29458772493504,157.79095312092858 129.7984152947654,91.22638457931671 "/><polyline class="polyline" opacity="0.5" stroke="blue" points="148.39423301052796,158.31717437170946 128.68884062131718,91.8361204388082 "/><polyline class="polyline" opacity="0.5" stroke="blue" points="147.5122519794306,158.86331123216428 127.62527962939643,92.48177194004028 "/><polyline class="polyline" opacity="0.5" stroke="blue" points="146.64911195314866,159.42926533907246 126.6087063673199,93.16295452350423 "/><polyline class="polyline" opacity="0.5" stroke="blue" points="145.8052786995578,160.0149292262069 125.6400724145396,93.87925266717639 "/><polyline class="polyline" opacity="0.5" stroke="blue" points="144.98121615392043,160.62018613530216 124.72030489841177,94.63021928664313 "/><polyline class="polyline" opacity="0.5" stroke="blue" points="144.17738612868465,161.24490982844395 123.85030446713556,95.41537517945974 "/><polyline class="polyline" opacity="0.5" stroke="blue" points="143.3942480120484,161.8889644022992 123.03094322339392,96.23420851809685 "/><polyline class="polyline" opacity="0.5" stroke="blue" points="142.6322584552923,162.55220410462377 122.2630626236685,97.08617439586811 "/><polyline class="polyline" opacity="0.5" stroke="blue" points="141.8918710489113,163.23447315349884 121.54747134864014,97.9706944302556 "/><polyline class="polyline" opacity="0.5" stroke="blue" points="141.173535987599,163.93560555976444 120.88494315053018,98.88715642804624 "/><polyline class="polyline" opacity="0.5" stroke="blue" points="140.47769972416694,164.65542495313264 120.27621468367052,99.8349141166654 "/><polyline class="polyline" opacity="0.5" stroke="blue" points="139.8048046125071,165.3937444124782 119.72198332502109,100.81328694603944 "/><polyline class="polyline" opacity="0.5" stroke="blue" points="139.1552885397372,166.15036630081946 119.22290499176886,101.82155996523863 "/><polyline class="polyline" opacity="0.5" stroke="blue" points="138.52958454769802,166.92508210551418 118.77959196354414,102.85898377803815 "/><polyline class="polyline" opacity="0.5" stroke="blue" points="137.92812044400296,167.7176722842113 118.39261071717335,103.92477458139518 "/><polyline class="polyline" opacity="0.5" stroke="blue" points="137.3513184028744,168.52790611710773 118.0624797822454,105.01811429066483 "/><polyline class="polyline" opacity="0.5" stroke="blue" points="136.79959455603415,169.3555415660752 117.78966762610088,106.13815075517098 "/><polyline class="polyline" opacity="0.5" stroke="blue" points="136.27335857395113,170.2003251412289 117.57459057715288,107.28399806751045 "/><polyline class="polyline" opacity="0.5" stroke="blue" points="135.773013237785,171.06199177552185 117.41761079571184,108.45473696969225 "/><polyline class="polyline" opacity="0.5" stroke="blue" points="135.29895400240147,171.94026470795592 117.31903430171074,109.64941535890993 "/><polyline class="polyline" opacity="0.5" stroke="blue" points="134.85156855087365,172.83485537600757 117.279109068905,110.86704889540249 "/><polyline class="polyline" opacity="0.5" stroke="blue" points="134.43123634092095,173.7454633178729 117.29802319525241,112.10662171448756 "/><polyline class="polyline" opacity="0.5" stroke="blue" points="134.03832814377827,174.67177608514015 117.37590315925696,113.36708724444321 "/><polyline class="polyline" opacity="0.5" stroke="blue" points="133.67320557602585,175.61346916650092 117.51281217208005,114.64736913148096 "/><polyline class="polyline" opacity="0.5" stroke="blue" points="133.33622062495334,176.57020592311238 117.70874863518958,115.94636227258601 "/><polyline class="polyline" opacity="0.5" stroke="blue" points="133.02771516806916,177.54163753622248 117.9636447132137,117.26293395650886 "/><polyline class="polyline" opacity="0.5" stroke="blue" points="132.7480204874101,178.52740296766697 118.27736503150425,118.59592511267572 "/><polyline class="polyline" opacity="0.5" stroke="blue" points="132.49745677934487,179.52712893384358 118.64970550768355,119.94415166724558 "/><polyline class="polyline" opacity="0.5" stroke="blue" points="132.2763326606077,180.5404298937616 119.08039232614837,121.30640600498505 "/><polyline class="polyline" opacity="0.5" stroke="blue" points="132.08494467133784,181.56690805175654 119.56908106413763,122.68145853505808 "/><polyline class="polyline" opacity="0.5" stroke="blue" points="131.92357677594157,182.60615337545 120.1153559775293,124.06805935824306 "/><polyline class="polyline" opacity="0.5" stroke="blue" points="131.7924998626327,183.65774362951953 120.7187294540294,125.46494003249823 "/><polyline class="polyline" opacity="0.5" stroke="blue" points="131.69197124254669,184.72124442583055 121.37864164083409,126.87081543320025 "/><polyline class="polyline" opacity="0.5" stroke="blue" points="131.62223414936116,185.79620929046283 122.09446025320935,128.28438570378734 "/><polyline class="polyline" opacity="0.5" stroke="blue" points="131.58351724039284,186.88217974814415 122.86548056972204,129.70433829195116 "/><polyline class="polyline" opacity="0.5" stroke="blue" points="131.57603410017546,187.97868542458173 123.6909256190916,131.1293500659457 "/><polyline class="polyline" opacity="0.5" stroke="blue" points="131.59998274755827,189.08524416715534 124.56994656280538,132.5580895050203 "/><polyline class="polyline" opacity="0.5" stroke="blue" points="131.65554514739551,190.20136218440967 125.50162327676492,133.9892189574477 "/><polyline class="polyline" opacity="0.5" stroke="blue" points="131.74288672792812,191.32653420475162 126.48496513430788,135.42139695910456 "/><polyline class="polyline" opacity="0.5" stroke="blue" points="131.86215590498693,192.46024365472553 127.51891199198329,136.85328060508283 "/><polyline class="polyline" opacity="0.5" stroke="blue" points="132.01348361417053,193.60196285720426 128.60233537846074,138.28352796636534 "/><polyline class="polyline" opacity="0.5" stroke="blue" points="132.196982852176,194.75115324979436 129.73403988592844,139.7108005431976 "/><polyline class="polyline" opacity="0.5" stroke="blue" points="132.41274822847816,195.907265623714 130.91276476228688,141.13376574642876 "/><polyline class="polyline" opacity="0.5" stroke="blue" points="132.6608555285716,197.06974038335787 132.13718570139116,142.5510993977892 "/><polyline class="polyline" opacity="0.5" stroke="blue" points="132.94136129000213,198.23800782671813 133.40591682753222,143.96148823981406 "/><polyline class="polyline" opacity="0.5" stroke="blue" points="133.2543023924245,199.41148844678213 134.7175128692939,145.36363244592746 "/><polyline class="polyline" opacity="0.5" stroke="blue" points="133.59969566293015,200.58959325397657 136.07047151688326,146.7562481210599 "/><polyline class="polyline" opacity="0.5" stroke="blue" points="133.97753749788922,201.77172411967615 137.46323595601297,148.13806978309447 "/><polyline class="polyline" opacity="0.5" stroke="blue" points="134.38780350255254,202.9572741407391 138.89419757043163,149.50785281542284 "/><polyline class="polyline" opacity="0.5" stroke="blue" points="134.83044814964967,204.14562802497588 140.36169880425203,150.86437588093972 "/><polyline class="polyline" opacity="0.5" stroke="blue" points="135.3054044582118,205.33616249739939 141.8640361743321,152.20644328791775 "/><polyline class="polyline" opacity="0.5" stroke="blue" points="135.81258369383195,206.5282467270443 143.39946342212545,153.53288729838243 "/><polyline class="polyline" opacity="0.5" stroke="blue" points="136.35187509155634,207.7212427740824 144.96619479364145,154.84257036984573 "/><polyline class="polyline" opacity="0.5" stroke="blue" points="136.9231456025754,208.9145060568992 146.56240843545328,156.13438732155896 "/><polyline class="polyline" opacity="0.5" stroke="blue" points="137.52623966585597,210.1073858387318 148.18624989406362,157.40726741680703 "/><polyline class="polyline" opacity="0.5" stroke="blue" points="138.16097900582068,211.2992257334063 149.83583570539435,158.66017635318175 "/><polyline class="polyline" opacity="0.5" stroke="blue" points="138.82716245714272,212.48936422964695 151.50925706070933,159.89211815324452 "/><polyline class="polyline" opacity="0.5" stroke="blue" points="139.52456581768115,213.67713523336494 153.20458353491182,161.10213694850614 "/><polyline class="polyline" opacity="0.5" stroke="blue" points="140.25294173053226,214.8618686272708 154.91986686288618,162.28931865021852 "/><polyline class="polyline" opacity="0.5" stroke="blue" points="141.01201959612035,216.04289084708952 156.65314474937526,163.45279250107447 "/><polyline class="polyline" opacity="0.5" stroke="blue" points="141.8015055151938,217.21952547359365 158.40244469780347,164.59173250255452 "/><polyline class="polyline" opacity="0.5" stroke="blue" points="142.62108226352802,218.39109383960806 160.1657878434705,165.70535871332476 "/><polyline class="polyline" opacity="0.5" stroke="blue" points="143.4704092990715,219.55691565107793 161.94119277665018,166.7929384147842 "/><polyline class="polyline" opacity="0.5" stroke="blue" points="144.3491228021995,220.71630962123143 163.7266793413323,167.85378714056867 "/><polyline class="polyline" opacity="0.5" stroke="blue" points="145.25683574966328,221.86859411681164 165.52027239563807,168.88726956753982 "/><polyline class="polyline" opacity="0.5" stroke="blue" points="146.1931380227443,223.0130878152952 167.32000552031954,169.89280026651355 "/><polyline class="polyline" opacity="0.5" stroke="blue" points="147.15759655003978,224.1491103719633 169.12392466221476,170.86984431171024 "/><polyline class="polyline" opacity="0.5" stroke="blue" points="148.14975548521778,225.27598309563848 170.93009170006897,171.81791774862683 "/><polyline class="polyline" opacity="0.5" stroke="blue" points="149.1691364199925,226.39302963185463 172.73658792074065,172.73658792074067 "/><polyline class="polyline" opacity="0.5" stroke="blue" points="150.2152386324749,227.49957665218244 174.54151739448432,173.62547365614378 "/><polyline class="polyline" opacity="0.5" stroke="blue" points="151.28753937096226,228.59495454839322 176.34301023873388,174.4842453158757 "/><polyline class="polyline" opacity="0.5" stroke="blue" points="152.38549417312873,229.67849813010534 178.13922576058866,175.31262470636165 "/><polyline class="polyline" opacity="0.5" stroke="blue" points="153.50853722048436,230.7495473245281 179.92835546903004,176.11038485897384 "/><polyline class="polyline" opacity="0.5" stroke="blue" points="154.65608172786605,231.80744787688667 181.70862594875223,176.8773496803052 "/><polyline class="polyline" opacity="0.5" stroke="blue" points="155.82752036762534,232.85155205009036 183.47830158837758,177.6133934772791 "/><polyline class="polyline" opacity="0.5" stroke="blue" points="157.0222257280744,233.8812193221866 185.23568715672835,178.3184403617126 "/><polyline class="polyline" opacity="0.5" stroke="blue" points="158.23955080565153,234.89581708012992 186.97913022174413,178.9924635393954 "/><polyline class="polyline" opacity="0.5" stroke="blue" points="159.47882953016455,235.8947213083859 188.70702340755182,179.63548448915105 "/><polyline class="polyline" opacity="0.5" stroke="blue" points="160.7393773223716,236.87731727088715 190.41780648611063,180.24757203769772 "/><polyline class="polyline" opacity="0.5" stroke="blue" points="162.02049168305925,237.8430001848593 192.10996830075956,180.8288413364326 "/><polyline class="polyline" opacity="0.5" stroke="blue" points="163.3214528126799,238.79117588504346 193.78204851988258,181.3794527465182 "/><polyline class="polyline" opacity="0.5" stroke="blue" points="164.6415242605177,239.72126147685276 195.4326392197716,181.8996106388565 "/><polyline class="polyline" opacity="0.5" stroke="blue" points="165.97995360225724,240.63268597701966 197.06038629660273,182.38956211569365 "/><polyline class="polyline" opacity="0.5" stroke="blue" points="167.33597314474326,241.52489094031353 198.66399070824403,182.8495956607091 "/><polyline class="polyline" opacity="0.5" stroke="blue" points="168.70880065663204,242.3973310709366 200.24220954737604,183.28003972450784 "/><polyline class="polyline" opacity="0.5" stroke="blue" points="170.09764012355495,243.24947481724118 201.79385694812757,183.6812612524522 "/><polyline class="polyline" opacity="0.5" stroke="blue" points="171.50168252633827,244.080804948449 203.3178048291063,184.05366416174888 "/><polyline class="polyline" opacity="0.5" stroke="blue" points="172.92010664074985,244.8908191120987 204.81298347632872,184.39768777464235 "/><polyline class="polyline" opacity="0.5" stroke="blue" points="174.3520798571782,245.67903037099552 206.27838197013307,184.7138052144651 "/><polyline class="polyline" opacity="0.5" stroke="blue" points="175.79675901858724,246.4449677184922 207.7130484606811,185.0025217711609 "/><polyline class="polyline" opacity="0.5" stroke="blue" points="177.25329127503412,247.18817657098606 209.11609029712835,185.2643732427264 "/><polyline class="polyline" opacity="0.5" stroke="blue" points="178.72081495298963,247.90821923658206 210.48667401595745,185.49992425882303 "/><polyline class="polyline" opacity="0.5" stroke="blue" points="180.19846043765605,248.60467535893497 211.82402519433546,185.70976659258454 "/><polyline class="polyline" opacity="0.5" stroke="blue" points="181.68535106644129,249.27714233535573 213.12742817466483,185.89451746640287 "/><polyline class="polyline" opacity="0.5" stroke="blue" points="183.18060403171864,249.9252357083388 214.3962256667578,186.05481785720622 "/><polyline class="polyline" opacity="0.5" stroke="blue" points="184.68333129097783,250.54858952974354 215.62981823426912,186.1913308064628 "/><polyline class="polyline" opacity="0.5" stroke="blue" points="186.19264048245694,251.14685669694137 216.82766367218224,186.30473973984653 "/><polyline class="polyline" opacity="0.5" stroke="blue" points="187.70763584433587,251.7197092603211 217.98927628225235,186.39574680119398 "/><polyline class="polyline" opacity="0.5" stroke="blue" points="189.22741913556928,252.2668387016273 219.11422605337665,186.46507120506624 "/><polyline class="polyline" opacity="0.5" stroke="blue" points="190.75109055644197,252.78795618269103 220.20213775388325,186.51344761191035 "/><polyline class="polyline" opacity="0.5" stroke="blue" points="192.27774966694054,253.28279276419727 221.25268994271258,186.5416245294902 "/><polyline class="polyline" opacity="0.5" stroke="blue" points="193.8064963010551,253.75109959421974 222.26561390641126,186.55036274393456 "/><polyline class="polyline" opacity="0.5" stroke="blue" points="195.33643147514707,254.1926480663392 223.24069252876615,186.54043378342763 "/><polyline class="polyline" opacity="0.5" stroke="blue" points="196.8666582885534,254.60722994724867 224.17775909978764,186.51261841725042 "/><polyline class="polyline" opacity="0.5" stroke="blue" points="198.3962828146334,254.99465747383366 225.07669607059924,186.46770519256827 "/><polyline class="polyline" opacity="0.5" stroke="blue" points="199.9244149805084,255.35476341980137 225.93743376061582,186.40648901105732 "/><polyline class="polyline" opacity="0.5" stroke="blue" points="201.45016943379468,255.6874011320158 226.75994902319454,186.32976974716493 "/><polyline class="polyline" opacity="0.5" stroke="blue" points="202.97266639468452,255.99244453677858 227.5442638757241,186.23835090951607 "/><polyline class="polyline" opacity="0.5" stroke="blue" points="204.4910324917899,256.26978811637457 228.29044409988293,186.13303834670197 "/><polyline class="polyline" opacity="0.5" stroke="blue" points="206.0044015802296,256.5193468562805 228.99859781754756,186.0146389984272 "/><polyline class="polyline" opacity="0.5" stroke="blue" points="207.51191554050848,256.74105616350977 229.6688740475716,185.88395969274205 "/><polyline class="polyline" opacity="0.5" stroke="blue" points="209.01272505681212,256.93487175663876 230.3014612483856,185.74180598985316 "/><polyline class="polyline" opacity="0.5" stroke="blue" points="210.50599037341655,257.1007695281309 230.89658585109112,185.5889810727839 "/><polyline class="polyline" opacity="0.5" stroke="blue" points="211.99088202799354,257.2387453796394 231.45451078744105,185.42628468495127 "/><polyline class="polyline" opacity="0.5" stroke="blue" points="213.46658156067528,257.34881503103315 231.97553401681458,185.25451211453353 "/><polyline class="polyline" opacity="0.5" stroke="blue" points="214.9322821978269,257.4310138039492 232.45998705601045,185.07445322532777 "/><polyline class="polyline" opacity="0.5" stroke="blue" points="216.38718950956547,257.48539638072936 232.90823351539947,184.88689153363336 "/><polyline class="polyline" opacity="0.5" stroke="blue" points="217.83052204014928,257.51203653965007 233.32066764469593,184.69260333055183 "/><polyline class="polyline" opacity="0.5" stroke="blue" points="219.2615119104568,257.5110268674008 233.69771289133337,184.4923568489596 "/><polyline class="polyline" opacity="0.5" stroke="blue" points="220.67940539186057,257.4824784498087 234.03982047415676,184.28691147429242 "/><polyline class="polyline" opacity="0.5" stroke="blue" points="222.08346345089768,257.4265205418449 234.34746797488256,184.07701699817477 "/><polyline class="polyline" opacity="0.5" stroke="blue" points="223.4729622642255,257.3433002179812 234.62115794951893,183.8634129138366 "/><polyline class="polyline" opacity="0.5" stroke="blue" points="224.8471937034453,257.2329820039952 234.86141656169286,183.6468277521803 "/><polyline class="polyline" opacity="0.5" stroke="blue" points="226.20546578946636,257.0957474913454 235.06879223959191,183.4279784572943 "/><polyline class="polyline" opacity="0.5" stroke="blue" points="227.547103116169,256.93179493525963 235.24385435799957,183.20756980015597 "/><polyline class="polyline" opacity="0.5" stroke="blue" points="228.87144724321698,256.74133883769275 235.38719194668545,182.9862938292207 "/><polyline class="polyline" opacity="0.5" stroke="blue" points="230.17785705795106,256.5246095163236 235.49941242620488,182.76482935656304 "/><polyline class="polyline" opacity="0.5" stroke="blue" points="231.46570910638167,256.28185266076713 235.58114037196503,182.5438414782106 "/><polyline class="polyline" opacity="0.5" stroke="blue" points="232.73439789337738,256.0133288771795 235.63301630723043,182.32398112729913 "/><polyline class="polyline" opacity="0.5" stroke="blue" points="233.98333615222685,255.71931322243387 235.65569552556775,182.10588465867025 "/><polyline class="polyline" opacity="0.5" stroke="blue" points="235.2119550838227,255.40009472903927 235.64984694306574,181.89017346353725 "/><polyline class="polyline" opacity="0.5" stroke="blue" points="236.4197045657936,255.0559759219655 235.61615198051757,181.67745361285364 "/><polyline class="polyline" opacity="0.5" stroke="blue" points="237.60605333197412,254.6872723285249 235.5553034756109,181.46831552803692 "/><polyline class="polyline" opacity="0.5" stroke="blue" points="238.77048912267082,254.29431198244637 235.4680046250446,181.26333367772241 "/><polyline class="polyline" opacity="0.5" stroke="blue" points="239.9125188062431,253.87743492325706 235.35496795637158,181.0630662992515 "/><polyline class="polyline" opacity="0.5" stroke="blue" points="241.03166847257475,253.4369926920661 235.21691432926173,180.86805514363292 "/><polyline class="polyline" opacity="0.5" stroke="blue" points="242.12748349906823,252.9733478248188 235.05457196578107,180.6788252427533 "/><polyline class="polyline" opacity="0.5" stroke="blue" points="243.19952858984055,252.48687334406344 234.86867550919789,180.49588469765683 "/><polyline class="polyline" opacity="0.5" stroke="blue" points="244.24738778884895,251.97795225024186 234.65996511074908,180.31972448676075 "/><polyline class="polyline" opacity="0.5" stroke="blue" points="245.27066446771371,251.4469770134839 234.42918554373284,180.15081829292103 "/><polyline class="polyline" opacity="0.5" stroke="blue" points="246.26898128904674,250.89434906685074 234.17708534423602,179.989622348317 "/><polyline class="polyline" opacity="0.5" stroke="blue" points="247.2419801461245,250.32047830193798 233.90441597775404,179.836575296176 "/><polyline class="polyline" opacity="0.5" stroke="blue" points="248.18932207977906,249.72578256771018 233.61193103092097,179.69209806841812 "/><polyline class="polyline" opacity="0.5" stroke="blue" points="249.11068717340183,249.11068717340183 233.30038542753323,179.55659377835576 "/><polyline class="polyline" opacity="0.5" stroke="blue" points="250.00577442698193,248.4756243962787 232.97053466802527,179.43044762764458 "/><polyline class="polyline" opacity="0.5" stroke="blue" points="250.87430161111632,247.8210329950138 232.62313409153694,179.31402682674047 "/><polyline class="polyline" opacity="0.5" stroke="blue" points="251.71600510194506,247.14735772939025 232.25893815969934,179.20768052817857 "/><polyline class="polyline" opacity="0.5" stroke="blue" points="252.53063969797694,246.45504888700262 231.8786997612628,179.11173977204993 "/><polyline class="polyline" opacity="0.5" stroke="blue" points="253.31797841977811,245.74456181758438 231.48316953668885,179.02651744311248 "/><polyline class="polyline" opacity="0.5" stroke="blue" points="254.0778122935011,245.01635647554923 231.07309522183618,178.95230823903336 "/><polyline class="polyline" opacity="0.5" stroke="blue" points="254.8099501192329,244.27089697128955 230.6492210098816,178.88938864931777 "/><polyline class="polyline" opacity="0.5" stroke="blue" points="255.51421822514095,243.50865113173444 230.21228693063313,178.8380169445404 "/><polyline class="polyline" opacity="0.5" stroke="blue" points="256.1904602083887,242.73009007062794 229.76302824641547,178.79843317555117 "/><polyline class="polyline" opacity="0.5" stroke="blue" points="256.8385366637879,241.9356877689461 229.3021748637308,178.7708591823841 "/><polyline class="polyline" opacity="0.5" stroke="blue" points="257.4583249011448,241.1259206658318 228.83045075993107,178.75549861265392 "/><polyline class="polyline" opacity="0.5" stroke="blue" points="258.0497186522432,240.3012672603849 228.34857342416763,178.75253694927738 "/><polyline class="polyline" opacity="0.5" stroke="blue" points="258.6126277683968,239.4622077246075 227.8572533119238,178.76214154740788 "/><polyline class="polyline" opacity="0.5" stroke="blue" points="259.1469779094839,238.6092235277652 227.35719331247367,178.7844616805224 "/><polyline class="polyline" opacity="0.5" stroke="blue" points="259.6527102253615,237.74279707238782 226.8490882286538,178.8196285956466 "/><polyline class="polyline" opacity="0.5" stroke="blue" points="260.1297810305341,236.86341134209653 226.3336242683796,178.86775557774925 "/><polyline class="polyline" opacity="0.5" stroke="blue" points="260.578161472933,235.97154956141128 225.81147854738504,178.9289380233805 "/><polyline class="polyline" opacity="0.5" stroke="blue" points="260.99783719763855,235.06769486765586 225.28331860271425,179.00325352366823 "/><polyline class="polyline" opacity="0.5" stroke="blue" points="261.3888080063519,234.15232999504738 224.74980191654322,179.09076195682488 "/><polyline class="polyline" opacity="0.5" stroke="blue" points="261.7510875134011,233.22593697102576 224.2115754499641,179.19150559035165 "/><polyline class="polyline" opacity="0.5" stroke="blue" points="262.08470279903753,232.28899682484706 223.66927518641583,179.30550919315962 "/><polyline class="polyline" opacity="0.5" stroke="blue" points="262.38969406075233,231.34198930843928 223.12352568450171,179.43278015785575 "/><polyline class="polyline" opacity="0.5" stroke="blue" points="262.66611426331633,230.38539262948876 222.57493963998724,179.5733086334678 "/><polyline class="polyline" opacity="0.5" stroke="blue" points="262.9140287882169,229.41968319670278 222.02411745682917,179.72706766890576 "/><polyline class="polyline" opacity="0.5" stroke="blue" points="263.1335150831389,228.44533537716728 221.4716468271408,179.89401336747528 "/><polyline class="polyline" opacity="0.5" stroke="blue" points="263.32466231210503,227.46282126569798 220.91810232005557,180.07408505277684 "/><polyline class="polyline" opacity="0.5" stroke="blue" points="263.48757100686646,226.47261046605973 220.3640449795047,180.2672054463352 "/><polyline class="polyline" opacity="0.5" stroke="blue" points="263.6223527200999,225.47516988391175 219.81002193098175,180.4732808573142 "/><polyline class="polyline" opacity="0.5" stroke="blue" points="263.72912968094477,224.47096353131414 219.2565659974176,180.69220138467765 "/><polyline class="polyline" opacity="0.5" stroke="blue" points="263.80803445337847,223.46045234261834 218.70419532434605,180.92384113215832 "/><polyline class="polyline" opacity="0.5" stroke="blue" points="263.85920959790593,222.44409400154407 218.15341301458872,181.1680584363969 "/><polyline class="polyline" opacity="0.5" stroke="blue" points="263.88280733700526,221.42234277923424 217.60470677274,181.42469610860678 "/><polyline class="polyline" opacity="0.5" stroke="blue" points="263.8789892247482,220.39564938306364 217.05854855978026,181.6935816901125 "/><polyline class="polyline" opacity="0.5" stroke="blue" points="263.84792582098197,219.36446081596682 216.51539425819226,181.97452772209675 "/><polyline class="polyline" opacity="0.5" stroke="blue" points="263.78979637043784,218.32922024603917 215.97568334800016,182.26733202987563 "/><polyline class="polyline" opacity="0.5" stroke="blue" points="263.7047884870988,217.29036688615514 215.4398385941915,182.57177802200178 "/><polyline class="polyline" opacity="0.5" stroke="blue" points="263.59309784413813,216.24833588334047 214.90826574602264,182.88763500447226 "/><polyline class="polyline" opacity="0.5" stroke="blue" points="263.4549278697119,215.20355821762575 214.38135324874332,183.2146585102912 "/><polyline class="polyline" opacity="0.5" stroke="blue" points="263.2904894488675,214.1564606101049 213.85947196831083,183.55259064460773 "/><polyline class="polyline" opacity="0.5" stroke="blue" points="263.100000631801,213.1074654399138 213.34297492969182,183.90116044561583 "/><polyline class="polyline" opacity="0.5" stroke="blue" points="262.88368634868027,212.0569906698432 212.83219706937885,184.26008426136664 "/><polyline class="polyline" opacity="0.5" stroke="blue" points="262.64177813122126,211.00544978029257 212.32745500276923,184.6290661426042 "/><polyline class="polyline" opacity="0.5" stroke="blue" points="262.3745138411887,209.953251711273 211.82904680707497,185.0077982516921 "/><polyline class="polyline" opacity="0.5" stroke="blue" points="262.08213740596887,208.90080081216158 211.33725182044537,185.39596128765476 "/><polyline class="polyline" opacity="0.5" stroke="blue" points="261.7648985613434,207.84849679891158 210.8523304579969,185.79322492730734 "/><polyline class="polyline" opacity="0.5" stroke="blue" points="261.4230526015731,206.79673471841963 210.37452404545007,186.19924828239874 "/><polyline class="polyline" opacity="0.5" stroke="blue" points="261.0568601368831,205.74590491975388 209.90405467107615,186.6136803726395 "/><polyline class="polyline" opacity="0.5" stroke="blue" points="260.66658685842356,204.6963930319453 209.44112505665487,187.03616061443128 "/><polyline class="polyline" opacity="0.5" stroke="blue" points="260.25250331076194,203.64857994804794 208.98591844813606,187.46631932505835 "/><polyline class="polyline" opacity="0.5" stroke="blue" points="259.81488467194845,202.60284181517463 208.53859852668955,187.9037782420436 "/><polyline class="polyline" opacity="0.5" stroke="blue" points="259.3540105411811,201.55955003021649 208.09930934080893,188.34815105731255 "/><polyline class="polyline" opacity="0.5" stroke="blue" points="258.8701647340813,200.51907124095916 207.66817526011732,188.7990439657485 "/><polyline class="polyline" opacity="0.5" stroke="blue" points="258.3636350855785,199.48176735231024 207.24530095149612,189.2560562276611 "/><polyline class="polyline" opacity="0.5" stroke="blue" points="257.8347132603901,198.44799553735658 206.83077137812958,189.71878074463012 "/><polyline class="polyline" opacity="0.5" stroke="blue" points="257.2836945710681,197.41810825297392 206.42465182202352,190.18680464812473 "/><polyline class="polyline" opacity="0.5" stroke="blue" points="256.710877803577,196.3924532597162 206.02698793051823,190.65970990023757 "/><polyline class="polyline" opacity="0.5" stroke="blue" points="256.1165650503518,195.37137364571456 205.63780578727332,191.1370739058141 "/><polyline class="polyline" opacity="0.5" stroke="blue" points="255.50106155078032,194.35520785432294 205.25711200815505,191.61847013519645 "/><polyline class="polyline" opacity="0.5" stroke="blue" points="254.86467553903867,193.34428971525008 204.8848938624065,192.10346875674625 "/><polyline class="polyline" opacity="0.5" stroke="blue" points="254.20771809920686,192.3389484789243 204.52111941942607,192.59163727825194 "/><polyline class="polyline" opacity="0.5" stroke="blue" points="253.53050302757686,191.33950885384098 204.16573772142246,193.0825411962744 "/><polyline class="polyline" opacity="0.5" stroke="blue" points="252.83334670206312,190.3462910466497 203.81867898215202,193.57574465243187 "/><polyline class="polyline" opacity="0.5" stroke="blue" points="252.11656795861524,189.35961080474203 203.47985481188175,194.07081109557677 "/><polyline class="polyline" opacity="0.5" stroke="blue" points="251.38048797452754,188.37977946110635 203.14915846865188,194.56730394877147 "/><polyline class="polyline" opacity="0.5" stroke="blue" points="250.62543015853478,187.40710398122306 202.82646513584547,195.06478727992643 "/><polyline class="polyline" opacity="0.5" stroke="blue" points="249.85172004757595,186.44188701177632 202.51163222599862,195.56282647492722 "/><polyline class="polyline" opacity="0.5" stroke="blue" points="249.05968521010556,185.4844269309674 202.20449971071275,196.0609889120398 "/><polyline class="polyline" opacity="0.5" stroke="blue" points="248.24965515582483,184.5350179002163 201.9048904764564,196.5588446363548 "/><polyline class="polyline" opacity="0.5" stroke="blue" points="247.42196125170338,183.59394991704738 201.61261070596743,197.05596703300338 "/><polyline class="polyline" opacity="0.5" stroke="blue" points="246.57693664415604,182.6615088689572 201.3274502848915,197.55193349785736 "/><polyline class="polyline" opacity="0.5" stroke="blue" points="245.71491618723778,181.73797658807032 201.0491832332162,198.04632610440754 "/><polyline class="polyline" opacity="0.5" stroke="blue" points="244.83623637671536,180.8236309063919 200.77756816098372,198.53873226550436 "/><polyline class="polyline" opacity="0.5" stroke="blue" points="243.94123528987276,179.91874571147386 200.51234874769116,199.0287453886367 "/><polyline class="polyline" opacity="0.5" stroke="blue" points="243.0302525309029,179.02359100231286 200.25325424471194,199.51596552342392 "/><polyline class="polyline" opacity="0.5" stroke="blue" points="242.10362918173922,178.13843294530747 200.0,200.0 "/><polyline class="polyline" opacity="0.5" stroke="blue" points="241.16170775817477,177.26353393010294 199.75228800426754,200.480464056978 "/><polyline class="polyline" opacity="0.5" stroke="blue" points="240.20483217111763,176.39915262515873 199.5098074577585,200.95698145769754 "/><polyline class="polyline" opacity="0.5" stroke="blue" points="239.2333476928292,175.54554403288003 199.27223535667466,201.42918509347743 "/><polyline class="polyline" opacity="0.5" stroke="blue" points="238.2476009279889,174.70295954415417 199.0392370982479,201.89671757262195 "/><polyline class="polyline" opacity="0.5" stroke="blue" points="237.2479397894301,173.87164699214355 198.81046710339373,202.35923179395914 "/><polyline class="polyline" opacity="0.5" stroke="blue" points="236.23471347838853,173.05185070518536 198.5855694558252,202.81639150372436 "/><polyline class="polyline" opacity="0.5" stroke="blue" points="235.20827246910596,172.24381155865677 198.364178556455,203.26787183464415 "/><polyline class="polyline" opacity="0.5" stroke="blue" points="234.1689684976276,171.44776702566466 198.14591979186682,203.71335982611987 "/><polyline class="polyline" opacity="0.5" stroke="blue" points="233.1171545546354,170.66395122642658 197.93041021559458,204.15255492446002 "/><polyline class="polyline" opacity="0.5" stroke="blue" points="232.05318488215335,169.89259497620955 197.71725924091044,204.58516946216528 "/><polyline class="polyline" opacity="0.5" stroke="blue" points="230.97741497396584,169.1339258317003 197.50606934379036,205.0109291153272 "/><polyline class="polyline" opacity="0.5" stroke="blue" points="229.89020157958373,168.38816813568152 197.29643677469906,205.42957333826385 "/><polyline class="polyline" opacity="0.5" stroke="blue" points="228.79190271159774,167.65554305989377 197.08795227781383,205.84085577458092 "/><polyline class="polyline" opacity="0.5" stroke="blue" points="227.68287765625308,166.93626864596476 196.8802018162912,206.24454464391454 "/><polyline class="polyline" opacity="0.5" stroke="blue" points="226.56348698708254,166.2305598442918 196.67276730216935,206.64042310368347 "/><polyline class="polyline" opacity="0.5" stroke="blue" points="225.43409258143237,165.5386285507658 196.46522732949444,207.02828958525131 "/><polyline class="polyline" opacity="0.5" stroke="blue" points="224.2950576397151,164.8606836412271 196.25715790925932,207.40795810397444 "/><polyline class="polyline" opacity="0.5" stroke="blue" points="223.14674670722343,164.1969310035493 196.04813320474963,207.77925854268824 "/><polyline class="polyline" opacity="0.5" stroke="blue" points="221.98952569833727,163.54757356724556 195.83772626590377,208.1420369082625 "/><polyline class="polyline" opacity="0.5" stroke="blue" points="220.82376192295723,162.91281133049844 195.62550976131092,208.496155560934 "/><polyline class="polyline" opacity="0.5" stroke="blue" points="219.64982411499398,162.29284138451482 195.41105670649262,208.84149341620537 "/><polyline class="polyline" opacity="0.5" stroke="blue" points="218.46808246274566,161.68785793510986 195.1939411871423,209.1779461191758 "/><polyline class="polyline" opacity="0.5" stroke="blue" points="217.27890864099072,161.09805232142776 194.97373907602898,209.50542619124997 "/><polyline class="polyline" opacity="0.5" stroke="blue" points="216.08267584462627,160.52361303170758 194.7500287423086,209.82386314924656 "/><polyline class="polyline" opacity="0.5" stroke="blue" points="214.87975882367664,159.96472571600623 194.52239175202803,210.1332035970064 "/><polyline class="polyline" opacity="0.5" stroke="blue" points="213.6705339195004,159.4215731957921 194.2904135586537,210.43341128967273 "/><polyline class="polyline" opacity="0.5" stroke="blue" points="212.45537910201767,158.89433547032502 194.0536841825048,210.72446717089076 "/><polyline class="polyline" opacity="0.5" stroke="blue" points="211.23467400778273,158.3831897197414 193.81179887802637,211.00636938324234 "/><polyline class="polyline" opacity="0.5" stroke="blue" points="210.00879997872138,157.88831030476368 193.56435878789262,211.2791332523007 "/><polyline class="polyline" opacity="0.5" stroke="blue" points="208.77814010135404,157.4098687629575 193.31097158299178,211.5427912447538 "/><polyline class="polyline" opacity="0.5" stroke="blue" points="207.543079246322,156.94803380146107 193.05125208740486,211.79739290110788 "/><polyline class="polyline" opacity="0.5" stroke="blue" points="206.30400410803196,156.50297128611265 192.78482288755595,212.04300474353983 "/><polyline class="polyline" opacity="0.5" stroke="blue" points="205.06130324423438,156.07484422690658 192.51131492477714,212.27971015952215 "/><polyline class="polyline" opacity="0.5" stroke="blue" points="203.81536711534574,155.6638127597077 192.23036807060004,212.5076092618952 "/><polyline class="polyline" opacity="0.5" stroke="blue" points="202.5665881233263,155.27003412415922 191.94163168415335,212.72681872610747 "/><polyline class="polyline" opacity="0.5" stroke="blue" points="201.31536064991866,154.89366263771834 191.64476515111664,212.937471605388 "/><polyline class="polyline" opacity="0.5" stroke="blue" points="200.0620810940541,154.5348496657597 191.33943840375022,213.13971712465295 "/><polyline class="polyline" opacity="0.5" stroke="blue" points="198.80714790822753,154.19374358768636 191.0253324215905,213.33372045398204 "/><polyline class="polyline" opacity="0.5" stroke="blue" points="197.55096163364288,153.87048975899302 190.70213971247102,213.5196624625308 "/><polyline class="polyline" opacity="0.5" stroke="blue" points="196.29392493392396,153.56523046922655 190.3695647735975,213.69773945376875 "/><polyline class="polyline" opacity="0.5" stroke="blue" points="195.036442627188,153.2781048957945 190.02732453247364,213.86816288295555 "/><polyline class="polyline" opacity="0.5" stroke="blue" points="193.77892171627153,153.009249053573 189.67514876754194,214.0311590577817 "/><polyline class="polyline" opacity="0.5" stroke="blue" points="192.52177141689964,152.75879574026976 189.31278050846788,214.18696882311363 "/><polyline class="polyline" opacity="0.5" stroke="blue" points="191.26540318358315,152.52687447750128 188.9399764160604,214.33584723078977 "/><polyline class="polyline" opacity="0.5" stroke="blue" points="190.01023073302844,152.3136114475464 188.55650714188275,214.4780631954176 "/><polyline class="polyline" opacity="0.5" stroke="blue" points="188.75667006483997,152.11912942574253 188.16215766766598,214.6138991371205 "/><polyline class="polyline" opacity="0.5" stroke="blue" points="187.50513947929267,151.9435477084946 187.7567276246952,214.74365061217904 "/><polyline class="polyline" opacity="0.5" stroke="blue" points="186.25605959195002,151.786982036871 187.3400315933916,214.86762593250123 "/><polyline class="polyline" opacity="0.5" stroke="blue" points="185.00985334489863,151.64954451576529 186.911899383364,214.98614577484557 "/><polyline class="polyline" opacity="0.5" stroke="blue" points="183.7669460143695,151.53134352860735 186.4721762942527,215.09954278070276 "/><polyline class="polyline" opacity="0.5" stroke="blue" points="182.52776521451125,151.43248364761166 186.0207233577308,215.2081611477238 "/><polyline class="polyline" opacity="0.5" stroke="blue" points="181.29274089708076,151.353065539557 185.5574175610718,215.31235621355933 "/><polyline class="polyline" opacity="0.5" stroke="blue" points="180.0623053468103,151.29318586709618 185.08215205272828,215.412494032949 "/><polyline class="polyline" opacity="0.5" stroke="blue" points="178.83689317221248,151.25293718560093 184.5948363304022,215.50895094887233 "/><polyline class="polyline" opacity="0.5" stroke="blue" points="177.61694129157738,151.23240783555326 184.09539641211634,215.60211315854008 "/><polyline class="polyline" opacity="0.5" stroke="blue" points="176.40288891391825,151.2316818305002 183.5837749908266,215.69237627497427 "/><polyline class="polyline" opacity="0.5" stroke="blue" points="175.19517751461728,151.25083874059726 183.05993157313446,215.78014488488674 "/><polyline class="polyline" opacity="0.5" stroke="blue" points="173.99425080552308,151.28995357177098 182.52384260268303,215.865832103532 "/><polyline class="polyline" opacity="0.5" stroke="blue" points="172.80055469924997,151.34909664054135 181.97550156883358,215.94985912716896 "/><polyline class="polyline" opacity="0.5" stroke="blue" points="171.6145372674263,151.42833344454937 181.41491910123324,216.03265478372668 "/><polyline class="polyline" opacity="0.5" stroke="blue" points="170.43664869264177,151.5277245288466 180.842123050895,216.11465508222796 "/><polyline class="polyline" opacity="0.5" stroke="blue" points="169.26734121383896,151.64732534800999 180.2571585584145,216.196302761482 "/><polyline class="polyline" opacity="0.5" stroke="blue" points="168.10706906489892,151.78718612415588 179.6600881099534,216.278046838513 "/><polyline class="polyline" opacity="0.5" stroke="blue" points="166.9562884061661,151.94735170093503 179.0509915816157,216.36034215714932 "/><polyline class="polyline" opacity="0.5" stroke="blue" points="165.81545724866385,152.1278613936026 178.4299662728412,216.44364893715178 "/><polyline class="polyline" opacity="0.5" stroke="blue" points="164.6850353707485,152.328748835265 177.79712692943147,216.52843232421628 "/><polyline class="polyline" opacity="0.5" stroke="blue" points="163.56548422695528,152.55004181941842 177.15260575681458,216.6151619411406 "/><polyline class="polyline" opacity="0.5" stroke="blue" points="162.45726684878957,152.79176213890366 176.49655242414033,216.70431144040103 "/><polyline class="polyline" opacity="0.5" stroke="blue" points="161.3608477372219,153.05392542141394 175.8291340597827,216.79635805834027 "/><polyline class="polyline" opacity="0.5" stroke="blue" points="160.2766927466461,153.33654096170483 175.1505352388057,216.89178217112428 "/><polyline class="polyline" opacity="0.5" stroke="blue" points="159.20526896006834,153.6396115506671 174.46095796292977,216.991066852583 "/><polyline class="polyline" opacity="0.5" stroke="blue" points="158.14704455529545,153.96313330143704 173.76062163350835,217.0946974340068 "/><polyline class="polyline" opacity="0.5" stroke="blue" points="157.10248866190014,154.30709547273125 173.04976301800102,217.20316106592992 "/><polyline class="polyline" opacity="0.5" stroke="blue" points="156.07207120874637,154.67148028960708 172.3286362103989,217.31694628189157 "/><polyline class="polyline" opacity="0.5" stroke="blue" points="155.05626276186416,155.05626276186416 171.59751258602728,217.43654256412594 "/><polyline class="polyline" opacity="0.5" stroke="blue" points="154.0555343524747,155.46141050031545 170.85668075111835,217.56243991109417 "/><polyline class="polyline" opacity="0.5" stroke="blue" points="153.0703572949716,155.88688353117368 170.10644648751045,217.69512840673596 "/><polyline class="polyline" opacity="0.5" stroke="blue" points="152.10120299468008,156.33263410881028 169.3471326927956,217.83509779128178 "/><polyline class="polyline" opacity="0.5" stroke="blue" points="151.14854274522057,156.79860652716366 168.57907931619582,217.98283703343458 "/><polyline class="polyline" opacity="0.5" stroke="blue" points="150.21284751532147,157.28473693008488 167.80264329041168,218.13883390369685 "/><polyline class="polyline" opacity="0.5" stroke="blue" points="149.2945877249351,157.79095312092855 167.01819845964226,218.30357454858995 "/><polyline class="polyline" opacity="0.5" stroke="blue" points="148.39423301052798,158.31717437170943 166.22613550393473,218.47754306548336 "/><polyline class="polyline" opacity="0.5" stroke="blue" points="147.5122519794306,158.86331123216428 165.4268618599762,218.66122107772557 "/><polyline class="polyline" opacity="0.5" stroke="blue" points="146.6491119531486,159.4292653390725 164.6208016383955,218.85508730974416 "/><polyline class="polyline" opacity="0.5" stroke="blue" points="145.80527869955785,160.0149292262069 163.80839553759625,219.05961716175958 "/><polyline class="polyline" opacity="0.5" stroke="blue" points="144.98121615392043,160.62018613530216 162.99010075409407,219.27528228373805 "/><polyline class="polyline" opacity="0.5" stroke="blue" points="144.17738612868465,161.24490982844395 162.16639088928403,219.5025501481892 "/><polyline class="polyline" opacity="0.5" stroke="blue" points="143.39424801204845,161.8889644022992 161.33775585251294,219.74188362140052 "/><polyline class="polyline" opacity="0.5" stroke="blue" points="142.63225845529234,162.55220410462377 160.50470176028244,219.99374053268508 "/><polyline class="polyline" opacity="0.5" stroke="blue" points="141.8918710489113,163.23447315349884 159.66775083135903,220.25857324120906 "/><polyline class="polyline" opacity="0.5" stroke="blue" points="141.173535987599,163.9356055597645 158.82744127751303,220.53682819995674 "/><polyline class="polyline" opacity="0.5" stroke="blue" points="140.477699724167,164.65542495313264 157.98432718956064,220.828945516384 "/><polyline class="polyline" opacity="0.5" stroke="blue" points="139.8048046125071,165.3937444124782 157.13897841832775,221.1353585093088 "/><polyline class="polyline" opacity="0.5" stroke="blue" points="139.15528853973723,166.15036630081946 156.29198045010548,221.45649326158423 "/><polyline class="polyline" opacity="0.5" stroke="blue" points="138.529584547698,166.9250821055142 155.44393427611104,221.79276816810375 "/><polyline class="polyline" opacity="0.5" stroke="blue" points="137.92812044400299,167.71767228421126 154.59545625541915,222.14459347869123 "/><polyline class="polyline" opacity="0.5" stroke="blue" points="137.35131840287443,168.52790611710773 153.7471779707736,222.51237083543583 "/><polyline class="polyline" opacity="0.5" stroke="blue" points="136.79959455603415,169.3555415660752 152.89974607663953,222.89649280404288 "/><polyline class="polyline" opacity="0.5" stroke="blue" points="136.27335857395113,170.20032514122892 152.05382213880145,223.2973423987843 "/><polyline class="polyline" opacity="0.5" stroke="blue" points="135.773013237785,171.06199177552182 151.21008246476484,223.71529260064938 "/><polyline class="polyline" opacity="0.5" stroke="blue" points="135.29895400240144,171.9402647079559 150.36921792416445,224.15070586831538 "/><polyline class="polyline" opacity="0.5" stroke="blue" points="134.85156855087365,172.83485537600757 149.53193375833612,224.60393364158054 "/><polyline class="polyline" opacity="0.5" stroke="blue" points="134.43123634092098,173.74546331787283 148.69894937815653,225.0753158369288 "/><polyline class="polyline" opacity="0.5" stroke="blue" points="134.03832814377827,174.67177608514012 147.87099814920867,225.56518033492466 "/><polyline class="polyline" opacity="0.5" stroke="blue" points="133.67320557602585,175.61346916650092 147.04882716328592,226.07384245916842 "/><polyline class="polyline" opacity="0.5" stroke="blue" points="133.33622062495334,176.5702059231124 146.23319699519772,226.60160444658194 "/><polyline class="polyline" opacity="0.5" stroke="blue" points="133.0277151680692,177.54163753622245 145.42488144380116,227.14875490883168 "/><polyline class="polyline" opacity="0.5" stroke="blue" points="132.7480204874101,178.52740296766697 144.62466725613749,227.71556828474257 "/><polyline class="polyline" opacity="0.5" stroke="blue" points="132.49745677934487,179.5271289338436 143.83335383351528,228.30230428360278 "/><polyline class="polyline" opacity="0.5" stroke="blue" points="132.27633266060766,180.5404298937616 143.05175291834308,228.90920731931217 "/><polyline class="polyline" opacity="0.5" stroke="blue" points="132.08494467133784,181.5669080517565 142.2806882604812,229.53650593538268 "/><polyline class="polyline" opacity="0.5" stroke="blue" points="131.92357677594157,182.60615337545 141.52099526185015,230.18441222085886 "/><polyline class="polyline" opacity="0.5" stroke="blue" points="131.79249986263267,183.65774362951953 140.77352059800535,230.85312121729052 "/><polyline class="polyline" opacity="0.5" stroke="blue" points="131.69197124254669,184.7212444258305 140.03912181536305,231.54281031695834 "/><polyline class="polyline" opacity="0.5" stroke="blue" points="131.6222341493612,185.7962092904628 139.31866690274165,232.2536386526256 "/><polyline class="polyline" opacity="0.5" stroke="blue" points="131.5835172403928,186.88217974814415 138.61303383586784,232.98574647916388 "/><polyline class="polyline" opacity="0.5" stroke="blue" points="131.57603410017546,187.97868542458173 137.9231100934819,233.73925454748493 "/><polyline class="polyline" opacity="0.5" stroke="blue" points="131.59998274755827,189.08524416715528 137.2497921436759,234.51426347129217 "/><polyline class="polyline" opacity="0.5" stroke="blue" points="131.6555451473955,190.20136218440965 136.59398489909125,235.31085308725685 "/><polyline class="polyline" opacity="0.5" stroke="blue" points="131.74288672792812,191.3265342047516 135.95660113961355,236.12908180931527 "/><polyline class="polyline" opacity="0.5" stroke="blue" points="131.8621559049869,192.46024365472556 135.33856090120878,236.96898597788305 "/><polyline class="polyline" opacity="0.5" stroke="blue" points="132.01348361417053,193.6019628572042 134.74079082956763,237.83057920488034 "/><polyline class="polyline" opacity="0.5" stroke="blue" points="132.196982852176,194.75115324979436 134.16422349724857,238.7138517155696 "/><polyline class="polyline" opacity="0.5" stroke="blue" points="132.4127482284782,195.90726562371404 133.60979668304378,239.61876968831345 "/><polyline class="polyline" opacity="0.5" stroke="blue" points="132.6608555285716,197.06974038335792 133.07845261233626,240.54527459347383 "/><polyline class="polyline" opacity="0.5" stroke="blue" points="132.94136129000213,198.2380078267181 132.5711371572643,241.49328253278676 "/><polyline class="polyline" opacity="0.5" stroke="blue" points="133.2543023924245,199.4114884467821 132.08879899557093,242.46268358066635 "/><polyline class="polyline" opacity="0.5" stroke="blue" points="133.59969566293015,200.58959325397657 131.63238872708814,243.4533411290082 "/><polyline class="polyline" opacity="0.5" stroke="blue" points="133.97753749788922,201.7717241196761 131.2028579468797,244.4650912371895 "/><polyline class="polyline" opacity="0.5" stroke="blue" points="134.38780350255254,202.95727414073903 130.801158274164,245.49774198908196 "/><polyline class="polyline" opacity="0.5" stroke="blue" points="134.83044814964964,204.14562802497585 130.42824033623464,246.55107285901983 "/><polyline class="polyline" opacity="0.5" stroke="blue" points="135.3054044582118,205.3361624973994 130.08505270671202,247.62483408879257 "/><polyline class="polyline" opacity="0.5" stroke="blue" points="135.81258369383193,206.52824672704423 129.77254079758333,248.7187460778532 "/><polyline class="polyline" opacity="0.5" stroke="blue" points="136.35187509155634,207.72124277408236 129.49164570462645,249.83249878906148 "/><polyline class="polyline" opacity="0.5" stroke="blue" points="136.9231456025754,208.9145060568992 129.24330300596017,250.96575117239934 "/><polyline class="polyline" opacity="0.5" stroke="blue" points="137.526239665856,210.10738583873183 129.0284415136275,252.11813060922287 "/><polyline class="polyline" opacity="0.5" stroke="blue" points="138.16097900582062,211.29922573340627 128.84798197829247,253.28923237972688 "/><polyline class="polyline" opacity="0.5" stroke="blue" points="138.82716245714272,212.48936422964695 128.7028357473178,254.4786191564155 "/><polyline class="polyline" opacity="0.5" stroke="blue" points="139.52456581768115,213.67713523336494 128.59390337669225,255.6858205264786 "/><polyline class="polyline" opacity="0.5" stroke="blue" points="140.25294173053226,214.86186862727087 128.52207319748902,256.91033254607913 "/><polyline class="polyline" opacity="0.5" stroke="blue" points="141.01201959612033,216.0428908470895 128.48821983776136,258.1516173296494 "/><polyline class="polyline" opacity="0.5" stroke="blue" points="141.8015055151938,217.21952547359362 128.4932027010216,259.40910267738485 "/><polyline class="polyline" opacity="0.5" stroke="blue" points="142.62108226352802,218.39109383960806 128.5378644026967,260.6821817441981 "/><polyline class="polyline" opacity="0.5" stroke="blue" points="143.47040929907143,219.55691565107787 128.6230291662177,261.9702127534698 "/><polyline class="polyline" opacity="0.5" stroke="blue" points="144.34912280219947,220.7163096212314 128.74950118066965,263.2725187589838 "/><polyline class="polyline" opacity="0.5" stroke="blue" points="145.25683574966328,221.8685941168116 128.91806292221253,264.588387458478 "/><polyline class="polyline" opacity="0.5" stroke="blue" points="146.1931380227443,223.0130878152952 129.12947344177314,265.9170710622759 "/><polyline class="polyline" opacity="0.5" stroke="blue" points="147.15759655003973,224.14911037196322 129.38446662180812,267.2577862204703 "/><polyline class="polyline" opacity="0.5" stroke="blue" points="148.14975548521778,225.27598309563845 129.68374940524237,268.6097140121331 "/><polyline class="polyline" opacity="0.5" stroke="blue" points="149.1691364199925,226.39302963185463 130.02800000000002,269.972 "/><polyline class="polyline" opacity="0.5" stroke="blue" points="150.21523863247495,227.4995766521825 130.41786606285814,271.34375435404104 "/><polyline class="polyline" opacity="0.5" stroke="blue" points="151.28753937096224,228.59495454839316 130.8539628666725,272.7240520472645 "/><polyline class="polyline" opacity="0.5" stroke="blue" points="152.38549417312873,229.67849813010534 131.33687145534032,274.1119331270212 "/><polyline class="polyline" opacity="0.5" stroke="blue" points="153.50853722048438,230.74954732452812 131.86713679118122,275.50640306496837 "/><polyline class="polyline" opacity="0.5" stroke="blue" points="154.65608172786608,231.80744787688673 132.445265899731,276.9064331887267 "/><polyline class="polyline" opacity="0.5" stroke="blue" points="155.8275203676253,232.85155205009033 133.07172601724642,278.31096119810843 "/><polyline class="polyline" opacity="0.5" stroke="blue" points="157.0222257280744,233.88121932218658 133.74694274651895,279.71889176861737 "/><polyline class="polyline" opacity="0.5" stroke="blue" points="158.23955080565156,234.89581708012992 134.47129822687958,281.12909724471547 "/><polyline class="polyline" opacity="0.5" stroke="blue" points="159.47882953016446,235.89472130838584 135.24512932455147,282.5404184251246 "/><polyline class="polyline" opacity="0.5" stroke="blue" points="160.73937732237158,236.87731727088715 136.06872584976276,283.95166544217136 "/><polyline class="polyline" opacity="0.5" stroke="blue" points="162.02049168305922,237.8430001848593 136.942328807268,285.36161873690094 "/><polyline class="polyline" opacity="0.5" stroke="blue" points="163.32145281267992,238.79117588504346 137.86612868714346,286.769030131379 "/><polyline class="polyline" opacity="0.5" stroke="blue" points="164.64152426051766,239.7212614768527 138.84026380291047,288.1726239992611 "/><polyline class="polyline" opacity="0.5" stroke="blue" points="165.97995360225718,240.63268597701966 139.8648186842036,289.5710985353545 "/><polyline class="polyline" opacity="0.5" stroke="blue" points="167.33597314474326,241.52489094031353 140.93982253133123,290.9631271245054 "/><polyline class="polyline" opacity="0.5" stroke="blue" points="168.7088006566321,242.3973310709366 142.0652477391762,292.3473598097441 "/><polyline class="polyline" opacity="0.5" stroke="blue" points="170.0976401235549,243.24947481724115 143.24100849794326,293.7224248591858 "/><polyline class="polyline" opacity="0.5" stroke="blue" points="171.50168252633824,244.080804948449 144.46695947828727,295.08693043073686 "/><polyline class="polyline" opacity="0.5" stroke="blue" points="172.92010664074985,244.8908191120987 145.7428946083325,296.4394663331885 "/><polyline class="polyline" opacity="0.5" stroke="blue" points="174.35207985717827,245.67903037099558 147.0685459500395,297.7786058817969 "/><polyline class="polyline" opacity="0.5" stroke="blue" points="175.7967590185872,246.44496771849214 148.4435826822627,299.10290784595145 "/><polyline class="polyline" opacity="0.5" stroke="blue" points="177.25329127503412,247.18817657098606 149.86761019769412,300.41091848602395 "/><polyline class="polyline" opacity="0.5" stroke="blue" points="178.72081495298963,247.90821923658206 151.34016932068147,301.70117367598044 "/><polyline class="polyline" opacity="0.5" stroke="blue" points="180.19846043765597,248.60467535893497 152.86073565266378,302.97220110781626 "/><polyline class="polyline" opacity="0.5" stroke="blue" points="181.68535106644123,249.27714233535573 154.4287190516622,304.2225225733548 "/><polyline class="polyline" opacity="0.5" stroke="blue" points="183.18060403171864,249.9252357083388 156.04346325191233,305.4506563184372 "/><polyline class="polyline" opacity="0.5" stroke="blue" points="184.68333129097783,250.54858952974354 157.70424562932683,306.6551194640186 "/><polyline class="polyline" opacity="0.5" stroke="blue" points="186.19264048245685,251.14685669694137 159.4102771180211,307.8344304881896 "/><polyline class="polyline" opacity="0.5" stroke="blue" points="187.70763584433584,251.71970926032108 161.16070228263888,308.98711176265897 "/><polyline class="polyline" opacity="0.5" stroke="blue" points="189.2274191355693,252.2668387016273 162.95459955066522,310.1116921367693 "/><polyline class="polyline" opacity="0.5" stroke="blue" points="190.751090556442,252.78795618269103 164.79098160832714,311.20670956167834 "/><polyline class="polyline" opacity="0.5" stroke="blue" points="192.27774966694048,253.28279276419724 166.6687959630448,312.27071374692594 "/><polyline class="polyline" opacity="0.5" stroke="blue" points="193.80649630105506,253.7510995942197 168.5869256747266,313.30226884122817 "/><polyline class="polyline" opacity="0.5" stroke="blue" points="195.33643147514707,254.1926480663392 170.54419025749038,314.29995612899114 "/><polyline class="polyline" opacity="0.5" stroke="blue" points="196.86665828855334,254.60722994724864 172.53934675265742,315.26237673374 "/><polyline class="polyline" opacity="0.5" stroke="blue" points="198.39628281463334,254.99465747383366 174.57109097309515,316.18815431938987 "/><polyline class="polyline" opacity="0.5" stroke="blue" points="199.92441498050837,255.35476341980132 176.63805891819516,317.07593778007526 "/><polyline class="polyline" opacity="0.5" stroke="blue" points="201.4501694337947,255.68740113201582 178.738828357971,317.92440390908956 "/><polyline class="polyline" opacity="0.5" stroke="blue" points="202.97266639468444,255.99244453677858 180.87192058393651,318.73226003737057 "/><polyline class="polyline" opacity="0.5" stroke="blue" points="204.49103249178984,256.26978811637457 183.03580232360656,319.49824663191566 "/><polyline class="polyline" opacity="0.5" stroke="blue" points="206.0044015802296,256.5193468562805 185.22888781463297,320.2211398445032 "/><polyline class="polyline" opacity="0.5" stroke="blue" points="207.51191554050854,256.74105616350977 187.44954103377918,320.89975400115895 "/><polyline class="polyline" opacity="0.5" stroke="blue" points="209.0127250568121,256.93487175663876 189.6960780751251,321.5329440229181 "/><polyline class="polyline" opacity="0.5" stroke="blue" points="210.50599037341655,257.1007695281309 191.96676967111492,322.1196077686108 "/><polyline class="polyline" opacity="0.5" stroke="blue" points="211.9908820279936,257.23874537963945 194.2598438492952,322.6586882906313 "/><polyline class="polyline" opacity="0.5" stroke="blue" points="213.4665815606753,257.34881503103315 196.57348871687006,323.149175994945 "/><polyline class="polyline" opacity="0.5" stroke="blue" points="214.93228219782688,257.4310138039492 198.90585536450303,323.59011069693605 "/><polyline class="polyline" opacity="0.5" stroke="blue" points="216.38718950956545,257.48539638072936 201.25506088015445,323.98058356510114 "/><polyline class="polyline" opacity="0.5" stroke="blue" points="217.8305220401493,257.51203653965007 203.61919146313988,324.3197389450557 "/><polyline class="polyline" opacity="0.5" stroke="blue" points="219.2615119104567,257.5110268674008 205.99630562805837,324.6067760568235 "/><polyline class="polyline" opacity="0.5" stroke="blue" points="220.67940539186057,257.4824784498087 208.38443748774912,324.84095055893584 "/><polyline class="polyline" opacity="0.5" stroke="blue" points="222.08346345089774,257.4265205418449 210.78160010401353,325.0215759734622 "/><polyline class="polyline" opacity="0.5" stroke="blue" points="223.47296226422552,257.3433002179812 213.18578889448807,325.1480249667298 "/><polyline class="polyline" opacity="0.5" stroke="blue" points="224.84719370344527,257.2329820039952 215.59498508376248,325.21973048115984 "/><polyline class="polyline" opacity="0.5" stroke="blue" points="226.20546578946636,257.0957474913454 218.0071591866262,325.2361867143424 "/><polyline class="polyline" opacity="0.5" stroke="blue" points="227.547103116169,256.93179493525963 220.42027451118145,325.19694994219736 "/><polyline class="polyline" opacity="0.5" stroke="blue" points="228.87144724321706,256.74133883769275 222.83229066950028,325.10163918380493 "/><polyline class="polyline" opacity="0.5" stroke="blue" points="230.17785705795106,256.5246095163236 225.2411670835049,324.9499367062432 "/><polyline class="polyline" opacity="0.5" stroke="blue" points="231.46570910638164,256.28185266076713 227.644866473838,324.741588368528 "/><polyline class="polyline" opacity="0.5" stroke="blue" points="232.73439789337743,256.0133288771795 230.04135831963958,324.47640380450974 "/><polyline class="polyline" opacity="0.5" stroke="blue" points="233.98333615222688,255.71931322243384 232.4286222773836,324.1542564453365 "/><polyline class="polyline" opacity="0.5" stroke="blue" points="235.21195508382266,255.40009472903927 234.80465154721296,323.77508338283906 "/><polyline class="polyline" opacity="0.5" stroke="blue" points="236.41970456579355,255.05597592196548 237.16745617558598,323.3388850759188 "/><polyline class="polyline" opacity="0.5" stroke="blue" points="237.60605333197415,254.6872723285249 239.51506628346104,322.84572490272984 "/><polyline class="polyline" opacity="0.5" stroke="blue" points="238.77048912267082,254.2943119824464 241.8455352097433,322.29572856212695 "/><polyline class="polyline" opacity="0.5" stroke="blue" points="239.91251880624307,253.87743492325706 244.1569425602467,321.689083328501 "/><polyline class="polyline" opacity="0.5" stroke="blue" points="241.03166847257478,253.4369926920661 246.447397153014,321.02603716474033 "/><polyline class="polyline" opacity="0.5" stroke="blue" points="242.12748349906826,252.97334782481877 248.7150398514745,320.3068976986316 "/><polyline class="polyline" opacity="0.5" stroke="blue" points="243.19952858984055,252.48687334406344 250.958046277583,319.53203106855005 "/><polyline class="polyline" opacity="0.5" stroke="blue" points="244.24738778884893,251.97795225024186 253.174629397791,318.701860644774 "/><polyline class="polyline" opacity="0.5" stroke="blue" points="245.27066446771377,251.4469770134839 255.3630419754256,317.81686563320443 "/><polyline class="polyline" opacity="0.5" stroke="blue" points="246.2689812890468,250.89434906685074 257.5215788838097,316.8775795686565 "/><polyline class="polyline" opacity="0.5" stroke="blue" points="247.2419801461245,250.320478301938 259.6485792752128,315.88458870523027 "/><polyline class="polyline" opacity="0.5" stroke="blue" points="248.18932207977906,249.7257825677102 261.74242860150304,314.83853031155775 "/><polyline class="polyline" opacity="0.5" stroke="blue" points="249.11068717340183,249.11068717340183 263.80156048314,313.74009087895274 "/><polyline class="polyline" opacity="0.5" stroke="blue" points="250.005774426982,248.4756243962787 265.8244584239299,312.59000425067325 "/><polyline class="polyline" opacity="0.5" stroke="blue" points="250.87430161111632,247.82103299501384 267.80965736972155,311.38904968063406 "/><polyline class="polyline" opacity="0.5" stroke="blue" points="251.71600510194506,247.14735772939028 269.75574510997865,310.1380498299811 "/><polyline class="polyline" opacity="0.5" stroke="blue" points="252.53063969797697,246.4550488870026 271.66136352189346,308.8378687099707 "/><polyline class="polyline" opacity="0.5" stroke="blue" points="253.31797841977811,245.74456181758438 273.52520965742156,307.489409579566 "/><polyline class="polyline" opacity="0.5" stroke="blue" points="254.0778122935011,245.01635647554923 275.34603667429565,306.09361280609926 "/><polyline class="polyline" opacity="0.5" stroke="blue" points="254.80995011923295,244.27089697128955 277.1226546127316,304.65145369723456 "/><polyline class="polyline" opacity="0.5" stroke="blue" points="255.51421822514095,243.50865113173438 278.85393102015905,303.1639403123045 "/><polyline class="polyline" opacity="0.5" stroke="blue" points="256.19046020838863,242.73009007062794 280.53879142688805,301.6321112609066 "/><polyline class="polyline" opacity="0.5" stroke="blue" points="256.8385366637879,241.9356877689461 282.1762196761677,300.0570334964086 "/><polyline class="polyline" opacity="0.5" stroke="blue" points="257.4583249011448,241.1259206658318 283.7652581125899,298.4398001117549 "/><polyline class="polyline" opacity="0.5" stroke="blue" points="258.0497186522432,240.30126726038486 285.3050076332561,296.7815281446668 "/><polyline class="polyline" opacity="0.5" stroke="blue" points="258.6126277683968,239.4622077246075 286.7946276065323,295.08335639901816 "/><polyline class="polyline" opacity="0.5" stroke="blue" points="259.1469779094839,238.60922352776524 288.2333356635905,293.34644328881956 "/><polyline class="polyline" opacity="0.5" stroke="blue" points="259.6527102253615,237.74279707238782 289.6204073682602,291.57196471089406 "/><polyline class="polyline" opacity="0.5" stroke="blue" points="260.1297810305341,236.8634113420965 290.95517577099315,289.76111195193977 "/><polyline class="polyline" opacity="0.5" stroke="blue" points="260.578161472933,235.97154956141128 292.23703085297984,287.9150896352966 "/><polyline class="polyline" opacity="0.5" stroke="blue" points="260.9978371976386,235.06769486765583 293.4654188666518,286.0351137123331 "/><polyline class="polyline" opacity="0.5" stroke="blue" points="261.3888080063519,234.15232999504735 294.6398415789504,284.12240950296587 "/><polyline class="polyline" opacity="0.5" stroke="blue" points="261.7510875134011,233.22593697102576 295.75985542385575,282.17820978941904 "/><polyline class="polyline" opacity="0.5" stroke="blue" points="262.0847027990376,232.28899682484706 296.825070570741,280.2037529669225 "/><polyline class="polyline" opacity="0.5" stroke="blue" points="262.38969406075233,231.34198930843925 297.835149915144,278.2002812546492 "/><polyline class="polyline" opacity="0.5" stroke="blue" points="262.66611426331633,230.38539262948873 298.7898079985553,276.1690389697834 "/><polyline class="polyline" opacity="0.5" stroke="blue" points="262.9140287882169,229.4196831967028 299.68880986377775,274.1112708672288 "/><polyline class="polyline" opacity="0.5" stroke="blue" points="263.13351508313883,228.44533537716728 300.5319698523524,272.0282205470751 "/><polyline class="polyline" opacity="0.5" stroke="blue" points="263.3246623121051,227.46282126569793 301.3191503504459,269.9211289315752 "/><polyline class="polyline" opacity="0.5" stroke="blue" points="263.48757100686646,226.4726104660597 302.05026048947747,267.79123281302094 "/><polyline class="polyline" opacity="0.5" stroke="blue" points="263.62235272009997,225.47516988391178 302.72525480761504,265.63976347356225 "/><polyline class="polyline" opacity="0.5" stroke="blue" points="263.72912968094477,224.47096353131414 303.34413187810543,263.46794537768267 "/><polyline class="polyline" opacity="0.5" stroke="blue" points="263.80803445337847,223.4604523426183 303.9069329102182,261.2769949377341 "/><polyline class="polyline" opacity="0.5" stroke="blue" points="263.8592095979059,222.44409400154413 304.4137403283798,259.0681193526282 "/><polyline class="polyline" opacity="0.5" stroke="blue" points="263.8828073370053,221.42234277923427 304.864676334861,256.842515519511 "/><polyline class="polyline" opacity="0.5" stroke="blue" points="263.8789892247482,220.3956493830636 305.25990146114844,254.6013690179822 "/><polyline class="polyline" opacity="0.5" stroke="blue" points="263.8479258209819,219.3644608159668 305.59961311289885,252.34585316617446 "/><polyline class="polyline" opacity="0.5" stroke="blue" points="263.7897963704379,218.3292202460392 305.88404411312433,250.07712814779 "/><polyline class="polyline" opacity="0.5" stroke="blue" points="263.7047884870988,217.29036688615517 306.11346124800866,247.7963402089788 "/><polyline class="polyline" opacity="0.5" stroke="blue" points="263.5930978441381,216.24833588334045 306.28816381949963,245.50462092376299 "/><polyline class="polyline" opacity="0.5" stroke="blue" points="263.4549278697119,215.20355821762573 306.40848220856344,243.20308652653262 "/><polyline class="polyline" opacity="0.5" stroke="blue" points="263.29048944886745,214.1564606101049 306.47477645273295,240.8928373099949 "/><polyline class="polyline" opacity="0.5" stroke="blue" points="263.100000631801,213.10746543991382 306.4874348413221,238.57495708681904 "/><polyline class="polyline" opacity="0.5" stroke="blue" points="262.88368634868027,212.05699066984317 306.44687253142706,236.2505127131047 "/><polyline class="polyline" opacity="0.5" stroke="blue" points="262.64177813122126,211.00544978029254 306.35353018758224,233.92055367169533 "/><polyline class="polyline" opacity="0.5" stroke="blue" points="262.3745138411887,209.953251711273 306.20787264769666,231.58611171327635 "/><polyline class="polyline" opacity="0.5" stroke="blue" points="262.08213740596887,208.9008008121616 306.01038761765176,229.24820055312287 "/><polyline class="polyline" opacity="0.5" stroke="blue" points="261.7648985613434,207.84849679891155 305.7615843967133,226.9078156213078 "/><polyline class="polyline" opacity="0.5" stroke="blue" points="261.4230526015731,206.79673471841969 305.46199263567974,224.56593386413047 "/><polyline class="polyline" opacity="0.5" stroke="blue" points="261.0568601368831,205.74590491975388 305.11216112947375,222.22351359449956 "/><polyline class="polyline" opacity="0.5" stroke="blue" points="260.66658685842356,204.69639303194526 304.7126566456734,219.881494388982 "/><polyline class="polyline" opacity="0.5" stroke="blue" points="260.25250331076194,203.6485799480479 304.2640627902776,217.54079702921607 "/><polyline class="polyline" opacity="0.5" stroke="blue" points="259.8148846719485,202.60284181517466 303.76697891181027,215.2023234853914 "/><polyline class="polyline" opacity="0.5" stroke="blue" points="259.35401054118114,201.55955003021649 303.2220190446847,212.86695693950347 "/><polyline class="polyline" opacity="0.5" stroke="blue" points="258.8701647340813,200.51907124095914 302.629810892577,210.53556184611278 "/><polyline class="polyline" opacity="0.5" stroke="blue" points="258.3636350855785,199.48176735231021 301.99099485239446,208.20898402835508 "/><polyline class="polyline" opacity="0.5" stroke="blue" points="257.8347132603901,198.4479955373566 301.3062230792735,205.88805080698927 "/><polyline class="polyline" opacity="0.5" stroke="blue" points="257.2836945710681,197.41810825297392 300.5761585928934,203.5735711602995 "/><polyline class="polyline" opacity="0.5" stroke="blue" points="256.710877803577,196.39245325971618 299.801474425265,201.26633591271792 "/><polyline class="polyline" opacity="0.5" stroke="blue" points="256.1165650503518,195.3713736457145 298.98285281002165,198.96711795007238 "/><polyline class="polyline" opacity="0.5" stroke="blue" points="255.50106155078032,194.35520785432294 298.1209844131302,196.67667245942334 "/><polyline class="polyline" opacity="0.5" stroke="blue" points="254.86467553903867,193.34428971525008 297.21656760482875,194.39573719150215 "/><polyline class="polyline" opacity="0.5" stroke="blue" points="254.20771809920683,192.33894847892427 296.2703077725039,192.12503274382516 "/><polyline class="polyline" opacity="0.5" stroke="blue" points="253.53050302757688,191.33950885384098 295.2829166741268,189.86526286261127 "/><polyline class="polyline" opacity="0.5" stroke="blue" points="252.83334670206318,190.3462910466497 294.25511183178855,187.61711476169629 "/><polyline class="polyline" opacity="0.5" stroke="blue" points="252.1165679586152,189.35961080474198 293.1876159648016,185.38125945670006 "/><polyline class="polyline" opacity="0.5" stroke="blue" points="251.3804879745275,188.37977946110632 292.0811564617648,183.1583521127592 "/><polyline class="polyline" opacity="0.5" stroke="blue" points="250.62543015853478,187.40710398122306 290.93646489093305,180.94903240420862 "/><polyline class="polyline" opacity="0.5" stroke="blue" points="249.85172004757595,186.44188701177634 289.75427654817656,178.7539248846539 "/><polyline class="polyline" opacity="0.5" stroke="blue" points="249.05968521010553,185.4844269309674 288.5353300417727,176.5736393659424 "/><polyline class="polyline" opacity="0.5" stroke="blue" points="248.2496551558248,184.53501790021627 287.2803669132238,174.40877130459916 "/><polyline class="polyline" opacity="0.5" stroke="blue" points="247.42196125170338,183.5939499170474 285.99013129327,172.2599021943604 "/><polyline class="polyline" opacity="0.5" stroke="blue" points="246.57693664415604,182.66150886895724 284.6653695922223,170.12759996349234 "/><polyline class="polyline" opacity="0.5" stroke="blue" points="245.71491618723772,181.7379765880703 283.30683022372864,168.01241937564802 "/><polyline class="polyline" opacity="0.5" stroke="blue" points="244.83623637671536,180.82363090639188 281.9152633610512,165.91490243306419 "/><polyline class="polyline" opacity="0.5" stroke="blue" points="243.9412352898728,179.91874571147386 280.4914207249244,163.83557878096403 "/><polyline class="polyline" opacity="0.5" stroke="blue" points="243.0302525309029,179.02359100231288 279.0360554020428,161.7749661120788 "/><polyline class="polyline" opacity="0.5" stroke="blue" points="242.10362918173922,178.13843294530747 277.5499216932208,159.73357057025865 "/></svg>
