<?xml version="1.0" encoding="UTF-8"?>
<!DOCTYPE svg PUBLIC "-//W3C//DTD SVG 1.1//EN"
    "http://www.w3.org/Graphics/SVG/1.1/DTD/svg11.dtd"><svg width="400" height="400" stroke="black" fill="none" fill-opacity="0.75" font-style="italic" font-family="CMU Serif, sans-serif" xmlns="http://www.w3.org/2000/svg" xmlns:xlink="http://www.w3.org/1999/xlink" version="1.1"><filter id="blur"><feGaussianBlur stdDeviation="2"/></filter><rect width="100%" height="100%" fill="white" stroke="none" fill-opacity="1"/><polygon points="262.93165055278115,0.0 181.83508591763132,400.0 " stroke-opacity="0.25" stroke="green"/><polygon points="334.73920267802885,0.0 161.10818612455586,400.0 " stroke-opacity="0.25" stroke="green"/><polygon points="400.0,24.900064712176942 137.2361626138843,400.00000000000006 " stroke-opacity="0.25" stroke="green"/><polygon points="400.0,112.52191673203254 109.44437598803528,400.0 " stroke-opacity="0.25" stroke="green"/><polygon points="400.0,165.09502794394587 76.68104343326085,400.0 " stroke-opacity="0.25" stroke="green"/><polygon points="400.0,200.14376875188813 37.48112174357817,399.99999999999994 " stroke-opacity="0.25" stroke="green"/><polygon points="0.0,395.62848347533213 400.0,225.178583614704 " stroke-opacity="0.25" stroke="green"/><polygon points="0.0,376.8523723282202 400.0,243.95469476181592 " stroke-opacity="0.25" stroke="green"/><polygon points="0.0,362.248730324911 400.0,258.5583367651252 " stroke-opacity="0.25" stroke="green"/><polygon points="0.0,350.56581672226355 400.0,270.2412503677726 " stroke-opacity="0.25" stroke="green"/><polygon points="0.0,341.00706922918835 400.0,279.7999978608477 " stroke-opacity="0.25" stroke="green"/><polygon points="0.0,333.0414463182924 400.0,287.76562077174367 " stroke-opacity="0.25" stroke="green"/><polygon points="0.0,326.3013038552266 400.0,294.5057632348095 " stroke-opacity="0.25" stroke="green"/><polygon points="0.0,320.52403888688445 400.0,300.2830282031516 " stroke-opacity="0.25" stroke="green"/><polygon points="0.0,315.51707591432125 400.0,305.2899911757148 " stroke-opacity="0.25" stroke="green"/><polygon points="285.71498646795897,-5.684341886080802e-14 159.31467699203057,400.00000000000006 " stroke-opacity="0.25" stroke="green"/><polygon points="359.5910030004553,0.0 136.85927123375674,400.0 " stroke-opacity="0.25" stroke="green"/><polygon points="399.99999999999994,53.63174297908989 110.9733863435315,399.99999999999994 " stroke-opacity="0.25" stroke="green"/><polygon points="400.0,124.35445892777105 80.80590664328055,400.0 " stroke-opacity="0.25" stroke="green"/><polygon points="400.0,169.5893927820378 45.198778653816504,400.0 " stroke-opacity="0.25" stroke="green"/><polygon points="399.99999999999994,201.01116016615447 2.5349367508814,399.99999999999994 " stroke-opacity="0.25" stroke="green"/><polygon points="-5.684341886080802e-14,380.6255225688358 400.00000000000006,224.10877190824323 " stroke-opacity="0.25" stroke="green"/><polygon points="5.684341886080802e-14,364.8111103803888 399.99999999999994,241.80314198288693 " stroke-opacity="0.25" stroke="green"/><polygon points="0.0,352.3087769769086 400.0,255.79170579427975 " stroke-opacity="0.25" stroke="green"/><polygon points="0.0,342.1766578198333 400.0,267.12829319755036 " stroke-opacity="0.25" stroke="green"/><polygon points="-5.684341886080802e-14,333.79908825335207 400.00000000000006,276.501756748961 " stroke-opacity="0.25" stroke="green"/><polygon points="5.684341886080802e-14,326.7566386141467 399.99999999999994,284.38138633387683 " stroke-opacity="0.25" stroke="green"/><polygon points="0.0,320.7537003295141 400.0,291.0979313611484 " stroke-opacity="0.25" stroke="green"/><polygon points="0.0,315.5759343651921 400.0,296.8912106838878 " stroke-opacity="0.25" stroke="green"/><polygon points="0.0,311.06413876565864 400.0,301.9393515877663 " stroke-opacity="0.25" stroke="green"/><polygon points="309.8109188787791,0.0 136.02338652174888,400.0 " stroke-opacity="0.25" stroke="green"/><polygon points="386.8452143065029,-5.684341886080802e-14 111.45319310329495,400.00000000000006 " stroke-opacity="0.25" stroke="green"/><polygon points="400.0,77.27439375578781 83.05191651302226,400.0 " stroke-opacity="0.25" stroke="green"/><polygon points="400.00000000000006,135.8076305837102 49.84775645283642,400.0 " stroke-opacity="0.25" stroke="green"/><polygon points="400.0,175.1277721900759 10.509876222008472,400.0 " stroke-opacity="0.25" stroke="green"/><polygon points="0.0,383.41921115341586 400.0,203.3609749246608 " stroke-opacity="0.25" stroke="green"/><polygon points="-5.684341886080802e-14,366.36760428477504 400.00000000000006,224.61703548096426 " stroke-opacity="0.25" stroke="green"/><polygon points="0.0,353.06646503348054 400.0,241.19786704548395 " stroke-opacity="0.25" stroke="green"/><polygon points="0.0,342.4010267365238 400.0,254.49310684581968 " stroke-opacity="0.25" stroke="green"/><polygon points="0.0,333.6584918973201 400.0,265.3913084868313 " stroke-opacity="0.25" stroke="green"/><polygon points="-5.684341886080802e-14,326.3618338518661 400.00000000000006,274.48712018760705 " stroke-opacity="0.25" stroke="green"/><polygon points="0.0,320.17976017813004 400.0,282.1935219000537 " stroke-opacity="0.25" stroke="green"/><polygon points="0.0,314.87500842503516 400.0,288.8062784202214 " stroke-opacity="0.25" stroke="green"/><polygon points="5.684341886080802e-14,310.27319603649516 399.99999999999994,294.54277020971057 " stroke-opacity="0.25" stroke="green"/><polygon points="0.0,306.24328400814466 400.0,299.56634685976405 " stroke-opacity="0.25" stroke="green"/><polygon points="335.8956827470947,0.0 111.33496416010678,400.0 " stroke-opacity="0.25" stroke="green"/><polygon points="400.0,20.883593647532877 84.11631785047642,399.99999999999994 " stroke-opacity="0.25" stroke="green"/><polygon points="400.0,97.53973592408313 52.503462853377926,400.0 " stroke-opacity="0.25" stroke="green"/><polygon points="400.0,146.9384152783452 15.338852402788461,400.00000000000006 " stroke-opacity="0.25" stroke="green"/><polygon points="0.0,385.23356169904406 400.0,181.42338190127253 " stroke-opacity="0.25" stroke="green"/><polygon points="0.0,366.89633807395774 400.0,206.86263504614138 " stroke-opacity="0.25" stroke="green"/><polygon points="0.0,352.81142223227346 400.0,226.40265631362453 " stroke-opacity="0.25" stroke="green"/><polygon points="0.0,341.6533642474127 400.0,241.88224403559963 " stroke-opacity="0.25" stroke="green"/><polygon points="-5.684341886080802e-14,332.59572596399136 400.00000000000006,254.44791689304267 " stroke-opacity="0.25" stroke="green"/><polygon points="0.0,325.09644486565435 400.0,264.85167888916806 " stroke-opacity="0.25" stroke="green"/><polygon points="0.0,318.7852064776697 400.0,273.6072677554078 " stroke-opacity="0.25" stroke="green"/><polygon points="0.0,313.40041570525483 400.0,281.07759469215375 " stroke-opacity="0.25" stroke="green"/><polygon points="0.0,308.7520267943133 400.0,287.5263104104629 " stroke-opacity="0.25" stroke="green"/><polygon points="-5.684341886080802e-14,304.69864695404254 400.00000000000006,293.14956930489484 " stroke-opacity="0.25" stroke="green"/><polygon points="5.684341886080802e-14,301.1329035333658 399.99999999999994,298.09632958785016 " stroke-opacity="0.25" stroke="green"/><polygon points="364.82641407904214,-5.684341886080802e-14 84.4842892819847,400.00000000000006 " stroke-opacity="0.25" stroke="green"/><polygon points="400.0,52.650233052119034 53.87238809850979,400.00000000000006 " stroke-opacity="0.25" stroke="green"/><polygon points="400.00000000000006,115.45985096200972 18.063871284801678,400.0 " stroke-opacity="0.25" stroke="green"/><polygon points="0.0,386.08234728144123 400.0,157.8047807349569 " stroke-opacity="0.25" stroke="green"/><polygon points="0.0,366.3771032387507 400.0,188.28562911533623 " stroke-opacity="0.25" stroke="green"/><polygon points="-5.684341886080802e-14,351.514429409365 400.00000000000006,211.2757989675379 " stroke-opacity="0.25" stroke="green"/><polygon points="0.0,339.90457219167934 400.0,229.2343838398424 " stroke-opacity="0.25" stroke="green"/><polygon points="0.0,330.585002335499 400.0,243.65026192494332 " stroke-opacity="0.25" stroke="green"/><polygon points="0.0,322.9388540044311 400.0,255.4776256190064 " stroke-opacity="0.25" stroke="green"/><polygon points="0.0,316.55253982739464 400.0,265.3562281736356 " stroke-opacity="0.25" stroke="green"/><polygon points="0.0,311.138390117636 400.0,273.73104840191104 " stroke-opacity="0.25" stroke="green"/><polygon points="0.0,306.49012230028006 400.0,280.9211723235064 " stroke-opacity="0.25" stroke="green"/><polygon points="0.0,302.4559597925748 400.0,287.1613739405368 " stroke-opacity="0.25" stroke="green"/><polygon points="-5.684341886080802e-14,298.9217448926747 400.00000000000006,292.62823688697625 " stroke-opacity="0.25" stroke="green"/><polygon points="0.0,295.7999637148034 400.0,297.45713109164944 " stroke-opacity="0.25" stroke="green"/><polygon points="397.7591506834153,-5.684341886080802e-14 54.4652348016958,400.00000000000006 " stroke-opacity="0.25" stroke="green"/><polygon points="400.0,79.05385388953268 19.394987930315068,400.0 " stroke-opacity="0.25" stroke="green"/><polygon points="0.0,385.98611496748856 400.0,131.70117183462048 " stroke-opacity="0.25" stroke="green"/><polygon points="-5.684341886080802e-14,364.7802279842132 400.00000000000006,168.4637247730448 " stroke-opacity="0.25" stroke="green"/><polygon points="-5.684341886080802e-14,349.1338755256869 400.00000000000006,195.58826151152053 " stroke-opacity="0.25" stroke="green"/><polygon points="0.0,337.1141256934094 400.0,216.42571527444102 " stroke-opacity="0.25" stroke="green"/><polygon points="0.0,327.5910379873517 400.0,232.93495236541077 " stroke-opacity="0.25" stroke="green"/><polygon points="0.0,319.8599149661528 400.0,246.33763717479647 " stroke-opacity="0.25" stroke="green"/><polygon points="0.0,313.4584595029812 400.0,257.43520859604445 " stroke-opacity="0.25" stroke="green"/><polygon points="0.0,308.07080244969666 400.0,266.77525779048074 " stroke-opacity="0.25" stroke="green"/><polygon points="0.0,303.4737820119359 400.0,274.74465833173053 " stroke-opacity="0.25" stroke="green"/><polygon points="-5.684341886080802e-14,299.5052568475403 400.00000000000006,281.6244986590238 " stroke-opacity="0.25" stroke="green"/><polygon points="0.0,296.04458408913183 400.0,287.6239254023567 " stroke-opacity="0.25" stroke="green"/><polygon points="5.684341886080802e-14,293.0001413435223 399.99999999999994,292.90177526035797 " stroke-opacity="0.25" stroke="green"/><polygon points="0.0,290.30109564026174 400.0,297.58084436166916 " stroke-opacity="0.25" stroke="green"/><polygon points="400.0,34.90579979632233 19.86501326941081,400.0 " stroke-opacity="0.25" stroke="green"/><polygon points="0.0,384.96238973416314 400.0,101.79584015997956 " stroke-opacity="0.25" stroke="green"/><polygon points="0.0,362.0495980182368 400.0,146.71932097555435 " stroke-opacity="0.25" stroke="green"/><polygon points="-5.684341886080802e-14,345.60006230257767 400.00000000000006,178.97075551523466 " stroke-opacity="0.25" stroke="green"/><polygon points="-5.684341886080802e-14,333.2170754554916 400.00000000000006,203.24919696232905 " stroke-opacity="0.25" stroke="green"/><polygon points="0.0,323.5585672317344 400.0,222.18594697849733 " stroke-opacity="0.25" stroke="green"/><polygon points="-5.684341886080802e-14,315.8144981656131 400.00000000000006,237.36919232195214 " stroke-opacity="0.25" stroke="green"/><polygon points="0.0,309.46699364366015 400.0,249.8142929082994 " stroke-opacity="0.25" stroke="green"/><polygon points="0.0,304.1695164664815 400.0,260.20067957346123 " stroke-opacity="0.25" stroke="green"/><polygon points="0.0,299.6814217801251 400.0,269.0001675643058 " stroke-opacity="0.25" stroke="green"/><polygon points="0.0,295.830380401752 400.0,276.55063045098575 " stroke-opacity="0.25" stroke="green"/><polygon points="0.0,292.48974300063406 400.0,283.10038056705736 " stroke-opacity="0.25" stroke="green"/><polygon points="0.0,289.5643451417704 400.0,288.83600005070315 " stroke-opacity="0.25" stroke="green"/><polygon points="0.0,286.98129588078405 400.0,293.9004009914645 " stroke-opacity="0.25" stroke="green"/><polygon points="-5.684341886080802e-14,284.6838215225231 400.00000000000006,298.40489553482786 " stroke-opacity="0.25" stroke="green"/><polygon points="5.684341886080802e-14,383.01014248264835 399.99999999999994,65.86446671530814 " stroke-opacity="0.25" stroke="green"/><polygon points="0.0,358.0745059040079 400.0,121.9595495106275 " stroke-opacity="0.25" stroke="green"/><polygon points="0.0,340.79038680225034 400.0,160.8418170236116 " stroke-opacity="0.25" stroke="green"/><polygon points="-5.684341886080802e-14,328.10443611067 400.00000000000006,189.3800679777141 " stroke-opacity="0.25" stroke="green"/><polygon points="0.0,318.397167548315 400.0,211.21749057586587 " stroke-opacity="0.25" stroke="green"/><polygon points="0.0,310.7297065530703 400.0,228.46617231702336 " stroke-opacity="0.25" stroke="green"/><polygon points="0.0,304.52023881590776 400.0,242.43495974831603 " stroke-opacity="0.25" stroke="green"/><polygon points="0.0,299.38900698514414 400.0,253.97815310056512 " stroke-opacity="0.25" stroke="green"/><polygon points="0.0,295.0776029905875 400.0,263.6770658704878 " stroke-opacity="0.25" stroke="green"/><polygon points="-5.684341886080802e-14,291.4040831391422 400.00000000000006,271.9409976761666 " stroke-opacity="0.25" stroke="green"/><polygon points="0.0,288.23663346672544 400.0,279.06647654909904 " stroke-opacity="0.25" stroke="green"/><polygon points="-5.684341886080802e-14,285.47741743598345 400.00000000000006,285.2735950722822 " stroke-opacity="0.25" stroke="green"/><polygon points="-5.684341886080802e-14,283.05229085910537 400.00000000000006,290.7291476381883 " stroke-opacity="0.25" stroke="green"/><polygon points="0.0,280.90403954411073 400.0,295.5618430057091 " stroke-opacity="0.25" stroke="green"/><polygon points="0.0,278.98780802546685 400.0,299.8725878047974 " stroke-opacity="0.25" stroke="green"/><polygon points="0.0,352.637816488807 400.0,92.36108447395786 " stroke-opacity="0.25" stroke="green"/><polygon points="0.0,334.48659815051224 400.0,140.27526981393737 " stroke-opacity="0.25" stroke="green"/><polygon points="0.0,321.59131340775934 400.0,174.31524727773774 " stroke-opacity="0.25" stroke="green"/><polygon points="0.0,311.9577908496012 400.0,199.7450766547902 " stroke-opacity="0.25" stroke="green"/><polygon points="0.0,304.48741718712915 400.0,219.4647925191203 " stroke-opacity="0.25" stroke="green"/><polygon points="0.0,298.5251521800699 400.0,235.20351954393942 " stroke-opacity="0.25" stroke="green"/><polygon points="0.0,293.6561842963788 400.0,248.05624519824931 " stroke-opacity="0.25" stroke="green"/><polygon points="-5.684341886080802e-14,289.6050531414737 400.00000000000006,258.75010857287305 " stroke-opacity="0.25" stroke="green"/><polygon points="0.0,286.1816664463537 400.0,267.78690056905214 " stroke-opacity="0.25" stroke="green"/><polygon points="0.0,283.25060744084044 400.0,275.52408392584545 " stroke-opacity="0.25" stroke="green"/><polygon points="0.0,280.71279591688824 400.0,282.2232029298873 " stroke-opacity="0.25" stroke="green"/><polygon points="0.0,278.4940666245509 400.0,288.08003328424473 " stroke-opacity="0.25" stroke="green"/><polygon points="0.0,276.5378010099369 400.0,293.2440322779149 " stroke-opacity="0.25" stroke="green"/><polygon points="0.0,274.80002780398394 400.0,297.831271873464 " stroke-opacity="0.25" stroke="green"/><polygon points="0.0,273.2460784086685 400.0,301.9332675603876 " stroke-opacity="0.25" stroke="green"/><polygon points="0.0,326.29383193241296 400.0,115.73860459830748 " stroke-opacity="0.25" stroke="green"/><polygon points="-5.684341886080802e-14,313.36068750970355 400.00000000000006,157.26080511332196 " stroke-opacity="0.25" stroke="green"/><polygon points="-5.684341886080802e-14,303.99370645263593 400.00000000000006,187.33374429653898 " stroke-opacity="0.25" stroke="green"/><polygon points="0.0,296.89661337179496 400.0,210.1191483981863 " stroke-opacity="0.25" stroke="green"/><polygon points="0.0,291.33348727139384 400.0,227.97971114157932 " stroke-opacity="0.25" stroke="green"/><polygon points="-5.684341886080802e-14,286.85550469279434 400.00000000000006,242.3563920518198 " stroke-opacity="0.25" stroke="green"/><polygon points="0.0,283.1733777061831 400.0,254.17795764041387 " stroke-opacity="0.25" stroke="green"/><polygon points="0.0,280.09225466090237 400.0,264.06998425947296 " stroke-opacity="0.25" stroke="green"/><polygon points="0.0,277.4760926034021 400.0,272.46924139144767 " stroke-opacity="0.25" stroke="green"/><polygon points="0.0,275.22702735759617 400.0,279.68992454903497 " stroke-opacity="0.25" stroke="green"/><polygon points="-5.684341886080802e-14,273.27285856334726 400.00000000000006,285.96383488846584 " stroke-opacity="0.25" stroke="green"/><polygon points="0.0,271.55915469867216 400.0,291.4657262434753 " stroke-opacity="0.25" stroke="green"/><polygon points="5.684341886080802e-14,270.04410366325783 399.99999999999994,296.32983746243707 " stroke-opacity="0.25" stroke="green"/><polygon points="0.0,268.695056019014 400.0,300.6609904255358 " stroke-opacity="0.25" stroke="green"/><polygon points="0.0,267.4861454800426 400.0,304.5422295243386 " stroke-opacity="0.25" stroke="green"/><polygon points="0.0,302.8550887320479 400.0,136.90872530691212 " stroke-opacity="0.25" stroke="green"/><polygon points="0.0,294.0902785199536 400.0,173.30122060852915 " stroke-opacity="0.25" stroke="green"/><polygon points="0.0,287.64636089181863 400.0,200.05710423077988 " stroke-opacity="0.25" stroke="green"/><polygon points="0.0,282.7092698760381 400.0,220.5564712732655 " stroke-opacity="0.25" stroke="green"/><polygon points="5.684341886080802e-14,278.8058037134276 399.99999999999994,236.764109607157 " stroke-opacity="0.25" stroke="green"/><polygon points="0.0,275.64212322575975 400.0,249.90007313599645 " stroke-opacity="0.25" stroke="green"/><polygon points="0.0,273.02612560415287 400.0,260.7619947121195 " stroke-opacity="0.25" stroke="green"/><polygon points="0.0,270.8269215646853 400.0,269.8933416251631 " stroke-opacity="0.25" stroke="green"/><polygon points="5.684341886080802e-14,268.9522522733928 399.99999999999994,277.67718311454405 " stroke-opacity="0.25" stroke="green"/><polygon points="5.684341886080802e-14,267.33521698218544 399.99999999999994,284.3912987444077 " stroke-opacity="0.25" stroke="green"/><polygon points="0.0,265.92612085789654 400.0,290.2420271505916 " stroke-opacity="0.25" stroke="green"/><polygon points="0.0,264.68727775177496 400.0,295.3858455366144 " stroke-opacity="0.25" stroke="green"/><polygon points="0.0,263.5895894997844 400.0,299.9435728103989 " stroke-opacity="0.25" stroke="green"/><polygon points="0.0,262.61023147186165 400.0,304.00997944868516 " stroke-opacity="0.25" stroke="green"/><polygon points="0.0,261.7310483308265 400.0,307.6604484896727 " stroke-opacity="0.25" stroke="green"/><polygon points="0.0,281.52760828088094 400.0,156.52425376677823 " stroke-opacity="0.25" stroke="green"/><polygon points="0.0,276.2197860958326 400.0,188.69680831369553 " stroke-opacity="0.25" stroke="green"/><polygon points="0.0,272.272456850449 400.0,212.6229424293943 " stroke-opacity="0.25" stroke="green"/><polygon points="0.0,269.221963275862 400.0,231.1130439252354 " stroke-opacity="0.25" stroke="green"/><polygon points="-5.684341886080802e-14,266.79384205367586 400.00000000000006,245.83073034045933 " stroke-opacity="0.25" stroke="green"/><polygon points="0.0,264.81525666743977 400.0,257.8236238559444 " stroke-opacity="0.25" stroke="green"/><polygon points="0.0,263.1719453875111 400.0,267.7843045170258 " stroke-opacity="0.25" stroke="green"/><polygon points="0.0,261.78534548597975 400.0,276.1889683153785 " stroke-opacity="0.25" stroke="green"/><polygon points="0.0,260.5996614327485 400.0,283.37581134592403 " stroke-opacity="0.25" stroke="green"/><polygon points="-5.684341886080802e-14,259.57417472575156 400.00000000000006,289.59164259794596 " stroke-opacity="0.25" stroke="green"/><polygon points="0.0,258.67847352272753 400.0,295.02079881444564 " stroke-opacity="0.25" stroke="green"/><polygon points="0.0,257.8893856927691 400.0,299.803734332361 " stroke-opacity="0.25" stroke="green"/><polygon points="0.0,257.1889455085496 400.0,304.0493456674834 " stroke-opacity="0.25" stroke="green"/><polygon points="0.0,256.5630091701802 400.0,307.84336330541674 " stroke-opacity="0.25" stroke="green"/><polygon points="5.684341886080802e-14,256.0002898081268 399.99999999999994,311.2542008842012 " stroke-opacity="0.25" stroke="green"/><polygon points="-5.684341886080802e-14,261.7232150885572 400.00000000000006,175.07796275978217 " stroke-opacity="0.25" stroke="green"/><polygon points="0.0,259.3941264042543 400.0,203.69360705004175 " stroke-opacity="0.25" stroke="green"/><polygon points="5.684341886080802e-14,257.6473098910271 399.99999999999994,225.15534026773645 " stroke-opacity="0.25" stroke="green"/><polygon points="5.684341886080802e-14,256.28867482518376 399.99999999999994,241.84779943705453 " stroke-opacity="0.25" stroke="green"/><polygon points="0.0,255.20176677250902 400.0,255.20176677250902 " stroke-opacity="0.25" stroke="green"/><polygon points="0.0,254.3124783657752 400.0,266.1277400469718 " stroke-opacity="0.25" stroke="green"/><polygon points="0.0,253.571404693497 400.0,275.23271777569073 " stroke-opacity="0.25" stroke="green"/><polygon points="0.0,252.94434235541542 400.0,282.9369296999914 " stroke-opacity="0.25" stroke="green"/><polygon points="0.0,252.40686035134553 400.0,289.54053992082055 " stroke-opacity="0.25" stroke="green"/><polygon points="-5.684341886080802e-14,251.94104261448496 400.00000000000006,295.26366877887244 " stroke-opacity="0.25" stroke="green"/><polygon points="0.0,251.53345209473196 400.0,300.2714065296679 " stroke-opacity="0.25" stroke="green"/><polygon points="0.0,251.17381340083222 400.0,304.68999866272264 " stroke-opacity="0.25" stroke="green"/><polygon points="0.0,250.85413456181027 400.0,308.6176361143269 " stroke-opacity="0.25" stroke="green"/><polygon points="-5.684341886080802e-14,250.56810612689588 400.00000000000006,312.1318380447097 " stroke-opacity="0.25" stroke="green"/><polygon points="5.684341886080802e-14,250.31068053547293 399.99999999999994,315.29461978205416 " stroke-opacity="0.25" stroke="green"/><polygon points="-5.684341886080802e-14,242.984786795327 400.00000000000006,192.9630712271232 " stroke-opacity="0.25" stroke="green"/><polygon points="-5.684341886080802e-14,243.32568040971606 400.00000000000006,218.50402817039205 " stroke-opacity="0.25" stroke="green"/><polygon points="0.0,243.58284133718246 400.0,237.77143565081977 " stroke-opacity="0.25" stroke="green"/><polygon points="5.684341886080802e-14,243.7837456605118 399.99999999999994,252.8238991035836 " stroke-opacity="0.25" stroke="green"/><polygon points="0.0,243.9450333638749 400.0,264.9081450770913 " stroke-opacity="0.25" stroke="green"/><polygon points="0.0,244.07737087279978 400.0,274.823339949507 " stroke-opacity="0.25" stroke="green"/><polygon points="0.0,244.18791084207373 400.0,283.10538595027026 " stroke-opacity="0.25" stroke="green"/><polygon points="-5.684341886080802e-14,244.28162896017787 400.00000000000006,290.12707928292957 " stroke-opacity="0.25" stroke="green"/><polygon points="0.0,244.3620936072885 400.0,296.1557756285351 " stroke-opacity="0.25" stroke="green"/><polygon points="0.0,244.43193054577014 400.0,301.3882064031827 " stroke-opacity="0.25" stroke="green"/><polygon points="0.0,244.49311488923806 400.0,305.9723541142399 " stroke-opacity="0.25" stroke="green"/><polygon points="0.0,244.54716087987984 400.0,310.02167114944507 " stroke-opacity="0.25" stroke="green"/><polygon points="0.0,244.595248903283 400.0,313.6245961776182 " stroke-opacity="0.25" stroke="green"/><polygon points="0.0,244.63831269174838 400.0,316.8510877297701 " stroke-opacity="0.25" stroke="green"/><polygon points="0.0,244.6771005515932 400.0,319.75721156548263 " stroke-opacity="0.25" stroke="green"/><polygon points="0.0,224.93811510706823 400.0,210.51290462350357 " stroke-opacity="0.25" stroke="green"/><polygon points="-5.684341886080802e-14,227.77154499774247 400.00000000000006,233.3218299601249 " stroke-opacity="0.25" stroke="green"/><polygon points="0.0,229.91628895641367 400.0,250.5868785785894 " stroke-opacity="0.25" stroke="green"/><polygon points="-5.684341886080802e-14,231.59622468029164 400.00000000000006,264.11025130165245 " stroke-opacity="0.25" stroke="green"/><polygon points="0.0,232.9476794120753 400.0,274.9893735183458 " stroke-opacity="0.25" stroke="green"/><polygon points="0.0,234.05841572103662 400.0,283.9307281723495 " stroke-opacity="0.25" stroke="green"/><polygon points="0.0,234.98748865216345 400.0,291.40970451409527 " stroke-opacity="0.25" stroke="green"/><polygon points="0.0,235.77609635184183 400.0,297.75794492796626 " stroke-opacity="0.25" stroke="green"/><polygon points="-5.684341886080802e-14,236.45385510906567 400.00000000000006,303.2138586036992 " stroke-opacity="0.25" stroke="green"/><polygon points="0.0,237.04260204414896 400.0,307.95323293185106 " stroke-opacity="0.25" stroke="green"/><polygon points="5.684341886080802e-14,237.5587918685609 399.99999999999994,312.10852726374435 " stroke-opacity="0.25" stroke="green"/><polygon points="-5.684341886080802e-14,238.01505894935454 400.00000000000006,315.78144742797116 " stroke-opacity="0.25" stroke="green"/><polygon points="0.0,238.42126521275355 400.0,319.05138128574225 " stroke-opacity="0.25" stroke="green"/><polygon points="0.0,238.7852210634233 400.0,321.9812020838764 " stroke-opacity="0.25" stroke="green"/><polygon points="5.684341886080802e-14,239.11319247111592 399.99999999999994,324.6213504691352 " stroke-opacity="0.25" stroke="green"/><polygon points="0.0,207.25864407550657 400.0,228.02920765720324 " stroke-opacity="0.25" stroke="green"/><polygon points="0.0,212.51692080991586 400.0,248.33400962498857 " stroke-opacity="0.25" stroke="green"/><polygon points="-5.684341886080802e-14,216.50159245491182 400.00000000000006,263.72079368845255 " stroke-opacity="0.25" stroke="green"/><polygon points="-5.684341886080802e-14,219.62539389843548 400.00000000000006,275.78333297672657 " stroke-opacity="0.25" stroke="green"/><polygon points="0.0,222.14010755928086 400.0,285.49388368909536 " stroke-opacity="0.25" stroke="green"/><polygon points="0.0,224.20805135940677 400.0,293.47923544270225 " stroke-opacity="0.25" stroke="green"/><polygon points="0.0,225.93857306431462 400.0,300.1616339344309 " stroke-opacity="0.25" stroke="green"/><polygon points="-5.684341886080802e-14,227.4080279979763 400.00000000000006,305.8359247592817 " stroke-opacity="0.25" stroke="green"/><polygon points="0.0,228.671349401806 400.0,310.71423227751626 " stroke-opacity="0.25" stroke="green"/><polygon points="0.0,229.76906870264457 400.0,314.9530683345628 " stroke-opacity="0.25" stroke="green"/><polygon points="0.0,230.7317448474956 400.0,318.67043610876135 " stroke-opacity="0.25" stroke="green"/><polygon points="0.0,231.58285365278945 400.0,321.9569873150609 " stroke-opacity="0.25" stroke="green"/><polygon points="-5.684341886080802e-14,232.3407276109972 400.00000000000006,324.8835127558484 " stroke-opacity="0.25" stroke="green"/><polygon points="0.0,233.0198913117408 400.0,327.5060990410216 " stroke-opacity="0.25" stroke="green"/><polygon points="-5.684341886080802e-14,233.6320013253805 400.00000000000006,329.8697579424486 " stroke-opacity="0.25" stroke="green"/><polygon points="0.0,189.64629973842125 400.0,245.80471999215058 " stroke-opacity="0.25" stroke="green"/><polygon points="-5.684341886080802e-14,197.36203737783572 400.00000000000006,263.73133758003166 " stroke-opacity="0.25" stroke="green"/><polygon points="0.0,203.2024083512952 400.0,277.3007591837079 " stroke-opacity="0.25" stroke="green"/><polygon points="-5.684341886080802e-14,207.77705596801735 400.00000000000006,287.92942001392674 " stroke-opacity="0.25" stroke="green"/><polygon points="-5.684341886080802e-14,211.45721413120617 400.00000000000006,296.479838799215 " stroke-opacity="0.25" stroke="green"/><polygon points="0.0,214.48186985843077 400.0,303.50727403495534 " stroke-opacity="0.25" stroke="green"/><polygon points="0.0,217.0118364575869 400.0,309.3853567086718 " stroke-opacity="0.25" stroke="green"/><polygon points="5.684341886080802e-14,219.15930096029686 399.99999999999994,314.37474031951115 " stroke-opacity="0.25" stroke="green"/><polygon points="-5.684341886080802e-14,221.00491174133882 400.00000000000006,318.662801971426 " stroke-opacity="0.25" stroke="green"/><polygon points="0.0,222.60813365343319 400.0,322.3877013225668 " stroke-opacity="0.25" stroke="green"/><polygon points="5.684341886080802e-14,224.01377466484718 399.99999999999994,325.65354446745806 " stroke-opacity="0.25" stroke="green"/><polygon points="-5.684341886080802e-14,225.2562395306595 400.00000000000006,328.54026684666616 " stroke-opacity="0.25" stroke="green"/><polygon points="0.0,226.36238334815417 400.0,331.1102631503416 " stroke-opacity="0.25" stroke="green"/><polygon points="0.0,227.3534746983726 400.0,333.4129484489271 " stroke-opacity="0.25" stroke="green"/><polygon points="5.684341886080802e-14,228.24657649817874 399.99999999999994,335.48796644207243 " stroke-opacity="0.25" stroke="green"/><polygon points="-5.684341886080802e-14,171.80402543604725 400.00000000000006,264.14383258640294 " stroke-opacity="0.25" stroke="green"/><polygon points="-5.684341886080802e-14,182.11082682086084 400.00000000000006,279.7188817592472 " stroke-opacity="0.25" stroke="green"/><polygon points="-5.684341886080802e-14,189.88599916628763 400.00000000000006,291.46827782171454 " stroke-opacity="0.25" stroke="green"/><polygon points="0.0,195.96027240140577 400.0,300.6473723626896 " stroke-opacity="0.25" stroke="green"/><polygon points="5.684341886080802e-14,200.8367507342586 399.99999999999994,308.0164277067076 " stroke-opacity="0.25" stroke="green"/><polygon points="0.0,204.8379298783565 400.0,314.0627809439502 " stroke-opacity="0.25" stroke="green"/><polygon points="0.0,208.1800678953212 400.0,319.1132288970228 " stroke-opacity="0.25" stroke="green"/><polygon points="-5.684341886080802e-14,211.0136030179691 400.00000000000006,323.39510522513837 " stroke-opacity="0.25" stroke="green"/><polygon points="0.0,213.44642399572353 400.0,327.07144524010005 " stroke-opacity="0.25" stroke="green"/><polygon points="0.0,215.55791985211872 400.0,330.2622170968342 " stroke-opacity="0.25" stroke="green"/><polygon points="0.0,217.40780746915124 400.0,333.0576615343267 " stroke-opacity="0.25" stroke="green"/><polygon points="0.0,219.04186943944876 400.0,335.5269625898761 " stroke-opacity="0.25" stroke="green"/><polygon points="0.0,220.4957943159613 400.0,337.7240507649399 " stroke-opacity="0.25" stroke="green"/><polygon points="0.0,221.7978131742082 400.0,339.6915872473103 " stroke-opacity="0.25" stroke="green"/><polygon points="0.0,222.9705507987574 400.0,341.46376131831846 " stroke-opacity="0.25" stroke="green"/><polygon points="-5.684341886080802e-14,153.41664967758842 400.00000000000006,283.3845281707509 " stroke-opacity="0.25" stroke="green"/><polygon points="0.0,166.55992748056676 400.0,296.5278059737293 " stroke-opacity="0.25" stroke="green"/><polygon points="5.684341886080802e-14,176.4173858328005 399.99999999999994,306.385264325963 " stroke-opacity="0.25" stroke="green"/><polygon points="0.0,184.08429788453788 400.0,314.0521763777004 " stroke-opacity="0.25" stroke="green"/><polygon points="0.0,190.2178275259278 400.0,320.1857060190903 " stroke-opacity="0.25" stroke="green"/><polygon points="0.0,195.23616995979225 400.0,325.20404845295474 " stroke-opacity="0.25" stroke="green"/><polygon points="0.0,199.41812198801262 400.0,329.3860004811751 " stroke-opacity="0.25" stroke="green"/><polygon points="0.0,202.95669678112216 400.0,332.9245752742846 " stroke-opacity="0.25" stroke="green"/><polygon points="0.0,205.98976088950178 400.0,335.9576393826643 " stroke-opacity="0.25" stroke="green"/><polygon points="0.0,208.61841645009747 400.0,338.5862949432599 " stroke-opacity="0.25" stroke="green"/><polygon points="0.0,210.91849006561867 400.0,340.8863685587811 " stroke-opacity="0.25" stroke="green"/><polygon points="0.0,212.9479667851962 400.0,342.9158452783587 " stroke-opacity="0.25" stroke="green"/><polygon points="0.0,214.75194609148733 400.0,344.7198245846498 " stroke-opacity="0.25" stroke="green"/><polygon points="0.0,216.36603283922153 400.0,346.333911332384 " stroke-opacity="0.25" stroke="green"/><polygon points="5.684341886080802e-14,217.8187109121823 399.99999999999994,347.7865894053448 " stroke-opacity="0.25" stroke="green"/><polygon points="0.0,134.12678321375398 400.0,303.9250788339052 " stroke-opacity="0.25" stroke="green"/><polygon points="0.0,150.48665423847672 400.0,314.4299401710514 " stroke-opacity="0.25" stroke="green"/><polygon points="0.0,162.6531879118358 400.0,322.2422113680074 " stroke-opacity="0.25" stroke="green"/><polygon points="0.0,172.05547753309867 400.0,328.2795296679987 " stroke-opacity="0.25" stroke="green"/><polygon points="0.0,179.53947918998446 400.0,333.0850932041507 " stroke-opacity="0.25" stroke="green"/><polygon points="-5.684341886080802e-14,185.6379128981455 400.00000000000006,337.0009676252387 " stroke-opacity="0.25" stroke="green"/><polygon points="0.0,190.70295834537922 400.0,340.2532915591577 " stroke-opacity="0.25" stroke="green"/><polygon points="0.0,194.9767630737756 400.0,342.9975507275826 " stroke-opacity="0.25" stroke="green"/><polygon points="0.0,198.63130113301463 400.0,345.344171645658 " stroke-opacity="0.25" stroke="green"/><polygon points="-5.684341886080802e-14,201.7920758687051 400.00000000000006,347.37374145499246 " stroke-opacity="0.25" stroke="green"/><polygon points="5.684341886080802e-14,204.55282324254136 399.99999999999994,349.14644909463175 " stroke-opacity="0.25" stroke="green"/><polygon points="0.0,206.98496483945908 400.0,350.708155185671 " stroke-opacity="0.25" stroke="green"/><polygon points="0.0,209.14387496773048 400.0,352.0944162083025 " stroke-opacity="0.25" stroke="green"/><polygon points="0.0,211.07314791780334 400.0,353.3332245577935 " stroke-opacity="0.25" stroke="green"/><polygon points="5.684341886080802e-14,212.8075722947616 399.99999999999994,354.4469183975664 " stroke-opacity="0.25" stroke="green"/><polygon points="0.0,113.50359330842885 400.0,326.26022073053116 " stroke-opacity="0.25" stroke="green"/><polygon points="0.0,133.63432821404228 400.0,333.75717091444045 " stroke-opacity="0.25" stroke="green"/><polygon points="0.0,148.43451149086866 400.0,339.2689536317298 " stroke-opacity="0.25" stroke="green"/><polygon points="0.0,159.7738637459148 400.0,343.4918774033888 " stroke-opacity="0.25" stroke="green"/><polygon points="5.684341886080802e-14,168.73921959858512 399.99999999999994,346.8306937219995 " stroke-opacity="0.25" stroke="green"/><polygon points="0.0,176.0054594465882 400.0,349.53673691516804 " stroke-opacity="0.25" stroke="green"/><polygon points="0.0,182.01379885838938 400.0,351.774321457883 " stroke-opacity="0.25" stroke="green"/><polygon points="0.0,187.06486014215648 400.0,353.65540304769195 " stroke-opacity="0.25" stroke="green"/><polygon points="5.684341886080802e-14,191.37054042792354 399.99999999999994,355.2588949600133 " stroke-opacity="0.25" stroke="green"/><polygon points="5.684341886080802e-14,195.08449520761727 399.99999999999994,356.64202051897587 " stroke-opacity="0.25" stroke="green"/><polygon points="0.0,198.32086197976318 400.0,357.84728602872497 " stroke-opacity="0.25" stroke="green"/><polygon points="0.0,201.16619708177922 400.0,358.9069262066101 " stroke-opacity="0.25" stroke="green"/><polygon points="0.0,203.687332243307 400.0,359.84583006687626 " stroke-opacity="0.25" stroke="green"/><polygon points="0.0,205.93669034242393 400.0,360.68352057812285 " stroke-opacity="0.25" stroke="green"/><polygon points="0.0,207.95596997511248 400.0,361.4355268453867 " stroke-opacity="0.25" stroke="green"/><polygon points="0.0,90.9981527831095 400.0,351.0342837476109 " stroke-opacity="0.25" stroke="green"/><polygon points="-5.684341886080802e-14,115.69272627781748 400.00000000000006,354.92876634520803 " stroke-opacity="0.25" stroke="green"/><polygon points="-5.684341886080802e-14,133.5780598499941 400.00000000000006,357.7493908991808 " stroke-opacity="0.25" stroke="green"/><polygon points="0.0,147.12926448789108 400.0,359.8864972820902 " stroke-opacity="0.25" stroke="green"/><polygon points="0.0,157.75150930760083 400.0,361.56168910537235 " stroke-opacity="0.25" stroke="green"/><polygon points="-5.684341886080802e-14,166.30177877656894 400.00000000000006,362.91011796804526 " stroke-opacity="0.25" stroke="green"/><polygon points="0.0,173.33243988385988 400.0,364.0188954627371 " stroke-opacity="0.25" stroke="green"/><polygon points="0.0,179.21554278606834 400.0,364.946696134307 " stroke-opacity="0.25" stroke="green"/><polygon points="0.0,184.2108481883313 400.0,365.73448580651836 " stroke-opacity="0.25" stroke="green"/><polygon points="0.0,188.50521815681512 400.0,366.41173374981605 " stroke-opacity="0.25" stroke="green"/><polygon points="-5.684341886080802e-14,192.236512212877 400.00000000000006,367.000181238936 " stroke-opacity="0.25" stroke="green"/><polygon points="0.0,195.5086620204733 400.0,367.5162189216742 " stroke-opacity="0.25" stroke="green"/><polygon points="5.684341886080802e-14,198.4015036929577 399.99999999999994,367.97243743273714 " stroke-opacity="0.25" stroke="green"/><polygon points="0.0,200.97737813692862 400.0,368.3786683076211 " stroke-opacity="0.25" stroke="green"/><polygon points="0.0,203.28567449374776 400.0,368.7427005106334 " stroke-opacity="0.25" stroke="green"/><polygon points="-5.684341886080802e-14,65.87456042502552 400.00000000000006,379.1243405377393 " stroke-opacity="0.25" stroke="green"/><polygon points="0.0,96.27015032397384 400.0,378.4917176404758 " stroke-opacity="0.25" stroke="green"/><polygon points="5.684341886080802e-14,117.8642813275077 399.99999999999994,378.0422793579894 " stroke-opacity="0.25" stroke="green"/><polygon points="0.0,133.99634450379972 400.0,377.7065230005917 " stroke-opacity="0.25" stroke="green"/><polygon points="-5.684341886080802e-14,146.5060510151996 400.00000000000006,377.44615869104985 " stroke-opacity="0.25" stroke="green"/><polygon points="0.0,156.49031535744922 400.0,377.2383563665601 " stroke-opacity="0.25" stroke="green"/><polygon points="0.0,164.64377085919864 400.0,377.06865863542953 " stroke-opacity="0.25" stroke="green"/><polygon points="0.0,171.4276968148222 400.0,376.9274648995245 " stroke-opacity="0.25" stroke="green"/><polygon points="0.0,177.160417126541 400.0,376.80814988886476 " stroke-opacity="0.25" stroke="green"/><polygon points="0.0,182.06869743262038 400.0,376.70599393406553 " stroke-opacity="0.25" stroke="green"/><polygon points="0.0,186.31845504586738 400.0,376.61754380090815 " stroke-opacity="0.25" stroke="green"/><polygon points="0.0,190.03388529466721 400.0,376.54021461412833 " stroke-opacity="0.25" stroke="green"/><polygon points="-5.684341886080802e-14,193.30980023585715 400.00000000000006,376.4720330519947 " stroke-opacity="0.25" stroke="green"/><polygon points="0.0,196.21983308991014 400.0,376.4114665875378 " stroke-opacity="0.25" stroke="green"/><polygon points="0.0,198.8220390500509 400.0,376.35730691900517 " stroke-opacity="0.25" stroke="green"/><polygon points="0.0,37.09668607606508 387.42619383371914,400.0 " stroke-opacity="0.25" stroke="green"/><polygon points="0.0,74.8512004594493 393.72405897570076,399.99999999999994 " stroke-opacity="0.25" stroke="green"/><polygon points="5.684341886080802e-14,101.0207157703357 399.18356890519425,400.0 " stroke-opacity="0.25" stroke="green"/><polygon points="-5.684341886080802e-14,120.22824257005003 400.00000000000006,397.256261518334 " stroke-opacity="0.25" stroke="green"/><polygon points="0.0,134.92581042258834 400.0,394.6888477015925 " stroke-opacity="0.25" stroke="green"/><polygon points="-5.684341886080802e-14,146.5349492354699 400.00000000000006,392.6609296346237 " stroke-opacity="0.25" stroke="green"/><polygon points="0.0,155.9365716186208 400.0,391.018626945603 " stroke-opacity="0.25" stroke="green"/><polygon points="0.0,163.7056600615037 400.0,389.66150002420557 " stroke-opacity="0.25" stroke="green"/><polygon points="0.0,170.23346470012683 400.0,388.5212041609484 " stroke-opacity="0.25" stroke="green"/><polygon points="-5.684341886080802e-14,175.7954625914436 400.00000000000006,387.5496182238652 " stroke-opacity="0.25" stroke="green"/><polygon points="0.0,180.59123044115387 400.0,386.7118795746706 " stroke-opacity="0.25" stroke="green"/><polygon points="-5.684341886080802e-14,184.76890045936167 400.00000000000006,385.982112048904 " stroke-opacity="0.25" stroke="green"/><polygon points="0.0,188.44073277611506 400.0,385.3407057211786 " stroke-opacity="0.25" stroke="green"/><polygon points="0.0,191.6933541766276 400.0,384.77252837319224 " stroke-opacity="0.25" stroke="green"/><polygon points="-5.684341886080802e-14,194.59467936254666 400.00000000000006,384.26571646771754 " stroke-opacity="0.25" stroke="green"/><polygon points="0.0,3.1301327016636833 354.5660989954206,399.99999999999994 " stroke-opacity="0.25" stroke="green"/><polygon points="5.684341886080802e-14,50.72961646630591 362.59672232530215,400.0 " stroke-opacity="0.25" stroke="green"/><polygon points="0.0,82.69752206341443 369.6291432299817,400.00000000000006 " stroke-opacity="0.25" stroke="green"/><polygon points="-5.684341886080802e-14,105.64789892687372 375.8385856706874,399.99999999999994 " stroke-opacity="0.25" stroke="green"/><polygon points="-5.684341886080802e-14,122.92463060783815 381.36152903924363,400.0 " stroke-opacity="0.25" stroke="green"/><polygon points="0.0,136.40017225872094 386.3058559381895,400.0 " stroke-opacity="0.25" stroke="green"/><polygon points="-5.684341886080802e-14,147.2046901853243 390.7579692906309,400.00000000000006 " stroke-opacity="0.25" stroke="green"/><polygon points="0.0,156.06072256456366 394.787884684088,400.00000000000006 " stroke-opacity="0.25" stroke="green"/><polygon points="0.0,163.45175777330127 398.4529395623278,400.00000000000006 " stroke-opacity="0.25" stroke="green"/><polygon points="0.0,169.7135432869626 400.0,398.9680460574683 " stroke-opacity="0.25" stroke="green"/><polygon points="0.0,175.08651262045584 400.0,397.2944982322819 " stroke-opacity="0.25" stroke="green"/><polygon points="0.0,179.74736680169812 400.0,395.84275676599333 " stroke-opacity="0.25" stroke="green"/><polygon points="0.0,183.82887916150074 400.0,394.57146603097283 " stroke-opacity="0.25" stroke="green"/><polygon points="0.0,187.4327470773644 400.0,393.44894979488413 " stroke-opacity="0.25" stroke="green"/><polygon points="-5.684341886080802e-14,190.63818115572738 400.00000000000006,392.45053590162354 " stroke-opacity="0.25" stroke="green"/><polygon points="28.58663128807305,-5.684341886080802e-14 326.1463971762129,400.00000000000006 " stroke-opacity="0.25" stroke="green"/><polygon points="5.684341886080802e-14,22.89591481124168 335.4892465056364,399.99999999999994 " stroke-opacity="0.25" stroke="green"/><polygon points="0.0,62.42998775132506 343.7337502140625,399.99999999999994 " stroke-opacity="0.25" stroke="green"/><polygon points="0.0,90.03582801173945 351.0628380027341,400.0 " stroke-opacity="0.25" stroke="green"/><polygon points="-5.684341886080802e-14,110.40426187960234 357.6209535495487,400.00000000000006 " stroke-opacity="0.25" stroke="green"/><polygon points="0.0,126.05158161216956 363.5236699641837,399.99999999999994 " stroke-opacity="0.25" stroke="green"/><polygon points="0.0,138.44874463612993 368.8645596157965,400.00000000000006 " stroke-opacity="0.25" stroke="green"/><polygon points="5.684341886080802e-14,148.51312663180656 373.72019144254807,400.00000000000006 " stroke-opacity="0.25" stroke="green"/><polygon points="-5.684341886080802e-14,156.84654636048117 378.1538253281178,400.0 " stroke-opacity="0.25" stroke="green"/><polygon points="0.0,163.86020252625104 382.2181833681602,400.0 " stroke-opacity="0.25" stroke="green"/><polygon points="5.684341886080802e-14,169.84460732755787 385.95755636746617,400.0 " stroke-opacity="0.25" stroke="green"/><polygon points="-5.684341886080802e-14,175.01083649043807 389.40942445758753,400.00000000000006 " stroke-opacity="0.25" stroke="green"/><polygon points="0.0,179.51594299400193 392.60571774500147,400.0 " stroke-opacity="0.25" stroke="green"/><polygon points="0.0,183.47920094136146 395.5738069417506,400.0 " stroke-opacity="0.25" stroke="green"/><polygon points="-5.684341886080802e-14,186.99282074884846 398.3372891269273,400.00000000000006 " stroke-opacity="0.25" stroke="green"/><polygon points="56.062178851352996,0.0 300.8763055490308,400.0 " stroke-opacity="0.25" stroke="green"/><polygon points="7.712079994191328,0.0 311.2969183826144,400.0 " stroke-opacity="0.25" stroke="green"/><polygon points="0.0,39.57862205296763 320.5454560938309,400.0 " stroke-opacity="0.25" stroke="green"/><polygon points="-5.684341886080802e-14,73.11227058472718 328.80913641603263,400.0 " stroke-opacity="0.25" stroke="green"/><polygon points="0.0,97.25055731747554 336.2373199007752,400.00000000000006 " stroke-opacity="0.25" stroke="green"/><polygon points="5.684341886080802e-14,115.45685213583926 342.95061831362784,399.99999999999994 " stroke-opacity="0.25" stroke="green"/><polygon points="0.0,129.67855179302867 349.04749400006915,400.0 " stroke-opacity="0.25" stroke="green"/><polygon points="-5.684341886080802e-14,141.09472349468322 354.6091211640287,400.0 " stroke-opacity="0.25" stroke="green"/><polygon points="0.0,150.461007942447 359.7030206594244,400.00000000000006 " stroke-opacity="0.25" stroke="green"/><polygon points="0.0,158.2840362914871 364.3858147393164,399.99999999999994 " stroke-opacity="0.25" stroke="green"/><polygon points="0.0,164.9161946055405 368.7053407054232,400.0 " stroke-opacity="0.25" stroke="green"/><polygon points="0.0,170.6101723681536 372.70229102521967,400.0 " stroke-opacity="0.25" stroke="green"/><polygon points="0.0,175.5518909851131 376.41149923090086,400.0 " stroke-opacity="0.25" stroke="green"/><polygon points="0.0,179.88118994959783 379.86295775030914,400.0 " stroke-opacity="0.25" stroke="green"/><polygon points="0.0,183.7052709416984 383.08263067799203,400.0 " stroke-opacity="0.25" stroke="green"/><polygon points="80.68867400434576,0.0 277.8445847701959,400.0 " stroke-opacity="0.25" stroke="green"/><polygon points="32.609973907560885,-5.684341886080802e-14 289.22601053316953,400.00000000000006 " stroke-opacity="0.25" stroke="green"/><polygon points="0.0,13.228927738784193 299.36954558065037,400.00000000000006 " stroke-opacity="0.25" stroke="green"/><polygon points="0.0,54.510215165292095 308.4667306668479,400.0 " stroke-opacity="0.25" stroke="green"/><polygon points="0.0,83.32847180015837 316.6715281998417,399.99999999999994 " stroke-opacity="0.25" stroke="green"/><polygon points="-5.684341886080802e-14,104.5874433904265 324.1091069835578,400.0 " stroke-opacity="0.25" stroke="green"/><polygon points="0.0,120.91656888137858 330.8822726865399,400.0 " stroke-opacity="0.25" stroke="green"/><polygon points="0.0,133.8524877834203 337.0762486560436,400.0 " stroke-opacity="0.25" stroke="green"/><polygon points="0.0,144.35331816423934 342.76228056379784,400.00000000000006 " stroke-opacity="0.25" stroke="green"/><polygon points="0.0,153.04749167035712 348.0003891721873,400.0 " stroke-opacity="0.25" stroke="green"/><polygon points="0.0,160.36432655947422 352.84149719715833,400.00000000000006 " stroke-opacity="0.25" stroke="green"/><polygon points="-5.684341886080802e-14,166.6070989873405 357.3290902377668,400.00000000000006 " stroke-opacity="0.25" stroke="green"/><polygon points="0.0,171.99613550773464 361.5005266619505,400.0 " stroke-opacity="0.25" stroke="green"/><polygon points="-5.684341886080802e-14,176.6953576272159 365.388080063321,400.00000000000006 " stroke-opacity="0.25" stroke="green"/><polygon points="5.684341886080802e-14,180.82924613881423 369.0197758914833,400.0 " stroke-opacity="0.25" stroke="green"/><polygon points="103.24101918916305,0.0 256.3724625846903,400.0 " stroke-opacity="0.25" stroke="green"/><polygon points="55.07944448699723,-5.684341886080802e-14 268.6785181627554,400.00000000000006 " stroke-opacity="0.25" stroke="green"/><polygon points="12.034158839869662,0.0 279.6772797444322,400.0 " stroke-opacity="0.25" stroke="green"/><polygon points="0.0,33.73306697895063 289.5665548314288,400.00000000000006 " stroke-opacity="0.25" stroke="green"/><polygon points="0.0,68.47532306216257 298.5061598993638,400.00000000000006 " stroke-opacity="0.25" stroke="green"/><polygon points="0.0,93.42144785677394 306.6266232526509,400.0 " stroke-opacity="0.25" stroke="green"/><polygon points="0.0,112.20275100060081 314.0356003393277,400.0 " stroke-opacity="0.25" stroke="green"/><polygon points="0.0,126.8531432106301 320.8226735760758,400.00000000000006 " stroke-opacity="0.25" stroke="green"/><polygon points="0.0,138.60047185596224 327.06299217695647,399.99999999999994 " stroke-opacity="0.25" stroke="green"/><polygon points="-5.684341886080802e-14,148.22983982846236 332.8200663874268,399.99999999999994 " stroke-opacity="0.25" stroke="green"/><polygon points="0.0,156.26666285307385 338.14793676760803,400.0 " stroke-opacity="0.25" stroke="green"/><polygon points="0.0,163.07583929130374 343.09287573517486,400.0 " stroke-opacity="0.25" stroke="green"/><polygon points="0.0,168.91869923671152 347.69473494922255,400.0 " stroke-opacity="0.25" stroke="green"/><polygon points="0.0,173.9873144203712 351.98802165218945,400.0 " stroke-opacity="0.25" stroke="green"/><polygon points="0.0,178.4260162993478 356.00276551680224,400.00000000000006 " stroke-opacity="0.25" stroke="green"/><polygon points="124.31502517166312,0.0 235.92449552438512,400.0 " stroke-opacity="0.25" stroke="green"/><polygon points="75.69390284625888,0.0 249.18057670426612,400.0 " stroke-opacity="0.25" stroke="green"/><polygon points="32.16621028213933,0.0 261.0479832676352,400.0 " stroke-opacity="0.25" stroke="green"/><polygon points="0.0,10.085397009517294 271.73406568130997,400.0 " stroke-opacity="0.25" stroke="green"/><polygon points="-5.684341886080802e-14,52.49148011452971 281.40685080248363,399.99999999999994 " stroke-opacity="0.25" stroke="green"/><polygon points="0.0,81.94822881432987 290.20394196462667,400.00000000000006 " stroke-opacity="0.25" stroke="green"/><polygon points="5.684341886080802e-14,103.60138843246733 298.23910652208156,400.0 " stroke-opacity="0.25" stroke="green"/><polygon points="0.0,120.18920815369391 305.6072227771907,400.00000000000006 " stroke-opacity="0.25" stroke="green"/><polygon points="0.0,133.3029711010833 312.3880439839861,400.0 " stroke-opacity="0.25" stroke="green"/><polygon points="0.0,143.93060391909802 318.64909678849415,400.00000000000006 " stroke-opacity="0.25" stroke="green"/><polygon points="0.0,152.71788048776776 324.44793775139226,400.0 " stroke-opacity="0.25" stroke="green"/><polygon points="0.0,160.10474277635137 329.8339279085619,400.0 " stroke-opacity="0.25" stroke="green"/><polygon points="0.0,166.4012561640496 334.8496413385057,400.0 " stroke-opacity="0.25" stroke="green"/><polygon points="0.0,171.83224198580655 339.5319928747839,400.0 " stroke-opacity="0.25" stroke="green"/><polygon points="-5.684341886080802e-14,176.56468800607396 343.91314819528657,400.00000000000006 " stroke-opacity="0.25" stroke="green"/><polygon points="144.39435707743723,0.0 216.05029770093307,400.0 " stroke-opacity="0.25" stroke="green"/><polygon points="94.90583223590635,-5.684341886080802e-14 230.33491909435446,400.00000000000006 " stroke-opacity="0.25" stroke="green"/><polygon points="50.57764606739201,0.0 243.13003389120803,400.0 " stroke-opacity="0.25" stroke="green"/><polygon points="10.642665009954527,0.0 254.65707145366576,400.0 " stroke-opacity="0.25" stroke="green"/><polygon points="0.0,35.12714945078338 265.0956432385501,400.0 " stroke-opacity="0.25" stroke="green"/><polygon points="0.0,70.17589025872564 274.5929695927666,400.0 " stroke-opacity="0.25" stroke="green"/><polygon points="0.0,95.21070512154151 283.2708665166719,400.0 " stroke-opacity="0.25" stroke="green"/><polygon points="0.0,113.9868162686534 291.23099876363057,400.0 " stroke-opacity="0.25" stroke="green"/><polygon points="0.0,128.59045827196266 298.5588812250404,400.00000000000006 " stroke-opacity="0.25" stroke="green"/><polygon points="0.0,140.27337187461006 305.32696327951135,400.00000000000006 " stroke-opacity="0.25" stroke="green"/><polygon points="0.0,149.83211936768524 311.5970322787752,400.0 " stroke-opacity="0.25" stroke="green"/><polygon points="0.0,157.7977422785812 317.42210529684826,400.0 " stroke-opacity="0.25" stroke="green"/><polygon points="0.0,164.53788474164702 322.8479319017177,400.0 " stroke-opacity="0.25" stroke="green"/><polygon points="0.0,170.31514970998916 327.9141981686257,399.99999999999994 " stroke-opacity="0.25" stroke="green"/><polygon points="0.0,175.32211268255233 332.65549900634426,400.0 " stroke-opacity="0.25" stroke="green"/><polygon points="163.89694708049564,0.0 196.34257361555262,400.0 " stroke-opacity="0.25" stroke="green"/><polygon points="113.0879752499079,0.0 211.7865043006171,400.0 " stroke-opacity="0.25" stroke="green"/><polygon points="67.6016269394064,-5.684341886080802e-14 225.61256661036805,400.00000000000006 " stroke-opacity="0.25" stroke="green"/><polygon points="26.643152638586372,0.0 238.06233316295652,400.0 " stroke-opacity="0.25" stroke="green"/><polygon points="-5.684341886080802e-14,16.063062066549406 249.3315628029843,399.99999999999994 " stroke-opacity="0.25" stroke="green"/><polygon points="0.0,58.143267319934154 259.58056960180596,400.0 " stroke-opacity="0.25" stroke="green"/><polygon points="0.0,87.17628013671606 268.9418976432154,400.0 " stroke-opacity="0.25" stroke="green"/><polygon points="-5.684341886080802e-14,108.41567817923853 277.52608441600825,400.00000000000006 " stroke-opacity="0.25" stroke="green"/><polygon points="0.0,124.62827421204585 285.42604604754246,399.99999999999994 " stroke-opacity="0.25" stroke="green"/><polygon points="-5.684341886080802e-14,137.40980049354292 292.72045411703346,400.00000000000006 " stroke-opacity="0.25" stroke="green"/><polygon points="0.0,147.74520964080375 299.47636460592173,400.0 " stroke-opacity="0.25" stroke="green"/><polygon points="0.0,156.27537988396693 305.7512853407172,400.0 " stroke-opacity="0.25" stroke="green"/><polygon points="0.0,163.43529243064398 311.5948170373821,400.0 " stroke-opacity="0.25" stroke="green"/><polygon points="-5.684341886080802e-14,169.5305704846218 317.04996713703133,400.0 " stroke-opacity="0.25" stroke="green"/><polygon points="0.0,174.78223837178678 322.1542101008596,400.0 " stroke-opacity="0.25" stroke="green"/><polygon points="183.21082195716687,-5.684341886080802e-14 176.4026598166865,400.00000000000006 " stroke-opacity="0.25" stroke="green"/><polygon points="130.56330590071482,-5.684341886080802e-14 193.19465674903782,400.00000000000006 " stroke-opacity="0.25" stroke="green"/><polygon points="83.50862836418895,-5.684341886080802e-14 208.20281022011292,400.00000000000006 " stroke-opacity="0.25" stroke="green"/><polygon points="41.20053332703117,0.0 221.69703473995173,400.0 " stroke-opacity="0.25" stroke="green"/><polygon points="2.9552972018705077,0.0 233.89540487772092,400.0 " stroke-opacity="0.25" stroke="green"/><polygon points="0.0,45.939192587275556 244.9760305788369,400.0 " stroke-opacity="0.25" stroke="green"/><polygon points="-5.684341886080802e-14,79.70968655462684 255.0858110622839,400.0 " stroke-opacity="0.25" stroke="green"/><polygon points="-5.684341886080802e-14,103.70147198170501 264.3469843316668,400.00000000000006 " stroke-opacity="0.25" stroke="green"/><polygon points="0.0,121.62472150530624 272.86209383512653,399.99999999999994 " stroke-opacity="0.25" stroke="green"/><polygon points="-5.684341886080802e-14,135.52341436440355 280.71780128486773,400.00000000000006 " stroke-opacity="0.25" stroke="green"/><polygon points="5.684341886080802e-14,146.6162584203779 287.987846711888,399.99999999999994 " stroke-opacity="0.25" stroke="green"/><polygon points="0.0,155.67501400795817 294.7353702743571,400.0 " stroke-opacity="0.25" stroke="green"/><polygon points="-5.684341886080802e-14,163.21217750177374 301.0147508049585,400.0 " stroke-opacity="0.25" stroke="green"/><polygon points="0.0,169.5814171627586 306.87307451303815,400.0 " stroke-opacity="0.25" stroke="green"/><polygon points="0.0,175.03467702767927 312.35131782431637,400.00000000000006 " stroke-opacity="0.25" stroke="green"/><polygon points="202.72608105210628,-5.684341886080802e-14 155.80717772243537,400.00000000000006 " stroke-opacity="0.25" stroke="green"/><polygon points="147.6290651285234,-5.684341886080802e-14 174.20691931220696,400.00000000000006 " stroke-opacity="0.25" stroke="green"/><polygon points="98.52462745335626,0.0 190.6054292675782,400.0 " stroke-opacity="0.25" stroke="green"/><polygon points="54.48552708118507,0.0 205.31236126944603,400.0 " stroke-opacity="0.25" stroke="green"/><polygon points="14.766438300955883,0.0 218.5766180987275,400.0 " stroke-opacity="0.25" stroke="green"/><polygon points="5.684341886080802e-14,33.733559976684944 230.60055345831552,400.0 " stroke-opacity="0.25" stroke="green"/><polygon points="0.0,73.11406645234104 241.55036776760946,400.00000000000006 " stroke-opacity="0.25" stroke="green"/><polygon points="0.0,100.14068231912789 251.56383704866266,400.0 " stroke-opacity="0.25" stroke="green"/><polygon points="-5.684341886080802e-14,119.83844543186044 260.7561403639671,400.00000000000006 " stroke-opacity="0.25" stroke="green"/><polygon points="0.0,134.83249062290668 269.2243100661383,400.0 " stroke-opacity="0.25" stroke="green"/><polygon points="0.0,146.62794316468396 277.0506701832882,400.00000000000006 " stroke-opacity="0.25" stroke="green"/><polygon points="0.0,156.14966152463433 284.30552155488647,400.0 " stroke-opacity="0.25" stroke="green"/><polygon points="0.0,163.99729069411805 291.0492594539499,400.0 " stroke-opacity="0.25" stroke="green"/><polygon points="-5.684341886080802e-14,170.5766573094471 297.3340588711158,400.00000000000006 " stroke-opacity="0.25" stroke="green"/><polygon points="-5.684341886080802e-14,176.1722229366617 303.20522705008216,400.0 " stroke-opacity="0.25" stroke="green"/><polygon points="222.86881028701092,0.0 134.0696741133729,400.0 " stroke-opacity="0.25" stroke="green"/><polygon points="164.5787853254519,0.0 154.4302130513539,400.0 " stroke-opacity="0.25" stroke="green"/><polygon points="112.8450243025562,-5.684341886080802e-14 172.5006677545302,400.00000000000006 " stroke-opacity="0.25" stroke="green"/><polygon points="66.62028301833095,0.0 188.64683762555424,400.0 " stroke-opacity="0.25" stroke="green"/><polygon points="25.06907987322927,0.0 203.16055399664384,400.0 " stroke-opacity="0.25" stroke="green"/><polygon points="0.0,21.827616894408493 216.27747676501104,400.0 " stroke-opacity="0.25" stroke="green"/><polygon points="0.0,67.81849797987618 228.18998870612776,400.0 " stroke-opacity="0.25" stroke="green"/><polygon points="0.0,98.11727493922011 239.05669378755903,400.0 " stroke-opacity="0.25" stroke="green"/><polygon points="0.0,119.5847248683168 249.00951908473488,400.0 " stroke-opacity="0.25" stroke="green"/><polygon points="0.0,135.590872001283 258.1590972069459,400.00000000000006 " stroke-opacity="0.25" stroke="green"/><polygon points="0.0,147.98456975606516 266.59889609699763,400.0 " stroke-opacity="0.25" stroke="green"/><polygon points="0.0,157.8647557677216 274.4084236093449,400.0 " stroke-opacity="0.25" stroke="green"/><polygon points="-5.684341886080802e-14,165.92566424880306 281.65573999149274,400.0 " stroke-opacity="0.25" stroke="green"/><polygon points="-5.684341886080802e-14,172.62741908477722 288.39944659488566,400.00000000000006 " stroke-opacity="0.25" stroke="green"/><polygon points="0.0,178.28704477145325 294.69027392515375,400.00000000000006 " stroke-opacity="0.25" stroke="green"/><polygon points="244.14363860099726,0.0 110.58938986328869,400.0 " stroke-opacity="0.25" stroke="green"/><polygon points="181.72601773105964,-5.684341886080802e-14 133.39396333891906,400.00000000000006 " stroke-opacity="0.25" stroke="green"/><polygon points="126.64621406638035,0.0 153.51763053719003,400.0 " stroke-opacity="0.25" stroke="green"/><polygon points="77.68211256095437,0.0 171.40689697968122,400.0 " stroke-opacity="0.25" stroke="green"/><polygon points="33.868715235455056,-5.684341886080802e-14 187.4143292496215,400.00000000000006 " stroke-opacity="0.25" stroke="green"/><polygon points="0.0,10.735615126840344 201.8220249575496,400.0 " stroke-opacity="0.25" stroke="green"/><polygon points="0.0,64.42252596738166 214.85838101884892,400.0 " stroke-opacity="0.25" stroke="green"/><polygon points="0.0,98.11931647726877 226.71029137932524,400.0 " stroke-opacity="0.25" stroke="green"/><polygon points="0.0,121.2384994412555 237.53216446563343,400.0 " stroke-opacity="0.25" stroke="green"/><polygon points="0.0,138.08496427246826 247.4526874546446,400.00000000000006 " stroke-opacity="0.25" stroke="green"/><polygon points="-5.684341886080802e-14,150.90663596485967 256.57996793501206,400.00000000000006 " stroke-opacity="0.25" stroke="green"/><polygon points="5.684341886080802e-14,160.9919507182234 265.00548960552067,400.0 " stroke-opacity="0.25" stroke="green"/><polygon points="5.684341886080802e-14,169.1324231587532 272.8071893389138,400.00000000000006 " stroke-opacity="0.25" stroke="green"/><polygon points="5.684341886080802e-14,175.84114362238907 280.0518751711391,400.0 " stroke-opacity="0.25" stroke="green"/><polygon points="0.0,181.46530605815727 286.79714423397087,400.0 " stroke-opacity="0.25" stroke="green"/><polygon points="267.1950154822499,-5.684341886080802e-14 84.5746027701956,400.00000000000006 " stroke-opacity="0.25" stroke="green"/><polygon points="199.43442270123103,5.684341886080802e-14 110.49710519962692,399.99999999999994 " stroke-opacity="0.25" stroke="green"/><polygon points="140.09643739022732,0.0 133.19745366548233,400.0 " stroke-opacity="0.25" stroke="green"/><polygon points="87.70255918948739,0.0 153.24126348478575,400.0 " stroke-opacity="0.25" stroke="green"/><polygon points="41.10120569842755,0.0 171.06908419159015,400.0 " stroke-opacity="0.25" stroke="green"/><polygon points="-5.684341886080802e-14,1.317179565333447 187.02915612933324,400.0 " stroke-opacity="0.25" stroke="green"/><polygon points="5.684341886080802e-14,63.75017824333585 201.40038417153642,400.0 " stroke-opacity="0.25" stroke="green"/><polygon points="0.0,100.7513399890106 214.4087755860089,400.0 " stroke-opacity="0.25" stroke="green"/><polygon points="-5.684341886080802e-14,125.23059792577952 226.23941314457198,400.0 " stroke-opacity="0.25" stroke="green"/><polygon points="5.684341886080802e-14,142.62451288377997 237.04531701019263,400.00000000000006 " stroke-opacity="0.25" stroke="green"/><polygon points="0.0,155.6203776095241 246.9540994448851,400.00000000000006 " stroke-opacity="0.25" stroke="green"/><polygon points="0.0,165.6990453419031 256.0730281275378,399.99999999999994 " stroke-opacity="0.25" stroke="green"/><polygon points="0.0,173.74363828689013 264.4929250520752,400.00000000000006 " stroke-opacity="0.25" stroke="green"/><polygon points="0.0,180.31348911334567 272.2912018877006,400.0 " stroke-opacity="0.25" stroke="green"/><polygon points="0.0,185.78007468825248 279.53424699270704,400.0 " stroke-opacity="0.25" stroke="green"/><polygon points="292.90518117501574,0.0 54.91754986611326,400.0 " stroke-opacity="0.25" stroke="green"/><polygon points="218.16160425468257,0.0 84.92481895012935,400.0 " stroke-opacity="0.25" stroke="green"/><polygon points="153.36769534065,0.0 110.93759944444471,400.0 " stroke-opacity="0.25" stroke="green"/><polygon points="96.66072487730844,-5.684341886080802e-14 133.703720517919,400.00000000000006 " stroke-opacity="0.25" stroke="green"/><polygon points="46.615626092659824,5.684341886080802e-14 153.79530306510898,399.99999999999994 " stroke-opacity="0.25" stroke="green"/><polygon points="2.1235861467053496,0.0 171.65750166149235,400.0 " stroke-opacity="0.25" stroke="green"/><polygon points="0.0,66.90734359553915 187.64187401194687,400.0 " stroke-opacity="0.25" stroke="green"/><polygon points="0.0,106.73451708972979 202.02975173099645,400.0 " stroke-opacity="0.25" stroke="green"/><polygon points="-5.684341886080802e-14,132.03198524674278 215.04894148638485,400.0 " stroke-opacity="0.25" stroke="green"/><polygon points="0.0,149.52420933064033 226.8858763182153,400.0 " stroke-opacity="0.25" stroke="green"/><polygon points="0.0,162.3407259954385 237.69460039922558,400.0 " stroke-opacity="0.25" stroke="green"/><polygon points="0.0,172.1352534032702 247.60350988031013,400.0 " stroke-opacity="0.25" stroke="green"/><polygon points="-5.684341886080802e-14,179.8638981886669 256.72047750641127,400.0 " stroke-opacity="0.25" stroke="green"/><polygon points="0.0,186.1179164134684 265.1367957346185,400.0 " stroke-opacity="0.25" stroke="green"/><polygon points="-5.684341886080802e-14,191.28259054830684 272.9302443928774,400.0 " stroke-opacity="0.25" stroke="green"/><polygon points="322.5646964051306,0.0 19.974575677903914,400.0 " stroke-opacity="0.25" stroke="green"/><polygon points="238.53034262487375,-5.684341886080802e-14 55.50770886024654,400.00000000000006 " stroke-opacity="0.25" stroke="green"/><polygon points="166.65130938109343,0.0 85.9010795042098,400.0 " stroke-opacity="0.25" stroke="green"/><polygon points="104.46812744144658,0.0 112.1946509564417,400.0 " stroke-opacity="0.25" stroke="green"/><polygon points="50.14292520516747,0.0 135.16554987317642,400.0 " stroke-opacity="0.25" stroke="green"/><polygon points="2.274723623796575,0.0 155.40616701932376,400.0 " stroke-opacity="0.25" stroke="green"/><polygon points="5.684341886080802e-14,75.32448808625504 173.3759714749462,400.00000000000006 " stroke-opacity="0.25" stroke="green"/><polygon points="-5.684341886080802e-14,116.88147820460142 189.4368118980171,400.0 " stroke-opacity="0.25" stroke="green"/><polygon points="-5.684341886080802e-14,142.11939133162548 203.8775348732931,400.0 " stroke-opacity="0.25" stroke="green"/><polygon points="0.0,159.07314909016358 216.9315109391595,400.0 " stroke-opacity="0.25" stroke="green"/><polygon points="-5.684341886080802e-14,171.2465253893058 228.78934285141898,400.0 " stroke-opacity="0.25" stroke="green"/><polygon points="-5.684341886080802e-14,180.41155091693628 239.60823348775568,400.0 " stroke-opacity="0.25" stroke="green"/><polygon points="0.0,187.56074698530648 249.5189947480691,399.99999999999994 " stroke-opacity="0.25" stroke="green"/><polygon points="-5.684341886080802e-14,193.29328673994652 258.63136258090174,399.99999999999994 " stroke-opacity="0.25" stroke="green"/><polygon points="0.0,197.99228992450017 267.03807723795705,400.0 " stroke-opacity="0.25" stroke="green"/><polygon points="0.0,376.01281274106725 358.19417109350286,0.0 " stroke-opacity="0.25" stroke="green"/><polygon points="261.455392380008,-5.684341886080802e-14 20.46625687796825,400.00000000000006 " stroke-opacity="0.25" stroke="green"/><polygon points="180.18174692843394,-5.684341886080802e-14 56.85816299807453,400.00000000000006 " stroke-opacity="0.25" stroke="green"/><polygon points="110.93922592966096,0.0 87.86289164911393,400.0 " stroke-opacity="0.25" stroke="green"/><polygon points="51.240443609731926,0.0 114.59421973954649,400.0 " stroke-opacity="0.25" stroke="green"/><polygon points="5.684341886080802e-14,2.194233609418802 137.87869366192044,400.0 " stroke-opacity="0.25" stroke="green"/><polygon points="0.0,90.74459989261317 158.34261314626426,400.0 " stroke-opacity="0.25" stroke="green"/><polygon points="-5.684341886080802e-14,132.0270877179924 176.46921007203744,400.0 " stroke-opacity="0.25" stroke="green"/><polygon points="0.0,155.91555943694087 192.6372933850493,400.00000000000006 " stroke-opacity="0.25" stroke="green"/><polygon points="0.0,171.490292601048 207.14800970966522,400.0 " stroke-opacity="0.25" stroke="green"/><polygon points="0.0,182.44806426682396 220.24377562122996,400.00000000000006 " stroke-opacity="0.25" stroke="green"/><polygon points="0.0,190.57683605966088 232.12192908864375,400.00000000000006 " stroke-opacity="0.25" stroke="green"/><polygon points="-5.684341886080802e-14,196.8469116398384 242.94474224083848,400.0 " stroke-opacity="0.25" stroke="green"/><polygon points="-5.684341886080802e-14,201.83038847064012 252.84687883105514,400.0 " stroke-opacity="0.25" stroke="green"/><polygon points="0.0,205.8864260839956 261.9410261705641,400.0 " stroke-opacity="0.25" stroke="green"/><polygon points="-5.684341886080802e-14,335.1861106537584 400.00000000000006,2.666621381060992 " stroke-opacity="0.25" stroke="green"/><polygon points="0.0,370.3477822114339 288.3899271979628,0.0 " stroke-opacity="0.25" stroke="green"/><polygon points="194.27831506178103,0.0 21.89016241282161,400.0 " stroke-opacity="0.25" stroke="green"/><polygon points="115.73498899172475,-5.684341886080802e-14 59.42970151743049,400.00000000000006 " stroke-opacity="0.25" stroke="green"/><polygon points="49.19201530938676,5.684341886080802e-14 91.23370941565754,399.99999999999994 " stroke-opacity="0.25" stroke="green"/><polygon points="-5.684341886080802e-14,25.01214968887976 118.52336326064113,400.0 " stroke-opacity="0.25" stroke="green"/><polygon points="-5.684341886080802e-14,115.08337604980716 142.19613884027592,400.00000000000006 " stroke-opacity="0.25" stroke="green"/><polygon points="0.0,152.89448552217274 162.92640036786605,400.0 " stroke-opacity="0.25" stroke="green"/><polygon points="0.0,173.70050762373617 181.2306753083337,400.0 " stroke-opacity="0.25" stroke="green"/><polygon points="-5.684341886080802e-14,186.86713616524753 197.51127938253708,400.0 " stroke-opacity="0.25" stroke="green"/><polygon points="0.0,195.94921157061395 212.08623032508416,400.0 " stroke-opacity="0.25" stroke="green"/><polygon points="0.0,202.59217519821556 225.21022779303593,400.0 " stroke-opacity="0.25" stroke="green"/><polygon points="0.0,207.66228785100188 237.08966464313062,400.0 " stroke-opacity="0.25" stroke="green"/><polygon points="5.684341886080802e-14,211.65902401146698 247.89356093556145,400.0 " stroke-opacity="0.25" stroke="green"/><polygon points="5.684341886080802e-14,214.8906174964611 257.7616567277144,400.0 " stroke-opacity="0.25" stroke="green"/><polygon points="0.0,300.5178698524478 400.0,41.41767992704146 " stroke-opacity="0.25" stroke="green"/><polygon points="0.0,320.1762183519486 321.85418966299096,0.0 " stroke-opacity="0.25" stroke="green"/><polygon points="0.0,361.6433400542508 209.42723864898537,0.0 " stroke-opacity="0.25" stroke="green"/><polygon points="118.25073541507507,-5.684341886080802e-14 24.848983661581315,400.00000000000006 " stroke-opacity="0.25" stroke="green"/><polygon points="42.81992316350326,0.0 63.78303487672002,400.0 " stroke-opacity="0.25" stroke="green"/><polygon points="-5.684341886080802e-14,70.4061954328152 96.52781229031484,400.00000000000006 " stroke-opacity="0.25" stroke="green"/><polygon points="0.0,150.058851967274 124.45049312967411,400.0 " stroke-opacity="0.25" stroke="green"/><polygon points="0.0,179.88511382946928 148.54320095786846,400.0 " stroke-opacity="0.25" stroke="green"/><polygon points="0.0,195.4989436200703 169.54336070979676,399.99999999999994 " stroke-opacity="0.25" stroke="green"/><polygon points="5.684341886080802e-14,205.10422733127555 188.01050241987375,399.99999999999994 " stroke-opacity="0.25" stroke="green"/><polygon points="0.0,211.60963613521994 204.3768537687954,400.00000000000006 " stroke-opacity="0.25" stroke="green"/><polygon points="5.684341886080802e-14,216.3072857549368 218.98159588630025,400.0 " stroke-opacity="0.25" stroke="green"/><polygon points="0.0,219.85877682468492 232.09462258188734,400.0 " stroke-opacity="0.25" stroke="green"/><polygon points="-5.684341886080802e-14,222.63797018456194 243.93337306883046,400.00000000000006 " stroke-opacity="0.25" stroke="green"/><polygon points="0.0,224.87207442807068 254.67498484470266,400.0 " stroke-opacity="0.25" stroke="green"/><polygon points="0.0,269.87502548361743 400.0,74.92320774387353 " stroke-opacity="0.25" stroke="green"/><polygon points="0.0,278.0268358786776 366.7194067185993,0.0 " stroke-opacity="0.25" stroke="green"/><polygon points="0.0,294.3304566687981 226.46400024470836,0.0 " stroke-opacity="0.25" stroke="green"/><polygon points="-5.684341886080802e-14,343.2413190391594 117.37646187612654,5.684341886080802e-14 " stroke-opacity="0.25" stroke="green"/><polygon points="30.10643118126103,0.0 30.10643118126103,400.0 " stroke-opacity="0.25" stroke="green"/><polygon points="-5.684341886080802e-14,147.59786955771435 70.61944378274401,400.0 " stroke-opacity="0.25" stroke="green"/><polygon points="0.0,196.50873192807558 104.38028761731304,400.00000000000006 " stroke-opacity="0.25" stroke="green"/><polygon points="-5.684341886080802e-14,212.812352718196 132.94715547733304,400.00000000000006 " stroke-opacity="0.25" stroke="green"/><polygon points="-5.684341886080802e-14,220.9641631132562 157.43304221449304,400.0 " stroke-opacity="0.25" stroke="green"/><polygon points="0.0,225.8552493502923 178.654144053365,400.00000000000006 " stroke-opacity="0.25" stroke="green"/><polygon points="0.0,229.1159735083164 197.222608162378,399.99999999999994 " stroke-opacity="0.25" stroke="green"/><polygon points="0.0,231.4450621926193 213.60654708209535,400.00000000000006 " stroke-opacity="0.25" stroke="green"/><polygon points="-5.684341886080802e-14,233.19187870584648 228.17004834406632,400.0 " stroke-opacity="0.25" stroke="green"/><polygon points="5.684341886080802e-14,234.55051377168985 241.20054947319824,400.0 " stroke-opacity="0.25" stroke="green"/><polygon points="0.0,235.63742182436457 252.92800048941697,400.0 " stroke-opacity="0.25" stroke="green"/><polygon points="-5.684341886080802e-14,241.80924021919995 400.00000000000006,104.88695827475938 " stroke-opacity="0.25" stroke="green"/><polygon points="-5.684341886080802e-14,240.660333679765 400.00000000000006,18.806811223195353 " stroke-opacity="0.25" stroke="green"/><polygon points="0.0,238.4388987073554 247.04222872427064,0.0 " stroke-opacity="0.25" stroke="green"/><polygon points="-5.684341886080802e-14,232.32848629954768 110.92667518331795,0.0 " stroke-opacity="0.25" stroke="green"/><polygon points="0.0,140.413497838594 7.3587596030847635,-5.684341886080802e-14 " stroke-opacity="0.25" stroke="green"/><polygon points="0.0,262.8590573296832 38.65426022414607,400.0 " stroke-opacity="0.25" stroke="green"/><polygon points="-5.684341886080802e-14,253.47075545446722 80.8283106605848,400.0 " stroke-opacity="0.25" stroke="green"/><polygon points="0.0,250.65327395191315 115.58001917982415,400.0 " stroke-opacity="0.25" stroke="green"/><polygon points="0.0,249.2965456025533 144.71033032983263,400.00000000000006 " stroke-opacity="0.25" stroke="green"/><polygon points="0.0,248.49842054851737 169.48114839477782,400.0 " stroke-opacity="0.25" stroke="green"/><polygon points="0.0,247.97280595338296 190.80297217405558,400.0 " stroke-opacity="0.25" stroke="green"/><polygon points="0.0,247.60048598256458 209.34925439823064,400.0 " stroke-opacity="0.25" stroke="green"/><polygon points="0.0,247.32293317095198 225.62883050059236,400.00000000000006 " stroke-opacity="0.25" stroke="green"/><polygon points="-5.684341886080802e-14,247.108050526079 240.03332028772542,400.00000000000006 " stroke-opacity="0.25" stroke="green"/><polygon points="0.0,246.9367653526589 252.86904231122375,400.0 " stroke-opacity="0.25" stroke="green"/><polygon points="0.0,215.25079061356274 400.0,132.53057592314013 " stroke-opacity="0.25" stroke="green"/><polygon points="0.0,205.90629604915782 400.0,57.30800573374347 " stroke-opacity="0.25" stroke="green"/><polygon points="0.0,188.17548929940762 275.1110497865356,-5.684341886080802e-14 " stroke-opacity="0.25" stroke="green"/><polygon points="0.0,141.5791592458803 94.05684476820034,-5.684341886080802e-14 " stroke-opacity="0.25" stroke="green"/><polygon points="0.0,317.4319637585143 51.79517778841068,400.0 " stroke-opacity="0.25" stroke="green"/><polygon points="0.0,291.4486854556903 95.5410247596471,400.0 " stroke-opacity="0.25" stroke="green"/><polygon points="0.0,279.244197676206 131.10342871446448,400.0 " stroke-opacity="0.25" stroke="green"/><polygon points="0.0,272.15529869202464 160.58226873529622,400.00000000000006 " stroke-opacity="0.25" stroke="green"/><polygon points="-5.684341886080802e-14,267.5229231490954 185.41559160082008,400.0 " stroke-opacity="0.25" stroke="green"/><polygon points="0.0,264.25874758615583 206.62130980245195,400.0 " stroke-opacity="0.25" stroke="green"/><polygon points="0.0,261.83461067518397 224.9401889293484,400.0 " stroke-opacity="0.25" stroke="green"/><polygon points="0.0,259.96320475816697 240.92415991632848,400.0 " stroke-opacity="0.25" stroke="green"/><polygon points="-5.684341886080802e-14,258.47483277200695 254.9928858139086,400.00000000000006 " stroke-opacity="0.25" stroke="green"/><polygon points="0.0,189.33138946027353 400.0,158.8032286579703 " stroke-opacity="0.25" stroke="green"/><polygon points="-5.684341886080802e-14,172.11221611411509 400.00000000000006,92.31150094900802 " stroke-opacity="0.25" stroke="green"/><polygon points="0.0,139.6366847192082 323.3654807607344,0.0 " stroke-opacity="0.25" stroke="green"/><polygon points="0.0,55.50244952768574 53.693149302418846,5.684341886080802e-14 " stroke-opacity="0.25" stroke="green"/><polygon points="0.0,382.4405744222143 13.454144440460112,400.0 " stroke-opacity="0.25" stroke="green"/><polygon points="0.0,332.48194397657113 71.24107261009917,400.0 " stroke-opacity="0.25" stroke="green"/><polygon points="-5.684341886080802e-14,309.21996508992453 116.18646118648515,400.0 " stroke-opacity="0.25" stroke="green"/><polygon points="0.0,295.76760242777283 152.14277204759384,400.0 " stroke-opacity="0.25" stroke="green"/><polygon points="0.0,287.0002794555799 181.5615718430465,400.0 " stroke-opacity="0.25" stroke="green"/><polygon points="0.0,280.83349853115885 206.07723833925704,400.0 " stroke-opacity="0.25" stroke="green"/><polygon points="0.0,276.25964766526033 226.82126383605055,400.0 " stroke-opacity="0.25" stroke="green"/><polygon points="-5.684341886080802e-14,272.7321226904695 244.60185711901647,400.0 " stroke-opacity="0.25" stroke="green"/><polygon points="0.0,269.92873558329825 260.0117046309202,400.0 " stroke-opacity="0.25" stroke="green"/><polygon points="0.0,163.26666194827402 400.0,184.51470458842888 " stroke-opacity="0.25" stroke="green"/><polygon points="-5.684341886080802e-14,137.82058732712758 400.00000000000006,125.39371445577375 " stroke-opacity="0.25" stroke="green"/><polygon points="0.0,89.53767287545631 400.0,13.213987272985037 " stroke-opacity="0.25" stroke="green"/><polygon points="0.0,370.7618137473719 39.53193634894657,400.0 " stroke-opacity="0.25" stroke="green"/><polygon points="0.0,337.52766666652303 99.21669497256596,400.0 " stroke-opacity="0.25" stroke="green"/><polygon points="0.0,318.22382403597885 144.53463275035745,400.00000000000006 " stroke-opacity="0.25" stroke="green"/><polygon points="-5.684341886080802e-14,305.60936180625436 180.1158796266407,400.00000000000006 " stroke-opacity="0.25" stroke="green"/><polygon points="0.0,296.7206568711071 208.7939732818148,400.0 " stroke-opacity="0.25" stroke="green"/><polygon points="0.0,290.11946851326536 232.40020031535596,400.0 " stroke-opacity="0.25" stroke="green"/><polygon points="0.0,285.02342674421516 252.17072761414138,400.0 " stroke-opacity="0.25" stroke="green"/><polygon points="0.0,280.9704280118795 268.9701854160628,400.0 " stroke-opacity="0.25" stroke="green"/><polygon points="-5.684341886080802e-14,136.26177833219873 400.00000000000006,210.43442016176064 " stroke-opacity="0.25" stroke="green"/><polygon points="0.0,101.52498359084761 400.0,157.94216131211283 " stroke-opacity="0.25" stroke="green"/><polygon points="-5.684341886080802e-14,34.360659932458645 400.00000000000006,56.44727414162912 " stroke-opacity="0.25" stroke="green"/><polygon points="-5.684341886080802e-14,362.6378858224281 78.7054782417241,399.99999999999994 " stroke-opacity="0.25" stroke="green"/><polygon points="0.0,338.50684885086514 138.5380561949579,400.0 " stroke-opacity="0.25" stroke="green"/><polygon points="-5.684341886080802e-14,322.6150720373899 182.69928289107264,400.0 " stroke-opacity="0.25" stroke="green"/><polygon points="5.684341886080802e-14,311.35810555621356 216.63317167216985,400.0 " stroke-opacity="0.25" stroke="green"/><polygon points="5.684341886080802e-14,302.96639159520424 243.52385228953,400.00000000000006 " stroke-opacity="0.25" stroke="green"/><polygon points="-5.684341886080802e-14,296.4694886076884 265.35795383728447,400.00000000000006 " stroke-opacity="0.25" stroke="green"/><polygon points="0.0,291.29074020030544 283.4391755147044,400.0 " stroke-opacity="0.25" stroke="green"/><polygon points="0.0,107.41517736716426 400.0,237.3830558603267 " stroke-opacity="0.25" stroke="green"/><polygon points="-5.684341886080802e-14,61.4137050567401 400.00000000000006,191.3815835499025 " stroke-opacity="0.25" stroke="green"/><polygon points="94.14399902116611,0.0 399.99999999999994,99.37863892905409 " stroke-opacity="0.25" stroke="green"/><polygon points="5.684341886080802e-14,383.42401122970927 51.01564775072555,400.0 " stroke-opacity="0.25" stroke="green"/><polygon points="0.0,355.8231278434548 135.9624321600949,400.0 " stroke-opacity="0.25" stroke="green"/><polygon points="-5.684341886080802e-14,337.42253891928516 192.59362176634124,400.0 " stroke-opacity="0.25" stroke="green"/><polygon points="-5.684341886080802e-14,324.27926111630677 233.04447148508868,400.0 " stroke-opacity="0.25" stroke="green"/><polygon points="-5.684341886080802e-14,314.42180276407305 263.38260877414916,400.0 " stroke-opacity="0.25" stroke="green"/><polygon points="-5.684341886080802e-14,306.75489071233574 286.9789377767518,400.00000000000006 " stroke-opacity="0.25" stroke="green"/><polygon points="0.0,300.6213610709458 305.85600097883395,400.0 " stroke-opacity="0.25" stroke="green"/><polygon points="-5.684341886080802e-14,75.59463590261512 400.00000000000006,266.3409138768742 " stroke-opacity="0.25" stroke="green"/><polygon points="-5.684341886080802e-14,15.003298288325027 400.00000000000006,227.43451914378264 " stroke-opacity="0.25" stroke="green"/><polygon points="174.77793701286433,-5.684341886080802e-14 400.00000000000006,145.36576319330732 " stroke-opacity="0.25" stroke="green"/><polygon points="0.0,399.285978305963 3.8131557147411286,400.00000000000006 " stroke-opacity="0.25" stroke="green"/><polygon points="0.0,369.68038919752576 141.85215639476405,400.0 " stroke-opacity="0.25" stroke="green"/><polygon points="0.0,349.6292937980936 217.41399734812023,400.00000000000006 " stroke-opacity="0.25" stroke="green"/><polygon points="0.0,335.1501083207818 265.0873890967413,400.0 " stroke-opacity="0.25" stroke="green"/><polygon points="0.0,324.2036346408228 297.90662592363674,400.0 " stroke-opacity="0.25" stroke="green"/><polygon points="0.0,315.63755172862 321.8783513729775,400.0 " stroke-opacity="0.25" stroke="green"/><polygon points="0.0,308.75155291303304 340.15531119457216,399.99999999999994 " stroke-opacity="0.25" stroke="green"/><polygon points="0.0,39.24673939099398 400.0,298.6059926438255 " stroke-opacity="0.25" stroke="green"/><polygon points="53.5559114145172,0.0 400.00000000000006,268.5305781542874 " stroke-opacity="0.25" stroke="green"/><polygon points="212.46607854564024,5.684341886080802e-14 400.0,199.7222691693628 " stroke-opacity="0.25" stroke="green"/><polygon points="-5.684341886080802e-14,379.9010016796035 176.42649995737952,400.0 " stroke-opacity="0.25" stroke="green"/><polygon points="0.0,359.04158225647166 279.29266878989426,400.0 " stroke-opacity="0.25" stroke="green"/><polygon points="0.0,343.7842365137934 329.53958443105074,400.0 " stroke-opacity="0.25" stroke="green"/><polygon points="0.0,332.1393644304252 359.31861622877807,400.00000000000006 " stroke-opacity="0.25" stroke="green"/><polygon points="0.0,322.9597890389373 379.0198517060405,400.0 " stroke-opacity="0.25" stroke="green"/><polygon points="0.0,315.537568797436 393.01870801713494,400.0 " stroke-opacity="0.25" stroke="green"/><polygon points="4.629879233457984,0.0 400.0,336.0626960809977 " stroke-opacity="0.25" stroke="green"/><polygon points="105.81450486652238,0.0 400.0,318.61025797069834 " stroke-opacity="0.25" stroke="green"/><polygon points="238.08233851626022,0.0 400.0,273.3064225718057 " stroke-opacity="0.25" stroke="green"/><polygon points="0.0,386.58036035103964 400.0,397.6493736490138 " stroke-opacity="0.25" stroke="green"/><polygon points="0.0,365.6575678038854 400.0,394.34972356655805 " stroke-opacity="0.25" stroke="green"/><polygon points="0.0,350.1364736369135 400.0,391.90195377041675 " stroke-opacity="0.25" stroke="green"/><polygon points="0.0,338.1643779754603 400.0,390.0138823598986 " stroke-opacity="0.25" stroke="green"/><polygon points="-5.684341886080802e-14,328.6489167051664 400.00000000000006,388.51323695157805 " stroke-opacity="0.25" stroke="green"/><polygon points="-5.684341886080802e-14,320.904309851134 400.00000000000006,387.2918659234564 " stroke-opacity="0.25" stroke="green"/><polygon points="52.49021723425369,0.0 400.0,381.69533489976754 " stroke-opacity="0.25" stroke="green"/><polygon points="144.00896292728828,0.0 400.00000000000006,385.00317381797686 " stroke-opacity="0.25" stroke="green"/><polygon points="258.9138194016191,0.0 400.0,395.6054885558684 " stroke-opacity="0.25" stroke="green"/><polygon points="400.0,178.33933463276546 390.7008260332083,399.99999999999994 " stroke-opacity="0.25" stroke="green"/><polygon points="400.0,358.61194468435883 376.1045951222795,400.0 " stroke-opacity="0.25" stroke="green"/><polygon points="400.0,366.626792135047 355.46031998478423,400.00000000000006 " stroke-opacity="0.25" stroke="green"/><polygon points="400.00000000000006,369.4591622563623 324.02661897015,400.0 " stroke-opacity="0.25" stroke="green"/><polygon points="400.00000000000006,370.9075445632818 270.35283114401136,400.00000000000006 " stroke-opacity="0.25" stroke="green"/><polygon points="400.0,371.7871594423349 157.91514546455534,400.0 " stroke-opacity="0.25" stroke="green"/><polygon points="5.684341886080802e-14,390.01325676601385 399.99999999999994,372.37804734599047 " stroke-opacity="0.25" stroke="green"/><polygon points="-5.684341886080802e-14,369.62801612937534 400.00000000000006,372.80232501376526 " stroke-opacity="0.25" stroke="green"/><polygon points="0.0,354.2804867151366 400.0,373.12175288327376 " stroke-opacity="0.25" stroke="green"/><polygon points="-5.684341886080802e-14,342.30861641137335 400.00000000000006,373.37092321694416 " stroke-opacity="0.25" stroke="green"/><polygon points="0.0,332.70904440392053 400.0,373.5707189463915 " stroke-opacity="0.25" stroke="green"/><polygon points="0.0,324.8402076641734 400.0,373.7344929120537 " stroke-opacity="0.25" stroke="green"/><polygon points="90.24025591268558,-5.684341886080802e-14 371.4028474715286,400.00000000000006 " stroke-opacity="0.25" stroke="green"/><polygon points="174.59139025589326,0.0 360.9935072654554,400.0 " stroke-opacity="0.25" stroke="green"/><polygon points="277.63667243101,0.0 348.27721830095527,400.0 " stroke-opacity="0.25" stroke="green"/><polygon points="399.99999999999994,34.41845802243637 332.3914984493606,400.0 " stroke-opacity="0.25" stroke="green"/><polygon points="400.00000000000006,264.46528374641946 311.98272612305476,400.00000000000006 " stroke-opacity="0.25" stroke="green"/><polygon points="400.0,309.15283124100677 284.7985107290699,400.0 " stroke-opacity="0.25" stroke="green"/><polygon points="400.00000000000006,328.17390123248936 246.7932769392649,400.00000000000006 " stroke-opacity="0.25" stroke="green"/><polygon points="400.00000000000006,338.70753743034686 189.90033839798002,400.0 " stroke-opacity="0.25" stroke="green"/><polygon points="400.0,345.3983041334303 95.38397366335604,400.0 " stroke-opacity="0.25" stroke="green"/><polygon points="0.0,390.61274706390884 400.0,350.0247113982606 " stroke-opacity="0.25" stroke="green"/><polygon points="0.0,371.2075331147894 400.0,353.41447050055933 " stroke-opacity="0.25" stroke="green"/><polygon points="0.0,356.3778485093365 400.0,356.0049628552099 " stroke-opacity="0.25" stroke="green"/><polygon points="0.0,344.6760726274939 400.0,358.04906303429266 " stroke-opacity="0.25" stroke="green"/><polygon points="0.0,335.206997303206 400.0,359.70314859887435 " stroke-opacity="0.25" stroke="green"/><polygon points="5.684341886080802e-14,327.3872745825005 399.99999999999994,361.06912046290347 " stroke-opacity="0.25" stroke="green"/><polygon points="121.68934002393722,0.0 334.51948734877396,400.0 " stroke-opacity="0.25" stroke="green"/><polygon points="200.7695695916328,0.0 321.7847787586322,400.0 " stroke-opacity="0.25" stroke="green"/><polygon points="295.52450632651204,0.0 306.52588897805754,400.0 " stroke-opacity="0.25" stroke="green"/><polygon points="399.99999999999994,36.12223385969665 287.9097704822888,400.00000000000006 " stroke-opacity="0.25" stroke="green"/><polygon points="400.0,213.76381920471175 264.6914943989279,400.0 " stroke-opacity="0.25" stroke="green"/><polygon points="400.00000000000006,269.3078373990762 234.92379107544,400.0 " stroke-opacity="0.25" stroke="green"/><polygon points="400.00000000000006,296.4393581727059 195.38043170345733,400.0 " stroke-opacity="0.25" stroke="green"/><polygon points="400.00000000000006,312.5189604632959 140.2999253171435,400.0 " stroke-opacity="0.25" stroke="green"/><polygon points="400.0,323.1569165009337 58.286305077950914,400.0 " stroke-opacity="0.25" stroke="green"/><polygon points="0.0,388.8391958578003 400.0,330.71579361737133 " stroke-opacity="0.25" stroke="green"/><polygon points="0.0,370.7073775330779 400.0,336.3634091611373 " stroke-opacity="0.25" stroke="green"/><polygon points="-5.684341886080802e-14,356.6456297282757 400.00000000000006,340.7432978216495 " stroke-opacity="0.25" stroke="green"/><polygon points="0.0,345.42182116662593 400.0,344.2392381933109 " stroke-opacity="0.25" stroke="green"/><polygon points="0.0,336.25557143105874 400.0,347.09429958635644 " stroke-opacity="0.25" stroke="green"/><polygon points="0.0,328.62859634379043 400.0,349.4699147774728 " stroke-opacity="0.25" stroke="green"/><polygon points="149.07160075431463,0.0 303.1527847307965,400.0 " stroke-opacity="0.25" stroke="green"/><polygon points="224.3589279102372,-5.684341886080802e-14 288.7847882052249,400.00000000000006 " stroke-opacity="0.25" stroke="green"/><polygon points="313.31921641496234,0.0 271.8074141313309,400.0 " stroke-opacity="0.25" stroke="green"/><polygon points="400.0,47.56338368613382 251.4388332068514,400.0 " stroke-opacity="0.25" stroke="green"/><polygon points="400.0,185.80736193663768 226.5502216683721,400.00000000000006 " stroke-opacity="0.25" stroke="green"/><polygon points="400.0,242.04015400592203 195.44923039368197,400.0 " stroke-opacity="0.25" stroke="green"/><polygon points="400.0,272.5450297104428 155.47818918171885,400.0 " stroke-opacity="0.25" stroke="green"/><polygon points="400.00000000000006,291.69152910949487 102.2113563406174,400.00000000000006 " stroke-opacity="0.25" stroke="green"/><polygon points="400.00000000000006,304.8278372275236 27.691286394989532,400.0 " stroke-opacity="0.25" stroke="green"/><polygon points="-5.684341886080802e-14,385.14789961499673 400.00000000000006,314.3999900612579 " stroke-opacity="0.25" stroke="green"/><polygon points="0.0,368.4566373777327 400.0,321.6852574602757 " stroke-opacity="0.25" stroke="green"/><polygon points="0.0,355.3275667438592 400.0,327.415728224483 " stroke-opacity="0.25" stroke="green"/><polygon points="0.0,344.73029335393653 400.0,332.04114056590095 " stroke-opacity="0.25" stroke="green"/><polygon points="0.0,335.9968758073389 400.0,335.8530321550338 " stroke-opacity="0.25" stroke="green"/><polygon points="0.0,328.6753367496758 400.0,339.0486784188823 " stroke-opacity="0.25" stroke="green"/><polygon points="173.81241452884535,5.684341886080802e-14 275.4982888321815,399.99999999999994 " stroke-opacity="0.25" stroke="green"/><polygon points="246.5063865762006,0.0 259.830983988013,400.0 " stroke-opacity="0.25" stroke="green"/><polygon points="331.5407431393972,0.0 241.50402854753375,400.0 " stroke-opacity="0.25" stroke="green"/><polygon points="400.0,60.8721262124528 219.7773613369767,400.0 " stroke-opacity="0.25" stroke="green"/><polygon points="400.0,170.77877653178967 193.6082833503246,400.0 " stroke-opacity="0.25" stroke="green"/><polygon points="400.0,223.76343942969584 161.4791417104131,400.0 " stroke-opacity="0.25" stroke="green"/><polygon points="399.99999999999994,254.95115452130474 121.0921472904859,400.0 " stroke-opacity="0.25" stroke="green"/><polygon points="400.00000000000006,275.4976107128303 68.79417821659675,400.0 " stroke-opacity="0.25" stroke="green"/><polygon points="0.0,399.56324015746424 400.0,290.05529467821975 " stroke-opacity="0.25" stroke="green"/><polygon points="0.0,379.956227519353 400.0,300.9095150087596 " stroke-opacity="0.25" stroke="green"/><polygon points="0.0,364.77434855171225 400.0,309.31403141255157 " stroke-opacity="0.25" stroke="green"/><polygon points="0.0,352.6714401885591 400.0,316.01406453022554 " stroke-opacity="0.25" stroke="green"/><polygon points="0.0,342.79708796936063 400.0,321.48039418414777 " stroke-opacity="0.25" stroke="green"/><polygon points="0.0,334.5876550137036 400.0,326.02504337340235 " stroke-opacity="0.25" stroke="green"/><polygon points="0.0,327.654796566021 400.0,329.8629953603013 " stroke-opacity="0.25" stroke="green"/><polygon points="196.89499179806782,0.0 250.33565510913374,400.0 " stroke-opacity="0.25" stroke="green"/><polygon points="268.0175739591482,5.684341886080802e-14 233.49916852967533,399.99999999999994 " stroke-opacity="0.25" stroke="green"/><polygon points="350.62226529098496,0.0 213.9445807356198,400.0 " stroke-opacity="0.25" stroke="green"/><polygon points="400.0,74.35803738143738 190.95587446550826,400.00000000000006 " stroke-opacity="0.25" stroke="green"/><polygon points="400.0,163.54133416268036 163.54133416268044,400.0 " stroke-opacity="0.25" stroke="green"/><polygon points="400.0,211.95886515199695 130.28671702899965,400.00000000000006 " stroke-opacity="0.25" stroke="green"/><polygon points="400.0,242.3619163597898 89.10340144968178,400.0 " stroke-opacity="0.25" stroke="green"/><polygon points="400.00000000000006,263.22735613464937 36.772011321724506,400.0 " stroke-opacity="0.25" stroke="green"/><polygon points="0.0,391.0101226473116 400.0,278.4346796099222 " stroke-opacity="0.25" stroke="green"/><polygon points="5.684341886080802e-14,373.62701235445513 399.99999999999994,290.0105775491004 " stroke-opacity="0.25" stroke="green"/><polygon points="0.0,359.95214010514974 400.0,299.11705635653857 " stroke-opacity="0.25" stroke="green"/><polygon points="0.0,348.9132857920139 400.0,306.4681373047409 " stroke-opacity="0.25" stroke="green"/><polygon points="0.0,339.81526043245094 400.0,312.5267661252481 " stroke-opacity="0.25" stroke="green"/><polygon points="0.0,332.187575303177 400.0,317.6062543802899 " stroke-opacity="0.25" stroke="green"/><polygon points="-5.684341886080802e-14,325.70044436489815 400.00000000000006,321.9262157907897 " stroke-opacity="0.25" stroke="green"/><polygon points="219.05389094276637,0.0 226.78041445776157,400.0 " stroke-opacity="0.25" stroke="green"/><polygon points="289.5243186433407,0.0 208.77408876645717,400.0 " stroke-opacity="0.25" stroke="green"/><polygon points="370.98277826847345,0.0 187.9601445038462,400.0 " stroke-opacity="0.25" stroke="green"/><polygon points="400.00000000000006,87.5329518867353 163.6263954703178,400.00000000000006 " stroke-opacity="0.25" stroke="green"/><polygon points="400.00000000000006,161.21062774910146 134.79753476994546,400.0 " stroke-opacity="0.25" stroke="green"/><polygon points="400.0,204.85833688087007 100.101255139477,399.99999999999994 " stroke-opacity="0.25" stroke="green"/><polygon points="400.00000000000006,233.72760476949946 57.54336442754814,400.0 " stroke-opacity="0.25" stroke="green"/><polygon points="400.00000000000006,254.23738118231864 4.110504448167802,400.0 " stroke-opacity="0.25" stroke="green"/><polygon points="0.0,381.77208303984594 400.0,269.5593688450349 " stroke-opacity="0.25" stroke="green"/><polygon points="0.0,366.4635220402539 400.0,281.440897372245 " stroke-opacity="0.25" stroke="green"/><polygon points="0.0,354.2454320650737 400.0,290.9237994289433 " stroke-opacity="0.25" stroke="green"/><polygon points="-5.684341886080802e-14,344.26776625874606 400.00000000000006,298.6678271606165 " stroke-opacity="0.25" stroke="green"/><polygon points="-5.684341886080802e-14,335.9660411772071 400.00000000000006,305.1110966086064 " stroke-opacity="0.25" stroke="green"/><polygon points="5.684341886080802e-14,328.95071283952194 399.99999999999994,310.55594696222045 " stroke-opacity="0.25" stroke="green"/><polygon points="-5.684341886080802e-14,322.94428028251195 400.00000000000006,315.21775676751696 " stroke-opacity="0.25" stroke="green"/><polygon points="240.88754339241294,-5.684341886080802e-14 204.1421200675766,400.00000000000006 " stroke-opacity="0.25" stroke="green"/><polygon points="311.58243658404587,0.0 184.86783765016614,400.0 " stroke-opacity="0.25" stroke="green"/><polygon points="393.07728406909314,5.684341886080802e-14 162.6490516095289,399.99999999999994 " stroke-opacity="0.25" stroke="green"/><polygon points="400.0,100.25904413264443 136.75521874703907,400.0 " stroke-opacity="0.25" stroke="green"/><polygon points="400.0,162.07924819046443 106.19234010972306,400.0 " stroke-opacity="0.25" stroke="green"/><polygon points="400.0,201.2150590876041 69.57243011117248,399.99999999999994 " stroke-opacity="0.25" stroke="green"/><polygon points="400.0,228.2166027476226 24.896842788413238,400.0 " stroke-opacity="0.25" stroke="green"/><polygon points="-5.684341886080802e-14,389.12371903015 400.00000000000006,247.9698587109921 " stroke-opacity="0.25" stroke="green"/><polygon points="0.0,372.11824219037555 400.0,263.048043065633 " stroke-opacity="0.25" stroke="green"/><polygon points="0.0,358.71163237186585 400.0,274.93523307617255 " stroke-opacity="0.25" stroke="green"/><polygon points="0.0,347.8707676190726 400.0,284.54746323275504 " stroke-opacity="0.25" stroke="green"/><polygon points="0.0,338.9234274018794 400.0,292.48076887008887 " stroke-opacity="0.25" stroke="green"/><polygon points="0.0,331.4133576548172 400.0,299.13969512245717 " stroke-opacity="0.25" stroke="green"/><polygon points="-5.684341886080802e-14,325.0199885997223 400.00000000000006,304.8084804301708 " stroke-opacity="0.25" stroke="green"/><polygon points="0.0,319.5114866642733 400.0,309.69268382435786 " stroke-opacity="0.25" stroke="green"/></svg>
