<?xml version="1.0" encoding="UTF-8"?>
<!DOCTYPE svg PUBLIC "-//W3C//DTD SVG 1.1//EN"
    "http://www.w3.org/Graphics/SVG/1.1/DTD/svg11.dtd"><svg width="400" height="400" stroke="black" fill="none" fill-opacity="0.75" font-size="14" font-style="italic" font-family="sans-serif" xmlns="http://www.w3.org/2000/svg" xmlns:xlink="http://www.w3.org/1999/xlink" version="1.1"><filter id="blur1"><feGaussianBlur stdDeviation="0.5"/></filter><rect width="100%" height="100%" fill="white" stroke="none" fill-opacity="1"/><rect class="bg" fill="black" width="100%" height="100%" stroke="none" fill-opacity="1"/><polyline class="polyline" opacity="0.5" stroke="blue" points="235.43896064179995,171.74847609034197 265.36831340207743,147.7487203650026 "/><polyline class="polyline" opacity="0.5" stroke="blue" points="234.47059775650501,170.8424236170577 263.88526991235364,145.7061708817825 "/><polyline class="polyline" opacity="0.5" stroke="blue" points="233.48906000737026,169.94855302885327 262.3755270237713,143.68477519662622 "/><polyline class="polyline" opacity="0.5" stroke="blue" points="232.49467267928065,169.06714017805285 260.8397594307103,141.68508008251317 "/><polyline class="polyline" opacity="0.5" stroke="blue" points="231.48776307883435,168.19845791660128 259.27864613456353,139.70762622353314 "/><polyline class="polyline" opacity="0.5" stroke="blue" points="230.46866054296925,167.34277612789757 257.69287055040013,137.75294850507564 "/><polyline class="polyline" opacity="0.5" stroke="blue" points="229.43769645044625,166.50036175663058 256.08312063045537,135.82157629538287 "/><polyline class="polyline" opacity="0.5" stroke="blue" points="228.39520423604353,165.67147883648835 254.45008900367066,133.9140337177525 "/><polyline class="polyline" opacity="0.5" stroke="blue" points="227.34151940731152,164.8563885156131 252.79447313049235,132.0308399126895 "/><polyline class="polyline" opacity="0.5" stroke="blue" points="226.276979563739,164.05534907967908 251.11697547213126,130.17250928931523 "/><polyline class="polyline" opacity="0.5" stroke="blue" points="225.20192441817804,163.26861597247046 249.4183036734704,128.33955176535054 "/><polyline class="polyline" opacity="0.5" stroke="blue" points="224.1166958203739,162.49644181384065 247.69917075879738,126.5324729949963 "/><polyline class="polyline" opacity="0.5" stroke="blue" points="223.02163778244474,161.73907641493562 245.96029533952174,124.75177458404147 "/><polyline class="polyline" opacity="0.5" stroke="blue" points="221.91709650615388,160.99676679056688 244.20240183302437,122.99795429153114 "/><polyline class="polyline" opacity="0.5" stroke="blue" points="220.8034204118157,160.2697571686216 242.42622069176764,121.27150621733178 "/><polyline class="polyline" opacity="0.5" stroke="blue" points="219.68096016867378,159.55828899639957 240.6324886417767,119.57292097493146 "/><polyline class="polyline" opacity="0.5" stroke="blue" points="218.55006872658913,158.86260094376945 238.82194892958287,117.90268584881447 "/><polyline class="polyline" opacity="0.5" stroke="blue" points="217.41110134887296,158.18292890303783 236.99535157669726,116.2612849357498 "/><polyline class="polyline" opacity="0.5" stroke="blue" points="216.2644156460969,157.51950598542837 235.1534536406603,114.64919926933155 "/><polyline class="polyline" opacity="0.5" stroke="blue" points="215.11037161071158,156.8725625140689 233.2970194816861,113.06690692710868 "/><polyline class="polyline" opacity="0.5" stroke="blue" points="213.94933165230142,156.2423260133878 231.42682103389365,111.5148831196399 "/><polyline class="polyline" opacity="0.5" stroke="blue" points="212.7816606333019,155.62902119482254 229.5436380800886,109.9936002608066 "/><polyline class="polyline" opacity="0.5" stroke="blue" points="211.6077259050024,155.03286993874568 227.6482585290256,108.50352801871522 "/><polyline class="polyline" opacity="0.5" stroke="blue" points="210.4278973436555,154.4540912725163 225.74147869405013,107.04513334651831 "/><polyline class="polyline" opacity="0.5" stroke="blue" points="209.24254738651064,153.89290134456655 223.8241035719823,105.61888049248142 "/><polyline class="polyline" opacity="0.5" stroke="blue" points="208.05205106758777,153.34951339443654 221.8969471210685,104.22523098862166 "/><polyline class="polyline" opacity="0.5" stroke="blue" points="206.85678605300305,152.8241377186717 219.96083253678623,102.86464361724329 "/><polyline class="polyline" opacity="0.5" stroke="blue" points="205.65713267565656,152.31698163250186 218.0165925242489,101.53757435469431 "/><polyline class="polyline" opacity="0.5" stroke="blue" points="204.45347396908815,151.82824942722124 216.0650695659113,100.24447629167227 "/><polyline class="polyline" opacity="0.5" stroke="blue" points="203.24619570030535,151.3581423231939 214.1071161832352,98.98579952940649 "/><polyline class="polyline" opacity="0.5" stroke="blue" points="202.0356864013834,150.90685841841093 212.14359519092574,97.76199105105022 "/><polyline class="polyline" opacity="0.5" stroke="blue" points="200.82233739963462,150.4745926325289 210.17537994230287,96.5734945676224 "/><polyline class="polyline" opacity="0.5" stroke="blue" points="199.60654284614156,150.06153664632365 208.20335456432343,95.42075033784492 "/><polyline class="polyline" opacity="0.5" stroke="blue" points="198.38869974244395,149.66787883649522 206.22841418071883,94.30419496123379 "/><polyline class="polyline" opacity="0.5" stroke="blue" points="197.16920796516763,149.2938042057656 204.25146512166202,93.2242611438149 "/><polyline class="polyline" opacity="0.5" stroke="blue" points="195.9484702883794,148.93949430821326 202.27342511832745,92.18137743585157 "/><polyline class="polyline" opacity="0.5" stroke="blue" points="194.72689240344874,148.6051271697935 200.29522348065336,91.17596794099059 "/><polyline class="polyline" opacity="0.5" stroke="blue" points="193.5048829361941,148.29087720399843 198.317801256566,90.20845199625643 "/><polyline class="polyline" opacity="0.5" stroke="blue" points="192.28285346108854,147.99691512261444 196.3421113708713,89.27924382235153 "/><polyline class="polyline" opacity="0.5" stroke="blue" points="191.0612185122956,147.72340784154045 194.3691187419703,88.38875214375044 "/><polyline class="polyline" opacity="0.5" stroke="blue" points="189.8403955913042,147.47051838163563 192.39980037450292,87.53737977811404 "/><polyline class="polyline" opacity="0.5" stroke="blue" points="188.62080517092713,147.23840576457104 190.43514542597592,86.72552319458843 "/><polyline class="polyline" opacity="0.5" stroke="blue" points="187.40287069542617,147.027224903665 188.47615524538472,85.95357204060296 "/><polyline class="polyline" opacity="0.5" stroke="blue" points="186.1870185765228,146.8371264896894 186.52384338179385,85.22190863683062 "/><polyline class="polyline" opacity="0.5" stroke="blue" points="184.9736781850518,146.6682568716397 184.5792355607984,84.53090744003563 "/><polyline class="polyline" opacity="0.5" stroke="blue" points="183.76328183801178,146.52075793246934 182.64336962675242,83.88093447359495 "/><polyline class="polyline" opacity="0.5" stroke="blue" points="182.5562647807656,146.39476695979616 180.71729544861472,83.27234672555348 "/><polyline class="polyline" opacity="0.5" stroke="blue" points="181.3530651641395,146.2904165115967 178.80207478723491,82.70549151415088 "/><polyline class="polyline" opacity="0.5" stroke="blue" points="180.15412401617112,146.2078342769121 176.8987811218778,82.18070582084202 "/><polyline class="polyline" opacity="0.5" stroke="blue" points="178.9598852082513,146.14714293159784 175.00849943376838,81.69831559092933 "/><polyline class="polyline" opacity="0.5" stroke="blue" points="177.77079541540698,146.10845998915997 173.1323259444279,81.25863500202308 "/><polyline class="polyline" opacity="0.5" stroke="blue" points="176.58730407046895,146.09189764672803 171.2713678065714,80.86196570065738 "/><polyline class="polyline" opacity="0.5" stroke="blue" points="175.40986331186917,146.09756262622614 169.42674274534093,80.50859600750486 "/><polyline class="polyline" opacity="0.5" stroke="blue" points="174.23892792481178,146.12555601081442 167.59957864766693,80.19880009176201 "/><polyline class="polyline" opacity="0.5" stroke="blue" points="173.07495527556236,146.17597307668262 165.79101309757556,79.9328371154068 "/><polyline class="polyline" opacity="0.5" stroke="blue" points="171.91840523860094,146.2489031202904 164.00219285529707,79.71095034817776 "/><polyline class="polyline" opacity="0.5" stroke="blue" points="170.76974011638515,146.34442928115956 162.23427327808184,79.53336625427237 "/><polyline class="polyline" opacity="0.5" stroke="blue" points="169.62942455147257,146.4626283603371 160.48841768069244,79.40029355192331 "/><polyline class="polyline" opacity="0.5" stroke="blue" points="168.49792543075287,146.60357063465943 158.76579663361764,79.31192224717924 "/><polyline class="polyline" opacity="0.5" stroke="blue" points="167.3757117815442,146.76731966696204 157.0675871971477,79.26842264339365 "/><polyline class="polyline" opacity="0.5" stroke="blue" points="166.26325465931137,146.9539321123927 155.39497208955635,79.26994432811007 "/><polyline class="polyline" opacity="0.5" stroke="blue" points="165.16102702676847,147.16345752100045 153.74913878776226,79.31661513922124 "/><polyline class="polyline" opacity="0.5" stroke="blue" points="164.069503624133,147.395938136787 152.13127855898273,79.40854011248261 "/><polyline class="polyline" opacity="0.5" stroke="blue" points="162.98916083030517,147.6514086934223 150.54258542205542,79.54580041266235 "/><polyline class="polyline" opacity="0.5" stroke="blue" points="161.92047651475224,147.929896206842 148.9842550372821,79.72845225082223 "/><polyline class="polyline" opacity="0.5" stroke="blue" points="160.86392987988603,148.23141976495992 147.45748352384894,79.95652579044008 "/><polyline class="polyline" opacity="0.5" stroke="blue" points="159.8200012937293,148.55599031474557 145.96346620409702,80.23002404530351 "/><polyline class="polyline" opacity="0.5" stroke="blue" points="158.78917211267708,148.90361044693205 144.50339627415775,80.54892177232725 "/><polyline class="polyline" opacity="0.5" stroke="blue" points="157.77192449416873,149.27427417863913 143.07846340072814,80.91316436267215 "/><polyline class="polyline" opacity="0.5" stroke="blue" points="156.76874119909832,149.66796673421112 141.68985224404474,81.32266673476775 "/><polyline class="polyline" opacity="0.5" stroke="blue" points="155.78010538380258,150.08466432458806 140.33874090741722,81.77731223306357 "/><polyline class="polyline" opacity="0.5" stroke="blue" points="154.8065003814807,150.5243339255467 139.0262993140085,82.27695153655922 "/><polyline class="polyline" opacity="0.5" stroke="blue" points="153.84840947291292,150.98693305516528 137.75368751189194,82.82140158137534 "/><polyline class="polyline" opacity="0.5" stroke="blue" points="152.90631564636146,151.47240955088444 136.52205390878353,83.41044450184505 "/><polyline class="polyline" opacity="0.5" stroke="blue" points="151.98070134655507,151.98070134655507 135.33253343822923,84.04382659480127 "/><polyline class="polyline" opacity="0.5" stroke="blue" points="151.0720482126741,152.51173624988223 134.1862456594334,84.72125731193749 "/><polyline class="polyline" opacity="0.5" stroke="blue" points="150.18083680527525,153.06543172069294 133.0842927933324,85.44240828529206 "/><polyline class="polyline" opacity="0.5" stroke="blue" points="149.30754632211236,153.64169465047257 132.0277576979534,86.20691239107884 "/><polyline class="polyline" opacity="0.5" stroke="blue" points="148.4526543028339,154.24042114363536 131.01770178655067,87.01436285723491 "/><polyline class="polyline" opacity="0.5" stroke="blue" points="147.61663632255886,154.86149630100942 130.05516289246995,87.86431242018773 "/><polyline class="polyline" opacity="0.5" stroke="blue" points="146.79996567435796,155.5047940060374 129.1411530851653,88.75627253645244 "/><polyline class="polyline" opacity="0.5" stroke="blue" points="146.00311304069112,156.17017671420848 128.27665644227,89.68971265475845 "/><polyline class="polyline" opacity="0.5" stroke="blue" points="145.22654615388018,156.85749524625697 127.46262678310622,90.66405955446115 "/><polyline class="polyline" opacity="0.5" stroke="blue" points="144.47072944572182,157.56658858567693 126.69998536950142,91.67869675602793 "/><polyline class="polyline" opacity="0.5" stroke="blue" points="143.73612368637583,158.29728368111978 125.98961858026014,92.73296400938492 "/><polyline class="polyline" opacity="0.5" stroke="blue" points="143.0231856126936,159.04939525425624 125.33237556611667,93.82615686587963 "/><polyline class="polyline" opacity="0.5" stroke="blue" points="142.33236754618173,159.8227256136983 124.72906589245693,94.9575263395454 "/><polyline class="polyline" opacity="0.5" stroke="blue" points="141.66411700082998,160.61706447559092 124.18045717755226,96.12627866324539 "/><polyline class="polyline" opacity="0.5" stroke="blue" points="141.0188762810635,161.43218879149475 123.68727273447784,97.33157514513151 "/><polyline class="polyline" opacity="0.5" stroke="blue" points="140.39708207011563,162.26786258419392 123.25018922530124,98.57253213066492 "/><polyline class="polyline" opacity="0.5" stroke="blue" points="139.79916500915175,163.12383679207232 122.8698343365085,99.84822107521816 "/><polyline class="polyline" opacity="0.5" stroke="blue" points="139.2255492675098,163.9998491227104 122.54678448498645,101.15766873200656 "/><polyline class="polyline" opacity="0.5" stroke="blue" points="138.67665210446216,164.8956239163632 122.28156256419514,102.49985745978299 "/><polyline class="polyline" opacity="0.5" stroke="blue" points="138.15288342293803,165.81087201998596 122.07463574043757,103.87372565436954 "/><polyline class="polyline" opacity="0.5" stroke="blue" points="137.65464531568568,166.745290672477 121.9264133093603,105.27816830769684 "/><polyline class="polyline" opacity="0.5" stroke="blue" points="137.18233160439144,167.69856340181266 121.83724462299804,106.71203769757582 "/><polyline class="polyline" opacity="0.5" stroke="blue" points="136.736327372311,168.67035993474707 121.80741709779615,108.1741442109363 "/><polyline class="polyline" opacity="0.5" stroke="blue" points="136.31700849100815,169.6603361197513 121.83715431410988,109.66325730273707 "/><polyline class="polyline" opacity="0.5" stroke="blue" points="135.92474114183455,170.66813386386127 121.92661421768156,111.17810659218108 "/><polyline class="polyline" opacity="0.5" stroke="blue" points="135.55988133282327,171.69338108409977 122.07588743353098,112.71738309726267 "/><polyline class="polyline" opacity="0.5" stroke="blue" points="135.22277441170903,172.73569167412995 122.28499570256585,114.27974060803278 "/><polyline class="polyline" opacity="0.5" stroke="blue" points="134.91375457582424,173.79466548678826 122.55389045101059,115.86379719829505 "/><polyline class="polyline" opacity="0.5" stroke="blue" points="134.63314437966,174.86988833313288 122.88245150248062,117.46813687474622 "/><polyline class="polyline" opacity="0.5" stroke="blue" points="134.38125424091797,175.96093199862798 123.27048594217487,119.09131136185272 "/><polyline class="polyline" opacity="0.5" stroke="blue" points="134.15838194591467,177.0673542770686 123.71772714223678,120.73184202001434 "/><polyline class="polyline" opacity="0.5" stroke="blue" points="133.96481215523698,178.18869902282975 124.2238339568334,122.38822189381231 "/><polyline class="polyline" opacity="0.5" stroke="blue" points="133.8008159105798,179.32449622200213 124.78839009492933,124.05891788637891 "/><polyline class="polyline" opacity="0.5" stroke="blue" points="133.66665014373132,180.47426208295025 125.41090367808623,125.74237305516289 "/><polyline class="polyline" opacity="0.5" stroke="blue" points="133.56255718870173,181.63749914680304 126.09080698990411,127.43700902360675 "/><polyline class="polyline" opacity="0.5" stroke="blue" points="133.48876429802044,182.8136964183536 126.82745642293915,129.14122850250448 "/><polyline class="polyline" opacity="0.5" stroke="blue" points="133.44548316425517,184.0023295178143 127.62013262808793,130.8534179140791 "/><polyline class="polyline" opacity="0.5" stroke="blue" points="133.43290944782981,185.2028608538351 128.46804087052607,132.5719501111126 "/><polyline class="polyline" opacity="0.5" stroke="blue" points="133.45122231224292,186.41473981815474 129.37031159533763,134.29518718278416 "/><polyline class="polyline" opacity="0.5" stroke="blue" points="133.50058396780614,187.63740300221377 130.32600120496727,136.02148333823502 "/><polyline class="polyline" opacity="0.5" stroke="blue" points="133.58113922504185,188.87027443601215 131.33409304959167,137.7491878582805 "/><polyline class="polyline" opacity="0.5" stroke="blue" points="133.69301505889172,190.11276584944912 132.39349863043483,139.4766481051445 "/><polyline class="polyline" opacity="0.5" stroke="blue" points="133.8363201848993,191.3642769563329 133.50305901495705,141.20221257959815 "/><polyline class="polyline" opacity="0.5" stroke="blue" points="134.0111446485388,192.6241957611955 134.66154646173877,142.92423401445376 "/><polyline class="polyline" opacity="0.5" stroke="blue" points="134.21755942886443,193.89189888899415 135.86766625176432,144.641072492998 "/><polyline class="polyline" opacity="0.5" stroke="blue" points="134.45561605765724,195.16675193772517 137.12005872169965,146.35109858065158 "/><polyline class="polyline" opacity="0.5" stroke="blue" points="134.72534625524017,196.4481098539158 138.4173014936551,148.0526964579177 "/><polyline class="polyline" opacity="0.5" stroke="blue" points="135.0267615841297,197.7353173309018 139.75791189484784,149.74426704253509 "/><polyline class="polyline" opacity="0.5" stroke="blue" points="135.3598531216743,199.02770922973352 141.14034955953025,151.4242310886808 "/><polyline class="polyline" opacity="0.5" stroke="blue" points="135.7245911528208,200.32461102249272 142.56301920453978,153.09103225107927 "/><polyline class="polyline" opacity="0.5" stroke="blue" points="136.12092488412532,201.62533925773485 144.0242735688717,154.7431401019659 "/><polyline class="polyline" opacity="0.5" stroke="blue" points="136.54878218010353,202.92920204770755 145.5224165067681,156.3790530890252 "/><polyline class="polyline" opacity="0.5" stroke="blue" points="137.00806932298488,204.23549957692774 147.05570622298248,157.99730142267492 "/><polyline class="polyline" opacity="0.5" stroke="blue" points="137.49867079690407,205.5435246316335 148.62235863811537,159.5964498814001 "/><polyline class="polyline" opacity="0.5" stroke="blue" points="138.02044909752274,206.852563149558 150.22055087122556,161.17510052424396 "/><polyline class="polyline" opacity="0.5" stroke="blue" points="138.57324456803545,208.1618947894063 151.8484248263258,162.73189530004294 "/><polyline class="polyline" opacity="0.5" stroke="blue" points="139.15687526246484,209.4707935193466 153.504090868856,164.2655185435391 "/><polyline class="polyline" opacity="0.5" stroke="blue" points="139.77113683710166,210.77852822376173 155.18563157780974,165.77469934911323 "/><polyline class="polyline" opacity="0.5" stroke="blue" points="140.4158024708902,212.08436332743963 156.89110555886978,167.25821381355075 "/><polyline class="polyline" opacity="0.5" stroke="blue" points="141.09062281549947,213.38755943631702 158.61855130368372,168.7148871399744 "/><polyline class="polyline" opacity="0.5" stroke="blue" points="141.79532597575846,214.6873739938259 160.36599108028878,170.14359559584346 "/><polyline class="polyline" opacity="0.5" stroke="blue" points="142.52961752106634,215.98306195183096 162.13143483967292,171.54326831872748 "/><polyline class="polyline" opacity="0.5" stroke="blue" points="143.29318052831738,217.27387645508674 163.91288412353282,172.91288896439983 "/><polyline class="polyline" opacity="0.5" stroke="blue" points="144.0856756568069,218.55906953808417 165.7083359584655,174.25149719266153 "/><polyline class="polyline" opacity="0.5" stroke="blue" points="144.90674125550672,219.83789283310273 167.51578672209462,175.55818998718541 "/><polyline class="polyline" opacity="0.5" stroke="blue" points="145.75599350301894,221.10959828823175 169.3332359669913,176.83212280656392 "/><polyline class="polyline" opacity="0.5" stroke="blue" points="146.63302658043278,222.37343889407595 171.15869018869378,178.07251056463514 "/><polyline class="polyline" opacity="0.5" stroke="blue" points="147.5374128772256,223.62866941781513 172.9901665246499,179.2786284390533 "/><polyline class="polyline" opacity="0.5" stroke="blue" points="148.46870323025993,224.8745471432464 174.82569637150968,180.4498125079441 "/><polyline class="polyline" opacity="0.5" stroke="blue" points="149.42642719584103,226.11033261540064 176.66332890885653,181.58546021534644 "/><polyline class="polyline" opacity="0.5" stroke="blue" points="150.41009335470787,227.3352903882914 178.5011345181947,182.68503066697278 "/><polyline class="polyline" opacity="0.5" stroke="blue" points="151.4191896497398,228.54868977432605 180.33720808678976,183.74804475862473 "/><polyline class="polyline" opacity="0.5" stroke="blue" points="152.45318375606877,229.7498055938859 182.16967218678334,184.77408514036384 "/><polyline class="polyline" opacity="0.5" stroke="blue" points="153.511523483195,230.93791892356262 183.99668012086713,185.7627960202627 "/><polyline class="polyline" opacity="0.5" stroke="blue" points="154.5936372086121,232.11231784152477 185.8164188266918,186.71388281223895 "/><polyline class="polyline" opacity="0.5" stroke="blue" points="155.69893434235593,233.27229816848003 187.6271116331019,187.6271116331019 "/><polyline class="polyline" opacity="0.5" stroke="blue" points="156.8268058218017,234.41716420269506 189.42702086221223,188.5023086545178 "/><polyline class="polyline" opacity="0.5" stroke="blue" points="157.97662463594463,235.5462294475375 191.21445027227622,189.33935931611754 "/><polyline class="polyline" opacity="0.5" stroke="blue" points="159.14774637831164,236.65881733001223 192.987747337225,190.13820740643314 "/><polyline class="polyline" opacity="0.5" stroke="blue" points="160.33950982756886,237.7542619087764 194.74530535968034,190.89885401875284 "/><polyline class="polyline" opacity="0.5" stroke="blue" points="161.55123755480506,238.83190857013807 196.48556541514796,191.6213563893272 "/><polyline class="polyline" opacity="0.5" stroke="blue" points="162.78223655639277,239.89111471056424 198.2070181259839,192.305826625643 "/><polyline class="polyline" opacity="0.5" stroke="blue" points="164.03179891125484,240.93125040425713 199.9082052645811,192.9524303327078 "/><polyline class="polyline" opacity="0.5" stroke="blue" points="165.29920246128842,241.95169905438837 201.58772118604753,193.56138514545273 "/><polyline class="polyline" opacity="0.5" stroke="blue" points="166.58371151363468,242.95185802662343 203.24421409143181,194.132959175474 "/><polyline class="polyline" opacity="0.5" stroke="blue" points="167.88457756341495,243.9311392636115 204.87638712329704,194.66746938038673 "/><polyline class="polyline" opacity="0.5" stroke="blue" points="169.20104003549838,244.88896987916615 206.48299929613967,195.16527986407084 "/><polyline class="polyline" opacity="0.5" stroke="blue" points="170.53232704381003,245.82479273091607 208.06286626480275,195.62680011603982 "/><polyline class="polyline" opacity="0.5" stroke="blue" points="171.8776561666411,246.73806697026353 209.6148609346311,196.05248319807205 "/><polyline class="polyline" opacity="0.5" stroke="blue" points="173.23623523637838,247.62826856855074 211.13791391766347,196.44282388610708 "/><polyline class="polyline" opacity="0.5" stroke="blue" points="174.60726314203356,248.49489081840102 212.63101383965204,196.79835677523272 "/><polyline class="polyline" opacity="0.5" stroke="blue" points="175.98993064292094,249.3374448092705 214.09320750313918,197.1196543553762 "/><polyline class="polyline" opacity="0.5" stroke="blue" points="177.38342119180436,250.1554598763206 215.5235999122076,197.40732506506615 "/><polyline class="polyline" opacity="0.5" stroke="blue" points="178.7869117658177,250.94848402179636 216.92135416485456,197.66201133035673 "/><polyline class="polyline" opacity="0.5" stroke="blue" points="180.19957370344568,251.7160843081746 218.2856912192192,197.8843875957065 "/><polyline class="polyline" opacity="0.5" stroke="blue" points="181.62057354584564,252.45784722242718 219.61588954012225,198.07515835327882 "/><polyline class="polyline" opacity="0.5" stroke="blue" points="183.04907388079022,253.17337901082564 220.91128463255538,198.23505617679433 "/><polyline class="polyline" opacity="0.5" stroke="blue" points="184.48423418751224,253.8623059837994 222.1712684688895,198.36483976570662 "/><polyline class="polyline" opacity="0.5" stroke="blue" points="185.92521168074657,254.52427479044272 223.39528881665512,198.4652920051099 "/><polyline class="polyline" opacity="0.5" stroke="blue" points="187.3711621522772,255.15895266235327 224.58284847379105,198.53721804640955 "/><polyline class="polyline" opacity="0.5" stroke="blue" points="188.82124080832205,255.76602762656927 225.73350441825733,198.58144341341094 "/><polyline class="polyline" opacity="0.5" stroke="blue" points="190.27460310111306,256.3452086874594 226.84686687887267,198.59881213809768 "/><polyline class="polyline" opacity="0.5" stroke="blue" points="191.73040555306454,256.8962259775046 227.92259833416264,198.59018492999255 "/><polyline class="polyline" opacity="0.5" stroke="blue" points="193.18780657195856,257.41883087699574 228.960412445901,198.55643738261628 "/><polyline class="polyline" opacity="0.5" stroke="blue" points="194.64596725562075,257.91279610275416 229.96007293389317,198.4984582201888 "/><polyline class="polyline" opacity="0.5" stroke="blue" points="196.1040521846074,258.3779157660646 230.92139239838835,198.41714758735267 "/><polyline class="polyline" opacity="0.5" stroke="blue" points="197.56123020147575,258.8140054000896 231.84423109632488,198.31341538434566 "/><polyline class="polyline" opacity="0.5" stroke="blue" points="199.01667517526735,259.2209019571137 232.728495677407,198.1881796497052 "/><polyline class="polyline" opacity="0.5" stroke="blue" points="200.46956674989335,259.59846377603833 233.57413788579007,198.0423649922574 "/><polyline class="polyline" opacity="0.5" stroke="blue" points="201.9190910751745,259.9465705206249 234.38115323291282,197.8769010738266 "/><polyline class="polyline" opacity="0.5" stroke="blue" points="203.36444151935518,260.2651230890509 235.14957964676566,197.6927211437981 "/><polyline class="polyline" opacity="0.5" stroke="blue" points="204.8048193619806,260.5540434954101 235.87949610262376,197.4907606263828 "/><polyline class="polyline" opacity="0.5" stroke="blue" points="206.23943446609786,260.8132747238531 236.57102124000653,197.27195576115844 "/><polyline class="polyline" opacity="0.5" stroke="blue" points="207.66750592881615,261.0427805561219 237.22431197035147,197.0372422972117 "/><polyline class="polyline" opacity="0.5" stroke="blue" points="209.08826270933648,261.24254537328886 237.83956207961464,196.78755424096676 "/><polyline class="polyline" opacity="0.5" stroke="blue" points="210.50094423363885,261.41257393256245 238.41700082973196,196.52382265756665 "/><polyline class="polyline" opacity="0.5" stroke="blue" points="211.9048009750927,261.5528911200684 238.9568915625985,196.246974525471 "/><polyline class="polyline" opacity="0.5" stroke="blue" points="213.2990950103356,261.66354168055994 239.45953030994735,195.95793164374842 "/><polyline class="polyline" opacity="0.5" stroke="blue" points="214.68310054984352,261.7445899250496 239.92524441223784,195.65760959137305 "/><polyline class="polyline" opacity="0.5" stroke="blue" points="216.05610444269578,261.7961194173891 240.35439114939626,195.34691673768185 "/><polyline class="polyline" opacity="0.5" stroke="blue" points="217.41740665511588,261.81823264085585 240.74735638599006,195.0267533030136 "/><polyline class="polyline" opacity="0.5" stroke="blue" points="218.7663207224482,261.8110506458303 241.10455323316364,194.69801046843014 "/><polyline class="polyline" opacity="0.5" stroke="blue" points="220.10217417430604,261.77471267966996 241.42642072941587,194.36156953331405 "/><polyline class="polyline" opacity="0.5" stroke="blue" points="221.4243089327049,261.7093757999053 241.71342254206306,194.0183011195472 "/><polyline class="polyline" opacity="0.5" stroke="blue" points="222.73208168306522,261.6152144718936 241.966045691002,193.6690644208968 "/><polyline class="polyline" opacity="0.5" stroke="blue" points="224.02486421804608,261.4924201520801 242.18479929616822,193.31470649617214 "/><polyline class="polyline" opacity="0.5" stroke="blue" points="225.30204375423685,261.34120085801743 242.37021334987725,192.95606160466414 "/><polyline class="polyline" opacity="0.5" stroke="blue" points="226.56302322180616,261.16178072629816 242.52283751503694,192.59395058234023 "/><polyline class="polyline" opacity="0.5" stroke="blue" points="227.8072215272704,260.95439955955305 242.64323995003292,192.22918025723988 "/><polyline class="polyline" opacity="0.5" stroke="blue" points="229.03407378960824,260.71931236366083 242.7320061609109,191.8625429024973 "/><polyline class="polyline" opacity="0.5" stroke="blue" points="230.24303155000905,260.4567888763061 242.78973788131532,191.4948157254111 "/><polyline class="polyline" opacity="0.5" stroke="blue" points="231.43356295559767,260.1671130880106 242.81705198048724,191.1267603909817 "/><polyline class="polyline" opacity="0.5" stroke="blue" points="232.60515291753583,259.850582756745 242.81457939948183,190.75912257834656 "/><polyline class="polyline" opacity="0.5" stroke="blue" points="233.75730324394937,259.5075089172123 242.78296411563127,190.3926315685617 "/><polyline class="polyline" opacity="0.5" stroke="blue" points="234.8895327481793,259.1382153858706 242.72286213515613,190.02799986220074 "/><polyline class="polyline" opacity="0.5" stroke="blue" points="236.00137733289992,258.7430382627381 242.634940513716,189.66592282527637 "/><polyline class="polyline" opacity="0.5" stroke="blue" points="237.09239005068832,258.3223254310003 242.5198764045875,189.30707836202242 "/><polyline class="polyline" opacity="0.5" stroke="blue" points="238.16214114166704,257.87643605540654 242.37835613406446,188.95212661312027 "/><polyline class="polyline" opacity="0.5" stroke="blue" points="239.21021804887872,257.4057400804143 242.2110743035933,188.60170967799678 "/><polyline class="polyline" opacity="0.5" stroke="blue" points="240.23622541207993,256.9106177290083 242.01873291808084,188.25645135987438 "/><polyline class="polyline" opacity="0.5" stroke="blue" points="241.2397850406724,256.3914590030845 241.80204053974734,187.916956932306 "/><polyline class="polyline" opacity="0.5" stroke="blue" points="242.220535866513,255.8486631862566 241.5617114668418,187.58381292598696 "/><polyline class="polyline" opacity="0.5" stroke="blue" points="243.17813387736575,255.28263834990514 241.2984649364869,187.25758693469538 "/><polyline class="polyline" opacity="0.5" stroke="blue" points="244.1122520317787,254.69380086324927 241.01302435088007,186.93882743927395 "/><polyline class="polyline" opacity="0.5" stroke="blue" points="245.02258015618187,254.08257490818775 240.70611652604558,186.62806364863226 "/><polyline class="polyline" opacity="0.5" stroke="blue" points="245.90882482501772,253.44939199961192 240.37847096230539,186.32580535681308 "/><polyline class="polyline" opacity="0.5" stroke="blue" points="246.77070922472137,252.7946905118566 240.03081913561644,186.0325428152326 "/><polyline class="polyline" opacity="0.5" stroke="blue" points="247.60797300237877,252.1189152119142 239.66389380891138,185.748746619273 "/><polyline class="polyline" opacity="0.5" stroke="blue" points="248.42037209989064,251.4225167999977 239.27842836257082,185.4748676084723 "/><polyline class="polyline" opacity="0.5" stroke="blue" points="249.20767857447535,250.70595145799768 238.87515614315484,185.21133677962598 "/><polyline class="polyline" opacity="0.5" stroke="blue" points="249.96968040633956,249.96968040633956 238.4548098295264,184.95856521218033 "/><polyline class="polyline" opacity="0.5" stroke="blue" points="250.70618129434445,249.2141694697072 238.01812081550776,184.71694400536654 "/><polyline class="polyline" opacity="0.5" stroke="blue" points="251.41700044048824,248.43988865205975 237.565818608226,184.48684422659045 "/><polyline class="polyline" opacity="0.5" stroke="blue" points="252.10197232401882,247.64731172133196 237.09863024132125,184.26861687065806 "/><polyline class="polyline" opacity="0.5" stroke="blue" points="252.76094646598008,246.8369158041669 236.61727970221582,184.06259282948153 "/><polyline class="polyline" opacity="0.5" stroke="blue" points="253.39378718498523,246.00918099099638 236.12248737266714,183.86908287197355 "/><polyline class="polyline" opacity="0.5" stroke="blue" points="254.00037334499513,245.16458995174622 235.61496948185902,183.6883776338987 "/><polyline class="polyline" opacity="0.5" stroke="blue" points="254.58059809586769,244.3036275624085 235.0954375713194,183.52074761751092 "/><polyline class="polyline" opacity="0.5" stroke="blue" points="255.13436860742635,243.42678054268833 234.56459797098773,183.36644320086282 "/><polyline class="polyline" opacity="0.5" stroke="blue" points="255.66160579777872,242.53453710490075 234.02315128579787,183.2256946567287 "/><polyline class="polyline" opacity="0.5" stroke="blue" points="256.162244056599,241.6273866142587 233.47179189218,183.0987121811361 "/><polyline class="polyline" opacity="0.5" stroke="blue" points="256.63623096406644,240.70581926066484 232.9112074439345,182.98568593155167 "/><polyline class="polyline" opacity="0.5" stroke="blue" points="257.08352700613415,239.77032574208727 232.34207838697222,182.88678607481458 "/><polyline class="polyline" opacity="0.5" stroke="blue" points="257.5041052867781,238.82139695957352 231.76507748246746,182.8021628449572 "/><polyline class="polyline" opacity="0.5" stroke="blue" points="257.89795123785825,237.85952372392723 231.1808693380181,182.7319466110941 "/><polyline class="polyline" opacity="0.5" stroke="blue" points="258.2650623271976,236.88519647404775 230.59010994645882,182.67624795560113 "/><polyline class="polyline" opacity="0.5" stroke="blue" points="258.6054477654645,235.89890500690706 229.9934462320257,182.6351577628415 "/><polyline class="polyline" opacity="0.5" stroke="blue" points="258.9191282124194,234.9011382191156 229.39151560362419,182.6087473187303 "/><polyline class="polyline" opacity="0.5" stroke="blue" points="259.20613548306414,233.89238386000568 228.7849455150057,182.5970684214574 "/><polyline class="polyline" opacity="0.5" stroke="blue" points="259.4665122542072,232.87312829614132 228.17435303171277,182.60015350371603 "/><polyline class="polyline" opacity="0.5" stroke="blue" points="259.7003117719364,231.84385628714273 227.5603444047079,182.61801576680688 "/><polyline class="polyline" opacity="0.5" stroke="blue" points="259.9075975604652,230.8050507726958 226.94351465065463,182.6506493270063 "/><polyline class="polyline" opacity="0.5" stroke="blue" points="260.0884431327959,229.7571926706002 226.3244471388756,182.6980293746039 "/><polyline class="polyline" opacity="0.5" stroke="blue" points="260.242931703619,228.7007606856928 225.70371318506434,182.7601123460248 "/><polyline class="polyline" opacity="0.5" stroke="blue" points="260.37115590484564,227.63623112947022 225.0818716518833,182.83683610946167 "/><polyline class="polyline" opacity="0.5" stroke="blue" points="260.47321750414585,226.5640777502187 224.45946855663033,182.92812016444404 "/><polyline class="polyline" opacity="0.5" stroke="blue" points="260.54922712684333,225.4847715734494 223.83703668621047,183.0338658557734 "/><polyline class="polyline" opacity="0.5" stroke="blue" points="260.59930398149504,224.39878075242336 223.21509521969682,183.1539566022486 "/><polyline class="polyline" opacity="0.5" stroke="blue" points="260.6235755894618,223.30657042854423 222.59414935881523,183.28825814059775 "/><polyline class="polyline" opacity="0.5" stroke="blue" points="260.62217751875477,222.20860260138232 221.9746899667332,183.4366187850216 "/><polyline class="polyline" opacity="0.5" stroke="blue" points="260.59525312242187,221.10533600809094 221.35719321557832,183.59886970273732 "/><polyline class="polyline" opacity="0.5" stroke="blue" points="260.54295328171696,219.99722601196498 220.74212024315415,183.7748252058917 "/><polyline class="polyline" opacity="0.5" stroke="blue" points="260.4654361542764,218.88472449988748 220.12991681936253,183.96428306018933 "/><polyline class="polyline" opacity="0.5" stroke="blue" points="260.36286692750593,217.76827978840345 219.52101302287687,184.16702481055424 "/><polyline class="polyline" opacity="0.5" stroke="blue" points="260.23541757736393,216.64833653815654 218.91582292864828,184.3828161241113 "/><polyline class="polyline" opacity="0.5" stroke="blue" points="260.08326663270924,215.5253356764204 218.3147443068561,184.61140715073935 "/><polyline class="polyline" opacity="0.5" stroke="blue" points="259.9065989453616,214.39971432745244 217.71815833394348,184.85253290141029 "/><polyline class="polyline" opacity="0.5" stroke="blue" points="259.7056054660092,213.2719057503973 217.12642931640482,185.1059136444842 "/><polyline class="polyline" opacity="0.5" stroke="blue" points="259.4804830260797,212.14233928446416 216.5399044280112,185.371255320088 "/><polyline class="polyline" opacity="0.5" stroke="blue" points="259.2314341256752,211.011440301102 215.9589134611808,185.64824997265498 "/><polyline class="polyline" opacity="0.5" stroke="blue" points="258.95866672765857,209.87963016289598 215.3837685932117,185.93657620165166 "/><polyline class="polyline" opacity="0.5" stroke="blue" points="258.662394057962,208.7473261889091 214.81476416810787,186.2358996304649 "/><polyline class="polyline" opacity="0.5" stroke="blue" points="258.34283441217616,207.61494162619252 214.25217649473228,186.5458733933651 "/><polyline class="polyline" opacity="0.5" stroke="blue" points="258.0002109684658,206.4828856271909 213.69626366202445,186.8661386404022 "/><polyline class="polyline" opacity="0.5" stroke="blue" points="257.634751606843,205.35156323276908 213.14726537201582,187.19632506003182 "/><polyline class="polyline" opacity="0.5" stroke="blue" points="257.24668873482096,204.22137536058958 212.6054027913702,187.53605141920374 "/><polyline class="polyline" opacity="0.5" stroke="blue" points="256.8362591194556,203.09271879857178 212.07087842216427,187.88492612058397 "/><polyline class="polyline" opacity="0.5" stroke="blue" points="256.40370372577587,201.96598620316755 211.5438759926077,188.2425477765133 "/><polyline class="polyline" opacity="0.5" stroke="blue" points="255.94926756159077,200.84156610218884 211.02456036838183,188.60850579924247 "/><polyline class="polyline" opacity="0.5" stroke="blue" points="255.47319952865183,199.71984290192927 210.5130774852511,188.98238100691407 "/><polyline class="polyline" opacity="0.5" stroke="blue" points="254.97575228014273,198.60119689832183 210.00955430357232,189.36374624469804 "/><polyline class="polyline" opacity="0.5" stroke="blue" points="254.45718208445686,197.48600429188056 209.5140987852928,189.75216702041905 "/><polyline class="polyline" opacity="0.5" stroke="blue" points="253.91774869521683,196.3746372061777 209.0267998939923,190.14720215394854 "/><polyline class="polyline" opacity="0.5" stroke="blue" points="253.3577152274827,195.2674637096105 208.54772761847974,190.5484044395701 "/><polyline class="polyline" opacity="0.5" stroke="blue" points="252.77734804008793,194.16484784021816 208.07693302041184,190.95532132046253 "/><polyline class="polyline" opacity="0.5" stroke="blue" points="252.17691662403593,193.06714963331112 207.61444830635048,191.3674955743831 "/><polyline class="polyline" opacity="0.5" stroke="blue" points="251.55669349688407,191.97472515168184 207.16028692462265,191.78446600957378 "/><polyline class="polyline" opacity="0.5" stroke="blue" points="250.91695410303527,190.88792651816783 206.71444368729067,192.20576816985619 "/><polyline class="polyline" opacity="0.5" stroke="blue" points="250.2579767198538,189.80710195034516 206.27689491748134,192.63093504782458 "/><polyline class="polyline" opacity="0.5" stroke="blue" points="249.58004236951479,188.73259579713172 205.84759862225886,193.05949780499768 "/><polyline class="polyline" opacity="0.5" stroke="blue" points="248.88343473649422,187.66474857708778 205.42649469116364,193.49098649773796 "/><polyline class="polyline" opacity="0.5" stroke="blue" points="248.16844009059977,186.6038970182021 205.01350512047063,193.92493080770703 "/><polyline class="polyline" opacity="0.5" stroke="blue" points="247.4353472154416,185.55037409895905 204.60853426315197,194.36086077558102 "/><polyline class="polyline" opacity="0.5" stroke="blue" points="246.6844473422355,184.50450909048584 204.21146910445893,194.7983075367177 "/><polyline class="polyline" opacity="0.5" stroke="blue" points="245.9160340888296,183.466627599582 203.82217956296532,195.23680405743303 "/><polyline class="polyline" opacity="0.5" stroke="blue" points="245.13040340384146,182.4370516124402 203.44051881684314,195.6758858705197 "/><polyline class="polyline" opacity="0.5" stroke="blue" points="244.32785351578968,181.41609953886888 203.06632365506692,196.11509180861816 "/><polyline class="polyline" opacity="0.5" stroke="blue" points="243.5086848871017,180.40408625683412 202.69941485317108,196.55396473403454 "/><polyline class="polyline" opacity="0.5" stroke="blue" points="242.6732001728763,179.4013231571398 202.339597573111,196.9920522635893 "/><polyline class="polyline" opacity="0.5" stroke="blue" points="241.82170418427756,178.40811818807123 201.98666178670706,197.42890748707407 "/><polyline class="polyline" opacity="0.5" stroke="blue" points="240.95450385643366,177.4247758998293 201.6403827220789,197.86408967789646 "/><polyline class="polyline" opacity="0.5" stroke="blue" points="240.07190822071436,176.45159748858924 201.3005213324086,198.29716499449557 "/><polyline class="polyline" opacity="0.5" stroke="blue" points="239.17422838125484,175.48888084001695 200.96682478630282,198.7277071711257 "/><polyline class="polyline" opacity="0.5" stroke="blue" points="238.26177749559633,174.53692057208542 200.63902697895898,199.1552981966203 "/><polyline class="polyline" opacity="0.5" stroke="blue" points="237.33487075930879,173.5960080770318 200.31684906327715,199.57952897977307 "/><polyline class="polyline" opacity="0.5" stroke="blue" points="236.39382539446078,172.6664315623035 200.0,200.0 "/><polyline class="polyline" opacity="0.5" stroke="blue" points="235.4389606418,171.74847609034202 199.68817712590524,200.41632194198095 "/><polyline class="polyline" opacity="0.5" stroke="blue" points="234.47059775650504,170.84242361705776 199.38106673902303,200.82811631301826 "/><polyline class="polyline" opacity="0.5" stroke="blue" points="233.4890600073703,169.94855302885333 199.0783446998008,201.2350160418928 "/><polyline class="polyline" opacity="0.5" stroke="blue" points="232.49467267928068,169.0671401780529 198.77967704709246,201.63666605804934 "/><polyline class="polyline" opacity="0.5" stroke="blue" points="231.48776307883443,168.19845791660134 198.48472062780883,202.03272384999377 "/><polyline class="polyline" opacity="0.5" stroke="blue" points="230.4686605429693,167.3427761278976 198.1931237390291,202.422860001845 "/><polyline class="polyline" opacity="0.5" stroke="blue" points="229.4376964504463,166.50036175663067 197.9045267813421,202.80675870704462 "/><polyline class="polyline" opacity="0.5" stroke="blue" points="228.39520423604358,165.67147883648838 197.61856292215904,203.18411825829452 "/><polyline class="polyline" opacity="0.5" stroke="blue" points="227.34151940731158,164.85638851561316 197.33485876771798,203.55465151286023 "/><polyline class="polyline" opacity="0.5" stroke="blue" points="226.27697956373905,164.0553490796791 197.05303504248383,203.91808633245103 "/><polyline class="polyline" opacity="0.5" stroke="blue" points="225.2019244181781,163.2686159724705 196.77270727463605,204.27416599696127 "/><polyline class="polyline" opacity="0.5" stroke="blue" points="224.11669582037393,162.49644181384068 196.49348648633028,204.62264959143562 "/><polyline class="polyline" opacity="0.5" stroke="blue" points="223.02163778244477,161.73907641493565 196.21497988741896,204.96331236569821 "/><polyline class="polyline" opacity="0.5" stroke="blue" points="221.917096506154,160.99676679056694 195.93679157132047,205.29594606616644 "/><polyline class="polyline" opacity="0.5" stroke="blue" points="220.80342041181578,160.26975716862162 195.65852321173523,205.62035923945123 "/><polyline class="polyline" opacity="0.5" stroke="blue" points="219.68096016867386,159.5582889963996 195.37977475892149,205.93637750742695 "/><polyline class="polyline" opacity="0.5" stroke="blue" points="218.55006872658916,158.86260094376948 195.10014513426304,206.243843813536 "/><polyline class="polyline" opacity="0.5" stroke="blue" points="217.41110134887302,158.1829289030379 194.8192329218845,206.5426186401742 "/><polyline class="polyline" opacity="0.5" stroke="blue" points="216.26441564609695,157.5195059854284 194.5366370560976,206.83258019708526 "/><polyline class="polyline" opacity="0.5" stroke="blue" points="215.11037161071167,156.87256251406893 194.25195750349627,207.11362458077002 "/><polyline class="polyline" opacity="0.5" stroke="blue" points="213.94933165230148,156.24232601338784 193.96479593855273,207.38566590499698 "/><polyline class="polyline" opacity="0.5" stroke="blue" points="212.78166063330195,155.62902119482257 193.6747564116092,207.64863640257516 "/><polyline class="polyline" opacity="0.5" stroke="blue" points="211.60772590500247,155.0328699387457 193.38144600820297,207.90248649862602 "/><polyline class="polyline" opacity="0.5" stroke="blue" points="210.42789734365556,154.4540912725163 193.08447549871002,208.14718485566203 "/><polyline class="polyline" opacity="0.5" stroke="blue" points="209.2425473865107,153.89290134456658 192.78345997734323,208.38271839084905 "/><polyline class="polyline" opacity="0.5" stroke="blue" points="208.05205106758783,153.34951339443657 192.47801948959355,208.60909226589527 "/><polyline class="polyline" opacity="0.5" stroke="blue" points="206.8567860530031,152.82413771867172 192.16777964725856,208.82632985007274 "/><polyline class="polyline" opacity="0.5" stroke="blue" points="205.65713267565664,152.3169816325019 191.85237223025962,209.0344726569352 "/><polyline class="polyline" opacity="0.5" stroke="blue" points="204.45347396908826,151.82824942722127 191.5314357745083,209.2335802553527 "/><polyline class="polyline" opacity="0.5" stroke="blue" points="203.2461957003054,151.35814232319393 191.2046161451432,209.42373015553326 "/><polyline class="polyline" opacity="0.5" stroke="blue" points="202.0356864013835,150.90685841841096 190.8715670945195,209.6050176707499 "/><polyline class="polyline" opacity="0.5" stroke="blue" points="200.8223373996347,150.47459263252892 190.53195080439613,209.77755575553377 "/><polyline class="polyline" opacity="0.5" stroke="blue" points="199.60654284614165,150.06153664632365 190.1854384118278,209.94147482113232 "/><polyline class="polyline" opacity="0.5" stroke="blue" points="198.388699742444,149.66787883649522 189.83171051833136,210.0969225290658 "/><polyline class="polyline" opacity="0.5" stroke="blue" points="197.16920796516771,149.29380420576564 189.47045768195977,210.24406356364486 "/><polyline class="polyline" opacity="0.5" stroke="blue" points="195.94847028837947,148.93949430821328 189.10138089197645,210.38307938433655 "/><polyline class="polyline" opacity="0.5" stroke="blue" points="194.72689240344883,148.6051271697935 188.7241920258861,210.5141679588871 "/><polyline class="polyline" opacity="0.5" stroke="blue" points="193.50488293619415,148.29087720399843 188.33861428863668,210.637543478125 "/><polyline class="polyline" opacity="0.5" stroke="blue" points="192.2828534610886,147.99691512261447 187.94438263386556,210.7534360533808 "/><polyline class="polyline" opacity="0.5" stroke="blue" points="191.06121851229565,147.72340784154045 187.5412441671208,210.86209139746563 "/><polyline class="polyline" opacity="0.5" stroke="blue" points="189.8403955913043,147.47051838163563 187.12895853104257,210.96377049015456 "/><polyline class="polyline" opacity="0.5" stroke="blue" points="188.62080517092716,147.23840576457104 186.70729827254303,211.0587492291194 "/><polyline class="polyline" opacity="0.5" stroke="blue" points="187.40287069542623,147.02722490366503 186.27604919207377,211.14731806724984 "/><polyline class="polyline" opacity="0.5" stroke="blue" points="186.1870185765229,146.83712648968947 185.83501067511816,211.22978163729394 "/><polyline class="polyline" opacity="0.5" stroke="blue" points="184.97367818505185,146.66825687163973 185.38399600609145,211.30645836473443 "/><polyline class="polyline" opacity="0.5" stroke="blue" points="183.7632818380119,146.52075793246934 184.92283266487496,211.37768006980292 "/><polyline class="polyline" opacity="0.5" stroke="blue" points="182.55626478076564,146.39476695979616 184.4513626062497,211.44379155951287 "/><polyline class="polyline" opacity="0.5" stroke="blue" points="181.3530651641396,146.29041651159673 183.96944252253326,211.50515021057046 "/><polyline class="polyline" opacity="0.5" stroke="blue" points="180.15412401617118,146.2078342769121 183.47694408975678,211.56212554399613 "/><polyline class="polyline" opacity="0.5" stroke="blue" points="178.95988520825136,146.14714293159784 182.97375419775062,211.6150987922612 "/><polyline class="polyline" opacity="0.5" stroke="blue" points="177.77079541540704,146.10845998915997 182.45977516453365,211.66446245971366 "/><polyline class="polyline" opacity="0.5" stroke="blue" points="176.58730407046906,146.091897646728 181.9349249354285,211.71061987703288 "/><polyline class="polyline" opacity="0.5" stroke="blue" points="175.40986331186923,146.09756262622614 181.39913726734252,211.7539847504186 "/><polyline class="polyline" opacity="0.5" stroke="blue" points="174.23892792481183,146.12555601081442 180.85236189867584,211.79498070618163 "/><polyline class="polyline" opacity="0.5" stroke="blue" points="173.07495527556242,146.17597307668262 180.2945647053307,211.8340408313658 "/><polyline class="polyline" opacity="0.5" stroke="blue" points="171.918405238601,146.24890312029038 179.72572784330848,211.87160721098934 "/><polyline class="polyline" opacity="0.5" stroke="blue" points="170.7697401163852,146.34442928115953 179.14584987838896,211.90813046245333 "/><polyline class="polyline" opacity="0.5" stroke="blue" points="169.62942455147262,146.4626283603371 178.55494590339217,211.94406926762244 "/><polyline class="polyline" opacity="0.5" stroke="blue" points="168.49792543075293,146.60357063465946 177.95304764352483,211.97988990303912 "/><polyline class="polyline" opacity="0.5" stroke="blue" points="167.37571178154425,146.76731966696204 177.34020355031225,212.01606576869017 "/><polyline class="polyline" opacity="0.5" stroke="blue" points="166.26325465931146,146.9539321123927 176.71647888461376,212.05307691569885 "/><polyline class="polyline" opacity="0.5" stroke="blue" points="165.16102702676852,147.16345752100042 176.08195578921126,212.09140957327332 "/><polyline class="polyline" opacity="0.5" stroke="blue" points="164.0695036241331,147.39593813678698 175.4367333514531,212.13155567519567 "/><polyline class="polyline" opacity="0.5" stroke="blue" points="162.9891608303052,147.6514086934223 174.78092765642037,212.17401238609457 "/><polyline class="polyline" opacity="0.5" stroke="blue" points="161.9204765147523,147.92989620684193 174.11467183107044,212.21928162769788 "/><polyline class="polyline" opacity="0.5" stroke="blue" points="160.8639298798861,148.23141976495992 173.43811607979308,212.26786960522114 "/><polyline class="polyline" opacity="0.5" stroke="blue" points="159.82000129372938,148.55599031474554 172.75142771179523,212.32028633400327 "/><polyline class="polyline" opacity="0.5" stroke="blue" points="158.78917211267714,148.90361044693202 172.05479116070828,212.37704516646102 "/><polyline class="polyline" opacity="0.5" stroke="blue" points="157.77192449416881,149.27427417863913 171.3484079967866,212.438662319391 "/><polyline class="polyline" opacity="0.5" stroke="blue" points="156.76874119909834,149.6679667342111 170.6324969320392,212.50565640161136 "/><polyline class="polyline" opacity="0.5" stroke="blue" points="155.7801053838026,150.08466432458803 169.90729381860896,212.57854794189402 "/><polyline class="polyline" opacity="0.5" stroke="blue" points="154.80650038148082,150.52433392554667 169.17305164068028,212.6578589171035 "/><polyline class="polyline" opacity="0.5" stroke="blue" points="153.84840947291295,150.98693305516525 168.43004050016674,212.74411228042274 "/><polyline class="polyline" opacity="0.5" stroke="blue" points="152.90631564636155,151.4724095508844 167.67854759639332,212.837831489511 "/><polyline class="polyline" opacity="0.5" stroke="blue" points="151.98070134655504,151.98070134655504 166.91887719995276,212.93954003440962 "/><polyline class="polyline" opacity="0.5" stroke="blue" points="151.0720482126742,152.5117362498822 166.15135062087907,213.0497609649782 "/><polyline class="polyline" opacity="0.5" stroke="blue" points="150.1808368052753,153.0654317206929 165.37630617123943,213.16901641761763 "/><polyline class="polyline" opacity="0.5" stroke="blue" points="149.30754632211244,153.64169465047257 164.5940991222098,213.29782714100904 "/><polyline class="polyline" opacity="0.5" stroke="blue" points="148.45265430283393,154.24042114363533 163.80510165565298,213.43671202057362 "/><polyline class="polyline" opacity="0.5" stroke="blue" points="147.61663632255892,154.8614963010094 163.00970281017993,213.58618760133626 "/><polyline class="polyline" opacity="0.5" stroke="blue" points="146.79996567435796,155.50479400603734 162.2083084216282,213.74676760885671 "/><polyline class="polyline" opacity="0.5" stroke="blue" points="146.00311304069112,156.17017671420848 161.4013410578487,213.91896246787326 "/><polyline class="polyline" opacity="0.5" stroke="blue" points="145.22654615388018,156.85749524625697 160.58923994764578,214.1032788182901 "/><polyline class="polyline" opacity="0.5" stroke="blue" points="144.47072944572176,157.56658858567695 159.7724609036702,214.30021902812672 "/><polyline class="polyline" opacity="0.5" stroke="blue" points="143.73612368637586,158.29728368111972 158.9514762390172,214.51028070303727 "/><polyline class="polyline" opacity="0.5" stroke="blue" points="143.02318561269357,159.0493952542562 158.12677467723537,214.73395619200144 "/><polyline class="polyline" opacity="0.5" stroke="blue" points="142.33236754618173,159.8227256136983 157.29886125540514,214.97173208878266 "/><polyline class="polyline" opacity="0.5" stroke="blue" points="141.66411700083,160.6170644755909 156.46825721989586,215.22408872874965 "/><polyline class="polyline" opacity="0.5" stroke="blue" points="141.0188762810635,161.4321887914947 155.63549991436514,215.4914996806563 "/><polyline class="polyline" opacity="0.5" stroke="blue" points="140.39708207011563,162.26786258419392 154.80114265951516,215.77443123298076 "/><polyline class="polyline" opacity="0.5" stroke="blue" points="139.7991650091517,163.12383679207235 153.96575462407182,216.07334187443152 "/><polyline class="polyline" opacity="0.5" stroke="blue" points="139.22554926750985,163.99984912271037 153.12992068640784,216.38868176823786 "/><polyline class="polyline" opacity="0.5" stroke="blue" points="138.6766521044622,164.8956239163632 152.2942412861804,216.7208922198571 "/><polyline class="polyline" opacity="0.5" stroke="blue" points="138.15288342293803,165.81087201998596 151.45933226531173,217.07040513774632 "/><polyline class="polyline" opacity="0.5" stroke="blue" points="137.65464531568568,166.74529067247704 150.62582469758982,217.43764248686836 "/><polyline class="polyline" opacity="0.5" stroke="blue" points="137.1823316043914,167.69856340181263 149.79436470612725,217.82301573462405 "/><polyline class="polyline" opacity="0.5" stroke="blue" points="136.736327372311,168.67035993474704 148.96561326786764,218.22692528893145 "/><polyline class="polyline" opacity="0.5" stroke="blue" points="136.31700849100815,169.6603361197513 148.14024600428974,218.64975992820197 "/><polyline class="polyline" opacity="0.5" stroke="blue" points="135.92474114183455,170.66813386386133 147.3189529574161,219.09189622300028 "/><polyline class="polyline" opacity="0.5" stroke="blue" points="135.5598813328233,171.69338108409977 146.50243835019478,219.5536979492109 "/><polyline class="polyline" opacity="0.5" stroke="blue" points="135.22277441170903,172.73569167412992 145.6914203302847,220.0355154925791 "/><polyline class="polyline" opacity="0.5" stroke="blue" points="134.91375457582424,173.7946654867883 144.88663069623965,220.5376852445363 "/><polyline class="polyline" opacity="0.5" stroke="blue" points="134.63314437966,174.86988833313282 144.08881460505324,221.0605289892754 "/><polyline class="polyline" opacity="0.5" stroke="blue" points="134.38125424091797,175.96093199862793 143.29873025999527,221.60435328209033 "/><polyline class="polyline" opacity="0.5" stroke="blue" points="134.15838194591467,177.06735427706857 142.51714857764563,222.16944881905582 "/><polyline class="polyline" opacity="0.5" stroke="blue" points="133.96481215523698,178.18869902282978 141.74485283300217,222.75608979818418 "/><polyline class="polyline" opacity="0.5" stroke="blue" points="133.80081591057981,179.32449622200207 140.98263828152443,223.3645332722624 "/><polyline class="polyline" opacity="0.5" stroke="blue" points="133.66665014373132,180.47426208295025 140.23131175695238,223.99501849364412 "/><polyline class="polyline" opacity="0.5" stroke="blue" points="133.56255718870173,181.63749914680307 139.49169124373034,224.64776625134323 "/><polyline class="polyline" opacity="0.5" stroke="blue" points="133.48876429802044,182.81369641835363 138.76460542285585,225.32297820085842 "/><polyline class="polyline" opacity="0.5" stroke="blue" points="133.44548316425517,184.00232951781427 138.05089318996986,226.02083618723654 "/><polyline class="polyline" opacity="0.5" stroke="blue" points="133.43290944782981,185.20286085383506 137.3514031445071,226.74150156197229 "/><polyline class="polyline" opacity="0.5" stroke="blue" points="133.45122231224292,186.41473981815477 136.66699304873197,227.48511449442975 "/><polyline class="polyline" opacity="0.5" stroke="blue" points="133.50058396780614,187.63740300221372 135.9985292554982,228.2517932785681 "/><polyline class="polyline" opacity="0.5" stroke="blue" points="133.58113922504185,188.8702744360121 135.3468861035903,229.0416336358499 "/><polyline class="polyline" opacity="0.5" stroke="blue" points="133.69301505889172,190.1127658494491 134.7129452795321,229.85470801531096 "/><polyline class="polyline" opacity="0.5" stroke="blue" points="133.8363201848993,191.36427695633293 134.0975951447781,230.6910648918783 "/><polyline class="polyline" opacity="0.5" stroke="blue" points="134.0111446485388,192.62419576119544 133.50173002724742,231.5507280641265 "/><polyline class="polyline" opacity="0.5" stroke="blue" points="134.2175594288645,193.89189888899412 132.9262494762068,232.4336959527758 "/><polyline class="polyline" opacity="0.5" stroke="blue" points="134.4556160576572,195.16675193772514 132.3720574795667,233.33994090134541 "/><polyline class="polyline" opacity="0.5" stroke="blue" points="134.72534625524017,196.44810985391584 131.8400616427196,234.26940848049273 "/><polyline class="polyline" opacity="0.5" stroke="blue" points="135.0267615841297,197.73531733090175 131.3311723281252,235.2220167976825 "/><polyline class="polyline" opacity="0.5" stroke="blue" points="135.3598531216743,199.02770922973352 130.8463017549295,236.19765581394944 "/><polyline class="polyline" opacity="0.5" stroke="blue" points="135.7245911528208,200.32461102249272 130.38636305800003,237.19618666963407 "/><polyline class="polyline" opacity="0.5" stroke="blue" points="136.12092488412534,201.62533925773488 129.9522693058611,238.21744102109108 "/><polyline class="polyline" opacity="0.5" stroke="blue" points="136.5487821801035,202.9292020477075 129.54493247712733,239.26122039048602 "/><polyline class="polyline" opacity="0.5" stroke="blue" points="137.00806932298488,204.23549957692774 129.1652623951571,240.32729553091292 "/><polyline class="polyline" opacity="0.5" stroke="blue" points="137.49867079690407,205.5435246316335 128.81416562078255,241.41540580917916 "/><polyline class="polyline" opacity="0.5" stroke="blue" points="138.02044909752271,206.8525631495579 128.49254430311623,242.52525860871754 "/><polyline class="polyline" opacity="0.5" stroke="blue" points="138.57324456803545,208.16189478940626 128.2012949885913,243.65652875519277 "/><polyline class="polyline" opacity="0.5" stroke="blue" points="139.15687526246484,209.47079351934659 127.94130738855745,244.80885796747307 "/><polyline class="polyline" opacity="0.5" stroke="blue" points="139.77113683710166,210.77852822376173 127.71346310593164,245.9818543367391 "/><polyline class="polyline" opacity="0.5" stroke="blue" points="140.41580247089018,212.08436332743955 127.51863432158963,247.17509183659325 "/><polyline class="polyline" opacity="0.5" stroke="blue" points="141.09062281549944,213.387559436317 127.35768244138109,248.3881098671201 "/><polyline class="polyline" opacity="0.5" stroke="blue" points="141.79532597575846,214.68737399382587 127.23145670485867,249.62041283592356 "/><polyline class="polyline" opacity="0.5" stroke="blue" points="142.52961752106637,215.98306195183096 127.14079275702646,250.87146977924047 "/><polyline class="polyline" opacity="0.5" stroke="blue" points="143.29318052831735,217.27387645508668 127.08651118463969,252.1407140262828 "/><polyline class="polyline" opacity="0.5" stroke="blue" points="144.08567565680687,218.55906953808415 127.06941601881884,253.42754291001316 "/><polyline class="polyline" opacity="0.5" stroke="blue" points="144.90674125550672,219.83789283310273 127.09029320598411,254.73131752758835 "/><polyline class="polyline" opacity="0.5" stroke="blue" points="145.75599350301894,221.10959828823178 127.14990904936144,256.0513625537318 "/><polyline class="polyline" opacity="0.5" stroke="blue" points="146.63302658043273,222.37343889407592 127.24900862356535,257.38696611029894 "/><polyline class="polyline" opacity="0.5" stroke="blue" points="147.5374128772256,223.6286694178151 127.38831416502032,258.73737969529225 "/><polyline class="polyline" opacity="0.5" stroke="blue" points="148.46870323025993,224.87454714324642 127.56852344124357,260.1018181745555 "/><polyline class="polyline" opacity="0.5" stroke="blue" points="149.42642719584097,226.11033261540058 127.79030810227387,261.4794598393354 "/><polyline class="polyline" opacity="0.5" stroke="blue" points="150.41009335470784,227.33529038829138 128.05431201779524,262.86944653283547 "/><polyline class="polyline" opacity="0.5" stroke="blue" points="151.41918964973976,228.54868977432602 128.36114960376437,264.270883848802 "/><polyline class="polyline" opacity="0.5" stroke="blue" points="152.45318375606877,229.7498055938859 128.71140414261185,265.6828414050856 "/><polyline class="polyline" opacity="0.5" stroke="blue" points="153.51152348319494,230.93791892356253 129.10562610134065,267.10435319499175 "/><polyline class="polyline" opacity="0.5" stroke="blue" points="154.59363720861208,232.1123178415247 129.5443314520934,268.5344180190928 "/><polyline class="polyline" opacity="0.5" stroke="blue" points="155.69893434235593,233.27229816848003 130.02800000000002,269.972 "/><polyline class="polyline" opacity="0.5" stroke="blue" points="156.82680582180177,234.4171642026951 130.55707372334734,271.4160291824109 "/><polyline class="polyline" opacity="0.5" stroke="blue" points="157.97662463594457,235.54622944753748 131.131955131328,272.8654022205255 "/><polyline class="polyline" opacity="0.5" stroke="blue" points="159.1477463783116,236.6588173300122 131.7530056448273,274.3189831546921 "/><polyline class="polyline" opacity="0.5" stroke="blue" points="160.3395098275689,237.75426190877644 132.42054400589382,275.7756042788807 "/><polyline class="polyline" opacity="0.5" stroke="blue" points="161.55123755480508,238.8319085701381 133.13484472170342,277.23406710030076 "/><polyline class="polyline" opacity="0.5" stroke="blue" points="162.78223655639275,239.89111471056424 133.89613654897136,278.69314339217283 "/><polyline class="polyline" opacity="0.5" stroke="blue" points="164.0317989112548,240.93125040425713 134.7046010248884,280.1515763403368 "/><polyline class="polyline" opacity="0.5" stroke="blue" points="165.29920246128844,241.95169905438837 135.5603710507503,281.6080817840312 "/><polyline class="polyline" opacity="0.5" stroke="blue" points="166.58371151363463,242.95185802662337 136.46352953451913,283.0613495508121 "/><polyline class="polyline" opacity="0.5" stroke="blue" points="167.88457756341492,243.93113926361144 137.41410809859184,284.51004488519175 "/><polyline class="polyline" opacity="0.5" stroke="blue" points="169.20104003549835,244.88896987916615 138.4120858590543,285.95280997017494 "/><polyline class="polyline" opacity="0.5" stroke="blue" points="170.53232704381003,245.8247927309161 139.4573882826761,287.3882655404568 "/><polyline class="polyline" opacity="0.5" stroke="blue" points="171.87765616664103,246.73806697026347 140.5498861278345,288.81501258560917 "/><polyline class="polyline" opacity="0.5" stroke="blue" points="173.23623523637832,247.6282685685507 141.68939447545833,290.2316341411486 "/><polyline class="polyline" opacity="0.5" stroke="blue" points="174.6072631420336,248.49489081840102 142.87567185594656,291.63669716492336 "/><polyline class="polyline" opacity="0.5" stroke="blue" points="175.98993064292097,249.3374448092705 144.10841947784093,293.0287544958071 "/><polyline class="polyline" opacity="0.5" stroke="blue" points="177.3834211918043,250.15545987632058 145.38728056381763,294.4063468912268 "/><polyline class="polyline" opacity="0.5" stroke="blue" points="178.7869117658177,250.94848402179633 146.71183979931243,295.7680051395959 "/><polyline class="polyline" opacity="0.5" stroke="blue" points="180.19957370344568,251.7160843081746 148.08162289879678,297.11225224326995 "/><polyline class="polyline" opacity="0.5" stroke="blue" points="181.6205735458457,252.4578472224272 149.4960962943977,298.43760566719686 "/><polyline class="polyline" opacity="0.5" stroke="blue" points="183.04907388079016,253.1733790108256 150.9546669511795,299.7425796479944 "/><polyline class="polyline" opacity="0.5" stroke="blue" points="184.48423418751224,253.86230598379936 152.45668231300266,301.02568755776736 "/><polyline class="polyline" opacity="0.5" stroke="blue" points="185.92521168074657,254.52427479044272 154.001430382429,302.2854443165679 "/><polyline class="polyline" opacity="0.5" stroke="blue" points="187.37116215227712,255.15895266235327 155.58813993767183,303.5203688470207 "/><polyline class="polyline" opacity="0.5" stroke="blue" points="188.821240808322,255.76602762656927 157.21598088907677,304.7289865642697 "/><polyline class="polyline" opacity="0.5" stroke="blue" points="190.27460310111306,256.3452086874594 158.88406477708156,305.90983189407075 "/><polyline class="polyline" opacity="0.5" stroke="blue" points="191.73040555306454,256.8962259775046 160.5914454130435,307.06145081155023 "/><polyline class="polyline" opacity="0.5" stroke="blue" points="193.18780657195845,257.41883087699574 162.3371196637296,308.18240339288104 "/><polyline class="polyline" opacity="0.5" stroke="blue" points="194.64596725562072,257.91279610275416 164.12002837966202,309.271266371892 "/><polyline class="polyline" opacity="0.5" stroke="blue" points="196.10405218460744,258.3779157660646 165.9390574668817,310.32663569343333 "/><polyline class="polyline" opacity="0.5" stroke="blue" points="197.56123020147578,258.8140054000896 167.79303910106347,311.34712905517074 "/><polyline class="polyline" opacity="0.5" stroke="blue" points="199.0166751752673,259.2209019571137 169.68075308226548,312.3313884293679 "/><polyline class="polyline" opacity="0.5" stroke="blue" points="200.46956674989332,259.59846377603833 171.60092832795132,313.2780825561587 "/><polyline class="polyline" opacity="0.5" stroke="blue" points="201.9190910751745,259.9465705206249 173.55224450127258,314.18590939979146 "/><polyline class="polyline" opacity="0.5" stroke="blue" points="203.36444151935513,260.26512308905086 175.53333377096226,315.05359855936194 "/><polyline class="polyline" opacity="0.5" stroke="blue" points="204.80481936198055,260.55404349541016 177.542782698553,315.87991362563446 "/><polyline class="polyline" opacity="0.5" stroke="blue" points="206.23943446609786,260.8132747238531 179.57913424801842,316.66365447567665 "/><polyline class="polyline" opacity="0.5" stroke="blue" points="207.66750592881618,261.0427805561219 181.64088991234092,317.40365949721945 "/><polyline class="polyline" opacity="0.5" stroke="blue" points="209.08826270933642,261.24254537328886 183.72651195093198,318.0988077348777 "/><polyline class="polyline" opacity="0.5" stroke="blue" points="210.5009442336388,261.41257393256245 185.83442573128895,318.74802095064405 "/><polyline class="polyline" opacity="0.5" stroke="blue" points="211.90480097509268,261.5528911200684 187.9630221677562,319.350265591391 "/><polyline class="polyline" opacity="0.5" stroke="blue" points="213.29909501033563,261.66354168055994 190.1106602497894,319.9045546564836 "/><polyline class="polyline" opacity="0.5" stroke="blue" points="214.6831005498435,261.7445899250496 192.27566965167813,320.40994945900826 "/><polyline class="polyline" opacity="0.5" stroke="blue" points="216.05610444269578,261.7961194173891 194.45635341529814,320.86556127457845 "/><polyline class="polyline" opacity="0.5" stroke="blue" points="217.41740665511594,261.81823264085585 196.65099069711255,321.2705528721541 "/><polyline class="polyline" opacity="0.5" stroke="blue" points="218.76632072244823,261.8110506458303 198.85783957035366,321.6241399218334 "/><polyline class="polyline" opacity="0.5" stroke="blue" points="220.10217417430604,261.77471267966996 201.0751398730664,321.9255922751195 "/><polyline class="polyline" opacity="0.5" stroke="blue" points="221.4243089327049,261.7093757999053 203.30111609250932,322.17423511373795 "/><polyline class="polyline" opacity="0.5" stroke="blue" points="222.73208168306525,261.6152144718936 205.5339802762678,322.3694499636689 "/><polyline class="polyline" opacity="0.5" stroke="blue" points="224.02486421804602,261.4924201520802 207.77193496036168,322.5106755716757 "/><polyline class="polyline" opacity="0.5" stroke="blue" points="225.30204375423685,261.3412008580175 210.01317610459753,322.59740864222675 "/><polyline class="polyline" opacity="0.5" stroke="blue" points="226.56302322180622,261.16178072629816 212.25589602545014,322.6292044333418 "/><polyline class="polyline" opacity="0.5" stroke="blue" points="227.80722152727043,260.95439955955305 214.49828631684602,322.605677210527 "/><polyline class="polyline" opacity="0.5" stroke="blue" points="229.03407378960824,260.71931236366083 216.73854074935807,322.52650055859783 "/><polyline class="polyline" opacity="0.5" stroke="blue" points="230.24303155000905,260.4567888763062 218.9748581385158,322.3914075518135 "/><polyline class="polyline" opacity="0.5" stroke="blue" points="231.4335629555977,260.1671130880106 221.2054451731749,322.20019078336816 "/><polyline class="polyline" opacity="0.5" stroke="blue" points="232.6051529175359,259.8505827567449 223.42851919518583,321.9527022558855 "/><polyline class="polyline" opacity="0.5" stroke="blue" points="233.7573032439493,259.5075089172123 225.64231092193037,321.6488531351524 "/><polyline class="polyline" opacity="0.5" stroke="blue" points="234.88953274817928,259.1382153858706 227.8450671036791,321.28861336988587 "/><polyline class="polyline" opacity="0.5" stroke="blue" points="236.00137733289995,258.7430382627381 230.0350531081314,320.87201118087364 "/><polyline class="polyline" opacity="0.5" stroke="blue" points="237.09239005068835,258.3223254310003 232.2105554249602,320.39913242333375 "/><polyline class="polyline" opacity="0.5" stroke="blue" points="238.162141141667,257.87643605540654 234.36988408365715,319.87011982681685 "/><polyline class="polyline" opacity="0.5" stroke="blue" points="239.21021804887872,257.4057400804143 236.511374978489,319.2851721174241 "/><polyline class="polyline" opacity="0.5" stroke="blue" points="240.23622541207993,256.91061772900827 238.63339209490252,318.6445430275156 "/><polyline class="polyline" opacity="0.5" stroke="blue" points="241.23978504067236,256.39145900308444 240.73432963227336,317.94854019845855 "/><polyline class="polyline" opacity="0.5" stroke="blue" points="242.22053586651296,255.8486631862566 242.81261401845146,317.1975239822912 "/><polyline class="polyline" opacity="0.5" stroke="blue" points="243.17813387736578,255.28263834990514 244.86670581213292,316.3919061484713 "/><polyline class="polyline" opacity="0.5" stroke="blue" points="244.11225203177872,254.69380086324924 246.89510148967264,315.5321485021203 "/><polyline class="polyline" opacity="0.5" stroke="blue" points="245.02258015618185,254.08257490818778 248.89633511352773,314.61876142038545 "/><polyline class="polyline" opacity="0.5" stroke="blue" points="245.90882482501772,253.44939199961192 250.86897988010762,313.6523023137005 "/><polyline class="polyline" opacity="0.5" stroke="blue" points="246.7707092247214,252.79469051185657 252.81164954537383,312.6333740188521 "/><polyline class="polyline" opacity="0.5" stroke="blue" points="247.6079730023788,252.11891521191416 254.72299972710556,311.5626231308362 "/><polyline class="polyline" opacity="0.5" stroke="blue" points="248.42037209989064,251.4225167999977 256.6017290832878,310.44073828053126 "/><polyline class="polyline" opacity="0.5" stroke="blue" points="249.20767857447535,250.70595145799768 258.4465803666223,309.2684483652173 "/><polyline class="polyline" opacity="0.5" stroke="blue" points="249.96968040633956,249.96968040633956 260.2563413556685,308.0465207389349 "/><polyline class="polyline" opacity="0.5" stroke="blue" points="250.7061812943445,249.21416946970717 262.0298456636234,306.775759369605 "/><polyline class="polyline" opacity="0.5" stroke="blue" points="251.4170004404882,248.43988865205978 263.76597342621267,305.4570029697316 "/><polyline class="polyline" opacity="0.5" stroke="blue" points="252.1019723240188,247.64731172133196 265.46365187061065,304.0911231073665 "/><polyline class="polyline" opacity="0.5" stroke="blue" points="252.7609464659801,246.83691580416684 267.1218557677214,302.67902230385914 "/><polyline class="polyline" opacity="0.5" stroke="blue" points="253.39378718498523,246.00918099099638 268.73960777054197,301.22163212471514 "/><polyline class="polyline" opacity="0.5" stroke="blue" points="254.00037334499513,245.16458995174625 270.31597864168157,299.719911269676 "/><polyline class="polyline" opacity="0.5" stroke="blue" points="254.5805980958677,244.3036275624085 271.8500873734349,298.17484366789637 "/><polyline class="polyline" opacity="0.5" stroke="blue" points="255.13436860742635,243.4267805426883 273.3411012041052,296.5874365838324 "/><polyline class="polyline" opacity="0.5" stroke="blue" points="255.66160579777872,242.53453710490078 274.7882355345283,294.9587187391908 "/><polyline class="polyline" opacity="0.5" stroke="blue" points="256.162244056599,241.6273866142587 276.1907537489833,293.28973845599074 "/><polyline class="polyline" opacity="0.5" stroke="blue" points="256.6362309640665,240.70581926066484 277.5479669448665,291.58156182550397 "/><polyline class="polyline" opacity="0.5" stroke="blue" points="257.08352700613415,239.7703257420872 278.8592335756808,289.8352709075192 "/><polyline class="polyline" opacity="0.5" stroke="blue" points="257.5041052867781,238.82139695957352 280.1239590120201,288.05196196407206 "/><polyline class="polyline" opacity="0.5" stroke="blue" points="257.89795123785825,237.85952372392723 281.3415950253397,286.23274373145773 "/><polyline class="polyline" opacity="0.5" stroke="blue" points="258.2650623271976,236.88519647404775 282.51163919937926,284.37873573402635 "/><polyline class="polyline" opacity="0.5" stroke="blue" points="258.6054477654645,235.89890500690703 283.6336342741573,282.491066642938 "/><polyline class="polyline" opacity="0.5" stroke="blue" points="258.9191282124194,234.9011382191156 284.7071674274784,280.57087268273614 "/><polyline class="polyline" opacity="0.5" stroke="blue" points="259.20613548306414,233.89238386000565 285.7318694988958,278.61929608828325 "/><polyline class="polyline" opacity="0.5" stroke="blue" points="259.4665122542072,232.87312829614126 286.7074141610468,276.63748361429464 "/><polyline class="polyline" opacity="0.5" stroke="blue" points="259.7003117719364,231.84385628714273 287.63351704323674,274.62658509939695 "/><polyline class="polyline" opacity="0.5" stroke="blue" points="259.9075975604652,230.80505077269584 288.50993481207666,272.5877520863485 "/><polyline class="polyline" opacity="0.5" stroke="blue" points="260.0884431327959,229.75719267060018 289.3364642139038,270.52213649977364 "/><polyline class="polyline" opacity="0.5" stroke="blue" points="260.242931703619,228.70076068569279 290.11294108360727,268.4308893824798 "/><polyline class="polyline" opacity="0.5" stroke="blue" points="260.37115590484564,227.63623112947025 290.83923932437074,266.31515969117095 "/><polyline class="polyline" opacity="0.5" stroke="blue" points="260.47321750414585,226.56407775021873 291.51526986271415,264.1760931521124 "/><polyline class="polyline" opacity="0.5" stroke="blue" points="260.54922712684333,225.48477157344934 292.14097958307593,262.0148311770671 "/><polyline class="polyline" opacity="0.5" stroke="blue" points="260.59930398149504,224.39878075242333 292.71635024602773,259.83250983959095 "/><polyline class="polyline" opacity="0.5" stroke="blue" points="260.6235755894618,223.30657042854426 293.24139739405564,257.63025891156764 "/><polyline class="polyline" opacity="0.5" stroke="blue" points="260.62217751875477,222.20860260138232 293.716169248673,255.40920095965902 "/><polyline class="polyline" opacity="0.5" stroke="blue" points="260.59525312242187,221.1053360080909 294.14074560246183,253.17045050116678 "/><polyline class="polyline" opacity="0.5" stroke="blue" points="260.54295328171696,219.99722601196504 294.51523670946057,250.9151132186215 "/><polyline class="polyline" opacity="0.5" stroke="blue" points="260.46543615427646,218.8847244998875 294.83978217713997,248.64428523226428 "/><polyline class="polyline" opacity="0.5" stroke="blue" points="260.3628669275059,217.76827978840342 295.11454986302283,246.3590524294398 "/><polyline class="polyline" opacity="0.5" stroke="blue" points="260.23541757736393,216.6483365381565 295.3397347788264,244.06048984978426 "/><polyline class="polyline" opacity="0.5" stroke="blue" points="260.0832666327093,215.52533567642044 295.51555800482157,241.74966112497972 "/><polyline class="polyline" opacity="0.5" stroke="blue" points="259.9065989453616,214.39971432745247 295.6422656169211,239.42761797173563 "/><polyline class="polyline" opacity="0.5" stroke="blue" points="259.7056054660093,213.27190575039728 295.7201276288338,237.09539973657132 "/><polyline class="polyline" opacity="0.5" stroke="blue" points="259.4804830260797,212.14233928446413 295.7494369514419,234.7540329908837 "/><polyline class="polyline" opacity="0.5" stroke="blue" points="259.2314341256752,211.011440301102 295.73050837138885,232.40453117472268 "/><polyline class="polyline" opacity="0.5" stroke="blue" points="258.9586667276586,209.87963016289598 295.6636775506933,230.04789428763172 "/><polyline class="polyline" opacity="0.5" stroke="blue" points="258.66239405796193,208.74732618890908 295.5493000490444,227.68510862486755 "/><polyline class="polyline" opacity="0.5" stroke="blue" points="258.34283441217616,207.6149416261925 295.38775037027125,225.31714655726626 "/><polyline class="polyline" opacity="0.5" stroke="blue" points="258.0002109684658,206.48288562719094 295.1794210343278,222.94496635300123 "/><polyline class="polyline" opacity="0.5" stroke="blue" points="257.634751606843,205.35156323276908 294.92472167598555,220.56951203945007 "/><polyline class="polyline" opacity="0.5" stroke="blue" points="257.24668873482096,204.22137536058952 294.62407817128496,218.19171330337963 "/><polyline class="polyline" opacity="0.5" stroke="blue" points="256.8362591194556,203.09271879857184 294.27793179266047,215.81248542764553 "/><polyline class="polyline" opacity="0.5" stroke="blue" points="256.4037037257759,201.96598620316755 293.8867383935245,213.43272926260786 "/><polyline class="polyline" opacity="0.5" stroke="blue" points="255.94926756159074,200.8415661021888 293.45096762297396,211.05333123047117 "/><polyline class="polyline" opacity="0.5" stroke="blue" points="255.4731995286518,199.71984290192924 292.97110217116426,208.6751633607638 "/><polyline class="polyline" opacity="0.5" stroke="blue" points="254.97575228014273,198.60119689832183 292.4476370457882,206.2990833551952 "/><polyline class="polyline" opacity="0.5" stroke="blue" points="254.45718208445686,197.48600429188056 291.88107887999126,203.92593468014604 "/><polyline class="polyline" opacity="0.5" stroke="blue" points="253.9177486952168,196.37463720617768 291.27194527195974,201.55654668507734 "/><polyline class="polyline" opacity="0.5" stroke="blue" points="253.35771522748266,195.26746370961047 290.6207641563248,199.19173474516612 "/><polyline class="polyline" opacity="0.5" stroke="blue" points="252.77734804008793,194.16484784021816 289.92807320744345,196.83230042651508 "/><polyline class="polyline" opacity="0.5" stroke="blue" points="252.17691662403593,193.06714963331112 289.19441927453556,194.47903167231235 "/><polyline class="polyline" opacity="0.5" stroke="blue" points="251.55669349688407,191.9747251516818 288.4203578485859,192.13270300836027 "/><polyline class="polyline" opacity="0.5" stroke="blue" points="250.91695410303524,190.8879265181678 287.60645256084956,189.79407576642313 "/><polyline class="polyline" opacity="0.5" stroke="blue" points="250.2579767198538,189.80710195034519 286.7532747127392,187.4638983238913 "/><polyline class="polyline" opacity="0.5" stroke="blue" points="249.5800423695148,188.73259579713172 285.86140283681465,185.1429063582945 "/><polyline class="polyline" opacity="0.5" stroke="blue" points="248.88343473649417,187.66474857708778 284.93142228854276,182.83182311524453 "/><polyline class="polyline" opacity="0.5" stroke="blue" points="248.1684400905998,186.6038970182021 283.9639248684483,180.53135968842213 "/><polyline class="polyline" opacity="0.5" stroke="blue" points="247.4353472154416,185.55037409895905 282.9595084742323,178.24221531027172 "/><polyline class="polyline" opacity="0.5" stroke="blue" points="246.6844473422355,184.5045090904858 281.9187767823977,175.96507765210902 "/><polyline class="polyline" opacity="0.5" stroke="blue" points="245.91603408882958,183.46662759958198 280.8423389588832,173.70062313238253 "/><polyline class="polyline" opacity="0.5" stroke="blue" points="245.13040340384148,182.43705161244023 279.7308093981775,171.449517231879 "/><polyline class="polyline" opacity="0.5" stroke="blue" points="244.32785351578968,181.41609953886888 278.5848074903545,169.2124148146965 "/><polyline class="polyline" opacity="0.5" stroke="blue" points="243.50868488710168,180.4040862568341 277.4049574154499,166.98996045385496 "/><polyline class="polyline" opacity="0.5" stroke="blue" points="242.6732001728763,179.40132315713979 276.1918879645693,164.78278876044402 "/><polyline class="polyline" opacity="0.5" stroke="blue" points="241.82170418427756,178.40811818807123 274.94623238710415,162.59152471525317 "/><polyline class="polyline" opacity="0.5" stroke="blue" points="240.95450385643366,177.42477589982934 273.6686282634114,160.41678400185873 "/><polyline class="polyline" opacity="0.5" stroke="blue" points="240.07190822071436,176.45159748858921 272.3597174022965,158.25917334018138 "/><polyline class="polyline" opacity="0.5" stroke="blue" points="239.1742283812548,175.48888084001692 271.02014576262593,156.11929081955552 "/><polyline class="polyline" opacity="0.5" stroke="blue" points="238.26177749559633,174.53692057208542 269.650563398382,153.99772623038683 "/><polyline class="polyline" opacity="0.5" stroke="blue" points="237.33487075930879,173.5960080770318 268.2516244264614,151.89506139350118 "/><polyline class="polyline" opacity="0.5" stroke="blue" points="236.39382539446078,172.6664315623035 266.8239870165105,149.81187048631782 "/></svg>
