<?xml version="1.0" encoding="UTF-8"?>
<!DOCTYPE svg PUBLIC "-//W3C//DTD SVG 1.1//EN"
    "http://www.w3.org/Graphics/SVG/1.1/DTD/svg11.dtd"><svg width="400" height="400" stroke="black" fill="none" fill-opacity="0.75" font-style="italic" font-family="CMU Serif, sans-serif" xmlns="http://www.w3.org/2000/svg" xmlns:xlink="http://www.w3.org/1999/xlink" version="1.1"><filter id="blur"><feGaussianBlur stdDeviation="2"/></filter><rect width="100%" height="100%" fill="white" stroke="none" fill-opacity="1"/><polygon points="205.72033454152154,139.60490524725685 212.63108393174033,84.90971252138446 " opacity="0.5" stroke="blue"/><polygon points="203.83263821001032,137.6629898058091 210.89636438229752,80.11724401719684 " opacity="0.5" stroke="blue"/><polygon points="201.90428011270532,135.93032193121752 209.08341082380045,75.67738796900822 " opacity="0.5" stroke="blue"/><polygon points="199.9410877383167,134.41734275395925 207.20498430866178,71.62376355690006 " opacity="0.5" stroke="blue"/><polygon points="197.949272635382,133.13421770135665 205.27511866625088,67.99084475341525 " opacity="0.5" stroke="blue"/><polygon points="195.93543732651398,132.09075677710683 203.3091834725587,64.81370086084334 " opacity="0.5" stroke="blue"/><polygon points="193.90657839832014,131.29632589814673 201.3239292505401,62.12766003719915 " opacity="0.5" stroke="blue"/><polygon points="191.8700850908238,130.7597494964235 199.3375088402125,59.96788862019537 " opacity="0.5" stroke="blue"/><polygon points="189.83373269447472,130.48920481417804 197.36946827373566,58.368880665514354 " opacity="0.5" stroke="blue"/><polygon points="187.80567006305876,130.4921085746216 195.44070007083752,57.363854559843475 " opacity="0.5" stroke="blue"/><polygon points="185.79440057066645,130.77499699341172 193.57335173227938,56.98405696802132 " opacity="0.5" stroke="blue"/><polygon points="183.80875588403148,131.34340040623613 191.79068246390352,57.25797880137756 " opacity="0.5" stroke="blue"/><polygon points="181.85786199145298,132.201714118017 190.116861926121,58.21049335445949 " opacity="0.5" stroke="blue"/><polygon points="179.95109702917793,133.35306742128006 188.57670618138997,59.86193315275773 " opacity="0.5" stroke="blue"/><polygon points="178.0980405777831,134.79919307406266 187.19534809027724,62.22712915788753 " opacity="0.5" stroke="blue"/><polygon points="176.30841426594603,136.54029985781983 185.99784222755218,65.31444340919597 " opacity="0.5" stroke="blue"/><polygon points="174.59201371680808,138.574951137242 185.00870793189313,69.12483339931026 " opacity="0.5" stroke="blue"/><polygon points="172.9586321009784,140.8999525989272 184.2514182601813,73.65099279090614 " opacity="0.5" stroke="blue"/><polygon points="171.41797581617865,143.51025253539547 183.7478471841631,78.87661767443959 " opacity="0.5" stroke="blue"/><polygon points="169.97957309048638,146.39885814558215 183.51769203254344,84.77584959003184 " opacity="0.5" stroke="blue"/><polygon points="168.65267659574187,149.55677132408925 183.57789253900083,91.3129451981003 " opacity="0.5" stroke="blue"/><polygon points="167.44616144940133,152.97294729264553 183.94207143274144,98.44221717374819 " opacity="0.5" stroke="blue"/><polygon points="166.3684202645046,156.6342791755713 184.62002381022478,106.1082813274424 " opacity="0.5" stroke="blue"/><polygon points="165.4272571645576,160.52561122883841 185.6172831064804,114.24663126158254 " opacity="0.5" stroke="blue"/><polygon points="164.62978289831767,164.62978289831767 186.93479001125513,122.78454471045752 " opacity="0.5" stroke="blue"/><polygon points="163.98231335404074,168.9277052134163 188.56868700496176,131.64230624619142 " opacity="0.5" stroke="blue"/><polygon points="163.49027387009565,173.3984702322872 190.5102554162258,140.73471086861406 " opacity="0.5" stroke="blue"/><polygon points="163.15811175741322,178.01949336741146 192.74600437970278,149.97279400752583 " opacity="0.5" stroke="blue"/><polygon points="162.98921938062824,182.7666874669646 195.25791239175007,159.26571756567995 " opacity="0.5" stroke="blue"/><polygon points="162.98586998462338,187.61466654617053 198.0238130918391,168.5227305078305 " opacity="0.5" stroke="blue"/><polygon points="163.14916820194208,192.53697609702664 201.01790829001848,177.6551173670642 " opacity="0.5" stroke="blue"/><polygon points="163.47901683980277,197.50634600006344 204.2113839327489,186.57804944380152 " opacity="0.5" stroke="blue"/><polygon points="163.9741011340675,202.49496126351013 207.57309932286694,195.21226121878735 " opacity="0.5" stroke="blue"/><polygon points="164.63189118714746,207.4747451652058 211.07031692131122,203.48548768186933 " opacity="0.5" stroke="blue"/><polygon points="165.44866279717175,212.4176489061361 214.6694396108957,211.33361542195686 " opacity="0.5" stroke="blue"/><polygon points="166.41953635936625,217.29594162769928 218.3367242603429,218.7015196211372 " opacity="0.5" stroke="blue"/><polygon points="167.5385330014874,222.08249461260414 222.03894440759524,225.5435786614747 " opacity="0.5" stroke="blue"/><polygon points="168.79864662716864,226.75105368413335 225.74398032961008,231.82387617010315 " opacity="0.5" stroke="blue"/><polygon points="170.1919301062566,231.2764942301734 229.42132104300066,237.51611564167843 " opacity="0.5" stroke="blue"/><polygon points="171.70959348851292,235.6350538848259 233.04246925382952,242.60328440582882 " opacity="0.5" stroke="blue"/><polygon points="173.3421118409257,239.8045386692793 236.58124639347895,247.0771112715741 " opacity="0.5" stroke="blue"/><polygon points="175.07934012858166,243.76449928485124 240.0140002182203,250.93736575781858 " opacity="0.5" stroke="blue"/><polygon points="176.91063247828177,247.49637521978053 243.3197217422312,254.19104684520983 " opacity="0.5" stroke="blue"/><polygon points="178.82496318099496,250.98360533081055 246.480081396593,256.85150633264664 " opacity="0.5" stroke="blue"/><polygon points="180.81104689693285,254.21170454559442 249.47939626885653,258.9375469365365 " opacity="0.5" stroke="blue"/><polygon points="182.8574557143525,257.16830726130706 252.30454118580957,260.4725290222103 " opacity="0.5" stroke="blue"/><polygon points="184.95273096581917,259.8431788537247 254.94481642601414,261.48351301853336 " opacity="0.5" stroke="blue"/><polygon points="187.08548800725524,262.22819743243224 257.39178418875315,262.00045772652874 " opacity="0.5" stroke="blue"/><polygon points="189.2445124985161,264.31730856339766 259.639084805788,262.0554883306125 " opacity="0.5" stroke="blue"/><polygon points="191.4188470726339,266.1064561203205 261.68224224902076,261.68224224902076 " opacity="0.5" stroke="blue"/><polygon points="193.59786762867446,267.59349271956455 263.5184669196291,260.9152961785962 " opacity="0.5" stroke="blue"/><polygon points="195.77134881676847,268.7780733460023 265.14646212748926,259.78967385128726 " opacity="0.5" stroke="blue"/><polygon points="197.9295185921967,269.6615358004764 266.566239174373,258.3404310985054 " opacity="0.5" stroke="blue"/><polygon points="200.0631019900593,270.2467715099496 267.7789445997965,256.60231273427314 " opacity="0.5" stroke="blue"/><polygon points="202.16335450743787,270.53809005765754 268.786701967392,254.60947440747202 " opacity="0.5" stroke="blue"/><polygon points="204.2220856730874,270.5410805329459 269.5924695743512,252.39526181338712 " opacity="0.5" stroke="blue"/><polygon points="206.23167353493324,270.26247248921123 270.1999146538124,249.9920393716526 " opacity="0.5" stroke="blue"/><polygon points="208.18507090431552,269.709998952716 270.6133039968234,247.43106055749686 " opacity="0.5" stroke="blue"/><polygon points="210.0758042658827,268.8922635624145 270.83741042751933,244.74237241614748 " opacity="0.5" stroke="blue"/><polygon points="211.89796629725558,267.81861355638296 270.87743420050083,241.95474731334696 " opacity="0.5" stroke="blue"/><polygon points="213.64620294774227,266.49901996640284 270.73893813076415,239.09563561192044 " opacity="0.5" stroke="blue"/><polygon points="215.31569600549668,264.9439660484233 270.4277950929005,236.19113366470972 " opacity="0.5" stroke="blue"/><polygon points="216.90214204263302,263.1643446700962 269.95014641884757,233.2659622412158 " opacity="0.5" stroke="blue"/><polygon points="218.40172857279438,261.17136510201004 269.31236966624965,230.3434512337339 " opacity="0.5" stroke="blue"/><polygon points="219.81110818999093,258.97646941917816 268.5210542094955,227.44552720255854 " opacity="0.5" stroke="blue"/><polygon points="221.12737138516258,256.5912585145256 267.5829831127228,224.5927010097872 " opacity="0.5" stroke="blue"/><polygon points="222.34801866129254,254.02742755587124 266.5051197713027,221.80405345301236 " opacity="0.5" stroke="blue"/><polygon points="223.47093249185002,251.29671058045506 265.2945978508386,219.09721744241648 " opacity="0.5" stroke="blue"/><polygon points="224.49434959312816,248.41083381381952 263.95871310801385,216.48835586758238 " opacity="0.5" stroke="blue"/><polygon points="225.4168339104088,245.38147721977464 262.504915745007,213.9921348739781 " opacity="0.5" stroke="blue"/><polygon points="226.23725065206804,242.22024373186764 260.9408020293882,211.6216928129439 " opacity="0.5" stroke="blue"/><polygon points="226.95474164555952,238.93863558082734 259.274104006166,209.38860564082734 " opacity="0.5" stroke="blue"/><polygon points="227.56870223514315,235.54803711344044 257.5126762403088,207.30285001817575 " opacity="0.5" stroke="blue"/><polygon points="228.0787598934254,232.05970349303328 255.66447865911522,205.37276579165513 " opacity="0.5" stroke="blue"/><polygon points="228.4847546771781,228.4847546771781 253.73755471645092,203.60501992019698 " opacity="0.5" stroke="blue"/><polygon points="228.78672162225158,224.83417408170146 251.74000427655457,202.0045742212164 " opacity="0.5" stroke="blue"/><polygon points="228.9848751423044,221.11881135914365 249.6799508141353,200.57465954948646 " opacity="0.5" stroke="blue"/><polygon points="229.07959547105682,217.3493887423963 247.56550274858142,199.31675916662834 " opacity="0.5" stroke="blue"/><polygon points="229.07141716728668,213.53651042852837 245.40470897017255,198.2306040999209 " opacity="0.5" stroke="blue"/><polygon points="228.96101968524212,209.69067450229505 243.20550887013462,197.31418321383183 " opacity="0.5" stroke="blue"/><polygon points="228.74921999994854,205.82228692223887 240.97567744702062,196.56377051819993 " opacity="0.5" stroke="blue"/><polygon points="228.4369672664261,201.9416771136455 238.7227663201947,195.97397190998697 " opacity="0.5" stroke="blue"/><polygon points="228.02533948351868,198.05911473109086 236.45404172653053,195.53779309360118 " opacity="0.5" stroke="blue"/><polygon points="227.51554212627963,194.18482716831937 234.17642079720645,195.24672985760367 " opacity="0.5" stroke="blue"/><polygon points="226.9089087050973,190.3290174042869 231.8964075958186,195.0908812202365 " opacity="0.5" stroke="blue"/><polygon points="226.2069032044268,186.50188178110642 229.6200305356527,195.05908521712084 " opacity="0.5" stroke="blue"/><polygon points="225.41112434859556,182.7136273122288 227.35278287309515,195.13907632271733 " opacity="0.5" stroke="blue"/><polygon points="224.52331163615474,178.9744881174693 225.09956798848336,195.3176627088783 " opacity="0.5" stroke="blue"/><polygon points="223.54535307716512,175.29474057560765 222.8646511110801,195.58092078823952 " opacity="0.5" stroke="blue"/><polygon points="222.47929455915937,171.68471677551693 220.65161902100215,195.91440380692003 " opacity="0.5" stroke="blue"/><polygon points="221.32735075685153,168.15481583354875 218.46334907164822,196.30336067725668 " opacity="0.5" stroke="blue"/><polygon points="220.09191748754375,164.7155126288053 216.30198862934347,196.73296080910617 " opacity="0.5" stroke="blue"/><polygon points="218.77558539819552,161.37736348971407 214.1689457341135,197.18852043185092 " opacity="0.5" stroke="blue"/><polygon points="217.3811548509129,158.1510083459546 212.06489146124682,197.65572581316894 " opacity="0.5" stroke="blue"/><polygon points="215.9116518508623,155.04716884041835 209.9897741240703,198.1208488784657 " opacity="0.5" stroke="blue"/><polygon points="214.3703448340641,152.07664187791926 207.94284512139203,198.57095100901762 " opacity="0.5" stroke="blue"/><polygon points="212.76076210201623,149.25028807246542 205.92269591513596,198.99407122919558 " opacity="0.5" stroke="blue"/><polygon points="211.0867096555789,146.57901454495575 203.92730533990434,199.37939555647813 " opacity="0.5" stroke="blue"/><polygon points="209.35228914211126,144.07375152039418 201.9540962090164,199.71740494839233 " opacity="0.5" stroke="blue"/><polygon points="207.56191558775942,141.74542218055774 200.0,200.0 " opacity="0.5" stroke="blue"/><polygon points="205.72033454152154,139.60490524725685 198.0615282817375,200.2206012847807 " opacity="0.5" stroke="blue"/><polygon points="203.83263821001032,137.6629898058091 196.1348494867136,200.37422495294481 " opacity="0.5" stroke="blue"/><polygon points="201.90428011270532,135.93032193121752 194.21586963256902,200.4575338704113 " opacity="0.5" stroke="blue"/><polygon points="199.9410877383167,134.41734275395925 192.3003156516744,200.46886517073014 " opacity="0.5" stroke="blue"/><polygon points="197.949272635382,133.13421770135665 190.38382008735346,200.40823557990623 " opacity="0.5" stroke="blue"/><polygon points="195.93543732651395,132.09075677710683 188.46200605056256,200.2773262467151 " opacity="0.5" stroke="blue"/><polygon points="193.90657839832014,131.29632589814673 186.53057149012082,200.07944906247508 " opacity="0.5" stroke="blue"/><polygon points="191.8700850908238,130.75974949642347 184.5853720015907,199.8194965850288 " opacity="0.5" stroke="blue"/><polygon points="189.83373269447472,130.48920481417804 182.62250157364525,199.5038776984621 " opacity="0.5" stroke="blue"/><polygon points="187.80567006305876,130.4921085746216 180.6383708361522,199.1404410541461 " opacity="0.5" stroke="blue"/><polygon points="185.79440057066645,130.77499699341175 178.62978252247112,198.73838816472144 " opacity="0.5" stroke="blue"/><polygon points="183.80875588403148,131.34340040623613 176.59400398228757,198.30817777753134 " opacity="0.5" stroke="blue"/><polygon points="181.85786199145298,132.20171411801698 174.52883667495553,197.86142285567803 " opacity="0.5" stroke="blue"/><polygon points="179.9510970291779,133.35306742128 172.43268263258014,197.4107811614232 " opacity="0.5" stroke="blue"/><polygon points="178.0980405777831,134.79919307406266 170.30460790417675,196.96984008567574 " opacity="0.5" stroke="blue"/><polygon points="176.308414265946,136.54029985781983 168.14440297573276,196.55299601550743 " opacity="0.5" stroke="blue"/><polygon points="174.59201371680808,138.574951137242 165.95264010560174,196.17532819461536 " opacity="0.5" stroke="blue"/><polygon points="172.9586321009784,140.8999525989272 163.73072742117725,195.85246672392677 " opacity="0.5" stroke="blue"/><polygon points="171.41797581617865,143.51025253539547 161.48095949307262,195.60045408467425 " opacity="0.5" stroke="blue"/><polygon points="169.9795730904864,146.39885814558212 159.20656393996032,195.43559935706256 " opacity="0.5" stroke="blue"/><polygon points="168.65267659574187,149.55677132408928 156.91174342484626,195.3743241663553 " opacity="0.5" stroke="blue"/><polygon points="167.44616144940133,152.97294729264553 154.6017121872233,195.4329993267 " opacity="0.5" stroke="blue"/><polygon points="166.36842026450455,156.6342791755713 152.2827260221522,195.62777118276435 " opacity="0.5" stroke="blue"/><polygon points="165.4272571645576,160.52561122883841 149.9621043755645,195.9743767812518 " opacity="0.5" stroke="blue"/><polygon points="164.62978289831767,164.62978289831767 147.64824298573032,196.487947248631 " opacity="0.5" stroke="blue"/><polygon points="163.98231335404074,168.9277052134163 145.3506152769687,197.18279911639536 " opacity="0.5" stroke="blue"/><polygon points="163.49027387009565,173.3984702322872 143.079760518804,198.07221382672404 " opacity="0.5" stroke="blue"/><polygon points="163.15811175741322,178.01949336741148 140.8472566197946,199.16820627153209 " opacity="0.5" stroke="blue"/><polygon points="162.98921938062824,182.7666874669646 138.6656753502139,200.4812839631512 " opacity="0.5" stroke="blue"/><polygon points="162.9858699846234,187.6146665461705 136.54851780316702,202.02019929468082 " opacity="0.5" stroke="blue"/><polygon points="163.14916820194208,192.53697609702655 134.510128031663,203.7916983028496 " opacity="0.5" stroke="blue"/><polygon points="163.47901683980277,197.5063460000635 132.56558306073217,205.80027036589178 " opacity="0.5" stroke="blue"/><polygon points="163.9741011340675,202.49496126351016 130.7305578872065,208.04790431147347 " opacity="0.5" stroke="blue"/><polygon points="164.63189118714746,207.47474516520577 129.02116465840572,210.53385742075582 " opacity="0.5" stroke="blue"/><polygon points="165.44866279717175,212.41764890613604 127.4537659700751,213.2544447280383 " opacity="0.5" stroke="blue"/><polygon points="166.41953635936625,217.29594162769922 126.04476313835642,216.20285675496422 " opacity="0.5" stroke="blue"/><polygon points="167.53853300148737,222.0824946126042 124.81036136214918,219.36901430148592 " opacity="0.5" stroke="blue"/><polygon points="168.79864662716864,226.75105368413335 123.76631486767582,222.73946905915093 " opacity="0.5" stroke="blue"/><polygon points="170.19193010625656,231.27649423017337 122.92765636711741,226.29735853828475 " opacity="0.5" stroke="blue"/><polygon points="171.7095934885129,235.63505388482588 122.30841640292554,230.0224230462125 " opacity="0.5" stroke="blue"/><polygon points="173.34211184092567,239.80453866927925 121.92133931055345,233.89109117922155 " opacity="0.5" stroke="blue"/><polygon points="175.0793401285817,243.76449928485127 121.77760352746157,237.87663848925564 " opacity="0.5" stroke="blue"/><polygon points="176.91063247828177,247.49637521978056 121.88655471501379,241.9494216897743 " opacity="0.5" stroke="blue"/><polygon points="178.82496318099493,250.98360533081052 122.25546055699829,246.07718805040744 " opacity="0.5" stroke="blue"/><polygon points="180.81104689693285,254.2117045455944 122.88929608265047,250.22545661828312 " opacity="0.5" stroke="blue"/><polygon points="182.85745571435248,257.168307261307 123.79056788489659,254.3579647567949 " opacity="0.5" stroke="blue"/><polygon points="184.95273096581917,259.8431788537247 124.95918464857894,258.43717040226676 " opacity="0.5" stroke="blue"/><polygon points="187.08548800725524,262.22819743243224 126.39237998765071,262.42479761366025 " opacity="0.5" stroke="blue"/><polygon points="189.2445124985161,264.31730856339766 128.08469177222503,266.28241063615997 " opacity="0.5" stroke="blue"/><polygon points="191.4188470726339,266.1064561203205 130.02800000000002,269.972 " opacity="0.5" stroke="blue"/><polygon points="193.59786762867444,267.59349271956455 132.21162295624708,273.4565632737593 " opacity="0.5" stroke="blue"/><polygon points="195.7713488167685,268.7780733460023 134.6224690565906,276.7006630717597 " opacity="0.5" stroke="blue"/><polygon points="197.92951859219673,269.6615358004764 137.24523952870527,279.6709457957992 " opacity="0.5" stroke="blue"/><polygon points="200.0631019900593,270.2467715099496 140.0626751072732,282.3366063192627 " opacity="0.5" stroke="blue"/><polygon points="202.16335450743784,270.53809005765754 143.0558383149338,284.6697862777165 " opacity="0.5" stroke="blue"/><polygon points="204.22208567308738,270.5410805329459 146.20442177260156,286.64589664142443 " opacity="0.5" stroke="blue"/><polygon points="206.23167353493324,270.26247248921123 149.48707237811314,288.24385860227085 " opacity="0.5" stroke="blue"/><polygon points="208.18507090431555,269.709998952716 152.88172112308985,289.4462602849793 " opacity="0.5" stroke="blue"/><polygon points="210.0758042658827,268.89226356241454 156.3659087538811,290.23943017025135 " opacity="0.5" stroke="blue"/><polygon points="211.89796629725555,267.81861355638296 159.91709835833518,290.61343119995104 " opacity="0.5" stroke="blue"/><polygon points="213.64620294774227,266.4990199664029 163.5129671847965,290.5619821653909 " opacity="0.5" stroke="blue"/><polygon points="215.31569600549668,264.94396604842336 167.13167146655306,290.0823150513129 " opacity="0.5" stroke="blue"/><polygon points="216.90214204263305,263.1643446700962 170.75207962277824,289.1749784643469 " opacity="0.5" stroke="blue"/><polygon points="218.40172857279435,261.17136510201004 174.35397082983988,287.8435981092085 " opacity="0.5" stroke="blue"/><polygon points="219.81110818999093,258.9764694191782 177.9181975117778,286.0946055253406 " opacity="0.5" stroke="blue"/><polygon points="221.12737138516258,256.5912585145255 181.4268117113166,283.93694603111476 " opacity="0.5" stroke="blue"/><polygon points="222.34801866129257,254.0274275558712 184.86315651968755,281.38177613445606 " opacity="0.5" stroke="blue"/><polygon points="223.47093249185005,251.296710580455 188.21192473299686,278.4421596615036 " opacity="0.5" stroke="blue"/><polygon points="224.49434959312813,248.41083381381958 191.4591876529571,275.1327706337991 " opacity="0.5" stroke="blue"/><polygon points="225.41683391040877,245.38147721977464 194.59239746541954,271.46960958809285 " opacity="0.5" stroke="blue"/><polygon points="226.23725065206804,242.22024373186753 197.60036692926025,267.46973866754405 " opacity="0.5" stroke="blue"/><polygon points="226.95474164555952,238.9386355808273 200.47323021778865,263.151039489541 " opacity="0.5" stroke="blue"/><polygon points="227.56870223514315,235.54803711344042 203.202388707186,258.5319965671957 " opacity="0.5" stroke="blue"/><polygon points="228.0787598934254,232.0597034930333 205.7804453356586,253.63150796560657 " opacity="0.5" stroke="blue"/><polygon points="228.48475467717813,228.48475467717813 208.20113089639875,248.46872393173047 " opacity="0.5" stroke="blue"/><polygon points="228.7867216222516,224.83417408170138 210.45922530778714,243.06291345660298 " opacity="0.5" stroke="blue"/><polygon points="228.9848751423044,221.11881135914365 212.55047655234645,237.43335810864295 " opacity="0.5" stroke="blue"/><polygon points="229.07959547105685,217.34938874239626 214.47151961401826,231.59927200698274 " opacity="0.5" stroke="blue"/><polygon points="229.0714171672867,213.53651042852837 216.2197973889131,225.57974646891495 " opacity="0.5" stroke="blue"/><polygon points="228.9610196852421,209.69067450229505 217.79348521079717,219.39371764709023 " opacity="0.5" stroke="blue"/><polygon points="228.74921999994854,205.8222869222388 219.19142032814293,213.05995534999107 " opacity="0.5" stroke="blue"/><polygon points="228.4369672664261,201.94167711364548 220.41303739996502,206.59707119314837 " opacity="0.5" stroke="blue"/><polygon points="228.02533948351868,198.0591147310908 221.4583108453361,200.02354423898944 " opacity="0.5" stroke="blue"/><polygon points="227.51554212627963,194.18482716831937 222.32770468651938,193.35776233182915 " opacity="0.5" stroke="blue"/><polygon points="226.9089087050973,190.32901740428693 223.02213036637082,186.61807740463482 " opacity="0.5" stroke="blue"/><polygon points="226.2069032044268,186.5018817811064 223.54291289397983,179.82287311081512 " opacity="0.5" stroke="blue"/><polygon points="225.4111243485956,182.71362731222874 223.89176557440652,172.99064320399577 " opacity="0.5" stroke="blue"/><polygon points="224.52331163615472,178.97448811746926 224.07077350407292,166.14007913959549 " opacity="0.5" stroke="blue"/><polygon points="223.54535307716512,175.29474057560768 224.08238595761688,159.29016539329967 " opacity="0.5" stroke="blue"/><polygon points="222.47929455915937,171.6847167755169 223.929417749139,152.46028097351905 " opacity="0.5" stroke="blue"/><polygon points="221.32735075685153,168.15481583354872 223.6150596147271,145.67030553875554 " opacity="0.5" stroke="blue"/><polygon points="220.09191748754372,164.71551262880524 223.1428976275296,138.9407284083142 " opacity="0.5" stroke="blue"/><polygon points="218.7755853981955,161.377363489714 222.51694161465446,132.29275856853656 " opacity="0.5" stroke="blue"/><polygon points="217.3811548509129,158.1510083459546 221.74166248953998,125.74843352010274 " opacity="0.5" stroke="blue"/><polygon points="215.91165185086234,155.04716884041835 220.82203833640017,119.3307244794868 " opacity="0.5" stroke="blue"/><polygon points="214.37034483406407,152.07664187791926 219.76360897661118,113.06363503563537 " opacity="0.5" stroke="blue"/><polygon points="212.76076210201623,149.2502880724654 218.57253860171596,106.97228987012008 " opacity="0.5" stroke="blue"/><polygon points="211.08670965557886,146.5790145449557 217.25568586499224,101.08300957776655 " opacity="0.5" stroke="blue"/><polygon points="209.35228914211126,144.07375152039418 215.8206805741381,95.42336698253541 " opacity="0.5" stroke="blue"/><polygon points="207.56191558775942,141.74542218055774 214.27600581288422,90.02221964449491 " opacity="0.5" stroke="blue"/></svg>
