<?xml version="1.0" encoding="UTF-8"?>
<!DOCTYPE svg PUBLIC "-//W3C//DTD SVG 1.1//EN"
    "http://www.w3.org/Graphics/SVG/1.1/DTD/svg11.dtd"><svg width="400" height="400" stroke="black" fill="none" fill-opacity="0.75" font-style="italic" font-family="CMU Serif, sans-serif" xmlns="http://www.w3.org/2000/svg" xmlns:xlink="http://www.w3.org/1999/xlink" version="1.1"><filter id="blur"><feGaussianBlur stdDeviation="2"/></filter><rect width="100%" height="100%" fill="white" stroke="none" fill-opacity="1"/><polygon points="202.0724903683,134.61401674130303 205.96561370431604,73.29555091276801 " opacity="0.5" stroke="blue"/><polygon points="200.75368731369707,133.1637836579959 205.4403519144868,69.33807966819816 " opacity="0.5" stroke="blue"/><polygon points="199.41077049816874,131.94913853806815 204.89272959948286,65.81102211239951 " opacity="0.5" stroke="blue"/><polygon points="198.048154637263,130.9803629427807 204.33348026050942,62.752575950563795 " opacity="0.5" stroke="blue"/><polygon points="196.6705584793356,130.2672714827639 203.7741918160196,60.20140636510013 " opacity="0.5" stroke="blue"/><polygon points="195.28300583709031,129.81910107674534 203.22729992754907,58.19617312719038 " opacity="0.5" stroke="blue"/><polygon points="193.89082269236607,129.6443909094467 202.70605763761986,56.77495107400267 " opacity="0.5" stroke="blue"/><polygon points="192.49962981268843,129.75085396061695 202.22447647258835,55.97453955826663 " opacity="0.5" stroke="blue"/><polygon points="191.11533033153364,130.14524132521032 201.79723424708018,55.82966065596176 " opacity="0.5" stroke="blue"/><polygon points="189.74409177733156,130.83320092285177 201.43954522083115,56.3720514341903 " opacity="0.5" stroke="blue"/><polygon points="188.3923220919486,131.81913259425295 201.16698908563419,57.6294624442547 " opacity="0.5" stroke="blue"/><polygon points="187.0666392603212,133.10604199129432 200.99529657039113,59.62458268622626 " opacity="0.5" stroke="blue"/><polygon points="185.77383428092597,134.69539607094754 200.94009129118163,62.37392028372332 " opacity="0.5" stroke="blue"/><polygon points="184.52082734276146,136.58698338281573 201.01658984416846,65.88667749332657 " opacity="0.5" stroke="blue"/><polygon points="183.31461723808178,138.77878267481356 201.23926498691122,70.1636677109939 " opacity="0.5" stroke="blue"/><polygon points="182.16222422930286,141.266843608339 201.62147995039876,75.19632988257723 " opacity="0.5" stroke="blue"/><polygon points="181.07062679954515,144.04518354913893 202.1751052614229,80.96590108695698 " opacity="0.5" stroke="blue"/><polygon points="180.04669294349495,147.10570445923003 202.91013264660208,87.44280991008308 " opacity="0.5" stroke="blue"/><polygon points="179.09710689101303,150.4381338370016 203.83430328834004,94.58635055006042 " opacity="0.5" stroke="blue"/><polygon points="178.22829239070768,154.0299934191701 204.9527695342433,102.34468966336013 " opacity="0.5" stroke="blue"/><polygon points="177.44633390350273,157.8665989575625 206.26780976973455,110.65524453229885 " opacity="0.5" stroke="blue"/><polygon points="176.75689725499416,161.93109381145587 207.7786152705835,119.44545258309238 " opacity="0.5" stroke="blue"/><polygon points="176.16515145763788,166.20451835731862 209.4811653146247,128.63392969581986 " opacity="0.5" stroke="blue"/><polygon points="175.67569352749868,170.6659163275928 211.3682026885632,138.1319898816224 " opacity="0.5" stroke="blue"/><polygon points="175.29247817468905,175.29247817468905 213.42931622017818,147.845474038358 " opacity="0.5" stroke="blue"/><polygon points="175.0187542332658,180.05972045206815 215.65113053829086,157.67681316384449 " opacity="0.5" stroke="blue"/><polygon points="174.85700960987998,184.941699056595 218.0175965039578,167.52723403611057 " opacity="0.5" stroke="blue"/><polygon points="174.80892636937745,189.91125303744636 220.51036933383446,177.2990049262594 " opacity="0.5" stroke="blue"/><polygon points="174.87534734261175,194.9402746025843 223.10925599983375,186.89761657645846 " opacity="0.5" stroke="blue"/><polygon points="175.05625534419772,200.0 225.792709574634,196.2337996684808 " opacity="0.5" stroke="blue"/><polygon points="175.3507657372905,205.06131516941716 228.53834614737048,205.2252935441742 " opacity="0.5" stroke="blue"/><polygon points="175.75713269385957,210.09506949486484 231.32345987181668,213.79830037556474 " opacity="0.5" stroke="blue"/><polygon points="176.27276909022453,215.0723906720689 234.12551350760134,221.88858209061127 " opacity="0.5" stroke="blue"/><polygon points="176.89427956825944,219.9649936555762 236.92258514875726,229.44218167620073 " opacity="0.5" stroke="blue"/><polygon points="177.61750590230812,224.74547687201306 239.69375624020023,236.41577365564194 " opacity="0.5" stroke="blue"/><polygon points="178.43758345895972,229.38759936519003 242.4194309379378,242.77666863767115 " opacity="0.5" stroke="blue"/><polygon points="179.34900723746657,233.8665332484578 245.08158186430074,248.50251252293032 " opacity="0.5" stroke="blue"/><polygon points="180.34570574529477,238.15908673981136 247.66392191299676,253.580731568356 " opacity="0.5" stroke="blue"/><polygon points="181.4211208044142,242.2438940963695 250.15200565336391,258.00778001805344 " opacity="0.5" stroke="blue"/><polygon points="182.5682913031781,246.10156989207596 252.5332668823058,261.78824789069785 " opacity="0.5" stroke="blue"/><polygon points="183.7799389051656,249.71482623921867 254.79700091375904,264.93388359563136 " opacity="0.5" stroke="blue"/><polygon points="185.0485537950858,253.0685526863807 256.93430132007586,267.46258033594916 " opacity="0.5" stroke="blue"/><polygon points="186.36647867417645,256.149859584073 258.9379611622329,269.3973677747317 " opacity="0.5" stroke="blue"/><polygon points="187.72598940219527,258.9480866541955 260.80234842433714,270.76544212742914 " opacity="0.5" stroke="blue"/><polygon points="189.11937090716654,261.45477930027255 262.523264576109,271.59725947363296 " opacity="0.5" stroke="blue"/><polygon points="190.53898723389142,263.66363583254883 264.0977940925855,271.92570923404924 " opacity="0.5" stroke="blue"/><polygon points="191.9773448644962,265.57042924666564 265.5241515104849,271.785377816289 " opacity="0.5" stroke="blue"/><polygon points="193.42714870664554,267.17290748776423 266.8015313145182,271.2119066040096 " opacity="0.5" stroke="blue"/><polygon points="194.88135039678286,268.47067626290584 267.9299647128051,270.2414438141112 " opacity="0.5" stroke="blue"/><polygon points="196.33318879819012,269.46506844971736 268.9101862377254,268.9101862377254 " opacity="0.5" stroke="blue"/><polygon points="197.77622278030617,270.15900400890246 269.74351213111066,267.2540044052626 " opacity="0.5" stroke="blue"/><polygon points="199.2043565423414,270.55684406616405 270.43173165466453,265.3081431279669 " opacity="0.5" stroke="blue"/><polygon points="200.61185788859578,270.66424250961126 270.97701180700335,263.10698850776964 " opacity="0.5" stroke="blue"/><polygon points="201.99336997467472,270.4879980757704 271.3818154167891,260.6838922157378 " opacity="0.5" stroke="blue"/><polygon points="203.3439171241668,270.03590949305215 271.64883220008187,258.0710439726054 " opacity="0.5" stroke="blue"/><polygon points="204.6589053666369,269.31663583557645 271.78092209939024,255.29938359794062 " opacity="0.5" stroke="blue"/><polygon points="205.9341183731533,268.33956382914977 271.7810700414571,252.3985446246962 " opacity="0.5" stroke="blue"/><polygon points="207.16570946867208,267.11468345817286 271.652351141086,249.3968222223863 " opacity="0.5" stroke="blue"/><polygon points="208.35019038531942,265.65247285729686 271.3979053216622,246.32115897424717 " opacity="0.5" stroke="blue"/><polygon points="209.48441739081292,263.9637931416166 271.0209203042706,243.19714286831663 " opacity="0.5" stroke="blue"/><polygon points="210.5655753856134,262.0597935382292 270.5246219238192,240.04901266075672 " opacity="0.5" stroke="blue"/><polygon points="211.59116051425303,259.95182693186564 269.91227075225794,236.8996665348556 " opacity="0.5" stroke="blue"/><polygon points="212.55896178359035,257.6513757278835 269.18716403812886,233.7706707026337 " opacity="0.5" stroke="blue"/><polygon points="213.46704212600747,255.16998776555934 268.35264200273343,230.68226527577858 " opacity="0.5" stroke="blue"/><polygon points="214.3137192908407,252.51922188062107 267.4120975625111,227.65336537084266 " opacity="0.5" stroke="blue"/><polygon points="215.09754689424653,249.71060261486645 266.3689885728169,224.70155601466752 " opacity="0.5" stroke="blue"/><polygon points="215.81729590746443,246.75558349865807 265.22685170964155,221.84307998512548 " opacity="0.5" stroke="blue"/><polygon points="216.47193681690752,243.66551828501784 263.9893171236615,219.09281826434824 " opacity="0.5" stroke="blue"/><polygon points="217.0606226472377,240.4516394879461 262.66012301711055,216.46426330010132 " opacity="0.5" stroke="blue"/><polygon points="217.58267300085544,237.12504356860492 261.2431293109769,213.96948576714172 " opacity="0.5" stroke="blue"/><polygon points="218.03755923413604,233.69668211752975 259.74232959124754,211.6190959927663 " opacity="0.5" stroke="blue"/><polygon points="218.42489086218728,230.1773583958141 258.16186055209437,209.42220165472935 " opacity="0.5" stroke="blue"/><polygon points="218.7444032596794,226.57772862032766 256.5060081949735,207.38636376744873 " opacity="0.5" stroke="blue"/><polygon points="218.9959467051083,222.9083074049483 254.7792100994406,205.51755333304234 " opacity="0.5" stroke="blue"/><polygon points="219.1794767993335,219.1794767993335 252.9860531575405,203.82011133373203 " opacity="0.5" stroke="blue"/><polygon points="219.29504627598413,215.40149839707954 251.13126626161687,202.2967149661375 " opacity="0.5" stroke="blue"/><polygon points="219.3427982109303,211.5845280147026 249.21970755696614,200.94835314980065 " opacity="0.5" stroke="blue"/><polygon points="219.3229606300391,207.73863247046663 247.25634601614684,199.77431436629723 " opacity="0.5" stroke="blue"/><polygon points="219.23584250845607,203.87380801668925 245.24623725951886,198.77218978799553 " opacity="0.5" stroke="blue"/><polygon points="219.0818311502441,200.0 243.1944937334084,197.937894427168 " opacity="0.5" stroke="blue"/><polygon points="218.86139093397205,196.12712334050718 241.10624955792485,197.26570867241963 " opacity="0.5" stroke="blue"/><polygon points="218.5750634073708,192.26508343254292 238.98662056381522,196.74834208280558 " opacity="0.5" stroke="blue"/><polygon points="218.22346871208458,188.423797076312 236.84066024315015,196.37702069102588 " opacity="0.5" stroke="blue"/><polygon points="217.80730831745615,184.61321305123576 234.67331253230634,196.1415983446104 " opacity="0.5" stroke="blue"/><polygon points="217.32736903983698,180.84333193804636 232.48936251731212,196.03069181519206 " opacity="0.5" stroke="blue"/><polygon points="216.78452832073654,177.12422478785422 230.29338629105305,196.03183856524788 " opacity="0.5" stroke="blue"/><polygon points="216.17976073286803,173.46605022273297 228.0897012900074,196.13167521903057 " opacity="0.5" stroke="blue"/><polygon points="215.51414567745286,169.8790695342181 225.88231848782456,196.31613398284773 " opacity="0.5" stroke="blue"/><polygon points="214.7888762286688,166.37365932404393 223.67489781943848,196.5706535425053 " opacity="0.5" stroke="blue"/><polygon points="214.00526907152218,162.9603212061578 221.47070815083754,196.88040037261257 " opacity="0.5" stroke="blue"/><polygon points="213.16477546736658,159.64968806147766 219.27259299776716,197.23049595725442 " opacity="0.5" stroke="blue"/><polygon points="212.26899316646976,156.45252630814775 217.08294303656524,197.60624516892403 " opacity="0.5" stroke="blue"/><polygon points="211.31967916916454,153.3797336216107 214.90367625011586,197.99336099610204 " opacity="0.5" stroke="blue"/><polygon points="210.31876321598048,150.44233151236372 212.73622632217518,198.3781809507506 " opacity="0.5" stroke="blue"/><polygon points="209.26836186256185,147.65145214682857 210.58153964637268,198.74787081422454 " opacity="0.5" stroke="blue"/><polygon points="208.1707929670557,145.01831878071337 208.44008106510876,199.09061187132832 " opacity="0.5" stroke="blue"/><polygon points="207.0285903860216,142.55421916730808 206.31184821122486,199.39576840572363 " opacity="0.5" stroke="blue"/><polygon points="205.84451863995082,140.27047130841626 204.19639410343405,199.65403294715648 " opacity="0.5" stroke="blue"/><polygon points="204.62158727152928,138.17838093649567 202.09285745486875,199.8575475299156 " opacity="0.5" stroke="blue"/><polygon points="203.36306457941086,136.28919015675368 200.0,200.0 " opacity="0.5" stroke="blue"/><polygon points="202.0724903683,134.61401674130303 197.91625003303912,200.07669515561582 " opacity="0.5" stroke="blue"/><polygon points="200.75368731369707,133.1637836579959 195.83975128224637,200.08460118680446 " opacity="0.5" stroke="blue"/><polygon points="199.41077049816874,131.94913853806815 193.76841621805713,200.02237246705448 " opacity="0.5" stroke="blue"/><polygon points="198.048154637263,130.9803629427807 191.69998290488851,199.8903502224447 " opacity="0.5" stroke="blue"/><polygon points="196.67055847933563,130.26727148276393 189.63207455124424,199.6905429503062 " opacity="0.5" stroke="blue"/><polygon points="195.2830058370903,129.81910107674537 187.56226098324422,199.42658867568204 " opacity="0.5" stroke="blue"/><polygon points="193.89082269236607,129.6443909094467 185.4881213550905,199.10370122328897 " opacity="0.5" stroke="blue"/><polygon points="192.49962981268843,129.75085396061698 183.40730750806915,198.72860265449663 " opacity="0.5" stroke="blue"/><polygon points="191.11533033153364,130.14524132521032 181.31760748948,198.30944388687706 " opacity="0.5" stroke="blue"/><polygon points="189.7440917773316,130.83320092285177 179.21700883689576,197.85571529513598 " opacity="0.5" stroke="blue"/><polygon points="188.3923220919486,131.81913259425298 177.1037613146887,197.37814880556283 " opacity="0.5" stroke="blue"/><polygon points="187.0666392603212,133.10604199129432 174.9764388530779,196.88861266109458 " opacity="0.5" stroke="blue"/><polygon points="185.77383428092597,134.69539607094757 172.834000480324,196.3999996701162 " opacity="0.5" stroke="blue"/><polygon points="184.52082734276146,136.58698338281573 170.6758500524717,195.92610937793268 " opacity="0.5" stroke="blue"/><polygon points="183.31461723808178,138.77878267481356 168.50189456958975,195.48152423313138 " opacity="0.5" stroke="blue"/><polygon points="182.16222422930286,141.266843608339 166.3126008212085,195.08147947837318 " opacity="0.5" stroke="blue"/><polygon points="181.07062679954515,144.04518354913893 164.109050026055,194.7417261920493 " opacity="0.5" stroke="blue"/><polygon points="180.04669294349495,147.10570445923003 161.89299002277028,194.47838665842434 " opacity="0.5" stroke="blue"/><polygon points="179.09710689101303,150.4381338370016 159.66688443077123,194.30780106346805 " opacity="0.5" stroke="blue"/><polygon points="178.22829239070768,154.02999341917004 157.43395803681247,194.24636441525982 " opacity="0.5" stroke="blue"/><polygon points="177.44633390350273,157.86659895756247 155.19823747766358,194.31035258498764 " opacity="0.5" stroke="blue"/><polygon points="176.75689725499416,161.93109381145584 152.96458608896558,194.5157364700444 " opacity="0.5" stroke="blue"/><polygon points="176.16515145763788,166.20451835731862 150.73873158311514,194.87798350656888 " opacity="0.5" stroke="blue"/><polygon points="175.67569352749868,170.6659163275928 148.52728501558354,195.41184611544023 " opacity="0.5" stroke="blue"/><polygon points="175.29247817468905,175.29247817468905 146.3377493124861,196.13113716102916 " opacity="0.5" stroke="blue"/><polygon points="175.0187542332658,180.05972045206815 144.17851547806765,197.04849313969737 " opacity="0.5" stroke="blue"/><polygon points="174.85700960987998,184.941699056595 142.0588444969814,198.17512659307314 " opacity="0.5" stroke="blue"/><polygon points="174.80892636937745,189.9112530374464 139.9888329126308,199.52057014965982 " opacity="0.5" stroke="blue"/><polygon points="174.87534734261175,194.94027460258428 137.97936012034364,201.0924156176082 " opacity="0.5" stroke="blue"/><polygon points="175.05625534419775,200.0 136.0420155835267,202.89605264990047 " opacity="0.5" stroke="blue"/><polygon points="175.3507657372905,205.06131516941707 134.1890044812089,204.93441263576415 " opacity="0.5" stroke="blue"/><polygon points="175.75713269385957,210.0950694948649 132.43303074156836,207.20772457976022 " opacity="0.5" stroke="blue"/><polygon points="176.27276909022453,215.07239067206893 130.7871570168556,209.7132907399226 " opacity="0.5" stroke="blue"/><polygon points="176.89427956825944,219.96499365557617 129.26464191023513,212.44529062424547 " opacity="0.5" stroke="blue"/><polygon points="177.6175059023081,224.74547687201303 127.87875566258145,215.3946224988055 " opacity="0.5" stroke="blue"/><polygon points="178.43758345895972,229.38759936518994 126.6425765216048,218.54879174743962 " opacity="0.5" stroke="blue"/><polygon points="179.34900723746657,233.86653324845787 125.56877110633965,221.89185515529098 " opacity="0.5" stroke="blue"/><polygon points="180.3457057452948,238.15908673981136 124.66936319157765,225.40442939599777 " opacity="0.5" stroke="blue"/><polygon points="181.4211208044142,242.24389409636944 123.95549640062734,229.06377064080084 " opacity="0.5" stroke="blue"/><polygon points="182.5682913031781,246.10156989207593 123.43719723259827,232.8439302700573 " opacity="0.5" stroke="blue"/><polygon points="183.77993890516558,249.7148262392186 123.12314557992693,236.71598919128252 " opacity="0.5" stroke="blue"/><polygon points="185.0485537950858,253.06855268638077 123.02046033396327,240.64837034051266 " opacity="0.5" stroke="blue"/><polygon points="186.36647867417645,256.149859584073 123.13450776343544,244.60722570320402 " opacity="0.5" stroke="blue"/><polygon points="187.72598940219527,258.9480866541955 123.46874003475929,248.55689081920417 " opacity="0.5" stroke="blue"/><polygon points="189.11937090716654,261.45477930027255 124.02457050413278,252.46039644839976 " opacity="0.5" stroke="blue"/><polygon points="190.5389872338914,263.6636358325488 124.80129126165514,256.2800240998098 " opacity="0.5" stroke="blue"/><polygon points="191.9773448644962,265.57042924666564 125.79603689486075,259.9778896918008 " opacity="0.5" stroke="blue"/><polygon points="193.42714870664554,267.17290748776423 127.00379664395098,263.5165379110274 " opacity="0.5" stroke="blue"/><polygon points="194.88135039678286,268.47067626290584 128.41747515224836,266.8595290192192 " opacity="0.5" stroke="blue"/><polygon points="196.33318879819012,269.46506844971736 130.02800000000002,269.972 " opacity="0.5" stroke="blue"/><polygon points="197.77622278030614,270.15900400890246 131.82447228127347,272.8211830458972 " opacity="0.5" stroke="blue"/><polygon points="199.2043565423414,270.55684406616405 133.79435476971042,275.37686638384855 " opacity="0.5" stroke="blue"/><polygon points="200.61185788859578,270.6642425096112 135.92369082822148,277.6117851804577 " opacity="0.5" stroke="blue"/><polygon points="201.99336997467472,270.4879980757704 138.1973462307092,279.5019335552267 " opacity="0.5" stroke="blue"/><polygon points="203.3439171241668,270.03590949305215 140.5992655259198,281.0267923258019 " opacity="0.5" stroke="blue"/><polygon points="204.65890536663687,269.3166358355765 143.11273449251303,282.16947076808617 " opacity="0.5" stroke="blue"/><polygon points="205.9341183731533,268.3395638291498 145.72064058279352,282.91676416270917 " opacity="0.5" stroke="blue"/><polygon points="207.16570946867208,267.11468345817286 148.40572397266453,283.25913201736114 " opacity="0.5" stroke="blue"/><polygon points="208.35019038531942,265.6524728572969 151.1508128477356,283.19060444875146 " opacity="0.5" stroke="blue"/><polygon points="209.48441739081292,263.96379314161663 153.93903776817876,282.70862618068526 " opacity="0.5" stroke="blue"/><polygon points="210.5655753856134,262.05979353822926 156.7540212730194,281.8138489249145 " opacity="0.5" stroke="blue"/><polygon points="211.59116051425303,259.95182693186564 159.58004021865196,280.50988357018167 " opacity="0.5" stroke="blue"/><polygon points="212.55896178359035,257.6513757278835 162.40215961916107,278.8030236667433 " opacity="0.5" stroke="blue"/><polygon points="213.46704212600744,255.16998776555937 165.2063379065059,276.7019512449215 " opacity="0.5" stroke="blue"/><polygon points="214.3137192908407,252.5192218806211 167.9795045141181,274.21743515253075 " opacity="0.5" stroke="blue"/><polygon points="215.09754689424653,249.7106026148664 170.7096114835492,271.3620309505891 " opacity="0.5" stroke="blue"/><polygon points="215.81729590746443,246.75558349865804 173.38566139257964,268.14979008026063 " opacity="0.5" stroke="blue"/><polygon points="216.47193681690752,243.6655182850178 175.99771431053477,264.59598460699146 " opacity="0.5" stroke="blue"/><polygon points="217.0606226472377,240.45163948794612 178.53687671869858,260.71685244548445 " opacity="0.5" stroke="blue"/><polygon points="217.58267300085544,237.12504356860495 180.9952754139177,256.52936663870196 " opacity="0.5" stroke="blue"/><polygon points="218.03755923413604,233.69668211752966 183.36601936877142,252.0510310541431 " opacity="0.5" stroke="blue"/><polygon points="218.42489086218728,230.17735839581408 185.6431523801663,247.2997038023489 " opacity="0.5" stroke="blue"/><polygon points="218.7444032596794,226.57772862032763 187.82159912701644,242.2934487916749 " opacity="0.5" stroke="blue"/><polygon points="218.9959467051083,222.90830740494832 189.89710700140557,237.05041511290716 " opacity="0.5" stroke="blue"/><polygon points="219.1794767993335,219.1794767993335 191.86618579753537,231.5887433905391 " opacity="0.5" stroke="blue"/><polygon points="219.29504627598416,215.40149839707945 193.7260470562372,225.9264978308038 " opacity="0.5" stroke="blue"/><polygon points="219.3427982109303,211.58452801470258 195.4745445834058,220.08162242168697 " opacity="0.5" stroke="blue"/><polygon points="219.3229606300391,207.73863247046657 197.1101173982973,214.0719195765694 " opacity="0.5" stroke="blue"/><polygon points="219.23584250845607,203.87380801668928 198.63173612885572,207.91504943951767 " opacity="0.5" stroke="blue"/><polygon points="219.0818311502441,200.0 200.0388536599743,201.62854806558852 " opacity="0.5" stroke="blue"/><polygon points="218.86139093397205,196.1271233405071 201.3313606584614,195.22986273404103 " opacity="0.5" stroke="blue"/><polygon points="218.5750634073708,192.26508343254287 202.5095464452976,188.7364027278267 " opacity="0.5" stroke="blue"/><polygon points="218.22346871208458,188.42379707631198 203.57406556001075,182.16560400266158 " opacity="0.5" stroke="blue"/><polygon points="217.80730831745615,184.6132130512358 204.5259102611427,175.5350062586011 " opacity="0.5" stroke="blue"/><polygon points="217.32736903983698,180.8433319380464 205.3663891276141,168.8623410030411 " opacity="0.5" stroke="blue"/><polygon points="216.78452832073654,177.1242247878542 206.09711186459043,162.16562924447106 " opacity="0.5" stroke="blue"/><polygon points="216.17976073286803,173.46605022273292 206.71998037015032,155.46328747005305 " opacity="0.5" stroke="blue"/><polygon points="215.51414567745286,169.87906953421805 207.2371860813174,148.77424052684998 " opacity="0.5" stroke="blue"/><polygon points="214.7888762286688,166.37365932404393 207.6512135852725,142.1180399364145 " opacity="0.5" stroke="blue"/><polygon points="214.00526907152218,162.9603212061578 207.96485044900942,135.51498601591345 " opacity="0.5" stroke="blue"/><polygon points="213.16477546736658,159.6496880614776 208.1812031832655,128.9862519468043 " opacity="0.5" stroke="blue"/><polygon points="212.26899316646976,156.45252630814772 208.30371920888086,122.55400761556838 " opacity="0.5" stroke="blue"/><polygon points="211.31967916916454,153.37973362161068 208.33621463012565,116.24154064229029 " opacity="0.5" stroke="blue"/><polygon points="210.31876321598048,150.44233151236372 208.28290753396095,110.07337150569478 " opacity="0.5" stroke="blue"/><polygon points="209.26836186256187,147.6514521468286 208.14845642037585,104.07535906385574 " opacity="0.5" stroke="blue"/><polygon points="208.17079296705566,145.01831878071332 207.9380032204431,98.27479205847393 " opacity="0.5" stroke="blue"/><polygon points="207.0285903860216,142.55421916730808 207.65722016924374,92.70046138349875 " opacity="0.5" stroke="blue"/><polygon points="205.8445186399508,140.27047130841623 207.3123595645397,87.3827070103315 " opacity="0.5" stroke="blue"/><polygon points="204.62158727152928,138.1783809364957 206.91030515436535,82.35343251744692 " opacity="0.5" stroke="blue"/><polygon points="203.36306457941086,136.28919015675368 206.45862355488254,77.64607921198012 " opacity="0.5" stroke="blue"/></svg>
