<?xml version="1.0" encoding="UTF-8"?>
<!DOCTYPE svg PUBLIC "-//W3C//DTD SVG 1.1//EN"
    "http://www.w3.org/Graphics/SVG/1.1/DTD/svg11.dtd"><svg width="400" height="400" stroke="black" fill="none" fill-opacity="0.75" font-style="italic" font-family="CMU Serif, sans-serif" xmlns="http://www.w3.org/2000/svg" xmlns:xlink="http://www.w3.org/1999/xlink" version="1.1"><filter id="blur"><feGaussianBlur stdDeviation="2"/></filter><rect width="100%" height="100%" fill="white" stroke="none" fill-opacity="1"/><polygon points="253.10378261133081,0.0 197.00379351535406,400.0 " stroke-opacity="0.25" stroke="green"/><polygon points="331.614007780184,5.684341886080802e-14 192.57411197112944,399.99999999999994 " stroke-opacity="0.25" stroke="green"/><polygon points="400.0,86.8125149468032 185.35876493144215,400.0 " stroke-opacity="0.25" stroke="green"/><polygon points="400.0,228.58764967214313 171.52486536143,400.0 " stroke-opacity="0.25" stroke="green"/><polygon points="400.0,313.6527305073471 134.2504302024271,400.0 " stroke-opacity="0.25" stroke="green"/><polygon points="0.0,386.9105551103736 400.0,370.3627843974831 " stroke-opacity="0.25" stroke="green"/><polygon points="0.0,346.4033737602765 332.5544260213353,400.0 " stroke-opacity="0.25" stroke="green"/><polygon points="0.0,316.0229877477036 268.2385368870268,400.0 " stroke-opacity="0.25" stroke="green"/><polygon points="0.0,292.39379862681363 249.54225193774894,400.00000000000006 " stroke-opacity="0.25" stroke="green"/><polygon points="0.0,273.4904473301017 240.63546888058363,400.00000000000006 " stroke-opacity="0.25" stroke="green"/><polygon points="0.0,258.0240689964282 235.42470705697508,400.0 " stroke-opacity="0.25" stroke="green"/><polygon points="0.0,245.13542038503363 232.00468961461155,400.0 " stroke-opacity="0.25" stroke="green"/><polygon points="0.0,234.22964079077673 229.58765982440224,400.0 " stroke-opacity="0.25" stroke="green"/><polygon points="0.0,224.88182970998508 227.78882309001264,400.0 " stroke-opacity="0.25" stroke="green"/><polygon points="0.0,216.78039343996568 226.3979015612986,400.0 " stroke-opacity="0.25" stroke="green"/><polygon points="278.5584840744044,5.684341886080802e-14 171.87872871343325,399.99999999999994 " stroke-opacity="0.25" stroke="green"/><polygon points="363.848619932936,0.0 161.35351115368678,400.0 " stroke-opacity="0.25" stroke="green"/><polygon points="400.0,115.08667438627802 144.13814689619426,400.0 " stroke-opacity="0.25" stroke="green"/><polygon points="399.99999999999994,225.29477413500922 110.8822535134869,400.0 " stroke-opacity="0.25" stroke="green"/><polygon points="400.0,298.0755086534724 19.61261975914445,400.0 " stroke-opacity="0.25" stroke="green"/><polygon points="0.0,361.4335347186259 400.0,349.72722150776417 " stroke-opacity="0.25" stroke="green"/><polygon points="-5.684341886080802e-14,328.72119913562574 400.00000000000006,388.2846042020127 " stroke-opacity="0.25" stroke="green"/><polygon points="0.0,303.36890446120435 336.69973149616044,400.0 " stroke-opacity="0.25" stroke="green"/><polygon points="0.0,283.1438932673824 294.2334073334114,400.0 " stroke-opacity="0.25" stroke="green"/><polygon points="-5.684341886080802e-14,266.63358339141905 273.80737929385043,400.0 " stroke-opacity="0.25" stroke="green"/><polygon points="0.0,252.9006426331008 261.798352561165,400.0 " stroke-opacity="0.25" stroke="green"/><polygon points="0.0,241.298628597821 253.89250941128734,400.0 " stroke-opacity="0.25" stroke="green"/><polygon points="0.0,231.36727050277898 248.29375721656615,400.00000000000006 " stroke-opacity="0.25" stroke="green"/><polygon points="0.0,222.7699500492932 244.1207999711262,399.99999999999994 " stroke-opacity="0.25" stroke="green"/><polygon points="5.684341886080802e-14,215.25479049577982 240.8905093304246,400.0 " stroke-opacity="0.25" stroke="green"/><polygon points="305.46255863545707,0.0 145.98632763624792,400.0 " stroke-opacity="0.25" stroke="green"/><polygon points="399.5370766063257,0.0 128.7971687410581,400.0 " stroke-opacity="0.25" stroke="green"/><polygon points="400.0,136.58835385919005 100.31897714872964,400.0 " stroke-opacity="0.25" stroke="green"/><polygon points="400.0,226.26773494120116 43.99312940395558,400.0 " stroke-opacity="0.25" stroke="green"/><polygon points="-5.684341886080802e-14,374.47110042816803 400.00000000000006,289.4484757601591 " stroke-opacity="0.25" stroke="green"/><polygon points="0.0,339.5728268306568 400.0,336.3635520678995 " stroke-opacity="0.25" stroke="green"/><polygon points="0.0,312.63437891407546 400.0,372.57793201672985 " stroke-opacity="0.25" stroke="green"/><polygon points="0.0,291.21124354616137 394.99715060732376,400.0 " stroke-opacity="0.25" stroke="green"/><polygon points="-5.684341886080802e-14,273.7669225899573 334.2549943141752,400.0 " stroke-opacity="0.25" stroke="green"/><polygon points="0.0,259.28715430479895 304.23168913989184,400.0 " stroke-opacity="0.25" stroke="green"/><polygon points="0.0,247.07541312901708 286.32746768625486,400.0 " stroke-opacity="0.25" stroke="green"/><polygon points="0.0,236.63752535553408 274.43670627199657,400.0 " stroke-opacity="0.25" stroke="green"/><polygon points="0.0,227.61316168341514 265.96542668732593,400.0 " stroke-opacity="0.25" stroke="green"/><polygon points="-5.684341886080802e-14,219.7333970566924 259.62402333165755,400.00000000000006 " stroke-opacity="0.25" stroke="green"/><polygon points="0.0,212.79345608394198 254.6989471501189,400.0 " stroke-opacity="0.25" stroke="green"/><polygon points="334.7030586514504,-5.684341886080802e-14 118.51180876305614,400.00000000000006 " stroke-opacity="0.25" stroke="green"/><polygon points="400.0,46.56281467567854 93.49549918783487,400.0 " stroke-opacity="0.25" stroke="green"/><polygon points="399.99999999999994,154.46606663949387 51.09378895295947,400.0 " stroke-opacity="0.25" stroke="green"/><polygon points="0.0,385.7805282128743 400.0,229.81271614375436 " stroke-opacity="0.25" stroke="green"/><polygon points="0.0,348.759556390268 400.0,285.4057802604535 " stroke-opacity="0.25" stroke="green"/><polygon points="5.684341886080802e-14,320.31952085898143 399.99999999999994,328.11316045425394 " stroke-opacity="0.25" stroke="green"/><polygon points="-5.684341886080802e-14,297.7868594885641 400.00000000000006,361.9496489799433 " stroke-opacity="0.25" stroke="green"/><polygon points="0.0,279.49418148047425 400.0,389.41910673061443 " stroke-opacity="0.25" stroke="green"/><polygon points="0.0,264.34764154703436 367.0831780858498,400.0 " stroke-opacity="0.25" stroke="green"/><polygon points="0.0,251.599858925608 330.3154954725652,400.0 " stroke-opacity="0.25" stroke="green"/><polygon points="0.0,240.7228085366821 307.90416740699413,400.0 " stroke-opacity="0.25" stroke="green"/><polygon points="-5.684341886080802e-14,231.3328463280569 292.8142337212519,399.99999999999994 " stroke-opacity="0.25" stroke="green"/><polygon points="0.0,223.14451815279025 281.96176738206873,400.0 " stroke-opacity="0.25" stroke="green"/><polygon points="0.0,215.94103546252722 273.78161556803155,400.00000000000006 " stroke-opacity="0.25" stroke="green"/><polygon points="0.0,209.55479974444566 267.3949343889726,400.0 " stroke-opacity="0.25" stroke="green"/><polygon points="367.42277120052177,-5.684341886080802e-14 88.44745650611188,400.00000000000006 " stroke-opacity="0.25" stroke="green"/><polygon points="400.00000000000006,81.61152309986564 53.59469607521805,400.0 " stroke-opacity="0.25" stroke="green"/><polygon points="-5.684341886080802e-14,395.71441495529825 400.00000000000006,170.2043455850018 " stroke-opacity="0.25" stroke="green"/><polygon points="0.0,356.5243729270019 400.0,235.04544994005232 " stroke-opacity="0.25" stroke="green"/><polygon points="-5.684341886080802e-14,326.59921640730454 400.00000000000006,284.5575223010339 " stroke-opacity="0.25" stroke="green"/><polygon points="0.0,303.00079262212364 400.0,323.6018248859816 " stroke-opacity="0.25" stroke="green"/><polygon points="-5.684341886080802e-14,283.9145352081879 400.00000000000006,355.18061237058794 " stroke-opacity="0.25" stroke="green"/><polygon points="0.0,268.1592393536175 400.0,381.2482236763701 " stroke-opacity="0.25" stroke="green"/><polygon points="-5.684341886080802e-14,254.93290200644296 391.5475720015728,399.99999999999994 " stroke-opacity="0.25" stroke="green"/><polygon points="0.0,243.671858450934 351.11875471530595,400.0 " stroke-opacity="0.25" stroke="green"/><polygon points="0.0,233.968368807008 325.79228300796586,400.00000000000006 " stroke-opacity="0.25" stroke="green"/><polygon points="0.0,225.52018925983276 308.43765805206203,400.0 " stroke-opacity="0.25" stroke="green"/><polygon points="0.0,218.09852568940454 295.8028251904276,400.00000000000006 " stroke-opacity="0.25" stroke="green"/><polygon points="-5.684341886080802e-14,211.52699985623826 286.19285832698637,400.0 " stroke-opacity="0.25" stroke="green"/><polygon points="0.0,205.6674521802928 278.63762502797715,400.00000000000006 " stroke-opacity="0.25" stroke="green"/><polygon points="400.0,5.9379276895739395 54.433105786178714,400.0 " stroke-opacity="0.25" stroke="green"/><polygon points="400.0,109.55999738821572 6.380498354944422,400.0 " stroke-opacity="0.25" stroke="green"/><polygon points="0.0,363.1614265446511 400.0,184.609492873396 " stroke-opacity="0.25" stroke="green"/><polygon points="0.0,331.68279525929336 400.0,241.4723446164979 " stroke-opacity="0.25" stroke="green"/><polygon points="0.0,307.0079610259335 400.0,286.044849312717 " stroke-opacity="0.25" stroke="green"/><polygon points="5.684341886080802e-14,287.14620059974993 399.99999999999994,321.92304008387765 " stroke-opacity="0.25" stroke="green"/><polygon points="-5.684341886080802e-14,270.8143987708712 400.00000000000006,351.42473022010745 " stroke-opacity="0.25" stroke="green"/><polygon points="-5.684341886080802e-14,257.1483054588025 400.00000000000006,376.11109700864773 " stroke-opacity="0.25" stroke="green"/><polygon points="0.0,245.5445122081388 400.0,397.07213464998307 " stroke-opacity="0.25" stroke="green"/><polygon points="0.0,235.56894970628036 366.373234851749,400.0 " stroke-opacity="0.25" stroke="green"/><polygon points="-5.684341886080802e-14,226.90137859754336 339.66276790584527,400.0 " stroke-opacity="0.25" stroke="green"/><polygon points="0.0,219.30037189325938 320.98834136403957,400.0 " stroke-opacity="0.25" stroke="green"/><polygon points="0.0,212.58047511593605 307.1976061504388,400.00000000000006 " stroke-opacity="0.25" stroke="green"/><polygon points="0.0,206.59687409847547 296.5963398599268,400.0 " stroke-opacity="0.25" stroke="green"/><polygon points="-5.684341886080802e-14,201.23484084348064 288.19275814407575,400.00000000000006 " stroke-opacity="0.25" stroke="green"/><polygon points="400.0,46.255188896164924 14.484026007761202,400.00000000000006 " stroke-opacity="0.25" stroke="green"/><polygon points="0.0,369.01464168436587 400.0,133.06345531787895 " stroke-opacity="0.25" stroke="green"/><polygon points="0.0,335.80784718128183 400.0,198.16965513416446 " stroke-opacity="0.25" stroke="green"/><polygon points="-5.684341886080802e-14,309.9803403455498 400.00000000000006,248.80781054683098 " stroke-opacity="0.25" stroke="green"/><polygon points="5.684341886080802e-14,289.3183348769642 399.99999999999994,289.3183348769642 " stroke-opacity="0.25" stroke="green"/><polygon points="0.0,272.41305767539416 400.0,322.46330932889134 " stroke-opacity="0.25" stroke="green"/><polygon points="0.0,258.3253266740858 400.0,350.08412137216396 " stroke-opacity="0.25" stroke="green"/><polygon points="0.0,246.4049389037479 400.0,373.4555777164716 " stroke-opacity="0.25" stroke="green"/><polygon points="-5.684341886080802e-14,236.18746367202976 400.00000000000006,393.488254583021 " stroke-opacity="0.25" stroke="green"/><polygon points="-5.684341886080802e-14,227.33231847120737 376.35124152826086,400.0 " stroke-opacity="0.25" stroke="green"/><polygon points="5.684341886080802e-14,219.58406642048777 349.54626260081636,400.0 " stroke-opacity="0.25" stroke="green"/><polygon points="-5.684341886080802e-14,212.74737343455868 330.39984908121323,400.0 " stroke-opacity="0.25" stroke="green"/><polygon points="0.0,206.67031300262173 316.04003894151083,400.0 " stroke-opacity="0.25" stroke="green"/><polygon points="5.684341886080802e-14,201.2329431424676 304.8712977217423,400.0 " stroke-opacity="0.25" stroke="green"/><polygon points="0.0,196.33931026832894 295.93630474592754,400.0 " stroke-opacity="0.25" stroke="green"/><polygon points="-5.684341886080802e-14,374.4889272520402 400.00000000000006,78.89947872590093 " stroke-opacity="0.25" stroke="green"/><polygon points="0.0,339.24063312993644 400.0,153.65457468727124 " stroke-opacity="0.25" stroke="green"/><polygon points="0.0,312.10288581267656 400.0,211.20870476374 " stroke-opacity="0.25" stroke="green"/><polygon points="-5.684341886080802e-14,290.5651891691199 400.00000000000006,256.886165743797 " stroke-opacity="0.25" stroke="green"/><polygon points="-5.684341886080802e-14,273.0562555866055 400.00000000000006,294.01936729982197 " stroke-opacity="0.25" stroke="green"/><polygon points="0.0,258.5423589742517 400.0,324.800650793185 " stroke-opacity="0.25" stroke="green"/><polygon points="-5.684341886080802e-14,246.31556238353758 400.00000000000006,350.7314192233607 " stroke-opacity="0.25" stroke="green"/><polygon points="-5.684341886080802e-14,235.8747470846784 400.00000000000006,372.87445249689773 " stroke-opacity="0.25" stroke="green"/><polygon points="-5.684341886080802e-14,226.85522776106163 400.00000000000006,392.0031805490048 " stroke-opacity="0.25" stroke="green"/><polygon points="-5.684341886080802e-14,218.9852801289752 381.6689803246038,400.0 " stroke-opacity="0.25" stroke="green"/><polygon points="-5.684341886080802e-14,212.05829489509816 355.7372341381671,400.0 " stroke-opacity="0.25" stroke="green"/><polygon points="0.0,205.91437533746023 336.80733828445784,400.0 " stroke-opacity="0.25" stroke="green"/><polygon points="-5.684341886080802e-14,200.42784194404726 322.3807474822348,400.0 " stroke-opacity="0.25" stroke="green"/><polygon points="0.0,195.49854429810316 311.0213233512828,400.0 " stroke-opacity="0.25" stroke="green"/><polygon points="-5.684341886080802e-14,191.04569223544956 301.84491093425953,400.0 " stroke-opacity="0.25" stroke="green"/><polygon points="0.0,342.2855519672364 400.0,106.5118320913624 " stroke-opacity="0.25" stroke="green"/><polygon points="0.0,313.5739820246569 400.0,172.29285520380867 " stroke-opacity="0.25" stroke="green"/><polygon points="0.0,291.02265713741224 400.0,223.9601526240086 " stroke-opacity="0.25" stroke="green"/><polygon points="0.0,272.84108034577184 400.0,265.6159285200502 " stroke-opacity="0.25" stroke="green"/><polygon points="0.0,257.8713515332398 400.0,299.91304563951036 " stroke-opacity="0.25" stroke="green"/><polygon points="0.0,245.33146435487848 400.0,328.6431572271718 " stroke-opacity="0.25" stroke="green"/><polygon points="5.684341886080802e-14,234.67422157420782 399.99999999999994,353.0599458274563 " stroke-opacity="0.25" stroke="green"/><polygon points="0.0,225.5052576158943 400.0,374.06694165754294 " stroke-opacity="0.25" stroke="green"/><polygon points="0.0,217.53316388370732 400.0,392.33179039623457 " stroke-opacity="0.25" stroke="green"/><polygon points="0.0,210.5379485976879 383.0987951319893,400.00000000000006 " stroke-opacity="0.25" stroke="green"/><polygon points="-5.684341886080802e-14,204.3504217959922 358.686774112665,400.0 " stroke-opacity="0.25" stroke="green"/><polygon points="-5.684341886080802e-14,198.8383313960635 340.48287313195067,400.0 " stroke-opacity="0.25" stroke="green"/><polygon points="0.0,193.8968044775781 326.38609780988634,400.00000000000006 " stroke-opacity="0.25" stroke="green"/><polygon points="-5.684341886080802e-14,189.44161080350992 315.1473914036742,400.00000000000006 " stroke-opacity="0.25" stroke="green"/><polygon points="0.0,185.40432202141093 305.97756242731305,400.0 " stroke-opacity="0.25" stroke="green"/><polygon points="0.0,314.61185565864434 400.0,130.71641598266822 " stroke-opacity="0.25" stroke="green"/><polygon points="-5.684341886080802e-14,290.8273791826715 400.00000000000006,189.62228885112438 " stroke-opacity="0.25" stroke="green"/><polygon points="0.0,271.856643660229 400.0,236.60620022857222 " stroke-opacity="0.25" stroke="green"/><polygon points="-5.684341886080802e-14,256.3725637369721 400.00000000000006,274.9548788032634 " stroke-opacity="0.25" stroke="green"/><polygon points="0.0,243.49481233184946 400.0,306.84858846166395 " stroke-opacity="0.25" stroke="green"/><polygon points="0.0,232.61641533964206 400.0,333.79059287714495 " stroke-opacity="0.25" stroke="green"/><polygon points="5.684341886080802e-14,223.305295084399 399.99999999999994,356.85099811971264 " stroke-opacity="0.25" stroke="green"/><polygon points="0.0,215.24550889904836 400.0,376.81228424937876 " stroke-opacity="0.25" stroke="green"/><polygon points="-5.684341886080802e-14,208.200687083493 400.00000000000006,394.2598567728793 " stroke-opacity="0.25" stroke="green"/><polygon points="0.0,201.99046537912082 381.42948705252184,400.0 " stroke-opacity="0.25" stroke="green"/><polygon points="-5.684341886080802e-14,196.4748251643625 358.9099203541583,400.0 " stroke-opacity="0.25" stroke="green"/><polygon points="0.0,191.54340977971034 341.7731176818255,400.0 " stroke-opacity="0.25" stroke="green"/><polygon points="0.0,187.10806499222738 328.2951763241482,399.99999999999994 " stroke-opacity="0.25" stroke="green"/><polygon points="0.0,183.09752280871533 317.41732520988666,399.99999999999994 " stroke-opacity="0.25" stroke="green"/><polygon points="0.0,179.4535429825471 308.4533609834617,400.00000000000006 " stroke-opacity="0.25" stroke="green"/><polygon points="0.0,290.1188505779397 400.0,152.58219580492562 " stroke-opacity="0.25" stroke="green"/><polygon points="5.684341886080802e-14,270.1806084697308 399.99999999999994,206.1040036446774 " stroke-opacity="0.25" stroke="green"/><polygon points="0.0,254.08890375205524 400.0,249.3002454717774 " stroke-opacity="0.25" stroke="green"/><polygon points="-5.684341886080802e-14,240.82853783938668 400.00000000000006,284.89609953006664 " stroke-opacity="0.25" stroke="green"/><polygon points="0.0,229.71267334191646 400.0,314.73529800992526 " stroke-opacity="0.25" stroke="green"/><polygon points="-5.684341886080802e-14,220.26000739203513 400.00000000000006,340.1098404493822 " stroke-opacity="0.25" stroke="green"/><polygon points="0.0,212.12324083131944 400.0,361.95200958024265 " stroke-opacity="0.25" stroke="green"/><polygon points="0.0,205.0454766621042 400.0,380.9514144296729 " stroke-opacity="0.25" stroke="green"/><polygon points="5.684341886080802e-14,198.83260259233023 399.99999999999994,397.6291260499021 " stroke-opacity="0.25" stroke="green"/><polygon points="0.0,193.33521501772276 377.3820685859679,400.0 " stroke-opacity="0.25" stroke="green"/><polygon points="0.0,188.43644799554602 356.91883492970646,400.0 " stroke-opacity="0.25" stroke="green"/><polygon points="0.0,184.04357289606608 341.0490073265506,400.0 " stroke-opacity="0.25" stroke="green"/><polygon points="5.684341886080802e-14,180.0820727659118 328.38202528443355,400.0 " stroke-opacity="0.25" stroke="green"/><polygon points="5.684341886080802e-14,176.49138066232285 318.03716594758464,399.99999999999994 " stroke-opacity="0.25" stroke="green"/><polygon points="0.0,173.22176119675058 309.4295034116958,400.0 " stroke-opacity="0.25" stroke="green"/><polygon points="5.684341886080802e-14,267.87554902669314 399.99999999999994,172.85754944801454 " stroke-opacity="0.25" stroke="green"/><polygon points="-5.684341886080802e-14,251.038594184234 400.00000000000006,222.0901230009826 " stroke-opacity="0.25" stroke="green"/><polygon points="-5.684341886080802e-14,237.32796502078685 400.00000000000006,262.181075614614 " stroke-opacity="0.25" stroke="green"/><polygon points="0.0,225.94688030754222 400.0,295.46025795490095 " stroke-opacity="0.25" stroke="green"/><polygon points="-5.684341886080802e-14,216.34811675918627 400.00000000000006,323.5277937316353 " stroke-opacity="0.25" stroke="green"/><polygon points="5.684341886080802e-14,208.14339961528137 399.99999999999994,347.5190287291865 " stroke-opacity="0.25" stroke="green"/><polygon points="0.0,201.04959868507453 400.0,368.26185778196736 " stroke-opacity="0.25" stroke="green"/><polygon points="0.0,194.85539373834243 400.0,386.3741977802379 " stroke-opacity="0.25" stroke="green"/><polygon points="5.684341886080802e-14,189.39986564181905 395.6293154238759,400.0 " stroke-opacity="0.25" stroke="green"/><polygon points="0.0,184.55831570956846 371.5707486586249,400.0 " stroke-opacity="0.25" stroke="green"/><polygon points="-5.684341886080802e-14,180.232617764822 353.18220703920804,400.0 " stroke-opacity="0.25" stroke="green"/><polygon points="0.0,176.34449809567084 338.6705570773229,400.00000000000006 " stroke-opacity="0.25" stroke="green"/><polygon points="5.684341886080802e-14,172.83075658388543 326.9266608132088,400.0 " stroke-opacity="0.25" stroke="green"/><polygon points="0.0,169.63980486645386 317.22762991896826,400.00000000000006 " stroke-opacity="0.25" stroke="green"/><polygon points="-5.684341886080802e-14,166.7291166641808 309.0821554524305,400.00000000000006 " stroke-opacity="0.25" stroke="green"/><polygon points="0.0,247.20389172414497 400.0,192.09937122018783 " stroke-opacity="0.25" stroke="green"/><polygon points="5.684341886080802e-14,232.9480757303264 399.99999999999994,237.86804362139486 " stroke-opacity="0.25" stroke="green"/><polygon points="5.684341886080802e-14,221.26315198903876 399.99999999999994,275.382798790792 " stroke-opacity="0.25" stroke="green"/><polygon points="0.0,211.51119094317275 400.0,306.6917263590987 " stroke-opacity="0.25" stroke="green"/><polygon points="-5.684341886080802e-14,203.24919696232905 400.00000000000006,333.21707545549157 " stroke-opacity="0.25" stroke="green"/><polygon points="0.0,196.15993461124245 400.0,355.9773387931907 " stroke-opacity="0.25" stroke="green"/><polygon points="0.0,190.01025907428883 400.0,375.721033938147 " stroke-opacity="0.25" stroke="green"/><polygon points="-5.684341886080802e-14,184.62498510157633 400.00000000000006,393.0105977452767 " stroke-opacity="0.25" stroke="green"/><polygon points="5.684341886080802e-14,179.8699300196575 385.5051185926509,400.00000000000006 " stroke-opacity="0.25" stroke="green"/><polygon points="0.0,175.64058089812536 364.4939715078623,400.0 " stroke-opacity="0.25" stroke="green"/><polygon points="-5.684341886080802e-14,171.85432360175707 348.10565264626564,400.00000000000006 " stroke-opacity="0.25" stroke="green"/><polygon points="0.0,168.44499266359978 334.9657069940318,400.00000000000006 " stroke-opacity="0.25" stroke="green"/><polygon points="0.0,165.35897167953485 324.19541766246414,400.0 " stroke-opacity="0.25" stroke="green"/><polygon points="-5.684341886080802e-14,162.55235289037591 315.20678886696453,400.0 " stroke-opacity="0.25" stroke="green"/><polygon points="0.0,159.98883484893744 307.59150034651486,400.0 " stroke-opacity="0.25" stroke="green"/><polygon points="0.0,227.58193857776183 400.0,210.74955883287464 " stroke-opacity="0.25" stroke="green"/><polygon points="0.0,215.54568036549193 400.0,253.68917629050193 " stroke-opacity="0.25" stroke="green"/><polygon points="0.0,205.63585298649463 400.0,289.04270470612545 " stroke-opacity="0.25" stroke="green"/><polygon points="0.0,197.33468280152448 400.0,318.6573129927698 " stroke-opacity="0.25" stroke="green"/><polygon points="0.0,190.27987650810073 400.0,343.82549052226705 " stroke-opacity="0.25" stroke="green"/><polygon points="5.684341886080802e-14,184.21033566556468 399.99999999999994,365.47871175810417 " stroke-opacity="0.25" stroke="green"/><polygon points="0.0,178.93313098897224 400.0,384.3052561926097 " stroke-opacity="0.25" stroke="green"/><polygon points="0.0,174.3026179850988 398.54369389501255,400.0 " stroke-opacity="0.25" stroke="green"/><polygon points="5.684341886080802e-14,170.2067870974025 374.82088201731307,400.0 " stroke-opacity="0.25" stroke="green"/><polygon points="0.0,166.55808417612414 356.5421817578932,400.00000000000006 " stroke-opacity="0.25" stroke="green"/><polygon points="-5.684341886080802e-14,163.287081642519 342.0264530371392,400.0 " stroke-opacity="0.25" stroke="green"/><polygon points="0.0,160.33801834674657 330.220137511347,400.0 " stroke-opacity="0.25" stroke="green"/><polygon points="0.0,157.66559458869997 320.4294054543153,400.0 " stroke-opacity="0.25" stroke="green"/><polygon points="0.0,155.23262866842597 312.1786977845112,400.0 " stroke-opacity="0.25" stroke="green"/><polygon points="-5.684341886080802e-14,153.00831636636437 305.1311525738877,400.0 " stroke-opacity="0.25" stroke="green"/><polygon points="0.0,208.5830353270798 400.0,229.18406759093773 " stroke-opacity="0.25" stroke="green"/><polygon points="0.0,198.52341107291085 400.0,269.78948823531084 " stroke-opacity="0.25" stroke="green"/><polygon points="0.0,190.21940715674643 400.0,303.30839147949894 " stroke-opacity="0.25" stroke="green"/><polygon points="-5.684341886080802e-14,183.24831894988242 400.00000000000006,331.4470139406145 " stroke-opacity="0.25" stroke="green"/><polygon points="0.0,177.3130606946134 400.0,355.40453481802786 " stroke-opacity="0.25" stroke="green"/><polygon points="0.0,172.19872855211366 400.0,376.0484080596328 " stroke-opacity="0.25" stroke="green"/><polygon points="-5.684341886080802e-14,167.74602155811252 400.00000000000006,394.02164800670425 " stroke-opacity="0.25" stroke="green"/><polygon points="0.0,163.83435122693223 384.04562901299454,400.0 " stroke-opacity="0.25" stroke="green"/><polygon points="0.0,160.37075544571059 363.8726946852735,400.0 " stroke-opacity="0.25" stroke="green"/><polygon points="0.0,157.28241567112693 348.0129911777269,400.0 " stroke-opacity="0.25" stroke="green"/><polygon points="-5.684341886080802e-14,154.51148127056013 335.21678705869493,400.0 " stroke-opacity="0.25" stroke="green"/><polygon points="-5.684341886080802e-14,152.01141165854824 324.67463054793836,400.0 " stroke-opacity="0.25" stroke="green"/><polygon points="0.0,149.74434113943533 315.8391560508831,400.0 " stroke-opacity="0.25" stroke="green"/><polygon points="5.684341886080802e-14,147.67914771299664 308.3269537833502,400.0 " stroke-opacity="0.25" stroke="green"/><polygon points="0.0,145.7900157935945 301.8614581458119,400.0 " stroke-opacity="0.25" stroke="green"/><polygon points="-5.684341886080802e-14,189.83436257653514 400.00000000000006,247.7476114110737 " stroke-opacity="0.25" stroke="green"/><polygon points="0.0,181.60383762672072 400.0,286.4060733099576 " stroke-opacity="0.25" stroke="green"/><polygon points="-5.684341886080802e-14,174.80389872265934 400.00000000000006,318.34512709331597 " stroke-opacity="0.25" stroke="green"/><polygon points="0.0,169.09138387951896 400.0,345.17659152078625 " stroke-opacity="0.25" stroke="green"/><polygon points="0.0,164.22475974444546 400.0,368.034939542217 " stroke-opacity="0.25" stroke="green"/><polygon points="0.0,160.02909296272736 400.0,387.74182645531965 " stroke-opacity="0.25" stroke="green"/><polygon points="5.684341886080802e-14,156.37457532421024 392.10250760642145,400.00000000000006 " stroke-opacity="0.25" stroke="green"/><polygon points="0.0,153.16285486848014 370.02986515106807,400.00000000000006 " stroke-opacity="0.25" stroke="green"/><polygon points="0.0,150.3180517260609 352.8622543524598,400.00000000000006 " stroke-opacity="0.25" stroke="green"/><polygon points="0.0,147.78068671617112 339.12816571357325,400.00000000000006 " stroke-opacity="0.25" stroke="green"/><polygon points="5.684341886080802e-14,145.50347744497384 327.8911840999388,400.00000000000006 " stroke-opacity="0.25" stroke="green"/><polygon points="0.0,143.44836442360344 318.52703275524345,400.00000000000006 " stroke-opacity="0.25" stroke="green"/><polygon points="0.0,141.58436685560088 310.60352007896273,400.00000000000006 " stroke-opacity="0.25" stroke="green"/><polygon points="-5.684341886080802e-14,139.88601004902475 303.8119377850079,400.00000000000006 " stroke-opacity="0.25" stroke="green"/><polygon points="-5.684341886080802e-14,138.33215422920023 297.92589979691365,400.00000000000006 " stroke-opacity="0.25" stroke="green"/><polygon points="0.0,170.9855378976352 400.0,266.78156502038235 " stroke-opacity="0.25" stroke="green"/><polygon points="0.0,164.5203520917377 400.0,303.79254721648397 " stroke-opacity="0.25" stroke="green"/><polygon points="0.0,159.18347996864085 400.0,334.3443186676045 " stroke-opacity="0.25" stroke="green"/><polygon points="-5.684341886080802e-14,154.7032549236548 400.00000000000006,359.9920779668421 " stroke-opacity="0.25" stroke="green"/><polygon points="0.0,150.88874391839545 400.0,381.82885159424575 " stroke-opacity="0.25" stroke="green"/><polygon points="0.0,147.60183113329504 398.97992946844977,400.0 " stroke-opacity="0.25" stroke="green"/><polygon points="-5.684341886080802e-14,144.74013597171813 374.9859395009156,400.0 " stroke-opacity="0.25" stroke="green"/><polygon points="0.0,142.2261578286462 356.5422457382343,400.00000000000006 " stroke-opacity="0.25" stroke="green"/><polygon points="0.0,140.0001511989413 341.9226558083676,400.00000000000006 " stroke-opacity="0.25" stroke="green"/><polygon points="5.684341886080802e-14,138.01531657987962 330.049554794523,400.0 " stroke-opacity="0.25" stroke="green"/><polygon points="-5.684341886080802e-14,136.23447414451792 320.2154507178349,400.0 " stroke-opacity="0.25" stroke="green"/><polygon points="-5.684341886080802e-14,134.6277128817763 311.9366348605151,400.0 " stroke-opacity="0.25" stroke="green"/><polygon points="0.0,133.17069701609296 304.87118597601363,400.00000000000006 " stroke-opacity="0.25" stroke="green"/><polygon points="5.684341886080802e-14,131.84342485465902 298.7705655150988,400.0 " stroke-opacity="0.25" stroke="green"/><polygon points="0.0,130.62930506626577 293.4497753117166,400.0 " stroke-opacity="0.25" stroke="green"/><polygon points="0.0,151.68130583279049 400.0,286.650191577846 " stroke-opacity="0.25" stroke="green"/><polygon points="0.0,146.99931793276392 400.0,322.23553872323 " stroke-opacity="0.25" stroke="green"/><polygon points="-5.684341886080802e-14,143.1444910370997 400.00000000000006,351.53406665552035 " stroke-opacity="0.25" stroke="green"/><polygon points="0.0,139.91541621362413 400.0,376.0765795806701 " stroke-opacity="0.25" stroke="green"/><polygon points="0.0,137.17116487568177 400.0,396.934202154686 " stroke-opacity="0.25" stroke="green"/><polygon points="0.0,134.81017225801747 378.749678187986,400.0 " stroke-opacity="0.25" stroke="green"/><polygon points="0.0,132.75739073688143 359.047927862846,400.0 " stroke-opacity="0.25" stroke="green"/><polygon points="0.0,130.9561660146542 343.5899739340785,400.0 " stroke-opacity="0.25" stroke="green"/><polygon points="0.0,129.36292745840584 331.1379522676492,400.0 " stroke-opacity="0.25" stroke="green"/><polygon points="0.0,127.94361735164841 320.89276451861264,400.0 " stroke-opacity="0.25" stroke="green"/><polygon points="-5.684341886080802e-14,126.67122903850276 312.3154997663813,400.0 " stroke-opacity="0.25" stroke="green"/><polygon points="0.0,125.52407197160437 305.0295089929026,400.0 " stroke-opacity="0.25" stroke="green"/><polygon points="0.0,124.48452500623914 298.76361043755736,399.99999999999994 " stroke-opacity="0.25" stroke="green"/><polygon points="0.0,123.53812482114776 293.3175892702005,400.0 " stroke-opacity="0.25" stroke="green"/><polygon points="-5.684341886080802e-14,122.67288887319206 288.540408495869,400.00000000000006 " stroke-opacity="0.25" stroke="green"/><polygon points="0.0,131.53364235094523 400.0,307.76962059338763 " stroke-opacity="0.25" stroke="green"/><polygon points="5.684341886080802e-14,128.74148356191472 399.99999999999994,342.0746357898065 " stroke-opacity="0.25" stroke="green"/><polygon points="5.684341886080802e-14,126.45286237477717 399.99999999999994,370.1930884050536 " stroke-opacity="0.25" stroke="green"/><polygon points="0.0,124.54283325008136 400.0,393.66008405219014 " stroke-opacity="0.25" stroke="green"/><polygon points="-5.684341886080802e-14,122.92463060783815 381.36152903924363,400.0 " stroke-opacity="0.25" stroke="green"/><polygon points="0.0,121.53612038927805 360.39519222842944,400.0 " stroke-opacity="0.25" stroke="green"/><polygon points="0.0,120.33163861091924 344.1351936257398,399.99999999999994 " stroke-opacity="0.25" stroke="green"/><polygon points="0.0,119.2768733094615 331.1567848203312,400.0 " stroke-opacity="0.25" stroke="green"/><polygon points="0.0,118.3455433284165 320.5575897585817,399.99999999999994 " stroke-opacity="0.25" stroke="green"/><polygon points="0.0,117.5171786576965 311.73830171677946,399.99999999999994 " stroke-opacity="0.25" stroke="green"/><polygon points="-5.684341886080802e-14,116.77559840777117 304.28530401394755,399.99999999999994 " stroke-opacity="0.25" stroke="green"/><polygon points="-5.684341886080802e-14,116.10784334220234 297.9039222363559,400.0 " stroke-opacity="0.25" stroke="green"/><polygon points="0.0,115.5034120969109 292.3785370400153,400.0 " stroke-opacity="0.25" stroke="green"/><polygon points="-5.684341886080802e-14,114.9537048530038 287.54773942591845,400.00000000000006 " stroke-opacity="0.25" stroke="green"/><polygon points="0.0,114.45161157168313 283.2883015000062,400.0 " stroke-opacity="0.25" stroke="green"/><polygon points="5.684341886080802e-14,110.0884658297541 399.99999999999994,330.64463264495356 " stroke-opacity="0.25" stroke="green"/><polygon points="-5.684341886080802e-14,109.39988494445032 400.00000000000006,363.7288322407662 " stroke-opacity="0.25" stroke="green"/><polygon points="0.0,108.83916138987793 400.0,390.6698792455228 " stroke-opacity="0.25" stroke="green"/><polygon points="-5.684341886080802e-14,108.37370920681447 382.88788677138365,400.0 " stroke-opacity="0.25" stroke="green"/><polygon points="-5.684341886080802e-14,107.98114860640938 360.6132492405769,400.0 " stroke-opacity="0.25" stroke="green"/><polygon points="0.0,107.64560031709698 343.57122562869137,400.00000000000006 " stroke-opacity="0.25" stroke="green"/><polygon points="0.0,107.35548516442266 330.11180331154594,400.0 " stroke-opacity="0.25" stroke="green"/><polygon points="0.0,107.10216078564497 319.2127226078128,400.0 " stroke-opacity="0.25" stroke="green"/><polygon points="0.0,106.87904607151445 310.20686715386967,400.0 " stroke-opacity="0.25" stroke="green"/><polygon points="-5.684341886080802e-14,106.6810412202937 302.6403629027943,400.0 " stroke-opacity="0.25" stroke="green"/><polygon points="-5.684341886080802e-14,106.50413316606297 296.19367996875326,400.0 " stroke-opacity="0.25" stroke="green"/><polygon points="0.0,106.34512074909077 290.63535100802187,400.0 " stroke-opacity="0.25" stroke="green"/><polygon points="0.0,106.20141927435543 285.793589162869,400.0 " stroke-opacity="0.25" stroke="green"/><polygon points="0.0,106.07091893274911 281.5382181467316,400.0 " stroke-opacity="0.25" stroke="green"/><polygon points="-5.684341886080802e-14,105.95188052717528 277.76879285745053,400.00000000000006 " stroke-opacity="0.25" stroke="green"/><polygon points="5.684341886080802e-14,86.78053446905727 399.99999999999994,355.92051191380807 " stroke-opacity="0.25" stroke="green"/><polygon points="0.0,88.55057962590178 400.0,387.7340324885064 " stroke-opacity="0.25" stroke="green"/><polygon points="0.0,89.9791430793051 383.41530425706674,400.00000000000006 " stroke-opacity="0.25" stroke="green"/><polygon points="-5.684341886080802e-14,91.15635049479943 359.735485913434,399.99999999999994 " stroke-opacity="0.25" stroke="green"/><polygon points="0.0,92.14317681635296 341.9096406033166,399.99999999999994 " stroke-opacity="0.25" stroke="green"/><polygon points="-5.684341886080802e-14,92.98235037503729 328.005800144687,400.0 " stroke-opacity="0.25" stroke="green"/><polygon points="0.0,93.70470313637927 316.8578776807276,400.0 " stroke-opacity="0.25" stroke="green"/><polygon points="0.0,94.33304148842734 307.7203702997656,400.0 " stroke-opacity="0.25" stroke="green"/><polygon points="5.684341886080802e-14,94.88459801972056 300.0944227105146,400.0 " stroke-opacity="0.25" stroke="green"/><polygon points="0.0,95.37263624289591 293.63361623433104,400.0 " stroke-opacity="0.25" stroke="green"/><polygon points="-5.684341886080802e-14,95.80753109446078 288.08987555678243,400.00000000000006 " stroke-opacity="0.25" stroke="green"/><polygon points="0.0,96.19751468741033 283.2808834868656,400.0 " stroke-opacity="0.25" stroke="green"/><polygon points="0.0,96.5492023678569 279.06964670315506,400.0 " stroke-opacity="0.25" stroke="green"/><polygon points="5.684341886080802e-14,96.86797105033077 275.3512355376299,400.0 " stroke-opacity="0.25" stroke="green"/><polygon points="0.0,97.15823606308118 272.0439217998334,400.0 " stroke-opacity="0.25" stroke="green"/><polygon points="0.0,60.86624058559039 400.0,384.46203105572215 " stroke-opacity="0.25" stroke="green"/><polygon points="-5.684341886080802e-14,65.6505771727171 383.0455061031273,400.0 " stroke-opacity="0.25" stroke="green"/><polygon points="0.0,69.46661172518725 357.78824753767014,400.0 " stroke-opacity="0.25" stroke="green"/><polygon points="-5.684341886080802e-14,72.58129243593021 339.1491494497882,400.0 " stroke-opacity="0.25" stroke="green"/><polygon points="0.0,75.17170039675673 324.82829960324335,400.00000000000006 " stroke-opacity="0.25" stroke="green"/><polygon points="0.0,77.35993072386461 313.48082815626526,400.0 " stroke-opacity="0.25" stroke="green"/><polygon points="5.684341886080802e-14,79.23289746119424 304.26780195033706,400.0 " stroke-opacity="0.25" stroke="green"/><polygon points="0.0,80.8541536603771 296.6387616109946,400.0 " stroke-opacity="0.25" stroke="green"/><polygon points="-5.684341886080802e-14,82.27124597249924 290.21754425579417,400.0 " stroke-opacity="0.25" stroke="green"/><polygon points="0.0,83.5204553441838 284.73835766508694,400.0 " stroke-opacity="0.25" stroke="green"/><polygon points="-5.684341886080802e-14,84.6299470459479 280.00806661077115,400.0 " stroke-opacity="0.25" stroke="green"/><polygon points="0.0,85.62191973346722 275.8829540898602,400.0 " stroke-opacity="0.25" stroke="green"/><polygon points="0.0,86.51410596109818 272.25386559223267,400.0 " stroke-opacity="0.25" stroke="green"/><polygon points="0.0,87.32084155278447 269.03640842685843,400.0 " stroke-opacity="0.25" stroke="green"/><polygon points="0.0,88.05384175241886 266.16430700517367,400.0 " stroke-opacity="0.25" stroke="green"/><polygon points="0.0,31.315807359081447 381.89215296904695,400.00000000000006 " stroke-opacity="0.25" stroke="green"/><polygon points="0.0,39.97336840179727 354.77585980232834,399.99999999999994 " stroke-opacity="0.25" stroke="green"/><polygon points="0.0,46.7733961326353 335.26000550780304,400.0 " stroke-opacity="0.25" stroke="green"/><polygon points="0.0,52.255789162387856 320.54188048856025,400.00000000000006 " stroke-opacity="0.25" stroke="green"/><polygon points="-5.684341886080802e-14,56.76969562053657 309.04595418884765,400.0 " stroke-opacity="0.25" stroke="green"/><polygon points="0.0,60.55091827511637 299.81848584788327,400.0 " stroke-opacity="0.25" stroke="green"/><polygon points="0.0,63.76445658407059 292.24833078095423,400.0 " stroke-opacity="0.25" stroke="green"/><polygon points="0.0,66.52922581564914 285.92578535555197,400.0 " stroke-opacity="0.25" stroke="green"/><polygon points="0.0,68.9330960415787 280.565908620238,400.0 " stroke-opacity="0.25" stroke="green"/><polygon points="0.0,71.04240261961573 275.9643911872494,400.0 " stroke-opacity="0.25" stroke="green"/><polygon points="0.0,72.90816234979603 271.9709185816894,400.0 " stroke-opacity="0.25" stroke="green"/><polygon points="-5.684341886080802e-14,74.57025394582466 268.47243948085463,400.0 " stroke-opacity="0.25" stroke="green"/><polygon points="0.0,76.06030032874867 265.3822925996562,400.00000000000006 " stroke-opacity="0.25" stroke="green"/><polygon points="5.684341886080802e-14,77.40369991530926 262.63293087696326,400.0 " stroke-opacity="0.25" stroke="green"/><polygon points="5.684341886080802e-14,78.62108629118482 260.1709270230591,399.99999999999994 " stroke-opacity="0.25" stroke="green"/><polygon points="2.9306798285659283,0.0 350.6578251601511,400.0 " stroke-opacity="0.25" stroke="green"/><polygon points="0.0,10.504475982293258 330.1605157488235,400.00000000000006 " stroke-opacity="0.25" stroke="green"/><polygon points="0.0,21.187424040451276 315.06228781269056,400.0 " stroke-opacity="0.25" stroke="green"/><polygon points="0.0,29.66587628063195 303.4781819334275,400.00000000000006 " stroke-opacity="0.25" stroke="green"/><polygon points="0.0,36.55838013620354 294.3092207642319,400.0 " stroke-opacity="0.25" stroke="green"/><polygon points="0.0,42.27186850421688 286.87141383914656,400.00000000000006 " stroke-opacity="0.25" stroke="green"/><polygon points="5.684341886080802e-14,47.0850252990401 280.7167741761226,400.0 " stroke-opacity="0.25" stroke="green"/><polygon points="0.0,51.195119118492556 275.5396132066369,400.00000000000006 " stroke-opacity="0.25" stroke="green"/><polygon points="-5.684341886080802e-14,54.74571067339542 271.1241978086788,400.0 " stroke-opacity="0.25" stroke="green"/><polygon points="-5.684341886080802e-14,57.84376596852047 267.31392863220117,400.0 " stroke-opacity="0.25" stroke="green"/><polygon points="0.0,60.570618075588044 263.99237832197707,399.99999999999994 " stroke-opacity="0.25" stroke="green"/><polygon points="0.0,62.989211363395725 261.0711863326043,400.0 " stroke-opacity="0.25" stroke="green"/><polygon points="-5.684341886080802e-14,65.14902037686909 258.48208217947695,399.99999999999994 " stroke-opacity="0.25" stroke="green"/><polygon points="0.0,67.08946996906238 256.17148281891775,400.0 " stroke-opacity="0.25" stroke="green"/><polygon points="0.0,68.84236370559353 254.0967444919026,400.0 " stroke-opacity="0.25" stroke="green"/><polygon points="33.06030479268145,0.0 323.6773159948259,400.0 " stroke-opacity="0.25" stroke="green"/><polygon points="17.609455073934072,0.0 308.22646627607855,400.0 " stroke-opacity="0.25" stroke="green"/><polygon points="6.021317784873503,0.0 296.638328987018,400.0 " stroke-opacity="0.25" stroke="green"/><polygon points="-5.684341886080802e-14,4.117691351955699 287.62533331774875,400.00000000000006 " stroke-opacity="0.25" stroke="green"/><polygon points="0.0,14.041950782729515 280.41493678233326,400.00000000000006 " stroke-opacity="0.25" stroke="green"/><polygon points="0.0,22.16179940790809 274.5155214351752,400.00000000000006 " stroke-opacity="0.25" stroke="green"/><polygon points="-5.684341886080802e-14,28.92833992889021 269.59934197921007,400.0 " stroke-opacity="0.25" stroke="green"/><polygon points="0.0,34.653874215875106 265.4394978241627,400.0 " stroke-opacity="0.25" stroke="green"/><polygon points="0.0,39.56147503329075 261.8739171198364,400.0 " stroke-opacity="0.25" stroke="green"/><polygon points="-5.684341886080802e-14,43.81472907505096 258.783747176087,400.0 " stroke-opacity="0.25" stroke="green"/><polygon points="5.684341886080802e-14,47.536326361591136 256.07984847530616,400.0 " stroke-opacity="0.25" stroke="green"/><polygon points="-5.684341886080802e-14,50.820088673244186 253.69405550402897,400.0 " stroke-opacity="0.25" stroke="green"/><polygon points="0.0,53.73898850582472 251.5733506406715,400.0 " stroke-opacity="0.25" stroke="green"/><polygon points="5.684341886080802e-14,56.35063572444943 249.67587786819374,400.0 " stroke-opacity="0.25" stroke="green"/><polygon points="0.0,58.7011182212116 247.96815237296377,400.0 " stroke-opacity="0.25" stroke="green"/><polygon points="59.40128383463585,0.0 299.7358799699508,400.0 " stroke-opacity="0.25" stroke="green"/><polygon points="41.10818458041774,0.0 288.28175636800756,400.0 " stroke-opacity="0.25" stroke="green"/><polygon points="27.19544297608448,0.0 279.57036964433985,400.0 " stroke-opacity="0.25" stroke="green"/><polygon points="16.25794702734845,5.684341886080802e-14 272.72191664293337,399.99999999999994 " stroke-opacity="0.25" stroke="green"/><polygon points="7.43350089947856,0.0 267.1965381784829,400.0 " stroke-opacity="0.25" stroke="green"/><polygon points="0.1637039196033072,0.0 262.644594737334,400.0 " stroke-opacity="0.25" stroke="green"/><polygon points="0.0,8.957621327178401 258.82966899971404,400.0 " stroke-opacity="0.25" stroke="green"/><polygon points="0.0,16.661914734528153 255.58616792773387,400.0 " stroke-opacity="0.25" stroke="green"/><polygon points="0.0,23.203581456676943 252.79464932377962,400.0 " stroke-opacity="0.25" stroke="green"/><polygon points="0.0,28.827329126378714 250.36679126634857,400.0 " stroke-opacity="0.25" stroke="green"/><polygon points="5.684341886080802e-14,33.71369346078629 248.2358765628615,400.0 " stroke-opacity="0.25" stroke="green"/><polygon points="0.0,37.99877951309071 246.3505674395036,400.0 " stroke-opacity="0.25" stroke="green"/><polygon points="0.0,41.78713769690927 244.67071549624484,400.00000000000006 " stroke-opacity="0.25" stroke="green"/><polygon points="0.0,45.16040735183853 243.16447074409626,400.0 " stroke-opacity="0.25" stroke="green"/><polygon points="0.0,48.183266665989805 241.80624291703583,399.99999999999994 " stroke-opacity="0.25" stroke="green"/><polygon points="82.9600850514316,0.0 277.98282222424746,400.0 " stroke-opacity="0.25" stroke="green"/><polygon points="62.28845475087044,0.0 269.81367767959205,400.0 " stroke-opacity="0.25" stroke="green"/><polygon points="46.39859152450458,0.0 263.5342218455032,400.0 " stroke-opacity="0.25" stroke="green"/><polygon points="33.80332251818558,-5.684341886080802e-14 258.55674442377114,400.00000000000006 " stroke-opacity="0.25" stroke="green"/><polygon points="23.574246194843454,0.0 254.51435387069387,400.0 " stroke-opacity="0.25" stroke="green"/><polygon points="15.1018343914877,5.684341886080802e-14 251.1661730229753,399.99999999999994 " stroke-opacity="0.25" stroke="green"/><polygon points="7.969355759942914,5.684341886080802e-14 248.34751537209937,399.99999999999994 " stroke-opacity="0.25" stroke="green"/><polygon points="1.8822336328789504,0.0 245.94196826265807,400.0 " stroke-opacity="0.25" stroke="green"/><polygon points="0.0,5.458139209015712 243.86491269896362,400.0 " stroke-opacity="0.25" stroke="green"/><polygon points="0.0,12.731750775083782 242.0533630433195,400.0 " stroke-opacity="0.25" stroke="green"/><polygon points="0.0,18.999323949574602 240.45946895938812,400.0 " stroke-opacity="0.25" stroke="green"/><polygon points="0.0,24.456080791305425 239.04622682469892,400.00000000000006 " stroke-opacity="0.25" stroke="green"/><polygon points="0.0,29.249801525910385 237.78457114398066,400.0 " stroke-opacity="0.25" stroke="green"/><polygon points="-5.684341886080802e-14,33.49441047988688 236.65135426041581,400.0 " stroke-opacity="0.25" stroke="green"/><polygon points="-5.684341886080802e-14,37.27914619621697 235.6279131888501,399.99999999999994 " stroke-opacity="0.25" stroke="green"/><polygon points="104.46703352556807,-5.684341886080802e-14 257.79236729616184,400.00000000000006 " stroke-opacity="0.25" stroke="green"/><polygon points="81.67368010322527,0.0 252.42656497762925,400.0 " stroke-opacity="0.25" stroke="green"/><polygon points="64.01520662250911,0.0 248.26956902407662,400.0 " stroke-opacity="0.25" stroke="green"/><polygon points="49.93210004259126,-5.684341886080802e-14 244.95425317131617,400.00000000000006 " stroke-opacity="0.25" stroke="green"/><polygon points="38.43831089462765,5.684341886080802e-14 242.2484906923992,399.99999999999994 " stroke-opacity="0.25" stroke="green"/><polygon points="28.879852923032757,-5.684341886080802e-14 239.9983261380557,400.00000000000006 " stroke-opacity="0.25" stroke="green"/><polygon points="20.80587506247801,0.0 238.09762428338792,400.0 " stroke-opacity="0.25" stroke="green"/><polygon points="13.895474613805703,0.0 236.47084115663972,400.0 " stroke-opacity="0.25" stroke="green"/><polygon points="7.914025495713332,0.0 235.06274323654236,400.0 " stroke-opacity="0.25" stroke="green"/><polygon points="2.6860093887233347,0.0 233.83201160928144,400.0 " stroke-opacity="0.25" stroke="green"/><polygon points="0.0,3.2769384644950037 232.7471198186454,400.0 " stroke-opacity="0.25" stroke="green"/><polygon points="-5.684341886080802e-14,10.118534179195393 231.78359515409397,400.0 " stroke-opacity="0.25" stroke="green"/><polygon points="5.684341886080802e-14,16.084610475328503 230.92215039120308,399.99999999999994 " stroke-opacity="0.25" stroke="green"/><polygon points="0.0,21.333121088007147 230.14737945405847,400.0 " stroke-opacity="0.25" stroke="green"/><polygon points="0.0,25.98617952968644 229.4468279258587,400.0 " stroke-opacity="0.25" stroke="green"/><polygon points="124.47592196085948,-5.684341886080802e-14 238.68038913109672,400.00000000000006 " stroke-opacity="0.25" stroke="green"/><polygon points="99.66989280076805,0.0 235.80180593300324,400.0 " stroke-opacity="0.25" stroke="green"/><polygon points="80.34871683600416,5.684341886080802e-14 233.5597053476723,399.99999999999994 " stroke-opacity="0.25" stroke="green"/><polygon points="64.87435590362145,5.684341886080802e-14 231.76400337966626,399.99999999999994 " stroke-opacity="0.25" stroke="green"/><polygon points="52.20197997153525,0.0 230.29345409494982,400.0 " stroke-opacity="0.25" stroke="green"/><polygon points="41.63372632771919,-5.684341886080802e-14 229.06707492817765,400.00000000000006 " stroke-opacity="0.25" stroke="green"/><polygon points="32.685713857843325,0.0 228.0287145285392,400.0 " stroke-opacity="0.25" stroke="green"/><polygon points="25.011867444959762,0.0 227.1382130618871,400.0 " stroke-opacity="0.25" stroke="green"/><polygon points="18.358120897281395,0.0 226.36608774941126,400.0 " stroke-opacity="0.25" stroke="green"/><polygon points="12.53374530811223,0.0 225.69020570468075,400.0 " stroke-opacity="0.25" stroke="green"/><polygon points="7.392769933686878,0.0 225.09362794372083,400.0 " stroke-opacity="0.25" stroke="green"/><polygon points="2.82158057029676,-5.684341886080802e-14 224.56317025491313,400.00000000000006 " stroke-opacity="0.25" stroke="green"/><polygon points="0.0,2.253436968090625 224.08841745044177,400.0 " stroke-opacity="0.25" stroke="green"/><polygon points="0.0,8.665346256109046 223.66103267422952,400.00000000000006 " stroke-opacity="0.25" stroke="green"/><polygon points="0.0,14.312503765176132 223.274263625832,400.0 " stroke-opacity="0.25" stroke="green"/><polygon points="143.42673028869373,-5.684341886080802e-14 220.25131064918423,400.00000000000006 " stroke-opacity="0.25" stroke="green"/><polygon points="116.60259471563853,-5.684341886080802e-14 219.67069905411924,400.00000000000006 " stroke-opacity="0.25" stroke="green"/><polygon points="95.64391247126709,0.0 219.21704589183096,400.0 " stroke-opacity="0.25" stroke="green"/><polygon points="78.81645117197831,5.684341886080802e-14 218.85281349674537,399.99999999999994 " stroke-opacity="0.25" stroke="green"/><polygon points="65.00832086482569,0.0 218.55393487899207,400.0 " stroke-opacity="0.25" stroke="green"/><polygon points="53.47379188273976,-5.684341886080802e-14 218.3042686315049,400.00000000000006 " stroke-opacity="0.25" stroke="green"/><polygon points="43.69403315893652,0.0 218.0925845943245,400.0 " stroke-opacity="0.25" stroke="green"/><polygon points="35.296916112147926,5.684341886080802e-14 217.91082800018543,399.99999999999994 " stroke-opacity="0.25" stroke="green"/><polygon points="28.008586743513376,5.684341886080802e-14 217.75307124681095,399.99999999999994 " stroke-opacity="0.25" stroke="green"/><polygon points="21.6230334426632,0.0 217.61485518846743,400.0 " stroke-opacity="0.25" stroke="green"/><polygon points="15.98230380910681,-5.684341886080802e-14 217.4927609267176,400.00000000000006 " stroke-opacity="0.25" stroke="green"/><polygon points="10.963262634763339,0.0 217.38412318538215,400.0 " stroke-opacity="0.25" stroke="green"/><polygon points="6.468499583508532,0.0 217.28683350618556,400.0 " stroke-opacity="0.25" stroke="green"/><polygon points="2.419944734016383,-5.684341886080802e-14 217.19920205642387,400.00000000000006 " stroke-opacity="0.25" stroke="green"/><polygon points="0.0,2.2818696600266435 217.11985864665036,400.0 " stroke-opacity="0.25" stroke="green"/><polygon points="161.6876571932904,-5.684341886080802e-14 202.1616480844615,400.00000000000006 " stroke-opacity="0.25" stroke="green"/><polygon points="132.74224616046905,0.0 203.7947978145294,400.0 " stroke-opacity="0.25" stroke="green"/><polygon points="110.10279141848984,5.684341886080802e-14 205.0721546763416,399.99999999999994 " stroke-opacity="0.25" stroke="green"/><polygon points="91.91101818659058,0.0 206.09856571985537,400.0 " stroke-opacity="0.25" stroke="green"/><polygon points="76.97348828091428,0.0 206.9413667740769,400.0 " stroke-opacity="0.25" stroke="green"/><polygon points="64.4886863029713,-5.684341886080802e-14 207.64578071233842,400.00000000000006 " stroke-opacity="0.25" stroke="green"/><polygon points="53.89834259917109,0.0 208.24330606589365,400.0 " stroke-opacity="0.25" stroke="green"/><polygon points="44.801664602655705,0.0 208.75655623869923,400.0 " stroke-opacity="0.25" stroke="green"/><polygon points="36.903468071500185,0.0 209.20218603190736,400.0 " stroke-opacity="0.25" stroke="green"/><polygon points="29.981542321560823,0.0 209.59273295339503,400.0 " stroke-opacity="0.25" stroke="green"/><polygon points="23.865412707817313,0.0 209.93781547498781,400.0 " stroke-opacity="0.25" stroke="green"/><polygon points="18.42211205674343,0.0 210.24493583264658,400.0 " stroke-opacity="0.25" stroke="green"/><polygon points="13.546403083710857,0.0 210.5200316944455,400.0 " stroke-opacity="0.25" stroke="green"/><polygon points="9.153907872211875,0.0 210.76786380713688,400.0 " stroke-opacity="0.25" stroke="green"/><polygon points="5.176183645015328,0.0 210.99229382958723,400.0 " stroke-opacity="0.25" stroke="green"/><polygon points="179.5855737518769,0.0 184.09246718600107,400.0 " stroke-opacity="0.25" stroke="green"/><polygon points="148.32285505543098,-5.684341886080802e-14 187.95043871432676,400.00000000000006 " stroke-opacity="0.25" stroke="green"/><polygon points="123.89614480900077,0.0 190.96481355409728,400.0 " stroke-opacity="0.25" stroke="green"/><polygon points="104.28424762251947,0.0 193.3850170462042,400.0 " stroke-opacity="0.25" stroke="green"/><polygon points="88.19128938568429,0.0 195.37096635813347,400.0 " stroke-opacity="0.25" stroke="green"/><polygon points="74.74814472661923,-5.684341886080802e-14 197.02991578762544,400.00000000000006 " stroke-opacity="0.25" stroke="green"/><polygon points="63.35013172938059,0.0 198.43648602388043,400.0 " stroke-opacity="0.25" stroke="green"/><polygon points="53.56354578777885,5.684341886080802e-14 199.64419832455454,399.99999999999994 " stroke-opacity="0.25" stroke="green"/><polygon points="45.06921834903949,5.684341886080802e-14 200.69243964128486,399.99999999999994 " stroke-opacity="0.25" stroke="green"/><polygon points="37.627049112235824,0.0 201.6108395188948,400.0 " stroke-opacity="0.25" stroke="green"/><polygon points="31.0529493319724,-5.684341886080802e-14 202.42211540385205,400.00000000000006 " stroke-opacity="0.25" stroke="green"/><polygon points="25.20340864753757,0.0 203.14397717260786,400.0 " stroke-opacity="0.25" stroke="green"/><polygon points="19.96489825841965,0.0 203.7904348312744,400.0 " stroke-opacity="0.25" stroke="green"/><polygon points="15.24643003259024,-5.684341886080802e-14 204.37271675785007,400.00000000000006 " stroke-opacity="0.25" stroke="green"/><polygon points="10.9742268570958,0.0 204.8999274068764,400.0 " stroke-opacity="0.25" stroke="green"/><polygon points="197.43052821643008,-5.684341886080802e-14 165.7257828755261,400.00000000000006 " stroke-opacity="0.25" stroke="green"/><polygon points="163.5565033810508,0.0 171.91519535272047,400.0 " stroke-opacity="0.25" stroke="green"/><polygon points="137.1723533723868,5.684341886080802e-14 176.73606881128964,399.99999999999994 " stroke-opacity="0.25" stroke="green"/><polygon points="116.04124515864385,0.0 180.59711412464384,400.0 " stroke-opacity="0.25" stroke="green"/><polygon points="98.73640469923805,0.0 183.75902936724702,400.0 " stroke-opacity="0.25" stroke="green"/><polygon points="84.30486129957315,-5.684341886080802e-14 186.39593995632367,400.00000000000006 " stroke-opacity="0.25" stroke="green"/><polygon points="72.08584814451721,0.0 188.6285802418653,400.0 " stroke-opacity="0.25" stroke="green"/><polygon points="61.60678024149681,-5.684341886080802e-14 190.5433002653501,400.00000000000006 " stroke-opacity="0.25" stroke="green"/><polygon points="52.5207159484261,0.0 192.20349269826656,400.0 " stroke-opacity="0.25" stroke="green"/><polygon points="44.56720424025218,0.0 193.65674677254086,400.0 " stroke-opacity="0.25" stroke="green"/><polygon points="37.54691387505619,0.0 194.9394840023515,400.0 " stroke-opacity="0.25" stroke="green"/><polygon points="31.304698282090015,5.684341886080802e-14 196.08005254311993,399.99999999999994 " stroke-opacity="0.25" stroke="green"/><polygon points="25.717995663947647,0.0 197.1008467079453,400.0 " stroke-opacity="0.25" stroke="green"/><polygon points="20.68870120642933,-5.684341886080802e-14 198.01979206557922,400.00000000000006 " stroke-opacity="0.25" stroke="green"/><polygon points="16.137356517260457,0.0 198.85140713771946,400.0 " stroke-opacity="0.25" stroke="green"/><polygon points="215.53833375393594,-5.684341886080802e-14 146.72106706779397,400.00000000000006 " stroke-opacity="0.25" stroke="green"/><polygon points="178.64579531827286,0.0 155.45444976258167,400.0 " stroke-opacity="0.25" stroke="green"/><polygon points="150.06439706890995,-5.684341886080802e-14 162.2203785776758,400.00000000000006 " stroke-opacity="0.25" stroke="green"/><polygon points="127.26996479884883,-5.684341886080802e-14 167.61638841505862,400.00000000000006 " stroke-opacity="0.25" stroke="green"/><polygon points="108.66651272860614,5.684341886080802e-14 172.0202888584207,399.99999999999994 " stroke-opacity="0.25" stroke="green"/><polygon points="93.19552118257641,-5.684341886080802e-14 175.6826578785121,400.00000000000006 " stroke-opacity="0.25" stroke="green"/><polygon points="80.12725812229209,-5.684341886080802e-14 178.7762412235739,400.00000000000006 " stroke-opacity="0.25" stroke="green"/><polygon points="68.94232146840918,-5.684341886080802e-14 181.42399430203625,400.00000000000006 " stroke-opacity="0.25" stroke="green"/><polygon points="59.26095350989388,0.0 183.71581522236187,400.0 " stroke-opacity="0.25" stroke="green"/><polygon points="50.7990663274517,0.0 185.71895467055305,400.0 " stroke-opacity="0.25" stroke="green"/><polygon points="43.33989997942237,0.0 187.48472512343272,400.0 " stroke-opacity="0.25" stroke="green"/><polygon points="36.71519250596589,0.0 189.05295837763427,400.0 " stroke-opacity="0.25" stroke="green"/><polygon points="30.792334722818396,5.684341886080802e-14 190.45504632984267,399.99999999999994 " stroke-opacity="0.25" stroke="green"/><polygon points="25.465402256685508,0.0 191.71606391737348,400.0 " stroke-opacity="0.25" stroke="green"/><polygon points="20.64876484702782,0.0 192.85628195560713,400.0 " stroke-opacity="0.25" stroke="green"/><polygon points="234.2548544132464,5.684341886080802e-14 126.68805286243273,399.99999999999994 " stroke-opacity="0.25" stroke="green"/><polygon points="193.79583916629383,0.0 138.3062932641687,400.0 " stroke-opacity="0.25" stroke="green"/><polygon points="162.69581419486843,-5.684341886080802e-14 147.2369991751394,400.00000000000006 " stroke-opacity="0.25" stroke="green"/><polygon points="138.0440487870722,0.0 154.31601815488455,400.0 " stroke-opacity="0.25" stroke="green"/><polygon points="118.02345297963332,0.0 160.06514708590402,400.0 " stroke-opacity="0.25" stroke="green"/><polygon points="101.44104349637517,5.684341886080802e-14 164.8269639180878,399.99999999999994 " stroke-opacity="0.25" stroke="green"/><polygon points="87.48118365433841,-5.684341886080802e-14 168.83568747770386,400.00000000000006 " stroke-opacity="0.25" stroke="green"/><polygon points="75.56732086905753,0.0 172.2568810264795,400.0 " stroke-opacity="0.25" stroke="green"/><polygon points="65.28036581998074,0.0 175.2108905601403,400.0 " stroke-opacity="0.25" stroke="green"/><polygon points="56.308371905848134,0.0 177.7872948927978,400.0 " stroke-opacity="0.25" stroke="green"/><polygon points="48.41435256376212,-5.684341886080802e-14 180.05414725913704,400.00000000000006 " stroke-opacity="0.25" stroke="green"/><polygon points="41.415041343049865,0.0 182.06407458713667,400.0 " stroke-opacity="0.25" stroke="green"/><polygon points="35.16648665735994,0.0 183.85841411959,400.0 " stroke-opacity="0.25" stroke="green"/><polygon points="29.55404597649931,0.0 185.47008668929334,400.0 " stroke-opacity="0.25" stroke="green"/><polygon points="24.485287835118896,0.0 186.92563498342167,400.0 " stroke-opacity="0.25" stroke="green"/><polygon points="253.98621809850874,0.0 105.15094570607793,400.0 " stroke-opacity="0.25" stroke="green"/><polygon points="209.2273727984527,5.684341886080802e-14 120.16256814997266,399.99999999999994 " stroke-opacity="0.25" stroke="green"/><polygon points="175.18621659445859,0.0 131.57959602596577,400.0 " stroke-opacity="0.25" stroke="green"/><polygon points="148.4247759912987,0.0 140.55508767898317,400.0 " stroke-opacity="0.25" stroke="green"/><polygon points="126.83346368237245,0.0 147.796575395589,400.0 " stroke-opacity="0.25" stroke="green"/><polygon points="109.04600657282771,0.0 153.7622920841096,400.0 " stroke-opacity="0.25" stroke="green"/><polygon points="94.13856564977333,0.0 158.76208314755954,400.0 " stroke-opacity="0.25" stroke="green"/><polygon points="81.46405926617741,0.0 163.0129726246622,400.0 " stroke-opacity="0.25" stroke="green"/><polygon points="70.55574766690154,0.0 166.67149987510675,400.0 " stroke-opacity="0.25" stroke="green"/><polygon points="61.068498621971116,0.0 169.85341843754824,400.0 " stroke-opacity="0.25" stroke="green"/><polygon points="52.74160388296113,-5.684341886080802e-14 172.64616697952002,400.00000000000006 " stroke-opacity="0.25" stroke="green"/><polygon points="45.374452774093726,-5.684341886080802e-14 175.117028106344,400.00000000000006 " stroke-opacity="0.25" stroke="green"/><polygon points="38.81015891205067,0.0 177.31861977849653,400.0 " stroke-opacity="0.25" stroke="green"/><polygon points="32.924263300272884,0.0 179.29268416902883,400.0 " stroke-opacity="0.25" stroke="green"/><polygon points="27.616767824729322,0.0 181.07275954111265,400.0 " stroke-opacity="0.25" stroke="green"/><polygon points="275.2411474611351,5.684341886080802e-14 81.49647332637228,399.99999999999994 " stroke-opacity="0.25" stroke="green"/><polygon points="225.1930345040372,0.0 100.64288684597541,400.0 " stroke-opacity="0.25" stroke="green"/><polygon points="187.6569497862138,0.0 115.00269698567777,400.0 " stroke-opacity="0.25" stroke="green"/><polygon points="158.46221722790668,0.0 126.17143820544628,400.0 " stroke-opacity="0.25" stroke="green"/><polygon points="135.10643118126103,-5.684341886080802e-14 135.10643118126103,400.00000000000006 " stroke-opacity="0.25" stroke="green"/><polygon points="115.99715168855091,-5.684341886080802e-14 142.416879979655,400.00000000000006 " stroke-opacity="0.25" stroke="green"/><polygon points="100.0727521112925,0.0 148.50892064498328,400.0 " stroke-opacity="0.25" stroke="green"/><polygon points="86.59826016130461,0.0 153.66372428487642,400.0 " stroke-opacity="0.25" stroke="green"/><polygon points="75.04869563274352,-5.684341886080802e-14 158.08212740478484,400.00000000000006 " stroke-opacity="0.25" stroke="green"/><polygon points="65.03907304132397,-5.684341886080802e-14 161.91141010870547,400.00000000000006 " stroke-opacity="0.25" stroke="green"/><polygon points="56.28065327383186,0.0 165.26203247463604,400.0 " stroke-opacity="0.25" stroke="green"/><polygon points="48.552635831927006,0.0 168.2184639739865,400.0 " stroke-opacity="0.25" stroke="green"/><polygon points="41.6832869946783,0.0 170.8464030845203,400.0 " stroke-opacity="0.25" stroke="green"/><polygon points="35.53702750871892,0.0 173.19771702552418,400.0 " stroke-opacity="0.25" stroke="green"/><polygon points="30.00539397135543,0.0 175.3138995724277,400.0 " stroke-opacity="0.25" stroke="green"/><polygon points="298.6959350563837,0.0 54.892569932333345,400.0 " stroke-opacity="0.25" stroke="green"/><polygon points="241.99974962571403,0.0 79.25652205835001,400.0 " stroke-opacity="0.25" stroke="green"/><polygon points="200.237588867754,5.684341886080802e-14 97.2029020071417,399.99999999999994 " stroke-opacity="0.25" stroke="green"/><polygon points="168.19559731659695,0.0 110.97225072513001,400.0 " stroke-opacity="0.25" stroke="green"/><polygon points="142.83396998183858,5.684341886080802e-14 121.8708582686222,399.99999999999994 " stroke-opacity="0.25" stroke="green"/><polygon points="122.26076829181032,0.0 130.7117440750875,400.0 " stroke-opacity="0.25" stroke="green"/><polygon points="105.23684653743031,0.0 138.02740405238814,400.0 " stroke-opacity="0.25" stroke="green"/><polygon points="90.91666077840695,5.684341886080802e-14 144.18119231200848,399.99999999999994 " stroke-opacity="0.25" stroke="green"/><polygon points="78.70348659381278,5.684341886080802e-14 149.42953819065707,399.99999999999994 " stroke-opacity="0.25" stroke="green"/><polygon points="68.16416538656404,0.0 153.95858217101656,400.0 " stroke-opacity="0.25" stroke="green"/><polygon points="58.97665552726076,0.0 157.906714636526,400.0 " stroke-opacity="0.25" stroke="green"/><polygon points="50.89654904184394,-5.684341886080802e-14 161.37896459634993,400.00000000000006 " stroke-opacity="0.25" stroke="green"/><polygon points="43.73500767954681,0.0 164.45648118012187,400.0 " stroke-opacity="0.25" stroke="green"/><polygon points="37.343819100920285,5.684341886080802e-14 167.2029554160017,399.99999999999994 " stroke-opacity="0.25" stroke="green"/><polygon points="31.605029362811308,0.0 169.66907544468583,400.0 " stroke-opacity="0.25" stroke="green"/><polygon points="325.3018342587608,-5.684341886080802e-14 24.152635367644677,400.00000000000006 " stroke-opacity="0.25" stroke="green"/><polygon points="260.04220719938354,0.0 55.34327172753845,400.0 " stroke-opacity="0.25" stroke="green"/><polygon points="213.07423244061255,0.0 77.79146959922687,400.0 " stroke-opacity="0.25" stroke="green"/><polygon points="177.65274824792976,5.684341886080802e-14 94.72105811459583,399.99999999999994 " stroke-opacity="0.25" stroke="green"/><polygon points="149.98599238241482,0.0 107.94429827614431,400.0 " stroke-opacity="0.25" stroke="green"/><polygon points="127.77863760382589,-5.684341886080802e-14 118.55823461972605,400.00000000000006 " stroke-opacity="0.25" stroke="green"/><polygon points="109.55986804664363,0.0 127.26583902674697,400.0 " stroke-opacity="0.25" stroke="green"/><polygon points="94.34366744020734,0.0 134.53837491578486,400.0 " stroke-opacity="0.25" stroke="green"/><polygon points="81.44428054096385,-5.684341886080802e-14 140.70359687872693,400.00000000000006 " stroke-opacity="0.25" stroke="green"/><polygon points="70.3700046531138,-5.684341886080802e-14 145.99651269408687,400.00000000000006 " stroke-opacity="0.25" stroke="green"/><polygon points="60.75908433637409,-5.684341886080802e-14 150.59002225261673,400.00000000000006 " stroke-opacity="0.25" stroke="green"/><polygon points="52.33944379067739,5.684341886080802e-14 154.61416333915562,399.99999999999994 " stroke-opacity="0.25" stroke="green"/><polygon points="44.90251899473148,5.684341886080802e-14 158.16861848084943,399.99999999999994 " stroke-opacity="0.25" stroke="green"/><polygon points="38.28574731538984,5.684341886080802e-14 161.33108398404653,399.99999999999994 " stroke-opacity="0.25" stroke="green"/><polygon points="32.36054757157916,0.0 164.16301482546524,400.0 " stroke-opacity="0.25" stroke="green"/><polygon points="-5.684341886080802e-14,386.4428031843727 356.4751395323444,0.0 " stroke-opacity="0.25" stroke="green"/><polygon points="279.856499393649,0.0 27.976798037366223,400.0 " stroke-opacity="0.25" stroke="green"/><polygon points="226.3411185990478,0.0 56.25249458939865,400.0 " stroke-opacity="0.25" stroke="green"/><polygon points="186.84837518606648,0.0 77.11910923685332,400.0 " stroke-opacity="0.25" stroke="green"/><polygon points="156.50518766815054,0.0 93.15141153833608,400.0 " stroke-opacity="0.25" stroke="green"/><polygon points="132.4620297788214,-5.684341886080802e-14 105.85499369615675,400.00000000000006 " stroke-opacity="0.25" stroke="green"/><polygon points="112.9413599324436,0.0 116.16904787783369,400.0 " stroke-opacity="0.25" stroke="green"/><polygon points="96.7768582388334,0.0 124.7098176157451,400.0 " stroke-opacity="0.25" stroke="green"/><polygon points="83.17150629464332,-5.684341886080802e-14 131.8984201697296,400.00000000000006 " stroke-opacity="0.25" stroke="green"/><polygon points="71.56214037369614,0.0 138.03241198793464,400.0 " stroke-opacity="0.25" stroke="green"/><polygon points="61.539543250379865,-5.684341886080802e-14 143.32800945382718,400.00000000000006 " stroke-opacity="0.25" stroke="green"/><polygon points="52.79920562406909,0.0 147.94610486517118,400.0 " stroke-opacity="0.25" stroke="green"/><polygon points="45.10984961638826,0.0 152.00889754132206,400.0 " stroke-opacity="0.25" stroke="green"/><polygon points="38.29266298668793,0.0 155.61086575341082,400.0 " stroke-opacity="0.25" stroke="green"/><polygon points="32.20722022718027,0.0 158.82620553606188,400.0 " stroke-opacity="0.25" stroke="green"/><polygon points="-5.684341886080802e-14,348.78475393134295 394.4590657647833,-5.684341886080802e-14 " stroke-opacity="0.25" stroke="green"/><polygon points="0.0,394.5144412411628 302.21171170935975,0.0 " stroke-opacity="0.25" stroke="green"/><polygon points="240.25820984769953,0.0 31.87625716761022,400.0 " stroke-opacity="0.25" stroke="green"/><polygon points="195.7805942773904,-5.684341886080802e-14 57.77762656396459,400.00000000000006 " stroke-opacity="0.25" stroke="green"/><polygon points="162.29844997148228,-5.684341886080802e-14 77.27582530347357,400.00000000000006 " stroke-opacity="0.25" stroke="green"/><polygon points="136.1829763687838,0.0 92.48407152060625,400.0 " stroke-opacity="0.25" stroke="green"/><polygon points="115.24392174580257,0.0 104.6778499335462,400.0 " stroke-opacity="0.25" stroke="green"/><polygon points="98.0810138778641,0.0 114.67260371930946,400.0 " stroke-opacity="0.25" stroke="green"/><polygon points="83.75725681554545,5.684341886080802e-14 123.01398888705255,399.99999999999994 " stroke-opacity="0.25" stroke="green"/><polygon points="71.62197509371055,0.0 130.08092380646616,400.0 " stroke-opacity="0.25" stroke="green"/><polygon points="61.20921081066899,0.0 136.14475728031508,400.0 " stroke-opacity="0.25" stroke="green"/><polygon points="52.17651902805068,0.0 141.4049108093453,400.0 " stroke-opacity="0.25" stroke="green"/><polygon points="44.26658627336019,0.0 146.0112299105951,400.0 " stroke-opacity="0.25" stroke="green"/><polygon points="37.28232398078035,-5.684341886080802e-14 150.07848835692914,400.00000000000006 " stroke-opacity="0.25" stroke="green"/><polygon points="31.070222736360677,0.0 153.6960817687189,400.0 " stroke-opacity="0.25" stroke="green"/><polygon points="0.0,316.4690434602214 400.0,30.766368989339867 " stroke-opacity="0.25" stroke="green"/><polygon points="0.0,353.39604682695426 328.27700792272975,-5.684341886080802e-14 " stroke-opacity="0.25" stroke="green"/><polygon points="255.11969449997355,0.0 3.647949577249136,400.0 " stroke-opacity="0.25" stroke="green"/><polygon points="204.4247356194219,-5.684341886080802e-14 36.17494940268645,400.00000000000006 " stroke-opacity="0.25" stroke="green"/><polygon points="167.223656419791,0.0 60.04397944734214,400.0 " stroke-opacity="0.25" stroke="green"/><polygon points="138.76161436721387,0.0 78.30585118605127,400.0 " stroke-opacity="0.25" stroke="green"/><polygon points="116.28290803994315,0.0 92.72868321765377,400.0 " stroke-opacity="0.25" stroke="green"/><polygon points="98.08025204152422,-5.684341886080802e-14 104.40790737637397,400.00000000000006 " stroke-opacity="0.25" stroke="green"/><polygon points="83.03948913172555,5.684341886080802e-14 114.05839143523677,399.99999999999994 " stroke-opacity="0.25" stroke="green"/><polygon points="70.4026000456833,0.0 122.16649721483243,400.0 " stroke-opacity="0.25" stroke="green"/><polygon points="59.63593495079738,0.0 129.07462617666985,400.0 " stroke-opacity="0.25" stroke="green"/><polygon points="50.352918084651265,0.0 135.03081382633584,400.0 " stroke-opacity="0.25" stroke="green"/><polygon points="42.26664661926051,0.0 140.2191433240072,400.0 " stroke-opacity="0.25" stroke="green"/><polygon points="35.15971192835033,-5.684341886080802e-14 144.7791088226539,400.00000000000006 " stroke-opacity="0.25" stroke="green"/><polygon points="28.86435971309217,5.684341886080802e-14 148.81834516742052,399.99999999999994 " stroke-opacity="0.25" stroke="green"/><polygon points="0.0,287.7793947672732 400.0,61.83065092382898 " stroke-opacity="0.25" stroke="green"/><polygon points="0.0,318.0608336779976 359.9504861107892,-5.684341886080802e-14 " stroke-opacity="0.25" stroke="green"/><polygon points="0.0,360.2402796279207 271.34331959684886,0.0 " stroke-opacity="0.25" stroke="green"/><polygon points="212.72252009196495,0.0 11.587639215971649,400.0 " stroke-opacity="0.25" stroke="green"/><polygon points="171.06908419159006,0.0 41.10120569842758,400.0 " stroke-opacity="0.25" stroke="green"/><polygon points="139.9477167690858,0.0 63.15226887232427,400.0 " stroke-opacity="0.25" stroke="green"/><polygon points="115.8121991834528,0.0 80.25350403947296,400.0 " stroke-opacity="0.25" stroke="green"/><polygon points="96.54770712472273,0.0 93.90337120735668,400.0 " stroke-opacity="0.25" stroke="green"/><polygon points="80.81479932704956,5.684341886080802e-14 105.05093227193619,399.99999999999994 " stroke-opacity="0.25" stroke="green"/><polygon points="67.72389527306814,0.0 114.3265000315014,400.0 " stroke-opacity="0.25" stroke="green"/><polygon points="56.66104333084064,-5.684341886080802e-14 122.16509027561521,400.00000000000006 " stroke-opacity="0.25" stroke="green"/><polygon points="47.18884373986259,0.0 128.87662286159593,400.0 " stroke-opacity="0.25" stroke="green"/><polygon points="38.9872420772636,0.0 134.68787253882982,400.0 " stroke-opacity="0.25" stroke="green"/><polygon points="31.816651007939498,0.0 139.76859905438474,400.0 " stroke-opacity="0.25" stroke="green"/><polygon points="25.494157293286747,0.0 144.24840569095164,400.0 " stroke-opacity="0.25" stroke="green"/><polygon points="-5.684341886080802e-14,261.51940422958734 400.00000000000006,89.67689930109424 " stroke-opacity="0.25" stroke="green"/><polygon points="0.0,286.542124587116 400.0,0.40779083297076113 " stroke-opacity="0.25" stroke="green"/><polygon points="-5.684341886080802e-14,320.9707856565503 289.5619927717826,0.0 " stroke-opacity="0.25" stroke="green"/><polygon points="0.0,371.33635268123874 220.56292810107848,-5.684341886080802e-14 " stroke-opacity="0.25" stroke="green"/><polygon points="173.52072893230385,0.0 19.975114918137677,400.0 " stroke-opacity="0.25" stroke="green"/><polygon points="139.39340298865602,-5.684341886080802e-14 46.81755757977862,400.00000000000006 " stroke-opacity="0.25" stroke="green"/><polygon points="113.50445253369783,-5.684341886080802e-14 67.1802039032778,400.00000000000006 " stroke-opacity="0.25" stroke="green"/><polygon points="93.19203374894478,-5.684341886080802e-14 83.15669551147712,400.00000000000006 " stroke-opacity="0.25" stroke="green"/><polygon points="76.82953972348241,5.684341886080802e-14 96.0264207400272,399.99999999999994 " stroke-opacity="0.25" stroke="green"/><polygon points="63.36692073484855,0.0 106.61528371964148,400.0 " stroke-opacity="0.25" stroke="green"/><polygon points="52.09602456852039,5.684341886080802e-14 115.48027315917552,399.99999999999994 " stroke-opacity="0.25" stroke="green"/><polygon points="42.52191815477798,0.0 123.01067278297505,400.0 " stroke-opacity="0.25" stroke="green"/><polygon points="34.288256953207906,0.0 129.48676115460614,400.0 " stroke-opacity="0.25" stroke="green"/><polygon points="27.131950033692874,0.0 135.11546931865558,400.0 " stroke-opacity="0.25" stroke="green"/><polygon points="20.854528264560344,-5.684341886080802e-14 140.0529008120902,400.00000000000006 " stroke-opacity="0.25" stroke="green"/><polygon points="0.0,236.79323363509317 400.0,115.31431064814326 " stroke-opacity="0.25" stroke="green"/><polygon points="0.0,257.44878117171515 400.0,31.93871180141815 " stroke-opacity="0.25" stroke="green"/><polygon points="0.0,285.6705900759107 310.8083827061887,0.0 " stroke-opacity="0.25" stroke="green"/><polygon points="0.0,326.54817819047923 227.74720193393762,0.0 " stroke-opacity="0.25" stroke="green"/><polygon points="5.684341886080802e-14,391.0550545455487 174.10892781857228,-5.684341886080802e-14 " stroke-opacity="0.25" stroke="green"/><polygon points="136.61212260244412,0.0 29.04532105163048,400.0 " stroke-opacity="0.25" stroke="green"/><polygon points="108.92350470437206,0.0 53.43395880224688,400.0 " stroke-opacity="0.25" stroke="green"/><polygon points="87.63982533654166,-5.684341886080802e-14 72.18101031681256,400.00000000000006 " stroke-opacity="0.25" stroke="green"/><polygon points="70.76909062579526,0.0 87.04105999360753,400.0 " stroke-opacity="0.25" stroke="green"/><polygon points="57.06775301240205,-5.684341886080802e-14 99.10944711867269,400.00000000000006 " stroke-opacity="0.25" stroke="green"/><polygon points="45.71937991906819,0.0 109.10530034078073,400.0 " stroke-opacity="0.25" stroke="green"/><polygon points="36.165780487210725,0.0 117.52028431057612,400.0 " stroke-opacity="0.25" stroke="green"/><polygon points="28.012383961412894,-5.684341886080802e-14 124.70194411883482,400.00000000000006 " stroke-opacity="0.25" stroke="green"/><polygon points="20.972381481125524,-5.684341886080802e-14 130.90290622128506,400.00000000000006 " stroke-opacity="0.25" stroke="green"/><polygon points="14.832288605509689,-5.684341886080802e-14 136.3112115924593,400.00000000000006 " stroke-opacity="0.25" stroke="green"/><polygon points="0.0,212.87412379565234 400.0,139.53073136034146 " stroke-opacity="0.25" stroke="green"/><polygon points="-5.684341886080802e-14,229.70555422349332 400.00000000000006,60.474144342392066 " stroke-opacity="0.25" stroke="green"/><polygon points="5.684341886080802e-14,252.65027102903466 336.92701592804633,0.0 " stroke-opacity="0.25" stroke="green"/><polygon points="0.0,285.7779127868008 233.92135113639728,0.0 " stroke-opacity="0.25" stroke="green"/><polygon points="-5.684341886080802e-14,337.8005012942732 172.11795226140782,-5.684341886080802e-14 " stroke-opacity="0.25" stroke="green"/><polygon points="130.91568634474817,-5.684341886080802e-14 9.510038380296038,400.00000000000006 " stroke-opacity="0.25" stroke="green"/><polygon points="101.48549640427696,-5.684341886080802e-14 38.94022832076723,400.00000000000006 " stroke-opacity="0.25" stroke="green"/><polygon points="79.41285394892358,-5.684341886080802e-14 61.01287077612062,400.00000000000006 " stroke-opacity="0.25" stroke="green"/><polygon points="62.24524315031539,-5.684341886080802e-14 78.18048157472879,400.00000000000006 " stroke-opacity="0.25" stroke="green"/><polygon points="48.511154511428856,-5.684341886080802e-14 91.91457021361533,400.00000000000006 " stroke-opacity="0.25" stroke="green"/><polygon points="37.274172897794415,-5.684341886080802e-14 103.15155182724979,400.00000000000006 " stroke-opacity="0.25" stroke="green"/><polygon points="27.910021553099,-5.684341886080802e-14 112.51570317194518,400.00000000000006 " stroke-opacity="0.25" stroke="green"/><polygon points="19.986508876818306,-5.684341886080802e-14 120.43921584822586,400.00000000000006 " stroke-opacity="0.25" stroke="green"/><polygon points="13.194926582863388,-5.684341886080802e-14 127.23079814218075,400.00000000000006 " stroke-opacity="0.25" stroke="green"/><polygon points="7.308888594769172,-5.684341886080802e-14 133.11683613027498,400.00000000000006 " stroke-opacity="0.25" stroke="green"/><polygon points="0.0,189.11585460473654 400.0,162.9916896784999 " stroke-opacity="0.25" stroke="green"/><polygon points="0.0,202.39089842075842 400.0,86.9965945523749 " stroke-opacity="0.25" stroke="green"/><polygon points="0.0,220.52867710255566 371.62846908500165,0.0 " stroke-opacity="0.25" stroke="green"/><polygon points="0.0,246.8001556170845 238.43617130444997,-5.684341886080802e-14 " stroke-opacity="0.25" stroke="green"/><polygon points="0.0,288.2578612784807 166.4257538051565,0.0 " stroke-opacity="0.25" stroke="green"/><polygon points="-5.684341886080802e-14,363.42227184404953 121.31511431956558,0.0 " stroke-opacity="0.25" stroke="green"/><polygon points="90.4036538192655,0.0 23.6306465536575,400.0 " stroke-opacity="0.25" stroke="green"/><polygon points="67.89892450804845,0.0 49.72410325973752,400.0 " stroke-opacity="0.25" stroke="green"/><polygon points="50.78198237514445,0.0 69.57060673502207,400.0 " stroke-opacity="0.25" stroke="green"/><polygon points="37.324860928482025,0.0 85.1736744725188,400.0 " stroke-opacity="0.25" stroke="green"/><polygon points="26.467150202417088,0.0 97.76281521888191,400.0 " stroke-opacity="0.25" stroke="green"/><polygon points="17.52202204113277,-5.684341886080802e-14 108.13438250942787,400.00000000000006 " stroke-opacity="0.25" stroke="green"/><polygon points="10.025031111309602,-5.684341886080802e-14 116.82688467410456,400.00000000000006 " stroke-opacity="0.25" stroke="green"/><polygon points="3.6508502700358747,0.0 124.21752730385607,400.0 " stroke-opacity="0.25" stroke="green"/><polygon points="0.0,5.543809324455339 130.57840071747296,400.0 " stroke-opacity="0.25" stroke="green"/><polygon points="0.0,164.88265136203782 400.0,186.31365216864376 " stroke-opacity="0.25" stroke="green"/><polygon points="-5.684341886080802e-14,174.61624729139965 400.00000000000006,112.33366812868717 " stroke-opacity="0.25" stroke="green"/><polygon points="0.0,188.0086630819552 400.0,10.54490335645545 " stroke-opacity="0.25" stroke="green"/><polygon points="0.0,207.6003809754099 240.0268689767826,0.0 " stroke-opacity="0.25" stroke="green"/><polygon points="0.0,238.9921332633988 155.20330605572235,0.0 " stroke-opacity="0.25" stroke="green"/><polygon points="0.0,297.4385053478982 106.35977781393409,-5.684341886080802e-14 " stroke-opacity="0.25" stroke="green"/><polygon points="74.6092428862728,0.0 7.453964046562561,400.0 " stroke-opacity="0.25" stroke="green"/><polygon points="52.31525867792183,0.0 38.43926811560422,400.0 " stroke-opacity="0.25" stroke="green"/><polygon points="35.800634891176344,0.0 61.3921254799894,400.0 " stroke-opacity="0.25" stroke="green"/><polygon points="23.07592672204177,0.0 79.07756690336505,400.0 " stroke-opacity="0.25" stroke="green"/><polygon points="12.970809333362382,0.0 93.12216889174827,400.0 " stroke-opacity="0.25" stroke="green"/><polygon points="4.751848603864914,5.684341886080802e-14 104.54529519142503,399.99999999999994 " stroke-opacity="0.25" stroke="green"/><polygon points="0.0,7.112078555897426 114.01825638828946,400.00000000000006 " stroke-opacity="0.25" stroke="green"/><polygon points="0.0,24.059036694205332 122.00117667938179,400.0 " stroke-opacity="0.25" stroke="green"/><polygon points="-5.684341886080802e-14,35.93158393294348 128.81998470359247,399.99999999999994 " stroke-opacity="0.25" stroke="green"/><polygon points="0.0,139.4808021270204 400.0,210.12924356408175 " stroke-opacity="0.25" stroke="green"/><polygon points="0.0,145.4117559100751 400.0,137.2603721888995 " stroke-opacity="0.25" stroke="green"/><polygon points="0.0,153.6730655942476 400.0,35.76028724700234 " stroke-opacity="0.25" stroke="green"/><polygon points="0.0,165.97396766591848 235.97216190749978,-5.684341886080802e-14 " stroke-opacity="0.25" stroke="green"/><polygon points="-5.684341886080802e-14,186.23618079528836 135.3085056010722,5.684341886080802e-14 " stroke-opacity="0.25" stroke="green"/><polygon points="0.0,225.88649505965236 83.86708587200735,5.684341886080802e-14 " stroke-opacity="0.25" stroke="green"/><polygon points="0.0,338.27833827865413 52.63772990408776,0.0 " stroke-opacity="0.25" stroke="green"/><polygon points="31.664033878784835,0.0 27.36121149537462,400.0 " stroke-opacity="0.25" stroke="green"/><polygon points="16.606612411552987,0.0 53.89938448149567,400.0 " stroke-opacity="0.25" stroke="green"/><polygon points="5.271590244193845,0.0 73.87696030571784,400.0 " stroke-opacity="0.25" stroke="green"/><polygon points="5.684341886080802e-14,15.348066643938807 89.45911207343842,400.0 " stroke-opacity="0.25" stroke="green"/><polygon points="0.0,37.858563967230964 101.952683201866,400.0 " stroke-opacity="0.25" stroke="green"/><polygon points="0.0,51.19949857026779 112.19316511853282,400.0 " stroke-opacity="0.25" stroke="green"/><polygon points="5.684341886080802e-14,60.02560466688189 120.73962917369536,399.99999999999994 " stroke-opacity="0.25" stroke="green"/><polygon points="0.0,66.29705861582698 127.98030971468077,400.0 " stroke-opacity="0.25" stroke="green"/><polygon points="0.0,112.07579380741579 400.0,235.15961864214557 " stroke-opacity="0.25" stroke="green"/><polygon points="-5.684341886080802e-14,113.58599733933708 400.00000000000006,162.5989708711264 " stroke-opacity="0.25" stroke="green"/><polygon points="0.0,115.72926632218359 400.0,59.621469855072604 " stroke-opacity="0.25" stroke="green"/><polygon points="0.0,119.00922185021334 219.39250774227628,0.0 " stroke-opacity="0.25" stroke="green"/><polygon points="5.684341886080802e-14,124.6564517793369 100.94480428565025,0.0 " stroke-opacity="0.25" stroke="green"/><polygon points="0.0,136.68083477392906 50.44885800090685,-5.684341886080802e-14 " stroke-opacity="0.25" stroke="green"/><polygon points="0.0,179.8935629768953 22.464443292340775,0.0 " stroke-opacity="0.25" stroke="green"/><polygon points="4.681722013905301,-5.684341886080802e-14 16.80799556195106,400.00000000000006 " stroke-opacity="0.25" stroke="green"/><polygon points="0.0,55.33966090436306 47.44418851433602,400.0 " stroke-opacity="0.25" stroke="green"/><polygon points="0.0,76.88402497675277 69.89570217886657,400.0 " stroke-opacity="0.25" stroke="green"/><polygon points="-5.684341886080802e-14,85.08375603459011 87.05593443490545,400.0 " stroke-opacity="0.25" stroke="green"/><polygon points="-5.684341886080802e-14,89.40555391471281 100.59824186299083,400.0 " stroke-opacity="0.25" stroke="green"/><polygon points="-5.684341886080802e-14,92.07431469177436 111.55767473450396,400.00000000000006 " stroke-opacity="0.25" stroke="green"/><polygon points="0.0,93.88618163912619 120.6088342145967,400.0 " stroke-opacity="0.25" stroke="green"/><polygon points="-5.684341886080802e-14,95.19676557226717 128.21021101621469,400.0 " stroke-opacity="0.25" stroke="green"/><polygon points="0.0,81.57238735463122 400.0,262.31301566425935 " stroke-opacity="0.25" stroke="green"/><polygon points="0.0,77.5126708005106 400.0,189.34658561441555 " stroke-opacity="0.25" stroke="green"/><polygon points="0.0,71.59362104106279 400.0,82.96183572444531 " stroke-opacity="0.25" stroke="green"/><polygon points="0.0,62.15849775805921 167.1188004513532,0.0 " stroke-opacity="0.25" stroke="green"/><polygon points="-5.684341886080802e-14,44.75065552766674 40.29367122209061,0.0 " stroke-opacity="0.25" stroke="green"/><polygon points="0.0,1.8713782267562635 0.638669991769234,0.0 " stroke-opacity="0.25" stroke="green"/><polygon points="0.0,322.456527713999 7.26515688545652,400.0 " stroke-opacity="0.25" stroke="green"/><polygon points="0.0,188.30074074412488 42.50410776829551,399.99999999999994 " stroke-opacity="0.25" stroke="green"/><polygon points="-5.684341886080802e-14,156.0426002065907 67.54340088937448,399.99999999999994 " stroke-opacity="0.25" stroke="green"/><polygon points="0.0,141.54214055963325 86.25151042167528,400.0 " stroke-opacity="0.25" stroke="green"/><polygon points="0.0,133.30112263701812 100.76018867095706,400.0 " stroke-opacity="0.25" stroke="green"/><polygon points="0.0,127.98600620526759 112.34072826055905,400.0 " stroke-opacity="0.25" stroke="green"/><polygon points="-5.684341886080802e-14,124.27348224096642 121.79831276655422,400.0 " stroke-opacity="0.25" stroke="green"/><polygon points="0.0,121.53369560912122 129.66769921072535,400.0 " stroke-opacity="0.25" stroke="green"/><polygon points="0.0,46.417176269102754 400.0,292.8417781077617 " stroke-opacity="0.25" stroke="green"/><polygon points="-5.684341886080802e-14,34.753070616037775 400.00000000000006,218.88070443975306 " stroke-opacity="0.25" stroke="green"/><polygon points="0.0,17.079497021737865 400.0,106.81412021419658 " stroke-opacity="0.25" stroke="green"/><polygon points="0.0,261.4905629533595 39.712757929929836,400.0 " stroke-opacity="0.25" stroke="green"/><polygon points="0.0,210.77674227223338 67.32398388760436,399.99999999999994 " stroke-opacity="0.25" stroke="green"/><polygon points="0.0,184.692696940448 87.43958096355837,400.0 " stroke-opacity="0.25" stroke="green"/><polygon points="-5.684341886080802e-14,168.8015334474796 102.74702547810249,400.0 " stroke-opacity="0.25" stroke="green"/><polygon points="0.0,158.1051815575198 114.78619307825329,400.0 " stroke-opacity="0.25" stroke="green"/><polygon points="0.0,150.4142289509127 124.50283074706789,400.0 " stroke-opacity="0.25" stroke="green"/><polygon points="0.0,144.61804524435107 132.5098894528259,400.00000000000006 " stroke-opacity="0.25" stroke="green"/><polygon points="0.0,4.23939471471644 400.0,328.62374347763216 " stroke-opacity="0.25" stroke="green"/><polygon points="27.490484224335546,0.0 400.0,253.3526033198667 " stroke-opacity="0.25" stroke="green"/><polygon points="117.83855238377626,5.684341886080802e-14 400.0,132.75880092656502 " stroke-opacity="0.25" stroke="green"/><polygon points="0.0,300.2958072777347 39.88530439650418,400.00000000000006 " stroke-opacity="0.25" stroke="green"/><polygon points="0.0,246.75791586549997 69.83409852828416,400.00000000000006 " stroke-opacity="0.25" stroke="green"/><polygon points="0.0,216.107130770787 91.05724739623338,400.0 " stroke-opacity="0.25" stroke="green"/><polygon points="0.0,196.25185479116877 106.88322510554629,400.0 " stroke-opacity="0.25" stroke="green"/><polygon points="0.0,182.3426674711297 119.13857917809018,400.0 " stroke-opacity="0.25" stroke="green"/><polygon points="0.0,172.05640377695022 128.90920566384506,400.0 " stroke-opacity="0.25" stroke="green"/><polygon points="5.684341886080802e-14,164.14067500434157 136.8812062329455,400.0 " stroke-opacity="0.25" stroke="green"/><polygon points="46.36444764987016,0.0 400.0,372.72090784876207 " stroke-opacity="0.25" stroke="green"/><polygon points="93.2080094596721,0.0 400.0,296.5576309196284 " stroke-opacity="0.25" stroke="green"/><polygon points="198.86747466580408,0.0 400.0,163.80871530567276 " stroke-opacity="0.25" stroke="green"/><polygon points="0.0,319.27203111878384 44.0251706041918,400.0 " stroke-opacity="0.25" stroke="green"/><polygon points="-5.684341886080802e-14,269.153649758189 75.74195118825355,400.0000000000001 " stroke-opacity="0.25" stroke="green"/><polygon points="0.0,237.91923601610796 97.55824036868674,400.0 " stroke-opacity="0.25" stroke="green"/><polygon points="0.0,216.5878787110831 113.48389686443033,400.0 " stroke-opacity="0.25" stroke="green"/><polygon points="0.0,201.09430325793394 125.62093825633224,400.0 " stroke-opacity="0.25" stroke="green"/><polygon points="0.0,189.330508743092 135.17758284101734,400.0 " stroke-opacity="0.25" stroke="green"/><polygon points="0.0,180.09437863938018 142.89766715348082,400.0 " stroke-opacity="0.25" stroke="green"/><polygon points="87.13827880829719,0.0 377.75529001044174,400.0 " stroke-opacity="0.25" stroke="green"/><polygon points="141.21625282391304,0.0 400.0,356.185270924949 " stroke-opacity="0.25" stroke="green"/><polygon points="249.37220085514463,5.684341886080802e-14 400.0,207.321379463342 " stroke-opacity="0.25" stroke="green"/><polygon points="0.0,326.6561228521041 53.28744591674692,400.0 " stroke-opacity="0.25" stroke="green"/><polygon points="0.0,281.99695541362206 85.73423032611633,400.00000000000006 " stroke-opacity="0.25" stroke="green"/><polygon points="0.0,252.22417712130067 107.36541993236267,400.00000000000006 " stroke-opacity="0.25" stroke="green"/><polygon points="-5.684341886080802e-14,230.95790691249962 122.81626965111006,400.0 " stroke-opacity="0.25" stroke="green"/><polygon points="5.684341886080802e-14,215.0082042558989 134.40440694017053,400.0 " stroke-opacity="0.25" stroke="green"/><polygon points="5.684341886080802e-14,202.60287996743165 143.41740260943988,400.0 " stroke-opacity="0.25" stroke="green"/><polygon points="0.0,192.67862053665786 150.62779914485535,400.0 " stroke-opacity="0.25" stroke="green"/><polygon points="121.20582781925982,0.0 338.4344556527122,400.0 " stroke-opacity="0.25" stroke="green"/><polygon points="179.76253083046925,0.0 375.09941355250714,400.0 " stroke-opacity="0.25" stroke="green"/><polygon points="288.10533484818586,-5.684341886080802e-14 400.00000000000006,289.0731282733327 " stroke-opacity="0.25" stroke="green"/><polygon points="0.0,386.89623279711043 13.472488558465898,400.0 " stroke-opacity="0.25" stroke="green"/><polygon points="0.0,327.16353388466246 68.86372570293514,400.0 " stroke-opacity="0.25" stroke="green"/><polygon points="0.0,288.2191904507797 100.41882422598849,400.0 " stroke-opacity="0.25" stroke="green"/><polygon points="0.0,260.8194771763651 120.7993654371372,400.0 " stroke-opacity="0.25" stroke="green"/><polygon points="0.0,240.4936277983833 135.04827095049473,399.99999999999994 " stroke-opacity="0.25" stroke="green"/><polygon points="0.0,224.8154152615822 145.57083680162953,400.0 " stroke-opacity="0.25" stroke="green"/><polygon points="0.0,212.35432002813027 153.65978354156186,400.00000000000006 " stroke-opacity="0.25" stroke="green"/><polygon points="0.0,202.21227007254652 160.07185952016715,399.99999999999994 " stroke-opacity="0.25" stroke="green"/><polygon points="150.9992581978861,-5.684341886080802e-14 304.8709695087476,400.00000000000006 " stroke-opacity="0.25" stroke="green"/><polygon points="213.01066041278722,0.0 329.37702446158494,400.0 " stroke-opacity="0.25" stroke="green"/><polygon points="321.8934911735462,0.0 372.4060245928296,400.0 " stroke-opacity="0.25" stroke="green"/><polygon points="0.0,372.0446948163575 39.173048962936775,400.0 " stroke-opacity="0.25" stroke="green"/><polygon points="0.0,323.546504632546 91.75189386849976,400.0 " stroke-opacity="0.25" stroke="green"/><polygon points="0.0,289.87935786660086 120.17864703945548,400.0 " stroke-opacity="0.25" stroke="green"/><polygon points="0.0,265.1423804372796 137.98647344253732,400.0 " stroke-opacity="0.25" stroke="green"/><polygon points="5.684341886080802e-14,246.198544112248 150.18904757432045,400.00000000000006 " stroke-opacity="0.25" stroke="green"/><polygon points="0.0,231.22612387034425 159.0729897527617,400.0 " stroke-opacity="0.25" stroke="green"/><polygon points="0.0,219.09474543568336 165.8300549934732,400.0 " stroke-opacity="0.25" stroke="green"/><polygon points="0.0,209.06584226805327 171.14237344739135,400.0 " stroke-opacity="0.25" stroke="green"/><polygon points="178.0906930848585,-5.684341886080802e-14 275.1241743296481,400.00000000000006 " stroke-opacity="0.25" stroke="green"/><polygon points="243.38103995252428,0.0 290.4942292798297,400.0 " stroke-opacity="0.25" stroke="green"/><polygon points="354.0457389439132,0.0 316.54589826529997,400.0 " stroke-opacity="0.25" stroke="green"/><polygon points="399.99999999999994,344.1054639260408 370.34380255671965,400.0 " stroke-opacity="0.25" stroke="green"/><polygon points="0.0,357.3007062867008 78.52160590806687,400.0 " stroke-opacity="0.25" stroke="green"/><polygon points="0.0,317.4440601671655 122.40158373149265,400.0 " stroke-opacity="0.25" stroke="green"/><polygon points="0.0,288.4013561845564 144.99169841078879,400.0 " stroke-opacity="0.25" stroke="green"/><polygon points="0.0,266.2972518958993 158.76124914482543,400.0 " stroke-opacity="0.25" stroke="green"/><polygon points="5.684341886080802e-14,248.91052928744483 168.03252511968722,399.99999999999994 " stroke-opacity="0.25" stroke="green"/><polygon points="-5.684341886080802e-14,234.87664539918487 174.70029533881902,400.0 " stroke-opacity="0.25" stroke="green"/><polygon points="0.0,223.31105080829752 179.72619184463753,400.00000000000006 " stroke-opacity="0.25" stroke="green"/><polygon points="0.0,213.6151955408179 183.6501775299066,400.0 " stroke-opacity="0.25" stroke="green"/><polygon points="203.58803544078276,-5.684341886080802e-14 247.8608508309222,400.00000000000006 " stroke-opacity="0.25" stroke="green"/><polygon points="272.47902927301254,0.0 255.85521607437127,400.0 " stroke-opacity="0.25" stroke="green"/><polygon points="386.61439408653916,0.0 269.0999051513746,400.0 " stroke-opacity="0.25" stroke="green"/><polygon points="400.0,267.90727310386154 295.2960327376194,400.00000000000006 " stroke-opacity="0.25" stroke="green"/><polygon points="400.0,387.36202238429826 371.6146375273556,400.0 " stroke-opacity="0.25" stroke="green"/><polygon points="0.0,388.7920178272218 44.620278985988136,400.00000000000006 " stroke-opacity="0.25" stroke="green"/><polygon points="-5.684341886080802e-14,342.9866056083292 132.0504449500569,400.0 " stroke-opacity="0.25" stroke="green"/><polygon points="0.0,309.84967471226184 160.30051733829836,399.99999999999994 " stroke-opacity="0.25" stroke="green"/><polygon points="0.0,284.76409373822577 174.2638106467291,400.0 " stroke-opacity="0.25" stroke="green"/><polygon points="-5.684341886080802e-14,265.11335205388167 182.59073848378716,400.0 " stroke-opacity="0.25" stroke="green"/><polygon points="-5.684341886080802e-14,249.30387284482347 188.12091540215243,400.00000000000006 " stroke-opacity="0.25" stroke="green"/><polygon points="0.0,236.30962284992762 192.0607534996513,400.0 " stroke-opacity="0.25" stroke="green"/><polygon points="5.684341886080802e-14,225.44010961911135 195.01002489160012,400.00000000000006 " stroke-opacity="0.25" stroke="green"/><polygon points="0.0,216.21358432108696 197.30058826861622,400.0 " stroke-opacity="0.25" stroke="green"/><polygon points="228.34777603424888,5.684341886080802e-14 222.08943675358879,399.99999999999994 " stroke-opacity="0.25" stroke="green"/><polygon points="301.528684883793,0.0 223.6734462028298,400.0 " stroke-opacity="0.25" stroke="green"/><polygon points="400.0,43.54832276262434 226.26429997864966,400.0 " stroke-opacity="0.25" stroke="green"/><polygon points="400.0,239.75485485259708 231.26919883818732,400.0 " stroke-opacity="0.25" stroke="green"/><polygon points="400.0,340.5029817343087 245.00496833416045,400.0 " stroke-opacity="0.25" stroke="green"/><polygon points="0.0,366.1810386809239 175.91762249653442,400.0 " stroke-opacity="0.25" stroke="green"/><polygon points="-5.684341886080802e-14,329.2203976600473 197.28443634773393,400.0 " stroke-opacity="0.25" stroke="green"/><polygon points="-5.684341886080802e-14,301.3736577139134 203.6754737174115,400.0 " stroke-opacity="0.25" stroke="green"/><polygon points="-8.526512829121202e-14,279.63980687328274 206.74952147380836,400.0 " stroke-opacity="0.25" stroke="green"/><polygon points="0.0,262.2050799636864 208.55683915753136,400.0 " stroke-opacity="0.25" stroke="green"/><polygon points="0.0,247.90868392398966 209.7466416658916,400.0 " stroke-opacity="0.25" stroke="green"/><polygon points="-5.684341886080802e-14,235.97321585663906 210.5892348313113,400.00000000000006 " stroke-opacity="0.25" stroke="green"/><polygon points="0.0,225.8584517548312 211.21725070561828,399.99999999999994 " stroke-opacity="0.25" stroke="green"/><polygon points="-5.684341886080802e-14,217.17730505065427 211.70339846167377,400.0 " stroke-opacity="0.25" stroke="green"/></svg>
