<?xml version="1.0" encoding="UTF-8"?>
<!DOCTYPE svg PUBLIC "-//W3C//DTD SVG 1.1//EN"
    "http://www.w3.org/Graphics/SVG/1.1/DTD/svg11.dtd"><svg width="400" height="400" stroke="black" fill="none" fill-opacity="0.75" font-size="14" font-style="italic" font-family="sans-serif" xmlns="http://www.w3.org/2000/svg" xmlns:xlink="http://www.w3.org/1999/xlink" version="1.1"><filter id="blur1"><feGaussianBlur stdDeviation="0.5"/></filter><rect width="100%" height="100%" fill="white" stroke="none" fill-opacity="1"/><rect class="bg" fill="black" width="100%" height="100%" stroke="none" fill-opacity="1"/><polyline class="polyline" opacity="0.5" stroke="blue" points="230.026015658742,166.3629279607985 255.45633798184105,137.92866320182543 "/><polyline class="polyline" opacity="0.5" stroke="blue" points="229.06725858991743,165.4376910680537 254.05921692703677,135.87335404961237 "/><polyline class="polyline" opacity="0.5" stroke="blue" points="228.09660507534954,164.52597469623515 252.6371652474223,133.83986368719604 "/><polyline class="polyline" opacity="0.5" stroke="blue" points="227.11436020778015,163.62807808212295 251.19078864417682,131.82882244168414 "/><polyline class="polyline" opacity="0.5" stroke="blue" points="226.12083182578107,162.74429804077784 249.7207001182967,129.84085823808178 "/><polyline class="polyline" opacity="0.5" stroke="blue" points="225.11633054383572,161.8749289713626 248.22752017094854,127.87659681392489 "/><polyline class="polyline" opacity="0.5" stroke="blue" points="224.1011697840418,161.02026285986398 246.71187701645192,125.93666192187462 "/><polyline class="polyline" opacity="0.5" stroke="blue" points="223.07566580928645,160.18058927858456 245.1744068071677,124.02167551943529 "/><polyline class="polyline" opacity="0.5" stroke="blue" points="222.04013775774254,159.35619538227883 243.61575386954343,122.13225794495133 "/><polyline class="polyline" opacity="0.5" stroke="blue" points="220.99490767853177,158.54736590080736 242.03657095054086,120.26902807903379 "/><polyline class="polyline" opacity="0.5" stroke="blue" points="219.94030056839807,157.75438312818653 240.43751947364368,118.43260349055718 "/><polyline class="polyline" opacity="0.5" stroke="blue" points="218.87664440923095,156.9775269079118 238.8192698036134,116.62360056636048 "/><polyline class="polyline" opacity="0.5" stroke="blue" points="217.8042702062767,156.21707461443575 237.18250151912963,114.84263462377606 "/><polyline class="polyline" opacity="0.5" stroke="blue" points="216.72351202687065,155.47330113068332 235.5279036924175,113.09032000510093 "/><polyline class="polyline" opacity="0.5" stroke="blue" points="215.6347070395222,154.74647882148918 233.85617517492935,111.36727015311376 "/><polyline class="polyline" opacity="0.5" stroke="blue" points="214.5381955531795,154.0368775028441 232.1680248881092,109.67409766673265 "/><polyline class="polyline" opacity="0.5" stroke="blue" points="213.4343210564987,153.34476440683977 230.46417211822944,108.01141433589517 "/><polyline class="polyline" opacity="0.5" stroke="blue" points="212.3234302569383,152.6704041422038 228.74534681424598,106.37983115473553 "/><polyline class="polyline" opacity="0.5" stroke="blue" points="211.2058731194957,152.01405865031904 227.01228988757344,104.7799583121209 "/><polyline class="polyline" opacity="0.5" stroke="blue" points="210.0820029048998,151.3759871566243 225.2657535126365,103.21240515860198 "/><polyline class="polyline" opacity="0.5" stroke="blue" points="208.95217620707012,150.75644611729598 223.50650142700226,101.67778014882367 "/><polyline class="polyline" opacity="0.5" stroke="blue" points="207.81675298964774,150.15568916111403 221.73530922985003,100.17669075843385 "/><polyline class="polyline" opacity="0.5" stroke="blue" points="206.67609662140163,149.57396702641722 219.95296467747937,98.70974337452458 "/><polyline class="polyline" opacity="0.5" stroke="blue" points="205.5305739103082,149.01152749305825 218.1602679745035,97.27754315863454 "/><polyline class="polyline" opacity="0.5" stroke="blue" points="204.38055513609953,148.46861530927063 216.3580320593168,95.88069388134002 "/><polyline class="polyline" opacity="0.5" stroke="blue" points="203.22641408107077,147.9454721133653 214.54708288236793,94.51979772746184 "/><polyline class="polyline" opacity="0.5" stroke="blue" points="202.06852805893357,147.4423363501769 212.72825967570753,93.1954550709207 "/><polyline class="polyline" opacity="0.5" stroke="blue" points="200.90727794149936,146.95944318218645 210.90241521221878,91.90826421827603 "/><polyline class="polyline" opacity="0.5" stroke="blue" points="199.7430481829707,146.49702439524896 209.0704160528758,90.65882111999748 "/><polyline class="polyline" opacity="0.5" stroke="blue" points="198.57622684161686,146.05530829886285 207.23314278031003,89.44771904852871 "/><polyline class="polyline" opacity="0.5" stroke="blue" points="197.40720559860443,145.63451962092017 205.39149021690073,88.27554824222088 "/><polyline class="polyline" opacity="0.5" stroke="blue" points="196.23637977375117,145.23487939688482 203.5463676255395,87.14289551423957 "/><polyline class="polyline" opacity="0.5" stroke="blue" points="195.06414833796674,144.85660485335026 201.6986988911544,86.05034382557082 "/><polyline class="polyline" opacity="0.5" stroke="blue" points="193.89091392214118,144.499909285936 199.84942268101418,84.99847182129001 "/><polyline class="polyline" opacity="0.5" stroke="blue" points="192.71708282223744,144.16500193148784 197.99949258176778,83.98785332929388 "/><polyline class="polyline" opacity="0.5" stroke="blue" points="191.54306500034244,143.8520878345547 196.1498772111139,83.01905682074349 "/><polyline class="polyline" opacity="0.5" stroke="blue" points="190.36927408142634,143.56136770812262 194.3015603019316,82.09264483151632 "/><polyline class="polyline" opacity="0.5" stroke="blue" points="189.19612734555827,143.29303778859418 192.45554075664663,81.20917334402928 "/><polyline class="polyline" opacity="0.5" stroke="blue" points="188.02404571532244,143.04728968501047 190.6128326695508,80.36919112885825 "/><polyline class="polyline" opacity="0.5" stroke="blue" points="186.85345373817802,142.824310222522 188.77446531474067,79.5732390456608 "/><polyline class="polyline" opacity="0.5" stroke="blue" points="185.6847795635016,142.62428128012382 186.9414830972935,78.82184930298983 "/><polyline class="polyline" opacity="0.5" stroke="blue" points="184.51845491405143,142.44737962268073 185.11494546525614,78.11554467668414 "/><polyline class="polyline" opacity="0.5" stroke="blue" points="183.35491505158942,142.2937767272793 183.29592677998494,77.45483768662234 "/><polyline class="polyline" opacity="0.5" stroke="blue" points="182.19459873639642,142.16363860395344 181.48551614234626,76.84022973174618 "/><polyline class="polyline" opacity="0.5" stroke="blue" points="181.03794818041513,142.05712561084295 179.6848171722622,76.27221018337768 "/><polyline class="polyline" opacity="0.5" stroke="blue" points="179.88540899375522,141.97439226385626 177.89494773907478,75.75125543699647 "/><polyline class="polyline" opacity="0.5" stroke="blue" points="178.73743012429446,141.9155870409208 176.1170396401948,75.2778279227869 "/><polyline class="polyline" opacity="0.5" stroke="blue" points="177.59446379011104,141.88085218091925 174.3522382255095,74.85237507542386 "/><polyline class="polyline" opacity="0.5" stroke="blue" points="176.4569654044831,141.8703234774208 172.60170196503867,74.47532826373549 "/><polyline class="polyline" opacity="0.5" stroke="blue" points="175.32539349319296,141.88413006733552 170.86660195736044,74.1471016810644 "/><polyline class="polyline" opacity="0.5" stroke="blue" points="174.20020960387671,141.92239421462926 169.14812137636932,73.86809119733944 "/><polyline class="polyline" opacity="0.5" stroke="blue" points="173.08187820716182,141.98523108925718 167.44745485398965,73.63867317407784 "/><polyline class="polyline" opacity="0.5" stroke="blue" points="171.97086658934,142.07274854148642 165.76580779653847,73.45920324375189 "/><polyline class="polyline" opacity="0.5" stroke="blue" points="170.8676447363266,142.18504687179714 164.10439563252461,73.33001505518371 "/><polyline class="polyline" opacity="0.5" stroke="blue" points="169.77268520866332,142.32221859656687 162.46444298977866,73.25141898687053 "/><polyline class="polyline" opacity="0.5" stroke="blue" points="168.6864630073266,142.48434820976178 160.8471827999336,73.2237008303911 "/><polyline class="polyline" opacity="0.5" stroke="blue" points="167.60945543011178,142.67151194087563 159.25385532842657,73.24712044630503 "/><polyline class="polyline" opacity="0.5" stroke="blue" points="166.54214191837053,142.88377750937667 157.6857071283559,73.32191039522526 "/><polyline class="polyline" opacity="0.5" stroke="blue" points="165.48500389388715,143.12120387594067 156.1439899167196,73.44827454701917 "/><polyline class="polyline" opacity="0.5" stroke="blue" points="164.43852458569108,143.38384099076887 154.62995937177183,73.6263866713808 "/><polyline class="polyline" opacity="0.5" stroke="blue" points="163.40318884661107,143.6717295393084 153.14487385046806,73.85638901330643 "/><polyline class="polyline" opacity="0.5" stroke="blue" points="162.37948295939069,143.9849006857132 151.68999302522866,74.13839085729973 "/><polyline class="polyline" opacity="0.5" stroke="blue" points="161.36789443219615,144.32337581440447 150.26657643953064,74.47246708443258 "/><polyline class="polyline" opacity="0.5" stroke="blue" points="160.36891178336248,144.68716627010937 148.8758819821465,74.85865672668967 "/><polyline class="polyline" opacity="0.5" stroke="blue" points="159.38302431523812,145.07627309677807 147.51916428017418,75.29696152331915 "/><polyline class="polyline" opacity="0.5" stroke="blue" points="158.4107218770056,145.49068677580064 146.19767301136199,75.78734448421758 "/><polyline class="polyline" opacity="0.5" stroke="blue" points="157.4524946163728,145.93038696396593 144.91265113660535,76.32972846566129 "/><polyline class="polyline" opacity="0.5" stroke="blue" points="156.50883272004734,146.39534223162553 143.66533305389595,76.92399476398897 "/><polyline class="polyline" opacity="0.5" stroke="blue" points="155.5802261429284,146.8855098015478 142.4569426754262,77.56998173311382 "/><polyline class="polyline" opacity="0.5" stroke="blue" points="154.6671643259695,147.40083528896753 141.2886914299956,78.26748343200656 "/><polyline class="polyline" opacity="0.5" stroke="blue" points="153.77013590268933,147.94125244335706 140.16177619332993,79.01624830854246 "/><polyline class="polyline" opacity="0.5" stroke="blue" points="152.88962839433106,148.50668289246653 139.07737714940723,79.8159779263326 "/><polyline class="polyline" opacity="0.5" stroke="blue" points="152.02612789369596,149.09703588919996 138.03665558638085,80.66632574137311 "/><polyline class="polyline" opacity="0.5" stroke="blue" points="151.18011873770163,149.71220806191394 137.04075163120274,81.5668959355272 "/><polyline class="polyline" opacity="0.5" stroke="blue" points="150.35208316874525,150.35208316874525 136.0907819275737,82.51724231401514 "/><polyline class="polyline" opacity="0.5" stroke="blue" points="149.54250098497806,151.01653185659197 135.18783726237717,83.51686727421375 "/><polyline class="polyline" opacity="0.5" stroke="blue" points="148.75184917962912,151.70541142539037 134.33298014629065,84.56522085315814 "/><polyline class="polyline" opacity="0.5" stroke="blue" points="147.98060156954554,152.41856559834667 133.5272423548049,85.66169986119436 "/><polyline class="polyline" opacity="0.5" stroke="blue" points="147.2292284131501,153.15582429879993 132.7716224364176,86.80564710924865 "/><polyline class="polyline" opacity="0.5" stroke="blue" points="146.49819601804884,153.91700343440522 132.06708319529577,87.99635073714742 "/><polyline class="polyline" opacity="0.5" stroke="blue" points="145.78796633855555,154.7019046893419 131.4145491562174,89.23304365034895 "/><polyline class="polyline" opacity="0.5" stroke="blue" points="145.09899656343566,155.51031532526275 130.8149040201062,90.51490307232561 "/><polyline class="polyline" opacity="0.5" stroke="blue" points="144.4317386942069,156.34200799171205 130.26898811895302,91.84105021965827 "/><polyline class="polyline" opacity="0.5" stroke="blue" points="143.7866391143719,157.19674054674869 129.7775958793714,93.21055010667921 "/><polyline class="polyline" opacity="0.5" stroke="blue" points="143.16413814999345,158.07425588851947 129.34147330446217,94.62241148621517 "/><polyline class="polyline" opacity="0.5" stroke="blue" points="142.5646696220627,158.9742817985331 128.96131548404747,96.07558693264491 "/><polyline class="polyline" opacity="0.5" stroke="blue" points="141.98866039114822,159.89653079738892 128.63776414368144,97.56897307308721 "/><polyline class="polyline" opacity="0.5" stroke="blue" points="141.43652989485236,160.84070001371833 128.37140524314844,99.10141097208549 "/><polyline class="polyline" opacity="0.5" stroke="blue" points="140.90868967864048,161.8064710670942 128.1627666354047,100.67168667464011 "/><polyline class="polyline" opacity="0.5" stroke="blue" points="140.40554292064837,162.79350996566342 128.0123157971132,102.27853191187506 "/><polyline class="polyline" opacity="0.5" stroke="blue" points="139.92748395111042,163.80146701925196 127.92045764205392,103.92062497300158 "/><polyline class="polyline" opacity="0.5" stroke="blue" points="139.47489776709273,164.82997676868465 127.88753242875474,105.59659174656623 "/><polyline class="polyline" opacity="0.5" stroke="blue" points="139.04815954325102,165.87865793205265 127.91381377368477,107.30500693324319 "/><polyline class="polyline" opacity="0.5" stroke="blue" points="138.64763413937334,166.94711336864881 127.99950678127671,109.04439543165697 "/><polyline class="polyline" opacity="0.5" stroke="blue" points="138.2736756055039,168.03493006127582 128.14474630188707,110.81323389790356 "/><polyline class="polyline" opacity="0.5" stroke="blue" points="137.92662668548144,169.1416791176148 128.34959532857488,112.60995247858068 "/><polyline class="polyline" opacity="0.5" stroke="blue" points="137.60681831976012,170.26691579132037 128.61404354326424,114.43293671624718 "/><polyline class="polyline" opacity="0.5" stroke="blue" points="137.31456914841735,171.4101795234846 128.93800602246336,116.28052962531197 "/><polyline class="polyline" opacity="0.5" stroke="blue" points="137.05018501528278,172.57099400508642 129.3213221122357,118.15103393541084 "/><polyline class="polyline" opacity="0.5" stroke="blue" points="136.81395847415692,173.7488672610114 129.76375448156153,120.04271449837474 "/><polyline class="polyline" opacity="0.5" stroke="blue" points="136.60616829811573,174.94329175619603 130.26498836259316,121.95380085392647 "/><polyline class="polyline" opacity="0.5" stroke="blue" points="136.42707899292532,176.15374452441316 130.82463098558742,123.88248994828014 "/><polyline class="polyline" opacity="0.5" stroke="blue" points="136.27694031561688,177.3796873201773 131.44221121551476,125.82694899885954 "/><polyline class="polyline" opacity="0.5" stroke="blue" points="136.15598679929414,178.62056679420613 132.11717939648008,127.78531849741196 "/><polyline class="polyline" opacity="0.5" stroke="blue" points="136.06443728526654,179.8758146928292 132.8489074091645,129.75571534287621 "/><polyline class="polyline" opacity="0.5" stroke="blue" points="136.00249446361886,181.14484808168845 133.636688945514,131.73623609448236 "/><polyline class="polyline" opacity="0.5" stroke="blue" points="135.97034442334294,182.42706959402236 134.4797400038567,133.72496033471538 "/><polyline class="polyline" opacity="0.5" stroke="blue" points="135.96815621316804,183.72186770377346 135.37719960654638,135.71995413098506 "/><polyline class="polyline" opacity="0.5" stroke="blue" points="135.9960814142359,185.02861702370316 136.3281307411053,137.71927358410719 "/><polyline class="polyline" opacity="0.5" stroke="blue" points="136.05425372576923,186.34667862863702 137.33152152468244,139.7209684510296 "/><polyline class="polyline" opacity="0.5" stroke="blue" points="136.14278856488698,187.6754004039053 138.3862865904707,141.72308582864127 "/><polyline class="polyline" opacity="0.5" stroke="blue" points="136.261782681713,189.01411741897812 139.4912686935357,143.72367388497923 "/><polyline class="polyline" opacity="0.5" stroke="blue" points="136.41131379092224,190.36215232623059 140.64524053232498,145.7207856237137 "/><polyline class="polyline" opacity="0.5" stroke="blue" points="136.5914402208551,191.71881578470482 141.84690678094202,147.7124826674465 "/><polyline class="polyline" opacity="0.5" stroke="blue" points="136.80220058131803,193.08340690866825 143.0949063261114,149.69683904510308 "/><polyline class="polyline" opacity="0.5" stroke="blue" points="137.04361345116902,194.45521374069625 144.38781470162832,151.67194496854557 "/><polyline class="polyline" opacity="0.5" stroke="blue" points="137.31567708676363,195.83351374893624 145.72414671199036,153.63591058347612 "/><polyline class="polyline" opacity="0.5" stroke="blue" points="137.61836915230998,197.21757434813793 147.10235923586583,155.5868696797455 "/><polyline class="polyline" opacity="0.5" stroke="blue" points="137.95164647315087,198.6066534439611 148.52085419906484,157.52298334632783 "/><polyline class="polyline" opacity="0.5" stroke="blue" points="138.3154448129527,200.0 149.9779817057555,159.44244355646782 "/><polyline class="polyline" opacity="0.5" stroke="blue" points="138.70967867574402,201.39685462688817 151.4720433158231,161.34347666885307 "/><polyline class="polyline" opacity="0.5" stroke="blue" points="139.13424113370002,202.7964501927769 153.0012954555015,163.2243468311036 "/><polyline class="polyline" opacity="0.5" stroke="blue" points="139.58900368152158,204.19801245440567 154.56395294772983,165.0833592724047 "/><polyline class="polyline" opacity="0.5" stroke="blue" points="140.07381611820534,205.60076070791274 156.15819264810116,166.9188634727288 "/><polyline class="polyline" opacity="0.5" stroke="blue" points="140.5885064569436,207.0039084584631 157.78215717178546,168.72925619679535 "/><polyline class="polyline" opacity="0.5" stroke="blue" points="141.13288086383437,208.40666410770262 159.43395869642228,170.51298438169434 "/><polyline class="polyline" opacity="0.5" stroke="blue" points="141.70672362601607,209.80823165797983 161.11168282569884,172.26854786794524 "/><polyline class="polyline" opacity="0.5" stroke="blue" points="142.3097971497758,211.20781143221205 162.81339249815352,173.99450196467026 "/><polyline class="polyline" opacity="0.5" stroke="blue" points="142.94184198910727,212.6046008082113 164.53713192567412,175.68945984051862 "/><polyline class="polyline" opacity="0.5" stroke="blue" points="143.60257690512373,213.9977949662252 166.280930546196,177.35209473298056 "/><polyline class="polyline" opacity="0.5" stroke="blue" points="144.29169895665154,215.3865876483926 168.04280697524268,178.98114196976726 "/><polyline class="polyline" opacity="0.5" stroke="blue" points="145.0088836222536,216.77017192876124 169.82077294118875,180.57540079699353 "/><polyline class="polyline" opacity="0.5" stroke="blue" points="145.7537849538499,218.14774099246557 171.61283718946038,182.13373600997832 "/><polyline class="polyline" opacity="0.5" stroke="blue" points="146.52603576201892,219.51848892261862 173.41700934131202,183.65507938356222 "/><polyline class="polyline" opacity="0.5" stroke="blue" points="147.32524783297973,220.881611493432 175.2313036933308,185.13843089992343 "/><polyline class="polyline" opacity="0.5" stroke="blue" points="148.15101217716872,222.23630696804082 177.05374294441077,186.58285977294335 "/><polyline class="polyline" opacity="0.5" stroke="blue" points="149.00289930923793,223.581776899482 178.88236183760125,187.98750526922444 "/><polyline class="polyline" opacity="0.5" stroke="blue" points="149.88045955921518,224.91722693324616 180.71521070496473,189.35157732688603 "/><polyline class="polyline" opacity="0.5" stroke="blue" points="150.78322341447858,226.24186760980422 182.55035890436312,190.6743569742501 "/><polyline class="polyline" opacity="0.5" stroke="blue" points="151.71070189211133,227.5549151654944 184.38589813792888,191.95519655147618 "/><polyline class="polyline" opacity="0.5" stroke="blue" points="152.66238694111595,228.8555923301451 186.2199456428529,193.19351973909946 "/><polyline class="polyline" opacity="0.5" stroke="blue" points="153.63775187388234,230.14312911980525 188.0506472460293,194.3888213982696 "/><polyline class="polyline" opacity="0.5" stroke="blue" points="154.636251826219,231.416763622956 189.87618027503058,195.54066722827142 "/><polyline class="polyline" opacity="0.5" stroke="blue" points="155.657324245176,232.6757427785833 191.69475631883483,196.64869324762864 "/><polyline class="polyline" opacity="0.5" stroke="blue" points="156.70038940380715,233.91932314450574 193.50462383268254,197.71260510574695 "/><polyline class="polyline" opacity="0.5" stroke="blue" points="157.76485094194186,235.1467716543695 195.30407058239524,198.73217723263778 "/><polyline class="polyline" opacity="0.5" stroke="blue" points="158.85009643196224,236.35736636174707 197.09142592443666,199.70725183477938 "/><polyline class="polyline" opacity="0.5" stroke="blue" points="159.95549796851043,237.55039716980622 198.86506291892965,200.63773774561574 "/><polyline class="polyline" opacity="0.5" stroke="blue" points="161.08041278098213,238.72516654505188 200.6234002737515,201.52360913956588 "/><polyline class="polyline" opacity="0.5" stroke="blue" points="162.22418386759875,239.8809902136829 202.36490411871657,202.36490411871657 "/><polyline class="polyline" opacity="0.5" stroke="blue" points="163.3861406497921,241.0171978391532 204.08808960970217,203.1617231816029 "/><polyline class="polyline" opacity="0.5" stroke="blue" points="164.56559964557735,242.1331336795769 205.79152236338902,203.91422758364337 "/><polyline class="polyline" opacity="0.5" stroke="blue" points="165.7618651605419,243.2281572236726 207.4738197240552,204.62263759889146 "/><polyline class="polyline" opacity="0.5" stroke="blue" points="166.97422999503064,244.301643804003 209.133651864588,205.28723069279997 "/><polyline class="polyline" opacity="0.5" stroke="blue" points="168.2019761660669,245.35298518632948 210.76974272455362,205.90833961566577 "/><polyline class="polyline" opacity="0.5" stroke="blue" points="169.4443756425142,246.3815901339703 212.38087078878817,206.48635042633828 "/><polyline class="polyline" opacity="0.5" stroke="blue" points="170.70069109195157,247.38688494612336 213.9658697105439,207.02170045563835 "/><polyline class="polyline" opacity="0.5" stroke="blue" points="171.970176637713,248.3683139691883 215.52362878374325,207.51487621874793 "/><polyline class="polyline" opacity="0.5" stroke="blue" points="173.25207862451995,249.3253400802032 217.0530932693537,207.9664112855987 "/><polyline class="polyline" opacity="0.5" stroke="blue" points="174.54563639112348,250.2574451415902 218.55326458130398,208.37688411801912 "/><polyline class="polyline" opacity="0.5" stroke="blue" points="175.85008304836498,251.16413042648773 220.0232003377151,208.74691588208964 "/><polyline class="polyline" opacity="0.5" stroke="blue" points="177.16464626106054,252.0449170140332 221.4620142835182,209.07716824381902 "/><polyline class="polyline" opacity="0.5" stroke="blue" points="178.4885490321186,252.89934615404468 222.86887609077735,209.3683411558882 "/><polyline class="polyline" opacity="0.5" stroke="blue" points="179.82101048730846,253.72697960063866 224.24301104323212,209.62117064282015 "/><polyline class="polyline" opacity="0.5" stroke="blue" points="181.1612466591112,254.52739991440882 225.5836996117197,209.83642659152696 "/><polyline class="polyline" opacity="0.5" stroke="blue" points="182.50847126810467,255.30021073287872 226.89027692723818,210.01491055376468 "/><polyline class="polyline" opacity="0.5" stroke="blue" points="183.86189650035655,256.04503700903047 228.16213215846636,210.15745356659397 "/><polyline class="polyline" opacity="0.5" stroke="blue" points="185.22073377933214,256.7615252177987 229.39870780057245,210.26491399650683 "/><polyline class="polyline" opacity="0.5" stroke="blue" points="186.58419453085395,257.44934353050587 230.5994988821154,210.3381754124364 "/><polyline class="polyline" opacity="0.5" stroke="blue" points="187.95149093969155,258.10818195730195 231.76405209678575,210.37814449242677 "/><polyline class="polyline" opacity="0.5" stroke="blue" points="189.3218366964012,258.7377524577539 232.89196486663644,210.3857489682983 "/><polyline class="polyline" opacity="0.5" stroke="blue" points="190.69444773308268,259.337789019815 233.982884343332,210.36193561221216 "/><polyline class="polyline" opacity="0.5" stroke="blue" points="192.06854294677092,259.90804770748156 235.03650635379233,210.30766826861193 "/><polyline class="polyline" opacity="0.5" stroke="blue" points="193.4433449092338,260.4483066775258 236.052574296434,210.22392593460364 "/><polyline class="polyline" opacity="0.5" stroke="blue" points="194.81808056200526,260.95836616576383 237.0308779940143,210.11170089143533 "/><polyline class="polyline" opacity="0.5" stroke="blue" points="196.1919818955428,261.4380484433948 237.9712525088704,209.9719968893458 "/><polyline class="polyline" opacity="0.5" stroke="blue" points="197.56428661145995,261.8871977440113 238.87357692611505,209.8058273876802 "/><polyline class="polyline" opacity="0.5" stroke="blue" points="198.93423876685122,262.3056801619498 239.73777311010736,209.61421385181282 "/><polyline class="polyline" opacity="0.5" stroke="blue" points="200.3010893997911,262.69338352270853 240.5638044392653,209.39818410807823 "/><polyline class="polyline" opacity="0.5" stroke="blue" points="201.66409713515935,263.05021722622035 241.3516745240227,209.1587707575908 "/><polyline class="polyline" opacity="0.5" stroke="blue" points="203.02252877001195,263.3761120638198 242.10142591246853,208.89700964953136 "/><polyline class="polyline" opacity="0.5" stroke="blue" points="204.37565983778958,263.67102000979406 242.81313878793392,208.61393841419678 "/><polyline class="polyline" opacity="0.5" stroke="blue" points="205.72277515072506,263.9349139884536 243.48692966252042,208.3105950558451 "/><polyline class="polyline" opacity="0.5" stroke="blue" points="207.06316931988263,264.16778761769797 244.1229500702895,207.9880166051261 "/><polyline class="polyline" opacity="0.5" stroke="blue" points="208.3961472523337,264.3696549300894 244.72138526356196,207.6472378306626 "/><polyline class="polyline" opacity="0.5" stroke="blue" points="209.72102462504435,264.54055007248166 245.2824529155082,207.28929000914414 "/><polyline class="polyline" opacity="0.5" stroke="blue" points="211.03712833511992,264.6805269852755 245.80640183194595,206.9151997531082 "/><polyline class="polyline" opacity="0.5" stroke="blue" points="212.34379692612194,264.78965906239995 246.29351067500363,206.52598789541764 "/><polyline class="polyline" opacity="0.5" stroke="blue" points="213.6403809902412,264.868038793137 246.7440867010552,206.12266842929444 "/><polyline class="polyline" opacity="0.5" stroke="blue" points="214.92624354617692,264.9157773869211 247.15846451508864,205.70624750263718 "/><polyline class="polyline" opacity="0.5" stroke="blue" points="216.2007603926389,264.93300438225947 247.53700484343307,205.27772246523637 "/><polyline class="polyline" opacity="0.5" stroke="blue" points="217.46332043745173,264.9198672409227 247.88009332654227,204.8380809674021 "/><polyline class="polyline" opacity="0.5" stroke="blue" points="218.713326002303,264.87653092856266 248.1881393333135,204.38830010843563 "/><polyline class="polyline" opacity="0.5" stroke="blue" points="219.95019310323698,264.80317748291 248.46157479821306,203.9293456333083 "/><polyline class="polyline" opacity="0.5" stroke="blue" points="221.1733517070512,264.70000557070364 248.70085308228002,203.46217117585533 "/><polyline class="polyline" opacity="0.5" stroke="blue" points="222.38224596381093,264.56723003449457 248.9064478588923,202.98771754675153 "/><polyline class="polyline" opacity="0.5" stroke="blue" points="223.57633441574612,264.4050814304548 249.07885202500177,202.50691206450574 "/><polyline class="polyline" opacity="0.5" stroke="blue" points="224.75509018284646,264.2138055583121 249.21857663837548,202.0206679276921 "/><polyline class="polyline" opacity="0.5" stroke="blue" points="225.91800112551707,263.99366298450934 249.32614988122606,201.52988362663072 "/><polyline class="polyline" opacity="0.5" stroke="blue" points="227.06456998470156,263.7449285596712 249.40211605046582,201.03544239273043 "/><polyline class="polyline" opacity="0.5" stroke="blue" points="228.1943144999193,263.4678909314366 249.44703457468336,200.53821168371923 "/><polyline class="polyline" opacity="0.5" stroke="blue" points="229.30676750570393,263.16285205369144 249.46147905781578,200.03904270300734 "/><polyline class="polyline" opacity="0.5" stroke="blue" points="230.40147700696372,262.8301266932084 249.44603634937357,199.53876995145612 "/><polyline class="polyline" opacity="0.5" stroke="blue" points="231.47800623381772,262.4700419346725 249.4013056409674,199.03821080985884 "/><polyline class="polyline" opacity="0.5" stroke="blue" points="232.5359336764921,262.0829366850395 249.32789758879196,198.53816515048186 "/><polyline class="polyline" opacity="0.5" stroke="blue" points="233.57485310088464,261.6691611781419 249.22643346163093,198.0394149760603 "/><polyline class="polyline" opacity="0.5" stroke="blue" points="234.594373545433,261.2290764804234 249.09754431387128,197.5427240846935 "/><polyline class="polyline" opacity="0.5" stroke="blue" points="235.59411929994002,260.7630539986484 248.94187018294292,197.04883775914257 "/><polyline class="polyline" opacity="0.5" stroke="blue" points="236.5737298670294,260.27147499039575 248.7600593105386,196.55848247909015 "/><polyline class="polyline" opacity="0.5" stroke="blue" points="237.53285990691882,259.7547300781083 248.55276738691458,196.07236565498866 "/><polyline class="polyline" opacity="0.5" stroke="blue" points="238.4711791662122,259.2132187674351 248.32065681752675,195.5911753821863 "/><polyline class="polyline" opacity="0.5" stroke="blue" points="239.38837239142086,258.6473489705611 248.0643960112163,195.115580214091 "/><polyline class="polyline" opacity="0.5" stroke="blue" points="240.28413922793266,258.05753653518286 247.78465868912895,194.64622895320235 "/><polyline class="polyline" opacity="0.5" stroke="blue" points="241.15819410515218,257.44420477974967 247.4821232135236,194.18375045891327 "/><polyline class="polyline" opacity="0.5" stroke="blue" points="242.01026610853916,256.80778403554876 247.15747193560887,193.72875347105756 "/><polyline class="polyline" opacity="0.5" stroke="blue" points="242.8400988392719,256.14871119617794 246.81139056153177,193.281826448253 "/><polyline class="polyline" opacity="0.5" stroke="blue" points="243.64745026226186,255.46742927490652 246.44456753563495,192.8435374201659 "/><polyline class="polyline" opacity="0.5" stroke="blue" points="244.43209254324253,254.76438697038932 246.0576934400962,192.41443385289537 "/><polyline class="polyline" opacity="0.5" stroke="blue" points="245.1938118756498,254.04003824116157 245.65146041006824,191.99504252675442 "/><polyline class="polyline" opacity="0.5" stroke="blue" points="245.93240829800448,253.29484188930132 245.22656156344118,191.58586942579635 "/><polyline class="polyline" opacity="0.5" stroke="blue" points="246.64769550249957,252.52926115361532 244.78369044436505,191.18739963851073 "/><polyline class="polyline" opacity="0.5" stroke="blue" points="247.33950063548448,251.74376331266203 244.32354047968388,190.80009726918624 "/><polyline class="polyline" opacity="0.5" stroke="blue" points="248.00766409052605,250.93881929789603 243.8468044474539,190.42440535950936 "/><polyline class="polyline" opacity="0.5" stroke="blue" points="248.6520392947163,250.11490331717988 243.35417395674102,190.06074582003944 "/><polyline class="polyline" opacity="0.5" stroke="blue" points="249.2724924888791,249.2724924888791 242.84633893792167,189.70951937126924 "/><polyline class="polyline" opacity="0.5" stroke="blue" points="249.8689025023164,248.4120664867217 242.3239871427401,189.37110549404835 "/><polyline class="polyline" opacity="0.5" stroke="blue" points="250.4411605227175,247.53410719557468 241.78780365340972,189.04586238921226 "/><polyline class="polyline" opacity="0.5" stroke="blue" points="250.98916986183713,246.63909837825796 241.23847040008107,188.7341269463241 "/><polyline class="polyline" opacity="0.5" stroke="blue" points="251.51284571753226,245.7275253534898 240.67666568603997,188.43621472149633 "/><polyline class="polyline" opacity="0.5" stroke="blue" points="252.0121149327292,244.7998746850269 240.10306372003785,188.15241992432033 "/><polyline class="polyline" opacity="0.5" stroke="blue" points="252.48691575187274,243.85663388204037 239.51833415520264,187.88301541398695 "/><polyline class="polyline" opacity="0.5" stroke="blue" points="252.9371975753912,242.89829111073902 238.92314163402136,187.6282527047357 "/><polyline class="polyline" opacity="0.5" stroke="blue" points="253.3629207126912,241.92533491723088 238.318145338934,187.38836198082052 "/><polyline class="polyline" opacity="0.5" stroke="blue" points="253.76405613417666,240.93825396158968 237.70399854812734,187.16355212122897 "/><polyline class="polyline" opacity="0.5" stroke="blue" points="254.14058522276594,239.93753676307148 237.0813481961657,186.95401073443497 "/><polyline class="polyline" opacity="0.5" stroke="blue" points="254.4924995253614,238.92367145640748 236.4508344391492,186.7599042035084 "/><polyline class="polyline" opacity="0.5" stroke="blue" points="254.81980050470574,237.8971455590778 235.81309022413984,186.58137774194145 "/><polyline class="polyline" opacity="0.5" stroke="blue" points="255.12249929203807,236.8584457494568 235.16874086265108,186.41855546058736 "/><polyline class="polyline" opacity="0.5" stroke="blue" points="255.40061644094487,235.8080576556991 234.5184036080483,186.27154044613724 "/><polyline class="polyline" opacity="0.5" stroke="blue" points="255.65418168277864,234.74646565522485 233.86268723676295,186.14041485158862 "/><polyline class="polyline" opacity="0.5" stroke="blue" points="255.88323368399858,233.67415268464464 233.20219163327656,186.02523999918202 "/><polyline class="polyline" opacity="0.5" stroke="blue" points="256.087819805768,232.59160005995318 232.5375073788852,185.9260564963018 "/><polyline class="polyline" opacity="0.5" stroke="blue" points="256.26799586612395,231.49928730680813 231.8692153443098,185.84288436485267 "/><polyline class="polyline" opacity="0.5" stroke="blue" points="256.4238259050144,230.39769200069915 231.19788628626938,185.77572318463442 "/><polyline class="polyline" opacity="0.5" stroke="blue" points="256.55538195248187,229.2872896168031 230.52408044819074,185.7245522512445 "/><polyline class="polyline" opacity="0.5" stroke="blue" points="256.6627438002522,228.16855338930966 229.84834716527564,185.68933074904152 "/><polyline class="polyline" opacity="0.5" stroke="blue" points="256.74599877697034,227.04195417999733 229.17122447420286,185.66999793970035 "/><polyline class="polyline" opacity="0.5" stroke="blue" points="256.80524152730703,225.90796035582812 228.49323872778768,185.66647336688436 "/><polyline class="polyline" opacity="0.5" stroke="blue" points="256.8405737951441,224.76703767532675 227.8149042149742,185.6786570775504 "/><polyline class="polyline" opacity="0.5" stroke="blue" points="256.8521042110291,223.61964918350097 227.13672278657853,185.70642986038683 "/><polyline class="polyline" opacity="0.5" stroke="blue" points="256.83994808407334,222.46625511505817 226.45918348724976,185.74965350186764 "/><polyline class="polyline" opacity="0.5" stroke="blue" points="256.8042271984546,221.3073128056659 225.7827621941553,185.80817106038074 "/><polyline class="polyline" opacity="0.5" stroke="blue" points="256.745069614666,220.14327661100413 225.10792126294024,185.88180715886304 "/><polyline class="polyline" opacity="0.5" stroke="blue" points="256.66260947564405,218.97459783335057 224.43510918154615,185.97036829634197 "/><polyline class="polyline" opacity="0.5" stroke="blue" points="256.5569868178891,217.80172465544186 223.7647602325124,186.07364317874865 "/><polyline class="polyline" opacity="0.5" stroke="blue" points="256.4283473876833,216.6251020813489 223.09729416441348,186.19140306932698 "/><polyline class="polyline" opacity="0.5" stroke="blue" points="256.27684246249396,215.44517188410603 222.43311587311675,186.3234021589207 "/><polyline class="polyline" opacity="0.5" stroke="blue" points="256.1026286776405,214.2623725598312 221.7726150935698,186.46937795637228 "/><polyline class="polyline" opacity="0.5" stroke="blue" points="255.90586785829038,213.07713928807595 221.1161661028504,186.62905169921717 "/><polyline class="polyline" opacity="0.5" stroke="blue" points="255.6867268568387,211.88990389814444 220.46412743523013,186.80212878480185 "/><polyline class="polyline" opacity="0.5" stroke="blue" points="255.4453773957139,210.70109484111907 219.8168416100183,186.98829922189802 "/><polyline class="polyline" opacity="0.5" stroke="blue" points="255.1819959156438,209.51113716733593 219.17463487296462,187.18723810282341 "/><polyline class="polyline" opacity="0.5" stroke="blue" points="254.89676342940476,208.3204525090507 218.53781695200493,187.3986060960174 "/><polyline class="polyline" opacity="0.5" stroke="blue" points="254.5898653810676,207.12945906804012 217.90668082813988,187.62204995895397 "/><polyline class="polyline" opacity="0.5" stroke="blue" points="254.26149151074634,205.93857160788485 217.28150252223222,187.8572030712061 "/><polyline class="polyline" opacity="0.5" stroke="blue" points="253.91183572484564,204.74820145068378 216.66254089850625,188.1036859874073 "/><polyline class="polyline" opacity="0.5" stroke="blue" points="253.54109597179553,203.55875647794971 216.0500374855207,188.36110700978327 "/><polyline class="polyline" opacity="0.5" stroke="blue" points="253.14947412325552,202.3706411354426 215.4442163153741,188.62906277985596 "/><polyline class="polyline" opacity="0.5" stroke="blue" points="252.73717586076117,201.18425644169614 214.84528378188142,188.90713888884807 "/><polyline class="polyline" opacity="0.5" stroke="blue" points="252.3044105677809,200.0 214.2534285184404,189.19491050624222 "/><polyline class="polyline" opacity="0.5" stroke="blue" points="251.8513912271438,198.81826601360044 213.66882129627587,189.4919430258769 "/><polyline class="polyline" opacity="0.5" stroke="blue" points="251.378334323793,197.63944530388702 213.09161494372185,189.7977927288857 "/><polyline class="polyline" opacity="0.5" stroke="blue" points="250.88545975281488,196.46392533133687 212.52194428716345,190.1120074627153 "/><polyline class="polyline" opacity="0.5" stroke="blue" points="250.37299073268647,195.2920902189904 211.9599261142222,190.43412733538548 "/><polyline class="polyline" opacity="0.5" stroke="blue" points="249.84115372368197,194.12432077823686 211.40565915972493,190.7636854240842 "/><polyline class="polyline" opacity="0.5" stroke="blue" points="249.2901783513704,192.96099453669115 210.85922411494775,191.10020849712288 "/><polyline class="polyline" opacity="0.5" stroke="blue" points="248.7202973351361,191.8024857679481 210.32068366057786,191.443217748211 "/><polyline class="polyline" opacity="0.5" stroke="blue" points="248.13174642164648,190.64916552300244 209.7900825237798,191.792229541946 "/><polyline class="polyline" opacity="0.5" stroke="blue" points="247.5247643231894,189.5014016631283 209.26744755969705,192.14675616935435 "/><polyline class="polyline" opacity="0.5" stroke="blue" points="246.89959266079757,188.35955889401328 208.7527878576579,192.50630661226305 "/><polyline class="polyline" opacity="0.5" stroke="blue" points="246.25647591207542,187.22399880094915 208.2460948722943,192.87038731522776 "/><polyline class="polyline" opacity="0.5" stroke="blue" points="245.59566136363884,186.0950798848806 207.74734257971443,193.23850296369574 "/><polyline class="polyline" opacity="0.5" stroke="blue" points="244.91739906807658,184.97315759912146 207.25648765880544,193.61015726703644 "/><polyline class="polyline" opacity="0.5" stroke="blue" points="244.22194180533802,183.85858438654702 206.77346969767214,193.98485374503443 "/><polyline class="polyline" opacity="0.5" stroke="blue" points="243.5095450484508,182.7517097170783 206.2982114251488,194.36209651640408 "/><polyline class="polyline" opacity="0.5" stroke="blue" points="242.78046693346676,181.65288012527424 205.83061896724982,194.74139108785647 "/><polyline class="polyline" opacity="0.5" stroke="blue" points="242.03496823353484,180.56243924785332 205.37058212835356,195.12224514222586 "/><polyline class="polyline" opacity="0.5" stroke="blue" points="241.27331233699516,179.48072786096859 204.91797469684235,195.50416932414413 "/><polyline class="polyline" opacity="0.5" stroke="blue" points="240.49576522938716,178.40808391706193 204.4726547748498,195.8866780217412 "/><polyline class="polyline" opacity="0.5" stroke="blue" points="239.70259547926207,177.34484258112906 204.0344651316962,196.269290142841 "/><polyline class="polyline" opacity="0.5" stroke="blue" points="238.894074227688,176.29133626622655 203.60323358052239,196.6515298841251 "/><polyline class="polyline" opacity="0.5" stroke="blue" points="238.07047518133393,175.24789466805817 203.1787733775637,197.03292749173963 "/><polyline class="polyline" opacity="0.5" stroke="blue" points="237.23207460901654,174.21484479847737 202.76088364343954,197.41302001183527 "/><polyline class="polyline" opacity="0.5" stroke="blue" points="236.37915134159158,173.19251101774847 202.3493498057683,197.7913520295466 "/><polyline class="polyline" opacity="0.5" stroke="blue" points="235.51198677507037,172.18121506540905 201.9439440623546,198.16747639494253 "/><polyline class="polyline" opacity="0.5" stroke="blue" points="234.63086487683915,171.18127608958062 201.5444258641375,198.54095493450845 "/><polyline class="polyline" opacity="0.5" stroke="blue" points="233.73607219485686,170.1930106745753 201.15054241702938,198.91135914675763 "/><polyline class="polyline" opacity="0.5" stroke="blue" points="232.8278978697064,169.21673286665032 200.7620292017238,199.2782708806094 "/><polyline class="polyline" opacity="0.5" stroke="blue" points="231.9066336493695,168.25275419776233 200.37861051049916,199.64128299521968 "/><polyline class="polyline" opacity="0.5" stroke="blue" points="230.97257390659723,167.30138370717822 200.0,200.0 "/><polyline class="polyline" opacity="0.5" stroke="blue" points="230.0260156587421,166.36292796079857 199.62590125893547,200.35403867361896 "/><polyline class="polyline" opacity="0.5" stroke="blue" points="229.06725858991746,165.43769106805377 199.25600838959647,200.70302866084006 "/><polyline class="polyline" opacity="0.5" stroke="blue" points="228.0966050753496,164.5259746962352 198.89000660206125,201.0466130461159 "/><polyline class="polyline" opacity="0.5" stroke="blue" points="227.11436020778018,163.628078082123 198.52757281992857,201.38444890292791 "/><polyline class="polyline" opacity="0.5" stroke="blue" points="226.12083182578112,162.7442980407779 198.1683762963956,201.7162078179334 "/><polyline class="polyline" opacity="0.5" stroke="blue" points="225.11633054383577,161.87492897136264 197.81207923947787,202.0415763890567 "/><polyline class="polyline" opacity="0.5" stroke="blue" points="224.10116978404184,161.02026285986403 197.4583374451547,202.36025669674126 "/><polyline class="polyline" opacity="0.5" stroke="blue" points="223.0756658092865,160.1805892785846 197.10680093721396,202.67196674765842 "/><polyline class="polyline" opacity="0.5" stroke="blue" points="222.04013775774263,159.35619538227883 196.75711461256654,202.9764408902519 "/><polyline class="polyline" opacity="0.5" stroke="blue" points="220.99490767853183,158.5473659008074 196.40891889080063,203.2734302015813 "/><polyline class="polyline" opacity="0.5" stroke="blue" points="219.94030056839813,157.7543831281866 196.06185036675177,203.5627028450116 "/><polyline class="polyline" opacity="0.5" stroke="blue" points="218.87664440923098,156.97752690791182 195.71554246487463,203.84404439838173 "/><polyline class="polyline" opacity="0.5" stroke="blue" points="217.80427020627675,156.21707461443577 195.36962609421724,204.11725815237048 "/><polyline class="polyline" opacity="0.5" stroke="blue" points="216.72351202687076,155.47330113068335 195.0237303028169,204.3821653788628 "/><polyline class="polyline" opacity="0.5" stroke="blue" points="215.63470703952225,154.7464788214892 194.67748293036192,204.6386055692035 "/><polyline class="polyline" opacity="0.5" stroke="blue" points="214.53819555317955,154.03687750284416 194.33051125798903,204.886436642309 "/><polyline class="polyline" opacity="0.5" stroke="blue" points="213.43432105649873,153.3447644068398 193.98244265411884,205.12553512268852 "/><polyline class="polyline" opacity="0.5" stroke="blue" points="212.32343025693837,152.67040414220386 193.63290521526676,205.3557962885057 "/><polyline class="polyline" opacity="0.5" stroke="blue" points="211.20587311949575,152.01405865031907 193.28152840080446,205.57713428988893 "/><polyline class="polyline" opacity="0.5" stroke="blue" points="210.0820029048999,151.37598715662432 192.92794366068944,205.78948223777238 "/><polyline class="polyline" opacity="0.5" stroke="blue" points="208.95217620707018,150.756446117296 192.57178505522393,205.9927922636224 "/><polyline class="polyline" opacity="0.5" stroke="blue" points="207.81675298964782,150.15568916111403 192.21268986595197,206.1870355504705 "/><polyline class="polyline" opacity="0.5" stroke="blue" points="206.67609662140165,149.57396702641725 191.85029919685212,206.3722023357403 "/><polyline class="polyline" opacity="0.5" stroke="blue" points="205.53057391030825,149.01152749305825 191.48425856503516,206.54830188641563 "/><polyline class="polyline" opacity="0.5" stroke="blue" points="204.3805551360996,148.46861530927063 191.1142184802086,206.71536244715418 "/><polyline class="polyline" opacity="0.5" stroke="blue" points="203.22641408107086,147.94547211336533 190.73983501222403,206.87343116200418 "/><polyline class="polyline" opacity="0.5" stroke="blue" points="202.06852805893362,147.4423363501769 190.3607703460791,207.02257397042956 "/><polyline class="polyline" opacity="0.5" stroke="blue" points="200.90727794149942,146.95944318218648 189.97669332380153,207.16287547839315 "/><polyline class="polyline" opacity="0.5" stroke="blue" points="199.7430481829708,146.49702439524899 189.58727997269892,207.29443880528697 "/><polyline class="polyline" opacity="0.5" stroke="blue" points="198.57622684161691,146.05530829886288 189.19221401951566,207.41738540753394 "/><polyline class="polyline" opacity="0.5" stroke="blue" points="197.40720559860452,145.63451962092023 188.79118739009363,207.53185487971504 "/><polyline class="polyline" opacity="0.5" stroke="blue" points="196.23637977375122,145.23487939688485 188.38390069418998,207.63800473410151 "/><polyline class="polyline" opacity="0.5" stroke="blue" points="195.06414833796686,144.8566048533503 187.9700636951612,207.73601015949393 "/><polyline class="polyline" opacity="0.5" stroke="blue" points="193.89091392214124,144.499909285936 187.54939576427577,207.826063760284 "/><polyline class="polyline" opacity="0.5" stroke="blue" points="192.7170828222375,144.16500193148786 187.12162631947288,207.90837527667006 "/><polyline class="polyline" opacity="0.5" stroke="blue" points="191.54306500034247,143.8520878345547 186.68649524843454,207.98317128696104 "/><polyline class="polyline" opacity="0.5" stroke="blue" points="190.36927408142643,143.56136770812262 186.24375331589073,208.05069489291017 "/><polyline class="polyline" opacity="0.5" stroke="blue" points="189.1961273455583,143.29303778859418 185.79316255512336,208.11120538901605 "/><polyline class="polyline" opacity="0.5" stroke="blue" points="188.02404571532253,143.04728968501047 185.3344966436839,208.1649779167249 "/><polyline class="polyline" opacity="0.5" stroke="blue" points="186.85345373817808,142.82431022252203 184.86754126338116,208.21230310445816 "/><polyline class="polyline" opacity="0.5" stroke="blue" points="185.68477956350165,142.62428128012385 184.39209444463958,208.25348669437702 "/><polyline class="polyline" opacity="0.5" stroke="blue" points="184.51845491405146,142.44737962268073 183.90796689536688,208.2888491567785 "/><polyline class="polyline" opacity="0.5" stroke="blue" points="183.35491505158947,142.2937767272793 183.41498231450726,208.3187252929986 "/><polyline class="polyline" opacity="0.5" stroke="blue" points="182.1945987363965,142.16363860395344 182.91297769048973,208.34346382767464 "/><polyline class="polyline" opacity="0.5" stroke="blue" points="181.03794818041516,142.05712561084295 182.40180358481422,208.36342699119288 "/><polyline class="polyline" opacity="0.5" stroke="blue" points="179.8854089937553,141.97439226385623 181.88132440104496,208.37899009311903 "/><polyline class="polyline" opacity="0.5" stroke="blue" points="178.73743012429452,141.91558704092083 181.35141863950696,208.39054108737818 "/><polyline class="polyline" opacity="0.5" stroke="blue" points="177.59446379011112,141.88085218091922 180.8119791380051,208.39848012991678 "/><polyline class="polyline" opacity="0.5" stroke="blue" points="176.45696540448316,141.8703234774208 180.26291329890356,208.40321912954408 "/><polyline class="polyline" opacity="0.5" stroke="blue" points="175.32539349319305,141.88413006733552 179.70414330292138,208.40518129261284 "/><polyline class="polyline" opacity="0.5" stroke="blue" points="174.20020960387677,141.92239421462926 179.135606310013,208.40480066215997 "/><polyline class="polyline" opacity="0.5" stroke="blue" points="173.0818782071619,141.98523108925718 178.55725464771442,208.40252165208798 "/><polyline class="polyline" opacity="0.5" stroke="blue" points="171.97086658934006,142.07274854148642 177.96905598734196,208.39879857692563 "/><polyline class="polyline" opacity="0.5" stroke="blue" points="170.86764473632667,142.1850468717971 177.37099350843764,208.39409517766387 "/><polyline class="polyline" opacity="0.5" stroke="blue" points="169.77268520866338,142.32221859656687 176.76306605185525,208.38888414412068 "/><polyline class="polyline" opacity="0.5" stroke="blue" points="168.68646300732664,142.48434820976175 176.14528826188226,208.3836466342434 "/><polyline class="polyline" opacity="0.5" stroke="blue" points="167.6094554301119,142.67151194087563 175.51769071778753,208.3788717907138 "/><polyline class="polyline" opacity="0.5" stroke="blue" points="166.5421419183706,142.88377750937667 174.88032005517982,208.3750562551767 "/><polyline class="polyline" opacity="0.5" stroke="blue" points="165.48500389388724,143.12120387594067 174.23323907755264,208.37270368036874 "/><polyline class="polyline" opacity="0.5" stroke="blue" points="164.43852458569114,143.38384099076885 173.57652685837922,208.3723242403796 "/><polyline class="polyline" opacity="0.5" stroke="blue" points="163.40318884661116,143.6717295393084 172.91027883410806,208.37443413923558 "/><polyline class="polyline" opacity="0.5" stroke="blue" points="162.3794829593907,143.98490068571317 172.23460688839242,208.37955511795099 "/><polyline class="polyline" opacity="0.5" stroke="blue" points="161.36789443219624,144.32337581440447 171.54963942786907,208.38821396015197 "/><polyline class="polyline" opacity="0.5" stroke="blue" points="160.36891178336253,144.68716627010937 170.85552144977947,208.40094199633577 "/><polyline class="polyline" opacity="0.5" stroke="blue" points="159.38302431523817,145.07627309677804 170.15241460170517,208.41827460678786 "/><polyline class="polyline" opacity="0.5" stroke="blue" points="158.41072187700564,145.49068677580064 169.44049723366166,208.44075072314135 "/><polyline class="polyline" opacity="0.5" stroke="blue" points="157.45249461637286,145.9303869639659 168.71996444277025,208.46891232852497 "/><polyline class="polyline" opacity="0.5" stroke="blue" points="156.50883272004737,146.3953422316255 167.991028110696,208.50330395621023 "/><polyline class="polyline" opacity="0.5" stroke="blue" points="155.58022614292847,146.88550980154776 167.25391693401144,208.54447218663339 "/><polyline class="polyline" opacity="0.5" stroke="blue" points="154.6671643259695,147.4008352889675 166.5088764476102,208.59296514263627 "/><polyline class="polyline" opacity="0.5" stroke="blue" points="153.77013590268936,147.941252443357 165.75616904126434,208.6493319827387 "/><polyline class="polyline" opacity="0.5" stroke="blue" points="152.88962839433114,148.5066828924665 164.99607396937984,208.7141223922257 "/><polyline class="polyline" opacity="0.5" stroke="blue" points="152.026127893696,149.09703588919993 164.2288873539705,208.7878860718082 "/><polyline class="polyline" opacity="0.5" stroke="blue" points="151.18011873770172,149.71220806191388 163.45492218083155,208.87117222358833 "/><polyline class="polyline" opacity="0.5" stroke="blue" points="150.35208316874525,150.35208316874525 162.67450828885336,208.96452903404204 "/><polyline class="polyline" opacity="0.5" stroke="blue" points="149.54250098497815,151.01653185659197 161.88799235237877,209.06850315370858 "/><polyline class="polyline" opacity="0.5" stroke="blue" points="148.75184917962918,151.70541142539034 161.0957378564616,209.18363917326118 "/><polyline class="polyline" opacity="0.5" stroke="blue" points="147.9806015695456,152.41856559834662 160.29812506484643,209.31047909561832 "/><polyline class="polyline" opacity="0.5" stroke="blue" points="147.2292284131501,153.15582429879987 159.495550980443,209.44956180374277 "/><polyline class="polyline" opacity="0.5" stroke="blue" points="146.4981960180489,153.91700343440513 158.6884292980277,209.6014225237663 "/><polyline class="polyline" opacity="0.5" stroke="blue" points="145.78796633855558,154.70190468934183 157.87719034885902,209.7665922830725 "/><polyline class="polyline" opacity="0.5" stroke="blue" points="145.0989965634356,155.51031532526272 157.062281036851,209.94559736296637 "/><polyline class="polyline" opacity="0.5" stroke="blue" points="144.4317386942069,156.34200799171205 156.24416476590253,210.13895874555882 "/><polyline class="polyline" opacity="0.5" stroke="blue" points="143.78663911437187,157.19674054674869 155.42332135793717,210.3471915544984 "/><polyline class="polyline" opacity="0.5" stroke="blue" points="143.1641381499935,158.07425588851947 154.60024696116338,210.57080448918728 "/><polyline class="polyline" opacity="0.5" stroke="blue" points="142.5646696220627,158.97428179853307 153.77545394801908,210.81029925212968 "/><polyline class="polyline" opacity="0.5" stroke="blue" points="141.98866039114822,159.89653079738895 152.94947080222406,211.06616996907232 "/><polyline class="polyline" opacity="0.5" stroke="blue" points="141.43652989485238,160.84070001371828 152.12284199431565,211.33890260161465 "/><polyline class="polyline" opacity="0.5" stroke="blue" points="140.9086896786405,161.80647106709418 151.29612784500412,211.6289743519855 "/><polyline class="polyline" opacity="0.5" stroke="blue" points="140.40554292064837,162.79350996566342 150.46990437564136,211.93685305970678 "/><polyline class="polyline" opacity="0.5" stroke="blue" points="139.9274839511104,163.801467019252 149.64476314505325,212.26299658989316 "/><polyline class="polyline" opacity="0.5" stroke="blue" points="139.47489776709276,164.8299767686846 148.8213110719509,212.60785221296717 "/><polyline class="polyline" opacity="0.5" stroke="blue" points="139.04815954325102,165.87865793205262 148.00017024209293,212.97185597560514 "/><polyline class="polyline" opacity="0.5" stroke="blue" points="138.64763413937334,166.94711336864881 147.1819776993397,213.35543206276768 "/><polyline class="polyline" opacity="0.5" stroke="blue" points="138.2736756055039,168.03493006127584 146.36738521970008,213.7589921507132 "/><polyline class="polyline" opacity="0.5" stroke="blue" points="137.92662668548147,169.14167911761479 145.55705906744487,214.18293475093898 "/><polyline class="polyline" opacity="0.5" stroke="blue" points="137.60681831976012,170.26691579132034 144.75167973232573,214.62764454504656 "/><polyline class="polyline" opacity="0.5" stroke="blue" points="137.31456914841735,171.4101795234846 143.95194164691597,215.0934917105835 "/><polyline class="polyline" opacity="0.5" stroke="blue" points="137.05018501528275,172.57099400508645 143.1585528830606,215.580831237974 "/><polyline class="polyline" opacity="0.5" stroke="blue" points="136.81395847415692,173.74886726101136 142.37223482640567,216.09000223871428 "/><polyline class="polyline" opacity="0.5" stroke="blue" points="136.60616829811573,174.943291756196 141.5937218279568,216.62132724507782 "/><polyline class="polyline" opacity="0.5" stroke="blue" points="136.42707899292532,176.15374452441318 140.82376083160483,217.17511150164628 "/><polyline class="polyline" opacity="0.5" stroke="blue" points="136.2769403156169,177.37968732017728 140.0631109765452,217.75164224906135 "/><polyline class="polyline" opacity="0.5" stroke="blue" points="136.15598679929417,178.6205667942061 139.31254317351343,218.3511880004708 "/><polyline class="polyline" opacity="0.5" stroke="blue" points="136.0644372852665,179.8758146928292 138.57283965375944,218.97399781122817 "/><polyline class="polyline" opacity="0.5" stroke="blue" points="136.00249446361883,181.14484808168848 137.84479348968586,219.6203005424938 "/><polyline class="polyline" opacity="0.5" stroke="blue" points="135.9703444233429,182.42706959402227 137.12920808608874,220.29030411947778 "/><polyline class="polyline" opacity="0.5" stroke="blue" points="135.96815621316807,183.72186770377346 136.42689664095232,220.98419478516124 "/><polyline class="polyline" opacity="0.5" stroke="blue" points="135.9960814142359,185.0286170237032 135.7386815747746,221.70213635043064 "/><polyline class="polyline" opacity="0.5" stroke="blue" points="136.05425372576923,186.34667862863705 135.06539392742627,222.4442694416655 "/><polyline class="polyline" opacity="0.5" stroke="blue" points="136.14278856488698,187.67540040390523 134.4078727215841,223.21071074692264 "/><polyline class="polyline" opacity="0.5" stroke="blue" points="136.261782681713,189.01411741897812 133.76696429182067,224.0015522619703 "/><polyline class="polyline" opacity="0.5" stroke="blue" points="136.41131379092224,190.3621523262306 133.1435215784843,224.81686053753526 "/><polyline class="polyline" opacity="0.5" stroke="blue" points="136.59144022085508,191.71881578470476 132.53840338556017,225.65667592923964 "/><polyline class="polyline" opacity="0.5" stroke="blue" points="136.80220058131803,193.08340690866822 131.95247360177075,226.52101185181832 "/><polyline class="polyline" opacity="0.5" stroke="blue" points="137.04361345116902,194.45521374069622 131.3866003842491,227.40985403932183 "/><polyline class="polyline" opacity="0.5" stroke="blue" points="137.31567708676357,195.83351374893627 130.84165530420083,228.32315981312843 "/><polyline class="polyline" opacity="0.5" stroke="blue" points="137.61836915230998,197.21757434813784 130.31851245406426,229.26085735970273 "/><polyline class="polyline" opacity="0.5" stroke="blue" points="137.95164647315084,198.60665344396108 129.81804751577988,230.22284502015512 "/><polyline class="polyline" opacity="0.5" stroke="blue" points="138.3154448129527,200.0 129.34113678989087,231.20899059376964 "/><polyline class="polyline" opacity="0.5" stroke="blue" points="138.70967867574404,201.39685462688817 128.88865618531685,232.21913065778253 "/><polyline class="polyline" opacity="0.5" stroke="blue" points="139.13424113369996,202.79645019277686 128.46148016977276,233.2530699058014 "/><polyline class="polyline" opacity="0.5" stroke="blue" points="139.58900368152158,204.19801245440567 128.06048068094495,234.31058050736289 "/><polyline class="polyline" opacity="0.5" stroke="blue" points="140.0738161182054,205.60076070791274 127.68652599868423,235.39140149122872 "/><polyline class="polyline" opacity="0.5" stroke="blue" points="140.58850645694363,207.00390845846312 127.34047957863412,236.49523815511773 "/><polyline class="polyline" opacity="0.5" stroke="blue" points="141.13288086383437,208.40666410770257 127.02319884787971,237.62176150466274 "/><polyline class="polyline" opacity="0.5" stroke="blue" points="141.70672362601607,209.8082316579798 126.7355339633789,238.7706077244661 "/><polyline class="polyline" opacity="0.5" stroke="blue" points="142.3097971497758,211.20781143221205 126.4783265341224,239.94137768420188 "/><polyline class="polyline" opacity="0.5" stroke="blue" points="142.94184198910722,212.60460080821122 126.25240830816085,241.13363648278573 "/><polyline class="polyline" opacity="0.5" stroke="blue" points="143.60257690512373,213.99779496622514 126.05859982583885,242.346913033686 "/><polyline class="polyline" opacity="0.5" stroke="blue" points="144.29169895665152,215.38658764839258 125.89770904078328,243.58069969449858 "/><polyline class="polyline" opacity="0.5" stroke="blue" points="145.00888362225362,216.77017192876127 125.77052991040539,244.83445194394486 "/><polyline class="polyline" opacity="0.5" stroke="blue" points="145.75378495384984,218.1477409924655 125.67784095789798,246.10758810947172 "/><polyline class="polyline" opacity="0.5" stroke="blue" points="146.5260357620189,219.5184889226186 125.62040380793074,247.39948914864152 "/><polyline class="polyline" opacity="0.5" stroke="blue" points="147.3252478329797,220.88161149343196 125.59896169847671,248.70949848749223 "/><polyline class="polyline" opacity="0.5" stroke="blue" points="148.15101217716872,222.23630696804082 125.6142379714305,250.03692191902718 "/><polyline class="polyline" opacity="0.5" stroke="blue" points="149.00289930923788,223.58177689948195 125.66693454491376,251.3810275649514 "/><polyline class="polyline" opacity="0.5" stroke="blue" points="149.88045955921518,224.91722693324613 125.7577303703924,252.74104590371485 "/><polyline class="polyline" opacity="0.5" stroke="blue" points="150.7832234144786,226.24186760980422 125.88727987796204,254.11616986784603 "/><polyline class="polyline" opacity="0.5" stroke="blue" points="151.71070189211136,227.55491516549446 126.05621141338676,255.505555013465 "/><polyline class="polyline" opacity="0.5" stroke="blue" points="152.66238694111593,228.85559233014504 126.26512567069696,256.9083197647469 "/><polyline class="polyline" opacity="0.5" stroke="blue" points="153.6377518738823,230.14312911980522 126.51459412437343,258.323545735973 "/><polyline class="polyline" opacity="0.5" stroke="blue" points="154.636251826219,231.416763622956 126.80515746535141,259.75027813364505 "/><polyline class="polyline" opacity="0.5" stroke="blue" points="155.65732424517591,232.67574277858324 127.13732404528069,261.18752624096527 "/><polyline class="polyline" opacity="0.5" stroke="blue" points="156.70038940380715,233.91932314450568 127.51156833366738,262.6342639867795 "/><polyline class="polyline" opacity="0.5" stroke="blue" points="157.76485094194186,235.1467716543695 127.92832939269712,264.08943060085915 "/><polyline class="polyline" opacity="0.5" stroke="blue" points="158.85009643196224,236.35736636174707 128.38800937470378,265.5519313571583 "/><polyline class="polyline" opacity="0.5" stroke="blue" points="159.9554979685104,237.55039716980616 128.8909720473896,267.02063840641284 "/><polyline class="polyline" opacity="0.5" stroke="blue" points="161.08041278098207,238.72516654505185 129.43754135202988,268.49439169916616 "/><polyline class="polyline" opacity="0.5" stroke="blue" points="162.22418386759875,239.8809902136829 130.02800000000002,269.972 "/><polyline class="polyline" opacity="0.5" stroke="blue" points="163.38614064979214,241.01719783915325 130.6625881130464,271.4522419934254 "/><polyline class="polyline" opacity="0.5" stroke="blue" points="164.56559964557732,242.13313367957687 131.34150191278076,272.93386748154603 "/><polyline class="polyline" opacity="0.5" stroke="blue" points="165.7618651605419,243.2281572236726 132.0648924649114,274.415598673247 "/><polyline class="polyline" opacity="0.5" stroke="blue" points="166.97422999503067,244.30164380400302 132.83286448373082,275.8961315642883 "/><polyline class="polyline" opacity="0.5" stroke="blue" points="168.20197616606697,245.3529851863295 133.64547520235692,277.37413740729534 "/><polyline class="polyline" opacity="0.5" stroke="blue" points="169.44437564251416,246.38159013397026 134.50273331417293,278.8482642702379 "/><polyline class="polyline" opacity="0.5" stroke="blue" points="170.70069109195157,247.38688494612333 135.40459799082817,280.3171386815818 "/><polyline class="polyline" opacity="0.5" stroke="blue" points="171.97017663771302,248.36831396918828 136.35097798204646,281.7793673598774 "/><polyline class="polyline" opacity="0.5" stroke="blue" points="173.25207862451987,249.32534008020318 137.34173080234342,283.2335390251345 "/><polyline class="polyline" opacity="0.5" stroke="blue" points="174.54563639112342,250.25744514159018 138.37666200957293,284.6782262889027 "/><polyline class="polyline" opacity="0.5" stroke="blue" points="175.85008304836498,251.1641304264877 139.45552458001018,286.1119876195556 "/><polyline class="polyline" opacity="0.5" stroke="blue" points="177.16464626106054,252.04491701403322 140.57801838443365,287.53336937886064 "/><polyline class="polyline" opacity="0.5" stroke="blue" points="178.48854903211853,252.8993461540446 141.74378976939096,288.9409079254956 "/><polyline class="polyline" opacity="0.5" stroke="blue" points="179.8210104873084,253.72697960063866 142.95243124752096,290.3331317807753 "/><polyline class="polyline" opacity="0.5" stroke="blue" points="181.16124665911124,254.52739991440885 144.20348130046574,291.7085638514527 "/><polyline class="polyline" opacity="0.5" stroke="blue" points="182.50847126810473,255.30021073287872 145.49642429753442,293.0657237040891 "/><polyline class="polyline" opacity="0.5" stroke="blue" points="183.8618965003565,256.04503700903047 146.83069053288182,294.40312988512267 "/><polyline class="polyline" opacity="0.5" stroke="blue" points="185.2207337793321,256.7615252177987 148.20565638353912,295.7193022804304 "/><polyline class="polyline" opacity="0.5" stroke="blue" points="186.58419453085398,257.44934353050587 149.62064459018285,297.0127645078666 "/><polyline class="polyline" opacity="0.5" stroke="blue" points="187.95149093969158,258.108181957302 151.07492466205937,298.2820463359732 "/><polyline class="polyline" opacity="0.5" stroke="blue" points="189.32183669640114,258.7377524577539 152.5677134069866,299.5256861218026 "/><polyline class="polyline" opacity="0.5" stroke="blue" points="190.69444773308268,259.337789019815 154.09817558685006,300.7422332605722 "/><polyline class="polyline" opacity="0.5" stroke="blue" points="192.06854294677092,259.90804770748156 155.66542469848508,301.93025063967735 "/><polyline class="polyline" opacity="0.5" stroke="blue" points="193.4433449092337,260.44830667752575 157.2685238793091,303.08831708944325 "/><polyline class="polyline" opacity="0.5" stroke="blue" points="194.81808056200524,260.95836616576383 158.90648693652608,304.21502982288126 "/><polyline class="polyline" opacity="0.5" stroke="blue" points="196.19198189554277,261.43804844339473 160.5782794981823,305.3090068566423 "/><polyline class="polyline" opacity="0.5" stroke="blue" points="197.56428661145995,261.8871977440113 162.28282028381497,306.3688894053329 "/><polyline class="polyline" opacity="0.5" stroke="blue" points="198.93423876685114,262.3056801619498 164.01898249189304,307.39334424136825 "/><polyline class="polyline" opacity="0.5" stroke="blue" points="200.3010893997911,262.69338352270853 165.78559530072215,308.38106601259744 "/><polyline class="polyline" opacity="0.5" stroke="blue" points="201.66409713515935,263.05021722622035 167.58144547896524,309.33077951002826 "/><polyline class="polyline" opacity="0.5" stroke="blue" points="203.02252877001197,263.3761120638198 169.40527910143228,310.2412418781288 "/><polyline class="polyline" opacity="0.5" stroke="blue" points="204.37565983778953,263.671020009794 171.25580336530209,311.11124476036554 "/><polyline class="polyline" opacity="0.5" stroke="blue" points="205.72277515072503,263.9349139884536 173.13168850148446,311.9396163728643 "/><polyline class="polyline" opacity="0.5" stroke="blue" points="207.06316931988263,264.16778761769797 175.03156977538964,312.7252234993513 "/><polyline class="polyline" opacity="0.5" stroke="blue" points="208.39614725233363,264.3696549300894 176.95404957097236,313.46697340084 "/><polyline class="polyline" opacity="0.5" stroke="blue" points="209.72102462504432,264.54055007248166 178.89769955153898,314.16381563387256 "/><polyline class="polyline" opacity="0.5" stroke="blue" points="211.03712833511992,264.6805269852755 180.86106289046728,314.8147437715071 "/><polyline class="polyline" opacity="0.5" stroke="blue" points="212.34379692612197,264.7896590624 182.84265656469145,315.4187970216558 "/><polyline class="polyline" opacity="0.5" stroke="blue" points="213.6403809902411,264.868038793137 184.84097370353612,315.97506173782057 "/><polyline class="polyline" opacity="0.5" stroke="blue" points="214.92624354617686,264.9157773869211 186.8544859852669,316.48267281774474 "/><polyline class="polyline" opacity="0.5" stroke="blue" points="216.2007603926389,264.9330043822595 188.88164607354182,316.9408149859904 "/><polyline class="polyline" opacity="0.5" stroke="blue" points="217.46332043745176,264.9198672409227 190.92089008581888,317.348723956968 "/><polyline class="polyline" opacity="0.5" stroke="blue" points="218.713326002303,264.87653092856266 192.97064008567813,317.7056874754705 "/><polyline class="polyline" opacity="0.5" stroke="blue" points="219.95019310323696,264.80317748291 195.02930659097638,318.0110462323108 "/><polyline class="polyline" opacity="0.5" stroke="blue" points="221.1733517070512,264.70000557070364 197.0952910897453,318.26419465320964 "/><polyline class="polyline" opacity="0.5" stroke="blue" points="222.382245963811,264.5672300344945 199.16698855579466,318.46458155963927 "/><polyline class="polyline" opacity="0.5" stroke="blue" points="223.5763344157461,264.40508143045486 201.24278995606133,318.6117107008844 "/><polyline class="polyline" opacity="0.5" stroke="blue" points="224.75509018284646,264.2138055583121 203.32108474187913,318.70514115713706 "/><polyline class="polyline" opacity="0.5" stroke="blue" points="225.9180011255171,263.9936629845094 205.40026331650915,318.74448761399253 "/><polyline class="polyline" opacity="0.5" stroke="blue" points="227.0645699847015,263.7449285596712 207.47871947148582,318.7294205092458 "/><polyline class="polyline" opacity="0.5" stroke="blue" points="228.1943144999193,263.4678909314366 209.55485278457286,318.659666053421 "/><polyline class="polyline" opacity="0.5" stroke="blue" points="229.30676750570396,263.16285205369144 211.62707097240676,318.5350061259668 "/><polyline class="polyline" opacity="0.5" stroke="blue" points="230.40147700696372,262.83012669320834 213.69379219121944,318.3552780495443 "/><polyline class="polyline" opacity="0.5" stroke="blue" points="231.47800623381772,262.4700419346725 215.75344727937036,318.120374245296 "/><polyline class="polyline" opacity="0.5" stroke="blue" points="232.5359336764921,262.08293668503956 217.80448193578883,317.83024177242544 "/><polyline class="polyline" opacity="0.5" stroke="blue" points="233.57485310088467,261.66916117814185 219.84535882881576,317.48488175583213 "/><polyline class="polyline" opacity="0.5" stroke="blue" points="234.59437354543306,261.2290764804233 221.87455963035066,317.0843487059242 "/><polyline class="polyline" opacity="0.5" stroke="blue" points="235.59411929994002,260.7630539986485 223.89058697063118,316.62874973508775 "/><polyline class="polyline" opacity="0.5" stroke="blue" points="236.5737298670294,260.27147499039575 225.89196630942104,316.1182436756073 "/><polyline class="polyline" opacity="0.5" stroke="blue" points="237.53285990691884,259.7547300781083 227.8772477198262,315.5530401041184 "/><polyline class="polyline" opacity="0.5" stroke="blue" points="238.47117916621227,259.2132187674351 229.8450075814276,314.9333982779219 "/><polyline class="polyline" opacity="0.5" stroke="blue" points="239.38837239142083,258.6473489705611 231.79385017987138,314.25962598870615 "/><polyline class="polyline" opacity="0.5" stroke="blue" points="240.28413922793263,258.05753653518286 233.72240921052918,313.53207833940064 "/><polyline class="polyline" opacity="0.5" stroke="blue" points="241.15819410515218,257.4442047797496 235.62934918429335,312.75115645003024 "/><polyline class="polyline" opacity="0.5" stroke="blue" points="242.01026610853916,256.80778403554876 237.5133667340364,311.91730609854847 "/><polyline class="polyline" opacity="0.5" stroke="blue" points="242.8400988392719,256.14871119617794 239.37319182070405,311.03101630270044 "/><polyline class="polyline" opacity="0.5" stroke="blue" points="243.64745026226186,255.46742927490646 241.20758883845005,310.092817849012 "/><polyline class="polyline" opacity="0.5" stroke="blue" points="244.43209254324256,254.7643869703893 243.01535761864758,309.1032817750035 "/><polyline class="polyline" opacity="0.5" stroke="blue" points="245.19381187564977,254.04003824116157 244.7953343330172,308.0630178107133 "/><polyline class="polyline" opacity="0.5" stroke="blue" points="245.93240829800448,253.29484188930135 246.54639229650593,306.9726727855544 "/><polyline class="polyline" opacity="0.5" stroke="blue" points="246.6476955024996,252.52926115361532 248.26744267092155,305.8329290064558 "/><polyline class="polyline" opacity="0.5" stroke="blue" points="247.3395006354845,251.743763312662 249.95743507068545,304.6445026131281 "/><polyline class="polyline" opacity="0.5" stroke="blue" points="248.00766409052605,250.93881929789603 251.61535807239247,303.40814191616585 "/><polyline class="polyline" opacity="0.5" stroke="blue" points="248.6520392947163,250.1149033171799 253.2402396301803,302.12462572354303 "/><polyline class="polyline" opacity="0.5" stroke="blue" points="249.2724924888791,249.2724924888791 254.83114739919284,300.79476166088745 "/><polyline class="polyline" opacity="0.5" stroke="blue" points="249.86890250231642,248.4120664867217 256.3871889696886,299.4193844907242 "/><polyline class="polyline" opacity="0.5" stroke="blue" points="250.44116052271752,247.5341071955747 257.9075120145805,297.99935443567415 "/><polyline class="polyline" opacity="0.5" stroke="blue" points="250.98916986183715,246.639098378258 259.39130435340627,296.535555510366 "/><polyline class="polyline" opacity="0.5" stroke="blue" points="251.5128457175323,245.72752535348974 260.83779393592033,295.0288938665921 "/><polyline class="polyline" opacity="0.5" stroke="blue" points="252.0121149327292,244.79987468502694 262.24624874866186,293.480296155987 "/><polyline class="polyline" opacity="0.5" stroke="blue" points="252.48691575187277,243.85663388204037 263.6159766479956,291.8907079142583 "/><polyline class="polyline" opacity="0.5" stroke="blue" points="252.93719757539122,242.89829111073902 264.94632512323744,290.2610919707428 "/><polyline class="polyline" opacity="0.5" stroke="blue" points="253.3629207126912,241.92533491723083 266.236680993577,288.59242688679115 "/><polyline class="polyline" opacity="0.5" stroke="blue" points="253.76405613417663,240.93825396158968 267.48647004257714,286.88570542622546 "/><polyline class="polyline" opacity="0.5" stroke="blue" points="254.14058522276594,239.9375367630715 268.69515659408694,285.141933060842 "/><polyline class="polyline" opacity="0.5" stroke="blue" points="254.49249952536144,238.92367145640745 269.86224303343386,283.362126513671 "/><polyline class="polyline" opacity="0.5" stroke="blue" points="254.81980050470577,237.89714555907779 270.9872692777758,281.54731234243553 "/><polyline class="polyline" opacity="0.5" stroke="blue" points="255.12249929203807,236.85844574945682 272.0698121994882,279.698525565397 "/><polyline class="polyline" opacity="0.5" stroke="blue" points="255.40061644094487,235.8080576556991 273.10948500643894,277.8168083315146 "/><polyline class="polyline" opacity="0.5" stroke="blue" points="255.65418168277864,234.74646565522482 274.1059365829667,275.90320863660247 "/><polyline class="polyline" opacity="0.5" stroke="blue" points="255.88323368399858,233.6741526846446 275.0588507953279,273.95877908691807 "/><polyline class="polyline" opacity="0.5" stroke="blue" points="256.087819805768,232.5916000599532 275.96794576530976,271.98457571138783 "/><polyline class="polyline" opacity="0.5" stroke="blue" points="256.26799586612395,231.4992873068081 276.83297311563376,269.98165682344455 "/><polyline class="polyline" opacity="0.5" stroke="blue" points="256.4238259050144,230.39769200069912 277.6537171906799,267.951081933238 "/><polyline class="polyline" opacity="0.5" stroke="blue" points="256.5553819524818,229.2872896168031 278.42999425597236,265.8939107107693 "/><polyline class="polyline" opacity="0.5" stroke="blue" points="256.6627438002522,228.16855338930966 279.1616516797549,263.81120200030335 "/><polyline class="polyline" opacity="0.5" stroke="blue" points="256.7459987769703,227.04195417999728 279.8485670998748,261.704012886231 "/><polyline class="polyline" opacity="0.5" stroke="blue" points="256.80524152730703,225.9079603558281 280.4906475790736,259.5733978103692 "/><polyline class="polyline" opacity="0.5" stroke="blue" points="256.8405737951441,224.76703767532678 281.08782875165946,257.42040774052964 "/><polyline class="polyline" opacity="0.5" stroke="blue" points="256.8521042110291,223.619649183501 281.6400739644055,255.24608939002638 "/><polyline class="polyline" opacity="0.5" stroke="blue" points="256.83994808407334,222.46625511505812 282.14737341438973,253.05148448765726 "/><polyline class="polyline" opacity="0.5" stroke="blue" points="256.8042271984546,221.30731280566584 282.609743286356,250.8376290975523 "/><polyline class="polyline" opacity="0.5" stroke="blue" points="256.7450696146661,220.14327661100413 283.0272248920412,248.60555298817 "/><polyline class="polyline" opacity="0.5" stroke="blue" points="256.66260947564405,218.97459783335054 283.3998838137777,246.35627904960484 "/><polyline class="polyline" opacity="0.5" stroke="blue" points="256.5569868178891,217.8017246554418 283.7278090545444,244.09082275827632 "/><polyline class="polyline" opacity="0.5" stroke="blue" points="256.4283473876833,216.62510208134898 284.0111121965053,241.81019168796928 "/><polyline class="polyline" opacity="0.5" stroke="blue" points="256.27684246249396,215.44517188410606 284.24992656993925,239.51538506612476 "/><polyline class="polyline" opacity="0.5" stroke="blue" points="256.1026286776405,214.26237255983114 284.4444064343351,237.20739337420514 "/><polyline class="polyline" opacity="0.5" stroke="blue" points="255.90586785829038,213.07713928807593 284.5947261732956,234.88719799089222 "/><polyline class="polyline" opacity="0.5" stroke="blue" points="255.68672685683873,211.88990389814447 284.7010795047672,232.5557708768288 "/><polyline class="polyline" opacity="0.5" stroke="blue" points="255.44537739571388,210.70109484111907 284.7636787079905,230.21407429956415 "/><polyline class="polyline" opacity="0.5" stroke="blue" points="255.1819959156438,209.5111371673359 284.7827538684457,227.86306059733036 "/><polyline class="polyline" opacity="0.5" stroke="blue" points="254.8967634294047,208.32045250905068 284.75855214195246,225.50367198023966 "/><polyline class="polyline" opacity="0.5" stroke="blue" points="254.5898653810676,207.12945906804015 284.6913370389703,223.13684036747551 "/><polyline class="polyline" opacity="0.5" stroke="blue" points="254.26149151074637,205.93857160788485 284.5813877300408,220.76348725902776 "/><polyline class="polyline" opacity="0.5" stroke="blue" points="253.91183572484564,204.74820145068375 284.4289983732065,218.38452364051463 "/><polyline class="polyline" opacity="0.5" stroke="blue" points="253.54109597179547,203.5587564779497 284.2344774641476,216.00084991962308 "/><polyline class="polyline" opacity="0.5" stroke="blue" points="253.1494741232555,202.3706411354426 283.99814720967686,213.61335589270197 "/><polyline class="polyline" opacity="0.5" stroke="blue" points="252.73717586076117,201.18425644169616 283.7203429251515,211.22292074004272 "/><polyline class="polyline" opacity="0.5" stroke="blue" points="252.30441056778093,200.0 283.40141245626955,208.83041304839332 "/><polyline class="polyline" opacity="0.5" stroke="blue" points="251.85139122714384,198.81826601360052 283.0417156256433,206.43669085925546 "/><polyline class="polyline" opacity="0.5" stroke="blue" points="251.37833432379304,197.63944530388704 282.64162370446127,204.04260174153512 "/><polyline class="polyline" opacity="0.5" stroke="blue" points="250.88545975281485,196.46392533133684 282.20151890948586,201.64898288713272 "/><polyline class="polyline" opacity="0.5" stroke="blue" points="250.37299073268647,195.29209021899038 281.7217939255603,199.25666122807388 "/><polyline class="polyline" opacity="0.5" stroke="blue" points="249.84115372368197,194.1243207782369 281.20285145374095,196.86645357380968 "/><polyline class="polyline" opacity="0.5" stroke="blue" points="249.2901783513704,192.96099453669115 280.64510378511056,194.47916676733308 "/><polyline class="polyline" opacity="0.5" stroke="blue" points="248.7202973351361,191.80248576794804 280.0489724002731,192.09559785878906 "/><polyline class="polyline" opacity="0.5" stroke="blue" points="248.13174642164645,190.6491655230024 279.4148875944828,189.7165342952744 "/><polyline class="polyline" opacity="0.5" stroke="blue" points="247.5247643231894,189.50140166312832 278.7432881283105,187.34275412555692 "/><polyline class="polyline" opacity="0.5" stroke="blue" points="246.89959266079757,188.3595588940133 278.0346209037072,184.97502621846664 "/><polyline class="polyline" opacity="0.5" stroke="blue" points="246.25647591207544,187.22399880094912 277.2893406652882,182.61411049374385 "/><polyline class="polyline" opacity="0.5" stroke="blue" points="245.59566136363884,186.09507988488056 276.50790972661844,180.26075816415025 "/><polyline class="polyline" opacity="0.5" stroke="blue" points="244.91739906807658,184.97315759912146 275.69079772125065,177.91571198768446 "/><polyline class="polyline" opacity="0.5" stroke="blue" points="244.22194180533802,183.85858438654702 274.8384813782334,175.5797065287649 "/><polyline class="polyline" opacity="0.5" stroke="blue" points="243.50954504845078,182.75170971707828 273.95144432177966,173.25346842727578 "/><polyline class="polyline" opacity="0.5" stroke="blue" points="242.78046693346676,181.65288012527427 273.03017689475735,170.93771667439148 "/><polyline class="polyline" opacity="0.5" stroke="blue" points="242.03496823353484,180.56243924785332 272.075176005641,168.6331628941255 "/><polyline class="polyline" opacity="0.5" stroke="blue" points="241.27331233699513,179.48072786096856 271.08694499854107,166.34051162957576 "/><polyline class="polyline" opacity="0.5" stroke="blue" points="240.49576522938713,178.4080839170619 270.0659935459051,164.06046063285407 "/><polyline class="polyline" opacity="0.5" stroke="blue" points="239.70259547926207,177.3448425811291 269.0128375634663,161.7937011577195 "/><polyline class="polyline" opacity="0.5" stroke="blue" points="238.89407422768795,176.29133626622655 267.92799914699873,159.54091825394914 "/><polyline class="polyline" opacity="0.5" stroke="blue" points="238.0704751813339,175.24789466805814 266.81200653041947,157.30279106250566 "/><polyline class="polyline" opacity="0.5" stroke="blue" points="237.2320746090165,174.21484479847734 265.66539406476187,155.0799931105725 "/><polyline class="polyline" opacity="0.5" stroke="blue" points="236.37915134159158,173.1925110177485 264.48870221753026,152.87319260555142 "/><polyline class="polyline" opacity="0.5" stroke="blue" points="235.51198677507037,172.18121506540908 263.282477591932,150.68305272712624 "/><polyline class="polyline" opacity="0.5" stroke="blue" points="234.6308648768391,171.1812760895806 262.04727296546616,148.5102319165174 "/><polyline class="polyline" opacity="0.5" stroke="blue" points="233.73607219485683,170.19301067457528 260.7836473473364,146.3553841620553 "/><polyline class="polyline" opacity="0.5" stroke="blue" points="232.82789786970642,169.21673286665032 259.49216605413943,144.2191592802191 "/><polyline class="polyline" opacity="0.5" stroke="blue" points="231.9066336493695,168.25275419776233 258.1734008032679,142.10220319129078 "/><polyline class="polyline" opacity="0.5" stroke="blue" points="230.97257390659723,167.30138370717822 256.8279298234511,140.0051581887862 "/></svg>
