<?xml version="1.0" encoding="UTF-8"?>
<!DOCTYPE svg PUBLIC "-//W3C//DTD SVG 1.1//EN"
    "http://www.w3.org/Graphics/SVG/1.1/DTD/svg11.dtd"><svg width="400" height="400" stroke="black" fill="none" fill-opacity="0.75" font-style="italic" font-family="CMU Serif, sans-serif" xmlns="http://www.w3.org/2000/svg" xmlns:xlink="http://www.w3.org/1999/xlink" version="1.1"><filter id="blur"><feGaussianBlur stdDeviation="2"/></filter><rect width="100%" height="100%" fill="white" stroke="none" fill-opacity="1"/><polygon points="226.25,0.0 226.25,400.0 " stroke-opacity="0.25" stroke="green"/><polygon points="270.0,0.0 270.0,400.0 " stroke-opacity="0.25" stroke="green"/><polygon points="357.50000000000006,0.0 357.50000000000006,400.0 " stroke-opacity="0.25" stroke="green"/><polygon points="7.500000000000028,0.0 7.500000000000028,400.0 " stroke-opacity="0.25" stroke="green"/><polygon points="20.0,0.0 20.0,400.0 " stroke-opacity="0.25" stroke="green"/><polygon points="29.375,0.0 29.375,400.0 " stroke-opacity="0.25" stroke="green"/><polygon points="36.66666666666666,0.0 36.66666666666666,400.0 " stroke-opacity="0.25" stroke="green"/><polygon points="42.50000000000003,0.0 42.50000000000003,400.0 " stroke-opacity="0.25" stroke="green"/><polygon points="252.74328234101938,0.0 200.11869697615518,400.0 " stroke-opacity="0.25" stroke="green"/><polygon points="305.8088745656106,-5.684341886080802e-14 235.4811277949697,400.00000000000006 " stroke-opacity="0.25" stroke="green"/><polygon points="400.0,47.84642788701308 306.6970118532348,400.00000000000006 " stroke-opacity="0.25" stroke="green"/><polygon points="-5.684341886080802e-14,285.1861664784475 11.935927321134272,400.0 " stroke-opacity="0.25" stroke="green"/><polygon points="0.0,103.41749404184122 25.717027510298067,400.0 " stroke-opacity="0.25" stroke="green"/><polygon points="5.827147534938376,0.0 35.57601745277833,400.0 " stroke-opacity="0.25" stroke="green"/><polygon points="16.93572039031426,0.0 42.97866995557936,400.0 " stroke-opacity="0.25" stroke="green"/><polygon points="25.583211535116504,0.0 48.74127986050888,400.0 " stroke-opacity="0.25" stroke="green"/><polygon points="32.505928697130145,0.0 53.354515979382995,400.0 " stroke-opacity="0.25" stroke="green"/><polygon points="280.4247653074246,0.0 173.5495706159829,400.0 " stroke-opacity="0.25" stroke="green"/><polygon points="344.5692035346444,-5.684341886080802e-14 200.7224138540366,400.00000000000006 " stroke-opacity="0.25" stroke="green"/><polygon points="400.00000000000006,139.2553631924851 256.6383650058511,400.0 " stroke-opacity="0.25" stroke="green"/><polygon points="-5.684341886080802e-14,318.4614489444443 20.62757014754405,400.0 " stroke-opacity="0.25" stroke="green"/><polygon points="0.0,227.07649639430605 35.18396398795852,400.0 " stroke-opacity="0.25" stroke="green"/><polygon points="-5.684341886080802e-14,135.69154384416754 44.97500520504252,400.00000000000006 " stroke-opacity="0.25" stroke="green"/><polygon points="5.684341886080802e-14,44.306591294029175 52.01159983621167,400.0 " stroke-opacity="0.25" stroke="green"/><polygon points="6.035161827374452,0.0 57.31274810139763,400.0 " stroke-opacity="0.25" stroke="green"/><polygon points="15.801577395228207,0.0 61.4499934582424,400.0 " stroke-opacity="0.25" stroke="green"/><polygon points="23.635821144526176,0.0 64.76873290271757,400.0 " stroke-opacity="0.25" stroke="green"/><polygon points="310.2492250296235,0.0 145.67199939058332,400.0 " stroke-opacity="0.25" stroke="green"/><polygon points="388.37160219586434,0.0 164.0628532838499,400.0 " stroke-opacity="0.25" stroke="green"/><polygon points="399.99999999999994,176.66373244741092 203.40857118289313,400.0 " stroke-opacity="0.25" stroke="green"/><polygon points="400.00000000000006,374.063879074898 346.9423608422158,400.0 " stroke-opacity="0.25" stroke="green"/><polygon points="-5.684341886080802e-14,385.1396664275785 10.228671943432971,400.0 " stroke-opacity="0.25" stroke="green"/><polygon points="0.0,323.65437485508255 36.35462287296659,400.0 " stroke-opacity="0.25" stroke="green"/><polygon points="5.684341886080802e-14,262.1690832825865 50.17070798409813,400.00000000000006 " stroke-opacity="0.25" stroke="green"/><polygon points="0.0,200.68379171009056 58.718221308184155,400.0 " stroke-opacity="0.25" stroke="green"/><polygon points="5.684341886080802e-14,139.19850013759458 64.52821658262047,400.0 " stroke-opacity="0.25" stroke="green"/><polygon points="0.0,77.71320856509864 68.73428586828581,400.0 " stroke-opacity="0.25" stroke="green"/><polygon points="-5.684341886080802e-14,16.227916992602587 71.92004867838534,400.00000000000006 " stroke-opacity="0.25" stroke="green"/><polygon points="7.563940157844371,5.684341886080802e-14 74.41660430867081,399.99999999999994 " stroke-opacity="0.25" stroke="green"/><polygon points="16.098686043958935,0.0 76.42577594810622,400.0 " stroke-opacity="0.25" stroke="green"/><polygon points="343.43491016436906,0.0 115.42609098159706,400.0 " stroke-opacity="0.25" stroke="green"/><polygon points="399.99999999999994,50.741032159213916 123.3810210379787,399.99999999999994 " stroke-opacity="0.25" stroke="green"/><polygon points="400.0,200.71522562924247 141.48431059054437,399.99999999999994 " stroke-opacity="0.25" stroke="green"/><polygon points="400.0,350.68941909927094 223.36219730770364,400.0 " stroke-opacity="0.25" stroke="green"/><polygon points="0.0,368.92771452537994 44.11952061444933,400.0 " stroke-opacity="0.25" stroke="green"/><polygon points="-5.684341886080802e-14,322.21444114946945 65.03842462508084,400.0 " stroke-opacity="0.25" stroke="green"/><polygon points="-5.684341886080802e-14,275.5011677735589 73.76779373145348,400.0 " stroke-opacity="0.25" stroke="green"/><polygon points="0.0,228.7878943976484 78.55815922771066,400.0 " stroke-opacity="0.25" stroke="green"/><polygon points="0.0,182.07462102173795 81.58485572190794,399.99999999999994 " stroke-opacity="0.25" stroke="green"/><polygon points="5.684341886080802e-14,135.3613476458274 83.67045514829874,400.0 " stroke-opacity="0.25" stroke="green"/><polygon points="0.0,88.64807426991683 85.1948266684306,400.0 " stroke-opacity="0.25" stroke="green"/><polygon points="0.0,41.93480089400646 86.35764168482152,400.0 " stroke-opacity="0.25" stroke="green"/><polygon points="1.0302818396519342,0.0 87.27389576050982,400.0 " stroke-opacity="0.25" stroke="green"/><polygon points="10.037879776981129,5.684341886080802e-14 88.01449222045099,399.99999999999994 " stroke-opacity="0.25" stroke="green"/><polygon points="381.67475191255926,0.0 81.38590577609767,400.0 " stroke-opacity="0.25" stroke="green"/><polygon points="400.0,97.58983848622451 75.54326539068232,399.99999999999994 " stroke-opacity="0.25" stroke="green"/><polygon points="400.0,219.58983848622458 60.915538615322475,400.0 " stroke-opacity="0.25" stroke="green"/><polygon points="0.0,394.41016151377545 400.0,341.58983848622455 " stroke-opacity="0.25" stroke="green"/><polygon points="0.0,356.41016151377545 162.67949192431132,400.0 " stroke-opacity="0.25" stroke="green"/><polygon points="5.684341886080802e-14,318.4101615137754 122.1497673936299,400.0 " stroke-opacity="0.25" stroke="green"/><polygon points="0.0,280.4101615137754 111.98083142324911,400.0 " stroke-opacity="0.25" stroke="green"/><polygon points="0.0,242.41016151377545 107.35374173627527,400.0 " stroke-opacity="0.25" stroke="green"/><polygon points="0.0,204.41016151377542 104.70832894103819,400.0 " stroke-opacity="0.25" stroke="green"/><polygon points="0.0,166.4101615137755 102.99606325652674,399.99999999999994 " stroke-opacity="0.25" stroke="green"/><polygon points="-5.684341886080802e-14,128.4101615137755 101.79723034333466,399.99999999999994 " stroke-opacity="0.25" stroke="green"/><polygon points="-5.684341886080802e-14,90.4101615137754 100.91100571352605,400.00000000000006 " stroke-opacity="0.25" stroke="green"/><polygon points="0.0,52.41016151377556 100.22921882617177,400.0 " stroke-opacity="0.25" stroke="green"/><polygon points="0.0,14.41016151377542 99.68844452268253,400.0 " stroke-opacity="0.25" stroke="green"/><polygon points="5.527206961146419,0.0 99.24903493167831,400.0 " stroke-opacity="0.25" stroke="green"/><polygon points="400.0,28.503014524714132 41.45425932228039,400.00000000000006 " stroke-opacity="0.25" stroke="green"/><polygon points="400.0,132.28241314366306 15.271610965799681,399.99999999999994 " stroke-opacity="0.25" stroke="green"/><polygon points="5.684341886080802e-14,378.3021919421021 399.99999999999994,236.0618117626119 " stroke-opacity="0.25" stroke="green"/><polygon points="0.0,345.9774612247246 400.0,339.84121038156076 " stroke-opacity="0.25" stroke="green"/><polygon points="0.0,313.6527305073471 265.7495697975729,400.00000000000006 " stroke-opacity="0.25" stroke="green"/><polygon points="0.0,281.32799978996957 178.40584010036991,400.0 " stroke-opacity="0.25" stroke="green"/><polygon points="0.0,249.00326907259205 150.17970185053792,400.00000000000006 " stroke-opacity="0.25" stroke="green"/><polygon points="0.0,216.67853835521456 136.2275179330254,400.0 " stroke-opacity="0.25" stroke="green"/><polygon points="0.0,184.353807637837 127.90698817640832,400.00000000000006 " stroke-opacity="0.25" stroke="green"/><polygon points="-5.684341886080802e-14,152.02907692045954 122.380966726734,400.0 " stroke-opacity="0.25" stroke="green"/><polygon points="0.0,119.70434620308203 118.4440434694394,400.0 " stroke-opacity="0.25" stroke="green"/><polygon points="-5.684341886080802e-14,87.37961548570452 115.49692921535234,400.00000000000006 " stroke-opacity="0.25" stroke="green"/><polygon points="-5.684341886080802e-14,55.054884768327014 113.20802651209092,400.0 " stroke-opacity="0.25" stroke="green"/><polygon points="-5.684341886080802e-14,22.730154050949437 111.37897759900139,400.00000000000006 " stroke-opacity="0.25" stroke="green"/><polygon points="2.5739819305019864,0.0 109.88385166174399,400.0 " stroke-opacity="0.25" stroke="green"/><polygon points="0.0,393.72744851841105 400.0,69.04056657590252 " stroke-opacity="0.25" stroke="green"/><polygon points="0.0,365.33239407098347 400.0,160.20363611764367 " stroke-opacity="0.25" stroke="green"/><polygon points="0.0,336.93733962355594 400.0,251.3667056593848 " stroke-opacity="0.25" stroke="green"/><polygon points="-5.684341886080802e-14,308.54228517612836 400.00000000000006,342.529775201126 " stroke-opacity="0.25" stroke="green"/><polygon points="0.0,280.1472307287008 312.227138601931,400.00000000000006 " stroke-opacity="0.25" stroke="green"/><polygon points="0.0,251.7521762812732 217.13042055384315,400.0 " stroke-opacity="0.25" stroke="green"/><polygon points="0.0,223.35712183384564 179.94401317184878,400.0 " stroke-opacity="0.25" stroke="green"/><polygon points="-5.684341886080802e-14,194.96206738641808 160.11708892664598,399.99999999999994 " stroke-opacity="0.25" stroke="green"/><polygon points="-5.684341886080802e-14,166.56701293899047 147.79428623874503,400.0 " stroke-opacity="0.25" stroke="green"/><polygon points="0.0,138.17195849156295 139.39327277133452,400.0 " stroke-opacity="0.25" stroke="green"/><polygon points="0.0,109.77690404413543 133.29887525706113,400.0 " stroke-opacity="0.25" stroke="green"/><polygon points="0.0,81.38184959670782 128.6757946346891,400.00000000000006 " stroke-opacity="0.25" stroke="green"/><polygon points="0.0,52.986795149280255 125.04860872415124,400.0 " stroke-opacity="0.25" stroke="green"/><polygon points="0.0,24.5917407018527 122.1268076079277,400.00000000000006 " stroke-opacity="0.25" stroke="green"/><polygon points="1.1276371038242416,0.0 119.72286003396201,400.0 " stroke-opacity="0.25" stroke="green"/><polygon points="-5.684341886080802e-14,354.51378699704685 400.00000000000006,102.00278764642094 " stroke-opacity="0.25" stroke="green"/><polygon points="-5.684341886080802e-14,328.9467651345257 400.00000000000006,184.0863841524099 " stroke-opacity="0.25" stroke="green"/><polygon points="0.0,303.3797432720046 400.0,266.1699806583988 " stroke-opacity="0.25" stroke="green"/><polygon points="-5.684341886080802e-14,277.8127214094834 400.00000000000006,348.2535771643878 " stroke-opacity="0.25" stroke="green"/><polygon points="0.0,252.24569954696227 331.8615923200151,400.00000000000006 " stroke-opacity="0.25" stroke="green"/><polygon points="0.0,226.67867768444108 242.62623795331402,400.0 " stroke-opacity="0.25" stroke="green"/><polygon points="0.0,201.11165582191995 202.2288046395861,400.0 " stroke-opacity="0.25" stroke="green"/><polygon points="5.684341886080802e-14,175.5446339593988 179.19038370275516,399.99999999999994 " stroke-opacity="0.25" stroke="green"/><polygon points="0.0,149.97761209687764 164.30088644053262,400.00000000000006 " stroke-opacity="0.25" stroke="green"/><polygon points="0.0,124.4105902343565 153.8865081744683,400.0 " stroke-opacity="0.25" stroke="green"/><polygon points="-5.684341886080802e-14,98.84356837183535 146.19329692874499,400.00000000000006 " stroke-opacity="0.25" stroke="green"/><polygon points="0.0,73.27654650931423 140.27796939255785,400.0 " stroke-opacity="0.25" stroke="green"/><polygon points="5.684341886080802e-14,47.70952464679311 135.58806446769137,400.00000000000006 " stroke-opacity="0.25" stroke="green"/><polygon points="5.684341886080802e-14,22.142502784271954 131.77853352329726,400.00000000000006 " stroke-opacity="0.25" stroke="green"/><polygon points="1.0918302156663913,-5.684341886080802e-14 128.62275537256662,400.00000000000006 " stroke-opacity="0.25" stroke="green"/><polygon points="0.0,321.82321402857616 400.0,130.091641026415 " stroke-opacity="0.25" stroke="green"/><polygon points="0.0,298.33792245608015 400.0,205.49178765390218 " stroke-opacity="0.25" stroke="green"/><polygon points="-5.684341886080802e-14,274.85263088358414 400.00000000000006,280.89193428138935 " stroke-opacity="0.25" stroke="green"/><polygon points="0.0,251.36733931108813 400.0,356.2920809088765 " stroke-opacity="0.25" stroke="green"/><polygon points="0.0,227.88204773859215 337.8005012942731,400.0 " stroke-opacity="0.25" stroke="green"/><polygon points="0.0,204.39675616609614 258.48176478769483,400.00000000000006 " stroke-opacity="0.25" stroke="green"/><polygon points="-5.684341886080802e-14,180.91146459360013 218.22596661384452,400.0 " stroke-opacity="0.25" stroke="green"/><polygon points="-5.684341886080802e-14,157.42617302110415 193.8781754177712,400.0 " stroke-opacity="0.25" stroke="green"/><polygon points="-5.684341886080802e-14,133.94088144860814 177.5645353461974,400.00000000000006 " stroke-opacity="0.25" stroke="green"/><polygon points="5.684341886080802e-14,110.45558987611216 165.87162030190603,400.0 " stroke-opacity="0.25" stroke="green"/><polygon points="0.0,86.97029830361613 157.0797865337705,400.0 " stroke-opacity="0.25" stroke="green"/><polygon points="0.0,63.48500673112014 150.2285249366223,400.0 " stroke-opacity="0.25" stroke="green"/><polygon points="5.684341886080802e-14,39.999715158624184 144.739197815892,400.0 " stroke-opacity="0.25" stroke="green"/><polygon points="0.0,16.514423586128174 140.2424193844639,400.0 " stroke-opacity="0.25" stroke="green"/><polygon points="2.3379140152738955,5.684341886080802e-14 136.49130896384645,399.99999999999994 " stroke-opacity="0.25" stroke="green"/><polygon points="0.0,293.53074360871943 400.0,154.96667900320915 " stroke-opacity="0.25" stroke="green"/><polygon points="0.0,271.5914333795136 400.0,225.4034118443435 " stroke-opacity="0.25" stroke="green"/><polygon points="0.0,249.65212315030783 400.0,295.84014468547787 " stroke-opacity="0.25" stroke="green"/><polygon points="-5.684341886080802e-14,227.71281292110206 400.00000000000006,366.2768775266122 " stroke-opacity="0.25" stroke="green"/><polygon points="5.684341886080802e-14,205.77350269189628 336.4101615137755,400.0 " stroke-opacity="0.25" stroke="green"/><polygon points="-5.684341886080802e-14,183.83419246269048 267.4358296526968,399.99999999999994 " stroke-opacity="0.25" stroke="green"/><polygon points="0.0,161.89488223348474 229.11675639654194,400.0 " stroke-opacity="0.25" stroke="green"/><polygon points="5.684341886080802e-14,139.9555720042789 204.7318915971707,400.00000000000006 " stroke-opacity="0.25" stroke="green"/><polygon points="0.0,118.01626177507319 187.85006212068288,400.0 " stroke-opacity="0.25" stroke="green"/><polygon points="0.0,96.07695154586739 175.4700538379252,400.0 " stroke-opacity="0.25" stroke="green"/><polygon points="0.0,74.13764131666166 166.0029886805222,400.0 " stroke-opacity="0.25" stroke="green"/><polygon points="0.0,52.1983310874559 158.5289898720462,400.0 " stroke-opacity="0.25" stroke="green"/><polygon points="0.0,30.259020858250096 152.47860988423227,400.0 " stroke-opacity="0.25" stroke="green"/><polygon points="0.0,8.31971062904438 147.48046989429903,400.0 " stroke-opacity="0.25" stroke="green"/><polygon points="4.717967697244916,5.684341886080802e-14 143.28203230275514,399.99999999999994 " stroke-opacity="0.25" stroke="green"/><polygon points="0.0,268.2476477700924 400.0,177.7270759271616 " stroke-opacity="0.25" stroke="green"/><polygon points="0.0,247.44955847847748 400.0,244.49988891603044 " stroke-opacity="0.25" stroke="green"/><polygon points="0.0,226.65146918686258 400.0,311.27270190489935 " stroke-opacity="0.25" stroke="green"/><polygon points="0.0,205.8533798952477 400.0,378.0455148937681 " stroke-opacity="0.25" stroke="green"/><polygon points="0.0,185.0552906036328 330.9858271567731,400.0 " stroke-opacity="0.25" stroke="green"/><polygon points="-5.684341886080802e-14,164.2572013120179 271.4883538153131,400.0 " stroke-opacity="0.25" stroke="green"/><polygon points="0.0,143.45911202040304 235.9512824867507,400.0 " stroke-opacity="0.25" stroke="green"/><polygon points="-5.684341886080802e-14,122.66102272878815 212.3267771889308,400.00000000000006 " stroke-opacity="0.25" stroke="green"/><polygon points="0.0,101.86293343717327 195.48476715459756,400.0 " stroke-opacity="0.25" stroke="green"/><polygon points="0.0,81.06484414555841 182.8710624939213,400.00000000000006 " stroke-opacity="0.25" stroke="green"/><polygon points="0.0,60.266754853943496 173.07093334338342,400.0 " stroke-opacity="0.25" stroke="green"/><polygon points="-5.684341886080802e-14,39.46866556232848 165.23745433297765,400.00000000000006 " stroke-opacity="0.25" stroke="green"/><polygon points="0.0,18.670576270713696 158.8326188980322,400.00000000000006 " stroke-opacity="0.25" stroke="green"/><polygon points="0.8121044642649053,0.0 153.49826079545636,400.0 " stroke-opacity="0.25" stroke="green"/><polygon points="8.076148456113742,0.0 148.98670506477737,400.0 " stroke-opacity="0.25" stroke="green"/><polygon points="0.0,245.00615698605418 400.0,199.15525643195303 " stroke-opacity="0.25" stroke="green"/><polygon points="0.0,225.0283747255271 400.0,263.2944521104873 " stroke-opacity="0.25" stroke="green"/><polygon points="5.684341886080802e-14,205.05059246500002 399.99999999999994,327.4336477890216 " stroke-opacity="0.25" stroke="green"/><polygon points="-5.684341886080802e-14,185.07281020447294 400.00000000000006,391.57284346755597 " stroke-opacity="0.25" stroke="green"/><polygon points="0.0,165.09502794394587 323.31895656673913,400.0 " stroke-opacity="0.25" stroke="green"/><polygon points="-5.684341886080802e-14,145.1172456834188 272.0679326694727,400.0 " stroke-opacity="0.25" stroke="green"/><polygon points="0.0,125.13946342289172 239.60767769638522,400.0 " stroke-opacity="0.25" stroke="green"/><polygon points="0.0,105.16168116236464 217.20495402515138,400.0 " stroke-opacity="0.25" stroke="green"/><polygon points="0.0,85.18389890183758 200.81241922574625,400.00000000000006 " stroke-opacity="0.25" stroke="green"/><polygon points="0.0,65.20611664131047 188.29751885433373,400.0 " stroke-opacity="0.25" stroke="green"/><polygon points="-5.684341886080802e-14,45.22833438078345 178.42989777293806,400.0 " stroke-opacity="0.25" stroke="green"/><polygon points="-5.684341886080802e-14,25.250552120256373 170.44992877763784,400.0 " stroke-opacity="0.25" stroke="green"/><polygon points="0.0,5.272769859729323 163.86324274876853,400.0 " stroke-opacity="0.25" stroke="green"/><polygon points="5.614369040012946,-5.684341886080802e-14 158.33424133902273,400.00000000000006 " stroke-opacity="0.25" stroke="green"/><polygon points="12.257713184003592,-5.684341886080802e-14 153.62709594221917,400.00000000000006 " stroke-opacity="0.25" stroke="green"/><polygon points="0.0,223.0868410315689 400.0,219.85146395276234 " stroke-opacity="0.25" stroke="green"/><polygon points="0.0,203.66236972913333 400.0,282.21424023952915 " stroke-opacity="0.25" stroke="green"/><polygon points="-5.684341886080802e-14,184.23789842669777 400.00000000000006,344.57701652629595 " stroke-opacity="0.25" stroke="green"/><polygon points="0.0,164.8134271242622 388.5352546496613,400.0 " stroke-opacity="0.25" stroke="green"/><polygon points="-5.684341886080802e-14,145.38895582182667 314.41845447804667,400.0 " stroke-opacity="0.25" stroke="green"/><polygon points="0.0,125.96448451939109 270.1848005891284,400.0 " stroke-opacity="0.25" stroke="green"/><polygon points="0.0,106.54001321695557 240.79355511851338,400.0 " stroke-opacity="0.25" stroke="green"/><polygon points="0.0,87.11554191451998 219.84753407130592,400.0 " stroke-opacity="0.25" stroke="green"/><polygon points="0.0,67.69107061208442 204.16404046718134,400.0 " stroke-opacity="0.25" stroke="green"/><polygon points="0.0,48.26659930964888 191.98115417660622,400.00000000000006 " stroke-opacity="0.25" stroke="green"/><polygon points="0.0,28.84212800721332 182.24452214783665,400.0 " stroke-opacity="0.25" stroke="green"/><polygon points="5.684341886080802e-14,9.417656704777869 174.28457621113455,400.00000000000006 " stroke-opacity="0.25" stroke="green"/><polygon points="4.091881412619358,0.0 167.65567577240128,400.0 " stroke-opacity="0.25" stroke="green"/><polygon points="11.106157760022143,0.0 162.04971894484837,400.0 " stroke-opacity="0.25" stroke="green"/><polygon points="17.11555523961323,0.0 157.24688239241237,400.0 " stroke-opacity="0.25" stroke="green"/><polygon points="0.0,201.91618974142852 400.0,240.31515800023917 " stroke-opacity="0.25" stroke="green"/><polygon points="0.0,182.8115324297217 400.0,301.6511630536137 " stroke-opacity="0.25" stroke="green"/><polygon points="0.0,163.70687511801486 400.0,362.9871681069882 " stroke-opacity="0.25" stroke="green"/><polygon points="0.0,144.60221780630806 365.2179463929317,400.00000000000006 " stroke-opacity="0.25" stroke="green"/><polygon points="-5.684341886080802e-14,125.49756049460126 304.8658446658394,400.0 " stroke-opacity="0.25" stroke="green"/><polygon points="0.0,106.39290318289447 266.55068308859876,399.99999999999994 " stroke-opacity="0.25" stroke="green"/><polygon points="0.0,87.28824587118767 240.0660127235034,400.0 " stroke-opacity="0.25" stroke="green"/><polygon points="0.0,68.18358855948082 220.66530743953962,400.00000000000006 " stroke-opacity="0.25" stroke="green"/><polygon points="0.0,49.07893124777402 205.8416663795744,400.0 " stroke-opacity="0.25" stroke="green"/><polygon points="0.0,29.974273936067277 194.14624766907693,400.0 " stroke-opacity="0.25" stroke="green"/><polygon points="0.0,10.869616624360447 184.68334197638646,399.99999999999994 " stroke-opacity="0.25" stroke="green"/><polygon points="3.567863134767123,0.0 176.8694056638454,400.0 " stroke-opacity="0.25" stroke="green"/><polygon points="10.895707633843813,-5.684341886080802e-14 170.30796791881323,400.00000000000006 " stroke-opacity="0.25" stroke="green"/><polygon points="17.13612169275939,0.0 164.72022811948244,400.0 " stroke-opacity="0.25" stroke="green"/><polygon points="22.514442793101665,0.0 159.90441644701374,400.0 " stroke-opacity="0.25" stroke="green"/><polygon points="0.0,181.0 400.0,261.0 " stroke-opacity="0.25" stroke="green"/><polygon points="0.0,162.0 400.0,322.0 " stroke-opacity="0.25" stroke="green"/><polygon points="0.0,143.0 400.0,383.00000000000006 " stroke-opacity="0.25" stroke="green"/><polygon points="0.0,124.0 345.0,400.00000000000006 " stroke-opacity="0.25" stroke="green"/><polygon points="0.0,105.00000000000001 295.00000000000006,400.0 " stroke-opacity="0.25" stroke="green"/><polygon points="5.684341886080802e-14,86.00000000000003 261.6666666666667,400.0 " stroke-opacity="0.25" stroke="green"/><polygon points="0.0,67.00000000000003 237.8571428571429,400.0 " stroke-opacity="0.25" stroke="green"/><polygon points="0.0,48.00000000000006 220.00000000000003,400.0 " stroke-opacity="0.25" stroke="green"/><polygon points="5.684341886080802e-14,29.00000000000003 206.11111111111111,400.0 " stroke-opacity="0.25" stroke="green"/><polygon points="5.684341886080802e-14,10.000000000000085 195.00000000000003,400.0 " stroke-opacity="0.25" stroke="green"/><polygon points="4.090909090909065,0.0 185.90909090909093,400.0 " stroke-opacity="0.25" stroke="green"/><polygon points="11.666666666666657,0.0 178.33333333333337,400.0 " stroke-opacity="0.25" stroke="green"/><polygon points="18.076923076923066,0.0 171.92307692307696,400.0 " stroke-opacity="0.25" stroke="green"/><polygon points="23.571428571428527,0.0 166.42857142857144,400.0 " stroke-opacity="0.25" stroke="green"/><polygon points="28.333333333333286,0.0 161.66666666666669,400.0 " stroke-opacity="0.25" stroke="green"/><polygon points="0.0,159.87449563515793 400.0,282.3568521065098 " stroke-opacity="0.25" stroke="green"/><polygon points="0.0,140.7698383234511 400.0,343.6928571598843 " stroke-opacity="0.25" stroke="green"/><polygon points="0.0,121.6651810117443 392.90119017096976,400.0 " stroke-opacity="0.25" stroke="green"/><polygon points="0.0,102.56052370003749 327.0323530323822,400.0 " stroke-opacity="0.25" stroke="green"/><polygon points="0.0,83.45586638833069 285.01761810270295,399.99999999999994 " stroke-opacity="0.25" stroke="green"/><polygon points="0.0,64.35120907662389 255.88561777413418,400.00000000000006 " stroke-opacity="0.25" stroke="green"/><polygon points="-5.684341886080802e-14,45.24655176491706 234.49876844531389,400.0 " stroke-opacity="0.25" stroke="green"/><polygon points="0.0,26.141894453210313 218.13074978777985,399.99999999999994 " stroke-opacity="0.25" stroke="green"/><polygon points="5.684341886080802e-14,7.03723714150351 205.2004363624272,400.0 " stroke-opacity="0.25" stroke="green"/><polygon points="5.702614048394366,0.0 194.72774014701739,400.0 " stroke-opacity="0.25" stroke="green"/><polygon points="13.452345707164028,-5.684341886080802e-14 186.07280342251187,400.00000000000006 " stroke-opacity="0.25" stroke="green"/><polygon points="19.964362279452587,5.684341886080802e-14 178.80015272133443,399.99999999999994 " stroke-opacity="0.25" stroke="green"/><polygon points="25.513251022142157,0.0 172.60312770499675,400.0 " stroke-opacity="0.25" stroke="green"/><polygon points="30.29796908268986,5.684341886080802e-14 167.25953209652465,399.99999999999994 " stroke-opacity="0.25" stroke="green"/><polygon points="34.46620472187661,0.0 162.60442695244305,400.0 " stroke-opacity="0.25" stroke="green"/><polygon points="0.0,138.06421636356006 400.0,304.87408862077115 " stroke-opacity="0.25" stroke="green"/><polygon points="0.0,118.63974506112453 400.0,367.2368649075379 " stroke-opacity="0.25" stroke="green"/><polygon points="0.0,99.21527375868892 364.16338772436256,400.00000000000006 " stroke-opacity="0.25" stroke="green"/><polygon points="0.0,79.7908024562534 310.7532744820051,399.99999999999994 " stroke-opacity="0.25" stroke="green"/><polygon points="0.0,60.36633115381784 275.0299221670789,400.00000000000006 " stroke-opacity="0.25" stroke="green"/><polygon points="5.684341886080802e-14,40.941859851382304 249.45588604802205,400.0 " stroke-opacity="0.25" stroke="green"/><polygon points="0.0,21.51738854894674 230.2438998512592,399.99999999999994 " stroke-opacity="0.25" stroke="green"/><polygon points="-5.684341886080802e-14,2.0929172465111776 215.28256069535328,400.0 " stroke-opacity="0.25" stroke="green"/><polygon points="8.443009766971556,0.0 203.30169906230347,400.0 " stroke-opacity="0.25" stroke="green"/><polygon points="16.283630439709526,-5.684341886080802e-14 193.4913701879461,400.00000000000006 " stroke-opacity="0.25" stroke="green"/><polygon points="22.82177466322608,0.0 185.31072381594424,400.0 " stroke-opacity="0.25" stroke="green"/><polygon points="28.357102074112532,0.0 178.38482029444685,400.0 " stroke-opacity="0.25" stroke="green"/><polygon points="33.10389650812684,0.0 172.44554374475152,400.0 " stroke-opacity="0.25" stroke="green"/><polygon points="37.21944974599771,-5.684341886080802e-14 167.29608779621623,400.00000000000006 " stroke-opacity="0.25" stroke="green"/><polygon points="40.82182760567457,-5.684341886080802e-14 162.78872632469228,400.00000000000006 " stroke-opacity="0.25" stroke="green"/><polygon points="-5.684341886080802e-14,115.03827849289165 400.00000000000006,329.12313492511555 " stroke-opacity="0.25" stroke="green"/><polygon points="-5.684341886080802e-14,95.06049623236457 400.00000000000006,393.26233060364984 " stroke-opacity="0.25" stroke="green"/><polygon points="-5.684341886080802e-14,75.0827139718375 339.9438118827503,400.0 " stroke-opacity="0.25" stroke="green"/><polygon points="0.0,55.10493171131051 295.7706724042515,400.0 " stroke-opacity="0.25" stroke="green"/><polygon points="0.0,35.12714945078338 265.0956432385501,400.0 " stroke-opacity="0.25" stroke="green"/><polygon points="-5.684341886080802e-14,15.149367190256356 242.55174295477556,399.99999999999994 " stroke-opacity="0.25" stroke="green"/><polygon points="2.686980662610779,0.0 225.2843028485125,400.0 " stroke-opacity="0.25" stroke="green"/><polygon points="12.358242847221618,0.0 211.63494265607795,400.0 " stroke-opacity="0.25" stroke="green"/><polygon points="20.19523585137435,0.0 200.57434494945346,400.0 " stroke-opacity="0.25" stroke="green"/><polygon points="26.67459605797825,0.0 191.42981762837738,400.0 " stroke-opacity="0.25" stroke="green"/><polygon points="32.1209843522945,-5.684341886080802e-14 183.74315645034895,400.00000000000006 " stroke-opacity="0.25" stroke="green"/><polygon points="36.7631859906208,0.0 177.19146950009232,400.0 " stroke-opacity="0.25" stroke="green"/><polygon points="40.76706868515225,0.0 171.54066239521651,400.0 " stroke-opacity="0.25" stroke="green"/><polygon points="44.25581972208579,0.0 166.61687699721455,400.0 " stroke-opacity="0.25" stroke="green"/><polygon points="47.32284418065916,0.0 162.2882877443363,400.0 " stroke-opacity="0.25" stroke="green"/><polygon points="0.0,90.15617364667791 400.0,355.81855005057605 " stroke-opacity="0.25" stroke="green"/><polygon points="0.0,69.35808435506303 374.41762778004784,400.00000000000006 " stroke-opacity="0.25" stroke="green"/><polygon points="-5.684341886080802e-14,48.55999506344813 318.90805043390776,400.00000000000006 " stroke-opacity="0.25" stroke="green"/><polygon points="-5.684341886080802e-14,27.761905771833284 281.7983709162297,400.00000000000006 " stroke-opacity="0.25" stroke="green"/><polygon points="0.0,6.963816480218412 255.24068197911654,400.0 " stroke-opacity="0.25" stroke="green"/><polygon points="7.865780083564999,0.0 235.2945778469091,400.0 " stroke-opacity="0.25" stroke="green"/><polygon points="17.51126109490903,0.0 219.76441429102186,400.0 " stroke-opacity="0.25" stroke="green"/><polygon points="25.23412190701052,0.0 207.32985645090682,400.0 " stroke-opacity="0.25" stroke="green"/><polygon points="31.557112764292725,0.0 197.14922553571623,400.0 " stroke-opacity="0.25" stroke="green"/><polygon points="36.82922156923678,0.0 188.6606170434161,400.0 " stroke-opacity="0.25" stroke="green"/><polygon points="41.29233283790143,0.0 181.47457335218212,400.0 " stroke-opacity="0.25" stroke="green"/><polygon points="45.119387099981566,0.0 175.312643370934,400.0 " stroke-opacity="0.25" stroke="green"/><polygon points="48.43731073754975,0.0 169.9704632664087,400.0 " stroke-opacity="0.25" stroke="green"/><polygon points="51.34136519821095,0.0 165.29465283287715,400.0 " stroke-opacity="0.25" stroke="green"/><polygon points="53.90444179472601,0.0 161.16784995976684,400.0 " stroke-opacity="0.25" stroke="green"/><polygon points="-5.684341886080802e-14,62.590635932869134 400.00000000000006,385.90678667905945 " stroke-opacity="0.25" stroke="green"/><polygon points="-5.684341886080802e-14,40.65132570366333 345.7834230632086,400.0 " stroke-opacity="0.25" stroke="green"/><polygon points="0.0,18.712015474457587 300.1864370517161,399.99999999999994 " stroke-opacity="0.25" stroke="green"/><polygon points="2.149937879317065,0.0 268.61929288991365,400.0 " stroke-opacity="0.25" stroke="green"/><polygon points="14.52994616207485,0.0 245.47005383792518,400.0 " stroke-opacity="0.25" stroke="green"/><polygon points="23.997011319477792,0.0 227.76769456287514,400.0 " stroke-opacity="0.25" stroke="green"/><polygon points="31.471010127953804,0.0 213.79214776678305,400.0 " stroke-opacity="0.25" stroke="green"/><polygon points="37.521390115767645,-5.684341886080802e-14 202.47860988423227,400.00000000000006 " stroke-opacity="0.25" stroke="green"/><polygon points="42.519530105700966,0.0 193.1326438073425,400.0 " stroke-opacity="0.25" stroke="green"/><polygon points="46.71796769724489,0.0 185.2820323027551,400.0 " stroke-opacity="0.25" stroke="green"/><polygon points="50.29441453448601,0.0 178.5944743544029,400.0 " stroke-opacity="0.25" stroke="green"/><polygon points="53.377558359693836,0.0 172.82933819203026,400.0 " stroke-opacity="0.25" stroke="green"/><polygon points="56.062877175197485,0.0 167.808090566738,400.0 " stroke-opacity="0.25" stroke="green"/><polygon points="58.42270280094306,0.0 163.39547901723873,400.0 " stroke-opacity="0.25" stroke="green"/><polygon points="60.51283406946061,5.684341886080802e-14 159.4871659305394,399.99999999999994 " stroke-opacity="0.25" stroke="green"/><polygon points="0.0,31.20620282643185 378.73322515907523,400.0 " stroke-opacity="0.25" stroke="green"/><polygon points="0.0,7.720911253935839 321.2848628757589,400.00000000000006 " stroke-opacity="0.25" stroke="green"/><polygon points="10.737337880639643,-5.684341886080802e-14 283.1828806463921,400.00000000000006 " stroke-opacity="0.25" stroke="green"/><polygon points="22.880810652117447,0.0 256.06299587523836,400.0 " stroke-opacity="0.25" stroke="green"/><polygon points="31.965060457782954,0.0 235.77524025555454,400.0 " stroke-opacity="0.25" stroke="green"/><polygon points="39.016795498262525,-5.684341886080802e-14 220.02667760519833,400.00000000000006 " stroke-opacity="0.25" stroke="green"/><polygon points="44.649517084980516,-5.684341886080802e-14 207.44718216312202,400.00000000000006 " stroke-opacity="0.25" stroke="green"/><polygon points="49.25238958924115,0.0 197.16763740018936,400.0 " stroke-opacity="0.25" stroke="green"/><polygon points="53.08419233338131,-5.684341886080802e-14 188.61011428942388,400.00000000000006 " stroke-opacity="0.25" stroke="green"/><polygon points="56.32370439331643,0.0 181.3753474781905,400.0 " stroke-opacity="0.25" stroke="green"/><polygon points="59.09840130190213,5.684341886080802e-14 175.17864725480266,399.99999999999994 " stroke-opacity="0.25" stroke="green"/><polygon points="61.50162614348346,0.0 169.8115515310867,400.0 " stroke-opacity="0.25" stroke="green"/><polygon points="63.60329681483287,0.0 165.11791343377217,400.0 " stroke-opacity="0.25" stroke="green"/><polygon points="65.45682062741344,0.0 160.9784589989715,400.0 " stroke-opacity="0.25" stroke="green"/><polygon points="67.10369619521447,0.0 157.30050982646662,400.0 " stroke-opacity="0.25" stroke="green"/><polygon points="4.829143221496139,0.0 346.84670423720155,400.0 " stroke-opacity="0.25" stroke="green"/><polygon points="21.697214576332556,-5.684341886080802e-14 299.73427424234495,400.00000000000006 " stroke-opacity="0.25" stroke="green"/><polygon points="33.24886813450712,5.684341886080802e-14 267.47056974785977,399.99999999999994 " stroke-opacity="0.25" stroke="green"/><polygon points="41.65535447387197,-5.684341886080802e-14 243.99129989923597,400.00000000000006 " stroke-opacity="0.25" stroke="green"/><polygon points="48.047262371660366,-5.684341886080802e-14 226.138736495075,400.00000000000006 " stroke-opacity="0.25" stroke="green"/><polygon points="53.071281289183275,0.0 212.10667944684778,400.0 " stroke-opacity="0.25" stroke="green"/><polygon points="57.124067380303984,-5.684341886080802e-14 200.78727031076374,400.00000000000006 " stroke-opacity="0.25" stroke="green"/><polygon points="60.462432524518675,0.0 191.4632349278455,400.0 " stroke-opacity="0.25" stroke="green"/><polygon points="63.25998137726347,-5.684341886080802e-14 183.64969645568695,400.00000000000006 " stroke-opacity="0.25" stroke="green"/><polygon points="65.6382852749536,-5.684341886080802e-14 177.00710682410502,400.00000000000006 " stroke-opacity="0.25" stroke="green"/><polygon points="67.68501780500799,0.0 171.2905941883712,400.0 " stroke-opacity="0.25" stroke="green"/><polygon points="69.46499954566107,0.0 166.31911503200644,400.0 " stroke-opacity="0.25" stroke="green"/><polygon points="71.02718861236099,0.0 161.95592960935724,400.0 " stroke-opacity="0.25" stroke="green"/><polygon points="72.4092531183036,0.0 158.09583108861386,400.0 " stroke-opacity="0.25" stroke="green"/><polygon points="73.64064819824682,0.0 154.65655144131733,400.0 " stroke-opacity="0.25" stroke="green"/><polygon points="35.84056542599069,0.0 319.6275674996809,400.0 " stroke-opacity="0.25" stroke="green"/><polygon points="46.1908610762909,5.684341886080802e-14 280.3276358561338,399.99999999999994 " stroke-opacity="0.25" stroke="green"/><polygon points="53.45875028643036,0.0 252.73155949254985,400.0 " stroke-opacity="0.25" stroke="green"/><polygon points="58.84272320040728,0.0 232.28868765208557,400.0 " stroke-opacity="0.25" stroke="green"/><polygon points="62.991234129749074,-5.684341886080802e-14 216.53684814391548,400.00000000000006 " stroke-opacity="0.25" stroke="green"/><polygon points="66.28576631804202,0.0 204.02755428682417,400.0 " stroke-opacity="0.25" stroke="green"/><polygon points="68.96540171557629,0.0 193.85301517115448,400.0 " stroke-opacity="0.25" stroke="green"/><polygon points="71.18759455669692,0.0 185.4153792131625,400.0 " stroke-opacity="0.25" stroke="green"/><polygon points="73.06026851570617,0.0 178.3048616911264,400.0 " stroke-opacity="0.25" stroke="green"/><polygon points="74.659872829742,0.0 172.2311858926473,400.0 " stroke-opacity="0.25" stroke="green"/><polygon points="76.04207645045298,-5.684341886080802e-14 166.9829775663635,400.00000000000006 " stroke-opacity="0.25" stroke="green"/><polygon points="77.24837934784925,0.0 162.40266189125424,400.0 " stroke-opacity="0.25" stroke="green"/><polygon points="78.31035072981685,0.0 158.3703710148559,400.0 " stroke-opacity="0.25" stroke="green"/><polygon points="79.25243185222395,0.0 154.7933018214555,400.0 " stroke-opacity="0.25" stroke="green"/><polygon points="80.09384028721642,-5.684341886080802e-14 151.59848545130185,400.00000000000006 " stroke-opacity="0.25" stroke="green"/><polygon points="62.681152814154416,0.0 295.69417660632024,400.0 " stroke-opacity="0.25" stroke="green"/><polygon points="68.0274543692544,0.0 262.4946140625236,400.0 " stroke-opacity="0.25" stroke="green"/><polygon points="71.85601651412915,0.0 238.71993785475712,400.0 " stroke-opacity="0.25" stroke="green"/><polygon points="74.73280197590873,0.0 220.85562214433324,400.0 " stroke-opacity="0.25" stroke="green"/><polygon points="76.97348828091428,0.0 206.9413667740769,400.0 " stroke-opacity="0.25" stroke="green"/><polygon points="78.76804868230045,0.0 195.7974723135022,400.0 " stroke-opacity="0.25" stroke="green"/><polygon points="80.23765723298455,0.0 186.67146988163557,400.0 " stroke-opacity="0.25" stroke="green"/><polygon points="81.46324782047193,0.0 179.06077472293074,400.0 " stroke-opacity="0.25" stroke="green"/><polygon points="82.50093766371278,0.0 172.6169090904595,400.0 " stroke-opacity="0.25" stroke="green"/><polygon points="83.3908619583195,-5.684341886080802e-14 167.09064070220217,400.00000000000006 " stroke-opacity="0.25" stroke="green"/><polygon points="84.1624852534609,-5.684341886080802e-14 162.29900005431162,400.00000000000006 " stroke-opacity="0.25" stroke="green"/><polygon points="84.83792665907114,0.0 158.10463148772072,400.0 " stroke-opacity="0.25" stroke="green"/><polygon points="85.43411455474296,5.684341886080802e-14 154.40241283689872,399.99999999999994 " stroke-opacity="0.25" stroke="green"/><polygon points="85.96422485680952,0.0 151.11052405225269,400.0 " stroke-opacity="0.25" stroke="green"/><polygon points="86.43866617101388,0.0 148.16432958081214,400.0 " stroke-opacity="0.25" stroke="green"/><polygon points="86.49426217194771,5.684341886080802e-14 274.1070519703813,399.99999999999994 " stroke-opacity="0.25" stroke="green"/><polygon points="87.83795366544014,0.0 245.8126668127076,400.0 " stroke-opacity="0.25" stroke="green"/><polygon points="88.81502354650377,0.0 225.2383075385237,400.0 " stroke-opacity="0.25" stroke="green"/><polygon points="89.55750639693893,0.0 209.6036950959184,400.0 " stroke-opacity="0.25" stroke="green"/><polygon points="90.14083110323965,5.684341886080802e-14 197.32050807568882,399.99999999999994 " stroke-opacity="0.25" stroke="green"/><polygon points="90.61121921055519,0.0 187.41544999767453,400.0 " stroke-opacity="0.25" stroke="green"/><polygon points="90.9985741609556,-5.684341886080802e-14 179.25883799823856,400.00000000000006 " stroke-opacity="0.25" stroke="green"/><polygon points="91.32309846090025,0.0 172.42526378858668,400.0 " stroke-opacity="0.25" stroke="green"/><polygon points="91.5989324071095,0.0 166.61697226378118,400.0 " stroke-opacity="0.25" stroke="green"/><polygon points="91.83626928405408,-5.684341886080802e-14 161.61932135885797,400.00000000000006 " stroke-opacity="0.25" stroke="green"/><polygon points="92.04264270235917,0.0 157.2736743021422,400.0 " stroke-opacity="0.25" stroke="green"/><polygon points="92.22374094453538,0.0 153.46025177150398,400.0 " stroke-opacity="0.25" stroke="green"/><polygon points="92.38393936964981,0.0 150.08692094088323,400.0 " stroke-opacity="0.25" stroke="green"/><polygon points="92.52665854598992,0.0 147.08165420792403,400.0 " stroke-opacity="0.25" stroke="green"/><polygon points="92.65461122067171,0.0 144.3873287046854,400.0 " stroke-opacity="0.25" stroke="green"/><polygon points="108.08877364393229,-5.684341886080802e-14 254.1938617781412,400.00000000000006 " stroke-opacity="0.25" stroke="green"/><polygon points="106.09588126738332,0.0 229.95505666456046,400.0 " stroke-opacity="0.25" stroke="green"/><polygon points="104.62967075994794,0.0 212.12208627267574,400.0 " stroke-opacity="0.25" stroke="green"/><polygon points="103.5057238325993,-5.684341886080802e-14 198.45193988113436,400.00000000000006 " stroke-opacity="0.25" stroke="green"/><polygon points="102.61672234077398,-5.684341886080802e-14 187.63934700878292,400.00000000000006 " stroke-opacity="0.25" stroke="green"/><polygon points="101.89596922773049,0.0 178.87309628313156,400.0 " stroke-opacity="0.25" stroke="green"/><polygon points="101.29983058649911,0.0 171.62248480229258,400.0 " stroke-opacity="0.25" stroke="green"/><polygon points="100.79856011475619,0.0 165.52571940906552,400.0 " stroke-opacity="0.25" stroke="green"/><polygon points="100.37118123312183,-5.684341886080802e-14 160.3276698086483,400.00000000000006 " stroke-opacity="0.25" stroke="green"/><polygon points="100.00247710193813,0.0 155.84325926771882,400.0 " stroke-opacity="0.25" stroke="green"/><polygon points="99.68114072384483,0.0 151.93496500348246,400.0 " stroke-opacity="0.25" stroke="green"/><polygon points="99.39859498643553,0.0 148.49846680351578,400.0 " stroke-opacity="0.25" stroke="green"/><polygon points="99.1482157020652,0.0 145.45319714934658,400.0 " stroke-opacity="0.25" stroke="green"/><polygon points="98.92480571560456,0.0 142.73594498562187,400.0 " stroke-opacity="0.25" stroke="green"/><polygon points="98.72423026512959,5.684341886080802e-14 140.29642074846754,399.99999999999994 " stroke-opacity="0.25" stroke="green"/><polygon points="128.06313356228193,0.0 235.44864939066701,400.0 " stroke-opacity="0.25" stroke="green"/><polygon points="123.16872194241172,0.0 214.65771315717723,400.0 " stroke-opacity="0.25" stroke="green"/><polygon points="119.53652393460533,5.684341886080802e-14 199.22852512952352,399.99999999999994 " stroke-opacity="0.25" stroke="green"/><polygon points="116.73404169530913,5.684341886080802e-14 187.3238808008473,399.99999999999994 " stroke-opacity="0.25" stroke="green"/><polygon points="114.5061163109046,0.0 177.85989244071916,400.0 " stroke-opacity="0.25" stroke="green"/><polygon points="112.69248508707224,0.0 170.1557812922653,400.0 " stroke-opacity="0.25" stroke="green"/><polygon points="111.18741832543162,0.0 163.76241892335912,400.0 " stroke-opacity="0.25" stroke="green"/><polygon points="109.91834269170631,0.0 158.37152158461876,400.0 " stroke-opacity="0.25" stroke="green"/><polygon points="108.83378898636863,-5.684341886080802e-14 153.76445363023436,400.00000000000006 " stroke-opacity="0.25" stroke="green"/><polygon points="107.89624076186118,0.0 149.78184921003785,400.0 " stroke-opacity="0.25" stroke="green"/><polygon points="107.07770636267342,0.0 146.30480277010616,400.0 " stroke-opacity="0.25" stroke="green"/><polygon points="106.35687660024219,0.0 143.2427951602299,400.0 " stroke-opacity="0.25" stroke="green"/><polygon points="105.7172429279462,0.0 140.52569984288687,400.0 " stroke-opacity="0.25" stroke="green"/><polygon points="105.14581763049257,-5.684341886080802e-14 138.09834639485874,400.00000000000006 " stroke-opacity="0.25" stroke="green"/><polygon points="104.63224271256124,5.684341886080802e-14 135.9167351616552,399.99999999999994 " stroke-opacity="0.25" stroke="green"/><polygon points="146.88073198589655,0.0 217.47008452144053,400.0 " stroke-opacity="0.25" stroke="green"/><polygon points="139.35167893551613,0.0 199.6969396919273,400.0 " stroke-opacity="0.25" stroke="green"/><polygon points="133.73095259599077,0.0 186.4286066610694,400.0 " stroke-opacity="0.25" stroke="green"/><polygon points="129.37462665544376,5.684341886080802e-14 176.14502765746604,399.99999999999994 " stroke-opacity="0.25" stroke="green"/><polygon points="125.89919068264857,0.0 167.94088478891925,400.0 " stroke-opacity="0.25" stroke="green"/><polygon points="123.06199170933392,0.0 161.2433694539304,400.0 " stroke-opacity="0.25" stroke="green"/><polygon points="120.70200432245556,0.0 155.672363732209,400.0 " stroke-opacity="0.25" stroke="green"/><polygon points="118.70816934457144,0.0 150.96570041200653,400.0 " stroke-opacity="0.25" stroke="green"/><polygon points="117.00140838354048,0.0 146.93670638755484,400.0 " stroke-opacity="0.25" stroke="green"/><polygon points="115.52388535022139,-5.684341886080802e-14 143.4488533090333,400.00000000000006 " stroke-opacity="0.25" stroke="green"/><polygon points="114.23232259552223,-5.684341886080802e-14 140.39997960047128,400.00000000000006 " stroke-opacity="0.25" stroke="green"/><polygon points="113.0936913177566,-5.684341886080802e-14 137.71211719975148,400.00000000000006 " stroke-opacity="0.25" stroke="green"/><polygon points="112.08234727403712,-5.684341886080802e-14 135.32473009526245,400.00000000000006 " stroke-opacity="0.25" stroke="green"/><polygon points="111.17807623546152,0.0 133.19010041126435,400.0 " stroke-opacity="0.25" stroke="green"/><polygon points="110.36472902670148,0.0 131.27010627106608,400.0 " stroke-opacity="0.25" stroke="green"/><polygon points="164.91843907087937,5.684341886080802e-14 199.92105013157573,399.99999999999994 " stroke-opacity="0.25" stroke="green"/><polygon points="154.89085337242534,-5.684341886080802e-14 184.87344844384924,400.00000000000006 " stroke-opacity="0.25" stroke="green"/><polygon points="147.3787767372415,0.0 173.60067148106043,400.0 " stroke-opacity="0.25" stroke="green"/><polygon points="141.5411464611849,0.0 164.8406032217729,400.0 " stroke-opacity="0.25" stroke="green"/><polygon points="136.87424893859927,0.0 157.83736065181583,400.0 " stroke-opacity="0.25" stroke="green"/><polygon points="133.05799638473061,0.0 152.11061344692902,400.0 " stroke-opacity="0.25" stroke="green"/><polygon points="129.87924103834214,-5.684341886080802e-14 147.3405076853239,400.00000000000006 " stroke-opacity="0.25" stroke="green"/><polygon points="127.19055753942018,5.684341886080802e-14 143.30581383450215,399.99999999999994 " stroke-opacity="0.25" stroke="green"/><polygon points="124.8867246302722,0.0 139.84863470739882,400.0 " stroke-opacity="0.25" stroke="green"/><polygon points="122.89063138570458,0.0 136.85325606102674,400.0 " stroke-opacity="0.25" stroke="green"/><polygon points="121.14447767011146,5.684341886080802e-14 134.2329418210956,399.99999999999994 " stroke-opacity="0.25" stroke="green"/><polygon points="119.60408532762662,-5.684341886080802e-14 131.92139733675288,400.00000000000006 " stroke-opacity="0.25" stroke="green"/><polygon points="118.23510853216851,0.0 129.8670825537867,400.0 " stroke-opacity="0.25" stroke="green"/><polygon points="117.01044259675622,-5.684341886080802e-14 128.02932362050205,400.00000000000006 " stroke-opacity="0.25" stroke="green"/><polygon points="115.90841120610203,5.684341886080802e-14 126.37559261160209,399.99999999999994 " stroke-opacity="0.25" stroke="green"/><polygon points="182.5,0.0 182.5,400.0 " stroke-opacity="0.25" stroke="green"/><polygon points="170.0,0.0 170.0,400.0 " stroke-opacity="0.25" stroke="green"/><polygon points="160.625,0.0 160.625,400.0 " stroke-opacity="0.25" stroke="green"/><polygon points="153.33333333333334,0.0 153.33333333333334,400.0 " stroke-opacity="0.25" stroke="green"/><polygon points="147.5,0.0 147.5,400.0 " stroke-opacity="0.25" stroke="green"/><polygon points="142.72727272727275,0.0 142.72727272727275,400.0 " stroke-opacity="0.25" stroke="green"/><polygon points="138.75,5.684341886080802e-14 138.75,399.99999999999994 " stroke-opacity="0.25" stroke="green"/><polygon points="135.3846153846154,0.0 135.3846153846154,400.0 " stroke-opacity="0.25" stroke="green"/><polygon points="132.5,0.0 132.5,400.0 " stroke-opacity="0.25" stroke="green"/><polygon points="130.0,0.0 130.0,400.0 " stroke-opacity="0.25" stroke="green"/><polygon points="127.8125,0.0 127.8125,400.0 " stroke-opacity="0.25" stroke="green"/><polygon points="125.88235294117646,0.0 125.88235294117646,400.0 " stroke-opacity="0.25" stroke="green"/><polygon points="124.16666666666667,0.0 124.16666666666667,400.0 " stroke-opacity="0.25" stroke="green"/><polygon points="122.63157894736842,0.0 122.63157894736842,400.0 " stroke-opacity="0.25" stroke="green"/><polygon points="121.25,0.0 121.25,400.0 " stroke-opacity="0.25" stroke="green"/><polygon points="199.92105013157558,0.0 164.9184390708795,400.0 " stroke-opacity="0.25" stroke="green"/><polygon points="184.87344844384913,-5.684341886080802e-14 154.89085337242545,400.00000000000006 " stroke-opacity="0.25" stroke="green"/><polygon points="173.60067148106032,0.0 147.37877673724162,400.0 " stroke-opacity="0.25" stroke="green"/><polygon points="164.84060322177282,0.0 141.541146461185,400.0 " stroke-opacity="0.25" stroke="green"/><polygon points="157.83736065181574,0.0 136.87424893859938,400.0 " stroke-opacity="0.25" stroke="green"/><polygon points="152.11061344692894,0.0 133.0579963847307,400.0 " stroke-opacity="0.25" stroke="green"/><polygon points="147.34050768532381,-5.684341886080802e-14 129.87924103834223,400.00000000000006 " stroke-opacity="0.25" stroke="green"/><polygon points="143.3058138345021,5.684341886080802e-14 127.19055753942028,399.99999999999994 " stroke-opacity="0.25" stroke="green"/><polygon points="139.84863470739873,0.0 124.88672463027227,400.0 " stroke-opacity="0.25" stroke="green"/><polygon points="136.85325606102668,0.0 122.89063138570465,400.0 " stroke-opacity="0.25" stroke="green"/><polygon points="134.23294182109555,5.684341886080802e-14 121.14447767011154,399.99999999999994 " stroke-opacity="0.25" stroke="green"/><polygon points="131.92139733675282,0.0 119.6040853276267,400.0 " stroke-opacity="0.25" stroke="green"/><polygon points="129.86708255378664,0.0 118.23510853216858,400.0 " stroke-opacity="0.25" stroke="green"/><polygon points="128.029323620502,-5.684341886080802e-14 117.01044259675626,400.00000000000006 " stroke-opacity="0.25" stroke="green"/><polygon points="126.37559261160202,5.684341886080802e-14 115.90841120610209,399.99999999999994 " stroke-opacity="0.25" stroke="green"/><polygon points="217.4700845214404,0.0 146.8807319858967,400.0 " stroke-opacity="0.25" stroke="green"/><polygon points="199.69693969192718,0.0 139.35167893551625,400.0 " stroke-opacity="0.25" stroke="green"/><polygon points="186.42860666106932,-5.684341886080802e-14 133.7309525959909,400.00000000000006 " stroke-opacity="0.25" stroke="green"/><polygon points="176.14502765746596,0.0 129.37462665544385,400.0 " stroke-opacity="0.25" stroke="green"/><polygon points="167.94088478891916,5.684341886080802e-14 125.89919068264868,399.99999999999994 " stroke-opacity="0.25" stroke="green"/><polygon points="161.2433694539303,0.0 123.06199170933402,400.0 " stroke-opacity="0.25" stroke="green"/><polygon points="155.6723637322089,0.0 120.70200432245566,400.0 " stroke-opacity="0.25" stroke="green"/><polygon points="150.96570041200644,0.0 118.70816934457152,400.0 " stroke-opacity="0.25" stroke="green"/><polygon points="146.93670638755475,0.0 117.00140838354054,400.0 " stroke-opacity="0.25" stroke="green"/><polygon points="143.4488533090332,-5.684341886080802e-14 115.52388535022146,400.00000000000006 " stroke-opacity="0.25" stroke="green"/><polygon points="140.39997960047123,0.0 114.23232259552233,400.0 " stroke-opacity="0.25" stroke="green"/><polygon points="137.7121171997514,-5.684341886080802e-14 113.09369131775668,400.00000000000006 " stroke-opacity="0.25" stroke="green"/><polygon points="135.32473009526237,-5.684341886080802e-14 112.0823472740372,400.00000000000006 " stroke-opacity="0.25" stroke="green"/><polygon points="133.1901004112643,0.0 111.1780762354616,400.0 " stroke-opacity="0.25" stroke="green"/><polygon points="131.27010627106597,0.0 110.36472902670157,400.0 " stroke-opacity="0.25" stroke="green"/><polygon points="235.448649390667,0.0 128.063133562282,400.0 " stroke-opacity="0.25" stroke="green"/><polygon points="214.65771315717717,0.0 123.16872194241175,400.0 " stroke-opacity="0.25" stroke="green"/><polygon points="199.2285251295235,5.684341886080802e-14 119.53652393460538,399.99999999999994 " stroke-opacity="0.25" stroke="green"/><polygon points="187.32388080084723,0.0 116.73404169530916,400.0 " stroke-opacity="0.25" stroke="green"/><polygon points="177.8598924407191,0.0 114.50611631090466,400.0 " stroke-opacity="0.25" stroke="green"/><polygon points="170.15578129226523,-5.684341886080802e-14 112.6924850870723,400.00000000000006 " stroke-opacity="0.25" stroke="green"/><polygon points="163.7624189233591,0.0 111.18741832543166,400.0 " stroke-opacity="0.25" stroke="green"/><polygon points="158.3715215846187,0.0 109.91834269170637,400.0 " stroke-opacity="0.25" stroke="green"/><polygon points="153.7644536302343,-5.684341886080802e-14 108.83378898636869,400.00000000000006 " stroke-opacity="0.25" stroke="green"/><polygon points="149.78184921003782,0.0 107.89624076186122,400.0 " stroke-opacity="0.25" stroke="green"/><polygon points="146.3048027701061,0.0 107.07770636267348,400.0 " stroke-opacity="0.25" stroke="green"/><polygon points="143.24279516022986,0.0 106.35687660024224,400.0 " stroke-opacity="0.25" stroke="green"/><polygon points="140.52569984288684,0.0 105.71724292794626,400.0 " stroke-opacity="0.25" stroke="green"/><polygon points="138.0983463948587,5.684341886080802e-14 105.14581763049267,399.99999999999994 " stroke-opacity="0.25" stroke="green"/><polygon points="135.91673516165514,5.684341886080802e-14 104.63224271256128,399.99999999999994 " stroke-opacity="0.25" stroke="green"/><polygon points="254.19386177814107,5.684341886080802e-14 108.08877364393243,399.99999999999994 " stroke-opacity="0.25" stroke="green"/><polygon points="229.95505666456035,-5.684341886080802e-14 106.09588126738345,400.00000000000006 " stroke-opacity="0.25" stroke="green"/><polygon points="212.12208627267563,0.0 104.62967075994808,400.0 " stroke-opacity="0.25" stroke="green"/><polygon points="198.45193988113425,0.0 103.50572383259943,400.0 " stroke-opacity="0.25" stroke="green"/><polygon points="187.63934700878283,0.0 102.61672234077409,400.0 " stroke-opacity="0.25" stroke="green"/><polygon points="178.87309628313147,-5.684341886080802e-14 101.8959692277306,400.00000000000006 " stroke-opacity="0.25" stroke="green"/><polygon points="171.6224848022925,0.0 101.29983058649923,400.0 " stroke-opacity="0.25" stroke="green"/><polygon points="165.52571940906543,0.0 100.79856011475627,400.0 " stroke-opacity="0.25" stroke="green"/><polygon points="160.32766980864818,-5.684341886080802e-14 100.37118123312192,400.00000000000006 " stroke-opacity="0.25" stroke="green"/><polygon points="155.84325926771874,0.0 100.00247710193821,400.0 " stroke-opacity="0.25" stroke="green"/><polygon points="151.93496500348238,5.684341886080802e-14 99.68114072384498,399.99999999999994 " stroke-opacity="0.25" stroke="green"/><polygon points="148.49846680351573,0.0 99.39859498643561,400.0 " stroke-opacity="0.25" stroke="green"/><polygon points="145.4531971493465,0.0 99.14821570206529,400.0 " stroke-opacity="0.25" stroke="green"/><polygon points="142.7359449856218,0.0 98.92480571560462,400.0 " stroke-opacity="0.25" stroke="green"/><polygon points="140.29642074846748,5.684341886080802e-14 98.72423026512966,399.99999999999994 " stroke-opacity="0.25" stroke="green"/><polygon points="274.1070519703811,0.0 86.49426217194784,400.0 " stroke-opacity="0.25" stroke="green"/><polygon points="245.81266681270748,0.0 87.83795366544025,400.0 " stroke-opacity="0.25" stroke="green"/><polygon points="225.2383075385236,0.0 88.81502354650392,400.0 " stroke-opacity="0.25" stroke="green"/><polygon points="209.6036950959183,0.0 89.55750639693902,400.0 " stroke-opacity="0.25" stroke="green"/><polygon points="197.32050807568874,5.684341886080802e-14 90.14083110323976,399.99999999999994 " stroke-opacity="0.25" stroke="green"/><polygon points="187.41544999767444,0.0 90.61121921055535,400.0 " stroke-opacity="0.25" stroke="green"/><polygon points="179.25883799823848,-5.684341886080802e-14 90.9985741609557,400.00000000000006 " stroke-opacity="0.25" stroke="green"/><polygon points="172.42526378858662,0.0 91.32309846090037,400.0 " stroke-opacity="0.25" stroke="green"/><polygon points="166.61697226378112,0.0 91.59893240710959,400.0 " stroke-opacity="0.25" stroke="green"/><polygon points="161.6193213588579,0.0 91.8362692840542,400.0 " stroke-opacity="0.25" stroke="green"/><polygon points="157.27367430214213,0.0 92.04264270235927,400.0 " stroke-opacity="0.25" stroke="green"/><polygon points="153.4602517715039,0.0 92.22374094453545,400.0 " stroke-opacity="0.25" stroke="green"/><polygon points="150.08692094088315,0.0 92.38393936964991,400.0 " stroke-opacity="0.25" stroke="green"/><polygon points="147.08165420792395,-5.684341886080802e-14 92.52665854599003,400.00000000000006 " stroke-opacity="0.25" stroke="green"/><polygon points="144.38732870468533,0.0 92.65461122067182,400.0 " stroke-opacity="0.25" stroke="green"/><polygon points="295.6941766063202,0.0 62.68115281415447,400.0 " stroke-opacity="0.25" stroke="green"/><polygon points="262.49461406252357,0.0 68.02745436925446,400.0 " stroke-opacity="0.25" stroke="green"/><polygon points="238.7199378547571,0.0 71.85601651412921,400.0 " stroke-opacity="0.25" stroke="green"/><polygon points="220.85562214433318,-5.684341886080802e-14 74.73280197590881,400.00000000000006 " stroke-opacity="0.25" stroke="green"/><polygon points="206.9413667740768,0.0 76.97348828091432,400.0 " stroke-opacity="0.25" stroke="green"/><polygon points="195.79747231350214,0.0 78.76804868230052,400.0 " stroke-opacity="0.25" stroke="green"/><polygon points="186.67146988163552,0.0 80.23765723298462,400.0 " stroke-opacity="0.25" stroke="green"/><polygon points="179.0607747229307,0.0 81.463247820472,400.0 " stroke-opacity="0.25" stroke="green"/><polygon points="172.61690909045944,0.0 82.50093766371285,400.0 " stroke-opacity="0.25" stroke="green"/><polygon points="167.0906407022021,-5.684341886080802e-14 83.39086195831955,400.00000000000006 " stroke-opacity="0.25" stroke="green"/><polygon points="162.29900005431156,-5.684341886080802e-14 84.16248525346094,400.00000000000006 " stroke-opacity="0.25" stroke="green"/><polygon points="158.10463148772067,0.0 84.83792665907121,400.0 " stroke-opacity="0.25" stroke="green"/><polygon points="154.40241283689866,5.684341886080802e-14 85.43411455474303,399.99999999999994 " stroke-opacity="0.25" stroke="green"/><polygon points="151.11052405225263,0.0 85.96422485680957,400.0 " stroke-opacity="0.25" stroke="green"/><polygon points="148.16432958081208,0.0 86.43866617101395,400.0 " stroke-opacity="0.25" stroke="green"/><polygon points="319.62756749968065,5.684341886080802e-14 35.84056542599092,399.99999999999994 " stroke-opacity="0.25" stroke="green"/><polygon points="280.3276358561336,0.0 46.1908610762911,400.0 " stroke-opacity="0.25" stroke="green"/><polygon points="252.73155949254974,0.0 53.45875028643056,400.0 " stroke-opacity="0.25" stroke="green"/><polygon points="232.28868765208549,-5.684341886080802e-14 58.84272320040742,400.00000000000006 " stroke-opacity="0.25" stroke="green"/><polygon points="216.5368481439154,-5.684341886080802e-14 62.99123412974919,400.00000000000006 " stroke-opacity="0.25" stroke="green"/><polygon points="204.02755428682408,0.0 66.28576631804214,400.0 " stroke-opacity="0.25" stroke="green"/><polygon points="193.85301517115442,-5.684341886080802e-14 68.9654017155764,400.00000000000006 " stroke-opacity="0.25" stroke="green"/><polygon points="185.41537921316245,0.0 71.18759455669704,400.0 " stroke-opacity="0.25" stroke="green"/><polygon points="178.30486169112632,5.684341886080802e-14 73.06026851570628,399.99999999999994 " stroke-opacity="0.25" stroke="green"/><polygon points="172.23118589264723,0.0 74.65987282974211,400.0 " stroke-opacity="0.25" stroke="green"/><polygon points="166.98297756636345,0.0 76.04207645045307,400.0 " stroke-opacity="0.25" stroke="green"/><polygon points="162.40266189125418,0.0 77.24837934784934,400.0 " stroke-opacity="0.25" stroke="green"/><polygon points="158.37037101485583,-5.684341886080802e-14 78.31035072981692,400.00000000000006 " stroke-opacity="0.25" stroke="green"/><polygon points="154.79330182145543,0.0 79.25243185222403,400.0 " stroke-opacity="0.25" stroke="green"/><polygon points="151.5984854513018,0.0 80.09384028721654,400.0 " stroke-opacity="0.25" stroke="green"/><polygon points="346.84670423720144,-5.684341886080802e-14 4.829143221496338,400.00000000000006 " stroke-opacity="0.25" stroke="green"/><polygon points="299.7342742423448,0.0 21.697214576332755,400.0 " stroke-opacity="0.25" stroke="green"/><polygon points="267.47056974785966,5.684341886080802e-14 33.248868134507234,399.99999999999994 " stroke-opacity="0.25" stroke="green"/><polygon points="243.99129989923586,0.0 41.65535447387211,400.0 " stroke-opacity="0.25" stroke="green"/><polygon points="226.1387364950749,0.0 48.04726237166051,400.0 " stroke-opacity="0.25" stroke="green"/><polygon points="212.1066794468477,5.684341886080802e-14 53.071281289183446,399.99999999999994 " stroke-opacity="0.25" stroke="green"/><polygon points="200.78727031076366,0.0 57.1240673803041,400.0 " stroke-opacity="0.25" stroke="green"/><polygon points="191.4632349278454,0.0 60.462432524518846,400.0 " stroke-opacity="0.25" stroke="green"/><polygon points="183.64969645568686,-5.684341886080802e-14 63.25998137726356,400.00000000000006 " stroke-opacity="0.25" stroke="green"/><polygon points="177.00710682410494,0.0 65.63828527495369,400.0 " stroke-opacity="0.25" stroke="green"/><polygon points="171.29059418837113,0.0 67.68501780500807,400.0 " stroke-opacity="0.25" stroke="green"/><polygon points="166.31911503200638,-5.684341886080802e-14 69.46499954566119,400.00000000000006 " stroke-opacity="0.25" stroke="green"/><polygon points="161.95592960935718,-5.684341886080802e-14 71.02718861236104,400.00000000000006 " stroke-opacity="0.25" stroke="green"/><polygon points="158.09583108861378,-5.684341886080802e-14 72.40925311830371,400.00000000000006 " stroke-opacity="0.25" stroke="green"/><polygon points="154.65655144131728,-5.684341886080802e-14 73.6406481982469,400.00000000000006 " stroke-opacity="0.25" stroke="green"/><polygon points="0.0,368.79379717356824 378.7332251590751,0.0 " stroke-opacity="0.25" stroke="green"/><polygon points="0.0,392.2790887460642 321.2848628757588,5.684341886080802e-14 " stroke-opacity="0.25" stroke="green"/><polygon points="283.18288064639205,0.0 10.737337880639757,400.0 " stroke-opacity="0.25" stroke="green"/><polygon points="256.0629958752383,0.0 22.880810652117475,400.0 " stroke-opacity="0.25" stroke="green"/><polygon points="235.7752402555545,0.0 31.965060457783068,400.0 " stroke-opacity="0.25" stroke="green"/><polygon points="220.02667760519827,-5.684341886080802e-14 39.01679549826255,400.00000000000006 " stroke-opacity="0.25" stroke="green"/><polygon points="207.447182163122,-5.684341886080802e-14 44.64951708498057,400.00000000000006 " stroke-opacity="0.25" stroke="green"/><polygon points="197.1676374001893,0.0 49.252389589241204,400.0 " stroke-opacity="0.25" stroke="green"/><polygon points="188.61011428942382,-5.684341886080802e-14 53.08419233338134,400.00000000000006 " stroke-opacity="0.25" stroke="green"/><polygon points="181.37534747819043,0.0 56.32370439331649,400.0 " stroke-opacity="0.25" stroke="green"/><polygon points="175.17864725480263,5.684341886080802e-14 59.098401301902186,399.99999999999994 " stroke-opacity="0.25" stroke="green"/><polygon points="169.81155153108665,0.0 61.50162614348352,400.0 " stroke-opacity="0.25" stroke="green"/><polygon points="165.11791343377212,0.0 63.60329681483293,400.0 " stroke-opacity="0.25" stroke="green"/><polygon points="160.97845899897143,0.0 65.45682062741349,400.0 " stroke-opacity="0.25" stroke="green"/><polygon points="157.30050982646657,0.0 67.10369619521452,400.0 " stroke-opacity="0.25" stroke="green"/><polygon points="0.0,337.40936406713104 400.0,14.093213320940322 " stroke-opacity="0.25" stroke="green"/><polygon points="0.0,359.34867429633687 345.78342306320843,0.0 " stroke-opacity="0.25" stroke="green"/><polygon points="-5.684341886080802e-14,381.2879845255427 300.186437051716,0.0 " stroke-opacity="0.25" stroke="green"/><polygon points="268.61929288991354,-5.684341886080802e-14 2.149937879317264,400.00000000000006 " stroke-opacity="0.25" stroke="green"/><polygon points="245.4700538379251,-5.684341886080802e-14 14.529946162074936,400.00000000000006 " stroke-opacity="0.25" stroke="green"/><polygon points="227.76769456287505,0.0 23.997011319477934,400.0 " stroke-opacity="0.25" stroke="green"/><polygon points="213.79214776678296,0.0 31.471010127953974,400.0 " stroke-opacity="0.25" stroke="green"/><polygon points="202.4786098842322,0.0 37.521390115767815,400.0 " stroke-opacity="0.25" stroke="green"/><polygon points="193.13264380734245,-5.684341886080802e-14 42.51953010570105,400.00000000000006 " stroke-opacity="0.25" stroke="green"/><polygon points="185.28203230275506,0.0 46.717967697245,400.0 " stroke-opacity="0.25" stroke="green"/><polygon points="178.59447435440282,0.0 50.294414534486094,400.0 " stroke-opacity="0.25" stroke="green"/><polygon points="172.8293381920302,0.0 53.37755835969395,400.0 " stroke-opacity="0.25" stroke="green"/><polygon points="167.80809056673795,0.0 56.06287717519757,400.0 " stroke-opacity="0.25" stroke="green"/><polygon points="163.39547901723867,0.0 58.4227028009432,400.0 " stroke-opacity="0.25" stroke="green"/><polygon points="159.4871659305393,0.0 60.512834069460695,400.0 " stroke-opacity="0.25" stroke="green"/><polygon points="0.0,309.8438263533223 400.0,44.18144994942372 " stroke-opacity="0.25" stroke="green"/><polygon points="0.0,330.6419156449372 374.4176277800475,5.684341886080802e-14 " stroke-opacity="0.25" stroke="green"/><polygon points="5.684341886080802e-14,351.4400049365521 318.90805043390753,0.0 " stroke-opacity="0.25" stroke="green"/><polygon points="5.684341886080802e-14,372.23809422816703 281.79837091622954,0.0 " stroke-opacity="0.25" stroke="green"/><polygon points="5.684341886080802e-14,393.03618351978196 255.24068197911637,0.0 " stroke-opacity="0.25" stroke="green"/><polygon points="235.29457784690896,0.0 7.865780083565255,400.0 " stroke-opacity="0.25" stroke="green"/><polygon points="219.76441429102175,5.684341886080802e-14 17.5112610949092,399.99999999999994 " stroke-opacity="0.25" stroke="green"/><polygon points="207.3298564509067,0.0 25.23412190701069,400.0 " stroke-opacity="0.25" stroke="green"/><polygon points="197.14922553571614,-5.684341886080802e-14 31.55711276429284,400.00000000000006 " stroke-opacity="0.25" stroke="green"/><polygon points="188.66061704341598,-5.684341886080802e-14 36.829221569236864,400.00000000000006 " stroke-opacity="0.25" stroke="green"/><polygon points="181.47457335218206,5.684341886080802e-14 41.29233283790157,399.99999999999994 " stroke-opacity="0.25" stroke="green"/><polygon points="175.31264337093393,-8.526512829121202e-14 45.11938709998168,400.0000000000001 " stroke-opacity="0.25" stroke="green"/><polygon points="169.97046326640864,0.0 48.43731073754989,400.0 " stroke-opacity="0.25" stroke="green"/><polygon points="165.2946528328771,5.684341886080802e-14 51.34136519821112,399.99999999999994 " stroke-opacity="0.25" stroke="green"/><polygon points="161.16784995976678,0.0 53.904441794726154,400.0 " stroke-opacity="0.25" stroke="green"/><polygon points="0.0,284.9617215071084 400.0,70.87686507488436 " stroke-opacity="0.25" stroke="green"/><polygon points="0.0,304.9395037676355 400.0,6.737669396350071 " stroke-opacity="0.25" stroke="green"/><polygon points="5.684341886080802e-14,324.91728602816255 339.9438118827502,-5.684341886080802e-14 " stroke-opacity="0.25" stroke="green"/><polygon points="5.684341886080802e-14,344.8950682886897 295.77067240425146,0.0 " stroke-opacity="0.25" stroke="green"/><polygon points="0.0,364.87285054921676 265.09564323855005,-5.684341886080802e-14 " stroke-opacity="0.25" stroke="green"/><polygon points="0.0,384.85063280974384 242.5517429547755,0.0 " stroke-opacity="0.25" stroke="green"/><polygon points="225.28430284851243,5.684341886080802e-14 2.6869806626108925,399.99999999999994 " stroke-opacity="0.25" stroke="green"/><polygon points="211.6349426560779,0.0 12.358242847221675,400.0 " stroke-opacity="0.25" stroke="green"/><polygon points="200.5743449494534,-5.684341886080802e-14 20.195235851374406,400.00000000000006 " stroke-opacity="0.25" stroke="green"/><polygon points="191.42981762837732,5.684341886080802e-14 26.674596057978306,399.99999999999994 " stroke-opacity="0.25" stroke="green"/><polygon points="183.7431564503489,5.684341886080802e-14 32.12098435229461,399.99999999999994 " stroke-opacity="0.25" stroke="green"/><polygon points="177.19146950009227,-5.684341886080802e-14 36.763185990620855,400.00000000000006 " stroke-opacity="0.25" stroke="green"/><polygon points="171.54066239521646,0.0 40.76706868515231,400.0 " stroke-opacity="0.25" stroke="green"/><polygon points="166.6168769972145,-5.684341886080802e-14 44.255819722085874,400.00000000000006 " stroke-opacity="0.25" stroke="green"/><polygon points="162.28828774433623,0.0 47.32284418065922,400.0 " stroke-opacity="0.25" stroke="green"/><polygon points="0.0,261.9357836364401 400.0,95.1259113792287 " stroke-opacity="0.25" stroke="green"/><polygon points="0.0,281.36025493887564 400.0,32.76313509246188 " stroke-opacity="0.25" stroke="green"/><polygon points="-5.684341886080802e-14,300.7847262413112 364.1633877243624,0.0 " stroke-opacity="0.25" stroke="green"/><polygon points="5.684341886080802e-14,320.20919754374677 310.75327448200494,5.684341886080802e-14 " stroke-opacity="0.25" stroke="green"/><polygon points="0.0,339.63366884618233 275.02992216707884,0.0 " stroke-opacity="0.25" stroke="green"/><polygon points="0.0,359.0581401486179 249.45588604802197,0.0 " stroke-opacity="0.25" stroke="green"/><polygon points="0.0,378.48261145105346 230.24389985125913,0.0 " stroke-opacity="0.25" stroke="green"/><polygon points="-5.684341886080802e-14,397.907082753489 215.28256069535323,0.0 " stroke-opacity="0.25" stroke="green"/><polygon points="203.3016990623034,0.0 8.443009766971642,400.0 " stroke-opacity="0.25" stroke="green"/><polygon points="193.49137018794605,-5.684341886080802e-14 16.28363043970964,400.00000000000006 " stroke-opacity="0.25" stroke="green"/><polygon points="185.31072381594416,0.0 22.821774663226194,400.0 " stroke-opacity="0.25" stroke="green"/><polygon points="178.3848202944468,0.0 28.357102074112646,400.0 " stroke-opacity="0.25" stroke="green"/><polygon points="172.44554374475146,0.0 33.10389650812695,400.0 " stroke-opacity="0.25" stroke="green"/><polygon points="167.29608779621617,0.0 37.21944974599782,400.0 " stroke-opacity="0.25" stroke="green"/><polygon points="162.78872632469222,0.0 40.821827605674684,400.0 " stroke-opacity="0.25" stroke="green"/><polygon points="0.0,240.12550436484227 400.0,117.64314789349004 " stroke-opacity="0.25" stroke="green"/><polygon points="0.0,259.2301616765491 400.0,56.307142840115546 " stroke-opacity="0.25" stroke="green"/><polygon points="0.0,278.3348189882559 392.90119017096947,0.0 " stroke-opacity="0.25" stroke="green"/><polygon points="0.0,297.43947629996273 327.03235303238205,0.0 " stroke-opacity="0.25" stroke="green"/><polygon points="0.0,316.5441336116695 285.01761810270284,-5.684341886080802e-14 " stroke-opacity="0.25" stroke="green"/><polygon points="0.0,335.6487909233764 255.88561777413406,5.684341886080802e-14 " stroke-opacity="0.25" stroke="green"/><polygon points="-5.684341886080802e-14,354.7534482350832 234.4987684453138,0.0 " stroke-opacity="0.25" stroke="green"/><polygon points="0.0,373.85810554679006 218.1307497877798,-5.684341886080802e-14 " stroke-opacity="0.25" stroke="green"/><polygon points="5.684341886080802e-14,392.9627628584968 205.20043636242713,0.0 " stroke-opacity="0.25" stroke="green"/><polygon points="194.7277401470173,5.684341886080802e-14 5.702614048394565,399.99999999999994 " stroke-opacity="0.25" stroke="green"/><polygon points="186.0728034225118,0.0 13.452345707164142,400.0 " stroke-opacity="0.25" stroke="green"/><polygon points="178.80015272133434,0.0 19.964362279452672,400.0 " stroke-opacity="0.25" stroke="green"/><polygon points="172.60312770499672,0.0 25.51325102214227,400.0 " stroke-opacity="0.25" stroke="green"/><polygon points="167.2595320965246,0.0 30.297969082689917,400.0 " stroke-opacity="0.25" stroke="green"/><polygon points="162.60442695244302,0.0 34.46620472187672,400.0 " stroke-opacity="0.25" stroke="green"/><polygon points="0.0,219.00000000000006 400.0,138.99999999999994 " stroke-opacity="0.25" stroke="green"/><polygon points="0.0,238.00000000000006 400.0,77.99999999999996 " stroke-opacity="0.25" stroke="green"/><polygon points="0.0,257.00000000000006 400.0,16.999999999999915 " stroke-opacity="0.25" stroke="green"/><polygon points="0.0,276.00000000000006 344.9999999999999,5.684341886080802e-14 " stroke-opacity="0.25" stroke="green"/><polygon points="-5.684341886080802e-14,295.00000000000006 295.0,0.0 " stroke-opacity="0.25" stroke="green"/><polygon points="-5.684341886080802e-14,314.0000000000001 261.66666666666663,0.0 " stroke-opacity="0.25" stroke="green"/><polygon points="0.0,333.0000000000001 237.85714285714283,0.0 " stroke-opacity="0.25" stroke="green"/><polygon points="5.684341886080802e-14,352.0000000000001 219.99999999999997,0.0 " stroke-opacity="0.25" stroke="green"/><polygon points="0.0,371.0000000000001 206.11111111111106,0.0 " stroke-opacity="0.25" stroke="green"/><polygon points="0.0,390.0000000000001 194.99999999999997,0.0 " stroke-opacity="0.25" stroke="green"/><polygon points="185.90909090909088,0.0 4.090909090909179,400.0 " stroke-opacity="0.25" stroke="green"/><polygon points="178.33333333333331,0.0 11.66666666666677,400.0 " stroke-opacity="0.25" stroke="green"/><polygon points="171.9230769230769,0.0 18.07692307692315,400.0 " stroke-opacity="0.25" stroke="green"/><polygon points="166.4285714285714,0.0 23.571428571428612,400.0 " stroke-opacity="0.25" stroke="green"/><polygon points="161.66666666666663,0.0 28.33333333333337,400.0 " stroke-opacity="0.25" stroke="green"/><polygon points="0.0,198.08381025857162 400.0,159.6848419997607 " stroke-opacity="0.25" stroke="green"/><polygon points="0.0,217.18846757027842 400.0,98.34883694638619 " stroke-opacity="0.25" stroke="green"/><polygon points="0.0,236.29312488198525 400.0,37.01283189301168 " stroke-opacity="0.25" stroke="green"/><polygon points="0.0,255.39778219369205 365.2179463929316,0.0 " stroke-opacity="0.25" stroke="green"/><polygon points="0.0,274.5024395053989 304.86584466583923,0.0 " stroke-opacity="0.25" stroke="green"/><polygon points="0.0,293.60709681710574 266.5506830885987,0.0 " stroke-opacity="0.25" stroke="green"/><polygon points="-5.684341886080802e-14,312.7117541288125 240.06601272350335,0.0 " stroke-opacity="0.25" stroke="green"/><polygon points="0.0,331.81641144051935 220.66530743953956,-5.684341886080802e-14 " stroke-opacity="0.25" stroke="green"/><polygon points="0.0,350.9210687522261 205.84166637957435,0.0 " stroke-opacity="0.25" stroke="green"/><polygon points="0.0,370.025726063933 194.1462476690769,-5.684341886080802e-14 " stroke-opacity="0.25" stroke="green"/><polygon points="0.0,389.13038337563984 184.68334197638643,0.0 " stroke-opacity="0.25" stroke="green"/><polygon points="176.86940566384536,0.0 3.5678631347672365,400.0 " stroke-opacity="0.25" stroke="green"/><polygon points="170.30796791881318,0.0 10.895707633843898,400.0 " stroke-opacity="0.25" stroke="green"/><polygon points="164.7202281194824,0.0 17.136121692759446,400.0 " stroke-opacity="0.25" stroke="green"/><polygon points="159.90441644701372,0.0 22.51444279310175,400.0 " stroke-opacity="0.25" stroke="green"/><polygon points="0.0,176.9131589684313 400.0,180.14853604723749 " stroke-opacity="0.25" stroke="green"/><polygon points="0.0,196.33763027086684 400.0,117.78575976047071 " stroke-opacity="0.25" stroke="green"/><polygon points="5.684341886080802e-14,215.7621015733024 399.99999999999994,55.42298347370394 " stroke-opacity="0.25" stroke="green"/><polygon points="0.0,235.18657287573797 388.53525464966106,0.0 " stroke-opacity="0.25" stroke="green"/><polygon points="0.0,254.6110441781735 314.41845447804656,0.0 " stroke-opacity="0.25" stroke="green"/><polygon points="0.0,274.0355154806091 270.1848005891283,-5.684341886080802e-14 " stroke-opacity="0.25" stroke="green"/><polygon points="0.0,293.45998678304466 240.79355511851332,0.0 " stroke-opacity="0.25" stroke="green"/><polygon points="0.0,312.8844580854802 219.84753407130586,0.0 " stroke-opacity="0.25" stroke="green"/><polygon points="0.0,332.30892938791584 204.1640404671813,0.0 " stroke-opacity="0.25" stroke="green"/><polygon points="0.0,351.73340069035135 191.9811541766062,0.0 " stroke-opacity="0.25" stroke="green"/><polygon points="0.0,371.1578719927869 182.2445221478366,0.0 " stroke-opacity="0.25" stroke="green"/><polygon points="-5.684341886080802e-14,390.5823432952225 174.28457621113455,-5.684341886080802e-14 " stroke-opacity="0.25" stroke="green"/><polygon points="167.65567577240125,0.0 4.091881412619472,400.0 " stroke-opacity="0.25" stroke="green"/><polygon points="162.04971894484834,-5.684341886080802e-14 11.1061577600222,400.00000000000006 " stroke-opacity="0.25" stroke="green"/><polygon points="157.24688239241235,5.684341886080802e-14 17.115555239613343,399.99999999999994 " stroke-opacity="0.25" stroke="green"/><polygon points="-5.684341886080802e-14,154.99384301394585 400.00000000000006,200.8447435680469 " stroke-opacity="0.25" stroke="green"/><polygon points="-5.684341886080802e-14,174.97162527447293 400.00000000000006,136.70554788951262 " stroke-opacity="0.25" stroke="green"/><polygon points="-5.684341886080802e-14,194.949407535 400.00000000000006,72.56635221097834 " stroke-opacity="0.25" stroke="green"/><polygon points="0.0,214.92718979552708 400.0,8.427156532444002 " stroke-opacity="0.25" stroke="green"/><polygon points="-5.684341886080802e-14,234.90497205605416 323.3189565667391,-5.684341886080802e-14 " stroke-opacity="0.25" stroke="green"/><polygon points="5.684341886080802e-14,254.88275431658124 272.06793266947267,0.0 " stroke-opacity="0.25" stroke="green"/><polygon points="0.0,274.86053657710835 239.6076776963852,0.0 " stroke-opacity="0.25" stroke="green"/><polygon points="5.684341886080802e-14,294.83831883763537 217.2049540251513,0.0 " stroke-opacity="0.25" stroke="green"/><polygon points="0.0,314.81610109816256 200.81241922574623,-5.684341886080802e-14 " stroke-opacity="0.25" stroke="green"/><polygon points="0.0,334.79388335868964 188.2975188543337,-5.684341886080802e-14 " stroke-opacity="0.25" stroke="green"/><polygon points="-5.684341886080802e-14,354.7716656192167 178.429897772938,-5.684341886080802e-14 " stroke-opacity="0.25" stroke="green"/><polygon points="0.0,374.7494478797438 170.44992877763778,0.0 " stroke-opacity="0.25" stroke="green"/><polygon points="0.0,394.7272301402709 163.86324274876847,0.0 " stroke-opacity="0.25" stroke="green"/><polygon points="158.3342413390227,-5.684341886080802e-14 5.614369040013003,400.00000000000006 " stroke-opacity="0.25" stroke="green"/><polygon points="153.6270959422191,-5.684341886080802e-14 12.25771318400362,400.00000000000006 " stroke-opacity="0.25" stroke="green"/><polygon points="-5.684341886080802e-14,131.75235222990776 400.00000000000006,222.2729240728383 " stroke-opacity="0.25" stroke="green"/><polygon points="-5.684341886080802e-14,152.55044152152266 400.00000000000006,155.50011108396944 " stroke-opacity="0.25" stroke="green"/><polygon points="-5.684341886080802e-14,173.34853081313753 400.00000000000006,88.72729809510058 " stroke-opacity="0.25" stroke="green"/><polygon points="0.0,194.14662010475243 400.0,21.954485106231715 " stroke-opacity="0.25" stroke="green"/><polygon points="0.0,214.9447093963673 330.985827156773,0.0 " stroke-opacity="0.25" stroke="green"/><polygon points="-5.684341886080802e-14,235.7427986879822 271.4883538153131,-5.684341886080802e-14 " stroke-opacity="0.25" stroke="green"/><polygon points="0.0,256.54088797959713 235.95128248675067,0.0 " stroke-opacity="0.25" stroke="green"/><polygon points="0.0,277.338977271212 212.32677718893075,5.684341886080802e-14 " stroke-opacity="0.25" stroke="green"/><polygon points="0.0,298.13706656282693 195.48476715459753,-5.684341886080802e-14 " stroke-opacity="0.25" stroke="green"/><polygon points="-5.684341886080802e-14,318.93515585444175 182.87106249392127,0.0 " stroke-opacity="0.25" stroke="green"/><polygon points="0.0,339.7332451460567 173.0709333433834,0.0 " stroke-opacity="0.25" stroke="green"/><polygon points="0.0,360.5313344376715 165.23745433297762,0.0 " stroke-opacity="0.25" stroke="green"/><polygon points="0.0,381.3294237292864 158.83261889803217,0.0 " stroke-opacity="0.25" stroke="green"/><polygon points="153.49826079545633,0.0 0.812104464265019,400.0 " stroke-opacity="0.25" stroke="green"/><polygon points="148.9867050647773,0.0 8.076148456113827,400.0 " stroke-opacity="0.25" stroke="green"/><polygon points="0.0,106.46925639128084 400.0,245.03332099679062 " stroke-opacity="0.25" stroke="green"/><polygon points="0.0,128.40856662048662 400.0,174.59658815565632 " stroke-opacity="0.25" stroke="green"/><polygon points="0.0,150.34787684969237 400.0,104.15985531452199 " stroke-opacity="0.25" stroke="green"/><polygon points="0.0,172.28718707889814 400.0,33.72312247338763 " stroke-opacity="0.25" stroke="green"/><polygon points="0.0,194.22649730810392 336.4101615137754,0.0 " stroke-opacity="0.25" stroke="green"/><polygon points="-5.684341886080802e-14,216.1658075373097 267.4358296526967,0.0 " stroke-opacity="0.25" stroke="green"/><polygon points="-5.684341886080802e-14,238.10511776651543 229.11675639654194,0.0 " stroke-opacity="0.25" stroke="green"/><polygon points="5.684341886080802e-14,260.0444279957212 204.7318915971707,0.0 " stroke-opacity="0.25" stroke="green"/><polygon points="0.0,281.98373822492704 187.85006212068288,0.0 " stroke-opacity="0.25" stroke="green"/><polygon points="5.684341886080802e-14,303.92304845413275 175.47005383792518,0.0 " stroke-opacity="0.25" stroke="green"/><polygon points="0.0,325.8623586833386 166.0029886805222,0.0 " stroke-opacity="0.25" stroke="green"/><polygon points="0.0,347.8016689125444 158.52898987204617,0.0 " stroke-opacity="0.25" stroke="green"/><polygon points="0.0,369.74097914175013 152.47860988423227,0.0 " stroke-opacity="0.25" stroke="green"/><polygon points="0.0,391.68028937095596 147.480469894299,0.0 " stroke-opacity="0.25" stroke="green"/><polygon points="143.2820323027551,0.0 4.717967697244944,400.0 " stroke-opacity="0.25" stroke="green"/><polygon points="0.0,78.1767859714239 400.0,269.90835897358494 " stroke-opacity="0.25" stroke="green"/><polygon points="0.0,101.6620775439199 400.0,194.50821234609776 " stroke-opacity="0.25" stroke="green"/><polygon points="-5.684341886080802e-14,125.1473691164159 400.00000000000006,119.10806571861056 " stroke-opacity="0.25" stroke="green"/><polygon points="0.0,148.63266068891193 400.0,43.707919091123415 " stroke-opacity="0.25" stroke="green"/><polygon points="-5.684341886080802e-14,172.1179522614079 337.800501294273,0.0 " stroke-opacity="0.25" stroke="green"/><polygon points="0.0,195.60324383390392 258.48176478769466,0.0 " stroke-opacity="0.25" stroke="green"/><polygon points="0.0,219.08853540639996 218.22596661384443,0.0 " stroke-opacity="0.25" stroke="green"/><polygon points="0.0,242.57382697889594 193.8781754177711,0.0 " stroke-opacity="0.25" stroke="green"/><polygon points="0.0,266.059118551392 177.56453534619732,0.0 " stroke-opacity="0.25" stroke="green"/><polygon points="0.0,289.5444101238879 165.87162030190598,0.0 " stroke-opacity="0.25" stroke="green"/><polygon points="0.0,313.02970169638394 157.0797865337704,0.0 " stroke-opacity="0.25" stroke="green"/><polygon points="0.0,336.51499326888006 150.22852493662225,-5.684341886080802e-14 " stroke-opacity="0.25" stroke="green"/><polygon points="5.684341886080802e-14,360.000284841376 144.73919781589194,0.0 " stroke-opacity="0.25" stroke="green"/><polygon points="0.0,383.4855764138721 140.24241938446386,0.0 " stroke-opacity="0.25" stroke="green"/><polygon points="136.4913089638464,0.0 2.337914015273981,400.0 " stroke-opacity="0.25" stroke="green"/><polygon points="0.0,45.48621300295335 400.0,297.9972123535789 " stroke-opacity="0.25" stroke="green"/><polygon points="0.0,71.05323486547448 400.0,215.91361584758997 " stroke-opacity="0.25" stroke="green"/><polygon points="0.0,96.62025672799561 400.0,133.83001934160103 " stroke-opacity="0.25" stroke="green"/><polygon points="0.0,122.18727859051674 400.0,51.74642283561212 " stroke-opacity="0.25" stroke="green"/><polygon points="-5.684341886080802e-14,147.75430045303787 331.8615923200152,0.0 " stroke-opacity="0.25" stroke="green"/><polygon points="0.0,173.32132231555903 242.62623795331405,0.0 " stroke-opacity="0.25" stroke="green"/><polygon points="0.0,198.8883441780802 202.22880463958612,-5.684341886080802e-14 " stroke-opacity="0.25" stroke="green"/><polygon points="5.684341886080802e-14,224.45536604060132 179.19038370275516,0.0 " stroke-opacity="0.25" stroke="green"/><polygon points="-5.684341886080802e-14,250.0223879031225 164.30088644053265,0.0 " stroke-opacity="0.25" stroke="green"/><polygon points="0.0,275.5894097656436 153.8865081744683,0.0 " stroke-opacity="0.25" stroke="green"/><polygon points="-5.684341886080802e-14,301.15643162816485 146.19329692874499,0.0 " stroke-opacity="0.25" stroke="green"/><polygon points="0.0,326.723453490686 140.27796939255785,0.0 " stroke-opacity="0.25" stroke="green"/><polygon points="0.0,352.290475353207 135.58806446769134,0.0 " stroke-opacity="0.25" stroke="green"/><polygon points="0.0,377.85749721572824 131.7785335232972,0.0 " stroke-opacity="0.25" stroke="green"/><polygon points="128.6227553725666,-5.684341886080802e-14 1.091830215666505,400.00000000000006 " stroke-opacity="0.25" stroke="green"/><polygon points="-5.684341886080802e-14,6.272551481589289 400.00000000000006,330.95943342409714 " stroke-opacity="0.25" stroke="green"/><polygon points="-5.684341886080802e-14,34.667605929016844 400.00000000000006,239.7963638823561 " stroke-opacity="0.25" stroke="green"/><polygon points="0.0,63.06266037644437 400.0,148.63329434061504 " stroke-opacity="0.25" stroke="green"/><polygon points="0.0,91.45771482387192 400.0,57.47022479887397 " stroke-opacity="0.25" stroke="green"/><polygon points="0.0,119.85276927129948 312.2271386019311,0.0 " stroke-opacity="0.25" stroke="green"/><polygon points="-5.684341886080802e-14,148.24782371872703 217.13042055384327,0.0 " stroke-opacity="0.25" stroke="green"/><polygon points="0.0,176.6428781661546 179.9440131718489,-5.684341886080802e-14 " stroke-opacity="0.25" stroke="green"/><polygon points="0.0,205.03793261358214 160.11708892664603,0.0 " stroke-opacity="0.25" stroke="green"/><polygon points="-5.684341886080802e-14,233.4329870610097 147.7942862387451,0.0 " stroke-opacity="0.25" stroke="green"/><polygon points="0.0,261.8280415084372 139.39327277133458,0.0 " stroke-opacity="0.25" stroke="green"/><polygon points="-5.684341886080802e-14,290.22309595586484 133.29887525706118,-5.684341886080802e-14 " stroke-opacity="0.25" stroke="green"/><polygon points="0.0,318.61815040329236 128.67579463468917,0.0 " stroke-opacity="0.25" stroke="green"/><polygon points="0.0,347.01320485071994 125.04860872415125,-5.684341886080802e-14 " stroke-opacity="0.25" stroke="green"/><polygon points="0.0,375.4082592981475 122.12680760792772,-5.684341886080802e-14 " stroke-opacity="0.25" stroke="green"/><polygon points="119.72286003396204,5.684341886080802e-14 1.1276371038243553,399.99999999999994 " stroke-opacity="0.25" stroke="green"/><polygon points="41.45425932228028,-5.684341886080802e-14 400.0,371.4969854752857 " stroke-opacity="0.25" stroke="green"/><polygon points="15.271610965799454,-5.684341886080802e-14 400.0,267.7175868563369 " stroke-opacity="0.25" stroke="green"/><polygon points="0.0,21.69780805789796 400.0,163.93818823738803 " stroke-opacity="0.25" stroke="green"/><polygon points="0.0,54.02253877527542 400.0,60.15878961843919 " stroke-opacity="0.25" stroke="green"/><polygon points="0.0,86.34726949265293 265.7495697975729,0.0 " stroke-opacity="0.25" stroke="green"/><polygon points="5.684341886080802e-14,118.67200021003048 178.4058401003699,0.0 " stroke-opacity="0.25" stroke="green"/><polygon points="5.684341886080802e-14,150.99673092740795 150.17970185053787,5.684341886080802e-14 " stroke-opacity="0.25" stroke="green"/><polygon points="0.0,183.32146164478547 136.22751793302535,0.0 " stroke-opacity="0.25" stroke="green"/><polygon points="0.0,215.646192362163 127.90698817640829,0.0 " stroke-opacity="0.25" stroke="green"/><polygon points="0.0,247.9709230795405 122.38096672673396,0.0 " stroke-opacity="0.25" stroke="green"/><polygon points="5.684341886080802e-14,280.29565379691803 118.44404346943935,0.0 " stroke-opacity="0.25" stroke="green"/><polygon points="0.0,312.62038451429555 115.49692921535228,-5.684341886080802e-14 " stroke-opacity="0.25" stroke="green"/><polygon points="0.0,344.94511523167307 113.20802651209088,0.0 " stroke-opacity="0.25" stroke="green"/><polygon points="0.0,377.2698459490507 111.37897759900135,-5.684341886080802e-14 " stroke-opacity="0.25" stroke="green"/><polygon points="109.88385166174393,0.0 2.5739819305020717,400.0 " stroke-opacity="0.25" stroke="green"/><polygon points="81.3859057760975,-5.684341886080802e-14 381.6747519125595,400.00000000000006 " stroke-opacity="0.25" stroke="green"/><polygon points="75.54326539068205,5.684341886080802e-14 400.0,302.4101615137753 " stroke-opacity="0.25" stroke="green"/><polygon points="60.91553861532199,-5.684341886080802e-14 400.00000000000006,180.4101615137753 " stroke-opacity="0.25" stroke="green"/><polygon points="-5.684341886080802e-14,5.589838486224778 400.00000000000006,58.41016151377542 " stroke-opacity="0.25" stroke="green"/><polygon points="5.684341886080802e-14,43.58983848622478 162.67949192431172,0.0 " stroke-opacity="0.25" stroke="green"/><polygon points="-5.684341886080802e-14,81.58983848622476 122.1497673936301,0.0 " stroke-opacity="0.25" stroke="green"/><polygon points="0.0,119.58983848622474 111.98083142324924,-5.684341886080802e-14 " stroke-opacity="0.25" stroke="green"/><polygon points="0.0,157.58983848622466 107.35374173627534,0.0 " stroke-opacity="0.25" stroke="green"/><polygon points="0.0,195.5898384862247 104.70832894103822,0.0 " stroke-opacity="0.25" stroke="green"/><polygon points="5.684341886080802e-14,233.58983848622472 102.99606325652674,-8.526512829121202e-14 " stroke-opacity="0.25" stroke="green"/><polygon points="0.0,271.58983848622466 101.79723034333466,0.0 " stroke-opacity="0.25" stroke="green"/><polygon points="5.684341886080802e-14,309.5898384862247 100.91100571352605,0.0 " stroke-opacity="0.25" stroke="green"/><polygon points="-5.684341886080802e-14,347.5898384862247 100.22921882617176,0.0 " stroke-opacity="0.25" stroke="green"/><polygon points="0.0,385.5898384862247 99.68844452268254,5.684341886080802e-14 " stroke-opacity="0.25" stroke="green"/><polygon points="99.2490349316783,5.684341886080802e-14 5.527206961146447,399.99999999999994 " stroke-opacity="0.25" stroke="green"/><polygon points="115.42609098159679,0.0 343.4349101643693,400.0 " stroke-opacity="0.25" stroke="green"/><polygon points="123.38102103797837,0.0 400.00000000000006,349.2589678407857 " stroke-opacity="0.25" stroke="green"/><polygon points="141.48431059054397,0.0 399.99999999999994,199.28477437075736 " stroke-opacity="0.25" stroke="green"/><polygon points="223.36219730770273,0.0 400.0,49.31058090072912 " stroke-opacity="0.25" stroke="green"/><polygon points="0.0,31.0722854746204 44.11952061444978,0.0 " stroke-opacity="0.25" stroke="green"/><polygon points="5.684341886080802e-14,77.78555885053086 65.03842462508112,0.0 " stroke-opacity="0.25" stroke="green"/><polygon points="0.0,124.49883222644134 73.76779373145361,-5.684341886080802e-14 " stroke-opacity="0.25" stroke="green"/><polygon points="0.0,171.2121056023518 78.55815922771075,5.684341886080802e-14 " stroke-opacity="0.25" stroke="green"/><polygon points="0.0,217.92537897826222 81.58485572190803,5.684341886080802e-14 " stroke-opacity="0.25" stroke="green"/><polygon points="-5.684341886080802e-14,264.6386523541727 83.67045514829879,0.0 " stroke-opacity="0.25" stroke="green"/><polygon points="-5.684341886080802e-14,311.3519257300833 85.19482666843064,5.684341886080802e-14 " stroke-opacity="0.25" stroke="green"/><polygon points="0.0,358.06519910599366 86.35764168482154,0.0 " stroke-opacity="0.25" stroke="green"/><polygon points="87.27389576050987,-5.684341886080802e-14 1.0302818396519342,400.00000000000006 " stroke-opacity="0.25" stroke="green"/><polygon points="88.01449222045102,0.0 10.037879776981129,400.0 " stroke-opacity="0.25" stroke="green"/><polygon points="145.67199939058324,0.0 310.2492250296236,400.0 " stroke-opacity="0.25" stroke="green"/><polygon points="164.06285328384985,0.0 388.3716021958644,400.0 " stroke-opacity="0.25" stroke="green"/><polygon points="203.40857118289307,0.0 400.0,223.33626755258908 " stroke-opacity="0.25" stroke="green"/><polygon points="346.9423608422158,0.0 400.00000000000006,25.93612092510199 " stroke-opacity="0.25" stroke="green"/><polygon points="0.0,14.860333572421439 10.228671943432914,0.0 " stroke-opacity="0.25" stroke="green"/><polygon points="0.0,76.34562514491738 36.3546228729665,0.0 " stroke-opacity="0.25" stroke="green"/><polygon points="-5.684341886080802e-14,137.83091671741346 50.17070798409807,-5.684341886080802e-14 " stroke-opacity="0.25" stroke="green"/><polygon points="-5.684341886080802e-14,199.31620828990944 58.71822130818413,0.0 " stroke-opacity="0.25" stroke="green"/><polygon points="0.0,260.80149986240554 64.52821658262039,0.0 " stroke-opacity="0.25" stroke="green"/><polygon points="0.0,322.2867914349015 68.73428586828578,0.0 " stroke-opacity="0.25" stroke="green"/><polygon points="0.0,383.77208300739767 71.92004867838529,-5.684341886080802e-14 " stroke-opacity="0.25" stroke="green"/><polygon points="74.41660430867077,5.684341886080802e-14 7.563940157844456,399.99999999999994 " stroke-opacity="0.25" stroke="green"/><polygon points="76.42577594810618,0.0 16.098686043958963,400.0 " stroke-opacity="0.25" stroke="green"/><polygon points="173.54957061598276,-5.684341886080802e-14 280.42476530742476,400.00000000000006 " stroke-opacity="0.25" stroke="green"/><polygon points="200.72241385403646,-5.684341886080802e-14 344.56920353464454,400.00000000000006 " stroke-opacity="0.25" stroke="green"/><polygon points="256.6383650058509,0.0 400.0,260.7446368075146 " stroke-opacity="0.25" stroke="green"/><polygon points="0.0,81.53855105555591 20.627570147544105,0.0 " stroke-opacity="0.25" stroke="green"/><polygon points="0.0,172.92350360569415 35.18396398795852,0.0 " stroke-opacity="0.25" stroke="green"/><polygon points="0.0,264.30845615583246 44.97500520504255,5.684341886080802e-14 " stroke-opacity="0.25" stroke="green"/><polygon points="5.684341886080802e-14,355.693408705971 52.0115998362117,0.0 " stroke-opacity="0.25" stroke="green"/><polygon points="57.31274810139763,0.0 6.035161827374452,400.0 " stroke-opacity="0.25" stroke="green"/><polygon points="61.449993458242375,0.0 15.801577395228264,400.0 " stroke-opacity="0.25" stroke="green"/><polygon points="64.76873290271757,0.0 23.635821144526176,400.0 " stroke-opacity="0.25" stroke="green"/><polygon points="200.11869697615498,0.0 252.74328234101958,400.0 " stroke-opacity="0.25" stroke="green"/><polygon points="235.48112779496944,-5.684341886080802e-14 305.80887456561084,400.00000000000006 " stroke-opacity="0.25" stroke="green"/><polygon points="306.69701185323447,-5.684341886080802e-14 400.00000000000006,352.15357211298596 " stroke-opacity="0.25" stroke="green"/><polygon points="0.0,114.8138335215528 11.93592732113433,0.0 " stroke-opacity="0.25" stroke="green"/><polygon points="0.0,296.5825059581585 25.717027510298152,0.0 " stroke-opacity="0.25" stroke="green"/><polygon points="35.57601745277839,0.0 5.827147534938348,400.0 " stroke-opacity="0.25" stroke="green"/><polygon points="42.97866995557939,0.0 16.93572039031423,400.0 " stroke-opacity="0.25" stroke="green"/><polygon points="48.74127986050891,0.0 25.583211535116448,400.0 " stroke-opacity="0.25" stroke="green"/><polygon points="53.354515979382995,0.0 32.505928697130145,400.0 " stroke-opacity="0.25" stroke="green"/></svg>
