<?xml version="1.0" encoding="UTF-8"?>
<!DOCTYPE svg PUBLIC "-//W3C//DTD SVG 1.1//EN"
    "http://www.w3.org/Graphics/SVG/1.1/DTD/svg11.dtd"><svg width="400" height="400" stroke="black" fill="none" fill-opacity="0.75" font-size="14" font-style="italic" font-family="sans-serif" xmlns="http://www.w3.org/2000/svg" xmlns:xlink="http://www.w3.org/1999/xlink" version="1.1"><filter id="blur1"><feGaussianBlur stdDeviation="0.5"/></filter><rect width="100%" height="100%" fill="white" stroke="none" fill-opacity="1"/><rect class="bg" fill="black" width="100%" height="100%" stroke="none" fill-opacity="1"/><polyline class="polyline" opacity="0.5" stroke="blue" points="220.45338782665752,156.41019713417614 238.16137564912873,119.34448810177159 "/><polyline class="polyline" opacity="0.5" stroke="blue" points="219.5639868625106,155.50204445347376 236.99115262022468,117.33257531717179 "/><polyline class="polyline" opacity="0.5" stroke="blue" points="218.66498789082462,154.61003171025556 235.7999374024135,115.34483554016978 "/><polyline class="polyline" opacity="0.5" stroke="blue" points="217.7566587548314,153.73450088381247 234.58823556306388,113.38207215208811 "/><polyline class="polyline" opacity="0.5" stroke="blue" points="216.83927124412224,152.87579246845866 233.35656445173248,111.44509340302594 "/><polyline class="polyline" opacity="0.5" stroke="blue" points="215.9131011516132,152.03424541455 232.10545355236076,109.53471248964959 "/><polyline class="polyline" opacity="0.5" stroke="blue" points="214.978428330174,151.21019706374028 230.83544484241713,107.6517476088247 "/><polyline class="polyline" opacity="0.5" stroke="blue" points="214.035536748738,150.40398307832612 229.54709315806969,105.79702198562559 "/><polyline class="polyline" opacity="0.5" stroke="blue" points="213.08471454770512,149.6159373645373 228.24096656441685,103.97136387422276 "/><polyline class="polyline" opacity="0.5" stroke="blue" points="212.12625409344506,148.84639198962958 226.91764672974008,102.17560653011229 "/><polyline class="polyline" opacity="0.5" stroke="blue" points="211.1604520317022,148.09567709264093 225.57772930267816,100.41058815211497 "/><polyline class="polyline" opacity="0.5" stroke="blue" points="210.18760933969773,147.36412078867758 224.22182429115327,98.67715179254016 "/><polyline class="polyline" opacity="0.5" stroke="blue" points="209.2080313767207,146.65204906659753 222.85055644180773,96.9761452338768 "/><polyline class="polyline" opacity="0.5" stroke="blue" points="208.22202793299167,145.95978567996536 221.46456561863528,95.30842083034511 "/><polyline class="polyline" opacity="0.5" stroke="blue" points="207.2299132765795,145.28765203115694 220.06450717941286,93.67483531261418 "/><polyline class="polyline" opacity="0.5" stroke="blue" points="206.23200619814457,144.6359670484971 218.65105234845814,92.07624955396854 "/><polyline class="polyline" opacity="0.5" stroke="blue" points="205.22863005327673,144.0050470563204 217.2248885841544,90.51352829618875 "/><polyline class="polyline" opacity="0.5" stroke="blue" points="204.2201128021912,143.39520563784947 215.7867199395983,88.98753983339085 "/><polyline class="polyline" opacity="0.5" stroke="blue" points="203.20678704653932,142.80675349079493 214.33726741463786,87.49915565206561 "/><polyline class="polyline" opacity="0.5" stroke="blue" points="202.18899006308612,142.23999827558575 212.87726929747703,86.04925002555146 "/><polyline class="polyline" opacity="0.5" stroke="blue" points="201.1670638340015,141.69524445614815 211.4074814939308,84.6386995611774 "/><polyline class="polyline" opacity="0.5" stroke="blue" points="200.14135507350645,141.1727931331601 209.92867784232158,83.26838269832217 "/><polyline class="polyline" opacity="0.5" stroke="blue" points="199.11221525061035,140.67294186971642 208.44165041191235,81.93917915565547 "/><polyline class="polyline" opacity="0.5" stroke="blue" points="198.08000060767156,140.1959845093507 206.94720978267637,80.6519693258505 "/><polyline class="polyline" opacity="0.5" stroke="blue" points="197.04507217450782,139.74221098636957 205.44618530410813,79.40763361609618 "/><polyline class="polyline" opacity="0.5" stroke="blue" points="196.00779577777914,139.31190712846794 203.93942533068565,78.20705173278262 "/><polyline class="polyline" opacity="0.5" stroke="blue" points="194.96854204536163,138.9053544516031 202.42779743149913,77.05110190879255 "/><polyline class="polyline" opacity="0.5" stroke="blue" points="193.9276864054273,138.52282994712135 200.91218857147024,75.94066007190095 "/><polyline class="polyline" opacity="0.5" stroke="blue" points="192.88560907994065,138.1646058611422 199.393505261496,74.87659895286947 "/><polyline class="polyline" opacity="0.5" stroke="blue" points="191.84269507228043,137.8309494662201 197.87267367476576,73.85978713192034 "/><polyline class="polyline" opacity="0.5" stroke="blue" points="190.79933414869245,137.5221228253192 196.35063972641808,72.89108802238553 "/><polyline class="polyline" opacity="0.5" stroke="blue" points="189.75592081327648,137.23838254815203 194.82836911362685,71.97135879045865 "/><polyline class="polyline" opacity="0.5" stroke="blue" points="188.71285427620933,136.9799795399498 193.3068473131379,71.10144921011818 "/><polyline class="polyline" opacity="0.5" stroke="blue" points="187.67053841490497,136.7471587427496 191.78707953321313,70.28220045245808 "/><polyline class="polyline" opacity="0.5" stroke="blue" points="186.62938172781145,136.54015886930245 190.27009061688557,69.51444380883979 "/><polyline class="polyline" opacity="0.5" stroke="blue" points="185.589797280546,136.35921212972477 188.75692489338482,68.79899934748235 "/><polyline class="polyline" opacity="0.5" stroke="blue" points="184.55220264406847,136.20454395103656 187.24864597455962,68.13667450332582 "/><polyline class="polyline" opacity="0.5" stroke="blue" points="183.51701982459707,136.07637268974997 185.74633649310238,67.52826260124604 "/><polyline class="polyline" opacity="0.5" stroke="blue" points="182.48467518497102,135.974909337694 184.2510977793759,66.97454131295848 "/><polyline class="polyline" opacity="0.5" stroke="blue" points="181.45559935716912,135.90035722128286 182.76404947364907,66.47627104823255 "/><polyline class="polyline" opacity="0.5" stroke="blue" points="180.4302271456965,135.85291169446054 181.28632907057562,66.03419328134339 "/><polyline class="polyline" opacity="0.5" stroke="blue" points="179.40899742155761,135.8327598255757 179.81909139279244,65.64902881401218 "/><polyline class="polyline" opacity="0.5" stroke="blue" points="178.39235300653877,135.84008007846782 178.36350799057814,65.32147597643532 "/><polyline class="polyline" opacity="0.5" stroke="blue" points="177.38074054753176,135.87504198807096 176.9207664645978,65.05220876837137 "/><polyline class="polyline" opacity="0.5" stroke="blue" points="176.37461038063643,135.93780583086584 175.49206970886672,64.84187494264506 "/><polyline class="polyline" opacity="0.5" stroke="blue" points="175.37441638479112,136.0285222905402 174.07863507119836,64.6910940338372 "/><polyline class="polyline" opacity="0.5" stroke="blue" points="174.3806158246897,136.14733211924315 172.6816934285598,64.60045533536015 "/><polyline class="polyline" opacity="0.5" stroke="blue" points="173.39366918275454,136.29436579484798 171.30248817494157,64.5705158285651 "/><polyline class="polyline" opacity="0.5" stroke="blue" points="172.41403997994928,136.46974317466572 169.94227411956197,64.6017980679917 "/><polyline class="polyline" opacity="0.5" stroke="blue" points="171.44219458522835,136.67357314608148 168.60231629346904,64.69478802735256 "/><polyline class="polyline" opacity="0.5" stroke="blue" points="170.4786020134358,136.90595327461313 167.2838886628738,64.84993291133458 "/><polyline class="polyline" opacity="0.5" stroke="blue" points="169.52373371148306,137.16696944992339 165.98827274785359,65.06763893880242 "/><polyline class="polyline" opacity="0.5" stroke="blue" points="168.5780633326534,137.4566955303442 164.71675614539853,65.34826910350381 "/><polyline class="polyline" opacity="0.5" stroke="blue" points="167.64206649890002,137.77519298650225 163.47063095614143,65.6921409188862 "/><polyline class="polyline" opacity="0.5" stroke="blue" points="166.71622055102657,138.12251054466503 162.2511921145117,66.09952415415825 "/><polyline class="polyline" opacity="0.5" stroke="blue" points="165.80100428666023,138.49868383045498 161.0597356224829,66.57063856923727 "/><polyline class="polyline" opacity="0.5" stroke="blue" points="164.89689768595247,138.9037350136091 159.89755668754947,67.10565165674046 "/><polyline class="polyline" opacity="0.5" stroke="blue" points="164.00438162496698,139.33767245449008 158.76594776605938,67.70467639966878 "/><polyline class="polyline" opacity="0.5" stroke="blue" points="163.12393757674164,139.80049035308332 157.66619651355325,68.3677690539194 "/><polyline class="polyline" opacity="0.5" stroke="blue" points="162.25604730003943,140.2921684012421 156.59958364431267,69.09492696522477 "/><polyline class="polyline" opacity="0.5" stroke="blue" points="161.4011925158324,140.81267143896872 155.56738070289612,69.88608643055184 "/><polyline class="polyline" opacity="0.5" stroke="blue" points="160.55985457159454,141.3619491155479 154.57084775104278,70.74112061440334 "/><polyline class="polyline" opacity="0.5" stroke="blue" points="159.73251409351062,141.9399355563707 153.61123097394625,71.65983753083174 "/><polyline class="polyline" opacity="0.5" stroke="blue" points="158.91965062674328,142.5465490363131 152.68976021053936,72.64197810230515 "/><polyline class="polyline" opacity="0.5" stroke="blue" points="158.1217422639334,143.18169166055424 151.80764641308485,73.6872143068425 "/><polyline class="polyline" opacity="0.5" stroke="blue" points="157.33926526214708,143.84524905374076 150.96607904202932,74.79514742506386 "/><polyline class="polyline" opacity="0.5" stroke="blue" points="156.57269364851774,144.53709005842256 150.1662234027472,75.96530639896488 "/><polyline class="polyline" opacity="0.5" stroke="blue" points="155.82249881487218,145.25706644370175 149.4092179314692,77.19714631432768 "/><polyline class="polyline" opacity="0.5" stroke="blue" points="155.0891491016662,146.00501262505256 148.6961714383529,78.49004701870919 "/><polyline class="polyline" opacity="0.5" stroke="blue" points="154.37310937159765,146.7807453962822 148.02816031630647,79.84331188690209 "/><polyline class="polyline" opacity="0.5" stroke="blue" points="153.67484057330432,147.584063674613 147.40622572481033,81.25616674563693 "/><polyline class="polyline" opacity="0.5" stroke="blue" points="152.99479929559578,148.41474825987427 146.83137075859483,82.72775896908264 "/><polyline class="polyline" opacity="0.5" stroke="blue" points="152.33343731271023,149.27256160879784 146.3045576116121,84.25715675639913 "/><polyline class="polyline" opacity="0.5" stroke="blue" points="151.69120112113006,150.1572476254123 145.82670474728633,85.84334860220586 "/><polyline class="polyline" opacity="0.5" stroke="blue" points="151.0685314685315,151.0685314685315 145.398684086527,87.48524297033843 "/><polyline class="polyline" opacity="0.5" stroke="blue" points="150.46586287548678,152.0061193773278 145.02131822543942,89.18166818068522 "/><polyline class="polyline" opacity="0.5" stroke="blue" points="149.88362315058083,152.9696985159748 144.69537769506164,90.93137251820968 "/><polyline class="polyline" opacity="0.5" stroke="blue" points="149.32223289964315,153.95893683833037 144.42157827578203,92.7330245724884 "/><polyline class="polyline" opacity="0.5" stroke="blue" points="148.78210502984214,154.97348297362095 144.20057837935417,94.58521381522236 "/><polyline class="polyline" opacity="0.5" stroke="blue" points="148.26364424942588,156.01296613406518 144.0329765116034,96.48645142220718 "/><polyline class="polyline" opacity="0.5" stroke="blue" points="147.76724656393571,157.07699604535748 143.91930882901997,98.43517134519331 "/><polyline class="polyline" opacity="0.5" stroke="blue" points="147.29329876975785,158.16516290090203 143.86004680244633,100.4297316379253 "/><polyline class="polyline" opacity="0.5" stroke="blue" points="146.84217794591518,159.2770373406622 143.8555950009848,102.46841603942379 "/><polyline class="polyline" opacity="0.5" stroke="blue" points="146.414250945039,160.4121704554527 143.9062890090768,104.54943581628208 "/><polyline class="polyline" opacity="0.5" stroke="blue" points="146.0098738844938,161.570093817467 144.01239348943204,106.67093186438696 "/><polyline class="polyline" opacity="0.5" stroke="blue" points="145.62939163866227,162.75031953778876 144.17410040411215,108.83097706906 "/><polyline class="polyline" opacity="0.5" stroke="blue" points="145.2731373334265,163.9523403515904 144.39152740559697,111.02757892115436 "/><polyline class="polyline" opacity="0.5" stroke="blue" points="144.9414318439116,165.17562973167273 144.66471640908924,113.25868238514805 "/><polyline class="polyline" opacity="0.5" stroke="blue" points="144.63458329658232,166.419642030944 144.99363235663452,115.52217301375661 "/><polyline class="polyline" opacity="0.5" stroke="blue" points="144.3528865768058,167.68381265438032 145.37816218286386,117.81588030206487 "/><polyline class="polyline" opacity="0.5" stroke="blue" points="144.09662284301504,168.96755826094605 145.8181139912981,120.13758127265157 "/><polyline class="polyline" opacity="0.5" stroke="blue" points="143.86605904862304,170.2702769958882 146.31321644919907,122.48500428167965 "/><polyline class="polyline" opacity="0.5" stroke="blue" points="143.6614474728508,171.59134875374926 146.8631184079133,124.85583303444969 "/><polyline class="polyline" opacity="0.5" stroke="blue" points="143.48302526164338,172.93013547237032 147.46738875454054,127.24771079748976 "/><polyline class="polyline" opacity="0.5" stroke="blue" points="143.33101397985305,174.28598145808004 148.12551649957504,129.65824479288568 "/><polyline class="polyline" opacity="0.5" stroke="blue" points="143.20561917587105,175.65821374218712 148.83691110392726,132.08501075926614 "/><polyline class="polyline" opacity="0.5" stroke="blue" points="143.10702995988788,177.04614246881073 149.6009030474409,134.52555766264962 "/><polyline class="polyline" opacity="0.5" stroke="blue" points="143.03541859695596,178.4490613140005 150.4167446396917,136.9774125392563 "/><polyline class="polyline" opacity="0.5" stroke="blue" points="142.99094011601753,179.86624793601018 151.28361107249583,139.438085451395 "/><polyline class="polyline" opacity="0.5" stroke="blue" points="142.97373193604682,181.29696445650106 152.20060171218438,141.9050745366658 "/><polyline class="polyline" opacity="0.5" stroke="blue" points="142.98391351043625,182.74045797236073 153.16674162832516,144.37587112998074 "/><polyline class="polyline" opacity="0.5" stroke="blue" points="143.0215859907326,184.19596109773227 154.18098335420433,146.84796493731125 "/><polyline class="polyline" opacity="0.5" stroke="blue" points="143.0868319108009,185.66269253575504 155.2422088730393,149.31884923962107 "/><polyline class="polyline" opacity="0.5" stroke="blue" points="143.1797148924618,187.13985767942737 156.34923182258217,151.7860261051514 "/><polyline class="polyline" opacity="0.5" stroke="blue" points="143.30027937361078,188.6266492409069 157.50079990950866,154.24701158808637 "/><polyline class="polyline" opacity="0.5" stroke="blue" points="143.448550359786,190.12224790847242 158.6955975237855,156.69934089165224 "/><polyline class="polyline" opacity="0.5" stroke="blue" points="143.6245332001057,191.62582303027872 159.9322485420691,159.14057347388237 "/><polyline class="polyline" opacity="0.5" stroke="blue" points="143.82821338844633,193.1365333239454 161.20931930813475,161.56829807462412 "/><polyline class="polyline" opacity="0.5" stroke="blue" points="144.059556390678,194.65352761093075 162.52532177736728,163.98013764285577 "/><polyline class="polyline" opacity="0.5" stroke="blue" points="144.31850749871492,196.1759455745548 163.8787168114751,166.37375414402806 "/><polyline class="polyline" opacity="0.5" stroke="blue" points="144.60499171207863,197.7029185404505 165.26791760882548,168.74685322793314 "/><polyline class="polyline" opacity="0.5" stroke="blue" points="144.9189136476025,199.23357027814043 166.6912932551443,171.0971887385263 "/><polyline class="polyline" opacity="0.5" stroke="blue" points="145.26015747784106,200.76701782235597 168.1471723787894,173.42256704817342 "/><polyline class="polyline" opacity="0.5" stroke="blue" points="145.62858689867147,202.30237231264303 169.6338468943854,175.72085119996345 "/><polyline class="polyline" opacity="0.5" stroke="blue" points="146.02404512650193,203.83873984972536 171.149575818316,177.98996484298718 "/><polyline class="polyline" opacity="0.5" stroke="blue" points="146.44635492542346,205.3752223670308 172.69258913939478,180.22789594684224 "/><polyline class="polyline" opacity="0.5" stroke="blue" points="146.89531866456062,206.910918515724 174.26109172798456,182.43270028305483 "/><polyline class="polyline" opacity="0.5" stroke="blue" points="147.3707184057955,208.4449245615322 175.85326726690664,184.60250466260203 "/><polyline class="polyline" opacity="0.5" stroke="blue" points="147.87231602195573,209.97633529159998 177.46728218766552,186.73550992026045 "/><polyline class="polyline" opacity="0.5" stroke="blue" points="148.39985334547168,211.50424492956373 179.1012895958164,188.82999363808023 "/><polyline class="polyline" opacity="0.5" stroke="blue" points="148.953052347423,213.02774805699673 180.7534331697069,190.88431260187437 "/><polyline class="polyline" opacity="0.5" stroke="blue" points="149.53161534680834,214.54594053934414 182.42185101733523,192.89690498620942 "/><polyline class="polyline" opacity="0.5" stroke="blue" points="150.1352252497844,216.05792045444002 184.10467947666584,194.8662922649667 "/><polyline class="polyline" opacity="0.5" stroke="blue" points="150.76354581853667,217.56278902167904 185.80005684543158,196.7910808461032 "/><polyline class="polyline" opacity="0.5" stroke="blue" points="151.4162219693563,219.05965152990396 187.5061270272158,198.66996343076582 "/><polyline class="polyline" opacity="0.5" stroke="blue" points="152.09288009941477,220.54761826206288 189.22104308143813,200.50172009838437 "/><polyline class="polyline" opacity="0.5" stroke="blue" points="152.7931284416444,222.02580541469274 190.94297066575768,202.28521912078426 "/><polyline class="polyline" opacity="0.5" stroke="blue" points="153.51655744705153,223.4933360102935 192.67009136034602,204.01941750970374 "/><polyline class="polyline" opacity="0.5" stroke="blue" points="154.26274019371027,224.9493408006733 194.4006058644563,205.70336130336568 "/><polyline class="polyline" opacity="0.5" stroke="blue" points="155.0312328216089,226.39295915936697 196.1327370567229,207.33618559893335 "/><polyline class="polyline" opacity="0.5" stroke="blue" points="155.8215749924465,227.82333996126061 197.86473291164543,208.91711433876665 "/><polyline class="polyline" opacity="0.5" stroke="blue" points="156.63329037340785,229.2396424475899 199.5948692657475,210.445459859384 "/><polyline class="polyline" opacity="0.5" stroke="blue" points="157.4658871438781,230.64103707452426 201.32145242793106,211.92062221292252 "/><polyline class="polyline" opacity="0.5" stroke="blue" points="158.3188585239952,232.0267063435972 203.04282162957364,213.34208827167362 "/><polyline class="polyline" opacity="0.5" stroke="blue" points="159.19168332388045,233.39584561229876 204.75735131092264,214.7094306269479 "/><polyline class="polyline" opacity="0.5" stroke="blue" points="160.08382651233197,234.74766388320822 206.46345324132716,216.0223062940959 "/><polyline class="polyline" opacity="0.5" stroke="blue" points="160.9947398037177,236.08138457011142 208.15957847179928,217.2804552359794 "/><polyline class="polyline" opacity="0.5" stroke="blue" points="161.9238622617588,237.39624623961996 209.844219119316,218.4836987175499 "/><polyline class="polyline" opacity="0.5" stroke="blue" points="162.8706209188545,238.69150332688614 211.51590998314546,219.63193750445643 "/><polyline class="polyline" opacity="0.5" stroke="blue" points="163.8344314095654,239.96642682409043 213.1732299943109,220.72514991876977 "/><polyline class="polyline" opacity="0.5" stroke="blue" points="164.81469861684246,241.22030494046294 214.81480350008096,221.76338976498468 "/><polyline class="polyline" opacity="0.5" stroke="blue" points="165.8108173295642,242.4524437326911 216.4393013860989,222.7467841394469 "/><polyline class="polyline" opacity="0.5" stroke="blue" points="166.82217290992787,243.66216770465803 218.0454420394301,223.6755311362552 "/><polyline class="polyline" opacity="0.5" stroke="blue" points="167.84814196922406,244.84882037555172 219.63199215641438,224.5498974625156 "/><polyline class="polyline" opacity="0.5" stroke="blue" points="168.88809305051993,246.01176481548475 221.19776739976015,225.37021597557958 "/><polyline class="polyline" opacity="0.5" stroke="blue" points="169.94138731677037,247.15038414786164 222.74163290980582,226.1368831545924 "/><polyline class="polyline" opacity="0.5" stroke="blue" points="171.00737924288208,248.2640820178352 224.2625036753046,226.8503565183084 "/><polyline class="polyline" opacity="0.5" stroke="blue" points="172.0854173102613,249.3522830262936 225.75934476945918,227.51115200071757 "/><polyline class="polyline" opacity="0.5" stroke="blue" points="173.17484470239103,250.41443312892392 227.2311714572461,228.11984129556248 "/><polyline class="polyline" opacity="0.5" stroke="blue" points="174.27499999999998,251.45 228.67704918032786,228.67704918032786 "/><polyline class="polyline" opacity="0.5" stroke="blue" points="175.38521787441007,252.45847336064566 230.09609342605214,229.1834508297541 "/><polyline class="polyline" opacity="0.5" stroke="blue" points="176.50482977767524,253.4393652714254 231.4874694871909,229.63976912836853 "/><polyline class="polyline" opacity="0.5" stroke="blue" points="177.63316462815715,254.39221038921485 232.8503921191723,230.04677199095389 "/><polyline class="polyline" opacity="0.5" stroke="blue" points="178.76954949021956,255.31656618840256 234.18412510161613,230.40526969928234 "/><polyline class="polyline" opacity="0.5" stroke="blue" points="179.9133102467624,256.2120131465697 235.48798071099395,230.7161122628462 "/><polyline class="polyline" opacity="0.5" stroke="blue" points="181.0637722633606,257.0781548948903 236.76131911120976,230.98018681071224 "/><polyline class="polyline" opacity="0.5" stroke="blue" points="182.22026104281997,257.91461833358284 238.00354766882964,231.19841502102685 "/><polyline class="polyline" opacity="0.5" stroke="blue" points="183.38210286901193,258.72105371283544 239.21412019959251,231.3717505941011 "/><polyline class="polyline" opacity="0.5" stroke="blue" points="184.54862543890232,259.4971346797076 240.39253615270445,231.50117677441688 "/><polyline class="polyline" opacity="0.5" stroke="blue" points="185.71915848174453,260.2425582915955 241.53833973926243,231.58770392631962 "/><polyline class="polyline" opacity="0.5" stroke="blue" points="186.89303436446514,260.9570449969221 242.65111901097464,231.63236716760136 "/><polyline class="polyline" opacity="0.5" stroke="blue" points="188.06958868232908,261.6403385837872 243.73050489514122,231.63622406463458 "/><polyline class="polyline" opacity="0.5" stroke="blue" points="189.24816083403323,262.29220609738024 244.7761701916435,231.60035239219346 "/><polyline class="polyline" opacity="0.5" stroke="blue" points="190.42809458043902,262.91243772702234 245.7878285374521,231.52584796059702 "/><polyline class="polyline" opacity="0.5" stroke="blue" points="191.6087385862178,263.5008466637624 246.76523334392192,231.4138225123301 "/><polyline class="polyline" opacity="0.5" stroke="blue" points="192.78944694374792,264.0572689295067 247.7081767118825,231.26540168984286 "/><polyline class="polyline" opacity="0.5" stroke="blue" points="193.96957967866433,264.58156317871124 248.61648832927182,231.0817230758016 "/><polyline class="polyline" opacity="0.5" stroke="blue" points="195.14850323652922,265.0736104737087 249.4900343557918,230.86393430665953 "/><polyline class="polyline" opacity="0.5" stroke="blue" points="196.32559095015333,265.5333140347823 250.32871629879293,230.6131912600399 "/><polyline class="polyline" opacity="0.5" stroke="blue" points="197.50022348716368,265.96059896613383 251.1324698843241,230.33065631607357 "/><polyline class="polyline" opacity="0.5" stroke="blue" points="198.67178927747523,266.35541195892097 251.9012639270102,230.0174966925095 "/><polyline class="polyline" opacity="0.5" stroke="blue" points="199.83968492038713,266.71772097256564 252.63509920215427,229.67488285311805 "/><polyline class="polyline" opacity="0.5" stroke="blue" points="201.00331557108447,267.04751489555383 253.3340073231917,229.30398698863723 "/><polyline class="polyline" opacity="0.5" stroke="blue" points="202.16209530638724,267.34480318696166 253.99804962736673,228.90598156926245 "/><polyline class="polyline" opacity="0.5" stroke="blue" points="203.31544746964505,267.6096154999565 254.6273160722448,228.48203796746125 "/><polyline class="polyline" opacity="0.5" stroke="blue" points="204.46280499473409,267.84200128852416 255.22192414542803,228.03332514969372 "/><polyline class="polyline" opacity="0.5" stroke="blue" points="205.6036107091663,268.0420293986778 255.78201778960175,227.56100843544505 "/><polyline class="polyline" opacity="0.5" stroke="blue" points="206.73731761637413,268.20978764540143 256.30776634480617,227.06624832182288 "/><polyline class="polyline" opacity="0.5" stroke="blue" points="207.86338915728408,268.34538237657415 256.7993635096089,226.5501993718389 "/><polyline class="polyline" opacity="0.5" stroke="blue" points="208.98129945134082,268.4489380251123 257.25702632263716,226.01400916438126 "/><polyline class="polyline" opacity="0.5" stroke="blue" points="210.09053351718947,268.52059665055356 257.68099416572875,225.45881730379165 "/><polyline class="polyline" opacity="0.5" stroke="blue" points="211.19058747326696,268.5605174712888 258.0715277897642,224.885754486882 "/><polyline class="polyline" opacity="0.5" stroke="blue" points="212.2809687185943,268.56887638862963 258.428908364063,224.29594162516827 "/><polyline class="polyline" opacity="0.5" stroke="blue" points="213.36119609410034,268.5458655038755 258.7534365500497,223.69048902005363 "/><polyline class="polyline" opacity="0.5" stroke="blue" points="214.43080002484248,268.4916926295193 259.0454315997375,223.07049558866336 "/><polyline class="polyline" opacity="0.5" stroke="blue" points="215.4893226435243,268.40658079570255 259.3052304794194,222.43704813801784 "/><polyline class="polyline" opacity="0.5" stroke="blue" points="216.53631789573953,268.29076775300075 259.53318701881733,221.79122068522597 "/><polyline class="polyline" opacity="0.5" stroke="blue" points="217.57135162740042,268.1445054725877 259.72967108580605,221.13407382138865 "/><polyline class="polyline" opacity="0.5" stroke="blue" points="218.59400165483413,267.9680596447936 259.8950677867036,220.46665411692035 "/><polyline class="polyline" opacity="0.5" stroke="blue" points="219.60385781805257,267.7617091770353 260.02977669200726,219.7899935660232 "/><polyline class="polyline" opacity="0.5" stroke="blue" points="220.60052201772336,267.5257456920618 260.1342110873498,219.10510906808568 "/><polyline class="polyline" opacity="0.5" stroke="blue" points="221.58360823638517,267.2604730274177 260.2087972493507,218.4130019438202 "/><polyline class="polyline" opacity="0.5" stroke="blue" points="222.5527425444685,266.9662067369904 260.25397374595406,217.71465748400627 "/><polyline class="polyline" opacity="0.5" stroke="blue" points="223.507563091694,266.64327359546525 260.2701907607608,217.01104452876228 "/><polyline class="polyline" opacity="0.5" stroke="blue" points="224.44772008443329,266.2920111064732 260.257909440794,216.3031150753323 "/><polyline class="polyline" opacity="0.5" stroke="blue" points="225.37287574962386,265.9127670151743 260.21760126706954,215.59180391244098 "/><polyline class="polyline" opacity="0.5" stroke="blue" points="226.28270428583818,265.50589882597933 260.1497474472876,214.87802827934408 "/><polyline class="polyline" opacity="0.5" stroke="blue" points="227.17689180211013,265.0717733260699 260.0548383299112,214.16268754777442 "/><polyline class="polyline" opacity="0.5" stroke="blue" points="228.05513624512542,264.61076611533815 259.9333728388511,213.44666292506594 "/><polyline class="polyline" opacity="0.5" stroke="blue" points="228.9171473153831,264.12326114332257 259.78585792794183,212.73081717681646 "/><polyline class="polyline" opacity="0.5" stroke="blue" points="229.76264637293383,263.60965025368046 259.6128080543594,212.01599436753753 "/><polyline class="polyline" opacity="0.5" stroke="blue" points="230.59136633329956,263.07033273669225 259.4147446701039,211.30301961782132 "/><polyline class="polyline" opacity="0.5" stroke="blue" points="231.40305155417263,262.5057148902582 259.1921957306532,210.5926988766463 "/><polyline class="polyline" opacity="0.5" stroke="blue" points="232.1974577134889,261.91620958980576 258.9456952198716,209.88581870752762 "/><polyline class="polyline" opacity="0.5" stroke="blue" points="232.97435167946205,261.3022358674881 258.6757826902512,209.18314608730978 "/><polyline class="polyline" opacity="0.5" stroke="blue" points="233.73351137315663,260.66421850101887 258.3830028175529,208.4854282164879 "/><polyline class="polyline" opacity="0.5" stroke="blue" points="234.47472562417053,260.0025876124504 258.067904968913,207.7933923400326 "/><polyline class="polyline" opacity="0.5" stroke="blue" points="235.19779401998483,259.3177782771666 257.7310427834822,207.10774557778575 "/><polyline class="polyline" opacity="0.5" stroke="blue" points="235.90252674952941,258.61023014333017 257.37297376466665,206.42917476357894 "/><polyline class="polyline" opacity="0.5" stroke="blue" points="236.5887444414996,257.88038706198716 256.9942588830525,205.7583462923206 "/><polyline class="polyline" opacity="0.5" stroke="blue" points="237.25627799794677,257.12869672800343 256.5954621891039,205.09590597438083 "/><polyline class="polyline" opacity="0.5" stroke="blue" points="237.9049684236511,256.35561033197405 256.1771504347411,204.442478896693 "/><polyline class="polyline" opacity="0.5" stroke="blue" points="238.53466665177277,255.56158222321847 255.73989270292293,203.79866929007488 "/><polyline class="polyline" opacity="0.5" stroke="blue" points="239.14523336626036,254.7470695839466 255.284260044378,203.16506040235794 "/><polyline class="polyline" opacity="0.5" stroke="blue" points="239.73653882148236,253.9125321146516 254.81082512065322,202.5422143769947 "/><polyline class="polyline" opacity="0.5" stroke="blue" points="240.30846265953107,253.05843173076303 254.32016185267446,201.9306721368968 "/><polyline class="polyline" opacity="0.5" stroke="blue" points="240.86089372563254,252.185232270566 253.81284507404155,201.3309532733351 "/><polyline class="polyline" opacity="0.5" stroke="blue" points="241.39372988208083,251.29339921437108 253.2894501883114,200.7435559398095 "/><polyline class="polyline" opacity="0.5" stroke="blue" points="241.90687782109808,250.38339941489747 252.75055282955702,200.16895675087355 "/><polyline class="polyline" opacity="0.5" stroke="blue" points="242.40025287700558,249.45570083881023 252.19672852552233,199.6076106859697 "/><polyline class="polyline" opacity="0.5" stroke="blue" points="242.8737788380758,248.5107723193346 251.62855236273333,199.0599509984037 "/><polyline class="polyline" opacity="0.5" stroke="blue" points="243.32738775841796,247.54908331985098 251.04659865296213,198.5263891296522 "/><polyline class="polyline" opacity="0.5" stroke="blue" points="243.76101977023401,246.57110370835818 250.4514406004833,198.00731462926512 "/><polyline class="polyline" opacity="0.5" stroke="blue" points="244.17462289676646,245.57730354267565 249.8436499696017,197.5030950806857 "/><polyline class="polyline" opacity="0.5" stroke="blue" points="244.56815286624203,244.56815286624203 249.2237967519778,197.01407603337003 "/><polyline class="polyline" opacity="0.5" stroke="blue" points="244.94157292710162,243.54412151435312 248.59244883331917,196.54058094164523 "/><polyline class="polyline" opacity="0.5" stroke="blue" points="245.29485366478946,242.5056789306696 247.9501716590552,196.0829111107976 "/><polyline class="polyline" opacity="0.5" stroke="blue" points="245.6279728203606,241.45329399381478 247.29752789865842,195.64134565093144 "/><polyline class="polyline" opacity="0.5" stroke="blue" points="245.94091511115022,240.38743485387073 246.63507710832616,195.21614143918552 "/><polyline class="polyline" opacity="0.5" stroke="blue" points="246.23367205373415,239.3085687785724 245.9633753917848,194.80753309093575 "/><polyline class="polyline" opacity="0.5" stroke="blue" points="246.50624178939526,238.21716200899152 245.28297505903072,194.4157329406511 "/><polyline class="polyline" opacity="0.5" stroke="blue" points="246.75862891229644,237.1136796244934 244.59442428287247,194.04093103310365 "/><polyline class="polyline" opacity="0.5" stroke="blue" points="246.99084430054836,235.99858541674286 243.89826675319108,193.68329512566365 "/><polyline class="polyline" opacity="0.5" stroke="blue" points="247.20290495034516,234.87234177253202 243.19504132888892,193.34297070243628 "/><polyline class="polyline" opacity="0.5" stroke="blue" points="247.39483381333068,233.73540956519332 242.48528168754706,193.02008100101693 "/><polyline class="polyline" opacity="0.5" stroke="blue" points="247.5666596373435,232.5882480543614 241.76951597286882,192.71472705266012 "/><polyline class="polyline" opacity="0.5" stroke="blue" points="247.71841681067846,231.43131479383933 241.04826644003413,192.42698773666663 "/><polyline class="polyline" opacity="0.5" stroke="blue" points="247.85014520998996,230.2650655473258 240.32204909914776,192.15691984980256 "/><polyline class="polyline" opacity="0.5" stroke="blue" points="247.9618900519519,229.08995421175314 239.59137335701146,191.9045581915647 "/><polyline class="polyline" opacity="0.5" stroke="blue" points="248.0537017487781,227.90643274798833 238.85674165750544,191.66991566610446 "/><polyline class="polyline" opacity="0.5" stroke="blue" points="248.12563576769634,226.7149511186439 238.1186491209129,191.45298340161418 "/><polyline class="polyline" opacity="0.5" stroke="blue" points="248.1777524944598,225.51595723274826 237.3775831825728,191.25373088796673 "/><polyline class="polyline" opacity="0.5" stroke="blue" points="248.2101171009712,224.30989689702108 236.63402323129358,191.0721061333812 "/><polyline class="polyline" opacity="0.5" stroke="blue" points="248.22279941708268,223.09721377350297 235.888440248008,190.90803584086441 "/><polyline class="polyline" opacity="0.5" stroke="blue" points="248.21587380663027,221.87834934328603 235.14129644519608,190.7614256051482 "/><polyline class="polyline" opacity="0.5" stroke="blue" points="248.18941904774968,220.65374287609362 234.39304490764437,190.63216013081086 "/><polyline class="polyline" opacity="0.5" stroke="blue" points="248.14351821751458,219.42383140546042 233.6441292351548,190.52010347223066 "/><polyline class="polyline" opacity="0.5" stroke="blue" points="248.07825858092977,218.18904970926167 232.89498318785317,190.4250992959764 "/><polyline class="polyline" opacity="0.5" stroke="blue" points="247.99373148430578,216.94983029534595 232.14603033478647,190.34697116619182 "/><polyline class="polyline" opacity="0.5" stroke="blue" points="247.8900322530331,215.7066033920246 231.39768370653098,190.2855228534764 "/><polyline class="polyline" opacity="0.5" stroke="blue" points="247.76726009376927,214.4597969431749 230.65034545256663,190.2405386677083 "/><polyline class="polyline" opacity="0.5" stroke="blue" points="247.62551800104498,213.20983660771512 229.90440650419936,190.21178381519175 "/><polyline class="polyline" opacity="0.5" stroke="blue" points="247.46491266829014,211.95714576321333 229.1602462438415,190.19900478044588 "/><polyline class="polyline" opacity="0.5" stroke="blue" points="247.28555440327477,210.70214551339203 228.41823218147846,190.20192973288016 "/><polyline class="polyline" opacity="0.5" stroke="blue" points="247.08755704795533,209.44525469929658 227.67871963917182,190.220268958529 "/><polyline class="polyline" opacity="0.5" stroke="blue" points="246.87103790271124,208.18688991389445 226.94205144446107,190.25371531693867 "/><polyline class="polyline" opacity="0.5" stroke="blue" points="246.6361176549521,206.92746551987835 226.20855763353813,190.30194472322074 "/><polyline class="polyline" opacity="0.5" stroke="blue" points="246.3829203120722,205.66739367044678 225.47855516507474,190.36461665520196 "/><polyline class="polyline" opacity="0.5" stroke="blue" points="246.11157313872366,204.4070843328395 224.75234764558576,190.44137468551438 "/><polyline class="polyline" opacity="0.5" stroke="blue" points="245.82220659837685,203.1469453144085 224.03022506720984,190.53184703838303 "/><polyline class="polyline" opacity="0.5" stroke="blue" points="245.51495429913228,201.8873822910065 223.31246355878218,190.63564717077804 "/><polyline class="polyline" opacity="0.5" stroke="blue" points="245.18995294374443,200.62879883748002 222.59932515106505,190.75237437750792 "/><polyline class="polyline" opacity="0.5" stroke="blue" points="244.84734228381586,199.37159646005452 221.8910575569852,190.88161441974066 "/><polyline class="polyline" opacity="0.5" stroke="blue" points="244.48726507811514,198.11617463040412 221.18789396771137,191.0229401763462 "/><polyline class="polyline" opacity="0.5" stroke="blue" points="244.10986705497035,196.8629308211991 220.49005286537746,191.17591231736515 "/><polyline class="polyline" opacity="0.5" stroke="blue" points="243.715296878687,195.6122605429288 219.79773785323403,191.34007999881587 "/><polyline class="polyline" opacity="0.5" stroke="blue" points="243.30370611993507,194.36455738179882 219.1111375039748,191.51498157796604 "/><polyline class="polyline" opacity="0.5" stroke="blue" points="242.87524923004963,193.120213038505 218.43042522695254,191.70014534810463 "/><polyline class="polyline" opacity="0.5" stroke="blue" points="242.4300835191845,191.87961736768773 217.75575915495563,191.89509029176776 "/><polyline class="polyline" opacity="0.5" stroke="blue" points="241.96836913825814,190.6431584178746 217.08728205117552,192.09932685128842 "/><polyline class="polyline" opacity="0.5" stroke="blue" points="241.4902690646266,189.4112224717187 216.42512123694638,192.31235771546133 "/><polyline class="polyline" opacity="0.5" stroke="blue" points="240.99594909141808,188.18419408634603 215.7693885407882,192.5336786210392 "/><polyline class="polyline" opacity="0.5" stroke="blue" points="240.48557782045958,186.9624561336223 215.12018026923064,192.76277916770533 "/><polyline class="polyline" opacity="0.5" stroke="blue" points="239.95932665872533,185.74638984015706 214.4775771998371,192.99914364510116 "/><polyline class="polyline" opacity="0.5" stroke="blue" points="239.4173698182336,184.53637482686054 213.84164459679116,193.2422518704253 "/><polyline class="polyline" opacity="0.5" stroke="blue" points="238.85988431931676,183.33278914787178 213.2124322493423,193.49158003506537 "/><polyline class="polyline" opacity="0.5" stroke="blue" points="238.28704999718755,182.13600932868007 212.58997453334712,193.74660155867235 "/><polyline class="polyline" opacity="0.5" stroke="blue" points="237.69904951172146,180.94641040325914 211.97429049607345,194.00678794904402 "/><polyline class="polyline" opacity="0.5" stroke="blue" points="237.09606836037406,179.76436595003958 211.36538396437047,194.27160966614468 "/><polyline class="polyline" opacity="0.5" stroke="blue" points="236.47829489414937,178.5902481265426 210.76324367623656,194.54053698855847 "/><polyline class="polyline" opacity="0.5" stroke="blue" points="235.84592033653288,177.42442770250204 210.16784343575048,194.81304088064718 "/><polyline class="polyline" opacity="0.5" stroke="blue" points="235.19913880530106,176.26727409130012 209.57914229125993,195.08859385866756 "/><polyline class="polyline" opacity="0.5" stroke="blue" points="234.53814733711715,175.11915537954692 208.99708473665348,195.3666708540913 "/><polyline class="polyline" opacity="0.5" stroke="blue" points="233.86314591481909,173.98043835463008 208.42160093547247,195.64675007236792 "/><polyline class="polyline" opacity="0.5" stroke="blue" points="233.17433749730543,172.85148853006672 207.8526069675513,195.9283138453752 "/><polyline class="polyline" opacity="0.5" stroke="blue" points="232.47192805192006,171.73267016848635 207.29000509780738,196.21084947581159 "/><polyline class="polyline" opacity="0.5" stroke="blue" points="231.7561265892359,170.62434630207727 206.7336840667368,196.493850071805 "/><polyline class="polyline" opacity="0.5" stroke="blue" points="231.02714520013387,169.52687875032774 206.18351940210792,196.77681537003562 "/><polyline class="polyline" opacity="0.5" stroke="blue" points="230.28519909507096,168.44062813489433 205.63937375128273,197.05925254570488 "/><polyline class="polyline" opacity="0.5" stroke="blue" points="229.53050664542877,167.36595389143142 205.10109723353824,197.34067700771968 "/><polyline class="polyline" opacity="0.5" stroke="blue" points="228.76328942682966,166.30321427821428 204.56852781170238,197.6206131775074 "/><polyline class="polyline" opacity="0.5" stroke="blue" points="227.98377226430654,165.25276638139152 204.0414916823663,197.8985952499292 "/><polyline class="polyline" opacity="0.5" stroke="blue" points="227.19218327920652,164.21496611669966 203.51980368388553,198.17416793481544 "/><polyline class="polyline" opacity="0.5" stroke="blue" points="226.38875393770792,163.1901682274774 203.00326772133465,198.44688717771177 "/><polyline class="polyline" opacity="0.5" stroke="blue" points="225.57371910082395,162.17872627881317 202.4916772075394,198.71632085849177 "/><polyline class="polyline" opacity="0.5" stroke="blue" points="224.74731707576598,161.18099264766437 201.98481551927011,198.98204946656512 "/><polyline class="polyline" opacity="0.5" stroke="blue" points="223.9097896685314,160.19731850878387 201.48245646764659,199.24366675148892 "/><polyline class="polyline" opacity="0.5" stroke="blue" points="223.0613822375819,159.2280538162925 200.98436478177433,199.50078034786975 "/><polyline class="polyline" opacity="0.5" stroke="blue" points="222.20234374846973,158.27354728073553 200.4902966046058,199.7530123735301 "/><polyline class="polyline" opacity="0.5" stroke="blue" points="221.3329268292683,157.33414634146342 200.0,200.0 "/><polyline class="polyline" opacity="0.5" stroke="blue" points="220.45338782665758,156.41019713417623 199.51321546993552,200.2413959944848 "/><polyline class="polyline" opacity="0.5" stroke="blue" points="219.56398686251066,155.50204445347384 199.02967648082048,200.47686923255347 "/><polyline class="polyline" opacity="0.5" stroke="blue" points="218.66498789082468,154.6100317102556 198.54910999783584,200.70610518088327 "/><polyline class="polyline" opacity="0.5" stroke="blue" points="217.75665875483142,153.73450088381253 198.0712370262432,200.92880634949333 "/><polyline class="polyline" opacity="0.5" stroke="blue" points="216.8392712441223,152.8757924684587 197.59577315859107,201.14469271299353 "/><polyline class="polyline" opacity="0.5" stroke="blue" points="215.91310115161323,152.03424541455007 197.12242912675802,201.35350210046977 "/><polyline class="polyline" opacity="0.5" stroke="blue" points="214.97842833017407,151.21019706374034 196.6509113577807,201.5549905537215 "/><polyline class="polyline" opacity="0.5" stroke="blue" points="214.03553674873802,150.40398307832615 196.18092253242855,201.74893265366072 "/><polyline class="polyline" opacity="0.5" stroke="blue" points="213.08471454770518,149.6159373645374 195.7121621455045,201.9351218147724 "/><polyline class="polyline" opacity="0.5" stroke="blue" points="212.1262540934451,148.8463919896296 195.2443270668714,202.11337054762706 "/><polyline class="polyline" opacity="0.5" stroke="blue" points="211.16045203170225,148.09567709264095 194.77711210222992,202.28351068952293 "/><polyline class="polyline" opacity="0.5" stroke="blue" points="210.18760933969776,147.3641207886776 194.31021055270023,202.44539360342 "/><polyline class="polyline" opacity="0.5" stroke="blue" points="209.20803137672075,146.65204906659758 193.84331477229148,202.5988903454092 "/><polyline class="polyline" opacity="0.5" stroke="blue" points="208.22202793299175,145.95978567996542 193.3761167223772,202.7438918010389 "/><polyline class="polyline" opacity="0.5" stroke="blue" points="207.22991327657957,145.28765203115694 192.90830852233,202.8803087908938 "/><polyline class="polyline" opacity="0.5" stroke="blue" points="206.23200619814463,144.63596704849715 192.43958299550906,203.00807214589233 "/><polyline class="polyline" opacity="0.5" stroke="blue" points="205.22863005327676,144.00504705632042 191.96963420983283,203.12713275283434 "/><polyline class="polyline" opacity="0.5" stroke="blue" points="204.22011280219127,143.3952056378495 191.49815801221405,203.23746157079157 "/><polyline class="polyline" opacity="0.5" stroke="blue" points="203.20678704653938,142.80675349079496 191.0248525561751,203.33904961899088 "/><polyline class="polyline" opacity="0.5" stroke="blue" points="202.18899006308618,142.23999827558583 190.54941882200987,203.43190793689115 "/><polyline class="polyline" opacity="0.5" stroke="blue" points="201.16706383400157,141.69524445614817 190.07156112890206,203.516067517202 "/><polyline class="polyline" opacity="0.5" stroke="blue" points="200.1413550735065,141.17279313316016 189.59098763845728,203.5915792126342 "/><polyline class="polyline" opacity="0.5" stroke="blue" points="199.11221525061038,140.67294186971645 189.1074108491535,203.65851361720806 "/><polyline class="polyline" opacity="0.5" stroke="blue" points="198.08000060767162,140.1959845093507 188.62054808126118,203.71696092297813 "/><polyline class="polyline" opacity="0.5" stroke="blue" points="197.04507217450788,139.74221098636957 188.1301219518312,203.7670307530582 "/><polyline class="polyline" opacity="0.5" stroke="blue" points="196.0077957777792,139.31190712846796 187.63586083939623,203.80885197185296 "/><polyline class="polyline" opacity="0.5" stroke="blue" points="194.96854204536166,138.90535445160307 187.13749933807551,203.84257247341813 "/><polyline class="polyline" opacity="0.5" stroke="blue" points="193.92768640542738,138.52282994712138 186.63477870082025,203.86835894888296 "/><polyline class="polyline" opacity="0.5" stroke="blue" points="192.88560907994074,138.16460586114223 186.12744727157852,203.88639663387562 "/><polyline class="polyline" opacity="0.5" stroke="blue" points="191.8426950722805,137.83094946622015 185.6152609062039,203.8968890368932 "/><polyline class="polyline" opacity="0.5" stroke="blue" points="190.79933414869254,137.52212282531923 185.09798338197115,203.90005764955717 "/><polyline class="polyline" opacity="0.5" stroke="blue" points="189.75592081327653,137.23838254815203 184.57538679560332,203.89614163968585 "/><polyline class="polyline" opacity="0.5" stroke="blue" points="188.71285427620944,136.97997953994982 184.047251949753,203.88539752810743 "/><polyline class="polyline" opacity="0.5" stroke="blue" points="187.670538414905,136.7471587427496 183.51336872791452,203.8680988501185 "/><polyline class="polyline" opacity="0.5" stroke="blue" points="186.62938172781153,136.54015886930247 182.97353645778097,203.84453580247816 "/><polyline class="polyline" opacity="0.5" stroke="blue" points="185.58979728054604,136.35921212972477 182.4275642630883,203.81501487680163 "/><polyline class="polyline" opacity="0.5" stroke="blue" points="184.55220264406853,136.20454395103656 181.8752714040219,203.77985848019497 "/><polyline class="polyline" opacity="0.5" stroke="blue" points="183.5170198245971,136.07637268975003 181.31648760628502,203.7394045439415 "/><polyline class="polyline" opacity="0.5" stroke="blue" points="182.48467518497108,135.974909337694 180.75105337895582,203.69400612102052 "/><polyline class="polyline" opacity="0.5" stroke="blue" points="181.45559935716915,135.90035722128286 180.17882032128048,203.64403097320348 "/><polyline class="polyline" opacity="0.5" stroke="blue" points="180.43022714569656,135.85291169446057 179.59965141857043,203.58986114843813 "/><polyline class="polyline" opacity="0.5" stroke="blue" points="179.40899742155764,135.8327598255757 179.01342132738836,203.5318925491908 "/><polyline class="polyline" opacity="0.5" stroke="blue" points="178.39235300653883,135.84008007846782 178.42001665022315,203.47053449237788 "/><polyline class="polyline" opacity="0.5" stroke="blue" points="177.38074054753187,135.875041988071 177.81933619986452,203.40620926147565 "/><polyline class="polyline" opacity="0.5" stroke="blue" points="176.37461038063645,135.93780583086584 177.21129125369868,203.33935165135335 "/><polyline class="polyline" opacity="0.5" stroke="blue" points="175.37441638479118,136.0285222905402 176.59580579815238,203.27040850633162 "/><polyline class="polyline" opacity="0.5" stroke="blue" points="174.38061582468976,136.14733211924312 175.97281676351682,203.19983825192168 "/><polyline class="polyline" opacity="0.5" stroke="blue" points="173.3936691827546,136.29436579484795 175.34227424938464,203.12811042065636 "/><polyline class="polyline" opacity="0.5" stroke="blue" points="172.41403997994934,136.46974317466575 174.70414174093182,203.0557051723766 "/><polyline class="polyline" opacity="0.5" stroke="blue" points="171.4421945852284,136.67357314608145 174.05839631627296,202.98311280929147 "/><polyline class="polyline" opacity="0.5" stroke="blue" points="170.47860201343582,136.9059532746131 173.40502884511173,202.91083328608323 "/><polyline class="polyline" opacity="0.5" stroke="blue" points="169.52373371148315,137.16696944992339 172.7440441789011,202.83937571528332 "/><polyline class="polyline" opacity="0.5" stroke="blue" points="168.57806333265341,137.4566955303442 172.07546133271478,202.76925786809858 "/><polyline class="polyline" opacity="0.5" stroke="blue" points="167.64206649890008,137.77519298650225 171.39931365902046,202.70100567082338 "/><polyline class="polyline" opacity="0.5" stroke="blue" points="166.7162205510266,138.12251054466503 170.7156490135283,202.63515269692846 "/><polyline class="polyline" opacity="0.5" stroke="blue" points="165.80100428666026,138.49868383045495 170.02452991327056,202.5722396548747 "/><polyline class="polyline" opacity="0.5" stroke="blue" points="164.89689768595255,138.9037350136091 169.3260336870498,202.5128138716576 "/><polyline class="polyline" opacity="0.5" stroke="blue" points="164.00438162496704,139.33767245449002 168.62025261836857,202.45742877204927 "/><polyline class="polyline" opacity="0.5" stroke="blue" points="163.1239375767417,139.80049035308332 167.9072940809329,202.4066433534641 "/><polyline class="polyline" opacity="0.5" stroke="blue" points="162.25604730003948,140.29216840124204 167.18728066679293,202.36102165633872 "/><polyline class="polyline" opacity="0.5" stroke="blue" points="161.4011925158325,140.8126714389687 166.46035030715953,202.32113222988087 "/><polyline class="polyline" opacity="0.5" stroke="blue" points="160.55985457159457,141.36194911554784 165.72665638590345,202.2875475930088 "/><polyline class="polyline" opacity="0.5" stroke="blue" points="159.7325140935107,141.9399355563707 164.9863678457161,202.2608436902717 "/><polyline class="polyline" opacity="0.5" stroke="blue" points="158.91965062674333,142.5465490363131 164.23966928687486,202.2415993425137 "/><polyline class="polyline" opacity="0.5" stroke="blue" points="158.12174226393347,143.18169166055418 163.48676105852593,202.23039569201651 "/><polyline class="polyline" opacity="0.5" stroke="blue" points="157.3392652621471,143.84524905374076 162.72785934235935,202.22781564183384 "/><polyline class="polyline" opacity="0.5" stroke="blue" points="156.5726936485178,144.5370900584225 161.9631962285171,202.23444328900814 "/><polyline class="polyline" opacity="0.5" stroke="blue" points="155.82249881487223,145.25706644370172 161.19301978353525,202.2508633513439 "/><polyline class="polyline" opacity="0.5" stroke="blue" points="155.08914910166624,146.0050126250525 160.41759411008604,202.27766058739584 "/><polyline class="polyline" opacity="0.5" stroke="blue" points="154.37310937159765,146.78074539628216 159.6371993982425,202.31541920931838 "/><polyline class="polyline" opacity="0.5" stroke="blue" points="153.67484057330438,147.58406367461293 158.8521319679527,202.3647222882155 "/><polyline class="polyline" opacity="0.5" stroke="blue" points="152.99479929559584,148.41474825987422 158.062704302366,202.42615115162303 "/><polyline class="polyline" opacity="0.5" stroke="blue" points="152.33343731271026,149.2725616087978 157.2692450716159,202.50028477275583 "/><polyline class="polyline" opacity="0.5" stroke="blue" points="151.69120112113012,150.15724762541225 156.47209914662142,202.58769915115235 "/><polyline class="polyline" opacity="0.5" stroke="blue" points="151.06853146853143,151.06853146853143 155.67162760242675,202.6889666843567 "/><polyline class="polyline" opacity="0.5" stroke="blue" points="150.46586287548683,152.00611937732776 154.86820771055974,202.80465553028603 "/><polyline class="polyline" opacity="0.5" stroke="blue" points="149.88362315058086,152.96969851597476 154.06223291984554,202.93532895994653 "/><polyline class="polyline" opacity="0.5" stroke="blue" points="149.32223289964318,153.95893683833032 153.25411282507446,203.08154470017737 "/><polyline class="polyline" opacity="0.5" stroke="blue" points="148.78210502984217,154.9734829736209 152.44427312287814,203.2438542661246 "/><polyline class="polyline" opacity="0.5" stroke="blue" points="148.2636442494259,156.0129661340651 151.63315555413408,203.42280228317313 "/><polyline class="polyline" opacity="0.5" stroke="blue" points="147.76724656393574,157.07699604535742 150.82121783217391,203.6189257980955 "/><polyline class="polyline" opacity="0.5" stroke="blue" points="147.29329876975788,158.165162900902 150.00893355603898,203.83275357921042 "/><polyline class="polyline" opacity="0.5" stroke="blue" points="146.84217794591518,159.2770373406622 149.1967921079857,204.0648054053847 "/><polyline class="polyline" opacity="0.5" stroke="blue" points="146.41425094503896,160.41217045545272 148.3852985344132,204.3155913437557 "/><polyline class="polyline" opacity="0.5" stroke="blue" points="146.00987388449383,161.57009381746698 147.574973409349,204.5856110161003 "/><polyline class="polyline" opacity="0.5" stroke="blue" points="145.62939163866224,162.75031953778876 146.76635267960086,204.8753528538307 "/><polyline class="polyline" opacity="0.5" stroke="blue" points="145.27313733342646,163.9523403515904 145.95998749065484,205.18529334165464 "/><polyline class="polyline" opacity="0.5" stroke="blue" points="144.94143184391163,165.17562973167264 145.15644399237183,205.5158962500022 "/><polyline class="polyline" opacity="0.5" stroke="blue" points="144.63458329658235,166.41964203094398 144.35630312351498,205.86761185638866 "/><polyline class="polyline" opacity="0.5" stroke="blue" points="144.3528865768058,167.68381265438032 143.5601603741209,206.24087615595496 "/><polyline class="polyline" opacity="0.5" stroke="blue" points="144.09662284301507,168.96755826094608 142.7686255247109,206.63611006150742 "/><polyline class="polyline" opacity="0.5" stroke="blue" points="143.86605904862307,170.27027699588814 141.98232236132816,207.05371859345775 "/><polyline class="polyline" opacity="0.5" stroke="blue" points="143.6614474728508,171.59134875374923 141.20188836537923,207.4940900601541 "/><polyline class="polyline" opacity="0.5" stroke="blue" points="143.48302526164338,172.9301354723703 140.42797437725574,207.95759522918286 "/><polyline class="polyline" opacity="0.5" stroke="blue" points="143.33101397985305,174.28598145808007 139.66124423271305,208.4445864903197 "/><polyline class="polyline" opacity="0.5" stroke="blue" points="143.20561917587102,175.65821374218706 138.9023743709931,208.95539701090635 "/><polyline class="polyline" opacity="0.5" stroke="blue" points="143.10702995988788,177.0461424688107 138.152053413688,209.49033988453513 "/><polyline class="polyline" opacity="0.5" stroke="blue" points="143.03541859695596,178.4490613140005 137.410981713364,210.0497072740304 "/><polyline class="polyline" opacity="0.5" stroke="blue" points="142.9909401160175,179.8662479360102 136.67987087098743,210.6337695498291 "/><polyline class="polyline" opacity="0.5" stroke="blue" points="142.9737319360468,181.29696445650097 135.95944322122804,211.2427744249761 "/><polyline class="polyline" opacity="0.5" stroke="blue" points="142.98391351043625,182.74045797236073 135.2504312847546,211.87694608806868 "/><polyline class="polyline" opacity="0.5" stroke="blue" points="143.02158599073266,184.1959610977323 134.5535771866816,212.53648433560363 "/><polyline class="polyline" opacity="0.5" stroke="blue" points="143.08683191080092,185.66269253575496 133.86963204038238,213.22156370530456 "/><polyline class="polyline" opacity="0.5" stroke="blue" points="143.1797148924618,187.1398576794273 133.19935529594295,213.93233261212873 "/><polyline class="polyline" opacity="0.5" stroke="blue" points="143.30027937361078,188.6266492409069 132.54351405260346,214.66891248877846 "/><polyline class="polyline" opacity="0.5" stroke="blue" points="143.448550359786,190.12224790847242 131.90288233460808,215.4313969326676 "/><polyline class="polyline" opacity="0.5" stroke="blue" points="143.6245332001057,191.62582303027867 131.27824032997538,216.2198508614177 "/><polyline class="polyline" opacity="0.5" stroke="blue" points="143.82821338844636,193.1365333239454 130.67037359179182,217.0343096790831 "/><polyline class="polyline" opacity="0.5" stroke="blue" points="144.05955639067798,194.65352761093078 130.08007220173803,217.87477845542514 "/><polyline class="polyline" opacity="0.5" stroke="blue" points="144.31850749871492,196.17594557455482 129.50812989566853,218.7412311206781 "/><polyline class="polyline" opacity="0.5" stroke="blue" points="144.6049917120786,197.70291854045044 128.95534315118687,219.6336096783627 "/><polyline class="polyline" opacity="0.5" stroke="blue" points="144.9189136476025,199.2335702781404 128.42251023728988,220.55182343881788 "/><polyline class="polyline" opacity="0.5" stroke="blue" points="145.2601574778411,200.76701782235597 127.91043022629214,221.49574827622638 "/><polyline class="polyline" opacity="0.5" stroke="blue" points="145.62858689867144,202.30237231264294 127.41990196838994,222.4652259120137 "/><polyline class="polyline" opacity="0.5" stroke="blue" points="146.02404512650193,203.8387398497253 126.95172302937914,223.4600632275908 "/><polyline class="polyline" opacity="0.5" stroke="blue" points="146.44635492542346,205.3752223670308 126.50668859220684,224.48003160949816 "/><polyline class="polyline" opacity="0.5" stroke="blue" points="146.8953186645606,206.910918515724 126.08559032320524,225.52486633008638 "/><polyline class="polyline" opacity="0.5" stroke="blue" points="147.3707184057955,208.4449245615321 125.68921520403714,226.5942659669331 "/><polyline class="polyline" opacity="0.5" stroke="blue" points="147.8723160219557,209.97633529159992 125.31834433056633,227.68789186425278 "/><polyline class="polyline" opacity="0.5" stroke="blue" points="148.39985334547163,211.5042449295637 124.97375168005729,228.80536763959591 "/><polyline class="polyline" opacity="0.5" stroke="blue" points="148.953052347423,213.02774805699676 124.65620284830462,229.94627873916832 "/><polyline class="polyline" opacity="0.5" stroke="blue" points="149.53161534680834,214.5459405393441 124.3664537584941,231.11017204510966 "/><polyline class="polyline" opacity="0.5" stroke="blue" points="150.13522524978438,216.05792045444 124.10524934380017,232.29655553807495 "/><polyline class="polyline" opacity="0.5" stroke="blue" points="150.76354581853667,217.56278902167907 123.87332220593163,233.50489801844103 "/><polyline class="polyline" opacity="0.5" stroke="blue" points="151.4162219693563,219.05965152990402 123.67139125204696,234.73462888942814 "/><polyline class="polyline" opacity="0.5" stroke="blue" points="152.09288009941474,220.54761826206283 123.50016031266506,235.98513800537182 "/><polyline class="polyline" opacity="0.5" stroke="blue" points="152.79312844164437,222.0258054146927 123.36031674340904,237.25577558830798 "/><polyline class="polyline" opacity="0.5" stroke="blue" points="153.51655744705153,223.4933360102935 123.25253001362255,238.54585221594033 "/><polyline class="polyline" opacity="0.5" stroke="blue" points="154.26274019371024,224.9493408006732 123.17745028509994,239.85463888394963 "/><polyline class="polyline" opacity="0.5" stroke="blue" points="155.03123282160888,226.39295915936694 123.13570698436797,241.1813671454664 "/><polyline class="polyline" opacity="0.5" stroke="blue" points="155.8215749924465,227.8233399612606 123.12790737214593,242.525229330374 "/><polyline class="polyline" opacity="0.5" stroke="blue" points="156.63329037340785,229.2396424475899 123.15463511379161,243.88537884693386 "/><polyline class="polyline" opacity="0.5" stroke="blue" points="157.46588714387804,230.64103707452418 123.21644885471163,245.26093056802264 "/><polyline class="polyline" opacity="0.5" stroke="blue" points="158.31885852399517,232.02670634359714 123.31388080487474,246.65096130405212 "/><polyline class="polyline" opacity="0.5" stroke="blue" points="159.19168332388045,233.39584561229873 123.4474353367127,248.0545103643979 "/><polyline class="polyline" opacity="0.5" stroke="blue" points="160.083826512332,234.74766388320822 123.61758760082475,249.47058020890344 "/><polyline class="polyline" opacity="0.5" stroke="blue" points="160.99473980371766,236.08138457011137 123.82478216401735,250.8981371907371 "/><polyline class="polyline" opacity="0.5" stroke="blue" points="161.9238622617588,237.39624623961993 124.06943167430842,252.33611239157983 "/><polyline class="polyline" opacity="0.5" stroke="blue" points="162.8706209188545,238.69150332688614 124.35191555760217,253.78340254979534 "/><polyline class="polyline" opacity="0.5" stroke="blue" points="163.83443140956547,239.96642682409046 124.67257875079898,255.23887108189746 "/><polyline class="polyline" opacity="0.5" stroke="blue" points="164.8146986168424,241.22030494046288 125.03173047613845,256.70134919727036 "/><polyline class="polyline" opacity="0.5" stroke="blue" points="165.8108173295642,242.4524437326911 125.4296430615854,258.1696371057279 "/><polyline class="polyline" opacity="0.5" stroke="blue" points="166.82217290992787,243.66216770465803 125.86655081205505,259.6425053171119 "/><polyline class="polyline" opacity="0.5" stroke="blue" points="167.848141969224,244.84882037555167 126.34264893623507,261.11869603173864 "/><polyline class="polyline" opacity="0.5" stroke="blue" points="168.8880930505199,246.01176481548472 126.85809253369615,262.5969246200947 "/><polyline class="polyline" opacity="0.5" stroke="blue" points="169.94138731677037,247.15038414786162 127.41299564689024,264.075881189774 "/><polyline class="polyline" opacity="0.5" stroke="blue" points="171.00737924288208,248.2640820178352 128.00743038251687,265.5542322372376 "/><polyline class="polyline" opacity="0.5" stroke="blue" points="172.08541731026125,249.35228302629355 128.6414261065878,267.03062238155536 "/><polyline class="polyline" opacity="0.5" stroke="blue" points="173.174844702391,250.4144331289239 129.31496871734743,268.50367617688164 "/><polyline class="polyline" opacity="0.5" stroke="blue" points="174.27499999999998,251.45 130.02800000000002,269.972 "/><polyline class="polyline" opacity="0.5" stroke="blue" points="175.38521787441013,252.45847336064568 130.78041706696666,271.4341840088738 "/><polyline class="polyline" opacity="0.5" stroke="blue" points="176.5048297776752,253.43936527142534 131.57207188713795,272.8888041677442 "/><polyline class="polyline" opacity="0.5" stroke="blue" points="177.63316462815715,254.39221038921485 132.40277090730194,274.3344243339361 "/><polyline class="polyline" opacity="0.5" stroke="blue" points="178.76954949021956,255.31656618840256 133.2722747686245,275.7695984011678 "/><polyline class="polyline" opacity="0.5" stroke="blue" points="179.91331024676242,256.21201314656975 134.18029812072473,277.1928724938157 "/><polyline class="polyline" opacity="0.5" stroke="blue" points="181.06377226336056,257.07815489489025 135.1265095355382,278.6027872062594 "/><polyline class="polyline" opacity="0.5" stroke="blue" points="182.22026104281997,257.91461833358284 136.11053152278706,279.99787988113366 "/><polyline class="polyline" opacity="0.5" stroke="blue" points="183.38210286901196,258.72105371283544 137.13194064848798,281.37668692003683 "/><polyline class="polyline" opacity="0.5" stroke="blue" points="184.54862543890223,259.4971346797076 138.19026775752212,282.7377461200084 "/><polyline class="polyline" opacity="0.5" stroke="blue" points="185.71915848174447,260.2425582915955 139.28499830087503,284.0795990288689 "/><polyline class="polyline" opacity="0.5" stroke="blue" points="186.8930343644651,260.95704499692204 140.41557276772238,285.400793312341 "/><polyline class="polyline" opacity="0.5" stroke="blue" points="188.06958868232908,261.6403385837872 141.58138722210498,286.69988512572735 "/><polyline class="polyline" opacity="0.5" stroke="blue" points="189.24816083403317,262.2922060973802 142.78179394349144,287.9754414828134 "/><polyline class="polyline" opacity="0.5" stroke="blue" points="190.42809458043897,262.91243772702234 144.0161021700854,289.2260426145992 "/><polyline class="polyline" opacity="0.5" stroke="blue" points="191.6087385862178,263.5008466637624 145.28357894329076,290.450284310431 "/><polyline class="polyline" opacity="0.5" stroke="blue" points="192.78944694374795,264.0572689295067 146.58345005131056,291.64678023412307 "/><polyline class="polyline" opacity="0.5" stroke="blue" points="193.96957967866427,264.58156317871124 147.914901069423,292.81416420770506 "/><polyline class="polyline" opacity="0.5" stroke="blue" points="195.1485032365292,265.0736104737087 149.27707849405783,293.9510924555304 "/><polyline class="polyline" opacity="0.5" stroke="blue" points="196.32559095015333,265.53331403478234 150.66909096738533,295.0562458016091 "/><polyline class="polyline" opacity="0.5" stroke="blue" points="197.5002234871637,265.96059896613383 152.09001058874162,296.12833181320457 "/><polyline class="polyline" opacity="0.5" stroke="blue" points="198.6717892774752,266.3554119589209 153.53887430883663,297.16608688394325 "/><polyline class="polyline" opacity="0.5" stroke="blue" points="199.8396849203871,266.71772097256564 155.01468540234032,298.1682782499381 "/><polyline class="polyline" opacity="0.5" stroke="blue" points="201.00331557108447,267.04751489555383 156.5164150141116,299.13370593270395 "/><polyline class="polyline" opacity="0.5" stroke="blue" points="202.1620953063872,267.3448031869616 158.04300377403513,300.06120460296967 "/><polyline class="polyline" opacity="0.5" stroke="blue" points="203.31544746964502,267.6096154999565 159.5933634751526,300.94964535983365 "/><polyline class="polyline" opacity="0.5" stroke="blue" points="204.46280499473406,267.8420012885241 161.1663788095289,301.797937420092 "/><polyline class="polyline" opacity="0.5" stroke="blue" points="205.6036107091663,268.0420293986778 162.76090915608495,302.6050297129708 "/><polyline class="polyline" opacity="0.5" stroke="blue" points="206.73731761637407,268.20978764540143 164.37579041443973,303.36991237592366 "/><polyline class="polyline" opacity="0.5" stroke="blue" points="207.86338915728408,268.34538237657415 166.0098368786628,304.0916181476031 "/><polyline class="polyline" opacity="0.5" stroke="blue" points="208.98129945134085,268.4489380251123 167.66184314471846,304.76922365457904 "/><polyline class="polyline" opacity="0.5" stroke="blue" points="210.0905335171895,268.52059665055356 169.33058604530922,305.4018505888592 "/><polyline class="polyline" opacity="0.5" stroke="blue" points="211.1905874732669,268.5605174712888 171.01482660577724,305.98866677375383 "/><polyline class="polyline" opacity="0.5" stroke="blue" points="212.2809687185943,268.56887638862963 172.71331201471526,306.5288871161265 "/><polyline class="polyline" opacity="0.5" stroke="blue" points="213.36119609410034,268.5458655038755 174.42477760295938,307.0217744435688 "/><polyline class="polyline" opacity="0.5" stroke="blue" points="214.43080002484245,268.4916926295193 176.14794882469914,307.46664022554387 "/><polyline class="polyline" opacity="0.5" stroke="blue" points="215.48932264352428,268.4065807957026 177.88154323452525,307.86284517803495 "/><polyline class="polyline" opacity="0.5" stroke="blue" points="216.5363178957395,268.29076775300075 179.62427245435788,308.2097997517312 "/><polyline class="polyline" opacity="0.5" stroke="blue" points="217.57135162740042,268.1445054725877 181.37484412435327,308.5069645042615 "/><polyline class="polyline" opacity="0.5" stroke="blue" points="218.59400165483405,267.9680596447936 183.1319638320602,308.7538503574584 "/><polyline class="polyline" opacity="0.5" stroke="blue" points="219.60385781805255,267.7617091770353 184.89433701430855,308.95001874108766 "/><polyline class="polyline" opacity="0.5" stroke="blue" points="220.60052201772336,267.5257456920618 186.6606708265375,309.0950816249141 "/><polyline class="polyline" opacity="0.5" stroke="blue" points="221.5836082363852,267.2604730274177 188.4296759745287,309.18870144139294 "/><polyline class="polyline" opacity="0.5" stroke="blue" points="222.55274254446846,266.9662067369904 190.2000685037763,309.23059090166737 "/><polyline class="polyline" opacity="0.5" stroke="blue" points="223.507563091694,266.64327359546525 191.9705715420204,309.22051270792207 "/><polyline class="polyline" opacity="0.5" stroke="blue" points="224.4477200844333,266.29201110647324 193.7399169907707,309.1582791654884 "/><polyline class="polyline" opacity="0.5" stroke="blue" points="225.3728757496239,265.9127670151743 195.5068471619703,309.04375169841 "/><polyline class="polyline" opacity="0.5" stroke="blue" points="226.28270428583815,265.50589882597933 197.2701163562728,308.87684027246735 "/><polyline class="polyline" opacity="0.5" stroke="blue" points="227.1768918021101,265.0717733260699 199.02849237974556,308.6575027299166 "/><polyline class="polyline" opacity="0.5" stroke="blue" points="228.05513624512545,264.6107661153381 200.7807579961496,308.3857440404275 "/><polyline class="polyline" opacity="0.5" stroke="blue" points="228.91714731538303,264.1232611433226 202.52571231229592,308.0616154729015 "/><polyline class="polyline" opacity="0.5" stroke="blue" points="229.76264637293383,263.60965025368046 204.26217209431974,307.6852136930214 "/><polyline class="polyline" opacity="0.5" stroke="blue" points="230.5913663332996,263.0703327366922 205.98897301305763,307.256679791518 "/><polyline class="polyline" opacity="0.5" stroke="blue" points="231.40305155417263,262.5057148902582 207.7049708170575,306.77619824825035 "/><polyline class="polyline" opacity="0.5" stroke="blue" points="232.1974577134889,261.9162095898058 209.40904243208107,306.24399583726967 "/><polyline class="polyline" opacity="0.5" stroke="blue" points="232.97435167946202,261.3022358674881 211.10008698629042,305.6603404780916 "/><polyline class="polyline" opacity="0.5" stroke="blue" points="233.73351137315666,260.66421850101887 212.7770267606248,305.02554003842084 "/><polyline class="polyline" opacity="0.5" stroke="blue" points="234.47472562417056,260.0025876124504 214.4388080641879,304.3399410935659 "/><polyline class="polyline" opacity="0.5" stroke="blue" points="235.1977940199848,259.3177782771666 216.0844020347554,303.6039276477566 "/><polyline class="polyline" opacity="0.5" stroke="blue" points="235.9025267495294,258.6102301433301 217.71280536480282,302.81791982251923 "/><polyline class="polyline" opacity="0.5" stroke="blue" points="236.58874444149964,257.8803870619871 219.32304095371464,301.98237251719024 "/><polyline class="polyline" opacity="0.5" stroke="blue" points="237.2562779979468,257.12869672800343 220.91415848709894,301.097774046552 "/><polyline class="polyline" opacity="0.5" stroke="blue" points="237.90496842365107,256.35561033197405 222.4852349443613,300.16464476045815 "/><polyline class="polyline" opacity="0.5" stroke="blue" points="238.53466665177277,255.5615822232185 224.03537503591966,299.1835356501826 "/><polyline class="polyline" opacity="0.5" stroke="blue" points="239.14523336626036,254.74706958394654 225.56371157164074,298.1550269460771 "/><polyline class="polyline" opacity="0.5" stroke="blue" points="239.73653882148238,253.91253211465164 227.06940576227333,297.079726710958 "/><polyline class="polyline" opacity="0.5" stroke="blue" points="240.30846265953107,253.05843173076303 228.55164745581754,295.95826943346793 "/><polyline class="polyline" opacity="0.5" stroke="blue" points="240.86089372563254,252.18523227056596 230.00965531092416,294.791314625472 "/><polyline class="polyline" opacity="0.5" stroke="blue" points="241.39372988208086,251.29339921437105 231.44267690955644,293.5795454273502 "/><polyline class="polyline" opacity="0.5" stroke="blue" points="241.90687782109808,250.3833994148975 232.8499888112619,292.3236672248489 "/><polyline class="polyline" opacity="0.5" stroke="blue" points="242.40025287700558,249.45570083881023 234.23089655150557,291.0244062809413 "/><polyline class="polyline" opacity="0.5" stroke="blue" points="242.8737788380758,248.51077231933456 235.58473458660012,289.6825083859378 "/><polyline class="polyline" opacity="0.5" stroke="blue" points="243.32738775841796,247.54908331985095 236.91086618784206,288.2987375288687 "/><polyline class="polyline" opacity="0.5" stroke="blue" points="243.76101977023401,246.5711037083582 238.2086832875132,286.87387459294524 "/><polyline class="polyline" opacity="0.5" stroke="blue" points="244.17462289676646,245.57730354267568 239.47760627945078,285.40871607768986 "/><polyline class="polyline" opacity="0.5" stroke="blue" points="244.56815286624206,244.56815286624206 240.71708377691266,283.9040728501063 "/><polyline class="polyline" opacity="0.5" stroke="blue" points="244.94157292710165,243.5441215143531 241.92659233048164,282.36076892704995 "/><polyline class="polyline" opacity="0.5" stroke="blue" points="245.29485366478949,242.50567893066966 243.10563610874928,280.77964029074565 "/><polyline class="polyline" opacity="0.5" stroke="blue" points="245.6279728203606,241.4532939938148 244.25374654451286,279.1615337391936 "/><polyline class="polyline" opacity="0.5" stroke="blue" points="245.94091511115022,240.3874348538707 245.37048194919518,277.5073057730042 "/><polyline class="polyline" opacity="0.5" stroke="blue" points="246.23367205373415,239.3085687785724 246.45542709816823,275.8178215200033 "/><polyline class="polyline" opacity="0.5" stroke="blue" points="246.50624178939526,238.21716200899155 247.50819278962035,274.09395369876006 "/><polyline class="polyline" opacity="0.5" stroke="blue" points="246.75862891229644,237.11367962449336 248.52841537955754,272.3365816220121 "/><polyline class="polyline" opacity="0.5" stroke="blue" points="246.99084430054836,235.9985854167428 249.5157562954761,270.54659024077563 "/><polyline class="polyline" opacity="0.5" stroke="blue" points="247.20290495034516,234.87234177253202 250.46990153118006,268.7248692297738 "/><polyline class="polyline" opacity="0.5" stroke="blue" points="247.39483381333068,233.73540956519332 251.39056112514902,266.87231211464353 "/><polyline class="polyline" opacity="0.5" stroke="blue" points="247.56665963734352,232.58824805436137 252.27746862478892,264.98981544124206 "/><polyline class="polyline" opacity="0.5" stroke="blue" points="247.7184168106785,231.4313147938393 253.13038053882275,263.0782779872197 "/><polyline class="polyline" opacity="0.5" stroke="blue" points="247.85014520998996,230.26506554732583 253.9490757799946,261.13860001589853 "/><polyline class="polyline" opacity="0.5" stroke="blue" points="247.9618900519519,229.08995421175314 254.73335510017887,259.17168257236733 "/><polyline class="polyline" opacity="0.5" stroke="blue" points="248.0537017487781,227.9064327479883 255.4830405199001,257.1784268215875 "/><polyline class="polyline" opacity="0.5" stroke="blue" points="248.12563576769634,226.71495111864388 256.1979747541798,255.159733428191 "/><polyline class="polyline" opacity="0.5" stroke="blue" points="248.1777524944598,225.51595723274826 256.8780206365405,253.1165019775581 "/><polyline class="polyline" opacity="0.5" stroke="blue" points="248.21011710097122,224.30989689702105 257.52306054290574,251.04963043766236 "/><polyline class="polyline" opacity="0.5" stroke="blue" points="248.22279941708268,223.09721377350294 258.13299581704547,248.96001466109277 "/><polyline class="polyline" opacity="0.5" stroke="blue" points="248.21587380663027,221.87834934328603 258.70774619912885,246.84854792658012 "/><polyline class="polyline" opacity="0.5" stroke="blue" points="248.18941904774968,220.65374287609365 259.2472492588564,244.7161205192889 "/><polyline class="polyline" opacity="0.5" stroke="blue" points="248.14351821751455,219.42383140546036 259.75145983455644,242.5636193490753 "/><polyline class="polyline" opacity="0.5" stroke="blue" points="248.0782585809298,218.1890497092616 260.2203494795461,240.3919276058519 "/><polyline class="polyline" opacity="0.5" stroke="blue" points="247.9937314843058,216.94983029534598 260.65390591697127,238.2019244511557 "/><polyline class="polyline" opacity="0.5" stroke="blue" points="247.8900322530331,215.70660339202462 261.0521325042597,235.99448474497126 "/><polyline class="polyline" opacity="0.5" stroke="blue" points="247.76726009376924,214.45979694317487 261.4150477082396,233.77047880682795 "/><polyline class="polyline" opacity="0.5" stroke="blue" points="247.625518001045,213.2098366077151 261.74268459189983,231.53077221015272 "/><polyline class="polyline" opacity="0.5" stroke="blue" points="247.46491266829014,211.95714576321333 262.03509031369293,229.27622560884294 "/><polyline class="polyline" opacity="0.5" stroke="blue" points="247.28555440327477,210.70214551339205 262.29232564020845,227.0076945949951 "/><polyline class="polyline" opacity="0.5" stroke="blue" points="247.08755704795533,209.44525469929653 262.51446447297656,224.72602958671737 "/><polyline class="polyline" opacity="0.5" stroke="blue" points="246.87103790271124,208.1868899138945 262.7015933900931,222.43207574493266 "/><polyline class="polyline" opacity="0.5" stroke="blue" points="246.6361176549521,206.92746551987835 262.853811203296,220.1266729180779 "/><polyline class="polyline" opacity="0.5" stroke="blue" points="246.3829203120722,205.66739367044676 262.9712285310592,217.8106556135999 "/><polyline class="polyline" opacity="0.5" stroke="blue" points="246.11157313872363,204.40708433283947 263.0539673882153,215.48485299514084 "/><polyline class="polyline" opacity="0.5" stroke="blue" points="245.82220659837685,203.14694531440853 263.1021607925613,213.15008890431508 "/><polyline class="polyline" opacity="0.5" stroke="blue" points="245.51495429913228,201.88738229100653 263.11595238885025,210.80718190597668 "/><polyline class="polyline" opacity="0.5" stroke="blue" points="245.18995294374443,200.62879883748 263.09549609052317,208.45694535588868 "/><polyline class="polyline" opacity="0.5" stroke="blue" points="244.84734228381583,199.3715964600545 263.04095573948905,206.10018748970595 "/><polyline class="polyline" opacity="0.5" stroke="blue" points="244.48726507811512,198.11617463040415 262.9525047842161,203.73771153219928 "/><polyline class="polyline" opacity="0.5" stroke="blue" points="244.10986705497038,196.8629308211991 262.83032597635815,201.3703158256546 "/><polyline class="polyline" opacity="0.5" stroke="blue" points="243.71529687868698,195.61226054292874 262.6746110861016,198.99879397639668 "/><polyline class="polyline" opacity="0.5" stroke="blue" points="243.30370611993507,194.36455738179876 262.485560636381,196.62393501839432 "/><polyline class="polyline" opacity="0.5" stroke="blue" points="242.87524923004963,193.12021303850503 262.2633836560801,194.24652359292165 "/><polyline class="polyline" opacity="0.5" stroke="blue" points="242.4300835191845,191.87961736768776 262.0082974523018,191.86734014326055 "/><polyline class="polyline" opacity="0.5" stroke="blue" points="241.9683691382581,190.64315841787453 261.72052740176355,189.48716112344584 "/><polyline class="polyline" opacity="0.5" stroke="blue" points="241.4902690646266,189.4112224717188 261.4003067613463,187.10675922006348 "/><polyline class="polyline" opacity="0.5" stroke="blue" points="240.99594909141808,188.18419408634605 261.0478764977996,184.72690358612888 "/><polyline class="polyline" opacity="0.5" stroke="blue" points="240.48557782045958,186.96245613362228 260.663485136584,182.34836008608613 "/><polyline class="polyline" opacity="0.5" stroke="blue" points="239.95932665872533,185.74638984015704 260.2473886298068,179.97189155097547 "/><polyline class="polyline" opacity="0.5" stroke="blue" points="239.4173698182336,184.53637482686054 259.7998502431911,177.5982580428338 "/><polyline class="polyline" opacity="0.5" stroke="blue" points="238.85988431931673,183.3327891478718 259.32114046199365,175.22821712739793 "/><polyline class="polyline" opacity="0.5" stroke="blue" points="238.28704999718752,182.13600932868005 258.8115369157743,172.862524154196 "/><polyline class="polyline" opacity="0.5" stroke="blue" points="237.69904951172143,180.9464104032591 258.2713243218989,170.50193254311188 "/><polyline class="polyline" opacity="0.5" stroke="blue" points="237.09606836037406,179.76436595003958 257.7007944476435,168.14719407652217 "/><polyline class="polyline" opacity="0.5" stroke="blue" points="236.47829489414937,178.59024812654263 257.1002460907515,165.79905919610522 "/><polyline class="polyline" opacity="0.5" stroke="blue" points="235.84592033653286,177.424427702502 256.4699850782804,163.45827730342972 "/><polyline class="polyline" opacity="0.5" stroke="blue" points="235.19913880530106,176.2672740913001 255.81032428356025,161.1255970634273 "/><polyline class="polyline" opacity="0.5" stroke="blue" points="234.53814733711715,175.11915537954695 255.1215836610729,158.8017667098592 "/><polyline class="polyline" opacity="0.5" stroke="blue" points="233.86314591481909,173.9804383546301 254.40409029904362,156.48753435188132 "/><polyline class="polyline" opacity="0.5" stroke="blue" points="233.1743374973054,172.85148853006666 253.65817848952736,154.18364828081445 "/><polyline class="polyline" opacity="0.5" stroke="blue" points="232.47192805192006,171.73267016848635 252.88418981575177,151.89085727621364 "/><polyline class="polyline" opacity="0.5" stroke="blue" points="231.75612658923592,170.62434630207727 252.0824732564687,149.60991091032983 "/><polyline class="polyline" opacity="0.5" stroke="blue" points="231.02714520013384,169.5268787503277 251.25338530704826,147.34155985004838 "/><polyline class="polyline" opacity="0.5" stroke="blue" points="230.28519909507096,168.4406281348943 250.3972901170335,145.0865561553714 "/><polyline class="polyline" opacity="0.5" stroke="blue" points="229.53050664542877,167.36595389143145 249.5145596438569,142.8456535735059 "/><polyline class="polyline" opacity="0.5" stroke="blue" points="228.76328942682966,166.3032142782143 248.60557382240225,140.61960782759968 "/><polyline class="polyline" opacity="0.5" stroke="blue" points="227.9837722643065,165.2527663813915 247.67072075007633,138.40917689915358 "/><polyline class="polyline" opacity="0.5" stroke="blue" points="227.19218327920652,164.21496611669963 246.7103968870328,136.21512130311453 "/><polyline class="polyline" opacity="0.5" stroke="blue" points="226.38875393770792,163.1901682274774 245.7250072711712,134.03820435464013 "/><polyline class="polyline" opacity="0.5" stroke="blue" points="225.57371910082398,162.17872627881317 244.71496574750856,131.8791924264954 "/><polyline class="polyline" opacity="0.5" stroke="blue" points="224.74731707576595,161.18099264766437 243.6806952114967,129.73885519602533 "/><polyline class="polyline" opacity="0.5" stroke="blue" points="223.90978966853135,160.19731850878384 242.62262786583062,127.61796588061158 "/><polyline class="polyline" opacity="0.5" stroke="blue" points="223.06138223758194,159.22805381629252 241.5412054902651,125.51730146050208 "/><polyline class="polyline" opacity="0.5" stroke="blue" points="222.20234374846976,158.27354728073553 240.4368797239232,123.43764288786569 "/><polyline class="polyline" opacity="0.5" stroke="blue" points="221.3329268292683,157.33414634146342 239.31011235955057,121.37977528089888 "/></svg>
