<?xml version="1.0" encoding="UTF-8"?>
<!DOCTYPE svg PUBLIC "-//W3C//DTD SVG 1.1//EN"
    "http://www.w3.org/Graphics/SVG/1.1/DTD/svg11.dtd"><svg width="400" height="400" stroke="black" fill="none" fill-opacity="0.75" font-style="italic" font-family="CMU Serif, sans-serif" xmlns="http://www.w3.org/2000/svg" xmlns:xlink="http://www.w3.org/1999/xlink" version="1.1"><filter id="blur"><feGaussianBlur stdDeviation="2"/></filter><rect width="100%" height="100%" fill="white" stroke="none" fill-opacity="1"/><polygon points="200.0,129.5467422262767 202.23719686089302,57.86835735214436 " opacity="0.5" stroke="blue"/><polygon points="200.0,129.33990191891715 204.5532076887895,56.257046893360695 " opacity="0.5" stroke="blue"/><polygon points="200.0,129.41573228984834 206.94871448920077,55.26278795861825 " opacity="0.5" stroke="blue"/><polygon points="200.0,129.78153184021085 209.4234119549236,54.92479673906624 " opacity="0.5" stroke="blue"/><polygon points="200.0,130.44349348003243 211.9758622525192,55.27986249532313 " opacity="0.5" stroke="blue"/><polygon points="200.0,131.40654904651842 214.60335318606684,56.36130398703028 " opacity="0.5" stroke="blue"/><polygon points="200.0,132.67421178756666 217.30176627497076,58.19782215112127 " opacity="0.5" stroke="blue"/><polygon points="200.0,134.24841983909977 220.06546244968558,60.812275029676755 " opacity="0.5" stroke="blue"/><polygon points="200.0,136.129384164032 222.88719400538685,64.22041191239498 " opacity="0.5" stroke="blue"/><polygon points="200.0,138.3154448129527 225.75805199627908,68.42961490229746 " opacity="0.5" stroke="blue"/><polygon points="200.0,140.80293968506493 228.66745822941547,73.43770663643838 " opacity="0.5" stroke="blue"/><polygon points="200.0,143.58609018428302 231.60321026423833,79.23189145062773 " opacity="0.5" stroke="blue"/><polygon points="200.0,146.65690825155926 234.5515862184383,85.7879024729855 " opacity="0.5" stroke="blue"/><polygon points="200.0,150.0051291845175 237.49751366760185,93.06942757804362 " opacity="0.5" stroke="blue"/><polygon points="200.0,153.6181744077996 240.4248035503012,101.02788166379104 " opacity="0.5" stroke="blue"/><polygon points="200.0,157.48114791742452 243.31644591761938,109.6025806228228 " opacity="0.5" stroke="blue"/><polygon points="200.0,161.5768694842773 246.15495988947708,118.72135365079029 " opacity="0.5" stroke="blue"/><polygon points="200.0,165.88594687094874 248.9227857037993,128.30160601099035 " opacity="0.5" stroke="blue"/><polygon points="200.0,170.3868883103213 251.60270274425028,138.25181579490027 " opacity="0.5" stroke="blue"/><polygon points="200.0,175.05625534419775 254.17825439368664,148.47341811738787 " opacity="0.5" stroke="blue"/><polygon points="200.0,179.8688548689578 256.63415890504064,158.86300160971848 " opacity="0.5" stroke="blue"/><polygon points="200.0,184.79796793643902 258.9566854927348,169.31471817428013 " opacity="0.5" stroke="blue"/><polygon points="200.0,189.81561157359596 261.1339766151432,179.72279051828968 " opacity="0.5" stroke="blue"/><polygon points="200.0,194.8928286796882 263.1563008105157,189.98399494018142 " opacity="0.5" stroke="blue"/><polygon points="200.0,200.0 265.01622512488245,200.0 " opacity="0.5" stroke="blue"/><polygon points="200.0,205.1071713203118 266.7087016311451,209.67945457977063 " opacity="0.5" stroke="blue"/><polygon points="200.0,210.18438842640404 268.23106820194636,218.93973976065251 " opacity="0.5" stroke="blue"/><polygon points="200.0,215.202032063561 269.5829689894187,227.70832535020622 " opacity="0.5" stroke="blue"/><polygon points="200.0,220.13114513104222 270.76620449539166,235.92370076453133 " opacity="0.5" stroke="blue"/><polygon points="200.0,224.94374465580228 271.78452434744116,243.53587829320793 " opacity="0.5" stroke="blue"/><polygon points="200.0,229.6131116896787 272.6433777683751,250.5064919579463 " opacity="0.5" stroke="blue"/><polygon points="200.0,234.11405312905129 273.34963725305886,256.80853533770824 " opacity="0.5" stroke="blue"/><polygon points="200.0,238.42313051572273 273.91131030558904,262.4257958372167 " opacity="0.5" stroke="blue"/><polygon points="200.0,242.51885208257548 274.33725249919684,267.35205071155815 " opacity="0.5" stroke="blue"/><polygon points="200.0,246.38182559220047 274.6368929057565,271.5900922061455 " opacity="0.5" stroke="blue"/><polygon points="200.0,249.9948708154825 274.81998040664143,275.15064639269406 " opacity="0.5" stroke="blue"/><polygon points="200.0,253.34309174844074 274.8963568116265,278.05124390305167 " opacity="0.5" stroke="blue"/><polygon points="200.0,256.413909815717 274.87576028965833,280.31509206687554 " opacity="0.5" stroke="blue"/><polygon points="200.0,259.19706031493513 274.7676605002714,281.96998813089226 " opacity="0.5" stroke="blue"/><polygon points="200.0,261.6845551870473 274.5811250886294,283.04730326241787 " opacity="0.5" stroke="blue"/><polygon points="200.0,263.870615835968 274.3247158970773,283.5810576573833 " opacity="0.5" stroke="blue"/><polygon points="200.0,265.75158016090023 274.00641233634144,283.6070987728701 " opacity="0.5" stroke="blue"/><polygon points="200.0,267.32578821243334 273.63355880668985,283.1623877518798 " opacity="0.5" stroke="blue"/><polygon points="200.0,268.5934509534816 273.2128328045784,282.2843935883084 " opacity="0.5" stroke="blue"/><polygon points="200.0,269.55650651996757 272.75023032928175,281.01059044449767 " opacity="0.5" stroke="blue"/><polygon points="200.0,270.21846815978915 272.25106535443007,279.37805064695823 " opacity="0.5" stroke="blue"/><polygon points="200.0,270.58426771015166 271.7199803955291,277.42312406487997 " opacity="0.5" stroke="blue"/><polygon points="200.0,270.6600980810829 271.16096553974825,275.18119362060685 " opacity="0.5" stroke="blue"/><polygon points="200.0,270.4532577737233 270.57738367159715,272.6864963954359 " opacity="0.5" stroke="blue"/><polygon points="200.0,269.972 269.972,269.972 " opacity="0.5" stroke="blue"/><polygon points="200.0,269.22538850633265 269.347014349405,267.0693244235289 " opacity="0.5" stroke="blue"/><polygon points="200.0,268.2231617550332 268.7040950074744,264.0087003358317 " opacity="0.5" stroke="blue"/><polygon points="200.0,266.9756066960834 268.04441321749005,260.818955692677 " opacity="0.5" stroke="blue"/><polygon points="200.0,265.4934429782894 267.3686776617891,257.5275234170427 " opacity="0.5" stroke="blue"/><polygon points="200.0,263.78771810830347 266.6771685029923,254.16046384458036 " opacity="0.5" stroke="blue"/><polygon points="200.0,261.8697137716065 265.96977073399256,250.74249649836102 " opacity="0.5" stroke="blue"/><polygon points="200.0,259.7508632817609 265.24600673813757,247.29703657627724 " opacity="0.5" stroke="blue"/><polygon points="200.0,257.44267992167687 264.5050680807362,243.84623228575066 " opacity="0.5" stroke="blue"/><polygon points="200.0,254.95669578045243 263.74584664494034,240.41099984376956 " opacity="0.5" stroke="blue"/><polygon points="200.0,252.3044105677809 262.96696529201154,237.01105358025637 " opacity="0.5" stroke="blue"/><polygon points="200.0,249.49724980058113 262.1668082703899,233.66492914722247 " opacity="0.5" stroke="blue"/><polygon points="200.0,246.54653169877315 261.34355162186085,230.38999835480803 " opacity="0.5" stroke="blue"/><polygon points="200.0,243.46344209433025 260.49519383804824,227.2024746383573 " opacity="0.5" stroke="blue"/><polygon points="200.0,240.2590166453979 259.619587007693,224.1174086178793 " opacity="0.5" stroke="blue"/><polygon points="200.0,236.94412965118136 258.71446866570244,221.14867365098033 " opacity="0.5" stroke="blue"/><polygon points="200.0,233.5294887796458 257.7774945096584,218.30894170897471 " opacity="0.5" stroke="blue"/><polygon points="200.0,230.02563504544202 256.80627208928524,215.60965032709845 " opacity="0.5" stroke="blue"/><polygon points="200.0,226.44294740689415 255.7983955004564,213.06096179420345 " opacity="0.5" stroke="blue"/><polygon points="200.0,222.79165138581874 254.75148102919772,210.67171615220823 " opacity="0.5" stroke="blue"/><polygon points="200.0,219.08183115024414 253.66320359491579,208.44937996455062 " opacity="0.5" stroke="blue"/><polygon points="200.0,215.32344453597457 252.53133373851864,206.39999317599495 " opacity="0.5" stroke="blue"/><polygon points="200.0,211.5263405169608 251.35377479374034,204.52811671016923 " opacity="0.5" stroke="blue"/><polygon points="200.0,207.7002786654166 250.12859977317447,202.83678372019375 " opacity="0.5" stroke="blue"/><polygon points="200.0,203.85495016965467 248.85408739935167,201.32745760390583 " opacity="0.5" stroke="blue"/><polygon points="200.0,200.0 247.52875662136069,200.0 " opacity="0.5" stroke="blue"/><polygon points="200.0,196.14504983034533 246.15139888505485,198.852651977221 " opacity="0.5" stroke="blue"/><polygon points="200.0,192.2997213345834 244.72110737590185,197.88203150039968 " opacity="0.5" stroke="blue"/><polygon points="200.0,188.47365948303923 243.2373024336914,197.08314999376307 " opacity="0.5" stroke="blue"/><polygon points="200.0,184.67655546402545 241.69975235241424,196.44945041880544 " opacity="0.5" stroke="blue"/><polygon points="200.0,180.9181688497559 240.10858883009195,195.97286874391537 " opacity="0.5" stroke="blue"/><polygon points="200.0,177.2083486141813 238.46431642371863,195.64392001745023 " opacity="0.5" stroke="blue"/><polygon points="200.0,173.5570525931059 236.76781549311488,195.4518094857464 " opacity="0.5" stroke="blue"/><polygon points="200.0,169.97436495455798 235.02033828122535,195.38456835221908 " opacity="0.5" stroke="blue"/><polygon points="200.0,166.47051122035424 233.22349797153754,195.42921289051296 " opacity="0.5" stroke="blue"/><polygon points="200.0,163.05587034881867 231.37925077781006,195.57192474653908 " opacity="0.5" stroke="blue"/><polygon points="200.0,159.74098335460206 229.4898713471747,195.79824943701456 " opacity="0.5" stroke="blue"/><polygon points="200.0,156.53655790566975 227.55792198357534,196.09330932123603 " opacity="0.5" stroke="blue"/><polygon points="200.0,153.45346830122685 225.58621641253592,196.44202672978636 " opacity="0.5" stroke="blue"/><polygon points="200.0,150.5027501994188 223.57777899884877,196.8293525129113 " opacity="0.5" stroke="blue"/><polygon points="200.0,147.69558943221907 221.53580048560758,197.24049504643492 " opacity="0.5" stroke="blue"/><polygon points="200.0,145.04330421954757 219.46359143778042,197.66114471609004 " opacity="0.5" stroke="blue"/><polygon points="200.0,142.55732007832313 217.364534640607,198.0776890905528 " opacity="0.5" stroke="blue"/><polygon points="200.0,140.24913671823907 215.24203771996412,198.47741437473672 " opacity="0.5" stroke="blue"/><polygon points="200.0,138.13028622839352 213.09948721914157,198.84868928171196 " opacity="0.5" stroke="blue"/><polygon points="200.0,136.21228189169653 210.94020528789588,199.18112813820497 " opacity="0.5" stroke="blue"/><polygon points="200.0,134.50655702171062 208.76741002152926,199.46573080280174 " opacity="0.5" stroke="blue"/><polygon points="200.0,133.0243933039166 206.5841803383883,199.69499778249678 " opacity="0.5" stroke="blue"/><polygon points="200.0,131.7768382449668 204.39342611315325,199.86301973725597 " opacity="0.5" stroke="blue"/><polygon points="200.0,130.77461149366735 202.19786410061366,199.96554132244606 " opacity="0.5" stroke="blue"/><polygon points="200.0,130.028 200.0,200.0 " opacity="0.5" stroke="blue"/><polygon points="200.0,129.5467422262767 197.80211683210138,199.96554102350427 " opacity="0.5" stroke="blue"/><polygon points="200.0,129.33990191891715 195.6062696376086,199.8630102512331 " opacity="0.5" stroke="blue"/><polygon points="200.0,129.41573228984834 193.41428636082807,199.694926754652 " opacity="0.5" stroke="blue"/><polygon points="200.0,129.78153184021085 191.22777466161318,199.46543736660274 " opacity="0.5" stroke="blue"/><polygon points="200.0,130.44349348003243 189.0481343016018,199.1802553591477 " opacity="0.5" stroke="blue"/><polygon points="200.0,131.40654904651842 186.87657467838835,198.84658536775805 " opacity="0.5" stroke="blue"/><polygon points="200.0,132.67421178756666 184.71413703130852,198.47303650250194 " opacity="0.5" stroke="blue"/><polygon points="200.0,134.24841983909977 182.56172081205406,198.06952532741167 " opacity="0.5" stroke="blue"/><polygon points="200.0,136.129384164032 180.42011369846162,197.64717006719437 " opacity="0.5" stroke="blue"/><polygon points="200.0,138.3154448129527 178.2900247260673,197.21817703733697 " opacity="0.5" stroke="blue"/><polygon points="200.0,140.80293968506493 176.17212001469684,196.79571991060985 " opacity="0.5" stroke="blue"/><polygon points="200.0,143.58609018428302 174.06706057181427,196.39381205036835 " opacity="0.5" stroke="blue"/><polygon points="200.0,146.6569082515593 171.97554165621042,196.0271717782515 " opacity="0.5" stroke="blue"/><polygon points="200.0,150.0051291845175 169.89833318100952,195.71108011918776 " opacity="0.5" stroke="blue"/><polygon points="200.0,153.61817440779956 167.83632062068818,195.46123029742643 " opacity="0.5" stroke="blue"/><polygon points="200.0,157.48114791742455 165.79054586047357,195.29356806024785 " opacity="0.5" stroke="blue"/><polygon points="200.0,161.57686948427727 163.76224738670678,195.2241217970897 " opacity="0.5" stroke="blue"/><polygon points="200.0,165.88594687094874 161.752899163259,195.26882141649287 " opacity="0.5" stroke="blue"/><polygon points="200.0,170.3868883103213 159.76424747287888,195.44330505616006 " opacity="0.5" stroke="blue"/><polygon points="200.0,175.05625534419772 157.79834492586608,195.7627129459105 " opacity="0.5" stroke="blue"/><polygon points="200.0,179.8688548689578 155.8575807557164,196.24146813064633 " opacity="0.5" stroke="blue"/><polygon points="200.0,184.797967936439 153.94470643805045,196.89304429850972 " opacity="0.5" stroke="blue"/><polygon points="200.0,189.815611573596 152.06285559262093,197.72972165107143 " opacity="0.5" stroke="blue"/><polygon points="200.0,194.8928286796882 150.21555706758392,198.76233259351628 " opacity="0.5" stroke="blue"/><polygon points="200.0,200.0 148.40674007106168,200.0 " opacity="0.5" stroke="blue"/><polygon points="200.0,205.1071713203118 146.64073021899353,201.44987189773192 " opacity="0.5" stroke="blue"/><polygon points="200.0,210.18438842640404 144.92223542249928,203.11685757442058 " opacity="0.5" stroke="blue"/><polygon points="200.0,215.20203206356103 143.25632065424603,205.0033712940088 " opacity="0.5" stroke="blue"/><polygon points="200.0,220.1311451310422 141.64837082185824,207.10909093622467 " opacity="0.5" stroke="blue"/><polygon points="200.0,224.94374465580225 140.10404124463963,209.4307398731789 " opacity="0.5" stroke="blue"/><polygon points="200.0,229.61311168967865 138.629195580807,211.96190116656484 " opacity="0.5" stroke="blue"/><polygon points="200.0,234.11405312905134 137.22983148323078,214.6928736115097 " opacity="0.5" stroke="blue"/><polygon points="200.0,238.4231305157228 135.91199476232174,217.61057916895248 " opacity="0.5" stroke="blue"/><polygon points="200.0,242.51885208257548 134.68168338709705,220.6985308300982 " opacity="0.5" stroke="blue"/><polygon points="200.0,246.3818255922004 133.54474323321608,223.93686887902965 " opacity="0.5" stroke="blue"/><polygon points="200.0,249.99487081548244 132.50675805586684,227.30247183198384 " opacity="0.5" stroke="blue"/><polygon points="200.0,253.34309174844077 131.57293668589003,230.76914604757636 " opacity="0.5" stroke="blue"/><polygon points="200.0,256.413909815717 130.74800087642103,234.3078951868632 " opacity="0.5" stroke="blue"/><polygon points="200.0,259.19706031493513 130.03607752227094,237.8872674760812 " opacity="0.5" stroke="blue"/><polygon points="200.0,261.6845551870473 129.44059909799057,241.47377526079333 " opacity="0.5" stroke="blue"/><polygon points="200.0,263.870615835968 128.9642160854363,245.0323778529864 " opacity="0.5" stroke="blue"/><polygon points="200.0,265.7515801609003 128.6087248737968,248.52701540352695 " opacity="0.5" stroke="blue"/><polygon points="200.0,267.32578821243334 128.37501411727135,251.92117872695204 " opacity="0.5" stroke="blue"/><polygon points="200.0,268.5934509534816 128.2630318487815,255.17849788949746 " opacity="0.5" stroke="blue"/><polygon points="200.0,269.55650651996757 128.2717748104135,258.2633311257387 " opacity="0.5" stroke="blue"/><polygon points="200.0,270.21846815978915 128.39930052536147,261.1413353900543 " opacity="0.5" stroke="blue"/><polygon points="200.0,270.58426771015166 128.642761664308,263.7800006125225 " opacity="0.5" stroke="blue"/><polygon points="200.0,270.6600980810829 128.99846131749126,266.14913146614106 " opacity="0.5" stroke="blue"/><polygon points="200.0,270.4532577737233 129.4619269353717,268.2212630344155 " opacity="0.5" stroke="blue"/><polygon points="200.0,269.972 130.028,269.972 " opacity="0.5" stroke="blue"/><polygon points="200.0,269.2253885063327 130.69093797611478,271.3802726155401 " opacity="0.5" stroke="blue"/><polygon points="200.0,268.2231617550332 131.44452478869397,272.42850650663263 " opacity="0.5" stroke="blue"/><polygon points="200.0,266.9756066960834 132.28218598698314,273.1027070394892 " opacity="0.5" stroke="blue"/><polygon points="200.0,265.4934429782894 133.19710487160336,273.3924623374453 " opacity="0.5" stroke="blue"/><polygon points="200.0,263.78771810830347 134.18233615449782,273.2908718730958 " opacity="0.5" stroke="blue"/><polygon points="200.0,261.86971377160654 135.23091415419992,272.794409776717 " opacity="0.5" stroke="blue"/><polygon points="200.0,259.7508632817609 136.33595305840552,271.902733528204 " opacity="0.5" stroke="blue"/><polygon points="200.0,257.44267992167687 137.49073736812318,270.6184495382737 " opacity="0.5" stroke="blue"/><polygon points="200.0,254.95669578045243 138.68880123146778,268.9468473234688 " opacity="0.5" stroke="blue"/><polygon points="200.0,252.30441056778093 139.92399594488506,266.8956136238286 " opacity="0.5" stroke="blue"/><polygon points="200.0,249.49724980058122 141.19054541729133,264.474537010709 " opacity="0.5" stroke="blue"/><polygon points="200.0,246.54653169877315 142.48308983874472,261.6952124042934 " opacity="0.5" stroke="blue"/><polygon points="200.0,243.46344209433025 143.79671815857944,258.57075358404745 " opacity="0.5" stroke="blue"/><polygon points="200.0,240.25901664539794 145.1269902546272,255.11552033915422 " opacity="0.5" stroke="blue"/><polygon points="200.0,236.94412965118136 146.46994986751014,251.3448654624927 " opacity="0.5" stroke="blue"/><polygon points="200.0,233.5294887796457 147.82212948891433,247.27490541464016 " opacity="0.5" stroke="blue"/><polygon points="200.0,230.025635045442 149.1805484401488,242.92231722747172 " opacity="0.5" stroke="blue"/><polygon points="200.0,226.4429474068941 150.54270536870965,238.3041631150253 " opacity="0.5" stroke="blue"/><polygon points="200.0,222.79165138581877 151.90656633796874,233.43774333052656 " opacity="0.5" stroke="blue"/><polygon points="200.0,219.08183115024417 153.27054960000487,228.34047705708878 " opacity="0.5" stroke="blue"/><polygon points="200.0,215.3234445359745 154.63350803439124,223.02981053922662 " opacity="0.5" stroke="blue"/><polygon points="200.0,211.52634051696074 155.99471011536366,217.52315123890523 " opacity="0.5" stroke="blue"/><polygon points="200.0,207.70027866541656 157.35382014348002,211.8378265144239 " opacity="0.5" stroke="blue"/><polygon points="200.0,203.8549501696547 158.71087835122438,205.99106515140681 " opacity="0.5" stroke="blue"/><polygon points="200.0,200.0 160.0662813690254,200.0 " opacity="0.5" stroke="blue"/><polygon points="200.0,196.14504983034524 161.42076342145367,193.88168996892347 " opacity="0.5" stroke="blue"/><polygon points="200.0,192.29972133458338 162.77537851435235,187.65315967430644 " opacity="0.5" stroke="blue"/><polygon points="200.0,188.4736594830392 164.13148377277903,181.33145511990637 " opacity="0.5" stroke="blue"/><polygon points="200.0,184.67655546402545 165.4907239965576,174.93371387780883 " opacity="0.5" stroke="blue"/><polygon points="200.0,180.9181688497559 166.8550174140717,168.47724832916356 " opacity="0.5" stroke="blue"/><polygon points="200.0,177.20834861418118 168.22654253436443,161.97964059858123 " opacity="0.5" stroke="blue"/><polygon points="200.0,173.55705259310585 169.60772592111462,155.4588478603198 " opacity="0.5" stroke="blue"/><polygon points="200.0,169.97436495455796 171.00123063797906,148.9333166970129 " opacity="0.5" stroke="blue"/><polygon points="200.0,166.47051122035424 172.40994504148387,142.4221051406745 " opacity="0.5" stroke="blue"/><polygon points="200.0,163.05587034881867 173.83697152360878,135.94501090952855 " opacity="0.5" stroke="blue"/><polygon points="200.0,159.74098335460204 175.28561473017012,129.52270416150242 " opacity="0.5" stroke="blue"/><polygon points="200.0,156.5365579056697 176.7593687022,123.1768628047173 " opacity="0.5" stroke="blue"/><polygon points="200.0,153.45346830122682 178.2619023054075,116.93030802607672 " opacity="0.5" stroke="blue"/><polygon points="200.0,150.5027501994188 179.79704222788615,110.80713721099023 " opacity="0.5" stroke="blue"/><polygon points="200.0,147.6955894322191 181.36875273985692,104.83285082188495 " opacity="0.5" stroke="blue"/><polygon points="200.0,145.04330421954754 182.9811113239746,99.03446907490483 " opacity="0.5" stroke="blue"/><polygon points="200.0,142.55732007832307 184.6382792046785,93.44063340221645 " opacity="0.5" stroke="blue"/><polygon points="200.0,140.24913671823901 186.34446573620008,88.0816867178441 " opacity="0.5" stroke="blue"/><polygon points="200.0,138.13028622839352 188.10388555931718,82.98972543435701 " opacity="0.5" stroke="blue"/><polygon points="200.0,136.21228189169653 189.92070741748174,78.19861503625194 " opacity="0.5" stroke="blue"/><polygon points="200.0,134.50655702171062 191.79899354701047,73.74395985203044 " opacity="0.5" stroke="blue"/><polygon points="200.0,133.0243933039166 193.74262863993894,69.66301655214522 " opacity="0.5" stroke="blue"/><polygon points="200.0,131.7768382449668 195.75523754084085,65.99453993324249 " opacity="0.5" stroke="blue"/><polygon points="200.0,130.77461149366735 197.84009110134812,62.77854886111015 " opacity="0.5" stroke="blue"/><polygon points="200.0,130.028 200.0,60.05599999999998 " opacity="0.5" stroke="blue"/></svg>
