<?xml version="1.0" encoding="UTF-8"?>
<!DOCTYPE svg PUBLIC "-//W3C//DTD SVG 1.1//EN"
    "http://www.w3.org/Graphics/SVG/1.1/DTD/svg11.dtd"><svg width="400" height="400" stroke="black" fill="none" fill-opacity="0.75" font-size="14" font-style="italic" font-family="sans-serif" xmlns="http://www.w3.org/2000/svg" xmlns:xlink="http://www.w3.org/1999/xlink" version="1.1"><filter id="blur1"><feGaussianBlur stdDeviation="0.5"/></filter><rect width="100%" height="100%" fill="white" stroke="none" fill-opacity="1"/><rect class="bg" fill="black" width="100%" height="100%" stroke="none" fill-opacity="1"/><polyline class="polyline" opacity="0.5" stroke="blue" points="216.36762344130017,151.9645454481733 230.80898964762264,110.7600772754865 "/><polyline class="polyline" opacity="0.5" stroke="blue" points="215.53272917486004,151.0876717949336 229.77494916288305,108.79925001988363 "/><polyline class="polyline" opacity="0.5" stroke="blue" points="214.68932575102662,150.2282702254201 228.72221169996837,106.86442256116887 "/><polyline class="polyline" opacity="0.5" stroke="blue" points="213.83766319812395,149.386701266862 227.65124824245203,104.95648901557978 "/><polyline class="polyline" opacity="0.5" stroke="blue" points="212.97799588457798,148.56332421505704 226.56254299704852,103.07635164722156 "/><polyline class="polyline" opacity="0.5" stroke="blue" points="212.11058258214354,147.75849703646392 225.4565937925021,101.2249208639232 "/><polyline class="polyline" opacity="0.5" stroke="blue" points="211.2356865279858,146.97257626301138 224.3339124828029,99.40311517984404 "/><polyline class="polyline" opacity="0.5" stroke="blue" points="210.35357548540904,146.2059168794662 223.1950253536216,97.6118611428706 "/><polyline class="polyline" opacity="0.5" stroke="blue" points="209.4645218030189,145.45887220320512 222.04047353077584,95.85209322479353 "/><polyline class="polyline" opacity="0.5" stroke="blue" points="208.56880247209847,144.73179375624346 220.8708133894595,94.12475367220883 "/><polyline class="polyline" opacity="0.5" stroke="blue" points="207.66669918197144,144.0250311293763 219.6866169628804,92.43079231604025 "/><polyline class="polyline" opacity="0.5" stroke="blue" points="206.7584983731201,143.33893183829554 218.48847234886392,90.7711663375415 "/><polyline class="polyline" opacity="0.5" stroke="blue" points="205.8444912878187,142.67384117155325 217.27698411288708,89.14683998860014 "/><polyline class="polyline" opacity="0.5" stroke="blue" points="204.92497401803675,142.03010203024797 216.05277368591206,87.55878426413284 "/><polyline class="polyline" opacity="0.5" stroke="blue" points="204.00024755036068,141.40805475931953 214.81647975529063,86.0079765243388 "/><polyline class="polyline" opacity="0.5" stroke="blue" points="203.07061780767555,140.80803697034742 213.56875864690844,84.49540006455885 "/><polyline class="polyline" opacity="0.5" stroke="blue" points="202.13639568734328,140.2303833557556 212.31028469663556,83.0220436304775 "/><polyline class="polyline" opacity="0.5" stroke="blue" points="201.1978970956071,139.6754254943391 211.04175060904387,81.58890087640583 "/><polyline class="polyline" opacity="0.5" stroke="blue" points="200.2554429779465,139.14349164803727 209.76386780124403,80.19696976438742 "/><polyline class="polyline" opacity="0.5" stroke="blue" points="199.30935934510188,138.63490654989147 208.477366729587,78.84725190189417 "/><polyline class="polyline" opacity="0.5" stroke="blue" points="198.35997729448184,138.14999118313804 207.1829971968651,77.54075181590487 "/><polyline class="polyline" opacity="0.5" stroke="blue" points="197.40763302666207,137.68906255140053 205.88152863754038,76.2784761612075 "/><polyline class="polyline" opacity="0.5" stroke="blue" points="196.4526678566794,137.25243343995984 204.5737503784173,75.0614328608211 "/><polyline class="polyline" opacity="0.5" stroke="blue" points="195.49542821982072,136.84041216809834 203.26047187207146,73.89063017651061 "/><polyline class="polyline" opacity="0.5" stroke="blue" points="194.53626567160225,136.4533023325275 201.94252290024187,72.767075707456 "/><polyline class="polyline" opacity="0.5" stroke="blue" points="193.5755368816315,136.09140254192948 200.62075374429085,71.69177531524491 "/><polyline class="polyline" opacity="0.5" stroke="blue" points="192.61360362104114,135.75500614265957 199.2960353197412,70.66573197348745 "/><polyline class="polyline" opacity="0.5" stroke="blue" points="191.65083274318152,135.4444009356764 197.96925927180595,69.68994454049775 "/><polyline class="polyline" opacity="0.5" stroke="blue" points="190.68759615725722,135.15986888478852 196.64133802874272,68.76540645365588 "/><polyline class="polyline" opacity="0.5" stroke="blue" points="189.72427079459092,134.90168581632588 195.31320480978547,67.89310434425761 "/><polyline class="polyline" opacity="0.5" stroke="blue" points="188.76123856719903,134.67012111036934 193.9858135843393,67.07401657187023 "/><polyline class="polyline" opacity="0.5" stroke="blue" points="187.7988863183615,134.46543738369311 192.66013897906402,66.30911167745967 "/><polyline class="polyline" opacity="0.5" stroke="blue" points="186.83760576487182,134.28789016460127 191.33717612942786,65.59934675481253 "/><polyline class="polyline" opacity="0.5" stroke="blue" points="185.87779343065344,134.1377275598647 190.01794047227946,64.94566574007632 "/><polyline class="polyline" opacity="0.5" stroke="blue" points="184.9198505714318,134.01518991399072 188.7034674759669,64.34899761955546 "/><polyline class="polyline" opacity="0.5" stroke="blue" points="183.96418309015638,133.92050946108765 187.39481230453487,63.81025455625263 "/><polyline class="polyline" opacity="0.5" stroke="blue" points="183.0112014428699,133.8539099696114 186.0930494125457,63.330329936017876 "/><polyline class="polyline" opacity="0.5" stroke="blue" points="182.06132053472973,133.81560638031524 184.79927206710923,62.91009633457668 "/><polyline class="polyline" opacity="0.5" stroke="blue" points="181.11495960589195,133.80580443775003 183.51459179376587,62.550403407135946 "/><polyline class="polyline" opacity="0.5" stroke="blue" points="180.17254210697763,133.82470031569684 182.2401377429504,62.252075702735226 "/><polyline class="polyline" opacity="0.5" stroke="blue" points="179.23449556385006,133.872480236943 180.97705597387306,62.015910405993566 "/><polyline class="polyline" opacity="0.5" stroke="blue" points="178.30125143144272,133.94932008784752 179.72650865278962,61.84267500942303 "/><polyline class="polyline" opacity="0.5" stroke="blue" points="177.373244936388,134.0553850281736 178.48967316279789,61.733104920020224 "/><polyline class="polyline" opacity="0.5" stroke="blue" points="176.45091490821366,134.1908290967004 177.26774112249151,61.6879010044143 "/><polyline class="polyline" opacity="0.5" stroke="blue" points="175.53470359888416,134.35579481316083 176.06191731102928,61.707727077436914 "/><polyline class="polyline" opacity="0.5" stroke="blue" points="174.62505649048444,134.5504127770851 174.87341849743754,61.7932073395917 "/><polyline class="polyline" opacity="0.5" stroke="blue" points="173.72242209085817,134.77480126416742 173.7034721722561,61.94492376952434 "/><polyline class="polyline" opacity="0.5" stroke="blue" points="172.82725171703433,135.0290658208056 172.55331517996783,62.16341347823547 "/><polyline class="polyline" opacity="0.5" stroke="blue" points="171.9399992662939,135.3132988574999 171.42419225101403,62.44916603243021 "/><polyline class="polyline" opacity="0.5" stroke="blue" points="171.06112097475352,135.6275792418317 170.317354432601,62.802620755055614 "/><polyline class="polyline" opacity="0.5" stroke="blue" points="170.1910751633644,135.97197189177857 169.23405741793684,63.224164011738594 "/><polyline class="polyline" opacity="0.5" stroke="blue" points="169.33032197125198,136.34652737015404 168.1755597740108,63.714126492489044 "/><polyline class="polyline" opacity="0.5" stroke="blue" points="168.47932307634724,136.75128148099782 167.14312106853583,64.27278049868917 "/><polyline class="polyline" opacity="0.5" stroke="blue" points="167.63854140329013,137.18625486877173 166.13799989721585,64.90033724601614 "/><polyline class="polyline" opacity="0.5" stroke="blue" points="166.80844081861503,137.65145262125145 165.16145181307508,65.59694419456707 "/><polyline class="polyline" opacity="0.5" stroke="blue" points="165.98948581326033,138.14686387703435 164.2147271601913,66.36268241803566 "/><polyline class="polyline" opacity="0.5" stroke="blue" points="165.182141172476,138.6724614386129 163.29906881481145,67.19756402434717 "/><polyline class="polyline" opacity="0.5" stroke="blue" points="164.38687163323948,139.22820139199433 162.4157098374866,68.10152964066953 "/><polyline class="polyline" opacity="0.5" stroke="blue" points="163.60414152932327,139.8140227338708 161.56587104054609,69.07444597617888 "/><polyline class="polyline" opacity="0.5" stroke="blue" points="162.8344144241983,140.42984700737196 160.75075847593348,70.11610347636696 "/><polyline class="polyline" opacity="0.5" stroke="blue" points="162.07815273199222,141.0755779474545 159.97156084914025,71.22621408302004 "/><polyline class="polyline" opacity="0.5" stroke="blue" points="161.3358173267635,141.7511011370033 159.22944686569875,72.4044091142681 "/><polyline class="polyline" opacity="0.5" stroke="blue" points="160.60786714039222,142.4562836747388 158.52556251742354,73.65023727929601 "/><polyline class="polyline" opacity="0.5" stroke="blue" points="159.89475874943028,143.19097385603993 157.86102831631717,74.96316284241125 "/><polyline class="polyline" opacity="0.5" stroke="blue" points="159.19694595129587,143.95500086780598 157.23693648477217,76.34256395117593 "/><polyline class="polyline" opacity="0.5" stroke="blue" points="158.5148793302406,144.74817449849036 156.65434811140432,77.78773114321771 "/><polyline class="polyline" opacity="0.5" stroke="blue" points="157.8490058135623,145.57028486444682 156.1142902825319,79.2978660461404 "/><polyline class="polyline" opacity="0.5" stroke="blue" points="157.1997682185785,146.42110215373117 155.6177531999644,80.87208028464636 "/><polyline class="polyline" opacity="0.5" stroke="blue" points="156.5676047909238,147.30037638850254 155.1656872963775,82.50939460855781 "/><polyline class="polyline" opacity="0.5" stroke="blue" points="155.95294873477502,148.20783720716352 154.75900036011785,84.20873825487878 "/><polyline class="polyline" opacity="0.5" stroke="blue" points="155.3562277356558,149.14319366737158 154.39855468179414,85.96894855637368 "/><polyline class="polyline" opacity="0.5" stroke="blue" points="154.77786347651548,150.10613407104103 154.0851642354671,87.78877080834684 "/><polyline class="polyline" opacity="0.5" stroke="blue" points="154.21827114782036,151.09632581244023 153.819591907632,89.66685840438934 "/><polyline class="polyline" opacity="0.5" stroke="blue" points="153.67785895244032,152.11341525046598 153.60254678750056,91.60177325082492 "/><polyline class="polyline" opacity="0.5" stroke="blue" points="153.15702760615483,153.15702760615483 153.4346815323122,93.59198646842377 "/><polyline class="polyline" opacity="0.5" stroke="blue" points="152.65616983464434,154.2267668864584 153.31658982154528,95.63587938868056 "/><polyline class="polyline" opacity="0.5" stroke="blue" points="152.17566986787315,155.32221583527752 153.24880391393972,97.73174485056677 "/><polyline class="polyline" opacity="0.5" stroke="blue" points="151.71590293280755,156.44293591270954 153.23179232118542,99.87778880217455 "/><polyline class="polyline" opacity="0.5" stroke="blue" points="151.27723474545104,157.58846730342088 153.26595761197126,102.0721322100926 "/><polyline class="polyline" opacity="0.5" stroke="blue" points="150.86002100321156,158.7583289550056 153.35163435981914,104.31281327767886 "/><polyline class="polyline" opacity="0.5" stroke="blue" points="150.46460687864993,159.95201864714022 153.4890872477499,106.59778997165795 "/><polyline class="polyline" opacity="0.5" stroke="blue" points="150.091326515686,161.1690130922841 153.67850934233866,108.92494285467022 "/><polyline class="polyline" opacity="0.5" stroke="blue" points="149.74050252937016,162.40876806861365 153.92002054911944,111.29207821955237 "/><polyline class="polyline" opacity="0.5" stroke="blue" points="149.4124455103476,163.67071858581 154.21366626058722,113.6969315192553 "/><polyline class="polyline" opacity="0.5" stroke="blue" points="149.10745353516754,164.95427908424767 154.55941620723337,116.13717108441482 "/><polyline class="polyline" opacity="0.5" stroke="blue" points="148.8258116836065,166.25884366805664 154.95716352113243,118.61040211870824 "/><polyline class="polyline" opacity="0.5" stroke="blue" points="148.5677915641866,167.58378637244738 155.40672402058138,121.11417096026413 "/><polyline class="polyline" opacity="0.5" stroke="blue" points="148.3336508490844,168.92846146560623 155.90783572319245,123.6459695955725 "/><polyline class="polyline" opacity="0.5" stroke="blue" points="148.12363281962868,170.2922037853791 156.4601585936476,126.20324041057599 "/><polyline class="polyline" opacity="0.5" stroke="blue" points="147.93796592359053,171.67432911086937 157.06327453106692,128.78338116193657 "/><polyline class="polyline" opacity="0.5" stroke="blue" points="147.77686334546513,173.07413456898269 157.71668759961594,131.38375014987605 "/><polyline class="polyline" opacity="0.5" stroke="blue" points="147.6405225909404,174.49089907585156 158.41982450460296,134.0016715725096 "/><polyline class="polyline" opacity="0.5" stroke="blue" points="147.5291250867358,175.9238838129745 159.17203531490028,136.63444104023418 "/><polyline class="polyline" opacity="0.5" stroke="blue" points="147.44283579697944,177.3723327378014 159.972594431081,139.2793312275239 "/><polyline class="polyline" opacity="0.5" stroke="blue" points="147.38180285727208,178.8354731283921 160.82070179720478,141.9335976384271 "/><polyline class="polyline" opacity="0.5" stroke="blue" points="147.34615722756155,180.3125161616721 161.71548435273004,144.59448446117588 "/><polyline class="polyline" opacity="0.5" stroke="blue" points="147.3360123649224,181.80265752470106 162.65599771958443,147.25923048660786 "/><polyline class="polyline" opacity="0.5" stroke="blue" points="147.35146391730098,183.3050780582648 163.6412281180108,149.9250750645818 "/><polyline class="polyline" opacity="0.5" stroke="blue" points="147.39258943924753,184.81894443199494 164.67009450342852,152.58926407223984 "/><polyline class="polyline" opacity="0.5" stroke="blue" points="147.4594481306144,186.34340985011445 165.74145091523093,155.24905586784124 "/><polyline class="polyline" opacity="0.5" stroke="blue" points="147.55208059915034,187.87761478680312 166.85408902718356,157.90172720395935 "/><polyline class="polyline" opacity="0.5" stroke="blue" points="147.67050864786972,189.42068775007385 168.00674088791476,160.5445790741056 "/><polyline class="polyline" opacity="0.5" stroke="blue" points="147.81473508801915,190.9717460729499 169.19808183890325,163.17494246730442 "/><polyline class="polyline" opacity="0.5" stroke="blue" points="147.98474357840206,192.5298967306355 170.4267335963836,165.79018400580213 "/><polyline class="polyline" opacity="0.5" stroke="blue" points="148.1804984917593,194.09423718227592 171.69126748271188,168.38771144192722 "/><polyline class="polyline" opacity="0.5" stroke="blue" points="148.40194480883457,195.6638562358137 172.9902077919766,170.96497899113638 "/><polyline class="polyline" opacity="0.5" stroke="blue" points="148.64900804068182,197.2378349343585 174.3220352739975,173.51949247945223 "/><polyline class="polyline" opacity="0.5" stroke="blue" points="148.92159417969862,198.8152474624063 175.6851907203466,176.04881428482764 "/><polyline class="polyline" opacity="0.5" stroke="blue" points="149.21958967979003,200.39516207016675 177.07807863564193,178.55056805343008 "/><polyline class="polyline" opacity="0.5" stroke="blue" points="149.5428614659894,201.97664201418337 178.49907097711315,181.02244317342124 "/><polyline class="polyline" opacity="0.5" stroke="blue" points="149.89125697377912,203.5587465123673 179.94651094532128,183.46219899049007 "/><polyline class="polyline" opacity="0.5" stroke="blue" points="150.2646042182713,205.14053171150417 181.41871680892012,185.86766875116604 "/><polyline class="polyline" opacity="0.5" stroke="blue" points="150.66271189332224,206.7210516652404 182.91398574648898,188.23676326177286 "/><polyline class="polyline" opacity="0.5" stroke="blue" points="151.0853695005684,208.29935932050952 184.43059768871979,190.56747425276833 "/><polyline class="polyline" opacity="0.5" stroke="blue" points="151.5323475082847,209.87450751031983 185.96681914462243,192.85787744012606 "/><polyline class="polyline" opacity="0.5" stroke="blue" points="152.00339753987782,211.44554995079255 187.52090699589516,195.10613527734068 "/><polyline class="polyline" opacity="0.5" stroke="blue" points="152.49825259174105,213.0115422403174 189.09111224419587,197.31049939355447 "/><polyline class="polyline" opacity="0.5" stroke="blue" points="153.0166272801087,214.57154285867458 190.67568369673336,199.46931271519566 "/><polyline class="polyline" opacity="0.5" stroke="blue" points="153.55821811646484,216.12461416396576 192.27287157636292,201.58101127037284 "/><polyline class="polyline" opacity="0.5" stroke="blue" points="154.12270381097358,217.66982338519617 193.8809310432137,203.64412567706665 "/><polyline class="polyline" opacity="0.5" stroke="blue" points="154.70974560331882,219.20624360835774 195.49812561577812,205.65728231788648 "/><polyline class="polyline" opacity="0.5" stroke="blue" points="155.31898762025762,220.73295475388034 197.12273048035624,207.6192042058065 "/><polyline class="polyline" opacity="0.5" stroke="blue" points="155.95005725911597,222.2490445433419 198.75303567874735,209.52871154684618 "/><polyline class="polyline" opacity="0.5" stroke="blue" points="156.60256559637904,223.75360945335993 200.38734916511638,211.38472200710697 "/><polyline class="polyline" opacity="0.5" stroke="blue" points="157.27610782045653,225.24575565462843 202.02399972401932,213.18625069291664 "/><polyline class="polyline" opacity="0.5" stroke="blue" points="157.9702636876363,226.7245999341097 203.66133974263883,214.93240985404745 "/><polyline class="polyline" opacity="0.5" stroke="blue" points="158.6845980001732,228.1892705984471 205.29774783134982,216.62240832107153 "/><polyline class="polyline" opacity="0.5" stroke="blue" points="159.41866110540232,229.6389083567249 206.93163128779818,218.25555068888445 "/><polyline class="polyline" opacity="0.5" stroke="blue" points="160.17198941470738,231.07266718077182 208.5614284007182,219.83123625926936 "/><polyline class="polyline" opacity="0.5" stroke="blue" points="160.94410594112625,232.48971514127797 210.1856105907374,221.34895775608337 "/><polyline class="polyline" opacity="0.5" stroke="blue" points="161.73452085432783,233.88923521807652 211.8026843864045,222.8082998272325 "/><polyline class="polyline" opacity="0.5" stroke="blue" points="162.5427320516535,235.270426083028 213.4111932346267,224.20893734805895 "/><polyline class="polyline" opacity="0.5" stroke="blue" points="163.36822574388157,236.63250285403592 215.00971914560986,225.55063354109825 "/><polyline class="polyline" opacity="0.5" stroke="blue" points="164.21047705434046,237.97469781881853 216.59688417325003,226.833237927382 "/><polyline class="polyline" opacity="0.5" stroke="blue" points="165.06895062997285,239.29626112716295 218.1713517327301,228.0566841245653 "/><polyline class="polyline" opacity="0.5" stroke="blue" points="165.9431012629322,240.59646145048902 219.73182775782135,229.22098750715497 "/><polyline class="polyline" opacity="0.5" stroke="blue" points="166.83237452127923,241.87458660766026 221.27706170107794,230.3262427440122 "/><polyline class="polyline" opacity="0.5" stroke="blue" points="167.73620738733632,243.12994415608608 222.80584738073907,231.37262122810802 "/><polyline class="polyline" opacity="0.5" stroke="blue" points="168.65402890225505,244.3618619472721 224.3170236787179,232.3603684132271 "/><polyline class="polyline" opacity="0.5" stroke="blue" points="169.58526081535385,245.56968864608854 225.8094750945595,233.28980107196026 "/><polyline class="polyline" opacity="0.5" stroke="blue" points="170.52931823678944,246.75279421313928 227.28213216068997,234.1613044888955 "/><polyline class="polyline" opacity="0.5" stroke="blue" points="171.48561029213835,247.91057034972926 228.73397172465695,234.97532960243086 "/><polyline class="polyline" opacity="0.5" stroke="blue" points="172.4535407774818,249.0424309050422 230.1640171043826,235.73239010808916 "/><polyline class="polyline" opacity="0.5" stroke="blue" points="173.43250881360996,250.14781224525288 231.5713381227085,236.43305953562975 "/><polyline class="polyline" opacity="0.5" stroke="blue" points="174.421909497987,251.22617358441164 232.95505102771872,237.0779683116263 "/><polyline class="polyline" opacity="0.5" stroke="blue" points="175.42113455315058,252.27699727704876 234.3143183054773,237.66780081852747 "/><polyline class="polyline" opacity="0.5" stroke="blue" points="176.42957297025396,253.29978907255497 235.64834839191766,238.20329246053882 "/><polyline class="polyline" opacity="0.5" stroke="blue" points="177.44661164649824,254.2940783315008 236.9563952906753,238.6852267459742 "/><polyline class="polyline" opacity="0.5" stroke="blue" points="178.4716360152446,255.25941820415954 238.23775810366195,239.11443239501983 "/><polyline class="polyline" opacity="0.5" stroke="blue" points="179.50403066764306,256.19538577159994 239.4917804811507,239.4917804811507 "/><polyline class="polyline" opacity="0.5" stroke="blue" points="180.54317996466233,257.10158214980845 240.7178499980683,239.8181816137332 "/><polyline class="polyline" opacity="0.5" stroke="blue" points="181.58846863845872,257.97763255739585 241.91539746309036,240.0945831686513 "/><polyline class="polyline" opacity="0.5" stroke="blue" points="182.63928238207455,258.8231863475275 243.08389616699912,240.32196657310652 "/><polyline class="polyline" opacity="0.5" stroke="blue" points="183.69500842651414,259.6379170048033 244.2228610766025,240.50134465007068 "/><polyline class="polyline" opacity="0.5" stroke="blue" points="184.7550361043035,260.42152210788726 245.3318479803284,240.63375902721805 "/><polyline class="polyline" opacity="0.5" stroke="blue" points="185.81875739869926,261.17372325876556 246.41045259140196,240.72027761453103 "/><polyline class="polyline" opacity="0.5" stroke="blue" points="186.88556747777307,261.8942659795742 247.45830961428908,240.76199215416756 "/><polyline class="polyline" opacity="0.5" stroke="blue" points="187.95486521266068,262.5829195780056 248.4750917798545,240.76001584559683 "/><polyline class="polyline" opacity="0.5" stroke="blue" points="189.0260536793263,263.2394769823569 249.460508854429,240.7154810484559 "/><polyline class="polyline" opacity="0.5" stroke="blue" points="190.0985406432556,263.8637545473381 250.41430662772547,240.6295370650576 "/><polyline class="polyline" opacity="0.5" stroke="blue" points="191.1717390265544,264.45559183180166 251.3362658842755,240.50334800398522 "/><polyline class="polyline" opacity="0.5" stroke="blue" points="192.2450673569918,265.0148513495997 252.22620136279,240.33809072574672 "/><polyline class="polyline" opacity="0.5" stroke="blue" points="193.3179501985889,265.5414182948075 253.08396070757456,240.13495287102967 "/><polyline class="polyline" opacity="0.5" stroke="blue" points="194.38981856341584,266.0352002425839 253.90942341585884,239.89513097169797 "/><polyline class="polyline" opacity="0.5" stroke="blue" points="195.46011030431953,266.49612682696477 254.70249978462783,239.6198286443008 "/><polyline class="polyline" opacity="0.5" stroke="blue" points="196.5282704883647,266.9241493969029 255.46312986027462,239.31025486552682 "/><polyline class="polyline" opacity="0.5" stroke="blue" points="197.59375175082766,267.31924065188565 256.1912823941325,238.96762232872635 "/><polyline class="polyline" opacity="0.5" stroke="blue" points="198.65601462963903,267.6813942584678 256.88695380668327,238.59314588034596 "/><polyline class="polyline" opacity="0.5" stroke="blue" points="199.71452788022614,268.01062444906523 257.55016716299065,238.1880410348674 "/><polyline class="polyline" opacity="0.5" stroke="blue" points="200.76876877075804,268.30696560435285 258.1809711616604,237.7535225666198 "/><polyline class="polyline" opacity="0.5" stroke="blue" points="201.81822335784742,268.5704718206065 258.7794391393941,237.29080317663625 "/><polyline class="polyline" opacity="0.5" stroke="blue" points="202.86238674281086,268.8012164633217 259.345668092979,236.80109223255243 "/><polyline class="polyline" opacity="0.5" stroke="blue" points="203.90076330863693,268.9992917084276 259.87977772033236,236.28559457939812 "/><polyline class="polyline" opacity="0.5" stroke="blue" points="204.93286693785353,269.1648080723993 260.38190948201867,235.74550941900313 "/><polyline class="polyline" opacity="0.5" stroke="blue" points="205.95822121152892,269.2978939325523 260.852225684452,235.18202925563776 "/><polyline class="polyline" opacity="0.5" stroke="blue" points="206.9763595896789,269.3986950387792 261.2909085858134,234.59633890541997 "/><polyline class="polyline" opacity="0.5" stroke="blue" points="207.98682557338964,269.4673740179635 261.69815952553245,233.98961456695645 "/><polyline class="polyline" opacity="0.5" stroke="blue" points="208.9891728489995,269.50410987227525 262.07419807801404,233.36302295063584 "/><polyline class="polyline" opacity="0.5" stroke="blue" points="209.9829654147145,269.50909747252354 262.4192612311359,232.7177204639592 "/><polyline class="polyline" opacity="0.5" stroke="blue" points="210.96777769006152,269.4825470477057 262.73360258989123,232.0548524502739 "/><polyline class="polyline" opacity="0.5" stroke="blue" points="211.94319460860856,269.4246836718584 263.01749160541664,231.3755524782749 "/><polyline class="polyline" opacity="0.5" stroke="blue" points="212.90881169440704,269.3357467492776 263.2712128295135,230.68094167964364 "/><polyline class="polyline" opacity="0.5" stroke="blue" points="213.8642351226307,269.2159894991348 263.4950651946544,229.97212813221478 "/><polyline class="polyline" opacity="0.5" stroke="blue" points="214.80908176490632,269.06567844047834 263.68936131935516,229.25020628609258 "/><polyline class="polyline" opacity="0.5" stroke="blue" points="215.74297921984632,268.8850928785645 263.8544268386916,228.5162564301752 "/><polyline class="polyline" opacity="0.5" stroke="blue" points="216.66556582930983,268.6745243934217 263.9905997596479,227.7713441965961 "/><polyline class="polyline" opacity="0.5" stroke="blue" points="217.5764906809285,268.43427633150895 264.0982298408976,227.01652010064487 "/><polyline class="polyline" opacity="0.5" stroke="blue" points="218.47541359744525,268.16466330128344 264.1776779965425,226.25281911379275 "/><polyline class="polyline" opacity="0.5" stroke="blue" points="219.36200511342093,267.86601067345 264.22931572326445,225.48126026751632 "/><polyline class="polyline" opacity="0.5" stroke="blue" points="220.2359464398696,267.5386540866208 264.2535245502808,224.70284628568493 "/><polyline class="polyline" opacity="0.5" stroke="blue" points="221.09692941738783,267.1829389590688 264.2506955114426,223.91856324335663 "/><polyline class="polyline" opacity="0.5" stroke="blue" points="221.94465645834472,266.79922000721405 264.2212286387588,223.1293802499076 "/><polyline class="polyline" opacity="0.5" stroke="blue" points="222.77884047870032,266.38786077144005 264.16553247659203,222.33624915450565 "/><polyline class="polyline" opacity="0.5" stroke="blue" points="223.59920482001775,265.9492331497926 264.08402361572945,221.54010427202604 "/><polyline class="polyline" opacity="0.5" stroke="blue" points="224.40548316223365,265.4837169400715 263.9771262465015,220.7418621275976 "/><polyline class="polyline" opacity="0.5" stroke="blue" points="225.19741942774476,264.99169939078365 263.84527173009315,219.9424212180591 "/><polyline class="polyline" opacity="0.5" stroke="blue" points="225.97476767736455,264.47357476138546 263.6888981871691,219.14266178869968 "/><polyline class="polyline" opacity="0.5" stroke="blue" points="226.73729199869703,263.92974389220126 263.50845010291687,218.3434456237502 "/><polyline class="polyline" opacity="0.5" stroke="blue" points="227.48476638746536,263.36061378436705 263.3043779475965,217.54561584918977 "/><polyline class="polyline" opacity="0.5" stroke="blue" points="228.21697462232618,262.7665971901089 263.07713781167575,216.74999674652486 "/><polyline class="polyline" opacity="0.5" stroke="blue" points="228.93371013368798,262.1481122136305 262.8271910546242,215.9573935762968 "/><polyline class="polyline" opacity="0.5" stroke="blue" points="229.6347758670439,261.50558192284706 262.55500396643373,215.16859241016653 "/><polyline class="polyline" opacity="0.5" stroke="blue" points="230.31998414131513,260.8394339721694 262.2610474409374,214.3843599705245 "/><polyline class="polyline" opacity="0.5" stroke="blue" points="230.98915650269,260.15010023650854 261.9457966599981,213.60544347666533 "/><polyline class="polyline" opacity="0.5" stroke="blue" points="231.64212357443182,259.4380164566394 261.6097307876474,212.83257049666247 "/><polyline class="polyline" opacity="0.5" stroke="blue" points="232.27872490311304,258.7036218960325 261.25333267326226,212.06644880417372 "/><polyline class="polyline" opacity="0.5" stroke="blue" points="232.8988088017212,257.94735900923115 260.87708856288145,211.3077662394968 "/><polyline class="polyline" opacity="0.5" stroke="blue" points="233.50223219006742,257.1696731218287 260.48148781777513,210.55719057429025 "/><polyline class="polyline" opacity="0.5" stroke="blue" points="234.08886043291318,256.3710121220673 260.0670226393989,209.81536937946083 "/><polyline class="polyline" opacity="0.5" stroke="blue" points="234.6585671762171,255.55182616406273 259.6341877998839,209.08292989581136 "/><polyline class="polyline" opacity="0.5" stroke="blue" points="235.21123418188824,254.71256738262798 259.1834803772326,208.3604789071261 "/><polyline class="polyline" opacity="0.5" stroke="blue" points="235.74675116141677,253.85368961965384 258.71539949441666,207.64860261546016 "/><polyline class="polyline" opacity="0.5" stroke="blue" points="236.26501560873945,252.97564816197797 258.23044606159476,206.94786651848003 "/><polyline class="polyline" opacity="0.5" stroke="blue" points="236.7659326326802,252.07889949065785 257.7291225206993,206.25881528878583 "/><polyline class="polyline" opacity="0.5" stroke="blue" points="237.24941478929247,251.16390104154317 257.2119325916664,205.58197265522531 "/><polyline class="polyline" opacity="0.5" stroke="blue" points="237.71538191441485,250.2311109770271 256.6793810196165,204.91784128628706 "/><polyline class="polyline" opacity="0.5" stroke="blue" points="238.16376095673579,249.28098796883992 256.1319733223244,204.26690267573588 "/><polyline class="polyline" opacity="0.5" stroke="blue" points="238.5944858116502,248.31399099173288 255.57021553735237,203.6296170307256 "/><polyline class="polyline" opacity="0.5" stroke="blue" points="239.00749715617417,247.33057912788925 254.99461396825524,203.00642316269602 "/><polyline class="polyline" opacity="0.5" stroke="blue" points="239.40274228517225,246.3312113818841 254.40567492930333,202.39773838142722 "/><polyline class="polyline" opacity="0.5" stroke="blue" points="239.78017494913524,245.3163465060062 253.80390448820907,201.80395839268965 "/><polyline class="polyline" opacity="0.5" stroke="blue" points="240.13975519373506,244.28644283574278 253.18980820638154,201.2254571999905 "/><polyline class="polyline" opacity="0.5" stroke="blue" points="240.48144920136826,243.24195813522053 252.5638908762774,200.6625870109747 "/><polyline class="polyline" opacity="0.5" stroke="blue" points="240.80522913488775,242.18334945238678 251.9266562554559,200.11567814909506 "/><polyline class="polyline" opacity="0.5" stroke="blue" points="241.111072983709,241.111072983709 251.27860679699313,199.58503897121724 "/><polyline class="polyline" opacity="0.5" stroke="blue" points="241.3989644124647,240.02558394816185 250.6202433759541,199.0709557918738 "/><polyline class="polyline" opacity="0.5" stroke="blue" points="241.66889261237063,238.92733647026841 249.95206501166794,198.5736928149259 "/><polyline class="polyline" opacity="0.5" stroke="blue" points="241.920852155453,237.81678347195543 249.27456858559836,198.09349207343163 "/><polyline class="polyline" opacity="0.5" stroke="blue" points="242.15484285177618,236.6943765729787 248.58824855465048,197.63057337855662 "/><polyline class="polyline" opacity="0.5" stroke="blue" points="242.3708696098007,235.56056599967127 247.89359665980334,197.18513427839355 "/><polyline class="polyline" opacity="0.5" stroke="blue" points="242.5689422999884,234.41580050176526 247.19110163000698,196.75735002758637 "/><polyline class="polyline" opacity="0.5" stroke="blue" points="242.74907562176355,233.260527277035 246.4812488813335,196.34737356867663 "/><polyline class="polyline" opacity="0.5" stroke="blue" points="242.9112889739285,232.095191903507 245.76452021142114,195.9553355261081 "/><polyline class="polyline" opacity="0.5" stroke="blue" points="243.05560632862296,230.92023827898376 245.0413934893025,195.58134421383906 "/><polyline class="polyline" opacity="0.5" stroke="blue" points="243.18205610890755,229.7361085676245 244.31234234075686,195.22548565751995 "/><polyline class="polyline" opacity="0.5" stroke="blue" points="243.2906710700432,228.54324315332903 243.57783582937967,194.8878236321972 "/><polyline class="polyline" opacity="0.5" stroke="blue" points="243.38148818453115,227.3420805996676 242.8383381336103,194.5683997165011 "/><polyline class="polyline" opacity="0.5" stroke="blue" points="243.4545485309687,226.1330576161051 242.09430822001192,194.26723336426957 "/><polyline class="polyline" opacity="0.5" stroke="blue" points="243.5098971867705,224.91660903026315 241.34619951314386,193.98432199454513 "/><polyline class="polyline" opacity="0.5" stroke="blue" points="243.54758312479655,223.6931677659706 240.59445956241925,193.71964110086438 "/><polyline class="polyline" opacity="0.5" stroke="blue" points="243.56765911392264,222.46316482684978 239.83952970638467,193.47314438073565 "/><polyline class="polyline" opacity="0.5" stroke="blue" points="243.57018162358187,221.22702928519152 239.081844734908,193.24476388617032 "/><polyline class="polyline" opacity="0.5" stroke="blue" points="243.55521073230017,219.98518827587063 238.32183254980444,193.03441019609807 "/><polyline class="polyline" opacity="0.5" stroke="blue" points="243.5228100402431,218.7380669950587 237.55991382447456,192.84197261145613 "/><polyline class="polyline" opacity="0.5" stroke="blue" points="243.47304658578616,217.48608870349136 236.79650166317055,192.66731937369602 "/><polyline class="polyline" opacity="0.5" stroke="blue" points="243.40599076611497,216.22967473405026 236.03200126054497,192.5102979073994 "/><polyline class="polyline" opacity="0.5" stroke="blue" points="243.3217162618577,214.96924450342362 235.26680956217615,192.3707350876393 "/><polyline class="polyline" opacity="0.5" stroke="blue" points="243.22029996574696,213.70521552760974 234.5013149267968,192.24843753265884 "/><polyline class="polyline" opacity="0.5" stroke="blue" points="243.10182191530498,212.4380034410336 233.73589679098694,192.14319192237502 "/><polyline class="polyline" opacity="0.5" stroke="blue" points="242.96636522954066,211.16802201904608 232.97092533711964,192.0547653431424 "/><polyline class="polyline" opacity="0.5" stroke="blue" points="242.8140160496442,209.89568320358148 232.20676116537655,191.98290565913555 "/><polyline class="polyline" opacity="0.5" stroke="blue" points="242.64486348366154,208.62139713174884 231.44375497067094,191.9273419106299 "/><polyline class="polyline" opacity="0.5" stroke="blue" points="242.45899955512624,207.34557216713836 230.68224722533753,191.88778473937552 "/><polyline class="polyline" opacity="0.5" stroke="blue" points="242.25651915562497,206.06861493362416 229.92256786846323,191.86392684117186 "/><polyline class="polyline" opacity="0.5" stroke="blue" points="242.0375200012682,204.79093035144973 229.16503600274538,191.85544344566046 "/><polyline class="polyline" opacity="0.5" stroke="blue" points="241.80210259303593,203.51292167538332 228.40995959977258,191.86199282325845 "/><polyline class="polyline" opacity="0.5" stroke="blue" points="241.55037018096516,202.23499053473518 227.65763521462762,191.88321681906208 "/><polyline class="polyline" opacity="0.5" stroke="blue" points="241.28242873214268,200.95753697502832 226.90834771071127,191.9187414134492 "/><polyline class="polyline" opacity="0.5" stroke="blue" points="240.99838690246577,199.68095950112033 226.16236999568298,191.96817730901273 "/><polyline class="polyline" opacity="0.5" stroke="blue" points="240.69835601212955,198.40565512157335 225.41996276940557,192.0311205433567 "/><polyline class="polyline" opacity="0.5" stroke="blue" points="240.38245002479815,197.13201939407273 224.68137428476786,192.1071531271853 "/><polyline class="polyline" opacity="0.5" stroke="blue" points="240.0507855304151,195.86044647169805 223.94684012224383,192.1958437070168 "/><polyline class="polyline" opacity="0.5" stroke="blue" points="239.7034817316055,194.59132914984986 223.21658297902425,192.2967482517532 "/><polyline class="polyline" opacity="0.5" stroke="blue" points="239.3406604336208,193.3250589136401 222.4908124735326,192.40941076223945 "/><polyline class="polyline" opacity="0.5" stroke="blue" points="238.96244603777552,192.06202598555382 221.76972496610622,192.5333640028487 "/><polyline class="polyline" opacity="0.5" stroke="blue" points="238.56896553832286,190.80261937319335 221.05350339659205,192.6681302540366 "/><polyline class="polyline" opacity="0.5" stroke="blue" points="238.16034852271363,189.54722691691566 220.3423171395662,192.8132220847155 "/><polyline class="polyline" opacity="0.5" stroke="blue" points="237.73672717518298,188.29623533717742 219.6363218778482,192.96814314321242 "/><polyline class="polyline" opacity="0.5" stroke="blue" points="237.2982362836052,187.050030281401 218.93565949493257,193.13238896549015 "/><polyline class="polyline" opacity="0.5" stroke="blue" points="236.84501324955667,185.80899637017836 218.24045798691583,193.30544779923088 "/><polyline class="polyline" opacity="0.5" stroke="blue" points="236.37719810152439,184.57351724262864 217.5508313944414,193.48680144230784 "/><polyline class="polyline" opacity="0.5" stroke="blue" points="235.89493351119572,183.34397560072802 216.8668797551339,193.6759260941006 "/><polyline class="polyline" opacity="0.5" stroke="blue" points="235.39836481276316,182.12075325242918 216.18868907693485,193.87229321804594 "/><polyline class="polyline" opacity="0.5" stroke="blue" points="234.8876400251758,180.90423115339078 215.516331332693,194.07537041375963 "/><polyline class="polyline" opacity="0.5" stroke="blue" points="234.36290987726704,179.6947894471358 214.84986447630143,194.28462229701233 "/><polyline class="polyline" opacity="0.5" stroke="blue" points="233.82432783568612,178.49280750345866 214.1893324806086,194.49951138580042 "/><polyline class="polyline" opacity="0.5" stroke="blue" points="233.27205013555894,177.29866395490237 213.5347653972671,194.71949899071413 "/><polyline class="polyline" opacity="0.5" stroke="blue" points="232.7062358138009,176.11273673112538 212.88617943861684,194.94404610777778 "/><polyline class="polyline" opacity="0.5" stroke="blue" points="232.12704674500284,174.93540309097932 212.2435770816338,195.1726143119128 "/><polyline class="polyline" opacity="0.5" stroke="blue" points="231.53464767980765,173.76703965211811 211.6069471939065,195.4046666491626 "/><polyline class="polyline" opacity="0.5" stroke="blue" points="230.92920628569388,172.60802241795957 210.97626518153757,195.6396685258099 "/><polyline class="polyline" opacity="0.5" stroke="blue" points="230.31089319007887,171.45872680181884 210.35149315879843,195.87708859252027 "/><polyline class="polyline" opacity="0.5" stroke="blue" points="229.67988202565166,170.31952764803543 209.7325801393019,196.1163996216539 "/><polyline class="polyline" opacity="0.5" stroke="blue" points="229.0363494778426,169.19079924991271 209.11946224838897,196.35707937590587 "/><polyline class="polyline" opacity="0.5" stroke="blue" points="228.38047533433456,168.07291536429022 208.51206295636655,196.59861146645883 "/><polyline class="polyline" opacity="0.5" stroke="blue" points="227.71244253651554,166.9662492225679 207.91029333216665,196.84048619886596 "/><polyline class="polyline" opacity="0.5" stroke="blue" points="227.03243723277134,165.87117353800147 207.31405231694143,197.08220140492034 "/><polyline class="polyline" opacity="0.5" stroke="blue" points="226.3406488335121,164.78806050908798 206.72322701704897,197.3232632588146 "/><polyline class="polyline" opacity="0.5" stroke="blue" points="225.63727006782253,163.71728181885896 206.13769301583008,197.56318707594815 "/><polyline class="polyline" opacity="0.5" stroke="blue" points="224.92249704162373,162.65920862990077 205.5573147035259,197.80149809279897 "/><polyline class="polyline" opacity="0.5" stroke="blue" points="224.19652929722818,161.61421157491867 204.9819456246354,198.03773222634294 "/><polyline class="polyline" opacity="0.5" stroke="blue" points="223.45956987416753,160.5826607426634 204.41142884196893,198.27143681157645 "/><polyline class="polyline" opacity="0.5" stroke="blue" points="222.71182537116675,159.56492565903704 203.8455973166106,198.50217131577315 "/><polyline class="polyline" opacity="0.5" stroke="blue" points="221.95350600913537,158.56137526319662 203.28427430296554,198.72950802818892 "/><polyline class="polyline" opacity="0.5" stroke="blue" points="221.18482569504036,157.57237787847245 202.72727375803393,198.95303272401407 "/><polyline class="polyline" opacity="0.5" stroke="blue" points="220.4060020865225,156.59830117792012 202.1744007640243,199.17234530146163 "/><polyline class="polyline" opacity="0.5" stroke="blue" points="219.61725665711032,155.63951214432373 201.62545196339278,199.38706039097332 "/><polyline class="polyline" opacity="0.5" stroke="blue" points="218.81881476188414,154.6963770244707 201.0802160053736,199.59680793561967 "/><polyline class="polyline" opacity="0.5" stroke="blue" points="218.01090570343405,153.76926127751685 200.5384740030498,199.8012337418694 "/><polyline class="polyline" opacity="0.5" stroke="blue" points="217.19376279795316,152.85852951726426 200.0,200.0 "/><polyline class="polyline" opacity="0.5" stroke="blue" points="216.36762344130022,151.96454544817337 199.46456144554816,200.19278577352398 "/><polyline class="polyline" opacity="0.5" stroke="blue" points="215.5327291748601,151.08767179493367 198.93191967764005,200.37928745710303 "/><polyline class="polyline" opacity="0.5" stroke="blue" points="214.68932575102667,150.22827022542012 198.4018304123701,200.559219202524 "/><polyline class="polyline" opacity="0.5" stroke="blue" points="213.837663198124,149.38670126686202 197.874044239185,200.73231331240993 "/><polyline class="polyline" opacity="0.5" stroke="blue" points="212.97799588457804,148.56332421505715 197.3483071208004,200.89832060143743 "/><polyline class="polyline" opacity="0.5" stroke="blue" points="212.11058258214356,147.75849703646392 196.82436089687712,201.0570107249278 "/><polyline class="polyline" opacity="0.5" stroke="blue" points="211.23568652798585,146.97257626301146 196.30194379052017,201.20817247477527 "/><polyline class="polyline" opacity="0.5" stroke="blue" points="210.35357548540907,146.2059168794662 195.78079091668147,201.35161404276616 "/><polyline class="polyline" opacity="0.5" stroke="blue" points="209.46452180301898,145.45887220320517 195.26063479157102,201.4871632514328 "/><polyline class="polyline" opacity="0.5" stroke="blue" points="208.56880247209853,144.73179375624352 194.7412058422043,201.6146677526705 "/><polyline class="polyline" opacity="0.5" stroke="blue" points="207.66669918197147,144.02503112937632 194.22223291524426,201.73399519442899 "/><polyline class="polyline" opacity="0.5" stroke="blue" points="206.75849837312012,143.33893183829554 193.70344378432486,201.84503335586618 "/><polyline class="polyline" opacity="0.5" stroke="blue" points="205.84449128781873,142.6738411715533 193.1845656550776,201.94769025142625 "/><polyline class="polyline" opacity="0.5" stroke="blue" points="204.92497401803683,142.030102030248 192.6653256671162,202.0418942043725 "/><polyline class="polyline" opacity="0.5" stroke="blue" points="204.00024755036074,141.40805475931955 192.1454513922737,202.12759389036952 "/><polyline class="polyline" opacity="0.5" stroke="blue" points="203.07061780767563,140.80803697034744 191.6246713284221,202.20475835176765 "/><polyline class="polyline" opacity="0.5" stroke="blue" points="202.13639568734334,140.23038335575563 191.10271538824654,202.27337698329734 "/><polyline class="polyline" opacity="0.5" stroke="blue" points="201.19789709560715,139.67542549433915 190.57931538238662,202.3334594899281 "/><polyline class="polyline" opacity="0.5" stroke="blue" points="200.25544297794653,139.1434916480373 190.05420549639797,202.38503581769166 "/><polyline class="polyline" opacity="0.5" stroke="blue" points="199.30935934510194,138.63490654989153 189.52712276103108,202.4281560583045 "/><polyline class="polyline" opacity="0.5" stroke="blue" points="198.35997729448187,138.1499911831381 188.9978075153656,202.46289032845897 "/><polyline class="polyline" opacity="0.5" stroke="blue" points="197.40763302666213,137.68906255140055 188.46600386238188,202.4893286246786 "/><polyline class="polyline" opacity="0.5" stroke="blue" points="196.45266785667945,137.25243343995987 187.93146011659292,202.5075806546537 "/><polyline class="polyline" opacity="0.5" stroke="blue" points="195.49542821982078,136.84041216809834 187.39392924340285,202.51777564599166 "/><polyline class="polyline" opacity="0.5" stroke="blue" points="194.5362656716023,136.45330233252747 186.85316928989852,202.52006213332504 "/><polyline class="polyline" opacity="0.5" stroke="blue" points="193.57553688163156,136.0914025419295 186.30894380682204,202.51460772472873 "/><polyline class="polyline" opacity="0.5" stroke="blue" points="192.61360362104116,135.75500614265957 185.76102226151056,202.5015988483973 "/><polyline class="polyline" opacity="0.5" stroke="blue" points="191.65083274318158,135.4444009356764 185.20918044162892,202.48124048053054 "/><polyline class="polyline" opacity="0.5" stroke="blue" points="190.68759615725727,135.15986888478852 184.65320084955644,202.45375585536672 "/><polyline class="polyline" opacity="0.5" stroke="blue" points="189.72427079459098,134.90168581632588 184.09287308732536,202.41938615829147 "/><polyline class="polyline" opacity="0.5" stroke="blue" points="188.7612385671991,134.67012111036934 183.52799423204152,202.37839020293242 "/><polyline class="polyline" opacity="0.5" stroke="blue" points="187.79888631836153,134.4654373836931 182.95836920174898,202.33104409313006 "/><polyline class="polyline" opacity="0.5" stroke="blue" points="186.8376057648719,134.2878901646013 182.3838111117318,202.27764087065128 "/><polyline class="polyline" opacity="0.5" stroke="blue" points="185.87779343065347,134.13772755986463 181.8041416212714,202.21849014948342 "/><polyline class="polyline" opacity="0.5" stroke="blue" points="184.91985057143188,134.01518991399072 181.21919127090618,202.1539177375174 "/><polyline class="polyline" opacity="0.5" stroke="blue" points="183.9641830901564,133.92050946108765 180.62879981026038,202.08426524639373 "/><polyline class="polyline" opacity="0.5" stroke="blue" points="183.01120144286995,133.85390996961144 180.03281651653376,202.00988969024982 "/><polyline class="polyline" opacity="0.5" stroke="blue" points="182.0613205347298,133.81560638031524 179.43110050375842,201.93116307406746 "/><polyline class="polyline" opacity="0.5" stroke="blue" points="181.114959605892,133.80580443775003 178.8235210229485,201.84847197228 "/><polyline class="polyline" opacity="0.5" stroke="blue" points="180.17254210697763,133.82470031569682 178.2099577532804,201.76221709825467 "/><polyline class="polyline" opacity="0.5" stroke="blue" points="179.23449556385015,133.872480236943 177.59030108445347,201.6728128652228 "/><polyline class="polyline" opacity="0.5" stroke="blue" points="178.30125143144272,133.94932008784752 176.9644523903891,201.58068693918432 "/><polyline class="polyline" opacity="0.5" stroke="blue" points="177.37324493638806,134.0553850281736 176.33232429443373,201.4862797842665 "/><polyline class="polyline" opacity="0.5" stroke="blue" points="176.45091490821372,134.1908290967004 175.69384092623332,201.39004420097075 "/><polyline class="polyline" opacity="0.5" stroke="blue" points="175.53470359888422,134.3557948131608 175.04893817045036,201.29244485769163 "/><polyline class="polyline" opacity="0.5" stroke="blue" points="174.6250564904845,134.55041277708506 174.3975639074919,201.19395781584532 "/><polyline class="polyline" opacity="0.5" stroke="blue" points="173.72242209085823,134.7748012641674 173.73967824641375,201.0950700488967 "/><polyline class="polyline" opacity="0.5" stroke="blue" points="172.82725171703441,135.0290658208056 173.07525375016098,200.99627895552487 "/><polyline class="polyline" opacity="0.5" stroke="blue" points="171.93999926629397,135.3132988574999 172.40427565329574,200.89809186712074 "/><polyline class="polyline" opacity="0.5" stroke="blue" points="171.06112097475355,135.6275792418317 171.7267420723531,200.80102554976185 "/><polyline class="polyline" opacity="0.5" stroke="blue" points="170.19107516336442,135.97197189177854 171.04266420895274,200.705605700764 "/><polyline class="polyline" opacity="0.5" stroke="blue" points="169.33032197125206,136.346527370154 170.3520665457799,200.61236643986393 "/><polyline class="polyline" opacity="0.5" stroke="blue" points="168.4793230763473,136.7512814809978 169.6549870355302,200.52184979504278 "/><polyline class="polyline" opacity="0.5" stroke="blue" points="167.63854140329016,137.1862548687717 168.9514772828962,200.4346051829574 "/><polyline class="polyline" opacity="0.5" stroke="blue" points="166.80844081861505,137.65145262125145 168.24160271964894,200.35118888390556 "/><polyline class="polyline" opacity="0.5" stroke="blue" points="165.98948581326033,138.14686387703426 167.52544277284815,200.27216351121183 "/><polyline class="polyline" opacity="0.5" stroke="blue" points="165.18214117247607,138.67246143861286 166.80309102618662,200.19809747488262 "/><polyline class="polyline" opacity="0.5" stroke="blue" points="164.3868716332395,139.22820139199428 166.07465537444872,200.1295644393447 "/><polyline class="polyline" opacity="0.5" stroke="blue" points="163.60414152932333,139.81402273387073 165.34025817103512,200.06714277504736 "/><polyline class="polyline" opacity="0.5" stroke="blue" points="162.83441442419834,140.4298470073719 164.60003636847307,200.011415003678 "/><polyline class="polyline" opacity="0.5" stroke="blue" points="162.07815273199228,141.07557794745443 163.85414165180347,199.96296723671327 "/><polyline class="polyline" opacity="0.5" stroke="blue" points="161.3358173267635,141.75110113700325 163.1027405646988,199.92238860700198 "/><polyline class="polyline" opacity="0.5" stroke="blue" points="160.60786714039227,142.45628367473876 162.34601462813515,199.8902706930535 "/><polyline class="polyline" opacity="0.5" stroke="blue" points="159.8947587494303,143.19097385603993 161.58416045140297,199.8672069356871 "/><polyline class="polyline" opacity="0.5" stroke="blue" points="159.1969459512959,143.95500086780592 160.8173898352062,199.85379204667953 "/><polyline class="polyline" opacity="0.5" stroke="blue" points="158.51487933024066,144.74817449849033 160.0459298665611,199.8506214090373 "/><polyline class="polyline" opacity="0.5" stroke="blue" points="157.84900581356231,145.57028486444676 159.27002300516693,199.85829046850958 "/><polyline class="polyline" opacity="0.5" stroke="blue" points="157.19976821857853,146.42110215373117 158.48992716088216,199.87739411595234 "/><polyline class="polyline" opacity="0.5" stroke="blue" points="156.56760479092384,147.30037638850246 157.70591576189952,199.90852606015198 "/><polyline class="polyline" opacity="0.5" stroke="blue" points="155.95294873477502,148.2078372071635 156.91827781317224,199.95227819071985 "/><polyline class="polyline" opacity="0.5" stroke="blue" points="155.35622773565584,149.14319366737152 156.127317944605,200.00923993067332 "/><polyline class="polyline" opacity="0.5" stroke="blue" points="154.77786347651553,150.10613407104097 155.33335644847958,200.07999757833102 "/><polyline class="polyline" opacity="0.5" stroke="blue" points="154.2182711478204,151.09632581244014 154.53672930554725,200.16513363816313 "/><polyline class="polyline" opacity="0.5" stroke="blue" points="153.67785895244037,152.11341525046586 153.73778819917777,200.26522614025714 "/><polyline class="polyline" opacity="0.5" stroke="blue" points="153.15702760615483,153.15702760615483 152.93690051691527,200.38084794808333 "/><polyline class="polyline" opacity="0.5" stroke="blue" points="152.6561698346444,154.22676688645834 152.13444933875218,200.51256605427096 "/><polyline class="polyline" opacity="0.5" stroke="blue" points="152.17566986787318,155.32221583527746 151.33083341139343,200.6609408641417 "/><polyline class="polyline" opacity="0.5" stroke="blue" points="151.7159029328076,156.44293591270946 150.52646710774627,200.82652546678133 "/><polyline class="polyline" opacity="0.5" stroke="blue" points="151.27723474545104,157.5884673034208 149.7217803708342,201.0098648934772 "/><polyline class="polyline" opacity="0.5" stroke="blue" points="150.86002100321159,158.7583289550055 148.9172186412997,201.2114953633932 "/><polyline class="polyline" opacity="0.5" stroke="blue" points="150.46460687864993,159.95201864714016 148.1132427676268,201.4319435164106 "/><polyline class="polyline" opacity="0.5" stroke="blue" points="150.091326515686,161.16901309228408 147.31032889818565,201.6717256331179 "/><polyline class="polyline" opacity="0.5" stroke="blue" points="149.74050252937016,162.40876806861365 146.5089683541705,201.93134684199865 "/><polyline class="polyline" opacity="0.5" stroke="blue" points="149.41244551034754,163.67071858581 145.70966748247986,202.21130031393434 "/><polyline class="polyline" opacity="0.5" stroke="blue" points="149.10745353516756,164.95427908424762 144.912947487562,202.5120664442121 "/><polyline class="polyline" opacity="0.5" stroke="blue" points="148.8258116836065,166.2588436680566 144.11934424123308,202.8341120223081 "/><polyline class="polyline" opacity="0.5" stroke="blue" points="148.5677915641866,167.58378637244738 143.32940806945658,203.17788938980001 "/><polyline class="polyline" opacity="0.5" stroke="blue" points="148.33365084908442,168.92846146560618 142.54370351506316,203.5438355868532 "/><polyline class="polyline" opacity="0.5" stroke="blue" points="148.1236328196287,170.29220378537906 141.76280907538137,203.93237148781765 "/><polyline class="polyline" opacity="0.5" stroke="blue" points="147.93796592359053,171.67432911086937 140.98731691374888,204.34390092657426 "/><polyline class="polyline" opacity="0.5" stroke="blue" points="147.77686334546513,173.0741345689827 140.21783254387375,204.7788098123715 "/><polyline class="polyline" opacity="0.5" stroke="blue" points="147.6405225909404,174.4908990758515 139.45497448602535,205.2374652370032 "/><polyline class="polyline" opacity="0.5" stroke="blue" points="147.52912508673577,175.92388381297448 138.6993738940464,205.72021457429105 "/><polyline class="polyline" opacity="0.5" stroke="blue" points="147.44283579697947,177.3723327378014 137.9516741521988,206.22738457295137 "/><polyline class="polyline" opacity="0.5" stroke="blue" points="147.38180285727208,178.83547312839212 137.21253044087942,206.75928044404824 "/><polyline class="polyline" opacity="0.5" stroke="blue" points="147.34615722756155,180.31251616167208 136.48260927027823,207.31618494435756 "/><polyline class="polyline" opacity="0.5" stroke="blue" points="147.33601236492242,181.80265752470106 135.7625879810866,207.89835745709445 "/><polyline class="polyline" opacity="0.5" stroke="blue" points="147.35146391730098,183.3050780582648 135.053154211416,208.50603307158494 "/><polyline class="polyline" opacity="0.5" stroke="blue" points="147.39258943924753,184.818944431995 134.35500532913707,209.13942166359573 "/><polyline class="polyline" opacity="0.5" stroke="blue" points="147.45944813061436,186.3434098501144 133.66884782891577,209.79870697816668 "/><polyline class="polyline" opacity="0.5" stroke="blue" points="147.55208059915034,187.87761478680312 132.99539669329266,210.4840457169258 "/><polyline class="polyline" opacity="0.5" stroke="blue" points="147.67050864786972,189.42068775007385 132.33537471723056,211.19556663199813 "/><polyline class="polyline" opacity="0.5" stroke="blue" points="147.81473508801915,190.97174607294986 131.6895117956459,211.93336962875492 "/><polyline class="polyline" opacity="0.5" stroke="blue" points="147.98474357840203,192.52989673063544 131.05854417353305,212.69752487977905 "/><polyline class="polyline" opacity="0.5" stroke="blue" points="148.1804984917593,194.09423718227592 130.44321365839926,213.48807195255208 "/><polyline class="polyline" opacity="0.5" stroke="blue" points="148.40194480883451,195.6638562358137 129.84426679484085,214.3050189534945 "/><polyline class="polyline" opacity="0.5" stroke="blue" points="148.64900804068182,197.2378349343584 129.26245400121476,215.1483416911123 "/><polyline class="polyline" opacity="0.5" stroke="blue" points="148.92159417969862,198.81524746240626 128.69852866849232,216.0179828611191 "/><polyline class="polyline" opacity="0.5" stroke="blue" points="149.21958967979003,200.39516207016678 128.15324622152332,216.91385125651286 "/><polyline class="polyline" opacity="0.5" stroke="blue" points="149.5428614659894,201.97664201418343 127.62736314308547,217.83582100569137 "/><polyline class="polyline" opacity="0.5" stroke="blue" points="149.8912569737791,203.55874651236724 127.12163596125465,218.78373084178278 "/><polyline class="polyline" opacity="0.5" stroke="blue" points="150.2646042182713,205.14053171150417 126.63682020079447,219.75738340645447 "/><polyline class="polyline" opacity="0.5" stroke="blue" points="150.6627118933222,206.7210516652404 126.17366929943745,220.75654459153668 "/><polyline class="polyline" opacity="0.5" stroke="blue" points="151.08536950056836,208.29935932050947 125.73293349010824,221.7809429218621 "/><polyline class="polyline" opacity="0.5" stroke="blue" points="151.53234750828466,209.87450751031977 125.315358650326,222.8302689827709 "/><polyline class="polyline" opacity="0.5" stroke="blue" points="152.00339753987782,211.44554995079253 124.92168512021411,223.9041748957657 "/><polyline class="polyline" opacity="0.5" stroke="blue" points="152.49825259174105,213.0115422403174 124.5526464907397,225.00227384582465 "/><polyline class="polyline" opacity="0.5" stroke="blue" points="153.0166272801087,214.5715428586745 124.20896836400769,226.12413966388132 "/><polyline class="polyline" opacity="0.5" stroke="blue" points="153.55821811646481,216.1246141639657 123.89136708763326,227.26930646796964 "/><polyline class="polyline" opacity="0.5" stroke="blue" points="154.12270381097358,217.66982338519614 123.6005484654248,228.43726836649788 "/><polyline class="polyline" opacity="0.5" stroke="blue" points="154.70974560331882,219.20624360835777 123.33720644681068,229.62747922706782 "/><polyline class="polyline" opacity="0.5" stroke="blue" points="155.31898762025762,220.73295475388028 123.10202179764961,230.83935251418134 "/><polyline class="polyline" opacity="0.5" stroke="blue" points="155.95005725911597,222.24904454334188 122.89566075526682,232.07226119908566 "/><polyline class="polyline" opacity="0.5" stroke="blue" points="156.60256559637904,223.75360945335993 122.71877367075633,233.32553774489378 "/><polyline class="polyline" opacity="0.5" stroke="blue" points="157.27610782045656,225.24575565462845 122.57199364178501,234.59847416998224 "/><polyline class="polyline" opacity="0.5" stroke="blue" points="157.97026368763625,226.72459993410968 122.45593513932229,235.89032219250782 "/><polyline class="polyline" opacity="0.5" stroke="blue" points="158.6845980001732,228.18927059844708 122.37119263189886,237.20029345870458 "/><polyline class="polyline" opacity="0.5" stroke="blue" points="159.41866110540232,229.6389083567249 122.31833921117105,238.52755985741604 "/><polyline class="polyline" opacity="0.5" stroke="blue" points="160.17198941470733,231.0726671807717 122.29792522272437,239.871253923094 "/><polyline class="polyline" opacity="0.5" stroke="blue" points="160.94410594112625,232.4897151412779 122.31047690620107,241.23046932924137 "/><polyline class="polyline" opacity="0.5" stroke="blue" points="161.7345208543278,233.8892352180765 122.3564950489674,242.60426147400534 "/><polyline class="polyline" opacity="0.5" stroke="blue" points="162.5427320516535,235.27042608302804 122.43645365765462,243.99164815933582 "/><polyline class="polyline" opacity="0.5" stroke="blue" points="163.36822574388154,236.63250285403583 122.55079865200875,245.39161036480655 "/><polyline class="polyline" opacity="0.5" stroke="blue" points="164.21047705434043,237.97469781881847 122.69994658556558,246.80309311686457 "/><polyline class="polyline" opacity="0.5" stroke="blue" points="165.06895062997282,239.2962611271629 122.88428339772761,248.22500645391912 "/><polyline class="polyline" opacity="0.5" stroke="blue" points="165.9431012629322,240.59646145048902 123.10416320186181,249.6562264873153 "/><polyline class="polyline" opacity="0.5" stroke="blue" points="166.8323745212792,241.8745866076602 123.3599071140518,251.09559655785 "/><polyline class="polyline" opacity="0.5" stroke="blue" points="167.73620738733632,243.12994415608605 123.65180212713295,252.54192848709238 "/><polyline class="polyline" opacity="0.5" stroke="blue" points="168.65402890225505,244.3618619472721 123.9801000346063,253.99400392236015 "/><polyline class="polyline" opacity="0.5" stroke="blue" points="169.58526081535388,245.5696886460886 124.34501640897119,255.4505757737889 "/><polyline class="polyline" opacity="0.5" stroke="blue" points="170.5293182367894,246.75279421313923 124.74672963893147,256.91036974150325 "/><polyline class="polyline" opacity="0.5" stroke="blue" points="171.48561029213832,247.91057034972926 125.18538002982208,258.37208593047416 "/><polyline class="polyline" opacity="0.5" stroke="blue" points="172.4535407774818,249.04243090504224 125.66106897146302,259.83440055021515 "/><polyline class="polyline" opacity="0.5" stroke="blue" points="173.4325088136099,250.14781224525285 126.17385817748739,261.29596769604484 "/><polyline class="polyline" opacity="0.5" stroke="blue" points="174.42190949798697,251.22617358441164 126.72376899999568,262.75542120822064 "/><polyline class="polyline" opacity="0.5" stroke="blue" points="175.42113455315058,252.27699727704876 127.31078182317454,264.21137660482975 "/><polyline class="polyline" opacity="0.5" stroke="blue" points="176.42957297025396,253.299789072555 127.93483553927338,265.66243308392694 "/><polyline class="polyline" opacity="0.5" stroke="blue" points="177.44661164649818,254.29407833150074 128.59582711006675,267.1071755900102 "/><polyline class="polyline" opacity="0.5" stroke="blue" points="178.47163601524457,255.25941820415954 129.29361121663692,268.5441769395588 "/><polyline class="polyline" opacity="0.5" stroke="blue" points="179.50403066764306,256.19538577159994 130.02800000000002,269.972 "/><polyline class="polyline" opacity="0.5" stroke="blue" points="180.54317996466236,257.1015821498085 130.79876289476334,271.38919991614364 "/><polyline class="polyline" opacity="0.5" stroke="blue" points="181.5884686384587,257.9776325573958 131.6056265576498,272.7943263778172 "/><polyline class="polyline" opacity="0.5" stroke="blue" points="182.63928238207453,258.82318634752755 132.44827489235414,274.1859259221582 "/><polyline class="polyline" opacity="0.5" stroke="blue" points="183.69500842651414,259.6379170048033 133.32634917181144,275.56254426377285 "/><polyline class="polyline" opacity="0.5" stroke="blue" points="184.75503610430357,260.4215221078873 134.2394482585626,276.9227286457618 "/><polyline class="polyline" opacity="0.5" stroke="blue" points="185.81875739869923,261.1737232587655 135.18712892349254,278.2650302044315 "/><polyline class="polyline" opacity="0.5" stroke="blue" points="186.88556747777304,261.8942659795742 136.16890626280474,279.5880063403723 "/><polyline class="polyline" opacity="0.5" stroke="blue" points="187.95486521266068,262.5829195780056 137.18425421267509,280.89022308847944 "/><polyline class="polyline" opacity="0.5" stroke="blue" points="189.02605367932625,263.2394769823569 138.23260616061003,282.170257479435 "/><polyline class="polyline" opacity="0.5" stroke="blue" points="190.09854064325557,263.8637545473381 139.31335565211424,283.4266998851431 "/><polyline class="polyline" opacity="0.5" stroke="blue" points="191.1717390265544,264.45559183180166 140.4258571908567,284.6581563406291 "/><polyline class="polyline" opacity="0.5" stroke="blue" points="192.2450673569918,265.0148513495997 141.5694271301188,285.86325083498053 "/><polyline class="polyline" opacity="0.5" stroke="blue" points="193.31795019858885,265.54141829480744 142.74334465290843,287.04062756400145 "/><polyline class="polyline" opacity="0.5" stroke="blue" points="194.38981856341582,266.0352002425839 143.94685283773998,288.1889531373995 "/><polyline class="polyline" opacity="0.5" stroke="blue" points="195.46011030431953,266.49612682696477 145.17915980670804,289.3069187335059 "/><polyline class="polyline" opacity="0.5" stroke="blue" points="196.52827048836474,266.9241493969029 146.43943995213465,290.3932421947502 "/><polyline class="polyline" opacity="0.5" stroke="blue" points="197.59375175082764,267.3192406518856 147.72683523773435,291.44667005737045 "/><polyline class="polyline" opacity="0.5" stroke="blue" points="198.65601462963903,267.6813942584678 149.04045656993662,292.4659795091329 "/><polyline class="polyline" opacity="0.5" stroke="blue" points="199.71452788022614,268.0106244490653 150.37938523471567,293.4499802691633 "/><polyline class="polyline" opacity="0.5" stroke="blue" points="200.7687687707581,268.30696560435285 151.7426743950274,294.3975163843518 "/><polyline class="polyline" opacity="0.5" stroke="blue" points="201.8182233578474,268.5704718206065 153.12935064371825,295.3074679371779 "/><polyline class="polyline" opacity="0.5" stroke="blue" points="202.86238674281086,268.8012164633217 154.53841560657415,296.1787526602176 "/><polyline class="polyline" opacity="0.5" stroke="blue" points="203.90076330863695,268.9992917084277 155.96884759000642,297.01032745302706 "/><polyline class="polyline" opacity="0.5" stroke="blue" points="204.93286693785348,269.16480807239935 157.41960326773886,297.8011897975551 "/><polyline class="polyline" opacity="0.5" stroke="blue" points="205.9582212115289,269.29789393255226 158.8896194007507,298.550379068705 "/><polyline class="polyline" opacity="0.5" stroke="blue" points="206.97635958967888,269.3986950387792 160.3778145846578,299.25697773715024 "/><polyline class="polyline" opacity="0.5" stroke="blue" points="207.98682557338964,269.4673740179635 161.8830910186791,299.9201124620038 "/><polyline class="polyline" opacity="0.5" stroke="blue" points="208.9891728489994,269.50410987227525 163.40433629032174,300.53895507143375 "/><polyline class="polyline" opacity="0.5" stroke="blue" points="209.9829654147145,269.5090974725235 164.94042516994625,301.11272342982693 "/><polyline class="polyline" opacity="0.5" stroke="blue" points="210.96777769006152,269.4825470477057 166.49022140942546,301.6406821905923 "/><polyline class="polyline" opacity="0.5" stroke="blue" points="211.9431946086086,269.4246836718584 168.05257953919906,302.12214343420044 "/><polyline class="polyline" opacity="0.5" stroke="blue" points="212.908811694407,269.3357467492776 169.62634665813664,302.5564671915365 "/><polyline class="polyline" opacity="0.5" stroke="blue" points="213.8642351226307,269.21598949913476 171.21036421076587,302.94306185312473 "/><polyline class="polyline" opacity="0.5" stroke="blue" points="214.80908176490632,269.06567844047834 172.8034697465858,303.2813844652437 "/><polyline class="polyline" opacity="0.5" stroke="blue" points="215.7429792198463,268.8850928785645 174.40449865638288,303.5709409144008 "/><polyline class="polyline" opacity="0.5" stroke="blue" points="216.6655658293098,268.67452439342173 176.01228588067423,303.8112860020605 "/><polyline class="polyline" opacity="0.5" stroke="blue" points="217.5764906809285,268.43427633150895 177.62566758563827,304.0020234119301 "/><polyline class="polyline" opacity="0.5" stroke="blue" points="218.47541359744525,268.16466330128344 179.24348280214738,304.1428055724882 "/><polyline class="polyline" opacity="0.5" stroke="blue" points="219.36200511342088,267.86601067345 180.86457502377914,304.23333341780364 "/><polyline class="polyline" opacity="0.5" stroke="blue" points="220.23594643986956,267.53865408662085 182.48779375996807,304.273356050021 "/><polyline class="polyline" opacity="0.5" stroke="blue" points="221.09692941738783,267.1829389590688 184.11199604074739,304.26267030719794 "/><polyline class="polyline" opacity="0.5" stroke="blue" points="221.94465645834475,266.79922000721405 185.7360478698369,304.20112024045295 "/><polyline class="polyline" opacity="0.5" stroke="blue" points="222.7788404787003,266.38786077144005 187.35882562313475,304.0885965046294 "/><polyline class="polyline" opacity="0.5" stroke="blue" points="223.59920482001775,265.9492331497926 188.97921738998843,303.92503566690016 "/><polyline class="polyline" opacity="0.5" stroke="blue" points="224.40548316223368,265.4837169400715 190.59612425492975,303.7104194379216 "/><polyline class="polyline" opacity="0.5" stroke="blue" points="225.1974194277448,264.99169939078365 192.20846151787913,303.4447738303052 "/><polyline class="polyline" opacity="0.5" stroke="blue" points="225.97476767736453,264.47357476138546 193.81515985113285,303.12816824929894 "/><polyline class="polyline" opacity="0.5" stroke="blue" points="226.73729199869703,263.92974389220126 195.41516639175958,302.7607145206699 "/><polyline class="polyline" opacity="0.5" stroke="blue" points="227.4847663874654,263.36061378436705 197.0074457683336,302.34256586084985 "/><polyline class="polyline" opacity="0.5" stroke="blue" points="228.21697462232612,262.7665971901089 198.59098106123415,301.8739157944426 "/><polyline class="polyline" opacity="0.5" stroke="blue" points="228.93371013368795,262.1481122136305 200.1647746960241,301.3549970242109 "/><polyline class="polyline" opacity="0.5" stroke="blue" points="229.63477586704394,261.505581922847 201.72784926970186,300.7860802586455 "/><polyline class="polyline" opacity="0.5" stroke="blue" points="230.31998414131516,260.83943397216933 203.27924830988962,300.1674730021869 "/><polyline class="polyline" opacity="0.5" stroke="blue" points="230.98915650268998,260.1501002365085 204.8180369672738,299.49951831310824 "/><polyline class="polyline" opacity="0.5" stroke="blue" points="231.64212357443182,259.43801645663945 206.34330264185854,298.78259353399176 "/><polyline class="polyline" opacity="0.5" stroke="blue" points="232.27872490311304,258.7036218960325 207.8541555438184,298.0171089996292 "/><polyline class="polyline" opacity="0.5" stroke="blue" points="232.89880880172123,257.94735900923115 209.34972918995516,297.2035067270592 "/><polyline class="polyline" opacity="0.5" stroke="blue" points="233.5022321900674,257.16967312182874 210.82918083695733,296.34225909232157 "/><polyline class="polyline" opacity="0.5" stroke="blue" points="234.08886043291318,256.3710121220673 212.29169185284994,295.4338674983587 "/><polyline class="polyline" opacity="0.5" stroke="blue" points="234.65856717621713,255.55182616406267 213.73646802818408,294.4788610383329 "/><polyline class="polyline" opacity="0.5" stroke="blue" points="235.21123418188827,254.71256738262792 215.16273982867622,293.4777951584532 "/><polyline class="polyline" opacity="0.5" stroke="blue" points="235.74675116141674,253.85368961965384 216.56976259113569,292.4312503242255 "/><polyline class="polyline" opacity="0.5" stroke="blue" points="236.26501560873945,252.97564816197797 217.95681666464762,291.3398306938453 "/><polyline class="polyline" opacity="0.5" stroke="blue" points="236.7659326326802,252.07889949065785 219.32320749907774,290.2041628022567 "/><polyline class="polyline" opacity="0.5" stroke="blue" points="237.24941478929247,251.1639010415432 220.6682656830636,289.02489425919737 "/><polyline class="polyline" opacity="0.5" stroke="blue" points="237.71538191441485,250.2311109770271 221.9913469337284,287.8026924643432 "/><polyline class="polyline" opacity="0.5" stroke="blue" points="238.1637609567358,249.2809879688399 223.2918320404171,286.5382433424589 "/><polyline class="polyline" opacity="0.5" stroke="blue" points="238.5944858116502,248.31399099173285 224.56912676480607,285.23225010124855 "/><polyline class="polyline" opacity="0.5" stroke="blue" points="239.00749715617417,247.33057912788928 225.82266169977117,283.88543201439546 "/><polyline class="polyline" opacity="0.5" stroke="blue" points="239.40274228517222,246.3312113818841 227.05189208942429,282.49852323206716 "/><polyline class="polyline" opacity="0.5" stroke="blue" points="239.78017494913524,245.3163465060062 228.25629761273882,281.0722716209633 "/><polyline class="polyline" opacity="0.5" stroke="blue" points="240.13975519373508,244.28644283574278 229.43538213319067,279.6074376357754 "/><polyline class="polyline" opacity="0.5" stroke="blue" points="240.48144920136824,243.24195813522053 230.58867341682637,278.1047932237356 "/><polyline class="polyline" opacity="0.5" stroke="blue" points="240.80522913488778,242.18334945238684 231.71572282115747,276.5651207637352 "/><polyline class="polyline" opacity="0.5" stroke="blue" points="241.11107298370902,241.11107298370902 232.81610495724914,274.9892120413105 "/><polyline class="polyline" opacity="0.5" stroke="blue" points="241.3989644124647,240.0255839481618 233.88941732734,273.3778672606101 "/><polyline class="polyline" opacity="0.5" stroke="blue" points="241.66889261237066,238.92733647026841 234.93527994028557,271.7318940942859 "/><polyline class="polyline" opacity="0.5" stroke="blue" points="241.920852155453,237.81678347195543 235.95333490707094,270.05210677208305 "/><polyline class="polyline" opacity="0.5" stroke="blue" points="242.15484285177618,236.69437657297865 236.94324601858327,268.3393252087478 "/><polyline class="polyline" opacity="0.5" stroke="blue" points="242.3708696098007,235.56056599967127 237.90469830777698,266.5943741717154 "/><polyline class="polyline" opacity="0.5" stroke="blue" points="242.5689422999884,234.4158005017653 238.83739759830024,264.8180824889034 "/><polyline class="polyline" opacity="0.5" stroke="blue" points="242.74907562176355,233.260527277035 239.74107004158355,263.01128229679995 "/><polyline class="polyline" opacity="0.5" stroke="blue" points="242.9112889739285,232.095191903507 240.61546164432318,261.17480832890294 "/><polyline class="polyline" opacity="0.5" stroke="blue" points="243.05560632862296,230.92023827898376 241.46033778821737,259.30949724446094 "/><polyline class="polyline" opacity="0.5" stroke="blue" points="243.18205610890755,229.73610856762454 242.2754827437407,257.41618699734084 "/><polyline class="polyline" opacity="0.5" stroke="blue" points="243.2906710700432,228.543243153329 243.06069917966275,255.4957162447604 "/><polyline class="polyline" opacity="0.5" stroke="blue" points="243.38148818453118,227.34208059966758 243.81580766994517,253.54892379551563 "/><polyline class="polyline" opacity="0.5" stroke="blue" points="243.4545485309687,226.13305761610513 244.5406461995689,251.5766480972585 "/><polyline class="polyline" opacity="0.5" stroke="blue" points="243.5098971867705,224.91660903026317 245.23506967076918,249.5797267622915 "/><polyline class="polyline" opacity="0.5" stroke="blue" points="243.54758312479652,223.69316776597057 245.898949411077,247.55899613128398 "/><polyline class="polyline" opacity="0.5" stroke="blue" points="243.56765911392262,222.46316482684975 246.53217268449072,245.5152908742407 "/><polyline class="polyline" opacity="0.5" stroke="blue" points="243.5701816235819,221.22702928519152 247.13464220702429,243.4494436280029 "/><polyline class="polyline" opacity="0.5" stroke="blue" points="243.55521073230017,219.9851882758706 247.70627566780695,241.36228466950752 "/><polyline class="polyline" opacity="0.5" stroke="blue" points="243.5228100402431,218.73806699505863 248.24700525683272,239.25464162398686 "/><polyline class="polyline" opacity="0.5" stroke="blue" points="243.47304658578616,217.48608870349136 248.75677720039243,237.1273392072501 "/><polyline class="polyline" opacity="0.5" stroke="blue" points="243.405990766115,216.2296747340503 249.2355513051466,234.9811990011541 "/><polyline class="polyline" opacity="0.5" stroke="blue" points="243.3217162618577,214.96924450342357 249.68330051173464,232.8170392613483 "/><polyline class="polyline" opacity="0.5" stroke="blue" points="243.22029996574696,213.70521552760968 250.1000104587497,230.63567475634443 "/><polyline class="polyline" opacity="0.5" stroke="blue" points="243.10182191530498,212.43800344103363 250.48567905784614,228.43791663695345 "/><polyline class="polyline" opacity="0.5" stroke="blue" points="242.96636522954066,211.1680220190461 250.84031608068713,226.2245723351084 "/><polyline class="polyline" opacity="0.5" stroke="blue" points="242.8140160496442,209.89568320358146 251.1639427583832,223.99644549108962 "/><polyline class="polyline" opacity="0.5" stroke="blue" points="242.6448634836615,208.62139713174878 251.45659139401633,221.7543359081504 "/><polyline class="polyline" opacity="0.5" stroke="blue" points="242.45899955512627,207.34557216713839 251.71830498879422,219.49903953354743 "/><polyline class="polyline" opacity="0.5" stroke="blue" points="242.25651915562497,206.0686149336242 251.9491368823273,217.23134846496953 "/><polyline class="polyline" opacity="0.5" stroke="blue" points="242.03752000126818,204.79093035144967 252.14915040747675,214.9520509813686 "/><polyline class="polyline" opacity="0.5" stroke="blue" points="241.80210259303595,203.5129216753834 252.31841856017493,212.66193159718873 "/><polyline class="polyline" opacity="0.5" stroke="blue" points="241.55037018096516,202.23499053473518 252.45702368457992,210.36177113900357 "/><polyline class="polyline" opacity="0.5" stroke="blue" points="241.28242873214265,200.9575369750283 252.56505717388464,208.05234684357652 "/><polyline class="polyline" opacity="0.5" stroke="blue" points="240.99838690246577,199.6809595011203 252.6426191870656,205.73443247636112 "/><polyline class="polyline" opacity="0.5" stroke="blue" points="240.69835601212955,198.40565512157335 252.6898183818202,203.40879846947612 "/><polyline class="polyline" opacity="0.5" stroke="blue" points="240.38245002479815,197.13201939407273 252.7067716639106,201.07621207819307 "/><polyline class="polyline" opacity="0.5" stroke="blue" points="240.0507855304151,195.86044647169803 252.6936039531005,198.73743755499038 "/><polyline class="polyline" opacity="0.5" stroke="blue" points="239.70348173160548,194.59132914984983 252.65044796584465,196.3932363402325 "/><polyline class="polyline" opacity="0.5" stroke="blue" points="239.3406604336208,193.32505891364013 252.5774440148627,194.0443672685502 "/><polyline class="polyline" opacity="0.5" stroke="blue" points="238.96244603777555,192.06202598555384 252.47473982570676,191.69158679000358 "/><polyline class="polyline" opacity="0.5" stroke="blue" points="238.56896553832286,190.80261937319332 252.34249037040834,189.3356492051266 "/><polyline class="polyline" opacity="0.5" stroke="blue" points="238.1603485227136,189.54722691691563 252.1808577182693,186.97730691295334 "/><polyline class="polyline" opacity="0.5" stroke="blue" points="237.736727175183,188.29623533717745 251.9900109038423,184.6173106711447 "/><polyline class="polyline" opacity="0.5" stroke="blue" points="237.2982362836052,187.050030281401 251.77012581212907,182.25640986733714 "/><polyline class="polyline" opacity="0.5" stroke="blue" points="236.84501324955667,185.8089963701783 251.52138508100617,179.8953528008475 "/><polyline class="polyline" opacity="0.5" stroke="blue" points="236.3771981015244,184.57351724262872 251.24397802087395,177.53488697386896 "/><polyline class="polyline" opacity="0.5" stroke="blue" points="235.8949335111957,183.34397560072804 250.9381005515086,175.1757593913045 "/><polyline class="polyline" opacity="0.5" stroke="blue" points="235.39836481276316,182.12075325242915 250.6039551560848,172.81871686838625 "/><polyline class="polyline" opacity="0.5" stroke="blue" points="234.88764002517578,180.90423115339075 250.24175085232108,170.46450634522918 "/><polyline class="polyline" opacity="0.5" stroke="blue" points="234.36290987726704,179.69478944713583 249.85170318069012,168.113875207473 "/><polyline class="polyline" opacity="0.5" stroke="blue" points="233.82432783568612,178.49280750345866 249.43403420962235,165.76757161216074 "/><polyline class="polyline" opacity="0.5" stroke="blue" points="233.2720501355589,177.29866395490234 248.98897255761972,163.42634481800633 "/><polyline class="polyline" opacity="0.5" stroke="blue" points="232.7062358138009,176.11273673112532 248.51675343218548,161.0909455191894 "/><polyline class="polyline" opacity="0.5" stroke="blue" points="232.12704674500287,174.93540309097932 248.01761868546419,158.7621261818191 "/><polyline class="polyline" opacity="0.5" stroke="blue" points="231.53464767980765,173.76703965211814 247.49181688647258,156.44064138219116 "/><polyline class="polyline" opacity="0.5" stroke="blue" points="230.92920628569385,172.60802241795955 246.93960340979328,154.12724814596055 "/><polyline class="polyline" opacity="0.5" stroke="blue" points="230.31089319007884,171.45872680181878 246.36124054058743,151.8227062873283 "/><polyline class="polyline" opacity="0.5" stroke="blue" points="229.67988202565166,170.31952764803546 245.75699759577097,149.5277787473359 "/><polyline class="polyline" opacity="0.5" stroke="blue" points="229.03634947784263,169.19079924991271 245.1271510611857,147.24323193033493 "/><polyline class="polyline" opacity="0.5" stroke="blue" points="228.38047533433456,168.07291536429017 244.47198474458077,144.96983603768643 "/><polyline class="polyline" opacity="0.5" stroke="blue" points="227.71244253651554,166.9662492225679 243.79178994420417,142.7083653977142 "/><polyline class="polyline" opacity="0.5" stroke="blue" points="227.03243723277134,165.87117353800147 243.0868656327885,140.4595987909173 "/><polyline class="polyline" opacity="0.5" stroke="blue" points="226.3406488335121,164.78806050908796 242.35751865669528,138.2243197694194 "/><polyline class="polyline" opacity="0.5" stroke="blue" points="225.6372700678225,163.71728181885894 241.60406394996306,136.00331696959654 "/><polyline class="polyline" opacity="0.5" stroke="blue" points="224.92249704162373,162.6592086299008 240.8268247629831,133.79738441680092 "/><polyline class="polyline" opacity="0.5" stroke="blue" points="224.19652929722818,161.6142115749187 240.02613290550272,131.60732182105681 "/><polyline class="polyline" opacity="0.5" stroke="blue" points="223.45956987416753,160.58266074266336 239.20232900363263,129.4339348625735 "/><polyline class="polyline" opacity="0.5" stroke="blue" points="222.71182537116673,159.564925659037 238.35576277050444,127.2780354658746 "/><polyline class="polyline" opacity="0.5" stroke="blue" points="221.95350600913537,158.56137526319662 237.4867932901982,125.14044206130723 "/><polyline class="polyline" opacity="0.5" stroke="blue" points="221.1848256950404,157.57237787847245 236.59578931452452,123.02197983264684 "/><polyline class="polyline" opacity="0.5" stroke="blue" points="220.40600208652248,156.5983011779201 235.68312957221548,120.92348094947175 "/><polyline class="polyline" opacity="0.5" stroke="blue" points="219.6172566571103,155.6395121443237 234.74920309003542,118.8457847829287 "/><polyline class="polyline" opacity="0.5" stroke="blue" points="218.81881476188414,154.6963770244707 233.79440952528878,116.78973810346685 "/><polyline class="polyline" opacity="0.5" stroke="blue" points="218.01090570343405,153.76926127751685 232.81915950915365,114.7561952590624 "/><polyline class="polyline" opacity="0.5" stroke="blue" points="217.19376279795316,152.85852951726426 231.823875000228,112.74601833240855 "/></svg>
