<?xml version="1.0" encoding="UTF-8"?>
<!DOCTYPE svg PUBLIC "-//W3C//DTD SVG 1.1//EN"
    "http://www.w3.org/Graphics/SVG/1.1/DTD/svg11.dtd"><svg width="400" height="400" stroke="black" fill="none" fill-opacity="0.75" font-style="italic" font-family="CMU Serif, sans-serif" xmlns="http://www.w3.org/2000/svg" xmlns:xlink="http://www.w3.org/1999/xlink" version="1.1"><filter id="blur"><feGaussianBlur stdDeviation="2"/></filter><rect width="100%" height="100%" fill="white" stroke="none" fill-opacity="1"/><polygon points="201.60103566142374,129.5754562748784 205.61211295846164,54.702942288398816 " opacity="0.5" stroke="blue"/><polygon points="202.32191516486114,130.09654758046474 209.52420403321722,54.61948282914949 " opacity="0.5" stroke="blue"/><polygon points="203.04578610876024,130.9162639880666 213.53975458607636,55.24418712455355 " opacity="0.5" stroke="blue"/><polygon points="203.7694434004018,132.03870552258243 217.6469863530742,56.60884752551786 " opacity="0.5" stroke="blue"/><polygon points="204.4895218109706,133.46647307267642 221.8316980471327,58.74021106610604 " opacity="0.5" stroke="blue"/><polygon points="205.20251159926866,135.20051651106564 226.07720172356014,61.65874799969646 " opacity="0.5" stroke="blue"/><polygon points="205.9047780707279,137.23998942614847 230.364324884227,65.37739641389143 " opacity="0.5" stroke="blue"/><polygon points="206.59258515750633,139.58211443006715 234.67149122115393,69.90033408359281 " opacity="0.5" stroke="blue"/><polygon points="207.26212300340478,142.22206326129037 238.97489106428776,75.22183842676607 " opacity="0.5" stroke="blue"/><polygon points="207.90953942007047,145.1528560376276 243.2487494435361,81.32530274279368 " opacity="0.5" stroke="blue"/><polygon points="208.53097495131223,148.36528401219712 247.46569516556193,88.18248047448944 " opacity="0.5" stroke="blue"/><polygon points="209.12260114443325,151.84786001754202 251.5972285624547,95.75302775333745 " opacity="0.5" stroke="blue"/><polygon points="209.68066148657365,155.58680043468118 255.6142788994684,103.98440696710765 " opacity="0.5" stroke="blue"/><polygon points="210.20151432648314,159.56604198508217 259.4878353307883,112.8122000576438 " opacity="0.5" stroke="blue"/><polygon points="210.68167697501357,163.76729591486946 263.18962842660034,122.16085996979884 " opacity="0.5" stroke="blue"/><polygon points="211.1178700684375,168.170141233971 266.69283341973755,131.94490323686426 " opacity="0.5" stroke="blue"/><polygon points="211.50706119486773,172.75215761255197 269.97276219342433,142.07051805766528 " opacity="0.5" stroke="blue"/><polygon points="211.84650673234987,177.48909735937605 273.0075092928739,152.43753303859017 " opacity="0.5" stroke="blue"/><polygon points="212.1337908331842,182.35509465914453 275.7785182993632,162.9416650602274 " opacity="0.5" stroke="blue"/><polygon points="212.36686051651256,187.32290898472186 278.27103884074984,173.47694345785905 " opacity="0.5" stroke="blue"/><polygon points="212.54405590178166,192.36419838740466 280.4744510504287,183.93819434864383 " opacity="0.5" stroke="blue"/><polygon points="212.66413472845332,197.44981726754474 282.3824428110265,194.22346506001608 " opacity="0.5" stroke="blue"/><polygon points="212.7262904587295,202.550132299414 283.99303475694205,204.23627461116058 " opacity="0.5" stroke="blue"/><polygon points="212.73016344402686,207.63534948116157 285.3084577614551,213.88759124439878 " opacity="0.5" stroke="blue"/><polygon points="212.67584484419837,212.67584484419837 286.3348965224686,223.09746019580862 " opacity="0.5" stroke="blue"/><polygon points="212.563873211115,217.64249121232922 287.082120070819,231.79623159144003 " opacity="0.5" stroke="blue"/><polygon points="212.39522387426774,222.50697355805443 287.56302500590016,239.92536660153152 " opacity="0.5" stroke="blue"/><polygon points="212.17129148439392,227.24208595221657 287.79311977862653,247.43782695247214 " opacity="0.5" stroke="blue"/><polygon points="211.89386627125154,231.82200381683595 287.7899784625881,254.2980762521477 " opacity="0.5" stroke="blue"/><polygon points="211.5651047443517,236.22252612778018 287.57269050548234,260.48173972815766 " opacity="0.5" stroke="blue"/><polygon points="211.18749570345898,240.42128332046445 287.1613294295887,265.9749811280657 " opacity="0.5" stroke="blue"/><polygon points="210.76382252407186,244.3979078673305 286.576458924085,270.773661671411 " opacity="0.5" stroke="blue"/><polygon points="210.2971227395589,248.13416575690334 285.8386898068019,274.8823466751737 " opacity="0.5" stroke="blue"/><polygon points="209.79064595635253,251.61404834904408 284.96829641830897,278.3132218092161 " opacity="0.5" stroke="blue"/><polygon points="209.2478111141169,254.82382525366324 283.98489652356756,281.0849740866278 " opacity="0.5" stroke="blue"/><polygon points="208.67216404359152,257.75205993367115 282.9071949845943,283.22168388139534 " opacity="0.5" stroke="blue"/><polygon points="208.06733618679556,260.38959063150924 281.75278845851267,284.75176459575977 " opacity="0.5" stroke="blue"/><polygon points="207.43700523430377,262.7294799386316 280.53802619327706,285.7069769697978 " opacity="0.5" stroke="blue"/><polygon points="206.7848583095775,264.7669368574153 279.27792058592513,286.1215360939332 " opacity="0.5" stroke="blue"/><polygon points="206.11455819792448,266.4992155451399 277.98610043372094,286.03132137303544 " opacity="0.5" stroke="blue"/><polygon points="205.4297129840832,267.92549508959564 276.6747996201635,285.47319321360266 " opacity="0.5" stroke="blue"/><polygon points="204.7338493333396,269.04674466297683 275.35487420292986,284.4844151142945 " opacity="0.5" stroke="blue"/><polygon points="204.03038953107253,269.8655782578772 274.0358413845868,283.1021760677975 " opacity="0.5" stroke="blue"/><polygon points="203.32263228812303,270.3861029525391 272.7259345407364,281.3632055864846 " opacity="0.5" stroke="blue"/><polygon points="202.61373722667057,270.6137643093207 271.4321692655983,279.3034720640649 " opacity="0.5" stroke="blue"/><polygon points="201.9067128845796,270.55519210736827 270.1604162040965,276.95795438690726 " opacity="0.5" stroke="blue"/><polygon points="201.2044080157105,270.2180491725332 268.9154772238221,274.3604765255635 " opacity="0.5" stroke="blue"/><polygon points="200.50950591895378,269.610885616568 267.7011622078618,271.54359510169047 " opacity="0.5" stroke="blue"/><polygon points="199.82452149863227,268.74300035201793 266.5203644019561,268.53853049552043 " opacity="0.5" stroke="blue"/><polygon points="199.15180074188527,267.62431132369824 265.37513281854217,265.37513281854217 " opacity="0.5" stroke="blue"/><polygon points="198.49352229291836,266.26523550321576 264.2667406850677,262.08187493533893 " opacity="0.5" stroke="blue"/><polygon points="197.85170080766383,264.6765793372039 263.1957493285874,258.68586561116524 " opacity="0.5" stroke="blue"/><polygon points="197.2281917835567,262.8694400272316 262.1620672200586,255.21287674137346 " opacity="0.5" stroke="blue"/><polygon points="196.62469757597802,260.8551177515618 261.1650041684153,251.6873794551653 " opacity="0.5" stroke="blue"/><polygon points="196.04277433379923,258.6450387157703 260.20332086524996,248.13258466218795 " opacity="0.5" stroke="blue"/><polygon points="195.48383960992192,256.25068873875864 259.2752741442681,244.57048431890306 " opacity="0.5" stroke="blue"/><polygon points="194.94918042749867,253.683556939799 258.37865844323136,241.02189033229112 " opacity="0.5" stroke="blue"/><polygon points="194.4399616076184,250.95508898703554 257.51084404642324,237.50646859613363 " opacity="0.5" stroke="blue"/><polygon points="193.95723418882824,248.0766492940188 256.668812748045,234.04276617786155 " opacity="0.5" stroke="blue"/><polygon points="193.5019437923204,245.05949150387022 255.84919161545346,230.64823015154167 " opacity="0.5" stroke="blue"/><polygon points="193.07493880848858,241.91473657613363 255.0482855486513,227.33921701536823 " opacity="0.5" stroke="blue"/><polygon points="192.67697830055994,238.65335778504235 254.2621093307572,224.1309920501052 " opacity="0.5" stroke="blue"/><polygon points="192.30873953895647,235.28617194588787 253.48641984422568,221.03771837726555 " opacity="0.5" stroke="blue"/><polygon points="191.97082509587185,231.82383620490094 252.71674908956132,218.0724358696793 " opacity="0.5" stroke="blue"/><polygon points="191.6637694432697,228.2768497543943 251.94843858690848,215.24703045748274 " opacity="0.5" stroke="blue"/><polygon points="191.38804500919682,224.6555598661703 251.17667566568812,212.572194761708 " opacity="0.5" stroke="blue"/><polygon points="191.14406765707344,220.97017167003426 250.39653205294087,210.05738137471093 " opacity="0.5" stroke="blue"/><polygon points="190.93220156062645,217.2307611387353 249.60300505709063,207.71075048741758 " opacity="0.5" stroke="blue"/><polygon points="190.75276345354035,213.4472907741694 248.79106151095812,205.5391139300982 " opacity="0.5" stroke="blue"/><polygon points="190.60602623790098,209.62962752092616 247.9556844874283,203.54787803500187 " opacity="0.5" stroke="blue"/><polygon points="190.49222193928918,205.78756246118635 247.0919226357477,201.74098803154519 " opacity="0.5" stroke="blue"/><polygon points="190.4115439991402,201.93083186878619 246.19494180988994,200.12087693124465 " opacity="0.5" stroke="blue"/><polygon points="190.364148896914,198.0691392193184 245.26007847809743,198.68842203204323 " opacity="0.5" stroke="blue"/><polygon points="190.3501570959128,194.21217776700388 244.28289422133827,197.4429122516336 " opacity="0.5" stroke="blue"/><polygon points="190.369653307429,190.369653307429 243.25923045605447,196.38202946949113 " opacity="0.5" stroke="blue"/><polygon points="190.4226860684957,186.55130674792227 242.18526236221044,195.5018469031185 " opacity="0.5" stroke="blue"/><polygon points="190.50926662903606,182.7669361042945 241.05755087081513,194.79684725560136 " opacity="0.5" stroke="blue"/><polygon points="190.62936714485744,179.02641753393442 239.873091475193,194.2599629454066 " opacity="0.5" stroke="blue"/><polygon points="190.78291817390533,175.33972500102686 238.6293585859216,193.8826401695689 " opacity="0.5" stroke="blue"/><polygon points="190.96980547468118,171.71694815024924 237.3243441575462,193.65492787085142 " opacity="0.5" stroke="blue"/><polygon points="191.18986610794045,168.1683079411544 235.95658938056255,193.56559189998845 " opacity="0.5" stroke="blue"/><polygon points="191.44288384593136,164.70416956720078 234.52520835636878,193.60225381615973 " opacity="0.5" stroke="blue"/><polygon points="191.72858389772904,161.33505215185147 233.029902854042,193.75155289012332 " opacity="0.5" stroke="blue"/><polygon points="192.04662696487665,158.07163468039724 231.47096748030637,193.9993290078347 " opacity="0.5" stroke="blue"/><polygon points="192.39660264878688,154.92475759147473 229.8492848686981,194.33082336315576 " opacity="0.5" stroke="blue"/><polygon points="192.77802224039337,151.9054194182758 228.16631079826615,194.7308931207438 " opacity="0.5" stroke="blue"/><polygon points="193.19031093356847,149.02476783814177 226.42404947129137,195.18423566438761 " opacity="0.5" stroke="blue"/><polygon points="193.6327995170229,146.29408446294462 224.62501949713325,195.67561765428994 " opacity="0.5" stroke="blue"/><polygon points="194.10471561490297,143.72476268412123 222.77221142883718,196.1901039211095 " opacity="0.5" stroke="blue"/><polygon points="194.60517456419836,141.32827787859642 220.8690379649653,196.71328123478983 " opacity="0.5" stroke="blue"/><polygon points="195.1331700373737,139.11614928867394 218.91927814781386,197.23147219908407 " opacity="0.5" stroke="blue"/><polygon points="195.68756454126333,137.09989291423082 216.92701705046198,197.7319349222999 " opacity="0.5" stroke="blue"/><polygon points="196.2670799480214,135.29096480346755 214.89658254249142,198.20304467389326 " opacity="0.5" stroke="blue"/><polygon points="196.8702882404483,133.7006942035047 212.83248075544066,198.63445441896803 " opacity="0.5" stroke="blue"/><polygon points="197.49560268180437,132.34020613876726 210.73933183593718,199.01723188640514 " opacity="0.5" stroke="blue"/><polygon points="198.14126964854768,131.22033312769616 208.621807482578,199.34397162658422 " opacity="0.5" stroke="blue"/><polygon points="198.80536139235394,130.35151593074318 206.4845716206569,199.60888130757343 " opacity="0.5" stroke="blue"/><polygon points="199.4857700241125,129.7436934479246 204.33222538762865,199.80784224407444 " opacity="0.5" stroke="blue"/><polygon points="200.1802030359157,129.40618215431428 202.1692573938483,199.93844481728976 " opacity="0.5" stroke="blue"/><polygon points="200.8861806957133,129.34754577695932 200.0,200.0 " opacity="0.5" stroke="blue"/><polygon points="201.60103566142374,129.5754562748784 197.8285921264903,199.99352863192175 " opacity="0.5" stroke="blue"/><polygon points="202.32191516486114,130.09654758046474 195.65894889138772,199.92173038704803 " opacity="0.5" stroke="blue"/><polygon points="203.0457861087602,130.9162639880666 193.49473817085502,199.7889345365403 " opacity="0.5" stroke="blue"/><polygon points="203.7694434004018,132.03870552258243 191.33936399594478,199.60103464438663 " opacity="0.5" stroke="blue"/><polygon points="204.4895218109706,133.46647307267642 189.19595654637214,199.36540925082008 " opacity="0.5" stroke="blue"/><polygon points="205.20251159926866,135.20051651106564 187.06736837755426,199.09083041708413 " opacity="0.5" stroke="blue"/><polygon points="205.9047780707279,137.23998942614847 184.95617642199298,198.78736174410588 " opacity="0.5" stroke="blue"/><polygon points="206.59258515750633,139.58211443006712 182.86468923851245,198.46624715815514 " opacity="0.5" stroke="blue"/><polygon points="207.26212300340478,142.22206326129037 180.7949589402251,198.13979140034286 " opacity="0.5" stroke="blue"/><polygon points="207.90953942007044,145.15285603762757 178.74879721074922,197.82123278533825 " opacity="0.5" stroke="blue"/><polygon points="208.53097495131223,148.36528401219715 176.72779481397134,197.52460842874729 " opacity="0.5" stroke="blue"/><polygon points="209.12260114443325,151.84786001754202 174.73334401113837,197.26461180202742 " opacity="0.5" stroke="blue"/><polygon points="209.68066148657365,155.5868004346812 172.76666331594208,197.05644217745146 " opacity="0.5" stroke="blue"/><polygon points="210.20151432648314,159.5660419850822 170.82882403947187,196.91564529136494 " opacity="0.5" stroke="blue"/><polygon points="210.68167697501354,163.76729591486946 168.92077809887752,196.85794439885294 " opacity="0.5" stroke="blue"/><polygon points="211.1178700684375,168.17014123397104 167.0433865833282,196.8990608331647 " opacity="0.5" stroke="blue"/><polygon points="211.50706119486773,172.75215761255197 165.19744858612725,197.05452323411342 " opacity="0.5" stroke="blue"/><polygon points="211.84650673234987,177.48909735937605 163.38372982118892,197.33946478512945 " opacity="0.5" stroke="blue"/><polygon points="212.1337908331842,182.35509465914453 161.60299054493083,197.7684081106672 " opacity="0.5" stroke="blue"/><polygon points="212.36686051651256,187.3229089847218 159.8560123013104,198.35503794317708 " opacity="0.5" stroke="blue"/><polygon points="212.54405590178166,192.36419838740468 158.14362299953643,199.11196227633275 " opacity="0.5" stroke="blue"/><polygon points="212.66413472845335,197.44981726754472 156.4667198231454,200.05046347689338 " opacity="0.5" stroke="blue"/><polygon points="212.7262904587295,202.55013229941403 154.8262894588247,201.18024172145257 " opacity="0.5" stroke="blue"/><polygon points="212.73016344402686,207.63534948116157 153.22342512759892,202.50915413591414 " opacity="0.5" stroke="blue"/><polygon points="212.67584484419837,212.67584484419837 151.65933990447132,204.0429541119239 " opacity="0.5" stroke="blue"/><polygon points="212.563873211115,217.64249121232922 150.13537583049444,205.7850364087177 " opacity="0.5" stroke="blue"/><polygon points="212.39522387426774,222.5069735580544 148.65300835879592,207.73619475921475 " opacity="0.5" stroke="blue"/><polygon points="212.17129148439392,227.2420859522166 147.21384573825455,209.89439970978765 " opacity="0.5" stroke="blue"/><polygon points="211.89386627125154,231.82200381683595 145.81962302937734,212.254605246158 " opacity="0.5" stroke="blue"/><polygon points="211.5651047443517,236.22252612778016 144.47219056905743,214.8085932978993 " opacity="0.5" stroke="blue"/><polygon points="211.187495703459,240.4212833204644 143.17349685478533,217.54486537463964 " opacity="0.5" stroke="blue"/><polygon points="210.76382252407183,244.39790786733053 141.92556600233914,220.44859027943772 " opacity="0.5" stroke="blue"/><polygon points="210.2971227395589,248.13416575690337 140.73047013868234,223.5016159980356 " opacity="0.5" stroke="blue"/><polygon points="209.79064595635253,251.61404834904405 139.59029731514045,226.68255243477964 " opacity="0.5" stroke="blue"/><polygon points="209.2478111141169,254.82382525366324 138.50711575312747,229.96692965431416 " opacity="0.5" stroke="blue"/><polygon points="208.67216404359152,257.7520599336711 137.48293545136025,233.3274337378028 " opacity="0.5" stroke="blue"/><polygon points="208.06733618679556,260.38959063150924 136.5196683735819,236.73421937078396 " opacity="0.5" stroke="blue"/><polygon points="207.43700523430377,262.7294799386316 135.61908858296061,240.15529499575754 " opacity="0.5" stroke="blue"/><polygon points="206.78485830957752,264.7669368574153 134.78279377849742,243.55697297974405 " opacity="0.5" stroke="blue"/><polygon points="206.1145581979245,266.4992155451399 134.01216970797304,246.9043739900586 " opacity="0.5" stroke="blue"/><polygon points="205.4297129840832,267.92549508959564 133.30835887381886,250.16197187730688 " opacity="0.5" stroke="blue"/><polygon points="204.73384933333958,269.04674466297683 132.6722348113217,253.29416305947996 " opacity="0.5" stroke="blue"/><polygon points="204.03038953107253,269.8655782578772 132.10438300779006,256.2658428770591 " opacity="0.5" stroke="blue"/><polygon points="203.32263228812303,270.3861029525391 131.6050892581808,259.0429707824206 " opacity="0.5" stroke="blue"/><polygon points="202.61373722667057,270.6137643093207 131.17433593429115,261.5931066016077 " opacity="0.5" stroke="blue"/><polygon points="201.9067128845796,270.55519210736827 130.81180630207524,263.88590144627614 " opacity="0.5" stroke="blue"/><polygon points="201.20440801571047,270.2180491725332 130.51689667809558,265.893529062201 " opacity="0.5" stroke="blue"/><polygon points="200.50950591895378,269.610885616568 130.2887358944215,267.5910463124813 " opacity="0.5" stroke="blue"/><polygon points="199.82452149863227,268.74300035201793 130.126211261832,268.95667489111764 " opacity="0.5" stroke="blue"/><polygon points="199.15180074188527,267.62431132369824 130.02800000000002,269.972 " opacity="0.5" stroke="blue"/><polygon points="198.49352229291839,266.26523550321576 129.99260495088785,270.622085349965 " opacity="0.5" stroke="blue"/><polygon points="197.8517008076638,264.6765793372039 130.01839331215783,270.8955072349115 " opacity="0.5" stroke="blue"/><polygon points="197.2281917835567,262.8694400272316 130.10363711931046,270.7843133867375 " opacity="0.5" stroke="blue"/><polygon points="196.62469757597802,260.8551177515618 130.24655426161047,270.2839147101764 " opacity="0.5" stroke="blue"/><polygon points="196.04277433379923,258.64503871577034 130.44534892678473,269.3929197408564 " opacity="0.5" stroke="blue"/><polygon points="195.48383960992194,256.2506887387587 130.6982505196292,268.11292274492405 " opacity="0.5" stroke="blue"/><polygon points="194.94918042749867,253.683556939799 131.0035502757005,266.44825681307003 " opacity="0.5" stroke="blue"/><polygon points="194.4399616076184,250.95508898703554 131.35963497921523,264.40572316490056 " opacity="0.5" stroke="blue"/><polygon points="193.95723418882824,248.07664929401884 131.76501738160593,261.9943072681857 " opacity="0.5" stroke="blue"/><polygon points="193.5019437923204,245.05949150387025 132.2183630935242,259.2248914035139 " opacity="0.5" stroke="blue"/><polygon points="193.0749388084886,241.91473657613372 132.71851388064502,256.1099720834576 " opacity="0.5" stroke="blue"/><polygon points="192.67697830055994,238.65335778504235 133.2645074272424,252.66338937555 " opacity="0.5" stroke="blue"/><polygon points="192.30873953895647,235.28617194588787 133.85559373846036,248.90007377613665 " opacity="0.5" stroke="blue"/><polygon points="191.97082509587185,231.82383620490094 134.4912484318741,244.83581491622667 " opacity="0.5" stroke="blue"/><polygon points="191.6637694432697,228.2768497543943 135.17118322235154,240.48705511058367 " opacity="0.5" stroke="blue"/><polygon points="191.38804500919682,224.65555986617022 135.89535393359074,235.87070962847508 " opacity="0.5" stroke="blue"/><polygon points="191.14406765707344,220.97017167003423 136.66396637793648,231.0040145926699 " opacity="0.5" stroke="blue"/><polygon points="190.93220156062645,217.23076113873526 137.4774804364215,225.90440261181166 " opacity="0.5" stroke="blue"/><polygon points="190.75276345354035,213.44729077416943 138.33661264667273,220.5894056179943 " opacity="0.5" stroke="blue"/><polygon points="190.60602623790098,209.6296275209262 139.2423375703915,215.07658390538512 " opacity="0.5" stroke="blue"/><polygon points="190.49222193928918,205.78756246118627 140.1958881671761,209.3834800304052 " opacity="0.5" stroke="blue"/><polygon points="190.4115439991402,201.93083186878616 141.19875534964913,203.52759601908983 " opacity="0.5" stroke="blue"/><polygon points="190.364148896914,198.06913921931837 142.25268683779643,197.52639221101396 " opacity="0.5" stroke="blue"/><polygon points="190.3501570959128,194.2121777670039 143.3596853692423,191.3973060295782 " opacity="0.5" stroke="blue"/><polygon points="190.369653307429,190.369653307429 144.522006257513,185.1577889842385 " opacity="0.5" stroke="blue"/><polygon points="190.4226860684957,186.55130674792218 145.7421542224212,178.82536026151487 " opacity="0.5" stroke="blue"/><polygon points="190.50926662903606,182.76693610429447 147.02287934543995,172.41767532996732 " opacity="0.5" stroke="blue"/><polygon points="190.62936714485744,179.02641753393436 148.36717192799452,165.95260805303803 " opacity="0.5" stroke="blue"/><polygon points="190.78291817390533,175.3397250010269 149.77825595149147,159.44834485743766 " opacity="0.5" stroke="blue"/><polygon points="190.96980547468118,171.71694815024924 151.25958075411643,152.92348952950084 " opacity="0.5" stroke="blue"/><polygon points="191.18986610794045,168.1683079411543 152.81481045051123,146.39717719449447 " opacity="0.5" stroke="blue"/><polygon points="191.44288384593136,164.70416956720072 154.44781052618674,139.88919596169362 " opacity="0.5" stroke="blue"/><polygon points="191.72858389772904,161.33505215185144 156.16263093910027,133.42011457902834 " opacity="0.5" stroke="blue"/><polygon points="192.04662696487665,158.07163468039727 157.96348495699982,127.01141422348459 " opacity="0.5" stroke="blue"/><polygon points="192.39660264878688,154.92475759147476 159.85472285248926,120.6856222457745 " opacity="0.5" stroke="blue"/><polygon points="192.77802224039334,151.90541941827576 161.8407994709939,114.4664452793706 " opacity="0.5" stroke="blue"/><polygon points="193.19031093356847,149.0247678381417 163.92623458402477,108.37889860533521 " opacity="0.5" stroke="blue"/><polygon points="193.6327995170229,146.29408446294457 166.11556484728288,102.4494280282051 " opacity="0.5" stroke="blue"/><polygon points="194.10471561490297,143.72476268412126 168.41328610833597,96.70601976089395 " opacity="0.5" stroke="blue"/><polygon points="194.60517456419836,141.32827787859642 170.82378476261138,91.17829294007527 " opacity="0.5" stroke="blue"/><polygon points="195.1331700373737,139.1161492886739 173.35125685303908,85.89756840790687 " opacity="0.5" stroke="blue"/><polygon points="195.68756454126333,137.09989291423074 175.9996136649358,80.8969063226836 " opacity="0.5" stroke="blue"/><polygon points="196.2670799480214,135.2909648034675 178.77237270415128,76.21110403666502 " opacity="0.5" stroke="blue"/><polygon points="196.8702882404483,133.7006942035047 181.67253318683137,71.87664456007269 " opacity="0.5" stroke="blue"/><polygon points="197.49560268180437,132.34020613876726 184.7024355397193,67.93158489627885 " opacity="0.5" stroke="blue"/><polygon points="198.14126964854768,131.2203331276961 187.86360493827155,64.41537269310473 " opacity="0.5" stroke="blue"/><polygon points="198.80536139235394,130.35151593074315 191.15657962264657,61.36857914906187 " opacity="0.5" stroke="blue"/><polygon points="199.48577002411253,129.7436934479246 194.5807256512297,58.832536114155545 " opacity="0.5" stroke="blue"/><polygon points="200.1802030359157,129.4061821543143 198.13404089142804,56.84886603549114 " opacity="0.5" stroke="blue"/><polygon points="200.8861806957133,129.34754577695932 201.8129524070752,55.458895043600535 " opacity="0.5" stroke="blue"/></svg>
