<?xml version="1.0" encoding="UTF-8"?>
<!DOCTYPE svg PUBLIC "-//W3C//DTD SVG 1.1//EN"
    "http://www.w3.org/Graphics/SVG/1.1/DTD/svg11.dtd"><svg width="400" height="400" stroke="black" fill="none" fill-opacity="0.75" font-style="italic" font-family="CMU Serif, sans-serif" xmlns="http://www.w3.org/2000/svg" xmlns:xlink="http://www.w3.org/1999/xlink" version="1.1"><filter id="blur"><feGaussianBlur stdDeviation="2"/></filter><rect width="100%" height="100%" fill="white" stroke="none" fill-opacity="1"/><polygon points="210.66861053972653,0.0 241.19677134202962,400.0 " stroke-opacity="0.25" stroke="green"/><polygon points="227.88778388588503,0.0 307.6884990509919,400.0 " stroke-opacity="0.25" stroke="green"/><polygon points="260.363315280792,5.684341886080802e-14 400.0,323.3654807607346 " stroke-opacity="0.25" stroke="green"/><polygon points="344.49755047231474,-5.684341886080802e-14 400.0,53.69314930241842 " stroke-opacity="0.25" stroke="green"/><polygon points="0.0,13.454144440459828 17.559425577785362,0.0 " stroke-opacity="0.25" stroke="green"/><polygon points="0.0,71.24107261009897 67.51805602342858,0.0 " stroke-opacity="0.25" stroke="green"/><polygon points="0.0,116.18646118648508 90.78003491007527,-5.684341886080802e-14 " stroke-opacity="0.25" stroke="green"/><polygon points="0.0,152.14277204759387 104.23239757222697,0.0 " stroke-opacity="0.25" stroke="green"/><polygon points="0.0,181.56157184304658 112.99972054441992,0.0 " stroke-opacity="0.25" stroke="green"/><polygon points="0.0,206.07723833925715 119.16650146884098,0.0 " stroke-opacity="0.25" stroke="green"/><polygon points="0.0,226.82126383605072 123.74035233473951,0.0 " stroke-opacity="0.25" stroke="green"/><polygon points="0.0,244.60185711901659 127.26787730953035,0.0 " stroke-opacity="0.25" stroke="green"/><polygon points="0.0,260.0117046309204 130.07126441670158,0.0 " stroke-opacity="0.25" stroke="green"/><polygon points="236.73333805172615,0.0 215.48529541157097,400.0 " stroke-opacity="0.25" stroke="green"/><polygon points="262.1794126728727,-5.684341886080802e-14 274.60628554422607,400.00000000000006 " stroke-opacity="0.25" stroke="green"/><polygon points="310.4623271245441,0.0 386.78601272701474,400.0 " stroke-opacity="0.25" stroke="green"/><polygon points="-5.684341886080802e-14,39.5319363489462 29.2381862526278,0.0 " stroke-opacity="0.25" stroke="green"/><polygon points="0.0,99.21669497256585 62.47233333347668,0.0 " stroke-opacity="0.25" stroke="green"/><polygon points="0.0,144.53463275035745 81.77617596402094,5.684341886080802e-14 " stroke-opacity="0.25" stroke="green"/><polygon points="5.684341886080802e-14,180.11587962664078 94.39063819374542,0.0 " stroke-opacity="0.25" stroke="green"/><polygon points="0.0,208.79397328181497 103.27934312889269,0.0 " stroke-opacity="0.25" stroke="green"/><polygon points="0.0,232.4002003153561 109.88053148673443,0.0 " stroke-opacity="0.25" stroke="green"/><polygon points="5.684341886080802e-14,252.17072761414164 114.9765732557847,0.0 " stroke-opacity="0.25" stroke="green"/><polygon points="0.0,268.9701854160631 119.02957198812034,5.684341886080802e-14 " stroke-opacity="0.25" stroke="green"/><polygon points="263.7382216678015,-5.684341886080802e-14 189.56557983823916,400.00000000000006 " stroke-opacity="0.25" stroke="green"/><polygon points="298.4750164091528,-5.684341886080802e-14 242.05783868788689,400.00000000000006 " stroke-opacity="0.25" stroke="green"/><polygon points="365.639340067542,5.684341886080802e-14 343.5527258583705,399.99999999999994 " stroke-opacity="0.25" stroke="green"/><polygon points="0.0,78.7054782417237 37.36211417757161,0.0 " stroke-opacity="0.25" stroke="green"/><polygon points="0.0,138.53805619495782 61.493151149134576,-5.684341886080802e-14 " stroke-opacity="0.25" stroke="green"/><polygon points="-5.684341886080802e-14,182.69928289107264 77.38492796260981,-5.684341886080802e-14 " stroke-opacity="0.25" stroke="green"/><polygon points="0.0,216.63317167217016 88.64189444378616,0.0 " stroke-opacity="0.25" stroke="green"/><polygon points="-5.684341886080802e-14,243.52385228953028 97.03360840479553,5.684341886080802e-14 " stroke-opacity="0.25" stroke="green"/><polygon points="0.0,265.3579538372848 103.5305113923114,0.0 " stroke-opacity="0.25" stroke="green"/><polygon points="0.0,283.43917551470486 108.70925979969441,0.0 " stroke-opacity="0.25" stroke="green"/><polygon points="292.5848226328358,0.0 162.61694413967322,400.0 " stroke-opacity="0.25" stroke="green"/><polygon points="338.5862949432601,0.0 208.61841645009738,400.0 " stroke-opacity="0.25" stroke="green"/><polygon points="399.99999999999994,94.14399902116683 300.62136107094574,400.0 " stroke-opacity="0.25" stroke="green"/><polygon points="5.684341886080802e-14,51.01564775072538 16.575988770290508,-5.684341886080802e-14 " stroke-opacity="0.25" stroke="green"/><polygon points="0.0,135.96243216009503 44.17687215654499,-5.684341886080802e-14 " stroke-opacity="0.25" stroke="green"/><polygon points="0.0,192.59362176634144 62.57746108071473,0.0 " stroke-opacity="0.25" stroke="green"/><polygon points="0.0,233.04447148508896 75.72073888369304,-5.684341886080802e-14 " stroke-opacity="0.25" stroke="green"/><polygon points="-5.684341886080802e-14,263.38260877414945 85.5781972359268,0.0 " stroke-opacity="0.25" stroke="green"/><polygon points="0.0,286.9789377767522 93.24510928766418,0.0 " stroke-opacity="0.25" stroke="green"/><polygon points="-5.684341886080802e-14,305.8560009788343 99.37863892905408,0.0 " stroke-opacity="0.25" stroke="green"/><polygon points="324.405364097385,0.0 133.65908612312563,400.0 " stroke-opacity="0.25" stroke="green"/><polygon points="384.9967017116753,0.0 172.56548085621714,400.0 " stroke-opacity="0.25" stroke="green"/><polygon points="400.0,174.77793701286478 254.63423680669234,400.0 " stroke-opacity="0.25" stroke="green"/><polygon points="0.0,3.8131557147403328 0.7140216940368305,-5.684341886080802e-14 " stroke-opacity="0.25" stroke="green"/><polygon points="-5.684341886080802e-14,141.85215639476422 30.319610802474045,-5.684341886080802e-14 " stroke-opacity="0.25" stroke="green"/><polygon points="-5.684341886080802e-14,217.4139973481206 50.37070620190619,0.0 " stroke-opacity="0.25" stroke="green"/><polygon points="-5.684341886080802e-14,265.08738909674196 64.84989167921808,5.684341886080802e-14 " stroke-opacity="0.25" stroke="green"/><polygon points="0.0,297.9066259236374 75.79636535917702,0.0 " stroke-opacity="0.25" stroke="green"/><polygon points="-5.684341886080802e-14,321.8783513729783 84.36244827137982,-5.684341886080802e-14 " stroke-opacity="0.25" stroke="green"/><polygon points="-5.684341886080802e-14,340.1553111945731 91.24844708696682,0.0 " stroke-opacity="0.25" stroke="green"/><polygon points="360.75326060900636,0.0 101.39400735617421,400.0 " stroke-opacity="0.25" stroke="green"/><polygon points="400.0,53.55591141451774 131.4694218457122,400.0 " stroke-opacity="0.25" stroke="green"/><polygon points="400.0,212.4660785456405 200.27773083063664,400.0 " stroke-opacity="0.25" stroke="green"/><polygon points="0.0,176.42649995738012 20.098998320396305,0.0 " stroke-opacity="0.25" stroke="green"/><polygon points="-5.684341886080802e-14,279.2926687898957 40.958417743528145,0.0 " stroke-opacity="0.25" stroke="green"/><polygon points="0.0,329.53958443105216 56.215763486206384,0.0 " stroke-opacity="0.25" stroke="green"/><polygon points="0.0,359.31861622877943 67.86063556957464,0.0 " stroke-opacity="0.25" stroke="green"/><polygon points="0.0,379.01985170604183 77.04021096106257,5.684341886080802e-14 " stroke-opacity="0.25" stroke="green"/><polygon points="-8.526512829121202e-14,393.0187080171362 84.46243120256389,0.0 " stroke-opacity="0.25" stroke="green"/><polygon points="400.00000000000006,4.62987923345807 63.93730391900223,400.00000000000006 " stroke-opacity="0.25" stroke="green"/><polygon points="400.0,105.81450486652257 81.38974202930143,400.0 " stroke-opacity="0.25" stroke="green"/><polygon points="400.00000000000006,238.08233851626022 126.69357742819382,400.00000000000006 " stroke-opacity="0.25" stroke="green"/><polygon points="13.419639648960185,-5.684341886080802e-14 2.3506263509864027,400.00000000000006 " stroke-opacity="0.25" stroke="green"/><polygon points="34.34243219611446,0.0 5.650276433442258,400.0 " stroke-opacity="0.25" stroke="green"/><polygon points="49.86352636308635,0.0 8.098046229583503,400.0 " stroke-opacity="0.25" stroke="green"/><polygon points="61.83562202453962,-5.684341886080802e-14 9.986117640101611,400.00000000000006 " stroke-opacity="0.25" stroke="green"/><polygon points="71.35108329483344,-5.684341886080802e-14 11.486763048422091,400.00000000000006 " stroke-opacity="0.25" stroke="green"/><polygon points="79.09569014886588,0.0 12.7081340765439,400.0 " stroke-opacity="0.25" stroke="green"/><polygon points="399.99999999999994,52.49021723425386 18.304665100232256,400.0 " stroke-opacity="0.25" stroke="green"/><polygon points="399.99999999999994,144.00896292728845 14.996826182022659,400.00000000000006 " stroke-opacity="0.25" stroke="green"/><polygon points="400.00000000000006,258.9138194016191 4.394511444130529,400.0 " stroke-opacity="0.25" stroke="green"/><polygon points="0.0,390.70082603320776 221.66066536724216,400.0 " stroke-opacity="0.25" stroke="green"/><polygon points="0.0,376.10459512227885 41.38805531564225,400.0 " stroke-opacity="0.25" stroke="green"/><polygon points="0.0,355.46031998478355 33.37320786495357,400.0 " stroke-opacity="0.25" stroke="green"/><polygon points="0.0,324.02661897014923 30.54083774363818,400.0 " stroke-opacity="0.25" stroke="green"/><polygon points="0.0,270.35283114401045 29.092455436718495,400.0 " stroke-opacity="0.25" stroke="green"/><polygon points="5.684341886080802e-14,157.91514546455494 28.21284055766543,400.00000000000006 " stroke-opacity="0.25" stroke="green"/><polygon points="9.986743233986033,0.0 27.62195265400979,400.0 " stroke-opacity="0.25" stroke="green"/><polygon points="30.371983870624575,0.0 27.197674986235,400.0 " stroke-opacity="0.25" stroke="green"/><polygon points="45.71951328486327,-5.684341886080802e-14 26.878247116726556,400.00000000000006 " stroke-opacity="0.25" stroke="green"/><polygon points="57.69138358862659,0.0 26.629076783056092,400.0 " stroke-opacity="0.25" stroke="green"/><polygon points="67.29095559607927,-5.684341886080802e-14 26.42928105360869,400.00000000000006 " stroke-opacity="0.25" stroke="green"/><polygon points="75.15979233582645,0.0 26.26550708794653,400.0 " stroke-opacity="0.25" stroke="green"/><polygon points="0.0,371.40284747152833 400.0,90.24025591268583 " stroke-opacity="0.25" stroke="green"/><polygon points="0.0,360.99350726545504 400.0,174.5913902558935 " stroke-opacity="0.25" stroke="green"/><polygon points="5.684341886080802e-14,348.2772183009548 399.99999999999994,277.63667243101014 " stroke-opacity="0.25" stroke="green"/><polygon points="0.0,332.39149844936003 365.58154197756426,400.00000000000006 " stroke-opacity="0.25" stroke="green"/><polygon points="0.0,311.98272612305425 135.53471625358134,400.0 " stroke-opacity="0.25" stroke="green"/><polygon points="0.0,284.79851072906933 90.84716875899379,399.99999999999994 " stroke-opacity="0.25" stroke="green"/><polygon points="0.0,246.79327693926425 71.8260987675111,400.00000000000006 " stroke-opacity="0.25" stroke="green"/><polygon points="-5.684341886080802e-14,189.90033839797948 61.29246256965354,400.0 " stroke-opacity="0.25" stroke="green"/><polygon points="-5.684341886080802e-14,95.38397366335609 54.60169586657,400.0 " stroke-opacity="0.25" stroke="green"/><polygon points="9.387252936091073,0.0 49.97528860173969,400.0 " stroke-opacity="0.25" stroke="green"/><polygon points="28.792466885210473,0.0 46.58552949944101,400.0 " stroke-opacity="0.25" stroke="green"/><polygon points="43.622151490663384,0.0 43.99503714479039,400.0 " stroke-opacity="0.25" stroke="green"/><polygon points="55.32392737250595,-5.684341886080802e-14 41.95093696570754,400.00000000000006 " stroke-opacity="0.25" stroke="green"/><polygon points="64.79300269679385,0.0 40.296851401125934,400.0 " stroke-opacity="0.25" stroke="green"/><polygon points="72.61272541749939,-5.684341886080802e-14 38.9308795370967,400.00000000000006 " stroke-opacity="0.25" stroke="green"/><polygon points="0.0,334.5194873487739 400.0,121.68934002393729 " stroke-opacity="0.25" stroke="green"/><polygon points="0.0,321.7847787586321 400.0,200.76956959163286 " stroke-opacity="0.25" stroke="green"/><polygon points="0.0,306.5258889780573 400.0,295.5245063265121 " stroke-opacity="0.25" stroke="green"/><polygon points="0.0,287.9097704822886 363.8777661403036,400.0 " stroke-opacity="0.25" stroke="green"/><polygon points="5.684341886080802e-14,264.69149439892766 186.23618079528862,399.99999999999994 " stroke-opacity="0.25" stroke="green"/><polygon points="0.0,234.92379107543974 130.69216260092412,400.00000000000006 " stroke-opacity="0.25" stroke="green"/><polygon points="0.0,195.38043170345708 103.56064182729435,400.0 " stroke-opacity="0.25" stroke="green"/><polygon points="0.0,140.2999253171434 87.48103953670434,400.00000000000006 " stroke-opacity="0.25" stroke="green"/><polygon points="5.684341886080802e-14,58.286305077951056 76.8430834990666,399.99999999999994 " stroke-opacity="0.25" stroke="green"/><polygon points="11.160804142199652,5.684341886080802e-14 69.2842063826289,399.99999999999994 " stroke-opacity="0.25" stroke="green"/><polygon points="29.29262246692204,0.0 63.636590838862844,400.0 " stroke-opacity="0.25" stroke="green"/><polygon points="43.354370271724235,0.0 59.25670217835071,400.0 " stroke-opacity="0.25" stroke="green"/><polygon points="54.57817883337398,0.0 55.76076180668929,400.0 " stroke-opacity="0.25" stroke="green"/><polygon points="63.744428568941174,0.0 52.905700413643785,400.0 " stroke-opacity="0.25" stroke="green"/><polygon points="71.37140365620945,0.0 50.53008522252739,400.0 " stroke-opacity="0.25" stroke="green"/><polygon points="0.0,303.1527847307963 400.0,149.07160075431477 " stroke-opacity="0.25" stroke="green"/><polygon points="-5.684341886080802e-14,288.78478820522474 400.00000000000006,224.35892791023733 " stroke-opacity="0.25" stroke="green"/><polygon points="0.0,271.8074141313307 400.0,313.31921641496234 " stroke-opacity="0.25" stroke="green"/><polygon points="0.0,251.4388332068512 352.4366163138664,400.0 " stroke-opacity="0.25" stroke="green"/><polygon points="0.0,226.55022166837193 214.19263806336264,400.0 " stroke-opacity="0.25" stroke="green"/><polygon points="0.0,195.44923039368177 157.95984599407828,400.0 " stroke-opacity="0.25" stroke="green"/><polygon points="0.0,155.4781891817187 127.45497028955744,399.99999999999994 " stroke-opacity="0.25" stroke="green"/><polygon points="-5.684341886080802e-14,102.21135634061741 108.30847089050538,400.00000000000006 " stroke-opacity="0.25" stroke="green"/><polygon points="-5.684341886080802e-14,27.691286394989646 95.17216277247664,400.0 " stroke-opacity="0.25" stroke="green"/><polygon points="14.852100385003212,0.0 85.60000993874233,400.0 " stroke-opacity="0.25" stroke="green"/><polygon points="31.54336262226724,-5.684341886080802e-14 78.31474253972448,400.00000000000006 " stroke-opacity="0.25" stroke="green"/><polygon points="44.672433256140664,5.684341886080802e-14 72.58427177551718,399.99999999999994 " stroke-opacity="0.25" stroke="green"/><polygon points="55.26970664606338,5.684341886080802e-14 67.95885943409931,399.99999999999994 " stroke-opacity="0.25" stroke="green"/><polygon points="64.00312419266103,5.684341886080802e-14 64.14696784496638,399.99999999999994 " stroke-opacity="0.25" stroke="green"/><polygon points="71.32466325032411,0.0 60.951321581117895,400.0 " stroke-opacity="0.25" stroke="green"/><polygon points="-5.684341886080802e-14,275.4982888321814 400.00000000000006,173.8124145288455 " stroke-opacity="0.25" stroke="green"/><polygon points="0.0,259.8309839880128 400.0,246.50638657620073 " stroke-opacity="0.25" stroke="green"/><polygon points="0.0,241.50402854753352 400.0,331.54074313939725 " stroke-opacity="0.25" stroke="green"/><polygon points="0.0,219.77736133697647 339.1278737875474,400.00000000000006 " stroke-opacity="0.25" stroke="green"/><polygon points="5.684341886080802e-14,193.60828335032437 229.22122346821064,400.0 " stroke-opacity="0.25" stroke="green"/><polygon points="0.0,161.4791417104129 176.23656057030445,400.00000000000006 " stroke-opacity="0.25" stroke="green"/><polygon points="0.0,121.09214729048571 145.04884547869554,400.00000000000006 " stroke-opacity="0.25" stroke="green"/><polygon points="0.0,68.79417821659669 124.50238928716996,400.0 " stroke-opacity="0.25" stroke="green"/><polygon points="0.4367598425356505,-5.684341886080802e-14 109.94470532178046,400.00000000000006 " stroke-opacity="0.25" stroke="green"/><polygon points="20.043772480646936,0.0 99.09048499124063,400.0 " stroke-opacity="0.25" stroke="green"/><polygon points="35.22565144828769,0.0 90.68596858744866,400.0 " stroke-opacity="0.25" stroke="green"/><polygon points="47.32855981144081,0.0 83.98593546977465,400.0 " stroke-opacity="0.25" stroke="green"/><polygon points="57.20291203063928,0.0 78.51960581585243,400.0 " stroke-opacity="0.25" stroke="green"/><polygon points="65.41234498629632,0.0 73.97495662659783,400.0 " stroke-opacity="0.25" stroke="green"/><polygon points="72.34520343397892,-5.684341886080802e-14 70.13700463969889,400.00000000000006 " stroke-opacity="0.25" stroke="green"/><polygon points="0.0,250.33565510913368 400.0,196.89499179806785 " stroke-opacity="0.25" stroke="green"/><polygon points="5.684341886080802e-14,233.49916852967527 399.99999999999994,268.0175739591482 " stroke-opacity="0.25" stroke="green"/><polygon points="0.0,213.94458073561975 400.0,350.622265290985 " stroke-opacity="0.25" stroke="green"/><polygon points="-5.684341886080802e-14,190.9558744655082 325.6419626185627,400.0 " stroke-opacity="0.25" stroke="green"/><polygon points="5.684341886080802e-14,163.54133416268039 236.45866583731973,400.0 " stroke-opacity="0.25" stroke="green"/><polygon points="-5.684341886080802e-14,130.2867170289996 188.0411348480032,399.99999999999994 " stroke-opacity="0.25" stroke="green"/><polygon points="0.0,89.10340144968178 157.63808364021034,400.0 " stroke-opacity="0.25" stroke="green"/><polygon points="-5.684341886080802e-14,36.772011321724506 136.7726438653508,400.0 " stroke-opacity="0.25" stroke="green"/><polygon points="8.989877352688268,-5.684341886080802e-14 121.56532039007789,400.00000000000006 " stroke-opacity="0.25" stroke="green"/><polygon points="26.372987645544782,-5.684341886080802e-14 109.98942245089974,400.00000000000006 " stroke-opacity="0.25" stroke="green"/><polygon points="40.04785989485015,0.0 100.88294364346156,400.0 " stroke-opacity="0.25" stroke="green"/><polygon points="51.086714207986006,0.0 93.53186269525924,400.0 " stroke-opacity="0.25" stroke="green"/><polygon points="60.18473956754903,0.0 87.47323387475203,400.0 " stroke-opacity="0.25" stroke="green"/><polygon points="67.81242469682286,-5.684341886080802e-14 82.39374561971017,400.00000000000006 " stroke-opacity="0.25" stroke="green"/><polygon points="74.29955563510178,-5.684341886080802e-14 78.07378420921043,400.00000000000006 " stroke-opacity="0.25" stroke="green"/><polygon points="0.0,226.78041445776148 400.0,219.05389094276646 " stroke-opacity="0.25" stroke="green"/><polygon points="5.684341886080802e-14,208.77408876645706 399.99999999999994,289.5243186433408 " stroke-opacity="0.25" stroke="green"/><polygon points="0.0,187.9601445038461 400.0,370.98277826847345 " stroke-opacity="0.25" stroke="green"/><polygon points="0.0,163.6263954703177 312.4670481132647,400.0 " stroke-opacity="0.25" stroke="green"/><polygon points="0.0,134.79753476994534 238.78937225089862,400.0 " stroke-opacity="0.25" stroke="green"/><polygon points="0.0,100.10125513947689 195.14166311913004,400.0 " stroke-opacity="0.25" stroke="green"/><polygon points="0.0,57.54336442754814 166.2723952305007,400.0 " stroke-opacity="0.25" stroke="green"/><polygon points="-5.684341886080802e-14,4.110504448167887 145.7626188176815,400.00000000000006 " stroke-opacity="0.25" stroke="green"/><polygon points="18.227916960154005,0.0 130.44063115496522,400.0 " stroke-opacity="0.25" stroke="green"/><polygon points="33.536477959746065,-5.684341886080802e-14 118.55910262775515,400.00000000000006 " stroke-opacity="0.25" stroke="green"/><polygon points="45.75456793492617,5.684341886080802e-14 109.07620057105687,399.99999999999994 " stroke-opacity="0.25" stroke="green"/><polygon points="55.732233741253935,0.0 101.33217283938363,400.0 " stroke-opacity="0.25" stroke="green"/><polygon points="64.03395882279284,-5.684341886080802e-14 94.88890339139377,400.00000000000006 " stroke-opacity="0.25" stroke="green"/><polygon points="71.04928716047795,0.0 89.44405303777967,400.0 " stroke-opacity="0.25" stroke="green"/><polygon points="77.05571971748797,0.0 84.78224323248318,400.0 " stroke-opacity="0.25" stroke="green"/><polygon points="-5.684341886080802e-14,204.14212006757646 400.00000000000006,240.88754339241308 " stroke-opacity="0.25" stroke="green"/><polygon points="0.0,184.867837650166 400.0,311.582436584046 " stroke-opacity="0.25" stroke="green"/><polygon points="0.0,162.64905160952875 400.0,393.07728406909325 " stroke-opacity="0.25" stroke="green"/><polygon points="0.0,136.75521874703892 299.7409558673556,400.0 " stroke-opacity="0.25" stroke="green"/><polygon points="5.684341886080802e-14,106.1923401097229 237.92075180953566,400.00000000000006 " stroke-opacity="0.25" stroke="green"/><polygon points="0.0,69.57243011117231 198.78494091239605,400.0 " stroke-opacity="0.25" stroke="green"/><polygon points="0.0,24.89684278841321 171.78339725237754,400.0 " stroke-opacity="0.25" stroke="green"/><polygon points="10.876280969849972,0.0 152.03014128900804,400.0 " stroke-opacity="0.25" stroke="green"/><polygon points="27.88175780962436,-5.684341886080802e-14 136.95195693436716,400.00000000000006 " stroke-opacity="0.25" stroke="green"/><polygon points="41.288367628134125,0.0 125.06476692382756,400.0 " stroke-opacity="0.25" stroke="green"/><polygon points="52.12923238092736,0.0 115.45253676724508,400.0 " stroke-opacity="0.25" stroke="green"/><polygon points="61.07657259812055,0.0 107.51923112991129,400.0 " stroke-opacity="0.25" stroke="green"/><polygon points="68.58664234518278,0.0 100.86030487754296,400.0 " stroke-opacity="0.25" stroke="green"/><polygon points="74.9800114002777,-5.684341886080802e-14 95.19151956982934,400.00000000000006 " stroke-opacity="0.25" stroke="green"/><polygon points="80.48851333572662,-5.684341886080802e-14 90.3073161756423,400.00000000000006 " stroke-opacity="0.25" stroke="green"/><polygon points="0.0,181.83508591763132 400.0,262.93165055278115 " stroke-opacity="0.25" stroke="green"/><polygon points="-5.684341886080802e-14,161.10818612455586 400.00000000000006,334.7392026780288 " stroke-opacity="0.25" stroke="green"/><polygon points="0.0,137.23616261388432 375.0999352878232,400.0 " stroke-opacity="0.25" stroke="green"/><polygon points="0.0,109.44437598803536 287.4780832679676,400.0 " stroke-opacity="0.25" stroke="green"/><polygon points="0.0,76.68104343326092 234.90497205605425,400.0 " stroke-opacity="0.25" stroke="green"/><polygon points="0.0,37.4811217435782 199.85623124811198,400.0 " stroke-opacity="0.25" stroke="green"/><polygon points="4.37151652466784,0.0 174.8214163852961,400.0 " stroke-opacity="0.25" stroke="green"/><polygon points="23.14762767177973,0.0 156.0453052381842,400.0 " stroke-opacity="0.25" stroke="green"/><polygon points="37.75126967508899,0.0 141.4416632348749,400.0 " stroke-opacity="0.25" stroke="green"/><polygon points="49.43418327773642,0.0 129.75874963222753,400.0 " stroke-opacity="0.25" stroke="green"/><polygon points="58.99293077081157,0.0 120.20000213915239,400.0 " stroke-opacity="0.25" stroke="green"/><polygon points="66.95855368170754,0.0 112.23437922825639,400.0 " stroke-opacity="0.25" stroke="green"/><polygon points="73.69869614477334,0.0 105.4942367651906,400.0 " stroke-opacity="0.25" stroke="green"/><polygon points="79.47596111311547,0.0 99.71697179684847,400.0 " stroke-opacity="0.25" stroke="green"/><polygon points="84.48292408567866,0.0 94.71000882428528,400.0 " stroke-opacity="0.25" stroke="green"/><polygon points="0.0,159.31467699203063 400.0,285.7149864679589 " stroke-opacity="0.25" stroke="green"/><polygon points="0.0,136.85927123375677 400.0,359.5910030004552 " stroke-opacity="0.25" stroke="green"/><polygon points="0.0,110.97338634353156 346.3682570209103,400.0 " stroke-opacity="0.25" stroke="green"/><polygon points="0.0,80.80590664328065 275.64554107222904,400.0 " stroke-opacity="0.25" stroke="green"/><polygon points="5.684341886080802e-14,45.198778653816646 230.4106072179623,400.0 " stroke-opacity="0.25" stroke="green"/><polygon points="0.0,2.5349367508816556 198.98883983384567,399.99999999999994 " stroke-opacity="0.25" stroke="green"/><polygon points="19.37447743116408,-5.684341886080802e-14 175.8912280917569,400.00000000000006 " stroke-opacity="0.25" stroke="green"/><polygon points="35.188889619611075,5.684341886080802e-14 158.1968580171132,399.99999999999994 " stroke-opacity="0.25" stroke="green"/><polygon points="47.69122302309128,0.0 144.20829420572036,400.0 " stroke-opacity="0.25" stroke="green"/><polygon points="57.823342180166634,0.0 132.87170680244972,400.0 " stroke-opacity="0.25" stroke="green"/><polygon points="66.20091174664788,0.0 123.49824325103911,400.0 " stroke-opacity="0.25" stroke="green"/><polygon points="73.2433613858532,0.0 115.61861366612327,400.0 " stroke-opacity="0.25" stroke="green"/><polygon points="79.24629967048583,0.0 108.90206863885169,400.0 " stroke-opacity="0.25" stroke="green"/><polygon points="84.4240656348078,0.0 103.10878931611231,400.0 " stroke-opacity="0.25" stroke="green"/><polygon points="88.93586123434125,-5.684341886080802e-14 98.06064841223383,400.00000000000006 " stroke-opacity="0.25" stroke="green"/><polygon points="0.0,136.0233865217489 400.0,309.81091887877903 " stroke-opacity="0.25" stroke="green"/><polygon points="0.0,111.453193103295 400.0,386.84521430650284 " stroke-opacity="0.25" stroke="green"/><polygon points="0.0,83.05191651302235 322.72560624421226,400.00000000000006 " stroke-opacity="0.25" stroke="green"/><polygon points="5.684341886080802e-14,49.84775645283656 264.1923694162899,400.0 " stroke-opacity="0.25" stroke="green"/><polygon points="0.0,10.509876222008614 224.8722278099242,400.0 " stroke-opacity="0.25" stroke="green"/><polygon points="16.580788846584085,0.0 196.63902507533928,400.0 " stroke-opacity="0.25" stroke="green"/><polygon points="33.632395715224874,-5.684341886080802e-14 175.38296451903582,400.00000000000006 " stroke-opacity="0.25" stroke="green"/><polygon points="46.933534966519346,0.0 158.80213295451614,400.0 " stroke-opacity="0.25" stroke="green"/><polygon points="57.598973263476125,0.0 145.5068931541804,400.0 " stroke-opacity="0.25" stroke="green"/><polygon points="66.34150810267977,0.0 134.6086915131688,400.0 " stroke-opacity="0.25" stroke="green"/><polygon points="73.63816614813385,-5.684341886080802e-14 125.51287981239308,400.00000000000006 " stroke-opacity="0.25" stroke="green"/><polygon points="79.82023982186988,0.0 117.80647809994633,400.0 " stroke-opacity="0.25" stroke="green"/><polygon points="85.12499157496471,0.0 111.19372157977865,400.0 " stroke-opacity="0.25" stroke="green"/><polygon points="89.72680396350476,5.684341886080802e-14 105.45722979028953,399.99999999999994 " stroke-opacity="0.25" stroke="green"/><polygon points="93.75671599185529,0.0 100.43365314023606,400.0 " stroke-opacity="0.25" stroke="green"/><polygon points="0.0,111.33496416010678 400.0,335.8956827470947 " stroke-opacity="0.25" stroke="green"/><polygon points="0.0,84.11631785047643 379.1164063524672,400.0 " stroke-opacity="0.25" stroke="green"/><polygon points="5.684341886080802e-14,52.50346285337804 302.46026407591694,400.0 " stroke-opacity="0.25" stroke="green"/><polygon points="0.0,15.338852402788604 253.06158472165487,400.0 " stroke-opacity="0.25" stroke="green"/><polygon points="14.766438300955826,0.0 218.57661809872758,400.0 " stroke-opacity="0.25" stroke="green"/><polygon points="33.10366192604212,-5.684341886080802e-14 193.13736495385874,400.00000000000006 " stroke-opacity="0.25" stroke="green"/><polygon points="47.18857776772646,0.0 173.59734368637558,400.0 " stroke-opacity="0.25" stroke="green"/><polygon points="58.34663575258722,0.0 158.11775596440046,400.0 " stroke-opacity="0.25" stroke="green"/><polygon points="67.40427403600856,-5.684341886080802e-14 145.5520831069574,400.00000000000006 " stroke-opacity="0.25" stroke="green"/><polygon points="74.9035551343456,0.0 135.14832111083206,400.0 " stroke-opacity="0.25" stroke="green"/><polygon points="81.21479352233017,0.0 126.3927322445923,400.0 " stroke-opacity="0.25" stroke="green"/><polygon points="86.59958429474509,-5.684341886080802e-14 118.92240530784633,400.00000000000006 " stroke-opacity="0.25" stroke="green"/><polygon points="91.24797320568665,0.0 112.4736895895372,400.0 " stroke-opacity="0.25" stroke="green"/><polygon points="95.30135304595733,-5.684341886080802e-14 106.85043069510526,400.00000000000006 " stroke-opacity="0.25" stroke="green"/><polygon points="98.86709646663414,0.0 101.90367041214992,400.0 " stroke-opacity="0.25" stroke="green"/><polygon points="0.0,84.48428928198474 400.0,364.82641407904214 " stroke-opacity="0.25" stroke="green"/><polygon points="0.0,53.872388098509845 347.3497669478811,400.0 " stroke-opacity="0.25" stroke="green"/><polygon points="0.0,18.06387128480185 284.54014903799043,400.0 " stroke-opacity="0.25" stroke="green"/><polygon points="13.917652718558713,0.0 242.1952192650432,400.0 " stroke-opacity="0.25" stroke="green"/><polygon points="33.622896761249166,0.0 211.71437088466385,400.0 " stroke-opacity="0.25" stroke="green"/><polygon points="48.48557059063492,-5.684341886080802e-14 188.7242010324622,400.00000000000006 " stroke-opacity="0.25" stroke="green"/><polygon points="60.09542780832058,0.0 170.7656161601577,400.0 " stroke-opacity="0.25" stroke="green"/><polygon points="69.41499766450093,0.0 156.3497380750568,400.0 " stroke-opacity="0.25" stroke="green"/><polygon points="77.0611459955688,0.0 144.52237438099365,400.0 " stroke-opacity="0.25" stroke="green"/><polygon points="83.44746017260528,0.0 134.64377182636446,400.0 " stroke-opacity="0.25" stroke="green"/><polygon points="88.86160988236391,0.0 126.26895159808902,400.0 " stroke-opacity="0.25" stroke="green"/><polygon points="93.50987769971985,0.0 119.07882767649365,400.0 " stroke-opacity="0.25" stroke="green"/><polygon points="97.54404020742511,0.0 112.83862605946327,400.0 " stroke-opacity="0.25" stroke="green"/><polygon points="101.0782551073252,0.0 107.37176311302386,400.0 " stroke-opacity="0.25" stroke="green"/><polygon points="104.20003628519655,0.0 102.5428689083507,400.0 " stroke-opacity="0.25" stroke="green"/><polygon points="-5.684341886080802e-14,54.46523480169583 400.00000000000006,397.7591506834153 " stroke-opacity="0.25" stroke="green"/><polygon points="-5.684341886080802e-14,19.394987930315096 320.9461461104674,400.0 " stroke-opacity="0.25" stroke="green"/><polygon points="14.013885032511325,0.0 268.2988281653796,400.0 " stroke-opacity="0.25" stroke="green"/><polygon points="35.21977201578673,0.0 231.53627522695527,400.0 " stroke-opacity="0.25" stroke="green"/><polygon points="50.86612447431301,-5.684341886080802e-14 204.41173848847956,400.00000000000006 " stroke-opacity="0.25" stroke="green"/><polygon points="62.88587430659055,0.0 183.57428472555907,400.0 " stroke-opacity="0.25" stroke="green"/><polygon points="72.40896201264826,0.0 167.0650476345893,400.0 " stroke-opacity="0.25" stroke="green"/><polygon points="80.14008503384713,0.0 153.6623628252036,400.0 " stroke-opacity="0.25" stroke="green"/><polygon points="86.54154049701874,0.0 142.56479140395564,400.0 " stroke-opacity="0.25" stroke="green"/><polygon points="91.92919755030329,0.0 133.22474220951938,400.0 " stroke-opacity="0.25" stroke="green"/><polygon points="96.52621798806406,5.684341886080802e-14 125.25534166826954,399.99999999999994 " stroke-opacity="0.25" stroke="green"/><polygon points="100.4947431524596,-5.684341886080802e-14 118.37550134097626,400.00000000000006 " stroke-opacity="0.25" stroke="green"/><polygon points="103.95541591086814,0.0 112.37607459764342,400.0 " stroke-opacity="0.25" stroke="green"/><polygon points="106.99985865647767,0.0 107.09822473964209,400.0 " stroke-opacity="0.25" stroke="green"/><polygon points="109.69890435973817,-5.684341886080802e-14 102.41915563833088,400.00000000000006 " stroke-opacity="0.25" stroke="green"/><polygon points="0.0,19.86501326941081 365.0942002036777,400.0 " stroke-opacity="0.25" stroke="green"/><polygon points="15.037610265836776,-5.684341886080802e-14 298.2041598400205,400.00000000000006 " stroke-opacity="0.25" stroke="green"/><polygon points="37.95040198176315,0.0 253.2806790244457,400.0 " stroke-opacity="0.25" stroke="green"/><polygon points="54.399937697422246,-5.684341886080802e-14 221.0292444847654,400.00000000000006 " stroke-opacity="0.25" stroke="green"/><polygon points="66.78292454450832,-5.684341886080802e-14 196.750803037671,400.00000000000006 " stroke-opacity="0.25" stroke="green"/><polygon points="76.44143276826551,0.0 177.81405302150273,400.0 " stroke-opacity="0.25" stroke="green"/><polygon points="84.18550183438687,-5.684341886080802e-14 162.63080767804792,400.00000000000006 " stroke-opacity="0.25" stroke="green"/><polygon points="90.53300635633983,0.0 150.1857070917007,400.0 " stroke-opacity="0.25" stroke="green"/><polygon points="95.83048353351838,0.0 139.79932042653883,400.0 " stroke-opacity="0.25" stroke="green"/><polygon points="100.31857821987481,0.0 130.99983243569432,400.0 " stroke-opacity="0.25" stroke="green"/><polygon points="104.1696195982479,0.0 123.44936954901436,400.0 " stroke-opacity="0.25" stroke="green"/><polygon points="107.51025699936585,0.0 116.89961943294274,400.0 " stroke-opacity="0.25" stroke="green"/><polygon points="110.43565485822955,0.0 111.16399994929692,400.0 " stroke-opacity="0.25" stroke="green"/><polygon points="113.0187041192159,0.0 106.09959900853558,400.0 " stroke-opacity="0.25" stroke="green"/><polygon points="115.31617847747685,0.0 101.59510446517226,400.0 " stroke-opacity="0.25" stroke="green"/><polygon points="16.989857517351595,0.0 334.13553328469186,400.0 " stroke-opacity="0.25" stroke="green"/><polygon points="41.92549409599201,-5.684341886080802e-14 278.0404504893726,400.00000000000006 " stroke-opacity="0.25" stroke="green"/><polygon points="59.209613197749604,0.0 239.15818297638847,400.0 " stroke-opacity="0.25" stroke="green"/><polygon points="71.89556388932996,-5.684341886080802e-14 210.61993202228598,400.00000000000006 " stroke-opacity="0.25" stroke="green"/><polygon points="81.60283245168493,0.0 188.78250942413422,400.0 " stroke-opacity="0.25" stroke="green"/><polygon points="89.27029344692966,0.0 171.53382768297672,400.0 " stroke-opacity="0.25" stroke="green"/><polygon points="95.47976118409218,0.0 157.56504025168402,400.0 " stroke-opacity="0.25" stroke="green"/><polygon points="100.6109930148558,0.0 146.02184689943496,400.0 " stroke-opacity="0.25" stroke="green"/><polygon points="104.92239700941246,0.0 136.32293412951225,400.0 " stroke-opacity="0.25" stroke="green"/><polygon points="108.59591686085777,-5.684341886080802e-14 128.05900232383345,400.00000000000006 " stroke-opacity="0.25" stroke="green"/><polygon points="111.7633665332745,0.0 120.93352345090103,400.0 " stroke-opacity="0.25" stroke="green"/><polygon points="114.52258256401647,-5.684341886080802e-14 114.72640492771787,400.00000000000006 " stroke-opacity="0.25" stroke="green"/><polygon points="116.94770914089453,0.0 109.2708523618118,400.0 " stroke-opacity="0.25" stroke="green"/><polygon points="119.09596045588918,0.0 104.43815699429096,400.0 " stroke-opacity="0.25" stroke="green"/><polygon points="121.01219197453304,-5.684341886080802e-14 100.12741219520274,400.00000000000006 " stroke-opacity="0.25" stroke="green"/><polygon points="47.36218351119291,0.0 307.6389155260422,400.0 " stroke-opacity="0.25" stroke="green"/><polygon points="65.51340184948765,0.0 259.7247301860627,400.0 " stroke-opacity="0.25" stroke="green"/><polygon points="78.4086865922406,0.0 225.68475272226232,400.0 " stroke-opacity="0.25" stroke="green"/><polygon points="88.04220915039869,0.0 200.25492334520985,400.0 " stroke-opacity="0.25" stroke="green"/><polygon points="95.51258281287079,0.0 180.5352074808798,400.0 " stroke-opacity="0.25" stroke="green"/><polygon points="101.47484781993006,0.0 164.79648045606066,400.0 " stroke-opacity="0.25" stroke="green"/><polygon points="106.3438157036211,0.0 151.94375480175074,400.0 " stroke-opacity="0.25" stroke="green"/><polygon points="110.3949468585262,0.0 141.24989142712707,400.0 " stroke-opacity="0.25" stroke="green"/><polygon points="113.81833355364627,0.0 132.21309943094795,400.0 " stroke-opacity="0.25" stroke="green"/><polygon points="116.74939255915946,0.0 124.47591607415463,400.0 " stroke-opacity="0.25" stroke="green"/><polygon points="119.28720408311169,0.0 117.7767970701128,400.0 " stroke-opacity="0.25" stroke="green"/><polygon points="121.50593337544908,0.0 111.91996671575536,400.0 " stroke-opacity="0.25" stroke="green"/><polygon points="123.46219899006303,0.0 106.7559677220851,400.0 " stroke-opacity="0.25" stroke="green"/><polygon points="125.19997219601599,0.0 102.1687281265361,400.0 " stroke-opacity="0.25" stroke="green"/><polygon points="126.75392159133145,0.0 98.06673243961251,400.0 " stroke-opacity="0.25" stroke="green"/><polygon points="73.70616806758703,0.0 284.26139540169254,400.0 " stroke-opacity="0.25" stroke="green"/><polygon points="86.63931249029639,-5.684341886080802e-14 242.7391948866781,400.00000000000006 " stroke-opacity="0.25" stroke="green"/><polygon points="96.00629354736401,0.0 212.66625570346108,400.0 " stroke-opacity="0.25" stroke="green"/><polygon points="103.103386628205,0.0 189.88085160181376,400.0 " stroke-opacity="0.25" stroke="green"/><polygon points="108.66651272860608,0.0 172.02028885842074,400.0 " stroke-opacity="0.25" stroke="green"/><polygon points="113.14449530720559,-5.684341886080802e-14 157.64360794818026,400.00000000000006 " stroke-opacity="0.25" stroke="green"/><polygon points="116.82662229381687,0.0 145.8220423595862,400.0 " stroke-opacity="0.25" stroke="green"/><polygon points="119.90774533909756,0.0 135.9300157405271,400.0 " stroke-opacity="0.25" stroke="green"/><polygon points="122.52390739659786,0.0 127.53075860855245,400.0 " stroke-opacity="0.25" stroke="green"/><polygon points="124.77297264240373,0.0 120.3100754509651,400.0 " stroke-opacity="0.25" stroke="green"/><polygon points="126.72714143665269,-5.684341886080802e-14 114.03616511153427,400.00000000000006 " stroke-opacity="0.25" stroke="green"/><polygon points="128.44084530132778,0.0 108.53427375652478,400.0 " stroke-opacity="0.25" stroke="green"/><polygon points="129.95589633674211,5.684341886080802e-14 103.67016253756299,399.99999999999994 " stroke-opacity="0.25" stroke="green"/><polygon points="131.30494398098597,-5.684341886080802e-14 99.33900957446431,400.00000000000006 " stroke-opacity="0.25" stroke="green"/><polygon points="132.51385451995733,0.0 95.4577704756615,400.0 " stroke-opacity="0.25" stroke="green"/><polygon points="97.14491126795201,0.0 263.09127469308794,400.0 " stroke-opacity="0.25" stroke="green"/><polygon points="105.90972148004631,0.0 226.6987793914709,400.0 " stroke-opacity="0.25" stroke="green"/><polygon points="112.3536391081813,0.0 199.9428957692202,400.0 " stroke-opacity="0.25" stroke="green"/><polygon points="117.2907301239618,0.0 179.4435287267346,400.0 " stroke-opacity="0.25" stroke="green"/><polygon points="121.19419628657229,5.684341886080802e-14 163.23589039284306,399.99999999999994 " stroke-opacity="0.25" stroke="green"/><polygon points="124.35787677424015,0.0 150.09992686400363,400.0 " stroke-opacity="0.25" stroke="green"/><polygon points="126.97387439584705,0.0 139.23800528788058,400.0 " stroke-opacity="0.25" stroke="green"/><polygon points="129.17307843531464,0.0 130.10665837483697,400.0 " stroke-opacity="0.25" stroke="green"/><polygon points="131.04774772660716,5.684341886080802e-14 122.322816885456,399.99999999999994 " stroke-opacity="0.25" stroke="green"/><polygon points="132.6647830178145,5.684341886080802e-14 115.60870125559235,399.99999999999994 " stroke-opacity="0.25" stroke="green"/><polygon points="134.07387914210335,0.0 109.75797284940849,400.0 " stroke-opacity="0.25" stroke="green"/><polygon points="135.31272224822493,0.0 104.61415446338573,400.0 " stroke-opacity="0.25" stroke="green"/><polygon points="136.41041050021553,0.0 100.0564271896012,400.0 " stroke-opacity="0.25" stroke="green"/><polygon points="137.3897685281383,0.0 95.99002055131491,400.0 " stroke-opacity="0.25" stroke="green"/><polygon points="138.26895166917342,0.0 92.33955151032742,400.0 " stroke-opacity="0.25" stroke="green"/><polygon points="118.47239171911902,0.0 243.47574623322183,400.0 " stroke-opacity="0.25" stroke="green"/><polygon points="123.78021390416735,0.0 211.3031916863045,400.0 " stroke-opacity="0.25" stroke="green"/><polygon points="127.72754314955101,0.0 187.37705757060576,400.0 " stroke-opacity="0.25" stroke="green"/><polygon points="130.77803672413802,0.0 168.88695607476464,400.0 " stroke-opacity="0.25" stroke="green"/><polygon points="133.20615794632408,-5.684341886080802e-14 154.1692696595407,400.00000000000006 " stroke-opacity="0.25" stroke="green"/><polygon points="135.18474333256017,-5.684341886080802e-14 142.17637614405567,400.00000000000006 " stroke-opacity="0.25" stroke="green"/><polygon points="136.82805461248884,0.0 132.21569548297424,400.0 " stroke-opacity="0.25" stroke="green"/><polygon points="138.21465451402022,0.0 123.81103168462161,400.0 " stroke-opacity="0.25" stroke="green"/><polygon points="139.4003385672514,0.0 116.62418865407602,400.0 " stroke-opacity="0.25" stroke="green"/><polygon points="140.42582527424835,-5.684341886080802e-14 110.4083574020541,400.00000000000006 " stroke-opacity="0.25" stroke="green"/><polygon points="141.3215264772724,5.684341886080802e-14 104.97920118555447,399.99999999999994 " stroke-opacity="0.25" stroke="green"/><polygon points="142.11061430723083,0.0 100.19626566763912,400.0 " stroke-opacity="0.25" stroke="green"/><polygon points="142.81105449145036,0.0 95.95065433251666,400.0 " stroke-opacity="0.25" stroke="green"/><polygon points="143.43699082981976,0.0 92.15663669458336,400.0 " stroke-opacity="0.25" stroke="green"/><polygon points="143.99971019187313,5.684341886080802e-14 88.74579911579885,399.99999999999994 " stroke-opacity="0.25" stroke="green"/><polygon points="138.27678491144277,-5.684341886080802e-14 224.92203724021786,400.00000000000006 " stroke-opacity="0.25" stroke="green"/><polygon points="140.60587359574566,0.0 196.30639294995828,400.0 " stroke-opacity="0.25" stroke="green"/><polygon points="142.35269010897287,5.684341886080802e-14 174.8446597322636,399.99999999999994 " stroke-opacity="0.25" stroke="green"/><polygon points="143.7113251748162,0.0 158.1522005629455,400.0 " stroke-opacity="0.25" stroke="green"/><polygon points="144.79823322749098,0.0 144.79823322749098,400.0 " stroke-opacity="0.25" stroke="green"/><polygon points="145.68752163422477,0.0 133.87225995302828,400.0 " stroke-opacity="0.25" stroke="green"/><polygon points="146.42859530650293,0.0 124.76728222430933,400.0 " stroke-opacity="0.25" stroke="green"/><polygon points="147.0556576445845,0.0 117.06307030000869,400.0 " stroke-opacity="0.25" stroke="green"/><polygon points="147.5931396486544,0.0 110.45946007917952,400.0 " stroke-opacity="0.25" stroke="green"/><polygon points="148.058957385515,0.0 104.73633122112764,400.0 " stroke-opacity="0.25" stroke="green"/><polygon points="148.466547905268,0.0 99.7285934703322,400.0 " stroke-opacity="0.25" stroke="green"/><polygon points="148.8261865991677,0.0 95.31000133727741,400.0 " stroke-opacity="0.25" stroke="green"/><polygon points="149.14586543818967,0.0 91.38236388567319,400.0 " stroke-opacity="0.25" stroke="green"/><polygon points="149.43189387310406,0.0 87.86816195529042,400.0 " stroke-opacity="0.25" stroke="green"/><polygon points="149.68931946452702,0.0 84.70538021794593,400.0 " stroke-opacity="0.25" stroke="green"/><polygon points="157.01521320467293,-5.684341886080802e-14 207.03692877287688,400.00000000000006 " stroke-opacity="0.25" stroke="green"/><polygon points="156.67431959028386,-5.684341886080802e-14 181.49597182960804,400.00000000000006 " stroke-opacity="0.25" stroke="green"/><polygon points="156.41715866281749,-5.684341886080802e-14 162.22856434918032,400.00000000000006 " stroke-opacity="0.25" stroke="green"/><polygon points="156.21625433948813,0.0 147.17610089641647,400.0 " stroke-opacity="0.25" stroke="green"/><polygon points="156.05496663612504,5.684341886080802e-14 135.09185492290874,399.99999999999994 " stroke-opacity="0.25" stroke="green"/><polygon points="155.92262912720017,0.0 125.1766600504931,400.0 " stroke-opacity="0.25" stroke="green"/><polygon points="155.81208915792618,0.0 116.8946140497298,400.0 " stroke-opacity="0.25" stroke="green"/><polygon points="155.71837103982205,-5.684341886080802e-14 109.87292071707047,400.00000000000006 " stroke-opacity="0.25" stroke="green"/><polygon points="155.63790639271144,-5.684341886080802e-14 103.84422437146499,400.00000000000006 " stroke-opacity="0.25" stroke="green"/><polygon points="155.56806945422977,0.0 98.61179359681731,400.0 " stroke-opacity="0.25" stroke="green"/><polygon points="155.50688511076189,0.0 94.02764588576018,400.0 " stroke-opacity="0.25" stroke="green"/><polygon points="155.45283912012007,0.0 89.97832885055499,400.0 " stroke-opacity="0.25" stroke="green"/><polygon points="155.40475109671695,0.0 86.37540382238188,400.0 " stroke-opacity="0.25" stroke="green"/><polygon points="155.36168730825153,0.0 83.14891227023003,400.0 " stroke-opacity="0.25" stroke="green"/><polygon points="155.3228994484067,0.0 80.24278843451742,400.0 " stroke-opacity="0.25" stroke="green"/><polygon points="175.06188489293174,0.0 189.48709537649646,400.0 " stroke-opacity="0.25" stroke="green"/><polygon points="172.2284550022575,-5.684341886080802e-14 166.67817003987514,400.00000000000006 " stroke-opacity="0.25" stroke="green"/><polygon points="170.08371104358628,0.0 149.41312142141064,400.0 " stroke-opacity="0.25" stroke="green"/><polygon points="168.4037753197083,-5.684341886080802e-14 135.8897486983476,400.00000000000006 " stroke-opacity="0.25" stroke="green"/><polygon points="167.05232058792464,-5.684341886080802e-14 125.01062648165423,400.00000000000006 " stroke-opacity="0.25" stroke="green"/><polygon points="165.94158427896332,0.0 116.06927182765055,400.0 " stroke-opacity="0.25" stroke="green"/><polygon points="165.0125113478365,0.0 108.5902954859048,400.0 " stroke-opacity="0.25" stroke="green"/><polygon points="164.2239036481581,5.684341886080802e-14 102.24205507203384,399.99999999999994 " stroke-opacity="0.25" stroke="green"/><polygon points="163.54614489093427,-5.684341886080802e-14 96.78614139630088,400.00000000000006 " stroke-opacity="0.25" stroke="green"/><polygon points="162.95739795585098,-5.684341886080802e-14 92.04676706814905,400.00000000000006 " stroke-opacity="0.25" stroke="green"/><polygon points="162.44120813143903,5.684341886080802e-14 87.89147273625572,399.99999999999994 " stroke-opacity="0.25" stroke="green"/><polygon points="161.98494105064538,-5.684341886080802e-14 84.21855257202895,400.00000000000006 " stroke-opacity="0.25" stroke="green"/><polygon points="161.57873478724636,-5.684341886080802e-14 80.94861871425785,400.00000000000006 " stroke-opacity="0.25" stroke="green"/><polygon points="161.21477893657664,0.0 78.01879791612365,400.0 " stroke-opacity="0.25" stroke="green"/><polygon points="160.88680752888402,0.0 75.37864953086486,400.0 " stroke-opacity="0.25" stroke="green"/><polygon points="192.7413559244934,0.0 171.97079234279678,400.0 " stroke-opacity="0.25" stroke="green"/><polygon points="187.4830791900841,5.684341886080802e-14 151.6659903750115,399.99999999999994 " stroke-opacity="0.25" stroke="green"/><polygon points="183.49840754508813,-5.684341886080802e-14 136.2792063115475,400.00000000000006 " stroke-opacity="0.25" stroke="green"/><polygon points="180.3746061015645,0.0 124.21666702327347,400.0 " stroke-opacity="0.25" stroke="green"/><polygon points="177.85989244071908,0.0 114.50611631090469,400.0 " stroke-opacity="0.25" stroke="green"/><polygon points="175.79194864059318,0.0 106.52076455729778,400.0 " stroke-opacity="0.25" stroke="green"/><polygon points="174.06142693568532,0.0 99.83836606556919,400.0 " stroke-opacity="0.25" stroke="green"/><polygon points="172.59197200202365,0.0 94.16407524071842,400.0 " stroke-opacity="0.25" stroke="green"/><polygon points="171.32865059819392,0.0 89.28576772248378,400.0 " stroke-opacity="0.25" stroke="green"/><polygon points="170.23093129735537,0.0 85.04693166543724,400.0 " stroke-opacity="0.25" stroke="green"/><polygon points="169.26825515250434,5.684341886080802e-14 81.3295638912387,399.99999999999994 " stroke-opacity="0.25" stroke="green"/><polygon points="168.4171463472105,0.0 78.04301268493916,400.0 " stroke-opacity="0.25" stroke="green"/><polygon points="167.65927238900275,-5.684341886080802e-14 75.11648724415167,400.00000000000006 " stroke-opacity="0.25" stroke="green"/><polygon points="166.98010868825912,0.0 72.49390095897843,400.0 " stroke-opacity="0.25" stroke="green"/><polygon points="166.36799867461943,-5.684341886080802e-14 70.13024205755153,400.00000000000006 " stroke-opacity="0.25" stroke="green"/><polygon points="210.3537002615787,0.0 154.1952800078495,400.0 " stroke-opacity="0.25" stroke="green"/><polygon points="202.63796262216422,-5.684341886080802e-14 136.26866241996842,400.00000000000006 " stroke-opacity="0.25" stroke="green"/><polygon points="196.79759164870475,0.0 122.69924081629217,400.0 " stroke-opacity="0.25" stroke="green"/><polygon points="192.2229440319826,5.684341886080802e-14 112.07057998607335,399.99999999999994 " stroke-opacity="0.25" stroke="green"/><polygon points="188.54278586879377,-5.684341886080802e-14 103.5201612007851,400.00000000000006 " stroke-opacity="0.25" stroke="green"/><polygon points="185.51813014156917,-5.684341886080802e-14 96.4927259650447,400.00000000000006 " stroke-opacity="0.25" stroke="green"/><polygon points="182.98816354241302,-5.684341886080802e-14 90.61464329132829,400.00000000000006 " stroke-opacity="0.25" stroke="green"/><polygon points="180.84069903970305,5.684341886080802e-14 85.62525968048891,399.99999999999994 " stroke-opacity="0.25" stroke="green"/><polygon points="178.99508825866113,-5.684341886080802e-14 81.33719802857402,400.00000000000006 " stroke-opacity="0.25" stroke="green"/><polygon points="177.39186634656676,-5.684341886080802e-14 77.61229867743329,400.00000000000006 " stroke-opacity="0.25" stroke="green"/><polygon points="175.98622533515274,5.684341886080802e-14 74.34645553254204,399.99999999999994 " stroke-opacity="0.25" stroke="green"/><polygon points="174.7437604693404,-5.684341886080802e-14 71.45973315333393,400.00000000000006 " stroke-opacity="0.25" stroke="green"/><polygon points="173.63761665184578,-5.684341886080802e-14 68.88973684965845,400.00000000000006 " stroke-opacity="0.25" stroke="green"/><polygon points="172.64652530162735,0.0 66.58705155107296,400.0 " stroke-opacity="0.25" stroke="green"/><polygon points="171.75342350182117,0.0 64.51203355792771,400.0 " stroke-opacity="0.25" stroke="green"/><polygon points="228.19597456395272,-5.684341886080802e-14 135.85616741359706,400.00000000000006 " stroke-opacity="0.25" stroke="green"/><polygon points="217.8891731791391,0.0 120.2811182407528,400.0 " stroke-opacity="0.25" stroke="green"/><polygon points="210.1140008337123,-5.684341886080802e-14 108.53172217828548,400.00000000000006 " stroke-opacity="0.25" stroke="green"/><polygon points="204.03972759859417,0.0 99.35262763731043,400.0 " stroke-opacity="0.25" stroke="green"/><polygon points="199.16324926574134,0.0 91.98357229329245,400.0 " stroke-opacity="0.25" stroke="green"/><polygon points="195.1620701216434,0.0 85.93721905604986,400.0 " stroke-opacity="0.25" stroke="green"/><polygon points="191.8199321046787,0.0 80.88677110297726,400.0 " stroke-opacity="0.25" stroke="green"/><polygon points="188.98639698203084,0.0 76.60489477486175,400.0 " stroke-opacity="0.25" stroke="green"/><polygon points="186.5535760042764,-5.684341886080802e-14 72.92855475990004,400.00000000000006 " stroke-opacity="0.25" stroke="green"/><polygon points="184.44208014788123,0.0 69.73778290316588,400.0 " stroke-opacity="0.25" stroke="green"/><polygon points="182.5921925308487,0.0 66.94233846567334,400.0 " stroke-opacity="0.25" stroke="green"/><polygon points="180.95813056055118,0.0 64.47303741012394,400.0 " stroke-opacity="0.25" stroke="green"/><polygon points="179.50420568403862,0.0 62.27594923506018,400.0 " stroke-opacity="0.25" stroke="green"/><polygon points="178.20218682579173,0.0 60.30841275268983,400.0 " stroke-opacity="0.25" stroke="green"/><polygon points="177.02944920124253,0.0 58.536238681681596,400.0 " stroke-opacity="0.25" stroke="green"/><polygon points="246.58335032241155,-5.684341886080802e-14 116.61547182924909,400.00000000000006 " stroke-opacity="0.25" stroke="green"/><polygon points="233.4400725194332,5.684341886080802e-14 103.47219402627078,399.99999999999994 " stroke-opacity="0.25" stroke="green"/><polygon points="223.58261416719944,0.0 93.61473567403704,400.0 " stroke-opacity="0.25" stroke="green"/><polygon points="215.91570211546207,0.0 85.9478236222997,400.0 " stroke-opacity="0.25" stroke="green"/><polygon points="209.78217247407215,0.0 79.81429398090978,400.0 " stroke-opacity="0.25" stroke="green"/><polygon points="204.76383004020772,0.0 74.79595154704535,400.0 " stroke-opacity="0.25" stroke="green"/><polygon points="200.58187801198733,0.0 70.61399951882495,400.0 " stroke-opacity="0.25" stroke="green"/><polygon points="197.04330321887778,0.0 67.07542472571544,400.0 " stroke-opacity="0.25" stroke="green"/><polygon points="194.01023911049816,0.0 64.04236061733582,400.0 " stroke-opacity="0.25" stroke="green"/><polygon points="191.38158354990247,0.0 61.41370505674013,400.0 " stroke-opacity="0.25" stroke="green"/><polygon points="189.08150993438127,0.0 59.11363144121893,400.0 " stroke-opacity="0.25" stroke="green"/><polygon points="187.05203321480374,0.0 57.084154721641454,400.0 " stroke-opacity="0.25" stroke="green"/><polygon points="185.2480539085126,0.0 55.28017541535024,400.0 " stroke-opacity="0.25" stroke="green"/><polygon points="183.6339671607784,0.0 53.666088667616094,400.0 " stroke-opacity="0.25" stroke="green"/><polygon points="182.18128908781762,0.0 52.21341059465533,400.0 " stroke-opacity="0.25" stroke="green"/><polygon points="265.87321678624596,0.0 96.07492116609488,400.0 " stroke-opacity="0.25" stroke="green"/><polygon points="249.51334576152317,0.0 85.57005982894866,400.0 " stroke-opacity="0.25" stroke="green"/><polygon points="237.3468120881641,0.0 77.75778863199267,400.0 " stroke-opacity="0.25" stroke="green"/><polygon points="227.94452246690125,0.0 71.72047033200141,400.0 " stroke-opacity="0.25" stroke="green"/><polygon points="220.46052081001545,0.0 66.91490679584936,400.0 " stroke-opacity="0.25" stroke="green"/><polygon points="214.36208710185446,-5.684341886080802e-14 62.99903237476141,400.00000000000006 " stroke-opacity="0.25" stroke="green"/><polygon points="209.29704165462073,-5.684341886080802e-14 59.74670844084238,400.00000000000006 " stroke-opacity="0.25" stroke="green"/><polygon points="205.02323692622434,0.0 57.00244927241752,400.0 " stroke-opacity="0.25" stroke="green"/><polygon points="201.36869886698528,-5.684341886080802e-14 54.65582835434216,400.00000000000006 " stroke-opacity="0.25" stroke="green"/><polygon points="198.20792413129482,-5.684341886080802e-14 52.62625854500763,400.00000000000006 " stroke-opacity="0.25" stroke="green"/><polygon points="195.44717675745855,5.684341886080802e-14 50.85355090536834,399.99999999999994 " stroke-opacity="0.25" stroke="green"/><polygon points="193.01503516054086,0.0 49.291844814329096,400.0 " stroke-opacity="0.25" stroke="green"/><polygon points="190.85612503226946,0.0 47.90558379169761,400.0 " stroke-opacity="0.25" stroke="green"/><polygon points="188.92685208219655,-5.684341886080802e-14 46.666775442206585,400.00000000000006 " stroke-opacity="0.25" stroke="green"/><polygon points="187.19242770523832,0.0 45.55308160243371,400.0 " stroke-opacity="0.25" stroke="green"/><polygon points="286.49640669157117,0.0 73.73977926946884,400.0 " stroke-opacity="0.25" stroke="green"/><polygon points="266.36567178595766,0.0 66.24282908555963,400.0 " stroke-opacity="0.25" stroke="green"/><polygon points="251.56548850913128,-5.684341886080802e-14 60.73104636827023,400.00000000000006 " stroke-opacity="0.25" stroke="green"/><polygon points="240.22613625408513,0.0 56.50812259661129,400.0 " stroke-opacity="0.25" stroke="green"/><polygon points="231.26078040141482,0.0 53.16930627800056,400.0 " stroke-opacity="0.25" stroke="green"/><polygon points="223.99454055341178,0.0 50.46326308483205,400.0 " stroke-opacity="0.25" stroke="green"/><polygon points="217.98620114161056,-5.684341886080802e-14 48.22567854211712,400.00000000000006 " stroke-opacity="0.25" stroke="green"/><polygon points="212.93513985784347,0.0 46.34459695230814,400.0 " stroke-opacity="0.25" stroke="green"/><polygon points="208.62945957207637,0.0 44.74110503998682,400.0 " stroke-opacity="0.25" stroke="green"/><polygon points="204.91550479238265,5.684341886080802e-14 43.35797948102419,399.99999999999994 " stroke-opacity="0.25" stroke="green"/><polygon points="201.67913802023676,0.0 42.15271397127515,400.0 " stroke-opacity="0.25" stroke="green"/><polygon points="198.83380291822073,-5.684341886080802e-14 41.093073793389976,400.00000000000006 " stroke-opacity="0.25" stroke="green"/><polygon points="196.31266775669295,-5.684341886080802e-14 40.1541699331238,400.00000000000006 " stroke-opacity="0.25" stroke="green"/><polygon points="194.06330965757596,0.0 39.31647942187723,400.0 " stroke-opacity="0.25" stroke="green"/><polygon points="192.04403002488743,0.0 38.56447315461341,400.0 " stroke-opacity="0.25" stroke="green"/><polygon points="309.0018472168905,0.0 48.965716252389115,400.0 " stroke-opacity="0.25" stroke="green"/><polygon points="284.30727372218246,0.0 45.07123365479208,400.0 " stroke-opacity="0.25" stroke="green"/><polygon points="266.4219401500058,5.684341886080802e-14 42.250609100819304,399.99999999999994 " stroke-opacity="0.25" stroke="green"/><polygon points="252.87073551210887,-5.684341886080802e-14 40.11350271790985,400.00000000000006 " stroke-opacity="0.25" stroke="green"/><polygon points="242.24849069239912,0.0 38.43831089462779,400.0 " stroke-opacity="0.25" stroke="green"/><polygon points="233.698221223431,0.0 37.089882031954886,400.0 " stroke-opacity="0.25" stroke="green"/><polygon points="226.66756011614007,0.0 35.98110453726301,400.0 " stroke-opacity="0.25" stroke="green"/><polygon points="220.78445721393163,-5.684341886080802e-14 35.05330386569307,400.00000000000006 " stroke-opacity="0.25" stroke="green"/><polygon points="215.78915181166863,0.0 34.26551419348172,400.0 " stroke-opacity="0.25" stroke="green"/><polygon points="211.49478184318482,0.0 33.588266250184034,400.0 " stroke-opacity="0.25" stroke="green"/><polygon points="207.76348778712293,0.0 32.99981876106409,400.0 " stroke-opacity="0.25" stroke="green"/><polygon points="204.4913379795266,-5.684341886080802e-14 32.48378107832596,400.00000000000006 " stroke-opacity="0.25" stroke="green"/><polygon points="201.5984963070422,5.684341886080802e-14 32.02756256726289,399.99999999999994 " stroke-opacity="0.25" stroke="green"/><polygon points="199.0226218630713,5.684341886080802e-14 31.621331692379044,399.99999999999994 " stroke-opacity="0.25" stroke="green"/><polygon points="196.71432550625218,-5.684341886080802e-14 31.25729948936666,400.00000000000006 " stroke-opacity="0.25" stroke="green"/><polygon points="334.1254395749744,5.684341886080802e-14 20.875659462260757,399.99999999999994 " stroke-opacity="0.25" stroke="green"/><polygon points="303.7298496760261,0.0 21.508282359524287,400.0 " stroke-opacity="0.25" stroke="green"/><polygon points="282.1357186724922,5.684341886080802e-14 21.957720642010685,399.99999999999994 " stroke-opacity="0.25" stroke="green"/><polygon points="266.0036554962002,-5.684341886080802e-14 22.29347699940837,400.00000000000006 " stroke-opacity="0.25" stroke="green"/><polygon points="253.49394898480034,0.0 22.553841308950297,400.0 " stroke-opacity="0.25" stroke="green"/><polygon points="243.50968464255067,0.0 22.761643633440087,400.0 " stroke-opacity="0.25" stroke="green"/><polygon points="235.3562291408013,-5.684341886080802e-14 22.931341364570613,400.00000000000006 " stroke-opacity="0.25" stroke="green"/><polygon points="228.57230318517773,0.0 23.07253510047559,400.0 " stroke-opacity="0.25" stroke="green"/><polygon points="222.83958287345894,0.0 23.191850111135295,400.0 " stroke-opacity="0.25" stroke="green"/><polygon points="217.9313025673796,0.0 23.294006065934525,400.0 " stroke-opacity="0.25" stroke="green"/><polygon points="213.68154495413256,0.0 23.38245619909199,400.0 " stroke-opacity="0.25" stroke="green"/><polygon points="209.96611470533273,0.0 23.459785385871726,400.0 " stroke-opacity="0.25" stroke="green"/><polygon points="206.6901997641428,0.0 23.52796694800537,400.0 " stroke-opacity="0.25" stroke="green"/><polygon points="203.78016691008978,0.0 23.588533412462397,400.0 " stroke-opacity="0.25" stroke="green"/><polygon points="201.17796094994898,0.0 23.642693080994974,400.0 " stroke-opacity="0.25" stroke="green"/><polygon points="0.0,387.42619383371914 362.9033139239349,0.0 " stroke-opacity="0.25" stroke="green"/><polygon points="0.0,393.7240589757008 325.14879954055067,0.0 " stroke-opacity="0.25" stroke="green"/><polygon points="-5.684341886080802e-14,399.18356890519436 298.97928422966424,5.684341886080802e-14 " stroke-opacity="0.25" stroke="green"/><polygon points="279.7717574299499,-5.684341886080802e-14 2.7437384816660426,400.00000000000006 " stroke-opacity="0.25" stroke="green"/><polygon points="265.07418957741163,0.0 5.311152298407563,400.0 " stroke-opacity="0.25" stroke="green"/><polygon points="253.46505076453002,5.684341886080802e-14 7.339070365376443,399.99999999999994 " stroke-opacity="0.25" stroke="green"/><polygon points="244.0634283813791,0.0 8.981373054397096,400.0 " stroke-opacity="0.25" stroke="green"/><polygon points="236.29433993849625,0.0 10.33849997579452,400.0 " stroke-opacity="0.25" stroke="green"/><polygon points="229.76653529987308,5.684341886080802e-14 11.478795839051685,399.99999999999994 " stroke-opacity="0.25" stroke="green"/><polygon points="224.20453740855632,-5.684341886080802e-14 12.450381776134947,400.00000000000006 " stroke-opacity="0.25" stroke="green"/><polygon points="219.40876955884605,0.0 13.288120425329566,400.0 " stroke-opacity="0.25" stroke="green"/><polygon points="215.23109954063824,-5.684341886080802e-14 14.017887951096128,400.00000000000006 " stroke-opacity="0.25" stroke="green"/><polygon points="211.5592672238849,-5.684341886080802e-14 14.659294278821477,400.00000000000006 " stroke-opacity="0.25" stroke="green"/><polygon points="208.30664582337232,-5.684341886080802e-14 15.22747162680784,400.00000000000006 " stroke-opacity="0.25" stroke="green"/><polygon points="205.40532063745326,0.0 15.734283532282547,400.0 " stroke-opacity="0.25" stroke="green"/><polygon points="5.684341886080802e-14,354.5660989954206 396.8698672983363,0.0 " stroke-opacity="0.25" stroke="green"/><polygon points="0.0,362.5967223253022 349.27038353369403,5.684341886080802e-14 " stroke-opacity="0.25" stroke="green"/><polygon points="0.0,369.62914322998176 317.30247793658555,0.0 " stroke-opacity="0.25" stroke="green"/><polygon points="-5.684341886080802e-14,375.8385856706875 294.3521010731262,-5.684341886080802e-14 " stroke-opacity="0.25" stroke="green"/><polygon points="0.0,381.3615290392437 277.07536939216175,-5.684341886080802e-14 " stroke-opacity="0.25" stroke="green"/><polygon points="-5.684341886080802e-14,386.30585593818967 263.599827741279,0.0 " stroke-opacity="0.25" stroke="green"/><polygon points="0.0,390.757969290631 252.7953098146756,5.684341886080802e-14 " stroke-opacity="0.25" stroke="green"/><polygon points="5.684341886080802e-14,394.7878846840881 243.93927743543625,0.0 " stroke-opacity="0.25" stroke="green"/><polygon points="0.0,398.45293956232786 236.54824222669868,0.0 " stroke-opacity="0.25" stroke="green"/><polygon points="230.28645671303735,0.0 1.0319539425318283,400.0 " stroke-opacity="0.25" stroke="green"/><polygon points="224.91348737954408,0.0 2.705501767718232,400.0 " stroke-opacity="0.25" stroke="green"/><polygon points="220.25263319830182,0.0 4.157243234006756,400.0 " stroke-opacity="0.25" stroke="green"/><polygon points="216.17112083849915,0.0 5.428533969027285,400.0 " stroke-opacity="0.25" stroke="green"/><polygon points="212.5672529226355,0.0 6.551050205115956,400.0 " stroke-opacity="0.25" stroke="green"/><polygon points="209.3618188442725,0.0 7.549464098376603,400.0 " stroke-opacity="0.25" stroke="green"/><polygon points="0.0,326.1463971762129 400.0,28.586631288073022 " stroke-opacity="0.25" stroke="green"/><polygon points="0.0,335.4892465056365 377.10408518875823,-5.684341886080802e-14 " stroke-opacity="0.25" stroke="green"/><polygon points="0.0,343.7337502140626 337.57001224867486,0.0 " stroke-opacity="0.25" stroke="green"/><polygon points="0.0,351.06283800273434 309.96417198826043,0.0 " stroke-opacity="0.25" stroke="green"/><polygon points="-5.684341886080802e-14,357.6209535495488 289.5957381203976,0.0 " stroke-opacity="0.25" stroke="green"/><polygon points="5.684341886080802e-14,363.5236699641838 273.9484183878303,0.0 " stroke-opacity="0.25" stroke="green"/><polygon points="0.0,368.8645596157966 261.55125536387,0.0 " stroke-opacity="0.25" stroke="green"/><polygon points="5.684341886080802e-14,373.7201914425482 251.48687336819336,5.684341886080802e-14 " stroke-opacity="0.25" stroke="green"/><polygon points="0.0,378.153825328118 243.15345363951872,-5.684341886080802e-14 " stroke-opacity="0.25" stroke="green"/><polygon points="0.0,382.21818336816034 236.13979747374884,0.0 " stroke-opacity="0.25" stroke="green"/><polygon points="5.684341886080802e-14,385.9575563674663 230.15539267244205,0.0 " stroke-opacity="0.25" stroke="green"/><polygon points="0.0,389.40942445758765 224.98916350956185,0.0 " stroke-opacity="0.25" stroke="green"/><polygon points="0.0,392.6057177450017 220.484057005998,0.0 " stroke-opacity="0.25" stroke="green"/><polygon points="0.0,395.57380694175083 216.52079905863846,0.0 " stroke-opacity="0.25" stroke="green"/><polygon points="0.0,398.33728912692754 213.00717925115143,0.0 " stroke-opacity="0.25" stroke="green"/><polygon points="0.0,300.8763055490309 400.0,56.06217885135291 " stroke-opacity="0.25" stroke="green"/><polygon points="-5.684341886080802e-14,311.29691838261454 400.00000000000006,7.7120799941911855 " stroke-opacity="0.25" stroke="green"/><polygon points="0.0,320.54545609383115 360.42137794703217,-5.684341886080802e-14 " stroke-opacity="0.25" stroke="green"/><polygon points="-5.684341886080802e-14,328.80913641603274 326.88772941527264,-5.684341886080802e-14 " stroke-opacity="0.25" stroke="green"/><polygon points="0.0,336.23731990077533 302.7494426825243,-5.684341886080802e-14 " stroke-opacity="0.25" stroke="green"/><polygon points="0.0,342.95061831362807 284.5431478641606,0.0 " stroke-opacity="0.25" stroke="green"/><polygon points="0.0,349.0474940000694 270.3214482069712,5.684341886080802e-14 " stroke-opacity="0.25" stroke="green"/><polygon points="0.0,354.6091211640289 258.9052765053167,0.0 " stroke-opacity="0.25" stroke="green"/><polygon points="0.0,359.7030206594246 249.53899205755286,5.684341886080802e-14 " stroke-opacity="0.25" stroke="green"/><polygon points="0.0,364.38581473931663 241.71596370851273,0.0 " stroke-opacity="0.25" stroke="green"/><polygon points="0.0,368.70534070542345 235.08380539445938,0.0 " stroke-opacity="0.25" stroke="green"/><polygon points="5.684341886080802e-14,372.7022910252198 229.3898276318463,0.0 " stroke-opacity="0.25" stroke="green"/><polygon points="0.0,376.411499230901 224.44810901488682,0.0 " stroke-opacity="0.25" stroke="green"/><polygon points="0.0,379.86295775030936 220.1188100504021,0.0 " stroke-opacity="0.25" stroke="green"/><polygon points="-5.684341886080802e-14,383.0826306779923 216.29472905830153,-5.684341886080802e-14 " stroke-opacity="0.25" stroke="green"/><polygon points="0.0,277.844584770196 400.0,80.68867400434571 " stroke-opacity="0.25" stroke="green"/><polygon points="0.0,289.22601053316953 400.0,32.60997390756083 " stroke-opacity="0.25" stroke="green"/><polygon points="0.0,299.3695455806504 386.77107226121564,0.0 " stroke-opacity="0.25" stroke="green"/><polygon points="-5.684341886080802e-14,308.466730666848 345.48978483470785,0.0 " stroke-opacity="0.25" stroke="green"/><polygon points="5.684341886080802e-14,316.67152819984176 316.6715281998416,-5.684341886080802e-14 " stroke-opacity="0.25" stroke="green"/><polygon points="0.0,324.1091069835579 295.4125566095734,0.0 " stroke-opacity="0.25" stroke="green"/><polygon points="-5.684341886080802e-14,330.88227268654003 279.0834311186213,-5.684341886080802e-14 " stroke-opacity="0.25" stroke="green"/><polygon points="-5.684341886080802e-14,337.0762486560438 266.1475122165796,0.0 " stroke-opacity="0.25" stroke="green"/><polygon points="0.0,342.76228056379796 255.64668183576055,-5.684341886080802e-14 " stroke-opacity="0.25" stroke="green"/><polygon points="0.0,348.0003891721874 246.9525083296428,-5.684341886080802e-14 " stroke-opacity="0.25" stroke="green"/><polygon points="-5.684341886080802e-14,352.8414971971585 239.6356734405257,0.0 " stroke-opacity="0.25" stroke="green"/><polygon points="-5.684341886080802e-14,357.32909023776693 233.3929010126594,5.684341886080802e-14 " stroke-opacity="0.25" stroke="green"/><polygon points="0.0,361.50052666195063 228.00386449226528,0.0 " stroke-opacity="0.25" stroke="green"/><polygon points="5.684341886080802e-14,365.3880800633211 223.304642372784,0.0 " stroke-opacity="0.25" stroke="green"/><polygon points="5.684341886080802e-14,369.0197758914834 219.1707538611857,0.0 " stroke-opacity="0.25" stroke="green"/><polygon points="0.0,256.3724625846903 400.0,103.24101918916305 " stroke-opacity="0.25" stroke="green"/><polygon points="0.0,268.67851816275544 400.0,55.079444486997204 " stroke-opacity="0.25" stroke="green"/><polygon points="0.0,279.67727974443227 400.0,12.034158839869605 " stroke-opacity="0.25" stroke="green"/><polygon points="0.0,289.5665548314288 366.2669330210493,5.684341886080802e-14 " stroke-opacity="0.25" stroke="green"/><polygon points="0.0,298.50615989936387 331.5246769378373,5.684341886080802e-14 " stroke-opacity="0.25" stroke="green"/><polygon points="0.0,306.62662325265103 306.5785521432259,5.684341886080802e-14 " stroke-opacity="0.25" stroke="green"/><polygon points="-5.684341886080802e-14,314.03560033932774 287.7972489993991,0.0 " stroke-opacity="0.25" stroke="green"/><polygon points="-5.684341886080802e-14,320.8226735760759 273.14685678936985,0.0 " stroke-opacity="0.25" stroke="green"/><polygon points="0.0,327.06299217695664 261.3995281440376,-5.684341886080802e-14 " stroke-opacity="0.25" stroke="green"/><polygon points="0.0,332.82006638742683 251.77016017153755,0.0 " stroke-opacity="0.25" stroke="green"/><polygon points="0.0,338.14793676760814 243.73333714692603,0.0 " stroke-opacity="0.25" stroke="green"/><polygon points="0.0,343.0928757351751 236.92416070869615,5.684341886080802e-14 " stroke-opacity="0.25" stroke="green"/><polygon points="0.0,347.6947349492227 231.0813007632884,0.0 " stroke-opacity="0.25" stroke="green"/><polygon points="0.0,351.9880216521897 226.0126855796287,0.0 " stroke-opacity="0.25" stroke="green"/><polygon points="0.0,356.00276551680236 221.57398370065212,-5.684341886080802e-14 " stroke-opacity="0.25" stroke="green"/><polygon points="-5.684341886080802e-14,235.92449552438524 400.00000000000006,124.31502517166301 " stroke-opacity="0.25" stroke="green"/><polygon points="0.0,249.18057670426623 400.0,75.69390284625877 " stroke-opacity="0.25" stroke="green"/><polygon points="0.0,261.0479832676353 400.0,32.16621028213916 " stroke-opacity="0.25" stroke="green"/><polygon points="-5.684341886080802e-14,271.7340656813101 389.9146029904825,-5.684341886080802e-14 " stroke-opacity="0.25" stroke="green"/><polygon points="0.0,281.40685080248375 347.5085198854701,0.0 " stroke-opacity="0.25" stroke="green"/><polygon points="0.0,290.20394196462684 318.05177118566996,0.0 " stroke-opacity="0.25" stroke="green"/><polygon points="5.684341886080802e-14,298.2391065220817 296.3986115675325,0.0 " stroke-opacity="0.25" stroke="green"/><polygon points="0.0,305.6072227771908 279.81079184630596,0.0 " stroke-opacity="0.25" stroke="green"/><polygon points="0.0,312.3880439839862 266.6970288989166,-5.684341886080802e-14 " stroke-opacity="0.25" stroke="green"/><polygon points="5.684341886080802e-14,318.6490967884943 256.0693960809018,0.0 " stroke-opacity="0.25" stroke="green"/><polygon points="0.0,324.4479377513925 247.28211951223213,0.0 " stroke-opacity="0.25" stroke="green"/><polygon points="-5.684341886080802e-14,329.83392790856215 239.89525722364857,0.0 " stroke-opacity="0.25" stroke="green"/><polygon points="-5.684341886080802e-14,334.8496413385058 233.5987438359503,0.0 " stroke-opacity="0.25" stroke="green"/><polygon points="0.0,339.53199287478407 228.16775801419337,-5.684341886080802e-14 " stroke-opacity="0.25" stroke="green"/><polygon points="0.0,343.9131481952867 223.43531199392595,-5.684341886080802e-14 " stroke-opacity="0.25" stroke="green"/><polygon points="-5.684341886080802e-14,216.0502977009331 400.00000000000006,144.39435707743718 " stroke-opacity="0.25" stroke="green"/><polygon points="-5.684341886080802e-14,230.3349190943545 400.00000000000006,94.90583223590635 " stroke-opacity="0.25" stroke="green"/><polygon points="5.684341886080802e-14,243.1300338912081 399.99999999999994,50.57764606739195 " stroke-opacity="0.25" stroke="green"/><polygon points="-5.684341886080802e-14,254.65707145366585 400.00000000000006,10.642665009954356 " stroke-opacity="0.25" stroke="green"/><polygon points="5.684341886080802e-14,265.09564323855017 364.8728505492164,0.0 " stroke-opacity="0.25" stroke="green"/><polygon points="0.0,274.5929695927667 329.82410974127424,0.0 " stroke-opacity="0.25" stroke="green"/><polygon points="-5.684341886080802e-14,283.27086651667196 304.78929487845835,0.0 " stroke-opacity="0.25" stroke="green"/><polygon points="-5.684341886080802e-14,291.2309987636307 286.01318373134643,0.0 " stroke-opacity="0.25" stroke="green"/><polygon points="0.0,298.5588812250405 271.4095417280372,0.0 " stroke-opacity="0.25" stroke="green"/><polygon points="0.0,305.3269632795115 259.7266281253898,0.0 " stroke-opacity="0.25" stroke="green"/><polygon points="5.684341886080802e-14,311.5970322787753 250.16788063231465,0.0 " stroke-opacity="0.25" stroke="green"/><polygon points="0.0,317.42210529684843 242.20225772141868,0.0 " stroke-opacity="0.25" stroke="green"/><polygon points="0.0,322.84793190171786 235.46211525835287,0.0 " stroke-opacity="0.25" stroke="green"/><polygon points="-5.684341886080802e-14,327.91419816862583 229.68485029001076,0.0 " stroke-opacity="0.25" stroke="green"/><polygon points="0.0,332.65549900634437 224.67788731744758,0.0 " stroke-opacity="0.25" stroke="green"/><polygon points="0.0,196.34257361555262 400.0,163.89694708049564 " stroke-opacity="0.25" stroke="green"/><polygon points="0.0,211.78650430061714 400.0,113.08797524990786 " stroke-opacity="0.25" stroke="green"/><polygon points="-5.684341886080802e-14,225.6125666103681 400.00000000000006,67.60162693940637 " stroke-opacity="0.25" stroke="green"/><polygon points="-5.684341886080802e-14,238.06233316295658 400.00000000000006,26.643152638586287 " stroke-opacity="0.25" stroke="green"/><polygon points="0.0,249.33156280298434 383.9369379334505,0.0 " stroke-opacity="0.25" stroke="green"/><polygon points="0.0,259.58056960180596 341.85673268006576,0.0 " stroke-opacity="0.25" stroke="green"/><polygon points="5.684341886080802e-14,268.94189764321544 312.82371986328377,5.684341886080802e-14 " stroke-opacity="0.25" stroke="green"/><polygon points="0.0,277.5260844160083 291.5843218207614,0.0 " stroke-opacity="0.25" stroke="green"/><polygon points="0.0,285.42604604754257 275.371725787954,0.0 " stroke-opacity="0.25" stroke="green"/><polygon points="0.0,292.7204541170335 262.59019950645694,0.0 " stroke-opacity="0.25" stroke="green"/><polygon points="0.0,299.47636460592184 252.25479035919614,0.0 " stroke-opacity="0.25" stroke="green"/><polygon points="-5.684341886080802e-14,305.7512853407173 243.724620116033,-5.684341886080802e-14 " stroke-opacity="0.25" stroke="green"/><polygon points="-5.684341886080802e-14,311.59481703738226 236.56470756935593,0.0 " stroke-opacity="0.25" stroke="green"/><polygon points="0.0,317.04996713703144 230.46942951537812,-5.684341886080802e-14 " stroke-opacity="0.25" stroke="green"/><polygon points="5.684341886080802e-14,322.1542101008597 225.21776162821314,0.0 " stroke-opacity="0.25" stroke="green"/><polygon points="-5.684341886080802e-14,176.4026598166866 400.00000000000006,183.2108219571668 " stroke-opacity="0.25" stroke="green"/><polygon points="-5.684341886080802e-14,193.19465674903793 400.00000000000006,130.56330590071474 " stroke-opacity="0.25" stroke="green"/><polygon points="0.0,208.202810220113 400.0,83.50862836418887 " stroke-opacity="0.25" stroke="green"/><polygon points="-5.684341886080802e-14,221.69703473995182 400.00000000000006,41.200533327031025 " stroke-opacity="0.25" stroke="green"/><polygon points="0.0,233.89540487772103 400.0,2.9552972018703656 " stroke-opacity="0.25" stroke="green"/><polygon points="0.0,244.97603057883703 354.0608074127242,0.0 " stroke-opacity="0.25" stroke="green"/><polygon points="-5.684341886080802e-14,255.08581106228405 320.290313445373,0.0 " stroke-opacity="0.25" stroke="green"/><polygon points="0.0,264.346984331667 296.2985280182948,0.0 " stroke-opacity="0.25" stroke="green"/><polygon points="0.0,272.86209383512664 278.3752784946937,0.0 " stroke-opacity="0.25" stroke="green"/><polygon points="0.0,280.71780128486785 264.4765856355963,-5.684341886080802e-14 " stroke-opacity="0.25" stroke="green"/><polygon points="0.0,287.98784671188815 253.383741579622,-5.684341886080802e-14 " stroke-opacity="0.25" stroke="green"/><polygon points="5.684341886080802e-14,294.73537027435714 244.32498599204177,5.684341886080802e-14 " stroke-opacity="0.25" stroke="green"/><polygon points="0.0,301.0147508049587 236.78782249822615,-5.684341886080802e-14 " stroke-opacity="0.25" stroke="green"/><polygon points="-5.684341886080802e-14,306.8730745130383 230.4185828372413,0.0 " stroke-opacity="0.25" stroke="green"/><polygon points="0.0,312.35131782431654 224.96532297232062,0.0 " stroke-opacity="0.25" stroke="green"/><polygon points="0.0,155.8071777224354 400.0,202.72608105210628 " stroke-opacity="0.25" stroke="green"/><polygon points="-5.684341886080802e-14,174.206919312207 400.00000000000006,147.62906512852337 " stroke-opacity="0.25" stroke="green"/><polygon points="0.0,190.6054292675782 400.0,98.52462745335622 " stroke-opacity="0.25" stroke="green"/><polygon points="-5.684341886080802e-14,205.3123612694461 400.00000000000006,54.48552708118493 " stroke-opacity="0.25" stroke="green"/><polygon points="5.684341886080802e-14,218.57661809872752 399.99999999999994,14.766438300955826 " stroke-opacity="0.25" stroke="green"/><polygon points="0.0,230.60055345831555 366.2664400233149,0.0 " stroke-opacity="0.25" stroke="green"/><polygon points="0.0,241.55036776760952 326.8859335476588,0.0 " stroke-opacity="0.25" stroke="green"/><polygon points="-5.684341886080802e-14,251.56383704866272 299.859317680872,5.684341886080802e-14 " stroke-opacity="0.25" stroke="green"/><polygon points="0.0,260.7561403639672 280.1615545681394,0.0 " stroke-opacity="0.25" stroke="green"/><polygon points="0.0,269.2243100661384 265.1675093770932,-5.684341886080802e-14 " stroke-opacity="0.25" stroke="green"/><polygon points="-5.684341886080802e-14,277.05067018328833 253.37205683531596,0.0 " stroke-opacity="0.25" stroke="green"/><polygon points="-5.684341886080802e-14,284.3055215548866 243.85033847536553,-5.684341886080802e-14 " stroke-opacity="0.25" stroke="green"/><polygon points="0.0,291.04925945394996 236.00270930588187,0.0 " stroke-opacity="0.25" stroke="green"/><polygon points="5.684341886080802e-14,297.3340588711159 229.42334269055277,5.684341886080802e-14 " stroke-opacity="0.25" stroke="green"/><polygon points="5.684341886080802e-14,303.20522705008227 223.82777706333817,-5.684341886080802e-14 " stroke-opacity="0.25" stroke="green"/><polygon points="0.0,134.06967411337297 400.0,222.86881028701092 " stroke-opacity="0.25" stroke="green"/><polygon points="-5.684341886080802e-14,154.4302130513539 400.00000000000006,164.57878532545186 " stroke-opacity="0.25" stroke="green"/><polygon points="0.0,172.50066775453024 400.0,112.84502430255614 " stroke-opacity="0.25" stroke="green"/><polygon points="0.0,188.64683762555427 400.0,66.62028301833095 " stroke-opacity="0.25" stroke="green"/><polygon points="0.0,203.16055399664387 400.0,25.069079873229157 " stroke-opacity="0.25" stroke="green"/><polygon points="5.684341886080802e-14,216.27747676501107 378.1723831055913,5.684341886080802e-14 " stroke-opacity="0.25" stroke="green"/><polygon points="0.0,228.1899887061278 332.1815020201236,0.0 " stroke-opacity="0.25" stroke="green"/><polygon points="0.0,239.05669378755908 301.88272506077976,-5.684341886080802e-14 " stroke-opacity="0.25" stroke="green"/><polygon points="-5.684341886080802e-14,249.0095190847349 280.4152751316831,0.0 " stroke-opacity="0.25" stroke="green"/><polygon points="-5.684341886080802e-14,258.15909720694594 264.4091279987168,0.0 " stroke-opacity="0.25" stroke="green"/><polygon points="0.0,266.5988960969977 252.01543024393473,0.0 " stroke-opacity="0.25" stroke="green"/><polygon points="0.0,274.40842360934494 242.13524423227832,0.0 " stroke-opacity="0.25" stroke="green"/><polygon points="-5.684341886080802e-14,281.6557399914928 234.07433575119683,-5.684341886080802e-14 " stroke-opacity="0.25" stroke="green"/><polygon points="-5.684341886080802e-14,288.3994465948857 227.37258091522267,0.0 " stroke-opacity="0.25" stroke="green"/><polygon points="0.0,294.6902739251539 221.7129552285466,0.0 " stroke-opacity="0.25" stroke="green"/><polygon points="0.0,110.58938986328879 400.0,244.14363860099712 " stroke-opacity="0.25" stroke="green"/><polygon points="-5.684341886080802e-14,133.39396333891915 400.00000000000006,181.72601773105956 " stroke-opacity="0.25" stroke="green"/><polygon points="5.684341886080802e-14,153.51763053719012 399.99999999999994,126.64621406638025 " stroke-opacity="0.25" stroke="green"/><polygon points="-5.684341886080802e-14,171.40689697968128 400.00000000000006,77.68211256095424 " stroke-opacity="0.25" stroke="green"/><polygon points="0.0,187.41432924962157 400.0,33.86871523545494 " stroke-opacity="0.25" stroke="green"/><polygon points="0.0,201.82202495754967 389.2643848731593,0.0 " stroke-opacity="0.25" stroke="green"/><polygon points="-5.684341886080802e-14,214.858381018849 335.57747403261817,0.0 " stroke-opacity="0.25" stroke="green"/><polygon points="-5.684341886080802e-14,226.71029137932538 301.88068352273103,0.0 " stroke-opacity="0.25" stroke="green"/><polygon points="0.0,237.53216446563354 278.7615005587444,0.0 " stroke-opacity="0.25" stroke="green"/><polygon points="0.0,247.45268745464477 261.9150357275316,0.0 " stroke-opacity="0.25" stroke="green"/><polygon points="0.0,256.5799679350122 249.0933640351402,0.0 " stroke-opacity="0.25" stroke="green"/><polygon points="-5.684341886080802e-14,265.0054896055208 239.00804928177655,0.0 " stroke-opacity="0.25" stroke="green"/><polygon points="-5.684341886080802e-14,272.807189338914 230.86757684124672,-5.684341886080802e-14 " stroke-opacity="0.25" stroke="green"/><polygon points="-5.684341886080802e-14,280.0518751711393 224.15885637761085,-5.684341886080802e-14 " stroke-opacity="0.25" stroke="green"/><polygon points="0.0,286.79714423397104 218.53469394184265,0.0 " stroke-opacity="0.25" stroke="green"/><polygon points="-5.684341886080802e-14,84.57460277019561 400.00000000000006,267.19501548224986 " stroke-opacity="0.25" stroke="green"/><polygon points="0.0,110.49710519962694 400.0,199.434422701231 " stroke-opacity="0.25" stroke="green"/><polygon points="0.0,133.19745366548233 400.0,140.09643739022724 " stroke-opacity="0.25" stroke="green"/><polygon points="5.684341886080802e-14,153.2412634847858 399.99999999999994,87.70255918948737 " stroke-opacity="0.25" stroke="green"/><polygon points="0.0,171.06908419159018 400.0,41.10120569842741 " stroke-opacity="0.25" stroke="green"/><polygon points="-5.684341886080802e-14,187.02915612933327 398.6828204346662,-5.684341886080802e-14 " stroke-opacity="0.25" stroke="green"/><polygon points="0.0,201.40038417153644 336.24982175666395,-5.684341886080802e-14 " stroke-opacity="0.25" stroke="green"/><polygon points="-5.684341886080802e-14,214.40877558600894 299.2486600109892,0.0 " stroke-opacity="0.25" stroke="green"/><polygon points="0.0,226.23941314457204 274.76940207422035,0.0 " stroke-opacity="0.25" stroke="green"/><polygon points="-5.684341886080802e-14,237.04531701019275 257.37548711621986,0.0 " stroke-opacity="0.25" stroke="green"/><polygon points="0.0,246.95409944488514 244.37962239047576,5.684341886080802e-14 " stroke-opacity="0.25" stroke="green"/><polygon points="-5.684341886080802e-14,256.0730281275379 234.30095465809677,0.0 " stroke-opacity="0.25" stroke="green"/><polygon points="0.0,264.4929250520753 226.25636171310973,0.0 " stroke-opacity="0.25" stroke="green"/><polygon points="0.0,272.2912018877007 219.68651088665422,0.0 " stroke-opacity="0.25" stroke="green"/><polygon points="-5.684341886080802e-14,279.53424699270715 214.21992531174737,0.0 " stroke-opacity="0.25" stroke="green"/><polygon points="0.0,54.91754986611332 400.0,292.9051811750156 " stroke-opacity="0.25" stroke="green"/><polygon points="0.0,84.92481895012935 400.0,218.16160425468252 " stroke-opacity="0.25" stroke="green"/><polygon points="0.0,110.93759944444474 400.0,153.36769534064993 " stroke-opacity="0.25" stroke="green"/><polygon points="0.0,133.70372051791904 400.0,96.66072487730837 " stroke-opacity="0.25" stroke="green"/><polygon points="0.0,153.795303065109 400.0,46.61562609265971 " stroke-opacity="0.25" stroke="green"/><polygon points="0.0,171.6575016614924 400.0,2.1235861467052075 " stroke-opacity="0.25" stroke="green"/><polygon points="-5.684341886080802e-14,187.64187401194692 333.0926564044606,5.684341886080802e-14 " stroke-opacity="0.25" stroke="green"/><polygon points="-5.684341886080802e-14,202.02975173099654 293.26548291027007,-5.684341886080802e-14 " stroke-opacity="0.25" stroke="green"/><polygon points="0.0,215.0489414863849 267.968014753257,-5.684341886080802e-14 " stroke-opacity="0.25" stroke="green"/><polygon points="-5.684341886080802e-14,226.8858763182154 250.47579066935953,5.684341886080802e-14 " stroke-opacity="0.25" stroke="green"/><polygon points="0.0,237.69460039922564 237.65927400456133,0.0 " stroke-opacity="0.25" stroke="green"/><polygon points="0.0,247.60350988031018 227.86474659672965,0.0 " stroke-opacity="0.25" stroke="green"/><polygon points="-5.684341886080802e-14,256.7204775064114 220.13610181133296,0.0 " stroke-opacity="0.25" stroke="green"/><polygon points="0.0,265.1367957346186 213.88208358653148,0.0 " stroke-opacity="0.25" stroke="green"/><polygon points="0.0,272.9302443928775 208.71740945169302,-5.684341886080802e-14 " stroke-opacity="0.25" stroke="green"/><polygon points="5.684341886080802e-14,19.974575677904113 399.99999999999994,322.56469640513035 " stroke-opacity="0.25" stroke="green"/><polygon points="0.0,55.50770886024668 400.0,238.53034262487364 " stroke-opacity="0.25" stroke="green"/><polygon points="0.0,85.9010795042099 400.0,166.6513093810933 " stroke-opacity="0.25" stroke="green"/><polygon points="0.0,112.1946509564418 400.0,104.46812744144648 " stroke-opacity="0.25" stroke="green"/><polygon points="-5.684341886080802e-14,135.16554987317653 400.00000000000006,50.14292520516733 " stroke-opacity="0.25" stroke="green"/><polygon points="0.0,155.40616701932385 400.0,2.2747236237964046 " stroke-opacity="0.25" stroke="green"/><polygon points="0.0,173.37597147494628 324.6755119137448,0.0 " stroke-opacity="0.25" stroke="green"/><polygon points="-5.684341886080802e-14,189.43681189801723 283.1185217953984,0.0 " stroke-opacity="0.25" stroke="green"/><polygon points="0.0,203.87753487329317 257.8806086683744,0.0 " stroke-opacity="0.25" stroke="green"/><polygon points="0.0,216.9315109391596 240.92685090983633,0.0 " stroke-opacity="0.25" stroke="green"/><polygon points="5.684341886080802e-14,228.78934285141906 228.7534746106941,0.0 " stroke-opacity="0.25" stroke="green"/><polygon points="-5.684341886080802e-14,239.60823348775583 219.58844908306364,0.0 " stroke-opacity="0.25" stroke="green"/><polygon points="0.0,249.51899474806922 212.43925301469343,0.0 " stroke-opacity="0.25" stroke="green"/><polygon points="0.0,258.63136258090185 206.7067132600534,0.0 " stroke-opacity="0.25" stroke="green"/><polygon points="0.0,267.03807723795717 202.00771007549972,0.0 " stroke-opacity="0.25" stroke="green"/><polygon points="23.987187258932664,0.0 400.0,358.1941710935028 " stroke-opacity="0.25" stroke="green"/><polygon points="-5.684341886080802e-14,20.46625687796825 400.00000000000006,261.455392380008 " stroke-opacity="0.25" stroke="green"/><polygon points="-5.684341886080802e-14,56.85816299807453 400.00000000000006,180.1817469284339 " stroke-opacity="0.25" stroke="green"/><polygon points="-5.684341886080802e-14,87.86289164911389 400.00000000000006,110.9392259296609 " stroke-opacity="0.25" stroke="green"/><polygon points="0.0,114.59421973954649 400.0,51.24044360973187 " stroke-opacity="0.25" stroke="green"/><polygon points="-5.684341886080802e-14,137.87869366192044 397.80576639058074,-5.684341886080802e-14 " stroke-opacity="0.25" stroke="green"/><polygon points="0.0,158.34261314626428 309.25540010738666,0.0 " stroke-opacity="0.25" stroke="green"/><polygon points="-5.684341886080802e-14,176.46921007203747 267.97291228200737,-5.684341886080802e-14 " stroke-opacity="0.25" stroke="green"/><polygon points="0.0,192.63729338504936 244.08444056305896,-5.684341886080802e-14 " stroke-opacity="0.25" stroke="green"/><polygon points="0.0,207.14800970966527 228.5097073989519,0.0 " stroke-opacity="0.25" stroke="green"/><polygon points="0.0,220.24377562123001 217.5519357331759,-5.684341886080802e-14 " stroke-opacity="0.25" stroke="green"/><polygon points="0.0,232.1219290886438 209.423163940339,0.0 " stroke-opacity="0.25" stroke="green"/><polygon points="0.0,242.9447422408386 203.1530883601615,-5.684341886080802e-14 " stroke-opacity="0.25" stroke="green"/><polygon points="0.0,252.84687883105522 198.16961152935974,-5.684341886080802e-14 " stroke-opacity="0.25" stroke="green"/><polygon points="5.684341886080802e-14,261.9410261705642 194.11357391600427,0.0 " stroke-opacity="0.25" stroke="green"/><polygon points="64.81388934624155,-5.684341886080802e-14 397.33337861893904,400.00000000000006 " stroke-opacity="0.25" stroke="green"/><polygon points="29.652217788566134,0.0 400.00000000000006,288.38992719796283 " stroke-opacity="0.25" stroke="green"/><polygon points="0.0,21.890162412821525 400.0,194.278315061781 " stroke-opacity="0.25" stroke="green"/><polygon points="0.0,59.42970151743049 400.0,115.73498899172468 " stroke-opacity="0.25" stroke="green"/><polygon points="0.0,91.23370941565747 400.0,49.19201530938662 " stroke-opacity="0.25" stroke="green"/><polygon points="0.0,118.52336326064113 374.9878503111197,0.0 " stroke-opacity="0.25" stroke="green"/><polygon points="5.684341886080802e-14,142.19613884027592 284.9166239501925,0.0 " stroke-opacity="0.25" stroke="green"/><polygon points="0.0,162.92640036786608 247.105514477827,5.684341886080802e-14 " stroke-opacity="0.25" stroke="green"/><polygon points="0.0,181.23067530833373 226.2994923762636,-5.684341886080802e-14 " stroke-opacity="0.25" stroke="green"/><polygon points="0.0,197.5112793825371 213.13286383475227,5.684341886080802e-14 " stroke-opacity="0.25" stroke="green"/><polygon points="0.0,212.08623032508422 204.05078842938588,-5.684341886080802e-14 " stroke-opacity="0.25" stroke="green"/><polygon points="0.0,225.210227793036 197.40782480178427,5.684341886080802e-14 " stroke-opacity="0.25" stroke="green"/><polygon points="0.0,237.08966464313067 192.33771214899798,0.0 " stroke-opacity="0.25" stroke="green"/><polygon points="0.0,247.8935609355615 188.34097598853285,5.684341886080802e-14 " stroke-opacity="0.25" stroke="green"/><polygon points="5.684341886080802e-14,257.7616567277145 185.10938250353877,0.0 " stroke-opacity="0.25" stroke="green"/><polygon points="99.48213014755218,-5.684341886080802e-14 358.5823200729585,400.00000000000006 " stroke-opacity="0.25" stroke="green"/><polygon points="79.82378164805148,0.0 400.0,321.85418966299096 " stroke-opacity="0.25" stroke="green"/><polygon points="38.35665994574924,-5.684341886080802e-14 400.0,209.42723864898537 " stroke-opacity="0.25" stroke="green"/><polygon points="0.0,24.848983661581286 400.0,118.250735415075 " stroke-opacity="0.25" stroke="green"/><polygon points="0.0,63.78303487671997 400.0,42.81992316350315 " stroke-opacity="0.25" stroke="green"/><polygon points="0.0,96.52781229031484 329.59380456718424,0.0 " stroke-opacity="0.25" stroke="green"/><polygon points="0.0,124.45049312967411 249.94114803272575,0.0 " stroke-opacity="0.25" stroke="green"/><polygon points="-5.684341886080802e-14,148.54320095786846 220.11488617053055,0.0 " stroke-opacity="0.25" stroke="green"/><polygon points="0.0,169.54336070979681 204.50105637992954,0.0 " stroke-opacity="0.25" stroke="green"/><polygon points="-5.684341886080802e-14,188.0105024198738 194.8957726687243,0.0 " stroke-opacity="0.25" stroke="green"/><polygon points="-5.684341886080802e-14,204.37685376879546 188.39036386477989,0.0 " stroke-opacity="0.25" stroke="green"/><polygon points="0.0,218.98159588630034 183.69271424506303,0.0 " stroke-opacity="0.25" stroke="green"/><polygon points="-5.684341886080802e-14,232.09462258188745 180.14122317531493,0.0 " stroke-opacity="0.25" stroke="green"/><polygon points="-5.684341886080802e-14,243.93337306883055 177.36202981543795,5.684341886080802e-14 " stroke-opacity="0.25" stroke="green"/><polygon points="0.0,254.6749848447028 175.12792557192918,0.0 " stroke-opacity="0.25" stroke="green"/><polygon points="130.12497451638257,0.0 325.07679225612645,400.0 " stroke-opacity="0.25" stroke="green"/><polygon points="121.9731641213224,0.0 399.99999999999994,366.71940671859943 " stroke-opacity="0.25" stroke="green"/><polygon points="105.66954333120202,0.0 400.0,226.46400024470836 " stroke-opacity="0.25" stroke="green"/><polygon points="56.75868096084088,0.0 400.0,117.37646187612644 " stroke-opacity="0.25" stroke="green"/><polygon points="-5.684341886080802e-14,30.106431181260916 400.00000000000006,30.106431181260916 " stroke-opacity="0.25" stroke="green"/><polygon points="0.0,70.61944378274396 252.40213044228503,0.0 " stroke-opacity="0.25" stroke="green"/><polygon points="5.684341886080802e-14,104.38028761731306 203.4912680719241,-5.684341886080802e-14 " stroke-opacity="0.25" stroke="green"/><polygon points="0.0,132.94715547733304 187.18764728180378,0.0 " stroke-opacity="0.25" stroke="green"/><polygon points="0.0,157.43304221449307 179.03583688674362,-5.684341886080802e-14 " stroke-opacity="0.25" stroke="green"/><polygon points="0.0,178.65414405336506 174.14475064970753,-5.684341886080802e-14 " stroke-opacity="0.25" stroke="green"/><polygon points="-5.684341886080802e-14,197.22260816237804 170.88402649168347,0.0 " stroke-opacity="0.25" stroke="green"/><polygon points="-5.684341886080802e-14,213.60654708209543 168.55493780738055,-5.684341886080802e-14 " stroke-opacity="0.25" stroke="green"/><polygon points="0.0,228.17004834406637 166.80812129415338,0.0 " stroke-opacity="0.25" stroke="green"/><polygon points="-5.684341886080802e-14,241.20054947319835 165.44948622831,0.0 " stroke-opacity="0.25" stroke="green"/><polygon points="0.0,252.92800048941706 164.36257817563532,0.0 " stroke-opacity="0.25" stroke="green"/><polygon points="158.19075978080005,-5.684341886080802e-14 295.11304172524063,400.00000000000006 " stroke-opacity="0.25" stroke="green"/><polygon points="159.33966632023504,-5.684341886080802e-14 381.19318877680456,400.00000000000006 " stroke-opacity="0.25" stroke="green"/><polygon points="161.56110129264465,0.0 399.99999999999994,247.04222872427061 " stroke-opacity="0.25" stroke="green"/><polygon points="167.6715137004525,0.0 400.0,110.92667518331787 " stroke-opacity="0.25" stroke="green"/><polygon points="259.58650216140893,0.0 400.00000000000006,7.358759603084593 " stroke-opacity="0.25" stroke="green"/><polygon points="0.0,38.654260224145986 137.14094267031624,0.0 " stroke-opacity="0.25" stroke="green"/><polygon points="0.0,80.82831066058473 146.52924454553246,0.0 " stroke-opacity="0.25" stroke="green"/><polygon points="0.0,115.58001917982412 149.34672604808662,0.0 " stroke-opacity="0.25" stroke="green"/><polygon points="0.0,144.71033032983266 150.70345439744654,-5.684341886080802e-14 " stroke-opacity="0.25" stroke="green"/><polygon points="0.0,169.48114839477782 151.50157945148243,0.0 " stroke-opacity="0.25" stroke="green"/><polygon points="5.684341886080802e-14,190.80297217405567 152.02719404661687,0.0 " stroke-opacity="0.25" stroke="green"/><polygon points="0.0,209.34925439823073 152.39951401743525,-5.684341886080802e-14 " stroke-opacity="0.25" stroke="green"/><polygon points="0.0,225.62883050059241 152.67706682904787,5.684341886080802e-14 " stroke-opacity="0.25" stroke="green"/><polygon points="0.0,240.03332028772553 152.89194947392087,0.0 " stroke-opacity="0.25" stroke="green"/><polygon points="-5.684341886080802e-14,252.86904231122395 153.06323464734098,0.0 " stroke-opacity="0.25" stroke="green"/><polygon points="184.74920938643726,0.0 267.46942407685987,400.0 " stroke-opacity="0.25" stroke="green"/><polygon points="194.0937039508422,-5.684341886080802e-14 342.69199426625653,400.00000000000006 " stroke-opacity="0.25" stroke="green"/><polygon points="211.82451070059247,0.0 400.00000000000006,275.1110497865356 " stroke-opacity="0.25" stroke="green"/><polygon points="258.42084075412,5.684341886080802e-14 400.00000000000006,94.05684476820018 " stroke-opacity="0.25" stroke="green"/><polygon points="0.0,51.7951777884106 82.56803624148539,0.0 " stroke-opacity="0.25" stroke="green"/><polygon points="-5.684341886080802e-14,95.54102475964706 108.55131454430952,0.0 " stroke-opacity="0.25" stroke="green"/><polygon points="-5.684341886080802e-14,131.10342871446448 120.75580232379382,0.0 " stroke-opacity="0.25" stroke="green"/><polygon points="0.0,160.58226873529622 127.8447013079752,5.684341886080802e-14 " stroke-opacity="0.25" stroke="green"/><polygon points="0.0,185.41559160082016 132.47707685090444,0.0 " stroke-opacity="0.25" stroke="green"/><polygon points="0.0,206.621309802452 135.74125241384402,0.0 " stroke-opacity="0.25" stroke="green"/><polygon points="0.0,224.9401889293485 138.16538932481586,0.0 " stroke-opacity="0.25" stroke="green"/><polygon points="0.0,240.92415991632862 140.03679524183292,0.0 " stroke-opacity="0.25" stroke="green"/><polygon points="0.0,254.9928858139087 141.52516722799288,5.684341886080802e-14 " stroke-opacity="0.25" stroke="green"/></svg>
