<?xml version="1.0" encoding="UTF-8"?>
<!DOCTYPE svg PUBLIC "-//W3C//DTD SVG 1.1//EN"
    "http://www.w3.org/Graphics/SVG/1.1/DTD/svg11.dtd"><svg width="400" height="400" stroke="black" fill="none" fill-opacity="0.75" font-style="italic" font-family="CMU Serif, sans-serif" xmlns="http://www.w3.org/2000/svg" xmlns:xlink="http://www.w3.org/1999/xlink" version="1.1"><filter id="blur"><feGaussianBlur stdDeviation="2"/></filter><rect width="100%" height="100%" fill="white" stroke="none" fill-opacity="1"/><polygon points="205.11864960321714,131.52932373709416 213.12120751002266,55.411519215656284 " opacity="0.5" stroke="blue"/><polygon points="206.57285129335446,132.82709251223577 218.6734622026637,57.07680105988709 " opacity="0.5" stroke="blue"/><polygon points="208.0226551355038,134.4295707533344 224.31259978619633,59.518052644360665 " opacity="0.5" stroke="blue"/><polygon points="209.46101276610858,136.33636416745117 230.01060931458144,62.75148209400237 " opacity="0.5" stroke="blue"/><polygon points="210.88062909283346,138.54522069972745 235.7362187525023,66.78527143873893 " opacity="0.5" stroke="blue"/><polygon points="212.27401059780473,141.0519133458045 241.45513437638442,71.61844821698361 " opacity="0.5" stroke="blue"/><polygon points="213.63352132582355,143.85014041592697 247.13041071532797,77.23987815894719 " opacity="0.5" stroke="blue"/><polygon points="214.9514462049142,146.93144731361923 252.72295588302615,83.62744460368255 " opacity="0.5" stroke="blue"/><polygon points="216.22006109483436,150.28517376078133 258.1921698120086,90.7474808780115 " opacity="0.5" stroke="blue"/><polygon points="217.43170869682186,153.89843010792407 263.49670430849363,98.55451731946967 " opacity="0.5" stroke="blue"/><polygon points="218.5788791955858,157.75610590363053 268.5953245943268,106.99139433379695 " opacity="0.5" stroke="blue"/><polygon points="219.6542942547052,161.84091326018867 273.4478428995153,115.98977678451993 " opacity="0.5" stroke="blue"/><polygon points="220.65099276253343,166.13346675154216 278.01608666407276,125.47108377089427 " opacity="0.5" stroke="blue"/><polygon points="221.56241654104028,170.61240063480997 282.26485797919287,135.34782286959197 " opacity="0.5" stroke="blue"/><polygon points="222.38249409769188,175.25452312798694 286.16283791016883,145.52529128187876 " opacity="0.5" stroke="blue"/><polygon points="223.10572043174056,180.03500634442383 289.6833899023957,155.90358059530772 " opacity="0.5" stroke="blue"/><polygon points="223.72723090977547,184.9276093279311 292.8052208008702,166.379799732701 " opacity="0.5" stroke="blue"/><polygon points="224.24286730614043,189.90493050513518 295.51286588521623,176.8504145708691 " opacity="0.5" stroke="blue"/><polygon points="224.6492342627095,194.93868483058287 297.7969750610078,187.2135944917242 " opacity="0.5" stroke="blue"/><polygon points="224.94374465580225,200.0 299.65438991200534,197.37145668659684 " opacity="0.5" stroke="blue"/><polygon points="225.12465265738825,205.05972539741572 301.08801444451854,207.23210821742381 " opacity="0.5" stroke="blue"/><polygon points="225.19107363062255,210.08874696255367 302.1064947453358,216.7114024680887 " opacity="0.5" stroke="blue"/><polygon points="225.14299039012002,215.058300943405 302.72373327713996,225.73434869845784 " opacity="0.5" stroke="blue"/><polygon points="224.98124576673416,219.94027954793185 302.9582712966297,234.236138454853 " opacity="0.5" stroke="blue"/><polygon points="224.70752182531095,224.70752182531095 302.8325774354685,242.16277799632167 " opacity="0.5" stroke="blue"/><polygon points="224.32430647250132,229.3340836724072 302.3722817752278,249.4713393169704 " opacity="0.5" stroke="blue"/><polygon points="223.83484854236212,233.7954816426814 301.60539307930435,256.12986195379216 " opacity="0.5" stroke="blue"/><polygon points="223.2431027450058,238.06890618854413 300.56153279069537,262.11695241594174 " opacity="0.5" stroke="blue"/><polygon points="222.55366609649724,242.13340104243753 299.27121368978464,267.42113730881067 " opacity="0.5" stroke="blue"/><polygon points="221.77170760929232,245.97000658082993 297.765184491927,272.0400302346156 " opacity="0.5" stroke="blue"/><polygon points="220.90289310898697,249.56186616299843 296.0738548504407,275.97937198838906 " opacity="0.5" stroke="blue"/><polygon points="219.95330705650505,252.89429554076997 294.226808788507,279.2519993900081 " opacity="0.5" stroke="blue"/><polygon points="218.92937320045485,255.95481645086107 292.25240892358966,281.8767913771958 " opacity="0.5" stroke="blue"/><polygon points="217.8377757706971,258.73315639166105 290.1774892141217,283.87763278511505 " opacity="0.5" stroke="blue"/><polygon points="216.68538276191822,261.22121732518644 288.02713044514377,285.28242748076354 " opacity="0.5" stroke="blue"/><polygon points="215.47917265723854,263.41301661718427 285.82451025330414,286.12218394250465 " opacity="0.5" stroke="blue"/><polygon points="214.22616571907403,265.3046039290524 283.5908180646693,286.4301885060303 " opacity="0.5" stroke="blue"/><polygon points="212.9333607396788,266.8939580087057 281.3452247243182,286.2412746679317 " opacity="0.5" stroke="blue"/><polygon points="211.60767790805136,268.18086740574705 279.1048966574092,285.5911912057519 " opacity="0.5" stroke="blue"/><polygon points="210.2559082226684,269.1667990771482 276.88504494159554,284.51606746379406 " opacity="0.5" stroke="blue"/><polygon points="208.8846696684664,269.8547586747897 274.69900053080363,283.05197089681246 " opacity="0.5" stroke="blue"/><polygon points="207.50037018731157,270.24914603938305 272.55830791549556,281.2345497290713 " opacity="0.5" stroke="blue"/><polygon points="206.10917730763393,270.35560909055323 270.4728306273097,279.09875221385266 " opacity="0.5" stroke="blue"/><polygon points="204.71699416290969,270.18089892325463 268.45086311636817,276.6786132999349 " opacity="0.5" stroke="blue"/><polygon points="203.32944152066437,269.73272851723607 266.4992445920213,274.00709936574646 " opacity="0.5" stroke="blue"/><polygon points="201.951845362737,269.0196370572193 264.62347138746054,271.1160019244427 " opacity="0.5" stroke="blue"/><polygon points="200.58922950183128,268.05086146193185 262.8278052669242,268.0358717112596 " opacity="0.5" stroke="blue"/><polygon points="199.24631268630293,266.8362163420041 261.1153758348163,264.7959852383409 " opacity="0.5" stroke="blue"/><polygon points="197.9275096317,265.38598325869697 259.4882758312875,261.4243366641201 " opacity="0.5" stroke="blue"/><polygon points="196.63693542058914,263.71080984324635 257.9476486165687,257.9476486165687 " opacity="0.5" stroke="blue"/><polygon points="195.37841272847072,261.8216190635043 256.49376756774626,254.39139639157548 " opacity="0.5" stroke="blue"/><polygon points="194.1554813600492,259.72952869158377 255.1261074492651,250.77984069290738 " opacity="0.5" stroke="blue"/><polygon points="192.9714096139784,257.44578083269187 253.84340808494463,247.13606477329364 " opacity="0.5" stroke="blue"/><polygon points="191.8292070329443,254.98168121928663 252.64373086668297,243.4820124704465 " opacity="0.5" stroke="blue"/><polygon points="190.73163813743815,252.34854785317143 251.52450879401033,239.83852420686065 " opacity="0.5" stroke="blue"/><polygon points="189.68123678401955,249.55766848763628 250.48259085838998,236.2253685420809 " opacity="0.5" stroke="blue"/><polygon points="188.68032083083543,246.6202663783893 249.51428167407363,232.66126733776073 " opacity="0.5" stroke="blue"/><polygon points="187.73100683353024,243.54747369185225 248.61537731911272,229.16391302791854 " opacity="0.5" stroke="blue"/><polygon points="186.83522453263342,240.35031193852234 247.78119838984608,225.74997688870226 " opacity="0.5" stroke="blue"/><polygon points="185.99473092847785,237.0396787938422 247.00662129234053,222.43510758293624 " opacity="0.5" stroke="blue"/><polygon points="185.2111237713312,233.62634067595607 246.28610879598892,219.23391962319934 " opacity="0.5" stroke="blue"/><polygon points="184.48585432254714,230.1209304657819 245.61374085773718,216.15997176023757 " opacity="0.5" stroke="blue"/><polygon points="183.82023926713197,226.53394977726703 244.98324668925505,213.22573566632747 " opacity="0.5" stroke="blue"/><polygon points="183.21547167926346,222.87577521214575 244.3880389821469,210.44255564861083 " opacity="0.5" stroke="blue"/><polygon points="182.67263096016305,219.15666806195367 243.821251126032,207.82060049553593 " opacity="0.5" stroke="blue"/><polygon points="182.19269168254385,215.38678694876427 243.27577814899252,205.36880892744804 " opacity="0.5" stroke="blue"/><polygon points="181.77653128791542,211.576202923688 242.7443219778303,203.09483048396527 " opacity="0.5" stroke="blue"/><polygon points="181.4249365926292,207.73491656745713 242.21944145587062,201.0049640266943 " opacity="0.5" stroke="blue"/><polygon points="181.13860906602795,203.87287665949285 241.69360736891534,199.10409635368015 " opacity="0.5" stroke="blue"/><polygon points="180.91816884975586,200.0 241.1592625171015,197.39564369667187 " opacity="0.5" stroke="blue"/><polygon points="180.76415749154395,196.12619198331078 240.60888663540254,195.88149908679551 " opacity="0.5" stroke="blue"/><polygon points="180.6770393699609,192.2613675295334 240.03506571391037,194.56198871054323 " opacity="0.5" stroke="blue"/><polygon points="180.65720178906972,188.41547198529742 239.43056500857062,193.43584041836124 " opacity="0.5" stroke="blue"/><polygon points="180.70495372401587,184.5985016029205 238.78840477347728,192.5001674765573 " opacity="0.5" stroke="blue"/><polygon points="180.82052320066654,180.82052320066654 238.10193749869995,191.75047045714604 " opacity="0.5" stroke="blue"/><polygon points="181.00405329489172,177.0916925950517 237.36492521568903,191.1806598320327 " opacity="0.5" stroke="blue"/><polygon points="181.2555967403206,173.42227137967237 236.57161524892078,190.7831013765991 " opacity="0.5" stroke="blue"/><polygon points="181.57510913781275,169.82264160418595 235.71681266056115,190.54868590004597 " opacity="0.5" stroke="blue"/><polygon points="181.962440765864,166.30331788247025 234.795947566148,190.4669241209928 " opacity="0.5" stroke="blue"/><polygon points="182.41732699914456,162.8749564313951 233.805135502772,190.52606672060293 " opacity="0.5" stroke="blue"/><polygon points="182.9393773527623,159.5483605120539 232.74122911271718,190.7132487635062 " opacity="0.5" stroke="blue"/><polygon points="183.52806318309248,156.3344817149822 231.6018595665002,191.01465681701004 " opacity="0.5" stroke="blue"/><polygon points="184.1827040925356,153.24441650134196 230.38546638645425,191.4157162636529 " opacity="0.5" stroke="blue"/><polygon points="184.90245310575347,150.28939738513355 229.09131463723787,191.90129553452076 " opacity="0.5" stroke="blue"/><polygon points="185.6862807091593,147.48077811937893 227.7194988100553,192.45592333254535 " opacity="0.5" stroke="blue"/><polygon points="186.53295787399256,144.83001223444063 226.27093312612942,193.06401440280848 " opacity="0.5" stroke="blue"/><polygon points="187.44103821640968,142.34862427211655 224.74732840236393,193.71009906924675 " opacity="0.5" stroke="blue"/><polygon points="188.40883948574697,140.04817306813436 223.15115603697026,194.37905161228187 " opacity="0.5" stroke="blue"/><polygon points="189.4344246143866,137.94020646177077 221.48560006394956,195.05631261608755 " opacity="0.5" stroke="blue"/><polygon points="190.51558260918708,136.03620685838342 219.75449857314723,195.72810066136267 " opacity="0.5" stroke="blue"/><polygon points="191.64980961468058,134.34752714270314 217.96227608057515,196.38160916170125 " opacity="0.5" stroke="blue"/><polygon points="192.83429053132795,132.88531654182714 216.11386864938385,197.0051847107847 " opacity="0.5" stroke="blue"/><polygon points="194.0658816268467,131.66043617085018 214.21464369769046,197.58848398764644 " opacity="0.5" stroke="blue"/><polygon points="195.34109463336313,130.68336416442347 212.27031648300857,198.12260701721857 " opacity="0.5" stroke="blue"/><polygon points="196.6560828758332,129.96409050694785 210.28686522686098,198.60020536053162 " opacity="0.5" stroke="blue"/><polygon points="198.00663002532528,129.51200192422957 208.27044674433276,199.01556457187257 " opacity="0.5" stroke="blue"/><polygon points="199.38814211140422,129.33575749038874 206.22731428246846,199.36466097149636 " opacity="0.5" stroke="blue"/><polygon points="200.7956434576586,129.44315593383595 204.16373906170392,199.64519341087046 " opacity="0.5" stroke="blue"/><polygon points="202.22377721969383,129.8409959910975 202.08593677051465,199.85659122922715 " opacity="0.5" stroke="blue"/><polygon points="203.66681120180988,130.53493155028266 200.0,200.0 " opacity="0.5" stroke="blue"/><polygon points="205.11864960321714,131.52932373709416 197.91183733635663,200.0782469363974 " opacity="0.5" stroke="blue"/><polygon points="206.57285129335446,132.82709251223577 195.8271195677838,200.0957879674797 " opacity="0.5" stroke="blue"/><polygon points="208.0226551355038,134.4295707533344 193.75123321892005,200.05863851689625 " opacity="0.5" stroke="blue"/><polygon points="209.46101276610858,136.33636416745117 191.6892414086868,199.9742899285466 " opacity="0.5" stroke="blue"/><polygon points="210.88062909283346,138.54522069972745 189.6458518421882,199.8516133035309 " opacity="0.5" stroke="blue"/><polygon points="212.27401059780473,141.0519133458045 187.62539159749758,199.70075226021586 " opacity="0.5" stroke="blue"/><polygon points="213.63352132582355,143.85014041592697 185.63178825500762,199.53300582495862 " opacity="0.5" stroke="blue"/><polygon points="214.9514462049142,146.93144731361923 183.66855683996525,199.36070232645108 " opacity="0.5" stroke="blue"/><polygon points="216.22006109483436,150.28517376078133 181.7387920058332,199.19706482307328 " opacity="0.5" stroke="blue"/><polygon points="217.43170869682186,153.89843010792404 179.84516487410633,199.05606826075868 " opacity="0.5" stroke="blue"/><polygon points="218.5788791955858,157.75610590363053 177.98992396131865,198.95228825849102 " opacity="0.5" stroke="blue"/><polygon points="219.6542942547052,161.84091326018864 176.1748996619138,198.9007411684906 " opacity="0.5" stroke="blue"/><polygon points="220.65099276253343,166.1334667515422 174.40151181192184,198.91671487622594 " opacity="0.5" stroke="blue"/><polygon points="221.56241654104028,170.61240063481 172.67077992845105,199.01558970835154 " opacity="0.5" stroke="blue"/><polygon points="222.38249409769188,175.25452312798694 170.9833357993887,199.2126488200932 " opacity="0.5" stroke="blue"/><polygon points="223.10572043174056,180.03500634442386 169.3394381820567,199.52287755154285 " opacity="0.5" stroke="blue"/><polygon points="223.72723090977547,184.92760932793107 167.73898945464893,199.96075148679594 " opacity="0.5" stroke="blue"/><polygon points="224.24286730614043,189.90493050513518 166.18155414596976,200.5400133299634 " opacity="0.5" stroke="blue"/><polygon points="224.6492342627095,194.93868483058287 164.66637934326693,201.2734392328149 " opacity="0.5" stroke="blue"/><polygon points="224.94374465580228,200.0 163.19241704086016,202.17259586956317 " opacity="0.5" stroke="blue"/><polygon points="225.12465265738825,205.05972539741572 161.75834853998288,203.2475903471291 " opacity="0.5" stroke="blue"/><polygon points="225.19107363062255,210.08874696255364 160.36261103912827,204.50681594696954 " opacity="0.5" stroke="blue"/><polygon points="225.14299039012002,215.05830094340502 159.00342656091325,205.9566976890088 " opacity="0.5" stroke="blue"/><polygon points="224.98124576673416,219.94027954793185 157.67883334326817,207.6014427487209 " opacity="0.5" stroke="blue"/><polygon points="224.70752182531095,224.70752182531095 156.38671977766157,209.44280179104345 " opacity="0.5" stroke="blue"/><polygon points="224.32430647250132,229.3340836724072 155.12486090428047,211.47984824266862 " opacity="0.5" stroke="blue"/><polygon points="223.83484854236212,233.79548164268138 153.89095737429838,213.70878332922894 " opacity="0.5" stroke="blue"/><polygon points="223.2431027450058,238.06890618854416 152.68267666514708,216.12277527007353 " opacity="0.5" stroke="blue"/><polygon points="222.55366609649727,242.13340104243753 151.4976961907571,218.71184126248272 " opacity="0.5" stroke="blue"/><polygon points="221.77170760929232,245.97000658082993 150.33374779203032,221.4627807160296 " opacity="0.5" stroke="blue"/><polygon points="220.90289310898697,249.56186616299834 149.1886629325623,224.35916754694006 " opacity="0.5" stroke="blue"/><polygon points="219.95330705650505,252.89429554077003 148.0604177719705,227.38140816587244 " opacity="0.5" stroke="blue"/><polygon points="218.92937320045485,255.9548164508611 146.94717715654505,230.50687007779507 " opacity="0.5" stroke="blue"/><polygon points="217.83777577069714,258.733156391661 145.8473364671941,233.71008378802114 " opacity="0.5" stroke="blue"/><polygon points="216.68538276191822,261.22121732518644 144.75956020995216,236.96301804865655 " opacity="0.5" stroke="blue"/><polygon points="215.47917265723854,263.41301661718427 143.68281623482213,240.23542550649515 " opacity="0.5" stroke="blue"/><polygon points="214.226165719074,265.3046039290525 142.61640453130397,243.49525269101542 " opacity="0.5" stroke="blue"/><polygon points="212.9333607396788,266.8939580087057 141.55997967609596,246.70910520617434 " opacity="0.5" stroke="blue"/><polygon points="211.6076779080514,268.18086740574705 140.5135661974477,249.8427561755402 " opacity="0.5" stroke="blue"/><polygon points="210.25590822266844,269.1667990771482 139.47756636336223,252.86168364779502 " opacity="0.5" stroke="blue"/><polygon points="208.8846696684664,269.85475867478965 138.45276018407793,255.73162098594796 " opacity="0.5" stroke="blue"/><polygon points="207.50037018731157,270.24914603938305 137.44029772565537,258.41910338208726 " opacity="0.5" stroke="blue"/><polygon points="206.1091773076339,270.35560909055323 136.44168414109606,260.89199364331887 " opacity="0.5" stroke="blue"/><polygon points="204.71699416290969,270.18089892325463 135.45875811750292,263.1199712964637 " opacity="0.5" stroke="blue"/><polygon points="203.32944152066437,269.73272851723607 134.49366469291687,265.0749707991262 " opacity="0.5" stroke="blue"/><polygon points="201.95184536273703,269.0196370572193 133.54882359830992,266.7315570960852 " opacity="0.5" stroke="blue"/><polygon points="200.58922950183126,268.05086146193185 132.6268944171229,268.06722974230297 " opacity="0.5" stroke="blue"/><polygon points="199.24631268630293,266.8362163420041 131.73073992060927,269.06265011242573 " opacity="0.5" stroke="blue"/><polygon points="197.9275096317,265.38598325869697 130.86338893186246,269.7017896040472 " opacity="0.5" stroke="blue"/><polygon points="196.63693542058914,263.71080984324635 130.02800000000002,269.972 " opacity="0.5" stroke="blue"/><polygon points="195.37841272847075,261.82161906350433 129.22782703833295,269.86401009353006 " opacity="0.5" stroke="blue"/><polygon points="194.1554813600492,259.7295286915837 128.46618790946079,269.3718551518043 " opacity="0.5" stroke="blue"/><polygon points="192.9714096139784,257.44578083269187 127.74643674078706,268.4927477008044 " opacity="0.5" stroke="blue"/><polygon points="191.8292070329443,254.98168121928666 127.07194054085168,267.2268994137978 " opacity="0.5" stroke="blue"/><polygon points="190.73163813743815,252.34854785317145 126.44606047394443,265.57730458075184 " opacity="0.5" stroke="blue"/><polygon points="189.68123678401955,249.55766848763633 125.87213794942532,263.5494957728941 " opacity="0.5" stroke="blue"/><polygon points="188.68032083083546,246.62026637838926 125.35348550207365,261.15128197144156 " opacity="0.5" stroke="blue"/><polygon points="187.73100683353024,243.54747369185225 124.89338228667502,258.3924786978777 " opacity="0.5" stroke="blue"/><polygon points="186.83522453263345,240.35031193852234 124.49507388710775,255.28463866883874 " opacity="0.5" stroke="blue"/><polygon points="185.99473092847785,237.03967879384223 124.1617760479643,251.84079030419903 " opacity="0.5" stroke="blue"/><polygon points="185.21112377133122,233.6263406759561 123.89668187368058,248.0751901361647 " opacity="0.5" stroke="blue"/><polygon points="184.48585432254714,230.1209304657819 123.70297200308694,244.00309388030516 " opacity="0.5" stroke="blue"/><polygon points="183.82023926713197,226.53394977726703 123.58382725203805,239.64054970030622 " opacity="0.5" stroke="blue"/><polygon points="183.21547167926346,222.87577521214578 123.5424432185759,235.00421607354193 " opacity="0.5" stroke="blue"/><polygon points="182.67263096016305,219.15666806195367 123.5820463590415,230.11120567474723 " opacity="0.5" stroke="blue"/><polygon points="182.19269168254385,215.38678694876418 123.7059110649685,224.9789558560482 " opacity="0.5" stroke="blue"/><polygon points="181.77653128791542,211.57620292368796 123.917377295149,219.62512561724222 " opacity="0.5" stroke="blue"/><polygon points="181.4249365926292,207.73491656745708 124.21986834116258,214.0675184249688 " opacity="0.5" stroke="blue"/><polygon points="181.13860906602795,203.87287665949287 124.61690832467562,208.32402984090663 " opacity="0.5" stroke="blue"/><polygon points="180.91816884975586,200.0 125.11213903828693,202.41261864045478 " opacity="0.5" stroke="blue"/><polygon points="180.76415749154395,196.12619198331066 125.70933574648492,196.35129992502337 " opacity="0.5" stroke="blue"/><polygon points="180.6770393699609,192.26136752953337 126.41242155771259,190.1581586324776 " opacity="0.5" stroke="blue"/><polygon points="180.65720178906972,188.4154719852974 127.22547996133655,183.85138181086958 " opacity="0.5" stroke="blue"/><polygon points="180.70495372401587,184.59850160292052 128.1527650935528,177.44930802052397 " opacity="0.5" stroke="blue"/><polygon points="180.82052320066654,180.82052320066654 129.19870925329218,170.97049225008698 " opacity="0.5" stroke="blue"/><polygon points="181.00405329489172,177.09169259505165 130.36792713266976,164.43378475590885 " opacity="0.5" stroke="blue"/><polygon points="181.2555967403206,173.42227137967234 131.66521615639635,157.85842224496724 " opacity="0.5" stroke="blue"/><polygon points="181.57510913781275,169.8226416041859 133.09555224115724,151.26412980446804 " opacity="0.5" stroke="blue"/><polygon points="181.96244076586396,166.30331788247028 134.66408019002256,144.67123192227535 " opacity="0.5" stroke="blue"/><polygon points="182.41732699914456,162.8749564313951 136.37609782987977,138.1007708282055 " opacity="0.5" stroke="blue"/><polygon points="182.9393773527623,159.54836051205382 138.2370328838643,131.57463020447221 " opacity="0.5" stroke="blue"/><polygon points="183.52806318309248,156.33448171498216 140.25241144910444,125.1156620524045 " opacity="0.5" stroke="blue"/><polygon points="184.1827040925356,153.2444165013419 142.42781682749853,118.74781415111799 " opacity="0.5" stroke="blue"/><polygon points="184.90245310575347,150.2893973851336 144.76883734021533,112.49625509265071 " opacity="0.5" stroke="blue"/><polygon points="185.6862807091593,147.48077811937895 147.28100165392937,106.38749331984269 " opacity="0.5" stroke="blue"/><polygon points="186.53295787399256,144.83001223444063 149.96970006996048,100.44948592397034 " opacity="0.5" stroke="blue"/><polygon points="187.44103821640968,142.3486242721165 152.84009019120197,94.71173217978468 " opacity="0.5" stroke="blue"/><polygon points="188.40883948574697,140.04817306813433 155.8969854043504,89.20534591419174 " opacity="0.5" stroke="blue"/><polygon points="189.4344246143866,137.9402064617708 159.1447247187877,83.96309983921128 " opacity="0.5" stroke="blue"/><polygon points="190.51558260918708,136.03620685838342 162.58702271483003,79.01943396095518 " opacity="0.5" stroke="blue"/><polygon points="191.6498096146806,134.3475271427031 166.22679870289272,74.41041915186094 " opacity="0.5" stroke="blue"/><polygon points="192.83429053132795,132.88531654182708 170.06598471413187,70.1736660116652 " opacity="0.5" stroke="blue"/><polygon points="194.06588162684673,131.66043617085018 174.10531266597408,66.34816833643399 " opacity="0.5" stroke="blue"/><polygon points="195.34109463336313,130.68336416442347 178.3440820044716,62.97406998467687 " opacity="0.5" stroke="blue"/><polygon points="196.6560828758332,129.96409050694785 182.77991034551548,60.09234382417469 " opacity="0.5" stroke="blue"/><polygon points="198.0066300253253,129.5120019242296 187.40847113293387,57.74437193889642 " opacity="0.5" stroke="blue"/><polygon points="199.38814211140422,129.33575749038877 192.22322409910845,55.97141756984058 " opacity="0.5" stroke="blue"/><polygon points="200.7956434576586,129.44315593383595 197.21514632164875,54.81398156399899 " opacity="0.5" stroke="blue"/><polygon points="202.22377721969383,129.8409959910975 202.37247385047596,54.31103960954462 " opacity="0.5" stroke="blue"/><polygon points="203.66681120180988,130.53493155028266 207.68046612126136,54.49916140328784 " opacity="0.5" stroke="blue"/></svg>
