<?xml version="1.0" encoding="UTF-8"?>
<!DOCTYPE svg PUBLIC "-//W3C//DTD SVG 1.1//EN"
    "http://www.w3.org/Graphics/SVG/1.1/DTD/svg11.dtd"><svg width="400" height="400" stroke="black" fill="none" fill-opacity="0.75" font-size="14" font-style="italic" font-family="sans-serif" xmlns="http://www.w3.org/2000/svg" xmlns:xlink="http://www.w3.org/1999/xlink" version="1.1"><filter id="blur1"><feGaussianBlur stdDeviation="0.5"/></filter><rect width="100%" height="100%" fill="white" stroke="none" fill-opacity="1"/><rect class="bg" fill="black" width="100%" height="100%" stroke="none" fill-opacity="1"/><polyline class="polyline" opacity="0.5" stroke="blue" points="212.76094758958837,147.9112528773411 224.30348456818473,102.70950838121611 "/><polyline class="polyline" opacity="0.5" stroke="blue" points="211.99108978395154,147.07818077245685 223.41891547577842,100.81736810635888 "/><polyline class="polyline" opacity="0.5" stroke="blue" points="211.21379609656876,146.26394548370962 222.51818999898362,98.95353212814291 "/><polyline class="polyline" opacity="0.5" stroke="blue" points="210.42929856029437,145.46892351480238 221.60175193735657,97.11898803157824 "/><polyline class="polyline" opacity="0.5" stroke="blue" points="209.63783377282624,144.69349019668772 220.67005917036605,95.31473438542145 "/><polyline class="polyline" opacity="0.5" stroke="blue" points="208.83964296159954,143.93801954606846 219.72358407528827,93.54178063071896 "/><polyline class="polyline" opacity="0.5" stroke="blue" points="208.03497204681562,143.2028841150308 218.7628139463841,91.80114692467296 "/><polyline class="polyline" opacity="0.5" stroke="blue" points="207.2240717023749,142.48845483164763 217.78825141402024,90.09386393727223 "/><polyline class="polyline" opacity="0.5" stroke="blue" points="206.40719741447523,141.7951008313973 216.80041486229945,88.42097259807451 "/><polyline class="polyline" opacity="0.5" stroke="blue" points="205.5846095376305,141.12318927925156 215.7998388436668,86.78352379047465 "/><polyline class="polyline" opacity="0.5" stroke="blue" points="204.75657334785723,140.4730851822958 214.78707448885518,85.18257799074651 "/><polyline class="polyline" opacity="0.5" stroke="blue" points="203.92335909276935,139.84515119275412 213.76268991042778,83.61920484910812 "/><polyline class="polyline" opacity="0.5" stroke="blue" points="203.0852420383158,139.23974740130313 212.72727059806522,82.09448271003174 "/><polyline class="polyline" opacity="0.5" stroke="blue" points="202.24250251188755,138.6572311205706 211.68141980363396,80.60949806899916 "/><polyline class="polyline" opacity="0.5" stroke="blue" points="201.39542594151501,138.09795665872736 210.62575891395724,79.1653449628932 "/><polyline class="polyline" opacity="0.5" stroke="blue" points="200.54430289087077,137.56227508309516 209.56092780909444,77.76312429122227 "/><polyline class="polyline" opacity="0.5" stroke="blue" points="199.68942908978525,137.05053397370844 208.4875852038156,76.4039430653904 "/><polyline class="polyline" opacity="0.5" stroke="blue" points="198.8311054599792,136.5630771667832 207.40640896984203,75.08891358325688 "/><polyline class="polyline" opacity="0.5" stroke="blue" points="197.96963813570943,136.10024448806405 206.3180964363028,73.81915252628093 "/><polyline class="polyline" opacity="0.5" stroke="blue" points="197.10533847902096,135.66237147603943 205.2233646657407,72.59577997661208 "/><polyline class="polyline" opacity="0.5" stroke="blue" points="196.2385230892931,135.24978909503238 204.12295070288508,71.41991835157427 "/><polyline class="polyline" opacity="0.5" stroke="blue" points="195.3695138067635,134.86282343819812 203.01761179329517,70.29269125310023 "/><polyline class="polyline" opacity="0.5" stroke="blue" points="194.49863770971027,134.50179542047778 201.9081255688671,69.2152222298028 "/><polyline class="polyline" opacity="0.5" stroke="blue" points="193.62622710496947,134.16702046158517 200.79529019709318,68.1886334495272 "/><polyline class="polyline" opacity="0.5" stroke="blue" points="192.75261951146334,133.85880815912375 199.6799244908622,67.21404428040736 "/><polyline class="polyline" opacity="0.5" stroke="blue" points="191.87815763641186,133.57746195195898 198.56286797549737,66.29256977866089 "/><polyline class="polyline" opacity="0.5" stroke="blue" points="191.00318934390097,133.32327877399766 197.44498090964527,65.42531908159509 "/><polyline class="polyline" opacity="0.5" stroke="blue" points="190.12806761547898,133.0965486985536 196.32714425655533,64.6133937045652 "/><polyline class="polyline" opacity="0.5" stroke="blue" points="189.25315050245487,132.8975545735082 195.21025960222835,63.85788574092791 "/><polyline class="polyline" opacity="0.5" stroke="blue" points="188.378801069573,132.72657164750586 194.09524901686393,63.15987596436713 "/><polyline class="polyline" opacity="0.5" stroke="blue" points="187.50538732974167,132.5838671874543 192.9830548560042,62.52043183333811 "/><polyline class="polyline" opacity="0.5" stroke="blue" points="186.63328216949685,132.46970008763466 191.8746394977541,61.94060539778013 "/><polyline class="polyline" opacity="0.5" stroke="blue" points="185.76286326488682,132.38432047075872 190.7709850124631,61.42143110868727 "/><polyline class="polyline" opacity="0.5" stroke="blue" points="184.8945129874698,132.32796928134536 189.67309276127517,60.96392353160422 "/><polyline class="polyline" opacity="0.5" stroke="blue" points="184.02861830012355,132.30087787182663 188.58198292000085,60.569074965626385 "/><polyline class="polyline" opacity="0.5" stroke="blue" points="183.1655706423744,132.30326758182767 187.49869392483643,60.2378529700334 "/><polyline class="polyline" opacity="0.5" stroke="blue" points="182.3057658049628,132.33534931110472 186.424281836552,59.971197801270336 "/><polyline class="polyline" opacity="0.5" stroke="blue" points="181.44960379337414,132.39732308666365 185.3598196198975,59.77001976361291 "/><polyline class="polyline" opacity="0.5" stroke="blue" points="180.59748868007537,132.48937762461975 184.3063963351303,59.6351964775053 "/><polyline class="polyline" opacity="0.5" stroke="blue" points="179.74982844521236,132.61168988740104 183.26511623875842,59.56757007024953 "/><polyline class="polyline" opacity="0.5" stroke="blue" points="178.9070348055386,132.76442463693581 182.23709779081406,59.5679442944373 "/><polyline class="polyline" opacity="0.5" stroke="blue" points="178.0695230313625,132.9477339845079 181.22347256623007,59.63708158026617 "/><polyline class="polyline" opacity="0.5" stroke="blue" points="177.23771175131986,133.16175693800193 180.22538406818606,59.77570002864141 "/><polyline class="polyline" opacity="0.5" stroke="blue" points="176.41202274479755,133.40661894730425 179.2439864416221,59.98447035276229 "/><polyline class="polyline" opacity="0.5" stroke="blue" points="175.59288072185697,133.6824314486633 178.28044308548772,60.26401277668748 "/><polyline class="polyline" opacity="0.5" stroke="blue" points="174.78071309052913,133.9892914088569 177.33592516270306,60.61489390019378 "/><polyline class="polyline" opacity="0.5" stroke="blue" points="173.97594971137886,134.3272808700519 176.4116100072575,61.03762354006031 "/><polyline class="polyline" opacity="0.5" stroke="blue" points="173.17902263926186,134.69646649628223 175.50867942835697,61.53265155872833 "/><polyline class="polyline" opacity="0.5" stroke="blue" points="172.39036585222723,135.09689912251054 174.62831791205775,62.10036469209635 "/><polyline class="polyline" opacity="0.5" stroke="blue" points="171.610414967549,135.52861330727586 173.7717107213872,62.74108338900692 "/><polyline class="polyline" opacity="0.5" stroke="blue" points="170.8396069449004,135.99162688996702 172.94004189654996,63.45505867575096 "/><polyline class="polyline" opacity="0.5" stroke="blue" points="170.07837977672023,136.48594055379604 172.13449215745183,64.24246905965214 "/><polyline class="polyline" opacity="0.5" stroke="blue" points="169.32717216585334,137.01153739558043 171.35623671143608,65.1034174864975 "/><polyline class="polyline" opacity="0.5" stroke="blue" points="168.58642319058586,137.5683825034735 170.6064429698204,66.03792836722141 "/><polyline class="polyline" opacity="0.5" stroke="blue" points="167.85657195723218,138.1564225438134 169.88626817753826,67.04594468984232 "/><polyline class="polyline" opacity="0.5" stroke="blue" points="167.1380572404711,138.77558535828692 169.19685696092503,68.12732523316689 "/><polyline class="polyline" opacity="0.5" stroke="blue" points="166.431317111668,139.4257795726292 168.5393387994423,69.28184189921566 "/><polyline class="polyline" opacity="0.5" stroke="blue" points="165.736788555463,140.1068942181041 167.91482542789456,70.50917718167108 "/><polyline class="polyline" opacity="0.5" stroke="blue" points="165.05490707494653,140.81879836702478 167.32440817645795,71.80892178789924 "/><polyline class="polyline" opacity="0.5" stroke="blue" points="164.38610628578851,141.56134078359446 166.7691552566057,73.18057243223505 "/><polyline class="polyline" opacity="0.5" stroke="blue" points="163.73081749973113,142.33434959135343 166.25010900176522,74.6235298182443 "/><polyline class="polyline" opacity="0.5" stroke="blue" points="163.08946929790142,143.13763195853164 165.76828307228087,76.1370968275692 "/><polyline class="polyline" opacity="0.5" stroke="blue" points="162.46248709444401,143.97097380260578 165.32465963496423,77.72047693272674 "/><polyline class="polyline" opacity="0.5" stroke="blue" points="161.85029269102233,144.83413951536238 164.92018652819542,79.3727728508502 "/><polyline class="polyline" opacity="0.5" stroke="blue" points="161.25330382278136,145.72687170976116 164.55577442417072,81.09298545483506 "/><polyline class="polyline" opacity="0.5" stroke="blue" points="160.67193369641151,146.64889098988544 164.23229400048143,82.8800129576774 "/><polyline class="polyline" opacity="0.5" stroke="blue" points="160.10659052099993,147.59989574525014 163.9505731337341,84.73265038495654 "/><polyline class="polyline" opacity="0.5" stroke="blue" points="159.55767703239957,148.57956197071937 163.71139412838366,86.64958934943145 "/><polyline class="polyline" opacity="0.5" stroke="blue" points="159.02559001189255,149.5875431132603 163.51549099433535,88.62941814057494 "/><polyline class="polyline" opacity="0.5" stroke="blue" points="158.5107197999672,150.62346994673072 163.36354678717368,90.6706221405758 "/><polyline class="polyline" opacity="0.5" stroke="blue" points="158.01344980607172,151.6869504758613 163.25619102508733,92.77158457689256 "/><polyline class="polyline" opacity="0.5" stroke="blue" points="157.5341560152478,152.77756987055264 163.1939971966746,94.9305876198578 "/><polyline class="polyline" opacity="0.5" stroke="blue" points="157.07320649258844,153.8948904315617 163.17748037382202,97.14581383210208 "/><polyline class="polyline" opacity="0.5" stroke="blue" points="156.6309608865012,155.0384515885979 163.20709494375456,99.41534797472305 "/><polyline class="polyline" opacity="0.5" stroke="blue" points="156.2077699317937,156.2077699317937 163.28323247414284,101.73717917315862 "/><polyline class="polyline" opacity="0.5" stroke="blue" points="155.80397495363272,157.40233927744876 163.40621972482904,104.10920344366113 "/><polyline class="polyline" opacity="0.5" stroke="blue" points="155.41990737345805,158.62163076887967 163.57631681928953,106.52922657912131 "/><polyline class="polyline" opacity="0.5" stroke="blue" points="155.05588821795942,159.86509301313095 163.79371558839085,108.99496739077723 "/><polyline class="polyline" opacity="0.5" stroke="blue" points="154.71222763225234,161.1321522542259 164.05853809832058,111.50406130008372 "/><polyline class="polyline" opacity="0.5" stroke="blue" points="154.3892243984061,162.42221258354758 164.3708353737794,114.05406427272537 "/><polyline class="polyline" opacity="0.5" stroke="blue" points="154.08716546049948,163.73465618785394 164.7305863266209,116.64245708446316 "/><polyline class="polyline" opacity="0.5" stroke="blue" points="153.80632545738987,165.06884363533334 165.13769689911527,119.26664990622697 "/><polyline class="polyline" opacity="0.5" stroke="blue" points="153.54696626439483,166.42411420001065 165.5919994299085,121.92398719362572 "/><polyline class="polyline" opacity="0.5" stroke="blue" points="153.309336545089,167.79978622470887 166.0932522495491,124.61175286387041 "/><polyline class="polyline" opacity="0.5" stroke="blue" points="153.09367131442218,169.19515752266526 166.64113951117844,127.32717574101568 "/><polyline class="polyline" opacity="0.5" stroke="blue" points="152.90019151436152,170.60950581779088 167.2352712606304,130.06743524844137 "/><polyline class="polyline" opacity="0.5" stroke="blue" points="152.72910360325278,172.04208922344858 167.8751837487792,132.82966732564398 "/><polyline class="polyline" opacity="0.5" stroke="blue" points="152.5805991600844,173.49214675950915 168.56033998752235,135.61097054470673 "/><polyline class="polyline" opacity="0.5" stroke="blue" points="152.45485450482124,174.95889890732667 169.29013054929962,138.40841240028604 "/><polyline class="polyline" opacity="0.5" stroke="blue" points="152.3520303359531,176.44154820215607 170.06387460854623,141.2190357456109 "/><polyline class="polyline" opacity="0.5" stroke="blue" points="152.27227138637596,177.9392798624131 170.88082122197332,144.03986534585195 "/><polyline class="polyline" opacity="0.5" stroke="blue" points="152.21570609869522,179.45126245505801 171.7401508430736,146.86791451929946 "/><polyline class="polyline" opacity="0.5" stroke="blue" points="152.18244632099953,180.9766485962615 172.64097706478262,149.70019183609412 "/><polyline class="polyline" opacity="0.5" stroke="blue" points="152.17258702411866,182.51457568639177 173.58234858280161,152.53370784380309 "/><polyline class="polyline" opacity="0.5" stroke="blue" points="152.18620604132732,184.06416667824217 174.56325137071372,155.36548178891798 "/><polyline class="polyline" opacity="0.5" stroke="blue" points="152.22336383141217,185.62453087730114 175.58261105672958,158.19254830338622 "/><polyline class="polyline" opacity="0.5" stroke="blue" points="152.28410326595974,187.19476477275094 176.63929549067447,161.01196402556178 "/><polyline class="polyline" opacity="0.5" stroke="blue" points="152.36844944166836,188.77395289777007 177.73211748870824,163.8208141254812 "/><polyline class="polyline" opacity="0.5" stroke="blue" points="152.47640951842078,190.36116871760518 178.85983774224718,166.61621870512113 "/><polyline class="polyline" opacity="0.5" stroke="blue" points="152.60797258378983,191.95547554377407 180.0211678766521,169.39533904527406 "/><polyline class="polyline" opacity="0.5" stroke="blue" points="152.76310954457753,193.55592747266138 181.21477364446284,172.1553836718699 "/><polyline class="polyline" opacity="0.5" stroke="blue" points="152.94177304591528,195.16157034667526 182.43927823730397,174.89361421596539 "/><polyline class="polyline" opacity="0.5" stroke="blue" points="153.14389741837567,196.77144273604313 183.69326570006297,177.60735104319625 "/><polyline class="polyline" opacity="0.5" stroke="blue" points="153.36939865346693,198.38457693924423 184.9752844305574,180.29397863023334 "/><polyline class="polyline" opacity="0.5" stroke="blue" points="153.6181744077996,200.0 186.28385074765544,182.95095066766638 "/><polyline class="polyline" opacity="0.5" stroke="blue" points="153.8901040361316,201.61673473867555 187.61745251070627,185.57579487075395 "/><polyline class="polyline" opacity="0.5" stroke="blue" points="154.18504865341208,203.23380079588583 188.97455277315493,188.1661174815896 "/><polyline class="polyline" opacity="0.5" stroke="blue" points="154.5028512258582,204.85021568604648 190.3535934533752,190.71960744842838 "/><polyline class="polyline" opacity="0.5" stroke="blue" points="154.84333669101161,206.4649958585665 191.75299900603378,193.23404027016656 "/><polyline class="polyline" opacity="0.5" stroke="blue" points="155.2063121066353,208.07715776434355 193.17118007770125,195.70728149624847 "/><polyline class="polyline" opacity="0.5" stroke="blue" points="155.59156682822095,209.68571892519697 194.60653713094155,198.13728987456813 "/><polyline class="polyline" opacity="0.5" stroke="blue" points="155.99887271479366,211.28969900385601 196.05746402173082,200.52212014221323 "/><polyline class="polyline" opacity="0.5" stroke="blue" points="156.42798436261165,212.888120872112 197.52235151577307,202.8599254561446 "/><polyline class="polyline" opacity="0.5" stroke="blue" points="156.87863936627573,214.48001167474482 198.99959073007798,205.1489594631023 "/><polyline class="polyline" opacity="0.5" stroke="blue" points="157.35055860667975,216.06440388684396 200.4875764870438,207.38757801014768 "/><polyline class="polyline" opacity="0.5" stroke="blue" points="157.84344656515202,217.64033636216394 201.98471056922432,209.5742404992882 "/><polyline class="polyline" opacity="0.5" stroke="blue" points="158.35699166306003,219.20685537018292 203.48940486394847,211.7075108915605 "/><polyline class="polyline" opacity="0.5" stroke="blue" points="158.89086662607508,220.76301561956998 205.00008438799324,213.78605836776077 "/><polyline class="polyline" opacity="0.5" stroke="blue" points="159.44472887222102,222.30788126581396 206.51519018356808,215.8086576546953 "/><polyline class="polyline" opacity="0.5" stroke="blue" points="160.01822092276353,223.8405269008212 208.0331820779491,217.77418902737256 "/><polyline class="polyline" opacity="0.5" stroke="blue" points="160.61097083493098,225.36003852235288 209.55254130018358,219.68163799895729 "/><polyline class="polyline" opacity="0.5" stroke="blue" points="161.22259265539822,226.86551448124294 211.07177294937168,221.5300947115608 "/><polyline class="polyline" opacity="0.5" stroke="blue" points="161.85268689340825,228.3560664044181 212.58940831009988,223.31875304203604 "/><polyline class="polyline" opacity="0.5" stroke="blue" points="162.50084101235592,229.83082009182414 214.1040070116511,225.04690943788944 "/><polyline class="polyline" opacity="0.5" stroke="blue" points="163.1666299386115,231.28891638545818 215.61415902863686,226.7139614992072 "/><polyline class="polyline" opacity="0.5" stroke="blue" points="163.84961658632056,232.7295120088023 217.11848652168064,228.31940632312666 "/><polyline class="polyline" opacity="0.5" stroke="blue" points="164.5493523968812,234.15178037505927 218.6156455177206,229.86283862786644 "/><polyline class="polyline" opacity="0.5" stroke="blue" points="165.26537789176888,235.55491236269964 220.10432743039493,231.34394867366754 "/><polyline class="polyline" opacity="0.5" stroke="blue" points="165.99722323735355,236.9381170569424 221.58326042180852,232.7625199981955 "/><polyline class="polyline" opacity="0.5" stroke="blue" points="166.74440882033525,238.30062245590952 223.0512106077642,234.11842698402154 "/><polyline class="polyline" opacity="0.5" stroke="blue" points="167.50644583240947,239.64167614031388 224.50698310926165,235.41163227574262 "/><polyline class="polyline" opacity="0.5" stroke="blue" points="168.28283686276444,240.96054590566405 225.9494229537272,236.64218406412706 "/><polyline class="polyline" opacity="0.5" stroke="blue" points="169.07307649701096,242.25652035609326 227.37741583003407,237.81021325439366 "/><polyline class="polyline" opacity="0.5" stroke="blue" points="169.8766519211456,243.5289094590476 228.7898887019031,238.91593053535578 "/><polyline class="polyline" opacity="0.5" stroke="blue" points="170.69304352915665,244.77704506019393 230.18581028474327,239.95962336569897 "/><polyline class="polyline" opacity="0.5" stroke="blue" points="171.52172553289483,246.00028135803592 231.56419139139413,240.94165289311962 "/><polyline class="polyline" opacity="0.5" stroke="blue" points="172.36216657284677,247.19799533785323 232.92408515257605,241.8624508214467 "/><polyline class="polyline" opacity="0.5" stroke="blue" points="173.2138303284732,248.36958716470457 234.26458711813473,242.722516240202 "/><polyline class="polyline" opacity="0.5" stroke="blue" points="174.07617612679942,249.51448053535762 235.5848352453917,243.52241243034229 "/><polyline class="polyline" opacity="0.5" stroke="blue" points="174.9486595479765,250.63212298913425 236.88400978108015,244.26276365917843 "/><polyline class="polyline" opacity="0.5" stroke="blue" points="175.83073302656757,251.72198617777343 238.16133304346207,244.94425197668053 "/><polyline class="polyline" opacity="0.5" stroke="blue" points="176.72184644735194,252.78356609453533 239.41606911128923,245.5676140245817 "/><polyline class="polyline" opacity="0.5" stroke="blue" points="177.6214477344815,253.8163832628784 240.64752342629149,246.1336378688733 "/><polyline class="polyline" opacity="0.5" stroke="blue" points="178.5289834328709,254.819982885152 241.85504231585344,246.64315986546467 "/><polyline class="polyline" opacity="0.5" stroke="blue" points="179.4438992807503,255.79393495184962 243.03801244248135,247.0970615679576 "/><polyline class="polyline" opacity="0.5" stroke="blue" points="180.3656407723611,256.73783431206806 244.19586018656466,247.4962666856727 "/><polyline class="polyline" opacity="0.5" stroke="blue" points="181.29365370982873,257.65130070591016 245.32805096881015,247.84173809925858 "/><polyline class="polyline" opacity="0.5" stroke="blue" points="182.22738474330123,258.5339787596605 246.43408851857066,248.1344749404331 "/><polyline class="polyline" opacity="0.5" stroke="blue" points="183.1662818985008,259.38553794464224 247.5135140941097,248.37550974163696 "/><polyline class="polyline" opacity="0.5" stroke="blue" points="184.1097950908927,260.20567250074646 248.56590566064236,248.56590566064236 "/><polyline class="polyline" opacity="0.5" stroke="blue" points="185.05737662573577,260.99410132569056 249.590877031773,248.70675378444795 "/><polyline class="polyline" opacity="0.5" stroke="blue" points="186.00848168334053,261.75056783113325 250.58807697971542,248.79917051610724 "/><polyline class="polyline" opacity="0.5" stroke="blue" points="186.96256878891896,262.4748397668298 251.55718831943534,248.84429504749244 "/><polyline class="polyline" opacity="0.5" stroke="blue" points="187.9191002664737,263.1667090140654 252.49792697159933,248.8432869203799 "/><polyline class="polyline" opacity="0.5" stroke="blue" points="188.8775426762338,263.8259913496526 253.4100410089505,248.79732367766366 "/><polyline class="polyline" opacity="0.5" stroke="blue" points="189.837367235205,264.45252618181837 254.2933096904665,248.70759860596363 "/><polyline class="polyline" opacity="0.5" stroke="blue" points="190.79805022046259,265.04617625934156 255.14754248738467,248.5753185703874 "/><polyline class="polyline" opacity="0.5" stroke="blue" points="191.75907335487386,265.60682735533186 255.9725781049106,248.40170194173547 "/><polyline class="polyline" opacity="0.5" stroke="blue" points="192.71992417499536,266.1343879270626 256.7682835031589,248.18797661600894 "/><polyline class="polyline" opacity="0.5" stroke="blue" points="193.6800963809465,266.6287887532888 257.53455292060914,247.93537812567985 "/><polyline class="polyline" opacity="0.5" stroke="blue" points="194.63909016811726,267.08998255049187 258.2713069031015,247.64514784182484 "/><polyline class="polyline" opacity="0.5" stroke="blue" points="195.59641254061995,267.5179435695012 258.9784913411404,247.3185312658946 "/><polyline class="polyline" opacity="0.5" stroke="blue" points="196.55157760644843,267.91266717394205 259.65607651802793,246.95677640959815 "/><polyline class="polyline" opacity="0.5" stroke="blue" points="197.5041068543571,268.274169401957 260.3040561711078,246.56113226111898 "/><polyline class="polyline" opacity="0.5" stroke="blue" points="198.4535294125203,268.60248651263834 260.9224465681697,246.13284733564893 "/><polyline class="polyline" opacity="0.5" stroke="blue" points="199.39938228907835,268.8976745185979 261.51128560083964,245.67316830802315 "/><polyline class="polyline" opacity="0.5" stroke="blue" points="200.3412105947198,269.15980870608274 262.0706318965708,245.18333872506582 "/><polyline class="polyline" opacity="0.5" stroke="blue" points="201.27856774749125,269.388983144023 262.6005639506417,244.66459779510643 "/><polyline class="polyline" opacity="0.5" stroke="blue" points="202.2110156600641,269.58531018337663 263.10117927937983,244.1181792520053 "/><polyline class="polyline" opacity="0.5" stroke="blue" points="203.13812490972427,269.74891994810525 263.5725935956409,243.5453102909227 "/><polyline class="polyline" opacity="0.5" stroke="blue" points="204.05947489138515,269.8799598190838 264.01494000740155,242.94721057299103 "/><polyline class="polyline" opacity="0.5" stroke="blue" points="204.97465395395483,269.9785939122165 264.42836824016234,242.3250912959854 "/><polyline class="polyline" opacity="0.5" stroke="blue" points="205.8832595204181,270.04500255199014 264.8130438837008,241.68015432805174 "/><polyline class="polyline" opacity="0.5" stroke="blue" points="206.7848981920202,270.07938174166065 265.16914766357365,241.01359140152346 "/><polyline class="polyline" opacity="0.5" stroke="blue" points="207.6791858369629,270.08194263122726 265.49687473763225,240.3265833638523 "/><polyline class="polyline" opacity="0.5" stroke="blue" points="208.56574766404563,270.0529109843043 265.79643401769084,239.62029948268258 "/><polyline class="polyline" opacity="0.5" stroke="blue" points="209.4442182817037,269.9925266449602 266.0680475163741,238.8958968021186 "/><polyline class="polyline" opacity="0.5" stroke="blue" points="210.31424174291158,269.90104300554435 266.3119497190605,238.15451954726302 "/><polyline class="polyline" opacity="0.5" stroke="blue" points="211.17547157643557,269.7787264764782 266.52838698074333,237.39729857414665 "/><polyline class="polyline" opacity="0.5" stroke="blue" points="212.02757080493154,269.6258559589413 266.71761694754036,236.62535086221854 "/><polyline class="polyline" opacity="0.5" stroke="blue" points="212.87021195039353,269.442722321332 266.87990800250134,235.83977904662532 "/><polyline class="polyline" opacity="0.5" stroke="blue" points="213.70307702746877,269.22962788033794 267.01553873528724,235.04167098757225 "/><polyline class="polyline" opacity="0.5" stroke="blue" points="214.5258575251594,268.98688588740237 267.12479743522937,234.23209937413262 "/><polyline class="polyline" opacity="0.5" stroke="blue" points="215.33825437743704,268.71482002132393 267.20798160721444,233.41212135994897 "/><polyline class="polyline" opacity="0.5" stroke="blue" points="216.13997792329795,268.4137638876807 267.2653975097875,232.5827782283517 "/><polyline class="polyline" opacity="0.5" stroke="blue" points="216.93074785678874,268.084060525722 267.29735971481693,231.74509508450888 "/><polyline class="polyline" opacity="0.5" stroke="blue" points="217.71029316753064,267.7260619233241 267.3041906880207,230.90008057230952 "/><polyline class="polyline" opacity="0.5" stroke="blue" points="218.47835207226973,267.3401285405615 267.2862203896186,230.04872661377726 "/><polyline class="polyline" opacity="0.5" stroke="blue" points="219.23467193797592,266.92662884239775 267.2437858943389,229.19200816890626 "/><polyline class="polyline" opacity="0.5" stroke="blue" points="219.97900919700936,266.48593884095885 267.17723102998195,228.33088301390828 "/><polyline class="polyline" opacity="0.5" stroke="blue" points="220.71112925486668,266.01844164780596 267.08690603372025,227.46629153595964 "/><polyline class="polyline" opacity="0.5" stroke="blue" points="221.43080639101245,265.5245270365843 266.9731672252901,226.59915654263585 "/><polyline class="polyline" opacity="0.5" stroke="blue" points="222.13782365329337,265.0045910163831 266.83637669621965,225.7303830843229 "/><polyline class="polyline" opacity="0.5" stroke="blue" points="222.831972746423,264.45903541610244 266.67690201422096,224.86085828799582 "/><polyline class="polyline" opacity="0.5" stroke="blue" points="223.51305391501552,263.8882674800841 266.4951159418678,223.9914512008552 "/><polyline class="polyline" opacity="0.5" stroke="blue" points="224.18087582163676,263.29269947522766 266.2913961686705,223.12301264241387 "/><polyline class="polyline" opacity="0.5" stroke="blue" points="224.8352554203278,262.6727483097762 266.0661250556597,222.25637506372894 "/><polyline class="polyline" opacity="0.5" stroke="blue" points="225.47601782604667,262.02883516392353 265.8196893915875,221.39235241257023 "/><polyline class="polyline" opacity="0.5" stroke="blue" points="226.10299618045954,261.36138513236176 265.5524801598566,220.53174000342156 "/><polyline class="polyline" opacity="0.5" stroke="blue" points="226.71603151450103,260.67082687885613 265.2648923152924,219.67531439130494 "/><polyline class="polyline" opacity="0.5" stroke="blue" points="227.31497260810917,259.95759230290713 264.95732456987855,218.8238332485197 "/><polyline class="polyline" opacity="0.5" stroke="blue" points="227.8996758475285,259.2221162185286 264.63017918658454,217.97803524348282 "/><polyline class="polyline" opacity="0.5" stroke="blue" points="228.4700050805587,258.4648360451472 264.2838617804247,217.13863992095446 "/><polyline class="polyline" opacity="0.5" stroke="blue" points="229.02583147011504,257.68619151060193 263.9187811258999,216.3063475830258 "/><polyline class="polyline" opacity="0.5" stroke="blue" points="229.5670333464506,256.8866243661987 263.5353489699857,215.48183917033995 "/><polyline class="polyline" opacity="0.5" stroke="blue" points="230.09349605837753,256.0665781137548 263.1339798498475,214.66577614310876 "/><polyline class="polyline" opacity="0.5" stroke="blue" points="230.60511182381015,255.22649774454487 262.7150909144802,213.85880036157803 "/><polyline class="polyline" opacity="0.5" stroke="blue" points="231.1017795799383,254.3668294900437 262.2791017494883,213.0615339656827 "/><polyline class="polyline" opacity="0.5" stroke="blue" points="231.58340483332614,253.48802058434072 261.82643420424154,212.27457925371985 "/><polyline class="polyline" opacity="0.5" stroke="blue" points="232.04989951021696,252.5905190380861 261.3575122206657,211.49851855995348 "/><polyline class="polyline" opacity="0.5" stroke="blue" points="232.5011818073119,251.67477342381287 260.872761662948,210.73391413114734 "/><polyline class="polyline" opacity="0.5" stroke="blue" points="232.9371760432757,250.7412326724659 260.372610147464,209.98130800210436 "/><polyline class="polyline" opacity="0.5" stroke="blue" points="233.35781251121085,249.79034588095374 259.8574868722571,209.2412218703695 "/><polyline class="polyline" opacity="0.5" stroke="blue" points="233.76302733232686,248.82256213053145 259.32782244543057,208.51415697033104 "/><polyline class="polyline" opacity="0.5" stroke="blue" points="234.15276231102047,247.83833031580826 258.78404871184,207.8005939470293 "/><polyline class="polyline" opacity="0.5" stroke="blue" points="234.52696479156856,246.83809898416706 258.22659857750523,207.10099273005437 "/><polyline class="polyline" opacity="0.5" stroke="blue" points="234.88558751662413,245.82231618537327 257.65590583119103,206.41579240798552 "/><polyline class="polyline" opacity="0.5" stroke="blue" points="235.2285884876944,244.79142933114264 257.07240496264114,205.74541110388947 "/><polyline class="polyline" opacity="0.5" stroke="blue" points="235.55593082776716,243.74588506443322 256.47653097698213,205.0902458524627 "/><polyline class="polyline" opacity="0.5" stroke="blue" points="235.8675826462422,242.68612913821772 255.86871920485083,204.45067247946093 "/><polyline class="polyline" opacity="0.5" stroke="blue" points="236.16351690631268,241.61260630349133 255.2494051078353,203.82704548411996 "/><polyline class="polyline" opacity="0.5" stroke="blue" points="236.4437112949308,240.5257602062625 254.61902407885748,203.21969792532474 "/><polyline class="polyline" opacity="0.5" stroke="blue" points="236.7081480954833,239.4260332932744 253.97801123716667,202.62894131233696 "/><polyline class="polyline" opacity="0.5" stroke="blue" points="236.95681406329155,238.31386672619826 253.3268012176492,202.05506550093793 "/><polyline class="polyline" opacity="0.5" stroke="blue" points="237.18970030404193,237.18970030404193 252.6658279542077,201.49833859588796 "/><polyline class="polyline" opacity="0.5" stroke="blue" points="237.40680215524387,236.05397239351169 251.99552445699993,200.95900686064311 "/><polyline class="polyline" opacity="0.5" stroke="blue" points="237.60811907080392,234.9071198670673 251.3163225833754,200.4372946353064 "/><polyline class="polyline" opacity="0.5" stroke="blue" points="237.79365450879578,233.74957804840872 250.6286528023896,199.9334042638208 "/><polyline class="polyline" opacity="0.5" stroke="blue" points="237.96341582249937,232.5817806651329 249.93294395282342,199.4475160314392 "/><polyline class="polyline" opacity="0.5" stroke="blue" points="238.1174141547736,231.40415980829988 249.22962299467912,198.97978811352678 "/><polyline class="polyline" opacity="0.5" stroke="blue" points="238.25566433582102,230.2171458986487 248.51911475417384,198.5303565367699 "/><polyline class="polyline" opacity="0.5" stroke="blue" points="238.37818478439584,229.0211676592043 247.8018416622963,198.09933515387547 "/><polyline class="polyline" opacity="0.5" stroke="blue" points="238.4849974124997,227.8166520940173 247.07822348704073,197.6868156328528 "/><polyline class="polyline" opacity="0.5" stroke="blue" points="238.57612753360445,226.6040244727837 246.3486770594817,197.2928674619695 "/><polyline class="polyline" opacity="0.5" stroke="blue" points="238.65160377443513,225.3837083210889 245.61361599389804,196.91753797146916 "/><polyline class="polyline" opacity="0.5" stroke="blue" points="238.7114579903402,224.15612541602687 244.87345040220535,196.56085237312817 "/><polyline class="polyline" opacity="0.5" stroke="blue" points="238.7557251842722,222.9216957869449 244.12858660300122,196.22281381871258 "/><polyline class="polyline" opacity="0.5" stroke="blue" points="238.78444342939625,221.68083772106954 243.37942682557647,195.9034034783738 "/><polyline class="polyline" opacity="0.5" stroke="blue" points="238.7976537953394,220.4339677737689 242.62636890929048,195.6025806399948 "/><polyline class="polyline" opacity="0.5" stroke="blue" points="238.79540027808991,219.1815007832134 241.8698059987564,195.32028283046364 "/><polyline class="polyline" opacity="0.5" stroke="blue" points="238.77772973355098,217.92384988919537 241.11012623532324,195.05642595981163 "/><polyline class="polyline" opacity="0.5" stroke="blue" points="238.74469181475007,216.6614265558756 240.3477124453893,194.81090448910854 "/><polyline class="polyline" opacity="0.5" stroke="blue" points="238.6963389127011,215.39464059822362 239.58294182611905,194.58359162295403 "/><polyline class="polyline" opacity="0.5" stroke="blue" points="238.63272610091357,214.1239002119252 238.816185629179,194.374339527349 "/><polyline class="polyline" opacity="0.5" stroke="blue" points="238.55391108353973,212.8496120065311 238.04780884314425,194.18297957366582 "/><polyline class="polyline" opacity="0.5" stroke="blue" points="238.45995414714716,211.57218104162462 237.27816987526467,194.00932260936958 "/><polyline class="polyline" opacity="0.5" stroke="blue" points="238.3509181161026,210.2920108657902 236.50762023331234,193.8531592560677 "/><polyline class="polyline" opacity="0.5" stroke="blue" points="238.22686831154908,209.00950355816477 235.73650420826405,193.7142602353868 "/><polyline class="polyline" opacity="0.5" stroke="blue" points="238.0878725139565,207.7250597723607 234.9651585586013,193.59237672309285 "/><polyline class="polyline" opacity="0.5" stroke="blue" points="237.9340009292237,206.4390787825477 234.19391219703354,193.48724073178167 "/><polyline class="polyline" opacity="0.5" stroke="blue" points="237.7653261583074,205.15195853148705 233.42308588047644,193.3985655223755 "/><polyline class="polyline" opacity="0.5" stroke="blue" points="237.58192317035147,203.8640956803116 232.65299190413202,193.32604604456589 "/><polyline class="polyline" opacity="0.5" stroke="blue" points="237.38386927928832,202.57588565984994 231.8839338005365,193.2693594062433 "/><polyline class="polyline" opacity="0.5" stroke="blue" points="237.1712441238821,201.28772272329203 231.11620604445062,193.2281653718521 "/><polyline class="polyline" opacity="0.5" stroke="blue" points="236.94412965118133,200.0 230.35009376447792,193.20210688950613 "/><polyline class="polyline" opacity="0.5" stroke="blue" points="236.70261010334784,198.7131095502657 229.58587246229843,193.19081064659247 "/><polyline class="polyline" opacity="0.5" stroke="blue" points="236.4467720078259,197.42744242082117 228.82380774040752,193.1938876534847 "/><polyline class="polyline" opacity="0.5" stroke="blue" points="236.17670417081519,196.1433887009097 228.06415503924396,193.21093385487742 "/><polyline class="polyline" opacity="0.5" stroke="blue" points="235.89249767400855,194.86133757872489 227.30715938458468,193.24153076814588 "/><polyline class="polyline" opacity="0.5" stroke="blue" points="235.59424587455476,193.58167739802914 226.55305514607116,193.28524614802618 "/><polyline class="polyline" opacity="0.5" stroke="blue" points="235.28204440820474,192.30479571476184 225.80206580771556,193.3416346768035 "/><polyline class="polyline" opacity="0.5" stroke="blue" points="234.95599119559762,191.0310793534506 225.0544037512159,193.41023867909036 "/><polyline class="polyline" opacity="0.5" stroke="blue" points="234.6161864516429,189.7609144632383 224.31027005288297,193.49058886017318 "/><polyline class="polyline" opacity="0.5" stroke="blue" points="234.26273269795175,188.49468657334083 223.5698542949558,193.58220506680368 "/><polyline class="polyline" opacity="0.5" stroke="blue" points="233.89573477827008,187.23278064774948 222.83333439204728,193.6845970692148 "/><polyline class="polyline" opacity="0.5" stroke="blue" points="233.51529987686445,185.97558113899427 222.10087643342825,193.79726536304565 "/><polyline class="polyline" opacity="0.5" stroke="blue" points="233.12153753980874,184.72347204078253 221.37263454181615,193.91970198977208 "/><polyline class="polyline" opacity="0.5" stroke="blue" points="232.714559699121,183.4768369393298 220.6487507492933,194.051391374153 "/><polyline class="polyline" opacity="0.5" stroke="blue" points="232.29448069969334,182.2360590631975 219.92935489093102,194.19181117712589 "/><polyline class="polyline" opacity="0.5" stroke="blue" points="231.8614173289617,181.00152133145392 219.21456451664898,194.34043316250956 "/><polyline class="polyline" opacity="0.5" stroke="blue" points="231.41548884925464,179.77360639997264 218.50448482178436,194.4967240758078 "/><polyline class="polyline" opacity="0.5" stroke="blue" points="230.95681703276333,178.55269670568453 217.7992085967926,194.6601465333461 "/><polyline class="polyline" opacity="0.5" stroke="blue" points="230.48552619906872,177.3391745085962 217.0988161964429,194.83015991992238 "/><polyline class="polyline" opacity="0.5" stroke="blue" points="230.00174325516264,176.13342193138925 216.40337552881437,195.00622129310761 "/><polyline class="polyline" opacity="0.5" stroke="blue" points="229.50559773789615,174.93582099641327 215.71294206433637,195.18778629229405 "/><polyline class="polyline" opacity="0.5" stroke="blue" points="228.99722185878474,173.74675365988324 215.02755886505602,195.37431005056206 "/><polyline class="polyline" opacity="0.5" stroke="blue" points="228.4767505511004,172.5666018430939 214.34725663425274,195.56524810741325 "/><polyline class="polyline" opacity="0.5" stroke="blue" points="227.94432151917465,171.39574746045932 213.6720537864559,195.76005732040778 "/><polyline class="polyline" opacity="0.5" stroke="blue" points="227.4000752898366,170.23457244418756 213.00195653785883,195.958196773738 "/><polyline class="polyline" opacity="0.5" stroke="blue" points="226.84415526590413,169.08345876539693 212.3369590170576,196.15912868177637 "/><polyline class="polyline" opacity="0.5" stroke="blue" points="226.2767077816468,167.94278845148116 211.67704339598168,196.36231928564865 "/><polyline class="polyline" opacity="0.5" stroke="blue" points="225.6978821601319,166.81294359952742 211.02218004081908,196.56723974090406 "/><polyline class="polyline" opacity="0.5" stroke="blue" points="225.10783077236493,165.69430638559186 210.37232768267995,196.7733669943845 "/><polyline class="polyline" opacity="0.5" stroke="blue" points="224.50670909812942,164.58725906963457 209.72743360768015,196.9801846484326 "/><polyline class="polyline" opacity="0.5" stroke="blue" points="223.89467578842996,163.49218399591592 209.0874338660708,197.18718381062288 "/><polyline class="polyline" opacity="0.5" stroke="blue" points="223.27189272943508,162.40946358865335 208.4522534999822,197.39386392725424 "/><polyline class="polyline" opacity="0.5" stroke="blue" points="222.63852510781584,161.33948034273897 207.82180678929828,197.59973359890114 "/><polyline class="polyline" opacity="0.5" stroke="blue" points="221.9947414773688,160.2826168093152 207.19599751512575,197.80431137638712 "/><polyline class="polyline" opacity="0.5" stroke="blue" points="221.34071382680946,159.23925557600484 206.57471924027527,198.00712653561834 "/><polyline class="polyline" opacity="0.5" stroke="blue" points="220.6766176486164,158.2097792415941 205.95785560612615,198.20771982979178 "/><polyline class="polyline" opacity="0.5" stroke="blue" points="220.00263200880198,157.19457038496122 205.34528064520518,198.40564421757767 "/><polyline class="polyline" opacity="0.5" stroke="blue" points="219.31893961748023,156.19401152804917 204.73685910877225,198.60046556596393 "/><polyline class="polyline" opacity="0.5" stroke="blue" points="218.6257269000973,155.20848509267432 204.1324468086698,198.791763326543 "/><polyline class="polyline" opacity="0.5" stroke="blue" points="217.92318406918463,154.23837335096874 203.531890972665,198.97913118411776 "/><polyline class="polyline" opacity="0.5" stroke="blue" points="217.21150519648845,153.28405836924958 202.93503061248356,199.1621776766032 "/><polyline class="polyline" opacity="0.5" stroke="blue" points="216.49088828532527,152.34592194511242 202.3416969037146,199.3405267853007 "/><polyline class="polyline" opacity="0.5" stroke="blue" points="215.76153534300465,151.42434553754475 201.75171357674466,199.51381849472767 "/><polyline class="polyline" opacity="0.5" stroke="blue" points="215.02365245315698,150.51971018985788 201.16489731786567,199.68170932128768 "/><polyline class="polyline" opacity="0.5" stroke="blue" points="214.27744984779497,149.63239644523676 200.58105817969002,199.84387281017362 "/><polyline class="polyline" opacity="0.5" stroke="blue" points="213.52314197893412,148.76278425470963 200.0,200.0 "/><polyline class="polyline" opacity="0.5" stroke="blue" points="212.76094758958843,147.91125287734116 199.42152082815497,200.1497998547675 "/><polyline class="polyline" opacity="0.5" stroke="blue" points="211.99108978395157,147.0781807724569 198.84541335818088,200.29299966286467 "/><polyline class="polyline" opacity="0.5" stroke="blue" points="211.2137960965688,146.26394548370968 198.27146536767273,200.4293454029149 "/><polyline class="polyline" opacity="0.5" stroke="blue" points="210.4292985602944,145.46892351480244 197.69946016164573,200.55860207637676 "/><polyline class="polyline" opacity="0.5" stroke="blue" points="209.6378337728263,144.69349019668778 197.1291770204863,200.68055400690324 "/><polyline class="polyline" opacity="0.5" stroke="blue" points="208.83964296159957,143.93801954606852 196.56039165116604,200.7950051065586 "/><polyline class="polyline" opacity="0.5" stroke="blue" points="208.03497204681568,143.20288411503088 195.9928766409016,200.9017791090843 "/><polyline class="polyline" opacity="0.5" stroke="blue" points="207.22407170237494,142.48845483164766 195.42640191246355,201.00071977049035 "/><polyline class="polyline" opacity="0.5" stroke="blue" points="206.4071974144753,141.79510083139732 194.8607351803614,201.09169103733285 "/><polyline class="polyline" opacity="0.5" stroke="blue" points="205.58460953763054,141.12318927925156 194.29564240715766,201.17457718311454 "/><polyline class="polyline" opacity="0.5" stroke="blue" points="204.75657334785728,140.47308518229582 193.73088825919274,201.2492829133206 "/><polyline class="polyline" opacity="0.5" stroke="blue" points="203.92335909276937,139.84515119275414 193.16623656103235,201.3157334396685 "/><polyline class="polyline" opacity="0.5" stroke="blue" points="203.08524203831584,139.23974740130316 192.60145074798143,201.37387452421385 "/><polyline class="polyline" opacity="0.5" stroke="blue" points="202.2425025118876,138.65723112057066 192.0362943160427,201.4236724940123 "/><polyline class="polyline" opacity="0.5" stroke="blue" points="201.39542594151507,138.09795665872736 191.47053126873183,201.46511422708843 "/><polyline class="polyline" opacity="0.5" stroke="blue" points="200.54430289087082,137.5622750830952 190.90392656019912,201.49820711050944 "/><polyline class="polyline" opacity="0.5" stroke="blue" points="199.68942908978528,137.05053397370844 190.33624653414162,201.52297897140147 "/><polyline class="polyline" opacity="0.5" stroke="blue" points="198.83110545997926,136.56307716678322 189.76725935803043,201.53947798178137 "/><polyline class="polyline" opacity="0.5" stroke="blue" points="197.96963813570946,136.10024448806408 189.19673545221184,201.54777253810582 "/><polyline class="polyline" opacity="0.5" stroke="blue" points="197.10533847902101,135.66237147603945 188.62444791348247,201.5479511164627 "/><polyline class="polyline" opacity="0.5" stroke="blue" points="196.23852308929312,135.24978909503244 188.05017293277302,201.54012210434777 "/><polyline class="polyline" opacity="0.5" stroke="blue" points="195.36951380676354,134.86282343819815 187.47369020661483,201.52441360998165 "/><polyline class="polyline" opacity="0.5" stroke="blue" points="194.4986377097103,134.50179542047778 186.89478334209883,201.50097325012987 "/><polyline class="polyline" opacity="0.5" stroke="blue" points="193.62622710496953,134.16702046158517 186.31324025507323,201.4699679173894 "/><polyline class="polyline" opacity="0.5" stroke="blue" points="192.75261951146337,133.85880815912373 185.72885356136098,201.4315835279023 "/><polyline class="polyline" opacity="0.5" stroke="blue" points="191.8781576364119,133.57746195195898 185.1414209608126,201.38602475045005 "/><polyline class="polyline" opacity="0.5" stroke="blue" points="191.003189343901,133.32327877399769 184.55074561404143,201.33351471786767 "/><polyline class="polyline" opacity="0.5" stroke="blue" points="190.128067615479,133.0965486985536 183.95663651172174,201.2742947217013 "/><polyline class="polyline" opacity="0.5" stroke="blue" points="189.25315050245496,132.89755457350824 183.35890883635764,201.20862389101123 "/><polyline class="polyline" opacity="0.5" stroke="blue" points="188.378801069573,132.72657164750586 182.7573843164606,201.13677885619688 "/><polyline class="polyline" opacity="0.5" stroke="blue" points="187.50538732974175,132.5838671874543 182.15189157309885,201.05905339869304 "/><polyline class="polyline" opacity="0.5" stroke="blue" points="186.6332821694969,132.46970008763466 181.5422664588062,200.97575808735283 "/><polyline class="polyline" opacity="0.5" stroke="blue" points="185.76286326488687,132.3843204707587 180.9283523888613,200.88721990229993 "/><polyline class="polyline" opacity="0.5" stroke="blue" points="184.89451298746985,132.3279692813453 180.31000066496688,200.79378184699308 "/><polyline class="polyline" opacity="0.5" stroke="blue" points="184.02861830012364,132.30087787182663 179.68707079137923,200.695802549207 "/><polyline class="polyline" opacity="0.5" stroke="blue" points="183.16557064237443,132.30326758182767 179.05943078355162,200.59365585159023 "/><polyline class="polyline" opacity="0.5" stroke="blue" points="182.30576580496285,132.33534931110475 178.42695746937113,200.48773039241726 "/><polyline class="polyline" opacity="0.5" stroke="blue" points="181.44960379337417,132.39732308666368 177.78953678307886,200.37842917710472 "/><polyline class="polyline" opacity="0.5" stroke="blue" points="180.5974886800754,132.48937762461975 177.14706405197322,200.26616914101552 "/><polyline class="polyline" opacity="0.5" stroke="blue" points="179.7498284452124,132.61168988740104 176.49944427600232,200.15138070402526 "/><polyline class="polyline" opacity="0.5" stroke="blue" points="178.90703480553864,132.76442463693581 175.84659240035705,200.03450731727582 "/><polyline class="polyline" opacity="0.5" stroke="blue" points="178.06952303136254,132.9477339845079 175.1884335811773,199.91600500249214 "/><polyline class="polyline" opacity="0.5" stroke="blue" points="177.23771175131992,133.16175693800193 174.52490344448486,199.79634188418586 "/><polyline class="polyline" opacity="0.5" stroke="blue" points="176.41202274479764,133.4066189473042 173.85594833845366,199.6759977150218 "/><polyline class="polyline" opacity="0.5" stroke="blue" points="175.592880721857,133.68243144866324 173.18152557912302,199.55546339457027 "/><polyline class="polyline" opacity="0.5" stroke="blue" points="174.78071309052916,133.98929140885684 172.50160368965317,199.43524048162053 "/><polyline class="polyline" opacity="0.5" stroke="blue" points="173.97594971137892,134.3272808700519 171.81616263321226,199.31584070018027 "/><polyline class="polyline" opacity="0.5" stroke="blue" points="173.17902263926192,134.6964664962822 171.12519403957364,199.19778543923826 "/><polyline class="polyline" opacity="0.5" stroke="blue" points="172.3903658522273,135.09689912251054 170.42870142548747,199.08160524631998 "/><polyline class="polyline" opacity="0.5" stroke="blue" points="171.61041496754902,135.5286133072758 169.72670040887607,198.9678393148197 "/><polyline class="polyline" opacity="0.5" stroke="blue" points="170.83960694490042,135.99162688996694 169.0192189168832,198.85703496504877 "/><polyline class="polyline" opacity="0.5" stroke="blue" points="170.07837977672028,136.485940553796 168.30629738778973,198.7497471188963 "/><polyline class="polyline" opacity="0.5" stroke="blue" points="169.3271721658534,137.01153739558038 167.58798896678366,198.64653776795828 "/><polyline class="polyline" opacity="0.5" stroke="blue" points="168.5864231905859,137.56838250347343 166.86435969555168,198.547975434952 "/><polyline class="polyline" opacity="0.5" stroke="blue" points="167.85657195723223,138.1564225438134 166.13548869563172,198.45463462819583 "/><polyline class="polyline" opacity="0.5" stroke="blue" points="167.13805724047114,138.77558535828686 165.4014683454397,198.3670952889016 "/><polyline class="polyline" opacity="0.5" stroke="blue" points="166.43131711166805,139.42577957262918 164.66240445085538,198.28594223099344 "/><polyline class="polyline" opacity="0.5" stroke="blue" points="165.73678855546302,140.10689421810403 163.91841640922038,198.21176457314056 "/><polyline class="polyline" opacity="0.5" stroke="blue" points="165.05490707494658,140.81879836702475 163.16963736657135,198.14515516266377 "/><polyline class="polyline" opacity="0.5" stroke="blue" points="164.38610628578851,141.56134078359443 162.41621436789544,198.08670999095452 "/><polyline class="polyline" opacity="0.5" stroke="blue" points="163.7308174997312,142.3343495913534 161.65830850016476,198.03702760002548 "/><polyline class="polyline" opacity="0.5" stroke="blue" points="163.08946929790145,143.1376319585316 160.89609502786544,197.99670847979598 "/><polyline class="polyline" opacity="0.5" stroke="blue" points="162.46248709444404,143.97097380260576 160.12976352070592,197.96635445570345 "/><polyline class="polyline" opacity="0.5" stroke="blue" points="161.8502926910224,144.83413951536238 159.35951797314624,197.94656806622467 "/><polyline class="polyline" opacity="0.5" stroke="blue" points="161.2533038227814,145.7268717097611 158.58557691535594,197.93795192988517 "/><polyline class="polyline" opacity="0.5" stroke="blue" points="160.67193369641157,146.6488909898854 157.808173515166,197.94110810133577 "/><polyline class="polyline" opacity="0.5" stroke="blue" points="160.10659052099996,147.59989574525008 157.0275556705424,197.95663741607922 "/><polyline class="polyline" opacity="0.5" stroke="blue" points="159.5576770323996,148.57956197071934 156.24398609206878,197.98513882343872 "/><polyline class="polyline" opacity="0.5" stroke="blue" points="159.02559001189258,149.5875431132602 155.45774237488507,198.02720870737252 "/><polyline class="polyline" opacity="0.5" stroke="blue" points="158.51071979996723,150.62346994673072 154.66911705948831,198.0834401947579 "/><polyline class="polyline" opacity="0.5" stroke="blue" points="158.01344980607175,151.68695047586127 153.87841768076547,198.15442245078953 "/><polyline class="polyline" opacity="0.5" stroke="blue" points="157.53415601524785,152.77756987055255 153.085966804583,198.24073996116553 "/><polyline class="polyline" opacity="0.5" stroke="blue" points="157.0732064925885,153.8948904315616 152.29210205122445,198.34297180076754 "/><polyline class="polyline" opacity="0.5" stroke="blue" points="156.63096088650124,155.03845158859778 151.49717610492655,198.4616908885788 "/><polyline class="polyline" opacity="0.5" stroke="blue" points="156.20776993179368,156.20776993179368 150.70155670872757,198.5974632286284 "/><polyline class="polyline" opacity="0.5" stroke="blue" points="155.80397495363275,157.4023392774487 149.90562664380752,198.75084713679814 "/><polyline class="polyline" opacity="0.5" stroke="blue" points="155.41990737345805,158.62163076887958 149.10978369246425,198.92239245338376 "/><polyline class="polyline" opacity="0.5" stroke="blue" points="155.05588821795948,159.8650930131309 148.31444058383917,199.11263974136148 "/><polyline class="polyline" opacity="0.5" stroke="blue" points="154.71222763225234,161.1321522542258 147.5200249214742,199.3221194703778 "/><polyline class="polyline" opacity="0.5" stroke="blue" points="154.38922439840613,162.4222125835475 146.72697909175733,199.55135118655073 "/><polyline class="polyline" opacity="0.5" stroke="blue" points="154.08716546049948,163.73465618785386 145.9357601522853,199.80084266824892 "/><polyline class="polyline" opacity="0.5" stroke="blue" points="153.80632545738987,165.06884363533334 145.14683969915558,200.07108906809736 "/><polyline class="polyline" opacity="0.5" stroke="blue" points="153.54696626439483,166.42411420001065 144.36070371217681,200.36257204154762 "/><polyline class="polyline" opacity="0.5" stroke="blue" points="153.30933654508894,167.7997862247089 143.57785237697576,200.67575886244404 "/><polyline class="polyline" opacity="0.5" stroke="blue" points="153.09367131442218,169.1951575226652 142.79879988296798,201.01110152611756 "/><polyline class="polyline" opacity="0.5" stroke="blue" points="152.90019151436152,170.60950581779085 142.02407419615253,201.3690358406442 "/><polyline class="polyline" opacity="0.5" stroke="blue" points="152.72910360325278,172.0420892234486 141.2542168056928,201.7499805070142 "/><polyline class="polyline" opacity="0.5" stroke="blue" points="152.58059916008443,173.49214675950904 140.489782443247,202.15433618907525 "/><polyline class="polyline" opacity="0.5" stroke="blue" points="152.45485450482127,174.95889890732664 139.73133877402364,202.5824845742314 "/><polyline class="polyline" opacity="0.5" stroke="blue" points="152.3520303359531,176.44154820215607 138.97946605855475,203.03478742600416 "/><polyline class="polyline" opacity="0.5" stroke="blue" points="152.272271386376,177.93927986241312 138.23475678419692,203.51158562969223 "/><polyline class="polyline" opacity="0.5" stroke="blue" points="152.2157060986952,179.45126245505793 137.4978152654064,204.01319823249617 "/><polyline class="polyline" opacity="0.5" stroke="blue" points="152.18244632099953,180.97664859626144 136.7692572118631,204.5399214796126 "/><polyline class="polyline" opacity="0.5" stroke="blue" points="152.17258702411863,182.51457568639177 136.04970926356845,205.0920278479376 "/><polyline class="polyline" opacity="0.5" stroke="blue" points="152.18620604132732,184.06416667824223 135.3398084920873,205.669765079163 "/><polyline class="polyline" opacity="0.5" stroke="blue" points="152.22336383141217,185.62453087730108 134.6402018671676,206.27335521418763 "/><polyline class="polyline" opacity="0.5" stroke="blue" points="152.28410326595977,187.19476477275091 133.95154568803522,206.9029936309115 "/><polyline class="polyline" opacity="0.5" stroke="blue" points="152.36844944166836,188.77395289777007 133.2745049787405,207.558848087621 "/><polyline class="polyline" opacity="0.5" stroke="blue" points="152.47640951842078,190.36116871760524 132.60975284701306,208.24105777431797 "/><polyline class="polyline" opacity="0.5" stroke="blue" points="152.60797258378983,191.955475543774 131.95796980617837,208.94973237448434 "/><polyline class="polyline" opacity="0.5" stroke="blue" points="152.76310954457753,193.55592747266138 131.31984305978955,209.68495113991318 "/><polyline class="polyline" opacity="0.5" stroke="blue" points="152.94177304591528,195.16157034667526 130.69606574873822,210.44676198137066 "/><polyline class="polyline" opacity="0.5" stroke="blue" points="153.1438974183757,196.77144273604304 130.08733616072982,211.23518057798523 "/><polyline class="polyline" opacity="0.5" stroke="blue" points="153.36939865346693,198.3845769392442 129.4943569021354,212.05018950838402 "/><polyline class="polyline" opacity="0.5" stroke="blue" points="153.6181744077996,200.0 128.91783403237156,212.89173740671313 "/><polyline class="polyline" opacity="0.5" stroke="blue" points="153.8901040361316,201.61673473867555 128.35847616110334,213.75973814679162 "/><polyline class="polyline" opacity="0.5" stroke="blue" points="154.18504865341208,203.23380079588574 127.81699350872191,214.65407005774696 "/><polyline class="polyline" opacity="0.5" stroke="blue" points="154.50285122585817,204.85021568604645 127.29409693070856,215.57457517457237 "/><polyline class="polyline" opacity="0.5" stroke="blue" points="154.84333669101164,206.46499585856654 126.79049690666847,216.52105852712364 "/><polyline class="polyline" opacity="0.5" stroke="blue" points="155.2063121066353,208.0771577643436 126.30690249499162,217.49328747114188 "/><polyline class="polyline" opacity="0.5" stroke="blue" points="155.59156682822095,209.6857189251969 125.84402025428277,218.49099106493878 "/><polyline class="polyline" opacity="0.5" stroke="blue" points="155.99887271479366,211.289699003856 125.4025531328909,219.51385949541856 "/><polyline class="polyline" opacity="0.5" stroke="blue" points="156.42798436261165,212.888120872112 124.98319932806044,220.561543557131 "/><polyline class="polyline" opacity="0.5" stroke="blue" points="156.8786393662757,214.48001167474476 124.58665111642507,221.63365418805347 "/><polyline class="polyline" opacity="0.5" stroke="blue" points="157.35055860667975,216.0644038868439 124.21359365776416,222.72976206578304 "/><polyline class="polyline" opacity="0.5" stroke="blue" points="157.843446565152,217.6403363621639 123.86470377414416,223.84939726778236 "/><polyline class="polyline" opacity="0.5" stroke="blue" points="158.35699166306003,219.20685537018295 123.54064870677,224.99204899926943 "/><polyline class="polyline" opacity="0.5" stroke="blue" points="158.89086662607505,220.7630156195699 123.24208485307308,226.15716539225872 "/><polyline class="polyline" opacity="0.5" stroke="blue" points="159.444728872221,222.3078812658139 122.96965648676365,227.3441533791632 "/><polyline class="polyline" opacity="0.5" stroke="blue" points="160.0182209227635,223.8405269008212 122.72399446377077,228.55237864423816 "/><polyline class="polyline" opacity="0.5" stroke="blue" points="160.61097083493098,225.3600385223529 122.50571491718696,229.78116565600428 "/><polyline class="polyline" opacity="0.5" stroke="blue" points="161.22259265539822,226.8655144812429 122.31541794451964,231.02979778361038 "/><polyline class="polyline" opacity="0.5" stroke="blue" points="161.85268689340825,228.35606640441807 122.15368629072894,232.2975174999022 "/><polyline class="polyline" opacity="0.5" stroke="blue" points="162.50084101235595,229.83082009182414 122.02108403070265,233.58352667373939 "/><polyline class="polyline" opacity="0.5" stroke="blue" points="163.16662993861152,231.2889163854582 121.91815525497401,234.8869869538617 "/><polyline class="polyline" opacity="0.5" stroke="blue" points="163.84961658632054,232.72951200880223 121.84542276263485,236.20702024633093 "/><polyline class="polyline" opacity="0.5" stroke="blue" points="164.5493523968812,234.15178037505927 121.80338676552837,237.542709287286 "/><polyline class="polyline" opacity="0.5" stroke="blue" points="165.2653778917689,235.55491236269964 121.79252360791854,238.8930983124312 "/><polyline class="polyline" opacity="0.5" stroke="blue" points="165.9972232373535,236.9381170569423 121.81328450593388,240.25719382434255 "/><polyline class="polyline" opacity="0.5" stroke="blue" points="166.74440882033522,238.30062245590946 121.86609431116055,241.63396545831986 "/><polyline class="polyline" opacity="0.5" stroke="blue" points="167.50644583240947,239.64167614031388 121.95135030282034,243.02234694713366 "/><polyline class="polyline" opacity="0.5" stroke="blue" points="168.28283686276447,240.96054590566405 122.06942101300504,244.4212371846291 "/><polyline class="polyline" opacity="0.5" stroke="blue" points="169.07307649701093,242.25652035609318 122.22064508945506,245.82950138773515 "/><polyline class="polyline" opacity="0.5" stroke="blue" points="169.87665192114557,243.52890945904755 122.40533020036094,247.24597235601095 "/><polyline class="polyline" opacity="0.5" stroke="blue" points="170.69304352915665,244.77704506019393 122.62375198563325,248.6694518274255 "/><polyline class="polyline" opacity="0.5" stroke="blue" points="171.52172553289486,246.00028135803592 122.87615305902742,250.09871192863216 "/><polyline class="polyline" opacity="0.5" stroke="blue" points="172.36216657284672,247.19799533785323 123.16274206542602,251.53249671755003 "/><polyline class="polyline" opacity="0.5" stroke="blue" points="173.2138303284732,248.36958716470454 123.48369279747045,252.96952381561917 "/><polyline class="polyline" opacity="0.5" stroke="blue" points="174.07617612679945,249.51448053535768 123.8391433755964,254.40848612664692 "/><polyline class="polyline" opacity="0.5" stroke="blue" points="174.94865954797652,250.6321229891343 124.22919549536479,255.8480536387231 "/><polyline class="polyline" opacity="0.5" stroke="blue" points="175.83073302656754,251.7219861777734 124.65391374578975,257.2868753052399 "/><polyline class="polyline" opacity="0.5" stroke="blue" points="176.72184644735194,252.78356609453527 125.11332500215116,258.723581000629 "/><polyline class="polyline" opacity="0.5" stroke="blue" points="177.6214477344815,253.8163832628784 125.6074178965382,260.1567835460112 "/><polyline class="polyline" opacity="0.5" stroke="blue" points="178.52898343287086,254.81998288515194 126.13614236910895,261.5850807995606 "/><polyline class="polyline" opacity="0.5" stroke="blue" points="179.44389928075026,255.79393495184962 126.69940930276238,263.00705780600333 "/><polyline class="polyline" opacity="0.5" stroke="blue" points="180.3656407723611,256.73783431206806 127.2970902436142,264.4212889993171 "/><polyline class="polyline" opacity="0.5" stroke="blue" points="181.29365370982873,257.6513007059102 127.92901720933929,265.82634045236983 "/><polyline class="polyline" opacity="0.5" stroke="blue" points="182.22738474330117,258.53397875966044 128.59498258710062,267.22077216693344 "/><polyline class="polyline" opacity="0.5" stroke="blue" points="183.16628189850078,259.38553794464224 129.2947391224235,268.6031403972383 "/><polyline class="polyline" opacity="0.5" stroke="blue" points="184.1097950908927,260.20567250074646 130.02800000000002,269.972 "/><polyline class="polyline" opacity="0.5" stroke="blue" points="185.0573766257358,260.99410132569056 130.794439017026,271.3259068036498 "/><polyline class="polyline" opacity="0.5" stroke="blue" points="186.00848168334053,261.75056783113325 131.59369084927857,272.66341998933706 "/><polyline class="polyline" opacity="0.5" stroke="blue" points="186.96256878891896,262.4748397668298 132.4253514097428,273.9831044761512 "/><polyline class="polyline" opacity="0.5" stroke="blue" points="187.91910026647372,263.1667090140654 133.2889782991963,275.2835333029268 "/><polyline class="polyline" opacity="0.5" stroke="blue" points="188.87754267623382,263.82599134965267 134.18409134775612,276.5632899989609 "/><polyline class="polyline" opacity="0.5" stroke="blue" points="189.83736723520497,264.45252618181837 135.1101732459951,277.82097093596883 "/><polyline class="polyline" opacity="0.5" stroke="blue" points="190.79805022046259,265.04617625934156 136.06667026383695,279.05518765365605 "/><polyline class="polyline" opacity="0.5" stroke="blue" points="191.75907335487386,265.60682735533186 137.05299305505633,280.26456915136885 "/><polyline class="polyline" opacity="0.5" stroke="blue" points="192.7199241749953,266.13438792706256 138.06851754483264,281.4477641384227 "/><polyline class="polyline" opacity="0.5" stroke="blue" points="193.68009638094648,266.6287887532888 139.1125858974455,282.6034432358752 "/><polyline class="polyline" opacity="0.5" stroke="blue" points="194.63909016811726,267.08998255049187 140.18450756085238,283.73030112272806 "/><polyline class="polyline" opacity="0.5" stroke="blue" points="195.59641254061995,267.5179435695012 141.28356038456252,284.82705861979554 "/><polyline class="polyline" opacity="0.5" stroke="blue" points="196.55157760644838,267.91266717394205 142.40899180691542,285.89246470476326 "/><polyline class="polyline" opacity="0.5" stroke="blue" points="197.50410685435708,268.274169401957 143.5600201075855,286.9252984522924 "/><polyline class="polyline" opacity="0.5" stroke="blue" points="198.4535294125203,268.60248651263834 144.73583572087728,287.92437089337477 "/><polyline class="polyline" opacity="0.5" stroke="blue" points="199.39938228907837,268.8976745185979 145.93560260514306,288.8885267885402 "/><polyline class="polyline" opacity="0.5" stroke="blue" points="200.34121059471977,269.15980870608274 147.15845966344722,289.81664630992594 "/><polyline class="polyline" opacity="0.5" stroke="blue" points="201.27856774749122,269.3889831440229 148.40352221042883,290.7076466276601 "/><polyline class="polyline" opacity="0.5" stroke="blue" points="202.2110156600641,269.58531018337663 149.6698834801622,291.56048339646986 "/><polyline class="polyline" opacity="0.5" stroke="blue" points="203.1381249097243,269.74891994810525 150.95661616970628,292.3741521389018 "/><polyline class="polyline" opacity="0.5" stroke="blue" points="204.05947489138515,269.87995981908375 152.26277401294152,293.1476895220318 "/><polyline class="polyline" opacity="0.5" stroke="blue" points="204.97465395395483,269.9785939122165 153.58739337924393,293.88017452504266 "/><polyline class="polyline" opacity="0.5" stroke="blue" points="205.8832595204181,270.0450025519902 154.92949489151798,294.57072949555516 "/><polyline class="polyline" opacity="0.5" stroke="blue" points="206.78489819202017,270.0793817416607 156.28808505812216,295.2185210931066 "/><polyline class="polyline" opacity="0.5" stroke="blue" points="207.67918583696286,270.08194263122726 157.6621579132535,295.82276111868265 "/><polyline class="polyline" opacity="0.5" stroke="blue" points="208.56574766404563,270.0529109843043 159.05069666042314,296.38270722971043 "/><polyline class="polyline" opacity="0.5" stroke="blue" points="209.4442182817037,269.99252664496026 160.45267531375242,296.8976635404219 "/><polyline class="polyline" opacity="0.5" stroke="blue" points="210.31424174291152,269.90104300554435 161.86706033193389,297.3669811079806 "/><polyline class="polyline" opacity="0.5" stroke="blue" points="211.17547157643554,269.7787264764782 163.2928122398491,297.7900583052424 "/><polyline class="polyline" opacity="0.5" stroke="blue" points="212.02757080493154,269.6258559589413 164.72888723300207,298.16634108147366 "/><polyline class="polyline" opacity="0.5" stroke="blue" points="212.87021195039358,269.442722321332 166.17423876011856,298.495323112793 "/><polyline class="polyline" opacity="0.5" stroke="blue" points="213.70307702746874,269.22962788033794 167.62781907946868,298.77654584451574 "/><polyline class="polyline" opacity="0.5" stroke="blue" points="214.52585752515938,268.98688588740237 169.08858078469896,299.00959842797835 "/><polyline class="polyline" opacity="0.5" stroke="blue" points="215.33825437743704,268.71482002132393 170.5554782962002,299.1941175547828 "/><polyline class="polyline" opacity="0.5" stroke="blue" points="216.13997792329792,268.4137638876808 172.02746931429746,299.32978719174787 "/><polyline class="polyline" opacity="0.5" stroke="blue" points="216.9307478567887,268.08406052572207 173.50351623081238,299.4163382201639 "/><polyline class="polyline" opacity="0.5" stroke="blue" points="217.7102931675306,267.72606192332415 174.98258749582428,299.45354798323297 "/><polyline class="polyline" opacity="0.5" stroke="blue" points="218.47835207226973,267.34012854056147 176.463658936744,299.4412397458315 "/><polyline class="polyline" opacity="0.5" stroke="blue" points="219.2346719379759,266.9266288423978 177.94571502709792,299.3792820709546 "/><polyline class="polyline" opacity="0.5" stroke="blue" points="219.97900919700936,266.48593884095885 179.42775010271487,299.26758811739626 "/><polyline class="polyline" opacity="0.5" stroke="blue" points="220.71112925486668,266.01844164780596 180.90876952329637,299.1061148633819 "/><polyline class="polyline" opacity="0.5" stroke="blue" points="221.43080639101248,265.5245270365843 182.38779077764778,298.89486226100195 "/><polyline class="polyline" opacity="0.5" stroke="blue" points="222.13782365329337,265.00459101638313 183.86384453112953,298.6338723263982 "/><polyline class="polyline" opacity="0.5" stroke="blue" points="222.831972746423,264.45903541610244 185.33597561417736,298.3232281707281 "/><polyline class="polyline" opacity="0.5" stroke="blue" points="223.51305391501552,263.8882674800841 186.80324395101235,297.96305297697944 "/><polyline class="polyline" opacity="0.5" stroke="blue" points="224.1808758216368,263.2926994752276 188.26472542793783,297.5535089277224 "/><polyline class="polyline" opacity="0.5" stroke="blue" points="224.83525542032777,262.6727483097762 189.71951270087638,297.09479608888284 "/><polyline class="polyline" opacity="0.5" stroke="blue" points="225.47601782604667,262.02883516392353 191.1667159420545,296.5871512545858 "/><polyline class="polyline" opacity="0.5" stroke="blue" points="226.10299618045957,261.36138513236176 192.60546352598098,296.0308467580637 "/><polyline class="polyline" opacity="0.5" stroke="blue" points="226.71603151450097,260.67082687885613 194.03490265509555,295.42618925354714 "/><polyline class="polyline" opacity="0.5" stroke="blue" points="227.31497260810917,259.95759230290713 195.45419992567818,294.77351847395926 "/><polyline class="polyline" opacity="0.5" stroke="blue" points="227.8996758475285,259.2221162185285 196.86254183481174,294.07320596911995 "/><polyline class="polyline" opacity="0.5" stroke="blue" points="228.47000508055874,258.46483604514714 198.25913522938146,293.3256538290327 "/><polyline class="polyline" opacity="0.5" stroke="blue" points="229.02583147011504,257.68619151060193 199.64320769826702,292.531293396684 "/><polyline class="polyline" opacity="0.5" stroke="blue" points="229.5670333464506,256.88662436619876 201.01400790904506,291.69058397462135 "/><polyline class="polyline" opacity="0.5" stroke="blue" points="230.09349605837753,256.06657811375476 202.3708058906628,290.80401152940726 "/><polyline class="polyline" opacity="0.5" stroke="blue" points="230.60511182381018,255.22649774454484 203.71289326367997,289.8720873978658 "/><polyline class="polyline" opacity="0.5" stroke="blue" points="231.1017795799383,254.36682949004376 205.0395834197871,288.8953469988471 "/><polyline class="polyline" opacity="0.5" stroke="blue" points="231.5834048333261,253.48802058434072 206.3502116524175,287.87434855404183 "/><polyline class="polyline" opacity="0.5" stroke="blue" points="232.04989951021696,252.59051903808606 207.64413524035197,286.8096718211763 "/><polyline class="polyline" opacity="0.5" stroke="blue" points="232.50118180731192,251.67477342381284 208.9207334862998,285.7019168427138 "/><polyline class="polyline" opacity="0.5" stroke="blue" points="232.9371760432757,250.7412326724659 210.1794077124936,284.5517027129822 "/><polyline class="polyline" opacity="0.5" stroke="blue" points="233.35781251121082,249.79034588095374 211.41958121539236,283.35966636644145 "/><polyline class="polyline" opacity="0.5" stroke="blue" points="233.76302733232686,248.82256213053142 212.64069918161948,282.12646138959553 "/><polyline class="polyline" opacity="0.5" stroke="blue" points="234.15276231102047,247.8383303158083 213.84222856729485,280.8527568588497 "/><polyline class="polyline" opacity="0.5" stroke="blue" points="234.52696479156853,246.8380989841671 215.02365794293175,279.53923620641103 "/><polyline class="polyline" opacity="0.5" stroke="blue" points="234.88558751662416,245.82231618537324 216.1844973060755,278.1865961161291 "/><polyline class="polyline" opacity="0.5" stroke="blue" points="235.2285884876944,244.7914293311426 217.32427786386017,276.79554545098114 "/><polyline class="polyline" opacity="0.5" stroke="blue" points="235.55593082776713,243.74588506443322 218.44255178764314,275.36680421371267 "/><polyline class="polyline" opacity="0.5" stroke="blue" points="235.86758264624223,242.68612913821775 219.53889194186016,273.901102541963 "/><polyline class="polyline" opacity="0.5" stroke="blue" points="236.1635169063127,241.6126063034913 220.6128915892117,272.39917973902584 "/><polyline class="polyline" opacity="0.5" stroke="blue" points="236.44371129493084,240.52576020626248 221.66416407426163,270.86178334122314 "/><polyline class="polyline" opacity="0.5" stroke="blue" points="236.7081480954833,239.42603329327443 222.6923424874838,269.289668222707 "/><polyline class="polyline" opacity="0.5" stroke="blue" points="236.95681406329155,238.31386672619828 223.69707931174898,267.6835957383482 "/><polyline class="polyline" opacity="0.5" stroke="blue" points="237.18970030404193,237.18970030404193 224.6780460531914,266.04433290522013 "/><polyline class="polyline" opacity="0.5" stroke="blue" points="237.40680215524387,236.05397239351166 225.63493285834215,264.3726516230472 "/><polyline class="polyline" opacity="0.5" stroke="blue" points="237.60811907080392,234.90711986706737 226.56744811935488,262.66932793385126 "/><polyline class="polyline" opacity="0.5" stroke="blue" points="237.79365450879578,233.74957804840875 227.4753180690901,260.93514132090945 "/><polyline class="polyline" opacity="0.5" stroke="blue" points="237.96341582249937,232.58178066513284 228.35828636775852,259.1708740470166 "/><polyline class="polyline" opacity="0.5" stroke="blue" points="238.1174141547736,231.40415980829988 229.2161136827606,257.3773105319377 "/><polyline class="polyline" opacity="0.5" stroke="blue" points="238.25566433582102,230.21714589864874 230.04857726329,255.55523676883627 "/><polyline class="polyline" opacity="0.5" stroke="blue" points="238.37818478439584,229.02116765920428 230.85547051120062,253.70543977937245 "/><polyline class="polyline" opacity="0.5" stroke="blue" points="238.4849974124997,227.81665209401726 231.63660254957037,251.82870710707704 "/><polyline class="polyline" opacity="0.5" stroke="blue" points="238.57612753360445,226.60402447278372 232.3917977903232,249.92582634853383 "/><polyline class="polyline" opacity="0.5" stroke="blue" points="238.65160377443513,225.38370832108893 233.12089550220435,247.9975847218287 "/><polyline class="polyline" opacity="0.5" stroke="blue" points="238.7114579903402,224.15612541602684 233.82374938033325,246.0447686716655 "/><polyline class="polyline" opacity="0.5" stroke="blue" points="238.7557251842722,222.9216957869449 234.50022711849547,244.06816351048627 "/><polyline class="polyline" opacity="0.5" stroke="blue" points="238.78444342939625,221.68083772106957 235.15020998526313,242.06855309488867 "/><polyline class="polyline" opacity="0.5" stroke="blue" points="238.7976537953394,220.43396777376893 235.7735924049738,240.04671953658556 "/><polyline class="polyline" opacity="0.5" stroke="blue" points="238.79540027808991,219.18150078321338 236.37028154453043,238.00344294711732 "/><polyline class="polyline" opacity="0.5" stroke="blue" points="238.77772973355098,217.92384988919534 236.94019690692582,235.9395012154897 "/><polyline class="polyline" opacity="0.5" stroke="blue" points="238.74469181475007,216.6614265558756 237.48326993233408,233.8556698178867 "/><polyline class="polyline" opacity="0.5" stroke="blue" points="238.6963389127011,215.39464059822356 237.9994436075545,231.75272165858223 "/><polyline class="polyline" opacity="0.5" stroke="blue" points="238.63272610091354,214.12390021192513 238.4886720845359,229.6314269411587 "/><polyline class="polyline" opacity="0.5" stroke="blue" points="238.55391108353973,212.8496120065311 238.95092030865888,227.49255306912167 "/><polyline class="polyline" opacity="0.5" stroke="blue" points="238.4599541471472,211.57218104162465 239.38616365739972,225.33686457499215 "/><polyline class="polyline" opacity="0.5" stroke="blue" points="238.3509181161026,210.29201086579013 239.79438758995104,223.16512307695285 "/><polyline class="polyline" opacity="0.5" stroke="blue" points="238.22686831154908,209.0095035581647 240.17558730832957,220.97808726211377 "/><polyline class="polyline" opacity="0.5" stroke="blue" points="238.08787251395648,207.72505977236074 240.52976743045417,218.77651289546787 "/><polyline class="polyline" opacity="0.5" stroke="blue" points="237.9340009292237,206.43907878254774 240.8569416756385,216.56115285360352 "/><polyline class="polyline" opacity="0.5" stroke="blue" points="237.7653261583074,205.15195853148703 241.15713256289973,214.33275718224905 "/><polyline class="polyline" opacity="0.5" stroke="blue" points="237.58192317035144,203.86409568031158 241.430371122451,212.09207317672227 "/><polyline class="polyline" opacity="0.5" stroke="blue" points="237.38386927928832,202.57588565984994 241.67669662070688,209.83984548437112 "/><polyline class="polyline" opacity="0.5" stroke="blue" points="237.1712441238821,201.28772272329203 241.89615629910048,207.57681622809537 "/><polyline class="polyline" opacity="0.5" stroke="blue" points="236.94412965118133,200.0 242.08880512697942,205.30372515005206 "/><polyline class="polyline" opacity="0.5" stroke="blue" points="236.70261010334787,198.71310955026576 242.2547055688188,203.021309774651 "/><polyline class="polyline" opacity="0.5" stroke="blue" points="236.4467720078259,197.4274424208212 242.39392736596346,200.7303055899622 "/><polyline class="polyline" opacity="0.5" stroke="blue" points="236.17670417081519,196.14338870090967 242.50654733308647,198.43144624666795 "/><polyline class="polyline" opacity="0.5" stroke="blue" points="235.89249767400852,194.86133757872483 242.59264916952802,196.12546377369642 "/><polyline class="polyline" opacity="0.5" stroke="blue" points="235.59424587455476,193.58167739802917 242.65232328565818,193.813088809692 "/><polyline class="polyline" opacity="0.5" stroke="blue" points="235.28204440820474,192.30479571476187 242.6856666443868,191.49505084948174 "/><polyline class="polyline" opacity="0.5" stroke="blue" points="234.9559911955976,191.03107935345056 242.6927826179256,189.1720785047123 "/><polyline class="polyline" opacity="0.5" stroke="blue" points="234.61618645164287,189.76091446323827 242.67378085989264,186.84489977783375 "/><polyline class="polyline" opacity="0.5" stroke="blue" points="234.26273269795175,188.49468657334086 242.6287771928316,184.51424234862128 "/><polyline class="polyline" opacity="0.5" stroke="blue" points="233.8957347782701,187.2327806477495 242.55789351120583,182.18083387242802 "/><polyline class="polyline" opacity="0.5" stroke="blue" points="233.51529987686442,185.97558113899424 242.46125769991454,179.84540228937237 "/><polyline class="polyline" opacity="0.5" stroke="blue" points="233.12153753980877,184.72347204078247 242.3390035683641,177.50867614366103 "/><polyline class="polyline" opacity="0.5" stroke="blue" points="232.714559699121,183.47683693932981 242.19127080011958,175.17138491225842 "/><polyline class="polyline" opacity="0.5" stroke="blue" points="232.29448069969334,182.2360590631975 242.0182049181479,172.83425934210914 "/><polyline class="polyline" opacity="0.5" stroke="blue" points="231.86141732896166,181.00152133145386 241.81995726565657,170.49803179512483 "/><polyline class="polyline" opacity="0.5" stroke="blue" points="231.41548884925467,179.7736063999727 241.59668500252127,168.1634366001361 "/><polyline class="polyline" opacity="0.5" stroke="blue" points="230.95681703276335,178.55269670568455 241.34855111728626,165.83121041101325 "/><polyline class="polyline" opacity="0.5" stroke="blue" points="230.4855261990687,177.33917450859616 241.07572445471408,163.50209257015027 "/><polyline class="polyline" opacity="0.5" stroke="blue" points="230.00174325516264,176.13342193138922 240.77837975885043,161.1768254764934 "/><polyline class="polyline" opacity="0.5" stroke="blue" points="229.50559773789615,174.93582099641327 240.45669773156249,158.8561549572907 "/><polyline class="polyline" opacity="0.5" stroke="blue" points="228.99722185878474,173.74675365988324 240.11086510649903,156.54083064271873 "/><polyline class="polyline" opacity="0.5" stroke="blue" points="228.47675055110037,172.56660184309388 239.7410747384124,154.23160634253284 "/><polyline class="polyline" opacity="0.5" stroke="blue" points="227.94432151917465,171.3957474604593 239.34752570777,151.92924042385994 "/><polyline class="polyline" opacity="0.5" stroke="blue" points="227.4000752898366,170.23457244418756 238.93042344057613,149.63449618923875 "/><polyline class="polyline" opacity="0.5" stroke="blue" points="226.84415526590413,169.08345876539695 238.48997984330956,147.34814225398222 "/><polyline class="polyline" opacity="0.5" stroke="blue" points="226.2767077816468,167.94278845148114 238.02641345287313,145.0709529219141 "/><polyline class="polyline" opacity="0.5" stroke="blue" points="225.69788216013188,166.8129435995274 237.53994960143677,142.80370855849628 "/><polyline class="polyline" opacity="0.5" stroke="blue" points="225.10783077236493,165.69430638559186 237.03082059604068,140.54719596033397 "/><polyline class="polyline" opacity="0.5" stroke="blue" points="224.50670909812942,164.58725906963457 236.49926591281024,138.30220872000788 "/><polyline class="polyline" opacity="0.5" stroke="blue" points="223.89467578842994,163.49218399591587 235.94553240561626,136.06954758514672 "/><polyline class="polyline" opacity="0.5" stroke="blue" points="223.2718927294351,162.40946358865335 235.36987452899461,133.8500208106039 "/><polyline class="polyline" opacity="0.5" stroke="blue" points="222.63852510781584,161.339480342739 234.772554575119,131.6444445025647 "/><polyline class="polyline" opacity="0.5" stroke="blue" points="221.99474147736876,160.28261680931516 234.1538429245971,129.45364295336137 "/><polyline class="polyline" opacity="0.5" stroke="blue" points="221.3407138268094,159.2392555760048 233.51401831083527,127.27844896571543 "/><polyline class="polyline" opacity="0.5" stroke="blue" points="220.67661764861643,158.2097792415941 232.85336809768864,125.1197041650833 "/><polyline class="polyline" opacity="0.5" stroke="blue" points="220.00263200880198,157.19457038496125 232.17218857008487,122.9782592987159 "/><polyline class="polyline" opacity="0.5" stroke="blue" points="219.3189396174802,156.19401152804915 231.47078523727626,120.85497451999085 "/><polyline class="polyline" opacity="0.5" stroke="blue" points="218.62572690009728,155.20848509267427 230.7494731483387,118.75071965650763 "/><polyline class="polyline" opacity="0.5" stroke="blue" points="217.92318406918463,154.23837335096874 230.0085772194989,116.66637446037745 "/><polyline class="polyline" opacity="0.5" stroke="blue" points="217.21150519648845,153.28405836924958 229.2484325728284,114.60282883906953 "/><polyline class="polyline" opacity="0.5" stroke="blue" points="216.49088828532524,152.34592194511242 228.4693848857996,112.56098306511042 "/><polyline class="polyline" opacity="0.5" stroke="blue" points="215.76153534300462,151.42434553754472 227.67179075114848,110.54174796285933 "/><polyline class="polyline" opacity="0.5" stroke="blue" points="215.02365245315698,150.51971018985788 226.85601804643946,108.54604507051346 "/><polyline class="polyline" opacity="0.5" stroke="blue" points="214.27744984779497,149.6323964452368 226.02244631266967,106.57480677542276 "/><polyline class="polyline" opacity="0.5" stroke="blue" points="213.52314197893412,148.76278425470963 225.17146714119383,104.62897642072294 "/></svg>
