<?xml version="1.0" encoding="UTF-8"?>
<!DOCTYPE svg PUBLIC "-//W3C//DTD SVG 1.1//EN"
    "http://www.w3.org/Graphics/SVG/1.1/DTD/svg11.dtd"><svg width="400" height="400" stroke="black" fill="none" fill-opacity="0.75" font-style="italic" font-family="CMU Serif, sans-serif" xmlns="http://www.w3.org/2000/svg" xmlns:xlink="http://www.w3.org/1999/xlink" version="1.1"><filter id="blur"><feGaussianBlur stdDeviation="2"/></filter><rect width="100%" height="100%" fill="white" stroke="none" fill-opacity="1"/><polygon points="210.7554875014839,135.68269143660234 225.45106705715742,60.99946753848201 " opacity="0.5" stroke="blue"/><polygon points="212.91451199274476,137.7718025675678 232.5511656783319,64.55850408953049 " opacity="0.5" stroke="blue"/><polygon points="215.04726903418083,140.15682114627535 239.65887152056155,68.91127063398906 " opacity="0.5" stroke="blue"/><polygon points="217.1425442856475,142.83169273869296 246.7269482873069,74.0493584449349 " opacity="0.5" stroke="blue"/><polygon points="219.18895310306715,145.78829545440558 253.70546632435025,79.95402382578325 " opacity="0.5" stroke="blue"/><polygon points="221.17503681900504,149.01639466918948 260.5425771068296,86.59563370087824 " opacity="0.5" stroke="blue"/><polygon points="223.08936752171823,152.50362478021947 267.185432630837,93.93339035445753 " opacity="0.5" stroke="blue"/><polygon points="224.9206598714183,156.23550071514876 273.5812262357594,101.91538151267913 " opacity="0.5" stroke="blue"/><polygon points="226.65788815907428,160.19546133072066 279.6783210754975,110.47898847673945 " opacity="0.5" stroke="blue"/><polygon points="228.29040651148708,164.3649461151741 285.4274233491216,119.55166715254852 " opacity="0.5" stroke="blue"/><polygon points="229.80806989374338,168.7235057698266 290.78275054966167,129.0520956964919 " opacity="0.5" stroke="blue"/><polygon points="231.20135337283136,173.24894631586665 295.7031413333249,138.8916597696463 " opacity="0.5" stroke="blue"/><polygon points="232.4614669985126,177.91750538739586 300.1530538238108,148.9762241185044 " opacity="0.5" stroke="blue"/><polygon points="233.58046364063372,182.70405837230072 304.1034035266604,159.20811957870802 " opacity="0.5" stroke="blue"/><polygon points="234.55133720282822,187.58235109386393 307.53220034560263,169.4882596763573 " opacity="0.5" stroke="blue"/><polygon points="235.3681088128525,192.52525483479423 310.42495580089053,179.71829237409432 " opacity="0.5" stroke="blue"/><polygon points="236.0258988659325,197.50503873648987 312.7748453822727,189.80269107791054 " opacity="0.5" stroke="blue"/><polygon points="236.5209831601972,202.49365399993656 314.58262570123793,199.65069485852607 " opacity="0.5" stroke="blue"/><polygon points="236.85083179805792,207.46302390297336 315.8563203381532,209.17802019120936 " opacity="0.5" stroke="blue"/><polygon points="237.0141300153766,212.38533345382947 316.6107007259978,218.3082839237149 " opacity="0.5" stroke="blue"/><polygon points="237.01078061937176,217.23331253303542 316.8665980696267,226.97409772189974 " opacity="0.5" stroke="blue"/><polygon points="236.84188824258672,221.98050663258854 316.65008855222993,235.11781581756983 " opacity="0.5" stroke="blue"/><polygon points="236.50972612990432,226.60152976771278 315.9915967403715,242.69193850350447 " opacity="0.5" stroke="blue"/><polygon points="236.01768664595926,231.0722947865837 314.92496137534016,249.6591918416888 " opacity="0.5" stroke="blue"/><polygon points="235.37021710168233,235.37021710168233 313.4865041568587,255.9923183249089 " opacity="0.5" stroke="blue"/><polygon points="234.57274283544237,239.47438877116159 311.7141364127691,261.67362316566033 " opacity="0.5" stroke="blue"/><polygon points="233.6315797354954,243.3657208244287 309.6465315136038,266.6943264109842 " opacity="0.5" stroke="blue"/><polygon points="232.55383855059864,247.02705270735444 307.32238331588314,271.05377255898776 " opacity="0.5" stroke="blue"/><polygon points="231.34732340425813,250.44322867591075 304.7797634770275,274.7585474442825 " opacity="0.5" stroke="blue"/><polygon points="230.02042690951356,253.60114185441785 302.05558369639476,277.82154768931593 " opacity="0.5" stroke="blue"/><polygon points="228.58202418382132,256.48974746460453 299.18516314620075,280.2610418481796 " opacity="0.5" stroke="blue"/><polygon points="227.04136789902157,259.1000474010728 296.2018967425017,282.09975530151115 " opacity="0.5" stroke="blue"/><polygon points="225.40798628319192,261.425048862758 293.1370165090982,283.3640036752216 " opacity="0.5" stroke="blue"/><polygon points="223.69158573405394,263.45970014218017 290.01943603862986,284.08289257674494 " opacity="0.5" stroke="blue"/><polygon points="221.9019594222169,265.20080692593734 286.87566681684643,284.28759513436506 " opacity="0.5" stroke="blue"/><polygon points="220.04890297082207,266.64693257871994 283.7297947713172,284.0107134042431 " opacity="0.5" stroke="blue"/><polygon points="218.142138008547,267.798285881983 280.6035056460888,283.285725268768 " opacity="0.5" stroke="blue"/><polygon points="216.1912441159685,268.6565995937639 277.5161485080339,282.1465149868314 " opacity="0.5" stroke="blue"/><polygon points="214.20559942933352,269.2250030065883 274.48482769790644,280.6269830037026 " opacity="0.5" stroke="blue"/><polygon points="212.19432993694124,269.5078914253784 271.5245147150988,278.760728877147 " opacity="0.5" stroke="blue"/><polygon points="210.16626730552528,269.51079518582196 268.6481727640833,276.58080009959394 " opacity="0.5" stroke="blue"/><polygon points="208.1299149091762,269.2402505035765 265.8668879142674,274.1194990618866 " opacity="0.5" stroke="blue"/><polygon points="206.09342160167986,268.70367410185327 263.19000197964726,271.4082402876235 " opacity="0.5" stroke="blue"/><polygon points="204.06456267348602,267.9092432228931 260.6252432766891,268.47745025683486 " opacity="0.5" stroke="blue"/><polygon points="202.050727364618,266.86578229864335 258.178852350881,265.3565025388496 " opacity="0.5" stroke="blue"/><polygon points="200.0589122616833,265.58265724604075 255.8557005689848,262.0736814893452 " opacity="0.5" stroke="blue"/><polygon points="198.09571988729468,264.0696780687825 253.65940015828042,258.6561683752129 " opacity="0.5" stroke="blue"/><polygon points="196.16736178998968,262.3370101941909 251.592404844673,255.1300444277208 " opacity="0.5" stroke="blue"/><polygon points="194.27966545847846,260.39509475274315 249.65610071027822,251.5203059573467 " opacity="0.5" stroke="blue"/><polygon points="192.4380844122406,258.25457781944226 247.85088727131046,247.85088727131046 " opacity="0.5" stroke="blue"/><polygon points="190.6477108578887,255.92624847960582 246.1762490822357,244.14468770472078 " opacity="0.5" stroke="blue"/><polygon points="188.91329034442114,253.42098545504427 244.63081841498516,240.42359960264173 " opacity="0.5" stroke="blue"/><polygon points="187.23923789798374,250.74971192753458 243.21242975402828,236.70853457261532 " opacity="0.5" stroke="blue"/><polygon points="185.6296551659359,247.92335812208069 241.91816699916293,233.0194457682822 " opacity="0.5" stroke="blue"/><polygon points="184.0883481491377,244.95283115958168 240.74440438606973,229.37534437018658 " opacity="0.5" stroke="blue"/><polygon points="182.6188451490871,241.84899165404536 239.68684222626348,225.7943088066223 " opacity="0.5" stroke="blue"/><polygon points="181.2244146018045,238.62263651028593 238.74053863750567,222.29348561311298 " opacity="0.5" stroke="blue"/><polygon points="179.90808251245625,235.2844873711947 237.89993848574994,218.8890811714764 " opacity="0.5" stroke="blue"/><polygon points="178.67264924314847,231.84518416645122 237.15890079142903,215.59634390545165 " opacity="0.5" stroke="blue"/><polygon points="177.52070544084063,228.3152832244831 236.51072586609234,212.42953684552654 " opacity="0.5" stroke="blue"/><polygon points="176.45464692283488,224.70525942439232 235.9481834385913,209.40190081525415 " opacity="0.5" stroke="blue"/><polygon points="175.47668836384528,221.0255118825307 235.4635430007604,206.52560883737263 " opacity="0.5" stroke="blue"/><polygon points="174.58887565140444,217.2863726877712 235.0486075477672,203.81171271043542 " opacity="0.5" stroke="blue"/><polygon points="173.7930967955732,213.49811821889355 234.69475180460654,201.2700830627397 " opacity="0.5" stroke="blue"/><polygon points="173.0910912949027,209.67098259571313 234.39296591428993,198.90934454454813 " opacity="0.5" stroke="blue"/><polygon points="172.48445787372037,205.81517283168068 234.13390541234833,196.73680816340075 " opacity="0.5" stroke="blue"/><polygon points="171.97466051648135,201.94088526890917 233.90794812455954,194.75840308932152 " opacity="0.5" stroke="blue"/><polygon points="171.56303273357392,198.05832288635452 233.70525840004547,192.9786105429894 " opacity="0.5" stroke="blue"/><polygon points="171.25078000005146,194.17771307776113 233.51585883171472,191.40040261452137 " opacity="0.5" stroke="blue"/><polygon points="171.0389803147579,190.309325497705 233.32970932444508,190.0251890262782 " opacity="0.5" stroke="blue"/><polygon points="170.92858283271335,186.46348957147165 233.13679305499892,188.85277493282535 " opacity="0.5" stroke="blue"/><polygon points="170.92040452894318,182.6506112576037 232.92720853575173,187.8813328288399 " opacity="0.5" stroke="blue"/><polygon points="171.0151248576956,178.88118864085635 232.69126665880938,187.10739149799574 " opacity="0.5" stroke="blue"/><polygon points="171.21327837774842,175.16582591829857 232.41959127217578,186.52584467352838 " opacity="0.5" stroke="blue"/><polygon points="171.5152453228219,171.5152453228219 232.10322154115323,186.12998169076738 " opacity="0.5" stroke="blue"/><polygon points="171.9212401065746,167.94029650696675 231.73371409273005,185.91154189678443 " opacity="0.5" stroke="blue"/><polygon points="172.43129776485685,164.45196288655956 231.30324274467853,185.86079395349705 " opacity="0.5" stroke="blue"/><polygon points="173.04525835444048,161.0613644191727 230.8046934992601,185.96664044714174 " opacity="0.5" stroke="blue"/><polygon points="173.76274934793196,157.7797562681324 230.2317524458484,186.2167474256677 " opacity="0.5" stroke="blue"/><polygon points="174.5831660895912,154.6185227802254 229.57898427548218,186.5976976595556 " opacity="0.5" stroke="blue"/><polygon points="175.50565040687187,151.5891661861805 228.84189926643432,187.09516559888158 " opacity="0.5" stroke="blue"/><polygon points="176.52906750814998,148.70328941954503 228.01700685078967,187.6941112206271 " opacity="0.5" stroke="blue"/><polygon points="177.65198133870746,145.9725724441288 227.10185420937495,188.37898926544577 " opacity="0.5" stroke="blue"/><polygon points="178.87262861483742,143.40874148547445 226.09504875219926,189.1339697892403 " opacity="0.5" stroke="blue"/><polygon points="180.18889181000904,141.02353058082184 224.99626380502818,189.94316553275706 " opacity="0.5" stroke="blue"/><polygon points="181.59827142720565,138.82863489798999 223.80622731738183,190.7908613642253 " opacity="0.5" stroke="blue"/><polygon points="183.09785795736698,136.83565532990377 222.52669390858136,191.66174098776636 " opacity="0.5" stroke="blue"/><polygon points="184.68430399450332,135.0560339515767 221.16040105158422,192.5411062345554 " opacity="0.5" stroke="blue"/><polygon points="186.35379705225773,133.50098003359713 219.7110106357972,193.41508455395612 " opacity="0.5" stroke="blue"/><polygon points="188.10203370274445,132.18138644361704 218.18303752943334,194.2708207772242 " opacity="0.5" stroke="blue"/><polygon points="189.9241957341173,131.10773643758552 216.58176706327828,195.0966498075056 " opacity="0.5" stroke="blue"/><polygon points="191.81492909568445,130.29000104728402 214.91316357025255,195.88224756126425 " opacity="0.5" stroke="blue"/><polygon points="193.76832646506676,129.73752751078877 213.18377223394037,196.61875820911067 " opacity="0.5" stroke="blue"/><polygon points="195.77791432691262,129.45891946705416 211.40061652506432,197.29889649892993 " opacity="0.5" stroke="blue"/><polygon points="197.83664549256213,129.46190994234246 209.57109344367686,197.91702465404202 " opacity="0.5" stroke="blue"/><polygon points="199.9368980099407,129.75322849005042 207.70286864695248,198.46920399112167 " opacity="0.5" stroke="blue"/><polygon points="202.0704814078033,130.3384641995236 205.80377334151146,198.95322197014758 " opacity="0.5" stroke="blue"/><polygon points="204.2286511832315,131.22192665399768 203.8817045708559,199.36859585232295 " opacity="0.5" stroke="blue"/><polygon points="206.40213237132554,132.40650728043545 201.94453024929888,199.71655448991982 " opacity="0.5" stroke="blue"/><polygon points="208.5811529273661,133.8935438796795 200.0,200.0 " opacity="0.5" stroke="blue"/><polygon points="210.7554875014839,135.68269143660234 198.05566256152488,200.2234511844354 " opacity="0.5" stroke="blue"/><polygon points="212.91451199274476,137.7718025675678 196.1187902479939,200.39297055990545 " opacity="0.5" stroke="blue"/><polygon points="215.04726903418083,140.15682114627532 194.19631069335128,200.51607676659506 " opacity="0.5" stroke="blue"/><polygon points="217.1425442856475,142.83169273869294 192.29474588902661,200.60164394962212 " opacity="0.5" stroke="blue"/><polygon points="219.18895310306712,145.78829545440558 190.42015834219794,200.6597894715741 " opacity="0.5" stroke="blue"/><polygon points="221.17503681900507,149.01639466918948 188.57810404253715,200.70175103800753 " opacity="0.5" stroke="blue"/><polygon points="223.08936752171823,152.50362478021947 186.77359183013004,200.73975402091793 " opacity="0.5" stroke="blue"/><polygon points="224.9206598714183,156.23550071514873 185.01104870578794,200.78686946842964 " opacity="0.5" stroke="blue"/><polygon points="226.65788815907428,160.19546133072066 183.2942906152999,200.85686301211356 " opacity="0.5" stroke="blue"/><polygon points="228.29040651148705,164.36494611517406 181.62649826818654,200.96403464539642 " opacity="0.5" stroke="blue"/><polygon points="229.80806989374338,168.72350576982663 180.0101976151568,201.12304916541152 " opacity="0.5" stroke="blue"/><polygon points="231.20135337283136,173.24894631586665 178.44724470190656,201.34875696309297 " opacity="0.5" stroke="blue"/><polygon points="232.4614669985126,177.9175053873959 176.93881473464916,201.6560048276658 " opacity="0.5" stroke="blue"/><polygon points="233.58046364063375,182.70405837230072 175.48539532874065,202.05943651552369 " opacity="0.5" stroke="blue"/><polygon points="234.55133720282822,187.5823510938639 174.08678405922126,202.57328303116907 " opacity="0.5" stroke="blue"/><polygon points="235.36810881285254,192.52525483479425 172.7420905836412,203.2111428877848 " opacity="0.5" stroke="blue"/><polygon points="236.0258988659325,197.50503873648984 171.44974375502701,203.98575306150855 " opacity="0.5" stroke="blue"/><polygon points="236.5209831601972,202.49365399993656 170.2075042773971,204.9087519257773 " opacity="0.5" stroke="blue"/><polygon points="236.85083179805792,207.46302390297336 169.0124835682612,205.9904361427557 " opacity="0.5" stroke="blue"/><polygon points="237.0141300153766,212.38533345382945 167.86116957193624,207.23951428227832 " opacity="0.5" stroke="blue"/><polygon points="237.01078061937176,217.23331253303542 166.7494603039541,208.6628608097804 " opacity="0.5" stroke="blue"/><polygon points="236.84188824258672,221.98050663258852 165.67270589030733,210.26527499753516 " opacity="0.5" stroke="blue"/><polygon points="236.50972612990432,226.60152976771283 164.62575978673726,212.04925022109717 " opacity="0.5" stroke="blue"/><polygon points="236.01768664595926,231.0722947865837 163.60303971556107,214.0147599472018 " opacity="0.5" stroke="blue"/><polygon points="235.37021710168233,235.37021710168233 162.5985986364037,216.15906743312476 " opacity="0.5" stroke="blue"/><polygon points="234.57274283544237,239.47438877116159 161.60620577239968,218.47656666682443 " opacity="0.5" stroke="blue"/><polygon points="233.6315797354954,243.3657208244287 160.61943734976364,220.95866230628206 " opacity="0.5" stroke="blue"/><polygon points="232.55383855059864,247.02705270735447 159.63177628680998,223.59369625357323 " opacity="0.5" stroke="blue"/><polygon points="231.34732340425813,250.44322867591075 158.63671960564153,226.36692796396204 " opacity="0.5" stroke="blue"/><polygon points="230.0204269095136,253.60114185441785 157.6278918592533,229.26057460165518 " opacity="0.5" stroke="blue"/><polygon points="228.58202418382137,256.4897474646045 156.59916239772966,232.25391569795812 " opacity="0.5" stroke="blue"/><polygon points="227.04136789902157,259.10004740107286 155.54476387259604,235.3234650645988 " opacity="0.5" stroke="blue"/><polygon points="225.40798628319192,261.425048862758 154.4594090330221,238.44321042349023 " opacity="0.5" stroke="blue"/><polygon points="223.69158573405397,263.45970014218017 153.33840263503603,241.58491863226106 " opacity="0.5" stroke="blue"/><polygon points="221.9019594222169,265.20080692593734 152.17774519423767,244.71850164688712 " opacity="0.5" stroke="blue"/><polygon points="220.0489029708221,266.64693257871994 150.97422538478924,247.8124356317373 " opacity="0.5" stroke="blue"/><polygon points="218.142138008547,267.798285881983 149.7254981329394,250.83422308288246 " opacity="0.5" stroke="blue"/><polygon points="216.1912441159685,268.6565995937639 148.43014586922249,253.75088565337316 " opacity="0.5" stroke="blue"/><polygon points="214.20559942933355,269.2250030065883 147.08772097312698,256.52947372415053 " opacity="0.5" stroke="blue"/><polygon points="212.19432993694127,269.5078914253784 145.69876813757378,259.13757778327266 " opacity="0.5" stroke="blue"/><polygon points="210.16626730552528,269.51079518582196 144.26482615698217,261.5438264440968 " opacity="0.5" stroke="blue"/><polygon points="208.1299149091762,269.2402505035765 142.78840945342148,263.7183564779807 " opacity="0.5" stroke="blue"/><polygon points="206.09342160167984,268.70367410185327 141.27297044852247,265.6332415264752 " opacity="0.5" stroke="blue"/><polygon points="204.06456267348605,267.9092432228931 139.72284461425906,267.2628681017444 " opacity="0.5" stroke="blue"/><polygon points="202.05072736461804,266.86578229864335 138.14318064945354,268.5842499434984 " opacity="0.5" stroke="blue"/><polygon points="200.05891226168333,265.58265724604075 136.53985869700549,269.577274603211 " opacity="0.5" stroke="blue"/><polygon points="198.09571988729468,264.0696780687825 134.91939981815423,270.224879081933 " opacity="0.5" stroke="blue"/><polygon points="196.16736178998968,262.3370101941909 133.28887006705048,270.5131542676813 " opacity="0.5" stroke="blue"/><polygon points="194.27966545847846,260.39509475274315 131.655782467363,270.4313806307819 " opacity="0.5" stroke="blue"/><polygon points="192.4380844122406,258.25457781944226 130.028,269.972 " opacity="0.5" stroke="blue"/><polygon points="190.64771085788874,255.92624847960587 128.41364239354954,269.13053015758965 " opacity="0.5" stroke="blue"/><polygon points="188.91329034442114,253.42098545504422 126.8209990986029,267.9054303995431 " opacity="0.5" stroke="blue"/><polygon points="187.23923789798374,250.74971192753458 125.25845035779687,266.29792709252973 " opacity="0.5" stroke="blue"/><polygon points="185.6296551659359,247.92335812208074 123.73439778838097,264.31180864292645 " opacity="0.5" stroke="blue"/><polygon points="184.0883481491377,244.95283115958173 122.25720540321325,261.953199227382 " opacity="0.5" stroke="blue"/><polygon points="182.61884514908712,241.84899165404542 120.83515153397687,259.2303201908 " opacity="0.5" stroke="blue"/><polygon points="181.2244146018045,238.62263651028593 119.47639170563026,256.1532472803694 " opacity="0.5" stroke="blue"/><polygon points="179.90808251245625,235.2844873711947 118.18893215582138,252.7336709404276 " opacity="0.5" stroke="blue"/><polygon points="178.67264924314847,231.84518416645125 116.98061340332198,248.98466582582375 " opacity="0.5" stroke="blue"/><polygon points="177.52070544084066,228.31528322448312 115.85910304631646,244.92047457546226 " opacity="0.5" stroke="blue"/><polygon points="176.45464692283488,224.7052594243924 114.83189681120444,240.55630978496114 " opacity="0.5" stroke="blue"/><polygon points="175.47668836384528,221.0255118825307 113.90632676890726,235.90817707619016 " opacity="0.5" stroke="blue"/><polygon points="174.58887565140444,217.28637268777118 113.08957557993664,230.9927212162043 " opacity="0.5" stroke="blue"/><polygon points="173.7930967955732,213.49811821889355 112.38869561205249,225.82709641009865 " opacity="0.5" stroke="blue"/><polygon points="173.0910912949027,209.67098259571313 111.8106317853205,220.4288611915274 " opacity="0.5" stroke="blue"/><polygon points="172.48445787372037,205.8151728316806 111.36224702923775,214.81589776161647 " opacity="0.5" stroke="blue"/><polygon points="171.97466051648132,201.94088526890914 111.05034927658653,209.0063551750654 " opacity="0.5" stroke="blue"/><polygon points="171.56303273357392,198.0583228863545 110.88171896109415,203.0186154294004 " opacity="0.5" stroke="blue"/><polygon points="171.25078000005146,194.17771307776115 110.86313602429641,196.87128126415482 " opacity="0.5" stroke="blue"/><polygon points="171.0389803147579,190.309325497705 111.00140546590025,190.58318430369079 " opacity="0.5" stroke="blue"/><polygon points="170.92858283271335,186.46348957147157 111.30338048726453,184.17341206204497 " opacity="0.5" stroke="blue"/><polygon points="170.92040452894318,182.65061125760369 111.77598227632035,177.6613522520738 " opacity="0.5" stroke="blue"/><polygon points="171.01512485769564,178.88118864085635 112.42621546231675,171.06675278624124 " opacity="0.5" stroke="blue"/><polygon points="171.21327837774842,175.1658259182986 113.26117822917834,164.40979580538763 " opacity="0.5" stroke="blue"/><polygon points="171.5152453228219,171.5152453228219 114.28806601693748,157.71118400836593 " opacity="0.5" stroke="blue"/><polygon points="171.92124010657463,167.94029650696666 115.51416766261445,150.99223746419452 " opacity="0.5" stroke="blue"/><polygon points="172.43129776485685,164.45196288655956 116.94685273714249,144.27499895495757 " opacity="0.5" stroke="blue"/><polygon points="173.04525835444048,161.06136441917266 118.59354872684526,137.58234570872543 " opacity="0.5" stroke="blue"/><polygon points="173.76274934793196,157.7797562681324 120.46170659150465,130.93810512504967 " opacity="0.5" stroke="blue"/><polygon points="174.5831660895912,154.61852278022542 122.55875311303603,124.36717176025695 " opacity="0.5" stroke="blue"/><polygon points="175.5056504068719,151.58916618618042 124.89202833831993,117.89562241686653 " opacity="0.5" stroke="blue"/><polygon points="176.52906750814998,148.70328941954497 127.46870632870954,111.55082566459879 " opacity="0.5" stroke="blue"/><polygon points="177.65198133870746,145.97257244412876 130.29569737224082,105.36154150694186 " opacity="0.5" stroke="blue"/><polygon points="178.87262861483742,143.40874148547445 133.37952981144355,99.35800619956426 " opacity="0.5" stroke="blue"/><polygon points="180.18889181000904,141.02353058082184 136.72620971278712,93.57199643451087 " opacity="0.5" stroke="blue"/><polygon points="181.59827142720565,138.82863489798999 140.34105678036272,88.03686624604477 " opacity="0.5" stroke="blue"/><polygon points="183.097857957367,136.83565532990372 144.2285152277127,82.78754910131458 " opacity="0.5" stroke="blue"/><polygon points="184.68430399450335,135.05603395157664 148.39193880254726,77.86051675808177 " opacity="0.5" stroke="blue"/><polygon points="186.35379705225773,133.50098003359713 152.83334984635206,73.29368566729396 " opacity="0.5" stroke="blue"/><polygon points="188.10203370274442,132.18138644361704 157.55317320132446,69.12626105625992 " opacity="0.5" stroke="blue"/><polygon points="189.92419573411732,131.10773643758546 162.5499469836925,65.39850845771193 " opacity="0.5" stroke="blue"/><polygon points="191.81492909568448,130.290001047284 167.82001374965307,62.151442483776606 " opacity="0.5" stroke="blue"/><polygon points="193.7683264650668,129.73752751078877 173.3571973971802,59.42642323570274 " opacity="0.5" stroke="blue"/><polygon points="195.7779143269126,129.45891946705416 179.15247325996975,57.264652059227444 " opacity="0.5" stroke="blue"/><polygon points="197.83664549256213,129.46190994234246 185.193641212851,55.706560574934144 " opacity="0.5" stroke="blue"/><polygon points="199.93689800994073,129.7532284900504 191.46501413350694,54.791090193200944 " opacity="0.5" stroke="blue"/><polygon points="202.0704814078033,130.33846419952363 197.94713661556642,54.55486378789348 " opacity="0.5" stroke="blue"/><polygon points="204.22865118323153,131.22192665399774 204.6165512093639,55.03125690839963 " opacity="0.5" stroke="blue"/><polygon points="206.40213237132554,132.40650728043542 211.44563142858314,56.249382810417416 " opacity="0.5" stroke="blue"/><polygon points="208.5811529273661,133.8935438796795 218.40250200390145,58.23301349805695 " opacity="0.5" stroke="blue"/></svg>
