<?xml version="1.0" encoding="UTF-8"?>
<!DOCTYPE svg PUBLIC "-//W3C//DTD SVG 1.1//EN"
    "http://www.w3.org/Graphics/SVG/1.1/DTD/svg11.dtd"><svg width="400" height="400" stroke="black" fill="none" fill-opacity="0.75" font-style="italic" font-family="CMU Serif, sans-serif" xmlns="http://www.w3.org/2000/svg" xmlns:xlink="http://www.w3.org/1999/xlink" version="1.1"><filter id="blur"><feGaussianBlur stdDeviation="2"/></filter><rect width="100%" height="100%" fill="white" stroke="none" fill-opacity="1"/><polygon points="218.70634629017127,142.34869929408978 243.22097396209895,72.68863868365776 " opacity="0.5" stroke="blue"/><polygon points="221.47101656712908,145.180017114848 251.52304953840064,78.09542427327088 " opacity="0.5" stroke="blue"/><polygon points="224.1692669734324,148.27801382222654 259.6721945669444,84.23133911226242 " opacity="0.5" stroke="blue"/><polygon points="226.78616967152678,151.6304128352954 267.6048449016395,91.0572788157844 " opacity="0.5" stroke="blue"/><polygon points="229.30695647084332,155.22295493980604 275.2576817770546,98.52379875842203 " opacity="0.5" stroke="blue"/><polygon points="231.71716313723553,159.03945409433595 282.56892068497666,106.57156195061674 " opacity="0.5" stroke="blue"/><polygon points="234.00277676264645,163.06188294305758 289.4796338574195,115.13211303361031 " opacity="0.5" stroke="blue"/><polygon points="236.15038341367944,167.27048799119768 295.93505211434245,124.12896684164465 " opacity="0.5" stroke="blue"/><polygon points="238.1473131065917,171.64393359558187 301.88578943589096,133.4789812764363 " opacity="0.5" stroke="blue"/><polygon points="239.98177907723647,176.15947309917877 307.2889352127165,143.09396654322262 " opacity="0.5" stroke="blue"/><polygon points="241.64300833693997,180.79314462981705 312.10896481381394,152.88246778652336 " opacity="0.5" stroke="blue"/><polygon points="243.12136063372424,185.51998832525516 316.31842854081424,162.75164731013984 " opacity="0.5" stroke="blue"/><polygon points="244.40843317177905,190.314281074803 319.89839143797235,172.60918693444466 " opacity="0.5" stroke="blue"/><polygon points="245.4971487741418,195.14978431395346 322.83861069187844,182.36513114139495 " opacity="0.5" stroke="blue"/><polygon points="246.3818255922004,200.0 325.13745218757066,191.93359736652965 " opacity="0.5" stroke="blue"/><polygon points="247.0582269540847,204.83842965332474 326.80156187156143,201.23429040507105 " opacity="0.5" stroke="blue"/><polygon points="247.52359048157922,209.6388312823948 327.84531973764604,210.19377221542064 " opacity="0.5" stroke="blue"/><polygon points="247.7766361685878,214.37546912269883 328.29011361101345,218.74645493871031 " opacity="0.5" stroke="blue"/><polygon points="247.81755367900047,219.02335140373847 328.16347593874264,226.83530212806488 " opacity="0.5" stroke="blue"/><polygon points="247.6479696640469,223.55845179784393 327.49812936755404,234.41223952466785 " opacity="0.5" stroke="blue"/><polygon points="247.27089639674722,227.95791077655142 326.3309862248631,241.43829102550652 " opacity="0.5" stroke="blue"/><polygon points="246.69066345491103,232.20021377529113 324.7021436166874,247.88346692214867 " opacity="0.5" stroke="blue"/><polygon points="245.91283453950052,236.26534381214606 322.6539103924027,253.72643961421738 " opacity="0.5" stroke="blue"/><polygon points="244.94411178204058,240.13490698686905 320.2298954494442,258.9540467556703 " opacity="0.5" stroke="blue"/><polygon points="243.79223006820632,243.79223006820632 317.4741794861582,263.5606634274086 " opacity="0.5" stroke="blue"/><polygon points="242.4658439847522,247.22243012944736 314.43058499036044,267.5474839171782 " opacity="0.5" stroke="blue"/><polygon points="240.97440998810745,250.4124568867397 311.14205247042565,270.92175062227636 " opacity="0.5" stroke="blue"/><polygon points="239.32806630358849,253.35110901011456 307.6501250369794,273.6959631041344 " opacity="0.5" stroke="blue"/><polygon points="237.53751290555599,256.0290261973942 303.99453861948194,275.8870950157229 " opacity="0.5" stroke="blue"/><polygon points="235.6138937142115,258.43865921640554 300.2129114169343,277.5158410122762 " opacity="0.5" stroke="blue"/><polygon points="233.56868288833198,260.57422042737073 296.3405235980981,278.6059102565358 " opacity="0.5" stroke="blue"/><polygon points="231.41357680941417,262.43161749652654 292.4101766759292,279.1833780415732 " opacity="0.5" stroke="blue"/><polygon points="229.1603930550996,264.008373110033 288.4521212334111,279.27610256979096 " opacity="0.5" stroke="blue"/><polygon points="226.82097736073814,265.3035335037178 284.49404160603035,278.91321014557957 " opacity="0.5" stroke="blue"/><polygon points="224.40711927814303,266.3175685513367 280.5610865629957,278.12464898705537 " opacity="0.5" stroke="blue"/><polygon points="221.9304769686375,267.05226601549214 276.6759358217017,276.9408095109027 " opacity="0.5" stroke="blue"/><polygon points="219.40251131992463,267.5106223753802 272.8588932455798,275.3922072293368 " opacity="0.5" stroke="blue"/><polygon points="216.8344293576256,267.69673241817236 269.1279987063286,273.5092232350351 " opacity="0.5" stroke="blue"/><polygon points="214.23713673511318,267.61567952924133 265.4991517539876,271.32189654587097 " opacity="0.5" stroke="blue"/><polygon points="211.621198930427,267.27342835249414 261.98624137147084,268.8597622444942 " opacity="0.5" stroke="blue"/><polygon points="208.99681065609903,266.6767212260023 258.6012771527207,266.1517292929272 " opacity="0.5" stroke="blue"/><polygon points="206.37377289503053,265.83297953841486 255.35451821047064,263.2259920541683 " opacity="0.5" stroke="blue"/><polygon points="203.7614769107069,264.7502109049676 252.2545969782916,260.109969847777 " opacity="0.5" stroke="blue"/><polygon points="201.1688945400208,263.43692283321684 249.30863581917484,256.83026925291904 " opacity="0.5" stroke="blue"/><polygon points="198.60457405848499,261.9020433412727 246.52235499305766,253.41266431005766 " opacity="0.5" stroke="blue"/><polygon points="196.07664090723063,260.1548488072459 243.90017107645835,249.8820902311975 " opacity="0.5" stroke="blue"/><polygon points="193.59280258552477,258.2048991686027 241.44528537929094,246.26264668690195 " opacity="0.5" stroke="blue"/><polygon points="191.16035703840046,256.06198045393154 239.15976227862774,242.5776071821091 " opacity="0.5" stroke="blue"/><polygon points="188.78620390343124,253.73605451629038 237.04459769841708,238.84943145387453 " opacity="0.5" stroke="blue"/><polygon points="186.47685802106588,251.23721574529037 235.0997782190416,235.09977821904164 " opacity="0.5" stroke="blue"/><polygon points="184.23846465699535,248.57565446245528 233.32433151112315,231.34951596849697 " opacity="0.5" stroke="blue"/><polygon points="182.07681593081543,245.76162664903134 231.7163689626966,227.6187298496966 " opacity="0.5" stroke="blue"/><polygon points="179.99736799119808,242.8054296150388 230.27312151475545,223.92672300490926 " opacity="0.5" stroke="blue"/><polygon points="178.00525852263124,239.71738319068487 228.9909698424883,220.2920110445419 " opacity="0.5" stroke="blue"/><polygon points="176.10532421157006,236.50781600408416 227.8654701218569,216.7323086388669 " opacity="0.5" stroke="blue"/><polygon points="174.3021178398681,233.1870564004726 226.89137670541948,213.26450751327954 " opacity="0.5" stroke="blue"/><polygon points="172.59992471016344,229.7654275558125 226.062663097822,209.90464543711983 " opacity="0.5" stroke="blue"/><polygon points="171.0027781412153,226.25324634011682 225.37254266903417,206.6678661083381 " opacity="0.5" stroke="blue"/><polygon points="169.51447380093134,222.6608254914039 224.81349056980756,203.5683701586726 " opacity="0.5" stroke="blue"/><polygon points="168.13858267103834,218.99847866854614 224.3772683155235,200.61935783752708 " opacity="0.5" stroke="blue"/><polygon points="166.87846246019123,215.2765279592175 224.05495247736442,197.8329642761978 " opacity="0.5" stroke="blue"/><polygon points="165.73726730204828,211.50531342665923 223.8369688589538,195.22018858387605 " opacity="0.5" stroke="blue"/><polygon points="164.7179555917953,207.69520428523822 223.71313343764538,192.79081837667124 " opacity="0.5" stroke="blue"/><polygon points="163.82329582918484,203.8566112990904 223.6727012083689,190.55335168179826 " opacity="0.5" stroke="blue"/><polygon points="163.05587034881864,200.0 223.70442388123948,188.51491847950192 " opacity="0.5" stroke="blue"/><polygon points="162.41807682964856,196.13590431968848 223.79661715046535,186.68120443141964 " opacity="0.5" stroke="blue"/><polygon points="161.91212748604352,192.27494022763935 223.9372379720045,185.05637958034623 " opacity="0.5" stroke="blue"/><polygon points="161.54004585285284,188.42781895837547 224.11397196408035,183.64303497622456 " opacity="0.5" stroke="blue"/><polygon points="161.3036610872989,184.60535940177647 224.31433068418812,182.4421302701642 " opacity="0.5" stroke="blue"/><polygon points="161.20459972191009,180.81849921678668 224.52575814789677,181.452955307163 " opacity="0.5" stroke="blue"/><polygon points="161.2442748157278,177.07830421305516 224.73574555102402,180.67310862634866 " opacity="0.5" stroke="blue"/><polygon points="161.42387246639555,173.39597552721636 224.93195275295668,180.09849553634348 " opacity="0.5" stroke="blue"/><polygon points="161.74433566417898,169.78285410135135 225.10233469263642,179.72334806943246 " opacity="0.5" stroke="blue"/><polygon points="162.20634549120422,166.2504219515913 225.23527055911202,179.54026863463065 " opacity="0.5" stroke="blue"/><polygon points="162.81029969595807,162.81029969595807 225.31969324497737,179.54029859662828 " opacity="0.5" stroke="blue"/><polygon points="163.55628870506916,159.47423979373758 225.3452163918939,179.7130123224377 " opacity="0.5" stroke="blue"/><polygon points="164.44406917223284,156.25411493556683 225.30225620876274,180.04663648486314 " opacity="0.5" stroke="blue"/><polygon points="165.47303520843144,153.16190101583297 225.18214521722356,180.5281936221919 " opacity="0.5" stroke="blue"/><polygon points="166.64218748878915,150.2096541190463 224.97723516327662,181.14366816175857 " opacity="0.5" stroke="blue"/><polygon points="167.95010048978304,147.409480961914 224.68098652932437,181.8781923586067 " opacity="0.5" stroke="blue"/><polygon points="169.39488817618982,144.77350225545518 224.2880423827728,182.71624891661614 " opacity="0.5" stroke="blue"/><polygon points="170.97416852988493,142.31380848939813 223.79428469410303,183.64188648269482 " opacity="0.5" stroke="blue"/><polygon points="172.6850273918908,140.04240769709293 223.1968717317364,184.63894376421342 " opacity="0.5" stroke="blue"/><polygon points="174.52398217395333,137.97116483607647 222.49425567096466,185.69127773759413 " opacity="0.5" stroke="blue"/><polygon points="176.48694608498445,136.1117325199159 221.68618011423442,186.78299130455719 " opacity="0.5" stroke="blue"/><polygon points="178.56919360898752,134.4754729634157 220.77365778306918,187.89865581467896 " opacity="0.5" stroke="blue"/><polygon points="180.76532806202405,133.07337115760225 219.7589291810592,189.0235241011994 " opacity="0.5" stroke="blue"/><polygon points="183.06925214321123,131.91593947427805 218.64540351789879,190.14373005461331 " opacity="0.5" stroke="blue"/><polygon points="185.4741424748406,131.01311411259763 217.43758360534883,191.2464712606938 " opacity="0.5" stroke="blue"/><polygon points="187.97242919506843,130.37414404105868 216.14097677112625,192.32017182548526 " opacity="0.5" stroke="blue"/><polygon points="190.5557817182963,130.0074733550398 214.76199407569828,193.3546231651173 " opacity="0.5" stroke="blue"/><polygon points="193.21510180797978,129.92061825833932 213.30784025544466,194.3411012175862 " opacity="0.5" stroke="blue"/><polygon points="195.9405251086148,130.1200401809162 211.786396855182,195.27245920274603 " opacity="0.5" stroke="blue"/><polygon points="198.72143225250875,130.61101685597703 210.2061009604343,196.14319568481812 " opacity="0.5" stroke="blue"/><polygon points="201.54647058747966,131.39751348736166 208.57582180624905,196.94949825292397 " opacity="0.5" stroke="blue"/><polygon points="204.40358745938005,132.4820564304988 206.90473733921047,197.68926360970167 " opacity="0.5" stroke="blue"/><polygon points="207.28007582500464,133.86561207293738 205.20221255902138,198.36209523285717 " opacity="0.5" stroke="blue"/><polygon points="210.16263276479498,135.54747381818157 203.47768118287848,198.96928004306886 " opacity="0.5" stroke="blue"/><polygon points="213.037431211081,137.52516023317017 201.7405318769,199.51374567383397 " opacity="0.5" stroke="blue"/><polygon points="215.8902049091073,139.79432749925354 200.0,200.0 " opacity="0.5" stroke="blue"/><polygon points="218.70634629017127,142.34869929408978 198.26506552098508,200.43405455187968 " opacity="0.5" stroke="blue"/><polygon points="221.47101656712908,145.180017114848 196.54435751120383,200.82333333462267 " opacity="0.5" stroke="blue"/><polygon points="224.1692669734324,148.2780138222265 194.84606539227758,201.17656840413466 " opacity="0.5" stroke="blue"/><polygon points="226.78616967152678,151.6304128352954 193.1778569382753,201.50368333916168 " opacity="0.5" stroke="blue"/><polygon points="229.30695647084332,155.22295493980602 191.54680289874358,201.8156655129323 " opacity="0.5" stroke="blue"/><polygon points="231.71716313723556,159.03945409433595 189.95930802564058,202.12442782589855 " opacity="0.5" stroke="blue"/><polygon points="234.00277676264645,163.06188294305758 188.42104825382523,202.44266033227518 " opacity="0.5" stroke="blue"/><polygon points="236.1503834136794,167.27048799119765 186.93691379993734,202.7836719951862 " opacity="0.5" stroke="blue"/><polygon points="238.1473131065917,171.64393359558187 185.5109580053322,203.16122265524757 " opacity="0.5" stroke="blue"/><polygon points="239.98177907723647,176.15947309917874 184.1463518508381,203.58934521103694 " opacity="0.5" stroke="blue"/><polygon points="241.64300833693997,180.79314462981705 182.84534420879936,204.08215800125456 " opacity="0.5" stroke="blue"/><polygon points="243.12136063372424,185.51998832525513 181.6092280641467,204.65366745962746 " opacity="0.5" stroke="blue"/><polygon points="244.40843317177905,190.31428107480303 180.43831312275017,205.31756129446225 " opacity="0.5" stroke="blue"/><polygon points="245.4971487741418,195.1497843139535 179.33190542232634,206.086992731744 " opacity="0.5" stroke="blue"/><polygon points="246.3818255922004,200.0 178.28829475751243,206.97435675636552 " opacity="0.5" stroke="blue"/><polygon points="247.05822695408472,204.83842965332474 177.30475091379927,207.99105978798212 " opacity="0.5" stroke="blue"/><polygon points="247.5235904815792,209.63883128239476 176.3775298609442,209.14728482756112 " opacity="0.5" stroke="blue"/><polygon points="247.7766361685878,214.37546912269883 175.50189117036723,210.4517547921512 " opacity="0.5" stroke="blue"/><polygon points="247.81755367900047,219.02335140373847 174.67212797744847,211.9114974947977 " opacity="0.5" stroke="blue"/><polygon points="247.6479696640469,223.5584517978439 173.88161079339275,213.53161649111843 " opacity="0.5" stroke="blue"/><polygon points="247.27089639674722,227.9579107765514 173.12284636842236,215.31507276215666 " opacity="0.5" stroke="blue"/><polygon points="246.69066345491103,232.2002137752911 172.3875526069946,217.2624828847822 " opacity="0.5" stroke="blue"/><polygon points="245.91283453950052,236.26534381214606 171.66675022891383,219.3719398994774 " opacity="0.5" stroke="blue"/><polygon points="244.94411178204058,240.13490698686905 170.95087145547336,221.6388634601936 " opacity="0.5" stroke="blue"/><polygon points="243.79223006820632,243.79223006820632 170.22988548189625,224.05588598137572 " opacity="0.5" stroke="blue"/><polygon points="242.4658439847522,247.22243012944736 169.49343988926395,226.61278132733122 " opacity="0.5" stroke="blue"/><polygon points="240.97440998810745,250.4124568867397 168.73101647263172,229.29644207358385 " opacity="0.5" stroke="blue"/><polygon points="239.32806630358846,253.35110901011456 167.93209924784514,232.0909104801097 " opacity="0.5" stroke="blue"/><polygon points="237.53751290555599,256.02902619739416 167.08635168647237,234.97746704634164 " opacity="0.5" stroke="blue"/><polygon points="235.6138937142115,258.43865921640554 166.1837995612036,237.93477888874042 " opacity="0.5" stroke="blue"/><polygon points="233.56868288833203,260.57422042737073 165.21501521129758,240.9391082448734 " opacity="0.5" stroke="blue"/><polygon points="231.4135768094141,262.43161749652654 164.17129860695428,243.96457924495041 " opacity="0.5" stroke="blue"/><polygon points="229.16039305509958,264.00837311003306 163.044850345837,246.98349881164253 " opacity="0.5" stroke="blue"/><polygon points="226.82097736073814,265.30353350371774 161.82893168805168,249.96672528183495 " opacity="0.5" stroke="blue"/><polygon points="224.40711927814306,266.31756855133676 160.51800694804257,252.88407623152258 " opacity="0.5" stroke="blue"/><polygon points="221.93047696863752,267.05226601549214 159.10786401692954,255.70476516915403 " opacity="0.5" stroke="blue"/><polygon points="219.4025113199246,267.51062237538025 157.59570947248602,258.39785537237293 " opacity="0.5" stroke="blue"/><polygon points="216.8344293576256,267.69673241817236 155.9802356139002,260.93271828204865 " opacity="0.5" stroke="blue"/><polygon points="214.23713673511318,267.6156795292413 154.26165778636954,263.27948360369095 " opacity="0.5" stroke="blue"/><polygon points="211.621198930427,267.27342835249414 152.44172147597249,265.40946862473754 " opacity="0.5" stroke="blue"/><polygon points="208.99681065609906,266.6767212260023 150.52367979069993,267.29557521585565 " opacity="0.5" stroke="blue"/><polygon points="206.3737728950305,265.83297953841486 148.51224303055653,268.9126444803137 " opacity="0.5" stroke="blue"/><polygon points="203.7614769107069,264.7502109049676 146.41350302478943,270.2377609450816 " opacity="0.5" stroke="blue"/><polygon points="201.1688945400208,263.43692283321684 144.23483572441592,271.2505004204708 " opacity="0.5" stroke="blue"/><polygon points="198.60457405848499,261.90204334127264 141.9847861445444,271.933118046605 " opacity="0.5" stroke="blue"/><polygon points="196.07664090723068,260.1548488072459 139.67294013149686,272.2706754476978 " opacity="0.5" stroke="blue"/><polygon points="193.59280258552474,258.2048991686027 137.30978757976627,272.25110819242553 " opacity="0.5" stroke="blue"/><polygon points="191.16035703840046,256.06198045393154 134.90658165480576,271.86523679482315 " opacity="0.5" stroke="blue"/><polygon points="188.78620390343124,253.73605451629038 132.47519831451757,271.1067261973452 " opacity="0.5" stroke="blue"/><polygon points="186.47685802106588,251.23721574529037 130.02800000000002,269.972 " opacity="0.5" stroke="blue"/><polygon points="184.2384646569954,248.5756544624553 127.57770682545267,268.4601166128209 " opacity="0.5" stroke="blue"/><polygon points="182.0768159308154,245.7616266490313 125.1372779809161,266.57261501879657 " opacity="0.5" stroke="blue"/><polygon points="179.99736799119808,242.8054296150388 122.71980541089891,264.31333797070636 " opacity="0.5" stroke="blue"/><polygon points="178.00525852263127,239.71738319068493 120.33842118367494,261.68824025635934 " opacity="0.5" stroke="blue"/><polygon points="176.1053242115701,236.5078160040842 118.00621935052916,258.7051892124875 " opacity="0.5" stroke="blue"/><polygon points="174.30211783986812,233.18705640047267 115.73619253449273,255.37376401320043 " opacity="0.5" stroke="blue"/><polygon points="172.5999247101634,229.76542755581247 113.54118299952154,251.70505946942893 " opacity="0.5" stroke="blue"/><polygon points="171.0027781412153,226.25324634011682 111.43384754180529,247.71149921139676 " opacity="0.5" stroke="blue"/><polygon points="169.51447380093134,222.66082549140393 109.42663521678367,243.40666223933496 " opacity="0.5" stroke="blue"/><polygon points="168.13858267103836,218.99847866854617 107.53177666519532,238.80512596121372 " opacity="0.5" stroke="blue"/><polygon points="166.87846246019126,215.27652795921756 105.76128362189179,233.92232802270829 " opacity="0.5" stroke="blue"/><polygon points="165.73726730204828,211.50531342665923 104.12695707243064,228.77444849629833 " opacity="0.5" stroke="blue"/><polygon points="164.7179555917953,207.6952042852382 102.64040245332005,223.3783133463374 " opacity="0.5" stroke="blue"/><polygon points="163.82329582918484,203.85661129909042 101.3130502604327,217.75131953007687 " opacity="0.5" stroke="blue"/><polygon points="163.05587034881864,200.0 100.15618042497405,211.9113816292953 " opacity="0.5" stroke="blue"/><polygon points="162.41807682964856,196.1359043196884 99.18094882671578,205.87689952646085 " opacity="0.5" stroke="blue"/><polygon points="161.91212748604352,192.27494022763932 98.39841433042511,199.66674633256167 " opacity="0.5" stroke="blue"/><polygon points="161.54004585285284,188.4278189583754 97.81956474538424,193.30027552752233 " opacity="0.5" stroke="blue"/><polygon points="161.3036610872989,184.6053594017765 97.45534011303101,186.79734607355257 " opacity="0.5" stroke="blue"/><polygon points="161.20459972191009,180.81849921678668 97.31665171911703,180.17836409103097 " opacity="0.5" stroke="blue"/><polygon points="161.2442748157278,177.07830421305508 97.41439520111668,173.4643395295902 " opacity="0.5" stroke="blue"/><polygon points="161.42387246639555,173.39597552721634 97.75945607739405,166.67695610809244 " opacity="0.5" stroke="blue"/><polygon points="161.74433566417898,169.78285410135132 98.36270596210312,159.8386526208461 " opacity="0.5" stroke="blue"/><polygon points="162.20634549120422,166.2504219515913 99.2349876511565,152.97271349923585 " opacity="0.5" stroke="blue"/><polygon points="162.81029969595807,162.81029969595807 100.38708717415857,146.1033662644724 " opacity="0.5" stroke="blue"/><polygon points="163.5562887050692,159.4742397937375 101.82969081165385,139.2558831964638 " opacity="0.5" stroke="blue"/><polygon points="164.44406917223284,156.2541149355668 103.57332498581823,132.45668416577317 " opacity="0.5" stroke="blue"/><polygon points="165.47303520843144,153.16190101583294 105.62827685835138,125.73343712273558 " opacity="0.5" stroke="blue"/><polygon points="166.64218748878915,150.2096541190463 108.00449342788976,119.1151522059978 " opacity="0.5" stroke="blue"/><polygon points="167.950100489783,147.409480961914 110.71145693077638,112.63226482257103 " opacity="0.5" stroke="blue"/><polygon points="169.39488817618985,144.77350225545513 113.75803443776611,106.3167023696886 " opacity="0.5" stroke="blue"/><polygon points="170.97416852988496,142.3138084893981 117.15229973388863,100.2019285300586 " opacity="0.5" stroke="blue"/><polygon points="172.6850273918908,140.04240769709293 120.90132590208908,94.32295830139492 " opacity="0.5" stroke="blue"/><polygon points="174.5239821739533,137.9711648360765 125.0109475397976,88.71633615585499 " opacity="0.5" stroke="blue"/><polygon points="176.48694608498442,136.1117325199159 129.48549225976305,83.42006901758907 " opacity="0.5" stroke="blue"/><polygon points="178.56919360898755,134.47547296341568 134.32748210070116,78.47350516657059 " opacity="0.5" stroke="blue"/><polygon points="180.76532806202408,133.07337115760225 139.5373067343677,73.91714981239753 " opacity="0.5" stroke="blue"/><polygon points="183.06925214321126,131.915939474278 145.11287193006095,69.79240803991945 " opacity="0.5" stroke="blue"/><polygon points="185.4741424748406,131.01311411259763 151.0492286372214,66.14124623368437 " opacity="0.5" stroke="blue"/><polygon points="187.97242919506843,130.37414404105868 157.33819026156388,63.005764077351245 " opacity="0.5" stroke="blue"/><polygon points="190.55578171829632,130.0074733550398 163.96794819904676,60.42767093897626 " opacity="0.5" stroke="blue"/><polygon points="193.2151018079798,129.92061825833932 170.92269837411575,58.44766302693861 " opacity="0.5" stroke="blue"/><polygon points="195.94052510861482,130.1200401809162 178.18229427497837,57.10470124192014 " opacity="0.5" stroke="blue"/><polygon points="198.72143225250872,130.61101685597703 185.72194460587173,56.435194217328586 " opacity="0.5" stroke="blue"/><polygon points="201.54647058747963,131.39751348736166 193.51197594532715,56.47209661886521 " opacity="0.5" stroke="blue"/><polygon points="204.40358745938008,132.48205643049886 201.51768242074695,57.24393924640651 " opacity="0.5" stroke="blue"/><polygon points="207.28007582500467,133.86561207293738 209.69928505773714,58.77381460309033 " opacity="0.5" stroke="blue"/><polygon points="210.16263276479498,135.5474738181816 218.0120228018132,61.07834897695014 " opacity="0.5" stroke="blue"/><polygon points="213.037431211081,137.52516023317017 226.40639493149405,64.16669917930446 " opacity="0.5" stroke="blue"/><polygon points="215.8902049091073,139.79432749925354 234.82857045108014,68.03961822763506 " opacity="0.5" stroke="blue"/></svg>
