<?xml version="1.0" encoding="UTF-8"?>
<!DOCTYPE svg PUBLIC "-//W3C//DTD SVG 1.1//EN"
    "http://www.w3.org/Graphics/SVG/1.1/DTD/svg11.dtd"><svg width="400" height="400" stroke="black" fill="none" fill-opacity="0.75" font-style="italic" font-family="CMU Serif, sans-serif" xmlns="http://www.w3.org/2000/svg" xmlns:xlink="http://www.w3.org/1999/xlink" version="1.1"><filter id="blur"><feGaussianBlur stdDeviation="2"/></filter><rect width="100%" height="100%" fill="white" stroke="none" fill-opacity="1"/><polygon points="228.9926207571179,151.73591798216478 266.43441467474054,91.51123416302669 " opacity="0.5" stroke="blue"/><polygon points="232.1518580307759,155.15117962444825 275.1951955231096,98.34920157743927 " opacity="0.5" stroke="blue"/><polygon points="235.18530138315754,158.77969505953703 283.5660976872062,105.7473364231716 " opacity="0.5" stroke="blue"/><polygon points="238.0761377382412,162.60375376038002 291.4807499641314,113.63933804016057 " opacity="0.5" stroke="blue"/><polygon points="240.80831667611955,166.60415438770121 298.8781115781388,121.9521217759603 " opacity="0.5" stroke="blue"/><polygon points="243.36670962659213,170.76035755241008 305.70370240996584,130.60718009188918 " opacity="0.5" stroke="blue"/><polygon points="245.73725980628973,175.05065919932667 311.9106541044739,139.52210591507537 " opacity="0.5" stroke="blue"/><polygon points="247.9071199005852,179.4523817379371 317.4605402317452,148.6122179179029 " opacity="0.5" stroke="blue"/><polygon points="249.86477475021556,183.94207954555992 322.3239556309975,157.7922224719382 " opacity="0.5" stroke="blue"/><polygon points="251.60014665452832,188.49575507043627 326.4808288298767,166.9778465588828 " opacity="0.5" stroke="blue"/><polygon points="253.10468133543938,193.08908148427597 329.920465810338,176.08737984211044 " opacity="0.5" stroke="blue"/><polygon points="254.3714131013285,197.69762768735694 332.64133717878997,185.04307188823773 " opacity="0.5" stroke="blue"/><polygon points="255.39500828792137,202.29708145954945 334.65063291467425,193.77234130712202 " opacity="0.5" stroke="blue"/><polygon points="256.1717866115536,206.86346667605454 335.9636184863841,202.20876625542715 " opacity="0.5" stroke="blue"/><polygon points="256.6997206263892,211.37335075909309 336.6028327229608,210.29283915124168 " opacity="0.5" stroke="blue"/><polygon points="256.97841400926734,215.8040389022677 336.59717124125496,217.9724814665747 " opacity="0.5" stroke="blue"/><polygon points="257.0090598839825,220.13375206398982 335.98089959329235,225.2033261698196 " opacity="0.5" stroke="blue"/><polygon points="256.79438082412895,224.34178625781288 334.79263801302756,231.9487851023275 " opacity="0.5" stroke="blue"/><polygon points="256.3385525271492,228.4086512462507 333.07435527159987,238.17992589546594 " opacity="0.5" stroke="blue"/><polygon points="255.64711342319418,232.31618734561965 330.87040334354475,243.8751878435274 " opacity="0.5" stroke="blue"/><polygon points="254.7268626665735,236.0476596484096 328.22661799213165,249.01996855333732 " opacity="0.5" stroke="blue"/><polygon points="253.585749054961,239.58782954454728 325.1895035862699,253.60611347785283 " opacity="0.5" stroke="blue"/><polygon points="252.23275343606429,242.92300395464252 321.80551394532836,257.6313390025263 " opacity="0.5" stroke="blue"/><polygon points="250.67776710035685,246.0410631616696 318.12043512695953,261.0986170319089 " opacity="0.5" stroke="blue"/><polygon points="248.9314685314685,248.9314685314685 314.17887105387473,264.01554545869146 " opacity="0.5" stroke="blue"/><polygon points="247.00520070440422,251.58525174012573 310.0238288294362,266.39372488587367 " opacity="0.5" stroke="blue"/><polygon points="244.9108508983338,253.99498737494744 305.69639753392573,268.24815784822994 " opacity="0.5" stroke="blue"/><polygon points="242.66073473785292,256.15475094625924 301.2355121664965,269.59668279978825 " opacity="0.5" stroke="blue"/><polygon points="240.26748590648936,258.0600644436293 296.6777930973254,270.459451482134 " opacity="0.5" stroke="blue"/><polygon points="237.74395269996057,259.70783159875793 292.0574507891613,270.8584550775399 " opacity="0.5" stroke="blue"/><polygon points="235.1031023140475,261.0962649863909 287.406245497103,270.8171018366603 " opacity="0.5" stroke="blue"/><polygon points="232.35793350109998,262.22480701349775 282.7534920237619,270.35984666277113 " opacity="0.5" stroke="blue"/><polygon points="229.5213979865642,263.0940467253869 278.12610027020344,269.5118714103028 " opacity="0.5" stroke="blue"/><polygon points="226.60633081724546,263.705634205152 273.54864317489626,268.2988133700978 " opacity="0.5" stroke="blue"/><polygon points="223.62538961936357,264.06219416913416 269.0434445863806,266.74653851065756 " opacity="0.5" stroke="blue"/><polygon points="220.5910025784424,264.1672401744243 264.6306806028266,264.88095546207086 " opacity="0.5" stroke="blue"/><polygon points="217.51532481502898,264.025090662306 260.3284888831432,262.72786590638333 " opacity="0.5" stroke="blue"/><polygon points="214.410202719454,263.64078787027523 256.1530813552973,260.3128469181116 " opacity="0.5" stroke="blue"/><polygon points="211.28714572379064,263.0200204600502 252.11885659629655,257.6611608310055 " opacity="0.5" stroke="blue"/><polygon points="208.15730492771954,262.1690505337799 248.23850892331222,254.79768834900062 " opacity="0.5" stroke="blue"/><polygon points="205.0314579546384,261.09464554839695 244.5231319128173,251.74688083517552 " opacity="0.5" stroke="blue"/><polygon points="201.91999939232844,259.8040154906493 240.9823146561273,248.53272797435005 " opacity="0.5" stroke="blue"/><polygon points="198.8329361659985,258.30475554385185 237.6242295708398,245.17873729133663 " opacity="0.5" stroke="blue"/><polygon points="195.7798871978088,256.6047943621505 234.45571102622586,241.70792230226445 " opacity="0.5" stroke="blue"/><polygon points="192.7700867234205,254.7123479688431 231.48232441564812,238.14279637034684 " opacity="0.5" stroke="blue"/><polygon points="189.81239066030224,252.63587921132242 228.70842562993994,234.5053696236202 " opacity="0.5" stroke="blue"/><polygon points="186.9152854522949,250.38406263546267 226.13721116143526,230.81714656760604 " opacity="0.5" stroke="blue"/><polygon points="184.0868988483868,247.96575458545 223.77075930729526,227.09912229025116 " opacity="0.5" stroke="blue"/><polygon points="181.3350121091754,245.38996828974444 221.61006315015038,223.37177541161304 " opacity="0.5" stroke="blue"/><polygon points="178.66707317073173,242.6658536585366 219.6550561797753,219.6550561797753 " opacity="0.5" stroke="blue"/><polygon points="176.09021033146863,239.80268149121616 217.9046315860024,215.9683683615298 " opacity="0.5" stroke="blue"/><polygon points="173.61124606229214,236.80983177252267 216.35665640327667,212.33054382606196 " opacity="0.5" stroke="blue"/><polygon points="171.23671057317037,233.69678572178574 215.00798182251145,208.75980897687182 " opacity="0.5" stroke="blue"/><polygon points="168.97285479986618,230.47312124967232 213.85445110600236,205.27374245574023 " opacity="0.5" stroke="blue"/><polygon points="166.82566250269463,227.14851146993334 212.89090664435372,201.88922382617767 " opacity="0.5" stroke="blue"/><polygon points="164.80086119469894,223.73272590869988 212.11119777753692,198.62237324478767 " opacity="0.5" stroke="blue"/><polygon points="162.90393163962597,220.23563404996048 211.5081910609387,195.4884824480479 " opacity="0.5" stroke="blue"/><polygon points="161.14011568068327,216.66721085212828 211.07378468620715,192.50193771796498 " opacity="0.5" stroke="blue"/><polygon points="159.51442217954047,213.03754386637777 210.7989287598051,189.67613583944922 " opacity="0.5" stroke="blue"/><polygon points="158.0316308617419,209.3568415821255 210.67365309313655,187.0233944191881 " opacity="0.5" stroke="blue"/><polygon points="156.69629388006493,205.6354426182012 210.68710406084045,184.55485829179756 " opacity="0.5" stroke="blue"/><polygon points="155.51273492188488,201.88382536959594 210.82759193308405,182.28040408309823 " opacity="0.5" stroke="blue"/><polygon points="154.48504570086772,198.11261770899355 211.08264987958293,180.20854531917934 " opacity="0.5" stroke="blue"/><polygon points="153.61707968792783,194.3326063295533 211.4391055758459,178.3463407482875 " opacity="0.5" stroke="blue"/><polygon points="152.91244295204467,190.5547453007035 211.88316601667654,176.69930876411044 " opacity="0.5" stroke="blue"/><polygon points="152.37448199895505,186.79016339228497 212.4005157623461,175.27135096699044 " opacity="0.5" stroke="blue"/><polygon points="152.00626851569422,183.05016970465414 212.97642841675014,174.06468795806057 " opacity="0.5" stroke="blue"/><polygon points="151.81058095225032,179.34625712390647 213.59589067568072,173.0798104163025 " opacity="0.5" stroke="blue"/><polygon points="151.7898828990288,175.69010310297898 214.24373780214236,172.3154483494715 " opacity="0.5" stroke="blue"/><polygon points="151.9462982512219,172.09356725201175 214.90479890269947,171.76856113069678 " opacity="0.5" stroke="blue"/><polygon points="152.28158318932154,168.56868520616075 215.56404991494898,171.4343505330209 " opacity="0.5" stroke="blue"/><polygon points="152.79709504965484,165.12765822746806 216.20677179359024,171.30629846039855 " opacity="0.5" stroke="blue"/><polygon points="153.49375821060474,161.78283799100853 216.81871102356453,171.37623045887074 " opacity="0.5" stroke="blue"/><polygon points="154.3720271796394,158.54670600618522 217.38623931433338,171.6344053957487 " opacity="0.5" stroke="blue"/><polygon points="155.43184713375797,155.43184713375797 217.89650915759677,172.06963094384588 " opacity="0.5" stroke="blue"/><polygon points="156.67261224158204,152.4509166801491 218.33760187523308,172.6694037332079 " opacity="0.5" stroke="blue"/><polygon points="158.0931221789019,149.61660058510256 218.6986648529007,173.4200722687473 " opacity="0.5" stroke="blue"/><polygon points="159.6915373404689,146.94156826923705 218.97003484891962,174.3070199941254 " opacity="0.5" stroke="blue"/><polygon points="161.46533334822726,144.43841777678153 219.14334458207702,175.31486524430855 " opacity="0.5" stroke="blue"/><polygon points="163.41125555850033,142.1196129380129 219.21161022329807,176.427674302014 " opacity="0.5" stroke="blue"/><polygon points="165.52527437582944,139.99741238754967 219.16929792588644,177.62918338151633 " opacity="0.5" stroke="blue"/><polygon points="167.80254228651108,138.08379041019427 219.0123681033998,178.9030251242499 " opacity="0.5" stroke="blue"/><polygon points="170.2373536270661,136.3903497463196 218.7382967758489,180.23295511284695 " opacity="0.5" stroke="blue"/><polygon points="172.82310819788984,134.9282266739301 218.3460739248479,181.60307399304517 " opacity="0.5" stroke="blue"/><polygon points="175.55227991556666,133.70798889352682 217.83617939797156,182.99804102667824 " opacity="0.5" stroke="blue"/><polygon points="178.4163917636148,132.73952697258233 217.21053745548292,184.40327526610423 " opacity="0.5" stroke="blue"/><polygon points="181.40599834516587,132.03194035520642 216.47245153617467,185.80514101676448 " opacity="0.5" stroke="blue"/><polygon points="184.51067735647564,131.59341920429745 215.62652121580118,187.19111481132296 " opacity="0.5" stroke="blue"/><polygon points="187.71903128140568,131.43112361137037 214.67854362979568,188.54993172473922 " opacity="0.5" stroke="blue"/><polygon points="191.01870054865913,131.55106197488772 213.63540182617325,189.87170948307295 " opacity="0.5" stroke="blue"/><polygon points="194.39638929083372,131.9579706013222 212.50494260521737,191.14804942985944 " opacity="0.5" stroke="blue"/><polygon points="197.83790469361273,132.65519681303834 211.2958463956686,192.37211398593396 " opacity="0.5" stroke="blue"/><polygon points="201.32821072252472,133.64458804107906 210.0174916231509,193.53868074964953 " opacity="0.5" stroke="blue"/><polygon points="204.85149676347078,134.9263895262913 208.67981585942226,194.64417381800382 " opacity="0.5" stroke="blue"/><polygon points="208.39126141378213,136.49915333623764 207.29317581694127,195.68667325455624 " opacity="0.5" stroke="blue"/><polygon points="211.93041131767092,138.35966141621282 205.8682079895514,196.665903882228 " opacity="0.5" stroke="blue"/><polygon points="215.45137456109765,140.50286532029236 204.41569145423864,197.583204738562 " opacity="0.5" stroke="blue"/><polygon points="218.93622773663935,142.92184510510967 202.94641405753592,198.44148060293526 " opacity="0.5" stroke="blue"/><polygon points="222.36683537184282,145.60778961078512 201.4710429283586,199.2451369986543 " opacity="0.5" stroke="blue"/><polygon points="225.725,148.55 200.0,200.0 " opacity="0.5" stroke="blue"/><polygon points="228.9926207571179,151.73591798216478 198.54334299855591,200.71322204951608 " opacity="0.5" stroke="blue"/><polygon points="232.1518580307759,155.15117962444825 197.110652171646,201.3931748299902 " opacity="0.5" stroke="blue"/><polygon points="235.1853013831575,158.779695059537 195.7109228960101,202.04933005524805 " opacity="0.5" stroke="blue"/><polygon points="238.0761377382412,162.60375376038002 194.3524642191216,202.69212886082533 " opacity="0.5" stroke="blue"/><polygon points="240.80831667611952,166.60415438770121 193.04280335992087,203.332840306261 " opacity="0.5" stroke="blue"/><polygon points="243.36670962659213,170.7603575524101 191.78859621662036,203.98340936093183 " opacity="0.5" stroke="blue"/><polygon points="245.73725980628973,175.05065919932667 190.59554400281638,204.65629464974367 " opacity="0.5" stroke="blue"/><polygon points="247.9071199005852,179.45238173793706 189.46831625252105,205.36429619695463 " opacity="0.5" stroke="blue"/><polygon points="249.86477475021556,183.94207954555992 188.41048059403116,206.12037343751797 " opacity="0.5" stroke="blue"/><polygon points="251.60014665452832,188.49575507043625 187.42443988372042,206.9374538750065 " opacity="0.5" stroke="blue"/><polygon points="253.10468133543938,193.089081484276 186.5113775039324,207.82823296009448 " opacity="0.5" stroke="blue"/><polygon points="254.3714131013285,197.69762768735694 185.6712118522815,208.80496604706192 " opacity="0.5" stroke="blue"/><polygon points="255.39500828792137,202.29708145954947 184.9025612690503,209.8792536571021 " opacity="0.5" stroke="blue"/><polygon points="256.1717866115536,206.86346667605457 184.2027208494426,211.06182173074944 " opacity="0.5" stroke="blue"/><polygon points="256.6997206263892,211.37335075909309 183.56765275114964,212.3622990762734 " opacity="0.5" stroke="blue"/><polygon points="256.97841400926734,215.80403890226773 182.99199171694718,213.78899479887895 " opacity="0.5" stroke="blue"/><polygon points="257.00905988398245,220.1337520639898 182.46906756852792,215.34867910276517 " opacity="0.5" stroke="blue"/><polygon points="256.79438082412895,224.34178625781288 181.99094637389055,217.0463714634721 " opacity="0.5" stroke="blue"/><polygon points="256.3385525271492,228.4086512462507 181.54849183079483,218.88514073409405 " opacity="0.5" stroke="blue"/><polygon points="255.64711342319424,232.31618734561962 181.1314481310009,220.86592223322697 " opacity="0.5" stroke="blue"/><polygon points="254.72686266657354,236.0476596484096 180.7285451673988,222.98735721893445 " opacity="0.5" stroke="blue"/><polygon points="253.585749054961,239.58782954454728 180.32762641865295,225.24566033486366 " opacity="0.5" stroke="blue"/><polygon points="252.23275343606429,242.92300395464255 179.91579920191438,227.6345205779233 " opacity="0.5" stroke="blue"/><polygon points="250.67776710035685,246.0410631616696 179.47960624112216,230.14504104438006 " opacity="0.5" stroke="blue"/><polygon points="248.9314685314685,248.9314685314685 179.00521668389118,232.7657221365985 " opacity="0.5" stroke="blue"/><polygon points="247.00520070440422,251.58525174012573 178.47863385089275,235.48249204489454 " opacity="0.5" stroke="blue"/><polygon points="244.9108508983338,253.9949873749474 177.88591616299672,238.27878716586645 " opacity="0.5" stroke="blue"/><polygon points="242.66073473785292,256.15475094625924 177.21340691400349,241.1356837090774 " opacity="0.5" stroke="blue"/><polygon points="240.26748590648938,258.0600644436293 176.44796789363286,244.03208012907513 " opacity="0.5" stroke="blue"/><polygon points="237.74395269996057,259.70783159875793 175.57721136787606,246.94492827114595 " opacity="0.5" stroke="blue"/><polygon points="235.1031023140476,261.0962649863909 174.58972463685527,249.8495093258383 " opacity="0.5" stroke="blue"/><polygon points="232.35793350109995,262.22480701349775 173.47528134820698,252.7197489496457 " opacity="0.5" stroke="blue"/><polygon points="229.52139798656418,263.0940467253869 172.22503396624322,255.52856433194123 " opacity="0.5" stroke="blue"/><polygon points="226.60633081724546,263.705634205152 170.83168228583224,258.24823467155403 " opacity="0.5" stroke="blue"/><polygon points="223.6253896193636,264.06219416913416 169.28961361839518,260.85078555737374 " opacity="0.5" stroke="blue"/><polygon points="220.59100257844244,264.1672401744243 167.59501123073343,263.308377192095 " opacity="0.5" stroke="blue"/><polygon points="217.51532481502895,264.025090662306 165.74592873477252,265.5936862953602 " opacity="0.5" stroke="blue"/><polygon points="214.410202719454,263.64078787027523 163.74232934498446,267.68027187982204 " opacity="0.5" stroke="blue"/><polygon points="211.28714572379067,263.0200204600502 161.5860901707007,269.54291588698914 " opacity="0.5" stroke="blue"/><polygon points="208.1573049277196,262.1690505337799 159.2809729222399,271.1579308457467 " opacity="0.5" stroke="blue"/><polygon points="205.03145795463843,261.09464554839695 156.83256351699856,272.5034281975594 " opacity="0.5" stroke="blue"/><polygon points="201.9199993923284,259.80401549064936 154.24818401849615,273.55954262399274 " opacity="0.5" stroke="blue"/><polygon points="198.83293616599846,258.30475554385185 151.53678108568553,274.3086095112604 " opacity="0.5" stroke="blue"/><polygon points="195.7798871978088,256.6047943621505 148.70879562557886,274.73529449012653 " opacity="0.5" stroke="blue"/><polygon points="192.77008672342052,254.7123479688431 145.77601862013256,274.8266757029128 " opacity="0.5" stroke="blue"/><polygon points="189.81239066030233,252.63587921132245 142.75143814497616,274.5722809924181 " opacity="0.5" stroke="blue"/><polygon points="186.91528545229488,250.38406263546267 139.6490824332252,273.96408351916136 " opacity="0.5" stroke="blue"/><polygon points="184.0868988483868,247.96575458544996 136.48386349304297,272.996460353702 " opacity="0.5" stroke="blue"/><polygon points="181.3350121091754,245.38996828974444 133.27142530045626,271.66611934148426 " opacity="0.5" stroke="blue"/><polygon points="178.66707317073173,242.6658536585366 130.02800000000002,269.972 " opacity="0.5" stroke="blue"/><polygon points="176.09021033146868,239.80268149121622 126.77027489567662,267.9151543999528 " opacity="0.5" stroke="blue"/><polygon points="173.61124606229214,236.80983177252264 123.51527234108568,265.49861393410004 " opacity="0.5" stroke="blue"/><polygon points="171.23671057317037,233.69678572178574 120.2802439729252,262.7272476285193 " opacity="0.5" stroke="blue"/><polygon points="168.97285479986618,230.47312124967235 117.0825801025319,259.607617244427 " opacity="0.5" stroke="blue"/><polygon points="166.82566250269463,227.1485114699334 113.9397345049271,256.14783389823845 " opacity="0.5" stroke="blue"/><polygon points="164.80086119469897,223.73272590869996 110.8691643362788,252.35742033476745 " opacity="0.5" stroke="blue"/><polygon points="162.90393163962597,220.23563404996048 107.88828447480464,248.2471823602339 " opacity="0.5" stroke="blue"/><polygon points="161.14011568068327,216.66721085212825 105.01443521747585,243.82909230898937 " opacity="0.5" stroke="blue"/><polygon points="159.51442217954047,213.03754386637777 102.26486197164186,239.1161868047814 " opacity="0.5" stroke="blue"/><polygon points="158.03163086174192,209.35684158212553 99.65670534982036,234.1224805013576 " opacity="0.5" stroke="blue"/><polygon points="156.69629388006496,205.6354426182013 97.20699989816215,228.86289695913018 " opacity="0.5" stroke="blue"/><polygon points="155.51273492188488,201.8838253695959 94.93267955411476,223.35321733952028 " opacity="0.5" stroke="blue"/><polygon points="154.48504570086774,198.11261770899355 92.85058782582998,217.610047176452 " opacity="0.5" stroke="blue"/><polygon points="153.61707968792783,194.33260632955333 90.9774906045318,211.65080111106414 " opacity="0.5" stroke="blue"/><polygon points="152.91244295204467,190.55474530070353 89.33008945194227,205.4937051435795 " opacity="0.5" stroke="blue"/><polygon points="152.374481998955,186.79016339228488 87.9250331398802,199.1578156554277 " opacity="0.5" stroke="blue"/><polygon points="152.00626851569425,183.05016970465408 86.7789251519624,192.6630541734621 " opacity="0.5" stroke="blue"/><polygon points="151.81058095225032,179.3462571239064 85.90832478361709,186.03025657361695 " opacity="0.5" stroke="blue"/><polygon points="151.7898828990288,175.690103102979 85.32973939434238,179.28123514030185 " opacity="0.5" stroke="blue"/><polygon points="151.9462982512219,172.09356725201175 85.05960527584584,172.4388515968829 " opacity="0.5" stroke="blue"/><polygon points="152.28158318932154,168.56868520616064 85.11425450482291,165.5270988889976 " opacity="0.5" stroke="blue"/><polygon points="152.79709504965484,165.12765822746803 85.50986505630927,158.57118912452316 " opacity="0.5" stroke="blue"/><polygon points="153.49375821060474,161.78283799100853 86.2623913730418,151.59764464189385 " opacity="0.5" stroke="blue"/><polygon points="154.3720271796394,158.54670600618525 87.38747253234531,144.6343886849171 " opacity="0.5" stroke="blue"/><polygon points="155.43184713375797,155.43184713375797 88.90031514340426,137.710831603617 " opacity="0.5" stroke="blue"/><polygon points="156.67261224158207,152.45091668014902 90.81554816778284,130.85794787825446 " opacity="0.5" stroke="blue"/><polygon points="158.09312217890192,149.61660058510253 93.14704701303556,124.10833858520115 " opacity="0.5" stroke="blue"/><polygon points="159.69153734046893,146.941568269237 95.90772453630944,117.49627320465294 " opacity="0.5" stroke="blue"/><polygon points="161.46533334822723,144.43841777678153 99.10928704936104,111.05770393726392 " opacity="0.5" stroke="blue"/><polygon points="163.41125555850033,142.11961293801292 102.76195407891254,104.8302449878452 " opacity="0.5" stroke="blue"/><polygon points="165.52527437582947,139.99741238754962 106.87414154843185,98.85310864161991 " opacity="0.5" stroke="blue"/><polygon points="167.80254228651108,138.08379041019424 111.45210924906847,93.1669894701008 " opacity="0.5" stroke="blue"/><polygon points="170.23735362706617,136.39034974631954 116.49957499234993,87.8138877437492 " opacity="0.5" stroke="blue"/><polygon points="172.82310819788984,134.9282266739301 122.01729970731576,82.83686319719901 " opacity="0.5" stroke="blue"/><polygon points="175.55227991556666,133.70798889352682 128.00264996324893,78.27971080301946 " opacity="0.5" stroke="blue"/><polygon points="178.41639176361483,132.73952697258233 134.44914694227188,74.18655128260177 " opacity="0.5" stroke="blue"/><polygon points="181.4059983451659,132.03194035520642 141.34601369413056,70.60133083774895 " opacity="0.5" stroke="blue"/><polygon points="184.51067735647567,131.59341920429742 148.6777354742494,67.56722713060324 " opacity="0.5" stroke="blue"/><polygon points="187.71903128140568,131.43112361137037 156.42365093959398,65.12596194973565 " opacity="0.5" stroke="blue"/><polygon points="191.01870054865913,131.55106197488772 164.55759474349412,63.3170253042031 " opacity="0.5" stroke="blue"/><polygon points="194.39638929083375,131.9579706013222 173.0476143648178,62.17682084156317 " opacity="0.5" stroke="blue"/><polygon points="197.83790469361276,132.65519681303834 181.8557855185738,61.73774835378745 " opacity="0.5" stroke="blue"/><polygon points="201.32821072252474,133.64458804107906 190.9381508882711,62.027245469550536 " opacity="0.5" stroke="blue"/><polygon points="204.85149676347075,134.92638952629127 200.24480586319967,63.0668170648666 " opacity="0.5" stroke="blue"/><polygon points="208.3912614137821,136.4991533362376 209.7201521683367,64.87108697169035 " opacity="0.5" stroke="blue"/><polygon points="211.93041131767097,138.35966141621287 219.30333554479975,67.44691164477399 " opacity="0.5" stroke="blue"/><polygon points="215.4513745610977,140.50286532029241 228.92887692137657,70.79259892481204 " opacity="0.5" stroke="blue"/><polygon points="218.93622773663938,142.9218451051097 238.52749794810222,74.89727628219067 " opacity="0.5" stroke="blue"/><polygon points="222.3668353718428,145.60778961078512 248.0271316972606,79.74045139881522 " opacity="0.5" stroke="blue"/><polygon points="225.725,148.55 257.3540983606557,85.29180327868846 " opacity="0.5" stroke="blue"/></svg>
