<?xml version="1.0" encoding="UTF-8"?>
<!DOCTYPE svg PUBLIC "-//W3C//DTD SVG 1.1//EN"
    "http://www.w3.org/Graphics/SVG/1.1/DTD/svg11.dtd"><svg width="400" height="400" stroke="black" fill="none" fill-opacity="0.75" font-style="italic" font-family="CMU Serif, sans-serif" xmlns="http://www.w3.org/2000/svg" xmlns:xlink="http://www.w3.org/1999/xlink" version="1.1"><filter id="blur"><feGaussianBlur stdDeviation="2"/></filter><rect width="100%" height="100%" fill="white" stroke="none" fill-opacity="1"/><polygon points="181.0,0.0 261.0,400.0 " stroke-opacity="0.25" stroke="green"/><polygon points="162.0,0.0 322.0,400.0 " stroke-opacity="0.25" stroke="green"/><polygon points="143.0,-5.684341886080802e-14 383.0000000000001,400.00000000000006 " stroke-opacity="0.25" stroke="green"/><polygon points="123.99999999999999,0.0 400.0,345.0 " stroke-opacity="0.25" stroke="green"/><polygon points="104.99999999999999,-5.684341886080802e-14 400.0,295.0 " stroke-opacity="0.25" stroke="green"/><polygon points="85.99999999999997,-5.684341886080802e-14 400.0,261.66666666666663 " stroke-opacity="0.25" stroke="green"/><polygon points="66.99999999999994,0.0 400.0,237.85714285714283 " stroke-opacity="0.25" stroke="green"/><polygon points="47.99999999999994,0.0 400.0,219.99999999999997 " stroke-opacity="0.25" stroke="green"/><polygon points="28.999999999999915,0.0 400.0,206.1111111111111 " stroke-opacity="0.25" stroke="green"/><polygon points="9.999999999999915,0.0 400.0,194.99999999999997 " stroke-opacity="0.25" stroke="green"/><polygon points="0.0,4.09090909090915 400.0,185.90909090909085 " stroke-opacity="0.25" stroke="green"/><polygon points="0.0,11.666666666666714 400.0,178.3333333333333 " stroke-opacity="0.25" stroke="green"/><polygon points="0.0,18.076923076923094 400.0,171.9230769230769 " stroke-opacity="0.25" stroke="green"/><polygon points="0.0,23.571428571428612 400.0,166.4285714285714 " stroke-opacity="0.25" stroke="green"/><polygon points="0.0,28.33333333333337 400.0,161.66666666666663 " stroke-opacity="0.25" stroke="green"/><polygon points="201.91618974142847,0.0 240.31515800023922,400.0 " stroke-opacity="0.25" stroke="green"/><polygon points="182.81153242972167,0.0 301.65116305361374,400.0 " stroke-opacity="0.25" stroke="green"/><polygon points="163.70687511801484,0.0 362.9871681069883,400.0 " stroke-opacity="0.25" stroke="green"/><polygon points="144.60221780630803,0.0 400.00000000000006,365.21794639293165 " stroke-opacity="0.25" stroke="green"/><polygon points="125.4975604946012,0.0 400.00000000000006,304.8658446658393 " stroke-opacity="0.25" stroke="green"/><polygon points="106.39290318289439,0.0 400.0,266.5506830885987 " stroke-opacity="0.25" stroke="green"/><polygon points="87.28824587118757,-5.684341886080802e-14 400.0,240.06601272350332 " stroke-opacity="0.25" stroke="green"/><polygon points="68.18358855948077,5.684341886080802e-14 400.0,220.66530743953953 " stroke-opacity="0.25" stroke="green"/><polygon points="49.07893124777388,0.0 400.00000000000006,205.84166637957432 " stroke-opacity="0.25" stroke="green"/><polygon points="29.974273936067107,5.684341886080802e-14 400.0,194.14624766907687 " stroke-opacity="0.25" stroke="green"/><polygon points="10.869616624360248,0.0 400.0,184.6833419763864 " stroke-opacity="0.25" stroke="green"/><polygon points="5.684341886080802e-14,3.5678631347672365 399.99999999999994,176.86940566384536 " stroke-opacity="0.25" stroke="green"/><polygon points="-5.684341886080802e-14,10.89570763384387 400.00000000000006,170.30796791881318 " stroke-opacity="0.25" stroke="green"/><polygon points="0.0,17.136121692759446 400.0,164.72022811948239 " stroke-opacity="0.25" stroke="green"/><polygon points="-5.684341886080802e-14,22.51444279310175 400.00000000000006,159.9044164470137 " stroke-opacity="0.25" stroke="green"/><polygon points="223.08684103156887,0.0 219.85146395276237,400.0 " stroke-opacity="0.25" stroke="green"/><polygon points="203.6623697291333,0.0 282.21424023952915,400.0 " stroke-opacity="0.25" stroke="green"/><polygon points="184.23789842669774,-5.684341886080802e-14 344.577016526296,400.00000000000006 " stroke-opacity="0.25" stroke="green"/><polygon points="164.81342712426218,0.0 400.0,388.53525464966117 " stroke-opacity="0.25" stroke="green"/><polygon points="145.38895582182664,0.0 400.0,314.41845447804667 " stroke-opacity="0.25" stroke="green"/><polygon points="125.96448451939104,-5.684341886080802e-14 400.0,270.1848005891284 " stroke-opacity="0.25" stroke="green"/><polygon points="106.54001321695547,0.0 400.0,240.79355511851332 " stroke-opacity="0.25" stroke="green"/><polygon points="87.11554191451994,-5.684341886080802e-14 400.0,219.84753407130586 " stroke-opacity="0.25" stroke="green"/><polygon points="67.69107061208436,0.0 400.0,204.16404046718125 " stroke-opacity="0.25" stroke="green"/><polygon points="48.26659930964871,0.0 400.00000000000006,191.98115417660617 " stroke-opacity="0.25" stroke="green"/><polygon points="28.842128007213205,0.0 400.0,182.2445221478366 " stroke-opacity="0.25" stroke="green"/><polygon points="9.417656704777613,-5.684341886080802e-14 400.0,174.2845762111345 " stroke-opacity="0.25" stroke="green"/><polygon points="0.0,4.091881412619415 400.0,167.6556757724012 " stroke-opacity="0.25" stroke="green"/><polygon points="0.0,11.106157760022171 400.0,162.04971894484828 " stroke-opacity="0.25" stroke="green"/><polygon points="0.0,17.115555239613286 400.0,157.24688239241232 " stroke-opacity="0.25" stroke="green"/><polygon points="245.00615698605418,0.0 199.15525643195303,400.0 " stroke-opacity="0.25" stroke="green"/><polygon points="225.0283747255271,5.684341886080802e-14 263.2944521104873,399.99999999999994 " stroke-opacity="0.25" stroke="green"/><polygon points="205.05059246500002,0.0 327.4336477890217,400.0 " stroke-opacity="0.25" stroke="green"/><polygon points="185.07281020447294,5.684341886080802e-14 391.572843467556,399.99999999999994 " stroke-opacity="0.25" stroke="green"/><polygon points="165.09502794394587,0.0 400.0,323.3189565667391 " stroke-opacity="0.25" stroke="green"/><polygon points="145.1172456834188,0.0 400.0,272.0679326694726 " stroke-opacity="0.25" stroke="green"/><polygon points="125.13946342289168,-5.684341886080802e-14 400.0,239.60767769638517 " stroke-opacity="0.25" stroke="green"/><polygon points="105.1616811623646,5.684341886080802e-14 400.0,217.20495402515127 " stroke-opacity="0.25" stroke="green"/><polygon points="85.18389890183742,5.684341886080802e-14 400.00000000000006,200.81241922574617 " stroke-opacity="0.25" stroke="green"/><polygon points="65.20611664131039,5.684341886080802e-14 400.0,188.29751885433365 " stroke-opacity="0.25" stroke="green"/><polygon points="45.228334380783366,0.0 400.0,178.42989777293798 " stroke-opacity="0.25" stroke="green"/><polygon points="25.250552120256174,0.0 400.0,170.44992877763775 " stroke-opacity="0.25" stroke="green"/><polygon points="5.272769859729067,-5.684341886080802e-14 400.0,163.86324274876844 " stroke-opacity="0.25" stroke="green"/><polygon points="-5.684341886080802e-14,5.614369040013003 400.00000000000006,158.33424133902264 " stroke-opacity="0.25" stroke="green"/><polygon points="-5.684341886080802e-14,12.25771318400362 400.00000000000006,153.6270959422191 " stroke-opacity="0.25" stroke="green"/><polygon points="268.2476477700923,0.0 177.72707592716162,400.0 " stroke-opacity="0.25" stroke="green"/><polygon points="247.44955847847746,-5.684341886080802e-14 244.4998889160305,400.00000000000006 " stroke-opacity="0.25" stroke="green"/><polygon points="226.65146918686256,0.0 311.27270190489935,400.0 " stroke-opacity="0.25" stroke="green"/><polygon points="205.85337989524766,-5.684341886080802e-14 378.0455148937682,400.00000000000006 " stroke-opacity="0.25" stroke="green"/><polygon points="185.05529060363276,-5.684341886080802e-14 400.00000000000006,330.985827156773 " stroke-opacity="0.25" stroke="green"/><polygon points="164.25720131201786,0.0 400.00000000000006,271.488353815313 " stroke-opacity="0.25" stroke="green"/><polygon points="143.45911202040296,0.0 400.0,235.95128248675064 " stroke-opacity="0.25" stroke="green"/><polygon points="122.66102272878807,0.0 399.99999999999994,212.3267771889307 " stroke-opacity="0.25" stroke="green"/><polygon points="101.86293343717315,0.0 400.00000000000006,195.48476715459748 " stroke-opacity="0.25" stroke="green"/><polygon points="81.06484414555824,0.0 400.00000000000006,182.87106249392122 " stroke-opacity="0.25" stroke="green"/><polygon points="60.2667548539433,5.684341886080802e-14 400.00000000000006,173.07093334338333 " stroke-opacity="0.25" stroke="green"/><polygon points="39.46866556232837,-5.684341886080802e-14 400.00000000000006,165.23745433297756 " stroke-opacity="0.25" stroke="green"/><polygon points="18.670576270713525,0.0 400.00000000000006,158.83261889803214 " stroke-opacity="0.25" stroke="green"/><polygon points="0.0,0.8121044642649622 400.0,153.4982607954563 " stroke-opacity="0.25" stroke="green"/><polygon points="0.0,8.076148456113799 400.0,148.98670506477728 " stroke-opacity="0.25" stroke="green"/><polygon points="293.5307436087194,-5.684341886080802e-14 154.9666790032092,400.00000000000006 " stroke-opacity="0.25" stroke="green"/><polygon points="271.5914333795136,0.0 225.40341184434354,400.0 " stroke-opacity="0.25" stroke="green"/><polygon points="249.65212315030777,5.684341886080802e-14 295.840144685478,399.99999999999994 " stroke-opacity="0.25" stroke="green"/><polygon points="227.712812921102,0.0 366.2768775266122,400.0 " stroke-opacity="0.25" stroke="green"/><polygon points="205.77350269189623,-5.684341886080802e-14 400.0,336.41016151377545 " stroke-opacity="0.25" stroke="green"/><polygon points="183.83419246269042,5.684341886080802e-14 400.00000000000006,267.43582965269667 " stroke-opacity="0.25" stroke="green"/><polygon points="161.89488223348462,-5.684341886080802e-14 400.0,229.11675639654183 " stroke-opacity="0.25" stroke="green"/><polygon points="139.95557200427885,0.0 400.00000000000006,204.7318915971706 " stroke-opacity="0.25" stroke="green"/><polygon points="118.01626177507308,5.684341886080802e-14 400.0,187.85006212068282 " stroke-opacity="0.25" stroke="green"/><polygon points="96.07695154586729,0.0 400.0,175.47005383792512 " stroke-opacity="0.25" stroke="green"/><polygon points="74.13764131666147,0.0 400.0,166.00298868052215 " stroke-opacity="0.25" stroke="green"/><polygon points="52.19833108745564,0.0 400.00000000000006,158.5289898720461 " stroke-opacity="0.25" stroke="green"/><polygon points="30.259020858249926,-5.684341886080802e-14 400.0,152.4786098842322 " stroke-opacity="0.25" stroke="green"/><polygon points="8.319710629044096,0.0 400.0,147.48046989429898 " stroke-opacity="0.25" stroke="green"/><polygon points="5.684341886080802e-14,4.717967697245001 399.99999999999994,143.28203230275506 " stroke-opacity="0.25" stroke="green"/><polygon points="321.82321402857616,0.0 130.091641026415,400.0 " stroke-opacity="0.25" stroke="green"/><polygon points="298.33792245608015,0.0 205.49178765390218,400.0 " stroke-opacity="0.25" stroke="green"/><polygon points="274.8526308835842,0.0 280.89193428138935,400.0 " stroke-opacity="0.25" stroke="green"/><polygon points="251.36733931108816,0.0 356.2920809088765,400.0 " stroke-opacity="0.25" stroke="green"/><polygon points="227.88204773859215,-5.684341886080802e-14 400.0,337.80050129427303 " stroke-opacity="0.25" stroke="green"/><polygon points="204.39675616609614,0.0 400.00000000000006,258.4817647876947 " stroke-opacity="0.25" stroke="green"/><polygon points="180.9114645936001,0.0 400.0,218.2259666138444 " stroke-opacity="0.25" stroke="green"/><polygon points="157.42617302110412,0.0 400.0,193.8781754177711 " stroke-opacity="0.25" stroke="green"/><polygon points="133.9408814486081,0.0 400.00000000000006,177.5645353461973 " stroke-opacity="0.25" stroke="green"/><polygon points="110.45558987611207,0.0 400.0,165.87162030190595 " stroke-opacity="0.25" stroke="green"/><polygon points="86.97029830361602,0.0 400.0,157.07978653377037 " stroke-opacity="0.25" stroke="green"/><polygon points="63.485006731119995,0.0 400.0,150.22852493662222 " stroke-opacity="0.25" stroke="green"/><polygon points="39.999715158624014,0.0 400.0,144.7391978158919 " stroke-opacity="0.25" stroke="green"/><polygon points="16.514423586127975,0.0 400.0,140.2424193844638 " stroke-opacity="0.25" stroke="green"/><polygon points="5.684341886080802e-14,2.337914015273981 399.99999999999994,136.49130896384636 " stroke-opacity="0.25" stroke="green"/><polygon points="354.5137869970468,5.684341886080802e-14 102.002787646421,399.99999999999994 " stroke-opacity="0.25" stroke="green"/><polygon points="328.94676513452566,-5.684341886080802e-14 184.08638415240992,400.00000000000006 " stroke-opacity="0.25" stroke="green"/><polygon points="303.3797432720045,0.0 266.1699806583989,400.0 " stroke-opacity="0.25" stroke="green"/><polygon points="277.81272140948334,-5.684341886080802e-14 348.2535771643878,400.00000000000006 " stroke-opacity="0.25" stroke="green"/><polygon points="252.24569954696221,0.0 400.00000000000006,331.86159232001506 " stroke-opacity="0.25" stroke="green"/><polygon points="226.67867768444106,5.684341886080802e-14 399.99999999999994,242.626237953314 " stroke-opacity="0.25" stroke="green"/><polygon points="201.11165582191992,-5.684341886080802e-14 399.99999999999994,202.22880463958603 " stroke-opacity="0.25" stroke="green"/><polygon points="175.54463395939877,0.0 400.0,179.1903837027551 " stroke-opacity="0.25" stroke="green"/><polygon points="149.97761209687764,5.684341886080802e-14 400.00000000000006,164.30088644053254 " stroke-opacity="0.25" stroke="green"/><polygon points="124.41059023435646,0.0 400.0,153.88650817446825 " stroke-opacity="0.25" stroke="green"/><polygon points="98.8435683718353,0.0 400.00000000000006,146.19329692874493 " stroke-opacity="0.25" stroke="green"/><polygon points="73.27654650931417,0.0 400.0,140.2779693925578 " stroke-opacity="0.25" stroke="green"/><polygon points="47.70952464679294,0.0 400.0,135.5880644676913 " stroke-opacity="0.25" stroke="green"/><polygon points="22.142502784271784,5.684341886080802e-14 400.00000000000006,131.77853352329717 " stroke-opacity="0.25" stroke="green"/><polygon points="-5.684341886080802e-14,1.091830215666505 400.00000000000006,128.62275537256656 " stroke-opacity="0.25" stroke="green"/><polygon points="393.72744851841094,-5.684341886080802e-14 69.0405665759026,400.00000000000006 " stroke-opacity="0.25" stroke="green"/><polygon points="365.33239407098347,0.0 160.20363611764373,400.0 " stroke-opacity="0.25" stroke="green"/><polygon points="336.9373396235559,0.0 251.36670565938488,400.0 " stroke-opacity="0.25" stroke="green"/><polygon points="308.5422851761283,0.0 342.529775201126,400.0 " stroke-opacity="0.25" stroke="green"/><polygon points="280.1472307287007,0.0 399.99999999999994,312.2271386019308 " stroke-opacity="0.25" stroke="green"/><polygon points="251.75217628127314,0.0 400.0,217.13042055384307 " stroke-opacity="0.25" stroke="green"/><polygon points="223.35712183384555,-5.684341886080802e-14 400.00000000000006,179.9440131718487 " stroke-opacity="0.25" stroke="green"/><polygon points="194.962067386418,0.0 400.0,160.11708892664586 " stroke-opacity="0.25" stroke="green"/><polygon points="166.56701293899042,0.0 400.0,147.79428623874492 " stroke-opacity="0.25" stroke="green"/><polygon points="138.1719584915629,0.0 400.0,139.39327277133444 " stroke-opacity="0.25" stroke="green"/><polygon points="109.77690404413522,0.0 400.0,133.29887525706107 " stroke-opacity="0.25" stroke="green"/><polygon points="81.3818495967076,0.0 400.00000000000006,128.67579463468905 " stroke-opacity="0.25" stroke="green"/><polygon points="52.986795149280056,5.684341886080802e-14 400.0,125.04860872415115 " stroke-opacity="0.25" stroke="green"/><polygon points="24.59174070185236,0.0 400.00000000000006,122.12680760792765 " stroke-opacity="0.25" stroke="green"/><polygon points="0.0,1.1276371038243553 400.0,119.72286003396195 " stroke-opacity="0.25" stroke="green"/><polygon points="400.00000000000006,41.45425932228039 28.503014524714132,400.0 " stroke-opacity="0.25" stroke="green"/><polygon points="399.99999999999994,15.271610965799738 132.282413143663,400.00000000000006 " stroke-opacity="0.25" stroke="green"/><polygon points="378.3021919421022,0.0 236.0618117626119,400.0 " stroke-opacity="0.25" stroke="green"/><polygon points="345.97746122472466,-5.684341886080802e-14 339.8412103815608,400.00000000000006 " stroke-opacity="0.25" stroke="green"/><polygon points="313.6527305073472,0.0 400.00000000000006,265.7495697975726 " stroke-opacity="0.25" stroke="green"/><polygon points="281.3279997899697,-5.684341886080802e-14 400.0,178.40584010036972 " stroke-opacity="0.25" stroke="green"/><polygon points="249.00326907259208,0.0 400.00000000000006,150.17970185053775 " stroke-opacity="0.25" stroke="green"/><polygon points="216.67853835521458,0.0 400.0,136.22751793302527 " stroke-opacity="0.25" stroke="green"/><polygon points="184.353807637837,0.0 400.00000000000006,127.90698817640819 " stroke-opacity="0.25" stroke="green"/><polygon points="152.02907692045952,0.0 400.0,122.38096672673389 " stroke-opacity="0.25" stroke="green"/><polygon points="119.70434620308191,0.0 400.0,118.44404346943932 " stroke-opacity="0.25" stroke="green"/><polygon points="87.37961548570436,-5.684341886080802e-14 400.00000000000006,115.49692921535224 " stroke-opacity="0.25" stroke="green"/><polygon points="55.054884768326815,0.0 400.0,113.20802651209083 " stroke-opacity="0.25" stroke="green"/><polygon points="22.73015405094921,0.0 400.00000000000006,111.3789775990013 " stroke-opacity="0.25" stroke="green"/><polygon points="0.0,2.5739819305021 400.0,109.88385166174389 " stroke-opacity="0.25" stroke="green"/><polygon points="0.0,381.6747519125593 400.0,81.38590577609762 " stroke-opacity="0.25" stroke="green"/><polygon points="400.0,75.54326539068228 97.58983848622455,400.0 " stroke-opacity="0.25" stroke="green"/><polygon points="400.0,60.915538615322475 219.58983848622458,400.0 " stroke-opacity="0.25" stroke="green"/><polygon points="394.41016151377545,0.0 341.5898384862246,400.0 " stroke-opacity="0.25" stroke="green"/><polygon points="356.4101615137755,-5.684341886080802e-14 400.0,162.67949192431124 " stroke-opacity="0.25" stroke="green"/><polygon points="318.41016151377545,0.0 400.0,122.14976739362977 " stroke-opacity="0.25" stroke="green"/><polygon points="280.4101615137754,0.0 400.0,111.98083142324903 " stroke-opacity="0.25" stroke="green"/><polygon points="242.4101615137754,0.0 400.00000000000006,107.3537417362752 " stroke-opacity="0.25" stroke="green"/><polygon points="204.41016151377536,0.0 400.00000000000006,104.7083289410381 " stroke-opacity="0.25" stroke="green"/><polygon points="166.4101615137754,0.0 400.0,102.99606325652665 " stroke-opacity="0.25" stroke="green"/><polygon points="128.41016151377534,-5.684341886080802e-14 400.0,101.79723034333458 " stroke-opacity="0.25" stroke="green"/><polygon points="90.41016151377528,0.0 400.00000000000006,100.91100571352595 " stroke-opacity="0.25" stroke="green"/><polygon points="52.410161513775364,0.0 400.0,100.22921882617169 " stroke-opacity="0.25" stroke="green"/><polygon points="14.410161513775222,0.0 400.0,99.68844452268246 " stroke-opacity="0.25" stroke="green"/><polygon points="5.684341886080802e-14,5.527206961146504 399.99999999999994,99.24903493167825 " stroke-opacity="0.25" stroke="green"/><polygon points="0.0,343.43491016436906 400.0,115.42609098159697 " stroke-opacity="0.25" stroke="green"/><polygon points="399.99999999999994,123.38102103797863 50.741032159213916,400.0 " stroke-opacity="0.25" stroke="green"/><polygon points="399.99999999999994,141.48431059054437 200.71522562924247,400.0 " stroke-opacity="0.25" stroke="green"/><polygon points="400.0,223.36219730770378 350.68941909927094,399.99999999999994 " stroke-opacity="0.25" stroke="green"/><polygon points="368.92771452538,5.684341886080802e-14 400.0,44.11952061444913 " stroke-opacity="0.25" stroke="green"/><polygon points="322.2144411494695,0.0 400.0,65.03842462508075 " stroke-opacity="0.25" stroke="green"/><polygon points="275.501167773559,-5.684341886080802e-14 400.0,73.7677937314534 " stroke-opacity="0.25" stroke="green"/><polygon points="228.78789439764842,0.0 400.0,78.55815922771056 " stroke-opacity="0.25" stroke="green"/><polygon points="182.07462102173793,0.0 399.99999999999994,81.58485572190787 " stroke-opacity="0.25" stroke="green"/><polygon points="135.36134764582732,0.0 400.0,83.67045514829866 " stroke-opacity="0.25" stroke="green"/><polygon points="88.64807426991665,0.0 400.0,85.19482666843052 " stroke-opacity="0.25" stroke="green"/><polygon points="41.93480089400617,-5.684341886080802e-14 400.0,86.35764168482144 " stroke-opacity="0.25" stroke="green"/><polygon points="0.0,1.0302818396520195 400.0,87.27389576050977 " stroke-opacity="0.25" stroke="green"/><polygon points="5.684341886080802e-14,10.037879776981157 399.99999999999994,88.01449222045092 " stroke-opacity="0.25" stroke="green"/><polygon points="0.0,310.2492250296235 400.0,145.67199939058332 " stroke-opacity="0.25" stroke="green"/><polygon points="0.0,388.37160219586434 400.0,164.06285328384993 " stroke-opacity="0.25" stroke="green"/><polygon points="400.0,203.4085711828932 176.66373244741092,400.0 " stroke-opacity="0.25" stroke="green"/><polygon points="400.0,346.9423608422161 374.0638790748982,400.0 " stroke-opacity="0.25" stroke="green"/><polygon points="385.13966642757873,0.0 400.0,10.2286719434328 " stroke-opacity="0.25" stroke="green"/><polygon points="323.6543748550827,0.0 400.0,36.35462287296639 " stroke-opacity="0.25" stroke="green"/><polygon points="262.1690832825866,0.0 400.00000000000006,50.170707984098016 " stroke-opacity="0.25" stroke="green"/><polygon points="200.68379171009056,0.0 400.0,58.71822130818404 " stroke-opacity="0.25" stroke="green"/><polygon points="139.19850013759444,0.0 400.0,64.52821658262039 " stroke-opacity="0.25" stroke="green"/><polygon points="77.71320856509836,-5.684341886080802e-14 400.0,68.73428586828572 " stroke-opacity="0.25" stroke="green"/><polygon points="16.22791699260216,0.0 400.00000000000006,71.92004867838523 " stroke-opacity="0.25" stroke="green"/><polygon points="5.684341886080802e-14,7.563940157844485 399.99999999999994,74.4166043086707 " stroke-opacity="0.25" stroke="green"/><polygon points="0.0,16.098686043958992 400.0,76.42577594810614 " stroke-opacity="0.25" stroke="green"/><polygon points="-5.684341886080802e-14,280.42476530742465 400.00000000000006,173.54957061598284 " stroke-opacity="0.25" stroke="green"/><polygon points="-5.684341886080802e-14,344.56920353464443 400.00000000000006,200.7224138540366 " stroke-opacity="0.25" stroke="green"/><polygon points="400.0,256.63836500585114 139.25536319248528,400.0 " stroke-opacity="0.25" stroke="green"/><polygon points="318.4614489444444,0.0 400.0,20.62757014754399 " stroke-opacity="0.25" stroke="green"/><polygon points="227.07649639430593,-5.684341886080802e-14 400.0,35.183963987958435 " stroke-opacity="0.25" stroke="green"/><polygon points="135.69154384416737,0.0 399.99999999999994,44.975005205042464 " stroke-opacity="0.25" stroke="green"/><polygon points="44.30659129402849,0.0 400.0,52.011599836211616 " stroke-opacity="0.25" stroke="green"/><polygon points="0.0,6.035161827374509 400.0,57.312748101397545 " stroke-opacity="0.25" stroke="green"/><polygon points="0.0,15.801577395228321 400.0,61.44999345824232 " stroke-opacity="0.25" stroke="green"/><polygon points="0.0,23.63582114452629 400.0,64.76873290271749 " stroke-opacity="0.25" stroke="green"/><polygon points="0.0,252.7432823410194 400.0,200.11869697615515 " stroke-opacity="0.25" stroke="green"/><polygon points="-5.684341886080802e-14,305.80887456561067 400.00000000000006,235.48112779496967 " stroke-opacity="0.25" stroke="green"/><polygon points="400.00000000000006,306.69701185323476 47.846427887013135,400.0 " stroke-opacity="0.25" stroke="green"/><polygon points="285.18616647844783,0.0 400.0,11.935927321134187 " stroke-opacity="0.25" stroke="green"/><polygon points="103.41749404184083,0.0 400.0,25.71702751029801 " stroke-opacity="0.25" stroke="green"/><polygon points="0.0,5.827147534938462 400.0,35.5760174527783 " stroke-opacity="0.25" stroke="green"/><polygon points="0.0,16.935720390314316 400.0,42.978669955579306 " stroke-opacity="0.25" stroke="green"/><polygon points="0.0,25.583211535116533 400.0,48.741279860508826 " stroke-opacity="0.25" stroke="green"/><polygon points="0.0,32.50592869713026 400.0,53.35451597938291 " stroke-opacity="0.25" stroke="green"/><polygon points="0.0,226.25 400.0,226.25 " stroke-opacity="0.25" stroke="green"/><polygon points="0.0,270.0 400.0,270.0 " stroke-opacity="0.25" stroke="green"/><polygon points="0.0,357.50000000000006 400.0,357.50000000000006 " stroke-opacity="0.25" stroke="green"/><polygon points="0.0,7.500000000000028 400.0,7.500000000000028 " stroke-opacity="0.25" stroke="green"/><polygon points="0.0,20.0 400.0,20.0 " stroke-opacity="0.25" stroke="green"/><polygon points="0.0,29.375 400.0,29.375 " stroke-opacity="0.25" stroke="green"/><polygon points="0.0,36.66666666666666 400.0,36.66666666666666 " stroke-opacity="0.25" stroke="green"/><polygon points="0.0,42.50000000000003 400.0,42.50000000000003 " stroke-opacity="0.25" stroke="green"/><polygon points="0.0,200.1186969761552 400.0,252.74328234101935 " stroke-opacity="0.25" stroke="green"/><polygon points="-5.684341886080802e-14,235.48112779496972 400.00000000000006,305.80887456561055 " stroke-opacity="0.25" stroke="green"/><polygon points="0.0,306.6970118532348 352.1535721129874,399.99999999999994 " stroke-opacity="0.25" stroke="green"/><polygon points="0.0,11.935927321134216 114.81383352155217,-5.684341886080802e-14 " stroke-opacity="0.25" stroke="green"/><polygon points="0.0,25.717027510298067 296.5825059581588,0.0 " stroke-opacity="0.25" stroke="green"/><polygon points="-5.684341886080802e-14,35.5760174527783 400.00000000000006,5.827147534938348 " stroke-opacity="0.25" stroke="green"/><polygon points="0.0,42.97866995557936 400.0,16.93572039031426 " stroke-opacity="0.25" stroke="green"/><polygon points="0.0,48.74127986050888 400.0,25.58321153511642 " stroke-opacity="0.25" stroke="green"/><polygon points="0.0,53.35451597938297 400.0,32.505928697130145 " stroke-opacity="0.25" stroke="green"/><polygon points="0.0,173.54957061598293 400.0,280.42476530742454 " stroke-opacity="0.25" stroke="green"/><polygon points="-5.684341886080802e-14,200.72241385403666 400.00000000000006,344.5692035346443 " stroke-opacity="0.25" stroke="green"/><polygon points="0.0,256.63836500585114 260.7446368075149,400.0 " stroke-opacity="0.25" stroke="green"/><polygon points="0.0,20.62757014754405 81.53855105555566,0.0 " stroke-opacity="0.25" stroke="green"/><polygon points="0.0,35.18396398795852 172.92350360569395,-5.684341886080802e-14 " stroke-opacity="0.25" stroke="green"/><polygon points="-5.684341886080802e-14,44.97500520504252 264.30845615583246,0.0 " stroke-opacity="0.25" stroke="green"/><polygon points="0.0,52.01159983621167 355.6934087059708,5.684341886080802e-14 " stroke-opacity="0.25" stroke="green"/><polygon points="0.0,57.31274810139763 400.0,6.035161827374452 " stroke-opacity="0.25" stroke="green"/><polygon points="0.0,61.4499934582424 400.0,15.801577395228207 " stroke-opacity="0.25" stroke="green"/><polygon points="0.0,64.76873290271757 400.0,23.635821144526176 " stroke-opacity="0.25" stroke="green"/><polygon points="0.0,145.67199939058332 400.0,310.2492250296235 " stroke-opacity="0.25" stroke="green"/><polygon points="0.0,164.06285328384993 400.0,388.3716021958643 " stroke-opacity="0.25" stroke="green"/><polygon points="5.684341886080802e-14,203.40857118289313 223.33626755258916,400.0 " stroke-opacity="0.25" stroke="green"/><polygon points="-5.684341886080802e-14,346.9423608422157 25.936120925102074,400.00000000000006 " stroke-opacity="0.25" stroke="green"/><polygon points="5.684341886080802e-14,10.228671943432943 14.860333572421382,-5.684341886080802e-14 " stroke-opacity="0.25" stroke="green"/><polygon points="0.0,36.35462287296659 76.34562514491748,0.0 " stroke-opacity="0.25" stroke="green"/><polygon points="5.684341886080802e-14,50.17070798409813 137.83091671741343,0.0 " stroke-opacity="0.25" stroke="green"/><polygon points="0.0,58.718221308184155 199.31620828990933,-5.684341886080802e-14 " stroke-opacity="0.25" stroke="green"/><polygon points="-5.684341886080802e-14,64.52821658262044 260.8014998624053,0.0 " stroke-opacity="0.25" stroke="green"/><polygon points="-5.684341886080802e-14,68.73428586828584 322.2867914349013,-5.684341886080802e-14 " stroke-opacity="0.25" stroke="green"/><polygon points="-5.684341886080802e-14,71.92004867838534 383.7720830073973,0.0 " stroke-opacity="0.25" stroke="green"/><polygon points="5.684341886080802e-14,74.41660430867078 399.99999999999994,7.563940157844371 " stroke-opacity="0.25" stroke="green"/><polygon points="0.0,76.42577594810625 400.0,16.098686043958878 " stroke-opacity="0.25" stroke="green"/><polygon points="-5.684341886080802e-14,115.42609098159706 400.00000000000006,343.43491016436894 " stroke-opacity="0.25" stroke="green"/><polygon points="0.0,123.38102103797873 349.2589678407862,400.00000000000006 " stroke-opacity="0.25" stroke="green"/><polygon points="-5.684341886080802e-14,141.4843105905445 199.28477437075765,399.99999999999994 " stroke-opacity="0.25" stroke="green"/><polygon points="0.0,223.36219730770375 49.31058090072915,399.99999999999994 " stroke-opacity="0.25" stroke="green"/><polygon points="0.0,44.11952061444916 31.072285474619974,0.0 " stroke-opacity="0.25" stroke="green"/><polygon points="0.0,65.03842462508084 77.78555885053053,0.0 " stroke-opacity="0.25" stroke="green"/><polygon points="5.684341886080802e-14,73.76779373145345 124.498832226441,0.0 " stroke-opacity="0.25" stroke="green"/><polygon points="0.0,78.55815922771059 171.21210560235156,5.684341886080802e-14 " stroke-opacity="0.25" stroke="green"/><polygon points="0.0,81.58485572190793 217.92537897826196,0.0 " stroke-opacity="0.25" stroke="green"/><polygon points="-5.684341886080802e-14,83.6704551482987 264.6386523541725,0.0 " stroke-opacity="0.25" stroke="green"/><polygon points="0.0,85.1948266684306 311.35192573008305,0.0 " stroke-opacity="0.25" stroke="green"/><polygon points="0.0,86.35764168482152 358.06519910599366,0.0 " stroke-opacity="0.25" stroke="green"/><polygon points="0.0,87.27389576050983 400.0,1.0302818396519342 " stroke-opacity="0.25" stroke="green"/><polygon points="5.684341886080802e-14,88.01449222045102 399.99999999999994,10.0378797769811 " stroke-opacity="0.25" stroke="green"/><polygon points="0.0,81.3859057760977 400.0,381.67475191255926 " stroke-opacity="0.25" stroke="green"/><polygon points="5.684341886080802e-14,75.5432653906824 302.4101615137755,400.0 " stroke-opacity="0.25" stroke="green"/><polygon points="0.0,60.91553861532256 180.41016151377542,400.0 " stroke-opacity="0.25" stroke="green"/><polygon points="5.589838486224494,0.0 58.41016151377539,400.0 " stroke-opacity="0.25" stroke="green"/><polygon points="0.0,162.6794919243112 43.589838486224494,0.0 " stroke-opacity="0.25" stroke="green"/><polygon points="0.0,122.14976739362984 81.58983848622456,0.0 " stroke-opacity="0.25" stroke="green"/><polygon points="0.0,111.98083142324911 119.58983848622458,0.0 " stroke-opacity="0.25" stroke="green"/><polygon points="0.0,107.35374173627527 157.58983848622455,0.0 " stroke-opacity="0.25" stroke="green"/><polygon points="0.0,104.70832894103816 195.58983848622458,0.0 " stroke-opacity="0.25" stroke="green"/><polygon points="5.684341886080802e-14,102.99606325652674 233.5898384862245,5.684341886080802e-14 " stroke-opacity="0.25" stroke="green"/><polygon points="5.684341886080802e-14,101.79723034333463 271.5898384862245,0.0 " stroke-opacity="0.25" stroke="green"/><polygon points="-5.684341886080802e-14,100.91100571352604 309.5898384862246,0.0 " stroke-opacity="0.25" stroke="green"/><polygon points="0.0,100.22921882617177 347.58983848622444,0.0 " stroke-opacity="0.25" stroke="green"/><polygon points="0.0,99.68844452268253 385.5898384862246,0.0 " stroke-opacity="0.25" stroke="green"/><polygon points="0.0,99.24903493167831 400.0,5.527206961146419 " stroke-opacity="0.25" stroke="green"/><polygon points="-5.684341886080802e-14,41.45425932228045 371.4969854752859,400.00000000000006 " stroke-opacity="0.25" stroke="green"/><polygon points="5.684341886080802e-14,15.271610965799681 267.71758685633694,400.0 " stroke-opacity="0.25" stroke="green"/><polygon points="21.697808057897845,0.0 163.9381882373881,400.0 " stroke-opacity="0.25" stroke="green"/><polygon points="54.022538775275365,0.0 60.15878961843924,400.0 " stroke-opacity="0.25" stroke="green"/><polygon points="-5.684341886080802e-14,265.7495697975729 86.34726949265288,0.0 " stroke-opacity="0.25" stroke="green"/><polygon points="0.0,178.40584010036991 118.67200021003042,0.0 " stroke-opacity="0.25" stroke="green"/><polygon points="-5.684341886080802e-14,150.17970185053792 150.99673092740795,0.0 " stroke-opacity="0.25" stroke="green"/><polygon points="0.0,136.2275179330254 183.32146164478544,0.0 " stroke-opacity="0.25" stroke="green"/><polygon points="-5.684341886080802e-14,127.90698817640832 215.646192362163,0.0 " stroke-opacity="0.25" stroke="green"/><polygon points="0.0,122.380966726734 247.97092307954046,-5.684341886080802e-14 " stroke-opacity="0.25" stroke="green"/><polygon points="0.0,118.44404346943939 280.29565379691803,0.0 " stroke-opacity="0.25" stroke="green"/><polygon points="-5.684341886080802e-14,115.49692921535234 312.6203845142955,-5.684341886080802e-14 " stroke-opacity="0.25" stroke="green"/><polygon points="0.0,113.20802651209092 344.94511523167296,-5.684341886080802e-14 " stroke-opacity="0.25" stroke="green"/><polygon points="-5.684341886080802e-14,111.37897759900139 377.2698459490506,-5.684341886080802e-14 " stroke-opacity="0.25" stroke="green"/><polygon points="0.0,109.88385166174399 400.0,2.5739819305019864 " stroke-opacity="0.25" stroke="green"/><polygon points="6.272551481588749,0.0 330.9594334240976,400.0 " stroke-opacity="0.25" stroke="green"/><polygon points="34.667605929016474,5.684341886080802e-14 239.7963638823564,399.99999999999994 " stroke-opacity="0.25" stroke="green"/><polygon points="63.062660376444,0.0 148.6332943406152,400.0 " stroke-opacity="0.25" stroke="green"/><polygon points="91.4577148238716,5.684341886080802e-14 57.470224798874085,399.99999999999994 " stroke-opacity="0.25" stroke="green"/><polygon points="0.0,312.227138601931 119.85276927129917,0.0 " stroke-opacity="0.25" stroke="green"/><polygon points="0.0,217.13042055384312 148.24782371872675,0.0 " stroke-opacity="0.25" stroke="green"/><polygon points="0.0,179.94401317184875 176.64287816615433,0.0 " stroke-opacity="0.25" stroke="green"/><polygon points="0.0,160.11708892664595 205.03793261358192,-5.684341886080802e-14 " stroke-opacity="0.25" stroke="green"/><polygon points="5.684341886080802e-14,147.794286238745 233.43298706100947,0.0 " stroke-opacity="0.25" stroke="green"/><polygon points="0.0,139.39327277133452 261.828041508437,0.0 " stroke-opacity="0.25" stroke="green"/><polygon points="0.0,133.2988752570611 290.22309595586455,0.0 " stroke-opacity="0.25" stroke="green"/><polygon points="-5.684341886080802e-14,128.6757946346891 318.6181504032922,0.0 " stroke-opacity="0.25" stroke="green"/><polygon points="-5.684341886080802e-14,125.04860872415118 347.01320485071966,-5.684341886080802e-14 " stroke-opacity="0.25" stroke="green"/><polygon points="-5.684341886080802e-14,122.1268076079277 375.4082592981473,0.0 " stroke-opacity="0.25" stroke="green"/><polygon points="0.0,119.722860033962 400.0,1.1276371038242985 " stroke-opacity="0.25" stroke="green"/><polygon points="45.48621300295309,0.0 297.99721235357913,400.0 " stroke-opacity="0.25" stroke="green"/><polygon points="71.05323486547425,-5.684341886080802e-14 215.91361584759014,400.00000000000006 " stroke-opacity="0.25" stroke="green"/><polygon points="96.62025672799541,5.684341886080802e-14 133.83001934160117,399.99999999999994 " stroke-opacity="0.25" stroke="green"/><polygon points="122.18727859051656,-5.684341886080802e-14 51.74642283561221,400.00000000000006 " stroke-opacity="0.25" stroke="green"/><polygon points="0.0,331.8615923200152 147.7543004530377,0.0 " stroke-opacity="0.25" stroke="green"/><polygon points="0.0,242.62623795331405 173.3213223155589,0.0 " stroke-opacity="0.25" stroke="green"/><polygon points="-5.684341886080802e-14,202.2288046395861 198.88834417808005,0.0 " stroke-opacity="0.25" stroke="green"/><polygon points="0.0,179.19038370275516 224.45536604060115,5.684341886080802e-14 " stroke-opacity="0.25" stroke="green"/><polygon points="-5.684341886080802e-14,164.30088644053262 250.02238790312236,0.0 " stroke-opacity="0.25" stroke="green"/><polygon points="0.0,153.88650817446833 275.58940976564344,-5.684341886080802e-14 " stroke-opacity="0.25" stroke="green"/><polygon points="-5.684341886080802e-14,146.19329692874499 301.1564316281647,-5.684341886080802e-14 " stroke-opacity="0.25" stroke="green"/><polygon points="0.0,140.27796939255785 326.72345349068576,0.0 " stroke-opacity="0.25" stroke="green"/><polygon points="-5.684341886080802e-14,135.58806446769137 352.2904753532069,5.684341886080802e-14 " stroke-opacity="0.25" stroke="green"/><polygon points="-5.684341886080802e-14,131.77853352329726 377.857497215728,5.684341886080802e-14 " stroke-opacity="0.25" stroke="green"/><polygon points="-5.684341886080802e-14,128.62275537256662 400.00000000000006,1.0918302156663913 " stroke-opacity="0.25" stroke="green"/><polygon points="78.17678597142378,0.0 269.90835897358505,400.0 " stroke-opacity="0.25" stroke="green"/><polygon points="101.6620775439198,0.0 194.50821234609785,400.0 " stroke-opacity="0.25" stroke="green"/><polygon points="125.14736911641583,-5.684341886080802e-14 119.10806571861066,400.00000000000006 " stroke-opacity="0.25" stroke="green"/><polygon points="148.6326606889118,0.0 43.7079190911235,400.0 " stroke-opacity="0.25" stroke="green"/><polygon points="-5.684341886080802e-14,337.8005012942732 172.11795226140782,-5.684341886080802e-14 " stroke-opacity="0.25" stroke="green"/><polygon points="0.0,258.4817647876948 195.60324383390383,-5.684341886080802e-14 " stroke-opacity="0.25" stroke="green"/><polygon points="0.0,218.22596661384452 219.08853540639984,-5.684341886080802e-14 " stroke-opacity="0.25" stroke="green"/><polygon points="-5.684341886080802e-14,193.8781754177712 242.57382697889582,-5.684341886080802e-14 " stroke-opacity="0.25" stroke="green"/><polygon points="-5.684341886080802e-14,177.5645353461974 266.05911855139186,-5.684341886080802e-14 " stroke-opacity="0.25" stroke="green"/><polygon points="0.0,165.87162030190603 289.5444101238878,5.684341886080802e-14 " stroke-opacity="0.25" stroke="green"/><polygon points="0.0,157.07978653377046 313.02970169638377,0.0 " stroke-opacity="0.25" stroke="green"/><polygon points="-5.684341886080802e-14,150.2285249366223 336.51499326887983,0.0 " stroke-opacity="0.25" stroke="green"/><polygon points="0.0,144.739197815892 360.0002848413758,5.684341886080802e-14 " stroke-opacity="0.25" stroke="green"/><polygon points="0.0,140.2424193844639 383.48557641387185,0.0 " stroke-opacity="0.25" stroke="green"/><polygon points="5.684341886080802e-14,136.49130896384645 399.99999999999994,2.3379140152738955 " stroke-opacity="0.25" stroke="green"/><polygon points="106.46925639128055,5.684341886080802e-14 245.03332099679088,399.99999999999994 " stroke-opacity="0.25" stroke="green"/><polygon points="128.40856662048634,0.0 174.59658815565655,400.0 " stroke-opacity="0.25" stroke="green"/><polygon points="150.3478768496921,0.0 104.15985531452219,400.0 " stroke-opacity="0.25" stroke="green"/><polygon points="172.2871870788979,0.0 33.72312247338783,400.0 " stroke-opacity="0.25" stroke="green"/><polygon points="0.0,336.4101615137756 194.22649730810366,-5.684341886080802e-14 " stroke-opacity="0.25" stroke="green"/><polygon points="0.0,267.4358296526968 216.16580753730946,0.0 " stroke-opacity="0.25" stroke="green"/><polygon points="0.0,229.11675639654194 238.10511776651526,0.0 " stroke-opacity="0.25" stroke="green"/><polygon points="0.0,204.7318915971707 260.044427995721,5.684341886080802e-14 " stroke-opacity="0.25" stroke="green"/><polygon points="0.0,187.85006212068288 281.9837382249268,0.0 " stroke-opacity="0.25" stroke="green"/><polygon points="0.0,175.47005383792518 303.9230484541325,0.0 " stroke-opacity="0.25" stroke="green"/><polygon points="0.0,166.00298868052224 325.86235868333836,-5.684341886080802e-14 " stroke-opacity="0.25" stroke="green"/><polygon points="0.0,158.5289898720462 347.8016689125441,0.0 " stroke-opacity="0.25" stroke="green"/><polygon points="-5.684341886080802e-14,152.4786098842323 369.74097914174985,0.0 " stroke-opacity="0.25" stroke="green"/><polygon points="0.0,147.48046989429903 391.6802893709556,0.0 " stroke-opacity="0.25" stroke="green"/><polygon points="0.0,143.2820323027551 400.0,4.717967697244831 " stroke-opacity="0.25" stroke="green"/><polygon points="131.7523522299076,-5.684341886080802e-14 222.27292407283844,400.00000000000006 " stroke-opacity="0.25" stroke="green"/><polygon points="152.5504415215225,0.0 155.50011108396956,400.0 " stroke-opacity="0.25" stroke="green"/><polygon points="173.3485308131374,-5.684341886080802e-14 88.72729809510069,400.00000000000006 " stroke-opacity="0.25" stroke="green"/><polygon points="194.1466201047523,0.0 21.954485106231886,400.0 " stroke-opacity="0.25" stroke="green"/><polygon points="0.0,330.9858271567731 214.9447093963672,0.0 " stroke-opacity="0.25" stroke="green"/><polygon points="5.684341886080802e-14,271.4883538153131 235.74279868798203,-5.684341886080802e-14 " stroke-opacity="0.25" stroke="green"/><polygon points="0.0,235.9512824867507 256.54088797959696,0.0 " stroke-opacity="0.25" stroke="green"/><polygon points="-5.684341886080802e-14,212.3267771889308 277.33897727121183,-5.684341886080802e-14 " stroke-opacity="0.25" stroke="green"/><polygon points="0.0,195.48476715459756 298.1370665628267,0.0 " stroke-opacity="0.25" stroke="green"/><polygon points="-5.684341886080802e-14,182.8710624939213 318.9351558544416,0.0 " stroke-opacity="0.25" stroke="green"/><polygon points="0.0,173.07093334338342 339.7332451460565,0.0 " stroke-opacity="0.25" stroke="green"/><polygon points="-5.684341886080802e-14,165.23745433297765 360.5313344376714,0.0 " stroke-opacity="0.25" stroke="green"/><polygon points="0.0,158.8326188980322 381.3294237292862,0.0 " stroke-opacity="0.25" stroke="green"/><polygon points="0.0,153.49826079545636 400.0,0.8121044642648485 " stroke-opacity="0.25" stroke="green"/><polygon points="-5.684341886080802e-14,148.98670506477737 400.00000000000006,8.076148456113742 " stroke-opacity="0.25" stroke="green"/><polygon points="154.9938430139458,0.0 200.84474356804697,400.0 " stroke-opacity="0.25" stroke="green"/><polygon points="174.97162527447287,-5.684341886080802e-14 136.70554788951267,400.00000000000006 " stroke-opacity="0.25" stroke="green"/><polygon points="194.94940753499995,-5.684341886080802e-14 72.56635221097835,400.00000000000006 " stroke-opacity="0.25" stroke="green"/><polygon points="214.92718979552703,-5.684341886080802e-14 8.427156532444087,400.00000000000006 " stroke-opacity="0.25" stroke="green"/><polygon points="0.0,323.3189565667392 234.9049720560541,0.0 " stroke-opacity="0.25" stroke="green"/><polygon points="0.0,272.0679326694727 254.88275431658118,-5.684341886080802e-14 " stroke-opacity="0.25" stroke="green"/><polygon points="0.0,239.60767769638525 274.86053657710823,0.0 " stroke-opacity="0.25" stroke="green"/><polygon points="0.0,217.20495402515138 294.83831883763537,-5.684341886080802e-14 " stroke-opacity="0.25" stroke="green"/><polygon points="-5.684341886080802e-14,200.81241922574628 314.81610109816245,-5.684341886080802e-14 " stroke-opacity="0.25" stroke="green"/><polygon points="5.684341886080802e-14,188.29751885433376 334.7938833586894,0.0 " stroke-opacity="0.25" stroke="green"/><polygon points="0.0,178.42989777293806 354.7716656192165,0.0 " stroke-opacity="0.25" stroke="green"/><polygon points="0.0,170.44992877763784 374.7494478797436,-5.684341886080802e-14 " stroke-opacity="0.25" stroke="green"/><polygon points="0.0,163.86324274876853 394.72723014027065,0.0 " stroke-opacity="0.25" stroke="green"/><polygon points="-5.684341886080802e-14,158.33424133902275 400.00000000000006,5.614369040012946 " stroke-opacity="0.25" stroke="green"/><polygon points="-5.684341886080802e-14,153.6270959422192 400.00000000000006,12.257713184003535 " stroke-opacity="0.25" stroke="green"/><polygon points="176.91315896843105,0.0 180.1485360472377,400.0 " stroke-opacity="0.25" stroke="green"/><polygon points="196.3376302708666,0.0 117.78575976047092,400.0 " stroke-opacity="0.25" stroke="green"/><polygon points="215.76210157330217,0.0 55.42298347370411,400.0 " stroke-opacity="0.25" stroke="green"/><polygon points="0.0,388.5352546496614 235.18657287573774,0.0 " stroke-opacity="0.25" stroke="green"/><polygon points="5.684341886080802e-14,314.4184544780467 254.6110441781733,-5.684341886080802e-14 " stroke-opacity="0.25" stroke="green"/><polygon points="0.0,270.1848005891284 274.03551548060886,0.0 " stroke-opacity="0.25" stroke="green"/><polygon points="0.0,240.79355511851338 293.45998678304437,0.0 " stroke-opacity="0.25" stroke="green"/><polygon points="0.0,219.84753407130594 312.88445808547993,-5.684341886080802e-14 " stroke-opacity="0.25" stroke="green"/><polygon points="0.0,204.16404046718134 332.30892938791555,0.0 " stroke-opacity="0.25" stroke="green"/><polygon points="0.0,191.98115417660625 351.733400690351,0.0 " stroke-opacity="0.25" stroke="green"/><polygon points="0.0,182.24452214783668 371.15787199278657,-5.684341886080802e-14 " stroke-opacity="0.25" stroke="green"/><polygon points="-5.684341886080802e-14,174.28457621113455 390.58234329522213,0.0 " stroke-opacity="0.25" stroke="green"/><polygon points="0.0,167.65567577240128 400.0,4.091881412619301 " stroke-opacity="0.25" stroke="green"/><polygon points="0.0,162.04971894484837 400.0,11.106157760022057 " stroke-opacity="0.25" stroke="green"/><polygon points="-5.684341886080802e-14,157.24688239241237 400.00000000000006,17.115555239613172 " stroke-opacity="0.25" stroke="green"/><polygon points="198.08381025857148,0.0 159.68484199976086,400.0 " stroke-opacity="0.25" stroke="green"/><polygon points="217.18846757027828,0.0 98.34883694638631,400.0 " stroke-opacity="0.25" stroke="green"/><polygon points="236.2931248819851,0.0 37.01283189301182,400.0 " stroke-opacity="0.25" stroke="green"/><polygon points="0.0,365.21794639293176 255.3977821936919,0.0 " stroke-opacity="0.25" stroke="green"/><polygon points="0.0,304.8658446658394 274.5024395053987,-5.684341886080802e-14 " stroke-opacity="0.25" stroke="green"/><polygon points="5.684341886080802e-14,266.55068308859876 293.6070968171055,0.0 " stroke-opacity="0.25" stroke="green"/><polygon points="0.0,240.0660127235034 312.71175412881234,0.0 " stroke-opacity="0.25" stroke="green"/><polygon points="-5.684341886080802e-14,220.66530743953965 331.8164114405191,0.0 " stroke-opacity="0.25" stroke="green"/><polygon points="0.0,205.8416663795744 350.92106875222595,5.684341886080802e-14 " stroke-opacity="0.25" stroke="green"/><polygon points="0.0,194.14624766907696 370.02572606393267,5.684341886080802e-14 " stroke-opacity="0.25" stroke="green"/><polygon points="5.684341886080802e-14,184.6833419763865 389.1303833756395,-5.684341886080802e-14 " stroke-opacity="0.25" stroke="green"/><polygon points="0.0,176.8694056638454 400.0,3.567863134767123 " stroke-opacity="0.25" stroke="green"/><polygon points="-5.684341886080802e-14,170.30796791881326 400.00000000000006,10.895707633843728 " stroke-opacity="0.25" stroke="green"/><polygon points="0.0,164.72022811948244 400.0,17.136121692759332 " stroke-opacity="0.25" stroke="green"/><polygon points="0.0,159.90441644701377 400.0,22.514442793101637 " stroke-opacity="0.25" stroke="green"/><polygon points="218.99999999999997,0.0 139.00000000000003,400.0 " stroke-opacity="0.25" stroke="green"/><polygon points="238.0,0.0 78.0,400.0 " stroke-opacity="0.25" stroke="green"/><polygon points="257.0,5.684341886080802e-14 17.00000000000003,399.99999999999994 " stroke-opacity="0.25" stroke="green"/><polygon points="-5.684341886080802e-14,345.0000000000001 276.0,0.0 " stroke-opacity="0.25" stroke="green"/><polygon points="-5.684341886080802e-14,295.00000000000006 295.0,0.0 " stroke-opacity="0.25" stroke="green"/><polygon points="-5.684341886080802e-14,261.6666666666667 314.0,5.684341886080802e-14 " stroke-opacity="0.25" stroke="green"/><polygon points="-5.684341886080802e-14,237.8571428571429 333.0,0.0 " stroke-opacity="0.25" stroke="green"/><polygon points="-5.684341886080802e-14,220.00000000000003 351.99999999999994,0.0 " stroke-opacity="0.25" stroke="green"/><polygon points="0.0,206.11111111111114 371.0,0.0 " stroke-opacity="0.25" stroke="green"/><polygon points="0.0,195.00000000000006 389.9999999999999,0.0 " stroke-opacity="0.25" stroke="green"/><polygon points="0.0,185.90909090909096 400.0,4.090909090909065 " stroke-opacity="0.25" stroke="green"/><polygon points="0.0,178.33333333333337 400.0,11.666666666666657 " stroke-opacity="0.25" stroke="green"/><polygon points="0.0,171.92307692307696 400.0,18.076923076923038 " stroke-opacity="0.25" stroke="green"/><polygon points="0.0,166.42857142857147 400.0,23.571428571428527 " stroke-opacity="0.25" stroke="green"/><polygon points="0.0,161.66666666666669 400.0,28.333333333333286 " stroke-opacity="0.25" stroke="green"/><polygon points="240.12550436484202,0.0 117.6431478934903,400.0 " stroke-opacity="0.25" stroke="green"/><polygon points="259.23016167654885,0.0 56.30714284011583,400.0 " stroke-opacity="0.25" stroke="green"/><polygon points="0.0,392.9011901709699 278.3348189882556,0.0 " stroke-opacity="0.25" stroke="green"/><polygon points="-5.684341886080802e-14,327.0323530323823 297.43947629996245,0.0 " stroke-opacity="0.25" stroke="green"/><polygon points="-5.684341886080802e-14,285.01761810270295 316.5441336116693,0.0 " stroke-opacity="0.25" stroke="green"/><polygon points="0.0,255.8856177741342 335.64879092337605,0.0 " stroke-opacity="0.25" stroke="green"/><polygon points="0.0,234.4987684453139 354.7534482350829,-5.684341886080802e-14 " stroke-opacity="0.25" stroke="green"/><polygon points="-5.684341886080802e-14,218.13074978777988 373.8581055467897,0.0 " stroke-opacity="0.25" stroke="green"/><polygon points="5.684341886080802e-14,205.2004363624272 392.96276285849643,0.0 " stroke-opacity="0.25" stroke="green"/><polygon points="0.0,194.72774014701739 400.0,5.7026140483943095 " stroke-opacity="0.25" stroke="green"/><polygon points="0.0,186.07280342251187 400.0,13.452345707163971 " stroke-opacity="0.25" stroke="green"/><polygon points="0.0,178.80015272133443 400.0,19.964362279452473 " stroke-opacity="0.25" stroke="green"/><polygon points="0.0,172.60312770499678 400.0,25.5132510221421 " stroke-opacity="0.25" stroke="green"/><polygon points="0.0,167.25953209652465 400.0,30.297969082689804 " stroke-opacity="0.25" stroke="green"/><polygon points="5.684341886080802e-14,162.60442695244308 399.99999999999994,34.46620472187661 " stroke-opacity="0.25" stroke="green"/><polygon points="261.9357836364399,0.0 95.12591137922885,400.0 " stroke-opacity="0.25" stroke="green"/><polygon points="281.36025493887547,0.0 32.76313509246208,400.0 " stroke-opacity="0.25" stroke="green"/><polygon points="-5.684341886080802e-14,364.1633877243626 300.78472624131103,5.684341886080802e-14 " stroke-opacity="0.25" stroke="green"/><polygon points="-5.684341886080802e-14,310.75327448200517 320.20919754374654,0.0 " stroke-opacity="0.25" stroke="green"/><polygon points="0.0,275.0299221670789 339.6336688461821,0.0 " stroke-opacity="0.25" stroke="green"/><polygon points="0.0,249.45588604802205 359.05814014861767,5.684341886080802e-14 " stroke-opacity="0.25" stroke="green"/><polygon points="5.684341886080802e-14,230.2438998512592 378.48261145105323,0.0 " stroke-opacity="0.25" stroke="green"/><polygon points="0.0,215.28256069535328 397.9070827534888,5.684341886080802e-14 " stroke-opacity="0.25" stroke="green"/><polygon points="-5.684341886080802e-14,203.3016990623035 400.00000000000006,8.443009766971443 " stroke-opacity="0.25" stroke="green"/><polygon points="-5.684341886080802e-14,193.49137018794613 400.00000000000006,16.283630439709498 " stroke-opacity="0.25" stroke="green"/><polygon points="0.0,185.31072381594424 400.0,22.82177466322608 " stroke-opacity="0.25" stroke="green"/><polygon points="0.0,178.38482029444688 400.0,28.357102074112532 " stroke-opacity="0.25" stroke="green"/><polygon points="0.0,172.44554374475152 400.0,33.10389650812684 " stroke-opacity="0.25" stroke="green"/><polygon points="-5.684341886080802e-14,167.29608779621623 400.00000000000006,37.21944974599768 " stroke-opacity="0.25" stroke="green"/><polygon points="-5.684341886080802e-14,162.78872632469228 400.00000000000006,40.82182760567454 " stroke-opacity="0.25" stroke="green"/><polygon points="284.96172150710834,-5.684341886080802e-14 70.87686507488448,400.00000000000006 " stroke-opacity="0.25" stroke="green"/><polygon points="304.9395037676354,0.0 6.737669396350185,400.0 " stroke-opacity="0.25" stroke="green"/><polygon points="-5.684341886080802e-14,339.94381188275037 324.91728602816244,-5.684341886080802e-14 " stroke-opacity="0.25" stroke="green"/><polygon points="0.0,295.7706724042515 344.89506828868946,0.0 " stroke-opacity="0.25" stroke="green"/><polygon points="0.0,265.0956432385501 364.87285054921665,0.0 " stroke-opacity="0.25" stroke="green"/><polygon points="5.684341886080802e-14,242.55174295477556 384.8506328097436,-5.684341886080802e-14 " stroke-opacity="0.25" stroke="green"/><polygon points="-5.684341886080802e-14,225.28430284851254 400.00000000000006,2.686980662610722 " stroke-opacity="0.25" stroke="green"/><polygon points="0.0,211.63494265607795 400.0,12.35824284722159 " stroke-opacity="0.25" stroke="green"/><polygon points="0.0,200.5743449494535 400.0,20.19523585137435 " stroke-opacity="0.25" stroke="green"/><polygon points="0.0,191.4298176283774 400.0,26.674596057978192 " stroke-opacity="0.25" stroke="green"/><polygon points="-5.684341886080802e-14,183.74315645034898 400.00000000000006,32.12098435229447 " stroke-opacity="0.25" stroke="green"/><polygon points="0.0,177.19146950009235 400.0,36.7631859906208 " stroke-opacity="0.25" stroke="green"/><polygon points="0.0,171.54066239521651 400.0,40.76706868515225 " stroke-opacity="0.25" stroke="green"/><polygon points="0.0,166.61687699721455 400.0,44.25581972208573 " stroke-opacity="0.25" stroke="green"/><polygon points="0.0,162.28828774433632 400.0,47.32284418065916 " stroke-opacity="0.25" stroke="green"/><polygon points="309.843826353322,-5.684341886080802e-14 44.18144994942398,400.00000000000006 " stroke-opacity="0.25" stroke="green"/><polygon points="0.0,374.41762778004795 330.6419156449369,0.0 " stroke-opacity="0.25" stroke="green"/><polygon points="5.684341886080802e-14,318.9080504339078 351.44000493655176,0.0 " stroke-opacity="0.25" stroke="green"/><polygon points="-5.684341886080802e-14,281.79837091622977 372.2380942281667,0.0 " stroke-opacity="0.25" stroke="green"/><polygon points="0.0,255.24068197911654 393.03618351978156,0.0 " stroke-opacity="0.25" stroke="green"/><polygon points="0.0,235.29457784690914 400.0,7.865780083564999 " stroke-opacity="0.25" stroke="green"/><polygon points="0.0,219.7644142910219 400.0,17.511261094908974 " stroke-opacity="0.25" stroke="green"/><polygon points="0.0,207.32985645090685 400.0,25.234121907010433 " stroke-opacity="0.25" stroke="green"/><polygon points="-5.684341886080802e-14,197.14922553571625 400.00000000000006,31.55711276429264 " stroke-opacity="0.25" stroke="green"/><polygon points="5.684341886080802e-14,188.6606170434161 399.99999999999994,36.82922156923678 " stroke-opacity="0.25" stroke="green"/><polygon points="0.0,181.47457335218215 400.0,41.29233283790137 " stroke-opacity="0.25" stroke="green"/><polygon points="5.684341886080802e-14,175.31264337093404 399.99999999999994,45.11938709998151 " stroke-opacity="0.25" stroke="green"/><polygon points="5.684341886080802e-14,169.97046326640873 399.99999999999994,48.43731073754972 " stroke-opacity="0.25" stroke="green"/><polygon points="0.0,165.29465283287718 400.0,51.34136519821095 " stroke-opacity="0.25" stroke="green"/><polygon points="0.0,161.16784995976684 400.0,53.90444179472601 " stroke-opacity="0.25" stroke="green"/><polygon points="337.4093640671308,5.684341886080802e-14 14.093213320940635,399.99999999999994 " stroke-opacity="0.25" stroke="green"/><polygon points="-5.684341886080802e-14,345.7834230632087 359.34867429633664,0.0 " stroke-opacity="0.25" stroke="green"/><polygon points="5.684341886080802e-14,300.18643705171615 381.2879845255424,0.0 " stroke-opacity="0.25" stroke="green"/><polygon points="0.0,268.6192928899137 400.0,2.1499378793170365 " stroke-opacity="0.25" stroke="green"/><polygon points="0.0,245.47005383792524 400.0,14.529946162074737 " stroke-opacity="0.25" stroke="green"/><polygon points="0.0,227.76769456287516 400.0,23.997011319477764 " stroke-opacity="0.25" stroke="green"/><polygon points="0.0,213.79214776678307 400.0,31.471010127953747 " stroke-opacity="0.25" stroke="green"/><polygon points="-5.684341886080802e-14,202.4786098842323 400.00000000000006,37.521390115767645 " stroke-opacity="0.25" stroke="green"/><polygon points="0.0,193.13264380734253 400.0,42.519530105700966 " stroke-opacity="0.25" stroke="green"/><polygon points="0.0,185.28203230275514 400.0,46.71796769724486 " stroke-opacity="0.25" stroke="green"/><polygon points="-5.684341886080802e-14,178.5944743544029 400.00000000000006,50.294414534485924 " stroke-opacity="0.25" stroke="green"/><polygon points="0.0,172.8293381920303 400.0,53.377558359693836 " stroke-opacity="0.25" stroke="green"/><polygon points="0.0,167.80809056673803 400.0,56.06287717519746 " stroke-opacity="0.25" stroke="green"/><polygon points="0.0,163.39547901723873 400.0,58.42270280094306 " stroke-opacity="0.25" stroke="green"/><polygon points="5.684341886080802e-14,159.4871659305394 399.99999999999994,60.51283406946061 " stroke-opacity="0.25" stroke="green"/><polygon points="0.0,378.7332251590753 368.7937971735681,0.0 " stroke-opacity="0.25" stroke="green"/><polygon points="-5.684341886080802e-14,321.28486287575896 392.27908874606413,-5.684341886080802e-14 " stroke-opacity="0.25" stroke="green"/><polygon points="-5.684341886080802e-14,283.1828806463921 400.00000000000006,10.737337880639643 " stroke-opacity="0.25" stroke="green"/><polygon points="0.0,256.06299587523836 400.0,22.880810652117418 " stroke-opacity="0.25" stroke="green"/><polygon points="0.0,235.77524025555454 400.0,31.965060457782954 " stroke-opacity="0.25" stroke="green"/><polygon points="-5.684341886080802e-14,220.02667760519833 400.00000000000006,39.016795498262525 " stroke-opacity="0.25" stroke="green"/><polygon points="-5.684341886080802e-14,207.44718216312205 400.00000000000006,44.64951708498049 " stroke-opacity="0.25" stroke="green"/><polygon points="0.0,197.1676374001894 400.0,49.25238958924112 " stroke-opacity="0.25" stroke="green"/><polygon points="-5.684341886080802e-14,188.61011428942388 400.00000000000006,53.08419233338131 " stroke-opacity="0.25" stroke="green"/><polygon points="0.0,181.37534747819052 400.0,56.32370439331643 " stroke-opacity="0.25" stroke="green"/><polygon points="5.684341886080802e-14,175.17864725480268 399.99999999999994,59.09840130190213 " stroke-opacity="0.25" stroke="green"/><polygon points="0.0,169.8115515310867 400.0,61.501626143483435 " stroke-opacity="0.25" stroke="green"/><polygon points="0.0,165.1179134337722 400.0,63.603296814832845 " stroke-opacity="0.25" stroke="green"/><polygon points="0.0,160.97845899897152 400.0,65.45682062741344 " stroke-opacity="0.25" stroke="green"/><polygon points="0.0,157.30050982646662 400.0,67.10369619521447 " stroke-opacity="0.25" stroke="green"/><polygon points="0.0,346.8467042372016 400.0,4.8291432214961105 " stroke-opacity="0.25" stroke="green"/><polygon points="-5.684341886080802e-14,299.734274242345 400.00000000000006,21.6972145763325 " stroke-opacity="0.25" stroke="green"/><polygon points="5.684341886080802e-14,267.47056974785977 399.99999999999994,33.24886813450712 " stroke-opacity="0.25" stroke="green"/><polygon points="-5.684341886080802e-14,243.991299899236 400.00000000000006,41.65535447387194 " stroke-opacity="0.25" stroke="green"/><polygon points="-5.684341886080802e-14,226.13873649507502 400.00000000000006,48.047262371660366 " stroke-opacity="0.25" stroke="green"/><polygon points="0.0,212.1066794468478 400.0,53.07128128918325 " stroke-opacity="0.25" stroke="green"/><polygon points="-5.684341886080802e-14,200.78727031076377 400.00000000000006,57.12406738030393 " stroke-opacity="0.25" stroke="green"/><polygon points="0.0,191.46323492784552 400.0,60.462432524518675 " stroke-opacity="0.25" stroke="green"/><polygon points="-5.684341886080802e-14,183.64969645568695 400.00000000000006,63.25998137726347 " stroke-opacity="0.25" stroke="green"/><polygon points="-5.684341886080802e-14,177.00710682410502 400.00000000000006,65.6382852749536 " stroke-opacity="0.25" stroke="green"/><polygon points="0.0,171.29059418837122 400.0,67.68501780500793 " stroke-opacity="0.25" stroke="green"/><polygon points="0.0,166.31911503200644 400.0,69.46499954566107 " stroke-opacity="0.25" stroke="green"/><polygon points="0.0,161.95592960935727 400.0,71.02718861236099 " stroke-opacity="0.25" stroke="green"/><polygon points="0.0,158.09583108861386 400.0,72.4092531183036 " stroke-opacity="0.25" stroke="green"/><polygon points="0.0,154.65655144131733 400.0,73.64064819824681 " stroke-opacity="0.25" stroke="green"/><polygon points="0.0,319.6275674996809 400.0,35.84056542599069 " stroke-opacity="0.25" stroke="green"/><polygon points="5.684341886080802e-14,280.3276358561338 399.99999999999994,46.1908610762909 " stroke-opacity="0.25" stroke="green"/><polygon points="0.0,252.73155949254985 400.0,53.45875028643036 " stroke-opacity="0.25" stroke="green"/><polygon points="0.0,232.2886876520856 400.0,58.84272320040728 " stroke-opacity="0.25" stroke="green"/><polygon points="-5.684341886080802e-14,216.5368481439155 400.00000000000006,62.99123412974902 " stroke-opacity="0.25" stroke="green"/><polygon points="0.0,204.0275542868242 400.0,66.28576631804202 " stroke-opacity="0.25" stroke="green"/><polygon points="0.0,193.8530151711545 400.0,68.96540171557626 " stroke-opacity="0.25" stroke="green"/><polygon points="0.0,185.41537921316254 400.0,71.18759455669692 " stroke-opacity="0.25" stroke="green"/><polygon points="0.0,178.3048616911264 400.0,73.06026851570617 " stroke-opacity="0.25" stroke="green"/><polygon points="0.0,172.23118589264732 400.0,74.65987282974199 " stroke-opacity="0.25" stroke="green"/><polygon points="-5.684341886080802e-14,166.98297756636353 400.00000000000006,76.04207645045298 " stroke-opacity="0.25" stroke="green"/><polygon points="0.0,162.40266189125424 400.0,77.24837934784921 " stroke-opacity="0.25" stroke="green"/><polygon points="0.0,158.37037101485592 400.0,78.31035072981682 " stroke-opacity="0.25" stroke="green"/><polygon points="0.0,154.79330182145551 400.0,79.25243185222395 " stroke-opacity="0.25" stroke="green"/><polygon points="-5.684341886080802e-14,151.59848545130188 400.00000000000006,80.09384028721642 " stroke-opacity="0.25" stroke="green"/><polygon points="0.0,295.69417660632024 400.0,62.681152814154416 " stroke-opacity="0.25" stroke="green"/><polygon points="0.0,262.4946140625237 400.0,68.02745436925437 " stroke-opacity="0.25" stroke="green"/><polygon points="0.0,238.71993785475712 400.0,71.85601651412915 " stroke-opacity="0.25" stroke="green"/><polygon points="0.0,220.85562214433324 400.0,74.73280197590873 " stroke-opacity="0.25" stroke="green"/><polygon points="0.0,206.9413667740769 400.0,76.97348828091428 " stroke-opacity="0.25" stroke="green"/><polygon points="0.0,195.7974723135022 400.0,78.76804868230045 " stroke-opacity="0.25" stroke="green"/><polygon points="0.0,186.6714698816356 400.0,80.23765723298455 " stroke-opacity="0.25" stroke="green"/><polygon points="0.0,179.06077472293074 400.0,81.46324782047193 " stroke-opacity="0.25" stroke="green"/><polygon points="0.0,172.6169090904595 400.0,82.50093766371278 " stroke-opacity="0.25" stroke="green"/><polygon points="-5.684341886080802e-14,167.09064070220217 400.00000000000006,83.39086195831949 " stroke-opacity="0.25" stroke="green"/><polygon points="-5.684341886080802e-14,162.29900005431162 400.00000000000006,84.1624852534609 " stroke-opacity="0.25" stroke="green"/><polygon points="0.0,158.10463148772072 400.0,84.83792665907114 " stroke-opacity="0.25" stroke="green"/><polygon points="5.684341886080802e-14,154.40241283689872 399.99999999999994,85.43411455474296 " stroke-opacity="0.25" stroke="green"/><polygon points="0.0,151.11052405225269 400.0,85.96422485680952 " stroke-opacity="0.25" stroke="green"/><polygon points="0.0,148.16432958081216 400.0,86.43866617101388 " stroke-opacity="0.25" stroke="green"/><polygon points="0.0,274.1070519703813 400.0,86.49426217194767 " stroke-opacity="0.25" stroke="green"/><polygon points="-5.684341886080802e-14,245.81266681270762 400.00000000000006,87.83795366544005 " stroke-opacity="0.25" stroke="green"/><polygon points="0.0,225.23830753852374 400.0,88.81502354650375 " stroke-opacity="0.25" stroke="green"/><polygon points="5.684341886080802e-14,209.60369509591843 399.99999999999994,89.55750639693893 " stroke-opacity="0.25" stroke="green"/><polygon points="-5.684341886080802e-14,197.32050807568885 400.00000000000006,90.14083110323958 " stroke-opacity="0.25" stroke="green"/><polygon points="0.0,187.41544999767456 400.0,90.61121921055519 " stroke-opacity="0.25" stroke="green"/><polygon points="-5.684341886080802e-14,179.2588379982386 400.00000000000006,90.99857416095558 " stroke-opacity="0.25" stroke="green"/><polygon points="0.0,172.4252637885867 400.0,91.32309846090023 " stroke-opacity="0.25" stroke="green"/><polygon points="0.0,166.61697226378118 400.0,91.59893240710947 " stroke-opacity="0.25" stroke="green"/><polygon points="-5.684341886080802e-14,161.61932135885797 400.00000000000006,91.83626928405408 " stroke-opacity="0.25" stroke="green"/><polygon points="0.0,157.2736743021422 400.0,92.04264270235913 " stroke-opacity="0.25" stroke="green"/><polygon points="0.0,153.46025177150398 400.0,92.22374094453536 " stroke-opacity="0.25" stroke="green"/><polygon points="0.0,150.08692094088323 400.0,92.38393936964981 " stroke-opacity="0.25" stroke="green"/><polygon points="0.0,147.08165420792403 400.0,92.52665854598989 " stroke-opacity="0.25" stroke="green"/><polygon points="0.0,144.3873287046854 400.0,92.65461122067171 " stroke-opacity="0.25" stroke="green"/><polygon points="-5.684341886080802e-14,254.1938617781413 400.00000000000006,108.08877364393217 " stroke-opacity="0.25" stroke="green"/><polygon points="0.0,229.95505666456052 400.0,106.09588126738325 " stroke-opacity="0.25" stroke="green"/><polygon points="0.0,212.1220862726758 400.0,104.62967075994789 " stroke-opacity="0.25" stroke="green"/><polygon points="0.0,198.45193988113442 400.0,103.50572383259923 " stroke-opacity="0.25" stroke="green"/><polygon points="0.0,187.63934700878298 400.0,102.61672234077392 " stroke-opacity="0.25" stroke="green"/><polygon points="0.0,178.8730962831316 400.0,101.89596922773043 " stroke-opacity="0.25" stroke="green"/><polygon points="0.0,171.6224848022926 400.0,101.29983058649906 " stroke-opacity="0.25" stroke="green"/><polygon points="0.0,165.52571940906554 400.0,100.79856011475614 " stroke-opacity="0.25" stroke="green"/><polygon points="0.0,160.3276698086483 400.0,100.3711812331218 " stroke-opacity="0.25" stroke="green"/><polygon points="0.0,155.84325926771885 400.0,100.00247710193808 " stroke-opacity="0.25" stroke="green"/><polygon points="0.0,151.9349650034825 400.0,99.68114072384479 " stroke-opacity="0.25" stroke="green"/><polygon points="-5.684341886080802e-14,148.4984668035158 400.00000000000006,99.39859498643548 " stroke-opacity="0.25" stroke="green"/><polygon points="0.0,145.4531971493466 400.0,99.14821570206516 " stroke-opacity="0.25" stroke="green"/><polygon points="0.0,142.73594498562193 400.0,98.92480571560452 " stroke-opacity="0.25" stroke="green"/><polygon points="0.0,140.29642074846757 400.0,98.72423026512953 " stroke-opacity="0.25" stroke="green"/><polygon points="0.0,235.44864939066704 400.0,128.0631335622819 " stroke-opacity="0.25" stroke="green"/><polygon points="0.0,214.65771315717726 400.0,123.16872194241171 " stroke-opacity="0.25" stroke="green"/><polygon points="5.684341886080802e-14,199.22852512952355 399.99999999999994,119.53652393460533 " stroke-opacity="0.25" stroke="green"/><polygon points="5.684341886080802e-14,187.3238808008473 399.99999999999994,116.73404169530912 " stroke-opacity="0.25" stroke="green"/><polygon points="0.0,177.85989244071916 400.0,114.50611631090459 " stroke-opacity="0.25" stroke="green"/><polygon points="0.0,170.15578129226532 400.0,112.69248508707224 " stroke-opacity="0.25" stroke="green"/><polygon points="0.0,163.76241892335912 400.0,111.1874183254316 " stroke-opacity="0.25" stroke="green"/><polygon points="0.0,158.37152158461876 400.0,109.9183426917063 " stroke-opacity="0.25" stroke="green"/><polygon points="-5.684341886080802e-14,153.76445363023439 400.00000000000006,108.83378898636862 " stroke-opacity="0.25" stroke="green"/><polygon points="0.0,149.78184921003785 400.0,107.89624076186115 " stroke-opacity="0.25" stroke="green"/><polygon points="0.0,146.30480277010616 400.0,107.07770636267342 " stroke-opacity="0.25" stroke="green"/><polygon points="0.0,143.24279516022992 400.0,106.35687660024217 " stroke-opacity="0.25" stroke="green"/><polygon points="0.0,140.5256998428869 400.0,105.7172429279462 " stroke-opacity="0.25" stroke="green"/><polygon points="-5.684341886080802e-14,138.09834639485877 400.00000000000006,105.14581763049257 " stroke-opacity="0.25" stroke="green"/><polygon points="5.684341886080802e-14,135.9167351616552 399.99999999999994,104.63224271256122 " stroke-opacity="0.25" stroke="green"/><polygon points="0.0,217.47008452144053 400.0,146.88073198589655 " stroke-opacity="0.25" stroke="green"/><polygon points="0.0,199.6969396919273 400.0,139.35167893551613 " stroke-opacity="0.25" stroke="green"/><polygon points="0.0,186.42860666106944 400.0,133.73095259599077 " stroke-opacity="0.25" stroke="green"/><polygon points="5.684341886080802e-14,176.14502765746607 399.99999999999994,129.37462665544376 " stroke-opacity="0.25" stroke="green"/><polygon points="0.0,167.94088478891928 400.0,125.89919068264855 " stroke-opacity="0.25" stroke="green"/><polygon points="0.0,161.2433694539304 400.0,123.0619917093339 " stroke-opacity="0.25" stroke="green"/><polygon points="0.0,155.67236373220902 400.0,120.70200432245556 " stroke-opacity="0.25" stroke="green"/><polygon points="0.0,150.96570041200653 400.0,118.70816934457142 " stroke-opacity="0.25" stroke="green"/><polygon points="0.0,146.93670638755484 400.0,117.00140838354045 " stroke-opacity="0.25" stroke="green"/><polygon points="-5.684341886080802e-14,143.4488533090333 400.00000000000006,115.52388535022139 " stroke-opacity="0.25" stroke="green"/><polygon points="-5.684341886080802e-14,140.3999796004713 400.00000000000006,114.23232259552223 " stroke-opacity="0.25" stroke="green"/><polygon points="-5.684341886080802e-14,137.7121171997515 400.00000000000006,113.0936913177566 " stroke-opacity="0.25" stroke="green"/><polygon points="-5.684341886080802e-14,135.32473009526245 400.00000000000006,112.08234727403712 " stroke-opacity="0.25" stroke="green"/><polygon points="0.0,133.19010041126438 400.0,111.1780762354615 " stroke-opacity="0.25" stroke="green"/><polygon points="0.0,131.27010627106608 400.0,110.36472902670148 " stroke-opacity="0.25" stroke="green"/><polygon points="5.684341886080802e-14,199.9210501315758 399.99999999999994,164.9184390708793 " stroke-opacity="0.25" stroke="green"/><polygon points="-5.684341886080802e-14,184.87344844384933 400.00000000000006,154.89085337242528 " stroke-opacity="0.25" stroke="green"/><polygon points="0.0,173.6006714810605 400.0,147.37877673724145 " stroke-opacity="0.25" stroke="green"/><polygon points="0.0,164.84060322177297 400.0,141.54114646118484 " stroke-opacity="0.25" stroke="green"/><polygon points="0.0,157.83736065181589 400.0,136.8742489385992 " stroke-opacity="0.25" stroke="green"/><polygon points="0.0,152.11061344692908 400.0,133.05799638473056 " stroke-opacity="0.25" stroke="green"/><polygon points="-5.684341886080802e-14,147.34050768532396 400.00000000000006,129.87924103834212 " stroke-opacity="0.25" stroke="green"/><polygon points="5.684341886080802e-14,143.3058138345022 399.99999999999994,127.19055753942014 " stroke-opacity="0.25" stroke="green"/><polygon points="0.0,139.84863470739887 400.0,124.88672463027216 " stroke-opacity="0.25" stroke="green"/><polygon points="0.0,136.8532560610268 400.0,122.89063138570452 " stroke-opacity="0.25" stroke="green"/><polygon points="5.684341886080802e-14,134.23294182109566 399.99999999999994,121.14447767011141 " stroke-opacity="0.25" stroke="green"/><polygon points="-5.684341886080802e-14,131.9213973367529 400.00000000000006,119.60408532762659 " stroke-opacity="0.25" stroke="green"/><polygon points="0.0,129.86708255378676 400.0,118.23510853216848 " stroke-opacity="0.25" stroke="green"/><polygon points="-5.684341886080802e-14,128.02932362050208 400.00000000000006,117.01044259675616 " stroke-opacity="0.25" stroke="green"/><polygon points="5.684341886080802e-14,126.37559261160212 399.99999999999994,115.90841120610197 " stroke-opacity="0.25" stroke="green"/><polygon points="0.0,182.5 400.0,182.5 " stroke-opacity="0.25" stroke="green"/><polygon points="0.0,170.0 400.0,170.0 " stroke-opacity="0.25" stroke="green"/><polygon points="0.0,160.625 400.0,160.625 " stroke-opacity="0.25" stroke="green"/><polygon points="0.0,153.33333333333334 400.0,153.33333333333334 " stroke-opacity="0.25" stroke="green"/><polygon points="0.0,147.5 400.0,147.5 " stroke-opacity="0.25" stroke="green"/><polygon points="0.0,142.72727272727275 400.0,142.72727272727275 " stroke-opacity="0.25" stroke="green"/><polygon points="5.684341886080802e-14,138.75 399.99999999999994,138.75 " stroke-opacity="0.25" stroke="green"/><polygon points="0.0,135.3846153846154 400.0,135.3846153846154 " stroke-opacity="0.25" stroke="green"/><polygon points="0.0,132.5 400.0,132.5 " stroke-opacity="0.25" stroke="green"/><polygon points="0.0,130.0 400.0,130.0 " stroke-opacity="0.25" stroke="green"/><polygon points="0.0,127.8125 400.0,127.8125 " stroke-opacity="0.25" stroke="green"/><polygon points="0.0,125.88235294117646 400.0,125.88235294117646 " stroke-opacity="0.25" stroke="green"/><polygon points="0.0,124.16666666666667 400.0,124.16666666666667 " stroke-opacity="0.25" stroke="green"/><polygon points="0.0,122.63157894736842 400.0,122.63157894736842 " stroke-opacity="0.25" stroke="green"/><polygon points="0.0,121.25 400.0,121.25 " stroke-opacity="0.25" stroke="green"/><polygon points="0.0,164.9184390708795 400.0,199.92105013157558 " stroke-opacity="0.25" stroke="green"/><polygon points="-5.684341886080802e-14,154.89085337242548 400.00000000000006,184.87344844384913 " stroke-opacity="0.25" stroke="green"/><polygon points="0.0,147.37877673724162 400.0,173.60067148106032 " stroke-opacity="0.25" stroke="green"/><polygon points="0.0,141.541146461185 400.0,164.8406032217728 " stroke-opacity="0.25" stroke="green"/><polygon points="0.0,136.87424893859938 400.0,157.83736065181574 " stroke-opacity="0.25" stroke="green"/><polygon points="0.0,133.05799638473073 400.0,152.11061344692894 " stroke-opacity="0.25" stroke="green"/><polygon points="-5.684341886080802e-14,129.87924103834223 400.00000000000006,147.3405076853238 " stroke-opacity="0.25" stroke="green"/><polygon points="5.684341886080802e-14,127.1905575394203 399.99999999999994,143.30581383450206 " stroke-opacity="0.25" stroke="green"/><polygon points="0.0,124.8867246302723 400.0,139.84863470739873 " stroke-opacity="0.25" stroke="green"/><polygon points="0.0,122.89063138570467 400.0,136.85325606102666 " stroke-opacity="0.25" stroke="green"/><polygon points="5.684341886080802e-14,121.14447767011156 399.99999999999994,134.23294182109552 " stroke-opacity="0.25" stroke="green"/><polygon points="0.0,119.60408532762672 400.0,131.92139733675282 " stroke-opacity="0.25" stroke="green"/><polygon points="0.0,118.2351085321686 400.0,129.86708255378664 " stroke-opacity="0.25" stroke="green"/><polygon points="-5.684341886080802e-14,117.01044259675628 400.00000000000006,128.02932362050197 " stroke-opacity="0.25" stroke="green"/><polygon points="5.684341886080802e-14,115.90841120610212 399.99999999999994,126.375592611602 " stroke-opacity="0.25" stroke="green"/><polygon points="0.0,146.88073198589677 400.0,217.47008452144033 " stroke-opacity="0.25" stroke="green"/><polygon points="5.684341886080802e-14,139.35167893551636 399.99999999999994,199.6969396919271 " stroke-opacity="0.25" stroke="green"/><polygon points="-5.684341886080802e-14,133.73095259599097 400.00000000000006,186.42860666106924 " stroke-opacity="0.25" stroke="green"/><polygon points="0.0,129.37462665544393 400.0,176.1450276574659 " stroke-opacity="0.25" stroke="green"/><polygon points="5.684341886080802e-14,125.89919068264874 399.99999999999994,167.9408847889191 " stroke-opacity="0.25" stroke="green"/><polygon points="0.0,123.06199170933407 400.0,161.24336945393026 " stroke-opacity="0.25" stroke="green"/><polygon points="0.0,120.7020043224557 400.0,155.67236373220885 " stroke-opacity="0.25" stroke="green"/><polygon points="0.0,118.70816934457157 400.0,150.96570041200638 " stroke-opacity="0.25" stroke="green"/><polygon points="-5.684341886080802e-14,117.00140838354059 400.00000000000006,146.93670638755472 " stroke-opacity="0.25" stroke="green"/><polygon points="-5.684341886080802e-14,115.5238853502215 400.00000000000006,143.44885330903315 " stroke-opacity="0.25" stroke="green"/><polygon points="0.0,114.23232259552236 400.0,140.3999796004712 " stroke-opacity="0.25" stroke="green"/><polygon points="-5.684341886080802e-14,113.09369131775672 400.00000000000006,137.71211719975136 " stroke-opacity="0.25" stroke="green"/><polygon points="-5.684341886080802e-14,112.08234727403725 400.00000000000006,135.32473009526234 " stroke-opacity="0.25" stroke="green"/><polygon points="0.0,111.17807623546163 400.0,133.19010041126427 " stroke-opacity="0.25" stroke="green"/><polygon points="0.0,110.3647290267016 400.0,131.27010627106597 " stroke-opacity="0.25" stroke="green"/><polygon points="0.0,128.06313356228202 400.0,235.44864939066696 " stroke-opacity="0.25" stroke="green"/><polygon points="0.0,123.16872194241178 400.0,214.65771315717717 " stroke-opacity="0.25" stroke="green"/><polygon points="5.684341886080802e-14,119.53652393460541 399.99999999999994,199.22852512952346 " stroke-opacity="0.25" stroke="green"/><polygon points="0.0,116.73404169530919 400.0,187.3238808008472 " stroke-opacity="0.25" stroke="green"/><polygon points="0.0,114.50611631090466 400.0,177.8598924407191 " stroke-opacity="0.25" stroke="green"/><polygon points="-5.684341886080802e-14,112.6924850870723 400.00000000000006,170.15578129226523 " stroke-opacity="0.25" stroke="green"/><polygon points="0.0,111.18741832543166 400.0,163.76241892335906 " stroke-opacity="0.25" stroke="green"/><polygon points="0.0,109.91834269170637 400.0,158.3715215846187 " stroke-opacity="0.25" stroke="green"/><polygon points="-5.684341886080802e-14,108.83378898636869 400.00000000000006,153.7644536302343 " stroke-opacity="0.25" stroke="green"/><polygon points="0.0,107.89624076186124 400.0,149.7818492100378 " stroke-opacity="0.25" stroke="green"/><polygon points="0.0,107.07770636267352 400.0,146.3048027701061 " stroke-opacity="0.25" stroke="green"/><polygon points="0.0,106.35687660024227 400.0,143.24279516022983 " stroke-opacity="0.25" stroke="green"/><polygon points="0.0,105.71724292794627 400.0,140.5256998428868 " stroke-opacity="0.25" stroke="green"/><polygon points="5.684341886080802e-14,105.1458176304927 399.99999999999994,138.0983463948587 " stroke-opacity="0.25" stroke="green"/><polygon points="5.684341886080802e-14,104.63224271256131 399.99999999999994,135.91673516165508 " stroke-opacity="0.25" stroke="green"/><polygon points="5.684341886080802e-14,108.08877364393247 399.99999999999994,254.19386177814104 " stroke-opacity="0.25" stroke="green"/><polygon points="-5.684341886080802e-14,106.09588126738345 400.00000000000006,229.95505666456032 " stroke-opacity="0.25" stroke="green"/><polygon points="0.0,104.62967075994808 400.0,212.12208627267563 " stroke-opacity="0.25" stroke="green"/><polygon points="0.0,103.50572383259943 400.0,198.45193988113425 " stroke-opacity="0.25" stroke="green"/><polygon points="0.0,102.61672234077409 400.0,187.6393470087828 " stroke-opacity="0.25" stroke="green"/><polygon points="-5.684341886080802e-14,101.8959692277306 400.00000000000006,178.87309628313145 " stroke-opacity="0.25" stroke="green"/><polygon points="0.0,101.29983058649925 400.0,171.6224848022925 " stroke-opacity="0.25" stroke="green"/><polygon points="0.0,100.79856011475628 400.0,165.5257194090654 " stroke-opacity="0.25" stroke="green"/><polygon points="-5.684341886080802e-14,100.37118123312192 400.00000000000006,160.32766980864818 " stroke-opacity="0.25" stroke="green"/><polygon points="0.0,100.00247710193821 400.0,155.84325926771874 " stroke-opacity="0.25" stroke="green"/><polygon points="5.684341886080802e-14,99.68114072384498 399.99999999999994,151.93496500348238 " stroke-opacity="0.25" stroke="green"/><polygon points="0.0,99.39859498643561 400.0,148.49846680351573 " stroke-opacity="0.25" stroke="green"/><polygon points="0.0,99.14821570206529 400.0,145.45319714934647 " stroke-opacity="0.25" stroke="green"/><polygon points="0.0,98.92480571560465 400.0,142.7359449856218 " stroke-opacity="0.25" stroke="green"/><polygon points="5.684341886080802e-14,98.72423026512966 399.99999999999994,140.29642074846748 " stroke-opacity="0.25" stroke="green"/><polygon points="-5.684341886080802e-14,86.49426217194794 400.00000000000006,274.10705197038106 " stroke-opacity="0.25" stroke="green"/><polygon points="0.0,87.83795366544037 400.0,245.8126668127074 " stroke-opacity="0.25" stroke="green"/><polygon points="0.0,88.815023546504 400.0,225.23830753852354 " stroke-opacity="0.25" stroke="green"/><polygon points="-5.684341886080802e-14,89.55750639693912 400.00000000000006,209.60369509591825 " stroke-opacity="0.25" stroke="green"/><polygon points="0.0,90.1408311032398 400.0,197.32050807568868 " stroke-opacity="0.25" stroke="green"/><polygon points="0.0,90.61121921055538 400.0,187.41544999767441 " stroke-opacity="0.25" stroke="green"/><polygon points="5.684341886080802e-14,90.99857416095578 399.99999999999994,179.25883799823845 " stroke-opacity="0.25" stroke="green"/><polygon points="0.0,91.32309846090041 400.0,172.42526378858656 " stroke-opacity="0.25" stroke="green"/><polygon points="0.0,91.59893240710963 400.0,166.61697226378107 " stroke-opacity="0.25" stroke="green"/><polygon points="0.0,91.83626928405424 400.0,161.61932135885786 " stroke-opacity="0.25" stroke="green"/><polygon points="-5.684341886080802e-14,92.04264270235929 400.00000000000006,157.2736743021421 " stroke-opacity="0.25" stroke="green"/><polygon points="0.0,92.22374094453546 400.0,153.46025177150386 " stroke-opacity="0.25" stroke="green"/><polygon points="0.0,92.38393936964992 400.0,150.08692094088312 " stroke-opacity="0.25" stroke="green"/><polygon points="-5.684341886080802e-14,92.52665854599003 400.00000000000006,147.08165420792392 " stroke-opacity="0.25" stroke="green"/><polygon points="0.0,92.65461122067182 400.0,144.38732870468533 " stroke-opacity="0.25" stroke="green"/><polygon points="0.0,62.68115281415447 400.0,295.6941766063202 " stroke-opacity="0.25" stroke="green"/><polygon points="0.0,68.02745436925449 400.0,262.49461406252357 " stroke-opacity="0.25" stroke="green"/><polygon points="0.0,71.85601651412921 400.0,238.71993785475706 " stroke-opacity="0.25" stroke="green"/><polygon points="-5.684341886080802e-14,74.73280197590884 400.00000000000006,220.85562214433318 " stroke-opacity="0.25" stroke="green"/><polygon points="0.0,76.9734882809144 400.0,206.9413667740768 " stroke-opacity="0.25" stroke="green"/><polygon points="0.0,78.76804868230055 400.0,195.7974723135021 " stroke-opacity="0.25" stroke="green"/><polygon points="0.0,80.23765723298466 400.0,186.67146988163552 " stroke-opacity="0.25" stroke="green"/><polygon points="0.0,81.46324782047203 400.0,179.06077472293066 " stroke-opacity="0.25" stroke="green"/><polygon points="0.0,82.50093766371285 400.0,172.61690909045942 " stroke-opacity="0.25" stroke="green"/><polygon points="-5.684341886080802e-14,83.39086195831955 400.00000000000006,167.0906407022021 " stroke-opacity="0.25" stroke="green"/><polygon points="-5.684341886080802e-14,84.16248525346094 400.00000000000006,162.29900005431156 " stroke-opacity="0.25" stroke="green"/><polygon points="0.0,84.83792665907121 400.0,158.10463148772064 " stroke-opacity="0.25" stroke="green"/><polygon points="5.684341886080802e-14,85.43411455474303 399.99999999999994,154.40241283689863 " stroke-opacity="0.25" stroke="green"/><polygon points="0.0,85.96422485680957 400.0,151.11052405225263 " stroke-opacity="0.25" stroke="green"/><polygon points="0.0,86.43866617101395 400.0,148.16432958081208 " stroke-opacity="0.25" stroke="green"/><polygon points="5.684341886080802e-14,35.84056542599092 399.99999999999994,319.62756749968065 " stroke-opacity="0.25" stroke="green"/><polygon points="0.0,46.1908610762911 400.0,280.3276358561336 " stroke-opacity="0.25" stroke="green"/><polygon points="0.0,53.45875028643056 400.0,252.73155949254974 " stroke-opacity="0.25" stroke="green"/><polygon points="-5.684341886080802e-14,58.84272320040745 400.00000000000006,232.28868765208546 " stroke-opacity="0.25" stroke="green"/><polygon points="-5.684341886080802e-14,62.991234129749216 400.00000000000006,216.53684814391536 " stroke-opacity="0.25" stroke="green"/><polygon points="0.0,66.28576631804216 400.0,204.02755428682408 " stroke-opacity="0.25" stroke="green"/><polygon points="-5.684341886080802e-14,68.96540171557643 400.00000000000006,193.8530151711544 " stroke-opacity="0.25" stroke="green"/><polygon points="0.0,71.18759455669704 400.0,185.41537921316242 " stroke-opacity="0.25" stroke="green"/><polygon points="5.684341886080802e-14,73.06026851570631 399.99999999999994,178.30486169112632 " stroke-opacity="0.25" stroke="green"/><polygon points="0.0,74.65987282974214 400.0,172.2311858926472 " stroke-opacity="0.25" stroke="green"/><polygon points="0.0,76.04207645045311 400.0,166.98297756636345 " stroke-opacity="0.25" stroke="green"/><polygon points="0.0,77.24837934784934 400.0,162.40266189125416 " stroke-opacity="0.25" stroke="green"/><polygon points="-5.684341886080802e-14,78.31035072981693 400.00000000000006,158.37037101485583 " stroke-opacity="0.25" stroke="green"/><polygon points="0.0,79.25243185222403 400.0,154.79330182145543 " stroke-opacity="0.25" stroke="green"/><polygon points="0.0,80.09384028721655 400.0,151.5984854513018 " stroke-opacity="0.25" stroke="green"/><polygon points="0.0,4.829143221496452 400.0,346.84670423720127 " stroke-opacity="0.25" stroke="green"/><polygon points="0.0,21.69721457633287 400.0,299.7342742423447 " stroke-opacity="0.25" stroke="green"/><polygon points="0.0,33.24886813450735 400.0,267.4705697478596 " stroke-opacity="0.25" stroke="green"/><polygon points="-5.684341886080802e-14,41.655354473872194 400.00000000000006,243.9912998992358 " stroke-opacity="0.25" stroke="green"/><polygon points="0.0,48.04726237166065 400.0,226.13873649507485 " stroke-opacity="0.25" stroke="green"/><polygon points="5.684341886080802e-14,53.071281289183446 399.99999999999994,212.10667944684766 " stroke-opacity="0.25" stroke="green"/><polygon points="0.0,57.12406738030418 400.0,200.78727031076363 " stroke-opacity="0.25" stroke="green"/><polygon points="0.0,60.462432524518874 400.0,191.46323492784538 " stroke-opacity="0.25" stroke="green"/><polygon points="5.684341886080802e-14,63.25998137726364 399.99999999999994,183.64969645568684 " stroke-opacity="0.25" stroke="green"/><polygon points="0.0,65.63828527495377 400.0,177.0071068241049 " stroke-opacity="0.25" stroke="green"/><polygon points="5.684341886080802e-14,67.68501780500816 399.99999999999994,171.2905941883711 " stroke-opacity="0.25" stroke="green"/><polygon points="-5.684341886080802e-14,69.46499954566124 400.00000000000006,166.31911503200635 " stroke-opacity="0.25" stroke="green"/><polygon points="-5.684341886080802e-14,71.0271886123611 400.00000000000006,161.95592960935716 " stroke-opacity="0.25" stroke="green"/><polygon points="-5.684341886080802e-14,72.40925311830372 400.00000000000006,158.09583108861378 " stroke-opacity="0.25" stroke="green"/><polygon points="0.0,73.64064819824692 400.0,154.65655144131725 " stroke-opacity="0.25" stroke="green"/><polygon points="31.206202826431735,0.0 400.0,378.7332251590751 " stroke-opacity="0.25" stroke="green"/><polygon points="7.720911253935725,0.0 400.0,321.2848628757588 " stroke-opacity="0.25" stroke="green"/><polygon points="-5.684341886080802e-14,10.737337880639757 400.00000000000006,283.182880646392 " stroke-opacity="0.25" stroke="green"/><polygon points="-5.684341886080802e-14,22.880810652117475 400.00000000000006,256.0629958752383 " stroke-opacity="0.25" stroke="green"/><polygon points="0.0,31.965060457783068 400.0,235.7752402555545 " stroke-opacity="0.25" stroke="green"/><polygon points="0.0,39.01679549826258 400.0,220.02667760519827 " stroke-opacity="0.25" stroke="green"/><polygon points="0.0,44.64951708498063 400.0,207.44718216312197 " stroke-opacity="0.25" stroke="green"/><polygon points="0.0,49.252389589241204 400.0,197.1676374001893 " stroke-opacity="0.25" stroke="green"/><polygon points="-5.684341886080802e-14,53.08419233338134 400.00000000000006,188.61011428942382 " stroke-opacity="0.25" stroke="green"/><polygon points="0.0,56.32370439331652 400.0,181.37534747819043 " stroke-opacity="0.25" stroke="green"/><polygon points="0.0,59.09840130190224 400.0,175.1786472548026 " stroke-opacity="0.25" stroke="green"/><polygon points="0.0,61.50162614348352 400.0,169.81155153108665 " stroke-opacity="0.25" stroke="green"/><polygon points="0.0,63.60329681483296 400.0,165.11791343377212 " stroke-opacity="0.25" stroke="green"/><polygon points="0.0,65.45682062741355 400.0,160.97845899897143 " stroke-opacity="0.25" stroke="green"/><polygon points="0.0,67.10369619521452 400.0,157.30050982646657 " stroke-opacity="0.25" stroke="green"/><polygon points="62.590635932868935,0.0 385.9067866790597,400.0 " stroke-opacity="0.25" stroke="green"/><polygon points="40.651325703663105,0.0 400.0,345.7834230632084 " stroke-opacity="0.25" stroke="green"/><polygon points="18.71201547445733,0.0 400.0,300.186437051716 " stroke-opacity="0.25" stroke="green"/><polygon points="-5.684341886080802e-14,2.149937879317264 400.00000000000006,268.61929288991354 " stroke-opacity="0.25" stroke="green"/><polygon points="-5.684341886080802e-14,14.529946162074936 400.00000000000006,245.4700538379251 " stroke-opacity="0.25" stroke="green"/><polygon points="0.0,23.997011319477934 400.0,227.76769456287505 " stroke-opacity="0.25" stroke="green"/><polygon points="0.0,31.471010127953974 400.0,213.79214776678296 " stroke-opacity="0.25" stroke="green"/><polygon points="0.0,37.52139011576787 400.0,202.47860988423218 " stroke-opacity="0.25" stroke="green"/><polygon points="-5.684341886080802e-14,42.51953010570108 400.00000000000006,193.13264380734242 " stroke-opacity="0.25" stroke="green"/><polygon points="0.0,46.717967697245 400.0,185.28203230275506 " stroke-opacity="0.25" stroke="green"/><polygon points="0.0,50.29441453448612 400.0,178.59447435440282 " stroke-opacity="0.25" stroke="green"/><polygon points="0.0,53.37755835969395 400.0,172.8293381920302 " stroke-opacity="0.25" stroke="green"/><polygon points="0.0,56.06287717519757 400.0,167.80809056673792 " stroke-opacity="0.25" stroke="green"/><polygon points="0.0,58.4227028009432 400.0,163.39547901723867 " stroke-opacity="0.25" stroke="green"/><polygon points="0.0,60.512834069460695 400.0,159.4871659305393 " stroke-opacity="0.25" stroke="green"/><polygon points="90.15617364667767,0.0 355.81855005057633,400.0 " stroke-opacity="0.25" stroke="green"/><polygon points="69.35808435506277,5.684341886080802e-14 399.99999999999994,374.4176277800475 " stroke-opacity="0.25" stroke="green"/><polygon points="48.559995063447786,-5.684341886080802e-14 400.00000000000006,318.9080504339075 " stroke-opacity="0.25" stroke="green"/><polygon points="27.761905771833,5.684341886080802e-14 400.0,281.79837091622954 " stroke-opacity="0.25" stroke="green"/><polygon points="6.963816480218071,5.684341886080802e-14 400.0,255.24068197911637 " stroke-opacity="0.25" stroke="green"/><polygon points="0.0,7.865780083565255 400.0,235.29457784690896 " stroke-opacity="0.25" stroke="green"/><polygon points="5.684341886080802e-14,17.5112610949092 399.99999999999994,219.76441429102175 " stroke-opacity="0.25" stroke="green"/><polygon points="0.0,25.23412190701069 400.0,207.3298564509067 " stroke-opacity="0.25" stroke="green"/><polygon points="-5.684341886080802e-14,31.557112764292867 400.00000000000006,197.14922553571614 " stroke-opacity="0.25" stroke="green"/><polygon points="-5.684341886080802e-14,36.82922156923692 400.00000000000006,188.66061704341598 " stroke-opacity="0.25" stroke="green"/><polygon points="5.684341886080802e-14,41.29233283790157 399.99999999999994,181.47457335218206 " stroke-opacity="0.25" stroke="green"/><polygon points="-8.526512829121202e-14,45.11938709998168 400.0000000000001,175.31264337093393 " stroke-opacity="0.25" stroke="green"/><polygon points="0.0,48.43731073754989 400.0,169.97046326640861 " stroke-opacity="0.25" stroke="green"/><polygon points="5.684341886080802e-14,51.34136519821112 399.99999999999994,165.2946528328771 " stroke-opacity="0.25" stroke="green"/><polygon points="0.0,53.904441794726154 400.0,161.16784995976678 " stroke-opacity="0.25" stroke="green"/><polygon points="115.0382784928916,0.0 329.12313492511566,400.0 " stroke-opacity="0.25" stroke="green"/><polygon points="95.06049623236454,5.684341886080802e-14 393.26233060364996,399.99999999999994 " stroke-opacity="0.25" stroke="green"/><polygon points="75.08271397183744,0.0 400.00000000000006,339.9438118827502 " stroke-opacity="0.25" stroke="green"/><polygon points="55.10493171131034,5.684341886080802e-14 400.0,295.77067240425146 " stroke-opacity="0.25" stroke="green"/><polygon points="35.12714945078321,0.0 400.00000000000006,265.09564323855005 " stroke-opacity="0.25" stroke="green"/><polygon points="15.149367190256186,0.0 400.0,242.5517429547755 " stroke-opacity="0.25" stroke="green"/><polygon points="5.684341886080802e-14,2.6869806626108925 399.99999999999994,225.28430284851243 " stroke-opacity="0.25" stroke="green"/><polygon points="-5.684341886080802e-14,12.358242847221703 400.00000000000006,211.63494265607787 " stroke-opacity="0.25" stroke="green"/><polygon points="-5.684341886080802e-14,20.195235851374406 400.00000000000006,200.57434494945338 " stroke-opacity="0.25" stroke="green"/><polygon points="5.684341886080802e-14,26.674596057978363 399.99999999999994,191.42981762837732 " stroke-opacity="0.25" stroke="green"/><polygon points="5.684341886080802e-14,32.12098435229461 399.99999999999994,183.7431564503489 " stroke-opacity="0.25" stroke="green"/><polygon points="-5.684341886080802e-14,36.76318599062088 400.00000000000006,177.19146950009224 " stroke-opacity="0.25" stroke="green"/><polygon points="0.0,40.76706868515231 400.0,171.54066239521643 " stroke-opacity="0.25" stroke="green"/><polygon points="-5.684341886080802e-14,44.255819722085874 400.00000000000006,166.6168769972145 " stroke-opacity="0.25" stroke="green"/><polygon points="0.0,47.32284418065922 400.0,162.28828774433623 " stroke-opacity="0.25" stroke="green"/><polygon points="138.0642163635599,0.0 304.8740886207713,400.0 " stroke-opacity="0.25" stroke="green"/><polygon points="118.63974506112436,5.684341886080802e-14 367.2368649075381,399.99999999999994 " stroke-opacity="0.25" stroke="green"/><polygon points="99.2152737586888,0.0 400.0,364.16338772436234 " stroke-opacity="0.25" stroke="green"/><polygon points="79.79080245625323,5.684341886080802e-14 399.99999999999994,310.75327448200494 " stroke-opacity="0.25" stroke="green"/><polygon points="60.36633115381761,0.0 400.00000000000006,275.02992216707884 " stroke-opacity="0.25" stroke="green"/><polygon points="40.94185985138205,0.0 399.99999999999994,249.45588604802197 " stroke-opacity="0.25" stroke="green"/><polygon points="21.517388548946485,0.0 400.0,230.24389985125913 " stroke-opacity="0.25" stroke="green"/><polygon points="2.0929172465109502,0.0 400.0,215.2825606953532 " stroke-opacity="0.25" stroke="green"/><polygon points="0.0,8.443009766971699 400.0,203.30169906230338 " stroke-opacity="0.25" stroke="green"/><polygon points="-5.684341886080802e-14,16.28363043970964 400.00000000000006,193.49137018794605 " stroke-opacity="0.25" stroke="green"/><polygon points="0.0,22.821774663226222 400.0,185.31072381594416 " stroke-opacity="0.25" stroke="green"/><polygon points="0.0,28.357102074112674 400.0,178.3848202944468 " stroke-opacity="0.25" stroke="green"/><polygon points="0.0,33.10389650812695 400.0,172.44554374475143 " stroke-opacity="0.25" stroke="green"/><polygon points="0.0,37.21944974599782 400.0,167.29608779621617 " stroke-opacity="0.25" stroke="green"/><polygon points="0.0,40.82182760567471 400.0,162.78872632469222 " stroke-opacity="0.25" stroke="green"/><polygon points="159.87449563515773,0.0 282.35685210650996,400.0 " stroke-opacity="0.25" stroke="green"/><polygon points="140.7698383234509,0.0 343.6928571598845,400.0 " stroke-opacity="0.25" stroke="green"/><polygon points="121.66518101174407,0.0 399.99999999999994,392.90119017096936 " stroke-opacity="0.25" stroke="green"/><polygon points="102.56052370003725,0.0 400.00000000000006,327.03235303238205 " stroke-opacity="0.25" stroke="green"/><polygon points="83.45586638833042,0.0 400.0,285.0176181027028 " stroke-opacity="0.25" stroke="green"/><polygon points="64.3512090766236,0.0 399.99999999999994,255.88561777413406 " stroke-opacity="0.25" stroke="green"/><polygon points="45.246551764916774,-5.684341886080802e-14 400.0,234.4987684453138 " stroke-opacity="0.25" stroke="green"/><polygon points="26.141894453209943,5.684341886080802e-14 400.00000000000006,218.13074978777976 " stroke-opacity="0.25" stroke="green"/><polygon points="7.037237141503141,0.0 400.0,205.20043636242713 " stroke-opacity="0.25" stroke="green"/><polygon points="5.684341886080802e-14,5.702614048394594 399.99999999999994,194.7277401470173 " stroke-opacity="0.25" stroke="green"/><polygon points="0.0,13.45234570716417 400.0,186.07280342251178 " stroke-opacity="0.25" stroke="green"/><polygon points="0.0,19.964362279452672 400.0,178.80015272133434 " stroke-opacity="0.25" stroke="green"/><polygon points="0.0,25.51325102214227 400.0,172.6031277049967 " stroke-opacity="0.25" stroke="green"/><polygon points="0.0,30.297969082689917 400.0,167.25953209652457 " stroke-opacity="0.25" stroke="green"/><polygon points="0.0,34.46620472187675 400.0,162.604426952443 " stroke-opacity="0.25" stroke="green"/></svg>
