<?xml version="1.0" encoding="UTF-8"?>
<!DOCTYPE svg PUBLIC "-//W3C//DTD SVG 1.1//EN"
    "http://www.w3.org/Graphics/SVG/1.1/DTD/svg11.dtd"><svg width="400" height="400" stroke="black" fill="none" fill-opacity="0.75" font-size="14" font-style="italic" font-family="sans-serif" xmlns="http://www.w3.org/2000/svg" xmlns:xlink="http://www.w3.org/1999/xlink" version="1.1"><filter id="blur1"><feGaussianBlur stdDeviation="0.5"/></filter><rect width="100%" height="100%" fill="white" stroke="none" fill-opacity="1"/><rect class="bg" fill="black" width="100%" height="100%" stroke="none" fill-opacity="1"/><polyline class="polyline" opacity="0.5" stroke="blue" points="202.93625160220057,135.7064751670846 206.29844714835014,76.15449234413134 "/><polyline class="polyline" opacity="0.5" stroke="blue" points="202.50601301815166,135.1479490667062 206.1339985307118,74.70386865796112 "/><polyline class="polyline" opacity="0.5" stroke="blue" points="202.0724903683,134.61401674130303 205.96561370431604,73.29555091276801 "/><polyline class="polyline" opacity="0.5" stroke="blue" points="201.63582877118094,134.10508004136676 205.79363860907415,71.9308968325359 "/><polyline class="polyline" opacity="0.5" stroke="blue" points="201.19617695950862,133.621537436888 205.61842926738714,70.61127817118799 "/><polyline class="polyline" opacity="0.5" stroke="blue" points="200.75368731369707,133.1637836579959 205.4403519144868,69.33807966819816 "/><polyline class="polyline" opacity="0.5" stroke="blue" points="200.30851589199034,132.7322093215353 205.2597831124717,68.11269788974076 "/><polyline class="polyline" opacity="0.5" stroke="blue" points="199.86082245696576,132.3272005435985 205.07710984624438,66.93653995062948 "/><polyline class="polyline" opacity="0.5" stroke="blue" points="199.41077049816874,131.94913853806815 204.89272959948286,65.81102211239951 "/><polyline class="polyline" opacity="0.5" stroke="blue" points="198.95852725063352,131.59839920125734 204.70705040871113,64.73756825303263 "/><polyline class="polyline" opacity="0.5" stroke="blue" points="198.50426370904137,131.2753526827748 204.52049089346738,63.71760820400414 "/><polyline class="polyline" opacity="0.5" stroke="blue" points="198.048154637263,130.9803629427807 204.33348026050942,62.752575950563795 "/><polyline class="polyline" opacity="0.5" stroke="blue" points="197.5903785730312,130.71378729583972 204.14645827994187,61.84390769143832 "/><polyline class="polyline" opacity="0.5" stroke="blue" points="197.1311178274862,130.47597594162437 203.95987523110418,60.993039754471226 "/><polyline class="polyline" opacity="0.5" stroke="blue" points="196.6705584793356,130.2672714827639 203.7741918160196,60.20140636510013 "/><polyline class="polyline" opacity="0.5" stroke="blue" points="196.2088903633702,130.08800843018471 203.58987903817675,59.47043726501235 "/><polyline class="polyline" opacity="0.5" stroke="blue" points="195.74630705307675,129.9385126963357 203.4074180443987,58.801555178824145 "/><polyline class="polyline" opacity="0.5" stroke="blue" points="195.28300583709031,129.81910107674534 203.22729992754907,58.19617312719038 "/><polyline class="polyline" opacity="0.5" stroke="blue" points="194.81918768923,129.73008072040935 203.05002548783355,57.655691585387956 "/><polyline class="polyline" opacity="0.5" stroke="blue" points="194.3550572318657,129.67174858956253 202.87610495047988,57.1814954871129 "/><polyline class="polyline" opacity="0.5" stroke="blue" points="193.89082269236607,129.6443909094467 202.70605763761986,56.77495107400267 "/><polyline class="polyline" opacity="0.5" stroke="blue" points="193.42669585238446,129.64828260874287 202.54041159225656,56.43740259223205 "/><polyline class="polyline" opacity="0.5" stroke="blue" points="192.96289198974347,129.68368675139516 202.37970315227943,56.170168838445335 "/><polyline class="polyline" opacity="0.5" stroke="blue" points="192.49962981268843,129.75085396061695 202.22447647258838,55.974539558266684 "/><polyline class="polyline" opacity="0.5" stroke="blue" points="192.0371313862861,129.8500218359269 202.07528299351318,55.851771701683305 "/><polyline class="polyline" opacity="0.5" stroke="blue" points="191.57562205075624,129.98141436412897 201.9326808538589,55.80308554071425 "/><polyline class="polyline" opacity="0.5" stroke="blue" points="191.11533033153364,130.14524132521032 201.79723424708018,55.82966065596176 "/><polyline class="polyline" opacity="0.5" stroke="blue" points="190.65648784087085,130.34169769419552 201.66951271928536,55.93263179988932 "/><polyline class="polyline" opacity="0.5" stroke="blue" points="190.1993291708057,130.57096304005785 201.55009040799501,56.1130846459684 "/><polyline class="polyline" opacity="0.5" stroke="blue" points="189.74409177733156,130.83320092285177 201.43954522083115,56.3720514341903 "/><polyline class="polyline" opacity="0.5" stroke="blue" points="189.2910158556267,131.12855829029263 201.33845795359466,56.71050652483123 "/><polyline class="polyline" opacity="0.5" stroke="blue" points="188.8403442062146,131.45716487507156 201.24741134749513,57.129361873788554 "/><polyline class="polyline" opacity="0.5" stroke="blue" points="188.3923220919486,131.81913259425295 201.16698908563419,57.6294624442547 "/><polyline class="polyline" opacity="0.5" stroke="blue" points="187.94719708573325,132.21455495216262 201.09777472920683,58.211581570962636 "/><polyline class="polyline" opacity="0.5" stroke="blue" points="187.5052189089178,132.64350644822838 201.040350594276,58.87641629469789 "/><polyline class="polyline" opacity="0.5" stroke="blue" points="187.0666392603212,133.10604199129432 200.99529657039113,59.62458268622632 "/><polyline class="polyline" opacity="0.5" stroke="blue" points="186.63171163587157,133.60219632197612 200.96318888276141,60.456611180201634 "/><polyline class="polyline" opacity="0.5" stroke="blue" points="186.20069113887143,134.1319834446798 200.94459880015563,61.37294194099837 "/><polyline class="polyline" opacity="0.5" stroke="blue" points="185.77383428092597,134.69539607094754 200.94009129118163,62.37392028372335 "/><polyline class="polyline" opacity="0.5" stroke="blue" points="185.35139877360157,135.29240507583793 200.9502236320942,63.45979217489287 "/><polyline class="polyline" opacity="0.5" stroke="blue" points="184.9336433109122,135.9229589690854 200.97554396979046,64.63069983838932 "/><polyline class="polyline" opacity="0.5" stroke="blue" points="184.52082734276146,136.58698338281573 201.01658984416846,65.88667749332663 "/><polyline class="polyline" opacity="0.5" stroke="blue" points="184.11321083950224,137.28438057762304 201.07388667454762,67.22764725131691 "/><polyline class="polyline" opacity="0.5" stroke="blue" points="183.71105404780755,138.01502896883554 201.14794621536933,68.65341520134655 "/><polyline class="polyline" opacity="0.5" stroke="blue" points="183.31461723808178,138.77878267481356 201.23926498691122,70.16366771099399 "/><polyline class="polyline" opacity="0.5" stroke="blue" points="182.92416044367565,139.57547108913315 201.34832268725162,71.75796797305466 "/><polyline class="polyline" opacity="0.5" stroke="blue" points="182.53994319220413,140.40489847851342 201.47558059220347,73.43575282675074 "/><polyline class="polyline" opacity="0.5" stroke="blue" points="182.1622242293029,141.266843608339 201.62147995039876,75.19632988257723 "/><polyline class="polyline" opacity="0.5" stroke="blue" points="181.79126123519418,142.16105939762176 201.78644038113185,77.03887497946462 "/><polyline class="polyline" opacity="0.5" stroke="blue" points="181.4273105344713,143.08727260522386 201.97085828296215,78.96243000230314 "/><polyline class="polyline" opacity="0.5" stroke="blue" points="181.07062679954515,144.04518354913893 202.17510526142289,80.96590108695703 "/><polyline class="polyline" opacity="0.5" stroke="blue" points="180.72146274823479,145.03446586059346 202.3995265844787,83.04805723870281 "/><polyline class="polyline" opacity="0.5" stroke="blue" points="180.38006883601807,146.05476627468593 202.64443967461312,85.20752938854534 "/><polyline class="polyline" opacity="0.5" stroke="blue" points="180.04669294349495,147.10570445923003 202.91013264660208,87.44280991008307 "/><polyline class="polyline" opacity="0.5" stroke="blue" points="179.72158005964968,148.18687288340675 203.1968629001358,89.75225261753867 "/><polyline class="polyline" opacity="0.5" stroke="blue" points="179.40497196153257,149.29783672776142 203.50485577648232,92.13407326322 "/><polyline class="polyline" opacity="0.5" stroke="blue" points="179.09710689101303,150.4381338370016 203.83430328834004,94.58635055006046 "/><polyline class="polyline" opacity="0.5" stroke="blue" points="178.79821922928795,151.60727471696606 204.18536293189717,97.1070276720112 "/><polyline class="polyline" opacity="0.5" stroke="blue" points="178.5085391698574,152.80474257703796 204.55815658990144,99.69391439194023 "/><polyline class="polyline" opacity="0.5" stroke="blue" points="178.22829239070768,154.02999341917007 204.9527695342433,102.3446896633601 "/><polyline class="polyline" opacity="0.5" stroke="blue" points="177.95769972646698,155.28245617457776 205.36924953616736,105.05690479878234 "/><polyline class="polyline" opacity="0.5" stroke="blue" points="177.69697684132186,156.56153288903278 205.8076060917518,107.82798718381373 "/><polyline class="polyline" opacity="0.5" stroke="blue" points="177.44633390350273,157.86659895756247 206.26780976973455,110.6552445322989 "/><polyline class="polyline" opacity="0.5" stroke="blue" points="177.2059752621657,159.19700340922134 206.74979168812348,113.53586967392076 "/><polyline class="polyline" opacity="0.5" stroke="blue" points="176.97609912751133,160.55206924245886 207.25344312530646,116.46694586172582 "/><polyline class="polyline" opacity="0.5" stroke="blue" points="176.75689725499416,161.93109381145584 207.7786152705835,119.44545258309233 "/><polyline class="polyline" opacity="0.5" stroke="blue" points="176.54855463448504,163.3333492636468 208.32511911818438,122.46827185375409 "/><polyline class="polyline" opacity="0.5" stroke="blue" points="176.35124918525324,164.75808302848205 208.89272550791716,125.53219497066783 "/><polyline class="polyline" opacity="0.5" stroke="blue" points="176.16515145763788,166.2045183573186 209.48116531462466,128.6339296958198 "/><polyline class="polyline" opacity="0.5" stroke="blue" points="175.99042434227596,167.6718549141574 210.09012978762027,131.77010783954958 "/><polyline class="polyline" opacity="0.5" stroke="blue" points="175.82722278774858,169.15926941677137 210.71927104023598,134.93729320866987 "/><polyline class="polyline" opacity="0.5" stroke="blue" points="175.67569352749868,170.6659163275928 211.36820268856317,138.13198988162236 "/><polyline class="polyline" opacity="0.5" stroke="blue" points="175.53597481685873,172.19092859355095 212.0365006374018,141.3506507701709 "/><polyline class="polyline" opacity="0.5" stroke="blue" points="175.40819618101216,173.73341843387377 212.72370401038177,144.5896864247261 "/><polyline class="polyline" opacity="0.5" stroke="blue" points="175.29247817468905,175.29247817468905 213.42931622017818,147.845474038358 "/><polyline class="polyline" opacity="0.5" stroke="blue" points="175.1889321543741,176.86718112908503 214.15280617373475,151.1143666029046 "/><polyline class="polyline" opacity="0.5" stroke="blue" points="175.0976600637747,178.45658252111596 214.89360960644078,154.39270216935057 "/><polyline class="polyline" opacity="0.5" stroke="blue" points="175.0187542332658,180.05972045206812 215.65113053829086,157.67681316384443 "/><polyline class="polyline" opacity="0.5" stroke="blue" points="174.9522971939923,181.67561690713535 216.4247428442025,160.96303571035997 "/><polyline class="polyline" opacity="0.5" stroke="blue" points="174.8983615072693,183.30327880049177 217.21379192988584,164.24771891108122 "/><polyline class="polyline" opacity="0.5" stroke="blue" points="174.85700960987998,184.941699056595 218.0175965039578,167.5272340361105 "/><polyline class="polyline" opacity="0.5" stroke="blue" points="174.8282936758224,186.5898577254046 218.8354504363807,170.79798357504933 "/><polyline class="polyline" opacity="0.5" stroke="blue" points="174.81225549501005,188.24672312906205 219.66662469278748,174.05641010436932 "/><polyline class="polyline" opacity="0.5" stroke="blue" points="174.80892636937745,189.91125303744633 220.51036933383446,177.29900492625936 "/><polyline class="polyline" opacity="0.5" stroke="blue" points="174.8183270267894,191.58239586989873 221.36591556840784,180.5223164367723 "/><polyline class="polyline" opacity="0.5" stroke="blue" points="174.84046755309538,193.25909192030028 222.23247784929612,183.72295818358273 "/><polyline class="polyline" opacity="0.5" stroke="blue" points="174.87534734261175,194.94027460258428 223.10925599983372,186.89761657645838 "/><polyline class="polyline" opacity="0.5" stroke="blue" points="174.92295506725594,196.6248717136807 223.99543736001777,190.04305821661643 "/><polyline class="polyline" opacity="0.5" stroke="blue" points="174.9832686644935,198.3118067108122 224.89019894069776,193.15613681443497 "/><polyline class="polyline" opacity="0.5" stroke="blue" points="175.05625534419775,200.0 225.792709574634,196.23379966848074 "/><polyline class="polyline" opacity="0.5" stroke="blue" points="175.14187161445798,201.688370232589 226.70213205351126,199.27309368245142 "/><polyline class="polyline" opacity="0.5" stroke="blue" points="175.240063326309,203.37583560656515 227.6176252403694,202.27117090037058 "/><polyline class="polyline" opacity="0.5" stroke="blue" points="175.3507657372905,205.0613151694171 228.53834614737045,205.22529354417412 "/><polyline class="polyline" opacity="0.5" stroke="blue" points="175.4739035936822,206.74373011928697 229.46345196935246,208.13283854164115 "/><polyline class="polyline" opacity="0.5" stroke="blue" points="175.60939123119792,208.42200510115984 230.39210206421302,210.9913015364125 "/><polyline class="polyline" opacity="0.5" stroke="blue" points="175.75713269385957,210.09506949486482 231.32345987181662,213.79830037556468 "/><polyline class="polyline" opacity="0.5" stroke="blue" points="175.91702187071215,211.7618586916911 232.25669476381523,216.55157807382784 "/><polyline class="polyline" opacity="0.5" stroke="blue" points="176.08894264998204,213.42131535647462 233.19098381750484,219.249005257023 "/><polyline class="polyline" opacity="0.5" stroke="blue" points="176.2727690902245,215.07239067206888 234.12551350760134,221.88858209061118 "/><polyline class="polyline" opacity="0.5" stroke="blue" points="176.4683656079505,216.71404556318961 235.05948131059787,224.46843970237333 "/><polyline class="polyline" opacity="0.5" stroke="blue" points="176.67558718117252,218.34525189670927 235.99209721715422,226.9868411111444 "/><polyline class="polyline" opacity="0.5" stroke="blue" points="176.8942795682594,219.96499365557617 236.92258514875724,229.44218167620068 "/><polyline class="polyline" opacity="0.5" stroke="blue" points="177.12427954144266,221.5722680836426 237.8501842756731,231.83298908431618 "/><polyline class="polyline" opacity="0.5" stroke="blue" points="177.3654151342759,223.1660867988082 238.77415023397836,234.157922893666 "/><polyline class="polyline" opacity="0.5" stroke="blue" points="177.6175059023081,224.74547687201303 239.69375624020023,236.41577365564189 "/><polyline class="polyline" opacity="0.5" stroke="blue" points="177.88036319619565,226.30948186975675 240.6082941028148,238.60546163726565 "/><polyline class="polyline" opacity="0.5" stroke="blue" points="178.15379044644632,227.85716285796636 241.51707513053134,240.7260351682293 "/><polyline class="polyline" opacity="0.5" stroke="blue" points="178.43758345895972,229.38759936519 242.4194309379378,242.77666863767112 "/><polyline class="polyline" opacity="0.5" stroke="blue" points="178.7315307205043,230.8998903032561 243.31471414968263,244.75666016661143 "/><polyline class="polyline" opacity="0.5" stroke="blue" points="179.03541371325096,232.39315484370331 244.20229900492595,246.665428982535 "/><polyline class="polyline" opacity="0.5" stroke="blue" points="179.34900723746657,233.8665332484578 245.08158186430074,248.50251252293026 "/><polyline class="polyline" opacity="0.5" stroke="blue" points="179.6720797414587,235.31918765340868 245.95198162208604,250.26756329469197 "/><polyline class="polyline" opacity="0.5" stroke="blue" points="180.00439365785493,236.75030280370933 246.81294002670205,251.96034551617194 "/><polyline class="polyline" opacity="0.5" stroke="blue" points="180.34570574529477,238.1590867398113 247.66392191299676,253.58073156835596 "/><polyline class="polyline" opacity="0.5" stroke="blue" points="180.69576743461346,239.5447714334144 248.50441535010333,255.12869828114697 "/><polyline class="polyline" opacity="0.5" stroke="blue" points="181.05432517859936,240.9066133726975 249.3339317089058,256.60432308008717 "/><polyline class="polyline" opacity="0.5" stroke="blue" points="181.42112080441416,242.24389409636944 250.15200565336391,258.0077800180533 "/><polyline class="polyline" opacity="0.5" stroke="blue" points="181.79589186777645,243.55592067625528 250.95819506011256,259.33933571554417 "/><polyline class="polyline" opacity="0.5" stroke="blue" points="182.17837200802265,244.8420261483045 251.7520808708747,260.59934523215173 "/><polyline class="polyline" opacity="0.5" stroke="blue" points="182.5682913031781,246.10156989207593 252.53326688230578,261.78824789069785 "/><polyline class="polyline" opacity="0.5" stroke="blue" points="182.96537662419058,247.3339379589162 253.30137947792983,262.9065630743327 "/><polyline class="polyline" opacity="0.5" stroke="blue" points="183.36935198750254,248.53854334920862 254.05606730683388,263.9548860156547 "/><polyline class="polyline" opacity="0.5" stroke="blue" points="183.7799389051656,249.7148262392186 254.797000913759,264.9338835956313 "/><polyline class="polyline" opacity="0.5" stroke="blue" points="184.19685673172742,250.86225415820945 255.52387232517026,265.844290168803 "/><polyline class="polyline" opacity="0.5" stroke="blue" points="184.61982300715457,251.98032211663917 256.23639459580284,266.6869034299318 "/><polyline class="polyline" opacity="0.5" stroke="blue" points="185.04855379508578,253.0685526863807 256.93430132007586,267.46258033594916 "/><polyline class="polyline" opacity="0.5" stroke="blue" points="185.48276401574668,254.12649603403074 257.6173461126341,268.1722330957514 "/><polyline class="polyline" opacity="0.5" stroke="blue" points="185.9221677728914,255.1537299084858 258.2853020621348,268.81682523911206 "/><polyline class="polyline" opacity="0.5" stroke="blue" points="186.36647867417642,256.149859584073 258.9379611622328,269.3973677747317 "/><polyline class="polyline" opacity="0.5" stroke="blue" points="186.81541014440822,257.1145177606177 259.5751337235458,269.9149154462284 "/><polyline class="polyline" opacity="0.5" stroke="blue" points="187.26867573114797,258.0473644219204 260.19664777019614,270.37056309370814 "/><polyline class="polyline" opacity="0.5" stroke="blue" points="187.72598940219527,258.9480866541955 260.80234842433714,270.76544212742914 "/><polyline class="polyline" opacity="0.5" stroke="blue" points="188.1870658345142,259.8163984260924 261.3920972818745,271.1007171190096 "/><polyline class="polyline" opacity="0.5" stroke="blue" points="188.651620694205,260.6520403319862 261.9657717823942,271.3775825146181 "/><polyline class="polyline" opacity="0.5" stroke="blue" points="189.11937090716654,261.45477930027255 262.523264576109,271.597259473633 "/><polyline class="polyline" opacity="0.5" stroke="blue" points="189.5900349201334,262.2244082684496 263.06448289043516,271.7609928353652 "/><polyline class="polyline" opacity="0.5" stroke="blue" points="190.06333295181372,262.96074582680467 263.5893478986124,271.8700482156138 "/><polyline class="polyline" opacity="0.5" stroke="blue" points="190.5389872338914,263.6636358325488 264.09779409258556,271.92570923404924 "/><polyline class="polyline" opacity="0.5" stroke="blue" points="191.01672224169607,264.3329469962639 264.5897686621757,271.9292748727187 "/><polyline class="polyline" opacity="0.5" stroke="blue" points="191.49626491438246,264.9685724425378 265.0652308823832,271.88205696531816 "/><polyline class="polyline" opacity="0.5" stroke="blue" points="191.97734486449616,265.5704292466656 265.5241515104849,271.785377816289 "/><polyline class="polyline" opacity="0.5" stroke="blue" points="192.45969457684052,266.13845794929364 265.9665121944156,271.64056794827 "/><polyline class="polyline" opacity="0.5" stroke="blue" points="192.94304959659195,266.67262205087195 266.39230489375956,271.44896397595784 "/><polyline class="polyline" opacity="0.5" stroke="blue" points="193.42714870664554,267.17290748776423 266.8015313145181,271.2119066040096 "/><polyline class="polyline" opacity="0.5" stroke="blue" points="193.91173409420347,267.6393220918426 267.19420235867256,270.9307387462524 "/><polyline class="polyline" opacity="0.5" stroke="blue" points="194.39655150664979,268.07189503536557 267.5703375894168,270.6068037631387 "/><polyline class="polyline" opacity="0.5" stroke="blue" points="194.88135039678286,268.4706762629058 267.92996471280503,270.2414438141112 "/><polyline class="polyline" opacity="0.5" stroke="blue" points="195.36588405750467,268.83573591205356 268.2731190764331,269.8359983213084 "/><polyline class="polyline" opacity="0.5" stroke="blue" points="195.84990974609101,269.1671637245827 268.59984318565387,269.39180254084215 "/><polyline class="polyline" opacity="0.5" stroke="blue" points="196.33318879819012,269.46506844971736 268.9101862377254,268.9101862377254 "/><polyline class="polyline" opacity="0.5" stroke="blue" points="196.81548673171991,269.72957724108846 269.2042036741818,268.39247246040173 "/><polyline class="polyline" opacity="0.5" stroke="blue" points="197.29657334085422,269.9608350489168 269.48195675163333,267.839976410736 "/><polyline class="polyline" opacity="0.5" stroke="blue" points="197.77622278030614,270.15900400890246 269.7435121311106,267.2540044052626 "/><polyline class="polyline" opacity="0.5" stroke="blue" points="198.25421364013513,270.324262829245 269.988941485996,266.6358529234483 "/><polyline class="polyline" opacity="0.5" stroke="blue" points="198.73032901131828,270.4568061771555 270.21832112851035,265.9868077387142 "/><polyline class="polyline" opacity="0.5" stroke="blue" points="199.20435654234137,270.556844066164 270.43173165466453,265.30814312796696 "/><polyline class="polyline" opacity="0.5" stroke="blue" points="199.67608848707616,270.624601245461 270.62925760752313,264.6011211554158 "/><polyline class="polyline" opacity="0.5" stroke="blue" points="200.14532174422152,270.66031659244817 270.81098715858093,263.86699102649516 "/><polyline class="polyline" opacity="0.5" stroke="blue" points="200.61185788859578,270.6642425096112 270.9770118070034,263.1069885077697 "/><polyline class="polyline" opacity="0.5" stroke="blue" points="201.07550319457388,270.6366443267633 271.12742609644516,262.32233540876905 "/><polyline class="polyline" opacity="0.5" stroke="blue" points="201.53606865197048,270.5777997096401 271.26232734912287,261.5142391217832 "/><polyline class="polyline" opacity="0.5" stroke="blue" points="201.99336997467472,270.4879980757704 271.3818154167891,260.6838922157378 "/><polyline class="polyline" opacity="0.5" stroke="blue" points="202.4472276023455,270.367540018475 271.4859924482273,259.83247208037176 "/><polyline class="polyline" opacity="0.5" stroke="blue" points="202.8974666954798,270.2167367397908 271.57496267286484,258.96114061704344 "/><polyline class="polyline" opacity="0.5" stroke="blue" points="203.3439171241668,270.03590949305215 271.64883220008187,258.0710439726054 "/><polyline class="polyline" opacity="0.5" stroke="blue" points="203.78641345084122,269.8253890358005 271.70770883377793,257.16331231290314 "/><polyline class="polyline" opacity="0.5" stroke="blue" points="204.22479490734912,269.5855150936375 271.7517019017458,256.2390596325733 "/><polyline class="polyline" opacity="0.5" stroke="blue" points="204.65890536663687,269.31663583557656 271.7809220993902,255.29938359794062 "/><polyline class="polyline" opacity="0.5" stroke="blue" points="205.08859330937224,269.0191073613916 271.7954813473244,254.3453654199348 "/><polyline class="polyline" opacity="0.5" stroke="blue" points="205.51371178580288,268.6932932014115 271.7954926623662,253.37806975407506 "/><polyline class="polyline" opacity="0.5" stroke="blue" points="205.93411837315327,268.3395638291498 271.7810700414571,252.39854462469626 "/><polyline class="polyline" opacity="0.5" stroke="blue" points="206.34967512885717,267.95829618711565 271.7523283580225,251.40782137071403 "/><polyline class="polyline" opacity="0.5" stroke="blue" points="206.76024853991646,267.54987322609816 271.70938327029023,250.40691461035337 "/><polyline class="polyline" opacity="0.5" stroke="blue" points="207.16570946867205,267.1146834581729 271.652351141086,249.3968222223863 "/><polyline class="polyline" opacity="0.5" stroke="blue" points="207.5659330952658,266.6531205236339 271.58134896862595,248.37852534155007 "/><polyline class="polyline" opacity="0.5" stroke="blue" points="207.96079885706564,266.1655827720113 271.4964943278271,247.3529883659342 "/><polyline class="polyline" opacity="0.5" stroke="blue" points="208.35019038531942,265.65247285729686 271.39790532166217,246.32115897424717 "/><polyline class="polyline" opacity="0.5" stroke="blue" points="208.73399543929474,265.11419734745823 271.2857005420864,245.28396815098824 "/><polyline class="polyline" opacity="0.5" stroke="blue" points="209.1121058381549,264.5511663482906 271.1599990400696,244.242330217666 "/><polyline class="polyline" opacity="0.5" stroke="blue" points="209.4844173908129,263.96379314161663 271.0209203042706,243.1971428683167 "/><polyline class="polyline" opacity="0.5" stroke="blue" points="209.8508298239975,263.3524938378171 270.86858424789676,242.1492872076872 "/><polyline class="polyline" opacity="0.5" stroke="blue" points="210.2112467087562,262.7176870426426 270.7031112032938,241.09962779055402 "/><polyline class="polyline" opacity="0.5" stroke="blue" points="210.5655753856134,262.05979353822926 270.5246219238192,240.04901266075677 "/><polyline class="polyline" opacity="0.5" stroke="blue" points="210.91372688859147,261.37923597821714 270.333237592555,238.99827338862676 "/><polyline class="polyline" opacity="0.5" stroke="blue" points="211.25561586829537,260.67643859684404 270.1290798374214,237.94822510559425 "/><polyline class="polyline" opacity="0.5" stroke="blue" points="211.59116051425303,259.95182693186564 269.91227075225794,236.89966653485567 "/><polyline class="polyline" opacity="0.5" stroke="blue" points="211.920282476694,259.2058275611352 269.6829329234416,235.853380017079 "/><polyline class="polyline" opacity="0.5" stroke="blue" points="212.24290678794245,258.43886785265306 269.44118946161893,234.81013153022263 "/><polyline class="polyline" opacity="0.5" stroke="blue" points="212.55896178359032,257.65137572788353 269.1871640381289,233.7706707026337 "/><polyline class="polyline" opacity="0.5" stroke="blue" points="212.8683790236102,256.84377943811916 268.920980925702,232.7357308186845 "/><polyline class="polyline" opacity="0.5" stroke="blue" points="213.1710932135578,256.0165073536596 268.64276504302086,231.70602881629503 "/><polyline class="polyline" opacity="0.5" stroke="blue" points="213.46704212600744,255.1699877655594 268.35264200273343,230.68226527577863 "/><polyline class="polyline" opacity="0.5" stroke="blue" points="213.7561665223549,254.30464869968876 268.0507381625108,229.66512439953118 "/><polyline class="polyline" opacity="0.5" stroke="blue" points="214.03841007511602,253.42091774284216 267.73718067874904,228.6552739821745 "/><polyline class="polyline" opacity="0.5" stroke="blue" points="214.3137192908407,252.51922188062113 267.4120975625111,227.65336537084272 "/><polyline class="polyline" opacity="0.5" stroke="blue" points="214.58204343375556,251.59998734680906 267.07561773731254,226.66003341538692 "/><polyline class="polyline" opacity="0.5" stroke="blue" points="214.84333445024163,250.6636394839542 266.7278710983555,225.67589640835303 "/><polyline class="polyline" opacity="0.5" stroke="blue" points="215.09754689424653,249.71060261486645 266.3689885728169,224.70155601466752 "/><polyline class="polyline" opacity="0.5" stroke="blue" points="215.34463785372412,248.7412999247354 265.9991021808007,223.73759719104623 "/><polyline class="polyline" opacity="0.5" stroke="blue" points="215.58456687818872,247.75615335356946 265.6183450965656,222.78458809521683 "/><polyline class="polyline" opacity="0.5" stroke="blue" points="215.8172959074644,246.7555834986581 265.22685170964155,221.8430799851255 "/><polyline class="polyline" opacity="0.5" stroke="blue" points="216.04278920170495,245.74000952675374 264.82475768545197,220.91360710837048 "/><polyline class="polyline" opacity="0.5" stroke="blue" points="216.26101327275364,244.70984909567335 264.4122000250601,219.9966865821831 "/><polyline class="polyline" opacity="0.5" stroke="blue" points="216.47193681690752,243.66551828501787 263.9893171236616,219.0928182643483 "/><polyline class="polyline" opacity="0.5" stroke="blue" points="216.67553064914517,242.60743153570775 263.55624882744706,218.20248461552848 "/><polyline class="polyline" opacity="0.5" stroke="blue" points="216.8717676388727,241.53600159803685 263.1131364884644,217.32615055352792 "/><polyline class="polyline" opacity="0.5" stroke="blue" points="217.0606226472377,240.45163948794618 262.66012301711055,216.46426330010138 "/><polyline class="polyline" opacity="0.5" stroke="blue" points="217.24207246605664,239.35475445122347 262.19735293189115,215.61725222098102 "/><polyline class="polyline" opacity="0.5" stroke="blue" points="217.41609575839763,238.24575393533547 261.7249724060873,214.78552865986057 "/><polyline class="polyline" opacity="0.5" stroke="blue" points="217.58267300085544,237.12504356860498 261.2431293109769,213.96948576714175 "/><polyline class="polyline" opacity="0.5" stroke="blue" points="217.74178642755305,235.9930271464459 260.75197325526227,213.16949832430825 "/><polyline class="polyline" opacity="0.5" stroke="blue" points="217.8934199759003,234.85010662437637 260.25165562036403,212.3859225648564 "/><polyline class="polyline" opacity="0.5" stroke="blue" points="218.03755923413604,233.69668211752975 259.74232959124754,211.6190959927663 "/><polyline class="polyline" opacity="0.5" stroke="blue" points="218.17419139067903,232.53315190639267 259.224150182458,210.8693371995557 "/><polyline class="polyline" opacity="0.5" stroke="blue" points="218.30330518530752,231.3599124484987 258.6972742590481,210.1369456810096 "/><polyline class="polyline" opacity="0.5" stroke="blue" points="218.42489086218728,230.17735839581417 258.1618605520944,209.42220165472938 "/><polyline class="polyline" opacity="0.5" stroke="blue" points="218.53894012476283,228.98588261755603 257.6180696685093,208.72536587969182 "/><polyline class="polyline" opacity="0.5" stroke="blue" points="218.64544609252707,227.78587622818546 257.0660640948662,208.04667947905 "/><polyline class="polyline" opacity="0.5" stroke="blue" points="218.7444032596794,226.57772862032772 256.5060081949735,207.38636376744873 "/><polyline class="polyline" opacity="0.5" stroke="blue" points="218.83580745568293,225.36182750237063 255.93806820094306,206.74462008416072 "/><polyline class="polyline" opacity="0.5" stroke="blue" points="218.91965580772805,224.13855894050218 255.36241219751798,206.12162963338102 "/><polyline class="polyline" opacity="0.5" stroke="blue" points="218.9959467051083,222.90830740494837 254.77921009944063,205.51755333304237 "/><polyline class="polyline" opacity="0.5" stroke="blue" points="219.06467976551326,221.67145582018114 254.18863362166115,204.93253167353558 "/><polyline class="polyline" opacity="0.5" stroke="blue" points="219.12585580324122,220.42838561886686 253.59085624220495,204.36668458773403 "/><polyline class="polyline" opacity="0.5" stroke="blue" points="219.1794767993335,219.1794767993335 252.9860531575405,203.82011133373206 "/><polyline class="polyline" opacity="0.5" stroke="blue" points="219.22554587363052,217.92510798633637 252.37440123030973,203.29289039171047 "/><polyline class="polyline" opacity="0.5" stroke="blue" points="219.26406725874998,216.66565649490772 251.7560789293068,202.78507937634154 "/><polyline class="polyline" opacity="0.5" stroke="blue" points="219.29504627598413,215.40149839707954 251.13126626161687,202.2967149661375 "/><polyline class="polyline" opacity="0.5" stroke="blue" points="219.31848931311515,214.13300859127202 250.50014469685044,201.82781285113197 "/><polyline class="polyline" opacity="0.5" stroke="blue" points="219.33440380414405,212.86056087414346 249.8628970834365,201.3783677002633 "/><polyline class="polyline" opacity="0.5" stroke="blue" points="219.3427982109303,211.58452801470267 249.21970755696614,200.94835314980068 "/><polyline class="polyline" opacity="0.5" stroke="blue" points="219.34368200673646,210.30528183048568 248.57076144060568,200.5377218141193 "/><polyline class="polyline" opacity="0.5" stroke="blue" points="219.33706566167322,209.02319326560297 247.9162451376287,200.1464053200897 "/><polyline class="polyline" opacity="0.5" stroke="blue" points="219.3229606300391,207.73863247046668 247.25634601614684,199.77431436629726 "/><polyline class="polyline" opacity="0.5" stroke="blue" points="219.30137933954782,206.45196888300765 246.5912522861493,199.42133880825273 "/><polyline class="polyline" opacity="0.5" stroke="blue" points="219.2723351824379,205.16357131119747 245.92115286899337,199.08734777069233 "/><polyline class="polyline" opacity="0.5" stroke="blue" points="219.23584250845607,203.8738080166893 245.24623725951892,198.77218978799556 "/><polyline class="polyline" opacity="0.5" stroke="blue" points="219.1919166197082,202.58304679939704 244.5666953809934,198.47569297367434 "/><polyline class="polyline" opacity="0.5" stroke="blue" points="219.14057376736915,201.29165508282912 243.88271743312418,198.19766521980264 "/><polyline class="polyline" opacity="0.5" stroke="blue" points="219.0818311502441,200.0 243.19449373340842,197.937894427168 "/><polyline class="polyline" opacity="0.5" stroke="blue" points="219.0157069151725,198.70844847973805 242.50221455212156,197.69614876683013 "/><polyline class="polyline" opacity="0.5" stroke="blue" points="218.94222015926601,197.4173673332133 241.80606994127777,197.47217697367174 "/><polyline class="polyline" opacity="0.5" stroke="blue" points="218.86139093397207,196.12712334050724 241.1062495579249,197.26570867241966 "/><polyline class="polyline" opacity="0.5" stroke="blue" points="218.77324025095285,194.83808333704718 240.40294248216895,197.07645473650308 "/><polyline class="polyline" opacity="0.5" stroke="blue" points="218.6777900897709,193.55061429972795 239.69633703034918,196.90410768000044 "/><polyline class="polyline" opacity="0.5" stroke="blue" points="218.57506340737083,192.26508343254298 238.98662056381525,196.74834208280558 "/><polyline class="polyline" opacity="0.5" stroke="blue" points="218.46508414934738,190.98185825154718 238.27397929378313,196.60881504902164 "/><polyline class="polyline" opacity="0.5" stroke="blue" points="218.3478772629888,189.70130666897185 237.55859808277233,196.48516669846404 "/><polyline class="polyline" opacity="0.5" stroke="blue" points="218.22346871208458,188.42379707631207 236.84066024315018,196.37702069102588 "/><polyline class="polyline" opacity="0.5" stroke="blue" points="218.09188549348607,187.14969842620448 236.12034733333002,196.28398478352918 "/><polyline class="polyline" opacity="0.5" stroke="blue" points="217.95315565540764,185.87938031291287 235.39783895219148,196.20565141855454 "/><polyline class="polyline" opacity="0.5" stroke="blue" points="217.80730831745615,184.61321305123582 234.67331253230637,196.1415983446104 "/><polyline class="polyline" opacity="0.5" stroke="blue" points="217.6543736923751,183.35156775365056 233.94694313257136,196.09138926687322 "/><polyline class="polyline" opacity="0.5" stroke="blue" points="217.49438310948946,182.094816405502 233.2189032308591,196.05457452760058 "/><polyline class="polyline" opacity="0.5" stroke="blue" points="217.32736903983698,180.84333193804642 232.48936251731214,196.03069181519206 "/><polyline class="polyline" opacity="0.5" stroke="blue" points="217.15336512296946,179.597488299154 231.75848768891004,196.019266900749 "/><polyline class="polyline" opacity="0.5" stroke="blue" points="216.97240619540838,178.35766052147306 231.0264422459463,196.019814400863 "/><polyline class="polyline" opacity="0.5" stroke="blue" points="216.78452832073657,177.12422478785433 230.29338629105314,196.03183856524788 "/><polyline class="polyline" opacity="0.5" stroke="blue" points="216.5897688213077,175.89755849383158 229.55947633141255,196.05483408771718 "/><polyline class="polyline" opacity="0.5" stroke="blue" points="216.38816631155368,174.67804030695044 228.8248650847884,196.0882869389053 "/><polyline class="polyline" opacity="0.5" stroke="blue" points="216.17976073286803,173.46605022273303 228.08970129000744,196.13167521903057 "/><polyline class="polyline" opacity="0.5" stroke="blue" points="215.96459339004375,172.26196961706387 227.35412952250994,196.18447002890645 "/><polyline class="polyline" opacity="0.5" stroke="blue" points="215.74270698924,171.0661812947766 226.61829001557638,196.24613635732345 "/><polyline class="polyline" opacity="0.5" stroke="blue" points="215.5141456774529,169.87906953421816 225.8823184878246,196.31613398284773 "/><polyline class="polyline" opacity="0.5" stroke="blue" points="215.27895508346174,168.70102012756183 225.14634597755227,196.39391838801464 "/><polyline class="polyline" opacity="0.5" stroke="blue" points="215.0371823602214,167.532420416638 224.41049868448155,196.47894168383786 "/><polyline class="polyline" opacity="0.5" stroke="blue" points="214.78887622866884,166.37365932404396 223.6748978194385,196.5706535425053 "/><polyline class="polyline" opacity="0.5" stroke="blue" points="214.53408702290957,165.2251273792936 222.93965946247752,196.66850213609382 "/><polyline class="polyline" opacity="0.5" stroke="blue" points="214.27286673674806,164.08721673975933 222.2048944299308,196.77193507910587 "/><polyline class="polyline" opacity="0.5" stroke="blue" points="214.00526907152218,162.96032120615786 221.47070815083754,196.88040037261257 "/><polyline class="polyline" opacity="0.5" stroke="blue" points="213.73134948520084,161.84483623232398 220.73720055317295,196.99334734777807 "/><polyline class="polyline" opacity="0.5" stroke="blue" points="213.45116524269955,160.74115892901443 220.00446596026694,197.11022760654285 "/><polyline class="polyline" opacity="0.5" stroke="blue" points="213.1647754673666,159.64968806147772 219.27259299776722,197.23049595725442 "/><polyline class="polyline" opacity="0.5" stroke="blue" points="212.87224119358862,158.57082404052372 218.5416645114653,197.35361134305685 "/><polyline class="polyline" opacity="0.5" stroke="blue" points="212.57362542046172,157.50496890682115 217.81175749626908,197.47903776088162 "/><polyline class="polyline" opacity="0.5" stroke="blue" points="212.26899316646976,156.4525263081478 217.08294303656527,197.60624516892403 "/><polyline class="polyline" opacity="0.5" stroke="blue" points="211.9584115251089,155.41390146931582 216.35528625818017,197.7347103805413 "/><polyline class="polyline" opacity="0.5" stroke="blue" points="211.64194972139205,154.3895011544894 215.62884629210492,197.86391794256633 "/><polyline class="polyline" opacity="0.5" stroke="blue" points="211.31967916916457,153.37973362161077 214.9036762501159,197.99336099610204 "/><polyline class="polyline" opacity="0.5" stroke="blue" points="210.99167352915632,152.38500856864675 214.17982321237932,198.12254211793456 "/><polyline class="polyline" opacity="0.5" stroke="blue" points="210.65800876769268,151.40573707136735 213.45732822709266,198.25097414079036 "/><polyline class="polyline" opacity="0.5" stroke="blue" points="210.31876321598048,150.44233151236375 212.7362263221752,198.3781809507506 "/><polyline class="polyline" opacity="0.5" stroke="blue" points="209.97401762988216,149.49520550101508 212.01654652898512,198.503698260234 "/><polyline class="polyline" opacity="0.5" stroke="blue" points="209.62385525008406,148.5647737841096 211.29831191800093,198.62707435506175 "/><polyline class="polyline" opacity="0.5" stroke="blue" points="209.26836186256187,147.6514521468286 210.5815396463727,198.74787081422454 "/><polyline class="polyline" opacity="0.5" stroke="blue" points="208.9076258592393,146.75565730379907 209.86624101721142,198.865663201084 "/><polyline class="polyline" opacity="0.5" stroke="blue" points="208.54173829873096,145.87780677992578 209.1524215504539,198.98004172485435 "/><polyline class="polyline" opacity="0.5" stroke="blue" points="208.17079296705572,145.0183187807134 208.4400810651088,199.09061187132832 "/><polyline class="polyline" opacity="0.5" stroke="blue" points="207.79488643819894,144.17761205179224 207.7292137726591,199.19699500193016 "/><polyline class="polyline" opacity="0.5" stroke="blue" points="207.41411813439854,143.35610572736653 207.01980838137015,199.29882892029863 "/><polyline class="polyline" opacity="0.5" stroke="blue" points="207.02859038602162,142.55421916730813 206.31184821122488,199.3957684057236 "/><polyline class="polyline" opacity="0.5" stroke="blue" points="206.63840849089345,141.77237178262473 205.60531131918614,199.4874857128814 "/><polyline class="polyline" opacity="0.5" stroke="blue" points="206.24368077293403,141.01098284903787 204.90017063446214,199.57367103743144 "/><polyline class="polyline" opacity="0.5" stroke="blue" points="205.84451863995082,140.2704713084163 204.19639410343407,199.65403294715648 "/><polyline class="polyline" opacity="0.5" stroke="blue" points="205.44103664042981,139.5512555578173 203.49394484388588,199.72829877844308 "/><polyline class="polyline" opacity="0.5" stroke="blue" points="205.03335251916135,138.85375322590127 202.7927813081624,199.79621499801175 "/><polyline class="polyline" opacity="0.5" stroke="blue" points="204.6215872715293,138.17838093649573 202.09285745486878,199.8575475299156 "/><polyline class="polyline" opacity="0.5" stroke="blue" points="204.2058651962867,137.52555405909956 201.39412292871415,199.91208204793108 "/><polyline class="polyline" opacity="0.5" stroke="blue" points="203.78631394663424,136.89568644613277 200.696523248094,199.9596242335654 "/><polyline class="polyline" opacity="0.5" stroke="blue" points="203.36306457941086,136.28919015675368 200.0,200.0 "/><polyline class="polyline" opacity="0.5" stroke="blue" points="202.9362516022006,135.70647516708465 199.30449104184186,200.03305568238181 "/><polyline class="polyline" opacity="0.5" stroke="blue" points="202.5060130181517,135.1479490667062 198.60993070976363,200.0586581949561 "/><polyline class="polyline" opacity="0.5" stroke="blue" points="202.07249036830004,134.6140167413031 197.91625003303918,200.07669515561585 "/><polyline class="polyline" opacity="0.5" stroke="blue" points="201.63582877118094,134.10508004136682 197.2233769541296,200.0870749785135 "/><polyline class="polyline" opacity="0.5" stroke="blue" points="201.19617695950865,133.62153743688802 196.531236553994,200.08972693544897 "/><polyline class="polyline" opacity="0.5" stroke="blue" points="200.7536873136971,133.1637836579959 195.8397512822464,200.08460118680446 "/><polyline class="polyline" opacity="0.5" stroke="blue" points="200.30851589199037,132.73220932153532 195.14884119176187,200.07166878285327 "/><polyline class="polyline" opacity="0.5" stroke="blue" points="199.8608224569658,132.32720054359856 194.45842417734158,200.05092163631295 "/><polyline class="polyline" opacity="0.5" stroke="blue" points="199.41077049816877,131.94913853806818 193.76841621805715,200.02237246705448 "/><polyline class="polyline" opacity="0.5" stroke="blue" points="198.95852725063355,131.59839920125737 193.07873162290585,199.986054719911 "/><polyline class="polyline" opacity="0.5" stroke="blue" points="198.5042637090414,131.27535268277484 192.38928327942023,199.9420224565567 "/><polyline class="polyline" opacity="0.5" stroke="blue" points="198.04815463726302,130.9803629427807 191.69998290488854,199.8903502224447 "/><polyline class="polyline" opacity="0.5" stroke="blue" points="197.59037857303122,130.71378729583972 191.01074129985696,199.83113288980775 "/><polyline class="polyline" opacity="0.5" stroke="blue" points="197.13111782748624,130.47597594162437 190.32146860359776,199.76448547773072 "/><polyline class="polyline" opacity="0.5" stroke="blue" points="196.67055847933563,130.26727148276393 189.63207455124427,199.6905429503062 "/><polyline class="polyline" opacity="0.5" stroke="blue" points="196.20889036337024,130.08800843018474 188.9424687323073,199.6094599938786 "/><polyline class="polyline" opacity="0.5" stroke="blue" points="195.74630705307678,129.9385126963357 188.25256085030375,199.52141077437213 "/><polyline class="polyline" opacity="0.5" stroke="blue" points="195.28300583709034,129.81910107674537 187.56226098324427,199.42658867568207 "/><polyline class="polyline" opacity="0.5" stroke="blue" points="194.81918768923003,129.73008072040935 186.87147984474126,199.32520602008785 "/><polyline class="polyline" opacity="0.5" stroke="blue" points="194.35505723186571,129.67174858956253 186.18012904551514,199.21749377162078 "/><polyline class="polyline" opacity="0.5" stroke="blue" points="193.8908226923661,129.64439090944677 185.48812135509056,199.103701223289 "/><polyline class="polyline" opacity="0.5" stroke="blue" points="193.42669585238448,129.64828260874287 184.79537096349029,198.98409566902853 "/><polyline class="polyline" opacity="0.5" stroke="blue" points="192.9628919897435,129.68368675139516 184.10179374274716,198.85896206121097 "/><polyline class="polyline" opacity="0.5" stroke="blue" points="192.49962981268845,129.75085396061695 183.40730750806918,198.72860265449663 "/><polyline class="polyline" opacity="0.5" stroke="blue" points="192.03713138628612,129.8500218359269 182.71183227850426,198.59333663677793 "/><polyline class="polyline" opacity="0.5" stroke="blue" points="191.57562205075627,129.9814143641289 182.01529053696464,198.45349974791023 "/><polyline class="polyline" opacity="0.5" stroke="blue" points="191.11533033153364,130.1452413252103 181.31760748948,198.30944388687706 "/><polyline class="polyline" opacity="0.5" stroke="blue" points="190.6564878408709,130.34169769419546 180.61871132355955,198.16153670798568 "/><polyline class="polyline" opacity="0.5" stroke="blue" points="190.19932917080573,130.57096304005785 179.91853346555146,198.01016120663405 "/><polyline class="polyline" opacity="0.5" stroke="blue" points="189.7440917773316,130.83320092285174 179.2170088368958,197.85571529513598 "/><polyline class="polyline" opacity="0.5" stroke="blue" points="189.29101585562674,131.12855829029263 178.5140761091738,197.6986113690345 "/><polyline class="polyline" opacity="0.5" stroke="blue" points="188.84034420621464,131.4571648750715 177.80967795785986,197.53927586427625 "/><polyline class="polyline" opacity="0.5" stroke="blue" points="188.39232209194864,131.81913259425292 177.10376131468877,197.37814880556286 "/><polyline class="polyline" opacity="0.5" stroke="blue" points="187.94719708573328,132.21455495216253 176.39627761855013,197.21568334613562 "/><polyline class="polyline" opacity="0.5" stroke="blue" points="187.50521890891784,132.64350644822832 175.68718306482512,197.0523452991948 "/><polyline class="polyline" opacity="0.5" stroke="blue" points="187.0666392603212,133.10604199129432 174.97643885307792,196.88861266109458 "/><polyline class="polyline" opacity="0.5" stroke="blue" points="186.63171163587162,133.6021963219761 174.26401143301393,196.72497512640066 "/><polyline class="polyline" opacity="0.5" stroke="blue" points="186.20069113887146,134.1319834446798 173.54987274861057,196.56193359483953 "/><polyline class="polyline" opacity="0.5" stroke="blue" points="185.773834280926,134.6953960709475 172.83400048032405,196.3999996701162 "/><polyline class="polyline" opacity="0.5" stroke="blue" points="185.3513987736016,135.2924050758379 172.11637828526517,196.23969515052238 "/><polyline class="polyline" opacity="0.5" stroke="blue" points="184.9336433109122,135.92295896908536 171.39699603523167,196.08155151120724 "/><polyline class="polyline" opacity="0.5" stroke="blue" points="184.52082734276146,136.5869833828157 170.67585005247173,195.92610937793268 "/><polyline class="polyline" opacity="0.5" stroke="blue" points="184.11321083950227,137.28438057762298 169.95294334304418,195.77391799208945 "/><polyline class="polyline" opacity="0.5" stroke="blue" points="183.71105404780758,138.0150289688355 169.22828582762386,195.62553466670477 "/><polyline class="polyline" opacity="0.5" stroke="blue" points="183.3146172380818,138.7787826748135 168.50189456958975,195.4815242331314 "/><polyline class="polyline" opacity="0.5" stroke="blue" points="182.92416044367567,139.57547108913312 167.77379400021363,195.34245847806963 "/><polyline class="polyline" opacity="0.5" stroke="blue" points="182.53994319220413,140.40489847851336 167.04401614074987,195.2089155705374 "/><polyline class="polyline" opacity="0.5" stroke="blue" points="182.1622242293029,141.26684360833892 166.31260082120855,195.08147947837318 "/><polyline class="polyline" opacity="0.5" stroke="blue" points="181.7912612351942,142.16105939762173 165.57959589557075,194.9607393738272 "/><polyline class="polyline" opacity="0.5" stroke="blue" points="181.4273105344713,143.0872726052238 164.8450574531847,194.84728902777272 "/><polyline class="polyline" opacity="0.5" stroke="blue" points="181.07062679954515,144.04518354913887 164.10905002605503,194.74172619204933 "/><polyline class="polyline" opacity="0.5" stroke="blue" points="180.7214627482348,145.03446586059337 163.37164679171573,194.64465196943414 "/><polyline class="polyline" opacity="0.5" stroke="blue" points="180.3800688360181,146.05476627468587 162.63292977134665,194.55667017072645 "/><polyline class="polyline" opacity="0.5" stroke="blue" points="180.04669294349497,147.10570445922994 161.89299002277033,194.47838665842437 "/><polyline class="polyline" opacity="0.5" stroke="blue" points="179.72158005964968,148.18687288340672 161.15192782793397,194.41040867647203 "/><polyline class="polyline" opacity="0.5" stroke="blue" points="179.40497196153257,149.29783672776136 160.40985287445432,194.35334416555963 "/><polyline class="polyline" opacity="0.5" stroke="blue" points="179.09710689101306,150.43813383700152 159.6668844307713,194.30780106346805 "/><polyline class="polyline" opacity="0.5" stroke="blue" points="178.79821922928798,151.60727471696597 158.92315151442645,194.2743865899662 "/><polyline class="polyline" opacity="0.5" stroke="blue" points="178.50853916985744,152.80474257703787 158.17879305295068,194.25370651579004 "/><polyline class="polyline" opacity="0.5" stroke="blue" points="178.22829239070768,154.02999341917 157.4339580368125,194.24636441525982 "/><polyline class="polyline" opacity="0.5" stroke="blue" points="177.957699726467,155.28245617457767 156.68880566384908,194.25296090212657 "/><polyline class="polyline" opacity="0.5" stroke="blue" points="177.69697684132188,156.56153288903272 155.9435054745659,194.27409284827885 "/><polyline class="polyline" opacity="0.5" stroke="blue" points="177.44633390350276,157.8665989575624 155.19823747766364,194.31035258498764 "/><polyline class="polyline" opacity="0.5" stroke="blue" points="177.20597526216574,159.1970034092213 154.45319226511486,194.3623270864224 "/><polyline class="polyline" opacity="0.5" stroke="blue" points="176.97609912751133,160.55206924245874 153.7085711160858,194.4305971352309 "/><polyline class="polyline" opacity="0.5" stroke="blue" points="176.7568972549942,161.93109381145578 152.96458608896563,194.5157364700444 "/><polyline class="polyline" opacity="0.5" stroke="blue" points="176.54855463448507,163.3333492636467 152.22146010073794,194.6183109148448 "/><polyline class="polyline" opacity="0.5" stroke="blue" points="176.35124918525324,164.75808302848196 151.47942699290067,194.73887749021333 "/><polyline class="polyline" opacity="0.5" stroke="blue" points="176.16515145763788,166.2045183573185 150.73873158311525,194.87798350656885 "/><polyline class="polyline" opacity="0.5" stroke="blue" points="175.99042434227596,167.67185491415734 149.9996297017398,195.03616563960392 "/><polyline class="polyline" opacity="0.5" stroke="blue" points="175.8272227877486,169.15926941677134 149.26238821238195,195.2139489882277 "/><polyline class="polyline" opacity="0.5" stroke="blue" points="175.67569352749868,170.6659163275927 148.52728501558363,195.41184611544023 "/><polyline class="polyline" opacity="0.5" stroke="blue" points="175.53597481685875,172.19092859355086 147.7946090347369,195.6303560726786 "/><polyline class="polyline" opacity="0.5" stroke="blue" points="175.40819618101216,173.73341843387362 147.0646601833141,195.86996340830396 "/><polyline class="polyline" opacity="0.5" stroke="blue" points="175.29247817468905,175.29247817468905 146.33774931248612,196.13113716102916 "/><polyline class="polyline" opacity="0.5" stroke="blue" points="175.1889321543741,176.86718112908494 145.614198138198,196.41432983922758 "/><polyline class="polyline" opacity="0.5" stroke="blue" points="175.0976600637747,178.4565825211159 144.89433914676613,196.7199763872088 "/><polyline class="polyline" opacity="0.5" stroke="blue" points="175.01875423326584,180.059720452068 144.1785154780677,197.04849313969734 "/><polyline class="polyline" opacity="0.5" stroke="blue" points="174.9522971939923,181.67561690713526 143.46708078539825,197.40027676590935 "/><polyline class="polyline" opacity="0.5" stroke="blue" points="174.8983615072693,183.30327880049165 142.76039907108736,197.7757032047813 "/><polyline class="polyline" opacity="0.5" stroke="blue" points="174.85700960987998,184.94169905659493 142.0588444969814,198.17512659307312 "/><polyline class="polyline" opacity="0.5" stroke="blue" points="174.8282936758224,186.58985772540458 141.36280116892743,198.59887818823532 "/><polyline class="polyline" opacity="0.5" stroke="blue" points="174.81225549501005,188.24672312906205 140.6726628944222,199.04726528810394 "/><polyline class="polyline" opacity="0.5" stroke="blue" points="174.80892636937745,189.9112530374464 139.9888329126308,199.52057014965982 "/><polyline class="polyline" opacity="0.5" stroke="blue" points="174.8183270267894,191.58239586989868 139.31172359602218,200.01904890926477 "/><polyline class="polyline" opacity="0.5" stroke="blue" points="174.84046755309535,193.25909192030025 138.6417561229219,200.54293050696293 "/><polyline class="polyline" opacity="0.5" stroke="blue" points="174.87534734261175,194.94027460258428 137.97936012034364,201.0924156176082 "/><polyline class="polyline" opacity="0.5" stroke="blue" points="174.92295506725594,196.62487171368062 137.32497327652607,201.66767559175355 "/><polyline class="polyline" opacity="0.5" stroke="blue" points="174.9832686644935,198.31180671081214 136.67904092267904,202.26885140940405 "/><polyline class="polyline" opacity="0.5" stroke="blue" points="175.05625534419775,200.0 136.0420155835267,202.89605264990047 "/><polyline class="polyline" opacity="0.5" stroke="blue" points="175.14187161445798,201.68837023258905 135.4143564963244,203.54935648135873 "/><polyline class="polyline" opacity="0.5" stroke="blue" points="175.240063326309,203.37583560656506 134.79652909812927,204.22880667323952 "/><polyline class="polyline" opacity="0.5" stroke="blue" points="175.3507657372905,205.06131516941707 134.1890044812089,204.93441263576415 "/><polyline class="polyline" opacity="0.5" stroke="blue" points="175.4739035936822,206.74373011928694 133.59225881659052,205.66614849002252 "/><polyline class="polyline" opacity="0.5" stroke="blue" points="175.60939123119792,208.4220051011599 133.0067727458744,206.42395217273847 "/><polyline class="polyline" opacity="0.5" stroke="blue" points="175.75713269385955,210.09506949486476 132.43303074156842,207.20772457976017 "/><polyline class="polyline" opacity="0.5" stroke="blue" points="175.91702187071212,211.76185869169106 131.87152043633532,208.0173287524341 "/><polyline class="polyline" opacity="0.5" stroke="blue" points="176.08894264998204,213.42131535647462 131.32273192169316,208.85258911109042 "/><polyline class="polyline" opacity="0.5" stroke="blue" points="176.27276909022453,215.07239067206893 130.7871570168556,209.7132907399226 "/><polyline class="polyline" opacity="0.5" stroke="blue" points="176.46836560795046,216.71404556318953 130.26528850855925,210.59917872757507 "/><polyline class="polyline" opacity="0.5" stroke="blue" points="176.67558718117252,218.34525189670927 129.75761936288333,211.50995756776447 "/><polyline class="polyline" opacity="0.5" stroke="blue" points="176.89427956825944,219.96499365557617 129.26464191023513,212.44529062424547 "/><polyline class="polyline" opacity="0.5" stroke="blue" points="177.12427954144266,221.57226808364254 128.78684700484146,213.40479966439693 "/><polyline class="polyline" opacity="0.5" stroke="blue" points="177.3654151342759,223.16608679880815 128.3247231602579,214.38806446563973 "/><polyline class="polyline" opacity="0.5" stroke="blue" points="177.6175059023081,224.74547687201303 127.87875566258145,215.3946224988055 "/><polyline class="polyline" opacity="0.5" stroke="blue" points="177.88036319619565,226.30948186975675 127.449425663222,216.42396869245988 "/><polyline class="polyline" opacity="0.5" stroke="blue" points="178.15379044644632,227.85716285796627 127.03720925326257,217.47555528203372 "/><polyline class="polyline" opacity="0.5" stroke="blue" points="178.43758345895972,229.38759936518994 126.6425765216048,218.54879174743962 "/><polyline class="polyline" opacity="0.5" stroke="blue" points="178.7315307205043,230.8998903032561 126.26599059926453,219.64304484264346 "/><polyline class="polyline" opacity="0.5" stroke="blue" points="179.035413713251,232.39315484370337 125.90790669234131,220.75763872042484 "/><polyline class="polyline" opacity="0.5" stroke="blue" points="179.34900723746654,233.86653324845776 125.56877110633967,221.8918551552909 "/><polyline class="polyline" opacity="0.5" stroke="blue" points="179.6720797414587,235.31918765340865 125.24902026467004,223.0449338672134 "/><polyline class="polyline" opacity="0.5" stroke="blue" points="180.00439365785493,236.75030280370936 124.94907972428997,224.21607294852967 "/><polyline class="polyline" opacity="0.5" stroke="blue" points="180.34570574529477,238.15908673981124 124.66936319157766,225.40442939599768 "/><polyline class="polyline" opacity="0.5" stroke="blue" points="180.69576743461346,239.54477143341438 124.41027154164121,226.60911974961107 "/><polyline class="polyline" opacity="0.5" stroke="blue" points="181.05432517859936,240.9066133726975 124.1721918443709,227.82922083937322 "/><polyline class="polyline" opacity="0.5" stroke="blue" points="181.4211208044142,242.24389409636944 123.95549640062734,229.06377064080084 "/><polyline class="polyline" opacity="0.5" stroke="blue" points="181.79589186777642,243.5559206762552 123.76054179202777,230.31176923947265 "/><polyline class="polyline" opacity="0.5" stroke="blue" points="182.17837200802262,244.84202614830446 123.58766794784921,231.5721799044691 "/><polyline class="polyline" opacity="0.5" stroke="blue" points="182.5682913031781,246.10156989207593 123.43719723259827,232.8439302700573 "/><polyline class="polyline" opacity="0.5" stroke="blue" points="182.96537662419058,247.33393795891627 123.3094335578154,234.1259136244782 "/><polyline class="polyline" opacity="0.5" stroke="blue" points="183.36935198750254,248.5385433492086 123.20466152167643,235.41699030417442 "/><polyline class="polyline" opacity="0.5" stroke="blue" points="183.77993890516558,249.7148262392186 123.12314557992693,236.71598919128252 "/><polyline class="polyline" opacity="0.5" stroke="blue" points="184.19685673172742,250.86225415820945 123.06512925163999,238.02170931168348 "/><polyline class="polyline" opacity="0.5" stroke="blue" points="184.61982300715457,251.98032211663917 123.03083436321735,239.33292153038872 "/><polyline class="polyline" opacity="0.5" stroke="blue" points="185.04855379508578,253.06855268638068 123.02046033396327,240.64837034051257 "/><polyline class="polyline" opacity="0.5" stroke="blue" points="185.48276401574665,254.1264960340307 123.03418350644779,241.96677574157545 "/><polyline class="polyline" opacity="0.5" stroke="blue" points="185.9221677728914,255.1537299084858 123.07215652473987,243.28683520237746 "/><polyline class="polyline" opacity="0.5" stroke="blue" points="186.3664786741764,256.14985958407294 123.13450776343545,244.6072257032039 "/><polyline class="polyline" opacity="0.5" stroke="blue" points="186.81541014440822,257.1145177606177 123.22134081022782,245.92660585165567 "/><polyline class="polyline" opacity="0.5" stroke="blue" points="187.26867573114794,258.0473644219204 123.33273400456942,247.24361806595968 "/><polyline class="polyline" opacity="0.5" stroke="blue" points="187.72598940219527,258.9480866541955 123.46874003475929,248.55689081920417 "/><polyline class="polyline" opacity="0.5" stroke="blue" points="188.18706583451416,259.81639842609235 123.62938559555423,249.865040937561 "/><polyline class="polyline" opacity="0.5" stroke="blue" points="188.651620694205,260.6520403319862 123.81467110815248,251.16667594521346 "/><polyline class="polyline" opacity="0.5" stroke="blue" points="189.11937090716654,261.45477930027255 124.02457050413278,252.46039644839976 "/><polyline class="polyline" opacity="0.5" stroke="blue" points="189.5900349201334,262.2244082684496 124.25903107465261,253.74479855071826 "/><polyline class="polyline" opacity="0.5" stroke="blue" points="190.06333295181372,262.96074582680467 124.51797338592006,255.0184762916162 "/><polyline class="polyline" opacity="0.5" stroke="blue" points="190.5389872338914,263.6636358325488 124.80129126165514,256.2800240998098 "/><polyline class="polyline" opacity="0.5" stroke="blue" points="191.01672224169607,264.3329469962639 125.10885183294906,257.52803925325145 "/><polyline class="polyline" opacity="0.5" stroke="blue" points="191.4962649143825,264.96857244253783 125.4404956556216,258.76112433718555 "/><polyline class="polyline" opacity="0.5" stroke="blue" points="191.97734486449616,265.5704292466656 125.79603689486075,259.97788969180067 "/><polyline class="polyline" opacity="0.5" stroke="blue" points="192.45969457684052,266.13845794929364 126.1752635766183,261.17695584101045 "/><polyline class="polyline" opacity="0.5" stroke="blue" points="192.94304959659195,266.67262205087195 126.57793790492067,262.35695589396596 "/><polyline class="polyline" opacity="0.5" stroke="blue" points="193.4271487066455,267.1729074877642 127.00379664395093,263.5165379110273 "/><polyline class="polyline" opacity="0.5" stroke="blue" points="193.91173409420347,267.63932209184253 127.45255156345617,264.65436722609286 "/><polyline class="polyline" opacity="0.5" stroke="blue" points="194.39655150664979,268.07189503536557 127.92388994574321,265.76912871740495 "/><polyline class="polyline" opacity="0.5" stroke="blue" points="194.88135039678286,268.47067626290584 128.41747515224836,266.8595290192192 "/><polyline class="polyline" opacity="0.5" stroke="blue" points="195.36588405750467,268.83573591205356 128.93294724739835,267.92429866703526 "/><polyline class="polyline" opacity="0.5" stroke="blue" points="195.84990974609101,269.1671637245827 129.46992367722987,268.96219416943916 "/><polyline class="polyline" opacity="0.5" stroke="blue" points="196.33318879819012,269.46506844971736 130.02800000000002,269.972 "/><polyline class="polyline" opacity="0.5" stroke="blue" points="196.81548673171991,269.72957724108846 130.60675066580527,270.95253050309105 "/><polyline class="polyline" opacity="0.5" stroke="blue" points="197.2965733408542,269.9608350489168 131.2057298420304,271.90263170796453 "/><polyline class="polyline" opacity="0.5" stroke="blue" points="197.77622278030614,270.15900400890246 131.82447228127347,272.8211830458972 "/><polyline class="polyline" opacity="0.5" stroke="blue" points="198.25421364013513,270.324262829245 132.46249422824175,273.70709896573464 "/><polyline class="polyline" opacity="0.5" stroke="blue" points="198.7303290113183,270.4568061771555 133.11929436198298,274.5593304436961 "/><polyline class="polyline" opacity="0.5" stroke="blue" points="199.20435654234137,270.55684406616405 133.79435476971037,275.3768663838485 "/><polyline class="polyline" opacity="0.5" stroke="blue" points="199.67608848707616,270.624601245461 134.48714194839795,276.15873490621664 "/><polyline class="polyline" opacity="0.5" stroke="blue" points="200.14532174422152,270.6603165924481 135.19710783026335,276.9040045200653 "/><polyline class="polyline" opacity="0.5" stroke="blue" points="200.61185788859575,270.66424250961126 135.9236908282214,277.61178518045756 "/><polyline class="polyline" opacity="0.5" stroke="blue" points="201.07550319457386,270.63664432676325 136.6663168973817,278.2812292267616 "/><polyline class="polyline" opacity="0.5" stroke="blue" points="201.53606865197048,270.5777997096401 137.42440060867213,278.91153220234213 "/><polyline class="polyline" opacity="0.5" stroke="blue" points="201.99336997467472,270.4879980757704 138.1973462307092,279.5019335552267 "/><polyline class="polyline" opacity="0.5" stroke="blue" points="202.44722760234546,270.367540018475 138.9845488160878,280.05171722007685 "/><polyline class="polyline" opacity="0.5" stroke="blue" points="202.8974666954798,270.2167367397908 139.7853952883417,280.5602120823201 "/><polyline class="polyline" opacity="0.5" stroke="blue" points="203.3439171241668,270.03590949305215 140.5992655259198,281.0267923258019 "/><polyline class="polyline" opacity="0.5" stroke="blue" points="203.78641345084125,269.82538903580047 141.4255334396389,281.45087766580104 "/><polyline class="polyline" opacity="0.5" stroke="blue" points="204.22479490734912,269.5855150936376 142.26356804020148,281.8319334697066 "/><polyline class="polyline" opacity="0.5" stroke="blue" points="204.65890536663687,269.3166358355765 143.11273449251303,282.16947076808617 "/><polyline class="polyline" opacity="0.5" stroke="blue" points="205.08859330937224,269.01910736139155 143.97239515369216,282.46304615927346 "/><polyline class="polyline" opacity="0.5" stroke="blue" points="205.5137117858029,268.6932932014115 144.84191059183738,282.71226161097206 "/><polyline class="polyline" opacity="0.5" stroke="blue" points="205.93411837315324,268.3395638291498 145.72064058279344,282.91676416270917 "/><polyline class="polyline" opacity="0.5" stroke="blue" points="206.34967512885714,267.9582961871156 146.6079450823529,283.0762455332748 "/><polyline class="polyline" opacity="0.5" stroke="blue" points="206.76024853991646,267.54987322609816 147.50318517151914,283.1904416375498 "/><polyline class="polyline" opacity="0.5" stroke="blue" points="207.16570946867205,267.114683458173 148.40572397266448,283.25913201736114 "/><polyline class="polyline" opacity="0.5" stroke="blue" points="207.5659330952658,266.6531205236339 149.31492753461808,283.28213919120054 "/><polyline class="polyline" opacity="0.5" stroke="blue" points="207.96079885706564,266.1655827720113 150.23016568492613,283.2593279278077 "/><polyline class="polyline" opacity="0.5" stroke="blue" points="208.35019038531942,265.6524728572969 151.1508128477356,283.19060444875146 "/><polyline class="polyline" opacity="0.5" stroke="blue" points="208.73399543929472,265.11419734745834 152.07624882595906,283.07591556523755 "/><polyline class="polyline" opacity="0.5" stroke="blue" points="209.1121058381549,264.5511663482906 153.0058595465824,282.91524775443975 "/><polyline class="polyline" opacity="0.5" stroke="blue" points="209.48441739081292,263.96379314161663 153.93903776817876,282.70862618068526 "/><polyline class="polyline" opacity="0.5" stroke="blue" points="209.85082982399751,263.3524938378171 154.87518374989003,282.4561136668292 "/><polyline class="polyline" opacity="0.5" stroke="blue" points="210.2112467087562,262.71768704264264 155.81370588132611,282.15780962113377 "/><polyline class="polyline" opacity="0.5" stroke="blue" points="210.5655753856134,262.05979353822926 156.7540212730194,281.8138489249145 "/><polyline class="polyline" opacity="0.5" stroke="blue" points="210.91372688859147,261.37923597821714 157.69555630724602,281.42440078614754 "/><polyline class="polyline" opacity="0.5" stroke="blue" points="211.25561586829537,260.67643859684404 158.6377471491985,280.9896675641311 "/><polyline class="polyline" opacity="0.5" stroke="blue" points="211.591160514253,259.9518269318657 159.5800402186519,280.5098835701817 "/><polyline class="polyline" opacity="0.5" stroke="blue" points="211.920282476694,259.20582756113527 160.52189262241674,279.9853138492086 "/><polyline class="polyline" opacity="0.5" stroke="blue" points="212.24290678794245,258.43886785265306 161.4627725480174,279.41625294685645 "/><polyline class="polyline" opacity="0.5" stroke="blue" points="212.55896178359032,257.65137572788353 162.40215961916098,278.80302366674334 "/><polyline class="polyline" opacity="0.5" stroke="blue" points="212.8683790236102,256.84377943811916 163.33954521368844,278.14597582213634 "/><polyline class="polyline" opacity="0.5" stroke="blue" points="213.1710932135578,256.0165073536596 164.2744327448067,277.44548498622146 "/><polyline class="polyline" opacity="0.5" stroke="blue" points="213.46704212600744,255.16998776555937 165.2063379065059,276.7019512449215 "/><polyline class="polyline" opacity="0.5" stroke="blue" points="213.75616652235487,254.30464869968876 166.13478888415338,275.9157979560101 "/><polyline class="polyline" opacity="0.5" stroke="blue" points="214.03841007511602,253.42091774284216 167.05932653133945,275.0874705180579 "/><polyline class="polyline" opacity="0.5" stroke="blue" points="214.3137192908407,252.5192218806211 167.9795045141181,274.21743515253075 "/><polyline class="polyline" opacity="0.5" stroke="blue" points="214.58204343375556,251.59998734680903 168.89488942385097,273.3061777021418 "/><polyline class="polyline" opacity="0.5" stroke="blue" points="214.84333445024163,250.6636394839542 169.8050608599112,272.35420244833836 "/><polyline class="polyline" opacity="0.5" stroke="blue" points="215.09754689424653,249.71060261486645 170.70961148354914,271.36203095058914 "/><polyline class="polyline" opacity="0.5" stroke="blue" points="215.34463785372412,248.74129992473536 171.60814704425405,270.33020090991795 "/><polyline class="polyline" opacity="0.5" stroke="blue" points="215.58456687818872,247.75615335356952 172.50028637997497,269.25926505891647 "/><polyline class="polyline" opacity="0.5" stroke="blue" points="215.8172959074644,246.75558349865813 173.38566139257955,268.14979008026074 "/><polyline class="polyline" opacity="0.5" stroke="blue" points="216.04278920170495,245.74000952675368 174.2639169999407,267.0023555555488 "/><polyline class="polyline" opacity="0.5" stroke="blue" points="216.26101327275364,244.70984909567332 175.13471106604803,265.8175529460783 "/><polyline class="polyline" opacity="0.5" stroke="blue" points="216.47193681690752,243.6655182850179 175.99771431053472,264.5959846069916 "/><polyline class="polyline" opacity="0.5" stroke="blue" points="216.67553064914517,242.60743153570775 176.85261019900565,263.3382628360268 "/><polyline class="polyline" opacity="0.5" stroke="blue" points="216.87176763887274,241.53600159803682 177.69909481553663,262.04500895793944 "/><polyline class="polyline" opacity="0.5" stroke="blue" points="217.0606226472377,240.45163948794612 178.53687671869858,260.71685244548445 "/><polyline class="polyline" opacity="0.5" stroke="blue" points="217.24207246605664,239.35475445122347 179.3656767824354,259.35443007768976 "/><polyline class="polyline" opacity="0.5" stroke="blue" points="217.41609575839763,238.24575393533547 180.18522802309974,257.95838513599676 "/><polyline class="polyline" opacity="0.5" stroke="blue" points="217.58267300085544,237.12504356860495 180.9952754139177,256.52936663870196 "/><polyline class="polyline" opacity="0.5" stroke="blue" points="217.74178642755305,235.9930271464459 181.79557568812427,255.06802861399206 "/><polyline class="polyline" opacity="0.5" stroke="blue" points="217.89341997590026,234.8501066243764 182.5858971319707,253.57502941174482 "/><polyline class="polyline" opacity="0.5" stroke="blue" points="218.03755923413604,233.69668211752975 183.36601936877133,252.0510310541432 "/><polyline class="polyline" opacity="0.5" stroke="blue" points="218.17419139067903,232.53315190639265 184.13573313511307,250.49669862504769 "/><polyline class="polyline" opacity="0.5" stroke="blue" points="218.30330518530752,231.35991244849873 184.89484005031326,248.91269969796286 "/><polyline class="polyline" opacity="0.5" stroke="blue" points="218.42489086218725,230.17735839581417 185.6431523801662,247.29970380234903 "/><polyline class="polyline" opacity="0.5" stroke="blue" points="218.53894012476283,228.985882617556 186.3804927959758,245.6583819279424 "/><polyline class="polyline" opacity="0.5" stroke="blue" points="218.64544609252707,227.78587622818543 187.10669412982855,243.98940606666923 "/><polyline class="polyline" opacity="0.5" stroke="blue" points="218.7444032596794,226.57772862032772 187.82159912701636,242.29344879167502 "/><polyline class="polyline" opacity="0.5" stroke="blue" points="218.83580745568293,225.36182750237066 188.5250601964742,240.5711828729249 "/><polyline class="polyline" opacity="0.5" stroke="blue" points="218.91965580772805,224.13855894050215 189.21693916005273,238.82328092878038 "/><polyline class="polyline" opacity="0.5" stroke="blue" points="218.9959467051083,222.90830740494832 189.89710700140557,237.05041511290716 "/><polyline class="polyline" opacity="0.5" stroke="blue" points="219.06467976551326,221.67145582018114 190.56544361522307,235.25325683583037 "/><polyline class="polyline" opacity="0.5" stroke="blue" points="219.12585580324125,220.42838561886686 191.22183755750711,233.43247652041723 "/><polyline class="polyline" opacity="0.5" stroke="blue" points="219.1794767993335,219.1794767993335 191.86618579753537,231.5887433905391 "/><polyline class="polyline" opacity="0.5" stroke="blue" points="219.22554587363052,217.92510798633631 192.498393472128,229.72272529213913 "/><polyline class="polyline" opacity="0.5" stroke="blue" points="219.26406725874998,216.66565649490775 193.11837364278608,227.8350885459141 "/><polyline class="polyline" opacity="0.5" stroke="blue" points="219.29504627598413,215.40149839707956 193.72604705623715,225.92649783080398 "/><polyline class="polyline" opacity="0.5" stroke="blue" points="219.31848931311515,214.13300859127196 194.3213419088827,223.9976160974744 "/><polyline class="polyline" opacity="0.5" stroke="blue" points="219.33440380414405,212.8605608741435 194.90419361561152,222.04910451096615 "/><polyline class="polyline" opacity="0.5" stroke="blue" points="219.3427982109303,211.58452801470267 195.47454458340573,220.08162242168711 "/><polyline class="polyline" opacity="0.5" stroke="blue" points="219.34368200673646,210.30528183048565 196.03234399013513,218.09582736392326 "/><polyline class="polyline" opacity="0.5" stroke="blue" points="219.33706566167325,209.0231932656029 196.5775475689057,216.09237508104113 "/><polyline class="polyline" opacity="0.5" stroke="blue" points="219.3229606300391,207.7386324704667 197.11011739829723,214.0719195765696 "/><polyline class="polyline" opacity="0.5" stroke="blue" points="219.30137933954782,206.45196888300768 197.63002169879886,212.03511319034658 "/><polyline class="polyline" opacity="0.5" stroke="blue" points="219.2723351824379,205.16357131119742 198.13723463572288,209.98260669893554 "/><polyline class="polyline" opacity="0.5" stroke="blue" points="219.23584250845607,203.87380801668928 198.63173612885572,207.91504943951767 "/><polyline class="polyline" opacity="0.5" stroke="blue" points="219.1919166197082,202.58304679939704 199.1135116690782,205.8330894564863 "/><polyline class="polyline" opacity="0.5" stroke="blue" points="219.14057376736915,201.29165508282915 199.58255214216783,203.73737366997725 "/><polyline class="polyline" opacity="0.5" stroke="blue" points="219.0818311502441,200.0 200.0388536599743,201.62854806558852 "/><polyline class="polyline" opacity="0.5" stroke="blue" points="219.0157069151725,198.70844847973802 200.4824173991407,199.5072579045502 "/><polyline class="polyline" opacity="0.5" stroke="blue" points="218.94222015926601,197.4173673332133 200.9132494475252,197.37414795362642 "/><polyline class="polyline" opacity="0.5" stroke="blue" points="218.86139093397207,196.12712334050718 201.33136065846136,195.2298627340412 "/><polyline class="polyline" opacity="0.5" stroke="blue" points="218.77324025095285,194.83808333704712 201.73676651298004,193.07504678873877 "/><polyline class="polyline" opacity="0.5" stroke="blue" points="218.6777900897709,193.55061429972798 202.12948699010204,190.91034496729642 "/><polyline class="polyline" opacity="0.5" stroke="blue" points="218.57506340737083,192.26508343254298 202.50954644529756,188.73640272782688 "/><polyline class="polyline" opacity="0.5" stroke="blue" points="218.46508414934738,190.98185825154715 202.8769734971962,186.55386645521793 "/><polyline class="polyline" opacity="0.5" stroke="blue" points="218.3478772629888,189.7013066689718 203.23180092262115,184.36338379506427 "/><polyline class="polyline" opacity="0.5" stroke="blue" points="218.22346871208458,188.4237970763121 203.57406556001072,182.16560400266178 "/><polyline class="polyline" opacity="0.5" stroke="blue" points="218.09188549348607,187.1496984262045 203.90380822128114,179.96117830643755 "/><polyline class="polyline" opacity="0.5" stroke="blue" points="217.95315565540764,185.87938031291284 204.22107361217627,177.75076028520135 "/><polyline class="polyline" opacity="0.5" stroke="blue" points="217.80730831745615,184.6132130512358 204.5259102611427,175.5350062586011 "/><polyline class="polyline" opacity="0.5" stroke="blue" points="217.6543736923751,183.35156775365058 204.81837045676085,173.31457569017505 "/><polyline class="polyline" opacity="0.5" stroke="blue" points="217.49438310948946,182.094816405502 205.09851019375685,171.0901316023878 "/><polyline class="polyline" opacity="0.5" stroke="blue" points="217.32736903983698,180.8433319380464 205.3663891276141,168.8623410030411 "/><polyline class="polyline" opacity="0.5" stroke="blue" points="217.15336512296946,179.5974882991541 205.62207053779684,166.63187532243893 "/><polyline class="polyline" opacity="0.5" stroke="blue" points="216.97240619540838,178.3576605214731 205.86562129959475,164.39941086068362 "/><polyline class="polyline" opacity="0.5" stroke="blue" points="216.78452832073654,177.12422478785427 206.0971118645904,162.16562924447123 "/><polyline class="polyline" opacity="0.5" stroke="blue" points="216.5897688213077,175.89755849383153 206.3166162497485,159.93121789273346 "/><polyline class="polyline" opacity="0.5" stroke="blue" points="216.38816631155368,174.67804030695046 206.52421203512003,157.69687049046544 "/><polyline class="polyline" opacity="0.5" stroke="blue" points="216.17976073286803,173.46605022273303 206.71998037015032,155.46328747005322 "/><polyline class="polyline" opacity="0.5" stroke="blue" points="215.96459339004375,172.26196961706387 206.90400598857465,153.23117649939488 "/><polyline class="polyline" opacity="0.5" stroke="blue" points="215.74270698924,171.06618129477658 207.07637723188174,151.0012529760781 "/><polyline class="polyline" opacity="0.5" stroke="blue" points="215.5141456774529,169.87906953421816 207.2371860813174,148.77424052685015 "/><polyline class="polyline" opacity="0.5" stroke="blue" points="215.27895508346174,168.70102012756183 207.38652819839888,146.55087151157838 "/><polyline class="polyline" opacity="0.5" stroke="blue" points="215.0371823602214,167.53242041663793 207.52450297390124,144.33188753086267 "/><polyline class="polyline" opacity="0.5" stroke="blue" points="214.7888762286688,166.37365932404393 207.6512135852725,142.1180399364145 "/><polyline class="polyline" opacity="0.5" stroke="blue" points="214.53408702290957,165.22512737929364 207.7667670624272,139.91009034327234 "/><polyline class="polyline" opacity="0.5" stroke="blue" points="214.27286673674806,164.08721673975936 207.87127436185958,137.70881114286925 "/><polyline class="polyline" opacity="0.5" stroke="blue" points="214.00526907152218,162.9603212061578 207.96485044900942,135.51498601591345 "/><polyline class="polyline" opacity="0.5" stroke="blue" points="213.73134948520084,161.84483623232404 208.0476143888045,133.32941044397546 "/><polyline class="polyline" opacity="0.5" stroke="blue" points="213.45116524269955,160.74115892901443 208.11968944429276,131.15289221861485 "/><polyline class="polyline" opacity="0.5" stroke="blue" points="213.16477546736658,159.64968806147772 208.1812031832655,128.9862519468045 "/><polyline class="polyline" opacity="0.5" stroke="blue" points="212.87224119358862,158.5708240405237 208.23228759276142,126.83032355133103 "/><polyline class="polyline" opacity="0.5" stroke="blue" points="212.57362542046172,157.50496890682115 208.27307920132517,124.68595476477374 "/><polyline class="polyline" opacity="0.5" stroke="blue" points="212.26899316646976,156.4525263081478 208.30371920888084,122.55400761556854 "/><polyline class="polyline" opacity="0.5" stroke="blue" points="211.9584115251089,155.4139014693158 208.32435362406187,120.43535890458101 "/><polyline class="polyline" opacity="0.5" stroke="blue" points="211.64194972139205,154.38950115448935 208.33513340882132,118.33090067050249 "/><polyline class="polyline" opacity="0.5" stroke="blue" points="211.31967916916457,153.37973362161077 208.33621463012565,116.2415406422905 "/><polyline class="polyline" opacity="0.5" stroke="blue" points="210.99167352915634,152.38500856864678 208.3277586185125,114.16820267675793 "/><polyline class="polyline" opacity="0.5" stroke="blue" points="210.65800876769265,151.40573707136733 208.30993213326906,112.11182717930936 "/><polyline class="polyline" opacity="0.5" stroke="blue" points="210.31876321598048,150.44233151236372 208.28290753396095,110.07337150569478 "/><polyline class="polyline" opacity="0.5" stroke="blue" points="209.97401762988216,149.4952055010151 208.24686295801328,108.05381034253676 "/><polyline class="polyline" opacity="0.5" stroke="blue" points="209.62385525008406,148.5647737841096 208.20198250401376,106.0541360642511 "/><polyline class="polyline" opacity="0.5" stroke="blue" points="209.26836186256187,147.6514521468286 208.14845642037585,104.07535906385574 "/><polyline class="polyline" opacity="0.5" stroke="blue" points="208.9076258592393,146.75565730379907 208.08648129896252,102.11850805501813 "/><polyline class="polyline" opacity="0.5" stroke="blue" points="208.54173829873096,145.87780677992578 208.01626027323428,100.18463034255743 "/><polyline class="polyline" opacity="0.5" stroke="blue" points="208.1707929670557,145.0183187807134 207.9380032204431,98.27479205847412 "/><polyline class="polyline" opacity="0.5" stroke="blue" points="207.79488643819892,144.1776120517922 207.8519269673508,96.39007836042848 "/><polyline class="polyline" opacity="0.5" stroke="blue" points="207.41411813439854,143.35610572736658 207.7582554989033,94.53159358944912 "/><polyline class="polyline" opacity="0.5" stroke="blue" points="207.02859038602162,142.55421916730816 207.65722016924374,92.70046138349888 "/><polyline class="polyline" opacity="0.5" stroke="blue" points="206.63840849089343,141.7723717826247 207.54905991439483,90.8978247433793 "/><polyline class="polyline" opacity="0.5" stroke="blue" points="206.24368077293403,141.01098284903787 207.43402146588542,89.12484604730476 "/><polyline class="polyline" opacity="0.5" stroke="blue" points="205.84451863995082,140.2704713084163 207.3123595645397,87.3827070103317 "/><polyline class="polyline" opacity="0.5" stroke="blue" points="205.44103664042981,139.5512555578173 207.18433717358587,85.67260858468495 "/><polyline class="polyline" opacity="0.5" stroke="blue" points="205.03335251916135,138.85375322590127 207.05022569017902,83.99577079688578 "/><polyline class="polyline" opacity="0.5" stroke="blue" points="204.62158727152928,138.1783809364957 206.91030515436535,82.35343251744692 "/><polyline class="polyline" opacity="0.5" stroke="blue" points="204.20586519628674,137.52555405909956 206.76486445444945,80.74685115878222 "/><polyline class="polyline" opacity="0.5" stroke="blue" points="203.78631394663424,136.89568644613277 206.6142015276529,79.1773022968537 "/><polyline class="polyline" opacity="0.5" stroke="blue" points="203.36306457941086,136.28919015675368 206.45862355488254,77.64607921198012 "/></svg>
