<?xml version="1.0" encoding="UTF-8"?>
<!DOCTYPE svg PUBLIC "-//W3C//DTD SVG 1.1//EN"
    "http://www.w3.org/Graphics/SVG/1.1/DTD/svg11.dtd"><svg width="400" height="400" stroke="black" fill="none" fill-opacity="0.75" font-style="italic" font-family="CMU Serif, sans-serif" xmlns="http://www.w3.org/2000/svg" xmlns:xlink="http://www.w3.org/1999/xlink" version="1.1"><filter id="blur"><feGaussianBlur stdDeviation="2"/></filter><rect width="100%" height="100%" fill="white" stroke="none" fill-opacity="1"/><polygon points="241.14990356803776,163.6426336382529 293.4758143976872,117.32160734146555 " opacity="0.5" stroke="blue"/><polygon points="244.34267575482397,167.3242572214167 301.48759983773647,124.62812012263771 " opacity="0.5" stroke="blue"/><polygon points="247.33761305888402,171.14440766985487 308.8532437136352,132.24344566266691 " opacity="0.5" stroke="blue"/><polygon points="250.1195404407848,175.0827730667538 315.52687355193984,140.09195807036664 " opacity="0.5" stroke="blue"/><polygon points="252.67475216702027,179.11838850656798 321.4723796798993,148.09719670335602 " opacity="0.5" stroke="blue"/><polygon points="254.99111637774638,183.22982807123873 326.6636867776391,156.1832951213458 " opacity="0.5" stroke="blue"/><polygon points="257.0581580108927,187.39539919178864 331.0847458063264,164.27631675560286 " opacity="0.5" stroke="blue"/><polygon points="258.8671191361656,191.59333589229735 334.7292659285537,172.3054550213751 " opacity="0.5" stroke="blue"/><polygon points="260.4109963184784,195.80198754559427 337.60021689760055,180.20406568364757 " opacity="0.5" stroke="blue"/><polygon points="261.6845551870473,200.0 339.70914031085385,187.91051031832578 " opacity="0.5" stroke="blue"/><polygon points="262.68432291323643,204.16648625106373 341.0753128546396,195.36880075730642 " opacity="0.5" stroke="blue"/><polygon points="263.4085597791449,208.28118421529516 341.7248062856789,202.5290446585795 " opacity="0.5" stroke="blue"/><polygon points="263.857211435113,212.32459959609469 341.68948773183376,209.34770118373075 " opacity="0.5" stroke="blue"/><polygon points="264.0318437868319,216.27813229622652 341.0060004678562,215.78766279873955 " opacity="0.5" stroke="blue"/><polygon points="263.93556271473346,220.1241853071708 339.7147602440609,221.81818426401622 " opacity="0.5" stroke="blue"/><polygon points="263.5729210070747,223.84625547558684 337.85899614925995,227.41468296466442 " opacity="0.5" stroke="blue"/><polygon points="262.94981498471725,227.42900599491358 335.48385846049604,232.55843602231573 " opacity="0.5" stroke="blue"/><polygon points="262.07337331451856,230.85832088238516 332.6356094679371,237.23619939851915 " opacity="0.5" stroke="blue"/><polygon points="260.951840456749,234.1213420679473 329.36090724681117,241.43977277384315 " opacity="0.5" stroke="blue"/><polygon points="259.5944570793516,237.20649003433658 325.7061870425494,245.16553170639997 " opacity="0.5" stroke="blue"/><polygon points="258.0113396088518,240.10346920261108 321.7171404909891,248.41394575872638 " opacity="0.5" stroke="blue"/><polygon points="256.2133608856281,242.80325945325131 317.43828936716324,251.18909821211977 " opacity="0.5" stroke="blue"/><polygon points="254.21203366144445,245.2980953106581 312.9126479235342,253.49821988923713 " opacity="0.5" stroke="blue"/><polygon points="252.0193984304545,247.58143440165333 308.181466068046,255.35124664954236 " opacity="0.5" stroke="blue"/><polygon points="249.64791683125475,249.64791683125475 303.284044537896,256.76040742504915 " opacity="0.5" stroke="blue"/><polygon points="247.11037160566894,251.49331710753347 298.2576127244953,257.739847295737 " opacity="0.5" stroke="blue"/><polygon points="244.4197738570716,253.1144901984522 293.137259774315,258.30528809643374 " opacity="0.5" stroke="blue"/><polygon points="241.5892781229944,254.50931322419936 287.9559099116609,258.4737274017352 " opacity="0.5" stroke="blue"/><polygon points="238.63210556780385,255.67662418559553 282.74433349813654,258.26317543354145 " opacity="0.5" stroke="blue"/><polygon points="235.56147541430892,256.6161590092311 277.53118607079296,257.6924284444159 " opacity="0.5" stroke="blue"/><polygon points="232.39054456988816,257.32848805912437 272.34306841459176,256.7808764091599 " opacity="0.5" stroke="blue"/><polygon points="229.1323552636734,257.8149531282029 267.20460156895376,255.5483423640402 " opacity="0.5" stroke="blue"/><polygon points="225.79979039612329,258.07760578537074 262.1385115015876,254.01495042595013 " opacity="0.5" stroke="blue"/><polygon points="222.40553620988896,258.11914781908075 257.1657189769455,252.20101936334677 " opacity="0.5" stroke="blue"/><polygon points="218.96205181958487,257.94287438915705 252.3054308834255,250.12697854229444 " opacity="0.5" stroke="blue"/><polygon points="215.4815450859486,257.5526203773193 247.57522995308148,247.8133031045154 " opacity="0.5" stroke="blue"/><polygon points="211.97595428467756,256.95271031498953 242.99116040670867,245.2804653252764 " opacity="0.5" stroke="blue"/><polygon points="208.45693499965756,256.14791216544535 238.5678075870074,242.5488992274411 " opacity="0.5" stroke="blue"/><polygon points="204.93585166203323,255.14339514664974 234.31837010760728,239.63897567885854 " opacity="0.5" stroke="blue"/><polygon points="201.42377315838314,253.94469170113717 230.2547234526246,236.5709853622966 " opacity="0.5" stroke="blue"/><polygon points="197.93147194106643,252.5576636498231 226.38747431786842,233.36512717276858 " opacity="0.5" stroke="blue"/><polygon points="194.46942608969184,250.98847250694175 222.72600529898014,230.04149976178095 " opacity="0.5" stroke="blue"/><polygon points="191.04782379292988,249.24355388270405 219.27850981174873,226.6200941097465 " opacity="0.5" stroke="blue"/><polygon points="187.6765697430617,247.3295958577962 216.05201738313565,223.1207851666287 " opacity="0.5" stroke="blue"/><polygon points="184.3652929604778,245.25352117851082 213.0524096848578,219.56332075858842 " opacity="0.5" stroke="blue"/><polygon points="181.12335559076905,243.02247309208818 210.2844279003109,215.9673061180434 " opacity="0.5" stroke="blue"/><polygon points="177.95986224225746,240.6438046177212 207.75167222447172,212.3521825601453 " opacity="0.5" stroke="blue"/><polygon points="174.88366945616428,238.1250710286374 205.45659449803813,208.7371990048221 " opacity="0.5" stroke="blue"/><polygon points="171.90339492465046,235.47402530376485 203.4004851727212,205.14137523507557 " opacity="0.5" stroke="blue"/><polygon points="169.02742609340277,232.69861629282178 201.5834559938814,201.58345599388142 " opacity="0.5" stroke="blue"/><polygon points="166.26392780514317,229.80698932542472 200.00441996747193,198.08185525802864 " opacity="0.5" stroke="blue"/><polygon points="163.62084865840848,226.80748898225158 198.66107034665743,194.65459029085602 " opacity="0.5" stroke="blue"/><polygon points="161.10592577231208,223.7086637337735 197.54986052400227,191.31920536906236 " opacity="0.5" stroke="blue"/><polygon points="158.7266876630049,220.51927213903147 196.66598684075694,188.09268540181162 " opacity="0.5" stroke="blue"/><polygon points="156.49045495154922,217.24829028292174 196.0033764172503,184.99136001128542 " opacity="0.5" stroke="blue"/><polygon points="154.40433863636116,213.90492011511944 195.55468215859347,182.0307990182398 " opacity="0.5" stroke="blue"/><polygon points="152.47523567681066,210.49859833687177 195.31128708831665,179.2257006668243 " opacity="0.5" stroke="blue"/><polygon points="150.70982164862968,207.0390054633089 195.26332009994348,176.5897743198682 " opacity="0.5" stroke="blue"/><polygon points="149.11454024718518,203.5360746686632 195.39968508459737,174.1356197461618 " opacity="0.5" stroke="blue"/><polygon points="147.6955894322191,200.0 195.70810518506283,171.87460548951634 " opacity="0.5" stroke="blue"/><polygon points="146.4589040282045,196.4412435220503 196.17518363946178,169.81674913808848 " opacity="0.5" stroke="blue"/><polygon points="145.41013461893246,192.87054093195994 196.78648231047953,167.9706025828345 " opacity="0.5" stroke="blue"/><polygon points="144.55462260428612,189.29890515888098 197.52661855266695,166.34314554697238 " opacity="0.5" stroke="blue"/><polygon points="143.89737132235953,185.7376274401689 198.37938055922115,164.9396907659231 " opacity="0.5" stroke="blue"/><polygon points="143.44301318211092,182.19827534455823 199.32786076417898,163.76380418365204 " opacity="0.5" stroke="blue"/><polygon points="143.19577280154542,178.69268719433418 200.35460627433918,162.81724339472237 " opacity="0.5" stroke="blue"/><polygon points="143.15942620485586,175.23296232467334 201.4417846899493,162.09991729491838 " opacity="0.5" stroke="blue"/><polygon points="143.33725619974783,171.83144661069042 202.5713630701192,161.60986950653285 " opacity="0.5" stroke="blue"/><polygon points="143.73200413387605,168.50071269319196 203.72529723597663,161.34328762397305 " opacity="0.5" stroke="blue"/><polygon points="144.34581831722136,165.25353434477523 204.88572811006944,161.2945396953293 " opacity="0.5" stroke="blue"/><polygon points="145.18019949529423,162.10285444092227 206.03518139128235,161.45623863729531 " opacity="0.5" stroke="blue"/><polygon points="146.23594386582334,159.06174603841038 207.1567665839842,161.81933450208246 " opacity="0.5" stroke="blue"/><polygon points="147.5130842481272,156.1433661179597 208.23437125641132,162.3732337084814 " opacity="0.5" stroke="blue"/><polygon points="149.01083013816287,153.36090162174204 209.25284640778278,163.10594355084544 " opacity="0.5" stroke="blue"/><polygon points="150.72750751112093,150.72750751112093 210.19817897978925,164.00423954616707 " opacity="0.5" stroke="blue"/><polygon points="152.66049936451552,148.256236687338 211.05764785094746,165.05385250564922 " opacity="0.5" stroke="blue"/><polygon points="154.80618812435017,145.9599617588385 211.81996008863317,166.23967165426694 " opacity="0.5" stroke="blue"/><polygon points="157.15990116072805,143.85128880382211 212.47536478267935,167.54595969468173 " opacity="0.5" stroke="blue"/><polygon points="159.71586077206734,141.94246346481714 213.0157424194322,168.9565754376123 " opacity="0.5" stroke="blue"/><polygon points="162.46714009308113,140.24526992189172 213.4346684450232,170.4551995076742 " opacity="0.5" stroke="blue"/><polygon points="165.40562645456694,138.7709235195767 213.72745037816046,172.02555868089112 " opacity="0.5" stroke="blue"/><polygon points="168.5219937661822,137.52995806532752 213.8911385329202,173.65164460790083 " opacity="0.5" stroke="blue"/><polygon points="171.80568550008064,136.5321090685634 213.9245110700436,175.31792300791818 " opacity="0.5" stroke="blue"/><polygon points="175.2449098171535,135.78619444168788 213.8280346844346,177.0095298591697 " opacity="0.5" stroke="blue"/><polygon points="178.8266482929488,135.29999442929633 213.60380273575691,178.71245163388755 " opacity="0.5" stroke="blue"/><polygon points="182.53667956254827,135.08013275907723 213.25545302351568,180.41368719994432 " opacity="0.5" stroke="blue"/><polygon points="186.35961900975877,135.13196120686302 212.78806768985032,182.1013896065581 " opacity="0.5" stroke="blue"/><polygon points="190.27897537495556,135.4594499275183 212.20805790117032,183.76498655964554 " opacity="0.5" stroke="blue"/><polygon points="194.27722484927492,136.06508601154636 211.5230360185102,185.39527894803393 " opacity="0.5" stroke="blue"/><polygon points="198.3359028648406,136.9497827737796 210.74167792595702,186.9845172839487 " opacity="0.5" stroke="blue"/><polygon points="202.43571338854005,138.1128022559887 209.87357806060638,188.52645635415232 " opacity="0.5" stroke="blue"/><polygon points="206.55665509076616,139.55169332247425 208.9290994928637,190.016388731412 " opacity="0.5" stroke="blue"/><polygon points="210.67816330359875,141.26224754224606 207.91922116068497,191.45115806451182 " opacity="0.5" stroke="blue"/><polygon points="214.77926622066784,143.23847478220125 206.8553840841098,192.8291532486281 " opacity="0.5" stroke="blue"/><polygon points="218.8387533408887,145.47260008559115 205.74933809517796,194.1502846807134 " opacity="0.5" stroke="blue"/><polygon points="222.83535373893946,147.95508298596678 204.612990329725,195.41594383433585 " opacity="0.5" stroke="blue"/><polygon points="226.74792137548002,150.67465991979674 203.45825645644132,196.6289473557646 " opacity="0.5" stroke="blue"/><polygon points="230.55562435748575,153.61840986602962 202.29691537753567,197.7934668005888 " opacity="0.5" stroke="blue"/><polygon points="234.23813483945804,156.77184277632736 201.14046793454756,198.91494501173014 " opacity="0.5" stroke="blue"/><polygon points="237.77581613240122,160.11900978631706 200.0,200.0 " opacity="0.5" stroke="blue"/><polygon points="241.14990356803776,163.64263363825293 198.88605023592507,201.0563170421366 " opacity="0.5" stroke="blue"/><polygon points="244.34267575482397,167.3242572214167 197.80848275671408,202.09252957305404 " opacity="0.5" stroke="blue"/><polygon points="247.33761305888402,171.14440766985484 196.7763649468319,203.11808933268003 " opacity="0.5" stroke="blue"/><polygon points="250.1195404407848,175.0827730667538 195.79785075207377,204.143126146104 " opacity="0.5" stroke="blue"/><polygon points="252.67475216702027,179.11838850656795 194.88006988243148,205.17829768032982 " opacity="0.5" stroke="blue"/><polygon points="254.9911163777464,183.22982807123876 194.02902352929803,206.23462954159953 " opacity="0.5" stroke="blue"/><polygon points="257.0581580108927,187.39539919178864 193.24948740149958,207.3233461618499 " opacity="0.5" stroke="blue"/><polygon points="258.86711913616557,191.59333589229732 192.54492311307666,208.45569307673244 " opacity="0.5" stroke="blue"/><polygon points="260.4109963184784,195.80198754559427 191.91739919818747,209.64275142312098 " opacity="0.5" stroke="blue"/><polygon points="261.6845551870473,200.0 191.36752327012326,210.8952457799898 " opacity="0.5" stroke="blue"/><polygon points="262.6843229132364,204.16648625106373 190.8943870653638,212.22334683770387 " opacity="0.5" stroke="blue"/><polygon points="263.4085597791449,208.28118421529513 190.49552630136287,213.63647079727775 " opacity="0.5" stroke="blue"/><polygon points="263.857211435113,212.3245995960947 190.16689740876123,215.1430778581893 " opacity="0.5" stroke="blue"/><polygon points="264.0318437868319,216.27813229622652 189.90287325515013,216.75047263087373 " opacity="0.5" stroke="blue"/><polygon points="263.93556271473346,220.1241853071708 189.69625993936288,218.46460978303384 " opacity="0.5" stroke="blue"/><polygon points="263.5729210070747,223.84625547558684 189.53833658575627,220.2899086678465 " opacity="0.5" stroke="blue"/><polygon points="262.94981498471725,227.42900599491355 189.418919793994,222.22908105402695 " opacity="0.5" stroke="blue"/><polygon points="262.07337331451856,230.85832088238516 189.3264539937949,224.28297634764292 " opacity="0.5" stroke="blue"/><polygon points="260.951840456749,234.1213420679473 189.2481284152962,226.45044882887873 " opacity="0.5" stroke="blue"/><polygon points="259.5944570793516,237.20649003433655 189.17002072185565,228.7282513917703 " opacity="0.5" stroke="blue"/><polygon points="258.0113396088518,240.10346920261108 189.07726658042995,231.11096004508363 " opacity="0.5" stroke="blue"/><polygon points="256.2133608856281,242.80325945325131 188.95425359202272,233.59093299051463 " opacity="0.5" stroke="blue"/><polygon points="254.21203366144445,245.29809531065814 188.78483710732957,236.15830743424047 " opacity="0.5" stroke="blue"/><polygon points="252.0193984304545,247.58143440165333 188.55257455480748,238.8010364172752 " opacity="0.5" stroke="blue"/><polygon points="249.64791683125475,249.64791683125475 188.2409740597987,241.5049668919068 " opacity="0.5" stroke="blue"/><polygon points="247.11037160566894,251.49331710753347 187.83375238634028,244.2539590638034 " opacity="0.5" stroke="blue"/><polygon points="244.41977385707162,253.11449019845222 187.31509663878708,247.03004571432768 " opacity="0.5" stroke="blue"/><polygon points="241.58927812299436,254.50931322419936 186.66992376369492,249.81362887870984 " opacity="0.5" stroke="blue"/><polygon points="238.63210556780385,255.67662418559553 185.88413172916495,252.5837099538676 " opacity="0.5" stroke="blue"/><polygon points="235.56147541430894,256.6161590092311 184.9448363513934,255.31814811796994 " opacity="0.5" stroke="blue"/><polygon points="232.39054456988828,257.32848805912437 183.8405880929439,257.99394093202386 " opacity="0.5" stroke="blue"/><polygon points="229.13235526367336,257.8149531282029 182.56156376354627,260.5875202224414 " opacity="0.5" stroke="blue"/><polygon points="225.79979039612326,258.07760578537074 181.09972888437727,263.07505585908336 " opacity="0.5" stroke="blue"/><polygon points="222.40553620988896,258.11914781908075 179.44896748806303,265.4327598739135 " opacity="0.5" stroke="blue"/><polygon points="218.96205181958487,257.94287438915705 177.60517726448853,267.63718351887974 " opacity="0.5" stroke="blue"/><polygon points="215.48154508594862,257.5526203773193 175.5663291648043,269.66550032481985 " opacity="0.5" stroke="blue"/><polygon points="211.97595428467753,256.95271031498953 173.33249177811072,271.49576896347105 " opacity="0.5" stroke="blue"/><polygon points="208.45693499965756,256.1479121654453 170.9058219349071,273.1071706831987 " opacity="0.5" stroke="blue"/><polygon points="204.93585166203326,255.14339514664974 168.29052401323528,274.480217225194 " opacity="0.5" stroke="blue"/><polygon points="201.42377315838317,253.94469170113717 165.49278128289606,275.5969263634356 " opacity="0.5" stroke="blue"/><polygon points="197.93147194106646,252.5576636498231 162.52066328865175,276.4409634803542 " opacity="0.5" stroke="blue"/><polygon points="194.46942608969178,250.98847250694175 159.3840137276881,276.9977488264913 " opacity="0.5" stroke="blue"/><polygon points="191.04782379292985,249.24355388270402 156.09432351656966,277.2545312602697 " opacity="0.5" stroke="blue"/><polygon points="187.6765697430617,247.32959585779622 152.66459377796645,277.2004302782426 " opacity="0.5" stroke="blue"/><polygon points="184.36529296047783,245.25352117851085 149.10919332751024,276.8264489947783 " opacity="0.5" stroke="blue"/><polygon points="181.1233555907691,243.02247309208823 145.4437149338902,276.12546139440497 " opacity="0.5" stroke="blue"/><polygon points="177.95986224225743,240.64380461772117 141.6848341930704,275.0921776540776 " opacity="0.5" stroke="blue"/><polygon points="174.88366945616428,238.1250710286374 137.8501743344443,273.7230916217298 " opacity="0.5" stroke="blue"/><polygon points="171.90339492465048,235.47402530376488 133.95817969622738,272.0164146559165 " opacity="0.5" stroke="blue"/><polygon points="169.02742609340277,232.69861629282178 130.02800000000002,269.972 " opacity="0.5" stroke="blue"/><polygon points="166.2639278051432,229.80698932542478 126.07938694629759,267.59126170800175 " opacity="0.5" stroke="blue"/><polygon points="163.62084865840845,226.80748898225156 122.13260406557632,264.87709188446513 " opacity="0.5" stroke="blue"/><polygon points="161.10592577231208,223.70866373377348 118.20835020724815,261.83377967360076 " opacity="0.5" stroke="blue"/><polygon points="158.7266876630049,220.5192721390315 114.32769654380817,258.46693505780104 " opacity="0.5" stroke="blue"/><polygon points="156.49045495154925,217.24829028292177 110.5120365124057,254.7834201233965 " opacity="0.5" stroke="blue"/><polygon points="154.40433863636122,213.9049201151195 106.78304771320688,250.79129003945042 " opacity="0.5" stroke="blue"/><polygon points="152.47523567681063,210.49859833687174 103.16266442978304,246.49974558642862 " opacity="0.5" stroke="blue"/><polygon points="150.70982164862966,207.0390054633089 99.6730591261137,241.91909867437647 " opacity="0.5" stroke="blue"/><polygon points="149.11454024718518,203.53607466866322 96.33663100049952,237.06075190931472 " opacity="0.5" stroke="blue"/><polygon points="147.6955894322191,200.0 93.17599943074184,231.93719290267666 " opacity="0.5" stroke="blue"/><polygon points="146.45890402820453,196.44124352205037 90.21399991927699,226.5620036691056 " opacity="0.5" stroke="blue"/><polygon points="145.41013461893243,192.87054093195994 87.47367993409132,220.9498851173543 " opacity="0.5" stroke="blue"/><polygon points="144.55462260428612,189.29890515888098 84.97829183502068,215.11669629953397 " opacity="0.5" stroke="blue"/><polygon points="143.89737132235953,185.73762744016892 82.75127987118881,209.0795077359248 " opacity="0.5" stroke="blue"/><polygon points="143.44301318211092,182.19827534455823 80.81625803211972,202.85666776512005 " opacity="0.5" stroke="blue"/><polygon points="143.19577280154542,178.6926871943341 79.19697533384378,196.46788047088737 " opacity="0.5" stroke="blue"/><polygon points="143.1594262048559,175.23296232467328 77.91726492724982,189.93429329631675 " opacity="0.5" stroke="blue"/><polygon points="143.3372561997478,171.83144661069036 77.00097323853652,183.27859196184946 " opacity="0.5" stroke="blue"/><polygon points="143.73200413387605,168.50071269319196 76.47186520550342,176.525099747688 " opacity="0.5" stroke="blue"/><polygon points="144.34581831722136,165.25353434477523 76.35350157885684,169.69987757673061 " opacity="0.5" stroke="blue"/><polygon points="145.1801994952943,162.10285444092216 76.669084241223,162.8308206396978 " opacity="0.5" stroke="blue"/><polygon points="146.23594386582334,159.06174603841035 77.44126559123323,155.94774654353012 " opacity="0.5" stroke="blue"/><polygon points="147.51308424812723,156.14336611795966 78.69191828553488,149.08246914926107 " opacity="0.5" stroke="blue"/><polygon points="149.01083013816285,153.36090162174204 80.44186207363802,142.26885141821788 " opacity="0.5" stroke="blue"/><polygon points="150.7275075111209,150.7275075111209 82.71054514965111,135.54282973954378 " opacity="0.5" stroke="blue"/><polygon points="152.66049936451554,148.25623668733795 85.51567843428569,128.94240141612846 " opacity="0.5" stroke="blue"/><polygon points="154.80618812435017,145.95996175883846 88.87282254205905,122.50756630470605 " opacity="0.5" stroke="blue"/><polygon points="157.15990116072805,143.85128880382206 92.79492892830858,116.28021312108514 " opacity="0.5" stroke="blue"/><polygon points="159.71586077206732,141.94246346481714 97.29183888143578,110.30394073220415 " opacity="0.5" stroke="blue"/><polygon points="162.46714009308113,140.2452699218917 102.36974663922028,104.62380497673077 " opacity="0.5" stroke="blue"/><polygon points="165.405626454567,138.77092351957663 108.03063594411793,99.28598230904258 " opacity="0.5" stroke="blue"/><polygon points="168.52199376618225,137.5299580653275 114.27170274889518,94.33734297317575 " opacity="0.5" stroke="blue"/><polygon points="171.80568550008064,136.53210906856336 121.08478042549461,89.82492859908899 " opacity="0.5" stroke="blue"/><polygon points="175.24490981715348,135.78619444168788 128.45578753966424,85.79533216266717 " opacity="0.5" stroke="blue"/><polygon points="178.8266482929488,135.29999442929633 136.36422178799342,82.29398220707766 " opacity="0.5" stroke="blue"/><polygon points="182.5366795625483,135.08013275907726 144.78272674398278,79.36433806326693 " opacity="0.5" stroke="blue"/><polygon points="186.3596190097588,135.131961206863 153.67676026277059,77.0470084199673 " opacity="0.5" stroke="blue"/><polygon points="190.27897537495562,135.4594499275183 163.0043943549639,75.37881176073064 " opacity="0.5" stroke="blue"/><polygon points="194.2772248492749,136.06508601154636 172.71627566560414,74.39180357287269 " opacity="0.5" stroke="blue"/><polygon points="198.33590286484056,136.9497827737796 182.75577303984127,74.11230139213252 " opacity="0.5" stroke="blue"/><polygon points="202.43571338854008,138.1128022559887 193.05933378073306,74.55994413310201 " opacity="0.5" stroke="blue"/><polygon points="206.5566550907662,139.55169332247425 203.55706302581862,75.74682616739183 " opacity="0.5" stroke="blue"/><polygon points="210.6781633035988,141.26224754224603 214.17353131923417,77.67674864742811 " opacity="0.5" stroke="blue"/><polygon points="214.77926622066784,143.23847478220125 224.8288043142457,80.34463010530291 " opacity="0.5" stroke="blue"/><polygon points="218.83875334088867,145.47260008559113 235.43967624219917,83.73611500901465 " opacity="0.5" stroke="blue"/><polygon points="222.8353537389395,147.95508298596684 245.92107619161408,87.82741258968841 " opacity="0.5" stroke="blue"/><polygon points="226.74792137548005,150.6746599197968 256.1876043814521,92.58538901000917 " opacity="0.5" stroke="blue"/><polygon points="230.55562435748578,153.61840986602968 266.15514557161464,97.96792429030954 " opacity="0.5" stroke="blue"/><polygon points="234.23813483945804,156.77184277632733 275.74249955072173,103.92453211036846 " opacity="0.5" stroke="blue"/><polygon points="237.77581613240122,160.11900978631706 284.872965094654,110.3972266679128 " opacity="0.5" stroke="blue"/></svg>
