<?xml version="1.0" encoding="UTF-8"?>
<!DOCTYPE svg PUBLIC "-//W3C//DTD SVG 1.1//EN"
    "http://www.w3.org/Graphics/SVG/1.1/DTD/svg11.dtd"><svg width="400" height="400" stroke="black" fill="none" fill-opacity="0.75" font-style="italic" font-family="CMU Serif, sans-serif" xmlns="http://www.w3.org/2000/svg" xmlns:xlink="http://www.w3.org/1999/xlink" version="1.1"><filter id="blur"><feGaussianBlur stdDeviation="2"/></filter><rect width="100%" height="100%" fill="white" stroke="none" fill-opacity="1"/><polygon points="183.94970229906696,0.0 255.60564292256277,400.0 " stroke-opacity="0.25" stroke="green"/><polygon points="169.66508090564554,-5.684341886080802e-14 305.09416776409364,400.00000000000006 " stroke-opacity="0.25" stroke="green"/><polygon points="156.869966108792,0.0 349.42235393260796,400.0 " stroke-opacity="0.25" stroke="green"/><polygon points="145.34292854633424,-5.684341886080802e-14 389.3573349900455,400.00000000000006 " stroke-opacity="0.25" stroke="green"/><polygon points="134.9043567614499,0.0 400.0,364.87285054921665 " stroke-opacity="0.25" stroke="green"/><polygon points="125.4070304072334,0.0 400.0,329.82410974127436 " stroke-opacity="0.25" stroke="green"/><polygon points="116.72913348332811,0.0 400.0,304.78929487845846 " stroke-opacity="0.25" stroke="green"/><polygon points="108.76900123636946,0.0 400.0,286.0131837313466 " stroke-opacity="0.25" stroke="green"/><polygon points="101.4411187749596,0.0 400.0,271.4095417280373 " stroke-opacity="0.25" stroke="green"/><polygon points="94.67303672048861,0.0 400.0,259.7266281253899 " stroke-opacity="0.25" stroke="green"/><polygon points="88.40296772122478,0.0 400.0,250.16788063231473 " stroke-opacity="0.25" stroke="green"/><polygon points="82.57789470315176,0.0 400.0,242.2022577214188 " stroke-opacity="0.25" stroke="green"/><polygon points="77.15206809828233,5.684341886080802e-14 400.0,235.46211525835295 " stroke-opacity="0.25" stroke="green"/><polygon points="72.08580183137427,5.684341886080802e-14 400.0,229.68485029001084 " stroke-opacity="0.25" stroke="green"/><polygon points="67.34450099365577,0.0 400.0,224.67788731744767 " stroke-opacity="0.25" stroke="green"/><polygon points="203.65742638444746,0.0 236.10305291950428,400.0 " stroke-opacity="0.25" stroke="green"/><polygon points="188.21349569938295,0.0 286.91202475009203,400.0 " stroke-opacity="0.25" stroke="green"/><polygon points="174.387433389632,-5.684341886080802e-14 332.39837306059354,400.00000000000006 " stroke-opacity="0.25" stroke="green"/><polygon points="161.93766683704354,0.0 373.35684736141354,400.0 " stroke-opacity="0.25" stroke="green"/><polygon points="150.66843719701575,0.0 400.00000000000006,383.9369379334506 " stroke-opacity="0.25" stroke="green"/><polygon points="140.41943039819412,0.0 400.0,341.8567326800659 " stroke-opacity="0.25" stroke="green"/><polygon points="131.05810235678467,0.0 400.0,312.8237198632839 " stroke-opacity="0.25" stroke="green"/><polygon points="122.47391558399183,0.0 400.0,291.5843218207615 " stroke-opacity="0.25" stroke="green"/><polygon points="114.57395395245753,0.0 400.00000000000006,275.3717257879541 " stroke-opacity="0.25" stroke="green"/><polygon points="107.27954588296662,0.0 400.0,262.59019950645705 " stroke-opacity="0.25" stroke="green"/><polygon points="100.52363539407831,5.684341886080802e-14 400.0,252.25479035919622 " stroke-opacity="0.25" stroke="green"/><polygon points="94.24871465928287,0.0 400.0,243.72462011603307 " stroke-opacity="0.25" stroke="green"/><polygon points="88.4051829626179,-5.684341886080802e-14 400.00000000000006,236.56470756935602 " stroke-opacity="0.25" stroke="green"/><polygon points="82.95003286296871,0.0 400.0,230.46942951537818 " stroke-opacity="0.25" stroke="green"/><polygon points="77.84578989914037,-5.684341886080802e-14 400.00000000000006,225.21776162821322 " stroke-opacity="0.25" stroke="green"/><polygon points="223.59734018331355,-5.684341886080802e-14 216.78917804283307,400.00000000000006 " stroke-opacity="0.25" stroke="green"/><polygon points="206.80534325096224,-5.684341886080802e-14 269.4366940992851,400.00000000000006 " stroke-opacity="0.25" stroke="green"/><polygon points="191.7971897798871,-5.684341886080802e-14 316.491371635811,400.00000000000006 " stroke-opacity="0.25" stroke="green"/><polygon points="178.3029652600483,-5.684341886080802e-14 358.79946667296883,400.00000000000006 " stroke-opacity="0.25" stroke="green"/><polygon points="166.1045951222791,-5.684341886080802e-14 397.0447027981295,400.00000000000006 " stroke-opacity="0.25" stroke="green"/><polygon points="155.02396942116312,0.0 400.0,354.06080741272444 " stroke-opacity="0.25" stroke="green"/><polygon points="144.91418893771612,-5.684341886080802e-14 400.0,320.29031344537316 " stroke-opacity="0.25" stroke="green"/><polygon points="135.65301566833318,-5.684341886080802e-14 399.99999999999994,296.2985280182949 " stroke-opacity="0.25" stroke="green"/><polygon points="127.13790616487353,5.684341886080802e-14 400.0,278.37527849469376 " stroke-opacity="0.25" stroke="green"/><polygon points="119.28219871513225,5.684341886080802e-14 400.00000000000006,264.4765856355964 " stroke-opacity="0.25" stroke="green"/><polygon points="112.01215328811203,0.0 400.0,253.3837415796221 " stroke-opacity="0.25" stroke="green"/><polygon points="105.26462972564298,0.0 400.0,244.32498599204186 " stroke-opacity="0.25" stroke="green"/><polygon points="98.9852491950415,-5.684341886080802e-14 400.0,236.78782249822623 " stroke-opacity="0.25" stroke="green"/><polygon points="93.12692548696188,0.0 400.0,230.4185828372414 " stroke-opacity="0.25" stroke="green"/><polygon points="87.64868217568362,0.0 400.00000000000006,224.9653229723207 " stroke-opacity="0.25" stroke="green"/><polygon points="244.19282227756463,0.0 197.2739189478937,400.0 " stroke-opacity="0.25" stroke="green"/><polygon points="225.79308068779306,-5.684341886080802e-14 252.3709348714766,400.00000000000006 " stroke-opacity="0.25" stroke="green"/><polygon points="209.39457073242184,-5.684341886080802e-14 301.4753725466437,400.00000000000006 " stroke-opacity="0.25" stroke="green"/><polygon points="194.68763873055397,0.0 345.51447291881504,400.0 " stroke-opacity="0.25" stroke="green"/><polygon points="181.42338190127253,5.684341886080802e-14 385.2335616990441,399.99999999999994 " stroke-opacity="0.25" stroke="green"/><polygon points="169.39944654168448,-5.684341886080802e-14 400.0,366.266440023315 " stroke-opacity="0.25" stroke="green"/><polygon points="158.44963223239057,0.0 399.99999999999994,326.8859335476589 " stroke-opacity="0.25" stroke="green"/><polygon points="148.43616295133737,0.0 399.99999999999994,299.859317680872 " stroke-opacity="0.25" stroke="green"/><polygon points="139.24385963603288,0.0 400.00000000000006,280.16155456813954 " stroke-opacity="0.25" stroke="green"/><polygon points="130.77568993386166,0.0 400.0,265.16750937709327 " stroke-opacity="0.25" stroke="green"/><polygon points="122.94932981671181,-5.684341886080802e-14 400.0,253.37205683531604 " stroke-opacity="0.25" stroke="green"/><polygon points="115.6944784451135,0.0 400.0,243.85033847536562 " stroke-opacity="0.25" stroke="green"/><polygon points="108.95074054605011,0.0 400.0,236.00270930588195 " stroke-opacity="0.25" stroke="green"/><polygon points="102.66594112888423,0.0 400.0,229.42334269055286 " stroke-opacity="0.25" stroke="green"/><polygon points="96.79477294991779,0.0 400.00000000000006,223.82777706333826 " stroke-opacity="0.25" stroke="green"/><polygon points="265.93032588662714,0.0 177.131189712989,400.0 " stroke-opacity="0.25" stroke="green"/><polygon points="245.5697869486462,-5.684341886080802e-14 235.42121467454805,400.00000000000006 " stroke-opacity="0.25" stroke="green"/><polygon points="227.49933224546987,-5.684341886080802e-14 287.1549756974438,400.00000000000006 " stroke-opacity="0.25" stroke="green"/><polygon points="211.35316237444582,0.0 333.379716981669,400.0 " stroke-opacity="0.25" stroke="green"/><polygon points="196.8394460033562,-5.684341886080802e-14 374.9309201267708,400.00000000000006 " stroke-opacity="0.25" stroke="green"/><polygon points="183.722523234989,0.0 400.00000000000006,378.1723831055915 " stroke-opacity="0.25" stroke="green"/><polygon points="171.81001129387226,0.0 400.00000000000006,332.1815020201238 " stroke-opacity="0.25" stroke="green"/><polygon points="160.94330621244103,0.0 400.0,301.8827250607799 " stroke-opacity="0.25" stroke="green"/><polygon points="150.99048091526518,-5.684341886080802e-14 400.00000000000006,280.4152751316832 " stroke-opacity="0.25" stroke="green"/><polygon points="141.84090279305414,-5.684341886080802e-14 400.0,264.40912799871694 " stroke-opacity="0.25" stroke="green"/><polygon points="133.40110390300242,0.0 400.0,252.01543024393482 " stroke-opacity="0.25" stroke="green"/><polygon points="125.59157639065512,0.0 400.0,242.13524423227838 " stroke-opacity="0.25" stroke="green"/><polygon points="118.34426000850729,0.0 400.0,234.0743357511969 " stroke-opacity="0.25" stroke="green"/><polygon points="111.60055340511438,0.0 400.0,227.37258091522273 " stroke-opacity="0.25" stroke="green"/><polygon points="105.30972607484627,5.684341886080802e-14 400.00000000000006,221.7129552285467 " stroke-opacity="0.25" stroke="green"/><polygon points="289.4106101367114,5.684341886080802e-14 155.8563613990027,399.99999999999994 " stroke-opacity="0.25" stroke="green"/><polygon points="266.60603666108096,0.0 218.2739822689403,400.0 " stroke-opacity="0.25" stroke="green"/><polygon points="246.48236946281,5.684341886080802e-14 273.35378593361963,399.99999999999994 " stroke-opacity="0.25" stroke="green"/><polygon points="228.59310302031884,-5.684341886080802e-14 322.31788743904565,400.00000000000006 " stroke-opacity="0.25" stroke="green"/><polygon points="212.58567075037854,0.0 366.13128476454494,400.0 " stroke-opacity="0.25" stroke="green"/><polygon points="198.17797504245044,5.684341886080802e-14 400.0,389.26438487315966 " stroke-opacity="0.25" stroke="green"/><polygon points="185.14161898115114,-5.684341886080802e-14 399.99999999999994,335.5774740326184 " stroke-opacity="0.25" stroke="green"/><polygon points="173.28970862067476,-5.684341886080802e-14 400.00000000000006,301.88068352273115 " stroke-opacity="0.25" stroke="green"/><polygon points="162.4678355343666,0.0 400.00000000000006,278.7615005587445 " stroke-opacity="0.25" stroke="green"/><polygon points="152.54731254535537,0.0 400.0,261.91503572753163 " stroke-opacity="0.25" stroke="green"/><polygon points="143.420032064988,0.0 400.00000000000006,249.09336403514027 " stroke-opacity="0.25" stroke="green"/><polygon points="134.99451039447936,-5.684341886080802e-14 400.0,239.0080492817766 " stroke-opacity="0.25" stroke="green"/><polygon points="127.19281066108618,0.0 400.0,230.86757684124677 " stroke-opacity="0.25" stroke="green"/><polygon points="119.94812482886086,-5.684341886080802e-14 399.99999999999994,224.1588563776109 " stroke-opacity="0.25" stroke="green"/><polygon points="113.2028557660291,0.0 400.0,218.5346939418427 " stroke-opacity="0.25" stroke="green"/><polygon points="315.42539722980445,0.0 132.80498451775009,400.0 " stroke-opacity="0.25" stroke="green"/><polygon points="289.50289480037316,0.0 200.56557729876894,400.0 " stroke-opacity="0.25" stroke="green"/><polygon points="266.80254633451773,-5.684341886080802e-14 259.9035626097727,400.00000000000006 " stroke-opacity="0.25" stroke="green"/><polygon points="246.75873651521425,5.684341886080802e-14 312.29744081051257,399.99999999999994 " stroke-opacity="0.25" stroke="green"/><polygon points="228.93091580840988,0.0 358.8987943015725,400.0 " stroke-opacity="0.25" stroke="green"/><polygon points="212.97084387066678,0.0 400.0,398.6828204346665 " stroke-opacity="0.25" stroke="green"/><polygon points="198.5996158284636,-5.684341886080802e-14 400.0,336.2498217566641 " stroke-opacity="0.25" stroke="green"/><polygon points="185.5912244139911,-5.684341886080802e-14 400.0,299.2486600109894 " stroke-opacity="0.25" stroke="green"/><polygon points="173.76058685542802,-5.684341886080802e-14 400.0,274.76940207422047 " stroke-opacity="0.25" stroke="green"/><polygon points="162.95468298980734,0.0 399.99999999999994,257.37548711622 " stroke-opacity="0.25" stroke="green"/><polygon points="153.0459005551149,-5.684341886080802e-14 400.0,244.3796223904759 " stroke-opacity="0.25" stroke="green"/><polygon points="143.92697187246222,0.0 400.0,234.30095465809686 " stroke-opacity="0.25" stroke="green"/><polygon points="135.50707494792482,5.684341886080802e-14 400.0,226.25636171310978 " stroke-opacity="0.25" stroke="green"/><polygon points="127.70879811229936,0.0 400.0,219.6865108866543 " stroke-opacity="0.25" stroke="green"/><polygon points="120.46575300729299,0.0 400.0,214.21992531174743 " stroke-opacity="0.25" stroke="green"/><polygon points="345.0824501338868,-5.684341886080802e-14 107.0948188249842,400.00000000000006 " stroke-opacity="0.25" stroke="green"/><polygon points="315.0751810498707,0.0 181.83839574531737,400.0 " stroke-opacity="0.25" stroke="green"/><polygon points="289.0624005555553,0.0 246.63230465934998,400.0 " stroke-opacity="0.25" stroke="green"/><polygon points="266.29627948208105,0.0 303.33927512269156,400.0 " stroke-opacity="0.25" stroke="green"/><polygon points="246.20469693489105,0.0 353.3843739073402,400.0 " stroke-opacity="0.25" stroke="green"/><polygon points="228.34249833850768,5.684341886080802e-14 397.8764138532946,399.99999999999994 " stroke-opacity="0.25" stroke="green"/><polygon points="212.35812598805316,-5.684341886080802e-14 400.0,333.09265640446085 " stroke-opacity="0.25" stroke="green"/><polygon points="197.97024826900358,0.0 400.0,293.2654829102701 " stroke-opacity="0.25" stroke="green"/><polygon points="184.9510585136152,0.0 400.0,267.96801475325714 " stroke-opacity="0.25" stroke="green"/><polygon points="173.1141236817847,0.0 400.0,250.47579066935964 " stroke-opacity="0.25" stroke="green"/><polygon points="162.30539960077445,-5.684341886080802e-14 400.00000000000006,237.65927400456144 " stroke-opacity="0.25" stroke="green"/><polygon points="152.39649011968993,0.0 400.00000000000006,227.86474659672973 " stroke-opacity="0.25" stroke="green"/><polygon points="143.27952249358873,0.0 400.00000000000006,220.13610181133305 " stroke-opacity="0.25" stroke="green"/><polygon points="134.8632042653815,0.0 400.0,213.88208358653156 " stroke-opacity="0.25" stroke="green"/><polygon points="127.06975560712254,0.0 400.00000000000006,208.7174094516931 " stroke-opacity="0.25" stroke="green"/><polygon points="380.02542432209617,-5.684341886080802e-14 77.43530359486938,400.00000000000006 " stroke-opacity="0.25" stroke="green"/><polygon points="344.49229113975355,-5.684341886080802e-14 161.4696573751262,400.00000000000006 " stroke-opacity="0.25" stroke="green"/><polygon points="314.09892049579025,0.0 233.34869061890657,400.0 " stroke-opacity="0.25" stroke="green"/><polygon points="287.80534904355835,0.0 295.5318725585534,400.0 " stroke-opacity="0.25" stroke="green"/><polygon points="264.83445012682364,0.0 349.85707479483256,400.0 " stroke-opacity="0.25" stroke="green"/><polygon points="244.59383298067627,0.0 397.7252763762035,400.0 " stroke-opacity="0.25" stroke="green"/><polygon points="226.6240285250538,0.0 400.0,324.67551191374486 " stroke-opacity="0.25" stroke="green"/><polygon points="210.56318810198292,-5.684341886080802e-14 400.0,283.11852179539846 " stroke-opacity="0.25" stroke="green"/><polygon points="196.12246512670694,-5.684341886080802e-14 400.0,257.8806086683745 " stroke-opacity="0.25" stroke="green"/><polygon points="183.0684890608405,-5.684341886080802e-14 400.0,240.9268509098364 " stroke-opacity="0.25" stroke="green"/><polygon points="171.21065714858105,0.0 400.0,228.75347461069413 " stroke-opacity="0.25" stroke="green"/><polygon points="160.3917665122443,0.0 400.00000000000006,219.58844908306367 " stroke-opacity="0.25" stroke="green"/><polygon points="150.48100525193087,0.0 400.0,212.4392530146935 " stroke-opacity="0.25" stroke="green"/><polygon points="141.36863741909823,0.0 400.00000000000006,206.70671326005345 " stroke-opacity="0.25" stroke="green"/><polygon points="132.96192276204292,0.0 400.0,202.00771007549977 " stroke-opacity="0.25" stroke="green"/><polygon points="400.0,23.987187258932835 41.805828906497084,400.0 " stroke-opacity="0.25" stroke="green"/><polygon points="379.53374312203186,0.0 138.54460761999198,400.0 " stroke-opacity="0.25" stroke="green"/><polygon points="343.1418370019255,-5.684341886080802e-14 219.81825307156603,400.00000000000006 " stroke-opacity="0.25" stroke="green"/><polygon points="312.13710835088614,0.0 289.06077407033905,400.0 " stroke-opacity="0.25" stroke="green"/><polygon points="285.4057802604535,-5.684341886080802e-14 348.75955639026813,400.00000000000006 " stroke-opacity="0.25" stroke="green"/><polygon points="262.1213063380796,0.0 400.0,397.8057663905812 " stroke-opacity="0.25" stroke="green"/><polygon points="241.65738685373577,5.684341886080802e-14 400.0,309.2554001073868 " stroke-opacity="0.25" stroke="green"/><polygon points="223.5307899279626,0.0 400.0,267.97291228200754 " stroke-opacity="0.25" stroke="green"/><polygon points="207.3627066149507,0.0 400.00000000000006,244.08444056305905 " stroke-opacity="0.25" stroke="green"/><polygon points="192.8519902903348,-5.684341886080802e-14 400.0,228.50970739895197 " stroke-opacity="0.25" stroke="green"/><polygon points="179.75622437877007,5.684341886080802e-14 400.0,217.55193573317598 " stroke-opacity="0.25" stroke="green"/><polygon points="167.87807091135628,0.0 400.0,209.42316394033907 " stroke-opacity="0.25" stroke="green"/><polygon points="157.0552577591615,-5.684341886080802e-14 400.00000000000006,203.15308836016158 " stroke-opacity="0.25" stroke="green"/><polygon points="147.15312116894486,0.0 400.00000000000006,198.16961152935983 " stroke-opacity="0.25" stroke="green"/><polygon points="138.0589738294359,-5.684341886080802e-14 400.0,194.11357391600438 " stroke-opacity="0.25" stroke="green"/><polygon points="0.0,397.3333786189388 400.0,64.81388934624172 " stroke-opacity="0.25" stroke="green"/><polygon points="400.0,29.652217788566247 111.61007280203711,400.0 " stroke-opacity="0.25" stroke="green"/><polygon points="378.1098375871786,0.0 205.72168493821889,400.0 " stroke-opacity="0.25" stroke="green"/><polygon points="340.57029848256957,0.0 284.2650110082752,400.0 " stroke-opacity="0.25" stroke="green"/><polygon points="308.7662905843426,-5.684341886080802e-14 350.80798469061324,400.00000000000006 " stroke-opacity="0.25" stroke="green"/><polygon points="281.476636739359,0.0 400.00000000000006,374.98785031112004 " stroke-opacity="0.25" stroke="green"/><polygon points="257.80386115972414,5.684341886080802e-14 400.0,284.9166239501926 " stroke-opacity="0.25" stroke="green"/><polygon points="237.073599632134,-5.684341886080802e-14 400.00000000000006,247.10551447782714 " stroke-opacity="0.25" stroke="green"/><polygon points="218.76932469166636,0.0 400.0,226.29949237626374 " stroke-opacity="0.25" stroke="green"/><polygon points="202.488720617463,0.0 400.0,213.13286383475238 " stroke-opacity="0.25" stroke="green"/><polygon points="187.91376967491587,0.0 400.0,204.05078842938593 " stroke-opacity="0.25" stroke="green"/><polygon points="174.7897722069641,0.0 400.00000000000006,197.40782480178433 " stroke-opacity="0.25" stroke="green"/><polygon points="162.9103353568694,-5.684341886080802e-14 400.0,192.33771214899804 " stroke-opacity="0.25" stroke="green"/><polygon points="152.10643906443855,-5.684341886080802e-14 400.0,188.34097598853296 " stroke-opacity="0.25" stroke="green"/><polygon points="142.2383432722856,0.0 399.99999999999994,185.10938250353885 " stroke-opacity="0.25" stroke="green"/><polygon points="0.0,358.5823200729583 400.0,99.48213014755238 " stroke-opacity="0.25" stroke="green"/><polygon points="400.0,79.82378164805172 78.14581033700878,400.0 " stroke-opacity="0.25" stroke="green"/><polygon points="399.99999999999994,38.3566599457497 190.5727613510145,400.0 " stroke-opacity="0.25" stroke="green"/><polygon points="375.1510163384189,0.0 281.7492645849249,400.0 " stroke-opacity="0.25" stroke="green"/><polygon points="336.2169651232802,0.0 357.1800768364967,400.0 " stroke-opacity="0.25" stroke="green"/><polygon points="303.47218770968533,5.684341886080802e-14 400.0,329.5938045671843 " stroke-opacity="0.25" stroke="green"/><polygon points="275.549506870326,5.684341886080802e-14 400.0,249.94114803272578 " stroke-opacity="0.25" stroke="green"/><polygon points="251.45679904213168,-5.684341886080802e-14 400.0,220.11488617053055 " stroke-opacity="0.25" stroke="green"/><polygon points="230.45663929020333,5.684341886080802e-14 400.0,204.50105637992954 " stroke-opacity="0.25" stroke="green"/><polygon points="211.98949758012634,5.684341886080802e-14 400.0,194.8957726687243 " stroke-opacity="0.25" stroke="green"/><polygon points="195.62314623120466,0.0 400.0,188.3903638647799 " stroke-opacity="0.25" stroke="green"/><polygon points="181.01840411369977,0.0 400.0,183.69271424506306 " stroke-opacity="0.25" stroke="green"/><polygon points="167.9053774181127,0.0 400.0,180.14122317531493 " stroke-opacity="0.25" stroke="green"/><polygon points="156.0666269311696,-5.684341886080802e-14 400.0,177.36202981543798 " stroke-opacity="0.25" stroke="green"/><polygon points="145.3250151552974,0.0 400.0,175.12792557192924 " stroke-opacity="0.25" stroke="green"/><polygon points="0.0,325.0767922561264 400.0,130.12497451638262 " stroke-opacity="0.25" stroke="green"/><polygon points="400.0,121.97316412132243 33.28059328140057,400.0 " stroke-opacity="0.25" stroke="green"/><polygon points="400.0,105.66954333120202 173.5359997552916,400.0 " stroke-opacity="0.25" stroke="green"/><polygon points="400.00000000000006,56.75868096084088 282.6235381238735,400.0 " stroke-opacity="0.25" stroke="green"/><polygon points="369.893568818739,-5.684341886080802e-14 369.893568818739,400.00000000000006 " stroke-opacity="0.25" stroke="green"/><polygon points="329.38055621725607,-5.684341886080802e-14 400.00000000000006,252.4021304422853 " stroke-opacity="0.25" stroke="green"/><polygon points="295.619712382687,0.0 400.0,203.49126807192422 " stroke-opacity="0.25" stroke="green"/><polygon points="267.052844522667,0.0 400.00000000000006,187.18764728180392 " stroke-opacity="0.25" stroke="green"/><polygon points="242.566957785507,-5.684341886080802e-14 400.00000000000006,179.03583688674374 " stroke-opacity="0.25" stroke="green"/><polygon points="221.345855946635,0.0 400.0,174.1447506497076 " stroke-opacity="0.25" stroke="green"/><polygon points="202.777391837622,-5.684341886080802e-14 400.0,170.88402649168358 " stroke-opacity="0.25" stroke="green"/><polygon points="186.39345291790465,-5.684341886080802e-14 400.0,168.55493780738064 " stroke-opacity="0.25" stroke="green"/><polygon points="171.82995165593368,5.684341886080802e-14 400.00000000000006,166.80812129415347 " stroke-opacity="0.25" stroke="green"/><polygon points="158.79945052680176,0.0 399.99999999999994,165.4494862283101 " stroke-opacity="0.25" stroke="green"/><polygon points="147.07199951058303,0.0 400.0,164.3625781756354 " stroke-opacity="0.25" stroke="green"/><polygon points="-5.684341886080802e-14,295.1130417252406 400.00000000000006,158.19075978080014 " stroke-opacity="0.25" stroke="green"/><polygon points="-5.684341886080802e-14,381.1931887768045 400.00000000000006,159.33966632023512 " stroke-opacity="0.25" stroke="green"/><polygon points="400.0,161.56110129264476 152.95777127572933,400.0 " stroke-opacity="0.25" stroke="green"/><polygon points="400.00000000000006,167.67151370045272 289.0733248166821,400.0 " stroke-opacity="0.25" stroke="green"/><polygon points="400.0,259.58650216140927 392.64124039691535,400.0 " stroke-opacity="0.25" stroke="green"/><polygon points="361.3457397758541,0.0 400.0,137.14094267031618 " stroke-opacity="0.25" stroke="green"/><polygon points="319.1716893394153,0.0 400.00000000000006,146.52924454553252 " stroke-opacity="0.25" stroke="green"/><polygon points="284.4199808201759,0.0 400.0,149.34672604808665 " stroke-opacity="0.25" stroke="green"/><polygon points="255.2896696701674,5.684341886080802e-14 400.0,150.70345439744654 " stroke-opacity="0.25" stroke="green"/><polygon points="230.5188516052222,-5.684341886080802e-14 400.0,151.5015794514825 " stroke-opacity="0.25" stroke="green"/><polygon points="209.19702782594442,-5.684341886080802e-14 400.0,152.02719404661693 " stroke-opacity="0.25" stroke="green"/><polygon points="190.65074560176936,-5.684341886080802e-14 400.0,152.39951401743534 " stroke-opacity="0.25" stroke="green"/><polygon points="174.37116949940764,0.0 400.0,152.67706682904793 " stroke-opacity="0.25" stroke="green"/><polygon points="159.96667971227458,0.0 400.00000000000006,152.89194947392093 " stroke-opacity="0.25" stroke="green"/><polygon points="147.13095768877622,5.684341886080802e-14 400.0,153.063234647341 " stroke-opacity="0.25" stroke="green"/><polygon points="0.0,267.4694240768597 400.0,184.74920938643737 " stroke-opacity="0.25" stroke="green"/><polygon points="0.0,342.6919942662563 400.0,194.09370395084238 " stroke-opacity="0.25" stroke="green"/><polygon points="400.0,211.82451070059267 124.88895021346426,400.0 " stroke-opacity="0.25" stroke="green"/><polygon points="400.0,258.42084075412026 305.9431552317999,400.0 " stroke-opacity="0.25" stroke="green"/><polygon points="348.2048222115895,-5.684341886080802e-14 400.0,82.5680362414853 " stroke-opacity="0.25" stroke="green"/><polygon points="304.458975240353,0.0 400.0,108.55131454430943 " stroke-opacity="0.25" stroke="green"/><polygon points="268.89657128553563,-5.684341886080802e-14 400.0,120.75580232379379 " stroke-opacity="0.25" stroke="green"/><polygon points="239.41773126470383,0.0 400.0,127.84470130797517 " stroke-opacity="0.25" stroke="green"/><polygon points="214.58440839917995,0.0 400.00000000000006,132.47707685090444 " stroke-opacity="0.25" stroke="green"/><polygon points="193.37869019754802,0.0 400.0,135.74125241384402 " stroke-opacity="0.25" stroke="green"/><polygon points="175.05981107065156,0.0 400.0,138.16538932481592 " stroke-opacity="0.25" stroke="green"/><polygon points="159.0758400836715,0.0 400.0,140.03679524183295 " stroke-opacity="0.25" stroke="green"/><polygon points="145.00711418609137,-5.684341886080802e-14 400.00000000000006,141.5251672279929 " stroke-opacity="0.25" stroke="green"/><polygon points="0.0,241.19677134202965 400.0,210.6686105397265 " stroke-opacity="0.25" stroke="green"/><polygon points="-5.684341886080802e-14,307.68849905099194 400.00000000000006,227.88778388588497 " stroke-opacity="0.25" stroke="green"/><polygon points="400.0,260.3633152807919 76.63451923926546,400.00000000000006 " stroke-opacity="0.25" stroke="green"/><polygon points="400.0,344.4975504723144 346.3068506975813,400.0 " stroke-opacity="0.25" stroke="green"/><polygon points="386.54585555954003,0.0 400.0,17.559425577785532 " stroke-opacity="0.25" stroke="green"/><polygon points="328.7589273899009,0.0 400.0,67.51805602342876 " stroke-opacity="0.25" stroke="green"/><polygon points="283.8135388135149,0.0 400.00000000000006,90.7800349100754 " stroke-opacity="0.25" stroke="green"/><polygon points="247.85722795240616,0.0 400.0,104.2323975722271 " stroke-opacity="0.25" stroke="green"/><polygon points="218.4384281569535,0.0 400.0,112.99972054442003 " stroke-opacity="0.25" stroke="green"/><polygon points="193.92276166074296,0.0 400.0,119.16650146884106 " stroke-opacity="0.25" stroke="green"/><polygon points="173.17873616394945,0.0 400.0,123.74035233473963 " stroke-opacity="0.25" stroke="green"/><polygon points="155.3981428809835,0.0 400.00000000000006,127.26787730953045 " stroke-opacity="0.25" stroke="green"/><polygon points="139.9882953690798,0.0 400.0,130.0712644167017 " stroke-opacity="0.25" stroke="green"/><polygon points="0.0,215.485295411571 400.0,236.7333380517261 " stroke-opacity="0.25" stroke="green"/><polygon points="-5.684341886080802e-14,274.6062855442261 400.00000000000006,262.17941267287256 " stroke-opacity="0.25" stroke="green"/><polygon points="0.0,386.78601272701474 400.0,310.4623271245439 " stroke-opacity="0.25" stroke="green"/><polygon points="360.4680636510536,0.0 400.0,29.23818625262794 " stroke-opacity="0.25" stroke="green"/><polygon points="300.78330502743415,5.684341886080802e-14 400.0,62.472333333476826 " stroke-opacity="0.25" stroke="green"/><polygon points="255.4653672496426,0.0 400.0,81.77617596402105 " stroke-opacity="0.25" stroke="green"/><polygon points="219.88412037335934,5.684341886080802e-14 400.00000000000006,94.39063819374556 " stroke-opacity="0.25" stroke="green"/><polygon points="191.20602671818517,-5.684341886080802e-14 400.0,103.2793431288928 " stroke-opacity="0.25" stroke="green"/><polygon points="167.599799684644,-5.684341886080802e-14 400.0,109.88053148673457 " stroke-opacity="0.25" stroke="green"/><polygon points="147.82927238585856,0.0 400.0,114.97657325578479 " stroke-opacity="0.25" stroke="green"/><polygon points="131.02981458393714,0.0 400.0,119.02957198812044 " stroke-opacity="0.25" stroke="green"/><polygon points="-5.684341886080802e-14,189.56557983823922 400.00000000000006,263.73822166780144 " stroke-opacity="0.25" stroke="green"/><polygon points="0.0,242.057838687887 400.0,298.4750164091526 " stroke-opacity="0.25" stroke="green"/><polygon points="0.0,343.55272585837065 400.0,365.63934006754175 " stroke-opacity="0.25" stroke="green"/><polygon points="321.29452175827623,-5.684341886080802e-14 400.0,37.362114177571755 " stroke-opacity="0.25" stroke="green"/><polygon points="261.4619438050422,0.0 400.0,61.49315114913472 " stroke-opacity="0.25" stroke="green"/><polygon points="217.30071710892742,5.684341886080802e-14 400.00000000000006,77.38492796260996 " stroke-opacity="0.25" stroke="green"/><polygon points="183.36682832783004,0.0 400.0,88.64189444378627 " stroke-opacity="0.25" stroke="green"/><polygon points="156.4761477104699,0.0 400.0,97.03360840479563 " stroke-opacity="0.25" stroke="green"/><polygon points="134.64204616271547,0.0 400.00000000000006,103.53051139231148 " stroke-opacity="0.25" stroke="green"/><polygon points="116.56082448529548,5.684341886080802e-14 400.0,108.7092597996945 " stroke-opacity="0.25" stroke="green"/><polygon points="0.0,162.61694413967325 400.0,292.58482263283577 " stroke-opacity="0.25" stroke="green"/><polygon points="-5.684341886080802e-14,208.61841645009744 400.00000000000006,338.58629494326 " stroke-opacity="0.25" stroke="green"/><polygon points="5.684341886080802e-14,300.62136107094585 305.8560009788338,400.0 " stroke-opacity="0.25" stroke="green"/><polygon points="348.9843522492747,0.0 399.99999999999994,16.57598877029062 " stroke-opacity="0.25" stroke="green"/><polygon points="264.03756783990514,0.0 400.0,44.1768721565451 " stroke-opacity="0.25" stroke="green"/><polygon points="207.40637823365876,0.0 400.00000000000006,62.577461080714784 " stroke-opacity="0.25" stroke="green"/><polygon points="166.9555285149113,0.0 400.00000000000006,75.72073888369313 " stroke-opacity="0.25" stroke="green"/><polygon points="136.61739122585075,0.0 400.00000000000006,85.57819723592688 " stroke-opacity="0.25" stroke="green"/><polygon points="113.02106222324811,0.0 400.00000000000006,93.24510928766425 " stroke-opacity="0.25" stroke="green"/><polygon points="94.14399902116597,0.0 400.0,99.37863892905416 " stroke-opacity="0.25" stroke="green"/><polygon points="-5.684341886080802e-14,133.65908612312575 400.00000000000006,324.40536409738496 " stroke-opacity="0.25" stroke="green"/><polygon points="-5.684341886080802e-14,172.56548085621722 400.00000000000006,384.99670171167514 " stroke-opacity="0.25" stroke="green"/><polygon points="-5.684341886080802e-14,254.6342368066925 225.2220629871355,400.0 " stroke-opacity="0.25" stroke="green"/><polygon points="396.1868442852593,0.0 400.0,0.7140216940369442 " stroke-opacity="0.25" stroke="green"/><polygon points="258.14784360523606,-5.684341886080802e-14 400.0,30.31961080247413 " stroke-opacity="0.25" stroke="green"/><polygon points="182.58600265187977,0.0 400.0,50.370706201906245 " stroke-opacity="0.25" stroke="green"/><polygon points="134.9126109032585,0.0 400.0,64.84989167921816 " stroke-opacity="0.25" stroke="green"/><polygon points="102.09337407636312,0.0 400.0,75.79636535917713 " stroke-opacity="0.25" stroke="green"/><polygon points="78.12164862702224,5.684341886080802e-14 400.0,84.36244827137993 " stroke-opacity="0.25" stroke="green"/><polygon points="59.84468880542764,-5.684341886080802e-14 400.0,91.24844708696689 " stroke-opacity="0.25" stroke="green"/><polygon points="0.0,101.39400735617428 400.0,360.7532606090063 " stroke-opacity="0.25" stroke="green"/><polygon points="5.684341886080802e-14,131.46942184571236 346.4440885854824,400.0 " stroke-opacity="0.25" stroke="green"/><polygon points="-5.684341886080802e-14,200.27773083063687 187.53392145435956,400.0 " stroke-opacity="0.25" stroke="green"/><polygon points="223.5735000426203,0.0 399.99999999999994,20.098998320396447 " stroke-opacity="0.25" stroke="green"/><polygon points="120.70733121010517,0.0 399.99999999999994,40.95841774352826 " stroke-opacity="0.25" stroke="green"/><polygon points="70.46041556894855,0.0 400.00000000000006,56.21576348620653 " stroke-opacity="0.25" stroke="green"/><polygon points="40.68138377122136,0.0 400.0,67.86063556957475 " stroke-opacity="0.25" stroke="green"/><polygon points="20.980148293958877,5.684341886080802e-14 400.0,77.04021096106266 " stroke-opacity="0.25" stroke="green"/><polygon points="6.98129198286469,-5.684341886080802e-14 400.0,84.46243120256393 " stroke-opacity="0.25" stroke="green"/><polygon points="0.0,63.93730391900226 395.370120766542,400.00000000000006 " stroke-opacity="0.25" stroke="green"/><polygon points="0.0,81.38974202930159 294.1854951334775,400.0 " stroke-opacity="0.25" stroke="green"/><polygon points="0.0,126.69357742819408 161.9176614837398,400.0 " stroke-opacity="0.25" stroke="green"/><polygon points="0.0,2.3506263509862606 400.0,13.41963964896027 " stroke-opacity="0.25" stroke="green"/><polygon points="0.0,5.650276433442059 400.0,34.34243219611457 " stroke-opacity="0.25" stroke="green"/><polygon points="0.0,8.098046229583332 400.0,49.86352636308641 " stroke-opacity="0.25" stroke="green"/><polygon points="-5.684341886080802e-14,9.986117640101412 400.00000000000006,61.8356220245397 " stroke-opacity="0.25" stroke="green"/><polygon points="-5.684341886080802e-14,11.486763048421977 400.00000000000006,71.35108329483353 " stroke-opacity="0.25" stroke="green"/><polygon points="0.0,12.708134076543757 400.0,79.095690148866 " stroke-opacity="0.25" stroke="green"/><polygon points="0.0,18.304665100232427 347.5097827657463,400.0 " stroke-opacity="0.25" stroke="green"/><polygon points="0.0,14.996826182023028 255.99103707271166,400.0 " stroke-opacity="0.25" stroke="green"/><polygon points="5.684341886080802e-14,4.39451144413124 141.0861805983809,400.0 " stroke-opacity="0.25" stroke="green"/><polygon points="0.0,221.66066536723682 9.299173966791841,0.0 " stroke-opacity="0.25" stroke="green"/><polygon points="0.0,41.388055315641594 23.895404877720722,0.0 " stroke-opacity="0.25" stroke="green"/><polygon points="0.0,33.3732078649532 44.539680015215964,0.0 " stroke-opacity="0.25" stroke="green"/><polygon points="-5.684341886080802e-14,30.540837743637837 75.97338102985023,5.684341886080802e-14 " stroke-opacity="0.25" stroke="green"/><polygon points="0.0,29.09245543671824 129.64716885598892,0.0 " stroke-opacity="0.25" stroke="green"/><polygon points="0.0,28.21284055766526 242.08485453544455,0.0 " stroke-opacity="0.25" stroke="green"/><polygon points="0.0,27.62195265400956 400.0,9.986743233986061 " stroke-opacity="0.25" stroke="green"/><polygon points="-5.684341886080802e-14,27.1976749862348 400.00000000000006,30.371983870624604 " stroke-opacity="0.25" stroke="green"/><polygon points="0.0,26.878247116726385 400.0,45.71951328486338 " stroke-opacity="0.25" stroke="green"/><polygon points="-5.684341886080802e-14,26.629076783055865 400.00000000000006,57.69138358862668 " stroke-opacity="0.25" stroke="green"/><polygon points="0.0,26.42928105360852 400.0,67.29095559607941 " stroke-opacity="0.25" stroke="green"/><polygon points="0.0,26.265507087946332 400.0,75.15979233582652 " stroke-opacity="0.25" stroke="green"/><polygon points="28.597152528471582,0.0 309.75974408731423,400.0 " stroke-opacity="0.25" stroke="green"/><polygon points="39.00649273454485,5.684341886080802e-14 225.40860974410657,399.99999999999994 " stroke-opacity="0.25" stroke="green"/><polygon points="51.722781699045015,0.0 122.36332756898987,400.0 " stroke-opacity="0.25" stroke="green"/><polygon points="0.0,365.5815419775638 67.60850155063974,5.684341886080802e-14 " stroke-opacity="0.25" stroke="green"/><polygon points="0.0,135.53471625358105 88.01727387694558,0.0 " stroke-opacity="0.25" stroke="green"/><polygon points="0.0,90.8471687589935 115.20148927093044,0.0 " stroke-opacity="0.25" stroke="green"/><polygon points="0.0,71.8260987675109 153.2067230607355,-5.684341886080802e-14 " stroke-opacity="0.25" stroke="green"/><polygon points="0.0,61.29246256965334 210.09966160202032,0.0 " stroke-opacity="0.25" stroke="green"/><polygon points="-5.684341886080802e-14,54.6016958665698 304.616026336644,0.0 " stroke-opacity="0.25" stroke="green"/><polygon points="-5.684341886080802e-14,49.97528860173958 400.00000000000006,9.387252936091073 " stroke-opacity="0.25" stroke="green"/><polygon points="-5.684341886080802e-14,46.58552949944084 400.00000000000006,28.792466885210587 " stroke-opacity="0.25" stroke="green"/><polygon points="-5.684341886080802e-14,43.99503714479022 400.00000000000006,43.62215149066347 " stroke-opacity="0.25" stroke="green"/><polygon points="-5.684341886080802e-14,41.9509369657074 400.00000000000006,55.323927372506034 " stroke-opacity="0.25" stroke="green"/><polygon points="0.0,40.296851401125764 400.0,64.79300269679396 " stroke-opacity="0.25" stroke="green"/><polygon points="0.0,38.93087953709659 400.0,72.61272541749948 " stroke-opacity="0.25" stroke="green"/><polygon points="65.48051265122604,0.0 278.31065997606277,400.0 " stroke-opacity="0.25" stroke="green"/><polygon points="78.21522124136781,0.0 199.23043040836717,400.0 " stroke-opacity="0.25" stroke="green"/><polygon points="93.47411102194255,0.0 104.47549367348792,400.0 " stroke-opacity="0.25" stroke="green"/><polygon points="0.0,363.8777661403034 112.09022951771121,-5.684341886080802e-14 " stroke-opacity="0.25" stroke="green"/><polygon points="-5.684341886080802e-14,186.23618079528836 135.3085056010722,5.684341886080802e-14 " stroke-opacity="0.25" stroke="green"/><polygon points="0.0,130.6921626009239 165.07620892456006,0.0 " stroke-opacity="0.25" stroke="green"/><polygon points="0.0,103.56064182729415 204.61956829654272,0.0 " stroke-opacity="0.25" stroke="green"/><polygon points="0.0,87.48103953670419 259.70007468285644,-5.684341886080802e-14 " stroke-opacity="0.25" stroke="green"/><polygon points="0.0,76.84308349906641 341.7136949220491,-5.684341886080802e-14 " stroke-opacity="0.25" stroke="green"/><polygon points="5.684341886080802e-14,69.28420638262872 399.99999999999994,11.160804142199765 " stroke-opacity="0.25" stroke="green"/><polygon points="0.0,63.63659083886267 400.0,29.292622466922097 " stroke-opacity="0.25" stroke="green"/><polygon points="-5.684341886080802e-14,59.25670217835051 400.00000000000006,43.35437027172429 " stroke-opacity="0.25" stroke="green"/><polygon points="0.0,55.760761806689146 400.0,54.57817883337407 " stroke-opacity="0.25" stroke="green"/><polygon points="0.0,52.90570041364364 400.0,63.74442856894126 " stroke-opacity="0.25" stroke="green"/><polygon points="0.0,50.530085222527276 400.0,71.37140365620957 " stroke-opacity="0.25" stroke="green"/><polygon points="96.84721526920357,0.0 250.9283992456853,400.0 " stroke-opacity="0.25" stroke="green"/><polygon points="111.21521179477514,-5.684341886080802e-14 175.64107208976276,400.00000000000006 " stroke-opacity="0.25" stroke="green"/><polygon points="128.19258586866914,0.0 86.6807835850377,400.0 " stroke-opacity="0.25" stroke="green"/><polygon points="5.684341886080802e-14,352.43661631386624 148.56116679314863,0.0 " stroke-opacity="0.25" stroke="green"/><polygon points="0.0,214.19263806336244 173.44977833162793,-5.684341886080802e-14 " stroke-opacity="0.25" stroke="green"/><polygon points="0.0,157.95984599407805 204.55076960631806,0.0 " stroke-opacity="0.25" stroke="green"/><polygon points="-5.684341886080802e-14,127.45497028955725 244.52181081828118,0.0 " stroke-opacity="0.25" stroke="green"/><polygon points="-5.684341886080802e-14,108.3084708905052 297.7886436593825,0.0 " stroke-opacity="0.25" stroke="green"/><polygon points="-5.684341886080802e-14,95.17216277247644 372.30871360501044,0.0 " stroke-opacity="0.25" stroke="green"/><polygon points="-5.684341886080802e-14,85.60000993874215 400.00000000000006,14.85210038500324 " stroke-opacity="0.25" stroke="green"/><polygon points="0.0,78.31474253972436 400.0,31.543362622267324 " stroke-opacity="0.25" stroke="green"/><polygon points="0.0,72.58427177551701 400.0,44.67243325614072 " stroke-opacity="0.25" stroke="green"/><polygon points="0.0,67.95885943409917 400.0,55.26970664606341 " stroke-opacity="0.25" stroke="green"/><polygon points="-5.684341886080802e-14,64.14696784496627 400.00000000000006,64.00312419266109 " stroke-opacity="0.25" stroke="green"/><polygon points="0.0,60.951321581117725 400.0,71.32466325032419 " stroke-opacity="0.25" stroke="green"/><polygon points="124.50171116781861,0.0 226.1875854711545,400.0 " stroke-opacity="0.25" stroke="green"/><polygon points="140.16901601198714,-5.684341886080802e-14 153.49361342379927,400.00000000000006 " stroke-opacity="0.25" stroke="green"/><polygon points="158.49597145246642,0.0 68.45925686060275,400.0 " stroke-opacity="0.25" stroke="green"/><polygon points="0.0,339.1278737875473 180.22263866302345,0.0 " stroke-opacity="0.25" stroke="green"/><polygon points="0.0,229.22122346821047 206.3917166496756,-5.684341886080802e-14 " stroke-opacity="0.25" stroke="green"/><polygon points="5.684341886080802e-14,176.23656057030433 238.520858289587,0.0 " stroke-opacity="0.25" stroke="green"/><polygon points="0.0,145.04884547869537 278.9078527095143,0.0 " stroke-opacity="0.25" stroke="green"/><polygon points="-5.684341886080802e-14,124.50238928716983 331.20582178340345,-5.684341886080802e-14 " stroke-opacity="0.25" stroke="green"/><polygon points="-5.684341886080802e-14,109.94470532178033 400.00000000000006,0.43675984253576416 " stroke-opacity="0.25" stroke="green"/><polygon points="0.0,99.09048499124049 400.0,20.043772480646993 " stroke-opacity="0.25" stroke="green"/><polygon points="0.0,90.68596858744856 400.0,35.22565144828775 " stroke-opacity="0.25" stroke="green"/><polygon points="-5.684341886080802e-14,83.9859354697745 400.00000000000006,47.3285598114409 " stroke-opacity="0.25" stroke="green"/><polygon points="0.0,78.51960581585229 400.0,57.20291203063937 " stroke-opacity="0.25" stroke="green"/><polygon points="0.0,73.97495662659772 400.0,65.41234498629638 " stroke-opacity="0.25" stroke="green"/><polygon points="-5.684341886080802e-14,70.13700463969877 400.00000000000006,72.34520343397901 " stroke-opacity="0.25" stroke="green"/><polygon points="149.66434489086632,0.0 203.10500820193215,400.0 " stroke-opacity="0.25" stroke="green"/><polygon points="166.5008314703247,5.684341886080802e-14 131.98242604085178,399.99999999999994 " stroke-opacity="0.25" stroke="green"/><polygon points="186.0554192643802,0.0 49.37773470901496,400.0 " stroke-opacity="0.25" stroke="green"/><polygon points="0.0,325.6419626185626 209.04412553449174,0.0 " stroke-opacity="0.25" stroke="green"/><polygon points="0.0,236.45866583731964 236.45866583731961,0.0 " stroke-opacity="0.25" stroke="green"/><polygon points="0.0,188.0411348480031 269.71328297100035,-5.684341886080802e-14 " stroke-opacity="0.25" stroke="green"/><polygon points="0.0,157.6380836402102 310.8965985503182,0.0 " stroke-opacity="0.25" stroke="green"/><polygon points="5.684341886080802e-14,136.7726438653507 363.2279886782755,-5.684341886080802e-14 " stroke-opacity="0.25" stroke="green"/><polygon points="0.0,121.56532039007779 400.0,8.989877352688382 " stroke-opacity="0.25" stroke="green"/><polygon points="5.684341886080802e-14,109.98942245089965 399.99999999999994,26.372987645544868 " stroke-opacity="0.25" stroke="green"/><polygon points="0.0,100.88294364346146 400.0,40.047859894850234 " stroke-opacity="0.25" stroke="green"/><polygon points="0.0,93.53186269525912 400.0,51.08671420798606 " stroke-opacity="0.25" stroke="green"/><polygon points="0.0,87.47323387475193 400.0,60.184739567549116 " stroke-opacity="0.25" stroke="green"/><polygon points="0.0,82.39374561971009 400.0,67.81242469682294 " stroke-opacity="0.25" stroke="green"/><polygon points="-5.684341886080802e-14,78.07378420921034 400.00000000000006,74.29955563510184 " stroke-opacity="0.25" stroke="green"/><polygon points="173.21958554223846,0.0 180.9461090572336,400.0 " stroke-opacity="0.25" stroke="green"/><polygon points="191.22591123354286,0.0 110.47568135665927,400.0 " stroke-opacity="0.25" stroke="green"/><polygon points="212.03985549615382,0.0 29.017221731526575,400.0 " stroke-opacity="0.25" stroke="green"/><polygon points="0.0,312.46704811326464 236.3736045296822,0.0 " stroke-opacity="0.25" stroke="green"/><polygon points="0.0,238.78937225089857 265.20246523005454,0.0 " stroke-opacity="0.25" stroke="green"/><polygon points="-5.684341886080802e-14,195.14166311912996 299.8987448605231,0.0 " stroke-opacity="0.25" stroke="green"/><polygon points="0.0,166.2723952305006 342.4566355724518,0.0 " stroke-opacity="0.25" stroke="green"/><polygon points="0.0,145.76261881768139 395.88949555183206,0.0 " stroke-opacity="0.25" stroke="green"/><polygon points="0.0,130.44063115496513 400.0,18.22791696015406 " stroke-opacity="0.25" stroke="green"/><polygon points="0.0,118.55910262775502 400.0,33.536477959746094 " stroke-opacity="0.25" stroke="green"/><polygon points="0.0,109.07620057105675 400.0,45.7545679349262 " stroke-opacity="0.25" stroke="green"/><polygon points="0.0,101.33217283938352 400.0,55.732233741253964 " stroke-opacity="0.25" stroke="green"/><polygon points="-5.684341886080802e-14,94.88890339139364 400.00000000000006,64.03395882279287 " stroke-opacity="0.25" stroke="green"/><polygon points="5.684341886080802e-14,89.44405303777958 399.99999999999994,71.04928716047803 " stroke-opacity="0.25" stroke="green"/><polygon points="-5.684341886080802e-14,84.78224323248304 400.00000000000006,77.05571971748802 " stroke-opacity="0.25" stroke="green"/><polygon points="195.85787993242351,-5.684341886080802e-14 159.11245660758698,400.00000000000006 " stroke-opacity="0.25" stroke="green"/><polygon points="215.132162349834,-5.684341886080802e-14 88.41756341595399,400.00000000000006 " stroke-opacity="0.25" stroke="green"/><polygon points="237.35094839047125,0.0 6.922715930906747,400.0 " stroke-opacity="0.25" stroke="green"/><polygon points="-5.684341886080802e-14,299.7409558673555 263.24478125296105,0.0 " stroke-opacity="0.25" stroke="green"/><polygon points="0.0,237.9207518095356 293.8076598902771,0.0 " stroke-opacity="0.25" stroke="green"/><polygon points="0.0,198.78494091239597 330.42756988882775,-5.684341886080802e-14 " stroke-opacity="0.25" stroke="green"/><polygon points="0.0,171.78339725237745 375.1031572115869,-5.684341886080802e-14 " stroke-opacity="0.25" stroke="green"/><polygon points="-5.684341886080802e-14,152.03014128900796 400.00000000000006,10.87628096985 " stroke-opacity="0.25" stroke="green"/><polygon points="0.0,136.95195693436705 400.0,27.881757809624418 " stroke-opacity="0.25" stroke="green"/><polygon points="0.0,125.06476692382748 400.0,41.288367628134154 " stroke-opacity="0.25" stroke="green"/><polygon points="5.684341886080802e-14,115.45253676724501 399.99999999999994,52.12923238092742 " stroke-opacity="0.25" stroke="green"/><polygon points="0.0,107.51923112991119 400.0,61.076572598120606 " stroke-opacity="0.25" stroke="green"/><polygon points="0.0,100.86030487754287 400.0,68.58664234518281 " stroke-opacity="0.25" stroke="green"/><polygon points="0.0,95.19151956982925 400.0,74.9800114002777 " stroke-opacity="0.25" stroke="green"/><polygon points="-5.684341886080802e-14,90.3073161756422 400.00000000000006,80.48851333572668 " stroke-opacity="0.25" stroke="green"/><polygon points="218.16491408236868,0.0 137.06834944721888,400.0 " stroke-opacity="0.25" stroke="green"/><polygon points="238.89181387544411,0.0 65.26079732197121,400.0 " stroke-opacity="0.25" stroke="green"/><polygon points="-5.684341886080802e-14,375.0999352878231 262.7638373861157,-5.684341886080802e-14 " stroke-opacity="0.25" stroke="green"/><polygon points="-5.684341886080802e-14,287.4780832679675 290.5556240119647,0.0 " stroke-opacity="0.25" stroke="green"/><polygon points="-5.684341886080802e-14,234.90497205605416 323.3189565667391,-5.684341886080802e-14 " stroke-opacity="0.25" stroke="green"/><polygon points="-5.684341886080802e-14,199.8562312481119 362.5188782564218,0.0 " stroke-opacity="0.25" stroke="green"/><polygon points="-5.684341886080802e-14,174.821416385296 400.00000000000006,4.37151652466784 " stroke-opacity="0.25" stroke="green"/><polygon points="-5.684341886080802e-14,156.0453052381841 400.00000000000006,23.14762767177973 " stroke-opacity="0.25" stroke="green"/><polygon points="0.0,141.44166323487485 400.0,37.75126967508905 " stroke-opacity="0.25" stroke="green"/><polygon points="0.0,129.75874963222745 400.0,49.43418327773645 " stroke-opacity="0.25" stroke="green"/><polygon points="0.0,120.20000213915229 400.0,58.9929307708116 " stroke-opacity="0.25" stroke="green"/><polygon points="0.0,112.2343792282563 400.0,66.9585536817076 " stroke-opacity="0.25" stroke="green"/><polygon points="0.0,105.49423676519052 400.0,73.69869614477338 " stroke-opacity="0.25" stroke="green"/><polygon points="0.0,99.71697179684837 400.0,79.47596111311552 " stroke-opacity="0.25" stroke="green"/><polygon points="0.0,94.71000882428517 400.0,84.4829240856787 " stroke-opacity="0.25" stroke="green"/><polygon points="240.68532300796932,0.0 114.28501353204116,400.0 " stroke-opacity="0.25" stroke="green"/><polygon points="263.14072876624317,-5.684341886080802e-14 40.408996999544826,400.00000000000006 " stroke-opacity="0.25" stroke="green"/><polygon points="0.0,346.3682570209103 289.0266136564684,0.0 " stroke-opacity="0.25" stroke="green"/><polygon points="-5.684341886080802e-14,275.64554107222904 319.19409335671935,-5.684341886080802e-14 " stroke-opacity="0.25" stroke="green"/><polygon points="-5.684341886080802e-14,230.41060721796225 354.8012213461833,0.0 " stroke-opacity="0.25" stroke="green"/><polygon points="0.0,198.9888398338456 397.46506324911843,-5.684341886080802e-14 " stroke-opacity="0.25" stroke="green"/><polygon points="0.0,175.8912280917568 400.0,19.37447743116408 " stroke-opacity="0.25" stroke="green"/><polygon points="-5.684341886080802e-14,158.19685801711307 400.00000000000006,35.188889619611075 " stroke-opacity="0.25" stroke="green"/><polygon points="0.0,144.20829420572028 400.0,47.69122302309131 " stroke-opacity="0.25" stroke="green"/><polygon points="0.0,132.87170680244964 400.0,57.823342180166634 " stroke-opacity="0.25" stroke="green"/><polygon points="0.0,123.49824325103901 400.0,66.2009117466479 " stroke-opacity="0.25" stroke="green"/><polygon points="-5.684341886080802e-14,115.61861366612317 400.00000000000006,73.24336138585323 " stroke-opacity="0.25" stroke="green"/><polygon points="0.0,108.90206863885162 400.0,79.24629967048591 " stroke-opacity="0.25" stroke="green"/><polygon points="-5.684341886080802e-14,103.10878931611222 400.00000000000006,84.42406563480785 " stroke-opacity="0.25" stroke="green"/><polygon points="0.0,98.06064841223372 400.0,88.9358612343413 " stroke-opacity="0.25" stroke="green"/><polygon points="263.97661347825107,0.0 90.189081121221,400.0 " stroke-opacity="0.25" stroke="green"/><polygon points="288.54680689670494,5.684341886080802e-14 13.154785693497217,399.99999999999994 " stroke-opacity="0.25" stroke="green"/><polygon points="-5.684341886080802e-14,322.72560624421226 316.94808348697774,0.0 " stroke-opacity="0.25" stroke="green"/><polygon points="0.0,264.1923694162898 350.1522435471635,0.0 " stroke-opacity="0.25" stroke="green"/><polygon points="5.684341886080802e-14,224.87222780992414 389.49012377799147,0.0 " stroke-opacity="0.25" stroke="green"/><polygon points="0.0,196.63902507533922 400.0,16.580788846584085 " stroke-opacity="0.25" stroke="green"/><polygon points="0.0,175.38296451903574 400.0,33.63239571522496 " stroke-opacity="0.25" stroke="green"/><polygon points="0.0,158.80213295451608 400.0,46.9335349665194 " stroke-opacity="0.25" stroke="green"/><polygon points="-5.684341886080802e-14,145.50689315418032 400.00000000000006,57.598973263476125 " stroke-opacity="0.25" stroke="green"/><polygon points="0.0,134.6086915131687 400.0,66.34150810267985 " stroke-opacity="0.25" stroke="green"/><polygon points="0.0,125.512879812393 400.0,73.63816614813392 " stroke-opacity="0.25" stroke="green"/><polygon points="0.0,117.80647809994626 400.0,79.82023982186992 " stroke-opacity="0.25" stroke="green"/><polygon points="0.0,111.19372157977857 400.0,85.12499157496475 " stroke-opacity="0.25" stroke="green"/><polygon points="0.0,105.45722979028945 400.0,89.7268039635048 " stroke-opacity="0.25" stroke="green"/><polygon points="0.0,100.43365314023598 400.0,93.75671599185533 " stroke-opacity="0.25" stroke="green"/><polygon points="288.6650358398932,0.0 64.10431725290528,400.0 " stroke-opacity="0.25" stroke="green"/><polygon points="0.0,379.11640635246715 315.88368214952357,5.684341886080802e-14 " stroke-opacity="0.25" stroke="green"/><polygon points="0.0,302.46026407591694 347.49653714662196,0.0 " stroke-opacity="0.25" stroke="green"/><polygon points="-5.684341886080802e-14,253.06158472165484 384.6611475972114,0.0 " stroke-opacity="0.25" stroke="green"/><polygon points="0.0,218.5766180987275 400.0,14.766438300955883 " stroke-opacity="0.25" stroke="green"/><polygon points="0.0,193.13736495385868 400.0,33.10366192604218 " stroke-opacity="0.25" stroke="green"/><polygon points="-5.684341886080802e-14,173.5973436863755 400.00000000000006,47.18857776772646 " stroke-opacity="0.25" stroke="green"/><polygon points="0.0,158.1177559644004 400.0,58.346635752587304 " stroke-opacity="0.25" stroke="green"/><polygon points="-5.684341886080802e-14,145.55208310695735 400.00000000000006,67.40427403600859 " stroke-opacity="0.25" stroke="green"/><polygon points="0.0,135.14832111083194 400.0,74.90355513434565 " stroke-opacity="0.25" stroke="green"/><polygon points="-5.684341886080802e-14,126.39273224459222 400.00000000000006,81.21479352233021 " stroke-opacity="0.25" stroke="green"/><polygon points="0.0,118.92240530784626 400.0,86.59958429474514 " stroke-opacity="0.25" stroke="green"/><polygon points="0.0,112.47368958953713 400.0,91.24797320568672 " stroke-opacity="0.25" stroke="green"/><polygon points="0.0,106.85043069510517 400.0,95.3013530459574 " stroke-opacity="0.25" stroke="green"/><polygon points="5.684341886080802e-14,101.90367041214985 399.99999999999994,98.86709646663421 " stroke-opacity="0.25" stroke="green"/><polygon points="315.51571071801516,5.684341886080802e-14 35.173585920957976,399.99999999999994 " stroke-opacity="0.25" stroke="green"/><polygon points="-5.684341886080802e-14,347.3497669478811 346.12761190149007,0.0 " stroke-opacity="0.25" stroke="green"/><polygon points="0.0,284.5401490379904 381.9361287151981,0.0 " stroke-opacity="0.25" stroke="green"/><polygon points="0.0,242.19521926504316 400.0,13.917652718558713 " stroke-opacity="0.25" stroke="green"/><polygon points="0.0,211.7143708846638 400.0,33.62289676124922 " stroke-opacity="0.25" stroke="green"/><polygon points="0.0,188.7242010324622 400.0,48.48557059063489 " stroke-opacity="0.25" stroke="green"/><polygon points="-5.684341886080802e-14,170.76561616015763 400.00000000000006,60.09542780832061 " stroke-opacity="0.25" stroke="green"/><polygon points="5.684341886080802e-14,156.3497380750567 399.99999999999994,69.41499766450099 " stroke-opacity="0.25" stroke="green"/><polygon points="0.0,144.5223743809936 400.0,77.06114599556886 " stroke-opacity="0.25" stroke="green"/><polygon points="5.684341886080802e-14,134.6437718263644 399.99999999999994,83.44746017260532 " stroke-opacity="0.25" stroke="green"/><polygon points="0.0,126.26895159808893 400.0,88.86160988236394 " stroke-opacity="0.25" stroke="green"/><polygon points="5.684341886080802e-14,119.0788276764936 399.99999999999994,93.50987769971988 " stroke-opacity="0.25" stroke="green"/><polygon points="0.0,112.8386260594632 400.0,97.54404020742517 " stroke-opacity="0.25" stroke="green"/><polygon points="0.0,107.37176311302379 400.0,101.0782551073252 " stroke-opacity="0.25" stroke="green"/><polygon points="0.0,102.54286890835061 400.0,104.20003628519657 " stroke-opacity="0.25" stroke="green"/><polygon points="345.5347651983041,0.0 2.2408493165847574,400.0 " stroke-opacity="0.25" stroke="green"/><polygon points="-5.684341886080802e-14,320.94614611046745 380.60501206968485,-5.684341886080802e-14 " stroke-opacity="0.25" stroke="green"/><polygon points="0.0,268.2988281653796 400.0,14.013885032511382 " stroke-opacity="0.25" stroke="green"/><polygon points="0.0,231.53627522695527 400.0,35.21977201578679 " stroke-opacity="0.25" stroke="green"/><polygon points="-5.684341886080802e-14,204.4117384884795 400.00000000000006,50.86612447431301 " stroke-opacity="0.25" stroke="green"/><polygon points="0.0,183.57428472555904 400.0,62.88587430659058 " stroke-opacity="0.25" stroke="green"/><polygon points="0.0,167.06504763458926 400.0,72.40896201264826 " stroke-opacity="0.25" stroke="green"/><polygon points="0.0,153.66236282520356 400.0,80.14008503384717 " stroke-opacity="0.25" stroke="green"/><polygon points="-5.684341886080802e-14,142.56479140395558 400.00000000000006,86.54154049701876 " stroke-opacity="0.25" stroke="green"/><polygon points="0.0,133.2247422095193 400.0,91.92919755030333 " stroke-opacity="0.25" stroke="green"/><polygon points="-5.684341886080802e-14,125.25534166826947 400.00000000000006,96.52621798806406 " stroke-opacity="0.25" stroke="green"/><polygon points="0.0,118.37550134097621 400.0,100.49474315245965 " stroke-opacity="0.25" stroke="green"/><polygon points="0.0,112.37607459764337 400.0,103.95541591086818 " stroke-opacity="0.25" stroke="green"/><polygon points="5.684341886080802e-14,107.09822473964203 399.99999999999994,106.99985865647773 " stroke-opacity="0.25" stroke="green"/><polygon points="0.0,102.41915563833084 400.0,109.69890435973821 " stroke-opacity="0.25" stroke="green"/><polygon points="0.0,365.0942002036777 380.13498673058916,0.0 " stroke-opacity="0.25" stroke="green"/><polygon points="-5.684341886080802e-14,298.2041598400205 400.00000000000006,15.037610265836776 " stroke-opacity="0.25" stroke="green"/><polygon points="-5.684341886080802e-14,253.28067902444567 400.00000000000006,37.95040198176315 " stroke-opacity="0.25" stroke="green"/><polygon points="-5.684341886080802e-14,221.02924448476537 400.00000000000006,54.399937697422274 " stroke-opacity="0.25" stroke="green"/><polygon points="-5.684341886080802e-14,196.75080303767098 400.00000000000006,66.78292454450835 " stroke-opacity="0.25" stroke="green"/><polygon points="0.0,177.81405302150267 400.0,76.44143276826559 " stroke-opacity="0.25" stroke="green"/><polygon points="-5.684341886080802e-14,162.63080767804786 400.00000000000006,84.18550183438688 " stroke-opacity="0.25" stroke="green"/><polygon points="0.0,150.18570709170064 400.0,90.53300635633983 " stroke-opacity="0.25" stroke="green"/><polygon points="0.0,139.7993204265388 400.0,95.83048353351842 " stroke-opacity="0.25" stroke="green"/><polygon points="0.0,130.99983243569426 400.0,100.31857821987487 " stroke-opacity="0.25" stroke="green"/><polygon points="0.0,123.4493695490143 400.0,104.16961959824798 " stroke-opacity="0.25" stroke="green"/><polygon points="0.0,116.89961943294269 400.0,107.51025699936591 " stroke-opacity="0.25" stroke="green"/><polygon points="0.0,111.16399994929687 400.0,110.43565485822958 " stroke-opacity="0.25" stroke="green"/><polygon points="0.0,106.09959900853549 400.0,113.01870411921595 " stroke-opacity="0.25" stroke="green"/><polygon points="0.0,101.59510446517217 400.0,115.31617847747688 " stroke-opacity="0.25" stroke="green"/><polygon points="0.0,334.1355332846919 400.0,16.98985751735154 " stroke-opacity="0.25" stroke="green"/><polygon points="-5.684341886080802e-14,278.0404504893726 400.00000000000006,41.92549409599201 " stroke-opacity="0.25" stroke="green"/><polygon points="0.0,239.15818297638845 400.0,59.209613197749576 " stroke-opacity="0.25" stroke="green"/><polygon points="-5.684341886080802e-14,210.61993202228595 400.00000000000006,71.89556388932999 " stroke-opacity="0.25" stroke="green"/><polygon points="-5.684341886080802e-14,188.7825094241342 400.00000000000006,81.60283245168493 " stroke-opacity="0.25" stroke="green"/><polygon points="0.0,171.5338276829767 400.0,89.2702934469297 " stroke-opacity="0.25" stroke="green"/><polygon points="-5.684341886080802e-14,157.56504025168397 400.00000000000006,95.47976118409218 " stroke-opacity="0.25" stroke="green"/><polygon points="-5.684341886080802e-14,146.02184689943488 400.00000000000006,100.6109930148558 " stroke-opacity="0.25" stroke="green"/><polygon points="0.0,136.3229341295122 400.0,104.92239700941249 " stroke-opacity="0.25" stroke="green"/><polygon points="-5.684341886080802e-14,128.05900232383345 400.00000000000006,108.5959168608578 " stroke-opacity="0.25" stroke="green"/><polygon points="0.0,120.93352345090098 400.0,111.76336653327454 " stroke-opacity="0.25" stroke="green"/><polygon points="0.0,114.72640492771782 400.0,114.52258256401653 " stroke-opacity="0.25" stroke="green"/><polygon points="-5.684341886080802e-14,109.27085236181172 400.00000000000006,116.94770914089456 " stroke-opacity="0.25" stroke="green"/><polygon points="0.0,104.4381569942909 400.0,119.09596045588921 " stroke-opacity="0.25" stroke="green"/><polygon points="0.0,100.1274121952027 400.0,121.0121919745331 " stroke-opacity="0.25" stroke="green"/><polygon points="0.0,307.6389155260422 400.0,47.36218351119291 " stroke-opacity="0.25" stroke="green"/><polygon points="5.684341886080802e-14,259.7247301860627 399.99999999999994,65.51340184948765 " stroke-opacity="0.25" stroke="green"/><polygon points="0.0,225.68475272226232 400.0,78.40868659224056 " stroke-opacity="0.25" stroke="green"/><polygon points="0.0,200.25492334520985 400.0,88.0422091503987 " stroke-opacity="0.25" stroke="green"/><polygon points="0.0,180.53520748087976 400.0,95.51258281287079 " stroke-opacity="0.25" stroke="green"/><polygon points="0.0,164.79648045606064 400.0,101.47484781993008 " stroke-opacity="0.25" stroke="green"/><polygon points="0.0,151.9437548017507 400.0,106.34381570362115 " stroke-opacity="0.25" stroke="green"/><polygon points="-5.684341886080802e-14,141.249891427127 400.00000000000006,110.39494685852624 " stroke-opacity="0.25" stroke="green"/><polygon points="0.0,132.21309943094786 400.0,113.81833355364628 " stroke-opacity="0.25" stroke="green"/><polygon points="0.0,124.47591607415458 400.0,116.7493925591595 " stroke-opacity="0.25" stroke="green"/><polygon points="0.0,117.77679707011275 400.0,119.28720408311173 " stroke-opacity="0.25" stroke="green"/><polygon points="0.0,111.9199667157553 400.0,121.50593337544908 " stroke-opacity="0.25" stroke="green"/><polygon points="0.0,106.75596772208506 400.0,123.46219899006306 " stroke-opacity="0.25" stroke="green"/><polygon points="0.0,102.16872812653604 400.0,125.19997219601603 " stroke-opacity="0.25" stroke="green"/><polygon points="0.0,98.06673243961245 400.0,126.75392159133149 " stroke-opacity="0.25" stroke="green"/><polygon points="0.0,284.26139540169254 400.0,73.70616806758703 " stroke-opacity="0.25" stroke="green"/><polygon points="-5.684341886080802e-14,242.73919488667806 400.00000000000006,86.63931249029643 " stroke-opacity="0.25" stroke="green"/><polygon points="0.0,212.66625570346105 400.0,96.00629354736408 " stroke-opacity="0.25" stroke="green"/><polygon points="0.0,189.88085160181373 400.0,103.10338662820502 " stroke-opacity="0.25" stroke="green"/><polygon points="5.684341886080802e-14,172.0202888584207 399.99999999999994,108.66651272860614 " stroke-opacity="0.25" stroke="green"/><polygon points="0.0,157.6436079481802 400.0,113.14449530720563 " stroke-opacity="0.25" stroke="green"/><polygon points="0.0,145.82204235958616 400.0,116.8266222938169 " stroke-opacity="0.25" stroke="green"/><polygon points="0.0,135.93001574052704 400.0,119.90774533909759 " stroke-opacity="0.25" stroke="green"/><polygon points="0.0,127.5307586085524 400.0,122.5239073965979 " stroke-opacity="0.25" stroke="green"/><polygon points="0.0,120.31007545096504 400.0,124.77297264240379 " stroke-opacity="0.25" stroke="green"/><polygon points="-5.684341886080802e-14,114.03616511153422 400.00000000000006,126.72714143665274 " stroke-opacity="0.25" stroke="green"/><polygon points="0.0,108.53427375652473 400.0,128.44084530132784 " stroke-opacity="0.25" stroke="green"/><polygon points="5.684341886080802e-14,103.67016253756293 399.99999999999994,129.95589633674217 " stroke-opacity="0.25" stroke="green"/><polygon points="0.0,99.33900957446427 400.0,131.30494398098602 " stroke-opacity="0.25" stroke="green"/><polygon points="0.0,95.45777047566142 400.0,132.5138545199574 " stroke-opacity="0.25" stroke="green"/><polygon points="0.0,263.091274693088 400.0,97.144911267952 " stroke-opacity="0.25" stroke="green"/><polygon points="-5.684341886080802e-14,226.6987793914709 400.00000000000006,105.90972148004629 " stroke-opacity="0.25" stroke="green"/><polygon points="0.0,199.94289576922017 400.0,112.35363910818131 " stroke-opacity="0.25" stroke="green"/><polygon points="5.684341886080802e-14,179.44352872673457 399.99999999999994,117.29073012396182 " stroke-opacity="0.25" stroke="green"/><polygon points="0.0,163.23589039284303 400.0,121.1941962865723 " stroke-opacity="0.25" stroke="green"/><polygon points="0.0,150.09992686400358 400.0,124.35787677424017 " stroke-opacity="0.25" stroke="green"/><polygon points="0.0,139.23800528788058 400.0,126.97387439584709 " stroke-opacity="0.25" stroke="green"/><polygon points="0.0,130.1066583748369 400.0,129.17307843531466 " stroke-opacity="0.25" stroke="green"/><polygon points="5.684341886080802e-14,122.32281688545596 399.99999999999994,131.04774772660718 " stroke-opacity="0.25" stroke="green"/><polygon points="0.0,115.60870125559228 400.0,132.6647830178145 " stroke-opacity="0.25" stroke="green"/><polygon points="0.0,109.75797284940845 400.0,134.0738791421034 " stroke-opacity="0.25" stroke="green"/><polygon points="0.0,104.61415446338569 400.0,135.312722248225 " stroke-opacity="0.25" stroke="green"/><polygon points="0.0,100.05642718960115 400.0,136.4104105002156 " stroke-opacity="0.25" stroke="green"/><polygon points="0.0,95.99002055131484 400.0,137.38976852813835 " stroke-opacity="0.25" stroke="green"/><polygon points="0.0,92.33955151032734 400.0,138.26895166917345 " stroke-opacity="0.25" stroke="green"/><polygon points="0.0,243.47574623322188 400.0,118.47239171911895 " stroke-opacity="0.25" stroke="green"/><polygon points="-5.684341886080802e-14,211.30319168630456 400.00000000000006,123.7802139041673 " stroke-opacity="0.25" stroke="green"/><polygon points="5.684341886080802e-14,187.37705757060579 399.99999999999994,127.72754314955097 " stroke-opacity="0.25" stroke="green"/><polygon points="5.684341886080802e-14,168.88695607476467 399.99999999999994,130.77803672413796 " stroke-opacity="0.25" stroke="green"/><polygon points="0.0,154.16926965954073 400.0,133.20615794632408 " stroke-opacity="0.25" stroke="green"/><polygon points="0.0,142.17637614405567 400.0,135.18474333256017 " stroke-opacity="0.25" stroke="green"/><polygon points="0.0,132.2156954829742 400.0,136.82805461248884 " stroke-opacity="0.25" stroke="green"/><polygon points="0.0,123.8110316846216 400.0,138.21465451402022 " stroke-opacity="0.25" stroke="green"/><polygon points="0.0,116.624188654076 400.0,139.4003385672514 " stroke-opacity="0.25" stroke="green"/><polygon points="-5.684341886080802e-14,110.40835740205407 400.00000000000006,140.42582527424835 " stroke-opacity="0.25" stroke="green"/><polygon points="0.0,104.97920118555442 400.0,141.3215264772724 " stroke-opacity="0.25" stroke="green"/><polygon points="0.0,100.19626566763907 400.0,142.11061430723083 " stroke-opacity="0.25" stroke="green"/><polygon points="0.0,95.95065433251662 400.0,142.81105449145036 " stroke-opacity="0.25" stroke="green"/><polygon points="0.0,92.15663669458331 400.0,143.4369908298198 " stroke-opacity="0.25" stroke="green"/><polygon points="0.0,88.7457991157988 400.0,143.99971019187316 " stroke-opacity="0.25" stroke="green"/><polygon points="-5.684341886080802e-14,224.92203724021786 400.00000000000006,138.27678491144277 " stroke-opacity="0.25" stroke="green"/><polygon points="0.0,196.30639294995828 400.0,140.6058735957457 " stroke-opacity="0.25" stroke="green"/><polygon points="5.684341886080802e-14,174.84465973226358 399.99999999999994,142.3526901089729 " stroke-opacity="0.25" stroke="green"/><polygon points="5.684341886080802e-14,158.1522005629455 399.99999999999994,143.71132517481624 " stroke-opacity="0.25" stroke="green"/><polygon points="0.0,144.79823322749098 400.0,144.79823322749098 " stroke-opacity="0.25" stroke="green"/><polygon points="0.0,133.87225995302825 400.0,145.68752163422477 " stroke-opacity="0.25" stroke="green"/><polygon points="0.0,124.7672822243093 400.0,146.42859530650298 " stroke-opacity="0.25" stroke="green"/><polygon points="0.0,117.06307030000863 400.0,147.05565764458453 " stroke-opacity="0.25" stroke="green"/><polygon points="0.0,110.4594600791795 400.0,147.59313964865444 " stroke-opacity="0.25" stroke="green"/><polygon points="-5.684341886080802e-14,104.73633122112757 400.00000000000006,148.05895738551501 " stroke-opacity="0.25" stroke="green"/><polygon points="0.0,99.72859347033214 400.0,148.46654790526804 " stroke-opacity="0.25" stroke="green"/><polygon points="0.0,95.31000133727736 400.0,148.82618659916773 " stroke-opacity="0.25" stroke="green"/><polygon points="0.0,91.38236388567312 400.0,149.1458654381897 " stroke-opacity="0.25" stroke="green"/><polygon points="-5.684341886080802e-14,87.8681619552903 400.00000000000006,149.4318938731041 " stroke-opacity="0.25" stroke="green"/><polygon points="5.684341886080802e-14,84.70538021794587 399.99999999999994,149.68931946452705 " stroke-opacity="0.25" stroke="green"/><polygon points="-5.684341886080802e-14,207.03692877287688 400.00000000000006,157.01521320467293 " stroke-opacity="0.25" stroke="green"/><polygon points="-5.684341886080802e-14,181.495971829608 400.00000000000006,156.6743195902839 " stroke-opacity="0.25" stroke="green"/><polygon points="0.0,162.2285643491803 400.0,156.4171586628175 " stroke-opacity="0.25" stroke="green"/><polygon points="5.684341886080802e-14,147.17610089641641 399.99999999999994,156.21625433948816 " stroke-opacity="0.25" stroke="green"/><polygon points="0.0,135.0918549229087 400.0,156.05496663612507 " stroke-opacity="0.25" stroke="green"/><polygon points="0.0,125.17666005049307 400.0,155.9226291272002 " stroke-opacity="0.25" stroke="green"/><polygon points="0.0,116.89461404972977 400.0,155.8120891579262 " stroke-opacity="0.25" stroke="green"/><polygon points="-5.684341886080802e-14,109.87292071707044 400.00000000000006,155.7183710398221 " stroke-opacity="0.25" stroke="green"/><polygon points="0.0,103.84422437146496 400.0,155.63790639271147 " stroke-opacity="0.25" stroke="green"/><polygon points="0.0,98.6117935968173 400.0,155.5680694542298 " stroke-opacity="0.25" stroke="green"/><polygon points="0.0,94.02764588576011 400.0,155.5068851107619 " stroke-opacity="0.25" stroke="green"/><polygon points="0.0,89.97832885055497 400.0,155.45283912012013 " stroke-opacity="0.25" stroke="green"/><polygon points="0.0,86.37540382238184 400.0,155.404751096717 " stroke-opacity="0.25" stroke="green"/><polygon points="0.0,83.14891227022999 400.0,155.3616873082516 " stroke-opacity="0.25" stroke="green"/><polygon points="0.0,80.24278843451735 400.0,155.32289944840676 " stroke-opacity="0.25" stroke="green"/><polygon points="0.0,189.4870953764965 400.0,175.06188489293166 " stroke-opacity="0.25" stroke="green"/><polygon points="-5.684341886080802e-14,166.6781700398752 400.00000000000006,172.22845500225745 " stroke-opacity="0.25" stroke="green"/><polygon points="0.0,149.41312142141066 400.0,170.08371104358625 " stroke-opacity="0.25" stroke="green"/><polygon points="-5.684341886080802e-14,135.8897486983476 400.00000000000006,168.40377531970827 " stroke-opacity="0.25" stroke="green"/><polygon points="0.0,125.01062648165424 400.0,167.0523205879246 " stroke-opacity="0.25" stroke="green"/><polygon points="0.0,116.06927182765057 400.0,165.94158427896332 " stroke-opacity="0.25" stroke="green"/><polygon points="0.0,108.5902954859048 400.0,165.0125113478365 " stroke-opacity="0.25" stroke="green"/><polygon points="0.0,102.24205507203379 400.0,164.2239036481581 " stroke-opacity="0.25" stroke="green"/><polygon points="-5.684341886080802e-14,96.78614139630088 400.00000000000006,163.54614489093427 " stroke-opacity="0.25" stroke="green"/><polygon points="0.0,92.04676706814901 400.0,162.95739795585098 " stroke-opacity="0.25" stroke="green"/><polygon points="5.684341886080802e-14,87.89147273625572 399.99999999999994,162.44120813143905 " stroke-opacity="0.25" stroke="green"/><polygon points="-5.684341886080802e-14,84.21855257202888 400.00000000000006,161.9849410506454 " stroke-opacity="0.25" stroke="green"/><polygon points="0.0,80.9486187142578 400.0,161.5787347872464 " stroke-opacity="0.25" stroke="green"/><polygon points="0.0,78.01879791612363 400.0,161.21477893657666 " stroke-opacity="0.25" stroke="green"/><polygon points="5.684341886080802e-14,75.37864953086482 399.99999999999994,160.88680752888405 " stroke-opacity="0.25" stroke="green"/><polygon points="0.0,171.97079234279678 400.0,192.7413559244934 " stroke-opacity="0.25" stroke="green"/><polygon points="0.0,151.66599037501146 400.0,187.4830791900841 " stroke-opacity="0.25" stroke="green"/><polygon points="-5.684341886080802e-14,136.27920631154748 400.00000000000006,183.49840754508816 " stroke-opacity="0.25" stroke="green"/><polygon points="-5.684341886080802e-14,124.21666702327344 400.00000000000006,180.3746061015645 " stroke-opacity="0.25" stroke="green"/><polygon points="0.0,114.50611631090466 400.0,177.8598924407191 " stroke-opacity="0.25" stroke="green"/><polygon points="0.0,106.52076455729775 400.0,175.7919486405932 " stroke-opacity="0.25" stroke="green"/><polygon points="0.0,99.83836606556915 400.0,174.06142693568535 " stroke-opacity="0.25" stroke="green"/><polygon points="-5.684341886080802e-14,94.16407524071835 400.00000000000006,172.59197200202368 " stroke-opacity="0.25" stroke="green"/><polygon points="0.0,89.28576772248375 400.0,171.32865059819397 " stroke-opacity="0.25" stroke="green"/><polygon points="0.0,85.04693166543721 400.0,170.2309312973554 " stroke-opacity="0.25" stroke="green"/><polygon points="0.0,81.32956389123865 400.0,169.26825515250437 " stroke-opacity="0.25" stroke="green"/><polygon points="0.0,78.04301268493907 400.0,168.41714634721052 " stroke-opacity="0.25" stroke="green"/><polygon points="-5.684341886080802e-14,75.11648724415161 400.00000000000006,167.6592723890028 " stroke-opacity="0.25" stroke="green"/><polygon points="0.0,72.49390095897836 400.0,166.98010868825918 " stroke-opacity="0.25" stroke="green"/><polygon points="-5.684341886080802e-14,70.13024205755144 400.00000000000006,166.36799867461949 " stroke-opacity="0.25" stroke="green"/><polygon points="0.0,154.1952800078495 400.0,210.3537002615787 " stroke-opacity="0.25" stroke="green"/><polygon points="-5.684341886080802e-14,136.26866241996842 400.00000000000006,202.63796262216422 " stroke-opacity="0.25" stroke="green"/><polygon points="0.0,122.69924081629216 400.0,196.79759164870478 " stroke-opacity="0.25" stroke="green"/><polygon points="-5.684341886080802e-14,112.0705799860733 400.00000000000006,192.22294403198262 " stroke-opacity="0.25" stroke="green"/><polygon points="-5.684341886080802e-14,103.52016120078507 400.00000000000006,188.54278586879377 " stroke-opacity="0.25" stroke="green"/><polygon points="0.0,96.49272596504468 400.0,185.5181301415692 " stroke-opacity="0.25" stroke="green"/><polygon points="0.0,90.61464329132822 400.0,182.98816354241305 " stroke-opacity="0.25" stroke="green"/><polygon points="5.684341886080802e-14,85.62525968048887 399.99999999999994,180.84069903970308 " stroke-opacity="0.25" stroke="green"/><polygon points="-5.684341886080802e-14,81.33719802857402 400.00000000000006,178.99508825866116 " stroke-opacity="0.25" stroke="green"/><polygon points="0.0,77.6122986774332 400.0,177.3918663465668 " stroke-opacity="0.25" stroke="green"/><polygon points="5.684341886080802e-14,74.346455532542 399.99999999999994,175.9862253351528 " stroke-opacity="0.25" stroke="green"/><polygon points="-5.684341886080802e-14,71.4597331533339 400.00000000000006,174.74376046934043 " stroke-opacity="0.25" stroke="green"/><polygon points="0.0,68.88973684965839 400.0,173.6376166518458 " stroke-opacity="0.25" stroke="green"/><polygon points="0.0,66.5870515510729 400.0,172.64652530162738 " stroke-opacity="0.25" stroke="green"/><polygon points="5.684341886080802e-14,64.51203355792762 399.99999999999994,171.75342350182123 " stroke-opacity="0.25" stroke="green"/><polygon points="0.0,135.85616741359718 400.0,228.19597456395263 " stroke-opacity="0.25" stroke="green"/><polygon points="0.0,120.28111824075285 400.0,217.88917317913905 " stroke-opacity="0.25" stroke="green"/><polygon points="0.0,108.53172217828556 400.0,210.11400083371228 " stroke-opacity="0.25" stroke="green"/><polygon points="0.0,99.35262763731045 400.0,204.03972759859414 " stroke-opacity="0.25" stroke="green"/><polygon points="5.684341886080802e-14,91.98357229329245 399.99999999999994,199.16324926574134 " stroke-opacity="0.25" stroke="green"/><polygon points="0.0,85.93721905604986 400.0,195.1620701216434 " stroke-opacity="0.25" stroke="green"/><polygon points="0.0,80.88677110297726 400.0,191.8199321046787 " stroke-opacity="0.25" stroke="green"/><polygon points="-5.684341886080802e-14,76.60489477486169 400.00000000000006,188.98639698203084 " stroke-opacity="0.25" stroke="green"/><polygon points="-5.684341886080802e-14,72.92855475990004 400.00000000000006,186.5535760042764 " stroke-opacity="0.25" stroke="green"/><polygon points="0.0,69.73778290316585 400.0,184.44208014788123 " stroke-opacity="0.25" stroke="green"/><polygon points="0.0,66.94233846567334 400.0,182.5921925308487 " stroke-opacity="0.25" stroke="green"/><polygon points="0.0,64.47303741012388 400.0,180.9581305605512 " stroke-opacity="0.25" stroke="green"/><polygon points="0.0,62.27594923506018 400.0,179.50420568403865 " stroke-opacity="0.25" stroke="green"/><polygon points="0.0,60.308412752689776 400.0,178.20218682579176 " stroke-opacity="0.25" stroke="green"/><polygon points="0.0,58.53623868168157 400.0,177.02944920124256 " stroke-opacity="0.25" stroke="green"/><polygon points="-5.684341886080802e-14,116.61547182924909 400.00000000000006,246.58335032241155 " stroke-opacity="0.25" stroke="green"/><polygon points="0.0,103.47219402627076 400.0,233.44007251943322 " stroke-opacity="0.25" stroke="green"/><polygon points="5.684341886080802e-14,93.61473567403702 399.99999999999994,223.58261416719944 " stroke-opacity="0.25" stroke="green"/><polygon points="0.0,85.94782362229965 400.0,215.9157021154621 " stroke-opacity="0.25" stroke="green"/><polygon points="0.0,79.81429398090974 400.0,209.7821724740722 " stroke-opacity="0.25" stroke="green"/><polygon points="0.0,74.7959515470453 400.0,204.76383004020775 " stroke-opacity="0.25" stroke="green"/><polygon points="0.0,70.6139995188249 400.0,200.58187801198736 " stroke-opacity="0.25" stroke="green"/><polygon points="0.0,67.07542472571535 400.0,197.0433032188778 " stroke-opacity="0.25" stroke="green"/><polygon points="0.0,64.04236061733576 400.0,194.0102391104982 " stroke-opacity="0.25" stroke="green"/><polygon points="0.0,61.4137050567401 400.0,191.38158354990253 " stroke-opacity="0.25" stroke="green"/><polygon points="0.0,59.11363144121887 400.0,189.0815099343813 " stroke-opacity="0.25" stroke="green"/><polygon points="0.0,57.08415472164134 400.0,187.05203321480377 " stroke-opacity="0.25" stroke="green"/><polygon points="0.0,55.28017541535016 400.0,185.24805390851265 " stroke-opacity="0.25" stroke="green"/><polygon points="0.0,53.66608866761604 400.0,183.63396716077844 " stroke-opacity="0.25" stroke="green"/><polygon points="5.684341886080802e-14,52.213410594655244 399.99999999999994,182.18128908781767 " stroke-opacity="0.25" stroke="green"/><polygon points="0.0,96.07492116609488 400.0,265.87321678624596 " stroke-opacity="0.25" stroke="green"/><polygon points="0.0,85.57005982894866 400.0,249.51334576152323 " stroke-opacity="0.25" stroke="green"/><polygon points="0.0,77.75778863199263 400.0,237.34681208816414 " stroke-opacity="0.25" stroke="green"/><polygon points="0.0,71.72047033200136 400.0,227.9445224669013 " stroke-opacity="0.25" stroke="green"/><polygon points="0.0,66.91490679584936 400.0,220.4605208100155 " stroke-opacity="0.25" stroke="green"/><polygon points="-5.684341886080802e-14,62.999032374761384 400.00000000000006,214.36208710185448 " stroke-opacity="0.25" stroke="green"/><polygon points="-5.684341886080802e-14,59.746708440842326 400.00000000000006,209.29704165462076 " stroke-opacity="0.25" stroke="green"/><polygon points="0.0,57.00244927241749 400.0,205.02323692622437 " stroke-opacity="0.25" stroke="green"/><polygon points="0.0,54.65582835434208 400.0,201.3686988669853 " stroke-opacity="0.25" stroke="green"/><polygon points="-5.684341886080802e-14,52.62625854500757 400.00000000000006,198.20792413129487 " stroke-opacity="0.25" stroke="green"/><polygon points="5.684341886080802e-14,50.85355090536828 399.99999999999994,195.4471767574586 " stroke-opacity="0.25" stroke="green"/><polygon points="0.0,49.29184481432904 400.0,193.01503516054092 " stroke-opacity="0.25" stroke="green"/><polygon points="0.0,47.905583791697524 400.0,190.85612503226952 " stroke-opacity="0.25" stroke="green"/><polygon points="0.0,46.6667754422065 400.0,188.9268520821966 " stroke-opacity="0.25" stroke="green"/><polygon points="5.684341886080802e-14,45.55308160243365 399.99999999999994,187.19242770523837 " stroke-opacity="0.25" stroke="green"/><polygon points="-5.684341886080802e-14,73.73977926946893 400.00000000000006,286.49640669157105 " stroke-opacity="0.25" stroke="green"/><polygon points="0.0,66.24282908555969 400.0,266.3656717859576 " stroke-opacity="0.25" stroke="green"/><polygon points="0.0,60.731046368270285 400.0,251.56548850913126 " stroke-opacity="0.25" stroke="green"/><polygon points="0.0,56.508122596611315 400.0,240.2261362540851 " stroke-opacity="0.25" stroke="green"/><polygon points="0.0,53.16930627800059 400.0,231.2607804014148 " stroke-opacity="0.25" stroke="green"/><polygon points="0.0,50.46326308483205 400.0,223.99454055341178 " stroke-opacity="0.25" stroke="green"/><polygon points="-5.684341886080802e-14,48.22567854211712 400.00000000000006,217.98620114161056 " stroke-opacity="0.25" stroke="green"/><polygon points="0.0,46.34459695230811 400.0,212.93513985784347 " stroke-opacity="0.25" stroke="green"/><polygon points="0.0,44.74110503998679 400.0,208.6294595720764 " stroke-opacity="0.25" stroke="green"/><polygon points="5.684341886080802e-14,43.35797948102416 399.99999999999994,204.91550479238268 " stroke-opacity="0.25" stroke="green"/><polygon points="0.0,42.15271397127512 400.0,201.67913802023676 " stroke-opacity="0.25" stroke="green"/><polygon points="0.0,41.09307379338992 400.0,198.83380291822075 " stroke-opacity="0.25" stroke="green"/><polygon points="0.0,40.15416993312377 400.0,196.31266775669295 " stroke-opacity="0.25" stroke="green"/><polygon points="0.0,39.316479421877204 400.0,194.063309657576 " stroke-opacity="0.25" stroke="green"/><polygon points="0.0,38.56447315461335 400.0,192.04403002488746 " stroke-opacity="0.25" stroke="green"/><polygon points="0.0,48.965716252389115 400.0,309.0018472168905 " stroke-opacity="0.25" stroke="green"/><polygon points="0.0,45.07123365479208 400.0,284.30727372218246 " stroke-opacity="0.25" stroke="green"/><polygon points="-5.684341886080802e-14,42.25060910081925 400.00000000000006,266.42194015000587 " stroke-opacity="0.25" stroke="green"/><polygon points="-5.684341886080802e-14,40.11350271790985 400.00000000000006,252.8707355121089 " stroke-opacity="0.25" stroke="green"/><polygon points="0.0,38.438310894627705 400.0,242.24849069239914 " stroke-opacity="0.25" stroke="green"/><polygon points="-5.684341886080802e-14,37.08988203195477 400.00000000000006,233.69822122343103 " stroke-opacity="0.25" stroke="green"/><polygon points="0.0,35.98110453726295 400.0,226.6675601161401 " stroke-opacity="0.25" stroke="green"/><polygon points="0.0,35.05330386569298 400.0,220.78445721393166 " stroke-opacity="0.25" stroke="green"/><polygon points="0.0,34.26551419348161 400.0,215.78915181166866 " stroke-opacity="0.25" stroke="green"/><polygon points="0.0,33.58826625018398 400.0,211.49478184318485 " stroke-opacity="0.25" stroke="green"/><polygon points="-5.684341886080802e-14,32.99981876106398 400.00000000000006,207.76348778712298 " stroke-opacity="0.25" stroke="green"/><polygon points="0.0,32.483781078325904 400.0,204.49133797952663 " stroke-opacity="0.25" stroke="green"/><polygon points="5.684341886080802e-14,32.027562567262834 399.99999999999994,201.59849630704227 " stroke-opacity="0.25" stroke="green"/><polygon points="0.0,31.62133169237893 400.0,199.02262186307135 " stroke-opacity="0.25" stroke="green"/><polygon points="0.0,31.25729948936663 400.0,196.7143255062522 " stroke-opacity="0.25" stroke="green"/><polygon points="5.684341886080802e-14,20.875659462260785 399.99999999999994,334.1254395749744 " stroke-opacity="0.25" stroke="green"/><polygon points="0.0,21.508282359524287 400.0,303.7298496760261 " stroke-opacity="0.25" stroke="green"/><polygon points="5.684341886080802e-14,21.957720642010685 399.99999999999994,282.13571867249226 " stroke-opacity="0.25" stroke="green"/><polygon points="-5.684341886080802e-14,22.29347699940837 400.00000000000006,266.0036554962002 " stroke-opacity="0.25" stroke="green"/><polygon points="-5.684341886080802e-14,22.55384130895024 400.00000000000006,253.49394898480037 " stroke-opacity="0.25" stroke="green"/><polygon points="0.0,22.76164363344003 400.0,243.50968464255072 " stroke-opacity="0.25" stroke="green"/><polygon points="-5.684341886080802e-14,22.931341364570557 400.00000000000006,235.35622914080136 " stroke-opacity="0.25" stroke="green"/><polygon points="0.0,23.072535100475505 400.0,228.57230318517776 " stroke-opacity="0.25" stroke="green"/><polygon points="0.0,23.19185011113524 400.0,222.83958287345897 " stroke-opacity="0.25" stroke="green"/><polygon points="0.0,23.294006065934525 400.0,217.93130256737962 " stroke-opacity="0.25" stroke="green"/><polygon points="0.0,23.382456199091905 400.0,213.6815449541326 " stroke-opacity="0.25" stroke="green"/><polygon points="0.0,23.45978538587167 400.0,209.96611470533276 " stroke-opacity="0.25" stroke="green"/><polygon points="-5.684341886080802e-14,23.527966948005286 400.00000000000006,206.69019976414285 " stroke-opacity="0.25" stroke="green"/><polygon points="0.0,23.588533412462283 400.0,203.78016691008983 " stroke-opacity="0.25" stroke="green"/><polygon points="0.0,23.642693080994917 400.0,201.17796094994907 " stroke-opacity="0.25" stroke="green"/><polygon points="12.573806166280718,5.684341886080802e-14 400.00000000000006,362.9033139239348 " stroke-opacity="0.25" stroke="green"/><polygon points="6.2759410242990725,0.0 400.00000000000006,325.1487995405506 " stroke-opacity="0.25" stroke="green"/><polygon points="0.8164310948054947,-5.684341886080802e-14 400.0,298.9792842296642 " stroke-opacity="0.25" stroke="green"/><polygon points="-5.684341886080802e-14,2.743738481666128 400.00000000000006,279.7717574299499 " stroke-opacity="0.25" stroke="green"/><polygon points="-5.684341886080802e-14,5.311152298407649 400.00000000000006,265.0741895774116 " stroke-opacity="0.25" stroke="green"/><polygon points="5.684341886080802e-14,7.339070365376443 399.99999999999994,253.46505076453002 " stroke-opacity="0.25" stroke="green"/><polygon points="0.0,8.981373054397153 400.0,244.06342838137914 " stroke-opacity="0.25" stroke="green"/><polygon points="0.0,10.338499975794491 400.0,236.29433993849628 " stroke-opacity="0.25" stroke="green"/><polygon points="5.684341886080802e-14,11.478795839051656 399.99999999999994,229.7665352998731 " stroke-opacity="0.25" stroke="green"/><polygon points="-5.684341886080802e-14,12.450381776134918 400.00000000000006,224.20453740855635 " stroke-opacity="0.25" stroke="green"/><polygon points="0.0,13.28812042532951 400.0,219.4087695588461 " stroke-opacity="0.25" stroke="green"/><polygon points="-5.684341886080802e-14,14.0178879510961 400.00000000000006,215.2310995406383 " stroke-opacity="0.25" stroke="green"/><polygon points="-5.684341886080802e-14,14.65929427882142 400.00000000000006,211.55926722388492 " stroke-opacity="0.25" stroke="green"/><polygon points="-5.684341886080802e-14,15.227471626807812 400.00000000000006,208.30664582337235 " stroke-opacity="0.25" stroke="green"/><polygon points="0.0,15.734283532282518 400.0,205.40532063745331 " stroke-opacity="0.25" stroke="green"/><polygon points="45.43390100457941,5.684341886080802e-14 400.0,396.8698672983363 " stroke-opacity="0.25" stroke="green"/><polygon points="37.40327767469782,0.0 400.0,349.2703835336941 " stroke-opacity="0.25" stroke="green"/><polygon points="30.370856770018236,-5.684341886080802e-14 400.00000000000006,317.30247793658555 " stroke-opacity="0.25" stroke="green"/><polygon points="24.16141432931255,5.684341886080802e-14 400.00000000000006,294.3521010731263 " stroke-opacity="0.25" stroke="green"/><polygon points="18.638470960756337,0.0 400.00000000000006,277.0753693921618 " stroke-opacity="0.25" stroke="green"/><polygon points="13.694144061810476,0.0 400.0,263.59982774127906 " stroke-opacity="0.25" stroke="green"/><polygon points="9.242030709369033,0.0 399.99999999999994,252.79530981467565 " stroke-opacity="0.25" stroke="green"/><polygon points="5.212115315911944,-5.684341886080802e-14 400.0,243.93927743543628 " stroke-opacity="0.25" stroke="green"/><polygon points="1.5470604376721724,0.0 400.0,236.54824222669873 " stroke-opacity="0.25" stroke="green"/><polygon points="0.0,1.0319539425317146 400.0,230.28645671303738 " stroke-opacity="0.25" stroke="green"/><polygon points="0.0,2.7055017677181468 400.0,224.91348737954414 " stroke-opacity="0.25" stroke="green"/><polygon points="0.0,4.1572432340067 400.0,220.25263319830188 " stroke-opacity="0.25" stroke="green"/><polygon points="0.0,5.4285339690272565 400.0,216.17112083849923 " stroke-opacity="0.25" stroke="green"/><polygon points="0.0,6.551050205115871 400.0,212.5672529226356 " stroke-opacity="0.25" stroke="green"/><polygon points="-5.684341886080802e-14,7.549464098376518 400.00000000000006,209.3618188442726 " stroke-opacity="0.25" stroke="green"/><polygon points="73.8536028237871,0.0 371.413368711927,400.0 " stroke-opacity="0.25" stroke="green"/><polygon points="64.51075349436351,-5.684341886080802e-14 400.0,377.1040851887583 " stroke-opacity="0.25" stroke="green"/><polygon points="56.266249785937475,0.0 400.0,337.57001224867486 " stroke-opacity="0.25" stroke="green"/><polygon points="48.937161997265775,5.684341886080802e-14 399.99999999999994,309.9641719882605 " stroke-opacity="0.25" stroke="green"/><polygon points="42.379046450451284,0.0 400.00000000000006,289.59573812039764 " stroke-opacity="0.25" stroke="green"/><polygon points="36.476330035816204,0.0 400.0,273.94841838783043 " stroke-opacity="0.25" stroke="green"/><polygon points="31.135440384203434,0.0 400.0,261.55125536387004 " stroke-opacity="0.25" stroke="green"/><polygon points="26.2798085574519,-5.684341886080802e-14 399.99999999999994,251.48687336819344 " stroke-opacity="0.25" stroke="green"/><polygon points="21.846174671882096,0.0 400.0,243.15345363951877 " stroke-opacity="0.25" stroke="green"/><polygon points="17.781816631839746,0.0 400.0,236.13979747374893 " stroke-opacity="0.25" stroke="green"/><polygon points="14.042443632533804,0.0 400.0,230.15539267244208 " stroke-opacity="0.25" stroke="green"/><polygon points="10.590575542412438,-5.684341886080802e-14 400.00000000000006,224.9891635095619 " stroke-opacity="0.25" stroke="green"/><polygon points="7.394282254998473,-5.684341886080802e-14 400.0,220.48405700599807 " stroke-opacity="0.25" stroke="green"/><polygon points="4.426193058249339,0.0 400.0,216.52079905863854 " stroke-opacity="0.25" stroke="green"/><polygon points="1.6627108730726263,0.0 400.00000000000006,213.0071792511515 " stroke-opacity="0.25" stroke="green"/><polygon points="99.12369445096907,0.0 343.9378211486471,400.0 " stroke-opacity="0.25" stroke="green"/><polygon points="88.70308161738545,-5.684341886080802e-14 392.2879200058088,400.00000000000006 " stroke-opacity="0.25" stroke="green"/><polygon points="79.45454390616887,-5.684341886080802e-14 400.00000000000006,360.42137794703217 " stroke-opacity="0.25" stroke="green"/><polygon points="71.19086358396731,0.0 400.0,326.88772941527276 " stroke-opacity="0.25" stroke="green"/><polygon points="63.76268009922467,0.0 400.00000000000006,302.7494426825243 " stroke-opacity="0.25" stroke="green"/><polygon points="57.049381686372044,0.0 400.0,284.5431478641607 " stroke-opacity="0.25" stroke="green"/><polygon points="50.95250599993071,-5.684341886080802e-14 399.99999999999994,270.32144820697124 " stroke-opacity="0.25" stroke="green"/><polygon points="45.390878835971165,0.0 400.0,258.9052765053167 " stroke-opacity="0.25" stroke="green"/><polygon points="40.29697934057543,-5.684341886080802e-14 400.00000000000006,249.53899205755295 " stroke-opacity="0.25" stroke="green"/><polygon points="35.614185260683456,0.0 400.0,241.71596370851285 " stroke-opacity="0.25" stroke="green"/><polygon points="31.294659294576633,0.0 399.99999999999994,235.08380539445943 " stroke-opacity="0.25" stroke="green"/><polygon points="27.29770897478022,0.0 400.00000000000006,229.38982763184634 " stroke-opacity="0.25" stroke="green"/><polygon points="23.588500769099028,0.0 400.0,224.44810901488688 " stroke-opacity="0.25" stroke="green"/><polygon points="20.137042249690808,-5.684341886080802e-14 399.99999999999994,220.11881005040215 " stroke-opacity="0.25" stroke="green"/><polygon points="16.917369322007886,5.684341886080802e-14 400.0,216.29472905830158 " stroke-opacity="0.25" stroke="green"/><polygon points="122.15541522980405,0.0 319.3113259956543,400.0 " stroke-opacity="0.25" stroke="green"/><polygon points="110.7739894668305,-5.684341886080802e-14 367.39002609243914,400.00000000000006 " stroke-opacity="0.25" stroke="green"/><polygon points="100.6304544193496,-5.684341886080802e-14 400.0,386.77107226121575 " stroke-opacity="0.25" stroke="green"/><polygon points="91.53326933315205,0.0 400.0,345.48978483470785 " stroke-opacity="0.25" stroke="green"/><polygon points="83.32847180015823,5.684341886080802e-14 400.00000000000006,316.67152819984165 " stroke-opacity="0.25" stroke="green"/><polygon points="75.89089301644213,-5.684341886080802e-14 400.00000000000006,295.41255660957347 " stroke-opacity="0.25" stroke="green"/><polygon points="69.11772731346005,0.0 400.0,279.0834311186214 " stroke-opacity="0.25" stroke="green"/><polygon points="62.923751343956326,0.0 400.00000000000006,266.1475122165797 " stroke-opacity="0.25" stroke="green"/><polygon points="57.23771943620213,0.0 400.00000000000006,255.64668183576063 " stroke-opacity="0.25" stroke="green"/><polygon points="51.99961082781272,0.0 400.0,246.95250832964288 " stroke-opacity="0.25" stroke="green"/><polygon points="47.15850280284161,-5.684341886080802e-14 400.0,239.63567344052575 " stroke-opacity="0.25" stroke="green"/><polygon points="42.67090976223312,0.0 400.00000000000006,233.39290101265948 " stroke-opacity="0.25" stroke="green"/><polygon points="38.499473338049484,0.0 400.0,228.00386449226536 " stroke-opacity="0.25" stroke="green"/><polygon points="34.611919936679016,0.0 400.00000000000006,223.30464237278406 " stroke-opacity="0.25" stroke="green"/><polygon points="30.980224108516694,0.0 399.99999999999994,219.17075386118574 " stroke-opacity="0.25" stroke="green"/><polygon points="143.62753741530963,0.0 296.758980810837,400.0 " stroke-opacity="0.25" stroke="green"/><polygon points="131.3214818372446,-5.684341886080802e-14 344.9205555130028,400.00000000000006 " stroke-opacity="0.25" stroke="green"/><polygon points="120.32272025556777,0.0 387.96584116013037,400.0 " stroke-opacity="0.25" stroke="green"/><polygon points="110.43344516857117,-5.684341886080802e-14 399.99999999999994,366.26693302104934 " stroke-opacity="0.25" stroke="green"/><polygon points="101.49384010063616,-5.684341886080802e-14 400.00000000000006,331.5246769378374 " stroke-opacity="0.25" stroke="green"/><polygon points="93.37337674734898,0.0 399.99999999999994,306.57855214322603 " stroke-opacity="0.25" stroke="green"/><polygon points="85.96439966067229,-5.684341886080802e-14 400.0,287.79724899939913 " stroke-opacity="0.25" stroke="green"/><polygon points="79.17732642392423,0.0 400.0,273.14685678936985 " stroke-opacity="0.25" stroke="green"/><polygon points="72.93700782304344,-5.684341886080802e-14 400.00000000000006,261.39952814403773 " stroke-opacity="0.25" stroke="green"/><polygon points="67.17993361257322,0.0 400.00000000000006,251.7701601715376 " stroke-opacity="0.25" stroke="green"/><polygon points="61.852063232392,0.0 400.0,243.73333714692615 " stroke-opacity="0.25" stroke="green"/><polygon points="56.90712426482506,5.684341886080802e-14 400.0,236.9241607086962 " stroke-opacity="0.25" stroke="green"/><polygon points="52.30526505077742,-5.684341886080802e-14 400.0,231.08130076328848 " stroke-opacity="0.25" stroke="green"/><polygon points="48.011978347810526,0.0 400.0,226.0126855796288 " stroke-opacity="0.25" stroke="green"/><polygon points="43.99723448319776,0.0 400.0,221.57398370065218 " stroke-opacity="0.25" stroke="green"/><polygon points="164.07550447561476,0.0 275.684974828337,400.0 " stroke-opacity="0.25" stroke="green"/><polygon points="150.81942329573377,0.0 324.30609715374123,400.0 " stroke-opacity="0.25" stroke="green"/><polygon points="138.9520167323647,-5.684341886080802e-14 367.83378971786084,400.00000000000006 " stroke-opacity="0.25" stroke="green"/><polygon points="128.26593431868997,0.0 400.00000000000006,389.9146029904826 " stroke-opacity="0.25" stroke="green"/><polygon points="118.59314919751627,0.0 400.0,347.50851988547015 " stroke-opacity="0.25" stroke="green"/><polygon points="109.7960580353732,0.0 400.0,318.05177118567 " stroke-opacity="0.25" stroke="green"/><polygon points="101.76089347791833,0.0 400.0,296.3986115675326 " stroke-opacity="0.25" stroke="green"/><polygon points="94.39277722280922,0.0 400.00000000000006,279.8107918463061 " stroke-opacity="0.25" stroke="green"/><polygon points="87.61195601601383,0.0 400.0,266.69702889891664 " stroke-opacity="0.25" stroke="green"/><polygon points="81.3509032115058,0.0 399.99999999999994,256.0693960809019 " stroke-opacity="0.25" stroke="green"/><polygon points="75.5520622486076,5.684341886080802e-14 400.00000000000006,247.28211951223219 " stroke-opacity="0.25" stroke="green"/><polygon points="70.16607209143797,0.0 400.00000000000006,239.89525722364863 " stroke-opacity="0.25" stroke="green"/><polygon points="65.15035866149421,-5.684341886080802e-14 400.00000000000006,233.59874383595036 " stroke-opacity="0.25" stroke="green"/><polygon points="60.46800712521605,0.0 400.00000000000006,228.1677580141934 " stroke-opacity="0.25" stroke="green"/><polygon points="56.086851804713405,-5.684341886080802e-14 400.00000000000006,223.43531199392604 " stroke-opacity="0.25" stroke="green"/></svg>
