<?xml version="1.0" encoding="UTF-8"?>
<!DOCTYPE svg PUBLIC "-//W3C//DTD SVG 1.1//EN"
    "http://www.w3.org/Graphics/SVG/1.1/DTD/svg11.dtd"><svg width="400" height="400" stroke="black" fill="none" fill-opacity="0.75" font-size="14" font-style="italic" font-family="sans-serif" xmlns="http://www.w3.org/2000/svg" xmlns:xlink="http://www.w3.org/1999/xlink" version="1.1"><filter id="blur1"><feGaussianBlur stdDeviation="0.5"/></filter><rect width="100%" height="100%" fill="white" stroke="none" fill-opacity="1"/><rect class="bg" fill="black" width="100%" height="100%" stroke="none" fill-opacity="1"/><polyline class="polyline" opacity="0.5" stroke="blue" points="201.57069265376714,133.64466547291605 203.725924140814,70.97517000095584 "/><polyline class="polyline" opacity="0.5" stroke="blue" points="201.24091871762147,133.17533085801557 203.7713143503541,69.67718115233544 "/><polyline class="polyline" opacity="0.5" stroke="blue" points="200.90881440382213,132.73205186853465 203.8161045623162,68.42609437857354 "/><polyline class="polyline" opacity="0.5" stroke="blue" points="200.57449582746972,132.31522328181802 203.86059841340636,67.22334333614134 "/><polyline class="polyline" opacity="0.5" stroke="blue" points="200.23808202493626,131.9252352563425 203.9051062444397,66.07037319149822 "/><polyline class="polyline" opacity="0.5" stroke="blue" points="199.89969497465387,131.56247291139533 203.9499450660463,64.96863916759602 "/><polyline class="polyline" opacity="0.5" stroke="blue" points="199.55945961472742,131.2273158922979 203.99543850459835,63.91960495494982 "/><polyline class="polyline" opacity="0.5" stroke="blue" points="199.2175038571715,130.92013792131783 204.0419167268968,62.924740982599246 "/><polyline class="polyline" opacity="0.5" stroke="blue" points="198.8739585985696,130.64130633446013 204.08971634213074,61.98552254453051 "/><polyline class="polyline" opacity="0.5" stroke="blue" points="198.52895772694976,130.39118160436823 204.13918027960483,61.10342777741951 "/><polyline class="polyline" opacity="0.5" stroke="blue" points="198.1826381246708,130.17011684961685 204.19065764071934,60.27993548590359 "/><polyline class="polyline" opacity="0.5" stroke="blue" points="197.8351396671106,129.97845733072427 204.24450352368552,59.5165228120012 "/><polyline class="polyline" opacity="0.5" stroke="blue" points="197.4866052169481,129.81653993326677 204.30107881946475,58.814662745765986 "/><polyline class="polyline" opacity="0.5" stroke="blue" points="197.1371806138296,129.68469263852762 204.36074997743768,58.175821474802774 "/><polyline class="polyline" opacity="0.5" stroke="blue" points="196.78701465921176,129.58323398217206 204.42388873933837,57.60145557087685 "/><polyline class="polyline" opacity="0.5" stroke="blue" points="196.43625909617418,129.51247250149345 204.49087184002713,57.09300901252803 "/><polyline class="polyline" opacity="0.5" stroke="blue" points="196.08506858399633,129.4727061718374 204.562080673732,56.651910043354235 "/><polyline class="polyline" opacity="0.5" stroke="blue" points="195.7336006672976,129.46422183287035 204.6379009244546,56.279567866457256 "/><polyline class="polyline" opacity="0.5" stroke="blue" points="195.38201573954154,129.4872946054213 204.71872215932157,55.97736917644886 "/><polyline class="polyline" opacity="0.5" stroke="blue" points="195.03047700071133,129.5421872996879 204.80493738376026,55.746674531401055 "/><polyline class="polyline" opacity="0.5" stroke="blue" points="194.67915040896824,129.62914981566507 204.89694255749657,55.58881456818375 "/><polyline class="polyline" opacity="0.5" stroke="blue" points="194.32820462611164,129.7484185367171 204.99513607050483,55.50508606576932 "/><polyline class="polyline" opacity="0.5" stroke="blue" points="193.977810956667,129.90021571728204 205.09991817819468,55.49674786229801 "/><polyline class="polyline" opacity="0.5" stroke="blue" points="193.62814328043683,130.08474886576374 205.21169039529173,55.565016632977205 "/><polyline class="polyline" opacity="0.5" stroke="blue" points="193.2793779783585,130.30221012373295 205.33085484805983,55.71106253723784 "/><polyline class="polyline" opacity="0.5" stroke="blue" points="192.93169385152555,130.55277564262627 205.45781358472595,55.93600474498223 "/><polyline class="polyline" opacity="0.5" stroke="blue" points="192.58527203323885,130.83660495919847 205.59296784419942,56.24090685321997 "/><polyline class="polyline" opacity="0.5" stroke="blue" points="192.24029589396875,131.15384037104775 205.73671728342808,56.62677220589978 "/><polyline class="polyline" opacity="0.5" stroke="blue" points="191.89695093912337,131.5046063136005 205.88945916400613,57.09453913129363 "/><polyline class="polyline" opacity="0.5" stroke="blue" points="191.5554246995326,131.8890087400025 206.05158749893567,57.64507611285788 "/><polyline class="polyline" opacity="0.5" stroke="blue" points="191.21590661457608,132.30713450542677 206.22349216075295,58.27917691108357 "/><polyline class="polyline" opacity="0.5" stroke="blue" points="190.87858790789883,132.75905075736682 206.40555795255102,58.9975556554314 "/><polyline class="polyline" opacity="0.5" stroke="blue" points="190.54366145567968,133.24480433353978 206.5981636437713,59.80084192701082 "/><polyline class="polyline" opacity="0.5" stroke="blue" points="190.21132164743585,133.76442116907816 206.80168097298488,60.689575854196505 "/><polyline class="polyline" opacity="0.5" stroke="blue" points="189.88176423936918,134.31790571473834 207.01647362024724,61.66420324485648 "/><polyline class="polyline" opacity="0.5" stroke="blue" points="189.55518620028246,134.9052403679002 207.2428961519784,62.725070780273455 "/><polyline class="polyline" opacity="0.5" stroke="blue" points="189.23178555011606,135.52638491817297 207.48129294169496,63.87242129715713 "/><polyline class="polyline" opacity="0.5" stroke="blue" points="188.9117611911811,136.181276009461 207.73199707029502,65.10638918535247 "/><polyline class="polyline" opacity="0.5" stroke="blue" points="188.59531273219022,136.86982662037266 207.99532920997157,66.42699592991326 "/><polyline class="polyline" opacity="0.5" stroke="blue" points="188.28264030521225,137.59192556488193 208.27159649619543,67.83414582712578 "/><polyline class="polyline" opacity="0.5" stroke="blue" points="187.97394437570577,138.34743701517306 208.56109139256577,69.3276219047981 "/><polyline class="polyline" opacity="0.5" stroke="blue" points="187.66942554581274,139.1362000486093 208.86409055366792,70.90708207766431 "/><polyline class="polyline" opacity="0.5" stroke="blue" points="187.36928435112205,139.9580282207757 209.18085369139902,72.57205556906123 "/><polyline class="polyline" opacity="0.5" stroke="blue" points="187.07372105114192,140.81270916654125 209.5116224505195,74.3219396301043 "/><polyline class="polyline" opacity="0.5" stroke="blue" points="186.78293541374885,141.70000423108013 209.8566192994545,76.1559965873983 "/><polyline class="polyline" opacity="0.5" stroke="blue" points="186.49712649390963,142.61964813277098 210.2160464426038,78.07335124984522 "/><polyline class="polyline" opacity="0.5" stroke="blue" points="186.2164924070035,143.57134865986995 210.59008476060956,80.07298870435737 "/><polyline class="polyline" opacity="0.5" stroke="blue" points="185.9412300970996,144.55478640281837 210.97889278518178,82.15375252921402 "/><polyline class="polyline" opacity="0.5" stroke="blue" points="185.671535100575,145.5696145240012 211.38260571518066,84.31434345243053 "/><polyline class="polyline" opacity="0.5" stroke="blue" points="185.40760130548674,146.6154585667217 211.8013344807018,86.55331848081507 "/><polyline class="polyline" opacity="0.5" stroke="blue" points="185.1496207071402,147.69191630509522 212.23516486190132,88.86909052338669 "/><polyline class="polyline" opacity="0.5" stroke="blue" points="184.89778316032317,148.79855763649232 212.68415666922772,91.259928530501 "/><polyline class="polyline" opacity="0.5" stroke="blue" points="184.65227612870189,149.93492451808433 213.14834299159506,93.72395816741259 "/><polyline class="polyline" opacity="0.5" stroke="blue" points="184.41328443190156,151.10053094894997 213.62772951883557,96.25916303807973 "/><polyline class="polyline" opacity="0.5" stroke="blue" points="184.18098999081764,152.29486299910513 214.12229394450753,98.86338647182518 "/><polyline class="polyline" opacity="0.5" stroke="blue" points="183.95557157172792,153.51737888670854 214.63198545480407,101.53433388201944 "/><polyline class="polyline" opacity="0.5" stroke="blue" points="183.7372045297963,154.7675091045768 215.15672430891655,104.26957570227776 "/><polyline class="polyline" opacity="0.5" stroke="blue" points="183.5260605525803,156.04465659701776 215.69640151574615,107.06655090179179 "/><polyline class="polyline" opacity="0.5" stroke="blue" points="183.32230740417089,157.34819698785427 216.25087861133744,109.92257107738564 "/><polyline class="polyline" opacity="0.5" stroke="blue" points="183.12610867060974,158.6774788603683 216.81998754083085,112.83482511573355 "/><polyline class="polyline" opacity="0.5" stroke="blue" points="182.93762350724322,160.03182408974433 217.40353064809628,115.80038441494474 "/><polyline class="polyline" opacity="0.5" stroke="blue" points="182.75700638868264,161.4105282284325 218.00128077553154,118.81620865045797 "/><polyline class="polyline" opacity="0.5" stroke="blue" points="182.58440686205017,162.81286094468896 218.61298147578486,121.87915206593611 "/><polyline class="polyline" opacity="0.5" stroke="blue" points="182.41996930419512,164.23806651437954 219.23834733640126,124.98597026566686 "/><polyline class="polyline" opacity="0.5" stroke="blue" points="182.26383268356923,165.68536436595815 219.8770644176073,128.13332748090195 "/><polyline class="polyline" opacity="0.5" stroke="blue" points="182.11613032745024,167.15394967835226 220.52879080264168,131.31780427865812 "/><polyline class="polyline" opacity="0.5" stroke="blue" points="181.9769896951998,168.64299403130394 221.1931572592225,134.53590567780475 "/><polyline class="polyline" opacity="0.5" stroke="blue" points="181.84653215823778,170.1516461075302 221.86976800992397,137.78406963382747 "/><polyline class="polyline" opacity="0.5" stroke="blue" points="181.72487278740525,171.679032445879 222.55820160842543,141.05867585052 "/><polyline class="polyline" opacity="0.5" stroke="blue" points="181.61212014837727,173.22425824446893 223.25801191780207,144.35605487406912 "/><polyline class="polyline" opacity="0.5" stroke="blue" points="181.50837610577264,174.78640821261428 223.9687291862612,147.67249742258687 "/><polyline class="polyline" opacity="0.5" stroke="blue" points="181.41373563658885,176.36454747014926 224.6898612149989,151.00426390215165 "/><polyline class="polyline" opacity="0.5" stroke="blue" points="181.32828665357036,177.95772249258306 225.4208946121642,154.34759405886192 "/><polyline class="polyline" opacity="0.5" stroke="blue" points="181.2521098390944,179.564962100336 226.16129612628882,157.69871671531251 "/><polyline class="polyline" opacity="0.5" stroke="blue" points="181.18527849013125,181.18527849013125 226.91051405196527,161.0538595392801 "/><polyline class="polyline" opacity="0.5" stroke="blue" points="181.1278583748066,182.81766830644676 227.66797970005274,164.4092587922658 "/><polyline class="polyline" opacity="0.5" stroke="blue" points="181.0799076010611,184.46111375076768 228.43310892425754,167.76116900588357 "/><polyline class="polyline" opacity="0.5" stroke="blue" points="181.04147649786663,186.1145837262231 229.20530369557744,171.10587253489817 "/><polyline class="polyline" opacity="0.5" stroke="blue" points="181.01260750942228,187.77703501504445 229.98395371582734,174.43968893700156 "/><polyline class="polyline" opacity="0.5" stroke="blue" points="180.99333510271168,189.4474134861426 230.76843806126942,177.75898413113427 "/><polyline class="polyline" opacity="0.5" stroke="blue" points="180.98368568876276,191.1246553299748 231.5581268472649,181.06017928830477 "/><polyline class="polyline" opacity="0.5" stroke="blue" points="180.98367755790616,192.807688317754 232.35238290484065,184.33975941138843 "/><polyline class="polyline" opacity="0.5" stroke="blue" points="180.99332082928322,194.4954330819498 233.1505634601233,187.59428156327138 "/><polyline class="polyline" opacity="0.5" stroke="blue" points="181.01261741480764,196.18680441493646 233.9520218077352,190.82038270590007 "/><polyline class="polyline" opacity="0.5" stroke="blue" points="181.04156099773627,197.88071258256522 234.75610896946247,194.01478711626427 "/><polyline class="polyline" opacity="0.5" stroke="blue" points="181.0801370259553,199.5760646493729 235.562175329798,197.17431334903208 "/><polyline class="polyline" opacity="0.5" stroke="blue" points="181.12832272003888,201.27176581208667 236.36957224031923,200.29588071942388 "/><polyline class="polyline" opacity="0.5" stroke="blue" points="181.1860870960856,202.9667207380487 237.1776535852826,203.37651528390904 "/><polyline class="polyline" opacity="0.5" stroke="blue" points="181.25339100328938,204.65983490516274 237.98577730129048,206.41335530038745 "/><polyline class="polyline" opacity="0.5" stroke="blue" points="181.33018717614965,206.35001593995676 238.79330684441132,209.40365615362902 "/><polyline class="polyline" opacity="0.5" stroke="blue" points="181.41642030117643,208.03617495036426 239.59961259869763,212.3447947358405 "/><polyline class="polyline" opacity="0.5" stroke="blue" points="181.51202709789683,209.7172278498495 240.40407322064294,215.23427327626905 "/><polyline class="polyline" opacity="0.5" stroke="blue" points="181.61693641392074,211.3920966695389 241.20607691474237,218.0697226176918 "/><polyline class="polyline" opacity="0.5" stroke="blue" points="181.7310693337769,213.05971085507403 242.00502263595948,220.84890494144244 "/><polyline class="polyline" opacity="0.5" stroke="blue" points="181.85433930118435,214.7190085449662 242.80032121555178,223.5697159462561 "/><polyline class="polyline" opacity="0.5" stroke="blue" points="181.9866522543813,216.36893782731372 243.5913964073584,226.2301864896392 "/><polyline class="polyline" opacity="0.5" stroke="blue" points="182.12790677409046,218.00845797183544 244.3776858522996,228.82848370366878 "/><polyline class="polyline" opacity="0.5" stroke="blue" points="182.2779942436607,219.63654063427992 245.15864195947233,231.36291160006996 "/><polyline class="polyline" opacity="0.5" stroke="blue" points="182.4367990208876,221.2521710303869 245.9337327028446,233.83191118209677 "/><polyline class="polyline" opacity="0.5" stroke="blue" points="182.60419862097993,222.85434907670705 246.70244233314446,236.23406008313526 "/><polyline class="polyline" opacity="0.5" stroke="blue" points="182.78006391010703,224.4420904957237 247.46427200510814,238.5680717540495 "/><polyline class="polyline" opacity="0.5" stroke="blue" points="182.96425930893332,226.01442788287017 248.218740320783,240.83279422309965 "/><polyline class="polyline" opacity="0.5" stroke="blue" points="183.1566430055185,227.57041173319203 248.96538379008584,243.02720845377257 "/><polyline class="polyline" opacity="0.5" stroke="blue" points="183.3570671769399,229.10911142556856 249.70375721027222,245.15042632708344 "/><polyline class="polyline" opacity="0.5" stroke="blue" points="183.5653782189716,230.62961616257886 250.43343396639668,247.20168827584035 "/><polyline class="polyline" opacity="0.5" stroke="blue" points="183.78141698313956,232.13103586427357 251.1540062552217,249.18036059902064 "/><polyline class="polyline" opacity="0.5" stroke="blue" points="184.00501902045664,233.61250201429553 251.86508523536722,251.08593248479815 "/><polyline class="polyline" opacity="0.5" stroke="blue" points="184.2360148311312,235.0731684569754 252.5663011067874,252.91801277090488 "/><polyline class="polyline" opacity="0.5" stroke="blue" points="184.47423011953606,236.51221214421665 253.2573031229084,254.6763264709187 "/><polyline class="polyline" opacity="0.5" stroke="blue" points="184.719486053719,237.92883383117 253.9377595389705,256.3607110947618 "/><polyline class="polyline" opacity="0.5" stroke="blue" points="184.97159952873645,239.32225871988868 254.60735750028195,257.9711127911926 "/><polyline class="polyline" opacity="0.5" stroke="blue" points="185.23038343309224,240.69173705034015 255.26580287421984,259.5075823393935 "/><polyline class="polyline" opacity="0.5" stroke="blue" points="185.49564691756962,242.03654463833837 255.91282002990246,260.97027101591834 "/><polyline class="polyline" opacity="0.5" stroke="blue" points="185.76719566575156,243.35598336014243 256.5481515695087,262.3594263622933 "/><polyline class="polyline" opacity="0.5" stroke="blue" points="186.04483216553518,244.6493815836477 257.1715580152437,263.675387877469 "/><polyline class="polyline" opacity="0.5" stroke="blue" points="186.32835598095932,245.91609454627059 257.78281745593637,264.9185826581396 "/><polyline class="polyline" opacity="0.5" stroke="blue" points="186.61756402368,247.15550467979926 258.3817251572171,266.08952100867236 "/><polyline class="polyline" opacity="0.5" stroke="blue" points="186.91225082344593,248.36702188264528 258.96809313916026,267.18879204106804 "/><polyline class="polyline" opacity="0.5" stroke="blue" points="187.21220879694707,249.55008374009105 259.54174972518916,268.2170592839991 "/><polyline class="polyline" opacity="0.5" stroke="blue" points="187.5172285144305,250.7041556932776 260.10253906593476,269.1750563185745 "/><polyline class="polyline" opacity="0.5" stroke="blue" points="187.82709896350278,251.8287311578199 260.65032064161505,270.0635824570686 "/><polyline class="polyline" opacity="0.5" stroke="blue" points="188.14160780956195,252.92333159307375 261.1849687463656,270.8834984794385 "/><polyline class="polyline" opacity="0.5" stroke="blue" points="188.46054165233124,253.98750652320257 261.7063719577989,271.6357224410554 "/><polyline class="polyline" opacity="0.5" stroke="blue" points="188.78368627799296,255.02083351131202 262.2144325949123,272.3212255636982 "/><polyline class="polyline" opacity="0.5" stroke="blue" points="189.11082690645097,256.0229180880277 262.70906616729434,272.9410282205152 "/><polyline class="polyline" opacity="0.5" stroke="blue" points="189.44174843328085,256.9933936359911 263.1902008184082,273.496196024353 "/><polyline class="polyline" opacity="0.5" stroke="blue" points="189.77623566595653,257.9319212318384 263.6577767655535,273.98783602759903 "/><polyline class="polyline" opacity="0.5" stroke="blue" points="190.11407355397435,258.83818944730785 264.11174573892856,274.41709304047777 "/><polyline class="polyline" opacity="0.5" stroke="blue" points="190.45504741252662,259.7119141111918 264.552070422039,274.78514607360034 "/><polyline class="polyline" opacity="0.5" stroke="blue" points="190.79894313940898,260.5528380339099 264.97872389551935,275.0932049094786 "/><polyline class="polyline" opacity="0.5" stroke="blue" points="191.14554742487724,261.3607306965348 265.39168908626095,275.3425068066992 "/><polyline class="polyline" opacity="0.5" stroke="blue" points="191.4946479542013,262.13538790614155 265.7909582235686,275.5343133394986 "/><polyline class="polyline" opacity="0.5" stroke="blue" points="191.8460336026951,262.87663141938776 266.17653230390306,275.66990737459133 "/><polyline class="polyline" opacity="0.5" stroke="blue" points="192.1994946230321,263.5843085362561 266.54842056560364,275.75059018628684 "/><polyline class="polyline" opacity="0.5" stroke="blue" points="192.55482282468674,264.25829166590745 266.90663997483443,275.77767871017414 "/><polyline class="polyline" opacity="0.5" stroke="blue" points="192.9118117453712,264.8984778666015 267.2512147238467,275.7525029349663 "/><polyline class="polyline" opacity="0.5" stroke="blue" points="193.27025681436652,265.5047883616431 267.58217574251137,275.67640343147275 "/><polyline class="polyline" opacity="0.5" stroke="blue" points="193.62995550767425,266.0771680333047 267.8995602239419,275.550729017105 "/><polyline class="polyline" opacity="0.5" stroke="blue" points="193.9907074949424,266.6155848966632 268.20341116490306,275.3768345538178 "/><polyline class="polyline" opacity="0.5" stroke="blue" points="194.35231477814523,267.1200295552678 268.49377692158254,275.15607887694534 "/><polyline class="polyline" opacity="0.5" stroke="blue" points="194.71458182202088,267.5905146405305 268.7707107811928,274.88982285199774 "/><polyline class="polyline" opacity="0.5" stroke="blue" points="195.0773156762954,268.02707423669744 269.03427054977,274.57942755614783 "/><polyline class="polyline" opacity="0.5" stroke="blue" points="195.4403260897427,268.42976329322255 269.28451815643956,274.2262525808443 "/><polyline class="polyline" opacity="0.5" stroke="blue" points="195.80342561615285,268.79865702632384 269.521519274335,273.8316544517453 "/><polyline class="polyline" opacity="0.5" stroke="blue" points="196.16642971229933,269.13385031145265 269.7453429582732,273.39698516196273 "/><polyline class="polyline" opacity="0.5" stroke="blue" points="196.529156828016,269.4354570683612 269.9560612992198,272.9235908144448 "/><polyline class="polyline" opacity="0.5" stroke="blue" points="196.89142848851012,269.703609640393 270.1537490955118,272.41281036919736 "/><polyline class="polyline" opacity="0.5" stroke="blue" points="197.25306936905537,269.9384581695706 270.33848354074524,271.8659744909528 "/><polyline class="polyline" opacity="0.5" stroke="blue" points="197.61390736222194,270.14016996899 270.51034392818366,271.28440449282994 "/><polyline class="polyline" opacity="0.5" stroke="blue" points="197.97377363781544,270.3089288939718 270.6694113714949,270.6694113714949 "/><polyline class="polyline" opacity="0.5" stroke="blue" points="198.33250269570698,270.4449347133566 270.81576854158453,270.0222949293224 "/><polyline class="polyline" opacity="0.5" stroke="blue" points="198.68993241174866,270.54840248226225 270.9494994192554,269.3443429790667 "/><polyline class="polyline" opacity="0.5" stroke="blue" points="199.04590407697793,270.619561917562 271.07068906339407,268.6368306265879 "/><polyline class="polyline" opacity="0.5" stroke="blue" points="199.40026243032207,270.65865677726754 271.17942339435615,267.9010196272222 "/><polyline class="polyline" opacity="0.5" stroke="blue" points="199.75285568502187,270.66594424493996 271.2757889922009,267.138157811457 "/><polyline class="polyline" opacity="0.5" stroke="blue" points="200.10353554899936,270.6416943201818 271.35987290940716,266.34947857564316 "/><polyline class="polyline" opacity="0.5" stroke="blue" points="200.4521572393994,270.58618921619484 271.43176249768516,265.53620043357137 "/><polyline class="polyline" opacity="0.5" stroke="blue" points="200.7985794915385,270.49972276532515 271.49154524849126,264.6995266248373 "/><polyline class="polyline" opacity="0.5" stroke="blue" points="201.14266456249806,270.38259983344847 271.53930864683804,263.8406447760293 "/><polyline class="polyline" opacity="0.5" stroke="blue" points="201.48427822960008,270.2351357439842 271.5751400379901,262.9607266108847 "/><polyline class="polyline" opacity="0.5" stroke="blue" points="201.8232897840057,270.0576557122631 271.59912650662994,262.06092770568455 "/><polyline class="polyline" opacity="0.5" stroke="blue" points="202.15957201967595,269.85049429091265 271.6113547680769,261.1423872862788 "/><polyline class="polyline" opacity="0.5" stroke="blue" points="202.49300121793456,269.613994826859 271.6119110711409,260.20622806326196 "/><polyline class="polyline" opacity="0.5" stroke="blue" points="202.82345712787145,269.3485089304909 271.6008811121963,259.2535561019504 "/><polyline class="polyline" opacity="0.5" stroke="blue" points="203.1508229428224,269.0543959574677 271.57834996006204,258.2854607239418 "/><polyline class="polyline" opacity="0.5" stroke="blue" points="203.47498527315992,268.7320225036027 271.5444019912796,257.3030144371725 "/><polyline class="polyline" opacity="0.5" stroke="blue" points="203.7958341156251,268.3817619131963 271.49912083538493,256.3072728915166 "/><polyline class="polyline" opacity="0.5" stroke="blue" points="204.1132628194283,268.00399380114334 271.44258932977664,255.2992748571055 "/><polyline class="polyline" opacity="0.5" stroke="blue" points="204.4271680493416,267.5991035890892 271.3748894837888,254.2800422226755 "/><polyline class="polyline" opacity="0.5" stroke="blue" points="204.73744974600154,267.16748205586265 271.2961024515858,253.2505800113792 "/><polyline class="polyline" opacity="0.5" stroke="blue" points="205.04401108363606,266.70952490236635 271.20630851350006,252.211876411626 "/><polyline class="polyline" opacity="0.5" stroke="blue" points="205.34675842542407,266.22563233106615 271.10558706544697,251.1649028206389 "/><polyline class="polyline" opacity="0.5" stroke="blue" points="205.64560127669077,265.71620864017734 270.99401661605435,250.11061389854052 "/><polyline class="polyline" opacity="0.5" stroke="blue" points="205.94045223613617,265.1816618326078 270.87167479115396,249.04994763089917 "/><polyline class="polyline" opacity="0.5" stroke="blue" points="206.23122694528797,264.62240323968376 270.73863834529055,247.9838253977851 "/><polyline class="polyline" opacity="0.5" stroke="blue" points="206.51784403636415,264.0388471596476 270.5949831799111,246.9131520475003 "/><polyline class="polyline" opacity="0.5" stroke="blue" points="206.80022507872442,263.4314105108873 270.44078436790505,245.83881597325967 "/><polyline class="polyline" opacity="0.5" stroke="blue" points="207.07829452408302,262.8005124998249 270.2761161841728,244.76168919120863 "/><polyline class="polyline" opacity="0.5" stroke="blue" points="207.3519796506491,262.1465743033682 270.10105214190776,243.68262741827078 "/><polyline class="polyline" opacity="0.5" stroke="blue" points="207.6212105063547,261.4700187657984 269.9156650342832,242.60247014842207 "/><polyline class="polyline" opacity="0.5" stroke="blue" points="207.8859198513233,260.7712701099491 269.72002698124106,241.52204072609092 "/><polyline class="polyline" opacity="0.5" stroke="blue" points="208.14604309972574,260.05075366250503 269.51420948108677,240.44214641548132 "/><polyline class="polyline" opacity="0.5" stroke="blue" points="208.4015182611642,259.3088955932328 269.29828346659764,239.36357846471316 "/><polyline class="polyline" opacity="0.5" stroke="blue" points="208.6522858817179,258.5461226679366 269.072319365359,238.28711216376956 "/><polyline class="polyline" opacity="0.5" stroke="blue" points="208.898288984778,257.7628620149146 268.8363871640448,237.21350689533057 "/><polyline class="polyline" opacity="0.5" stroke="blue" points="209.13947301179374,256.95954090468 268.5905564763639,236.14350617766542 "/><polyline class="polyline" opacity="0.5" stroke="blue" points="209.3757857630443,256.13658654269335 268.3348966143971,235.07783769884233 "/><polyline class="polyline" opacity="0.5" stroke="blue" points="209.6071773385459,255.29442587484567 268.06947666305075,234.01721334160078 "/><polyline class="polyline" opacity="0.5" stroke="blue" points="209.83360007919805,254.43348540541902 267.7943655573562,232.96232919831766 "/><polyline class="polyline" opacity="0.5" stroke="blue" points="210.05500850826553,253.55419102724295 267.50963216234663,231.91386557558005 "/><polyline class="polyline" opacity="0.5" stroke="blue" points="210.27135927328894,252.6569678637585 267.2153453552414,230.87248698796026 "/><polyline class="polyline" opacity="0.5" stroke="blue" points="210.48261108851025,251.74224012269437 266.91157410967173,229.83884214066933 "/><polyline class="polyline" opacity="0.5" stroke="blue" points="210.6887246778943,250.81043096105483 266.59838758167837,228.8135639008427 "/><polyline class="polyline" opacity="0.5" stroke="blue" points="210.8896627188229,249.86196236111576 266.2758551972157,227.79726925729307 "/><polyline class="polyline" opacity="0.5" stroke="blue" points="211.0853897865326,248.89725501712084 265.94404674089196,226.79055926863902 "/><polyline class="polyline" opacity="0.5" stroke="blue" points="211.27587229936282,247.91672823236843 265.6030324456764,225.79401899979644 "/><polyline class="polyline" opacity="0.5" stroke="blue" points="211.46107846487604,246.92079982637898 265.25288308330425,224.8082174468945 "/><polyline class="polyline" opacity="0.5" stroke="blue" points="211.6409782269081,245.90988605183048 264.8936700551051,223.83370745075106 "/><polyline class="polyline" opacity="0.5" stroke="blue" points="211.8155432136017,244.88440152095234 264.52546548298113,222.87102559911818 "/><polyline class="polyline" opacity="0.5" stroke="blue" points="211.9847466864726,243.84475914106608 264.14834230026105,221.92069211797772 "/><polyline class="polyline" opacity="0.5" stroke="blue" points="212.14856349055393,242.79137005896547 263.7623743421485,220.98321075224248 "/><polyline class="polyline" opacity="0.5" stroke="blue" points="212.30697000566101,241.72464361382825 263.3676364354877,220.05906863628542 "/><polyline class="polyline" opacity="0.5" stroke="blue" points="212.45994409881445,240.64498729835654 262.964204487562,219.14873615479237 "/><polyline class="polyline" opacity="0.5" stroke="blue" points="212.6074650778573,239.55280672784423 262.5521555736424,218.25266679450073 "/><polyline class="polyline" opacity="0.5" stroke="blue" points="212.74951364629794,238.44850561687332 262.1315680229995,217.37129698745395 "/><polyline class="polyline" opacity="0.5" stroke="blue" points="212.88607185940782,237.33248576334663 261.70252150309045,216.50504594647057 "/><polyline class="polyline" opacity="0.5" stroke="blue" points="213.01712308160057,236.20514703956533 261.26509710163276,215.65431549358783 "/><polyline class="polyline" opacity="0.5" stroke="blue" points="213.14265194511609,235.06688739006714 260.81937740627404,214.819489882307 "/><polyline class="polyline" opacity="0.5" stroke="blue" points="213.2626443100305,233.91810283594305 260.36544658156674,214.0009356145268 "/><polyline class="polyline" opacity="0.5" stroke="blue" points="213.37708722561166,232.75918748535707 259.90339044295774,213.19900125311298 "/><polyline class="polyline" opacity="0.5" stroke="blue" points="213.4859688930362,231.5905335499966 259.4332965275005,212.4140172311086 "/><polyline class="polyline" opacity="0.5" stroke="blue" points="213.58927862948323,230.41253136718788 258.95525416100224,211.64629565864615 "/><polyline class="polyline" opacity="0.5" stroke="blue" points="213.68700683361797,229.22556942741383 258.46935452131663,210.89613012867488 "/><polyline class="polyline" opacity="0.5" stroke="blue" points="213.77914495247543,228.03003440697856 257.975690697498,210.16379552266767 "/><polyline class="polyline" opacity="0.5" stroke="blue" points="213.8656854497548,226.82631120556675 257.47435774453345,209.44954781751727 "/><polyline class="polyline" opacity="0.5" stroke="blue" points="213.94662177553192,225.61478298845145 256.96545273337773,208.75362389487765 "/><polyline class="polyline" opacity="0.5" stroke="blue" points="214.0219483373967,224.39583123310942 256.4490747960155,208.07624135424498 "/><polyline class="polyline" opacity="0.5" stroke="blue" points="214.09166047302097,223.16983578000645 255.92532516528715,207.41759833110783 "/><polyline class="polyline" opacity="0.5" stroke="blue" points="214.15575442416065,221.9371748873226 255.39430720921786,206.77787332153105 "/><polyline class="polyline" opacity="0.5" stroke="blue" points="214.2142273120964,220.6982252893893 254.85612645960038,206.15722501456221 "/><polyline class="polyline" opacity="0.5" stroke="blue" points="214.2670771145136,219.45336225861686 254.31089063458984,205.55579213387384 "/><polyline class="polyline" opacity="0.5" stroke="blue" points="214.31430264382442,218.20295967069399 253.75870965508142,204.973693290071 "/><polyline class="polyline" opacity="0.5" stroke="blue" points="214.35590352693154,216.94739007284727 253.19969565465283,204.41102684510685 "/><polyline class="polyline" opacity="0.5" stroke="blue" points="214.391880186434,215.68702475494965 252.63396298286634,203.86787079025433 "/><polyline class="polyline" opacity="0.5" stroke="blue" points="214.42223382327455,214.42223382327455 252.06162820174166,203.34428263908254 "/><polyline class="polyline" opacity="0.5" stroke="blue" points="214.44696640082637,213.1533862766926 251.48281007522436,202.84029933688146 "/><polyline class="polyline" opacity="0.5" stroke="blue" points="214.4660806304184,211.88085008511385 250.89762955149388,202.35593718796508 "/><polyline class="polyline" opacity="0.5" stroke="blue" points="214.47957995829634,210.60499226998124 250.30620973797207,201.8911918022655 "/><polyline class="polyline" opacity="0.5" stroke="blue" points="214.48746855401703,209.32617898662335 249.7086758689144,201.44603806260432 "/><polyline class="polyline" opacity="0.5" stroke="blue" points="214.4897513002728,208.0447756082774 249.10515526548457,201.02043011399485 "/><polyline class="polyline" opacity="0.5" stroke="blue" points="214.48643378414303,206.76114681159805 248.49577728823832,200.61430137628994 "/><polyline class="polyline" opacity="0.5" stroke="blue" points="214.47752228976913,205.47565666346682 247.8806732819632,200.22756458144298 "/><polyline class="polyline" opacity="0.5" stroke="blue" points="214.4630237924487,204.18866870892123 247.25997651284555,199.86011183659568 "/><polyline class="polyline" opacity="0.5" stroke="blue" points="214.44294595414578,202.9005460600247 246.63382209796305,199.51181471414634 "/><polyline class="polyline" opacity="0.5" stroke="blue" points="214.41729712041212,201.6116514854973 246.00234692712417,199.1825243698829 "/><polyline class="polyline" opacity="0.5" stroke="blue" points="214.38608631871534,200.32234750093295 245.36568957710628,198.87207169019163 "/><polyline class="polyline" opacity="0.5" stroke="blue" points="214.34932325816993,199.03299645942454 244.72399021836873,198.58026746926913 "/><polyline class="polyline" opacity="0.5" stroke="blue" points="214.30701833066544,197.74396064242458 244.07739051434757,198.30690261717862 "/><polyline class="polyline" opacity="0.5" stroke="blue" points="214.259182613388,196.4556023506644 243.42603351346622,198.05174839949507 "/><polyline class="polyline" opacity="0.5" stroke="blue" points="214.20582787272923,195.1682839949593 242.77006353402564,197.8145567091846 "/><polyline class="polyline" opacity="0.5" stroke="blue" points="214.1469665695783,193.8823681867233 242.10962604216613,197.59506037125584 "/><polyline class="polyline" opacity="0.5" stroke="blue" points="214.08261186599086,192.59821782802055 241.44486752312358,197.3929734806104 "/><polyline class="polyline" opacity="0.5" stroke="blue" points="214.01277763322997,191.31619620097536 240.77593534602985,197.20799177340226 "/><polyline class="polyline" opacity="0.5" stroke="blue" points="213.93747846117287,190.03666705636638 240.10297762253782,197.03979303209496 "/><polyline class="polyline" opacity="0.5" stroke="blue" points="213.85672966907774,188.75999470122613 239.42614305957818,196.88803752428242 "/><polyline class="polyline" opacity="0.5" stroke="blue" points="213.77054731770411,187.48654408526562 238.74558080658406,196.7523684752089 "/><polyline class="polyline" opacity="0.5" stroke="blue" points="213.67894822278035,186.216680885945 238.06144029754557,196.63241257379548 "/><polyline class="polyline" opacity="0.5" stroke="blue" points="213.58194996981123,184.9507715920049 237.37387108828221,196.5277805118474 "/><polyline class="polyline" opacity="0.5" stroke="blue" points="213.47957093021816,183.68918358527466 236.68302268934733,196.43806755598285 "/><polyline class="polyline" opacity="0.5" stroke="blue" points="213.37183027880434,182.43228522056796 235.9890443949995,196.36285415169098 "/><polyline class="polyline" opacity="0.5" stroke="blue" points="213.25874801253676,181.18044590347645 235.29208510870095,196.3017065587921 "/><polyline class="polyline" opacity="0.5" stroke="blue" points="213.1403449706355,179.9340361658658 234.59229316562113,196.25417751744203 "/><polyline class="polyline" opacity="0.5" stroke="blue" points="213.01664285596186,178.69342773887888 233.88981615264348,196.21980694369086 "/><polyline class="polyline" opacity="0.5" stroke="blue" points="212.8876642576938,177.45899362324363 233.18480072638945,196.19812265347863 "/><polyline class="polyline" opacity="0.5" stroke="blue" points="212.75343267527924,176.23110815668255 232.4773924297901,196.18864111382626 "/><polyline class="polyline" opacity="0.5" stroke="blue" points="212.61397254365397,175.01014707821466 231.7677355077456,196.19086821985942 "/><polyline class="polyline" opacity="0.5" stroke="blue" points="212.46930925971256,173.7964875891383 231.05597272242704,196.20430009618707 "/><polyline class="polyline" opacity="0.5" stroke="blue" points="212.3194692100176,172.59050841047744 230.3422451687788,196.22842392104715 "/><polyline class="polyline" opacity="0.5" stroke="blue" points="212.16447979973313,171.39258983667094 229.6266920907898,196.2627187715282 "/><polyline class="polyline" opacity="0.5" stroke="blue" points="212.00436948276575,170.2031137852792 228.90945069910185,196.30665648807891 "/><polyline class="polyline" opacity="0.5" stroke="blue" points="211.83916779309598,169.0224638424776 228.1906559905256,196.35970255642866 "/><polyline class="polyline" opacity="0.5" stroke="blue" points="211.66890537728148,167.85102530410177 227.47044057003345,196.4213170049619 "/><polyline class="polyline" opacity="0.5" stroke="blue" points="211.49361402811107,166.68918521200504 226.74893447579208,196.4909553155167 "/><polyline class="polyline" opacity="0.5" stroke="blue" points="211.3133267193884,165.53733238548318 226.02626500779476,196.5680693455148 "/><polyline class="polyline" opacity="0.5" stroke="blue" points="211.128077641821,164.39585744751616 225.302556560639,196.65210825927838 "/><polyline class="polyline" opacity="0.5" stroke="blue" points="210.93790223998892,163.26515284557308 224.57793046098845,196.74251946634348 "/><polyline class="polyline" opacity="0.5" stroke="blue" points="210.74283725036608,162.14561286671943 223.8525048102405,196.8387495645494 "/><polyline class="polyline" opacity="0.5" stroke="blue" points="210.54292074036383,161.03763364676337 223.12639433290676,196.94024528565762 "/><polyline class="polyline" opacity="0.5" stroke="blue" points="210.33819214836473,159.9416131731704 222.39971023119338,197.04645444124472 "/><polyline class="polyline" opacity="0.5" stroke="blue" points="210.12869232471274,158.8579512814729 221.6725600462499,197.1568268666093 "/><polyline class="polyline" opacity="0.5" stroke="blue" points="209.91446357362202,157.7870496448959 220.94504752652975,197.2708153604433 "/><polyline class="polyline" opacity="0.5" stroke="blue" points="209.6955496959649,156.72931175691537 220.21727250368454,197.38787661803696 "/><polyline class="polyline" opacity="0.5" stroke="blue" points="209.4719960328969,155.68514290646243 219.48933077638543,197.50747215581558 "/><polyline class="polyline" opacity="0.5" stroke="blue" points="209.24384951027255,154.65495014548145 218.761314002439,197.6290692250465 "/><polyline class="polyline" opacity="0.5" stroke="blue" points="209.01115868380384,153.6391422485483 218.03330959953638,197.75214171260265 "/><polyline class="polyline" opacity="0.5" stroke="blue" points="208.77397378490912,152.63812966424916 217.3054006549426,197.87617102672905 "/><polyline class="polyline" opacity="0.5" stroke="blue" points="208.53234676719714,151.6523244580207 216.57766584440523,198.00064696582353 "/><polyline class="polyline" opacity="0.5" stroke="blue" points="208.2863313535273,150.68214024614645 215.85017936052668,198.1250685683209 "/><polyline class="polyline" opacity="0.5" stroke="blue" points="208.0359830835832,149.7279921206055 215.12301085081455,198.248944941851 "/><polyline class="polyline" opacity="0.5" stroke="blue" points="207.78135936189292,148.7902965644661 214.3962253655904,198.37179606993288 "/><polyline class="polyline" opacity="0.5" stroke="blue" points="207.52251950622576,147.86947135751677 213.66988331590605,198.49315359456358 "/><polyline class="polyline" opacity="0.5" stroke="blue" points="207.25952479628967,146.96593547182766 212.94404044158142,198.61256157316282 "/><polyline class="polyline" opacity="0.5" stroke="blue" points="206.99243852265158,146.08010895693548 212.2187477894486,198.72957720844357 "/><polyline class="polyline" opacity="0.5" stroke="blue" points="206.72132603579556,145.2124128143455 211.49405170185116,198.8437715498893 "/><polyline class="polyline" opacity="0.5" stroke="blue" points="206.4462547952318,144.3632688610491 210.76999381541944,198.9547301656364 "/><polyline class="polyline" opacity="0.5" stroke="blue" points="206.16729441856253,143.53309958175552 210.04661107010875,199.06205378367727 "/><polyline class="polyline" opacity="0.5" stroke="blue" points="205.88451673040794,142.7223279695428 209.32393572845987,199.16535890142222 "/><polyline class="polyline" opacity="0.5" stroke="blue" points="205.59799581108857,141.9313773546374 208.6019954050108,199.26427836277907 "/><polyline class="polyline" opacity="0.5" stroke="blue" points="205.30780804495714,141.16067122103826 207.88081310576123,199.3584619020333 "/><polyline class="polyline" opacity="0.5" stroke="blue" points="205.01403216826634,140.41063301070903 207.16040727756572,199.44757665393357 "/><polyline class="polyline" opacity="0.5" stroke="blue" points="204.71674931645464,139.68168591507063 206.44079186730448,199.53130762950957 "/><polyline class="polyline" opacity="0.5" stroke="blue" points="204.41604307072686,138.9742526535374 205.7219763906601,199.60935815726998 "/><polyline class="polyline" opacity="0.5" stroke="blue" points="204.1119995038005,138.28875523885043 205.0039660103032,199.6814502895446 "/><polyline class="polyline" opacity="0.5" stroke="blue" points="203.80470722468374,137.62561472897622 204.28676162327318,199.74732517385266 "/><polyline class="polyline" opacity="0.5" stroke="blue" points="203.49425742234584,136.98525096535226 203.5703599573186,199.80674338928827 "/><polyline class="polyline" opacity="0.5" stroke="blue" points="203.1807439081347,136.36808229727893 202.85475367594765,199.85948524802393 "/><polyline class="polyline" opacity="0.5" stroke="blue" points="202.86426315679148,135.7745252922732 202.1399314919219,199.9053510621348 "/><polyline class="polyline" opacity="0.5" stroke="blue" points="202.54491434590702,135.20499443222238 201.42587828891573,199.9441613760457 "/><polyline class="polyline" opacity="0.5" stroke="blue" points="202.22279939365865,134.65990179519355 200.71257525104974,199.97575716499546 "/><polyline class="polyline" opacity="0.5" stroke="blue" points="201.89802299466209,134.13965672278385 200.0,200.0 "/><polyline class="polyline" opacity="0.5" stroke="blue" points="201.57069265376714,133.64466547291607 199.28812673937458,200.01677217987753 "/><polyline class="polyline" opacity="0.5" stroke="blue" points="201.2409187176215,133.17533085801563 198.57692640604404,200.02597683097352 "/><polyline class="polyline" opacity="0.5" stroke="blue" points="200.90881440382216,132.73205186853465 197.86636682810897,200.02753797529158 "/><polyline class="polyline" opacity="0.5" stroke="blue" points="200.57449582746972,132.31522328181802 197.15641288918275,200.0214005677978 "/><polyline class="polyline" opacity="0.5" stroke="blue" points="200.2380820249363,131.9252352563425 196.44702669866902,200.00753050372217 "/><polyline class="polyline" opacity="0.5" stroke="blue" points="199.8996949746539,131.56247291139536 195.7381677677119,199.98591459672627 "/><polyline class="polyline" opacity="0.5" stroke="blue" points="199.55945961472742,131.22731589229795 195.02979319049987,199.95656052885036 "/><polyline class="polyline" opacity="0.5" stroke="blue" points="199.21750385717152,130.92013792131786 194.32185783060663,199.91949677318496 "/><polyline class="polyline" opacity="0.5" stroke="blue" points="198.87395859856963,130.64130633446013 193.61431451205704,199.87477249024082 "/><polyline class="polyline" opacity="0.5" stroke="blue" points="198.52895772694978,130.39118160436826 192.90711421481078,199.8224573990109 "/><polyline class="polyline" opacity="0.5" stroke="blue" points="198.1826381246708,130.17011684961687 192.20020627436423,199.7626416237331 "/><polyline class="polyline" opacity="0.5" stroke="blue" points="197.83513966711064,129.97845733072432 191.49353858517657,199.69543551736905 "/><polyline class="polyline" opacity="0.5" stroke="blue" points="197.48660521694813,129.81653993326677 190.78705780763556,199.6209694628169 "/><polyline class="polyline" opacity="0.5" stroke="blue" points="197.13718061382963,129.68469263852762 190.08070957828653,199.53939365287027 "/><polyline class="polyline" opacity="0.5" stroke="blue" points="196.7870146592118,129.5832339821721 189.37443872305732,199.4508778499269 "/><polyline class="polyline" opacity="0.5" stroke="blue" points="196.4362590961742,129.51247250149348 188.6681894732221,199.35561112643285 "/><polyline class="polyline" opacity="0.5" stroke="blue" points="196.08506858399636,129.4727061718374 187.9619056838561,199.25380158702885 "/><polyline class="polyline" opacity="0.5" stroke="blue" points="195.73360066729762,129.46422183287038 187.2555310545448,199.14567607333882 "/><polyline class="polyline" opacity="0.5" stroke="blue" points="195.38201573954154,129.4872946054213 186.54900935211998,199.03147985231007 "/><polyline class="polyline" opacity="0.5" stroke="blue" points="195.03047700071136,129.5421872996879 185.8422846352062,198.91147628898057 "/><polyline class="polyline" opacity="0.5" stroke="blue" points="194.67915040896827,129.62914981566507 185.13530148037117,198.7859465045094 "/><polyline class="polyline" opacity="0.5" stroke="blue" points="194.32820462611164,129.7484185367171 184.4280052096836,198.6551890202659 "/><polyline class="polyline" opacity="0.5" stroke="blue" points="193.97781095666704,129.90021571728204 183.72034211949057,198.51951938872523 "/><polyline class="polyline" opacity="0.5" stroke="blue" points="193.62814328043686,130.08474886576374 183.01225971023746,198.37926981187275 "/><polyline class="polyline" opacity="0.5" stroke="blue" points="193.27937797835853,130.30221012373292 182.30370691715973,198.23478874776646 "/><polyline class="polyline" opacity="0.5" stroke="blue" points="192.93169385152558,130.55277564262627 181.59463434168626,198.08644050585562 "/><polyline class="polyline" opacity="0.5" stroke="blue" points="192.58527203323885,130.8366049591984 180.88499448339866,197.93460483159743 "/><polyline class="polyline" opacity="0.5" stroke="blue" points="192.24029589396878,131.15384037104772 180.17474197239943,197.77967648085917 "/><polyline class="polyline" opacity="0.5" stroke="blue" points="191.8969509391234,131.5046063136005 179.46383380194584,197.62206478453368 "/><polyline class="polyline" opacity="0.5" stroke="blue" points="191.55542469953264,131.8890087400025 178.75222956121252,197.46219320374004 "/><polyline class="polyline" opacity="0.5" stroke="blue" points="191.2159066145761,132.30713450542675 178.03989166804777,197.3004988759209 "/><polyline class="polyline" opacity="0.5" stroke="blue" points="190.87858790789886,132.75905075736677 177.32678560159192,197.1374321520897 "/><polyline class="polyline" opacity="0.5" stroke="blue" points="190.5436614556797,133.24480433353972 176.61288013462791,196.9734561254223 "/><polyline class="polyline" opacity="0.5" stroke="blue" points="190.21132164743585,133.7644211690781 175.89814756553295,196.80904615132891 "/><polyline class="polyline" opacity="0.5" stroke="blue" points="189.8817642393692,134.31790571473832 175.18256394970126,196.64468935908474 "/><polyline class="polyline" opacity="0.5" stroke="blue" points="189.5551862002825,134.90524036790018 174.46610933030257,196.48088415504066 "/><polyline class="polyline" opacity="0.5" stroke="blue" points="189.23178555011606,135.52638491817288 173.74876796824137,196.31813971738097 "/><polyline class="polyline" opacity="0.5" stroke="blue" points="188.91176119118114,136.181276009461 173.03052857117282,196.1569754823401 "/><polyline class="polyline" opacity="0.5" stroke="blue" points="188.59531273219025,136.8698266203726 172.31138452142798,195.9979206217395 "/><polyline class="polyline" opacity="0.5" stroke="blue" points="188.28264030521225,137.59192556488188 171.59133410269175,195.84151351165502 "/><polyline class="polyline" opacity="0.5" stroke="blue" points="187.9739443757058,138.347437015173 170.8703807252686,195.68830119197918 "/><polyline class="polyline" opacity="0.5" stroke="blue" points="187.66942554581277,139.1362000486093 170.14853314975971,195.53883881659576 "/><polyline class="polyline" opacity="0.5" stroke="blue" points="187.36928435112205,139.95802822077565 169.4258057089649,195.39368909384464 "/><polyline class="polyline" opacity="0.5" stroke="blue" points="187.07372105114194,140.81270916654117 168.702218527807,195.25342171691463 "/><polyline class="polyline" opacity="0.5" stroke="blue" points="186.78293541374885,141.7000042310801 167.97779774106414,195.11861278376648 "/><polyline class="polyline" opacity="0.5" stroke="blue" points="186.49712649390966,142.61964813277092 167.25257570867825,194.9898442061582 "/><polyline class="polyline" opacity="0.5" stroke="blue" points="186.21649240700353,143.57134865986993 166.52659122838938,194.86770310731512 "/><polyline class="polyline" opacity="0.5" stroke="blue" points="185.94123009709963,144.55478640281834 165.79988974542988,194.75278120776437 "/><polyline class="polyline" opacity="0.5" stroke="blue" points="185.671535100575,145.56961452400114 165.0725235589893,194.64567419883474 "/><polyline class="polyline" opacity="0.5" stroke="blue" points="185.40760130548676,146.61545856672166 164.34455202514192,194.54698110330662 "/><polyline class="polyline" opacity="0.5" stroke="blue" points="185.14962070714023,147.69191630509516 163.616041755905,194.45730362268839 "/><polyline class="polyline" opacity="0.5" stroke="blue" points="184.89778316032317,148.79855763649223 162.88706681407407,194.37724547059025 "/><polyline class="polyline" opacity="0.5" stroke="blue" points="184.65227612870189,149.93492451808427 162.15770890345493,194.307411691667 "/><polyline class="polyline" opacity="0.5" stroke="blue" points="184.41328443190156,151.10053094894988 161.42805755408938,194.24840796560744 "/><polyline class="polyline" opacity="0.5" stroke="blue" points="184.18098999081766,152.2948629991051 160.6982103020429,194.2008398956601 "/><polyline class="polyline" opacity="0.5" stroke="blue" points="183.95557157172792,153.51737888670846 159.96827286329804,194.16531228120328 "/><polyline class="polyline" opacity="0.5" stroke="blue" points="183.7372045297963,154.76750910457673 159.23835930126796,194.14242837389028 "/><polyline class="polyline" opacity="0.5" stroke="blue" points="183.52606055258033,156.04465659701768 158.5085921874176,194.13278911693288 "/><polyline class="polyline" opacity="0.5" stroke="blue" points="183.3223074041709,157.34819698785418 157.77910275445223,194.13699236712213 "/><polyline class="polyline" opacity="0.5" stroke="blue" points="183.12610867060977,158.67747886036824 157.0500310415034,194.15563209922982 "/><polyline class="polyline" opacity="0.5" stroke="blue" points="182.93762350724322,160.03182408974425 156.32152603071557,194.18929759248533 "/><polyline class="polyline" opacity="0.5" stroke="blue" points="182.75700638868264,161.41052822843247 155.59374577460773,194.23857259888044 "/><polyline class="polyline" opacity="0.5" stroke="blue" points="182.58440686205017,162.8128609446889 154.86685751355682,194.30403449311945 "/><polyline class="polyline" opacity="0.5" stroke="blue" points="182.41996930419512,164.23806651437945 154.14103778272323,194.38625340410655 "/><polyline class="polyline" opacity="0.5" stroke="blue" points="182.26383268356926,165.68536436595804 153.41647250771217,194.48579132794066 "/><polyline class="polyline" opacity="0.5" stroke="blue" points="182.11613032745024,167.15394967835218 152.6933570882394,194.60320122247703 "/><polyline class="polyline" opacity="0.5" stroke="blue" points="181.9769896951998,168.64299403130383 151.9718964690474,194.73902608361044 "/><polyline class="polyline" opacity="0.5" stroke="blue" points="181.84653215823778,170.15164610753015 151.25230519729448,194.89379800353768 "/><polyline class="polyline" opacity="0.5" stroke="blue" points="181.72487278740525,171.6790324458789 150.534807465621,195.06803721136686 "/><polyline class="polyline" opacity="0.5" stroke="blue" points="181.61212014837727,173.2242582444689 149.819637140077,195.26225109656124 "/><polyline class="polyline" opacity="0.5" stroke="blue" points="181.50837610577264,174.7864082126142 149.1070377720832,195.47693321582847 "/><polyline class="polyline" opacity="0.5" stroke="blue" points="181.41373563658885,176.36454747014915 148.39726259358133,195.7125622842005 "/><polyline class="polyline" opacity="0.5" stroke="blue" points="181.32828665357036,177.95772249258297 147.6905744945239,195.969601151188 "/><polyline class="polyline" opacity="0.5" stroke="blue" points="181.2521098390944,179.5649621003359 146.98724598184538,196.2484957630395 "/><polyline class="polyline" opacity="0.5" stroke="blue" points="181.18527849013125,181.18527849013125 146.28755911905637,196.54967411228836 "/><polyline class="polyline" opacity="0.5" stroke="blue" points="181.12785837480664,182.81766830644665 145.59180544560357,196.87354517592806 "/><polyline class="polyline" opacity="0.5" stroke="blue" points="181.0799076010611,184.4611137507676 144.90028587514612,197.22049784372055 "/><polyline class="polyline" opacity="0.5" stroke="blue" points="181.04147649786665,186.114583726223 144.21331057191034,197.5908998383103 "/><polyline class="polyline" opacity="0.5" stroke="blue" points="181.01260750942228,187.77703501504436 143.53119880430094,197.98509662898857 "/><polyline class="polyline" opacity="0.5" stroke="blue" points="180.99333510271168,189.4474134861425 142.85427877497096,198.40341034112924 "/><polyline class="polyline" opacity="0.5" stroke="blue" points="180.98368568876276,191.1246553299747 142.18288742657933,198.8461386634939 "/><polyline class="polyline" opacity="0.5" stroke="blue" points="180.98367755790616,192.80768831775399 141.51737022250035,199.31355375578445 "/><polyline class="polyline" opacity="0.5" stroke="blue" points="180.99332082928322,194.4954330819498 140.85808090178992,199.80590115900205 "/><polyline class="polyline" opacity="0.5" stroke="blue" points="181.01261741480764,196.18680441493652 140.2053812077611,200.32339871134917 "/><polyline class="polyline" opacity="0.5" stroke="blue" points="181.04156099773624,197.88071258256517 139.55964058957528,200.86623547259103 "/><polyline class="polyline" opacity="0.5" stroke="blue" points="181.0801370259553,199.5760646493729 138.9212358763178,201.4345706599665 "/><polyline class="polyline" opacity="0.5" stroke="blue" points="181.12832272003888,201.2717658120867 138.29055092309545,202.02853259890927 "/><polyline class="polyline" opacity="0.5" stroke="blue" points="181.1860870960856,202.9667207380486 137.66797622876774,202.6482176920049 "/><polyline class="polyline" opacity="0.5" stroke="blue" points="181.25339100328938,204.65983490516268 137.05390852500943,203.2936894097674 "/><polyline class="polyline" opacity="0.5" stroke="blue" points="181.33018717614965,206.35001593995676 136.4487503364926,203.9649773069661 "/><polyline class="polyline" opacity="0.5" stroke="blue" points="181.41642030117643,208.0361749503643 135.85290951207207,204.66207606837395 "/><polyline class="polyline" opacity="0.5" stroke="blue" points="181.51202709789683,209.71722784984942 135.26679872696766,205.38494458793335 "/><polyline class="polyline" opacity="0.5" stroke="blue" points="181.61693641392074,211.39209666953883 134.6908349560452,206.13350508544906 "/><polyline class="polyline" opacity="0.5" stroke="blue" points="181.7310693337769,213.05971085507403 134.1254389184215,206.9076422650136 "/><polyline class="polyline" opacity="0.5" stroke="blue" points="181.85433930118435,214.71900854496624 133.5710344937409,207.7072025194531 "/><polyline class="polyline" opacity="0.5" stroke="blue" points="181.9866522543813,216.36893782731366 133.0280481106055,208.53199318514038 "/><polyline class="polyline" opacity="0.5" stroke="blue" points="182.12790677409043,218.0084579718354 132.49690810777741,209.38178185156505 "/><polyline class="polyline" opacity="0.5" stroke="blue" points="182.2779942436607,219.63654063427992 131.97804406891498,210.25629573006742 "/><polyline class="polyline" opacity="0.5" stroke="blue" points="182.4367990208876,221.252171030387 131.47188613175095,211.15522108614033 "/><polyline class="polyline" opacity="0.5" stroke="blue" points="182.60419862097993,222.854349076707 130.97886427277214,212.0782027396715 "/><polyline class="polyline" opacity="0.5" stroke="blue" points="182.78006391010703,224.4420904957237 130.49940756861338,213.02484363744477 "/><polyline class="polyline" opacity="0.5" stroke="blue" points="182.96425930893332,226.01442788287017 130.03394343553455,213.99470450213167 "/><polyline class="polyline" opacity="0.5" stroke="blue" points="183.1566430055185,227.57041173319192 129.5828968485054,214.98730356189674 "/><polyline class="polyline" opacity="0.5" stroke="blue" points="183.3570671769399,229.1091114255685 129.14668954157986,216.00211636459468 "/><polyline class="polyline" opacity="0.5" stroke="blue" points="183.5653782189716,230.62961616257886 128.72573919139768,217.038575680365 "/><polyline class="polyline" opacity="0.5" stroke="blue" points="183.7814169831396,232.1310358642736 128.32045858580273,218.0960714962302 "/><polyline class="polyline" opacity="0.5" stroke="blue" points="184.00501902045664,233.61250201429544 127.9312547797195,219.17395110606498 "/><polyline class="polyline" opacity="0.5" stroke="blue" points="184.2360148311312,235.0731684569754 127.55852824057149,220.27151929904272 "/><polyline class="polyline" opacity="0.5" stroke="blue" points="184.47423011953606,236.51221214421665 127.2026719856665,221.3880386493662 "/><polyline class="polyline" opacity="0.5" stroke="blue" points="184.719486053719,237.92883383117004 126.86407071410444,222.52272990976672 "/><polyline class="polyline" opacity="0.5" stroke="blue" points="184.97159952873645,239.32225871988862 126.54309993588481,223.67477251089855 "/><polyline class="polyline" opacity="0.5" stroke="blue" points="185.23038343309221,240.69173705034015 126.2401251010077,224.84330516837187 "/><polyline class="polyline" opacity="0.5" stroke="blue" points="185.49564691756962,242.03654463833837 125.95550073145903,226.02742659875761 "/><polyline class="polyline" opacity="0.5" stroke="blue" points="185.76719566575156,243.35598336014237 125.68956955906361,227.22619634546356 "/><polyline class="polyline" opacity="0.5" stroke="blue" points="186.04483216553515,244.64938158364762 125.44266167226287,228.43863571492076 "/><polyline class="polyline" opacity="0.5" stroke="blue" points="186.32835598095932,245.91609454627059 125.21509367493613,229.66372882304108 "/><polyline class="polyline" opacity="0.5" stroke="blue" points="186.61756402368,247.15550467979926 125.00716786042605,230.9004237514131 "/><polyline class="polyline" opacity="0.5" stroke="blue" points="186.9122508234459,248.36702188264522 124.81917140396013,232.14763381218782 "/><polyline class="polyline" opacity="0.5" stroke="blue" points="187.21220879694704,249.55008374009103 124.65137557666706,233.40423892008772 "/><polyline class="polyline" opacity="0.5" stroke="blue" points="187.5172285144305,250.70415569327758 124.50403498437824,234.6690870694364 "/><polyline class="polyline" opacity="0.5" stroke="blue" points="187.82709896350278,251.82873115781996 124.37738683437794,235.9409959135761 "/><polyline class="polyline" opacity="0.5" stroke="blue" points="188.14160780956192,252.92333159307373 124.27165023321774,237.21875444350013 "/><polyline class="polyline" opacity="0.5" stroke="blue" points="188.46054165233124,253.98750652320257 124.18702551864189,238.50112476199706 "/><polyline class="polyline" opacity="0.5" stroke="blue" points="188.78368627799296,255.02083351131205 124.1236936285853,239.78684394907592 "/><polyline class="polyline" opacity="0.5" stroke="blue" points="189.110826906451,256.0229180880278 124.08181551009673,241.07462601393158 "/><polyline class="polyline" opacity="0.5" stroke="blue" points="189.44174843328085,256.9933936359911 124.06153157091347,242.3631639282082 "/><polyline class="polyline" opacity="0.5" stroke="blue" points="189.7762356659565,257.9319212318383 124.06296117626752,243.65113173484397 "/><polyline class="polyline" opacity="0.5" stroke="blue" points="190.11407355397435,258.83818944730785 124.08620219333886,244.9371867263234 "/><polyline class="polyline" opacity="0.5" stroke="blue" points="190.4550474125266,259.71191411119173 124.13133058558849,246.2199716857424 "/><polyline class="polyline" opacity="0.5" stroke="blue" points="190.79894313940895,260.5528380339099 124.19840005900417,247.4981171836945 "/><polyline class="polyline" opacity="0.5" stroke="blue" points="191.14554742487724,261.3607306965348 124.28744176207888,248.77024392362875 "/><polyline class="polyline" opacity="0.5" stroke="blue" points="191.4946479542013,262.1353879061416 124.39846404111015,250.0349651280136 "/><polyline class="polyline" opacity="0.5" stroke="blue" points="191.84603360269506,262.87663141938776 124.53145225216915,251.29088895736007 "/><polyline class="polyline" opacity="0.5" stroke="blue" points="192.19949462303208,263.5843085362561 124.68636863083387,252.53662095392914 "/><polyline class="polyline" opacity="0.5" stroke="blue" points="192.55482282468674,264.25829166590745 124.8631522205196,253.77076650175803 "/><polyline class="polyline" opacity="0.5" stroke="blue" points="192.9118117453712,264.8984778666015 125.06171885996923,254.99193329450878 "/><polyline class="polyline" opacity="0.5" stroke="blue" points="193.27025681436652,265.5047883616431 125.2819612301925,256.1987338025526 "/><polyline class="polyline" opacity="0.5" stroke="blue" points="193.62995550767425,266.0771680333047 125.52374896086305,257.3897877306707 "/><polyline class="polyline" opacity="0.5" stroke="blue" points="193.9907074949424,266.6155848966632 125.78692879590334,258.5637244577681 "/><polyline class="polyline" opacity="0.5" stroke="blue" points="194.35231477814523,267.1200295552679 126.07132481770911,259.71918545006974 "/><polyline class="polyline" opacity="0.5" stroke="blue" points="194.71458182202088,267.5905146405305 126.37673872918762,260.85482663938643 "/><polyline class="polyline" opacity="0.5" stroke="blue" points="195.0773156762954,268.02707423669744 126.70295019251462,261.9693207582122 "/><polyline class="polyline" opacity="0.5" stroke="blue" points="195.4403260897427,268.4297632932226 127.04971722324893,263.0613596236354 "/><polyline class="polyline" opacity="0.5" stroke="blue" points="195.80342561615282,268.79865702632384 127.41677663819108,264.1296563623181 "/><polyline class="polyline" opacity="0.5" stroke="blue" points="196.16642971229933,269.1338503114527 127.80384455512687,265.1729475691109 "/><polyline class="polyline" opacity="0.5" stroke="blue" points="196.529156828016,269.4354570683612 128.21061694236494,266.1899953922292 "/><polyline class="polyline" opacity="0.5" stroke="blue" points="196.89142848851014,269.703609640393 128.6367702157629,267.1795895383169 "/><polyline class="polyline" opacity="0.5" stroke="blue" points="197.25306936905534,269.9384581695706 129.08196188073288,268.14054919115586 "/><polyline class="polyline" opacity="0.5" stroke="blue" points="197.61390736222194,270.14016996898994 129.54583121653485,269.07172483824905 "/><polyline class="polyline" opacity="0.5" stroke="blue" points="197.97377363781544,270.3089288939718 130.02800000000002,269.972 "/><polyline class="polyline" opacity="0.5" stroke="blue" points="198.33250269570698,270.4449347133566 130.5280732656804,270.84029285673546 "/><polyline class="polyline" opacity="0.5" stroke="blue" points="198.68993241174866,270.54840248226225 131.04564009929555,271.67555776935774 "/><polyline class="polyline" opacity="0.5" stroke="blue" points="199.04590407697793,270.619561917562 131.58027446123933,272.47678668997366 "/><polyline class="polyline" opacity="0.5" stroke="blue" points="199.40026243032207,270.65865677726754 132.1315360368278,273.24301045941604 "/><polyline class="polyline" opacity="0.5" stroke="blue" points="199.75285568502187,270.66594424494 132.69897110990618,273.97329998915245 "/><polyline class="polyline" opacity="0.5" stroke="blue" points="200.10353554899936,270.64169432018184 133.28211345638775,274.6667673256564 "/><polyline class="polyline" opacity="0.5" stroke="blue" points="200.4521572393994,270.58618921619484 133.88048525428192,275.3225665958941 "/><polyline class="polyline" opacity="0.5" stroke="blue" points="200.7985794915385,270.49972276532515 134.49359800676328,275.93989483315613 "/><polyline class="polyline" opacity="0.5" stroke="blue" points="201.14266456249803,270.38259983344847 135.12095347485803,276.5179926830251 "/><polyline class="polyline" opacity="0.5" stroke="blue" points="201.48427822960008,270.2351357439842 135.76204461636058,277.05614498982305 "/><polyline class="polyline" opacity="0.5" stroke="blue" points="201.8232897840057,270.0576557122631 136.4163565276525,277.55368126441397 "/><polyline class="polyline" opacity="0.5" stroke="blue" points="202.15957201967595,269.85049429091265 137.0833673851718,278.0099760347526 "/><polyline class="polyline" opacity="0.5" stroke="blue" points="202.49300121793456,269.6139948268591 137.76254938337166,278.4244490810586 "/><polyline class="polyline" opacity="0.5" stroke="blue" points="202.82345712787142,269.3485089304909 138.4533696661163,278.79656555796134 "/><polyline class="polyline" opacity="0.5" stroke="blue" points="203.1508229428224,269.0543959574677 139.1552912485804,279.125836006393 "/><polyline class="polyline" opacity="0.5" stroke="blue" points="203.47498527315992,268.7320225036027 139.86777392685656,279.41181625841716 "/><polyline class="polyline" opacity="0.5" stroke="blue" points="203.79583411562507,268.3817619131963 140.59027517261487,279.6541072385492 "/><polyline class="polyline" opacity="0.5" stroke="blue" points="204.1132628194283,268.00399380114334 141.32225101031779,279.85235466546743 "/><polyline class="polyline" opacity="0.5" stroke="blue" points="204.4271680493416,267.5991035890892 142.06315687465275,280.0062486583164 "/><polyline class="polyline" opacity="0.5" stroke="blue" points="204.73744974600154,267.16748205586265 142.81244844601676,280.11552325207657 "/><polyline class="polyline" opacity="0.5" stroke="blue" points="205.04401108363606,266.70952490236635 143.56958246206034,280.17995582670767 "/><polyline class="polyline" opacity="0.5" stroke="blue" points="205.34675842542407,266.22563233106615 144.33401750347807,280.1993664549727 "/><polyline class="polyline" opacity="0.5" stroke="blue" points="205.64560127669077,265.71620864017734 145.10521475241046,280.1736171740133 "/><polyline class="polyline" opacity="0.5" stroke="blue" points="205.94045223613617,265.18166183260786 145.88263872200923,280.10261118587914 "/><polyline class="polyline" opacity="0.5" stroke="blue" points="206.23122694528797,264.6224032396838 146.66575795589446,279.98629199230515 "/><polyline class="polyline" opacity="0.5" stroke="blue" points="206.51784403636415,264.0388471596476 147.45404569641434,279.8246424691001 "/><polyline class="polyline" opacity="0.5" stroke="blue" points="206.80022507872442,263.4314105108873 148.24698052079754,279.61768388553503 "/><polyline class="polyline" opacity="0.5" stroke="blue" points="207.078294524083,262.80051249982495 149.0440469444584,279.3654748741285 "/><polyline class="polyline" opacity="0.5" stroke="blue" points="207.3519796506491,262.14657430336814 149.8447359908888,279.06811035619324 "/><polyline class="polyline" opacity="0.5" stroke="blue" points="207.6212105063547,261.4700187657984 150.64854572773007,278.72572042846025 "/><polyline class="polyline" opacity="0.5" stroke="blue" points="207.88591985132334,260.7712701099491 151.454981768781,278.3384692160164 "/><polyline class="polyline" opacity="0.5" stroke="blue" points="208.14604309972572,260.0507536625051 152.26355774184444,277.9065536966913 "/><polyline class="polyline" opacity="0.5" stroke="blue" points="208.4015182611642,259.3088955932328 153.07379572246163,277.4302025019076 "/><polyline class="polyline" opacity="0.5" stroke="blue" points="208.6522858817179,258.5461226679366 153.8852266337163,276.9096746988702 "/><polyline class="polyline" opacity="0.5" stroke="blue" points="208.89828898477796,257.7628620149147 154.69739061242123,276.34525855880963 "/><polyline class="polyline" opacity="0.5" stroke="blue" points="209.13947301179374,256.95954090468007 155.50983734211502,275.7372703158264 "/><polyline class="polyline" opacity="0.5" stroke="blue" points="209.37578576304426,256.13658654269335 156.32212635340838,275.0860529206976 "/><polyline class="polyline" opacity="0.5" stroke="blue" points="209.6071773385459,255.29442587484567 157.13382729232166,274.39197479381 "/><polyline class="polyline" opacity="0.5" stroke="blue" points="209.83360007919805,254.43348540541908 157.94452015734322,273.6554285811825 "/><polyline class="polyline" opacity="0.5" stroke="blue" points="210.0550085082655,253.55419102724295 158.7537955060268,272.87682991732765 "/><polyline class="polyline" opacity="0.5" stroke="blue" points="210.27135927328894,252.6569678637585 159.56125463201363,272.05661619848763 "/><polyline class="polyline" opacity="0.5" stroke="blue" points="210.48261108851025,251.74224012269434 160.3665097134373,271.1952453695581 "/><polyline class="polyline" opacity="0.5" stroke="blue" points="210.6887246778943,250.81043096105483 161.1691839337201,270.29319472779247 "/><polyline class="polyline" opacity="0.5" stroke="blue" points="210.8896627188229,249.8619623611158 161.96891157582348,269.3509597461566 "/><polyline class="polyline" opacity="0.5" stroke="blue" points="211.08538978653263,248.8972550171208 162.76533809105058,268.36905291898415 "/><polyline class="polyline" opacity="0.5" stroke="blue" points="211.27587229936282,247.9167282323684 163.55812014353756,267.3480026323591 "/><polyline class="polyline" opacity="0.5" stroke="blue" points="211.46107846487604,246.92079982637898 164.34692563159027,266.2883520614409 "/><polyline class="polyline" opacity="0.5" stroke="blue" points="211.6409782269081,245.90988605183048 165.1314336870468,265.1906580967316 "/><polyline class="polyline" opacity="0.5" stroke="blue" points="211.81554321360173,244.88440152095234 165.91133465385406,264.05549030108193 "/><polyline class="polyline" opacity="0.5" stroke="blue" points="211.9847466864726,243.8447591410661 166.68633004705663,262.8834298990271 "/><polyline class="polyline" opacity="0.5" stroke="blue" points="212.14856349055393,242.79137005896547 167.45613249339328,261.6750687998557 "/><polyline class="polyline" opacity="0.5" stroke="blue" points="212.30697000566101,241.72464361382822 168.22046565469373,260.4310086556229 "/><polyline class="polyline" opacity="0.5" stroke="blue" points="212.45994409881445,240.6449872983565 168.97906413525783,259.1518599551439 "/><polyline class="polyline" opacity="0.5" stroke="blue" points="212.6074650778573,239.55280672784423 169.73167337438474,257.8382411548315 "/><polyline class="polyline" opacity="0.5" stroke="blue" points="212.74951364629794,238.44850561687332 170.47804952520283,256.4907778470804 "/><polyline class="polyline" opacity="0.5" stroke="blue" points="212.88607185940782,237.3324857633466 171.21795932092706,255.11010196674727 "/><polyline class="polyline" opacity="0.5" stroke="blue" points="213.0171230816006,236.2051470395653 171.9511799296492,253.69685103613196 "/><polyline class="polyline" opacity="0.5" stroke="blue" points="213.14265194511609,235.06688739006717 172.67749879873406,252.2516674487287 "/><polyline class="polyline" opacity="0.5" stroke="blue" points="213.2626443100305,233.91810283594305 173.3967134898699,250.77519779189151 "/><polyline class="polyline" opacity="0.5" stroke="blue" points="213.37708722561166,232.75918748535705 174.1086315057829,249.26809220844098 "/><polyline class="polyline" opacity="0.5" stroke="blue" points="213.4859688930362,231.59053354999656 174.81307010959884,247.73100379712838 "/><polyline class="polyline" opacity="0.5" stroke="blue" points="213.58927862948323,230.4125313671879 175.50985613779253,246.164588051778 "/><polyline class="polyline" opacity="0.5" stroke="blue" points="213.68700683361797,229.22556942741383 176.19882580763525,244.5695023388328 "/><polyline class="polyline" opacity="0.5" stroke="blue" points="213.77914495247543,228.03003440697853 176.87982452000824,242.94640541295104 "/><polyline class="polyline" opacity="0.5" stroke="blue" points="213.8656854497548,226.82631120556678 177.55270665841635,241.2959569702212 "/><polyline class="polyline" opacity="0.5" stroke="blue" points="213.94662177553192,225.61478298845148 178.21733538499558,239.61881723849942 "/><polyline class="polyline" opacity="0.5" stroke="blue" points="214.02194833739674,224.3958312331094 178.87358243426948,237.91564660431453 "/><polyline class="polyline" opacity="0.5" stroke="blue" points="214.09166047302094,223.1698357800064 179.52132790537402,236.18710527573003 "/><polyline class="polyline" opacity="0.5" stroke="blue" points="214.15575442416065,221.93717488732264 180.1604600534294,234.43385298050993 "/><polyline class="polyline" opacity="0.5" stroke="blue" points="214.2142273120964,220.69822528938934 180.7908750807021,232.6565486988946 "/><polyline class="polyline" opacity="0.5" stroke="blue" points="214.26707711451363,219.45336225861683 181.4124769281618,230.85585043026165 "/><polyline class="polyline" opacity="0.5" stroke="blue" points="214.31430264382442,218.20295967069396 182.02517706800387,229.03241499291516 "/><polyline class="polyline" opacity="0.5" stroke="blue" points="214.35590352693154,216.94739007284727 182.62889429767085,227.1868978562295 "/><polyline class="polyline" opacity="0.5" stroke="blue" points="214.391880186434,215.68702475494968 183.22355453587292,225.31995300435224 "/><polyline class="polyline" opacity="0.5" stroke="blue" points="214.42223382327455,214.42223382327455 183.80909062107352,223.43223283066226 "/><polyline class="polyline" opacity="0.5" stroke="blue" points="214.44696640082637,213.15338627669257 184.38544211287524,221.52438806216554 "/><polyline class="polyline" opacity="0.5" stroke="blue" points="214.4660806304184,211.88085008511388 184.9525550967083,219.5970677130101 "/><polyline class="polyline" opacity="0.5" stroke="blue" points="214.47957995829634,210.60499226998127 185.51038199219536,217.6509190662987 "/><polyline class="polyline" opacity="0.5" stroke="blue" points="214.48746855401703,209.3261789866233 186.05888136553688,215.68658768338116 "/><polyline class="polyline" opacity="0.5" stroke="blue" points="214.4897513002728,208.04477560827743 186.59801774623435,213.70471743980826 "/><polyline class="polyline" opacity="0.5" stroke="blue" points="214.48643378414303,206.76114681159805 187.1277614484431,211.70595058714102 "/><polyline class="polyline" opacity="0.5" stroke="blue" points="214.47752228976913,205.47565666346676 187.64808839721894,209.6909278398171 "/><polyline class="polyline" opacity="0.5" stroke="blue" points="214.4630237924487,204.1886687089212 188.15897995990343,207.66028848628255 "/><polyline class="polyline" opacity="0.5" stroke="blue" points="214.44294595414578,202.9005460600247 188.66042278286577,205.61467052361542 "/><polyline class="polyline" opacity="0.5" stroke="blue" points="214.41729712041212,201.61165148549733 189.15240863380174,203.5547108148753 "/><polyline class="polyline" opacity="0.5" stroke="blue" points="214.38608631871534,200.32234750093292 189.63493424976775,201.48104526843423 "/><polyline class="polyline" opacity="0.5" stroke="blue" points="214.34932325816993,199.03299645942448 190.1080011911107,199.39430903854944 "/><polyline class="polyline" opacity="0.5" stroke="blue" points="214.30701833066544,197.7439606424246 190.57161570143612,197.2951367464639 "/><polyline class="polyline" opacity="0.5" stroke="blue" points="214.259182613388,196.45560235066444 191.02578857374093,195.18416272132797 "/><polyline class="polyline" opacity="0.5" stroke="blue" points="214.2058278727292,195.16828399495927 191.47053502282105,193.0620212602573 "/><polyline class="polyline" opacity="0.5" stroke="blue" points="214.1469665695783,193.88236818672328 191.90587456405092,190.92934690685044 "/><polyline class="polyline" opacity="0.5" stroke="blue" points="214.08261186599086,192.59821782802058 192.33183089861717,188.7867747475093 "/><polyline class="polyline" opacity="0.5" stroke="blue" points="214.01277763323,191.3161962009753 192.74843180527762,186.63494072491594 "/><polyline class="polyline" opacity="0.5" stroke="blue" points="213.93747846117287,190.03666705636635 193.15570903870335,184.47448196803467 "/><polyline class="polyline" opacity="0.5" stroke="blue" points="213.85672966907774,188.75999470122613 193.55369823445307,182.3060371380152 "/><polyline class="polyline" opacity="0.5" stroke="blue" points="213.77054731770411,187.48654408526562 193.94243882061713,180.13024678938604 "/><polyline class="polyline" opacity="0.5" stroke="blue" points="213.67894822278035,186.21668088594495 194.32197393615985,177.94775374593675 "/><polyline class="polyline" opacity="0.5" stroke="blue" points="213.58194996981123,184.95077159200486 194.69235035598047,175.7592034906885 "/><polyline class="polyline" opacity="0.5" stroke="blue" points="213.47957093021816,183.6891835852747 195.05361842270437,173.56524456936302 "/><polyline class="polyline" opacity="0.5" stroke="blue" points="213.37183027880434,182.432285220568 195.40583198520946,171.36652900675782 "/><polyline class="polyline" opacity="0.5" stroke="blue" points="213.25874801253673,181.18044590347642 195.7490483438842,169.16371273544064 "/><polyline class="polyline" opacity="0.5" stroke="blue" points="213.1403449706355,179.93403616586573 196.0833282026086,166.95745603616564 "/><polyline class="polyline" opacity="0.5" stroke="blue" points="213.01664285596186,178.6934277388789 196.40873562744216,164.74842398941792 "/><polyline class="polyline" opacity="0.5" stroke="blue" points="212.8876642576938,177.45899362324363 196.72533801199683,162.5372869374762 "/><polyline class="polyline" opacity="0.5" stroke="blue" points="212.75343267527924,176.23110815668252 197.03320604946737,160.3247209563812 "/><polyline class="polyline" opacity="0.5" stroke="blue" points="212.613972543654,175.01014707821471 197.3324137112857,158.11140833717275 "/><polyline class="polyline" opacity="0.5" stroke="blue" points="212.46930925971256,173.7964875891383 197.62303823236016,155.89803807574958 "/><polyline class="polyline" opacity="0.5" stroke="blue" points="212.3194692100176,172.5905084104774 197.90516010285455,153.6853063706816 "/><polyline class="polyline" opacity="0.5" stroke="blue" points="212.16447979973313,171.39258983667088 198.17886306645724,151.4739171282759 "/><polyline class="polyline" opacity="0.5" stroke="blue" points="212.00436948276575,170.20311378527924 198.44423412508303,149.26458247417497 "/><polyline class="polyline" opacity="0.5" stroke="blue" points="211.839167793096,169.02246384247763 198.70136354994662,147.05802327072647 "/><polyline class="polyline" opacity="0.5" stroke="blue" points="211.66890537728148,167.85102530410174 198.95034489893752,144.85496963933343 "/><polyline class="polyline" opacity="0.5" stroke="blue" points="211.49361402811107,166.689185212005 199.19127504022254,142.6561614869442 "/><polyline class="polyline" opacity="0.5" stroke="blue" points="211.3133267193884,165.53733238548318 199.42425418199238,140.4623490358024 "/><polyline class="polyline" opacity="0.5" stroke="blue" points="211.128077641821,164.3958574475162 199.64938590826318,138.27429335552085 "/><polyline class="polyline" opacity="0.5" stroke="blue" points="210.93790223998892,163.26515284557306 199.8667772206338,136.09276689649357 "/><polyline class="polyline" opacity="0.5" stroke="blue" points="210.74283725036608,162.1456128667194 200.0765385858935,133.91855402359081 "/><polyline class="polyline" opacity="0.5" stroke="blue" points="210.54292074036383,161.03763364676342 200.27878398936244,131.75245154902484 "/><polyline class="polyline" opacity="0.5" stroke="blue" points="210.33819214836473,159.9416131731704 200.47363099383895,129.59526926319623 "/><polyline class="polyline" opacity="0.5" stroke="blue" points="210.12869232471274,158.85795128147288 200.66120080401603,127.4478304622596 "/><polyline class="polyline" opacity="0.5" stroke="blue" points="209.91446357362202,157.78704964489594 200.84161833621695,125.31097247105879 "/><polyline class="polyline" opacity="0.5" stroke="blue" points="209.6955496959649,156.7293117569154 201.01501229328747,123.18554715999929 "/><polyline class="polyline" opacity="0.5" stroke="blue" points="209.4719960328969,155.68514290646243 201.18151524446776,121.07242145433155 "/><polyline class="polyline" opacity="0.5" stroke="blue" points="209.24384951027255,154.65495014548142 201.3412637100513,118.97247783421513 "/><polyline class="polyline" opacity="0.5" stroke="blue" points="209.01115868380384,153.6391422485483 201.49439825062234,116.88661482383515 "/><polyline class="polyline" opacity="0.5" stroke="blue" points="208.77397378490912,152.63812966424916 201.6410635606454,114.81574746772564 "/><polyline class="polyline" opacity="0.5" stroke="blue" points="208.5323467671971,151.65232445802067 201.78140856615994,112.7608077923449 "/><polyline class="polyline" opacity="0.5" stroke="blue" points="208.2863313535273,150.6821402461464 201.91558652631457,110.72274525081778 "/><polyline class="polyline" opacity="0.5" stroke="blue" points="208.0359830835832,149.7279921206055 202.04375513845113,108.70252714863933 "/><polyline class="polyline" opacity="0.5" stroke="blue" points="207.78135936189295,148.7902965644661 202.1660766464265,106.70113904799747 "/><polyline class="polyline" opacity="0.5" stroke="blue" points="207.52251950622573,147.86947135751677 202.28271795183332,104.71958514823727 "/><polyline class="polyline" opacity="0.5" stroke="blue" points="207.25952479628967,146.96593547182763 202.39385072775514,102.75888863984223 "/><polyline class="polyline" opacity="0.5" stroke="blue" points="206.99243852265158,146.08010895693548 202.4996515346611,100.82009202916569 "/><polyline class="polyline" opacity="0.5" stroke="blue" points="206.72132603579556,145.2124128143455 202.60030193801612,98.9042574309902 "/><polyline class="polyline" opacity="0.5" stroke="blue" points="206.44625479523177,144.3632688610491 202.6959886271488,97.01246682584215 "/><polyline class="polyline" opacity="0.5" stroke="blue" points="206.16729441856253,143.53309958175555 202.78690353488642,95.14582227882451 "/><polyline class="polyline" opacity="0.5" stroke="blue" points="205.88451673040794,142.7223279695428 202.87324395742897,93.3054461165773 "/><polyline class="polyline" opacity="0.5" stroke="blue" points="205.59799581108857,141.93137735463736 202.95521267389773,91.4924810588104 "/><polyline class="polyline" opacity="0.5" stroke="blue" points="205.30780804495714,141.16067122103823 203.03301806495335,89.70809030069007 "/><polyline class="polyline" opacity="0.5" stroke="blue" points="205.01403216826634,140.41063301070903 203.10687422983744,87.95345754220114 "/><polyline class="polyline" opacity="0.5" stroke="blue" points="204.71674931645464,139.68168591507066 203.17700110114941,86.22978696044525 "/><polyline class="polyline" opacity="0.5" stroke="blue" points="204.41604307072686,138.9742526535374 203.2436245566239,84.53830312067916 "/><polyline class="polyline" opacity="0.5" stroke="blue" points="204.1119995038005,138.2887552388504 203.30697652713107,82.88025082174195 "/><polyline class="polyline" opacity="0.5" stroke="blue" points="203.80470722468374,137.62561472897625 203.36729510007194,81.25689487137444 "/><polyline class="polyline" opacity="0.5" stroke="blue" points="203.49425742234587,136.9852509653523 203.4248246172945,79.66951978679427 "/><polyline class="polyline" opacity="0.5" stroke="blue" points="203.1807439081347,136.36808229727887 203.479815766606,78.11942941576 "/><polyline class="polyline" opacity="0.5" stroke="blue" points="202.86426315679148,135.7745252922732 203.5325256659072,76.60794647323637 "/><polyline class="polyline" opacity="0.5" stroke="blue" points="202.54491434590702,135.20499443222238 203.5832179389238,75.13641198867236 "/><polyline class="polyline" opacity="0.5" stroke="blue" points="202.22279939365865,134.65990179519355 203.6321627814599,73.70618465880968 "/><polyline class="polyline" opacity="0.5" stroke="blue" points="201.89802299466209,134.13965672278385 203.67963701704693,72.31864010087511 "/></svg>
