<?xml version="1.0" encoding="UTF-8"?>
<!DOCTYPE svg PUBLIC "-//W3C//DTD SVG 1.1//EN"
    "http://www.w3.org/Graphics/SVG/1.1/DTD/svg11.dtd"><svg width="400" height="400" stroke="black" fill="none" fill-opacity="0.75" font-style="italic" font-family="CMU Serif, sans-serif" xmlns="http://www.w3.org/2000/svg" xmlns:xlink="http://www.w3.org/1999/xlink" version="1.1"><filter id="blur"><feGaussianBlur stdDeviation="2"/></filter><rect width="100%" height="100%" fill="white" stroke="none" fill-opacity="1"/><polygon points="189.8343625765351,-5.684341886080802e-14 247.7476114110737,400.00000000000006 " stroke-opacity="0.25" stroke="green"/><polygon points="181.6038376267207,0.0 286.40607330995766,400.0 " stroke-opacity="0.25" stroke="green"/><polygon points="174.8038987226593,-5.684341886080802e-14 318.345127093316,400.00000000000006 " stroke-opacity="0.25" stroke="green"/><polygon points="169.0913838795189,0.0 345.17659152078625,400.0 " stroke-opacity="0.25" stroke="green"/><polygon points="164.22475974444544,-5.684341886080802e-14 368.03493954221705,400.00000000000006 " stroke-opacity="0.25" stroke="green"/><polygon points="160.02909296272733,0.0 387.7418264553197,400.0 " stroke-opacity="0.25" stroke="green"/><polygon points="156.37457532421018,0.0 400.00000000000006,392.1025076064212 " stroke-opacity="0.25" stroke="green"/><polygon points="153.1628548684801,0.0 400.00000000000006,370.0298651510679 " stroke-opacity="0.25" stroke="green"/><polygon points="150.31805172606087,-5.684341886080802e-14 400.00000000000006,352.8622543524597 " stroke-opacity="0.25" stroke="green"/><polygon points="147.7806867161711,-5.684341886080802e-14 400.00000000000006,339.1281657135732 " stroke-opacity="0.25" stroke="green"/><polygon points="145.50347744497378,0.0 400.00000000000006,327.8911840999387 " stroke-opacity="0.25" stroke="green"/><polygon points="143.44836442360338,0.0 400.00000000000006,318.52703275524334 " stroke-opacity="0.25" stroke="green"/><polygon points="141.58436685560082,0.0 400.00000000000006,310.6035200789626 " stroke-opacity="0.25" stroke="green"/><polygon points="139.8860100490247,0.0 400.00000000000006,303.8119377850078 " stroke-opacity="0.25" stroke="green"/><polygon points="138.33215422920014,0.0 400.00000000000006,297.9258997969135 " stroke-opacity="0.25" stroke="green"/><polygon points="208.58303532707978,0.0 229.18406759093776,400.0 " stroke-opacity="0.25" stroke="green"/><polygon points="198.5234110729108,0.0 269.7894882353109,400.0 " stroke-opacity="0.25" stroke="green"/><polygon points="190.2194071567464,0.0 303.308391479499,400.0 " stroke-opacity="0.25" stroke="green"/><polygon points="183.24831894988236,0.0 331.44701394061457,400.0 " stroke-opacity="0.25" stroke="green"/><polygon points="177.31306069461334,0.0 355.40453481802786,400.0 " stroke-opacity="0.25" stroke="green"/><polygon points="172.1987285521136,0.0 376.0484080596329,400.0 " stroke-opacity="0.25" stroke="green"/><polygon points="167.74602155811246,0.0 394.0216480067045,400.0 " stroke-opacity="0.25" stroke="green"/><polygon points="163.83435122693217,0.0 400.0,384.04562901299437 " stroke-opacity="0.25" stroke="green"/><polygon points="160.37075544571053,0.0 400.0,363.87269468527336 " stroke-opacity="0.25" stroke="green"/><polygon points="157.28241567112687,0.0 400.0,348.0129911777268 " stroke-opacity="0.25" stroke="green"/><polygon points="154.51148127056004,0.0 400.0,335.21678705869476 " stroke-opacity="0.25" stroke="green"/><polygon points="152.01141165854818,0.0 400.00000000000006,324.67463054793825 " stroke-opacity="0.25" stroke="green"/><polygon points="149.7443411394353,5.684341886080802e-14 400.0,315.839156050883 " stroke-opacity="0.25" stroke="green"/><polygon points="147.67914771299658,-5.684341886080802e-14 400.0,308.32695378335006 " stroke-opacity="0.25" stroke="green"/><polygon points="145.79001579359442,-5.684341886080802e-14 400.0,301.86145814581175 " stroke-opacity="0.25" stroke="green"/><polygon points="227.58193857776183,0.0 210.74955883287467,400.0 " stroke-opacity="0.25" stroke="green"/><polygon points="215.5456803654919,0.0 253.68917629050196,400.0 " stroke-opacity="0.25" stroke="green"/><polygon points="205.6358529864946,0.0 289.0427047061255,400.0 " stroke-opacity="0.25" stroke="green"/><polygon points="197.33468280152445,-5.684341886080802e-14 318.65731299276985,400.00000000000006 " stroke-opacity="0.25" stroke="green"/><polygon points="190.27987650810067,0.0 343.82549052226705,400.0 " stroke-opacity="0.25" stroke="green"/><polygon points="184.21033566556463,5.684341886080802e-14 365.4787117581043,399.99999999999994 " stroke-opacity="0.25" stroke="green"/><polygon points="178.93313098897218,-5.684341886080802e-14 384.3052561926098,400.00000000000006 " stroke-opacity="0.25" stroke="green"/><polygon points="174.30261798509875,0.0 400.00000000000006,398.54369389501244 " stroke-opacity="0.25" stroke="green"/><polygon points="170.20678709740244,-5.684341886080802e-14 400.0,374.82088201731295 " stroke-opacity="0.25" stroke="green"/><polygon points="166.55808417612408,-5.684341886080802e-14 400.0,356.5421817578931 " stroke-opacity="0.25" stroke="green"/><polygon points="163.28708164251898,0.0 400.0,342.02645303713905 " stroke-opacity="0.25" stroke="green"/><polygon points="160.3380183467465,-5.684341886080802e-14 400.0,330.22013751134693 " stroke-opacity="0.25" stroke="green"/><polygon points="157.66559458869992,-5.684341886080802e-14 400.0,320.42940545431526 " stroke-opacity="0.25" stroke="green"/><polygon points="155.23262866842595,-5.684341886080802e-14 400.00000000000006,312.1786977845111 " stroke-opacity="0.25" stroke="green"/><polygon points="153.0083163663643,-5.684341886080802e-14 400.0,305.13115257388756 " stroke-opacity="0.25" stroke="green"/><polygon points="247.203891724145,-5.684341886080802e-14 192.09937122018786,400.00000000000006 " stroke-opacity="0.25" stroke="green"/><polygon points="232.9480757303264,-5.684341886080802e-14 237.8680436213949,400.00000000000006 " stroke-opacity="0.25" stroke="green"/><polygon points="221.26315198903876,-5.684341886080802e-14 275.38279879079204,400.00000000000006 " stroke-opacity="0.25" stroke="green"/><polygon points="211.51119094317272,0.0 306.69172635909877,400.0 " stroke-opacity="0.25" stroke="green"/><polygon points="203.24919696232905,0.0 333.2170754554917,400.0 " stroke-opacity="0.25" stroke="green"/><polygon points="196.15993461124242,0.0 355.9773387931908,400.0 " stroke-opacity="0.25" stroke="green"/><polygon points="190.0102590742888,0.0 375.7210339381471,400.0 " stroke-opacity="0.25" stroke="green"/><polygon points="184.6249851015763,0.0 393.01059774527675,400.0 " stroke-opacity="0.25" stroke="green"/><polygon points="179.86993001965743,-5.684341886080802e-14 400.0,385.50511859265066 " stroke-opacity="0.25" stroke="green"/><polygon points="175.6405808981253,5.684341886080802e-14 400.00000000000006,364.49397150786206 " stroke-opacity="0.25" stroke="green"/><polygon points="171.85432360175707,5.684341886080802e-14 400.0,348.1056526462655 " stroke-opacity="0.25" stroke="green"/><polygon points="168.44499266359972,5.684341886080802e-14 400.0,334.9657069940316 " stroke-opacity="0.25" stroke="green"/><polygon points="165.35897167953482,-5.684341886080802e-14 399.99999999999994,324.195417662464 " stroke-opacity="0.25" stroke="green"/><polygon points="162.5523528903759,0.0 399.99999999999994,315.2067888669644 " stroke-opacity="0.25" stroke="green"/><polygon points="159.9888348489374,-5.684341886080802e-14 400.0,307.59150034651486 " stroke-opacity="0.25" stroke="green"/><polygon points="267.87554902669314,0.0 172.8575494480146,400.0 " stroke-opacity="0.25" stroke="green"/><polygon points="251.03859418423394,0.0 222.09012300098266,400.0 " stroke-opacity="0.25" stroke="green"/><polygon points="237.3279650207868,0.0 262.18107561461403,400.0 " stroke-opacity="0.25" stroke="green"/><polygon points="225.94688030754216,0.0 295.46025795490095,400.0 " stroke-opacity="0.25" stroke="green"/><polygon points="216.3481167591862,-5.684341886080802e-14 323.52779373163537,400.00000000000006 " stroke-opacity="0.25" stroke="green"/><polygon points="208.1433996152813,0.0 347.51902872918663,400.0 " stroke-opacity="0.25" stroke="green"/><polygon points="201.04959868507447,-5.684341886080802e-14 368.2618577819675,400.00000000000006 " stroke-opacity="0.25" stroke="green"/><polygon points="194.85539373834237,5.684341886080802e-14 386.374197780238,399.99999999999994 " stroke-opacity="0.25" stroke="green"/><polygon points="189.399865641819,0.0 400.0,395.6293154238757 " stroke-opacity="0.25" stroke="green"/><polygon points="184.5583157095684,5.684341886080802e-14 400.0,371.57074865862467 " stroke-opacity="0.25" stroke="green"/><polygon points="180.23261776482195,0.0 400.0,353.1822070392078 " stroke-opacity="0.25" stroke="green"/><polygon points="176.34449809567076,0.0 400.0,338.67055707732266 " stroke-opacity="0.25" stroke="green"/><polygon points="172.83075658388535,0.0 400.00000000000006,326.9266608132086 " stroke-opacity="0.25" stroke="green"/><polygon points="169.6398048664538,0.0 400.0,317.2276299189681 " stroke-opacity="0.25" stroke="green"/><polygon points="166.7291166641807,0.0 400.0,309.08215545243036 " stroke-opacity="0.25" stroke="green"/><polygon points="290.1188505779396,5.684341886080802e-14 152.58219580492568,399.99999999999994 " stroke-opacity="0.25" stroke="green"/><polygon points="270.18060846973077,5.684341886080802e-14 206.10400364467742,399.99999999999994 " stroke-opacity="0.25" stroke="green"/><polygon points="254.08890375205522,0.0 249.30024547177743,400.0 " stroke-opacity="0.25" stroke="green"/><polygon points="240.82853783938663,-5.684341886080802e-14 284.8960995300667,400.00000000000006 " stroke-opacity="0.25" stroke="green"/><polygon points="229.71267334191643,0.0 314.7352980099253,400.0 " stroke-opacity="0.25" stroke="green"/><polygon points="220.2600073920351,0.0 340.1098404493822,400.0 " stroke-opacity="0.25" stroke="green"/><polygon points="212.1232408313194,0.0 361.9520095802427,400.0 " stroke-opacity="0.25" stroke="green"/><polygon points="205.04547666210416,5.684341886080802e-14 380.95141442967304,399.99999999999994 " stroke-opacity="0.25" stroke="green"/><polygon points="198.8326025923302,-5.684341886080802e-14 397.6291260499022,400.00000000000006 " stroke-opacity="0.25" stroke="green"/><polygon points="193.3352150177227,0.0 400.0,377.38206858596766 " stroke-opacity="0.25" stroke="green"/><polygon points="188.43644799554596,-5.684341886080802e-14 400.0,356.91883492970624 " stroke-opacity="0.25" stroke="green"/><polygon points="184.04357289606605,0.0 400.0,341.0490073265504 " stroke-opacity="0.25" stroke="green"/><polygon points="180.08207276591176,0.0 400.0,328.38202528443355 " stroke-opacity="0.25" stroke="green"/><polygon points="176.49138066232277,0.0 400.0,318.03716594758447 " stroke-opacity="0.25" stroke="green"/><polygon points="173.2217611967505,-5.684341886080802e-14 400.0,309.4295034116957 " stroke-opacity="0.25" stroke="green"/><polygon points="314.61185565864434,0.0 130.71641598266822,400.0 " stroke-opacity="0.25" stroke="green"/><polygon points="290.8273791826715,-5.684341886080802e-14 189.6222888511244,400.00000000000006 " stroke-opacity="0.25" stroke="green"/><polygon points="271.856643660229,0.0 236.60620022857222,400.0 " stroke-opacity="0.25" stroke="green"/><polygon points="256.3725637369721,5.684341886080802e-14 274.95487880326345,399.99999999999994 " stroke-opacity="0.25" stroke="green"/><polygon points="243.49481233184943,-5.684341886080802e-14 306.848588461664,400.00000000000006 " stroke-opacity="0.25" stroke="green"/><polygon points="232.61641533964203,0.0 333.79059287714506,400.0 " stroke-opacity="0.25" stroke="green"/><polygon points="223.305295084399,0.0 356.8509981197127,400.0 " stroke-opacity="0.25" stroke="green"/><polygon points="215.24550889904833,0.0 376.81228424937876,400.0 " stroke-opacity="0.25" stroke="green"/><polygon points="208.20068708349297,5.684341886080802e-14 394.2598567728794,399.99999999999994 " stroke-opacity="0.25" stroke="green"/><polygon points="201.99046537912082,0.0 399.99999999999994,381.42948705252167 " stroke-opacity="0.25" stroke="green"/><polygon points="196.47482516436247,0.0 400.0,358.9099203541581 " stroke-opacity="0.25" stroke="green"/><polygon points="191.54340977971032,0.0 400.00000000000006,341.7731176818254 " stroke-opacity="0.25" stroke="green"/><polygon points="187.10806499222736,0.0 399.99999999999994,328.29517632414803 " stroke-opacity="0.25" stroke="green"/><polygon points="183.0975228087153,-5.684341886080802e-14 400.0,317.4173252098866 " stroke-opacity="0.25" stroke="green"/><polygon points="179.45354298254705,-5.684341886080802e-14 400.00000000000006,308.4533609834616 " stroke-opacity="0.25" stroke="green"/><polygon points="342.2855519672363,0.0 106.51183209136246,400.0 " stroke-opacity="0.25" stroke="green"/><polygon points="313.57398202465686,0.0 172.2928552038087,400.0 " stroke-opacity="0.25" stroke="green"/><polygon points="291.0226571374122,0.0 223.96015262400866,400.0 " stroke-opacity="0.25" stroke="green"/><polygon points="272.8410803457718,0.0 265.61592852005026,400.0 " stroke-opacity="0.25" stroke="green"/><polygon points="257.87135153323976,0.0 299.9130456395104,400.0 " stroke-opacity="0.25" stroke="green"/><polygon points="245.33146435487842,0.0 328.64315722717186,400.0 " stroke-opacity="0.25" stroke="green"/><polygon points="234.67422157420776,0.0 353.05994582745643,400.0 " stroke-opacity="0.25" stroke="green"/><polygon points="225.50525761589427,-5.684341886080802e-14 374.06694165754305,400.00000000000006 " stroke-opacity="0.25" stroke="green"/><polygon points="217.5331638837073,0.0 392.3317903962347,400.0 " stroke-opacity="0.25" stroke="green"/><polygon points="210.53794859768783,0.0 400.00000000000006,383.09879513198916 " stroke-opacity="0.25" stroke="green"/><polygon points="204.3504217959922,0.0 400.0,358.68677411266486 " stroke-opacity="0.25" stroke="green"/><polygon points="198.83833139606344,-5.684341886080802e-14 400.0,340.48287313195056 " stroke-opacity="0.25" stroke="green"/><polygon points="193.89680447757803,0.0 400.0,326.3860978098862 " stroke-opacity="0.25" stroke="green"/><polygon points="189.4416108035099,0.0 400.0,315.147391403674 " stroke-opacity="0.25" stroke="green"/><polygon points="185.40432202141088,0.0 400.0,305.97756242731293 " stroke-opacity="0.25" stroke="green"/><polygon points="374.48892725204,5.684341886080802e-14 78.89947872590102,399.99999999999994 " stroke-opacity="0.25" stroke="green"/><polygon points="339.24063312993644,5.684341886080802e-14 153.6545746872713,399.99999999999994 " stroke-opacity="0.25" stroke="green"/><polygon points="312.10288581267656,0.0 211.20870476374006,400.0 " stroke-opacity="0.25" stroke="green"/><polygon points="290.5651891691199,0.0 256.88616574379705,400.0 " stroke-opacity="0.25" stroke="green"/><polygon points="273.05625558660546,-5.684341886080802e-14 294.019367299822,400.00000000000006 " stroke-opacity="0.25" stroke="green"/><polygon points="258.54235897425167,0.0 324.8006507931851,400.0 " stroke-opacity="0.25" stroke="green"/><polygon points="246.31556238353753,0.0 350.7314192233608,400.0 " stroke-opacity="0.25" stroke="green"/><polygon points="235.87474708467835,-5.684341886080802e-14 372.8744524968978,400.00000000000006 " stroke-opacity="0.25" stroke="green"/><polygon points="226.8552277610616,0.0 392.0031805490049,400.0 " stroke-opacity="0.25" stroke="green"/><polygon points="218.98528012897515,0.0 400.0,381.6689803246035 " stroke-opacity="0.25" stroke="green"/><polygon points="212.0582948950981,5.684341886080802e-14 400.0,355.73723413816674 " stroke-opacity="0.25" stroke="green"/><polygon points="205.91437533746017,5.684341886080802e-14 400.0,336.8073382844576 " stroke-opacity="0.25" stroke="green"/><polygon points="200.4278419440472,-5.684341886080802e-14 400.0,322.3807474822346 " stroke-opacity="0.25" stroke="green"/><polygon points="195.4985442981031,-5.684341886080802e-14 400.0,311.0213233512826 " stroke-opacity="0.25" stroke="green"/><polygon points="191.04569223544954,5.684341886080802e-14 400.0,301.84491093425936 " stroke-opacity="0.25" stroke="green"/><polygon points="400.00000000000006,14.484026007761202 46.255188896164924,400.0 " stroke-opacity="0.25" stroke="green"/><polygon points="369.0146416843658,5.684341886080802e-14 133.06345531787895,399.99999999999994 " stroke-opacity="0.25" stroke="green"/><polygon points="335.8078471812819,-5.684341886080802e-14 198.1696551341645,400.00000000000006 " stroke-opacity="0.25" stroke="green"/><polygon points="309.98034034554985,-5.684341886080802e-14 248.807810546831,400.00000000000006 " stroke-opacity="0.25" stroke="green"/><polygon points="289.31833487696423,0.0 289.31833487696423,400.0 " stroke-opacity="0.25" stroke="green"/><polygon points="272.41305767539416,0.0 322.4633093288914,400.0 " stroke-opacity="0.25" stroke="green"/><polygon points="258.3253266740858,0.0 350.0841213721641,400.0 " stroke-opacity="0.25" stroke="green"/><polygon points="246.4049389037479,0.0 373.4555777164717,400.0 " stroke-opacity="0.25" stroke="green"/><polygon points="236.18746367202976,0.0 393.4882545830211,400.0 " stroke-opacity="0.25" stroke="green"/><polygon points="227.33231847120734,-5.684341886080802e-14 400.00000000000006,376.3512415282606 " stroke-opacity="0.25" stroke="green"/><polygon points="219.58406642048772,0.0 400.0,349.5462626008162 " stroke-opacity="0.25" stroke="green"/><polygon points="212.74737343455865,5.684341886080802e-14 400.00000000000006,330.399849081213 " stroke-opacity="0.25" stroke="green"/><polygon points="206.6703130026217,-5.684341886080802e-14 400.0,316.0400389415107 " stroke-opacity="0.25" stroke="green"/><polygon points="201.2329431424676,0.0 400.00000000000006,304.87129772174217 " stroke-opacity="0.25" stroke="green"/><polygon points="196.3393102683289,0.0 400.0,295.9363047459274 " stroke-opacity="0.25" stroke="green"/><polygon points="400.0,54.43310578617866 5.937927689573996,400.0 " stroke-opacity="0.25" stroke="green"/><polygon points="400.0,6.380498354944336 109.55999738821576,400.0 " stroke-opacity="0.25" stroke="green"/><polygon points="363.161426544651,0.0 184.60949287339602,400.0 " stroke-opacity="0.25" stroke="green"/><polygon points="331.68279525929336,0.0 241.47234461649796,400.0 " stroke-opacity="0.25" stroke="green"/><polygon points="307.0079610259336,-5.684341886080802e-14 286.04484931271713,400.00000000000006 " stroke-opacity="0.25" stroke="green"/><polygon points="287.14620059974993,-5.684341886080802e-14 321.9230400838777,400.00000000000006 " stroke-opacity="0.25" stroke="green"/><polygon points="270.81439877087115,0.0 351.42473022010756,400.0 " stroke-opacity="0.25" stroke="green"/><polygon points="257.1483054588025,0.0 376.1110970086478,400.0 " stroke-opacity="0.25" stroke="green"/><polygon points="245.54451220813874,5.684341886080802e-14 397.0721346499831,399.99999999999994 " stroke-opacity="0.25" stroke="green"/><polygon points="235.56894970628034,5.684341886080802e-14 400.0,366.3732348517488 " stroke-opacity="0.25" stroke="green"/><polygon points="226.90137859754333,0.0 400.00000000000006,339.6627679058451 " stroke-opacity="0.25" stroke="green"/><polygon points="219.30037189325935,0.0 399.99999999999994,320.9883413640394 " stroke-opacity="0.25" stroke="green"/><polygon points="212.58047511593597,0.0 400.0,307.19760615043856 " stroke-opacity="0.25" stroke="green"/><polygon points="206.59687409847544,0.0 400.0,296.5963398599267 " stroke-opacity="0.25" stroke="green"/><polygon points="201.23484084348058,0.0 400.00000000000006,288.19275814407564 " stroke-opacity="0.25" stroke="green"/><polygon points="-5.684341886080802e-14,367.42277120052177 400.00000000000006,88.44745650611183 " stroke-opacity="0.25" stroke="green"/><polygon points="400.0,53.594696075218025 81.6115230998657,400.0 " stroke-opacity="0.25" stroke="green"/><polygon points="395.71441495529825,-5.684341886080802e-14 170.2043455850018,400.00000000000006 " stroke-opacity="0.25" stroke="green"/><polygon points="356.5243729270019,0.0 235.04544994005238,400.0 " stroke-opacity="0.25" stroke="green"/><polygon points="326.59921640730454,0.0 284.55752230103394,400.0 " stroke-opacity="0.25" stroke="green"/><polygon points="303.0007926221236,0.0 323.60182488598167,400.0 " stroke-opacity="0.25" stroke="green"/><polygon points="283.9145352081879,-5.684341886080802e-14 355.18061237058805,400.00000000000006 " stroke-opacity="0.25" stroke="green"/><polygon points="268.1592393536175,0.0 381.2482236763701,400.0 " stroke-opacity="0.25" stroke="green"/><polygon points="254.93290200644293,0.0 400.0,391.5475720015725 " stroke-opacity="0.25" stroke="green"/><polygon points="243.67185845093394,0.0 400.0,351.11875471530584 " stroke-opacity="0.25" stroke="green"/><polygon points="233.96836880700798,-5.684341886080802e-14 400.0,325.79228300796564 " stroke-opacity="0.25" stroke="green"/><polygon points="225.5201892598327,0.0 400.00000000000006,308.4376580520618 " stroke-opacity="0.25" stroke="green"/><polygon points="218.0985256894045,-5.684341886080802e-14 400.0,295.8028251904275 " stroke-opacity="0.25" stroke="green"/><polygon points="211.5269998562382,0.0 400.0,286.1928583269862 " stroke-opacity="0.25" stroke="green"/><polygon points="205.66745218029277,0.0 400.0,278.63762502797704 " stroke-opacity="0.25" stroke="green"/><polygon points="-5.684341886080802e-14,334.7030586514504 400.00000000000006,118.51180876305617 " stroke-opacity="0.25" stroke="green"/><polygon points="400.00000000000006,93.49549918783484 46.56281467567854,400.0 " stroke-opacity="0.25" stroke="green"/><polygon points="400.00000000000006,51.09378895295947 154.46606663949387,400.0 " stroke-opacity="0.25" stroke="green"/><polygon points="385.7805282128743,5.684341886080802e-14 229.8127161437544,399.99999999999994 " stroke-opacity="0.25" stroke="green"/><polygon points="348.759556390268,-5.684341886080802e-14 285.4057802604536,400.00000000000006 " stroke-opacity="0.25" stroke="green"/><polygon points="320.31952085898143,0.0 328.11316045425406,400.0 " stroke-opacity="0.25" stroke="green"/><polygon points="297.7868594885641,-5.684341886080802e-14 361.94964897994333,400.00000000000006 " stroke-opacity="0.25" stroke="green"/><polygon points="279.49418148047425,-5.684341886080802e-14 389.41910673061466,400.00000000000006 " stroke-opacity="0.25" stroke="green"/><polygon points="264.34764154703436,0.0 400.0,367.08317808584934 " stroke-opacity="0.25" stroke="green"/><polygon points="251.59985892560798,-5.684341886080802e-14 400.0,330.315495472565 " stroke-opacity="0.25" stroke="green"/><polygon points="240.72280853668207,0.0 400.00000000000006,307.9041674069939 " stroke-opacity="0.25" stroke="green"/><polygon points="231.33284632805686,-5.684341886080802e-14 400.00000000000006,292.8142337212517 " stroke-opacity="0.25" stroke="green"/><polygon points="223.14451815279023,0.0 399.99999999999994,281.9617673820686 " stroke-opacity="0.25" stroke="green"/><polygon points="215.9410354625272,0.0 400.00000000000006,273.78161556803144 " stroke-opacity="0.25" stroke="green"/><polygon points="209.5547997444456,0.0 400.00000000000006,267.39493438897244 " stroke-opacity="0.25" stroke="green"/><polygon points="-5.684341886080802e-14,305.46255863545707 400.00000000000006,145.9863276362479 " stroke-opacity="0.25" stroke="green"/><polygon points="0.0,399.53707660632574 400.0,128.7971687410581 " stroke-opacity="0.25" stroke="green"/><polygon points="400.00000000000006,100.31897714872959 136.58835385919014,400.0 " stroke-opacity="0.25" stroke="green"/><polygon points="399.99999999999994,43.99312940395558 226.2677349412012,400.0 " stroke-opacity="0.25" stroke="green"/><polygon points="374.47110042816803,0.0 289.44847576015917,400.0 " stroke-opacity="0.25" stroke="green"/><polygon points="339.57282683065677,5.684341886080802e-14 336.36355206789955,399.99999999999994 " stroke-opacity="0.25" stroke="green"/><polygon points="312.63437891407546,-5.684341886080802e-14 372.57793201672996,400.00000000000006 " stroke-opacity="0.25" stroke="green"/><polygon points="291.21124354616137,5.684341886080802e-14 400.00000000000006,394.9971506073232 " stroke-opacity="0.25" stroke="green"/><polygon points="273.76692258995723,0.0 400.0,334.25499431417484 " stroke-opacity="0.25" stroke="green"/><polygon points="259.2871543047989,0.0 400.0,304.2316891398916 " stroke-opacity="0.25" stroke="green"/><polygon points="247.07541312901708,-5.684341886080802e-14 400.0,286.32746768625464 " stroke-opacity="0.25" stroke="green"/><polygon points="236.63752535553402,0.0 400.0,274.4367062719964 " stroke-opacity="0.25" stroke="green"/><polygon points="227.61316168341514,0.0 399.99999999999994,265.96542668732576 " stroke-opacity="0.25" stroke="green"/><polygon points="219.7333970566924,0.0 400.0,259.6240233316574 " stroke-opacity="0.25" stroke="green"/><polygon points="212.79345608394195,-5.684341886080802e-14 400.0,254.69894715011873 " stroke-opacity="0.25" stroke="green"/><polygon points="5.684341886080802e-14,278.5584840744044 399.99999999999994,171.8787287134332 " stroke-opacity="0.25" stroke="green"/><polygon points="0.0,363.848619932936 400.0,161.35351115368678 " stroke-opacity="0.25" stroke="green"/><polygon points="400.0,144.13814689619426 115.08667438627805,400.0 " stroke-opacity="0.25" stroke="green"/><polygon points="400.0,110.88225351348686 225.29477413500928,399.99999999999994 " stroke-opacity="0.25" stroke="green"/><polygon points="400.0,19.61261975914431 298.0755086534724,400.0 " stroke-opacity="0.25" stroke="green"/><polygon points="361.4335347186259,0.0 349.72722150776417,400.0 " stroke-opacity="0.25" stroke="green"/><polygon points="328.7211991356257,5.684341886080802e-14 388.2846042020128,399.99999999999994 " stroke-opacity="0.25" stroke="green"/><polygon points="303.36890446120435,0.0 400.0,336.69973149616004 " stroke-opacity="0.25" stroke="green"/><polygon points="283.1438932673824,0.0 400.0,294.23340733341115 " stroke-opacity="0.25" stroke="green"/><polygon points="266.63358339141905,0.0 400.0,273.8073792938502 " stroke-opacity="0.25" stroke="green"/><polygon points="252.90064263310077,0.0 400.0,261.79835256116496 " stroke-opacity="0.25" stroke="green"/><polygon points="241.29862859782094,0.0 400.00000000000006,253.89250941128728 " stroke-opacity="0.25" stroke="green"/><polygon points="231.36727050277898,0.0 400.0,248.293757216566 " stroke-opacity="0.25" stroke="green"/><polygon points="222.76995004929313,0.0 400.0,244.12079997112608 " stroke-opacity="0.25" stroke="green"/><polygon points="215.25479049577982,0.0 400.0,240.8905093304245 " stroke-opacity="0.25" stroke="green"/><polygon points="0.0,253.10378261133081 400.0,197.0037935153541 " stroke-opacity="0.25" stroke="green"/><polygon points="5.684341886080802e-14,331.614007780184 399.99999999999994,192.57411197112944 " stroke-opacity="0.25" stroke="green"/><polygon points="400.0,185.35876493144224 86.81251494680322,400.0 " stroke-opacity="0.25" stroke="green"/><polygon points="400.0,171.5248653614301 228.5876496721432,400.0 " stroke-opacity="0.25" stroke="green"/><polygon points="400.00000000000006,134.2504302024273 313.6527305073472,400.0 " stroke-opacity="0.25" stroke="green"/><polygon points="386.9105551103737,0.0 370.3627843974832,400.0 " stroke-opacity="0.25" stroke="green"/><polygon points="346.4033737602765,0.0 400.00000000000006,332.55442602133456 " stroke-opacity="0.25" stroke="green"/><polygon points="316.02298774770367,0.0 400.0,268.23853688702644 " stroke-opacity="0.25" stroke="green"/><polygon points="292.39379862681363,0.0 400.0,249.54225193774863 " stroke-opacity="0.25" stroke="green"/><polygon points="273.49044733010163,0.0 400.0,240.63546888058335 " stroke-opacity="0.25" stroke="green"/><polygon points="258.0240689964282,0.0 400.0,235.42470705697485 " stroke-opacity="0.25" stroke="green"/><polygon points="245.13542038503363,0.0 400.0,232.00468961461138 " stroke-opacity="0.25" stroke="green"/><polygon points="234.2296407907767,0.0 400.0,229.58765982440207 " stroke-opacity="0.25" stroke="green"/><polygon points="224.88182970998506,0.0 399.99999999999994,227.78882309001247 " stroke-opacity="0.25" stroke="green"/><polygon points="216.78039343996562,0.0 400.0,226.39790156129843 " stroke-opacity="0.25" stroke="green"/><polygon points="0.0,228.34777603424908 400.0,222.08943675358856 " stroke-opacity="0.25" stroke="green"/><polygon points="-5.684341886080802e-14,301.5286848837932 400.00000000000006,223.67344620282955 " stroke-opacity="0.25" stroke="green"/><polygon points="400.0,226.26429997864938 43.548322762624736,399.99999999999994 " stroke-opacity="0.25" stroke="green"/><polygon points="400.0,231.2691988381869 239.75485485259702,400.0 " stroke-opacity="0.25" stroke="green"/><polygon points="400.0,245.0049683341598 340.50298173430855,400.0 " stroke-opacity="0.25" stroke="green"/><polygon points="366.1810386809238,0.0 400.0,175.91762249653513 " stroke-opacity="0.25" stroke="green"/><polygon points="329.2203976600472,0.0 400.00000000000006,197.28443634773421 " stroke-opacity="0.25" stroke="green"/><polygon points="301.3736577139133,-5.684341886080802e-14 400.0,203.6754737174117 " stroke-opacity="0.25" stroke="green"/><polygon points="279.63980687328274,0.0 399.99999999999994,206.74952147380841 " stroke-opacity="0.25" stroke="green"/><polygon points="262.20507996368633,0.0 400.0,208.5568391575314 " stroke-opacity="0.25" stroke="green"/><polygon points="247.90868392398963,0.0 400.0,209.74664166589164 " stroke-opacity="0.25" stroke="green"/><polygon points="235.97321585663903,-5.684341886080802e-14 400.0,210.5892348313113 " stroke-opacity="0.25" stroke="green"/><polygon points="225.85845175483118,0.0 400.0,211.21725070561828 " stroke-opacity="0.25" stroke="green"/><polygon points="217.17730505065424,0.0 400.00000000000006,211.70339846167371 " stroke-opacity="0.25" stroke="green"/><polygon points="0.0,203.58803544078293 400.0,247.86085083092203 " stroke-opacity="0.25" stroke="green"/><polygon points="0.0,272.4790292730127 400.0,255.85521607437107 " stroke-opacity="0.25" stroke="green"/><polygon points="0.0,386.6143940865394 400.0,269.0999051513744 " stroke-opacity="0.25" stroke="green"/><polygon points="400.00000000000006,295.2960327376191 267.90727310386137,400.0 " stroke-opacity="0.25" stroke="green"/><polygon points="400.0,371.6146375273551 387.36202238429803,400.0 " stroke-opacity="0.25" stroke="green"/><polygon points="388.7920178272217,0.0 400.0,44.620278985988676 " stroke-opacity="0.25" stroke="green"/><polygon points="342.9866056083291,-5.684341886080802e-14 400.0,132.05044495005703 " stroke-opacity="0.25" stroke="green"/><polygon points="309.8496747122618,0.0 400.0,160.30051733829845 " stroke-opacity="0.25" stroke="green"/><polygon points="284.76409373822577,0.0 400.0,174.2638106467291 " stroke-opacity="0.25" stroke="green"/><polygon points="265.11335205388167,-5.684341886080802e-14 399.99999999999994,182.5907384837872 " stroke-opacity="0.25" stroke="green"/><polygon points="249.30387284482345,-5.684341886080802e-14 400.0,188.12091540215243 " stroke-opacity="0.25" stroke="green"/><polygon points="236.30962284992762,0.0 399.99999999999994,192.06075349965127 " stroke-opacity="0.25" stroke="green"/><polygon points="225.44010961911133,0.0 400.0,195.01002489160012 " stroke-opacity="0.25" stroke="green"/><polygon points="216.21358432108693,5.684341886080802e-14 400.0,197.30058826861617 " stroke-opacity="0.25" stroke="green"/><polygon points="-5.684341886080802e-14,178.09069308485854 400.00000000000006,275.124174329648 " stroke-opacity="0.25" stroke="green"/><polygon points="0.0,243.38103995252433 400.0,290.4942292798297 " stroke-opacity="0.25" stroke="green"/><polygon points="-5.684341886080802e-14,354.0457389439132 400.00000000000006,316.5458982652999 " stroke-opacity="0.25" stroke="green"/><polygon points="400.0,370.34380255671965 344.1054639260408,399.99999999999994 " stroke-opacity="0.25" stroke="green"/><polygon points="357.3007062867008,5.684341886080802e-14 399.99999999999994,78.5216059080668 " stroke-opacity="0.25" stroke="green"/><polygon points="317.4440601671655,0.0 400.0,122.40158373149255 " stroke-opacity="0.25" stroke="green"/><polygon points="288.4013561845564,5.684341886080802e-14 400.0,144.99169841078864 " stroke-opacity="0.25" stroke="green"/><polygon points="266.2972518958993,0.0 400.0,158.76124914482529 " stroke-opacity="0.25" stroke="green"/><polygon points="248.91052928744483,0.0 400.0,168.0325251196871 " stroke-opacity="0.25" stroke="green"/><polygon points="234.87664539918484,0.0 399.99999999999994,174.7002953388189 " stroke-opacity="0.25" stroke="green"/><polygon points="223.31105080829755,0.0 400.0,179.7261918446374 " stroke-opacity="0.25" stroke="green"/><polygon points="213.6151955408178,-5.684341886080802e-14 400.00000000000006,183.6501775299065 " stroke-opacity="0.25" stroke="green"/><polygon points="0.0,150.99925819788632 400.0,304.8709695087473 " stroke-opacity="0.25" stroke="green"/><polygon points="0.0,213.01066041278747 400.0,329.3770244615846 " stroke-opacity="0.25" stroke="green"/><polygon points="0.0,321.8934911735464 400.0,372.4060245928291 " stroke-opacity="0.25" stroke="green"/><polygon points="372.0446948163575,5.684341886080802e-14 400.0,39.17304896293683 " stroke-opacity="0.25" stroke="green"/><polygon points="323.546504632546,0.0 400.0,91.75189386849978 " stroke-opacity="0.25" stroke="green"/><polygon points="289.8793578666009,0.0 400.0,120.17864703945553 " stroke-opacity="0.25" stroke="green"/><polygon points="265.14238043727966,-5.684341886080802e-14 399.99999999999994,137.98647344253737 " stroke-opacity="0.25" stroke="green"/><polygon points="246.19854411224804,5.684341886080802e-14 400.0,150.18904757432045 " stroke-opacity="0.25" stroke="green"/><polygon points="231.22612387034425,0.0 400.0,159.0729897527617 " stroke-opacity="0.25" stroke="green"/><polygon points="219.09474543568336,0.0 400.0,165.8300549934732 " stroke-opacity="0.25" stroke="green"/><polygon points="209.06584226805327,0.0 400.0,171.14237344739135 " stroke-opacity="0.25" stroke="green"/><polygon points="0.0,121.20582781926005 400.0,338.43445565271196 " stroke-opacity="0.25" stroke="green"/><polygon points="0.0,179.76253083046944 400.0,375.0994135525068 " stroke-opacity="0.25" stroke="green"/><polygon points="0.0,288.10533484818603 289.0731282733333,400.0 " stroke-opacity="0.25" stroke="green"/><polygon points="386.89623279711043,5.684341886080802e-14 400.0,13.47248855846587 " stroke-opacity="0.25" stroke="green"/><polygon points="327.16353388466257,0.0 400.0,68.86372570293511 " stroke-opacity="0.25" stroke="green"/><polygon points="288.21919045077976,0.0 400.0,100.41882422598847 " stroke-opacity="0.25" stroke="green"/><polygon points="260.8194771763651,0.0 400.0,120.7993654371372 " stroke-opacity="0.25" stroke="green"/><polygon points="240.49362779838333,0.0 399.99999999999994,135.04827095049467 " stroke-opacity="0.25" stroke="green"/><polygon points="224.81541526158222,0.0 400.0,145.57083680162947 " stroke-opacity="0.25" stroke="green"/><polygon points="212.3543200281303,-5.684341886080802e-14 400.0,153.65978354156186 " stroke-opacity="0.25" stroke="green"/><polygon points="202.2122700725465,0.0 400.0,160.07185952016712 " stroke-opacity="0.25" stroke="green"/><polygon points="-5.684341886080802e-14,87.13827880829731 400.00000000000006,377.7552900104416 " stroke-opacity="0.25" stroke="green"/><polygon points="0.0,141.2162528239131 356.1852709249491,400.0 " stroke-opacity="0.25" stroke="green"/><polygon points="0.0,249.37220085514468 207.32137946334208,400.0 " stroke-opacity="0.25" stroke="green"/><polygon points="326.6561228521041,0.0 399.99999999999994,53.28744591674686 " stroke-opacity="0.25" stroke="green"/><polygon points="281.99695541362206,0.0 400.00000000000006,85.73423032611626 " stroke-opacity="0.25" stroke="green"/><polygon points="252.2241771213006,0.0 400.0,107.36541993236261 " stroke-opacity="0.25" stroke="green"/><polygon points="230.9579069124996,0.0 400.00000000000006,122.81626965110998 " stroke-opacity="0.25" stroke="green"/><polygon points="215.00820425589882,0.0 400.0,134.40440694017053 " stroke-opacity="0.25" stroke="green"/><polygon points="202.6028799674316,0.0 400.00000000000006,143.41740260943982 " stroke-opacity="0.25" stroke="green"/><polygon points="192.67862053665777,0.0 400.0,150.62779914485526 " stroke-opacity="0.25" stroke="green"/><polygon points="0.0,46.3644476498707 372.72090784876264,399.99999999999994 " stroke-opacity="0.25" stroke="green"/><polygon points="-5.684341886080802e-14,93.20800945967261 296.557630919629,400.00000000000006 " stroke-opacity="0.25" stroke="green"/><polygon points="-5.684341886080802e-14,198.86747466580454 163.80871530567313,400.0 " stroke-opacity="0.25" stroke="green"/><polygon points="319.27203111878407,0.0 400.0,44.02517060419177 " stroke-opacity="0.25" stroke="green"/><polygon points="269.15364975818926,0.0 399.99999999999994,75.74195118825351 " stroke-opacity="0.25" stroke="green"/><polygon points="237.91923601610807,5.684341886080802e-14 400.0,97.5582403686867 " stroke-opacity="0.25" stroke="green"/><polygon points="216.58787871108316,0.0 400.0,113.4838968644303 " stroke-opacity="0.25" stroke="green"/><polygon points="201.09430325793406,0.0 400.0,125.62093825633221 " stroke-opacity="0.25" stroke="green"/><polygon points="189.33050874309205,-5.684341886080802e-14 400.00000000000006,135.17758284101728 " stroke-opacity="0.25" stroke="green"/><polygon points="180.09437863938027,0.0 399.99999999999994,142.89766715348082 " stroke-opacity="0.25" stroke="green"/><polygon points="4.23939471471607,-5.684341886080802e-14 328.6237434776325,400.00000000000006 " stroke-opacity="0.25" stroke="green"/><polygon points="5.684341886080802e-14,27.490484224336 253.35260331986694,400.0 " stroke-opacity="0.25" stroke="green"/><polygon points="-5.684341886080802e-14,117.83855238377669 132.75880092656524,400.00000000000006 " stroke-opacity="0.25" stroke="green"/><polygon points="300.29580727773504,0.0 400.0,39.8853043965041 " stroke-opacity="0.25" stroke="green"/><polygon points="246.75791586550014,0.0 400.0,69.83409852828407 " stroke-opacity="0.25" stroke="green"/><polygon points="216.10713077078714,5.684341886080802e-14 400.0,91.0572473962333 " stroke-opacity="0.25" stroke="green"/><polygon points="196.25185479116882,0.0 400.0,106.88322510554622 " stroke-opacity="0.25" stroke="green"/><polygon points="182.34266747112974,0.0 399.99999999999994,119.13857917809013 " stroke-opacity="0.25" stroke="green"/><polygon points="172.0564037769502,0.0 400.0,128.909205663845 " stroke-opacity="0.25" stroke="green"/><polygon points="164.14067500434157,0.0 400.00000000000006,136.88120623294543 " stroke-opacity="0.25" stroke="green"/><polygon points="46.41717626910261,-5.684341886080802e-14 292.84177810776185,400.00000000000006 " stroke-opacity="0.25" stroke="green"/><polygon points="34.75307061603772,-5.684341886080802e-14 218.88070443975315,400.00000000000006 " stroke-opacity="0.25" stroke="green"/><polygon points="17.079497021737808,0.0 106.81412021419672,400.0 " stroke-opacity="0.25" stroke="green"/><polygon points="261.49056295335953,-5.684341886080802e-14 400.0,39.71275792992975 " stroke-opacity="0.25" stroke="green"/><polygon points="210.77674227223338,0.0 400.00000000000006,67.32398388760416 " stroke-opacity="0.25" stroke="green"/><polygon points="184.692696940448,-5.684341886080802e-14 400.0,87.43958096355826 " stroke-opacity="0.25" stroke="green"/><polygon points="168.80153344747958,0.0 400.0,102.74702547810237 " stroke-opacity="0.25" stroke="green"/><polygon points="158.1051815575197,0.0 399.99999999999994,114.78619307825323 " stroke-opacity="0.25" stroke="green"/><polygon points="150.4142289509126,0.0 400.0,124.50283074706782 " stroke-opacity="0.25" stroke="green"/><polygon points="144.61804524435104,-5.684341886080802e-14 400.00000000000006,132.50988945282583 " stroke-opacity="0.25" stroke="green"/><polygon points="81.57238735463086,0.0 262.31301566425964,400.0 " stroke-opacity="0.25" stroke="green"/><polygon points="77.51267080051024,0.0 189.34658561441583,400.0 " stroke-opacity="0.25" stroke="green"/><polygon points="71.59362104106236,0.0 82.96183572444565,400.0 " stroke-opacity="0.25" stroke="green"/><polygon points="0.0,167.1188004513526 62.15849775805867,0.0 " stroke-opacity="0.25" stroke="green"/><polygon points="0.0,40.29367122209001 44.750655527666,0.0 " stroke-opacity="0.25" stroke="green"/><polygon points="0.0,0.6386699917688361 1.8713782267550982,-5.684341886080802e-14 " stroke-opacity="0.25" stroke="green"/><polygon points="322.4565277140009,0.0 400.0,7.265156885456349 " stroke-opacity="0.25" stroke="green"/><polygon points="188.30074074412553,0.0 400.0,42.5041077682954 " stroke-opacity="0.25" stroke="green"/><polygon points="156.04260020659115,-5.684341886080802e-14 400.0,67.5434008893744 " stroke-opacity="0.25" stroke="green"/><polygon points="141.5421405596336,0.0 400.0,86.25151042167518 " stroke-opacity="0.25" stroke="green"/><polygon points="133.30112263701835,0.0 400.0,100.76018867095698 " stroke-opacity="0.25" stroke="green"/><polygon points="127.98600620526776,0.0 400.0,112.34072826055896 " stroke-opacity="0.25" stroke="green"/><polygon points="124.2734822409665,0.0 399.99999999999994,121.79831276655415 " stroke-opacity="0.25" stroke="green"/><polygon points="121.5336956091213,0.0 399.99999999999994,129.6676992107253 " stroke-opacity="0.25" stroke="green"/><polygon points="112.07579380741561,0.0 235.15961864214574,400.0 " stroke-opacity="0.25" stroke="green"/><polygon points="113.58599733933688,0.0 162.59897087112657,400.0 " stroke-opacity="0.25" stroke="green"/><polygon points="115.72926632218336,0.0 59.621469855072775,400.0 " stroke-opacity="0.25" stroke="green"/><polygon points="0.0,219.39250774227628 119.00922185021308,0.0 " stroke-opacity="0.25" stroke="green"/><polygon points="0.0,100.94480428565016 124.65645177933659,0.0 " stroke-opacity="0.25" stroke="green"/><polygon points="0.0,50.44885800090674 136.68083477392858,0.0 " stroke-opacity="0.25" stroke="green"/><polygon points="0.0,22.464443292340746 179.89356297689451,0.0 " stroke-opacity="0.25" stroke="green"/><polygon points="0.0,4.681722013905215 400.0,16.807995561950946 " stroke-opacity="0.25" stroke="green"/><polygon points="55.339660904363484,0.0 400.0,47.444188514335906 " stroke-opacity="0.25" stroke="green"/><polygon points="76.88402497675271,5.684341886080802e-14 400.0,69.89570217886643 " stroke-opacity="0.25" stroke="green"/><polygon points="85.0837560345902,-5.684341886080802e-14 399.99999999999994,87.05593443490535 " stroke-opacity="0.25" stroke="green"/><polygon points="89.40555391471288,-5.684341886080802e-14 400.0,100.59824186299075 " stroke-opacity="0.25" stroke="green"/><polygon points="92.07431469177443,0.0 400.0,111.55767473450389 " stroke-opacity="0.25" stroke="green"/><polygon points="93.88618163912616,-5.684341886080802e-14 400.0,120.60883421459661 " stroke-opacity="0.25" stroke="green"/><polygon points="95.19676557226713,-5.684341886080802e-14 400.0,128.2102110162146 " stroke-opacity="0.25" stroke="green"/><polygon points="139.48080212702035,0.0 210.1292435640818,400.0 " stroke-opacity="0.25" stroke="green"/><polygon points="145.41175591007502,0.0 137.26037218889957,400.0 " stroke-opacity="0.25" stroke="green"/><polygon points="153.67306559424753,0.0 35.760287247002395,400.0 " stroke-opacity="0.25" stroke="green"/><polygon points="0.0,235.97216190749987 165.97396766591842,5.684341886080802e-14 " stroke-opacity="0.25" stroke="green"/><polygon points="0.0,135.30850560107226 186.23618079528828,0.0 " stroke-opacity="0.25" stroke="green"/><polygon points="-5.684341886080802e-14,83.86708587200738 225.88649505965233,-5.684341886080802e-14 " stroke-opacity="0.25" stroke="green"/><polygon points="0.0,52.63772990408782 338.2783382786537,0.0 " stroke-opacity="0.25" stroke="green"/><polygon points="0.0,31.664033878784892 400.0,27.361211495374533 " stroke-opacity="0.25" stroke="green"/><polygon points="0.0,16.6066124115531 400.0,53.89938448149559 " stroke-opacity="0.25" stroke="green"/><polygon points="0.0,5.271590244193902 400.0,73.87696030571776 " stroke-opacity="0.25" stroke="green"/><polygon points="15.348066643938495,0.0 400.0,89.45911207343835 " stroke-opacity="0.25" stroke="green"/><polygon points="37.85856396723074,0.0 400.0,101.95268320186592 " stroke-opacity="0.25" stroke="green"/><polygon points="51.19949857026751,5.684341886080802e-14 399.99999999999994,112.19316511853272 " stroke-opacity="0.25" stroke="green"/><polygon points="60.02560466688172,0.0 399.99999999999994,120.73962917369528 " stroke-opacity="0.25" stroke="green"/><polygon points="66.29705861582678,0.0 400.0,127.98030971468069 " stroke-opacity="0.25" stroke="green"/><polygon points="164.88265136203756,-5.684341886080802e-14 186.313652168644,400.00000000000006 " stroke-opacity="0.25" stroke="green"/><polygon points="174.61624729139933,-5.684341886080802e-14 112.33366812868746,400.00000000000006 " stroke-opacity="0.25" stroke="green"/><polygon points="188.00866308195486,-5.684341886080802e-14 10.544903356455706,400.00000000000006 " stroke-opacity="0.25" stroke="green"/><polygon points="0.0,240.02686897678268 207.60038097540948,0.0 " stroke-opacity="0.25" stroke="green"/><polygon points="-5.684341886080802e-14,155.20330605572235 238.9921332633983,0.0 " stroke-opacity="0.25" stroke="green"/><polygon points="0.0,106.35977781393399 297.4385053478974,0.0 " stroke-opacity="0.25" stroke="green"/><polygon points="0.0,74.60924288627272 400.0,7.453964046562277 " stroke-opacity="0.25" stroke="green"/><polygon points="0.0,52.31525867792175 400.0,38.43926811560402 " stroke-opacity="0.25" stroke="green"/><polygon points="0.0,35.80063489117626 400.0,61.39212547998926 " stroke-opacity="0.25" stroke="green"/><polygon points="-5.684341886080802e-14,23.075926722041743 400.00000000000006,79.07756690336491 " stroke-opacity="0.25" stroke="green"/><polygon points="0.0,12.970809333362354 400.0,93.12216889174813 " stroke-opacity="0.25" stroke="green"/><polygon points="0.0,4.751848603864886 400.0,104.54529519142491 " stroke-opacity="0.25" stroke="green"/><polygon points="7.112078555897597,0.0 400.0,114.01825638828936 " stroke-opacity="0.25" stroke="green"/><polygon points="24.05903669420536,0.0 400.0,122.00117667938169 " stroke-opacity="0.25" stroke="green"/><polygon points="35.93158393294357,5.684341886080802e-14 400.0,128.81998470359235 " stroke-opacity="0.25" stroke="green"/><polygon points="189.11585460473637,0.0 162.99168967850005,400.0 " stroke-opacity="0.25" stroke="green"/><polygon points="202.39089842075822,0.0 86.99659455237511,400.0 " stroke-opacity="0.25" stroke="green"/><polygon points="0.0,371.62846908500205 220.52867710255546,0.0 " stroke-opacity="0.25" stroke="green"/><polygon points="0.0,238.4361713044501 246.8001556170842,0.0 " stroke-opacity="0.25" stroke="green"/><polygon points="-5.684341886080802e-14,166.4257538051565 288.25786127848033,0.0 " stroke-opacity="0.25" stroke="green"/><polygon points="-5.684341886080802e-14,121.31511431956558 363.4222718440491,0.0 " stroke-opacity="0.25" stroke="green"/><polygon points="5.684341886080802e-14,90.4036538192655 399.99999999999994,23.630646553657357 " stroke-opacity="0.25" stroke="green"/><polygon points="0.0,67.89892450804848 400.0,49.724103259737376 " stroke-opacity="0.25" stroke="green"/><polygon points="0.0,50.78198237514448 400.0,69.57060673502195 " stroke-opacity="0.25" stroke="green"/><polygon points="0.0,37.324860928482025 400.0,85.17367447251868 " stroke-opacity="0.25" stroke="green"/><polygon points="0.0,26.4671502024172 400.0,97.7628152188818 " stroke-opacity="0.25" stroke="green"/><polygon points="5.684341886080802e-14,17.522022041132857 399.99999999999994,108.1343825094278 " stroke-opacity="0.25" stroke="green"/><polygon points="0.0,10.025031111309602 400.0,116.82688467410443 " stroke-opacity="0.25" stroke="green"/><polygon points="0.0,3.650850270035903 400.0,124.21752730385599 " stroke-opacity="0.25" stroke="green"/><polygon points="5.543809324455253,0.0 400.0,130.57840071747287 " stroke-opacity="0.25" stroke="green"/><polygon points="212.87412379565228,0.0 139.53073136034152,400.0 " stroke-opacity="0.25" stroke="green"/><polygon points="229.70555422349327,0.0 60.47414434239215,400.0 " stroke-opacity="0.25" stroke="green"/><polygon points="-5.684341886080802e-14,336.92701592804656 252.65027102903463,-5.684341886080802e-14 " stroke-opacity="0.25" stroke="green"/><polygon points="-5.684341886080802e-14,233.9213511363974 285.7779127868007,-5.684341886080802e-14 " stroke-opacity="0.25" stroke="green"/><polygon points="-5.684341886080802e-14,172.1179522614079 337.800501294273,0.0 " stroke-opacity="0.25" stroke="green"/><polygon points="-5.684341886080802e-14,130.91568634474822 400.00000000000006,9.510038380295924 " stroke-opacity="0.25" stroke="green"/><polygon points="-5.684341886080802e-14,101.48549640427703 400.00000000000006,38.94022832076712 " stroke-opacity="0.25" stroke="green"/><polygon points="-5.684341886080802e-14,79.41285394892365 400.00000000000006,61.01287077612051 " stroke-opacity="0.25" stroke="green"/><polygon points="-5.684341886080802e-14,62.245243150315474 400.00000000000006,78.1804815747287 " stroke-opacity="0.25" stroke="green"/><polygon points="-5.684341886080802e-14,48.51115451142894 400.00000000000006,91.91457021361525 " stroke-opacity="0.25" stroke="green"/><polygon points="-5.684341886080802e-14,37.2741728977945 400.00000000000006,103.1515518272497 " stroke-opacity="0.25" stroke="green"/><polygon points="-5.684341886080802e-14,27.910021553099114 400.00000000000006,112.51570317194508 " stroke-opacity="0.25" stroke="green"/><polygon points="-5.684341886080802e-14,19.98650887681842 400.00000000000006,120.43921584822577 " stroke-opacity="0.25" stroke="green"/><polygon points="-5.684341886080802e-14,13.194926582863502 400.00000000000006,127.23079814218067 " stroke-opacity="0.25" stroke="green"/><polygon points="-5.684341886080802e-14,7.308888594769286 400.00000000000006,133.11683613027492 " stroke-opacity="0.25" stroke="green"/><polygon points="236.79323363509292,0.0 115.31431064814355,400.0 " stroke-opacity="0.25" stroke="green"/><polygon points="257.4487811717148,-5.684341886080802e-14 31.938711801418464,400.00000000000006 " stroke-opacity="0.25" stroke="green"/><polygon points="-5.684341886080802e-14,310.80838270618904 285.6705900759103,0.0 " stroke-opacity="0.25" stroke="green"/><polygon points="0.0,227.74720193393773 326.5481781904788,0.0 " stroke-opacity="0.25" stroke="green"/><polygon points="0.0,174.1089278185724 391.05505454554793,0.0 " stroke-opacity="0.25" stroke="green"/><polygon points="0.0,136.61212260244417 400.0,29.045321051630197 " stroke-opacity="0.25" stroke="green"/><polygon points="0.0,108.92350470437209 400.0,53.43395880224668 " stroke-opacity="0.25" stroke="green"/><polygon points="-5.684341886080802e-14,87.63982533654169 400.00000000000006,72.1810103168124 " stroke-opacity="0.25" stroke="green"/><polygon points="-5.684341886080802e-14,70.76909062579523 400.00000000000006,87.04105999360738 " stroke-opacity="0.25" stroke="green"/><polygon points="0.0,57.06775301240205 400.0,99.10944711867256 " stroke-opacity="0.25" stroke="green"/><polygon points="0.0,45.71937991906822 400.0,109.10530034078062 " stroke-opacity="0.25" stroke="green"/><polygon points="0.0,36.16578048721078 400.0,117.52028431057599 " stroke-opacity="0.25" stroke="green"/><polygon points="-5.684341886080802e-14,28.01238396141298 400.00000000000006,124.70194411883472 " stroke-opacity="0.25" stroke="green"/><polygon points="0.0,20.97238148112558 400.0,130.90290622128492 " stroke-opacity="0.25" stroke="green"/><polygon points="0.0,14.832288605509746 400.0,136.3112115924592 " stroke-opacity="0.25" stroke="green"/><polygon points="261.51940422958717,-5.684341886080802e-14 89.6768993010944,400.00000000000006 " stroke-opacity="0.25" stroke="green"/><polygon points="286.5421245871158,0.0 0.4077908329710169,400.0 " stroke-opacity="0.25" stroke="green"/><polygon points="0.0,289.5619927717828 320.97078565655,-5.684341886080802e-14 " stroke-opacity="0.25" stroke="green"/><polygon points="0.0,220.56292810107863 371.3363526812384,-5.684341886080802e-14 " stroke-opacity="0.25" stroke="green"/><polygon points="5.684341886080802e-14,173.52072893230394 399.99999999999994,19.97511491813745 " stroke-opacity="0.25" stroke="green"/><polygon points="0.0,139.3934029886561 400.0,46.81755757977842 " stroke-opacity="0.25" stroke="green"/><polygon points="0.0,113.50445253369787 400.0,67.18020390327771 " stroke-opacity="0.25" stroke="green"/><polygon points="-5.684341886080802e-14,93.19203374894482 400.00000000000006,83.15669551147697 " stroke-opacity="0.25" stroke="green"/><polygon points="0.0,76.82953972348245 400.0,96.02642074002708 " stroke-opacity="0.25" stroke="green"/><polygon points="5.684341886080802e-14,63.366920734848634 399.99999999999994,106.61528371964138 " stroke-opacity="0.25" stroke="green"/><polygon points="5.684341886080802e-14,52.09602456852045 399.99999999999994,115.48027315917541 " stroke-opacity="0.25" stroke="green"/><polygon points="0.0,42.52191815477801 400.0,123.01067278297492 " stroke-opacity="0.25" stroke="green"/><polygon points="5.684341886080802e-14,34.28825695320796 399.99999999999994,129.48676115460606 " stroke-opacity="0.25" stroke="green"/><polygon points="0.0,27.13195003369293 400.0,135.11546931865547 " stroke-opacity="0.25" stroke="green"/><polygon points="-5.684341886080802e-14,20.85452826456043 400.00000000000006,140.05290081209012 " stroke-opacity="0.25" stroke="green"/><polygon points="287.7793947672731,0.0 61.83065092382904,400.0 " stroke-opacity="0.25" stroke="green"/><polygon points="0.0,359.9504861107893 318.0608336779975,0.0 " stroke-opacity="0.25" stroke="green"/><polygon points="0.0,271.34331959684897 360.2402796279205,0.0 " stroke-opacity="0.25" stroke="green"/><polygon points="0.0,212.72252009196504 400.0,11.587639215971507 " stroke-opacity="0.25" stroke="green"/><polygon points="0.0,171.06908419159015 400.0,41.10120569842749 " stroke-opacity="0.25" stroke="green"/><polygon points="0.0,139.9477167690859 400.0,63.15226887232416 " stroke-opacity="0.25" stroke="green"/><polygon points="5.684341886080802e-14,115.8121991834529 399.99999999999994,80.25350403947287 " stroke-opacity="0.25" stroke="green"/><polygon points="0.0,96.5477071247228 400.0,93.90337120735657 " stroke-opacity="0.25" stroke="green"/><polygon points="5.684341886080802e-14,80.81479932704964 399.99999999999994,105.0509322719361 " stroke-opacity="0.25" stroke="green"/><polygon points="0.0,67.72389527306825 400.0,114.32650003150131 " stroke-opacity="0.25" stroke="green"/><polygon points="-5.684341886080802e-14,56.66104333084073 400.00000000000006,122.16509027561513 " stroke-opacity="0.25" stroke="green"/><polygon points="0.0,47.188843739862676 400.0,128.87662286159582 " stroke-opacity="0.25" stroke="green"/><polygon points="0.0,38.98724207726366 400.0,134.68787253882977 " stroke-opacity="0.25" stroke="green"/><polygon points="0.0,31.816651007939612 400.0,139.76859905438465 " stroke-opacity="0.25" stroke="green"/><polygon points="0.0,25.49415729328686 400.0,144.24840569095156 " stroke-opacity="0.25" stroke="green"/><polygon points="316.4690434602211,0.0 30.766368989340208,400.0 " stroke-opacity="0.25" stroke="green"/><polygon points="-5.684341886080802e-14,328.2770079227301 353.3960468269538,0.0 " stroke-opacity="0.25" stroke="green"/><polygon points="0.0,255.11969449997383 400.0,3.64794957724871 " stroke-opacity="0.25" stroke="green"/><polygon points="0.0,204.42473561942208 400.0,36.17494940268614 " stroke-opacity="0.25" stroke="green"/><polygon points="0.0,167.22365641979115 400.0,60.04397944734191 " stroke-opacity="0.25" stroke="green"/><polygon points="-5.684341886080802e-14,138.76161436721398 400.00000000000006,78.30585118605103 " stroke-opacity="0.25" stroke="green"/><polygon points="0.0,116.28290803994324 400.0,92.72868321765357 " stroke-opacity="0.25" stroke="green"/><polygon points="0.0,98.08025204152433 400.0,104.40790737637383 " stroke-opacity="0.25" stroke="green"/><polygon points="0.0,83.0394891317256 400.0,114.05839143523657 " stroke-opacity="0.25" stroke="green"/><polygon points="0.0,70.40260004568339 400.0,122.16649721483228 " stroke-opacity="0.25" stroke="green"/><polygon points="0.0,59.63593495079746 400.0,129.0746261766697 " stroke-opacity="0.25" stroke="green"/><polygon points="0.0,50.35291808465138 400.0,135.0308138263357 " stroke-opacity="0.25" stroke="green"/><polygon points="-5.684341886080802e-14,42.2666466192606 400.00000000000006,140.21914332400706 " stroke-opacity="0.25" stroke="green"/><polygon points="0.0,35.15971192835045 400.0,144.7791088226538 " stroke-opacity="0.25" stroke="green"/><polygon points="-5.684341886080802e-14,28.86435971309217 400.00000000000006,148.81834516742038 " stroke-opacity="0.25" stroke="green"/><polygon points="-5.684341886080802e-14,394.45906576478365 348.7847539313426,0.0 " stroke-opacity="0.25" stroke="green"/><polygon points="0.0,302.2117117093599 394.5144412411624,0.0 " stroke-opacity="0.25" stroke="green"/><polygon points="0.0,240.2582098476997 400.0,31.87625716761005 " stroke-opacity="0.25" stroke="green"/><polygon points="0.0,195.78059427739055 400.0,57.77762656396439 " stroke-opacity="0.25" stroke="green"/><polygon points="0.0,162.29844997148243 400.0,77.27582530347344 " stroke-opacity="0.25" stroke="green"/><polygon points="-5.684341886080802e-14,136.1829763687839 400.00000000000006,92.48407152060607 " stroke-opacity="0.25" stroke="green"/><polygon points="0.0,115.24392174580267 400.0,104.67784993354607 " stroke-opacity="0.25" stroke="green"/><polygon points="0.0,98.0810138778642 400.0,114.67260371930934 " stroke-opacity="0.25" stroke="green"/><polygon points="0.0,83.75725681554553 400.0,123.01398888705239 " stroke-opacity="0.25" stroke="green"/><polygon points="0.0,71.62197509371063 400.0,130.080923806466 " stroke-opacity="0.25" stroke="green"/><polygon points="-5.684341886080802e-14,61.20921081066902 400.00000000000006,136.14475728031493 " stroke-opacity="0.25" stroke="green"/><polygon points="0.0,52.17651902805076 400.0,141.40491080934515 " stroke-opacity="0.25" stroke="green"/><polygon points="0.0,44.266586273360275 400.0,146.01122991059498 " stroke-opacity="0.25" stroke="green"/><polygon points="0.0,37.28232398078046 400.0,150.07848835692903 " stroke-opacity="0.25" stroke="green"/><polygon points="0.0,31.070222736360762 400.0,153.69608176871878 " stroke-opacity="0.25" stroke="green"/><polygon points="0.0,356.47513953234443 386.44280318437256,0.0 " stroke-opacity="0.25" stroke="green"/><polygon points="0.0,279.8564993936491 400.0,27.976798037366052 " stroke-opacity="0.25" stroke="green"/><polygon points="0.0,226.3411185990479 400.0,56.252494589398566 " stroke-opacity="0.25" stroke="green"/><polygon points="0.0,186.84837518606656 400.0,77.11910923685323 " stroke-opacity="0.25" stroke="green"/><polygon points="0.0,156.5051876681506 400.0,93.15141153833602 " stroke-opacity="0.25" stroke="green"/><polygon points="-5.684341886080802e-14,132.4620297788215 400.00000000000006,105.85499369615667 " stroke-opacity="0.25" stroke="green"/><polygon points="0.0,112.9413599324437 400.0,116.16904787783359 " stroke-opacity="0.25" stroke="green"/><polygon points="0.0,96.77685823883351 400.0,124.709817615745 " stroke-opacity="0.25" stroke="green"/><polygon points="-5.684341886080802e-14,83.17150629464341 400.00000000000006,131.89842016972952 " stroke-opacity="0.25" stroke="green"/><polygon points="0.0,71.56214037369622 400.0,138.03241198793455 " stroke-opacity="0.25" stroke="green"/><polygon points="-5.684341886080802e-14,61.53954325037992 400.00000000000006,143.3280094538271 " stroke-opacity="0.25" stroke="green"/><polygon points="0.0,52.7992056240692 400.0,147.9461048651711 " stroke-opacity="0.25" stroke="green"/><polygon points="5.684341886080802e-14,45.109849616388374 399.99999999999994,152.00889754132197 " stroke-opacity="0.25" stroke="green"/><polygon points="0.0,38.29266298668804 400.0,155.61086575341074 " stroke-opacity="0.25" stroke="green"/><polygon points="0.0,32.207220227180386 400.0,158.82620553606182 " stroke-opacity="0.25" stroke="green"/><polygon points="-5.684341886080802e-14,325.301834258761 400.00000000000006,24.15263536764445 " stroke-opacity="0.25" stroke="green"/><polygon points="0.0,260.0422071993837 400.0,55.34327172753822 " stroke-opacity="0.25" stroke="green"/><polygon points="0.0,213.0742324406127 400.0,77.79146959922669 " stroke-opacity="0.25" stroke="green"/><polygon points="-5.684341886080802e-14,177.65274824792988 400.00000000000006,94.72105811459566 " stroke-opacity="0.25" stroke="green"/><polygon points="0.0,149.9859923824149 400.0,107.94429827614417 " stroke-opacity="0.25" stroke="green"/><polygon points="-5.684341886080802e-14,127.778637603826 400.00000000000006,118.55823461972592 " stroke-opacity="0.25" stroke="green"/><polygon points="0.0,109.55986804664374 400.0,127.26583902674683 " stroke-opacity="0.25" stroke="green"/><polygon points="0.0,94.34366744020744 400.0,134.53837491578474 " stroke-opacity="0.25" stroke="green"/><polygon points="0.0,81.44428054096393 400.0,140.70359687872678 " stroke-opacity="0.25" stroke="green"/><polygon points="-5.684341886080802e-14,70.37000465311391 400.00000000000006,145.99651269408673 " stroke-opacity="0.25" stroke="green"/><polygon points="0.0,60.7590843363742 400.0,150.59002225261662 " stroke-opacity="0.25" stroke="green"/><polygon points="0.0,52.33944379067748 400.0,154.6141633391555 " stroke-opacity="0.25" stroke="green"/><polygon points="5.684341886080802e-14,44.902518994731565 399.99999999999994,158.16861848084935 " stroke-opacity="0.25" stroke="green"/><polygon points="5.684341886080802e-14,38.285747315389926 399.99999999999994,161.33108398404642 " stroke-opacity="0.25" stroke="green"/><polygon points="0.0,32.360547571579275 400.0,164.16301482546515 " stroke-opacity="0.25" stroke="green"/><polygon points="0.0,298.6959350563839 400.0,54.892569932333146 " stroke-opacity="0.25" stroke="green"/><polygon points="-5.684341886080802e-14,241.99974962571417 400.00000000000006,79.25652205834979 " stroke-opacity="0.25" stroke="green"/><polygon points="0.0,200.2375888677541 400.0,97.20290200714157 " stroke-opacity="0.25" stroke="green"/><polygon points="-5.684341886080802e-14,168.19559731659706 400.00000000000006,110.97225072512987 " stroke-opacity="0.25" stroke="green"/><polygon points="0.0,142.8339699818387 400.0,121.87085826862207 " stroke-opacity="0.25" stroke="green"/><polygon points="-5.684341886080802e-14,122.26076829181041 400.00000000000006,130.71174407508738 " stroke-opacity="0.25" stroke="green"/><polygon points="0.0,105.2368465374304 400.0,138.02740405238805 " stroke-opacity="0.25" stroke="green"/><polygon points="-5.684341886080802e-14,90.916660778407 400.00000000000006,144.18119231200833 " stroke-opacity="0.25" stroke="green"/><polygon points="-5.684341886080802e-14,78.70348659381288 400.00000000000006,149.42953819065698 " stroke-opacity="0.25" stroke="green"/><polygon points="0.0,68.16416538656415 400.0,153.95858217101647 " stroke-opacity="0.25" stroke="green"/><polygon points="0.0,58.976655527260846 400.0,157.90671463652592 " stroke-opacity="0.25" stroke="green"/><polygon points="-5.684341886080802e-14,50.896549041844054 400.00000000000006,161.37896459634982 " stroke-opacity="0.25" stroke="green"/><polygon points="0.0,43.7350076795469 400.0,164.45648118012176 " stroke-opacity="0.25" stroke="green"/><polygon points="-5.684341886080802e-14,37.34381910092037 400.00000000000006,167.20295541600163 " stroke-opacity="0.25" stroke="green"/><polygon points="0.0,31.605029362811393 400.0,169.66907544468575 " stroke-opacity="0.25" stroke="green"/><polygon points="0.0,275.24114746113514 400.0,81.4964733263722 " stroke-opacity="0.25" stroke="green"/><polygon points="0.0,225.19303450403729 400.0,100.64288684597533 " stroke-opacity="0.25" stroke="green"/><polygon points="0.0,187.65694978621386 400.0,115.0026969856777 " stroke-opacity="0.25" stroke="green"/><polygon points="0.0,158.46221722790676 400.0,126.17143820544621 " stroke-opacity="0.25" stroke="green"/><polygon points="-5.684341886080802e-14,135.10643118126103 400.00000000000006,135.10643118126103 " stroke-opacity="0.25" stroke="green"/><polygon points="-5.684341886080802e-14,115.99715168855097 400.00000000000006,142.41687997965494 " stroke-opacity="0.25" stroke="green"/><polygon points="0.0,100.07275211129254 400.0,148.50892064498322 " stroke-opacity="0.25" stroke="green"/><polygon points="0.0,86.59826016130468 400.0,153.66372428487637 " stroke-opacity="0.25" stroke="green"/><polygon points="-5.684341886080802e-14,75.04869563274359 400.00000000000006,158.08212740478479 " stroke-opacity="0.25" stroke="green"/><polygon points="5.684341886080802e-14,65.03907304132406 399.99999999999994,161.9114101087054 " stroke-opacity="0.25" stroke="green"/><polygon points="0.0,56.280653273831945 400.0,165.26203247463596 " stroke-opacity="0.25" stroke="green"/><polygon points="5.684341886080802e-14,48.55263583192712 399.99999999999994,168.21846397398645 " stroke-opacity="0.25" stroke="green"/><polygon points="0.0,41.68328699467841 400.0,170.8464030845202 " stroke-opacity="0.25" stroke="green"/><polygon points="0.0,35.53702750871898 400.0,173.1977170255241 " stroke-opacity="0.25" stroke="green"/><polygon points="0.0,30.005393971355517 400.0,175.3138995724276 " stroke-opacity="0.25" stroke="green"/><polygon points="0.0,253.98621809850894 400.0,105.15094570607774 " stroke-opacity="0.25" stroke="green"/><polygon points="0.0,209.22737279845285 400.0,120.16256814997247 " stroke-opacity="0.25" stroke="green"/><polygon points="0.0,175.1862165944587 400.0,131.5795960259656 " stroke-opacity="0.25" stroke="green"/><polygon points="5.684341886080802e-14,148.4247759912988 399.99999999999994,140.555087678983 " stroke-opacity="0.25" stroke="green"/><polygon points="0.0,126.83346368237254 400.0,147.7965753955889 " stroke-opacity="0.25" stroke="green"/><polygon points="0.0,109.04600657282782 400.0,153.76229208410948 " stroke-opacity="0.25" stroke="green"/><polygon points="0.0,94.13856564977343 400.0,158.7620831475594 " stroke-opacity="0.25" stroke="green"/><polygon points="0.0,81.4640592661775 400.0,163.0129726246621 " stroke-opacity="0.25" stroke="green"/><polygon points="0.0,70.55574766690165 400.0,166.67149987510663 " stroke-opacity="0.25" stroke="green"/><polygon points="0.0,61.06849862197123 400.0,169.85341843754813 " stroke-opacity="0.25" stroke="green"/><polygon points="0.0,52.74160388296124 400.0,172.6461669795199 " stroke-opacity="0.25" stroke="green"/><polygon points="0.0,45.37445277409387 400.0,175.1170281063439 " stroke-opacity="0.25" stroke="green"/><polygon points="0.0,38.81015891205078 400.0,177.3186197784964 " stroke-opacity="0.25" stroke="green"/><polygon points="0.0,32.92426330027297 400.0,179.29268416902872 " stroke-opacity="0.25" stroke="green"/><polygon points="0.0,27.616767824729436 400.0,181.07275954111253 " stroke-opacity="0.25" stroke="green"/><polygon points="0.0,234.25485441324662 400.0,126.68805286243247 " stroke-opacity="0.25" stroke="green"/><polygon points="0.0,193.79583916629403 400.0,138.3062932641685 " stroke-opacity="0.25" stroke="green"/><polygon points="0.0,162.69581419486857 400.0,147.2369991751392 " stroke-opacity="0.25" stroke="green"/><polygon points="0.0,138.04404878707237 400.0,154.31601815488438 " stroke-opacity="0.25" stroke="green"/><polygon points="0.0,118.02345297963348 400.0,160.06514708590385 " stroke-opacity="0.25" stroke="green"/><polygon points="-5.684341886080802e-14,101.4410434963753 400.00000000000006,164.82696391808764 " stroke-opacity="0.25" stroke="green"/><polygon points="5.684341886080802e-14,87.48118365433855 399.99999999999994,168.83568747770371 " stroke-opacity="0.25" stroke="green"/><polygon points="0.0,75.56732086905767 400.0,172.25688102647933 " stroke-opacity="0.25" stroke="green"/><polygon points="0.0,65.28036581998086 400.0,175.21089056014017 " stroke-opacity="0.25" stroke="green"/><polygon points="0.0,56.308371905848276 400.0,177.7872948927977 " stroke-opacity="0.25" stroke="green"/><polygon points="-5.684341886080802e-14,48.414352563762236 400.00000000000006,180.05414725913693 " stroke-opacity="0.25" stroke="green"/><polygon points="-5.684341886080802e-14,41.41504134304995 400.00000000000006,182.06407458713656 " stroke-opacity="0.25" stroke="green"/><polygon points="0.0,35.16648665736005 400.0,183.85841411958987 " stroke-opacity="0.25" stroke="green"/><polygon points="0.0,29.554045976499452 400.0,185.4700866892932 " stroke-opacity="0.25" stroke="green"/><polygon points="0.0,24.48528783511904 400.0,186.92563498342153 " stroke-opacity="0.25" stroke="green"/><polygon points="-5.684341886080802e-14,215.538333753936 400.00000000000006,146.7210670677939 " stroke-opacity="0.25" stroke="green"/><polygon points="0.0,178.64579531827292 400.0,155.4544497625816 " stroke-opacity="0.25" stroke="green"/><polygon points="0.0,150.06439706891 400.0,162.22037857767572 " stroke-opacity="0.25" stroke="green"/><polygon points="-5.684341886080802e-14,127.26996479884892 400.00000000000006,167.61638841505857 " stroke-opacity="0.25" stroke="green"/><polygon points="5.684341886080802e-14,108.66651272860621 399.99999999999994,172.02028885842063 " stroke-opacity="0.25" stroke="green"/><polygon points="-5.684341886080802e-14,93.19552118257648 400.00000000000006,175.682657878512 " stroke-opacity="0.25" stroke="green"/><polygon points="-5.684341886080802e-14,80.12725812229216 400.00000000000006,178.7762412235738 " stroke-opacity="0.25" stroke="green"/><polygon points="-5.684341886080802e-14,68.94232146840923 400.00000000000006,181.42399430203616 " stroke-opacity="0.25" stroke="green"/><polygon points="0.0,59.260953509893966 400.0,183.71581522236175 " stroke-opacity="0.25" stroke="green"/><polygon points="0.0,50.79906632745178 400.0,185.71895467055296 " stroke-opacity="0.25" stroke="green"/><polygon points="0.0,43.33989997942251 400.0,187.48472512343264 " stroke-opacity="0.25" stroke="green"/><polygon points="-5.684341886080802e-14,36.715192505966 400.00000000000006,189.05295837763418 " stroke-opacity="0.25" stroke="green"/><polygon points="5.684341886080802e-14,30.792334722818453 399.99999999999994,190.45504632984262 " stroke-opacity="0.25" stroke="green"/><polygon points="-5.684341886080802e-14,25.465402256685593 400.00000000000006,191.7160639173734 " stroke-opacity="0.25" stroke="green"/><polygon points="0.0,20.648764847027877 400.0,192.85628195560705 " stroke-opacity="0.25" stroke="green"/><polygon points="-5.684341886080802e-14,197.43052821643022 400.00000000000006,165.72578287552597 " stroke-opacity="0.25" stroke="green"/><polygon points="0.0,163.55650338105093 400.0,171.91519535272033 " stroke-opacity="0.25" stroke="green"/><polygon points="5.684341886080802e-14,137.17235337238694 399.99999999999994,176.7360688112895 " stroke-opacity="0.25" stroke="green"/><polygon points="0.0,116.04124515864399 400.0,180.59711412464372 " stroke-opacity="0.25" stroke="green"/><polygon points="0.0,98.73640469923821 400.0,183.75902936724688 " stroke-opacity="0.25" stroke="green"/><polygon points="-5.684341886080802e-14,84.30486129957325 400.00000000000006,186.39593995632356 " stroke-opacity="0.25" stroke="green"/><polygon points="0.0,72.08584814451737 400.0,188.6285802418652 " stroke-opacity="0.25" stroke="green"/><polygon points="-5.684341886080802e-14,61.60678024149689 400.00000000000006,190.54330026534998 " stroke-opacity="0.25" stroke="green"/><polygon points="0.0,52.520715948426215 400.0,192.20349269826644 " stroke-opacity="0.25" stroke="green"/><polygon points="0.0,44.56720424025232 400.0,193.65674677254074 " stroke-opacity="0.25" stroke="green"/><polygon points="0.0,37.546913875056305 400.0,194.93948400235138 " stroke-opacity="0.25" stroke="green"/><polygon points="5.684341886080802e-14,31.304698282090158 399.99999999999994,196.08005254311982 " stroke-opacity="0.25" stroke="green"/><polygon points="0.0,25.717995663947818 400.0,197.1008467079452 " stroke-opacity="0.25" stroke="green"/><polygon points="-5.684341886080802e-14,20.688701206429414 400.00000000000006,198.0197920655791 " stroke-opacity="0.25" stroke="green"/><polygon points="0.0,16.1373565172606 400.0,198.85140713771935 " stroke-opacity="0.25" stroke="green"/><polygon points="0.0,179.58557375187712 400.0,184.09246718600085 " stroke-opacity="0.25" stroke="green"/><polygon points="-5.684341886080802e-14,148.32285505543118 400.00000000000006,187.95043871432657 " stroke-opacity="0.25" stroke="green"/><polygon points="0.0,123.89614480900099 400.0,190.96481355409708 " stroke-opacity="0.25" stroke="green"/><polygon points="0.0,104.28424762251964 400.0,193.38501704620404 " stroke-opacity="0.25" stroke="green"/><polygon points="0.0,88.19128938568446 400.0,195.37096635813333 " stroke-opacity="0.25" stroke="green"/><polygon points="-5.684341886080802e-14,74.74814472661939 400.00000000000006,197.02991578762527 " stroke-opacity="0.25" stroke="green"/><polygon points="0.0,63.35013172938076 400.0,198.43648602388026 " stroke-opacity="0.25" stroke="green"/><polygon points="-5.684341886080802e-14,53.56354578777899 400.00000000000006,199.6441983245544 " stroke-opacity="0.25" stroke="green"/><polygon points="5.684341886080802e-14,45.06921834903969 399.99999999999994,200.69243964128472 " stroke-opacity="0.25" stroke="green"/><polygon points="0.0,37.627049112235966 400.0,201.61083951889466 " stroke-opacity="0.25" stroke="green"/><polygon points="-5.684341886080802e-14,31.052949331972542 400.00000000000006,202.4221154038519 " stroke-opacity="0.25" stroke="green"/><polygon points="0.0,25.203408647537742 400.0,203.14397717260775 " stroke-opacity="0.25" stroke="green"/><polygon points="0.0,19.964898258419794 400.0,203.7904348312743 " stroke-opacity="0.25" stroke="green"/><polygon points="5.684341886080802e-14,15.24643003259041 399.99999999999994,204.37271675784996 " stroke-opacity="0.25" stroke="green"/><polygon points="0.0,10.974226857095914 400.0,204.89992740687626 " stroke-opacity="0.25" stroke="green"/><polygon points="-5.684341886080802e-14,161.68765719329048 400.00000000000006,202.1616480844614 " stroke-opacity="0.25" stroke="green"/><polygon points="0.0,132.74224616046914 400.0,203.79479781452935 " stroke-opacity="0.25" stroke="green"/><polygon points="0.0,110.1027914184899 400.0,205.0721546763415 " stroke-opacity="0.25" stroke="green"/><polygon points="0.0,91.91101818659062 400.0,206.0985657198553 " stroke-opacity="0.25" stroke="green"/><polygon points="0.0,76.9734882809144 400.0,206.9413667740768 " stroke-opacity="0.25" stroke="green"/><polygon points="-5.684341886080802e-14,64.48868630297139 400.00000000000006,207.64578071233836 " stroke-opacity="0.25" stroke="green"/><polygon points="0.0,53.8983425991712 400.0,208.2433060658936 " stroke-opacity="0.25" stroke="green"/><polygon points="0.0,44.80166460265579 400.0,208.75655623869915 " stroke-opacity="0.25" stroke="green"/><polygon points="-5.684341886080802e-14,36.9034680715003 400.00000000000006,209.20218603190727 " stroke-opacity="0.25" stroke="green"/><polygon points="0.0,29.98154232156088 400.0,209.59273295339494 " stroke-opacity="0.25" stroke="green"/><polygon points="0.0,23.865412707817427 400.0,209.93781547498773 " stroke-opacity="0.25" stroke="green"/><polygon points="0.0,18.422112056743543 400.0,210.2449358326465 " stroke-opacity="0.25" stroke="green"/><polygon points="0.0,13.54640308371097 400.0,210.5200316944454 " stroke-opacity="0.25" stroke="green"/><polygon points="0.0,9.15390787221196 400.0,210.76786380713676 " stroke-opacity="0.25" stroke="green"/><polygon points="0.0,5.176183645015385 400.0,210.99229382958714 " stroke-opacity="0.25" stroke="green"/><polygon points="0.0,143.4267302886939 400.0,220.2513106491841 " stroke-opacity="0.25" stroke="green"/><polygon points="-5.684341886080802e-14,116.60259471563867 400.00000000000006,219.6706990541191 " stroke-opacity="0.25" stroke="green"/><polygon points="0.0,95.64391247126724 400.0,219.21704589183082 " stroke-opacity="0.25" stroke="green"/><polygon points="0.0,78.81645117197844 400.0,218.85281349674523 " stroke-opacity="0.25" stroke="green"/><polygon points="0.0,65.0083208648258 400.0,218.55393487899195 " stroke-opacity="0.25" stroke="green"/><polygon points="-5.684341886080802e-14,53.47379188273993 400.00000000000006,218.30426863150475 " stroke-opacity="0.25" stroke="green"/><polygon points="0.0,43.69403315893666 400.0,218.0925845943244 " stroke-opacity="0.25" stroke="green"/><polygon points="-5.684341886080802e-14,35.2969161121481 400.00000000000006,217.9108280001853 " stroke-opacity="0.25" stroke="green"/><polygon points="5.684341886080802e-14,28.008586743513547 399.99999999999994,217.75307124681083 " stroke-opacity="0.25" stroke="green"/><polygon points="0.0,21.623033442663285 400.0,217.61485518846735 " stroke-opacity="0.25" stroke="green"/><polygon points="-5.684341886080802e-14,15.982303809106924 400.00000000000006,217.4927609267175 " stroke-opacity="0.25" stroke="green"/><polygon points="5.684341886080802e-14,10.963262634763453 399.99999999999994,217.38412318538207 " stroke-opacity="0.25" stroke="green"/><polygon points="0.0,6.468499583508645 400.0,217.28683350618547 " stroke-opacity="0.25" stroke="green"/><polygon points="0.0,2.4199447340165534 400.0,217.19920205642373 " stroke-opacity="0.25" stroke="green"/><polygon points="2.281869660026416,0.0 400.0,217.11985864665024 " stroke-opacity="0.25" stroke="green"/><polygon points="0.0,124.47592196085971 400.0,238.6803891310965 " stroke-opacity="0.25" stroke="green"/><polygon points="0.0,99.66989280076828 400.0,235.80180593300304 " stroke-opacity="0.25" stroke="green"/><polygon points="0.0,80.34871683600436 400.0,233.5597053476721 " stroke-opacity="0.25" stroke="green"/><polygon points="0.0,64.87435590362162 400.0,231.7640033796661 " stroke-opacity="0.25" stroke="green"/><polygon points="0.0,52.20197997153542 400.0,230.29345409494965 " stroke-opacity="0.25" stroke="green"/><polygon points="0.0,41.63372632771939 400.0,229.06707492817748 " stroke-opacity="0.25" stroke="green"/><polygon points="0.0,32.685713857843524 400.0,228.02871452853904 " stroke-opacity="0.25" stroke="green"/><polygon points="-5.684341886080802e-14,25.011867444959933 400.00000000000006,227.13821306188694 " stroke-opacity="0.25" stroke="green"/><polygon points="0.0,18.358120897281538 400.0,226.36608774941112 " stroke-opacity="0.25" stroke="green"/><polygon points="0.0,12.533745308112515 400.0,225.69020570468058 " stroke-opacity="0.25" stroke="green"/><polygon points="0.0,7.392769933686992 400.0,225.0936279437207 " stroke-opacity="0.25" stroke="green"/><polygon points="0.0,2.8215805702969874 400.0,224.563170254913 " stroke-opacity="0.25" stroke="green"/><polygon points="2.2534369680903126,-5.684341886080802e-14 400.0,224.08841745044163 " stroke-opacity="0.25" stroke="green"/><polygon points="8.665346256108762,0.0 400.0,223.66103267422935 " stroke-opacity="0.25" stroke="green"/><polygon points="14.31250376517582,-5.684341886080802e-14 400.0,223.27426362583185 " stroke-opacity="0.25" stroke="green"/><polygon points="-5.684341886080802e-14,104.46703352556813 400.00000000000006,257.7923672961618 " stroke-opacity="0.25" stroke="green"/><polygon points="0.0,81.67368010322538 400.0,252.42656497762917 " stroke-opacity="0.25" stroke="green"/><polygon points="-5.684341886080802e-14,64.0152066225092 400.00000000000006,248.26956902407656 " stroke-opacity="0.25" stroke="green"/><polygon points="-5.684341886080802e-14,49.9321000425914 400.00000000000006,244.95425317131608 " stroke-opacity="0.25" stroke="green"/><polygon points="0.0,38.438310894627705 400.0,242.24849069239914 " stroke-opacity="0.25" stroke="green"/><polygon points="-5.684341886080802e-14,28.87985292303287 400.00000000000006,239.9983261380556 " stroke-opacity="0.25" stroke="green"/><polygon points="0.0,20.805875062478208 400.0,238.0976242833878 " stroke-opacity="0.25" stroke="green"/><polygon points="-5.684341886080802e-14,13.89547461380576 400.00000000000006,236.47084115663966 " stroke-opacity="0.25" stroke="green"/><polygon points="0.0,7.914025495713474 400.0,235.06274323654227 " stroke-opacity="0.25" stroke="green"/><polygon points="0.0,2.686009388723363 400.0,233.83201160928138 " stroke-opacity="0.25" stroke="green"/><polygon points="3.2769384644948047,0.0 399.99999999999994,232.7471198186453 " stroke-opacity="0.25" stroke="green"/><polygon points="10.118534179195166,0.0 400.00000000000006,231.78359515409386 " stroke-opacity="0.25" stroke="green"/><polygon points="16.084610475328333,0.0 399.99999999999994,230.922150391203 " stroke-opacity="0.25" stroke="green"/><polygon points="21.333121088006948,0.0 400.0,230.14737945405838 " stroke-opacity="0.25" stroke="green"/><polygon points="25.986179529686325,0.0 400.0,229.44682792585863 " stroke-opacity="0.25" stroke="green"/><polygon points="5.684341886080802e-14,82.96008505143182 399.99999999999994,277.9828222242473 " stroke-opacity="0.25" stroke="green"/><polygon points="0.0,62.28845475087056 400.0,269.81367767959193 " stroke-opacity="0.25" stroke="green"/><polygon points="-5.684341886080802e-14,46.39859152450475 400.00000000000006,263.5342218455031 " stroke-opacity="0.25" stroke="green"/><polygon points="0.0,33.80332251818578 400.0,258.55674442377097 " stroke-opacity="0.25" stroke="green"/><polygon points="0.0,23.574246194843596 400.0,254.51435387069375 " stroke-opacity="0.25" stroke="green"/><polygon points="0.0,15.10183439148787 400.0,251.16617302297516 " stroke-opacity="0.25" stroke="green"/><polygon points="-5.684341886080802e-14,7.969355759942999 400.00000000000006,248.34751537209928 " stroke-opacity="0.25" stroke="green"/><polygon points="0.0,1.8822336328791494 400.0,245.94196826265792 " stroke-opacity="0.25" stroke="green"/><polygon points="5.458139209015513,0.0 400.0,243.8649126989635 " stroke-opacity="0.25" stroke="green"/><polygon points="12.73175077508347,0.0 400.0,242.05336304331937 " stroke-opacity="0.25" stroke="green"/><polygon points="18.999323949574347,-5.684341886080802e-14 400.00000000000006,240.45946895938806 " stroke-opacity="0.25" stroke="green"/><polygon points="24.456080791305226,0.0 399.99999999999994,239.0462268246988 " stroke-opacity="0.25" stroke="green"/><polygon points="29.249801525910158,0.0 400.0,237.78457114398054 " stroke-opacity="0.25" stroke="green"/><polygon points="33.49441047988674,5.684341886080802e-14 400.0,236.6513542604157 " stroke-opacity="0.25" stroke="green"/><polygon points="37.2791461962168,5.684341886080802e-14 400.0,235.62791318885 " stroke-opacity="0.25" stroke="green"/><polygon points="0.0,59.40128383463613 400.0,299.7358799699506 " stroke-opacity="0.25" stroke="green"/><polygon points="0.0,41.108184580418026 400.0,288.28175636800734 " stroke-opacity="0.25" stroke="green"/><polygon points="0.0,27.195442976084763 400.0,279.5703696443396 " stroke-opacity="0.25" stroke="green"/><polygon points="0.0,16.257947027348735 400.0,272.72191664293314 " stroke-opacity="0.25" stroke="green"/><polygon points="0.0,7.433500899478787 400.0,267.1965381784827 " stroke-opacity="0.25" stroke="green"/><polygon points="0.0,0.1637039196035346 400.0,262.6445947373338 " stroke-opacity="0.25" stroke="green"/><polygon points="8.957621327178089,0.0 400.0,258.8296689997139 " stroke-opacity="0.25" stroke="green"/><polygon points="16.661914734527926,0.0 399.99999999999994,255.58616792773373 " stroke-opacity="0.25" stroke="green"/><polygon points="23.20358145667666,0.0 400.0,252.79464932377948 " stroke-opacity="0.25" stroke="green"/><polygon points="28.827329126378373,-5.684341886080802e-14 400.0,250.3667912663484 " stroke-opacity="0.25" stroke="green"/><polygon points="33.713693460785976,0.0 400.0,248.2358765628614 " stroke-opacity="0.25" stroke="green"/><polygon points="37.99877951309048,-5.684341886080802e-14 400.0,246.3505674395035 " stroke-opacity="0.25" stroke="green"/><polygon points="41.787137696909014,-5.684341886080802e-14 399.99999999999994,244.6707154962447 " stroke-opacity="0.25" stroke="green"/><polygon points="45.16040735183827,0.0 400.0,243.16447074409612 " stroke-opacity="0.25" stroke="green"/><polygon points="48.18326666598955,0.0 400.0,241.8062429170357 " stroke-opacity="0.25" stroke="green"/><polygon points="5.684341886080802e-14,33.06030479268156 399.99999999999994,323.6773159948258 " stroke-opacity="0.25" stroke="green"/><polygon points="-5.684341886080802e-14,17.609455073934242 400.00000000000006,308.2264662760784 " stroke-opacity="0.25" stroke="green"/><polygon points="0.0,6.021317784873702 400.0,296.63832898701787 " stroke-opacity="0.25" stroke="green"/><polygon points="4.117691351955585,0.0 400.0,287.6253333177486 " stroke-opacity="0.25" stroke="green"/><polygon points="14.041950782729344,0.0 400.00000000000006,280.41493678233314 " stroke-opacity="0.25" stroke="green"/><polygon points="22.16179940790795,-5.684341886080802e-14 400.00000000000006,274.51552143517506 " stroke-opacity="0.25" stroke="green"/><polygon points="28.928339928890097,0.0 400.0,269.59934197921 " stroke-opacity="0.25" stroke="green"/><polygon points="34.65387421587499,0.0 400.0,265.43949782416263 " stroke-opacity="0.25" stroke="green"/><polygon points="39.561475033290606,0.0 400.00000000000006,261.87391711983634 " stroke-opacity="0.25" stroke="green"/><polygon points="43.81472907505079,-5.684341886080802e-14 399.99999999999994,258.7837471760869 " stroke-opacity="0.25" stroke="green"/><polygon points="47.536326361590966,-5.684341886080802e-14 400.0,256.07984847530605 " stroke-opacity="0.25" stroke="green"/><polygon points="50.820088673244044,0.0 399.99999999999994,253.69405550402885 " stroke-opacity="0.25" stroke="green"/><polygon points="53.73898850582455,0.0 400.0,251.5733506406714 " stroke-opacity="0.25" stroke="green"/><polygon points="56.35063572444929,0.0 400.0,249.67587786819365 " stroke-opacity="0.25" stroke="green"/><polygon points="58.70111822121146,0.0 400.0,247.96815237296366 " stroke-opacity="0.25" stroke="green"/><polygon points="0.0,2.9306798285662126 400.0,350.6578251601509 " stroke-opacity="0.25" stroke="green"/><polygon points="10.504475982292888,0.0 400.0,330.1605157488233 " stroke-opacity="0.25" stroke="green"/><polygon points="21.187424040450992,0.0 400.0,315.06228781269044 " stroke-opacity="0.25" stroke="green"/><polygon points="29.66587628063172,-5.684341886080802e-14 400.0,303.4781819334273 " stroke-opacity="0.25" stroke="green"/><polygon points="36.558380136203255,0.0 400.0,294.30922076423167 " stroke-opacity="0.25" stroke="green"/><polygon points="42.271868504216684,0.0 400.00000000000006,286.8714138391464 " stroke-opacity="0.25" stroke="green"/><polygon points="47.0850252990399,0.0 400.0,280.7167741761225 " stroke-opacity="0.25" stroke="green"/><polygon points="51.195119118492386,0.0 399.99999999999994,275.5396132066367 " stroke-opacity="0.25" stroke="green"/><polygon points="54.74571067339525,-5.684341886080802e-14 400.0,271.1241978086787 " stroke-opacity="0.25" stroke="green"/><polygon points="57.84376596852027,0.0 400.0,267.313928632201 " stroke-opacity="0.25" stroke="green"/><polygon points="60.57061807558779,0.0 400.00000000000006,263.9923783219769 " stroke-opacity="0.25" stroke="green"/><polygon points="62.989211363395555,-5.684341886080802e-14 400.0,261.0711863326042 " stroke-opacity="0.25" stroke="green"/><polygon points="65.14902037686895,5.684341886080802e-14 399.99999999999994,258.48208217947683 " stroke-opacity="0.25" stroke="green"/><polygon points="67.08946996906226,0.0 399.99999999999994,256.17148281891764 " stroke-opacity="0.25" stroke="green"/><polygon points="68.84236370559336,0.0 400.00000000000006,254.09674449190248 " stroke-opacity="0.25" stroke="green"/><polygon points="31.315807359081077,0.0 400.00000000000006,381.8921529690466 " stroke-opacity="0.25" stroke="green"/><polygon points="39.97336840179693,0.0 400.0,354.77585980232806 " stroke-opacity="0.25" stroke="green"/><polygon points="46.77339613263496,-5.684341886080802e-14 400.00000000000006,335.26000550780276 " stroke-opacity="0.25" stroke="green"/><polygon points="52.25578916238763,-5.684341886080802e-14 400.00000000000006,320.54188048856 " stroke-opacity="0.25" stroke="green"/><polygon points="56.76969562053631,0.0 400.0,309.0459541888474 " stroke-opacity="0.25" stroke="green"/><polygon points="60.55091827511606,-5.684341886080802e-14 400.0,299.81848584788304 " stroke-opacity="0.25" stroke="green"/><polygon points="63.76445658407036,0.0 400.0,292.24833078095406 " stroke-opacity="0.25" stroke="green"/><polygon points="66.52922581564894,0.0 400.00000000000006,285.92578535555174 " stroke-opacity="0.25" stroke="green"/><polygon points="68.9330960415785,0.0 400.0,280.5659086202379 " stroke-opacity="0.25" stroke="green"/><polygon points="71.04240261961547,0.0 400.0,275.96439118724925 " stroke-opacity="0.25" stroke="green"/><polygon points="72.9081623497958,0.0 400.0,271.97091858168926 " stroke-opacity="0.25" stroke="green"/><polygon points="74.57025394582448,0.0 400.0,268.4724394808545 " stroke-opacity="0.25" stroke="green"/><polygon points="76.06030032874851,0.0 400.0,265.382292599656 " stroke-opacity="0.25" stroke="green"/><polygon points="77.4036999153091,0.0 400.0,262.63293087696314 " stroke-opacity="0.25" stroke="green"/><polygon points="78.62108629118461,-5.684341886080802e-14 400.00000000000006,260.170927023059 " stroke-opacity="0.25" stroke="green"/><polygon points="60.866240585590305,0.0 384.46203105572226,400.0 " stroke-opacity="0.25" stroke="green"/><polygon points="65.65057717271699,-5.684341886080802e-14 400.0,383.0455061031272 " stroke-opacity="0.25" stroke="green"/><polygon points="69.46661172518716,0.0 400.00000000000006,357.78824753767003 " stroke-opacity="0.25" stroke="green"/><polygon points="72.58129243593015,5.684341886080802e-14 400.00000000000006,339.1491494497881 " stroke-opacity="0.25" stroke="green"/><polygon points="75.17170039675662,-5.684341886080802e-14 400.0,324.82829960324324 " stroke-opacity="0.25" stroke="green"/><polygon points="77.35993072386447,0.0 400.00000000000006,313.48082815626515 " stroke-opacity="0.25" stroke="green"/><polygon points="79.23289746119406,0.0 400.00000000000006,304.2678019503369 " stroke-opacity="0.25" stroke="green"/><polygon points="80.85415366037702,0.0 400.00000000000006,296.63876161099455 " stroke-opacity="0.25" stroke="green"/><polygon points="82.27124597249917,5.684341886080802e-14 399.99999999999994,290.2175442557941 " stroke-opacity="0.25" stroke="green"/><polygon points="83.52045534418369,0.0 400.0,284.7383576650868 " stroke-opacity="0.25" stroke="green"/><polygon points="84.62994704594782,0.0 399.99999999999994,280.00806661077104 " stroke-opacity="0.25" stroke="green"/><polygon points="85.62191973346711,0.0 400.00000000000006,275.88295408986016 " stroke-opacity="0.25" stroke="green"/><polygon points="86.5141059610981,0.0 400.0,272.25386559223256 " stroke-opacity="0.25" stroke="green"/><polygon points="87.32084155278434,-5.684341886080802e-14 400.00000000000006,269.0364084268584 " stroke-opacity="0.25" stroke="green"/><polygon points="88.05384175241882,0.0 400.0,266.1643070051736 " stroke-opacity="0.25" stroke="green"/><polygon points="86.78053446905707,0.0 355.92051191380824,400.0 " stroke-opacity="0.25" stroke="green"/><polygon points="88.5505796259016,0.0 387.7340324885066,400.0 " stroke-opacity="0.25" stroke="green"/><polygon points="89.9791430793049,0.0 400.0,383.4153042570665 " stroke-opacity="0.25" stroke="green"/><polygon points="91.15635049479924,5.684341886080802e-14 400.00000000000006,359.73548591343376 " stroke-opacity="0.25" stroke="green"/><polygon points="92.14317681635278,5.684341886080802e-14 400.00000000000006,341.90964060331635 " stroke-opacity="0.25" stroke="green"/><polygon points="92.98235037503714,0.0 400.0,328.0058001446868 " stroke-opacity="0.25" stroke="green"/><polygon points="93.70470313637911,0.0 400.0,316.8578776807274 " stroke-opacity="0.25" stroke="green"/><polygon points="94.33304148842718,0.0 399.99999999999994,307.7203702997655 " stroke-opacity="0.25" stroke="green"/><polygon points="94.8845980197204,0.0 400.0,300.09442271051444 " stroke-opacity="0.25" stroke="green"/><polygon points="95.37263624289581,0.0 399.99999999999994,293.6336162343309 " stroke-opacity="0.25" stroke="green"/><polygon points="95.80753109446067,-5.684341886080802e-14 400.0,288.0898755567823 " stroke-opacity="0.25" stroke="green"/><polygon points="96.19751468741025,0.0 400.0,283.2808834868655 " stroke-opacity="0.25" stroke="green"/><polygon points="96.54920236785682,0.0 400.0,279.069646703155 " stroke-opacity="0.25" stroke="green"/><polygon points="96.86797105033062,-5.684341886080802e-14 400.0,275.3512355376298 " stroke-opacity="0.25" stroke="green"/><polygon points="97.15823606308105,-5.684341886080802e-14 400.00000000000006,272.04392179983336 " stroke-opacity="0.25" stroke="green"/><polygon points="110.08846582975389,0.0 330.64463264495384,400.0 " stroke-opacity="0.25" stroke="green"/><polygon points="109.3998849444501,0.0 363.72883224076656,400.0 " stroke-opacity="0.25" stroke="green"/><polygon points="108.83916138987773,0.0 390.66987924552313,400.0 " stroke-opacity="0.25" stroke="green"/><polygon points="108.37370920681424,-5.684341886080802e-14 400.00000000000006,382.88788677138325 " stroke-opacity="0.25" stroke="green"/><polygon points="107.9811486064092,5.684341886080802e-14 400.0,360.6132492405766 " stroke-opacity="0.25" stroke="green"/><polygon points="107.64560031709681,0.0 400.0,343.5712256286911 " stroke-opacity="0.25" stroke="green"/><polygon points="107.35548516442248,0.0 400.0,330.1118033115457 " stroke-opacity="0.25" stroke="green"/><polygon points="107.10216078564481,0.0 399.99999999999994,319.2127226078126 " stroke-opacity="0.25" stroke="green"/><polygon points="106.87904607151427,0.0 400.0,310.20686715386944 " stroke-opacity="0.25" stroke="green"/><polygon points="106.68104122029354,-5.684341886080802e-14 400.0,302.64036290279415 " stroke-opacity="0.25" stroke="green"/><polygon points="106.5041331660628,0.0 400.0,296.1936799687531 " stroke-opacity="0.25" stroke="green"/><polygon points="106.34512074909061,0.0 400.0,290.6353510080217 " stroke-opacity="0.25" stroke="green"/><polygon points="106.20141927435525,0.0 400.0,285.79358916286884 " stroke-opacity="0.25" stroke="green"/><polygon points="106.07091893274895,0.0 400.0,281.53821814673154 " stroke-opacity="0.25" stroke="green"/><polygon points="105.95188052717515,-5.684341886080802e-14 399.99999999999994,277.76879285745036 " stroke-opacity="0.25" stroke="green"/><polygon points="131.53364235094512,-5.684341886080802e-14 307.7696205933877,400.00000000000006 " stroke-opacity="0.25" stroke="green"/><polygon points="128.7414835619146,-5.684341886080802e-14 342.0746357898067,400.00000000000006 " stroke-opacity="0.25" stroke="green"/><polygon points="126.45286237477708,-5.684341886080802e-14 370.1930884050537,400.00000000000006 " stroke-opacity="0.25" stroke="green"/><polygon points="124.54283325008129,0.0 393.6600840521902,400.0 " stroke-opacity="0.25" stroke="green"/><polygon points="122.9246306078381,0.0 400.0,381.36152903924346 " stroke-opacity="0.25" stroke="green"/><polygon points="121.53612038927801,0.0 400.0,360.3951922284293 " stroke-opacity="0.25" stroke="green"/><polygon points="120.33163861091919,0.0 400.0,344.1351936257397 " stroke-opacity="0.25" stroke="green"/><polygon points="119.27687330946141,0.0 400.0,331.15678482033104 " stroke-opacity="0.25" stroke="green"/><polygon points="118.34554332841638,-5.684341886080802e-14 400.0,320.55758975858157 " stroke-opacity="0.25" stroke="green"/><polygon points="117.51717865769639,5.684341886080802e-14 400.0,311.7383017167793 " stroke-opacity="0.25" stroke="green"/><polygon points="116.77559840777108,5.684341886080802e-14 400.0,304.28530401394744 " stroke-opacity="0.25" stroke="green"/><polygon points="116.10784334220226,5.684341886080802e-14 400.00000000000006,297.9039222363558 " stroke-opacity="0.25" stroke="green"/><polygon points="115.50341209691078,-5.684341886080802e-14 400.00000000000006,292.3785370400152 " stroke-opacity="0.25" stroke="green"/><polygon points="114.95370485300376,0.0 400.00000000000006,287.5477394259184 " stroke-opacity="0.25" stroke="green"/><polygon points="114.45161157168306,-5.684341886080802e-14 400.0,283.2883015000061 " stroke-opacity="0.25" stroke="green"/><polygon points="151.68130583279034,-5.684341886080802e-14 286.65019157784616,400.00000000000006 " stroke-opacity="0.25" stroke="green"/><polygon points="146.9993179327638,0.0 322.2355387232301,400.0 " stroke-opacity="0.25" stroke="green"/><polygon points="143.14449103709956,0.0 351.5340666555205,400.0 " stroke-opacity="0.25" stroke="green"/><polygon points="139.915416213624,-5.684341886080802e-14 376.0765795806702,400.00000000000006 " stroke-opacity="0.25" stroke="green"/><polygon points="137.17116487568165,0.0 396.9342021546861,400.0 " stroke-opacity="0.25" stroke="green"/><polygon points="134.8101722580173,0.0 399.99999999999994,378.7496781879857 " stroke-opacity="0.25" stroke="green"/><polygon points="132.7573907368813,-5.684341886080802e-14 400.00000000000006,359.04792786284577 " stroke-opacity="0.25" stroke="green"/><polygon points="130.95616601465406,0.0 400.0,343.58997393407833 " stroke-opacity="0.25" stroke="green"/><polygon points="129.3629274584057,0.0 400.0,331.137952267649 " stroke-opacity="0.25" stroke="green"/><polygon points="127.9436173516483,-5.684341886080802e-14 400.0,320.89276451861247 " stroke-opacity="0.25" stroke="green"/><polygon points="126.67122903850266,0.0 400.0,312.3154997663812 " stroke-opacity="0.25" stroke="green"/><polygon points="125.52407197160427,0.0 400.0,305.0295089929024 " stroke-opacity="0.25" stroke="green"/><polygon points="124.48452500623901,-5.684341886080802e-14 400.00000000000006,298.7636104375573 " stroke-opacity="0.25" stroke="green"/><polygon points="123.53812482114765,-5.684341886080802e-14 399.99999999999994,293.3175892702003 " stroke-opacity="0.25" stroke="green"/><polygon points="122.67288887319195,-5.684341886080802e-14 400.0,288.54040849586886 " stroke-opacity="0.25" stroke="green"/><polygon points="170.98553789763503,0.0 266.7815650203825,400.0 " stroke-opacity="0.25" stroke="green"/><polygon points="164.52035209173752,0.0 303.7925472164842,400.0 " stroke-opacity="0.25" stroke="green"/><polygon points="159.18347996864065,0.0 334.34431866760474,400.0 " stroke-opacity="0.25" stroke="green"/><polygon points="154.70325492365464,0.0 359.9920779668423,400.0 " stroke-opacity="0.25" stroke="green"/><polygon points="150.8887439183953,0.0 381.8288515942459,400.0 " stroke-opacity="0.25" stroke="green"/><polygon points="147.60183113329487,0.0 400.00000000000006,398.97992946844954 " stroke-opacity="0.25" stroke="green"/><polygon points="144.740135971718,0.0 400.0,374.98593950091526 " stroke-opacity="0.25" stroke="green"/><polygon points="142.22615782864605,0.0 400.0,356.54224573823404 " stroke-opacity="0.25" stroke="green"/><polygon points="140.00015119894113,0.0 400.00000000000006,341.9226558083674 " stroke-opacity="0.25" stroke="green"/><polygon points="138.01531657987948,0.0 399.99999999999994,330.04955479452275 " stroke-opacity="0.25" stroke="green"/><polygon points="136.2344741445178,0.0 400.0,320.21545071783476 " stroke-opacity="0.25" stroke="green"/><polygon points="134.62771288177618,0.0 400.0,311.93663486051497 " stroke-opacity="0.25" stroke="green"/><polygon points="133.17069701609282,5.684341886080802e-14 400.0,304.87118597601346 " stroke-opacity="0.25" stroke="green"/><polygon points="131.84342485465885,-5.684341886080802e-14 400.0,298.77056551509867 " stroke-opacity="0.25" stroke="green"/><polygon points="130.62930506626566,-5.684341886080802e-14 400.00000000000006,293.4497753117165 " stroke-opacity="0.25" stroke="green"/></svg>
