<?xml version="1.0" encoding="UTF-8"?>
<!DOCTYPE svg PUBLIC "-//W3C//DTD SVG 1.1//EN"
    "http://www.w3.org/Graphics/SVG/1.1/DTD/svg11.dtd"><svg width="400" height="400" stroke="black" fill="none" fill-opacity="0.75" font-size="14" font-style="italic" font-family="sans-serif" xmlns="http://www.w3.org/2000/svg" xmlns:xlink="http://www.w3.org/1999/xlink" version="1.1"><filter id="blur1"><feGaussianBlur stdDeviation="0.5"/></filter><rect width="100%" height="100%" fill="white" stroke="none" fill-opacity="1"/><rect class="bg" fill="black" width="100%" height="100%" stroke="none" fill-opacity="1"/><polyline class="polyline" opacity="0.5" stroke="blue" points="200.6254595327206,131.97555925150442 201.92549041086053,66.41111215207212 "/><polyline class="polyline" opacity="0.5" stroke="blue" points="200.4011923882935,131.60253415379142 202.1926308164693,65.28366700091081 "/><polyline class="polyline" opacity="0.5" stroke="blue" points="200.17547850136773,131.25699964798207 202.46247042093293,64.20807531329643 "/><polyline class="polyline" opacity="0.5" stroke="blue" points="199.94840060595018,130.93933632304623 202.73525314746306,63.185830050335824 "/><polyline class="polyline" opacity="0.5" stroke="blue" points="199.72004350526285,130.6499186263443 203.01122509407253,62.21843128234559 "/><polyline class="polyline" opacity="0.5" stroke="blue" points="199.49049408104622,130.38911438343203 203.29063431112425,61.30738424852197 "/><polyline class="polyline" opacity="0.5" stroke="blue" points="199.25984130027985,130.15728430369057 203.5737305582388,60.45419726163516 "/><polyline class="polyline" opacity="0.5" stroke="blue" points="199.02817621917458,129.95478147209244 203.86076503977793,59.660379453757145 "/><polyline class="polyline" opacity="0.5" stroke="blue" points="198.7955919842895,129.7819508274668 204.151990118161,58.92743835946612 "/><polyline class="polyline" opacity="0.5" stroke="blue" points="198.5621838306266,129.6391286276805 204.44765900432304,58.2568773334699 "/><polyline class="polyline" opacity="0.5" stroke="blue" points="198.32804907655535,129.52664190220932 204.74802542468402,57.65019280015761 "/><polyline class="polyline" opacity="0.5" stroke="blue" points="198.0932871154204,129.4448078926317 205.05334326406725,57.10887133323337 "/><polyline class="polyline" opacity="0.5" stroke="blue" points="197.85799940368565,129.3939334816374 205.36386618408756,56.63438656430523 "/><polyline class="polyline" opacity="0.5" stroke="blue" points="197.6222894454697,129.37431461120684 205.67984721662032,56.228195920100944 "/><polyline class="polyline" opacity="0.5" stroke="blue" points="197.38626277332943,129.38623569067926 206.00153833206662,55.8917371888607 "/><polyline class="polyline" opacity="0.5" stroke="blue" points="197.15002692515122,129.42996899549485 206.32918998224372,55.62642491742295 "/><polyline class="polyline" opacity="0.5" stroke="blue" points="196.91369141701202,129.50577405746077 206.6630506178589,55.43364664155774 "/><polyline class="polyline" opacity="0.5" stroke="blue" points="196.67736771187697,129.61389704746094 207.00336618066305,55.31475895323433 "/><polyline class="polyline" opacity="0.5" stroke="blue" points="196.44116918400363,129.75457015159543 207.35037957053262,55.27108340971347 "/><polyline class="polyline" opacity="0.5" stroke="blue" points="196.20521107893006,129.92801094180757 207.7043300878933,55.303902290646505 "/><polyline class="polyline" opacity="0.5" stroke="blue" points="195.96961046892744,130.1344217421228 208.0654528520747,55.41445421071836 "/><polyline class="polyline" opacity="0.5" stroke="blue" points="195.73448620380722,130.3739889916967 208.43397819637426,55.60392959680976 "/><polyline class="polyline" opacity="0.5" stroke="blue" points="195.49995885697845,130.64688260593536 208.81013104080716,55.87346604014755 "/><polyline class="polyline" opacity="0.5" stroke="blue" points="195.2661506666604,130.9532553370232 209.19413024373014,56.224143535467476 "/><polyline class="polyline" opacity="0.5" stroke="blue" points="195.03318547216412,131.29324213525814 209.58618793374615,56.65697962081302 "/><polyline class="polyline" opacity="0.5" stroke="blue" points="194.80118864516726,131.66695951266297 209.98650882352473,57.17292443323615 "/><polyline class="polyline" opacity="0.5" stroke="blue" points="194.5702870159168,132.07450491040436 210.39528950740964,57.77285569732692 "/><polyline class="polyline" opacity="0.5" stroke="blue" points="194.3406087943058,132.51595607161528 210.81271774492402,58.45757366517731 "/><polyline class="polyline" opacity="0.5" stroke="blue" points="194.1122834857843,132.99137042127512 211.23897173252976,59.22779602805642 "/><polyline class="polyline" opacity="0.5" stroke="blue" points="193.8854418020755,133.50078445486008 211.67421936624305,60.08415282172311 "/><polyline class="polyline" opacity="0.5" stroke="blue" points="193.6602155666849,134.0442131375283 212.1186174979535,61.02718134892038 "/><polyline class="polyline" opacity="0.5" stroke="blue" points="193.43673761520355,134.62164931565616 212.5723111885371,62.05732114414363 "/><polyline class="polyline" opacity="0.5" stroke="blue" points="193.21514169042248,135.23306314258468 213.0354329610896,63.17490900725434 "/><polyline class="polyline" opacity="0.5" stroke="blue" points="192.99556233229285,135.87840152047764 213.50810205783392,64.38017413387954 "/><polyline class="polyline" opacity="0.5" stroke="blue" points="192.77813476278223,136.55758756022666 213.9904237044719,65.67323337178959 "/><polyline class="polyline" opacity="0.5" stroke="blue" points="192.56299476569623,137.2705200613684 214.48248838595117,67.05408663354356 "/><polyline class="polyline" opacity="0.5" stroke="blue" points="192.35027856155241,138.01707301400137 214.98437113779866,68.52261249662283 "/><polyline class="polyline" opacity="0.5" stroke="blue" points="192.14012267761345,138.79709512470762 215.49613085733455,70.07856402300649 "/><polyline class="polyline" opacity="0.5" stroke="blue" points="191.9326638132044,139.61040936849076 216.01780963921414,71.72156483065496 "/><polyline class="polyline" opacity="0.5" stroke="blue" points="191.7280387004607,140.45681256874724 216.54943213985126,73.45110544964719 "/><polyline class="polyline" opacity="0.5" stroke="blue" points="191.52638396067195,141.33607500727706 217.09100497535215,75.26653999572311 "/><polyline class="polyline" opacity="0.5" stroke="blue" points="191.32783595640848,142.24794006632888 217.64251615762575,77.1670831937193 "/><polyline class="polyline" opacity="0.5" stroke="blue" points="191.13253063963705,143.19212390464872 218.2039345733408,79.15180778281434 "/><polyline class="polyline" opacity="0.5" stroke="blue" points="190.94060339605394,144.16831516946942 218.7752095103563,81.21964233462174 "/><polyline class="polyline" opacity="0.5" stroke="blue" points="190.7521888858831,145.17617474633676 219.35627023617243,83.36936951396186 "/><polyline class="polyline" opacity="0.5" stroke="blue" points="190.56742088140845,146.21533554861554 219.9470256328199,85.59962481060634 "/><polyline class="polyline" opacity="0.5" stroke="blue" points="190.38643210152932,147.2854023484594 220.54736389243163,87.90889576841461 "/><polyline class="polyline" opacity="0.5" stroke="blue" points="190.20935404364744,148.38595165095592 221.15715227751974,90.29552173607038 "/><polyline class="polyline" opacity="0.5" stroke="blue" points="190.03631681321417,149.5165316130778 221.77623694971163,92.7576941610835 "/><polyline class="polyline" opacity="0.5" stroke="blue" points="189.86744895128425,150.6766620089822 222.40444287038366,95.29345744586011 "/><polyline class="polyline" opacity="0.5" stroke="blue" points="189.70287726044108,151.86583424309666 223.04157377626646,97.90071038147316 "/><polyline class="polyline" opacity="0.5" stroke="blue" points="189.54272662947585,153.0835114123222 223.68741223269228,100.5772081713052 "/><polyline class="polyline" opacity="0.5" stroke="blue" points="189.38711985721764,154.32912841856398 224.34171976670245,103.32056505302016 "/><polyline class="polyline" opacity="0.5" stroke="blue" points="189.23617747592812,155.60209213266953 225.00423708174674,106.1282575233682 "/><polyline class="polyline" opacity="0.5" stroke="blue" points="189.09001757468744,156.90178161071833 225.6746843551844,108.99762816617829 "/><polyline class="polyline" opacity="0.5" stroke="blue" points="188.94875562321008,158.22754836345916 226.352761619239,111.92589007959084 "/><polyline class="polyline" opacity="0.5" stroke="blue" points="188.812504296541,159.57871667953555 227.0381492254847,114.91013189416044 "/><polyline class="polyline" opacity="0.5" stroke="blue" points="188.6813733010909,160.95458400298105 227.73050839233844,117.94732336897373 "/><polyline class="polyline" opacity="0.5" stroke="blue" points="188.55546920247798,162.3544213652929 228.42948183442311,121.03432154841951 "/><polyline class="polyline" opacity="0.5" stroke="blue" points="188.43489525564829,163.77747387221982 229.13469447204497,124.16787745777971 "/><polyline class="polyline" opacity="0.5" stroke="blue" points="188.31975123775163,165.22296124521807 229.84575421841086,127.3446433114237 "/><polyline class="polyline" opacity="0.5" stroke="blue" points="188.21013328425164,166.69007841734427 230.5622528415989,130.56118020314364 "/><polyline class="polyline" opacity="0.5" stroke="blue" points="188.10613372874846,168.17799618316403 231.28376689769837,133.81396624411977 "/><polyline class="polyline" opacity="0.5" stroke="blue" points="188.0078409469902,169.68586190206344 232.0098587309599,137.0994051101958 "/><polyline class="polyline" opacity="0.5" stroke="blue" points="187.91533920554608,171.21280025415618 232.74007753625222,140.41383495663638 "/><polyline class="polyline" opacity="0.5" stroke="blue" points="187.82870851560605,172.7579140477834 233.47396047860957,143.7535376553649 "/><polyline class="polyline" opacity="0.5" stroke="blue" points="187.74802449236483,174.32028507740915 234.21103386418966,147.11474830689352 "/><polyline class="polyline" opacity="0.5" stroke="blue" points="187.67335822043634,175.89897503052 234.95081435654055,150.4936649767888 "/><polyline class="polyline" opacity="0.5" stroke="blue" points="187.60477612573223,177.49302644194557 235.69281023171263,153.88645860460036 "/><polyline class="polyline" opacity="0.5" stroke="blue" points="187.5423398542223,179.10146369382923 236.43652266544396,157.28928303174092 "/><polyline class="polyline" opacity="0.5" stroke="blue" points="187.48610615797867,180.7232940592941 237.18144704540487,160.69828509386343 "/><polyline class="polyline" opacity="0.5" stroke="blue" points="187.43612678888496,182.35750878767078 237.92707430130832,164.10961472284728 "/><polyline class="polyline" opacity="0.5" stroke="blue" points="187.39244840037128,184.0030842289835 238.67289224558286,167.5194350035834 "/><polyline class="polyline" opacity="0.5" stroke="blue" points="187.35511245751238,185.65898299522559 239.4183869172615,170.9239321313373 "/><polyline class="polyline" opacity="0.5" stroke="blue" points="187.32415515580163,187.32415515580163 240.16304392176738,174.31932521655776 "/><polyline class="polyline" opacity="0.5" stroke="blue" points="187.29960734888618,188.99753946436783 240.9063497593689,177.70187588557198 "/><polyline class="polyline" opacity="0.5" stroke="blue" points="187.28149448552162,190.67806461416805 241.6477931352392,181.0678976276396 "/><polyline class="polyline" opacity="0.5" stroke="blue" points="187.2698365559731,192.36465051883837 242.38686624427598,184.4137648413009 "/><polyline class="polyline" opacity="0.5" stroke="blue" points="187.26464804806096,194.0562096155455 243.12306602412048,187.73592153581305 "/><polyline class="polyline" opacity="0.5" stroke="blue" points="187.2659379130151,195.75164818722257 243.85589537015227,191.0308896466787 "/><polyline class="polyline" opacity="0.5" stroke="blue" points="187.27370954127048,197.44986770058597 244.58486430662398,194.2952769277951 "/><polyline class="polyline" opacity="0.5" stroke="blue" points="187.28796074830163,199.14976615654396 245.30949110853277,197.52578438653788 "/><polyline class="polyline" opacity="0.5" stroke="blue" points="187.30868377056055,200.85023944955532 246.029303369295,200.7192132320918 "/><polyline class="polyline" opacity="0.5" stroke="blue" points="187.33586527154665,202.5501827324552 246.74383900979547,203.87247131150312 "/><polyline class="polyline" opacity="0.5" stroke="blue" points="187.36948635800297,204.2484917832413 247.45264722490867,206.98257901219756 "/><polyline class="polyline" opacity="0.5" stroke="blue" points="187.40952260619818,205.9440643703044 248.1552893641384,210.0466746140383 "/><polyline class="polyline" opacity="0.5" stroke="blue" points="187.4559440982183,207.63580161259532 248.8513397435795,213.0620190783369 "/><polyline class="polyline" opacity="0.5" stroke="blue" points="187.50871546815836,209.32260933124033 249.54038638697054,216.0260002655255 "/><polyline class="polyline" opacity="0.5" stroke="blue" points="187.5677959580699,211.0033993891577 250.22203169416935,218.93613657741048 "/><polyline class="polyline" opacity="0.5" stroke="blue" points="187.6331394834874,212.6770910152781 250.89589303593766,221.7900800240107 "/><polyline class="polyline" opacity="0.5" stroke="blue" points="187.70469470832438,214.34261211004204 251.5616032744657,224.5856187188964 "/><polyline class="polyline" opacity="0.5" stroke="blue" points="187.78240512889843,215.99890052892704 252.21881120958986,227.32067881065683 "/><polyline class="polyline" opacity="0.5" stroke="blue" points="187.86620916681576,217.6449053408554 252.86718195115884,229.99332586160455 "/><polyline class="polyline" opacity="0.5" stroke="blue" points="187.95604027041577,219.27958805844088 253.5063972184775,232.60176568804383 "/><polyline class="polyline" opacity="0.5" stroke="blue" points="188.05182702445077,220.90192383715453 254.13615556819937,235.1443446793729 "/><polyline class="polyline" opacity="0.5" stroke="blue" points="188.1534932676501,222.51090264062393 254.75617255244939,237.61954961593636 "/><polyline class="polyline" opacity="0.5" stroke="blue" points="188.26095821779433,224.10553036942218 255.36618080932965,240.02600700788452 "/><polyline class="polyline" opacity="0.5" stroke="blue" points="188.37413660390465,225.68482995085918 255.96593008829623,242.3624819793246 "/><polyline class="polyline" opacity="0.5" stroke="blue" points="188.49293880513224,227.24784238744797 256.5551872131909,244.62787672376308 "/><polyline class="polyline" opacity="0.5" stroke="blue" points="188.6172709959153,228.79362776189186 257.1337359859658,246.82122855823786 "/><polyline class="polyline" opacity="0.5" stroke="blue" points="188.7470352969569,230.32126619661307 257.70137703435705,248.9417076046342 "/><polyline class="polyline" opacity="0.5" stroke="blue" points="188.88212993156247,231.82985876602896 258.25792760693696,250.98861412747402 "/><polyline class="polyline" opacity="0.5" stroke="blue" points="189.0224493868663,233.31852835996813 258.80322131911487,252.96137555797907 "/><polyline class="polyline" opacity="0.5" stroke="blue" points="189.1678845794671,234.7864204968107 259.3371078537559,254.85954323444813 "/><polyline class="polyline" opacity="0.5" stroke="blue" points="189.31832302498643,236.23270408513048 259.8594526201519,256.68278888897436 "/><polyline class="polyline" opacity="0.5" stroke="blue" points="189.4736490110596,237.6565721328119 260.370136375111,258.43090091027943 "/><polyline class="polyline" opacity="0.5" stroke="blue" points="189.63374377326753,239.05724240281032 260.8690548099327,260.10378041197544 "/><polyline class="polyline" opacity="0.5" stroke="blue" points="189.79848567351686,240.43395801491778 261.35611810700453,261.7014371349066 "/><polyline class="polyline" opacity="0.5" stroke="blue" points="189.96775038037916,241.78598799309043 261.83125046970383,263.223985211389 "/><polyline class="polyline" opacity="0.5" stroke="blue" points="190.14141105090394,243.11262775808254 262.294389629206,264.6716388181814 "/><polyline class="polyline" opacity="0.5" stroke="blue" points="190.31933851342632,244.4131995653188 262.7454863317024,266.04470774390506 "/><polyline class="polyline" opacity="0.5" stroke="blue" points="190.5014014508985,245.68705288811879 263.18450380941056,267.3435928954057 "/><polyline class="polyline" opacity="0.5" stroke="blue" points="190.6874665842842,246.9335647465626 263.6114172386251,268.56878176623553 "/><polyline class="polyline" opacity="0.5" stroke="blue" points="190.87739885556672,248.15213998245792 264.02621318790966,269.720843889051 "/><polyline class="polyline" opacity="0.5" stroke="blue" points="191.07106160993382,249.34221148103097 264.4288890593699,270.80042629228547 "/><polyline class="polyline" opacity="0.5" stroke="blue" points="191.2683167767183,250.50324034012078 264.8194525257819,271.80824897998855 "/><polyline class="polyline" opacity="0.5" stroke="blue" points="191.46902504868774,251.63471598780285 265.1979209661743,272.74510045223553 "/><polyline class="polyline" opacity="0.5" stroke="blue" points="191.67304605929468,252.73615624950872 265.5643209022873,273.6118332820219 "/><polyline class="polyline" opacity="0.5" stroke="blue" points="191.88023855751595,253.8071073658368 265.9186874381478,274.4093597630759 "/><polyline class="polyline" opacity="0.5" stroke="blue" points="192.09046057992953,254.8471439623724 266.26106370482387,275.13864764156483 "/><polyline class="polyline" opacity="0.5" stroke="blue" points="192.30356961969616,255.8558689729462 266.5915003122372,275.80071594324596 "/><polyline class="polyline" opacity="0.5" stroke="blue" points="192.519422792134,256.8329135178608 266.9100548097405,276.396630906224 "/><polyline class="polyline" opacity="0.5" stroke="blue" points="192.7378769965952,257.7779367387096 267.2167911569894,276.92750202814653 "/><polyline class="polyline" opacity="0.5" stroke="blue" points="192.95878907437455,258.690625591492 267.51177920647234,277.3944782353833 "/><polyline class="polyline" opacity="0.5" stroke="blue" points="193.18201596240218,259.5706945998025 267.7950941988996,277.79874418051907 "/><polyline class="polyline" opacity="0.5" stroke="blue" points="193.40741484249364,260.41788556993276 268.0668162724961,278.14151667333226 "/><polyline class="polyline" opacity="0.5" stroke="blue" points="193.63484328595257,261.2319672697806 268.3270299870935,278.42404124934376 "/><polyline class="polyline" opacity="0.5" stroke="blue" points="193.86415939334344,262.01273507349816 268.5758238637785,278.64758887900337 "/><polyline class="polyline" opacity="0.5" stroke="blue" points="194.09522192927207,262.76001057385145 268.8132899407183,278.81345281963314 "/><polyline class="polyline" opacity="0.5" stroke="blue" points="194.3278904520346,263.4736411642838 269.03952334566117,278.92294561136896 "/><polyline class="polyline" opacity="0.5" stroke="blue" points="194.56202543801479,264.15349959269196 269.2546218854956,278.9773962175386 "/><polyline class="polyline" opacity="0.5" stroke="blue" points="194.79748840073134,264.7994834889343 269.4586856531391,278.9781473091763 "/><polyline class="polyline" opacity="0.5" stroke="blue" points="195.03414200445596,265.4115148680862 269.6518166519336,278.92655269270506 "/><polyline class="polyline" opacity="0.5" stroke="blue" points="195.271850172343,265.9895396114514 269.83411843762997,278.82397487921946 "/><polyline class="polyline" opacity="0.5" stroke="blue" points="195.5104781890294,266.5335269273236 270.00569577796387,278.67178279325935 "/><polyline class="polyline" opacity="0.5" stroke="blue" points="195.74989279768226,267.0434687934672 270.16665432974685,278.47134961849025 "/><polyline class="polyline" opacity="0.5" stroke="blue" points="195.98996229148867,267.51937938326193 270.31710033333366,278.22405077728814 "/><polyline class="polyline" opacity="0.5" stroke="blue" points="196.2305565995982,267.96129447741754 270.4571403242636,277.93126204086025 "/><polyline class="polyline" opacity="0.5" stroke="blue" points="196.47154736754487,268.3692708631273 270.58688086182207,277.59435776622377 "/><polyline class="polyline" opacity="0.5" stroke="blue" points="196.71280803218983,268.7433857224843 270.70642827422284,277.21470925610214 "/><polyline class="polyline" opacity="0.5" stroke="blue" points="196.95421389123976,269.0837360119334 270.8158884200698,276.7936832375782 "/><polyline class="polyline" opacity="0.5" stroke="blue" points="197.19564216740918,269.3904378344818 270.91536646572536,276.3326404551716 "/><polyline class="polyline" opacity="0.5" stroke="blue" points="197.436972067307,269.6636258063311 271.00496667818135,275.83293437386794 "/><polyline class="polyline" opacity="0.5" stroke="blue" points="197.67808483513886,269.90345241953526 271.084792233008,275.29590998752946 "/><polyline class="polyline" opacity="0.5" stroke="blue" points="197.91886380132658,270.11008740222866 271.1549450369347,274.7229027280448 "/><polyline class="polyline" opacity="0.5" stroke="blue" points="198.15919442615655,270.28371707789955 271.21552556460415,274.11523747053997 "/><polyline class="polyline" opacity="0.5" stroke="blue" points="198.39896433857623,270.42454372512157 271.2666327090294,273.47422762995683 "/><polyline class="polyline" opacity="0.5" stroke="blue" points="198.63806337026628,270.5327849390868 271.3083636452792,272.8011743443196 "/><polyline class="polyline" opacity="0.5" stroke="blue" points="198.8763835851223,270.60867299621424 271.34081370690944,272.09736574003966 "/><polyline class="polyline" opacity="0.5" stroke="blue" points="199.1138193042867,270.65245422304065 271.3640762746621,271.3640762746621 "/><polyline class="polyline" opacity="0.5" stroke="blue" points="199.35026712687534,270.6643883705282 271.37824267695225,270.60256615252416 "/><polyline class="polyline" opacity="0.5" stroke="blue" points="199.58562594654927,270.64474799485475 271.3834021016692,269.81408080887667 "/><polyline class="polyline" opacity="0.5" stroke="blue" points="199.8197969640843,270.5938178456857 271.379641518825,268.9998504581162 "/><polyline class="polyline" opacity="0.5" stroke="blue" points="200.05268369609487,270.51189426285157 271.3670456135889,268.1610897018769 "/><polyline class="polyline" opacity="0.5" stroke="blue" points="200.28419198007097,270.3992845822947 271.3456967292603,267.2989971928455 "/><polyline class="polyline" opacity="0.5" stroke="blue" points="200.51422997588747,270.2563065520754 271.315674819739,266.4147553502844 "/><polyline class="polyline" opacity="0.5" stroke="blue" points="200.74270816394787,270.0832877591667 271.2770574110678,265.5095301233707 "/><polyline class="polyline" opacity="0.5" stroke="blue" points="200.96953934012285,269.88056506769897 271.22991957163237,264.5844707985925 "/><polyline class="polyline" opacity="0.5" stroke="blue" points="201.19463860764606,269.6484840692568 271.17433389061836,263.6407098475742 "/><polyline class="polyline" opacity="0.5" stroke="blue" points="201.41792336612687,269.3873985457665 271.11037046433944,262.6793628118412 "/><polyline class="polyline" opacity="0.5" stroke="blue" points="201.6393132978404,269.0976699454545 271.03809689006493,261.70152822117007 "/><polyline class="polyline" opacity="0.5" stroke="blue" points="201.85873035145232,268.77966687230384 270.9575782669888,260.7082875423064 "/><polyline class="polyline" opacity="0.5" stroke="blue" points="202.0760987233349,268.4337645893726 270.86887720399864,259.7007051549742 "/><polyline class="polyline" opacity="0.5" stroke="blue" points="202.2913448366279,268.0603445362955 270.7720538339171,258.67982835223165 "/><polyline class="polyline" opacity="0.5" stroke="blue" points="202.50439731819563,267.65979386123274 270.66716583390155,257.64668736236916 "/><polyline class="polyline" opacity="0.5" stroke="blue" points="202.71518697362814,267.2325049674838 270.55426845170473,256.60229538967326 "/><polyline class="polyline" opacity="0.5" stroke="blue" points="202.92364676043195,266.7788750749384 270.433414537511,255.54764867151712 "/><polyline class="polyline" opacity="0.5" stroke="blue" points="203.1297117595517,266.29930579649533 270.3046545810776,254.4837265493623 "/><polyline class="polyline" opacity="0.5" stroke="blue" points="203.33331914536066,265.7942027295335 270.1680367539237,253.4114915513862 "/><polyline class="polyline" opacity="0.5" stroke="blue" points="203.53440815425452,265.2639750624867 270.0236069563214,252.3318894845711 "/><polyline class="polyline" opacity="0.5" stroke="blue" points="203.7329200519786,264.7090351965325 269.87140886885715,251.24584953421197 "/><polyline class="polyline" opacity="0.5" stroke="blue" points="203.9287980998144,264.1297983823745 269.7114840083421,250.15428436891753 "/><polyline class="polyline" opacity="0.5" stroke="blue" points="204.12198751974785,263.52668237206274 269.5438717878608,249.0580902492931 "/><polyline class="polyline" opacity="0.5" stroke="blue" points="204.31243545873667,262.90010708576926 269.36860958075954,247.95814713860528 "/><polyline class="polyline" opacity="0.5" stroke="blue" points="204.50009095219036,262.2504942934069 269.1857327883829,246.8553188138366 "/><polyline class="polyline" opacity="0.5" stroke="blue" points="204.684904886772,261.57826731095423 268.9952749113779,245.7504529756425 "/><polyline class="polyline" opacity="0.5" stroke="blue" points="204.86682996262633,260.8838507113261 268.79726762439344,244.64438135582748 "/><polyline class="polyline" opacity="0.5" stroke="blue" points="205.04582065513463,260.16767004960735 268.59174085400673,243.5379198210533 "/><polyline class="polyline" opacity="0.5" stroke="blue" points="205.22183317629248,259.4301516024487 268.3787228597205,242.43186847159157 "/><polyline class="polyline" opacity="0.5" stroke="blue" points="205.39482543580164,258.6717221214036 268.15824031787554,241.3270117340253 "/><polyline class="polyline" opacity="0.5" stroke="blue" points="205.56475700196415,257.8928085999726 267.9303184083328,240.22411844689623 "/><polyline class="polyline" opacity="0.5" stroke="blue" points="205.73158906246135,257.09383805410226 267.694980903778,239.1239419383838 "/><polyline class="polyline" opacity="0.5" stroke="blue" points="205.89528438509703,256.2752373158788 267.45225026151235,238.02722009518808 "/><polyline class="polyline" opacity="0.5" stroke="blue" points="206.05580727857978,255.43743284014 267.20214771758924,236.93467542187474 "/><polyline class="polyline" opacity="0.5" stroke="blue" points="206.21312355341547,254.58085052372311 266.9446933831637,235.84701509002298 "/><polyline class="polyline" opacity="0.5" stroke="blue" points="206.3672004829771,253.70591553705543 266.67990634291976,234.76493097659792 "/><polyline class="polyline" opacity="0.5" stroke="blue" points="206.5180067648152,252.81305216778895 266.40780475544256,233.68909969105 "/><polyline class="polyline" opacity="0.5" stroke="blue" points="206.66551248226858,251.90268367617347 266.1284059554033,232.62018259072119 "/><polyline class="polyline" opacity="0.5" stroke="blue" points="206.80968906643156,250.9752321618583 265.84172655742225,231.55882578421577 "/><polyline class="polyline" opacity="0.5" stroke="blue" points="206.95050925853002,250.03111844180893 265.54778256147443,230.50566012246816 "/><polyline class="polyline" opacity="0.5" stroke="blue" points="207.087947072756,249.07076193902256 265.24658945970214,229.46130117731664 "/><polyline class="polyline" opacity="0.5" stroke="blue" points="207.22197775960666,248.09458058172424 264.9381623444929,228.4263492074641 "/><polyline class="polyline" opacity="0.5" stroke="blue" points="207.3525777697703,247.10299071272473 264.6225160176816,227.40138911178087 "/><polyline class="polyline" opacity="0.5" stroke="blue" points="207.47972471860032,246.0964070086217 264.2996651007287,226.3869903699769 "/><polyline class="polyline" opacity="0.5" stroke="blue" points="207.60339735121312,245.07524240852533 263.9696241457252,225.3837069707419 "/><polyline class="polyline" opacity="0.5" stroke="blue" points="207.72357550824535,244.03990805199163 263.6324077470678,224.39207732752175 "/><polyline class="polyline" opacity="0.5" stroke="blue" points="207.84024009230183,242.9908132258487 263.2880306536439,223.41262418217258 "/><polyline class="polyline" opacity="0.5" stroke="blue" points="207.95337303512338,241.9283653196028 262.9365078813608,222.44585449679934 "/><polyline class="polyline" opacity="0.5" stroke="blue" points="208.06295726550206,240.8529697891155 262.57785482584734,221.49225933415872 "/><polyline class="polyline" opacity="0.5" stroke="blue" points="208.16897667796806,239.76503012824475 262.2120873751488,220.5523137270707 "/><polyline class="polyline" opacity="0.5" stroke="blue" points="208.27141610227096,238.66494784814859 261.8392220222325,219.62647653735365 "/><polyline class="polyline" opacity="0.5" stroke="blue" points="208.37026127367636,237.5531224639522 261.459275977112,218.7151903048618 "/><polyline class="polyline" opacity="0.5" stroke="blue" points="208.46549880409594,236.42995148848502 261.0722672783931,217.8188810872719 "/><polyline class="polyline" opacity="0.5" stroke="blue" points="208.55711615406867,235.29583043279933 260.6782149040373,216.93795829132915 "/><polyline class="polyline" opacity="0.5" stroke="blue" points="208.64510160560755,234.15115281318432 260.2771388811319,216.07281449632634 "/><polyline class="polyline" opacity="0.5" stroke="blue" points="208.72944423592665,232.99631016439872 259.8690603944495,215.22382527065335 "/><polyline class="polyline" opacity="0.5" stroke="blue" points="208.81013389205958,231.8316920588457 259.4540018935724,214.3913489823135 "/><polyline class="polyline" opacity="0.5" stroke="blue" points="208.88716116638102,230.65768613142308 259.0319871983526,213.5757266043644 "/><polyline class="polyline" opacity="0.5" stroke="blue" points="208.9605173730409,229.47467810978395 258.60304160247057,212.77728151629572 "/><polyline class="polyline" opacity="0.5" stroke="blue" points="209.03019452531882,228.28305184975088 258.16719197485065,211.99631930241463 "/><polyline class="polyline" opacity="0.5" stroke="blue" points="209.09618531390734,227.08318937562944 257.72446685868704,211.23312754835985 "/><polyline class="polyline" opacity="0.5" stroke="blue" points="209.15848308612922,225.87547092517573 257.27489656782734,210.4879756369175 "/><polyline class="polyline" opacity="0.5" stroke="blue" points="209.2170818260947,224.66027499897316 256.8185132802585,209.7611145443583 "/><polyline class="polyline" opacity="0.5" stroke="blue" points="209.2719761358032,223.43797841398433 256.3553511284351,209.05277663856074 "/><polyline class="polyline" opacity="0.5" stroke="blue" points="209.32316121719305,222.20895636104362 255.88544628618826,208.36317548022538 "/><polyline class="polyline" opacity="0.5" stroke="blue" points="209.37063285514256,220.97358246606566 255.40883705195017,207.69250562852278 "/><polyline class="polyline" opacity="0.5" stroke="blue" points="209.41438740142442,219.73222885474686 254.92556392802982,207.0409424525507 "/><polyline class="polyline" opacity="0.5" stroke="blue" points="209.4544217596156,218.48526622054214 254.4356696956728,206.40864195000458 "/><polyline class="polyline" opacity="0.5" stroke="blue" points="209.49073337096397,217.23306389570558 253.93919948564255,205.79574057449068 "/><polyline class="polyline" opacity="0.5" stroke="blue" points="209.52332020121233,215.9759899251852 253.4362008440579,205.2023550729285 "/><polyline class="polyline" opacity="0.5" stroke="blue" points="209.55218072838034,214.71441114316852 252.92672379322923,204.6285823345049 "/><polyline class="polyline" opacity="0.5" stroke="blue" points="209.57731393150434,213.44869325207782 252.41082088723556,204.0744992526492 "/><polyline class="polyline" opacity="0.5" stroke="blue" points="209.59871928033482,212.1792009038195 251.88854726199497,203.5401626015021 "/><polyline class="polyline" opacity="0.5" stroke="blue" points="209.6163967259909,210.906297783093 251.35996067958158,203.02560892834668 "/><polyline class="polyline" opacity="0.5" stroke="blue" points="209.63034669257104,209.63034669257104 250.82512156655784,202.53085446346094 "/><polyline class="polyline" opacity="0.5" stroke="blue" points="209.64057006971873,208.3517096397626 250.28409304609264,202.05589504883326 "/><polyline class="polyline" opacity="0.5" stroke="blue" points="209.64706820614234,207.07074792537537 249.73694096365233,201.60070608716052 "/><polyline class="polyline" opacity="0.5" stroke="blue" points="209.64984290408722,205.78782223299615 249.18373390606098,201.1652425125172 "/><polyline class="polyline" opacity="0.5" stroke="blue" points="209.64889641475875,204.50329271990864 248.62454321374094,200.7494387840474 "/><polyline class="polyline" opacity="0.5" stroke="blue" points="209.64423143469492,203.21751910887164 248.0594429859589,200.3532089039862 "/><polyline class="polyline" opacity="0.5" stroke="blue" points="209.635851103086,201.93086078068168 247.48851007891997,199.9764464612664 "/><polyline class="polyline" opacity="0.5" stroke="blue" points="209.62375900004042,200.64367686734502 246.91182409656986,199.61902470190736 "/><polyline class="polyline" opacity="0.5" stroke="blue" points="209.6079591457937,199.35632634568512 246.32946737398257,199.28079662731628 "/><polyline class="polyline" opacity="0.5" stroke="blue" points="209.58845600085982,198.0691681312139 245.74152495323509,198.9615951215597 "/><polyline class="polyline" opacity="0.5" stroke="blue" points="209.56525446712146,196.78256117209244 245.1480845516872,198.66123310858296 "/><polyline class="polyline" opacity="0.5" stroke="blue" points="209.53835988985844,195.496864543011 244.5492365226121,198.37950374026812 "/><polyline class="polyline" opacity="0.5" stroke="blue" points="209.50777806071085,194.21243753881373 243.945073808143,198.11618061612782 "/><polyline class="polyline" opacity="0.5" stroke="blue" points="209.47351522157533,192.9296397676978 243.33569188452935,197.87101803533275 "/><polyline class="polyline" opacity="0.5" stroke="blue" points="209.43557806943195,191.6488312438107 242.72118869971857,197.64375128166498 "/><polyline class="polyline" opacity="0.5" stroke="blue" points="209.39397376209905,190.37037247907392 242.1016646033086,197.43409694187807 "/><polyline class="polyline" opacity="0.5" stroke="blue" points="209.34870992491332,189.09462457405493 241.4772222689412,197.2417532578288 "/><polyline class="polyline" opacity="0.5" stroke="blue" points="209.29979465833287,187.8219493077119 240.84796660923513,197.0664005126247 "/><polyline class="polyline" opacity="0.5" stroke="blue" points="209.24723654645967,186.55270922583068 240.21400468338544,196.90770145090647 "/><polyline class="polyline" opacity="0.5" stroke="blue" points="209.19104466647877,185.2872677279736 239.5754455975835,196.76530173325597 "/><polyline class="polyline" opacity="0.5" stroke="blue" points="209.13122859901068,184.02598915275627 238.93240039844105,196.63883042458988 "/><polyline class="polyline" opacity="0.5" stroke="blue" points="209.06779843937358,182.7692388612648 238.2849819596292,196.52790051626468 "/><polyline class="polyline" opacity="0.5" stroke="blue" points="209.0007648097511,181.51738331842668 237.63330486197168,196.432109481485 "/><polyline class="polyline" opacity="0.5" stroke="blue" points="208.930138872262,180.27079017213967 236.97748526725903,196.35103986347085 "/><polyline class="polyline" opacity="0.5" stroke="blue" points="208.8559323429266,179.02982832996582 236.31764078607793,196.2842598957037 "/><polyline class="polyline" opacity="0.5" stroke="blue" points="208.7781575065255,177.7948680331886 235.65389033997545,196.23132415343764 "/><polyline class="polyline" opacity="0.5" stroke="blue" points="208.69682723234507,176.56628092803163 234.9863540183042,196.19177423552665 "/><polyline class="polyline" opacity="0.5" stroke="blue" points="208.61195499080318,175.34444013382978 234.31515293011822,196.16513947549007 "/><polyline class="polyline" opacity="0.5" stroke="blue" points="208.52355487094977,174.12972030794273 233.64040905151276,196.15093768060925 "/><polyline class="polyline" opacity="0.5" stroke="blue" points="208.43164159883386,172.92249770719243 232.96224506882348,196.14867589772513 "/><polyline class="polyline" opacity="0.5" stroke="blue" points="208.3362305567303,171.72315024560578 232.28078421811966,196.15785120428703 "/><polyline class="polyline" opacity="0.5" stroke="blue" points="208.2373378032169,170.53205754823506 231.59615012144613,196.17795152308963 "/><polyline class="polyline" opacity="0.5" stroke="blue" points="208.13498009409284,169.34960100082623 230.9084666202849,196.20845645902716 "/><polyline class="polyline" opacity="0.5" stroke="blue" points="208.02917490412818,168.17616379509914 230.21785760672162,196.2488381560935 "/><polyline class="polyline" opacity="0.5" stroke="blue" points="207.91994044963292,167.01213096939875 229.52444685281677,196.2985621727634 "/><polyline class="polyline" opacity="0.5" stroke="blue" points="207.80729571183355,165.85788944447106 228.82835783869135,196.3570883738056 "/><polyline class="polyline" opacity="0.5" stroke="blue" points="207.69126046104356,164.7138280541122 228.12971357984492,196.42387183650158 "/><polyline class="polyline" opacity="0.5" stroke="blue" points="207.5718552816131,163.58033757043444 227.42863645423245,196.498363769177 "/><polyline class="polyline" opacity="0.5" stroke="blue" points="207.44910159764223,162.45781072348586 226.72524802962798,196.58001243989494 "/><polyline class="polyline" opacity="0.5" stroke="blue" points="207.3230216994401,161.34664221495774 226.01966889180792,196.66826411311288 "/><polyline class="polyline" opacity="0.5" stroke="blue" points="207.19363877071112,160.2472287257051 225.3120184740834,196.76256399206744 "/><polyline class="polyline" opacity="0.5" stroke="blue" points="207.0609769164484,159.15996891680493 224.60241488871122,196.86235716462448 "/><polyline class="polyline" opacity="0.5" stroke="blue" points="206.92506119151142,158.08526342386637 223.89097476070557,196.96708955031585 "/><polyline class="polyline" opacity="0.5" stroke="blue" points="206.78591762986494,157.02351484430812 223.17781306456712,197.07620884627798 "/><polyline class="polyline" opacity="0.5" stroke="blue" points="206.64357327445285,155.97512771730806 222.46304296443452,197.18916546981382 "/><polyline class="polyline" opacity="0.5" stroke="blue" points="206.49805620767964,154.94050849612987 221.7467756581549,197.30541349531413 "/><polyline class="polyline" opacity="0.5" stroke="blue" points="206.34939558246938,153.92006551252507 221.02912022575137,197.42441158330132 "/><polyline class="polyline" opacity="0.5" stroke="blue" points="206.1976216538705,152.91420893290612 220.3101834827552,197.54562389939528 "/><polyline class="polyline" opacity="0.5" stroke="blue" points="206.0427658111718,151.92335070598122 219.59006983884757,197.6685210210465 "/><polyline class="polyline" opacity="0.5" stroke="blue" points="205.8848606104931,150.94790450154156 218.86888116224014,197.79258082993903 "/><polyline class="polyline" opacity="0.5" stroke="blue" points="205.72393980781163,149.98828564008545 218.14671665020074,197.9172893880295 "/><polyline class="polyline" opacity="0.5" stroke="blue" points="205.56003839238164,149.04491101296452 217.4236727061078,198.0421417952633 "/><polyline class="polyline" opacity="0.5" stroke="blue" points="205.39319262050304,148.1181989927353 216.6998428233947,198.16664302709032 "/><polyline class="polyline" opacity="0.5" stroke="blue" points="205.2234400495918,147.2085693333973 215.97531747671817,198.29030874999208 "/><polyline class="polyline" opacity="0.5" stroke="blue" points="205.05081957250133,146.31644306020107 215.2501840206607,198.41266611332819 "/><polyline class="polyline" opacity="0.5" stroke="blue" points="204.87537145204152,145.442242348708 214.52452659624834,198.53325451591226 "/><polyline class="polyline" opacity="0.5" stroke="blue" points="204.6971373556389,144.58639039278816 213.79842604553903,198.65162634583598 "/><polyline class="polyline" opacity="0.5" stroke="blue" points="204.51616039007808,143.74931126124136 213.0719598345072,198.7673476921707 "/><polyline class="polyline" opacity="0.5" stroke="blue" points="204.3324851362612,142.93142974273397 212.3452019844231,198.87999902729408 "/><polyline class="polyline" opacity="0.5" stroke="blue" points="204.14615768391857,142.133171178746 211.6182230118958,198.98917585870782 "/><polyline class="polyline" opacity="0.5" stroke="blue" points="203.9572256662008,141.35496128422972 210.8910898777208,199.09448934933454 "/><polyline class="polyline" opacity="0.5" stroke="blue" points="203.76573829407803,140.5972259556879 210.16386594464427,199.1955669054052 "/><polyline class="polyline" opacity="0.5" stroke="blue" points="203.57174639046954,139.86039106638788 209.4366109441284,199.29205273117327 "/><polyline class="polyline" opacity="0.5" stroke="blue" points="203.375302424022,139.14488224843822 208.7093809521739,199.38360834981538 "/><polyline class="polyline" opacity="0.5" stroke="blue" points="203.17646054245165,138.45112466146327 207.98222837422958,199.46991309000262 "/><polyline class="polyline" opacity="0.5" stroke="blue" points="202.97527660536193,137.77954274762698 207.25520193919203,199.55066453774845 "/><polyline class="polyline" opacity="0.5" stroke="blue" points="202.7718082164433,137.13055997276842 206.52834670247313,199.6255789532592 "/><polyline class="polyline" opacity="0.5" stroke="blue" points="202.56611475495987,136.50459855342964 205.80170405808917,199.69439165263165 "/><polyline class="polyline" opacity="0.5" stroke="blue" points="202.35825740642116,135.90207916957152 205.07531175970112,199.7568573543544 "/><polyline class="polyline" opacity="0.5" stroke="blue" points="202.1482991923362,135.32342066279608 204.34920395051498,199.81275049068245 "/><polyline class="polyline" opacity="0.5" stroke="blue" points="201.93630499894095,134.76903971991135 203.62341120192818,199.86186548405766 "/><polyline class="polyline" opacity="0.5" stroke="blue" points="201.72234160478783,134.2393505417009 202.89796056079086,199.90401698885051 "/><polyline class="polyline" opacity="0.5" stroke="blue" points="201.50647770708164,133.7347644967843 202.17287560513057,199.93904009879276 "/><polyline class="polyline" opacity="0.5" stroke="blue" points="201.2887839466429,133.2556897604817 201.44817650817373,199.96679052056146 "/><polyline class="polyline" opacity="0.5" stroke="blue" points="201.06933293137575,132.80253093862677 200.72388011048082,199.9871447140576 "/><polyline class="polyline" opacity="0.5" stroke="blue" points="200.84819925811473,132.37568867630176 200.0,200.0 "/><polyline class="polyline" opacity="0.5" stroke="blue" points="200.6254595327206,131.97555925150445 199.2765465998292,200.00527463552686 "/><polyline class="polyline" opacity="0.5" stroke="blue" points="200.40119238829354,131.60253415379145 198.55352726346817,200.0029078585598 "/><polyline class="polyline" opacity="0.5" stroke="blue" points="200.17547850136773,131.25699964798207 197.830946377332,199.99285990174357 "/><polyline class="polyline" opacity="0.5" stroke="blue" points="199.94840060595018,130.93933632304623 197.1088054702881,199.975111976824 "/><polyline class="polyline" opacity="0.5" stroke="blue" points="199.72004350526288,130.6499186263443 196.38710332997485,199.9496662303706 "/><polyline class="polyline" opacity="0.5" stroke="blue" points="199.49049408104622,130.38911438343203 195.66583612565236,199.91654567178526 "/><polyline class="polyline" opacity="0.5" stroke="blue" points="199.25984130027985,130.15728430369057 194.94499753733385,199.8757940745686 "/><polyline class="polyline" opacity="0.5" stroke="blue" points="199.02817621917458,129.95478147209244 194.22457889094187,199.8274758518379 "/><polyline class="polyline" opacity="0.5" stroke="blue" points="198.79559198428953,129.7819508274668 193.50456929923385,199.7716759071052 "/><polyline class="polyline" opacity="0.5" stroke="blue" points="198.56218383062662,129.63912862768052 192.78495580823943,199.70849946133396 "/><polyline class="polyline" opacity="0.5" stroke="blue" points="198.32804907655535,129.52664190220932 192.06572354895377,199.63807185729567 "/><polyline class="polyline" opacity="0.5" stroke="blue" points="198.0932871154204,129.4448078926317 191.34685589403216,199.5605383422433 "/><polyline class="polyline" opacity="0.5" stroke="blue" points="197.85799940368568,129.39393348163742 190.6283346192341,199.47606382990963 "/><polyline class="polyline" opacity="0.5" stroke="blue" points="197.62228944546973,129.37431461120684 189.91014006936715,199.38483264282442 "/><polyline class="polyline" opacity="0.5" stroke="blue" points="197.38626277332943,129.38623569067926 189.19225132848646,199.28704823592201 "/><polyline class="polyline" opacity="0.5" stroke="blue" points="197.15002692515122,129.42996899549485 188.47464639410853,199.1829329023879 "/><polyline class="polyline" opacity="0.5" stroke="blue" points="196.91369141701205,129.50577405746077 187.75730235520336,199.07272746266108 "/><polyline class="polyline" opacity="0.5" stroke="blue" points="196.67736771187697,129.61389704746094 187.0401955737351,198.9566909374753 "/><polyline class="polyline" opacity="0.5" stroke="blue" points="196.44116918400366,129.75457015159543 186.32330186952512,198.8351002057842 "/><polyline class="polyline" opacity="0.5" stroke="blue" points="196.2052110789301,129.9280109418076 185.60659670821923,198.70824964837234 "/><polyline class="polyline" opacity="0.5" stroke="blue" points="195.96961046892747,130.1344217421228 184.89005539214415,198.5764507779091 "/><polyline class="polyline" opacity="0.5" stroke="blue" points="195.73448620380725,130.3739889916967 184.17365325384685,198.44003185615463 "/><polyline class="polyline" opacity="0.5" stroke="blue" points="195.49995885697848,130.64688260593536 183.45736585211287,198.29933749897492 "/><polyline class="polyline" opacity="0.5" stroke="blue" points="195.26615066666042,130.95325533702317 182.74116917026825,198.1547282697703 "/><polyline class="polyline" opacity="0.5" stroke="blue" points="195.03318547216412,131.2932421352581 182.02503981657233,198.00658026186665 "/><polyline class="polyline" opacity="0.5" stroke="blue" points="194.8011886451673,131.6669595126629 181.3089552265152,197.85528467036158 "/><polyline class="polyline" opacity="0.5" stroke="blue" points="194.5702870159168,132.07450491040433 180.59289386683645,197.7012473538596 "/><polyline class="polyline" opacity="0.5" stroke="blue" points="194.3406087943058,132.51595607161522 179.87683544108734,197.54488838647237 "/><polyline class="polyline" opacity="0.5" stroke="blue" points="194.1122834857843,132.9913704212751 179.1607610965591,197.38664160039932 "/><polyline class="polyline" opacity="0.5" stroke="blue" points="193.88544180207552,133.50078445486002 178.44465363240582,197.2269541193459 "/><polyline class="polyline" opacity="0.5" stroke="blue" points="193.66021556668494,134.04421313752823 177.7284977087891,197.0662858829759 "/><polyline class="polyline" opacity="0.5" stroke="blue" points="193.43673761520358,134.62164931565607 177.0122800568736,196.90510916253606 "/><polyline class="polyline" opacity="0.5" stroke="blue" points="193.21514169042248,135.23306314258463 176.29598968950407,196.74390806773243 "/><polyline class="polyline" opacity="0.5" stroke="blue" points="192.99556233229285,135.87840152047758 175.57961811239016,196.58317804488075 "/><polyline class="polyline" opacity="0.5" stroke="blue" points="192.77813476278226,136.5575875602266 174.86315953562763,196.42342536629764 "/><polyline class="polyline" opacity="0.5" stroke="blue" points="192.56299476569623,137.27052006136833 174.14661108537695,196.26516661084366 "/><polyline class="polyline" opacity="0.5" stroke="blue" points="192.35027856155244,138.0170730140013 173.42997301552117,196.10892813547906 "/><polyline class="polyline" opacity="0.5" stroke="blue" points="192.14012267761345,138.79709512470757 172.71324891911527,195.95524553764017 "/><polyline class="polyline" opacity="0.5" stroke="blue" points="191.9326638132044,139.61040936849074 171.99644593943628,195.80466310819932 "/><polyline class="polyline" opacity="0.5" stroke="blue" points="191.7280387004607,140.4568125687472 171.2795749804343,195.6577332747234 "/><polyline class="polyline" opacity="0.5" stroke="blue" points="191.52638396067198,141.33607500727697 170.5626509163766,195.51501603470672 "/><polyline class="polyline" opacity="0.5" stroke="blue" points="191.32783595640848,142.24794006632885 169.84569280046722,195.37707837841262 "/><polyline class="polyline" opacity="0.5" stroke="blue" points="191.13253063963705,143.19212390464867 169.12872407221334,195.2444937009248 "/><polyline class="polyline" opacity="0.5" stroke="blue" points="190.94060339605394,144.16831516946937 168.41177276329765,195.1178412029769 "/><polyline class="polyline" opacity="0.5" stroke="blue" points="190.7521888858831,145.1761747463367 167.6948717017028,194.99770528010126 "/><polyline class="polyline" opacity="0.5" stroke="blue" points="190.56742088140845,146.21533554861543 166.9780587138198,194.88467489961545 "/><polyline class="polyline" opacity="0.5" stroke="blue" points="190.38643210152932,147.28540234845937 166.2613768242555,194.77934296494522 "/><polyline class="polyline" opacity="0.5" stroke="blue" points="190.20935404364747,148.38595165095583 165.54487445303954,194.6823056667699 "/><polyline class="polyline" opacity="0.5" stroke="blue" points="190.0363168132142,149.51653161307775 164.8286056099115,194.5941618204663 "/><polyline class="polyline" opacity="0.5" stroke="blue" points="189.86744895128425,150.67666200898216 164.11263008535175,194.5155121893242 "/><polyline class="polyline" opacity="0.5" stroke="blue" points="189.70287726044108,151.8658342430966 163.39701363799878,194.44695879300855 "/><polyline class="polyline" opacity="0.5" stroke="blue" points="189.54272662947588,153.0835114123221 162.68182817807607,194.38910420075038 "/><polyline class="polyline" opacity="0.5" stroke="blue" points="189.38711985721767,154.32912841856393 161.96715194642917,194.3425508087632 "/><polyline class="polyline" opacity="0.5" stroke="blue" points="189.23617747592814,155.6020921326694 161.25306968875338,194.30790010140046 "/><polyline class="polyline" opacity="0.5" stroke="blue" points="189.09001757468744,156.90178161071833 160.5396728245674,194.28575189559666 "/><polyline class="polyline" opacity="0.5" stroke="blue" points="188.94875562321008,158.22754836345908 159.82705961046753,194.2767035681678 "/><polyline class="polyline" opacity="0.5" stroke="blue" points="188.812504296541,159.57871667953543 159.1153352971716,194.28134926558573 "/><polyline class="polyline" opacity="0.5" stroke="blue" points="188.6813733010909,160.95458400298097 158.40461227983945,194.30027909588907 "/><polyline class="polyline" opacity="0.5" stroke="blue" points="188.555469202478,162.3544213652928 157.69501024113222,194.3340783024465 "/><polyline class="polyline" opacity="0.5" stroke="blue" points="188.43489525564829,163.77747387221973 156.9866562864489,194.3833264193504 "/><polyline class="polyline" opacity="0.5" stroke="blue" points="188.31975123775163,165.222961245218 156.2796850707562,194.4485964082871 "/><polyline class="polyline" opacity="0.5" stroke="blue" points="188.21013328425164,166.69007841734424 155.5742389164028,194.53045377680758 "/><polyline class="polyline" opacity="0.5" stroke="blue" points="188.10613372874846,168.17799618316394 154.8704679212894,194.62945567800531 "/><polyline class="polyline" opacity="0.5" stroke="blue" points="188.00784094699023,169.68586190206338 154.16853005674096,194.74614999170214 "/><polyline class="polyline" opacity="0.5" stroke="blue" points="187.9153392055461,171.2128002541561 153.46859125441142,194.88107438734056 "/><polyline class="polyline" opacity="0.5" stroke="blue" points="187.82870851560605,172.75791404778334 152.77082548152777,195.0347553688907 "/><polyline class="polyline" opacity="0.5" stroke="blue" points="187.74802449236483,174.32028507740904 152.07541480376605,195.2077073021937 "/><polyline class="polyline" opacity="0.5" stroke="blue" points="187.67335822043634,175.89897503051992 151.38254943503495,195.40043142528805 "/><polyline class="polyline" opacity="0.5" stroke="blue" points="187.60477612573223,177.49302644194546 150.6924277734287,195.6134148423939 "/><polyline class="polyline" opacity="0.5" stroke="blue" points="187.5423398542223,179.10146369382917 150.005256422601,195.84712950236977 "/><polyline class="polyline" opacity="0.5" stroke="blue" points="187.48610615797867,180.723294059294 149.32125019780273,196.1020311625999 "/><polyline class="polyline" opacity="0.5" stroke="blue" points="187.43612678888496,182.35750878767064 148.64063211581998,196.3785583394211 "/><polyline class="polyline" opacity="0.5" stroke="blue" points="187.39244840037128,184.0030842289834 147.96363336804907,196.67713124635677 "/><polyline class="polyline" opacity="0.5" stroke="blue" points="187.35511245751238,185.65898299522544 147.29049327594393,196.99815072158782 "/><polyline class="polyline" opacity="0.5" stroke="blue" points="187.32415515580163,187.32415515580163 146.62145922807855,197.3419971462589 "/><polyline class="polyline" opacity="0.5" stroke="blue" points="187.29960734888618,188.99753946436775 145.95678659807666,197.70902935539107 "/><polyline class="polyline" opacity="0.5" stroke="blue" points="187.28149448552162,190.67806461416797 145.2967386426737,198.09958354334918 "/><polyline class="polyline" opacity="0.5" stroke="blue" points="187.26983655597311,192.3646505188383 144.64158637919695,198.51397216599062 "/><polyline class="polyline" opacity="0.5" stroke="blue" points="187.26464804806096,194.0562096155454 143.99160844177203,198.95248284180545 "/><polyline class="polyline" opacity="0.5" stroke="blue" points="187.2659379130151,195.75164818722246 143.34709091559472,199.41537725453898 "/><polyline class="polyline" opacity="0.5" stroke="blue" points="187.27370954127048,197.44986770058588 142.70832714864122,199.90289005997266 "/><polyline class="polyline" opacity="0.5" stroke="blue" points="187.28796074830163,199.1497661565439 142.07561754023183,200.41522779971854 "/><polyline class="polyline" opacity="0.5" stroke="blue" points="187.30868377056055,200.85023944955532 141.44926930590842,200.95256782506388 "/><polyline class="polyline" opacity="0.5" stroke="blue" points="187.33586527154665,202.55018273245528 140.82959621814166,201.51505723407698 "/><polyline class="polyline" opacity="0.5" stroke="blue" points="187.36948635800297,204.24849178324123 140.21691832244096,202.10281182535593 "/><polyline class="polyline" opacity="0.5" stroke="blue" points="187.40952260619818,205.9440643703044 139.611561628508,202.71591507196615 "/><polyline class="polyline" opacity="0.5" stroke="blue" points="187.4559440982183,207.63580161259532 139.01385777614652,203.35441711926728 "/><polyline class="polyline" opacity="0.5" stroke="blue" points="187.50871546815836,209.32260933124024 138.42414367572053,204.01833381047706 "/><polyline class="polyline" opacity="0.5" stroke="blue" points="187.5677959580699,211.00339938915764 137.8427611230374,204.70764574395355 "/><polyline class="polyline" opacity="0.5" stroke="blue" points="187.6331394834874,212.6770910152781 137.27005638862815,205.42229736629756 "/><polyline class="polyline" opacity="0.5" stroke="blue" points="187.70469470832438,214.3426121100421 136.70637978148898,206.1621961054848 "/><polyline class="polyline" opacity="0.5" stroke="blue" points="187.78240512889843,215.99890052892695 136.15208518746016,206.92721154832603 "/><polyline class="polyline" opacity="0.5" stroke="blue" points="187.86620916681576,217.64490534085536 135.60752958252186,207.71717466662483 "/><polyline class="polyline" opacity="0.5" stroke="blue" points="187.95604027041577,219.27958805844085 135.07307252140674,208.53187709645357 "/><polyline class="polyline" opacity="0.5" stroke="blue" points="188.05182702445077,220.90192383715458 134.54907560204563,209.3710704749988 "/><polyline class="polyline" opacity="0.5" stroke="blue" points="188.1534932676501,222.51090264062384 134.03590190649214,210.23446583943104 "/><polyline class="polyline" opacity="0.5" stroke="blue" points="188.26095821779433,224.10553036942215 133.53391541909517,211.12173309223795 "/><polyline class="polyline" opacity="0.5" stroke="blue" points="188.37413660390465,225.68482995085918 133.0434804228268,212.03250053741095 "/><polyline class="polyline" opacity="0.5" stroke="blue" points="188.49293880513224,227.24784238744806 132.56496087480167,212.96635449180678 "/><polyline class="polyline" opacity="0.5" stroke="blue" points="188.6172709959153,228.7936277618918 132.0987197621647,213.92283897589945 "/><polyline class="polyline" opacity="0.5" stroke="blue" points="188.7470352969569,230.32126619661304 131.6451184396591,214.90145548801044 "/><polyline class="polyline" opacity="0.5" stroke="blue" points="188.88212993156247,231.82985876602896 131.204515950325,215.9016628659387 "/><polyline class="polyline" opacity="0.5" stroke="blue" points="189.0224493868663,233.31852835996807 130.77726833091418,216.92287723972285 "/><polyline class="polyline" opacity="0.5" stroke="blue" points="189.1678845794671,234.78642049681065 130.36372790374145,217.96447207904026 "/><polyline class="polyline" opacity="0.5" stroke="blue" points="189.31832302498643,236.23270408513048 129.96424255682524,219.0257783384912 "/><polyline class="polyline" opacity="0.5" stroke="blue" points="189.4736490110596,237.6565721328119 129.57915501429437,220.10608470372992 "/><polyline class="polyline" opacity="0.5" stroke="blue" points="189.63374377326753,239.05724240281026 129.2088020991628,221.20463794108392 "/><polyline class="polyline" opacity="0.5" stroke="blue" points="189.79848567351686,240.43395801491778 128.85351399068597,222.32064335295385 "/><polyline class="polyline" opacity="0.5" stroke="blue" points="189.96775038037916,241.78598799309046 128.51361347862382,223.45326534090674 "/><polyline class="polyline" opacity="0.5" stroke="blue" points="190.14141105090397,243.1126277580826 128.18941521682913,224.60162807797144 "/><polyline class="polyline" opacity="0.5" stroke="blue" points="190.31933851342632,244.41319956531873 127.88122497867367,225.76481629120957 "/><polyline class="polyline" opacity="0.5" stroke="blue" points="190.5014014508985,245.68705288811879 127.58933891689833,226.94187615518103 "/><polyline class="polyline" opacity="0.5" stroke="blue" points="190.6874665842842,246.93356474656264 127.3140428305412,228.131816296442 "/><polyline class="polyline" opacity="0.5" stroke="blue" points="190.87739885556672,248.15213998245787 127.05561144164906,229.33360890871944 "/><polyline class="polyline" opacity="0.5" stroke="blue" points="191.07106160993382,249.34221148103094 126.8143076845153,230.546190977889 "/><polyline class="polyline" opacity="0.5" stroke="blue" points="191.2683167767183,250.50324034012073 126.59038201021308,231.76846561535734 "/><polyline class="polyline" opacity="0.5" stroke="blue" points="191.46902504868774,251.63471598780285 126.38407170919731,232.9993034979159 "/><polyline class="polyline" opacity="0.5" stroke="blue" points="191.67304605929465,252.73615624950867 126.19560025474284,234.23754441158695 "/><polyline class="polyline" opacity="0.5" stroke="blue" points="191.88023855751592,253.80710736583677 126.02517666996002,235.4819988964432 "/><polyline class="polyline" opacity="0.5" stroke="blue" points="192.09046057992953,254.8471439623724 125.87299492108654,236.73144998883595 "/><polyline class="polyline" opacity="0.5" stroke="blue" points="192.30356961969616,255.8558689729462 125.73923333969519,237.9846550569353 "/><polyline class="polyline" opacity="0.5" stroke="blue" points="192.51942279213398,256.83291351786073 125.62405407637905,239.24034772495764 "/><polyline class="polyline" opacity="0.5" stroke="blue" points="192.7378769965952,257.7779367387096 125.52760258838299,240.4972398809478 "/><polyline class="polyline" opacity="0.5" stroke="blue" points="192.95878907437455,258.69062559149205 125.45000716353644,241.75402376248934 "/><polyline class="polyline" opacity="0.5" stroke="blue" points="193.1820159624022,259.5706945998025 125.39137848271666,243.00937411425193 "/><polyline class="polyline" opacity="0.5" stroke="blue" points="193.40741484249364,260.41788556993276 125.35180922292611,244.26195041084196 "/><polyline class="polyline" opacity="0.5" stroke="blue" points="193.63484328595257,261.2319672697806 125.3313737029077,245.51039913801503 "/><polyline class="polyline" opacity="0.5" stroke="blue" points="193.86415939334344,262.01273507349816 125.33012757305033,246.75335612493302 "/><polyline class="polyline" opacity="0.5" stroke="blue" points="194.09522192927204,262.76001057385145 125.34810755114526,247.989448919817 "/><polyline class="polyline" opacity="0.5" stroke="blue" points="194.32789045203458,263.4736411642838 125.38533120536005,249.21729920105057 "/><polyline class="polyline" opacity="0.5" stroke="blue" points="194.56202543801479,264.15349959269196 125.4417967855822,250.43552521554085 "/><polyline class="polyline" opacity="0.5" stroke="blue" points="194.79748840073134,264.7994834889343 125.51748310406744,251.64274423594432 "/><polyline class="polyline" opacity="0.5" stroke="blue" points="195.03414200445593,265.4115148680861 125.6123494660996,252.83757502821135 "/><polyline class="polyline" opacity="0.5" stroke="blue" points="195.271850172343,265.9895396114514 125.7263356511363,254.01864032080306 "/><polyline class="polyline" opacity="0.5" stroke="blue" points="195.51047818902939,266.5335269273236 125.85936194467642,255.18456926688475 "/><polyline class="polyline" opacity="0.5" stroke="blue" points="195.74989279768226,267.0434687934671 126.01132922084568,256.3339998908062 "/><polyline class="polyline" opacity="0.5" stroke="blue" points="195.98996229148867,267.5193793832619 126.18211907545512,257.4655815102341 "/><polyline class="polyline" opacity="0.5" stroke="blue" points="196.2305565995982,267.96129447741754 126.37159400904811,258.5779771254147 "/><polyline class="polyline" opacity="0.5" stroke="blue" points="196.47154736754487,268.3692708631273 126.57959765921402,259.6698657672037 "/><polyline class="polyline" opacity="0.5" stroke="blue" points="196.71280803218983,268.7433857224843 126.80595508121493,260.73994479571707 "/><polyline class="polyline" opacity="0.5" stroke="blue" points="196.95421389123976,269.0837360119334 127.05047307574631,261.7869321417172 "/><polyline class="polyline" opacity="0.5" stroke="blue" points="197.19564216740918,269.3904378344818 127.31294056243406,262.80956848315657 "/><polyline class="polyline" opacity="0.5" stroke="blue" points="197.436972067307,269.6636258063311 127.59312899746408,263.8066193496566 "/><polyline class="polyline" opacity="0.5" stroke="blue" points="197.67808483513883,269.90345241953526 127.89079283354306,264.77687714809406 "/><polyline class="polyline" opacity="0.5" stroke="blue" points="197.91886380132655,270.11008740222866 128.20567002020593,265.7191631028985 "/><polyline class="polyline" opacity="0.5" stroke="blue" points="198.15919442615655,270.2837170778995 128.5374825423161,266.63232910513165 "/><polyline class="polyline" opacity="0.5" stroke="blue" points="198.39896433857626,270.42454372512157 128.88593699444857,267.51525946491984 "/><polyline class="polyline" opacity="0.5" stroke="blue" points="198.63806337026628,270.5327849390868 129.25072518870945,268.366872562329 "/><polyline class="polyline" opacity="0.5" stroke="blue" points="198.8763835851223,270.6086729962142 129.6315247934211,269.18612239232243 "/><polyline class="polyline" opacity="0.5" stroke="blue" points="199.1138193042867,270.65245422304065 130.02800000000002,269.972 "/><polyline class="polyline" opacity="0.5" stroke="blue" points="199.35026712687534,270.6643883705282 130.43980221526564,270.7235348028968 "/><polyline class="polyline" opacity="0.5" stroke="blue" points="199.58562594654927,270.64474799485475 130.86657077635294,271.43979579769996 "/><polyline class="polyline" opacity="0.5" stroke="blue" points="199.81979696408428,270.5938178456857 131.30793368534745,272.11989264933317 "/><polyline class="polyline" opacity="0.5" stroke="blue" points="200.05268369609487,270.51189426285157 131.76350836073357,272.7629766609427 "/><polyline class="polyline" opacity="0.5" stroke="blue" points="200.28419198007097,270.3992845822946 132.23290240272985,273.3682416239029 "/><polyline class="polyline" opacity="0.5" stroke="blue" points="200.51422997588747,270.25630655207544 132.7157143695909,273.93492454753334 "/><polyline class="polyline" opacity="0.5" stroke="blue" points="200.74270816394787,270.0832877591667 133.21153456197464,274.46230626877457 "/><polyline class="polyline" opacity="0.5" stroke="blue" points="200.96953934012285,269.88056506769897 133.7199458125113,274.94971194262 "/><polyline class="polyline" opacity="0.5" stroke="blue" points="201.19463860764603,269.6484840692569 134.24052427776428,275.39651141461934 "/><polyline class="polyline" opacity="0.5" stroke="blue" points="201.41792336612687,269.3873985457664 134.77284022983923,275.8021194772703 "/><polyline class="polyline" opacity="0.5" stroke="blue" points="201.6393132978404,269.0976699454545 135.31645884497922,276.16599601259054 "/><polyline class="polyline" opacity="0.5" stroke="blue" points="201.85873035145232,268.77966687230384 135.87094098657874,276.4876460236047 "/><polyline class="polyline" opacity="0.5" stroke="blue" points="202.07609872333487,268.4337645893726 136.43584398015378,276.7666195578977 "/><polyline class="polyline" opacity="0.5" stroke="blue" points="202.2913448366279,268.0603445362955 137.0107223779216,277.0025115267671 "/><polyline class="polyline" opacity="0.5" stroke="blue" points="202.50439731819563,267.65979386123274 137.59512871076805,277.19496142385543 "/><polyline class="polyline" opacity="0.5" stroke="blue" points="202.71518697362814,267.23250496748375 138.1886142255142,277.34365294745686 "/><polyline class="polyline" opacity="0.5" stroke="blue" points="202.92364676043195,266.7788750749384 138.79072960553245,277.44831353097015 "/><polyline class="polyline" opacity="0.5" stroke="blue" points="203.1297117595517,266.29930579649533 139.4010256729075,277.5087137862125 "/><polyline class="polyline" opacity="0.5" stroke="blue" points="203.33331914536066,265.7942027295335 140.0190540704852,277.52466686451464 "/><polyline class="polyline" opacity="0.5" stroke="blue" points="203.53440815425452,265.2639750624867 140.64436792230555,277.4960277406856 "/><polyline class="polyline" opacity="0.5" stroke="blue" points="203.7329200519786,264.7090351965325 141.27652247106874,277.42269242507365 "/><polyline class="polyline" opacity="0.5" stroke="blue" points="203.9287980998144,264.1297983823745 141.9150756914357,277.3045971090494 "/><polyline class="polyline" opacity="0.5" stroke="blue" points="204.12198751974788,263.52668237206274 142.55958887811948,277.1417172493019 "/><polyline class="polyline" opacity="0.5" stroke="blue" points="204.31243545873667,262.90010708576926 143.20962720787506,276.93406659637844 "/><polyline class="polyline" opacity="0.5" stroke="blue" points="204.50009095219036,262.250494293407 143.86476027464442,276.6816961728987 "/><polyline class="polyline" opacity="0.5" stroke="blue" points="204.684904886772,261.57826731095423 144.5245625972583,276.3846932068541 "/><polyline class="polyline" opacity="0.5" stroke="blue" points="204.86682996262633,260.8838507113261 145.18861409924116,276.04318002534797 "/><polyline class="polyline" opacity="0.5" stroke="blue" points="205.04582065513463,260.1676700496074 145.856500560399,275.6573129140577 "/><polyline class="polyline" opacity="0.5" stroke="blue" points="205.22183317629248,259.43015160244863 146.52781404000405,275.2272809476001 "/><polyline class="polyline" opacity="0.5" stroke="blue" points="205.39482543580164,258.6717221214036 147.20215327151396,274.75330479585915 "/><polyline class="polyline" opacity="0.5" stroke="blue" points="205.56475700196415,257.89280859997257 147.8791240288844,274.23563551119395 "/><polyline class="polyline" opacity="0.5" stroke="blue" points="205.73158906246135,257.0938380541023 148.55833946464384,273.6745533012906 "/><polyline class="polyline" opacity="0.5" stroke="blue" points="205.89528438509703,256.2752373158788 149.23942042000704,273.0703662922435 "/><polyline class="polyline" opacity="0.5" stroke="blue" points="206.05580727857978,255.43743284014 149.92199570739837,272.423409286272 "/><polyline class="polyline" opacity="0.5" stroke="blue" points="206.21312355341547,254.58085052372314 150.6057023658512,271.7340425182762 "/><polyline class="polyline" opacity="0.5" stroke="blue" points="206.3672004829771,253.7059155370555 151.29018588982748,271.0026504152331 "/><polyline class="polyline" opacity="0.5" stroke="blue" points="206.5180067648152,252.81305216778895 151.97510043208024,270.2296403622205 "/><polyline class="polyline" opacity="0.5" stroke="blue" points="206.66551248226858,251.90268367617347 152.6601089812484,269.41544147863715 "/><polyline class="polyline" opacity="0.5" stroke="blue" points="206.80968906643153,250.97523216185832 153.34488351493388,268.56050340796673 "/><polyline class="polyline" opacity="0.5" stroke="blue" points="206.95050925853002,250.03111844180896 154.02910512906328,267.66529512420703 "/><polyline class="polyline" opacity="0.5" stroke="blue" points="207.087947072756,249.0707619390226 154.71246414438298,266.7303037578642 "/><polyline class="polyline" opacity="0.5" stroke="blue" points="207.22197775960666,248.09458058172422 155.39466019097588,265.75603344418556 "/><polyline class="polyline" opacity="0.5" stroke="blue" points="207.3525777697703,247.10299071272473 156.0754022717195,264.74300419608346 "/><polyline class="polyline" opacity="0.5" stroke="blue" points="207.47972471860032,246.0964070086217 156.75440880563173,263.69175080398463 "/><polyline class="polyline" opacity="0.5" stroke="blue" points="207.60339735121312,245.07524240852533 157.43140765206965,262.6028217646262 "/><polyline class="polyline" opacity="0.5" stroke="blue" points="207.72357550824537,244.0399080519916 158.10613611676322,261.4767782406081 "/><polyline class="polyline" opacity="0.5" stroke="blue" points="207.84024009230183,242.99081322584874 158.77834094067165,260.3141930523134 "/><polyline class="polyline" opacity="0.5" stroke="blue" points="207.95337303512338,241.92836531960282 159.44777827265682,259.11564970360587 "/><polyline class="polyline" opacity="0.5" stroke="blue" points="208.06295726550206,240.85296978911546 160.11421362696444,257.881741442535 "/><polyline class="polyline" opacity="0.5" stroke="blue" points="208.16897667796803,239.76503012824477 160.77742182650215,256.6130703580866 "/><polyline class="polyline" opacity="0.5" stroke="blue" points="208.27141610227096,238.66494784814859 161.43718693289102,255.31024651385653 "/><polyline class="polyline" opacity="0.5" stroke="blue" points="208.37026127367636,237.55312246395215 162.09330216425633,253.97388711935344 "/><polyline class="polyline" opacity="0.5" stroke="blue" points="208.46549880409594,236.42995148848502 162.7455698017073,252.6046157394864 "/><polyline class="polyline" opacity="0.5" stroke="blue" points="208.55711615406864,235.29583043279933 163.39380108543608,251.203061542646 "/><polyline class="polyline" opacity="0.5" stroke="blue" points="208.64510160560755,234.15115281318435 164.03781610134558,249.76985858765124 "/><polyline class="polyline" opacity="0.5" stroke="blue" points="208.72944423592665,232.9963101643987 164.67744365909067,248.30564514971027 "/><polyline class="polyline" opacity="0.5" stroke="blue" points="208.81013389205958,231.83169205884565 165.3125211623938,246.81106308541976 "/><polyline class="polyline" opacity="0.5" stroke="blue" points="208.88716116638102,230.6576861314231 165.94289447246646,245.2867572367241 "/><polyline class="polyline" opacity="0.5" stroke="blue" points="208.9605173730409,229.47467810978398 166.5684177653418,243.733374873652 "/><polyline class="polyline" opacity="0.5" stroke="blue" points="209.03019452531882,228.28305184975082 167.18895338389012,242.1515651755593 "/><polyline class="polyline" opacity="0.5" stroke="blue" points="209.09618531390734,227.08318937562942 167.80437168526345,240.54197875052063 "/><polyline class="polyline" opacity="0.5" stroke="blue" points="209.15848308612922,225.87547092517573 168.41455088447898,238.90526719244065 "/><polyline class="polyline" opacity="0.5" stroke="blue" points="209.2170818260947,224.6602749989732 169.01937689482298,237.24208267538694 "/><polyline class="polyline" opacity="0.5" stroke="blue" points="209.2719761358032,223.4379784139843 169.61874316572263,235.55307758458864 "/><polyline class="polyline" opacity="0.5" stroke="blue" points="209.32316121719305,222.20895636104365 170.21255051870276,233.8389041834899 "/><polyline class="polyline" opacity="0.5" stroke="blue" points="209.3706328551426,220.9735824660657 170.80070698201143,232.10021431620436 "/><polyline class="polyline" opacity="0.5" stroke="blue" points="209.41438740142442,219.73222885474684 171.38312762446645,230.3376591446787 "/><polyline class="polyline" opacity="0.5" stroke="blue" points="209.4544217596156,218.4852662205421 171.9597343890449,228.55188891983533 "/><polyline class="polyline" opacity="0.5" stroke="blue" points="209.49073337096397,217.2330638957056 172.5304559267054,226.7435527859441 "/><polyline class="polyline" opacity="0.5" stroke="blue" points="209.52332020121233,215.97598992518522 173.09522743090352,224.91329861744433 "/><polyline class="polyline" opacity="0.5" stroke="blue" points="209.55218072838034,214.7144111431685 173.6539904732303,223.06177288742856 "/><polyline class="polyline" opacity="0.5" stroke="blue" points="209.57731393150434,213.4486932520778 174.20669284057672,221.18962056697913 "/><polyline class="polyline" opacity="0.5" stroke="blue" points="209.59871928033482,212.1792009038195 174.75328837419676,219.2974850545479 "/><polyline class="polyline" opacity="0.5" stroke="blue" points="209.6163967259909,210.906297783093 175.29373681101646,217.38600813455957 "/><polyline class="polyline" opacity="0.5" stroke="blue" points="209.63034669257104,209.63034669257104 175.8280036275087,215.45582996442312 "/><polyline class="polyline" opacity="0.5" stroke="blue" points="209.64057006971873,208.35170963976253 176.35605988643022,213.5075890891325 "/><polyline class="polyline" opacity="0.5" stroke="blue" points="209.64706820614236,207.0707479253754 176.8778820866903,211.54192248264746 "/><polyline class="polyline" opacity="0.5" stroke="blue" points="209.64984290408722,205.78782223299615 177.39345201660058,209.55946561525 "/><polyline class="polyline" opacity="0.5" stroke="blue" points="209.64889641475875,204.5032927199086 177.90275661072968,207.5608525460836 "/><polyline class="polyline" opacity="0.5" stroke="blue" points="209.64423143469492,203.21751910887167 178.40578781056874,205.54671604009042 "/><polyline class="polyline" opacity="0.5" stroke="blue" points="209.63585110308603,201.9308607806817 178.90254242919082,203.5176877085765 "/><polyline class="polyline" opacity="0.5" stroke="blue" points="209.62375900004042,200.643676867345 179.39302202006877,201.4743981726504 "/><polyline class="polyline" opacity="0.5" stroke="blue" points="209.6079591457937,199.3563263456851 179.87723275019874,199.41747724879085 "/><polyline class="polyline" opacity="0.5" stroke="blue" points="209.58845600085982,198.06916813121393 180.35518527765794,197.34755415581844 "/><polyline class="polyline" opacity="0.5" stroke="blue" points="209.56525446712146,196.78256117209247 180.8268946337094,195.26525774255958 "/><polyline class="polyline" opacity="0.5" stroke="blue" points="209.53835988985844,195.49686454301096 181.2923801095503,193.17121673551 "/><polyline class="polyline" opacity="0.5" stroke="blue" points="209.50777806071085,194.2124375388137 181.7516651477871,191.06606000581434 "/><polyline class="polyline" opacity="0.5" stroke="blue" points="209.47351522157533,192.9296397676978 182.20477723870496,188.9504168549014 "/><polyline class="polyline" opacity="0.5" stroke="blue" points="209.43557806943195,191.64883124381072 182.65174782138737,186.82491731812206 "/><polyline class="polyline" opacity="0.5" stroke="blue" points="209.39397376209902,190.3703724790739 183.0926121897283,184.69019248575762 "/><polyline class="polyline" opacity="0.5" stroke="blue" points="209.34870992491332,189.0946245740549 183.5274094033685,182.54687484077078 "/><polyline class="polyline" opacity="0.5" stroke="blue" points="209.29979465833287,187.82194930771192 183.95618220357568,180.39559861269097 "/><polyline class="polyline" opacity="0.5" stroke="blue" points="209.24723654645967,186.55270922583063 184.3789769340788,178.23700014702925 "/><polyline class="polyline" opacity="0.5" stroke="blue" points="209.19104466647877,185.28726772797359 184.79584346685485,176.07171828963195 "/><polyline class="polyline" opacity="0.5" stroke="blue" points="209.13122859901068,184.02598915275627 185.20683513285994,173.90039478538242 "/><polyline class="polyline" opacity="0.5" stroke="blue" points="209.06779843937358,182.76923886126482 185.61200865768512,171.72367469066916 "/><polyline class="polyline" opacity="0.5" stroke="blue" points="209.0007648097511,181.51738331842662 186.01142410210952,169.5422067990408 "/><polyline class="polyline" opacity="0.5" stroke="blue" points="208.930138872262,180.2707901721396 186.40514480751568,167.35664407946385 "/><polyline class="polyline" opacity="0.5" stroke="blue" points="208.8559323429266,179.02982832996585 186.7932373461237,165.1676441266003 "/><polyline class="polyline" opacity="0.5" stroke="blue" points="208.7781575065255,177.79486803318864 187.1757714759928,162.97586962251452 "/><polyline class="polyline" opacity="0.5" stroke="blue" points="208.69682723234507,176.56628092803157 187.55282010073168,160.78198880921218 "/><polyline class="polyline" opacity="0.5" stroke="blue" points="208.61195499080318,175.34444013382975 187.92445923385176,158.58667597139737 "/><polyline class="polyline" opacity="0.5" stroke="blue" points="208.52355487094977,174.12972030794276 188.29076796769044,156.3906119288246 "/><polyline class="polyline" opacity="0.5" stroke="blue" points="208.43164159883386,172.92249770719243 188.65182844682343,154.19448453759912 "/><polyline class="polyline" opacity="0.5" stroke="blue" points="208.3362305567303,171.72315024560575 189.0077258458787,151.99898919976073 "/><polyline class="polyline" opacity="0.5" stroke="blue" points="208.23733780321692,170.5320575482351 189.3585483516572,149.80482938045446 "/><polyline class="polyline" opacity="0.5" stroke="blue" points="208.13498009409284,169.34960100082623 189.7043871494576,147.61271713196575 "/><polyline class="polyline" opacity="0.5" stroke="blue" points="208.02917490412815,168.17616379509911 190.04533641349568,145.42337362386309 "/><polyline class="polyline" opacity="0.5" stroke="blue" points="207.91994044963292,167.0121309693987 190.38149330129977,143.23752967844715 "/><polyline class="polyline" opacity="0.5" stroke="blue" points="207.80729571183355,165.85788944447106 190.712957951957,141.0559263106681 "/><polyline class="polyline" opacity="0.5" stroke="blue" points="207.69126046104356,164.7138280541122 191.03983348807614,138.8793152716193 "/><polyline class="polyline" opacity="0.5" stroke="blue" points="207.5718552816131,163.5803375704344 191.36222602132295,136.70845959466735 "/><polyline class="polyline" opacity="0.5" stroke="blue" points="207.44910159764223,162.45781072348586 191.68024466137734,134.54413414321317 "/><polyline class="polyline" opacity="0.5" stroke="blue" points="207.3230216994401,161.34664221495774 191.994001528149,132.3871261590223 "/><polyline class="polyline" opacity="0.5" stroke="blue" points="207.19363877071112,160.24722872570513 192.3036117670803,130.23823580998823 "/><polyline class="polyline" opacity="0.5" stroke="blue" points="207.0609769164484,159.1599689168049 192.609193567353,128.098276736122 "/><polyline class="polyline" opacity="0.5" stroke="blue" points="206.92506119151142,158.08526342386637 192.91086818280505,125.96807659247615 "/><polyline class="polyline" opacity="0.5" stroke="blue" points="206.78591762986494,157.02351484430818 193.20875995535064,123.84847758763003 "/><polyline class="polyline" opacity="0.5" stroke="blue" points="206.64357327445285,155.97512771730806 193.50299634068563,121.7403370162669 "/><polyline class="polyline" opacity="0.5" stroke="blue" points="206.49805620767964,154.9405084961298 193.7937079360445,119.64452778428067 "/><polyline class="polyline" opacity="0.5" stroke="blue" points="206.34939558246938,153.92006551252513 194.08102850976388,117.56193892473863 "/><polyline class="polyline" opacity="0.5" stroke="blue" points="206.1976216538705,152.91420893290612 194.36509503239014,115.49347610292244 "/><polyline class="polyline" opacity="0.5" stroke="blue" points="206.04276581117176,151.9233507059812 194.6460477090543,113.44006210855271 "/><polyline class="polyline" opacity="0.5" stroke="blue" points="205.8848606104931,150.94790450154153 194.92403001282,111.4026373331755 "/><polyline class="polyline" opacity="0.5" stroke="blue" points="205.72393980781163,149.98828564008545 195.19918871869365,109.38216023056685 "/><polyline class="polyline" opacity="0.5" stroke="blue" points="205.56003839238164,149.04491101296452 195.4716739379664,107.37960775787198 "/><polyline class="polyline" opacity="0.5" stroke="blue" points="205.39319262050302,148.11819899273527 195.7416391525394,105.39597579506135 "/><polyline class="polyline" opacity="0.5" stroke="blue" points="205.2234400495918,147.2085693333973 196.00924124886308,103.4322795401344 "/><polyline class="polyline" opacity="0.5" stroke="blue" points="205.05081957250133,146.31644306020107 196.27464055110008,101.4895538773555 "/><polyline class="polyline" opacity="0.5" stroke="blue" points="204.87537145204152,145.44224234870802 196.53800085310039,99.5688537156497 "/><polyline class="polyline" opacity="0.5" stroke="blue" points="204.6971373556389,144.58639039278813 196.79948944875326,97.67125429412759 "/><polyline class="polyline" opacity="0.5" stroke="blue" points="204.51616039007808,143.7493112612413 197.05927716025852,95.79785145154109 "/><polyline class="polyline" opacity="0.5" stroke="blue" points="204.3324851362612,142.931429742734 197.31753836383433,93.9497618563093 "/><polyline class="polyline" opacity="0.5" stroke="blue" points="204.1461576839186,142.133171178746 197.5744510123546,92.12812319358217 "/><polyline class="polyline" opacity="0.5" stroke="blue" points="203.9572256662008,141.35496128422972 197.83019665438283,90.33409430563866 "/><polyline class="polyline" opacity="0.5" stroke="blue" points="203.76573829407803,140.5972259556879 198.08496044904447,88.56885528174313 "/><polyline class="polyline" opacity="0.5" stroke="blue" points="203.57174639046954,139.86039106638788 198.33893117615173,86.83360749341342 "/><polyline class="polyline" opacity="0.5" stroke="blue" points="203.37530242402198,139.1448822484382 198.59230124097,85.1295735708852 "/><polyline class="polyline" opacity="0.5" stroke="blue" points="203.17646054245165,138.45112466146324 198.845266672987,83.45799731638346 "/><polyline class="polyline" opacity="0.5" stroke="blue" points="202.97527660536193,137.77954274762698 199.09802711801976,81.82014354965823 "/><polyline class="polyline" opacity="0.5" stroke="blue" points="202.7718082164433,137.13055997276845 199.35078582296762,80.2172978810759 "/><polyline class="polyline" opacity="0.5" stroke="blue" points="202.56611475495987,136.50459855342962 199.60374961249437,78.65076640741493 "/><polyline class="polyline" opacity="0.5" stroke="blue" points="202.35825740642113,135.9020791695715 199.85712885689577,77.12187532537023 "/><polyline class="polyline" opacity="0.5" stroke="blue" points="202.1482991923362,135.32342066279614 200.11113743038695,75.63197045764731 "/><polyline class="polyline" opacity="0.5" stroke="blue" points="201.93630499894095,134.76903971991138 200.3659926590184,74.18241668641072 "/><polyline class="polyline" opacity="0.5" stroke="blue" points="201.72234160478783,134.2393505417009 200.6219152574102,72.77459728875955 "/><polyline class="polyline" opacity="0.5" stroke="blue" points="201.50647770708164,133.73476449678424 200.8791292534735,71.40991316882182 "/><polyline class="polyline" opacity="0.5" stroke="blue" points="201.2887839466429,133.2556897604817 201.13786190027164,70.08978198100982 "/><polyline class="polyline" opacity="0.5" stroke="blue" points="201.06933293137578,132.80253093862677 201.39834357415907,68.81563713894815 "/><polyline class="polyline" opacity="0.5" stroke="blue" points="200.84819925811473,132.37568867630176 201.6608076583248,67.5889267045909 "/></svg>
