<?xml version="1.0" encoding="UTF-8"?>
<!DOCTYPE svg PUBLIC "-//W3C//DTD SVG 1.1//EN"
    "http://www.w3.org/Graphics/SVG/1.1/DTD/svg11.dtd"><svg width="400" height="400" stroke="black" fill="none" fill-opacity="0.75" font-style="italic" font-family="CMU Serif, sans-serif" xmlns="http://www.w3.org/2000/svg" xmlns:xlink="http://www.w3.org/1999/xlink" version="1.1"><filter id="blur"><feGaussianBlur stdDeviation="2"/></filter><rect width="100%" height="100%" fill="white" stroke="none" fill-opacity="1"/><polygon points="264.4816775093044,189.4525013875889 339.3518251923216,175.17769364151948 " opacity="0.5" stroke="blue"/><polygon points="266.2002459062527,192.10487889157463 341.9111504195407,179.05083559165334 " opacity="0.5" stroke="blue"/><polygon points="267.6189961138865,194.75501852014648 343.6759107773242,182.8730040090333 " opacity="0.5" stroke="blue"/><polygon points="268.7373760273309,197.3906361489873 344.6755235075549,186.61159782024163 " opacity="0.5" stroke="blue"/><polygon points="269.55650651996757,200.0 344.94448696618906,190.2374663778354 " opacity="0.5" stroke="blue"/><polygon points="270.0790625204501,202.57198351652266 344.52122804544314,193.72492555114462 " opacity="0.5" stroke="blue"/><polygon points="270.30914672941867,205.09610613378908 343.44704032582956,197.05169106190402 " opacity="0.5" stroke="blue"/><polygon points="270.2521589418535,207.56256254421578 341.76513083130396,200.19874638072133 " opacity="0.5" stroke="blue"/><polygon points="269.914663688737,209.96224124168353 339.5197851532922,203.15016168485818 " opacity="0.5" stroke="blue"/><polygon points="269.30425861858197,212.2867332673518 336.75565395995284,205.89287891027703 " opacity="0.5" stroke="blue"/><polygon points="268.42944572156716,214.52833217403162 333.5171585877414,208.41647606789218 " opacity="0.5" stroke="blue"/><polygon points="267.29950717088116,216.6800262804767 329.84800947032124,210.71292194966315 " opacity="0.5" stroke="blue"/><polygon points="265.92438722976226,218.73548430583392 325.7908284593659,212.7763302909758 " opacity="0.5" stroke="blue"/><polygon points="264.3145813586937,220.68903546317816 321.38686445074364,214.602720501163 " opacity="0.5" stroke="blue"/><polygon points="262.4810333630368,222.5356450550162 316.67579094840664,216.18979030163268 " opacity="0.5" stroke="blue"/><polygon points="260.43504115264176,224.2708865582698 311.69557408084677,217.5367040637861 " opacity="0.5" stroke="blue"/><polygon points="258.1881714452309,225.89091111663333 306.48239995194683,218.6438993326882 " opacity="0.5" stroke="blue"/><polygon points="255.7521835364281,227.39241527897383 301.07065090460225,219.51291295376424 " opacity="0.5" stroke="blue"/><polygon points="253.13896208157,228.77260773767335 295.4929211740625,220.14622737211187 " opacity="0.5" stroke="blue"/><polygon points="250.3604586870634,230.0291757339583 289.78006340809463,220.54713702307686 " opacity="0.5" stroke="blue"/><polygon points="247.42864199034042,231.1602517111546 283.96125855718435,220.71963425060395 " opacity="0.5" stroke="blue"/><polygon points="244.35545581507432,232.16438071367642 278.0641026359683,220.6683138478282 " opacity="0.5" stroke="blue"/><polygon points="241.15278491950428,233.04048895107917 272.1147047907254,220.39829508487813 " opacity="0.5" stroke="blue"/><polygon points="237.8324278075137,233.78785387384772 266.1377919550203,219.9151599467396 " opacity="0.5" stroke="blue"/><polygon points="234.4060760414914,234.4060760414914 260.15681612545563,219.224906227075 " opacity="0.5" stroke="blue"/><polygon points="230.88529948001442,234.89505300434183 254.19406093897973,218.3339140930995 " opacity="0.5" stroke="blue"/><polygon points="227.2815368592021,235.2549553682682 248.27074478515752,217.24892473610254 " opacity="0.5" stroke="blue"/><polygon points="223.6060911415982,235.48620516616575 242.40711814804084,215.97702973903432 " opacity="0.5" stroke="blue"/><polygon points="219.8701290682754,235.589456621182 236.62255325212288,214.52566981645685 " opacity="0.5" stroke="blue"/><polygon points="216.08468436642417,235.56557935373462 230.93562439625194,212.90264160513573 " opacity="0.5" stroke="blue"/><polygon points="212.26066408415855,235.4156440568565 225.3641776100535,211.1161111997294 " opacity="0.5" stroke="blue"/><polygon points="208.40885754507948,235.14091064164163 219.92538847148487,209.17463313333795 " opacity="0.5" stroke="blue"/><polygon points="204.53994743596954,234.7428188358733 214.63580709376996,207.0871734946337 " opacity="0.5" stroke="blue"/><polygon points="200.6645225607763,234.22298120361074 209.51138943715088,204.863135850931 " opacity="0.5" stroke="blue"/><polygon points="196.79309181190882,233.5831785408921 204.56751423735437,202.51238861027497 " opacity="0.5" stroke="blue"/><polygon points="192.93609892516758,232.82535759211066 199.81898497973717,200.04529240720333 " opacity="0.5" stroke="blue"/><polygon points="189.1039375968629,231.95163102236944 195.28001649652003,197.472726039389 " opacity="0.5" stroke="blue"/><polygon points="185.3069665505358,230.9642795725859 190.96420593442852,194.80610942037976 " opacity="0.5" stroke="blue"/><polygon points="181.5555241460154,229.865756315686 186.88448804054156,192.05742195296847 " opacity="0.5" stroke="blue"/><polygon points="177.8599421253049,228.65869292331712 183.0530749530353,189.23921467554788 " opacity="0.5" stroke="blue"/><polygon points="174.23055808811296,227.34590784256167 179.48138096689544,186.36461449859533 " opacity="0.5" stroke="blue"/><polygon points="170.6777262849929,225.93041627062746 176.17993307642408,183.44731883976945 " opacity="0.5" stroke="blue"/><polygon points="167.2118263084357,224.41544180193262 173.15826847750375,180.50157899440623 " opacity="0.5" stroke="blue"/><polygon points="163.8432692524327,222.80442960594445 170.42482064066675,177.54217065431573 " opacity="0.5" stroke="blue"/><polygon points="160.58250089970838,221.10106097516467 167.98679603450364,174.58435012242657 " opacity="0.5" stroke="blue"/><polygon points="157.44000148391046,219.3092690604288 165.85004407665673,171.64379497384863 " opacity="0.5" stroke="blue"/><polygon points="154.42628156261313,217.4332555849323 164.01892340036903,168.73652819342934 " opacity="0.5" stroke="blue"/><polygon points="151.5518735273213,215.4775082989097 162.49616802695226,165.87882518121066 " opacity="0.5" stroke="blue"/><polygon points="148.82731827024497,213.4468189036043 161.2827575023461,163.08710346185865 " opacity="0.5" stroke="blue"/><polygon points="146.26314652614732,211.34630113612113 160.37779545873337,160.3777954587334 " opacity="0.5" stroke="blue"/><polygon points="143.86985441298665,209.1814086661754 159.77840136658523,157.7672052885628 " opacity="0.5" stroke="blue"/><polygon points="141.65787270949528,206.95795241204982 159.47962041405012,155.2713511829103 " opacity="0.5" stroke="blue"/><polygon points="139.63752943358747,204.682116836899 159.47435645605367,152.90579582523176 " opacity="0.5" stroke="blue"/><polygon points="137.81900532503047,202.36047473881405 159.75333278569545,150.68546757819882 " opacity="0.5" stroke="blue"/><polygon points="136.21228189169653,200.0 160.3050850735614,148.62447623040444 " opacity="0.5" stroke="blue"/><polygon points="134.8270817535054,197.60807771358603 161.1159901847279,146.73592747583496 " opacity="0.5" stroke="blue"/><polygon points="133.67280111431973,195.19251106290363 162.17033371989874,145.03174081317667 " opacity="0.5" stroke="blue"/><polygon points="132.75843431178592,192.76152428982283 163.45041805280877,143.52247587593777 " opacity="0.5" stroke="blue"/><polygon points="132.0924905402288,190.32376105859564 164.93671138345442,142.21717234385446 " opacity="0.5" stroke="blue"/><polygon points="131.6829030133892,187.88827750262908 166.60803694440574,141.1232085143877 " opacity="0.5" stroke="blue"/><polygon points="131.53693103240536,185.4645292369895 168.44180004794663,140.24618331467474 " opacity="0.5" stroke="blue"/><polygon points="131.6610556492389,183.06235163273325 170.41424921811017,139.58982600702365 " opacity="0.5" stroke="blue"/><polygon points="132.06086986467187,180.6919326839371 172.50076629256242,139.1559370979814 " opacity="0.5" stroke="blue"/><polygon points="132.74096456939964,178.3637778580557 174.67617918330504,138.9443630305059 " opacity="0.5" stroke="blue"/><polygon points="133.70481172116556,176.08866640814676 176.91509002439466,138.9530061632681 " opacity="0.5" stroke="blue"/><polygon points="134.9546465429162,173.87759874421081 179.19221076878193,139.17787037447863 " opacity="0.5" stroke="blue"/><polygon points="136.49135081714635,171.7417346121902 181.48269796655455,139.61314143135866 " opacity="0.5" stroke="blue"/><polygon points="138.3143396284901,169.69232201371833 183.76247848330308,140.2513001048377 " opacity="0.5" stroke="blue"/><polygon points="140.42145415691058,167.74061701670416 186.00855829656757,141.08326494449312 " opacity="0.5" stroke="blue"/><polygon points="142.80886333276686,165.89779485375627 188.199307213831,142.09856071633598 " opacity="0.5" stroke="blue"/><polygon points="145.47097731688984,164.1748529777634 190.31471334018056,143.28550778978575 " opacity="0.5" stroke="blue"/><polygon points="148.40037584764272,162.5825070350198 192.33660232410426,144.63142726979265 " opacity="0.5" stroke="blue"/><polygon points="151.58775448757052,161.1310810172595 194.24881775175487,146.12285641941904 " opacity="0.5" stroke="blue"/><polygon points="155.02189169121138,159.83039315394862 196.03736046469712,147.74576890512117 " opacity="0.5" stroke="blue"/><polygon points="158.6896393924562,158.6896393924562 197.690485966655,149.4857946046199 " opacity="0.5" stroke="blue"/><polygon points="162.5759394681425,157.71727657224406 199.19876039130003,151.32843411649608 " opacity="0.5" stroke="blue"/><polygon points="166.66386797321167,156.920907615265 200.55507666748346,153.25926366339993 " opacity="0.5" stroke="blue"/><polygon points="170.93470846677843,156.30717121375613 201.75463349686677,155.26412674364627 " opacity="0.5" stroke="blue"/><polygon points="175.3680550696188,155.88163858508685 202.794880523923,157.3293096139559 " opacity="0.5" stroke="blue"/><polygon points="179.9419451305927,155.6487198699031 203.6754336178702,159.44169843588534 " opacity="0.5" stroke="blue"/><polygon points="184.63302055772925,155.6115826662548 204.3979645028686,161.58891665114948 " opacity="0.5" stroke="blue"/><polygon points="189.41671602020546,155.7720850144855 204.96606908161678,163.75944183402117 " opacity="0.5" stroke="blue"/><polygon points="194.26747138571562,156.13072487589108 205.38511872260702,165.94270187724456 " opacity="0.5" stroke="blue"/><polygon points="199.15896496166488,156.68660778816079 205.6620985534585,168.12915088426584 " opacity="0.5" stroke="blue"/><polygon points="204.06436339632006,157.43743394321223 205.8054364561409,170.31032555555157 " opacity="0.5" stroke="blue"/><polygon points="208.956583503331,158.37950543391315 205.8248260296397,172.4788831677315 " opacity="0.5" stroke="blue"/><polygon points="213.80856083092982,159.50775387512604 205.7310463055785,174.62862245448605 " opacity="0.5" stroke="blue"/><polygon points="218.5935195296786,160.81578804434685 205.53578050357658,176.75448881534138 " opacity="0.5" stroke="blue"/><polygon points="223.2852379950761,162.295960632383 205.25143562288667,178.85256531401944 " opacity="0.5" stroke="blue"/><polygon points="227.85830487889353,163.93945266959454 204.89096420792112,180.9200508950767 " opacity="0.5" stroke="blue"/><polygon points="232.28836037053637,165.736373721279 204.4676892158273,182.95522716076005 " opacity="0.5" stroke="blue"/><polygon points="236.5523181316878,167.6758755469233 203.9951325680682,184.9574149241172 " opacity="0.5" stroke="blue"/><polygon points="240.62856389961559,169.7462766081913 203.48684769461923,186.92692160388765 " opacity="0.5" stroke="blue"/><polygon points="244.49712752518332,171.93519460043964 202.95625618483433,188.86498036522002 " opacity="0.5" stroke="blue"/><polygon points="248.13982604415423,174.22968407744557 202.41648854591912,190.77368175035096 " opacity="0.5" stroke="blue"/><polygon points="251.5403762556262,176.61637623837342 201.88022903806825,192.6558983962603 " opacity="0.5" stroke="blue"/><polygon points="254.68447616025088,179.08161804397074 201.3595646018906,194.51520331177588 " opacity="0.5" stroke="blue"/><polygon points="257.5598554565472,181.611608015118 200.8658380135985,196.3557820929268 " opacity="0.5" stroke="blue"/><polygon points="260.1562960738227,184.19252632707057 200.40950558911567,198.18233939922453 " opacity="0.5" stroke="blue"/><polygon points="262.46562440866717,186.81065713046556 200.0,200.0 " opacity="0.5" stroke="blue"/><polygon points="264.4816775093044,189.4525013875889 199.64559904975786,201.8142047321255 " opacity="0.5" stroke="blue"/><polygon points="266.2002459062527,192.10487889157463 199.35330157420003,203.63060178958716 " opacity="0.5" stroke="blue"/><polygon points="267.6189961138865,194.75501852014648 199.12871195698384,205.45493389041584 " opacity="0.5" stroke="blue"/><polygon points="268.7373760273309,197.3906361489873 198.9759350721302,207.2929220339632 " opacity="0.5" stroke="blue"/><polygon points="269.55650651996757,200.0 198.8974837578405,209.15014676532738 " opacity="0.5" stroke="blue"/><polygon points="270.0790625204502,202.57198351652266 198.89420116770057,211.03192809502548 " opacity="0.5" stroke="blue"/><polygon points="270.30914672941867,205.09610613378908 198.96520051313283,212.94320546914935 " opacity="0.5" stroke="blue"/><polygon points="270.2521589418535,207.56256254421575 199.10782478215722,214.88841943401323 " opacity="0.5" stroke="blue"/><polygon points="269.914663688737,209.96224124168353 199.3176289736682,216.87139687328317 " opacity="0.5" stroke="blue"/><polygon points="269.30425861858197,212.2867332673518 199.5883872068331,218.89524189682228 " opacity="0.5" stroke="blue"/><polygon points="268.42944572156716,214.52833217403165 199.91212674077332,220.96223461042683 " opacity="0.5" stroke="blue"/><polygon points="267.29950717088116,216.6800262804767 200.27919046666204,223.07374007627163 " opacity="0.5" stroke="blue"/><polygon points="265.92438722976226,218.73548430583392 200.67832881786956,225.2301297691863 " opacity="0.5" stroke="blue"/><polygon points="264.3145813586937,220.6890354631782 201.0968212988368,227.43071773120346 " opacity="0.5" stroke="blue"/><polygon points="262.4810333630368,222.5356450550162 201.5206269852486,229.67371341838702 " opacity="0.5" stroke="blue"/><polygon points="260.43504115264176,224.2708865582698 201.93456243191906,231.95619291807247 " opacity="0.5" stroke="blue"/><polygon points="258.188171445231,225.89091111663333 202.3225044840794,234.27408979665134 " opacity="0.5" stroke="blue"/><polygon points="255.7521835364281,227.39241527897383 202.66761457199053,236.6222063305967 " opacity="0.5" stroke="blue"/><polygon points="253.13896208157,228.77260773767335 202.9525802303196,238.9942452963907 " opacity="0.5" stroke="blue"/><polygon points="250.36045868706344,230.02917573395828 203.15986887387564,241.3828618744563 " opacity="0.5" stroke="blue"/><polygon points="247.42864199034042,231.16025171115461 203.27198832640343,243.77973458886342 " opacity="0.5" stroke="blue"/><polygon points="244.35545581507432,232.16438071367642 203.27174827652587,246.175653591808 " opacity="0.5" stroke="blue"/><polygon points="241.15278491950428,233.0404889510792 203.14251674964711,248.5606240430984 " opacity="0.5" stroke="blue"/><polygon points="237.8324278075137,233.78785387384772 202.86846584702505,250.92398186108073 " opacity="0.5" stroke="blue"/><polygon points="234.4060760414914,234.4060760414914 202.43480140783086,253.2545187586462 " opacity="0.5" stroke="blue"/><polygon points="230.88529948001442,234.89505300434183 201.8279718758389,255.54061324525858 " opacity="0.5" stroke="blue"/><polygon points="227.28153685920213,235.2549553682682 201.03585246457502,257.770364184025 " opacity="0.5" stroke="blue"/><polygon points="223.6060911415982,235.48620516616575 200.04790166746432,259.93172354337923 " opacity="0.5" stroke="blue"/><polygon points="219.8701290682754,235.589456621182 198.85528819972353,262.01262516876454 " opacity="0.5" stroke="blue"/><polygon points="216.08468436642417,235.5655793537346 197.45098753042987,264.00110670568904 " opacity="0.5" stroke="blue"/><polygon points="212.26066408415863,235.41564405685654 195.82984821165036,265.8854222102049 " opacity="0.5" stroke="blue"/><polygon points="208.40885754507943,235.14091064164163 193.98862918714934,267.6541434604412 " opacity="0.5" stroke="blue"/><polygon points="204.53994743596954,234.7428188358733 191.9260101246456,269.29624850533924 " opacity="0.5" stroke="blue"/><polygon points="200.66452256077633,234.22298120361074 189.64257753183747,270.80119652632095 " opacity="0.5" stroke="blue"/><polygon points="196.79309181190885,233.5831785408921 187.1407899677787,272.1589886183447 " opacity="0.5" stroke="blue"/><polygon points="192.93609892516764,232.82535759211066 184.4249260393152,273.36021459632184 " opacity="0.5" stroke="blue"/><polygon points="189.10393759686283,231.95163102236944 181.50101907922874,274.39608638342395 " opacity="0.5" stroke="blue"/><polygon points="185.30696655053578,230.9642795725859 178.3767824492592,275.25845892683645 " opacity="0.5" stroke="blue"/><polygon points="181.55552414601544,229.865756315686 175.06152931476302,275.9398399066729 " opacity="0.5" stroke="blue"/><polygon points="177.85994212530494,228.65869292331712 171.5660905202744,276.4333897526337 " opacity="0.5" stroke="blue"/><polygon points="174.230558088113,227.3459078425617 167.90273388069113,276.73291366240693 " opacity="0.5" stroke="blue"/><polygon points="170.67772628499284,225.93041627062746 164.08508781538055,276.83284743100046 " opacity="0.5" stroke="blue"/><polygon points="167.2118263084357,224.4154418019326 160.1280718147972,276.72823895885676 " opacity="0.5" stroke="blue"/><polygon points="163.8432692524327,222.80442960594448 156.04783576098885,276.4147273179258 " opacity="0.5" stroke="blue"/><polygon points="160.58250089970844,221.10106097516467 151.86170964069424,275.88852122864716 " opacity="0.5" stroke="blue"/><polygon points="157.44000148391055,219.30926906042885 147.5881647044415,275.1463787466539 " opacity="0.5" stroke="blue"/><polygon points="154.4262815626131,217.43325558493228 143.24678664464966,274.18558988475155 " opacity="0.5" stroke="blue"/><polygon points="151.5518735273213,215.4775082989097 138.85826089352395,273.0039638108446 " opacity="0.5" stroke="blue"/><polygon points="148.827318270245,213.44681890360434 134.4443696769725,271.5998221717414 " opacity="0.5" stroke="blue"/><polygon points="146.26314652614732,211.34630113612113 130.02800000000002,269.972 " opacity="0.5" stroke="blue"/><polygon points="143.86985441298668,209.18140866617543 125.63316127547444,268.1198555678312 " opacity="0.5" stroke="blue"/><polygon points="141.65787270949525,206.95795241204982 121.28501083328322,266.0432904579355 " opacity="0.5" stroke="blue"/><polygon points="139.63752943358747,204.68211683689898 117.00988505096623,263.74278102304015 " opacity="0.5" stroke="blue"/><polygon points="137.8190053250305,202.36047473881405 112.8353333199324,261.21942229839266 " opacity="0.5" stroke="blue"/><polygon points="136.2122818916965,200.0 108.79015149407772,258.4749853066607 " opacity="0.5" stroke="blue"/><polygon points="134.82708175350544,197.60807771358606 104.90441085267138,255.5119885421586 " opacity="0.5" stroke="blue"/><polygon points="133.67280111431973,195.19251106290363 101.20947794276314,252.3337842281564 " opacity="0.5" stroke="blue"/><polygon points="132.7584343117859,192.7615242898228 97.73801994905888,248.9446596919127 " opacity="0.5" stroke="blue"/><polygon points="132.09249054022877,190.32376105859564 94.5239894791807,245.3499538795444 " opacity="0.5" stroke="blue"/><polygon points="131.6829030133892,187.8882775026291 91.60258186673352,241.55618861777106 " opacity="0.5" stroke="blue"/><polygon points="131.53693103240533,185.46452923698956 89.01015731282054,237.57121370191453 " opacity="0.5" stroke="blue"/><polygon points="131.6610556492389,183.06235163273325 86.7841194525361,233.40436422964035 " opacity="0.5" stroke="blue"/><polygon points="132.06086986467187,180.69193268393707 84.96274130809324,229.06662779031794 " opacity="0.5" stroke="blue"/><polygon points="132.74096456939964,178.3637778580557 83.58492915638065,224.57081814779337 " opacity="0.5" stroke="blue"/><polygon points="133.70481172116553,176.0886664081468 82.6899146996285,219.9317509151425 " opacity="0.5" stroke="blue"/><polygon points="134.95464654291627,173.87759874421076 82.31686620940812,215.16641542120112 " opacity="0.5" stroke="blue"/><polygon points="136.49135081714635,171.74173461219019 82.5044101624133,210.29413553527363 " opacity="0.5" stroke="blue"/><polygon points="138.3143396284901,169.6923220137183 83.29005646172787,205.3367106961284 " opacity="0.5" stroke="blue"/><polygon points="140.42145415691056,167.7406170167042 84.70952280400526,200.31852686040733 " opacity="0.5" stroke="blue"/><polygon points="142.80886333276686,165.89779485375627 86.79595726340625,195.26662565336358 " opacity="0.5" stroke="blue"/><polygon points="145.47097731688987,164.17485297776335 89.57906283462438,190.21071881709875 " opacity="0.5" stroke="blue"/><polygon points="148.40037584764275,162.58250703501977 93.0841335629487,185.183134289551 " opacity="0.5" stroke="blue"/><polygon points="151.58775448757058,161.13108101725948 97.33101894315348,180.2186801226451 " opacity="0.5" stroke="blue"/><polygon points="155.02189169121132,159.83039315394865 102.33304130898911,175.35441318863988 " opacity="0.5" stroke="blue"/><polygon points="158.6896393924562,158.6896393924562 108.09589960846269,170.6293014539488 " opacity="0.5" stroke="blue"/><polygon points="162.57593946814256,157.71727657224403 114.61660171921139,166.0837717093289 " opacity="0.5" stroke="blue"/><polygon points="166.66386797321167,156.920907615265 121.88247555527332,161.75913915142604 " opacity="0.5" stroke="blue"/><polygon points="170.9347084667785,156.3071712137561 129.87031572774032,157.69692111493384 " opacity="0.5" stroke="blue"/><polygon points="175.36805506961878,155.88163858508685 138.54572640947714,153.93804440188123 " opacity="0.5" stroke="blue"/><polygon points="179.94194513059267,155.6487198699031 147.86272127073778,150.52196370091426 " opacity="0.5" stroke="blue"/><polygon points="184.63302055772934,155.61158266625478 157.76363698345583,147.4857169902646 " opacity="0.5" stroke="blue"/><polygon points="189.4167160202055,155.77208501448547 168.17940722417833,144.8629518453697 " opacity="0.5" stroke="blue"/><polygon points="194.26747138571568,156.13072487589108 179.0302291976207,142.68296336815428 " opacity="0.5" stroke="blue"/><polygon points="199.15896496166485,156.68660778816079 190.22663492318864,140.96978912355937 " opacity="0.5" stroke="blue"/><polygon points="204.06436339632006,157.43743394321223 201.67095602356727,139.74140819642912 " opacity="0.5" stroke="blue"/><polygon points="208.956583503331,158.37950543391315 213.2591453237709,139.00908967244447 " opacity="0.5" stroke="blue"/><polygon points="213.80856083092988,159.50775387512604 224.88289350564918,138.77693024701765 " opacity="0.5" stroke="blue"/><polygon points="218.59351952967864,160.8157880443469 236.43195689861125,139.04161145242756 " opacity="0.5" stroke="blue"/><polygon points="223.2852379950761,162.295960632383 247.79659565091256,139.79239479849514 " opacity="0.5" stroke="blue"/><polygon points="227.85830487889353,163.93945266959452 258.87001198088547,141.01135898520883 " opacity="0.5" stroke="blue"/><polygon points="232.28836037053642,165.736373721279 269.5506771384654,142.6738685906692 " opacity="0.5" stroke="blue"/><polygon points="236.55231813168785,167.67587554692332 279.74444331913435,144.74924969491408 " opacity="0.5" stroke="blue"/><polygon points="240.62856389961564,169.74627660819132 289.3663522474151,147.2016361059227 " opacity="0.5" stroke="blue"/><polygon points="244.49712752518332,171.93519460043964 298.3420737711399,149.9909412651772 " opacity="0.5" stroke="blue"/><polygon points="248.1398260441542,174.22968407744557 306.60893323856357,153.07390616865877 " opacity="0.5" stroke="blue"/><polygon points="251.54037625562626,176.61637623837345 314.1165130522396,156.40517291053933 " opacity="0.5" stroke="blue"/><polygon points="254.68447616025094,179.08161804397076 320.82683908773834,159.93833644774566 " opacity="0.5" stroke="blue"/><polygon points="257.5598554565472,181.61160801511804 326.7141845279261,163.62693322842594 " opacity="0.5" stroke="blue"/><polygon points="260.1562960738227,184.19252632707057 331.76454062150856,167.4253335202263 " opacity="0.5" stroke="blue"/><polygon points="262.46562440866717,186.81065713046556 335.97481517687373,171.2895136170203 " opacity="0.5" stroke="blue"/></svg>
