<?xml version="1.0" encoding="UTF-8"?>
<!DOCTYPE svg PUBLIC "-//W3C//DTD SVG 1.1//EN"
    "http://www.w3.org/Graphics/SVG/1.1/DTD/svg11.dtd"><svg width="400" height="400" stroke="black" fill="none" fill-opacity="0.75" font-size="14" font-style="italic" font-family="sans-serif" xmlns="http://www.w3.org/2000/svg" xmlns:xlink="http://www.w3.org/1999/xlink" version="1.1"><filter id="blur1"><feGaussianBlur stdDeviation="0.5"/></filter><rect width="100%" height="100%" fill="white" stroke="none" fill-opacity="1"/><rect class="bg" fill="black" width="100%" height="100%" stroke="none" fill-opacity="1"/><polyline class="polyline" opacity="0.5" stroke="blue" points="200.10020488078922,130.70344241374843 200.91778715555628,62.493212541719345 "/><polyline class="polyline" opacity="0.5" stroke="blue" points="199.98602153062606,130.43346896885308 201.4184836132131,61.55494578105757 "/><polyline class="polyline" opacity="0.5" stroke="blue" points="199.87117874096734,130.19236829132785 201.92503097883977,60.67376788034386 "/><polyline class="polyline" opacity="0.5" stroke="blue" points="199.75572076513856,129.9804986708952 202.43758990447915,59.85120728370626 "/><polyline class="polyline" opacity="0.5" stroke="blue" points="199.63969293966346,129.79821045772928 202.95631749708454,59.088792966120764 "/><polyline class="polyline" opacity="0.5" stroke="blue" points="199.5231416856994,129.64584552652263 203.4813669027975,58.38805193720492 "/><polyline class="polyline" opacity="0.5" stroke="blue" points="199.4061145089308,129.52373672750684 204.01288687418182,57.750506574679946 "/><polyline class="polyline" opacity="0.5" stroke="blue" points="199.2886599978445,129.4322073249391 204.55102132072247,57.17767178502507 "/><polyline class="polyline" opacity="0.5" stroke="blue" points="199.17082782030897,129.3715704236335 205.09590884301699,56.67105198952822 "/><polyline class="polyline" opacity="0.5" stroke="blue" points="199.0526687183822,129.34212838417363 205.64768225121438,56.23213793469097 "/><polyline class="polyline" opacity="0.5" stroke="blue" points="198.93423450127105,129.34417222751134 206.20646806839312,55.86240332678804 "/><polyline class="polyline" opacity="0.5" stroke="blue" points="198.81557803636827,129.37798102972044 206.7723860197135,55.56330129130279 "/><polyline class="polyline" opacity="0.5" stroke="blue" points="198.69675323829267,129.4438213077432 207.34554850833274,55.33626065897238 "/><polyline class="polyline" opacity="0.5" stroke="blue" points="198.57781505586112,129.54194639703567 207.926060079232,55.182682081268865 "/><polyline class="polyline" opacity="0.5" stroke="blue" points="198.4588194569214,129.67259582208789 208.51401687227116,55.103933979325205 "/><polyline class="polyline" opacity="0.5" stroke="blue" points="198.33982341097885,129.83599466086554 209.10950606596063,55.101348331578805 "/><polyline class="polyline" opacity="0.5" stroke="blue" points="198.2208848695515,130.03235290429112 209.7126053136201,55.17621630675035 "/><polyline class="polyline" opacity="0.5" stroke="blue" points="198.10206274419107,130.26186481195282 210.3233821737752,55.32978375020065 "/><polyline class="polyline" opacity="0.5" stroke="blue" points="197.98341688211244,130.5247082653021 210.94189353683143,55.56324653320138 "/><polyline class="polyline" opacity="0.5" stroke="blue" points="197.86500803937565,130.82104411966998 211.56818505025188,55.877745776217836 "/><polyline class="polyline" opacity="0.5" stroke="blue" points="197.74689785157113,131.15101555650222 212.20229054465312,56.27436295892062 "/><polyline class="polyline" opacity="0.5" stroke="blue" points="197.6291488019621,131.5147474372841 212.8442314634209,56.754114931305764 "/><polyline class="polyline" opacity="0.5" stroke="blue" points="197.51182418704386,131.9123456606883 213.49401629862888,57.31794884201139 "/><polyline class="polyline" opacity="0.5" stroke="blue" points="197.39498807948544,132.34389652454934 214.15164003622104,57.966737001639444 "/><polyline class="polyline" opacity="0.5" stroke="blue" points="197.27870528842462,132.8094660943263 214.8170836135866,58.701271700628496 "/><polyline class="polyline" opacity="0.5" stroke="blue" points="197.16304131709447,133.3090995797782 215.49031339281456,59.52226000295056 "/><polyline class="polyline" opacity="0.5" stroke="blue" points="197.04806231776612,133.84282072163052 216.17128065305943,60.43031853860728 "/><polyline class="polyline" opacity="0.5" stroke="blue" points="196.93383504399992,134.41063119006503 216.85992110557945,61.42596831955552 "/><polyline class="polyline" opacity="0.5" stroke="blue" points="196.8204268002051,135.01250999691305 217.55615443511758,62.5096296052871 "/><polyline class="polyline" opacity="0.5" stroke="blue" points="196.70790538851566,135.64841292347444 218.25988387138642,63.681616845786806 "/><polyline class="polyline" opacity="0.5" stroke="blue" points="196.5963390529999,136.3182719659242 218.9709957944819,64.9421337309874 "/><polyline class="polyline" opacity="0.5" stroke="blue" points="196.48579642122857,137.02199480029992 219.6893593780887,66.29126837709705 "/><polyline class="polyline" opacity="0.5" stroke="blue" points="196.37634644323717,137.75946426908877 220.41482627434974,67.7289886812699 "/><polyline class="polyline" opacity="0.5" stroke="blue" points="196.26805832792627,138.53053789145372 221.14723034424713,69.25513787700504 "/><polyline class="polyline" opacity="0.5" stroke="blue" points="196.16100147695514,139.33504739914758 221.88638743728586,70.86943032336217 "/><polyline class="polyline" opacity="0.5" stroke="blue" points="196.05524541619226,140.17279830017233 222.6320952241747,72.57144756155486 "/><polyline class="polyline" opacity="0.5" stroke="blue" points="195.95085972479842,141.04356947223255 223.384133086068,74.36063467269103 "/><polyline class="polyline" opacity="0.5" stroke="blue" points="195.84791396202704,141.94711278802367 224.1422620637588,76.23629697037582 "/><polyline class="polyline" opacity="0.5" stroke="blue" points="195.74647759183833,142.88315277437277 224.90622486999982,78.19759706152365 "/><polyline class="polyline" opacity="0.5" stroke="blue" points="195.6466199054335,143.85138630721912 225.67574596787483,80.24355230805615 "/><polyline class="polyline" opacity="0.5" stroke="blue" points="195.5484099418269,144.8514823443849 226.4505317178474,82.37303272115504 "/><polyline class="polyline" opacity="0.5" stroke="blue" points="195.45191640658345,145.8830816980327 227.23027059577498,84.58475931839907 "/><polyline class="polyline" opacity="0.5" stroke="blue" points="195.35720758886106,146.9457968486526 228.01463348380227,86.87730297241751 "/><polyline class="polyline" opacity="0.5" stroke="blue" points="195.26435127690632,148.03921180234735 228.8032740356303,89.24908377765641 "/><polyline class="polyline" opacity="0.5" stroke="blue" points="195.17341467216366,149.16288199310893 229.59582911720872,91.69837095946063 "/><polyline class="polyline" opacity="0.5" stroke="blue" points="195.08446430216645,150.31633423168705 230.39191932341492,94.22328334694376 "/><polyline class="polyline" opacity="0.5" stroke="blue" points="194.99756593239047,151.4990667025535 231.1911495707704,96.82179042805843 "/><polyline class="polyline" opacity="0.5" stroke="blue" points="194.9127844772566,152.7105490103534 231.9931097657082,99.49171400190184 "/><polyline class="polyline" opacity="0.5" stroke="blue" points="194.83018391048097,153.95022227711806 232.79737554734848,102.23073043962755 "/><polyline class="polyline" opacity="0.5" stroke="blue" points="194.74982717497747,155.21749929138235 233.6035091031654,105.03637356140783 "/><polyline class="polyline" opacity="0.5" stroke="blue" points="194.67177609252582,156.51176471021273 234.4110600553501,107.90603813273208 "/><polyline class="polyline" opacity="0.5" stroke="blue" points="194.59609127342517,157.8323753150038 235.2195664150912,110.83698397897666 "/><polyline class="polyline" opacity="0.5" stroke="blue" points="194.5228320263597,159.1786603217463 236.02855560141495,113.8263407126841 "/><polyline class="polyline" opacity="0.5" stroke="blue" points="194.45205626870822,160.54992174630422 236.837545520661,116.87111306338653 "/><polyline class="polyline" opacity="0.5" stroke="blue" points="194.383820437534,161.94543482506958 237.646045702121,119.96818679515304 "/><polyline class="polyline" opacity="0.5" stroke="blue" points="194.31817940149585,163.36444849118436 238.45355848484303,123.1143351923844 "/><polyline class="polyline" opacity="0.5" stroke="blue" points="194.2551863739227,164.80618590633546 239.2595802501142,126.30622608977673 "/><polyline class="polyline" opacity="0.5" stroke="blue" points="194.194892827298,166.26984504794171 240.06360269368147,129.5404294178831 "/><polyline class="polyline" opacity="0.5" stroke="blue" points="194.13734840939892,167.75459935135666 240.8651141313648,132.81342523137423 "/><polyline class="polyline" opacity="0.5" stroke="blue" points="194.08260086133674,169.25959840651697 241.66360083135936,136.12161218299133 "/><polyline class="polyline" opacity="0.5" stroke="blue" points="194.03069593774254,170.78396870826674 242.45854836622703,139.46131640235262 "/><polyline class="polyline" opacity="0.5" stroke="blue" points="193.9816773293406,172.32681445938923 243.2494429773381,142.82880073526098 "/><polyline class="polyline" opacity="0.5" stroke="blue" points="193.93558658814806,173.88721842517742 244.03577294435198,146.22027429602417 "/><polyline class="polyline" opacity="0.5" stroke="blue" points="193.8924630555346,175.46424283817615 244.81702995222128,149.6319022825682 "/><polyline class="polyline" opacity="0.5" stroke="blue" points="193.85234379337072,177.0569303515323 245.5927104481684,153.05981600185106 "/><polyline class="polyline" opacity="0.5" stroke="blue" points="193.81526351848555,178.66430503919514 246.3623169811201,156.50012305128175 "/><polyline class="polyline" opacity="0.5" stroke="blue" points="193.78125454064804,180.2853734410213 247.12535951619364,159.94891760056143 "/><polyline class="polyline" opacity="0.5" stroke="blue" points="193.75034670427513,181.91912565065275 247.88135671700348,163.40229071758745 "/><polyline class="polyline" opacity="0.5" stroke="blue" points="193.72256733406178,183.56453644386164 248.62983718880457,166.85634068182364 "/><polyline class="polyline" opacity="0.5" stroke="blue" points="193.6979411847153,185.22056644488495 249.3703406757969,170.3071832288299 "/><polyline class="polyline" opacity="0.5" stroke="blue" points="193.67649039496527,186.8861633281107 250.10241920628818,173.750961670463 "/><polyline class="polyline" opacity="0.5" stroke="blue" points="193.65823444600667,188.56026305232834 250.82563817983743,177.1838568365941 "/><polyline class="polyline" opacity="0.5" stroke="blue" points="193.6431901245204,190.24179112461348 251.53957739098223,180.60209678601194 "/><polyline class="polyline" opacity="0.5" stroke="blue" points="193.63137149040054,191.92966389079103 252.2438319846728,184.00196623647443 "/><polyline class="polyline" opacity="0.5" stroke="blue" points="193.62278984930214,193.62278984930214 252.93801333909846,187.37981566659195 "/><polyline class="polyline" opacity="0.5" stroke="blue" points="193.61745373010785,195.3200709851994 253.62174987218134,190.7320700453458 "/><polyline class="polyline" opacity="0.5" stroke="blue" points="193.61536886739452,197.02040412090585 254.2946877686278,194.05523714851032 "/><polyline class="polyline" opacity="0.5" stroke="blue" points="193.61653818896428,198.7226822802967 254.95649162505708,197.3459154250145 "/><polyline class="polyline" opacity="0.5" stroke="blue" points="193.62096180848698,200.42579606260767 255.6068450113651,200.60080138030253 "/><polyline class="polyline" opacity="0.5" stroke="blue" points="193.6286370232836,202.12863502262513 256.24545094711925,203.8166964479661 "/><polyline class="polyline" opacity="0.5" stroke="blue" points="193.63955831726207,203.83008905358935 256.872032292413,206.99051332528745 "/><polyline class="polyline" opacity="0.5" stroke="blue" points="193.65371736899849,205.52904976922682 257.48633205322443,210.11928175278413 "/><polyline class="polyline" opacity="0.5" stroke="blue" points="193.67110306494064,207.22441188133405 258.0881136019248,213.20015372233587 "/><polyline class="polyline" opacity="0.5" stroke="blue" points="193.69170151769052,208.915074569353 258.6771608141499,216.23040810295194 "/><polyline class="polyline" opacity="0.5" stroke="blue" points="193.71549608930698,210.5999428384157 259.25327812379163,219.207454677646 "/><polyline class="polyline" opacity="0.5" stroke="blue" points="193.7424674195515,212.27792886238558 259.81629049836783,222.1288375891891 "/><polyline class="polyline" opacity="0.5" stroke="blue" points="193.7725934589832,213.94795330849084 260.3660433374941,224.99223819665806 "/><polyline class="polyline" opacity="0.5" stroke="blue" points="193.8058495067935,215.60894664022572 260.9024022975995,227.7954773486528 "/><polyline class="polyline" opacity="0.5" stroke="blue" points="193.8422082532544,217.25985039529166 261.42525304640515,230.53651708278605 "/><polyline class="polyline" opacity="0.5" stroke="blue" points="193.88163982664003,218.89961843545964 261.9345009510074,233.21346176452525 "/><polyline class="polyline" opacity="0.5" stroke="blue" points="193.9241118444659,220.52721816535714 262.43007070368833,235.82455868166056 "/><polyline class="polyline" opacity="0.5" stroke="blue" points="193.96958946887824,222.14163171731715 262.9119058898023,238.36819811357088 "/><polyline class="polyline" opacity="0.5" stroke="blue" points="194.01803546601147,223.74185709957294 263.3799685022692,240.84291289704478 "/><polyline class="polyline" opacity="0.5" stroke="blue" points="194.0694102691217,225.32690930523776 263.834238407334,243.24737751267486 "/><polyline class="polyline" opacity="0.5" stroke="blue" points="194.1236720452931,226.89582137967287 264.274712766341,245.5804067177817 "/><polyline class="polyline" opacity="0.5" stroke="blue" points="194.18077676550337,228.44764544402258 264.70140541830955,247.84095375343242 "/><polyline class="polyline" opacity="0.5" stroke="blue" points="194.24067827782835,229.98145367287304 265.1143462280978,250.02810815440688 "/><polyline class="polyline" opacity="0.5" stroke="blue" points="194.30332838355554,231.49633922418016 265.51358040490254,252.14109319193886 "/><polyline class="polyline" opacity="0.5" stroke="blue" points="194.3686769159723,232.99141711980195 265.89916779576345,254.17926297972744 "/><polyline class="polyline" opacity="0.5" stroke="blue" points="194.4366718215885,234.465825075167 266.27118215863413,256.14209927409803 "/><polyline class="polyline" opacity="0.5" stroke="blue" points="194.5072592435491,235.9187242768069 266.62971041944184,258.0292079992971 "/><polyline class="polyline" opacity="0.5" stroke="blue" points="194.5803836069896,237.349300106682 266.9748519173927,259.84031552876286 "/><polyline class="polyline" opacity="0.5" stroke="blue" points="194.65598770608594,238.75676281242775 267.30671764259364,261.57526475283214 "/><polyline class="polyline" opacity="0.5" stroke="blue" points="194.73401279254904,240.14034812284893 267.625429469855,263.2340109627538 "/><polyline class="polyline" opacity="0.5" stroke="blue" points="194.8143986653151,241.499317808186 267.9311193923161,264.81661758009545 "/><polyline class="polyline" opacity="0.5" stroke="blue" points="194.89708376118458,242.83296018487223 268.2239287583029,266.32325175968185 "/><polyline class="polyline" opacity="0.5" stroke="blue" points="194.9820052461641,244.1405905646923 268.50400751458625,267.75417989310523 "/><polyline class="polyline" opacity="0.5" stroke="blue" points="195.06909910727094,245.4215516484371 268.77151345895527,269.1097630386307 "/><polyline class="polyline" opacity="0.5" stroke="blue" points="195.15830024456233,246.67521386433285 269.0266115047767,270.3904523019978 "/><polyline class="polyline" opacity="0.5" stroke="blue" points="195.24954256315803,247.9009756516952 269.2694729599515,271.59678419121656 "/><polyline class="polyline" opacity="0.5" stroke="blue" points="195.3427590650312,249.09826369042773 269.5002748224359,272.7293759669933 "/><polyline class="polyline" opacity="0.5" stroke="blue" points="195.437881940348,250.26653307714358 269.71919909424435,273.7889210089151 "/><polyline class="polyline" opacity="0.5" stroke="blue" points="195.53484265814583,251.40526744884158 269.92643211561244,274.7761842159879 "/><polyline class="polyline" opacity="0.5" stroke="blue" points="195.63357205614636,252.51397905521048 270.12216392076647,275.6919974585835 "/><polyline class="polyline" opacity="0.5" stroke="blue" points="195.7340004295104,253.59220878076914 270.30658761652074,276.5372550973115 "/><polyline class="polyline" opacity="0.5" stroke="blue" points="195.83605761834883,254.63952611817575 270.47989878471054,277.31290958281454 "/><polyline class="polyline" opacity="0.5" stroke="blue" points="195.9396730938154,255.65552909415314 270.64229490926664,278.0199671489929 "/><polyline class="polyline" opacity="0.5" stroke="blue" points="196.04477604261592,256.63984414958236 270.79397482854466,278.6594836107158 "/><polyline class="polyline" opacity="0.5" stroke="blue" points="196.15129544977947,257.59212597541125 270.9351382133449,279.23256027566987 "/><polyline class="polyline" opacity="0.5" stroke="blue" points="196.2591601795482,258.51205730611036 271.06598507089166,279.740339978652 "/><polyline class="polyline" opacity="0.5" stroke="blue" points="196.36829905425208,259.39934867248087 271.186715274887,280.1840032453214 "/><polyline class="polyline" opacity="0.5" stroke="blue" points="196.47864093104678,260.2537381156867 271.29752812161416,280.56476459120665 "/><polyline class="polyline" opacity="0.5" stroke="blue" points="196.59011477640374,261.07499086443295 271.3986219119375,280.8838689606107 "/><polyline class="polyline" opacity="0.5" stroke="blue" points="196.70264973825198,261.8628989772625 271.4901935589295,281.1425883089752 "/><polyline class="polyline" opacity="0.5" stroke="blue" points="196.81617521568288,262.617280951973 271.57243822075435,281.3422183312573 "/><polyline class="polyline" opacity="0.5" stroke="blue" points="196.93062092613923,263.33798130418495 271.64554895834385,281.48407533793915 "/><polyline class="polyline" opacity="0.5" stroke="blue" points="197.04591697002115,264.02487011710724 271.70971641732245,281.5694932794284 "/><polyline class="polyline" opacity="0.5" stroke="blue" points="197.16199389265142,264.677842564554 271.76512853356996,281.5998209188207 "/><polyline class="polyline" opacity="0.5" stroke="blue" points="197.27878274355362,265.2968184092679 271.8119702617498,281.5764191522804 "/><polyline class="polyline" opacity="0.5" stroke="blue" points="197.3962151330058,265.8817414785949 271.8504233260827,281.50065847564565 "/><polyline class="polyline" opacity="0.5" stroke="blue" points="197.5142232858425,266.4325791195413 271.8806659926057,281.3739165952878 "/><polyline class="polyline" opacity="0.5" stroke="blue" points="197.63274009248678,266.94932163522105 271.902872862124,281.1975761807385 "/><polyline class="polyline" opacity="0.5" stroke="blue" points="197.75169915720375,267.4319817046724 271.91721468304,280.97302275614334 "/><polyline class="polyline" opacity="0.5" stroke="blue" points="197.87103484357428,267.8805937879863 271.92385818322725,280.7016427272084 "/><polyline class="polyline" opacity="0.5" stroke="blue" points="197.9906823171972,268.29521351865174 271.9229659201063,280.3848215399646 "/><polyline class="polyline" opacity="0.5" stroke="blue" points="198.11057758563476,268.67591708497355 271.9146961480772,280.0239419673852 "/><polyline class="polyline" opacity="0.5" stroke="blue" points="198.23065753562415,269.02280060237115 271.89920270246176,279.6203825196556 "/><polyline class="polyline" opacity="0.5" stroke="blue" points="198.3508599675846,269.33597947831004 271.8766348991181,279.17551597369624 "/><polyline class="polyline" opacity="0.5" stroke="blue" points="198.47112362745565,269.61558777156233 271.84713744889854,278.6907080173867 "/><polyline class="polyline" opacity="0.5" stroke="blue" points="198.59138823590834,269.86177754742823 271.81085038613594,278.16731600382457 "/><polyline class="polyline" opacity="0.5" stroke="blue" points="198.71159451497667,270.07471823049076 271.76790901036225,277.6066878108692 "/><polyline class="polyline" opacity="0.5" stroke="blue" points="198.83168421216132,270.2545959564054 271.71844384048245,277.01016080117483 "/><polyline class="polyline" opacity="0.5" stroke="blue" points="198.95160012206264,270.40161292416315 271.66258058064955,276.3790608778919 "/><polyline class="polyline" opacity="0.5" stroke="blue" points="199.07128610560363,270.51598675019204 271.60044009711237,275.7147016312245 "/><polyline class="polyline" opacity="0.5" stroke="blue" points="199.19068710690746,270.5979498255953 271.5321384053326,275.0183835710557 "/><polyline class="polyline" opacity="0.5" stroke="blue" points="199.30974916789765,270.64774867775077 271.4577866666953,274.29139344090333 "/><polyline class="polyline" opacity="0.5" stroke="blue" points="199.42841944069121,270.66564333742696 271.3774911941673,273.53500360852934 "/><polyline class="polyline" opacity="0.5" stroke="blue" points="199.54664619785854,270.65190671249877 271.2913534662855,272.75047152861305 "/><polyline class="polyline" opacity="0.5" stroke="blue" points="199.66437884062438,270.6068239692752 271.1994701488874,271.9390392729846 "/><polyline class="polyline" opacity="0.5" stroke="blue" points="199.78156790508777,270.53069192238155 271.10193312402646,271.10193312402646 "/><polyline class="polyline" opacity="0.5" stroke="blue" points="199.8981650665385,270.4238184340688 270.99882952554555,270.24036322696173 "/><polyline class="polyline" opacity="0.5" stroke="blue" points="200.01412314194988,270.2865218237541 270.89024178080865,269.3555232968705 "/><polyline class="polyline" opacity="0.5" stroke="blue" points="200.12939609072745,270.11913028853064 270.7762476581265,268.44859037640526 "/><polyline class="polyline" opacity="0.5" stroke="blue" points="200.24393901379426,269.9219813353185 270.6569203194334,267.520724640308 "/><polyline class="polyline" opacity="0.5" stroke="blue" points="200.35770815109308,269.69542122526366 270.5323283778076,266.57306924296904 "/><polyline class="polyline" opacity="0.5" stroke="blue" points="200.47066087758586,269.43980443093346 270.4025359594525,265.6067502054069 "/><polyline class="polyline" opacity="0.5" stroke="blue" points="200.58275569783066,269.1554931067915 270.26760276978257,264.6228763381894 "/><polyline class="polyline" opacity="0.5" stroke="blue" points="200.69395223921478,268.84285657338273 270.12758416328586,263.6225391969574 "/><polyline class="polyline" opacity="0.5" stroke="blue" points="200.80421124392325,268.5022708156001 269.98253121686037,262.60681306735313 "/><polyline class="polyline" opacity="0.5" stroke="blue" points="200.91349455971977,268.13411799535004 269.83249080634374,261.57675497629674 "/><polyline class="polyline" opacity="0.5" stroke="blue" points="201.02176512961597,267.7387859788861 269.67750568598194,260.53340472669254 "/><polyline class="polyline" opacity="0.5" stroke="blue" points="201.12898698050503,267.3166678790282 269.517614570604,259.4777849527845 "/><polyline class="polyline" opacity="0.5" stroke="blue" points="201.23512521083143,266.86816161243905 269.3528522202905,258.41090119351384 "/><polyline class="polyline" opacity="0.5" stroke="blue" points="201.34014597736999,266.39366947208543 269.1832495273453,257.33374198136653 "/><polyline class="polyline" opacity="0.5" stroke="blue" points="201.44401648118355,265.89359771497084 269.0088336053979,256.24727894432453 "/><polyline class="polyline" opacity="0.5" stroke="blue" points="201.5467049528272,265.36835616518414 268.8296278804828,255.1524669186632 "/><polyline class="polyline" opacity="0.5" stroke="blue" points="201.6481806368661,264.81835783227586 268.64565218395944,254.05024407046074 "/><polyline class="polyline" opacity="0.5" stroke="blue" points="201.74841377577025,264.24401854493385 268.4569228471515,252.94153202380207 "/><polyline class="polyline" opacity="0.5" stroke="blue" points="201.84737559324913,263.64575659990226 268.2634527975997,251.82723599378073 "/><polyline class="polyline" opacity="0.5" stroke="blue" points="201.9450382770859,263.02399242605526 268.0652516568371,250.70824492251043 "/><polyline class="polyline" opacity="0.5" stroke="blue" points="202.04137496152927,262.3791482635083 267.8623258396059,249.5854316164714 "/><polyline class="polyline" opacity="0.5" stroke="blue" points="202.13635970929892,261.71164785762596 267.6546786544502,248.45965288362044 "/><polyline class="polyline" opacity="0.5" stroke="blue" points="202.2299674932581,261.0219161677607 267.44231040562704,247.33174966879847 "/><polyline class="polyline" opacity="0.5" stroke="blue" points="202.32217417780492,260.31037909053293 267.22521849628833,246.20254718606662 "/><polyline class="polyline" opacity="0.5" stroke="blue" points="202.4129565000316,259.5774631974475 267.0033975328963,245.07285504670278 "/><polyline class="polyline" opacity="0.5" stroke="blue" points="202.5022920506991,258.8235954866197 266.77683943084105,243.9434673816794 "/><polyline class="polyline" opacity="0.5" stroke="blue" points="202.5901592550719,258.04920314836886 266.54553352123685,242.8151629575394 "/><polyline class="polyline" opacity="0.5" stroke="blue" points="202.67653735365593,257.2547133444251 266.3094666588785,241.68870528467215 "/><polyline class="polyline" opacity="0.5" stroke="blue" points="202.7614063828808,256.440553000479 266.0686233313445,240.56484271707888 "/><polyline class="polyline" opacity="0.5" stroke="blue" points="202.8447471557648,255.60714861179417 265.8229857692381,239.44430854280105 "/><polyline class="polyline" opacity="0.5" stroke="blue" points="202.92654124259948,254.75492606159452 265.57253405756,238.32782106426635 "/><polyline class="polyline" opacity="0.5" stroke="blue" points="203.00677095168916,253.8843104519256 265.3172462482071,237.21608366788666 "/><polyline class="polyline" opacity="0.5" stroke="blue" points="203.08541931017743,252.99572594668703 265.0570984735959,236.10978488232112 "/><polyline class="polyline" opacity="0.5" stroke="blue" points="203.16247004499272,252.08959562652336 264.79206506140724,235.00959842489303 "/><polyline class="polyline" opacity="0.5" stroke="blue" points="203.23790756394143,251.16634135525916 264.52211865044933,233.9161832357246 "/><polyline class="polyline" opacity="0.5" stroke="blue" points="203.3117169369766,250.22638365755756 264.2472303076353,232.8301834992277 "/><polyline class="polyline" opacity="0.5" stroke="blue" points="203.38388387766759,249.27014160748232 263.9673696460681,231.75222865266028 "/><polyline class="polyline" opacity="0.5" stroke="blue" points="203.45439472489522,248.29803272763857 263.6825049442252,230.6829333815305 "/><polyline class="polyline" opacity="0.5" stroke="blue" points="203.52323642479516,247.31047289856923 263.39260326622855,229.62289760170088 "/><polyline class="polyline" opacity="0.5" stroke="blue" points="203.5903965129699,246.30787627808306 263.097630583185,228.57270642811488 "/><polyline class="polyline" opacity="0.5" stroke="blue" points="203.65586309698995,245.29065523019074 262.7975518955734,227.5329301301368 "/><polyline class="polyline" opacity="0.5" stroke="blue" points="203.7196248392018,244.25922026332827 262.49233135665247,226.5041240735652 "/><polyline class="polyline" opacity="0.5" stroke="blue" points="203.7816709398598,243.21397997754755 262.18193239685354,225.48682864944743 "/><polyline class="polyline" opacity="0.5" stroke="blue" points="203.84199112059764,242.15534102035798 261.8663178491197,224.48156918989122 "/><polyline class="polyline" opacity="0.5" stroke="blue" points="203.900575608254,241.08370805090485 261.5454500751411,223.48885587113486 "/><polyline class="polyline" opacity="0.5" stroke="blue" points="203.95741511906527,239.9994837121751 261.2192910924305,222.5091836042056 "/><polyline class="polyline" opacity="0.5" stroke="blue" points="204.0125008432381,238.90306861092438 260.8878027021737,221.543031913561 "/><polyline class="polyline" opacity="0.5" stroke="blue" points="204.06582442991234,237.79486130502315 260.55094661778037,220.5908648041743 "/><polyline class="polyline" opacity="0.5" stroke="blue" points="204.11737797252536,236.67525829792586 260.20868459405204,219.6531306175895 "/><polyline class="polyline" opacity="0.5" stroke="blue" points="204.16715399458624,235.54465403996988 259.86097855687154,218.73026187753624 "/><polyline class="polyline" opacity="0.5" stroke="blue" points="204.21514543586878,234.40344093621832 259.50779073331114,217.82267512575945 "/><polyline class="polyline" opacity="0.5" stroke="blue" points="204.26134563903085,233.25200936056368 259.14908378204325,216.93077074878005 "/><polyline class="polyline" opacity="0.5" stroke="blue" points="204.3057483366669,232.09074767581677 258.7848209239274,216.05493279636704 "/><polyline class="polyline" opacity="0.5" stroke="blue" points="204.3483476387998,230.9200422595099 258.41496607263673,215.1955287925606 "/><polyline class="polyline" opacity="0.5" stroke="blue" points="204.38913802081743,229.74027753514767 258.0394839651751,214.3529095401466 "/><polyline class="polyline" opacity="0.5" stroke="blue" points="204.4281143118593,228.5518360086474 257.658340292124,213.5274089195417 "/><polyline class="polyline" opacity="0.5" stroke="blue" points="204.46527168365685,227.35509830971313 257.27150182744793,212.71934368310292 "/><polyline class="polyline" opacity="0.5" stroke="blue" points="204.500605639832,226.15044323789505 256.8789365576762,211.92901324593365 "/><polyline class="polyline" opacity="0.5" stroke="blue" points="204.53411200565657,224.93824781309078 256.48061381026446,211.1566994743068 "/><polyline class="polyline" opacity="0.5" stroke="blue" points="204.56578691827607,223.71888733025105 256.0765043809332,210.40266647288058 "/><polyline class="polyline" opacity="0.5" stroke="blue" points="204.59562681739982,222.4927354180556 255.66658065976424,209.6671603719254 "/><polyline class="polyline" opacity="0.5" stroke="blue" points="204.62362843645977,221.2601641013337 255.25081675583016,208.95040911582964 "/><polyline class="polyline" opacity="0.5" stroke="blue" points="204.64978879423992,220.02154386700462 254.8291886201186,208.25262225418973 "/><polyline class="polyline" opacity="0.5" stroke="blue" points="204.67410518697736,218.77724373332236 254.40167416650561,207.57399073683098 "/><polyline class="polyline" opacity="0.5" stroke="blue" points="204.69657518093655,217.52763132220971 253.96825339052182,206.91468671413722 "/><polyline class="polyline" opacity="0.5" stroke="blue" points="204.71719660545762,216.27307293447427 253.52890848564826,206.2748633440992 "/><polyline class="polyline" opacity="0.5" stroke="blue" points="204.73596754647943,215.01393362770224 253.08362395686964,205.6546546075163 "/><polyline class="polyline" opacity="0.5" stroke="blue" points="204.75288634053786,213.75057729662862 252.63238673120807,205.05417513280574 "/><polyline class="polyline" opacity="0.5" stroke="blue" points="204.7679515692399,212.48336675578872 252.17518626495257,204.47352003189175 "/><polyline class="polyline" opacity="0.5" stroke="blue" points="204.78116205421344,211.21266382425736 251.71201464729603,203.91276474865379 "/><polyline class="polyline" opacity="0.5" stroke="blue" points="204.79251685253328,209.93882941228702 251.24286670008811,203.37196492142024 "/><polyline class="polyline" opacity="0.5" stroke="blue" points="204.80201525262294,208.66222360965753 250.7677400734084,202.85115626099045 "/><polyline class="polyline" opacity="0.5" stroke="blue" points="204.80965677063227,207.38320577555518 250.28663533666548,202.35035444566108 "/><polyline class="polyline" opacity="0.5" stroke="blue" points="204.81544114729093,206.1021346297991 249.79955606492462,201.8695550347182 "/><polyline class="polyline" opacity="0.5" stroke="blue" points="204.819368345237,204.819368345237 249.30650892017195,201.40873340183526 "/><polyline class="polyline" opacity="0.5" stroke="blue" points="204.82143854682087,203.535264641133 248.8075037272222,200.96784468978956 "/><polyline class="polyline" opacity="0.5" stroke="blue" points="204.8216521523837,202.25018087737286 248.30255354398471,200.54682378787422 "/><polyline class="polyline" opacity="0.5" stroke="blue" points="204.82000977901023,200.96447414931336 247.7916747258063,200.14558533334184 "/><polyline class="polyline" opacity="0.5" stroke="blue" points="204.81651225975546,199.67850138310294 247.27488698361893,199.76402373816504 "/><polyline class="polyline" opacity="0.5" stroke="blue" points="204.81116064334464,198.39261943130154 246.7522134356272,199.4020132423439 "/><polyline class="polyline" opacity="0.5" stroke="blue" points="204.80395619434623,197.10718516863005 246.22368065228397,199.05940799492635 "/><polyline class="polyline" opacity="0.5" stroke="blue" points="204.79490039381722,195.82255558767693 245.68931869431327,198.73604216383532 "/><polyline class="polyline" opacity="0.5" stroke="blue" points="204.78399494042017,194.53908789439166 245.14916114355373,198.43173007552085 "/><polyline class="polyline" opacity="0.5" stroke="blue" points="204.7712417520116,193.25713960319442 244.6032451264132,198.14626638536785 "/><polyline class="polyline" opacity="0.5" stroke="blue" points="204.75664296770094,191.9770686315283 244.05161132974004,197.87942627970065 "/><polyline class="polyline" opacity="0.5" stroke="blue" points="204.74020095037957,190.69923339368353 243.49430400893777,197.63096571012602 "/><polyline class="polyline" opacity="0.5" stroke="blue" points="204.72191828971899,189.42399289371664 242.93137098816902,197.40062166085332 "/><polyline class="polyline" opacity="0.5" stroke="blue" points="204.70179780563763,188.15170681729174 242.36286365251624,197.18811244951974 "/><polyline class="polyline" opacity="0.5" stroke="blue" points="204.6798425522355,186.88273562226374 241.78883693199077,196.9931380619336 "/><polyline class="polyline" opacity="0.5" stroke="blue" points="204.65605582219553,185.61744062782586 241.2093492773064,196.81538052102917 "/><polyline class="polyline" opacity="0.5" stroke="blue" points="204.63044115165093,184.3561841020376 240.62446262735742,196.6545042902013 "/><polyline class="polyline" opacity="0.5" stroke="blue" points="204.60300232551725,183.09932934754966 240.03424236837083,196.51015671106066 "/><polyline class="polyline" opacity="0.5" stroke="blue" points="204.5737433832883,181.84724078533708 239.43875728472702,196.38196847551922 "/><polyline class="polyline" opacity="0.5" stroke="blue" points="204.542668625294,180.60028403625023 238.83807950147462,196.26955413198124 "/><polyline class="polyline" opacity="0.5" stroke="blue" points="204.50978261941944,179.35882600018914 238.23228441859195,196.17251262528075 "/><polyline class="polyline" opacity="0.5" stroke="blue" points="204.47509020828272,178.12323493270213 237.62145063707837,196.09042786986876 "/><polyline class="polyline" opacity="0.5" stroke="blue" points="204.43859651687026,176.8938805188082 237.00565987698965,196.02286935561762 "/><polyline class="polyline" opacity="0.5" stroke="blue" points="204.40030696062712,175.67113394383534 236.3849968875598,195.96939278547333 "/><polyline class="polyline" opacity="0.5" stroke="blue" points="204.36022725400016,174.4553679610651 235.7595493495839,195.9295407440512 "/><polyline class="polyline" opacity="0.5" stroke="blue" points="204.31836341943134,173.24695695596765 235.12940777026574,195.90284339613805 "/><polyline class="polyline" opacity="0.5" stroke="blue" points="204.27472179679802,172.04627700680794 234.49466537076432,195.88881921393335 "/><polyline class="polyline" opacity="0.5" stroke="blue" points="204.2293090532973,170.85370594139673 233.855417966702,195.88697573173565 "/><polyline class="polyline" opacity="0.5" stroke="blue" points="204.18213219377031,169.6696233897584 233.21176384192663,195.8968103266584 "/><polyline class="polyline" opacity="0.5" stroke="blue" points="204.13319857146269,168.49441083247845 232.56380361584715,195.91781102384311 "/><polyline class="polyline" opacity="0.5" stroke="blue" points="204.08251589921625,167.32845164449142 231.91164010468924,195.94945732452572 "/><polyline class="polyline" opacity="0.5" stroke="blue" points="204.03009226108725,166.17213113406234 231.25537817704267,195.9912210552098 "/><polyline class="polyline" opacity="0.5" stroke="blue" points="203.97593612438533,165.02583657671124 230.59512460409763,196.04256723610106 "/><polyline class="polyline" opacity="0.5" stroke="blue" points="203.92005635212698,163.88995724382266 229.93098790498757,196.10295496687147 "/><polyline class="polyline" opacity="0.5" stroke="blue" points="203.86246221589678,162.76488442567836 229.2630781876801,196.17183832773836 "/><polyline class="polyline" opacity="0.5" stroke="blue" points="203.8031634091091,161.65101144864497 228.59150698587447,196.24866729377484 "/><polyline class="polyline" opacity="0.5" stroke="blue" points="203.74217006066158,160.54873368624294 227.91638709238214,196.33288866030512 "/><polyline class="polyline" opacity="0.5" stroke="blue" points="203.6794927489721,159.45844856381788 227.23783238948317,196.42394697718626 "/><polyline class="polyline" opacity="0.5" stroke="blue" points="203.61514251638897,158.3805555565298 226.55595767676292,196.5212854897379 "/><polyline class="polyline" opacity="0.5" stroke="blue" points="203.54913088396373,157.31545618037126 225.8708784969457,196.6243470840483 "/><polyline class="polyline" opacity="0.5" stroke="blue" points="203.4814698665755,156.26355397591934 225.18271096024984,196.73257523436737 "/><polyline class="polyline" opacity="0.5" stroke="blue" points="203.41217198839362,155.22525448452294 224.4915715677963,196.84541495028512 "/><polyline class="polyline" opacity="0.5" stroke="blue" points="203.34125029866573,154.20096521662109 223.7975770346051,196.96231372139772 "/><polyline class="polyline" opacity="0.5" stroke="blue" points="203.26871838781602,153.19109561188486 223.1008441127177,197.08272245717342 "/><polyline class="polyline" opacity="0.5" stroke="blue" points="203.1945904038387,152.196056990871 222.40148941498103,197.20609641975514 "/><polyline class="polyline" opacity="0.5" stroke="blue" points="203.11888106896848,151.21626249787238 221.69962924002695,197.33189614746763 "/><polyline class="polyline" opacity="0.5" stroke="blue" points="203.04160569661133,150.25212703464683 220.99537939897516,197.45958836684247 "/><polyline class="polyline" opacity="0.5" stroke="blue" points="202.96278020851466,149.30406718470508 220.28885504437974,197.5886468910254 "/><polyline class="polyline" opacity="0.5" stroke="blue" points="202.88242115215692,148.37250112783383 219.58017050193067,197.7185535024942 "/><polyline class="polyline" opacity="0.5" stroke="blue" points="202.80054571833384,147.45784854453245 218.86943910540825,197.8487988180857 "/><polyline class="polyline" opacity="0.5" stroke="blue" points="202.71717175891743,146.56053051003798 218.1567730353764,197.97888313441138 "/><polyline class="polyline" opacity="0.5" stroke="blue" points="202.63231780476295,145.6809693776154 217.4422831620829,198.10831725182675 "/><polyline class="polyline" opacity="0.5" stroke="blue" points="202.54600308373597,144.81958865079116 216.7260788930187,198.23662327521603 "/><polyline class="polyline" opacity="0.5" stroke="blue" points="202.45824753883187,143.97681284420833 216.00826802556838,198.36333538995345 "/><polyline class="polyline" opacity="0.5" stroke="blue" points="202.36907184635675,143.1530673327872 215.2889566051631,198.48800061150965 "/><polyline class="polyline" opacity="0.5" stroke="blue" points="202.2784974341381,142.34877818887705 214.56824878932522,198.61017950728356 "/><polyline class="polyline" opacity="0.5" stroke="blue" points="202.1865464997311,141.56437200709163 213.84624671797096,198.72944688935584 "/><polyline class="polyline" opacity="0.5" stroke="blue" points="202.09324202858508,140.80027571652568 213.1230503903119,198.84539247697896 "/><polyline class="polyline" opacity="0.5" stroke="blue" points="201.99860781213226,140.05691638005933 212.39875754867236,198.95762152774216 "/><polyline class="polyline" opacity="0.5" stroke="blue" points="201.90266846575955,139.33472098046434 211.67346356951165,199.0657554364724 "/><polyline class="polyline" opacity="0.5" stroke="blue" points="201.80544944662154,138.6341161930385 210.94726136191605,199.16943230105736 "/><polyline class="polyline" opacity="0.5" stroke="blue" points="201.70697707125163,137.95552814450457 210.2202412737957,199.268307454503 "/><polyline class="polyline" opacity="0.5" stroke="blue" points="201.60727853292545,137.29938215792544 209.4924910059966,199.36205396266163 "/><polyline class="polyline" opacity="0.5" stroke="blue" points="201.50638191872937,136.66610248340146 208.76409553450952,199.4503630871909 "/><polyline class="polyline" opacity="0.5" stroke="blue" points="201.4043162262841,136.05611201433308 208.03513704092984,199.53294471342596 "/><polyline class="polyline" opacity="0.5" stroke="blue" points="201.30111138007226,135.4698319890506 207.30569485129718,199.6095277429658 "/><polyline class="polyline" opacity="0.5" stroke="blue" points="201.1967982473161,134.90768167763486 206.57584538341453,199.67986045089128 "/><polyline class="polyline" opacity="0.5" stroke="blue" points="201.09140865334956,134.37007805377328 205.8456621027234,199.74371080764462 "/><polyline class="polyline" opacity="0.5" stroke="blue" points="200.98497539642713,133.8574354515221 205.1152154867825,199.80086676570738 "/><polyline class="polyline" opacity="0.5" stroke="blue" points="200.87753226191,133.3701652068721 204.38457299837648,199.85113651131874 "/><polyline class="polyline" opacity="0.5" stroke="blue" points="200.7691140357676,132.9086752840439 203.653799067254,199.8943486815713 "/><polyline class="polyline" opacity="0.5" stroke="blue" points="200.65975651733135,132.4733698864709 202.9229550804739,199.93035254731643 "/><polyline class="polyline" opacity="0.5" stroke="blue" points="200.54949653123538,132.06464905246003 202.19209938131453,199.95901816239518 "/><polyline class="polyline" opacity="0.5" stroke="blue" points="200.43837193847702,131.68290823555844 201.4612872766819,199.98023647979198 "/><polyline class="polyline" opacity="0.5" stroke="blue" points="200.32642164652842,131.32853786969065 200.7305710529313,199.99391943538077 "/><polyline class="polyline" opacity="0.5" stroke="blue" points="200.2136856184293,131.0019229191722 200.0,200.0 "/><polyline class="polyline" opacity="0.5" stroke="blue" points="200.10020488078922,130.70344241374846 199.26962044373008,199.99843220065236 "/><polyline class="polyline" opacity="0.5" stroke="blue" points="199.9860215306261,130.43346896885308 198.53947578624508,199.98919111167763 "/><polyline class="polyline" opacity="0.5" stroke="blue" points="199.87117874096734,130.19236829132788 197.80960655423064,199.97227281679247 "/><polyline class="polyline" opacity="0.5" stroke="blue" points="199.75572076513856,129.98049867089526 197.08005045495332,199.947694342929 "/><polyline class="polyline" opacity="0.5" stroke="blue" points="199.6396929396635,129.79821045772923 196.35084243984278,199.9154935668362 "/><polyline class="polyline" opacity="0.5" stroke="blue" points="199.5231416856994,129.64584552652263 195.62201477544957,199.87572909543127 "/><polyline class="polyline" opacity="0.5" stroke="blue" points="199.4061145089308,129.52373672750684 194.89359712158262,199.82848012090668 "/><polyline class="polyline" opacity="0.5" stroke="blue" points="199.2886599978445,129.4322073249391 194.1656166164214,199.7738462516091 "/><polyline class="polyline" opacity="0.5" stroke="blue" points="199.17082782030897,129.37157042363347 193.43809796839147,199.7119473197108 "/><polyline class="polyline" opacity="0.5" stroke="blue" points="199.0526687183822,129.34212838417363 192.71106355458554,199.6429231666918 "/><polyline class="polyline" opacity="0.5" stroke="blue" points="198.93423450127105,129.34417222751134 191.9845335255079,199.56693340764437 "/><polyline class="polyline" opacity="0.5" stroke="blue" points="198.81557803636827,129.37798102972044 191.25852591591595,199.4841571753959 "/><polyline class="polyline" opacity="0.5" stroke="blue" points="198.6967532382927,129.44382130774324 190.5330567615301,199.394792845429 "/><polyline class="polyline" opacity="0.5" stroke="blue" points="198.57781505586115,129.54194639703567 189.80814022138082,199.29905774255218 "/><polyline class="polyline" opacity="0.5" stroke="blue" points="198.45881945692142,129.67259582208789 189.08378870556137,199.19718783024524 "/><polyline class="polyline" opacity="0.5" stroke="blue" points="198.33982341097888,129.83599466086554 188.36001300815346,199.0894373835713 "/><polyline class="polyline" opacity="0.5" stroke="blue" points="198.2208848695515,130.0323529042911 187.63682244509408,198.97607864650718 "/><polyline class="polyline" opacity="0.5" stroke="blue" points="198.10206274419107,130.2618648119528 186.91422499675252,198.85740147450517 "/><polyline class="polyline" opacity="0.5" stroke="blue" points="197.98341688211244,130.5247082653021 186.19222745498712,198.7337129630519 "/><polyline class="polyline" opacity="0.5" stroke="blue" points="197.86500803937565,130.82104411966992 185.47083557445495,198.6053370629427 "/><polyline class="polyline" opacity="0.5" stroke="blue" points="197.74689785157113,131.15101555650224 184.75005422794695,198.47261418293976 "/><polyline class="polyline" opacity="0.5" stroke="blue" points="197.6291488019621,131.5147474372841 184.02988756552668,198.33590078042786 "/><polyline class="polyline" opacity="0.5" stroke="blue" points="197.51182418704386,131.91234566068832 183.3103391772498,198.19556894062748 "/><polyline class="polyline" opacity="0.5" stroke="blue" points="197.39498807948547,132.34389652454928 182.5914122592469,198.0520059448679 "/><polyline class="polyline" opacity="0.5" stroke="blue" points="197.27870528842465,132.8094660943263 181.8731097829528,197.9056138283639 "/><polyline class="polyline" opacity="0.5" stroke="blue" points="197.16304131709447,133.30909957977815 181.15543466726885,197.7568089278831 "/><polyline class="polyline" opacity="0.5" stroke="blue" points="197.04806231776612,133.8428207216305 180.43838995344623,197.606021419628 "/><polyline class="polyline" opacity="0.5" stroke="blue" points="196.93383504399992,134.410631190065 179.72197898248118,197.45369484760033 "/><polyline class="polyline" opacity="0.5" stroke="blue" points="196.8204268002051,135.01250999691302 179.00620557481272,197.30028564265277 "/><polyline class="polyline" opacity="0.5" stroke="blue" points="196.70790538851566,135.6484129234744 178.29107421211728,197.14626263237588 "/><polyline class="polyline" opacity="0.5" stroke="blue" points="196.5963390529999,136.3182719659241 177.57659022099307,196.99210654190802 "/><polyline class="polyline" opacity="0.5" stroke="blue" points="196.48579642122857,137.02199480029984 176.86275995832716,196.83830948569897 "/><polyline class="polyline" opacity="0.5" stroke="blue" points="196.37634644323717,137.75946426908877 176.14959099814024,196.6853744502022 "/><polyline class="polyline" opacity="0.5" stroke="blue" points="196.26805832792627,138.53053789145366 175.43709231969913,196.53381476741473 "/><polyline class="polyline" opacity="0.5" stroke="blue" points="196.16100147695514,139.33504739914753 174.72527449668857,196.38415357913306 "/><polyline class="polyline" opacity="0.5" stroke="blue" points="196.05524541619226,140.17279830017225 174.0141498872284,196.23692329174057 "/><polyline class="polyline" opacity="0.5" stroke="blue" points="195.95085972479842,141.04356947223246 173.30373282452146,196.09266502129634 "/><polyline class="polyline" opacity="0.5" stroke="blue" points="195.84791396202704,141.94711278802367 172.59403980791006,195.9519280286484 "/><polyline class="polyline" opacity="0.5" stroke="blue" points="195.7464775918383,142.88315277437272 171.88508969411703,195.81526914425345 "/><polyline class="polyline" opacity="0.5" stroke="blue" points="195.6466199054335,143.8513863072191 171.17690388843798,195.68325218234534 "/><polyline class="polyline" opacity="0.5" stroke="blue" points="195.54840994182692,144.85148234438483 170.46950653564716,195.55644734406113 "/><polyline class="polyline" opacity="0.5" stroke="blue" points="195.45191640658345,145.8830816980327 169.7629247103688,195.43543060910008 "/><polyline class="polyline" opacity="0.5" stroke="blue" points="195.35720758886106,146.94579684865255 169.05718860665937,195.32078311546573 "/><polyline class="polyline" opacity="0.5" stroke="blue" points="195.26435127690635,148.03921180234727 168.35233172653335,195.2130905268175 "/><polyline class="polyline" opacity="0.5" stroke="blue" points="195.17341467216366,149.16288199310887 167.64839106715732,195.11294238694035 "/><polyline class="polyline" opacity="0.5" stroke="blue" points="195.08446430216648,150.31633423168697 166.94540730642305,195.0209314608282 "/><polyline class="polyline" opacity="0.5" stroke="blue" points="194.99756593239047,151.49906670255342 166.24342498659826,194.93765306186842 "/><polyline class="polyline" opacity="0.5" stroke="blue" points="194.9127844772566,152.7105490103533 165.5424926957411,194.86370436461232 "/><polyline class="polyline" opacity="0.5" stroke="blue" points="194.83018391048097,153.95022227711803 164.84266324654794,194.7996837026201 "/><polyline class="polyline" opacity="0.5" stroke="blue" points="194.74982717497747,155.2174992913823 164.1439938522915,194.74618985087653 "/><polyline class="polyline" opacity="0.5" stroke="blue" points="194.67177609252582,156.51176471021265 163.4465462994868,194.70382129229088 "/><polyline class="polyline" opacity="0.5" stroke="blue" points="194.59609127342517,157.83237531500367 162.7503871169105,194.67317546781354 "/><polyline class="polyline" opacity="0.5" stroke="blue" points="194.5228320263597,159.17866032174624 162.05558774057647,194.65484800973263 "/><polyline class="polyline" opacity="0.5" stroke="blue" points="194.45205626870822,160.5499217463041 161.36222467425821,194.64943195774666 "/><polyline class="polyline" opacity="0.5" stroke="blue" points="194.38382043753404,161.94543482506955 160.67037964512565,194.65751695745288 "/><polyline class="polyline" opacity="0.5" stroke="blue" points="194.31817940149585,163.36444849118425 159.98013975404933,194.6796884409392 "/><polyline class="polyline" opacity="0.5" stroke="blue" points="194.2551863739227,164.80618590633534 159.2915976201039,194.71652678922493 "/><polyline class="polyline" opacity="0.5" stroke="blue" points="194.194892827298,166.2698450479416 158.60485151878459,194.7686064763588 "/><polyline class="polyline" opacity="0.5" stroke="blue" points="194.13734840939892,167.75459935135655 157.92000551343313,194.83649519505573 "/><polyline class="polyline" opacity="0.5" stroke="blue" points="194.08260086133674,169.2595984065169 157.2371695793493,194.92075296383217 "/><polyline class="polyline" opacity="0.5" stroke="blue" points="194.03069593774254,170.78396870826663 156.55645972004766,195.02193121568834 "/><polyline class="polyline" opacity="0.5" stroke="blue" points="193.9816773293406,172.32681445938917 155.87799807510072,195.14057186847998 "/><polyline class="polyline" opacity="0.5" stroke="blue" points="193.93558658814806,173.88721842517734 155.20191301899519,195.2772063772265 "/><polyline class="polyline" opacity="0.5" stroke="blue" points="193.8924630555346,175.46424283817612 154.52833925040886,195.43235476871246 "/><polyline class="polyline" opacity="0.5" stroke="blue" points="193.85234379337072,177.05693035153217 153.85741787130547,195.60652465885897 "/><polyline class="polyline" opacity="0.5" stroke="blue" points="193.81526351848555,178.66430503919509 153.18929645522852,195.80021025346747 "/><polyline class="polyline" opacity="0.5" stroke="blue" points="193.78125454064804,180.2853734410212 152.52412910416578,196.0138913330727 "/><polyline class="polyline" opacity="0.5" stroke="blue" points="193.75034670427513,181.91912565065266 151.86207649334563,196.2480322227827 "/><polyline class="polyline" opacity="0.5" stroke="blue" points="193.72256733406178,183.56453644386153 151.2033059033202,196.5030807481317 "/><polyline class="polyline" opacity="0.5" stroke="blue" points="193.6979411847153,185.2205664448849 150.54799123868355,196.77946717812623 "/><polyline class="polyline" opacity="0.5" stroke="blue" points="193.67649039496527,186.88616332811065 149.89631303277375,197.07760315682597 "/><polyline class="polyline" opacity="0.5" stroke="blue" points="193.65823444600667,188.5602630523282 149.24845843770504,197.39788062496658 "/><polyline class="polyline" opacity="0.5" stroke="blue" points="193.6431901245204,190.24179112461337 148.60462119908294,197.74067073330286 "/><polyline class="polyline" opacity="0.5" stroke="blue" points="193.63137149040054,191.9296638907909 147.9650016147606,198.1063227495271 "/><polyline class="polyline" opacity="0.5" stroke="blue" points="193.62278984930214,193.62278984930214 147.32980647700674,198.49516296079497 "/><polyline class="polyline" opacity="0.5" stroke="blue" points="193.61745373010785,195.32007098519932 146.69924899746985,198.90749357407387 "/><polyline class="polyline" opacity="0.5" stroke="blue" points="193.61536886739452,197.02040412090577 146.0735487143425,199.3435916167123 "/><polyline class="polyline" opacity="0.5" stroke="blue" points="193.61653818896428,198.7226822802966 145.4529313811543,199.80370783981104 "/><polyline class="polyline" opacity="0.5" stroke="blue" points="193.62096180848695,200.4257960626076 144.83762883664738,200.288065627163 "/><polyline class="polyline" opacity="0.5" stroke="blue" points="193.62863702328363,202.12863502262502 144.22787885522587,200.79685991270767 "/><polyline class="polyline" opacity="0.5" stroke="blue" points="193.63955831726207,203.83008905358926 143.62392497750378,201.33025610962693 "/><polyline class="polyline" opacity="0.5" stroke="blue" points="193.65371736899849,205.5290497692268 143.02601632052347,201.888389054382 "/><polyline class="polyline" opacity="0.5" stroke="blue" points="193.67110306494064,207.22441188133405 142.43440736726302,202.47136196916054 "/><polyline class="polyline" opacity="0.5" stroke="blue" points="193.69170151769052,208.91507456935307 141.84935773510497,203.07924544636373 "/><polyline class="polyline" opacity="0.5" stroke="blue" points="193.71549608930698,210.59994283841564 141.2711319230001,203.7120764589147 "/><polyline class="polyline" opacity="0.5" stroke="blue" points="193.7424674195515,212.27792886238558 140.69999903712264,204.3698574003123 "/><polyline class="polyline" opacity="0.5" stroke="blue" points="193.7725934589832,213.94795330849087 140.13623249488626,205.0525551584813 "/><polyline class="polyline" opacity="0.5" stroke="blue" points="193.8058495067935,215.6089466402256 139.58010970726355,205.76010022758703 "/><polyline class="polyline" opacity="0.5" stroke="blue" points="193.8422082532544,217.2598503952916 139.031911739435,206.4923858620798 "/><polyline class="polyline" opacity="0.5" stroke="blue" points="193.88163982664003,218.89961843545964 138.49192294987947,207.24926727731616 "/><polyline class="polyline" opacity="0.5" stroke="blue" points="193.9241118444659,220.5272181653572 137.9604306081077,208.03056090116675 "/><polyline class="polyline" opacity="0.5" stroke="blue" points="193.96958946887824,222.14163171731707 137.4377244913385,208.83604368105995 "/><polyline class="polyline" opacity="0.5" stroke="blue" points="194.01803546601144,223.7418570995729 136.92409646051547,209.66545245092996 "/><polyline class="polyline" opacity="0.5" stroke="blue" points="194.0694102691217,225.32690930523773 136.41984001616794,210.5184833625297 "/><polyline class="polyline" opacity="0.5" stroke="blue" points="194.1236720452931,226.89582137967292 135.92524983472447,211.3947913855392 "/><polyline class="polyline" opacity="0.5" stroke="blue" points="194.18077676550337,228.44764544402253 135.44062128599995,212.29398988083796 "/><polyline class="polyline" opacity="0.5" stroke="blue" points="194.24067827782835,229.98145367287302 134.96624993268796,213.21565025122368 "/><polyline class="polyline" opacity="0.5" stroke="blue" points="194.30332838355554,231.49633922418016 134.50243101280486,214.1593016737409 "/><polyline class="polyline" opacity="0.5" stroke="blue" points="194.3686769159723,232.99141711980204 134.04945890614658,215.1244309176355 "/><polyline class="polyline" opacity="0.5" stroke="blue" points="194.4366718215885,234.46582507516698 133.6076265859337,216.11048225177137 "/><polyline class="polyline" opacity="0.5" stroke="blue" points="194.5072592435491,235.9187242768069 133.17722505693519,217.11685744513497 "/><polyline class="polyline" opacity="0.5" stroke="blue" points="194.5803836069896,237.349300106682 132.75854278147358,218.14291586380878 "/><polyline class="polyline" opacity="0.5" stroke="blue" points="194.65598770608594,238.75676281242767 132.3518650948243,219.1879746675221 "/><polyline class="polyline" opacity="0.5" stroke="blue" points="194.73401279254904,240.1403481228489 131.9574736116285,220.25130910858024 "/><polyline class="polyline" opacity="0.5" stroke="blue" points="194.8143986653151,241.499317808186 131.5756456250428,221.33215293563381 "/><polyline class="polyline" opacity="0.5" stroke="blue" points="194.89708376118458,242.83296018487223 131.206653500443,222.42969890438636 "/><polyline class="polyline" opacity="0.5" stroke="blue" points="194.9820052461641,244.14059056469225 130.85076406559398,223.54309939693863 "/><polyline class="polyline" opacity="0.5" stroke="blue" points="195.06909910727094,245.42155164843706 130.5082379992777,224.6714671510474 "/><polyline class="polyline" opacity="0.5" stroke="blue" points="195.15830024456233,246.67521386433285 130.17932922044932,225.81387610012513 "/><polyline class="polyline" opacity="0.5" stroke="blue" points="195.24954256315803,247.90097565169526 129.8642842800559,226.9693623243385 "/><polyline class="polyline" opacity="0.5" stroke="blue" points="195.34275906503117,249.0982636904277 129.56334175770894,228.1369251126696 "/><polyline class="polyline" opacity="0.5" stroke="blue" points="195.437881940348,250.26653307714358 129.2767316654485,229.31552813529345 "/><polyline class="polyline" opacity="0.5" stroke="blue" points="195.53484265814583,251.40526744884164 129.00467486086706,230.5041007251023 "/><polyline class="polyline" opacity="0.5" stroke="blue" points="195.63357205614636,252.51397905521048 128.74738247188725,231.70153926667157 "/><polyline class="polyline" opacity="0.5" stroke="blue" points="195.7340004295104,253.5922087807691 128.50505533549148,232.90670869041895 "/><polyline class="polyline" opacity="0.5" stroke="blue" points="195.83605761834883,254.63952611817572 128.27788345269926,234.11844406915975 "/><polyline class="polyline" opacity="0.5" stroke="blue" points="195.9396730938154,255.65552909415314 128.06604546206813,235.33555231371963 "/><polyline class="polyline" opacity="0.5" stroke="blue" points="196.04477604261592,256.6398441495823 127.86970813396027,236.55681396371926 "/><polyline class="polyline" opacity="0.5" stroke="blue" points="196.15129544977947,257.59212597541125 127.68902588777068,237.7809850691157 "/><polyline class="polyline" opacity="0.5" stroke="blue" points="196.2591601795482,258.5120573061103 127.52414033424914,239.0067991575638 "/><polyline class="polyline" opacity="0.5" stroke="blue" points="196.3682990542521,259.3993486724809 127.37517984497275,240.2329692821594 "/><polyline class="polyline" opacity="0.5" stroke="blue" points="196.47864093104678,260.2537381156867 127.24225915093548,241.4581901436455 "/><polyline class="polyline" opacity="0.5" stroke="blue" points="196.59011477640374,261.07499086443295 127.12547897211546,242.68114028070804 "/><polyline class="polyline" opacity="0.5" stroke="blue" points="196.70264973825198,261.8628989772625 127.0249256797647,243.90048432156132 "/><polyline class="polyline" opacity="0.5" stroke="blue" points="196.81617521568288,262.61728095197304 126.94067099303415,245.1148752896374 "/><polyline class="polyline" opacity="0.5" stroke="blue" points="196.93062092613923,263.3379813041849 126.87277171140545,246.3229569558355 "/><polyline class="polyline" opacity="0.5" stroke="blue" points="197.04591697002115,264.0248701171072 126.8212694842474,247.52336622947888 "/><polyline class="polyline" opacity="0.5" stroke="blue" points="197.16199389265142,264.677842564554 126.78619061865119,248.71473557985667 "/><polyline class="polyline" opacity="0.5" stroke="blue" points="197.2787827435536,265.29681840926787 126.7675459265265,249.89569548000952 "/><polyline class="polyline" opacity="0.5" stroke="blue" points="197.3962151330058,265.8817414785949 126.76533061176059,251.0648768642428 "/><polyline class="polyline" opacity="0.5" stroke="blue" points="197.5142232858425,266.4325791195413 126.77952419805632,252.22091359073042 "/><polyline class="polyline" opacity="0.5" stroke="blue" points="197.63274009248678,266.94932163522105 126.81009049787241,253.3624449005051 "/><polyline class="polyline" opacity="0.5" stroke="blue" points="197.75169915720375,267.43198170467235 126.85697762269587,254.48811786411227 "/><polyline class="polyline" opacity="0.5" stroke="blue" points="197.87103484357428,267.8805937879863 126.92011803467781,255.59658980724348 "/><polyline class="polyline" opacity="0.5" stroke="blue" points="197.9906823171972,268.29521351865174 126.99942863946762,256.6865307067554 "/><polyline class="polyline" opacity="0.5" stroke="blue" points="198.11057758563476,268.67591708497355 127.09481091988212,257.7566255486256 "/><polyline class="polyline" opacity="0.5" stroke="blue" points="198.23065753562415,269.0228006023711 127.20615110985281,258.8055766395903 "/><polyline class="polyline" opacity="0.5" stroke="blue" points="198.3508599675846,269.33597947831004 127.33332040790394,259.83210586445546 "/><polyline class="polyline" opacity="0.5" stroke="blue" points="198.47112362745565,269.61558777156233 127.47617522922819,260.8349568813662 "/><polyline class="polyline" opacity="0.5" stroke="blue" points="198.59138823590834,269.8617775474283 127.63455749524898,261.81289724766066 "/><polyline class="polyline" opacity="0.5" stroke="blue" points="198.71159451497667,270.07471823049076 127.80829495938816,262.76472046931315 "/><polyline class="polyline" opacity="0.5" stroke="blue" points="198.83168421216132,270.2545959564054 127.99720156759598,263.6892479673981 "/><polyline class="polyline" opacity="0.5" stroke="blue" points="198.95160012206264,270.40161292416315 128.20107785205045,264.58533095545835 "/><polyline class="polyline" opacity="0.5" stroke="blue" points="199.07128610560363,270.51598675019204 128.41971135629376,265.4518522221564 "/><polyline class="polyline" opacity="0.5" stroke="blue" points="199.19068710690746,270.5979498255953 128.65287708994637,266.28772781410186 "/><polyline class="polyline" opacity="0.5" stroke="blue" points="199.30974916789765,270.64774867775077 128.90033801102538,267.0919086142887 "/><polyline class="polyline" opacity="0.5" stroke="blue" points="199.42841944069121,270.66564333742696 129.1618455337951,267.8633818121393 "/><polyline class="polyline" opacity="0.5" stroke="blue" points="199.54664619785854,270.65190671249877 129.43714005998996,268.60117226172446 "/><polyline class="polyline" opacity="0.5" stroke="blue" points="199.66437884062438,270.6068239692752 129.72595153118127,269.30434372531346 "/><polyline class="polyline" opacity="0.5" stroke="blue" points="199.78156790508777,270.53069192238155 130.02800000000002,269.972 "/><polyline class="polyline" opacity="0.5" stroke="blue" points="199.8981650665385,270.4238184340688 130.34299621788958,270.60328592573836 "/><polyline class="polyline" opacity="0.5" stroke="blue" points="200.01412314194988,270.2865218237541 130.67064223703395,271.19738827371316 "/><polyline class="polyline" opacity="0.5" stroke="blue" points="200.12939609072745,270.11913028853064 131.01063202409483,271.7535365145452 "/><polyline class="polyline" opacity="0.5" stroke="blue" points="200.24393901379426,269.9219813353185 131.36265208339466,272.27100346640253 "/><polyline class="polyline" opacity="0.5" stroke="blue" points="200.35770815109308,269.6954212252637 131.72638208719826,272.7491058236384 "/><polyline class="polyline" opacity="0.5" stroke="blue" points="200.47066087758586,269.43980443093346 132.1014955107752,273.18720456711156 "/><polyline class="polyline" opacity="0.5" stroke="blue" points="200.58275569783066,269.1554931067914 132.48766026996816,273.58470525785197 "/><polyline class="polyline" opacity="0.5" stroke="blue" points="200.69395223921478,268.84285657338273 132.8845393590451,273.94105821622134 "/><polyline class="polyline" opacity="0.5" stroke="blue" points="200.80421124392325,268.5022708156001 133.29179148668115,274.2557585891748 "/><polyline class="polyline" opacity="0.5" stroke="blue" points="200.91349455971974,268.13411799535004 133.7090717079892,274.52834630865544 "/><polyline class="polyline" opacity="0.5" stroke="blue" points="201.02176512961597,267.7387859788861 134.13603205060468,274.75840594454735 "/><polyline class="polyline" opacity="0.5" stroke="blue" points="201.12898698050503,267.3166678790282 134.57232213292258,274.945566455975 "/><polyline class="polyline" opacity="0.5" stroke="blue" points="201.2351252108314,266.86816161243905 135.0175897726861,275.0895008450597 "/><polyline class="polyline" opacity="0.5" stroke="blue" points="201.34014597736999,266.39366947208543 135.4714815842328,275.1899257175375 "/><polyline class="polyline" opacity="0.5" stroke="blue" points="201.44401648118355,265.8935977149708 135.93364356281558,275.24660075489186 "/><polyline class="polyline" opacity="0.5" stroke="blue" points="201.5467049528272,265.3683561651841 136.4037216545348,275.2593281028758 "/><polyline class="polyline" opacity="0.5" stroke="blue" points="201.6481806368661,264.81835783227586 136.88136231053434,275.2279516814785 "/><polyline class="polyline" opacity="0.5" stroke="blue" points="201.74841377577025,264.24401854493385 137.36621302423958,275.15235642153544 "/><polyline class="polyline" opacity="0.5" stroke="blue" points="201.84737559324913,263.64575659990226 137.85792285053503,275.0324674332947 "/><polyline class="polyline" opacity="0.5" stroke="blue" points="201.9450382770859,263.02399242605526 138.35614290590706,274.86824911232605 "/><polyline class="polyline" opacity="0.5" stroke="blue" points="202.04137496152924,262.3791482635083 138.86052684869787,274.65970418820655 "/><polyline class="polyline" opacity="0.5" stroke="blue" points="202.13635970929892,261.71164785762596 139.37073133873844,274.4068727214276 "/><polyline class="polyline" opacity="0.5" stroke="blue" points="202.2299674932581,261.0219161677607 139.88641647575054,274.1098310539523 "/><polyline class="polyline" opacity="0.5" stroke="blue" points="202.32217417780492,260.31037909053293 140.40724621602277,273.76869071880895 "/><polyline class="polyline" opacity="0.5" stroke="blue" points="202.4129565000316,259.5774631974475 140.93288876698148,273.38359731403307 "/><polyline class="polyline" opacity="0.5" stroke="blue" points="202.5022920506991,258.8235954866197 141.46301695938524,272.9547293461801 "/><polyline class="polyline" opacity="0.5" stroke="blue" points="202.5901592550719,258.04920314836886 141.99730859697948,272.4822970485112 "/><polyline class="polyline" opacity="0.5" stroke="blue" points="202.67653735365593,257.25471334442517 142.53544678354726,271.96654117881985 "/><polyline class="polyline" opacity="0.5" stroke="blue" points="202.7614063828808,256.440553000479 143.07712022738838,271.4077318017126 "/><polyline class="polyline" opacity="0.5" stroke="blue" points="202.8447471557648,255.60714861179414 143.62202352334805,270.80616705998796 "/><polyline class="polyline" opacity="0.5" stroke="blue" points="202.92654124259948,254.75492606159446 144.16985741260342,270.1621719395728 "/><polyline class="polyline" opacity="0.5" stroke="blue" points="203.00677095168916,253.88431045192561 144.7203290204916,269.47609703228267 "/><polyline class="polyline" opacity="0.5" stroke="blue" points="203.08541931017743,252.99572594668703 145.27315207273796,268.74831730046503 "/><polyline class="polyline" opacity="0.5" stroke="blue" points="203.16247004499272,252.08959562652336 145.82804709050802,267.9792308473758 "/><polyline class="polyline" opacity="0.5" stroke="blue" points="203.23790756394143,251.1663413552592 146.38474156476872,267.1692576969169 "/><polyline class="polyline" opacity="0.5" stroke="blue" points="203.3117169369766,250.22638365755762 146.94297011049747,266.31883858614486 "/><polyline class="polyline" opacity="0.5" stroke="blue" points="203.38388387766759,249.27014160748234 147.50247460132633,265.4284337737334 "/><polyline class="polyline" opacity="0.5" stroke="blue" points="203.45439472489522,248.29803272763857 148.06300428525256,264.4985218673461 "/><polyline class="polyline" opacity="0.5" stroke="blue" points="203.52323642479516,247.3104728985693 148.62431588208142,263.5295986726543 "/><polyline class="polyline" opacity="0.5" stroke="blue" points="203.5903965129699,246.30787627808309 149.18617366330056,262.5221760665074 "/><polyline class="polyline" opacity="0.5" stroke="blue" points="203.65586309698995,245.29065523019074 149.74834951511016,261.4767808965476 "/><polyline class="polyline" opacity="0.5" stroke="blue" points="203.7196248392018,244.25922026332822 150.31062298535448,260.3939539093401 "/><polyline class="polyline" opacity="0.5" stroke="blue" points="203.7816709398598,243.21397997754758 150.87278131511698,259.2742487088829 "/><polyline class="polyline" opacity="0.5" stroke="blue" points="203.84199112059764,242.15534102035798 151.43461945575226,258.11823074715346 "/><polyline class="polyline" opacity="0.5" stroke="blue" points="203.900575608254,241.08370805090482 151.99594007213506,256.92647634815296 "/><polyline class="polyline" opacity="0.5" stroke="blue" points="203.95741511906527,239.99948371217508 152.55655353291164,255.6995717667159 "/><polyline class="polyline" opacity="0.5" stroke="blue" points="204.0125008432381,238.9030686109244 153.11627788853545,254.43811228317196 "/><polyline class="polyline" opacity="0.5" stroke="blue" points="204.06582442991234,237.79486130502318 153.67493883786892,253.14270133477157 "/><polyline class="polyline" opacity="0.5" stroke="blue" points="204.1173779725254,236.67525829792584 154.2323696841218,251.81394968462203 "/><polyline class="polyline" opacity="0.5" stroke="blue" points="204.16715399458624,235.54465403996994 154.78841128089076,250.4524746287221 "/><polyline class="polyline" opacity="0.5" stroke="blue" points="204.21514543586878,234.40344093621832 155.34291196904937,249.05889924153632 "/><polyline class="polyline" opacity="0.5" stroke="blue" points="204.26134563903085,233.25200936056365 155.89572750522387,247.63385166041377 "/><polyline class="polyline" opacity="0.5" stroke="blue" points="204.3057483366669,232.09074767581677 156.44672098257365,246.17796440902205 "/><polyline class="polyline" opacity="0.5" stroke="blue" points="204.3483476387998,230.92004225950993 156.99576274457525,244.69187375985206 "/><polyline class="polyline" opacity="0.5" stroke="blue" points="204.38913802081743,229.74027753514767 157.54273029249015,243.1762191357338 "/><polyline class="polyline" opacity="0.5" stroke="blue" points="204.4281143118593,228.5518360086474 158.08750818717243,241.63164255020627 "/><polyline class="polyline" opacity="0.5" stroke="blue" points="204.46527168365685,227.3550983097131 158.62998794585278,240.05878808648527 "/><polyline class="polyline" opacity="0.5" stroke="blue" points="204.500605639832,226.15044323789508 159.17006793450764,238.45830141469338 "/><polyline class="polyline" opacity="0.5" stroke="blue" points="204.53411200565657,224.9382478130908 159.7076532564025,236.8308293469363 "/><polyline class="polyline" opacity="0.5" stroke="blue" points="204.56578691827607,223.71888733025102 160.24265563736785,235.1770194297443 "/><polyline class="polyline" opacity="0.5" stroke="blue" points="204.59562681739982,222.49273541805556 160.77499330834604,233.49751957333257 "/><polyline class="polyline" opacity="0.5" stroke="blue" points="204.62362843645977,221.2601641013337 161.30459088571814,231.79297771708517 "/><polyline class="polyline" opacity="0.5" stroke="blue" points="204.64978879423992,220.02154386700462 161.83137924989563,230.0640415306157 "/><polyline class="polyline" opacity="0.5" stroke="blue" points="204.67410518697736,218.77724373332234 162.3552954226353,228.3113581497237 "/><polyline class="polyline" opacity="0.5" stroke="blue" points="204.69657518093655,217.52763132220971 162.87628244351106,226.53557394652506 "/><polyline class="polyline" opacity="0.5" stroke="blue" points="204.71719660545762,216.27307293447427 163.39428924595023,224.73733433301126 "/><polyline class="polyline" opacity="0.5" stroke="blue" points="204.73596754647943,215.01393362770222 163.90927053321678,222.91728359726972 "/><polyline class="polyline" opacity="0.5" stroke="blue" points="204.75288634053786,213.75057729662856 164.42118665470025,221.07606477157552 "/><polyline class="polyline" opacity="0.5" stroke="blue" points="204.7679515692399,212.48336675578875 164.93000348284437,219.21431953155675 "/><polyline class="polyline" opacity="0.5" stroke="blue" points="204.78116205421344,211.2126638242574 165.43569229102567,217.33268812562324 "/><polyline class="polyline" opacity="0.5" stroke="blue" points="204.79251685253328,209.938829412287 165.93822963266962,215.4318093338471 "/><polyline class="polyline" opacity="0.5" stroke="blue" points="204.80201525262294,208.66222360965747 166.4375972218702,213.51232045547744 "/><polyline class="polyline" opacity="0.5" stroke="blue" points="204.80965677063227,207.38320577555518 166.933781815756,211.57485732427813 "/><polyline class="polyline" opacity="0.5" stroke="blue" points="204.81544114729093,206.10213462979914 167.42677509882543,209.6200543508782 "/><polyline class="polyline" opacity="0.5" stroke="blue" points="204.819368345237,204.819368345237 167.91657356945365,207.64854459133593 "/><polyline class="polyline" opacity="0.5" stroke="blue" points="204.82143854682087,203.53526464113295 168.40317842875396,205.66095984112098 "/><polyline class="polyline" opacity="0.5" stroke="blue" points="204.8216521523837,202.25018087737288 168.88659547195778,203.65793075373497 "/><polyline class="polyline" opacity="0.5" stroke="blue" points="204.82000977901023,200.9644741493134 169.36683498245878,201.64008698320114 "/><polyline class="polyline" opacity="0.5" stroke="blue" points="204.81651225975546,199.67850138310288 169.8439116286499,199.60805734966846 "/><polyline class="polyline" opacity="0.5" stroke="blue" points="204.81116064334464,198.39261943130157 170.31784436366448,197.56247002738763 "/><polyline class="polyline" opacity="0.5" stroke="blue" points="204.80395619434623,197.10718516863005 170.78865632811866,195.50395275433436 "/><polyline class="polyline" opacity="0.5" stroke="blue" points="204.79490039381722,195.8225555876769 171.2563747559332,193.43313306277122 "/><polyline class="polyline" opacity="0.5" stroke="blue" points="204.78399494042017,194.53908789439163 171.72103088330212,191.3506385300507 "/><polyline class="polyline" opacity="0.5" stroke="blue" points="204.7712417520116,193.25713960319445 172.1826598608592,189.25709704898335 "/><polyline class="polyline" opacity="0.5" stroke="blue" points="204.75664296770094,191.97706863152834 172.64130066907995,187.15313711710425 "/><polyline class="polyline" opacity="0.5" stroke="blue" points="204.74020095037957,190.6992333936835 173.0969960369442,185.03938814419234 "/><polyline class="polyline" opacity="0.5" stroke="blue" points="204.72191828971899,189.42399289371662 173.54979236387217,182.9164807774019 "/><polyline class="polyline" opacity="0.5" stroke="blue" points="204.70179780563763,188.15170681729174 173.99973964493415,180.78504724338683 "/><polyline class="polyline" opacity="0.5" stroke="blue" points="204.6798425522355,186.88273562226374 174.44689139932328,178.64572170680236 "/><polyline class="polyline" opacity="0.5" stroke="blue" points="204.65605582219553,185.61744062782583 174.8913046020687,176.4991406445851 "/><polyline class="polyline" opacity="0.5" stroke="blue" points="204.63044115165093,184.35618410203756 175.33303961895675,174.3459432354132 "/><polyline class="polyline" opacity="0.5" stroke="blue" points="204.60300232551725,183.09932934754966 175.77216014461692,172.1867717637608 "/><polyline class="polyline" opacity="0.5" stroke="blue" points="204.5737433832883,181.84724078533702 176.20873314371923,170.02227203796036 "/><polyline class="polyline" opacity="0.5" stroke="blue" points="204.542668625294,180.6002840362502 176.64282879521937,167.85309382169282 "/><polyline class="polyline" opacity="0.5" stroke="blue" points="204.50978261941944,179.35882600018914 177.07452043957917,165.67989127831805 "/><polyline class="polyline" opacity="0.5" stroke="blue" points="204.47509020828272,178.12323493270213 177.50388452888063,163.5033234274609 "/><polyline class="polyline" opacity="0.5" stroke="blue" points="204.43859651687026,176.89388051880817 177.93100057974027,161.32405461326002 "/><polyline class="polyline" opacity="0.5" stroke="blue" points="204.40030696062712,175.67113394383526 178.3559511289247,159.1427549836732 "/><polyline class="polyline" opacity="0.5" stroke="blue" points="204.36022725400016,174.4553679610651 178.77882169155612,156.96010098022703 "/><polyline class="polyline" opacity="0.5" stroke="blue" points="204.31836341943134,173.24695695596768 179.19970072178958,154.77677583757583 "/><polyline class="polyline" opacity="0.5" stroke="blue" points="204.27472179679802,172.0462770068079 179.61867957583226,152.5934700922221 "/><polyline class="polyline" opacity="0.5" stroke="blue" points="204.2293090532973,170.85370594139667 180.0358524771687,150.41088209971934 "/><polyline class="polyline" opacity="0.5" stroke="blue" points="204.18213219377031,169.6696233897584 180.45131648384393,148.22971855965727 "/><polyline class="polyline" opacity="0.5" stroke="blue" points="204.13319857146269,168.49441083247845 180.86517145764887,146.05069504769344 "/><polyline class="polyline" opacity="0.5" stroke="blue" points="204.08251589921625,167.32845164449137 181.27752003504162,143.8745365538634 "/><polyline class="polyline" opacity="0.5" stroke="blue" points="204.03009226108725,166.1721311340624 181.68846759962912,141.70197802635482 "/><polyline class="polyline" opacity="0.5" stroke="blue" points="203.97593612438533,165.02583657671127 182.09812225602363,139.53376491989076 "/><polyline class="polyline" opacity="0.5" stroke="blue" points="203.92005635212698,163.88995724382266 182.50659480487775,137.37065374781727 "/><polyline class="polyline" opacity="0.5" stroke="blue" points="203.86246221589678,162.7648844256783 182.9139987188917,135.21341263692926 "/><polyline class="polyline" opacity="0.5" stroke="blue" points="203.8031634091091,161.651011448645 183.3204501195756,133.06282188401508 "/><polyline class="polyline" opacity="0.5" stroke="blue" points="203.74217006066158,160.54873368624294 183.72606775453903,130.91967451302872 "/><polyline class="polyline" opacity="0.5" stroke="blue" points="203.6794927489721,159.45844856381785 184.1309729750661,128.7847768317319 "/><polyline class="polyline" opacity="0.5" stroke="blue" points="203.61514251638897,158.38055555652977 184.5352897137273,126.65894898656427 "/><polyline class="polyline" opacity="0.5" stroke="blue" points="203.54913088396373,157.31545618037129 184.93914446176197,124.54302551442339 "/><polyline class="polyline" opacity="0.5" stroke="blue" points="203.4814698665755,156.26355397591934 185.34266624595676,122.437855889942 "/><polyline class="polyline" opacity="0.5" stroke="blue" points="203.41217198839362,155.2252544845229 185.74598660472998,120.34430506675878 "/><polyline class="polyline" opacity="0.5" stroke="blue" points="203.34125029866573,154.20096521662106 186.14923956312057,118.26325401117138 "/><polyline class="polyline" opacity="0.5" stroke="blue" points="203.26871838781605,153.1910956118849 186.55256160636517,116.19560022645928 "/><polyline class="polyline" opacity="0.5" stroke="blue" points="203.1945904038387,152.196056990871 186.95609165173445,114.14225826604356 "/><polyline class="polyline" opacity="0.5" stroke="blue" points="203.11888106896848,151.21626249787235 187.35997101828386,112.10416023353714 "/><polyline class="polyline" opacity="0.5" stroke="blue" points="203.04160569661133,150.2521270346469 187.76434339416167,110.08225626760326 "/><polyline class="polyline" opacity="0.5" stroke="blue" points="202.96278020851466,149.30406718470508 188.169354801101,108.07751500941521 "/><polyline class="polyline" opacity="0.5" stroke="blue" points="202.88242115215692,148.37250112783383 188.57515355570763,106.0909240503677 "/><polyline class="polyline" opacity="0.5" stroke="blue" points="202.80054571833384,147.45784854453245 188.98189022714183,104.12349035754343 "/><polyline class="polyline" opacity="0.5" stroke="blue" points="202.71717175891743,146.56053051003798 189.3897175907752,102.17624067429176 "/><polyline class="polyline" opacity="0.5" stroke="blue" points="202.63231780476295,145.6809693776154 189.7987905773912,100.25022189311628 "/><polyline class="polyline" opacity="0.5" stroke="blue" points="202.54600308373597,144.81958865079113 190.20926621747955,98.34650139791185 "/><polyline class="polyline" opacity="0.5" stroke="blue" points="202.45824753883187,143.97681284420833 190.62130358016407,96.46616737241985 "/><polyline class="polyline" opacity="0.5" stroke="blue" points="202.36907184635675,143.1530673327872 191.03506370628514,94.61032907160616 "/><polyline class="polyline" opacity="0.5" stroke="blue" points="202.2784974341381,142.34877818887708 191.450709535147,92.78011705249003 "/><polyline class="polyline" opacity="0.5" stroke="blue" points="202.1865464997311,141.5643720070916 191.86840582442443,90.97668336078047 "/><polyline class="polyline" opacity="0.5" stroke="blue" points="202.09324202858508,140.80027571652568 192.28831906271225,89.20120166949141 "/><polyline class="polyline" opacity="0.5" stroke="blue" points="201.99860781213226,140.05691638005936 192.71061737418856,87.45486736554022 "/><polyline class="polyline" opacity="0.5" stroke="blue" points="201.90266846575955,139.33472098046434 193.1354704148518,85.73889758014333 "/><polyline class="polyline" opacity="0.5" stroke="blue" points="201.80544944662154,138.6341161930385 193.56304925978247,84.0545311586615 "/><polyline class="polyline" opacity="0.5" stroke="blue" points="201.70697707125163,137.95552814450457 193.99352628087328,82.40302856535742 "/><polyline class="polyline" opacity="0.5" stroke="blue" points="201.60727853292548,137.29938215792544 194.42707501446404,80.78567171837389 "/><polyline class="polyline" opacity="0.5" stroke="blue" points="201.50638191872937,136.66610248340146 194.8638700183141,79.20376375007334 "/><polyline class="polyline" opacity="0.5" stroke="blue" points="201.4043162262841,136.05611201433302 195.30408671734455,77.65862868772135 "/><polyline class="polyline" opacity="0.5" stroke="blue" points="201.30111138007226,135.4698319890506 195.74790123758126,76.15161104936121 "/><polyline class="polyline" opacity="0.5" stroke="blue" points="201.1967982473161,134.90768167763486 196.19549022773566,74.68407534959081 "/><polyline class="polyline" opacity="0.5" stroke="blue" points="201.09140865334956,134.37007805377328 196.64703066786507,73.25740550983886 "/><polyline class="polyline" opacity="0.5" stroke="blue" points="200.98497539642713,133.8574354515221 197.10269966456815,71.8730041676385 "/><polyline class="polyline" opacity="0.5" stroke="blue" points="200.87753226191,133.3701652068721 197.56267423218242,70.53229187932274 "/><polyline class="polyline" opacity="0.5" stroke="blue" points="200.7691140357676,132.9086752840439 198.0271310594723,69.23670621050783 "/><polyline class="polyline" opacity="0.5" stroke="blue" points="200.65975651733132,132.47336988647086 198.49624626131887,67.98770070871049 "/><polyline class="polyline" opacity="0.5" stroke="blue" points="200.54949653123538,132.06464905246 198.9701951149518,66.78674375244427 "/><polyline class="polyline" opacity="0.5" stroke="blue" points="200.43837193847702,131.68290823555844 199.4491517802983,65.63531727118098 "/><polyline class="polyline" opacity="0.5" stroke="blue" points="200.32642164652842,131.32853786969065 199.93328900406533,64.53491533064164 "/><polyline class="polyline" opacity="0.5" stroke="blue" points="200.2136856184293,131.0019229191722 200.42277780721574,63.48704257799639 "/></svg>
