<?xml version="1.0" encoding="UTF-8"?>
<!DOCTYPE svg PUBLIC "-//W3C//DTD SVG 1.1//EN"
    "http://www.w3.org/Graphics/SVG/1.1/DTD/svg11.dtd"><svg width="400" height="400" stroke="black" fill="none" fill-opacity="0.75" font-style="italic" font-family="CMU Serif, sans-serif" xmlns="http://www.w3.org/2000/svg" xmlns:xlink="http://www.w3.org/1999/xlink" version="1.1"><filter id="blur"><feGaussianBlur stdDeviation="2"/></filter><rect width="100%" height="100%" fill="white" stroke="none" fill-opacity="1"/><polygon points="207.25864407550654,0.0 228.02920765720327,400.0 " stroke-opacity="0.25" stroke="green"/><polygon points="212.51692080991583,0.0 248.3340096249886,400.0 " stroke-opacity="0.25" stroke="green"/><polygon points="216.50159245491182,-5.684341886080802e-14 263.72079368845255,400.00000000000006 " stroke-opacity="0.25" stroke="green"/><polygon points="219.62539389843545,0.0 275.7833329767266,400.0 " stroke-opacity="0.25" stroke="green"/><polygon points="222.14010755928084,0.0 285.4938836890954,400.0 " stroke-opacity="0.25" stroke="green"/><polygon points="224.20805135940674,0.0 293.4792354427023,400.0 " stroke-opacity="0.25" stroke="green"/><polygon points="225.9385730643146,0.0 300.1616339344309,400.0 " stroke-opacity="0.25" stroke="green"/><polygon points="227.40802799797626,0.0 305.83592475928174,400.0 " stroke-opacity="0.25" stroke="green"/><polygon points="228.67134940180597,0.0 310.7142322775163,400.0 " stroke-opacity="0.25" stroke="green"/><polygon points="229.76906870264455,-5.684341886080802e-14 314.9530683345629,400.00000000000006 " stroke-opacity="0.25" stroke="green"/><polygon points="230.73174484749558,0.0 318.6704361087614,400.0 " stroke-opacity="0.25" stroke="green"/><polygon points="231.5828536527894,0.0 321.956987315061,400.0 " stroke-opacity="0.25" stroke="green"/><polygon points="232.34072761099713,-5.684341886080802e-14 324.8835127558484,400.00000000000006 " stroke-opacity="0.25" stroke="green"/><polygon points="233.01989131174076,0.0 327.5060990410217,400.0 " stroke-opacity="0.25" stroke="green"/><polygon points="233.63200132538046,-5.684341886080802e-14 329.8697579424486,400.00000000000006 " stroke-opacity="0.25" stroke="green"/><polygon points="224.9381151070682,0.0 210.51290462350363,400.0 " stroke-opacity="0.25" stroke="green"/><polygon points="227.7715449977424,-5.684341886080802e-14 233.32182996012494,400.00000000000006 " stroke-opacity="0.25" stroke="green"/><polygon points="229.91628895641364,0.0 250.58687857858948,400.0 " stroke-opacity="0.25" stroke="green"/><polygon points="231.59622468029158,-5.684341886080802e-14 264.1102513016525,400.00000000000006 " stroke-opacity="0.25" stroke="green"/><polygon points="232.94767941207527,0.0 274.98937351834593,400.0 " stroke-opacity="0.25" stroke="green"/><polygon points="234.05841572103657,0.0 283.9307281723496,400.0 " stroke-opacity="0.25" stroke="green"/><polygon points="234.9874886521634,0.0 291.4097045140953,400.0 " stroke-opacity="0.25" stroke="green"/><polygon points="235.77609635184177,0.0 297.7579449279663,400.0 " stroke-opacity="0.25" stroke="green"/><polygon points="236.45385510906561,-5.684341886080802e-14 303.21385860369924,400.00000000000006 " stroke-opacity="0.25" stroke="green"/><polygon points="237.0426020441489,0.0 307.9532329318511,400.0 " stroke-opacity="0.25" stroke="green"/><polygon points="237.55879186856083,0.0 312.10852726374446,400.0 " stroke-opacity="0.25" stroke="green"/><polygon points="238.0150589493545,-5.684341886080802e-14 315.7814474279712,400.00000000000006 " stroke-opacity="0.25" stroke="green"/><polygon points="238.42126521275353,0.0 319.0513812857423,400.0 " stroke-opacity="0.25" stroke="green"/><polygon points="238.78522106342325,0.0 321.9812020838765,400.0 " stroke-opacity="0.25" stroke="green"/><polygon points="239.11319247111587,5.684341886080802e-14 324.6213504691352,399.99999999999994 " stroke-opacity="0.25" stroke="green"/><polygon points="242.98478679532695,-5.684341886080802e-14 192.96307122712324,400.00000000000006 " stroke-opacity="0.25" stroke="green"/><polygon points="243.32568040971603,-5.684341886080802e-14 218.50402817039208,400.00000000000006 " stroke-opacity="0.25" stroke="green"/><polygon points="243.5828413371824,-5.684341886080802e-14 237.7714356508198,400.00000000000006 " stroke-opacity="0.25" stroke="green"/><polygon points="243.78374566051176,5.684341886080802e-14 252.82389910358367,399.99999999999994 " stroke-opacity="0.25" stroke="green"/><polygon points="243.94503336387484,0.0 264.9081450770914,400.0 " stroke-opacity="0.25" stroke="green"/><polygon points="244.07737087279972,0.0 274.82333994950704,400.0 " stroke-opacity="0.25" stroke="green"/><polygon points="244.18791084207368,5.684341886080802e-14 283.1053859502703,399.99999999999994 " stroke-opacity="0.25" stroke="green"/><polygon points="244.2816289601778,0.0 290.1270792829296,400.0 " stroke-opacity="0.25" stroke="green"/><polygon points="244.36209360728844,0.0 296.15577562853514,400.0 " stroke-opacity="0.25" stroke="green"/><polygon points="244.43193054577011,0.0 301.38820640318283,400.0 " stroke-opacity="0.25" stroke="green"/><polygon points="244.493114889238,0.0 305.97235411424,400.0 " stroke-opacity="0.25" stroke="green"/><polygon points="244.54716087987978,0.0 310.0216711494451,400.0 " stroke-opacity="0.25" stroke="green"/><polygon points="244.59524890328294,5.684341886080802e-14 313.62459617761823,399.99999999999994 " stroke-opacity="0.25" stroke="green"/><polygon points="244.63831269174833,0.0 316.85108772977014,400.0 " stroke-opacity="0.25" stroke="green"/><polygon points="244.67710055159318,-5.684341886080802e-14 319.75721156548275,400.00000000000006 " stroke-opacity="0.25" stroke="green"/><polygon points="261.72321508855714,-5.684341886080802e-14 175.07796275978217,400.00000000000006 " stroke-opacity="0.25" stroke="green"/><polygon points="259.3941264042543,0.0 203.69360705004178,400.0 " stroke-opacity="0.25" stroke="green"/><polygon points="257.6473098910271,5.684341886080802e-14 225.15534026773648,399.99999999999994 " stroke-opacity="0.25" stroke="green"/><polygon points="256.2886748251837,5.684341886080802e-14 241.84779943705456,399.99999999999994 " stroke-opacity="0.25" stroke="green"/><polygon points="255.20176677250902,-5.684341886080802e-14 255.20176677250902,400.00000000000006 " stroke-opacity="0.25" stroke="green"/><polygon points="254.31247836577518,0.0 266.12774004697184,400.0 " stroke-opacity="0.25" stroke="green"/><polygon points="253.57140469349696,0.0 275.2327177756908,400.0 " stroke-opacity="0.25" stroke="green"/><polygon points="252.94434235541542,0.0 282.9369296999914,400.0 " stroke-opacity="0.25" stroke="green"/><polygon points="252.4068603513455,0.0 289.5405399208206,400.0 " stroke-opacity="0.25" stroke="green"/><polygon points="251.9410426144849,-5.684341886080802e-14 295.2636687788725,400.00000000000006 " stroke-opacity="0.25" stroke="green"/><polygon points="251.5334520947319,0.0 300.2714065296679,400.0 " stroke-opacity="0.25" stroke="green"/><polygon points="251.1738134008322,0.0 304.6899986627227,400.0 " stroke-opacity="0.25" stroke="green"/><polygon points="250.8541345618102,0.0 308.61763611432696,400.0 " stroke-opacity="0.25" stroke="green"/><polygon points="250.56810612689583,-5.684341886080802e-14 312.13183804470975,400.00000000000006 " stroke-opacity="0.25" stroke="green"/><polygon points="250.31068053547287,5.684341886080802e-14 315.2946197820542,399.99999999999994 " stroke-opacity="0.25" stroke="green"/><polygon points="281.5276082808809,0.0 156.5242537667783,400.0 " stroke-opacity="0.25" stroke="green"/><polygon points="276.21978609583255,0.0 188.69680831369558,400.0 " stroke-opacity="0.25" stroke="green"/><polygon points="272.2724568504489,0.0 212.62294242939433,400.0 " stroke-opacity="0.25" stroke="green"/><polygon points="269.2219632758619,0.0 231.11304392523547,400.0 " stroke-opacity="0.25" stroke="green"/><polygon points="266.7938420536758,-5.684341886080802e-14 245.83073034045938,400.00000000000006 " stroke-opacity="0.25" stroke="green"/><polygon points="264.8152566674397,0.0 257.82362385594445,400.0 " stroke-opacity="0.25" stroke="green"/><polygon points="263.1719453875111,0.0 267.78430451702593,400.0 " stroke-opacity="0.25" stroke="green"/><polygon points="261.78534548597963,0.0 276.1889683153785,400.0 " stroke-opacity="0.25" stroke="green"/><polygon points="260.5996614327485,0.0 283.37581134592415,400.0 " stroke-opacity="0.25" stroke="green"/><polygon points="259.5741747257515,-5.684341886080802e-14 289.591642597946,400.00000000000006 " stroke-opacity="0.25" stroke="green"/><polygon points="258.6784735227275,0.0 295.0207988144457,400.0 " stroke-opacity="0.25" stroke="green"/><polygon points="257.88938569276905,0.0 299.80373433236105,400.0 " stroke-opacity="0.25" stroke="green"/><polygon points="257.1889455085495,0.0 304.04934566748346,400.0 " stroke-opacity="0.25" stroke="green"/><polygon points="256.5630091701801,0.0 307.8433633054168,400.0 " stroke-opacity="0.25" stroke="green"/><polygon points="256.00028980812675,0.0 311.2542008842013,400.0 " stroke-opacity="0.25" stroke="green"/><polygon points="302.8550887320479,0.0 136.90872530691217,400.0 " stroke-opacity="0.25" stroke="green"/><polygon points="294.09027851995353,0.0 173.3012206085292,400.0 " stroke-opacity="0.25" stroke="green"/><polygon points="287.6463608918186,0.0 200.0571042307799,400.0 " stroke-opacity="0.25" stroke="green"/><polygon points="282.7092698760381,0.0 220.55647127326552,400.0 " stroke-opacity="0.25" stroke="green"/><polygon points="278.80580371342757,5.684341886080802e-14 236.76410960715705,399.99999999999994 " stroke-opacity="0.25" stroke="green"/><polygon points="275.64212322575975,0.0 249.9000731359965,400.0 " stroke-opacity="0.25" stroke="green"/><polygon points="273.0261256041528,0.0 260.76199471211953,400.0 " stroke-opacity="0.25" stroke="green"/><polygon points="270.8269215646853,0.0 269.8933416251632,400.0 " stroke-opacity="0.25" stroke="green"/><polygon points="268.95225227339273,5.684341886080802e-14 277.6771831145441,399.99999999999994 " stroke-opacity="0.25" stroke="green"/><polygon points="267.33521698218544,0.0 284.3912987444078,400.0 " stroke-opacity="0.25" stroke="green"/><polygon points="265.92612085789654,0.0 290.24202715059164,400.0 " stroke-opacity="0.25" stroke="green"/><polygon points="264.6872777517749,0.0 295.3858455366144,400.0 " stroke-opacity="0.25" stroke="green"/><polygon points="263.5895894997843,0.0 299.9435728103989,400.0 " stroke-opacity="0.25" stroke="green"/><polygon points="262.6102314718616,0.0 304.00997944868527,400.0 " stroke-opacity="0.25" stroke="green"/><polygon points="261.73104833082647,0.0 307.6604484896728,400.0 " stroke-opacity="0.25" stroke="green"/><polygon points="326.29383193241296,0.0 115.73860459830749,400.0 " stroke-opacity="0.25" stroke="green"/><polygon points="313.3606875097035,-5.684341886080802e-14 157.26080511332196,400.00000000000006 " stroke-opacity="0.25" stroke="green"/><polygon points="303.99370645263593,0.0 187.333744296539,400.0 " stroke-opacity="0.25" stroke="green"/><polygon points="296.89661337179496,0.0 210.11914839818635,400.0 " stroke-opacity="0.25" stroke="green"/><polygon points="291.3334872713938,5.684341886080802e-14 227.97971114157934,399.99999999999994 " stroke-opacity="0.25" stroke="green"/><polygon points="286.85550469279434,0.0 242.35639205181985,400.0 " stroke-opacity="0.25" stroke="green"/><polygon points="283.17337770618303,0.0 254.17795764041392,400.0 " stroke-opacity="0.25" stroke="green"/><polygon points="280.09225466090237,0.0 264.069984259473,400.0 " stroke-opacity="0.25" stroke="green"/><polygon points="277.47609260340204,0.0 272.46924139144767,400.0 " stroke-opacity="0.25" stroke="green"/><polygon points="275.22702735759617,0.0 279.689924549035,400.0 " stroke-opacity="0.25" stroke="green"/><polygon points="273.2728585633472,-5.684341886080802e-14 285.96383488846584,400.00000000000006 " stroke-opacity="0.25" stroke="green"/><polygon points="271.5591546986721,0.0 291.46572624347533,400.0 " stroke-opacity="0.25" stroke="green"/><polygon points="270.0441036632578,-5.684341886080802e-14 296.3298374624372,400.00000000000006 " stroke-opacity="0.25" stroke="green"/><polygon points="268.6950560190139,0.0 300.66099042553583,400.0 " stroke-opacity="0.25" stroke="green"/><polygon points="267.4861454800425,0.0 304.54222952433867,400.0 " stroke-opacity="0.25" stroke="green"/><polygon points="352.63781648880695,0.0 92.36108447395792,400.0 " stroke-opacity="0.25" stroke="green"/><polygon points="334.48659815051224,0.0 140.27526981393743,400.0 " stroke-opacity="0.25" stroke="green"/><polygon points="321.5913134077593,0.0 174.31524727773777,400.0 " stroke-opacity="0.25" stroke="green"/><polygon points="311.9577908496012,0.0 199.74507665479027,400.0 " stroke-opacity="0.25" stroke="green"/><polygon points="304.4874171871291,0.0 219.46479251912032,400.0 " stroke-opacity="0.25" stroke="green"/><polygon points="298.5251521800698,0.0 235.20351954393945,400.0 " stroke-opacity="0.25" stroke="green"/><polygon points="293.6561842963788,0.0 248.05624519824937,400.0 " stroke-opacity="0.25" stroke="green"/><polygon points="289.6050531414737,-5.684341886080802e-14 258.75010857287305,400.00000000000006 " stroke-opacity="0.25" stroke="green"/><polygon points="286.18166644635363,0.0 267.7869005690522,400.0 " stroke-opacity="0.25" stroke="green"/><polygon points="283.25060744084044,0.0 275.5240839258455,400.0 " stroke-opacity="0.25" stroke="green"/><polygon points="280.7127959168882,0.0 282.2232029298873,400.0 " stroke-opacity="0.25" stroke="green"/><polygon points="278.49406662455084,0.0 288.0800332842448,400.0 " stroke-opacity="0.25" stroke="green"/><polygon points="276.53780100993686,0.0 293.24403227791504,400.0 " stroke-opacity="0.25" stroke="green"/><polygon points="274.8000278039839,0.0 297.83127187346406,400.0 " stroke-opacity="0.25" stroke="green"/><polygon points="273.24607840866844,0.0 301.93326756038766,400.0 " stroke-opacity="0.25" stroke="green"/><polygon points="383.0101424826483,5.684341886080802e-14 65.86446671530825,399.99999999999994 " stroke-opacity="0.25" stroke="green"/><polygon points="358.0745059040079,0.0 121.95954951062757,400.0 " stroke-opacity="0.25" stroke="green"/><polygon points="340.7903868022503,0.0 160.84181702361167,400.0 " stroke-opacity="0.25" stroke="green"/><polygon points="328.1044361106699,-5.684341886080802e-14 189.38006797771416,400.00000000000006 " stroke-opacity="0.25" stroke="green"/><polygon points="318.3971675483149,0.0 211.21749057586592,400.0 " stroke-opacity="0.25" stroke="green"/><polygon points="310.72970655307023,0.0 228.46617231702342,400.0 " stroke-opacity="0.25" stroke="green"/><polygon points="304.52023881590765,0.0 242.43495974831612,400.0 " stroke-opacity="0.25" stroke="green"/><polygon points="299.3890069851441,-5.684341886080802e-14 253.97815310056518,400.00000000000006 " stroke-opacity="0.25" stroke="green"/><polygon points="295.0776029905874,0.0 263.67706587048787,400.0 " stroke-opacity="0.25" stroke="green"/><polygon points="291.4040831391421,-5.684341886080802e-14 271.94099767616666,400.00000000000006 " stroke-opacity="0.25" stroke="green"/><polygon points="288.2366334667254,0.0 279.0664765490991,400.0 " stroke-opacity="0.25" stroke="green"/><polygon points="285.4774174359834,0.0 285.27359507228226,400.0 " stroke-opacity="0.25" stroke="green"/><polygon points="283.05229085910537,-5.684341886080802e-14 290.72914763818835,400.00000000000006 " stroke-opacity="0.25" stroke="green"/><polygon points="280.9040395441107,0.0 295.5618430057092,400.0 " stroke-opacity="0.25" stroke="green"/><polygon points="278.98780802546685,0.0 299.87258780479743,400.0 " stroke-opacity="0.25" stroke="green"/><polygon points="400.0,19.86501326941081 34.90579979632233,400.0 " stroke-opacity="0.25" stroke="green"/><polygon points="384.96238973416314,-5.684341886080802e-14 101.79584015997956,400.00000000000006 " stroke-opacity="0.25" stroke="green"/><polygon points="362.04959801823685,-5.684341886080802e-14 146.71932097555435,400.00000000000006 " stroke-opacity="0.25" stroke="green"/><polygon points="345.6000623025776,-5.684341886080802e-14 178.97075551523469,400.00000000000006 " stroke-opacity="0.25" stroke="green"/><polygon points="333.21707545549157,0.0 203.24919696232908,400.0 " stroke-opacity="0.25" stroke="green"/><polygon points="323.55856723173434,0.0 222.18594697849738,400.0 " stroke-opacity="0.25" stroke="green"/><polygon points="315.81449816561303,-5.684341886080802e-14 237.3691923219522,400.00000000000006 " stroke-opacity="0.25" stroke="green"/><polygon points="309.4669936436601,0.0 249.81429290829945,400.0 " stroke-opacity="0.25" stroke="green"/><polygon points="304.1695164664815,0.0 260.2006795734613,400.0 " stroke-opacity="0.25" stroke="green"/><polygon points="299.6814217801251,0.0 269.0001675643058,400.0 " stroke-opacity="0.25" stroke="green"/><polygon points="295.83038040175194,0.0 276.55063045098575,400.0 " stroke-opacity="0.25" stroke="green"/><polygon points="292.489743000634,0.0 283.1003805670574,400.0 " stroke-opacity="0.25" stroke="green"/><polygon points="289.56434514177033,5.684341886080802e-14 288.8360000507032,399.99999999999994 " stroke-opacity="0.25" stroke="green"/><polygon points="286.981295880784,0.0 293.9004009914646,400.0 " stroke-opacity="0.25" stroke="green"/><polygon points="284.68382152252303,0.0 298.4048955348279,400.0 " stroke-opacity="0.25" stroke="green"/><polygon points="0.0,397.7591506834153 400.0,54.46523480169577 " stroke-opacity="0.25" stroke="green"/><polygon points="400.00000000000006,19.394987930314926 79.05385388953272,400.0 " stroke-opacity="0.25" stroke="green"/><polygon points="385.9861149674885,0.0 131.70117183462054,400.0 " stroke-opacity="0.25" stroke="green"/><polygon points="364.7802279842132,-5.684341886080802e-14 168.46372477304482,400.00000000000006 " stroke-opacity="0.25" stroke="green"/><polygon points="349.1338755256868,0.0 195.58826151152059,400.0 " stroke-opacity="0.25" stroke="green"/><polygon points="337.1141256934094,0.0 216.42571527444105,400.0 " stroke-opacity="0.25" stroke="green"/><polygon points="327.5910379873517,0.0 232.93495236541082,400.0 " stroke-opacity="0.25" stroke="green"/><polygon points="319.8599149661527,0.0 246.33763717479653,400.0 " stroke-opacity="0.25" stroke="green"/><polygon points="313.45845950298116,-5.684341886080802e-14 257.4352085960445,400.00000000000006 " stroke-opacity="0.25" stroke="green"/><polygon points="308.07080244969654,0.0 266.7752577904808,400.0 " stroke-opacity="0.25" stroke="green"/><polygon points="303.47378201193584,0.0 274.74465833173065,400.0 " stroke-opacity="0.25" stroke="green"/><polygon points="299.5052568475403,0.0 281.62449865902386,400.0 " stroke-opacity="0.25" stroke="green"/><polygon points="296.0445840891317,0.0 287.62392540235675,400.0 " stroke-opacity="0.25" stroke="green"/><polygon points="293.0001413435222,5.684341886080802e-14 292.901775260358,399.99999999999994 " stroke-opacity="0.25" stroke="green"/><polygon points="290.3010956402617,0.0 297.5808443616693,400.0 " stroke-opacity="0.25" stroke="green"/><polygon points="0.0,364.82641407904214 400.0,84.48428928198466 " stroke-opacity="0.25" stroke="green"/><polygon points="400.0,53.87238809850973 52.65023305211909,400.0 " stroke-opacity="0.25" stroke="green"/><polygon points="400.0,18.063871284801593 115.4598509620098,400.0 " stroke-opacity="0.25" stroke="green"/><polygon points="386.0823472814411,-5.684341886080802e-14 157.80478073495695,400.00000000000006 " stroke-opacity="0.25" stroke="green"/><polygon points="366.3771032387507,0.0 188.2856291153363,400.0 " stroke-opacity="0.25" stroke="green"/><polygon points="351.514429409365,-5.684341886080802e-14 211.27579896753792,400.00000000000006 " stroke-opacity="0.25" stroke="green"/><polygon points="339.9045721916793,0.0 229.23438383984245,400.0 " stroke-opacity="0.25" stroke="green"/><polygon points="330.58500233549887,0.0 243.65026192494335,400.0 " stroke-opacity="0.25" stroke="green"/><polygon points="322.93885400443105,0.0 255.47762561900646,400.0 " stroke-opacity="0.25" stroke="green"/><polygon points="316.55253982739464,0.0 265.35622817363566,400.0 " stroke-opacity="0.25" stroke="green"/><polygon points="311.13839011763594,0.0 273.7310484019111,400.0 " stroke-opacity="0.25" stroke="green"/><polygon points="306.49012230028,0.0 280.9211723235065,400.0 " stroke-opacity="0.25" stroke="green"/><polygon points="302.45595979257473,0.0 287.16137394053686,400.0 " stroke-opacity="0.25" stroke="green"/><polygon points="298.9217448926747,-5.684341886080802e-14 292.6282368869763,400.00000000000006 " stroke-opacity="0.25" stroke="green"/><polygon points="295.79996371480337,0.0 297.45713109164944,400.0 " stroke-opacity="0.25" stroke="green"/><polygon points="0.0,335.8956827470948 400.0,111.33496416010675 " stroke-opacity="0.25" stroke="green"/><polygon points="400.0,84.11631785047639 20.883593647532933,400.0 " stroke-opacity="0.25" stroke="green"/><polygon points="399.99999999999994,52.5034628533779 97.53973592408317,400.0 " stroke-opacity="0.25" stroke="green"/><polygon points="400.0,15.33885240278849 146.93841527834525,400.00000000000006 " stroke-opacity="0.25" stroke="green"/><polygon points="385.233561699044,0.0 181.4233819012726,400.0 " stroke-opacity="0.25" stroke="green"/><polygon points="366.89633807395774,0.0 206.8626350461414,400.0 " stroke-opacity="0.25" stroke="green"/><polygon points="352.81142223227346,-5.684341886080802e-14 226.4026563136246,400.00000000000006 " stroke-opacity="0.25" stroke="green"/><polygon points="341.6533642474127,0.0 241.88224403559968,400.0 " stroke-opacity="0.25" stroke="green"/><polygon points="332.5957259639913,-5.684341886080802e-14 254.44791689304273,400.00000000000006 " stroke-opacity="0.25" stroke="green"/><polygon points="325.0964448656543,5.684341886080802e-14 264.8516788891681,399.99999999999994 " stroke-opacity="0.25" stroke="green"/><polygon points="318.7852064776697,-5.684341886080802e-14 273.60726775540786,400.00000000000006 " stroke-opacity="0.25" stroke="green"/><polygon points="313.4004157052548,0.0 281.07759469215387,400.0 " stroke-opacity="0.25" stroke="green"/><polygon points="308.7520267943132,0.0 287.52631041046294,400.0 " stroke-opacity="0.25" stroke="green"/><polygon points="304.6986469540425,0.0 293.1495693048949,400.0 " stroke-opacity="0.25" stroke="green"/><polygon points="301.1329035333657,0.0 298.0963295878502,400.0 " stroke-opacity="0.25" stroke="green"/><polygon points="0.0,309.81091887877915 400.0,136.02338652174882 " stroke-opacity="0.25" stroke="green"/><polygon points="0.0,386.84521430650295 400.0,111.45319310329495 " stroke-opacity="0.25" stroke="green"/><polygon points="400.0,83.05191651302218 77.27439375578791,400.00000000000006 " stroke-opacity="0.25" stroke="green"/><polygon points="400.0,49.84775645283631 135.80763058371025,400.0 " stroke-opacity="0.25" stroke="green"/><polygon points="400.0,10.509876222008359 175.12777219007597,400.0 " stroke-opacity="0.25" stroke="green"/><polygon points="383.41921115341586,0.0 203.36097492466087,400.0 " stroke-opacity="0.25" stroke="green"/><polygon points="366.367604284775,-5.684341886080802e-14 224.61703548096432,400.00000000000006 " stroke-opacity="0.25" stroke="green"/><polygon points="353.06646503348054,0.0 241.19786704548403,400.0 " stroke-opacity="0.25" stroke="green"/><polygon points="342.40102673652376,0.0 254.49310684581974,400.0 " stroke-opacity="0.25" stroke="green"/><polygon points="333.6584918973201,0.0 265.39130848683135,400.0 " stroke-opacity="0.25" stroke="green"/><polygon points="326.361833851866,0.0 274.4871201876071,400.0 " stroke-opacity="0.25" stroke="green"/><polygon points="320.17976017813,0.0 282.19352190005384,400.0 " stroke-opacity="0.25" stroke="green"/><polygon points="314.87500842503516,0.0 288.8062784202215,400.0 " stroke-opacity="0.25" stroke="green"/><polygon points="310.2731960364951,0.0 294.5427702097106,400.0 " stroke-opacity="0.25" stroke="green"/><polygon points="306.2432840081446,0.0 299.56634685976405,400.0 " stroke-opacity="0.25" stroke="green"/><polygon points="0.0,285.714986467959 400.0,159.31467699203054 " stroke-opacity="0.25" stroke="green"/><polygon points="-5.684341886080802e-14,359.5910030004553 400.00000000000006,136.8592712337567 " stroke-opacity="0.25" stroke="green"/><polygon points="400.00000000000006,110.97338634353142 53.63174297908995,400.0 " stroke-opacity="0.25" stroke="green"/><polygon points="399.99999999999994,80.8059066432805 124.35445892777113,400.0 " stroke-opacity="0.25" stroke="green"/><polygon points="400.00000000000006,45.19877865381642 169.58939278203786,400.0 " stroke-opacity="0.25" stroke="green"/><polygon points="399.99999999999994,2.534936750881286 201.01116016615453,399.99999999999994 " stroke-opacity="0.25" stroke="green"/><polygon points="380.6255225688358,-5.684341886080802e-14 224.10877190824328,400.00000000000006 " stroke-opacity="0.25" stroke="green"/><polygon points="364.81111038038875,5.684341886080802e-14 241.80314198288698,399.99999999999994 " stroke-opacity="0.25" stroke="green"/><polygon points="352.3087769769086,0.0 255.7917057942798,400.0 " stroke-opacity="0.25" stroke="green"/><polygon points="342.1766578198332,0.0 267.1282931975504,400.0 " stroke-opacity="0.25" stroke="green"/><polygon points="333.799088253352,-5.684341886080802e-14 276.50175674896104,400.00000000000006 " stroke-opacity="0.25" stroke="green"/><polygon points="326.75663861414665,5.684341886080802e-14 284.3813863338769,399.99999999999994 " stroke-opacity="0.25" stroke="green"/><polygon points="320.753700329514,0.0 291.0979313611484,400.0 " stroke-opacity="0.25" stroke="green"/><polygon points="315.5759343651921,-5.684341886080802e-14 296.89121068388783,400.00000000000006 " stroke-opacity="0.25" stroke="green"/><polygon points="311.0641387656586,0.0 301.93935158776634,400.0 " stroke-opacity="0.25" stroke="green"/><polygon points="5.684341886080802e-14,262.93165055278115 399.99999999999994,181.8350859176313 " stroke-opacity="0.25" stroke="green"/><polygon points="5.684341886080802e-14,334.73920267802885 399.99999999999994,161.10818612455586 " stroke-opacity="0.25" stroke="green"/><polygon points="400.00000000000006,137.2361626138843 24.90006471217697,400.0 " stroke-opacity="0.25" stroke="green"/><polygon points="400.0,109.44437598803528 112.52191673203257,400.0 " stroke-opacity="0.25" stroke="green"/><polygon points="400.00000000000006,76.68104343326081 165.09502794394592,400.00000000000006 " stroke-opacity="0.25" stroke="green"/><polygon points="400.0,37.48112174357803 200.1437687518882,400.00000000000006 " stroke-opacity="0.25" stroke="green"/><polygon points="395.6284834753321,-5.684341886080802e-14 225.17858361470405,400.00000000000006 " stroke-opacity="0.25" stroke="green"/><polygon points="376.8523723282202,-5.684341886080802e-14 243.95469476181597,400.00000000000006 " stroke-opacity="0.25" stroke="green"/><polygon points="362.24873032491087,-5.684341886080802e-14 258.55833676512526,400.00000000000006 " stroke-opacity="0.25" stroke="green"/><polygon points="350.5658167222635,-5.684341886080802e-14 270.24125036777264,400.00000000000006 " stroke-opacity="0.25" stroke="green"/><polygon points="341.00706922918835,-5.684341886080802e-14 279.79999786084784,400.00000000000006 " stroke-opacity="0.25" stroke="green"/><polygon points="333.04144631829234,-5.684341886080802e-14 287.7656207717438,400.00000000000006 " stroke-opacity="0.25" stroke="green"/><polygon points="326.3013038552266,-5.684341886080802e-14 294.5057632348096,400.00000000000006 " stroke-opacity="0.25" stroke="green"/><polygon points="320.5240388868844,-5.684341886080802e-14 300.28302820315173,400.00000000000006 " stroke-opacity="0.25" stroke="green"/><polygon points="315.51707591432125,-5.684341886080802e-14 305.28999117571493,400.00000000000006 " stroke-opacity="0.25" stroke="green"/><polygon points="-5.684341886080802e-14,240.88754339241314 400.00000000000006,204.1421200675764 " stroke-opacity="0.25" stroke="green"/><polygon points="0.0,311.58243658404604 400.0,184.86783765016594 " stroke-opacity="0.25" stroke="green"/><polygon points="5.684341886080802e-14,393.07728406909337 399.99999999999994,162.64905160952867 " stroke-opacity="0.25" stroke="green"/><polygon points="400.0,136.75521874703884 100.25904413264462,400.0 " stroke-opacity="0.25" stroke="green"/><polygon points="400.0,106.19234010972279 162.07924819046448,400.00000000000006 " stroke-opacity="0.25" stroke="green"/><polygon points="400.0,69.5724301111722 201.2150590876041,400.0 " stroke-opacity="0.25" stroke="green"/><polygon points="400.0,24.896842788412897 228.2166027476226,400.0 " stroke-opacity="0.25" stroke="green"/><polygon points="389.1237190301499,0.0 247.9698587109921,400.0 " stroke-opacity="0.25" stroke="green"/><polygon points="372.11824219037544,-5.684341886080802e-14 263.048043065633,400.00000000000006 " stroke-opacity="0.25" stroke="green"/><polygon points="358.71163237186573,0.0 274.9352330761726,400.0 " stroke-opacity="0.25" stroke="green"/><polygon points="347.87076761907247,5.684341886080802e-14 284.5474632327551,399.99999999999994 " stroke-opacity="0.25" stroke="green"/><polygon points="338.9234274018793,0.0 292.4807688700889,400.0 " stroke-opacity="0.25" stroke="green"/><polygon points="331.4133576548171,-5.684341886080802e-14 299.1396951224572,400.00000000000006 " stroke-opacity="0.25" stroke="green"/><polygon points="325.0199885997222,0.0 304.8084804301708,400.0 " stroke-opacity="0.25" stroke="green"/><polygon points="319.51148666427326,-5.684341886080802e-14 309.6926838243579,400.00000000000006 " stroke-opacity="0.25" stroke="green"/><polygon points="0.0,219.05389094276651 400.0,226.78041445776142 " stroke-opacity="0.25" stroke="green"/><polygon points="0.0,289.52431864334085 400.0,208.774088766457 " stroke-opacity="0.25" stroke="green"/><polygon points="0.0,370.98277826847357 400.0,187.96014450384604 " stroke-opacity="0.25" stroke="green"/><polygon points="400.0,163.62639547031762 87.53295188673553,400.0 " stroke-opacity="0.25" stroke="green"/><polygon points="400.0,134.7975347699453 161.21062774910152,400.0 " stroke-opacity="0.25" stroke="green"/><polygon points="400.0,100.10125513947676 204.8583368808701,400.0 " stroke-opacity="0.25" stroke="green"/><polygon points="400.00000000000006,57.54336442754783 233.7276047694995,400.0 " stroke-opacity="0.25" stroke="green"/><polygon points="400.0,4.110504448167575 254.23738118231867,399.99999999999994 " stroke-opacity="0.25" stroke="green"/><polygon points="381.7720830398458,-5.684341886080802e-14 269.55936884503495,400.00000000000006 " stroke-opacity="0.25" stroke="green"/><polygon points="366.4635220402538,0.0 281.440897372245,400.0 " stroke-opacity="0.25" stroke="green"/><polygon points="354.2454320650737,0.0 290.9237994289433,400.0 " stroke-opacity="0.25" stroke="green"/><polygon points="344.26776625874595,0.0 298.6678271606166,400.0 " stroke-opacity="0.25" stroke="green"/><polygon points="335.966041177207,0.0 305.11109660860643,400.0 " stroke-opacity="0.25" stroke="green"/><polygon points="328.9507128395219,0.0 310.5559469622205,400.0 " stroke-opacity="0.25" stroke="green"/><polygon points="322.94428028251184,-5.684341886080802e-14 315.217756767517,400.00000000000006 " stroke-opacity="0.25" stroke="green"/><polygon points="0.0,196.89499179806788 400.0,250.33565510913365 " stroke-opacity="0.25" stroke="green"/><polygon points="5.684341886080802e-14,268.01757395914825 399.99999999999994,233.49916852967527 " stroke-opacity="0.25" stroke="green"/><polygon points="0.0,350.62226529098507 400.0,213.94458073561975 " stroke-opacity="0.25" stroke="green"/><polygon points="400.00000000000006,190.95587446550823 74.35803738143744,400.00000000000006 " stroke-opacity="0.25" stroke="green"/><polygon points="400.0,163.54133416268036 163.54133416268044,400.0 " stroke-opacity="0.25" stroke="green"/><polygon points="400.00000000000006,130.2867170289996 211.95886515199697,400.0 " stroke-opacity="0.25" stroke="green"/><polygon points="400.0,89.10340144968177 242.36191635978986,400.0 " stroke-opacity="0.25" stroke="green"/><polygon points="400.0,36.77201132172431 263.22735613464937,399.99999999999994 " stroke-opacity="0.25" stroke="green"/><polygon points="391.01012264731156,0.0 278.4346796099223,400.0 " stroke-opacity="0.25" stroke="green"/><polygon points="373.627012354455,5.684341886080802e-14 290.01057754910045,399.99999999999994 " stroke-opacity="0.25" stroke="green"/><polygon points="359.95214010514974,0.0 299.1170563565386,400.0 " stroke-opacity="0.25" stroke="green"/><polygon points="348.9132857920139,0.0 306.46813730474094,400.0 " stroke-opacity="0.25" stroke="green"/><polygon points="339.8152604324508,0.0 312.5267661252482,400.0 " stroke-opacity="0.25" stroke="green"/><polygon points="332.187575303177,0.0 317.60625438028995,400.0 " stroke-opacity="0.25" stroke="green"/><polygon points="325.7004443648981,0.0 321.92621579078974,400.0 " stroke-opacity="0.25" stroke="green"/><polygon points="-5.684341886080802e-14,173.81241452884558 400.00000000000006,275.4982888321813 " stroke-opacity="0.25" stroke="green"/><polygon points="-5.684341886080802e-14,246.50638657620078 400.00000000000006,259.8309839880128 " stroke-opacity="0.25" stroke="green"/><polygon points="0.0,331.54074313939736 400.0,241.5040285475335 " stroke-opacity="0.25" stroke="green"/><polygon points="400.0,219.77736133697647 60.87212621245294,400.0 " stroke-opacity="0.25" stroke="green"/><polygon points="400.0,193.60828335032434 170.77877653178962,400.0 " stroke-opacity="0.25" stroke="green"/><polygon points="400.00000000000006,161.47914171041282 223.76343942969575,400.00000000000006 " stroke-opacity="0.25" stroke="green"/><polygon points="400.0,121.09214729048553 254.95115452130472,400.00000000000006 " stroke-opacity="0.25" stroke="green"/><polygon points="400.0,68.79417821659635 275.49761071283024,400.0 " stroke-opacity="0.25" stroke="green"/><polygon points="399.5632401574642,-5.684341886080802e-14 290.05529467821975,400.00000000000006 " stroke-opacity="0.25" stroke="green"/><polygon points="379.956227519353,0.0 300.90951500875957,400.0 " stroke-opacity="0.25" stroke="green"/><polygon points="364.7743485517122,0.0 309.31403141255157,400.0 " stroke-opacity="0.25" stroke="green"/><polygon points="352.671440188559,0.0 316.01406453022554,400.0 " stroke-opacity="0.25" stroke="green"/><polygon points="342.7970879693606,0.0 321.4803941841477,400.0 " stroke-opacity="0.25" stroke="green"/><polygon points="334.5876550137035,0.0 326.02504337340235,400.0 " stroke-opacity="0.25" stroke="green"/><polygon points="327.65479656602093,-5.684341886080802e-14 329.8629953603013,400.00000000000006 " stroke-opacity="0.25" stroke="green"/><polygon points="0.0,149.07160075431483 400.0,303.1527847307963 " stroke-opacity="0.25" stroke="green"/><polygon points="0.0,224.35892791023738 400.0,288.78478820522474 " stroke-opacity="0.25" stroke="green"/><polygon points="0.0,313.31921641496245 400.0,271.80741413133075 " stroke-opacity="0.25" stroke="green"/><polygon points="400.00000000000006,251.43883320685123 47.563383686134046,400.0 " stroke-opacity="0.25" stroke="green"/><polygon points="399.99999999999994,226.55022166837193 185.80736193663765,400.0 " stroke-opacity="0.25" stroke="green"/><polygon points="400.0,195.44923039368177 242.040154005922,400.0 " stroke-opacity="0.25" stroke="green"/><polygon points="400.0,155.47818918171862 272.5450297104428,400.00000000000006 " stroke-opacity="0.25" stroke="green"/><polygon points="400.0,102.21135634061716 291.6915291094948,400.00000000000006 " stroke-opacity="0.25" stroke="green"/><polygon points="400.0,27.691286394989135 304.82783722752356,400.00000000000006 " stroke-opacity="0.25" stroke="green"/><polygon points="385.1478996149966,0.0 314.3999900612579,400.0 " stroke-opacity="0.25" stroke="green"/><polygon points="368.4566373777326,0.0 321.6852574602757,400.0 " stroke-opacity="0.25" stroke="green"/><polygon points="355.3275667438592,0.0 327.4157282244831,400.0 " stroke-opacity="0.25" stroke="green"/><polygon points="344.73029335393653,0.0 332.04114056590095,400.0 " stroke-opacity="0.25" stroke="green"/><polygon points="335.9968758073388,-5.684341886080802e-14 335.8530321550338,400.00000000000006 " stroke-opacity="0.25" stroke="green"/><polygon points="328.6753367496757,0.0 339.04867841888233,400.0 " stroke-opacity="0.25" stroke="green"/><polygon points="0.0,121.68934002393729 400.0,334.51948734877396 " stroke-opacity="0.25" stroke="green"/><polygon points="0.0,200.76956959163286 400.0,321.7847787586321 " stroke-opacity="0.25" stroke="green"/><polygon points="0.0,295.5245063265121 400.0,306.5258889780574 " stroke-opacity="0.25" stroke="green"/><polygon points="400.0,287.90977048228876 36.12223385969699,400.00000000000006 " stroke-opacity="0.25" stroke="green"/><polygon points="400.0,264.69149439892783 213.76381920471178,400.0 " stroke-opacity="0.25" stroke="green"/><polygon points="400.0,234.92379107543996 269.3078373990762,400.0 " stroke-opacity="0.25" stroke="green"/><polygon points="400.0,195.38043170345728 296.43935817270597,400.0 " stroke-opacity="0.25" stroke="green"/><polygon points="400.00000000000006,140.29992531714345 312.5189604632959,400.0 " stroke-opacity="0.25" stroke="green"/><polygon points="400.0,58.28630507795057 323.1569165009337,400.0 " stroke-opacity="0.25" stroke="green"/><polygon points="388.83919585780023,0.0 330.71579361737145,400.0 " stroke-opacity="0.25" stroke="green"/><polygon points="370.70737753307776,0.0 336.36340916113744,400.0 " stroke-opacity="0.25" stroke="green"/><polygon points="356.6456297282756,-5.684341886080802e-14 340.74329782164955,400.00000000000006 " stroke-opacity="0.25" stroke="green"/><polygon points="345.4218211666258,0.0 344.23923819331094,400.0 " stroke-opacity="0.25" stroke="green"/><polygon points="336.2555714310587,0.0 347.0942995863565,400.0 " stroke-opacity="0.25" stroke="green"/><polygon points="328.6285963437904,0.0 349.4699147774728,400.0 " stroke-opacity="0.25" stroke="green"/><polygon points="-5.684341886080802e-14,90.24025591268594 400.00000000000006,371.4028474715282 " stroke-opacity="0.25" stroke="green"/><polygon points="0.0,174.59139025589354 400.0,360.993507265455 " stroke-opacity="0.25" stroke="green"/><polygon points="-5.684341886080802e-14,277.6366724310102 400.00000000000006,348.2772183009548 " stroke-opacity="0.25" stroke="green"/><polygon points="400.0,332.39149844936014 34.41845802243654,400.0 " stroke-opacity="0.25" stroke="green"/><polygon points="400.0,311.9827261230543 264.4652837464189,400.0 " stroke-opacity="0.25" stroke="green"/><polygon points="400.0,284.79851072906945 309.1528312410064,399.99999999999994 " stroke-opacity="0.25" stroke="green"/><polygon points="400.00000000000006,246.79327693926444 328.17390123248913,400.0 " stroke-opacity="0.25" stroke="green"/><polygon points="400.0,189.90033839797945 338.70753743034663,400.0 " stroke-opacity="0.25" stroke="green"/><polygon points="400.0,95.38397366335568 345.3983041334302,400.0 " stroke-opacity="0.25" stroke="green"/><polygon points="390.6127470639089,-5.684341886080802e-14 350.0247113982605,400.00000000000006 " stroke-opacity="0.25" stroke="green"/><polygon points="371.2075331147894,-5.684341886080802e-14 353.4144705005592,400.00000000000006 " stroke-opacity="0.25" stroke="green"/><polygon points="356.3778485093365,-5.684341886080802e-14 356.0049628552098,400.00000000000006 " stroke-opacity="0.25" stroke="green"/><polygon points="344.6760726274939,-5.684341886080802e-14 358.04906303429266,400.00000000000006 " stroke-opacity="0.25" stroke="green"/><polygon points="335.206997303206,0.0 359.70314859887424,400.0 " stroke-opacity="0.25" stroke="green"/><polygon points="327.3872745825005,0.0 361.06912046290347,400.0 " stroke-opacity="0.25" stroke="green"/><polygon points="0.0,52.49021723425395 381.6953348997679,400.0 " stroke-opacity="0.25" stroke="green"/><polygon points="0.0,144.00896292728854 385.0031738179774,400.0 " stroke-opacity="0.25" stroke="green"/><polygon points="-5.684341886080802e-14,258.9138194016192 395.60548855586933,399.99999999999994 " stroke-opacity="0.25" stroke="green"/><polygon points="400.00000000000006,390.70082603320793 178.339334632762,400.0 " stroke-opacity="0.25" stroke="green"/><polygon points="400.0,376.1045951222791 358.6119446843582,400.0 " stroke-opacity="0.25" stroke="green"/><polygon points="399.99999999999994,355.46031998478384 366.62679213504674,400.0 " stroke-opacity="0.25" stroke="green"/><polygon points="400.0,324.0266189701496 369.4591622563621,400.0 " stroke-opacity="0.25" stroke="green"/><polygon points="400.0,270.35283114401096 370.9075445632817,400.0 " stroke-opacity="0.25" stroke="green"/><polygon points="399.99999999999994,157.9151454645551 371.78715944233477,400.0 " stroke-opacity="0.25" stroke="green"/><polygon points="390.0132567660138,0.0 372.37804734599047,400.0 " stroke-opacity="0.25" stroke="green"/><polygon points="369.6280161293753,0.0 372.8023250137652,400.0 " stroke-opacity="0.25" stroke="green"/><polygon points="354.2804867151366,0.0 373.12175288327376,400.0 " stroke-opacity="0.25" stroke="green"/><polygon points="342.30861641137324,0.0 373.3709232169441,400.0 " stroke-opacity="0.25" stroke="green"/><polygon points="332.70904440392053,0.0 373.5707189463916,400.0 " stroke-opacity="0.25" stroke="green"/><polygon points="324.84020766417336,0.0 373.7344929120537,400.0 " stroke-opacity="0.25" stroke="green"/><polygon points="-5.684341886080802e-14,4.62987923345807 336.06269608099774,400.00000000000006 " stroke-opacity="0.25" stroke="green"/><polygon points="0.0,105.81450486652253 318.61025797069846,400.0 " stroke-opacity="0.25" stroke="green"/><polygon points="0.0,238.08233851626022 273.30642257180585,400.00000000000006 " stroke-opacity="0.25" stroke="green"/><polygon points="386.58036035103964,0.0 397.6493736490139,400.0 " stroke-opacity="0.25" stroke="green"/><polygon points="365.6575678038854,5.684341886080802e-14 394.34972356655805,399.99999999999994 " stroke-opacity="0.25" stroke="green"/><polygon points="350.1364736369135,5.684341886080802e-14 391.90195377041675,399.99999999999994 " stroke-opacity="0.25" stroke="green"/><polygon points="338.1643779754602,0.0 390.01388235989873,400.0 " stroke-opacity="0.25" stroke="green"/><polygon points="328.6489167051664,0.0 388.51323695157816,400.0 " stroke-opacity="0.25" stroke="green"/><polygon points="320.9043098511339,-5.684341886080802e-14 387.2918659234564,400.00000000000006 " stroke-opacity="0.25" stroke="green"/><polygon points="39.246739390993525,0.0 298.60599264382586,400.0 " stroke-opacity="0.25" stroke="green"/><polygon points="0.0,53.55591141451782 268.5305781542878,400.0 " stroke-opacity="0.25" stroke="green"/><polygon points="-5.684341886080802e-14,212.4660785456405 199.72226916936336,400.0 " stroke-opacity="0.25" stroke="green"/><polygon points="379.9010016796035,5.684341886080802e-14 400.0,176.42649995737972 " stroke-opacity="0.25" stroke="green"/><polygon points="359.04158225647177,-5.684341886080802e-14 400.00000000000006,279.2926687898947 " stroke-opacity="0.25" stroke="green"/><polygon points="343.7842365137935,0.0 400.0,329.5395844310511 " stroke-opacity="0.25" stroke="green"/><polygon points="332.1393644304252,0.0 400.0,359.3186162287782 " stroke-opacity="0.25" stroke="green"/><polygon points="322.95978903893734,0.0 400.00000000000006,379.01985170604064 " stroke-opacity="0.25" stroke="green"/><polygon points="315.537568797436,0.0 400.0,393.018708017135 " stroke-opacity="0.25" stroke="green"/><polygon points="75.59463590261495,0.0 266.34091387687437,400.0 " stroke-opacity="0.25" stroke="green"/><polygon points="15.003298288324743,0.0 227.43451914378284,400.0 " stroke-opacity="0.25" stroke="green"/><polygon points="0.0,174.77793701286464 145.3657631933076,400.0 " stroke-opacity="0.25" stroke="green"/><polygon points="399.285978305963,0.0 400.0,3.8131557147410717 " stroke-opacity="0.25" stroke="green"/><polygon points="369.68038919752576,0.0 400.0,141.85215639476405 " stroke-opacity="0.25" stroke="green"/><polygon points="349.6292937980936,0.0 400.00000000000006,217.41399734812023 " stroke-opacity="0.25" stroke="green"/><polygon points="335.1501083207818,0.0 400.0,265.0873890967413 " stroke-opacity="0.25" stroke="green"/><polygon points="324.2036346408228,0.0 400.0,297.90662592363674 " stroke-opacity="0.25" stroke="green"/><polygon points="315.63755172862,0.0 400.0,321.8783513729775 " stroke-opacity="0.25" stroke="green"/><polygon points="308.75155291303304,0.0 400.0,340.15531119457216 " stroke-opacity="0.25" stroke="green"/><polygon points="107.41517736716419,-5.684341886080802e-14 237.38305586032675,400.00000000000006 " stroke-opacity="0.25" stroke="green"/><polygon points="61.413705056739985,0.0 191.38158354990256,400.0 " stroke-opacity="0.25" stroke="green"/><polygon points="0.0,94.14399902116625 99.37863892905409,400.00000000000006 " stroke-opacity="0.25" stroke="green"/><polygon points="383.42401122970927,5.684341886080802e-14 399.99999999999994,51.01564775072558 " stroke-opacity="0.25" stroke="green"/><polygon points="355.8231278434548,-5.684341886080802e-14 400.00000000000006,135.96243216009495 " stroke-opacity="0.25" stroke="green"/><polygon points="337.4225389192851,0.0 400.0,192.59362176634116 " stroke-opacity="0.25" stroke="green"/><polygon points="324.27926111630677,0.0 400.0,233.04447148508854 " stroke-opacity="0.25" stroke="green"/><polygon points="314.42180276407305,0.0 400.0,263.38260877414893 " stroke-opacity="0.25" stroke="green"/><polygon points="306.7548907123356,0.0 400.0,286.97893777675165 " stroke-opacity="0.25" stroke="green"/><polygon points="300.62136107094574,5.684341886080802e-14 400.0,305.85600097883366 " stroke-opacity="0.25" stroke="green"/><polygon points="136.26177833219842,-5.684341886080802e-14 210.43442016176093,400.00000000000006 " stroke-opacity="0.25" stroke="green"/><polygon points="101.52498359084723,-5.684341886080802e-14 157.94216131211314,400.00000000000006 " stroke-opacity="0.25" stroke="green"/><polygon points="34.360659932458105,5.684341886080802e-14 56.44727414162952,399.99999999999994 " stroke-opacity="0.25" stroke="green"/><polygon points="362.63788582242825,-5.684341886080802e-14 400.00000000000006,78.7054782417238 " stroke-opacity="0.25" stroke="green"/><polygon points="338.50684885086525,0.0 400.0,138.53805619495773 " stroke-opacity="0.25" stroke="green"/><polygon points="322.61507203739,0.0 400.00000000000006,182.69928289107253 " stroke-opacity="0.25" stroke="green"/><polygon points="311.3581055562137,5.684341886080802e-14 399.99999999999994,216.63317167216988 " stroke-opacity="0.25" stroke="green"/><polygon points="302.96639159520436,0.0 400.0,243.52385228952994 " stroke-opacity="0.25" stroke="green"/><polygon points="296.4694886076885,0.0 400.0,265.3579538372844 " stroke-opacity="0.25" stroke="green"/><polygon points="291.29074020030544,0.0 400.0,283.43917551470446 " stroke-opacity="0.25" stroke="green"/><polygon points="163.26666194827385,0.0 184.51470458842905,400.0 " stroke-opacity="0.25" stroke="green"/><polygon points="137.82058732712736,-5.684341886080802e-14 125.39371445577395,400.00000000000006 " stroke-opacity="0.25" stroke="green"/><polygon points="89.537672875456,0.0 13.213987272985293,400.0 " stroke-opacity="0.25" stroke="green"/><polygon points="370.761813747372,0.0 400.0,39.531936348946374 " stroke-opacity="0.25" stroke="green"/><polygon points="337.52766666652315,0.0 399.99999999999994,99.21669497256585 " stroke-opacity="0.25" stroke="green"/><polygon points="318.2238240359789,-5.684341886080802e-14 399.99999999999994,144.5346327503574 " stroke-opacity="0.25" stroke="green"/><polygon points="305.6093618062544,0.0 400.00000000000006,180.11587962664055 " stroke-opacity="0.25" stroke="green"/><polygon points="296.72065687110717,0.0 400.0,208.79397328181474 " stroke-opacity="0.25" stroke="green"/><polygon points="290.1194685132654,0.0 400.0,232.40020031535582 " stroke-opacity="0.25" stroke="green"/><polygon points="285.02342674421516,0.0 400.0,252.17072761414133 " stroke-opacity="0.25" stroke="green"/><polygon points="280.9704280118795,0.0 400.0,268.97018541606275 " stroke-opacity="0.25" stroke="green"/><polygon points="189.33138946027347,0.0 158.80322865797038,400.0 " stroke-opacity="0.25" stroke="green"/><polygon points="172.11221611411503,0.0 92.3115009490081,400.0 " stroke-opacity="0.25" stroke="green"/><polygon points="0.0,323.3654807607346 139.63668471920815,0.0 " stroke-opacity="0.25" stroke="green"/><polygon points="0.0,53.693149302418874 55.50244952768577,0.0 " stroke-opacity="0.25" stroke="green"/><polygon points="382.44057442221435,0.0 400.0,13.454144440460027 " stroke-opacity="0.25" stroke="green"/><polygon points="332.48194397657113,-5.684341886080802e-14 400.00000000000006,71.24107261009908 " stroke-opacity="0.25" stroke="green"/><polygon points="309.2199650899245,5.684341886080802e-14 400.00000000000006,116.18646118648505 " stroke-opacity="0.25" stroke="green"/><polygon points="295.7676024277728,0.0 400.00000000000006,152.14277204759378 " stroke-opacity="0.25" stroke="green"/><polygon points="287.00027945557986,0.0 400.00000000000006,181.5615718430464 " stroke-opacity="0.25" stroke="green"/><polygon points="280.83349853115885,-5.684341886080802e-14 399.99999999999994,206.07723833925698 " stroke-opacity="0.25" stroke="green"/><polygon points="276.2596476652603,0.0 399.99999999999994,226.8212638360504 " stroke-opacity="0.25" stroke="green"/><polygon points="272.73212269046945,0.0 399.99999999999994,244.60185711901633 " stroke-opacity="0.25" stroke="green"/><polygon points="269.92873558329825,0.0 399.99999999999994,260.01170463092006 " stroke-opacity="0.25" stroke="green"/><polygon points="215.2507906135625,0.0 132.53057592314042,400.0 " stroke-opacity="0.25" stroke="green"/><polygon points="205.90629604915748,-5.684341886080802e-14 57.30800573374384,400.00000000000006 " stroke-opacity="0.25" stroke="green"/><polygon points="-5.684341886080802e-14,275.11104978653606 188.17548929940716,0.0 " stroke-opacity="0.25" stroke="green"/><polygon points="5.684341886080802e-14,94.05684476820018 141.5791592458795,0.0 " stroke-opacity="0.25" stroke="green"/><polygon points="317.43196375851494,-5.684341886080802e-14 399.99999999999994,51.79517778841037 " stroke-opacity="0.25" stroke="green"/><polygon points="291.4486854556906,5.684341886080802e-14 400.0,95.54102475964683 " stroke-opacity="0.25" stroke="green"/><polygon points="279.2441976762062,0.0 400.00000000000006,131.10342871446426 " stroke-opacity="0.25" stroke="green"/><polygon points="272.15529869202487,-5.684341886080802e-14 400.0,160.58226873529608 " stroke-opacity="0.25" stroke="green"/><polygon points="267.5229231490955,0.0 400.00000000000006,185.41559160081997 " stroke-opacity="0.25" stroke="green"/><polygon points="264.25874758615595,5.684341886080802e-14 399.99999999999994,206.6213098024518 " stroke-opacity="0.25" stroke="green"/><polygon points="261.8346106751841,0.0 400.0,224.94018892934832 " stroke-opacity="0.25" stroke="green"/><polygon points="259.963204758167,0.0 400.0,240.9241599163284 " stroke-opacity="0.25" stroke="green"/><polygon points="258.47483277200706,5.684341886080802e-14 400.0,254.99288581390846 " stroke-opacity="0.25" stroke="green"/><polygon points="241.80924021919978,-5.684341886080802e-14 104.88695827475955,400.00000000000006 " stroke-opacity="0.25" stroke="green"/><polygon points="240.66033367976473,0.0 18.806811223195695,400.0 " stroke-opacity="0.25" stroke="green"/><polygon points="0.0,247.04222872427084 238.43889870735512,-5.684341886080802e-14 " stroke-opacity="0.25" stroke="green"/><polygon points="0.0,110.92667518331798 232.32848629954725,5.684341886080802e-14 " stroke-opacity="0.25" stroke="green"/><polygon points="0.0,7.358759603084707 140.41349783859133,0.0 " stroke-opacity="0.25" stroke="green"/><polygon points="262.85905732968394,0.0 400.0,38.654260224145816 " stroke-opacity="0.25" stroke="green"/><polygon points="253.4707554544674,0.0 400.0,80.82831066058469 " stroke-opacity="0.25" stroke="green"/><polygon points="250.65327395191326,-5.684341886080802e-14 400.00000000000006,115.58001917982399 " stroke-opacity="0.25" stroke="green"/><polygon points="249.2965456025534,-5.684341886080802e-14 400.00000000000006,144.71033032983252 " stroke-opacity="0.25" stroke="green"/><polygon points="248.49842054851743,5.684341886080802e-14 400.0,169.48114839477768 " stroke-opacity="0.25" stroke="green"/><polygon points="247.97280595338302,0.0 400.0,190.8029721740555 " stroke-opacity="0.25" stroke="green"/><polygon points="247.6004859825646,-5.684341886080802e-14 400.0,209.34925439823056 " stroke-opacity="0.25" stroke="green"/><polygon points="247.322933170952,0.0 400.00000000000006,225.62883050059224 " stroke-opacity="0.25" stroke="green"/><polygon points="247.108050526079,0.0 400.00000000000006,240.03332028772536 " stroke-opacity="0.25" stroke="green"/><polygon points="246.93676535265888,0.0 400.00000000000006,252.86904231122375 " stroke-opacity="0.25" stroke="green"/><polygon points="269.8750254836174,0.0 74.92320774387362,400.0 " stroke-opacity="0.25" stroke="green"/><polygon points="0.0,366.71940671859954 278.02683587867756,0.0 " stroke-opacity="0.25" stroke="green"/><polygon points="0.0,226.46400024470847 294.3304566687979,0.0 " stroke-opacity="0.25" stroke="green"/><polygon points="5.684341886080802e-14,117.3764618761266 343.2413190391591,0.0 " stroke-opacity="0.25" stroke="green"/><polygon points="0.0,30.10643118126103 400.0,30.10643118126103 " stroke-opacity="0.25" stroke="green"/><polygon points="147.59786955771426,0.0 400.0,70.61944378274393 " stroke-opacity="0.25" stroke="green"/><polygon points="196.50873192807558,0.0 400.00000000000006,104.38028761731294 " stroke-opacity="0.25" stroke="green"/><polygon points="212.81235271819594,0.0 400.0,132.94715547733296 " stroke-opacity="0.25" stroke="green"/><polygon points="220.96416311325615,-5.684341886080802e-14 400.0,157.43304221449296 " stroke-opacity="0.25" stroke="green"/><polygon points="225.85524935029227,0.0 399.99999999999994,178.65414405336494 " stroke-opacity="0.25" stroke="green"/><polygon points="229.11597350831633,5.684341886080802e-14 400.00000000000006,197.2226081623779 " stroke-opacity="0.25" stroke="green"/><polygon points="231.44506219261925,-5.684341886080802e-14 400.00000000000006,213.60654708209526 " stroke-opacity="0.25" stroke="green"/><polygon points="233.19187870584648,0.0 399.99999999999994,228.1700483440662 " stroke-opacity="0.25" stroke="green"/><polygon points="234.5505137716898,0.0 400.00000000000006,241.20054947319812 " stroke-opacity="0.25" stroke="green"/><polygon points="235.63742182436448,5.684341886080802e-14 400.00000000000006,252.92800048941686 " stroke-opacity="0.25" stroke="green"/><polygon points="300.51786985244746,0.0 41.41767992704186,400.0 " stroke-opacity="0.25" stroke="green"/><polygon points="-5.684341886080802e-14,321.8541896629914 320.1762183519481,-5.684341886080802e-14 " stroke-opacity="0.25" stroke="green"/><polygon points="0.0,209.42723864898565 361.64334005424996,0.0 " stroke-opacity="0.25" stroke="green"/><polygon points="-5.684341886080802e-14,118.25073541507516 400.00000000000006,24.84898366158089 " stroke-opacity="0.25" stroke="green"/><polygon points="5.684341886080802e-14,42.81992316350335 399.99999999999994,63.78303487671968 " stroke-opacity="0.25" stroke="green"/><polygon points="70.4061954328154,0.0 399.99999999999994,96.52781229031456 " stroke-opacity="0.25" stroke="green"/><polygon points="150.0588519672742,-5.684341886080802e-14 399.99999999999994,124.45049312967389 " stroke-opacity="0.25" stroke="green"/><polygon points="179.88511382946945,0.0 400.00000000000006,148.54320095786824 " stroke-opacity="0.25" stroke="green"/><polygon points="195.49894362007046,-5.684341886080802e-14 399.99999999999994,169.5433607097966 " stroke-opacity="0.25" stroke="green"/><polygon points="205.10422733127564,0.0 400.0,188.0105024198736 " stroke-opacity="0.25" stroke="green"/><polygon points="211.60963613522006,5.684341886080802e-14 400.0,204.37685376879526 " stroke-opacity="0.25" stroke="green"/><polygon points="216.30728575493688,-5.684341886080802e-14 399.99999999999994,218.9815958863001 " stroke-opacity="0.25" stroke="green"/><polygon points="219.85877682468498,5.684341886080802e-14 400.00000000000006,232.0946225818872 " stroke-opacity="0.25" stroke="green"/><polygon points="222.63797018456196,0.0 399.99999999999994,243.9333730688303 " stroke-opacity="0.25" stroke="green"/><polygon points="224.87207442807073,-5.684341886080802e-14 400.0,254.67498484470255 " stroke-opacity="0.25" stroke="green"/><polygon points="335.1861106537581,0.0 2.6666213810613613,400.0 " stroke-opacity="0.25" stroke="green"/><polygon points="-5.684341886080802e-14,288.38992719796306 370.3477822114335,0.0 " stroke-opacity="0.25" stroke="green"/><polygon points="0.0,194.2783150617812 400.0,21.890162412821297 " stroke-opacity="0.25" stroke="green"/><polygon points="0.0,115.73498899172485 400.0,59.42970151743026 " stroke-opacity="0.25" stroke="green"/><polygon points="-5.684341886080802e-14,49.192015309386875 400.00000000000006,91.23370941565729 " stroke-opacity="0.25" stroke="green"/><polygon points="25.01214968887956,-5.684341886080802e-14 400.00000000000006,118.52336326064095 " stroke-opacity="0.25" stroke="green"/><polygon points="115.08337604980726,-5.684341886080802e-14 399.99999999999994,142.19613884027578 " stroke-opacity="0.25" stroke="green"/><polygon points="152.8944855221728,0.0 400.0,162.9264003678659 " stroke-opacity="0.25" stroke="green"/><polygon points="173.70050762373617,0.0 399.99999999999994,181.23067530833356 " stroke-opacity="0.25" stroke="green"/><polygon points="186.8671361652476,0.0 400.0,197.5112793825369 " stroke-opacity="0.25" stroke="green"/><polygon points="195.94921157061398,5.684341886080802e-14 400.00000000000006,212.08623032508402 " stroke-opacity="0.25" stroke="green"/><polygon points="202.59217519821559,0.0 400.0,225.21022779303578 " stroke-opacity="0.25" stroke="green"/><polygon points="207.66228785100188,0.0 400.0,237.08966464313045 " stroke-opacity="0.25" stroke="green"/><polygon points="211.65902401146698,0.0 400.0,247.89356093556137 " stroke-opacity="0.25" stroke="green"/><polygon points="214.89061749646112,0.0 400.0,257.7616567277143 " stroke-opacity="0.25" stroke="green"/><polygon points="0.0,358.194171093503 376.01281274106714,0.0 " stroke-opacity="0.25" stroke="green"/><polygon points="-5.684341886080802e-14,261.4553923800081 400.00000000000006,20.466256877968135 " stroke-opacity="0.25" stroke="green"/><polygon points="-5.684341886080802e-14,180.181746928434 400.00000000000006,56.85816299807445 " stroke-opacity="0.25" stroke="green"/><polygon points="0.0,110.93922592966103 400.0,87.86289164911385 " stroke-opacity="0.25" stroke="green"/><polygon points="0.0,51.24044360973198 400.0,114.59421973954645 " stroke-opacity="0.25" stroke="green"/><polygon points="2.194233609418518,-5.684341886080802e-14 400.0,137.87869366192038 " stroke-opacity="0.25" stroke="green"/><polygon points="90.74459989261298,0.0 400.0,158.34261314626417 " stroke-opacity="0.25" stroke="green"/><polygon points="132.02708771799234,-5.684341886080802e-14 399.99999999999994,176.46921007203738 " stroke-opacity="0.25" stroke="green"/><polygon points="155.91555943694078,5.684341886080802e-14 400.0,192.63729338504922 " stroke-opacity="0.25" stroke="green"/><polygon points="171.4902926010479,5.684341886080802e-14 400.00000000000006,207.14800970966513 " stroke-opacity="0.25" stroke="green"/><polygon points="182.4480642668239,0.0 400.0,220.24377562122987 " stroke-opacity="0.25" stroke="green"/><polygon points="190.57683605966076,-5.684341886080802e-14 400.0,232.12192908864367 " stroke-opacity="0.25" stroke="green"/><polygon points="196.84691163983834,0.0 400.0,242.94474224083837 " stroke-opacity="0.25" stroke="green"/><polygon points="201.83038847064006,5.684341886080802e-14 400.0,252.84687883105497 " stroke-opacity="0.25" stroke="green"/><polygon points="205.88642608399553,-5.684341886080802e-14 400.00000000000006,261.941026170564 " stroke-opacity="0.25" stroke="green"/><polygon points="0.0,322.5646964051308 400.0,19.97457567790366 " stroke-opacity="0.25" stroke="green"/><polygon points="-5.684341886080802e-14,238.53034262487392 400.00000000000006,55.50770886024634 " stroke-opacity="0.25" stroke="green"/><polygon points="0.0,166.65130938109354 400.0,85.90107950420962 " stroke-opacity="0.25" stroke="green"/><polygon points="0.0,104.46812744144671 400.0,112.19465095644152 " stroke-opacity="0.25" stroke="green"/><polygon points="0.0,50.142925205167586 400.0,135.16554987317625 " stroke-opacity="0.25" stroke="green"/><polygon points="0.0,2.274723623796632 400.0,155.40616701932362 " stroke-opacity="0.25" stroke="green"/><polygon points="75.32448808625492,0.0 400.0,173.37597147494606 " stroke-opacity="0.25" stroke="green"/><polygon points="116.88147820460142,0.0 400.00000000000006,189.43681189801697 " stroke-opacity="0.25" stroke="green"/><polygon points="142.11939133162545,0.0 400.0,203.87753487329294 " stroke-opacity="0.25" stroke="green"/><polygon points="159.07314909016355,0.0 400.0,216.93151093915935 " stroke-opacity="0.25" stroke="green"/><polygon points="171.24652538930576,0.0 400.0,228.7893428514188 " stroke-opacity="0.25" stroke="green"/><polygon points="180.41155091693622,0.0 400.0,239.6082334877556 " stroke-opacity="0.25" stroke="green"/><polygon points="187.56074698530645,-5.684341886080802e-14 400.0,249.51899474806896 " stroke-opacity="0.25" stroke="green"/><polygon points="193.29328673994647,0.0 400.0,258.63136258090157 " stroke-opacity="0.25" stroke="green"/><polygon points="197.99228992450014,0.0 400.0,267.03807723795694 " stroke-opacity="0.25" stroke="green"/><polygon points="-5.684341886080802e-14,292.9051811750159 400.00000000000006,54.917549866113006 " stroke-opacity="0.25" stroke="green"/><polygon points="0.0,218.16160425468271 400.0,84.92481895012914 " stroke-opacity="0.25" stroke="green"/><polygon points="0.0,153.36769534065013 400.0,110.93759944444457 " stroke-opacity="0.25" stroke="green"/><polygon points="0.0,96.66072487730855 400.0,133.70372051791884 " stroke-opacity="0.25" stroke="green"/><polygon points="-5.684341886080802e-14,46.61562609265988 400.00000000000006,153.79530306510884 " stroke-opacity="0.25" stroke="green"/><polygon points="0.0,2.123586146705435 400.0,171.65750166149223 " stroke-opacity="0.25" stroke="green"/><polygon points="66.90734359553906,5.684341886080802e-14 400.0,187.64187401194675 " stroke-opacity="0.25" stroke="green"/><polygon points="106.73451708972969,0.0 400.0,202.02975173099634 " stroke-opacity="0.25" stroke="green"/><polygon points="132.03198524674275,5.684341886080802e-14 400.0,215.0489414863847 " stroke-opacity="0.25" stroke="green"/><polygon points="149.5242093306403,0.0 400.0,226.8858763182152 " stroke-opacity="0.25" stroke="green"/><polygon points="162.3407259954385,0.0 400.0,237.69460039922546 " stroke-opacity="0.25" stroke="green"/><polygon points="172.13525340327018,0.0 400.0,247.60350988030999 " stroke-opacity="0.25" stroke="green"/><polygon points="179.86389818866687,0.0 400.0,256.72047750641116 " stroke-opacity="0.25" stroke="green"/><polygon points="186.11791641346835,0.0 400.0,265.1367957346184 " stroke-opacity="0.25" stroke="green"/><polygon points="191.2825905483068,5.684341886080802e-14 400.0,272.9302443928773 " stroke-opacity="0.25" stroke="green"/><polygon points="0.0,267.19501548224997 400.0,84.57460277019553 " stroke-opacity="0.25" stroke="green"/><polygon points="-5.684341886080802e-14,199.43442270123109 400.00000000000006,110.49710519962683 " stroke-opacity="0.25" stroke="green"/><polygon points="0.0,140.09643739022738 400.0,133.19745366548227 " stroke-opacity="0.25" stroke="green"/><polygon points="0.0,87.70255918948749 400.0,153.2412634847857 " stroke-opacity="0.25" stroke="green"/><polygon points="0.0,41.101205698427634 400.0,171.06908419159006 " stroke-opacity="0.25" stroke="green"/><polygon points="1.3171795653332197,-5.684341886080802e-14 400.0,187.0291561293332 " stroke-opacity="0.25" stroke="green"/><polygon points="63.75017824333577,-5.684341886080802e-14 400.0,201.40038417153636 " stroke-opacity="0.25" stroke="green"/><polygon points="100.7513399890105,0.0 400.0,214.40877558600883 " stroke-opacity="0.25" stroke="green"/><polygon points="125.23059792577943,5.684341886080802e-14 400.0,226.2394131445719 " stroke-opacity="0.25" stroke="green"/><polygon points="142.62451288377986,0.0 400.00000000000006,237.04531701019255 " stroke-opacity="0.25" stroke="green"/><polygon points="155.620377609524,-5.684341886080802e-14 400.0,246.954099444885 " stroke-opacity="0.25" stroke="green"/><polygon points="165.69904534190306,-5.684341886080802e-14 399.99999999999994,256.0730281275377 " stroke-opacity="0.25" stroke="green"/><polygon points="173.74363828689008,0.0 400.0,264.4929250520751 " stroke-opacity="0.25" stroke="green"/><polygon points="180.31348911334558,0.0 400.00000000000006,272.2912018877006 " stroke-opacity="0.25" stroke="green"/><polygon points="185.78007468825243,0.0 400.0,279.5342469927069 " stroke-opacity="0.25" stroke="green"/><polygon points="-5.684341886080802e-14,244.14363860099743 400.00000000000006,110.58938986328847 " stroke-opacity="0.25" stroke="green"/><polygon points="5.684341886080802e-14,181.7260177310598 399.99999999999994,133.39396333891892 " stroke-opacity="0.25" stroke="green"/><polygon points="5.684341886080802e-14,126.64621406638048 399.99999999999994,153.51763053718986 " stroke-opacity="0.25" stroke="green"/><polygon points="-5.684341886080802e-14,77.6821125609545 400.00000000000006,171.40689697968105 " stroke-opacity="0.25" stroke="green"/><polygon points="0.0,33.86871523545517 400.0,187.41432924962135 " stroke-opacity="0.25" stroke="green"/><polygon points="10.735615126840088,0.0 400.0,201.82202495754944 " stroke-opacity="0.25" stroke="green"/><polygon points="64.42252596738149,0.0 400.0,214.85838101884875 " stroke-opacity="0.25" stroke="green"/><polygon points="98.11931647726868,0.0 400.0,226.71029137932513 " stroke-opacity="0.25" stroke="green"/><polygon points="121.23849944125543,0.0 400.0,237.5321644656333 " stroke-opacity="0.25" stroke="green"/><polygon points="138.0849642724682,-5.684341886080802e-14 400.00000000000006,247.45268745464452 " stroke-opacity="0.25" stroke="green"/><polygon points="150.90663596485962,0.0 400.0,256.5799679350119 " stroke-opacity="0.25" stroke="green"/><polygon points="160.9919507182233,-5.684341886080802e-14 400.0,265.0054896055205 " stroke-opacity="0.25" stroke="green"/><polygon points="169.13242315875314,0.0 400.0,272.8071893389137 " stroke-opacity="0.25" stroke="green"/><polygon points="175.841143622389,-5.684341886080802e-14 400.0,280.051875171139 " stroke-opacity="0.25" stroke="green"/><polygon points="181.4653060581572,0.0 400.0,286.79714423397076 " stroke-opacity="0.25" stroke="green"/><polygon points="-5.684341886080802e-14,222.86881028701117 400.00000000000006,134.06967411337266 " stroke-opacity="0.25" stroke="green"/><polygon points="0.0,164.5787853254521 400.0,154.43021305135366 " stroke-opacity="0.25" stroke="green"/><polygon points="-5.684341886080802e-14,112.84502430255634 400.00000000000006,172.50066775453 " stroke-opacity="0.25" stroke="green"/><polygon points="0.0,66.62028301833115 400.0,188.64683762555404 " stroke-opacity="0.25" stroke="green"/><polygon points="-5.684341886080802e-14,25.069079873229384 400.00000000000006,203.16055399664364 " stroke-opacity="0.25" stroke="green"/><polygon points="21.827616894408322,0.0 399.99999999999994,216.27747676501087 " stroke-opacity="0.25" stroke="green"/><polygon points="67.81849797987607,5.684341886080802e-14 400.00000000000006,228.1899887061276 " stroke-opacity="0.25" stroke="green"/><polygon points="98.11727493922,-5.684341886080802e-14 400.0,239.05669378755886 " stroke-opacity="0.25" stroke="green"/><polygon points="119.58472486831673,5.684341886080802e-14 400.0,249.00951908473465 " stroke-opacity="0.25" stroke="green"/><polygon points="135.59087200128295,5.684341886080802e-14 400.00000000000006,258.1590972069457 " stroke-opacity="0.25" stroke="green"/><polygon points="147.9845697560651,-5.684341886080802e-14 400.0,266.5988960969974 " stroke-opacity="0.25" stroke="green"/><polygon points="157.86475576772153,0.0 400.0,274.4084236093447 " stroke-opacity="0.25" stroke="green"/><polygon points="165.925664248803,-5.684341886080802e-14 400.0,281.6557399914925 " stroke-opacity="0.25" stroke="green"/><polygon points="172.6274190847772,0.0 400.0,288.3994465948854 " stroke-opacity="0.25" stroke="green"/><polygon points="178.28704477145325,0.0 400.0,294.6902739251536 " stroke-opacity="0.25" stroke="green"/><polygon points="0.0,202.72608105210634 400.0,155.8071777224353 " stroke-opacity="0.25" stroke="green"/><polygon points="-5.684341886080802e-14,147.62906512852345 400.00000000000006,174.2069193122069 " stroke-opacity="0.25" stroke="green"/><polygon points="0.0,98.52462745335635 400.0,190.6054292675781 " stroke-opacity="0.25" stroke="green"/><polygon points="0.0,54.4855270811851 400.0,205.31236126944597 " stroke-opacity="0.25" stroke="green"/><polygon points="0.0,14.766438300955969 400.0,218.5766180987274 " stroke-opacity="0.25" stroke="green"/><polygon points="33.73355997668483,0.0 400.0,230.60055345831543 " stroke-opacity="0.25" stroke="green"/><polygon points="73.11406645234095,0.0 400.0,241.55036776760934 " stroke-opacity="0.25" stroke="green"/><polygon points="100.14068231912783,0.0 399.99999999999994,251.56383704866255 " stroke-opacity="0.25" stroke="green"/><polygon points="119.83844543186038,0.0 400.0,260.756140363967 " stroke-opacity="0.25" stroke="green"/><polygon points="134.83249062290662,-5.684341886080802e-14 400.0,269.22431006613823 " stroke-opacity="0.25" stroke="green"/><polygon points="146.62794316468387,0.0 400.0,277.0506701832881 " stroke-opacity="0.25" stroke="green"/><polygon points="156.14966152463427,0.0 400.0,284.30552155488635 " stroke-opacity="0.25" stroke="green"/><polygon points="163.99729069411796,0.0 400.00000000000006,291.04925945394973 " stroke-opacity="0.25" stroke="green"/><polygon points="170.57665730944703,0.0 400.0,297.33405887111564 " stroke-opacity="0.25" stroke="green"/><polygon points="176.17222293666163,0.0 399.99999999999994,303.2052270500821 " stroke-opacity="0.25" stroke="green"/><polygon points="0.0,183.210821957167 400.0,176.40265981668637 " stroke-opacity="0.25" stroke="green"/><polygon points="-5.684341886080802e-14,130.56330590071497 400.00000000000006,193.19465674903768 " stroke-opacity="0.25" stroke="green"/><polygon points="-5.684341886080802e-14,83.50862836418914 400.00000000000006,208.20281022011278 " stroke-opacity="0.25" stroke="green"/><polygon points="0.0,41.20053332703128 400.0,221.69703473995162 " stroke-opacity="0.25" stroke="green"/><polygon points="0.0,2.9552972018706782 400.0,233.89540487772078 " stroke-opacity="0.25" stroke="green"/><polygon points="45.93919258727533,0.0 399.99999999999994,244.97603057883677 " stroke-opacity="0.25" stroke="green"/><polygon points="79.70968655462671,-5.684341886080802e-14 400.0,255.08581106228382 " stroke-opacity="0.25" stroke="green"/><polygon points="103.70147198170497,0.0 400.0,264.3469843316667 " stroke-opacity="0.25" stroke="green"/><polygon points="121.62472150530611,0.0 400.0,272.8620938351264 " stroke-opacity="0.25" stroke="green"/><polygon points="135.52341436440346,0.0 400.00000000000006,280.7178012848676 " stroke-opacity="0.25" stroke="green"/><polygon points="146.61625842037782,0.0 400.00000000000006,287.98784671188787 " stroke-opacity="0.25" stroke="green"/><polygon points="155.67501400795805,-5.684341886080802e-14 400.0,294.7353702743569 " stroke-opacity="0.25" stroke="green"/><polygon points="163.21217750177368,5.684341886080802e-14 400.0,301.01475080495834 " stroke-opacity="0.25" stroke="green"/><polygon points="169.58141716275856,0.0 400.0,306.873074513038 " stroke-opacity="0.25" stroke="green"/><polygon points="175.03467702767918,-5.684341886080802e-14 400.0,312.3513178243162 " stroke-opacity="0.25" stroke="green"/><polygon points="0.0,163.89694708049586 400.0,196.34257361555237 " stroke-opacity="0.25" stroke="green"/><polygon points="0.0,113.08797524990813 400.0,211.7865043006169 " stroke-opacity="0.25" stroke="green"/><polygon points="-5.684341886080802e-14,67.60162693940663 400.00000000000006,225.61256661036785 " stroke-opacity="0.25" stroke="green"/><polygon points="0.0,26.6431526385866 400.0,238.06233316295632 " stroke-opacity="0.25" stroke="green"/><polygon points="16.063062066549094,0.0 400.0,249.33156280298408 " stroke-opacity="0.25" stroke="green"/><polygon points="58.143267319933926,0.0 399.99999999999994,259.58056960180573 " stroke-opacity="0.25" stroke="green"/><polygon points="87.17628013671587,0.0 400.00000000000006,268.94189764321516 " stroke-opacity="0.25" stroke="green"/><polygon points="108.41567817923836,0.0 400.00000000000006,277.526084416008 " stroke-opacity="0.25" stroke="green"/><polygon points="124.62827421204574,0.0 400.0,285.4260460475423 " stroke-opacity="0.25" stroke="green"/><polygon points="137.40980049354283,-5.684341886080802e-14 400.0,292.7204541170332 " stroke-opacity="0.25" stroke="green"/><polygon points="147.74520964080364,0.0 400.00000000000006,299.4763646059215 " stroke-opacity="0.25" stroke="green"/><polygon points="156.27537988396682,-5.684341886080802e-14 400.0,305.75128534071695 " stroke-opacity="0.25" stroke="green"/><polygon points="163.4352924306439,0.0 400.0,311.59481703738186 " stroke-opacity="0.25" stroke="green"/><polygon points="169.5305704846217,-5.684341886080802e-14 400.00000000000006,317.0499671370311 " stroke-opacity="0.25" stroke="green"/><polygon points="174.78223837178672,0.0 400.00000000000006,322.1542101008594 " stroke-opacity="0.25" stroke="green"/><polygon points="0.0,144.3943570774373 400.0,216.05029770093302 " stroke-opacity="0.25" stroke="green"/><polygon points="-5.684341886080802e-14,94.90583223590643 400.00000000000006,230.3349190943544 " stroke-opacity="0.25" stroke="green"/><polygon points="-5.684341886080802e-14,50.57764606739207 400.00000000000006,243.13003389120797 " stroke-opacity="0.25" stroke="green"/><polygon points="0.0,10.642665009954612 400.0,254.6570714536657 " stroke-opacity="0.25" stroke="green"/><polygon points="35.12714945078321,0.0 400.00000000000006,265.09564323855005 " stroke-opacity="0.25" stroke="green"/><polygon points="70.1758902587255,0.0 400.00000000000006,274.59296959276656 " stroke-opacity="0.25" stroke="green"/><polygon points="95.21070512154144,0.0 400.0,283.27086651667184 " stroke-opacity="0.25" stroke="green"/><polygon points="113.98681626865333,0.0 400.0,291.23099876363045 " stroke-opacity="0.25" stroke="green"/><polygon points="128.5904582719626,0.0 400.0,298.5588812250403 " stroke-opacity="0.25" stroke="green"/><polygon points="140.27337187461,0.0 400.0,305.3269632795113 " stroke-opacity="0.25" stroke="green"/><polygon points="149.83211936768515,0.0 400.0,311.5970322787751 " stroke-opacity="0.25" stroke="green"/><polygon points="157.79774227858115,0.0 400.00000000000006,317.42210529684814 " stroke-opacity="0.25" stroke="green"/><polygon points="164.53788474164696,0.0 400.0,322.8479319017176 " stroke-opacity="0.25" stroke="green"/><polygon points="170.31514970998907,-5.684341886080802e-14 400.00000000000006,327.91419816862566 " stroke-opacity="0.25" stroke="green"/><polygon points="175.32211268255227,-5.684341886080802e-14 400.0,332.6554990063442 " stroke-opacity="0.25" stroke="green"/><polygon points="0.0,124.31502517166327 400.0,235.92449552438498 " stroke-opacity="0.25" stroke="green"/><polygon points="0.0,75.69390284625904 400.0,249.18057670426597 " stroke-opacity="0.25" stroke="green"/><polygon points="0.0,32.1662102821395 400.0,261.047983267635 " stroke-opacity="0.25" stroke="green"/><polygon points="10.085397009517038,-5.684341886080802e-14 400.0,271.7340656813098 " stroke-opacity="0.25" stroke="green"/><polygon points="52.49148011452951,0.0 400.0,281.40685080248346 " stroke-opacity="0.25" stroke="green"/><polygon points="81.94822881432971,0.0 400.0,290.20394196462655 " stroke-opacity="0.25" stroke="green"/><polygon points="103.6013884324672,5.684341886080802e-14 400.0,298.2391065220814 " stroke-opacity="0.25" stroke="green"/><polygon points="120.1892081536938,0.0 400.00000000000006,305.6072227771906 " stroke-opacity="0.25" stroke="green"/><polygon points="133.3029711010832,-5.684341886080802e-14 400.0,312.38804398398594 " stroke-opacity="0.25" stroke="green"/><polygon points="143.93060391909796,5.684341886080802e-14 400.0,318.6490967884939 " stroke-opacity="0.25" stroke="green"/><polygon points="152.71788048776767,0.0 400.00000000000006,324.44793775139215 " stroke-opacity="0.25" stroke="green"/><polygon points="160.1047427763513,0.0 400.0,329.8339279085618 " stroke-opacity="0.25" stroke="green"/><polygon points="166.40125616404953,-5.684341886080802e-14 400.0,334.8496413385055 " stroke-opacity="0.25" stroke="green"/><polygon points="171.8322419858065,0.0 400.00000000000006,339.53199287478367 " stroke-opacity="0.25" stroke="green"/><polygon points="176.56468800607388,0.0 400.0,343.9131481952862 " stroke-opacity="0.25" stroke="green"/><polygon points="-5.684341886080802e-14,103.24101918916328 400.00000000000006,256.3724625846901 " stroke-opacity="0.25" stroke="green"/><polygon points="-5.684341886080802e-14,55.07944448699749 400.00000000000006,268.67851816275515 " stroke-opacity="0.25" stroke="green"/><polygon points="0.0,12.034158839869974 400.0,279.677279744432 " stroke-opacity="0.25" stroke="green"/><polygon points="33.73306697895035,5.684341886080802e-14 400.0,289.56655483142856 " stroke-opacity="0.25" stroke="green"/><polygon points="68.47532306216232,0.0 400.0,298.5061598993636 " stroke-opacity="0.25" stroke="green"/><polygon points="93.42144785677374,0.0 400.0,306.6266232526507 " stroke-opacity="0.25" stroke="green"/><polygon points="112.20275100060067,0.0 400.0,314.0356003393274 " stroke-opacity="0.25" stroke="green"/><polygon points="126.85314321062997,-5.684341886080802e-14 399.99999999999994,320.8226735760755 " stroke-opacity="0.25" stroke="green"/><polygon points="138.6004718559621,0.0 400.0,327.06299217695624 " stroke-opacity="0.25" stroke="green"/><polygon points="148.22983982846225,-5.684341886080802e-14 400.00000000000006,332.82006638742655 " stroke-opacity="0.25" stroke="green"/><polygon points="156.26666285307377,0.0 400.00000000000006,338.1479367676078 " stroke-opacity="0.25" stroke="green"/><polygon points="163.07583929130365,0.0 400.0,343.09287573517463 " stroke-opacity="0.25" stroke="green"/><polygon points="168.91869923671143,-5.684341886080802e-14 400.0,347.6947349492223 " stroke-opacity="0.25" stroke="green"/><polygon points="173.98731442037112,5.684341886080802e-14 400.0,351.9880216521892 " stroke-opacity="0.25" stroke="green"/><polygon points="178.4260162993477,-5.684341886080802e-14 400.0,356.00276551680196 " stroke-opacity="0.25" stroke="green"/><polygon points="-5.684341886080802e-14,80.68867400434583 400.00000000000006,277.84458477019587 " stroke-opacity="0.25" stroke="green"/><polygon points="0.0,32.609973907561 400.0,289.22601053316936 " stroke-opacity="0.25" stroke="green"/><polygon points="13.22892773878408,0.0 400.0,299.36954558065025 " stroke-opacity="0.25" stroke="green"/><polygon points="54.51021516529201,-5.684341886080802e-14 400.0,308.4667306668478 " stroke-opacity="0.25" stroke="green"/><polygon points="83.32847180015823,5.684341886080802e-14 400.00000000000006,316.67152819984165 " stroke-opacity="0.25" stroke="green"/><polygon points="104.5874433904264,0.0 400.0,324.1091069835577 " stroke-opacity="0.25" stroke="green"/><polygon points="120.91656888137848,0.0 400.0,330.88227268653975 " stroke-opacity="0.25" stroke="green"/><polygon points="133.8524877834202,5.684341886080802e-14 400.0,337.0762486560435 " stroke-opacity="0.25" stroke="green"/><polygon points="144.35331816423928,0.0 400.0,342.76228056379773 " stroke-opacity="0.25" stroke="green"/><polygon points="153.04749167035703,5.684341886080802e-14 400.00000000000006,348.00038917218717 " stroke-opacity="0.25" stroke="green"/><polygon points="160.36432655947416,0.0 400.0,352.8414971971582 " stroke-opacity="0.25" stroke="green"/><polygon points="166.60709898734044,5.684341886080802e-14 400.0,357.32909023776665 " stroke-opacity="0.25" stroke="green"/><polygon points="171.99613550773458,0.0 400.00000000000006,361.50052666195046 " stroke-opacity="0.25" stroke="green"/><polygon points="176.69535762721586,5.684341886080802e-14 400.0,365.3880800633208 " stroke-opacity="0.25" stroke="green"/><polygon points="180.82924613881417,0.0 399.99999999999994,369.01977589148316 " stroke-opacity="0.25" stroke="green"/><polygon points="0.0,56.06217885135325 400.0,300.87630554903063 " stroke-opacity="0.25" stroke="green"/><polygon points="0.0,7.712079994191555 400.0,311.2969183826142 " stroke-opacity="0.25" stroke="green"/><polygon points="39.57862205296746,0.0 400.0,320.54545609383075 " stroke-opacity="0.25" stroke="green"/><polygon points="73.11227058472704,5.684341886080802e-14 400.0,328.8091364160324 " stroke-opacity="0.25" stroke="green"/><polygon points="97.25055731747541,0.0 400.00000000000006,336.237319900775 " stroke-opacity="0.25" stroke="green"/><polygon points="115.4568521358391,0.0 400.00000000000006,342.9506183136276 " stroke-opacity="0.25" stroke="green"/><polygon points="129.67855179302853,-5.684341886080802e-14 400.0,349.04749400006904 " stroke-opacity="0.25" stroke="green"/><polygon points="141.0947234946831,0.0 400.0,354.60912116402847 " stroke-opacity="0.25" stroke="green"/><polygon points="150.46100794244688,-5.684341886080802e-14 400.0,359.70302065942417 " stroke-opacity="0.25" stroke="green"/><polygon points="158.284036291487,0.0 400.0,364.3858147393162 " stroke-opacity="0.25" stroke="green"/><polygon points="164.91619460554043,5.684341886080802e-14 400.0,368.70534070542294 " stroke-opacity="0.25" stroke="green"/><polygon points="170.6101723681535,0.0 400.00000000000006,372.7022910252194 " stroke-opacity="0.25" stroke="green"/><polygon points="175.551890985113,-5.684341886080802e-14 399.99999999999994,376.41149923090063 " stroke-opacity="0.25" stroke="green"/><polygon points="179.88118994959774,0.0 400.0,379.86295775030885 " stroke-opacity="0.25" stroke="green"/><polygon points="183.7052709416983,0.0 400.0,383.0826306779918 " stroke-opacity="0.25" stroke="green"/><polygon points="0.0,28.58663128807339 400.0,326.14639717621253 " stroke-opacity="0.25" stroke="green"/><polygon points="22.895914811241312,0.0 400.0,335.4892465056362 " stroke-opacity="0.25" stroke="green"/><polygon points="62.429987751324774,0.0 400.0000000000001,343.73375021406224 " stroke-opacity="0.25" stroke="green"/><polygon points="90.03582801173921,-5.684341886080802e-14 400.0,351.0628380027339 " stroke-opacity="0.25" stroke="green"/><polygon points="110.40426187960215,0.0 400.0,357.6209535495483 " stroke-opacity="0.25" stroke="green"/><polygon points="126.0515816121694,0.0 400.0,363.52366996418345 " stroke-opacity="0.25" stroke="green"/><polygon points="138.4487446361298,0.0 400.0,368.8645596157961 " stroke-opacity="0.25" stroke="green"/><polygon points="148.51312663180641,5.684341886080802e-14 400.0,373.72019144254773 " stroke-opacity="0.25" stroke="green"/><polygon points="156.84654636048106,0.0 400.0,378.15382532811753 " stroke-opacity="0.25" stroke="green"/><polygon points="163.86020252625093,-5.684341886080802e-14 400.00000000000006,382.21818336815994 " stroke-opacity="0.25" stroke="green"/><polygon points="169.84460732755778,0.0 400.0,385.9575563674658 " stroke-opacity="0.25" stroke="green"/><polygon points="175.01083649043798,5.684341886080802e-14 400.0,389.4094244575871 " stroke-opacity="0.25" stroke="green"/><polygon points="179.51594299400182,5.684341886080802e-14 400.0,392.60571774500113 " stroke-opacity="0.25" stroke="green"/><polygon points="183.47920094136134,0.0 400.0,395.5738069417503 " stroke-opacity="0.25" stroke="green"/><polygon points="186.99282074884837,0.0 399.99999999999994,398.3372891269271 " stroke-opacity="0.25" stroke="green"/><polygon points="3.130132701663456,-5.684341886080802e-14 400.0,354.5660989954204 " stroke-opacity="0.25" stroke="green"/><polygon points="50.72961646630577,0.0 400.0,362.59672232530204 " stroke-opacity="0.25" stroke="green"/><polygon points="82.6975220634143,-5.684341886080802e-14 400.00000000000006,369.62914322998165 " stroke-opacity="0.25" stroke="green"/><polygon points="105.6478989268736,0.0 400.0,375.8385856706873 " stroke-opacity="0.25" stroke="green"/><polygon points="122.9246306078381,0.0 400.0,381.36152903924346 " stroke-opacity="0.25" stroke="green"/><polygon points="136.40017225872086,0.0 400.00000000000006,386.3058559381893 " stroke-opacity="0.25" stroke="green"/><polygon points="147.20469018532424,-5.684341886080802e-14 400.0,390.75796929063074 " stroke-opacity="0.25" stroke="green"/><polygon points="156.0607225645636,0.0 400.0,394.7878846840878 " stroke-opacity="0.25" stroke="green"/><polygon points="163.4517577733012,0.0 400.0,398.45293956232763 " stroke-opacity="0.25" stroke="green"/><polygon points="169.71354328696253,-5.684341886080802e-14 398.9680460574684,400.00000000000006 " stroke-opacity="0.25" stroke="green"/><polygon points="175.08651262045578,5.684341886080802e-14 397.29449823228197,399.99999999999994 " stroke-opacity="0.25" stroke="green"/><polygon points="179.74736680169804,0.0 395.8427567659934,400.0 " stroke-opacity="0.25" stroke="green"/><polygon points="183.82887916150068,5.684341886080802e-14 394.5714660309729,399.99999999999994 " stroke-opacity="0.25" stroke="green"/><polygon points="187.43274707736435,0.0 393.4489497948842,400.0 " stroke-opacity="0.25" stroke="green"/><polygon points="190.63818115572732,0.0 392.45053590162365,400.0 " stroke-opacity="0.25" stroke="green"/><polygon points="37.09668607606483,0.0 400.0,387.4261938337188 " stroke-opacity="0.25" stroke="green"/><polygon points="74.85120045944906,0.0 400.0,393.7240589757005 " stroke-opacity="0.25" stroke="green"/><polygon points="101.02071577033553,0.0 400.0,399.18356890519397 " stroke-opacity="0.25" stroke="green"/><polygon points="120.22824257004989,5.684341886080802e-14 397.2562615183342,399.99999999999994 " stroke-opacity="0.25" stroke="green"/><polygon points="134.9258104225882,-5.684341886080802e-14 394.68884770159264,400.00000000000006 " stroke-opacity="0.25" stroke="green"/><polygon points="146.53494923546978,-5.684341886080802e-14 392.66092963462387,400.00000000000006 " stroke-opacity="0.25" stroke="green"/><polygon points="155.9365716186207,0.0 391.01862694560316,400.0 " stroke-opacity="0.25" stroke="green"/><polygon points="163.70566006150358,-5.684341886080802e-14 389.6615000242057,400.00000000000006 " stroke-opacity="0.25" stroke="green"/><polygon points="170.23346470012675,0.0 388.5212041609486,400.0 " stroke-opacity="0.25" stroke="green"/><polygon points="175.7954625914435,0.0 387.54961822386525,400.0 " stroke-opacity="0.25" stroke="green"/><polygon points="180.59123044115378,0.0 386.71187957467066,400.0 " stroke-opacity="0.25" stroke="green"/><polygon points="184.7689004593616,-5.684341886080802e-14 385.9821120489041,400.00000000000006 " stroke-opacity="0.25" stroke="green"/><polygon points="188.44073277611497,0.0 385.3407057211788,400.0 " stroke-opacity="0.25" stroke="green"/><polygon points="191.69335417662754,5.684341886080802e-14 384.77252837319236,399.99999999999994 " stroke-opacity="0.25" stroke="green"/><polygon points="194.59467936254657,0.0 384.26571646771765,400.0 " stroke-opacity="0.25" stroke="green"/><polygon points="65.87456042502524,0.0 379.12434053773967,400.0 " stroke-opacity="0.25" stroke="green"/><polygon points="96.2701503239736,0.0 378.49171764047605,400.0 " stroke-opacity="0.25" stroke="green"/><polygon points="117.86428132750748,-5.684341886080802e-14 378.0422793579896,400.00000000000006 " stroke-opacity="0.25" stroke="green"/><polygon points="133.99634450379955,0.0 377.706523000592,400.0 " stroke-opacity="0.25" stroke="green"/><polygon points="146.50605101519943,5.684341886080802e-14 377.4461586910501,399.99999999999994 " stroke-opacity="0.25" stroke="green"/><polygon points="156.4903153574491,0.0 377.2383563665602,400.0 " stroke-opacity="0.25" stroke="green"/><polygon points="164.6437708591985,-5.684341886080802e-14 377.0686586354297,400.00000000000006 " stroke-opacity="0.25" stroke="green"/><polygon points="171.42769681482207,-5.684341886080802e-14 376.9274648995247,400.00000000000006 " stroke-opacity="0.25" stroke="green"/><polygon points="177.1604171265409,0.0 376.80814988886493,400.0 " stroke-opacity="0.25" stroke="green"/><polygon points="182.06869743262027,5.684341886080802e-14 376.7059939340657,399.99999999999994 " stroke-opacity="0.25" stroke="green"/><polygon points="186.31845504586724,-5.684341886080802e-14 376.6175438009083,400.00000000000006 " stroke-opacity="0.25" stroke="green"/><polygon points="190.0338852946671,0.0 376.54021461412856,400.0 " stroke-opacity="0.25" stroke="green"/><polygon points="193.30980023585704,0.0 376.4720330519949,400.0 " stroke-opacity="0.25" stroke="green"/><polygon points="196.21983308991005,5.684341886080802e-14 376.41146658753786,399.99999999999994 " stroke-opacity="0.25" stroke="green"/><polygon points="198.82203905005082,0.0 376.3573069190053,400.0 " stroke-opacity="0.25" stroke="green"/><polygon points="90.99815278310936,0.0 351.0342837476111,400.0 " stroke-opacity="0.25" stroke="green"/><polygon points="115.69272627781741,-5.684341886080802e-14 354.92876634520803,400.00000000000006 " stroke-opacity="0.25" stroke="green"/><polygon points="133.57805984999402,0.0 357.74939089918087,400.0 " stroke-opacity="0.25" stroke="green"/><polygon points="147.129264487891,0.0 359.8864972820903,400.0 " stroke-opacity="0.25" stroke="green"/><polygon points="157.75150930760074,5.684341886080802e-14 361.56168910537235,399.99999999999994 " stroke-opacity="0.25" stroke="green"/><polygon points="166.30177877656888,0.0 362.91011796804526,400.0 " stroke-opacity="0.25" stroke="green"/><polygon points="173.3324398838598,0.0 364.0188954627372,400.0 " stroke-opacity="0.25" stroke="green"/><polygon points="179.21554278606823,0.0 364.94669613430716,400.0 " stroke-opacity="0.25" stroke="green"/><polygon points="184.21084818833125,0.0 365.7344858065185,400.0 " stroke-opacity="0.25" stroke="green"/><polygon points="188.50521815681503,0.0 366.4117337498161,400.0 " stroke-opacity="0.25" stroke="green"/><polygon points="192.23651221287693,-5.684341886080802e-14 367.0001812389361,400.00000000000006 " stroke-opacity="0.25" stroke="green"/><polygon points="195.50866202047325,0.0 367.5162189216742,400.0 " stroke-opacity="0.25" stroke="green"/><polygon points="198.40150369295762,-5.684341886080802e-14 367.97243743273737,400.00000000000006 " stroke-opacity="0.25" stroke="green"/><polygon points="200.97737813692856,0.0 368.3786683076212,400.0 " stroke-opacity="0.25" stroke="green"/><polygon points="203.2856744937477,0.0 368.74270051063354,400.0 " stroke-opacity="0.25" stroke="green"/><polygon points="113.50359330842868,0.0 326.2602207305314,400.0 " stroke-opacity="0.25" stroke="green"/><polygon points="133.63432821404217,-5.684341886080802e-14 333.7571709144406,400.00000000000006 " stroke-opacity="0.25" stroke="green"/><polygon points="148.43451149086852,0.0 339.2689536317299,400.0 " stroke-opacity="0.25" stroke="green"/><polygon points="159.7738637459147,0.0 343.4918774033889,400.0 " stroke-opacity="0.25" stroke="green"/><polygon points="168.739219598585,-5.684341886080802e-14 346.8306937219997,400.00000000000006 " stroke-opacity="0.25" stroke="green"/><polygon points="176.00545944658808,0.0 349.5367369151682,400.0 " stroke-opacity="0.25" stroke="green"/><polygon points="182.0137988583893,-5.684341886080802e-14 351.7743214578831,400.00000000000006 " stroke-opacity="0.25" stroke="green"/><polygon points="187.0648601421564,5.684341886080802e-14 353.65540304769206,399.99999999999994 " stroke-opacity="0.25" stroke="green"/><polygon points="191.37054042792346,0.0 355.25889496001344,400.0 " stroke-opacity="0.25" stroke="green"/><polygon points="195.08449520761718,0.0 356.6420205189761,400.0 " stroke-opacity="0.25" stroke="green"/><polygon points="198.3208619797631,0.0 357.8472860287251,400.0 " stroke-opacity="0.25" stroke="green"/><polygon points="201.16619708177913,0.0 358.90692620661025,400.0 " stroke-opacity="0.25" stroke="green"/><polygon points="203.6873322433069,0.0 359.8458300668764,400.0 " stroke-opacity="0.25" stroke="green"/><polygon points="205.93669034242387,0.0 360.68352057812297,400.0 " stroke-opacity="0.25" stroke="green"/><polygon points="207.95596997511242,0.0 361.4355268453868,400.0 " stroke-opacity="0.25" stroke="green"/><polygon points="134.12678321375375,0.0 303.9250788339054,400.0 " stroke-opacity="0.25" stroke="green"/><polygon points="150.48665423847655,-5.684341886080802e-14 314.4299401710516,400.00000000000006 " stroke-opacity="0.25" stroke="green"/><polygon points="162.65318791183563,-5.684341886080802e-14 322.24221136800764,400.00000000000006 " stroke-opacity="0.25" stroke="green"/><polygon points="172.05547753309853,5.684341886080802e-14 328.2795296679989,399.99999999999994 " stroke-opacity="0.25" stroke="green"/><polygon points="179.53947918998432,0.0 333.0850932041509,400.0 " stroke-opacity="0.25" stroke="green"/><polygon points="185.63791289814534,0.0 337.00096762523884,400.0 " stroke-opacity="0.25" stroke="green"/><polygon points="190.7029583453791,0.0 340.25329155915784,400.0 " stroke-opacity="0.25" stroke="green"/><polygon points="194.9767630737755,-5.684341886080802e-14 342.99755072758273,400.00000000000006 " stroke-opacity="0.25" stroke="green"/><polygon points="198.63130113301452,0.0 345.3441716456581,400.0 " stroke-opacity="0.25" stroke="green"/><polygon points="201.79207586870498,0.0 347.37374145499257,400.0 " stroke-opacity="0.25" stroke="green"/><polygon points="204.55282324254128,0.0 349.1464490946319,400.0 " stroke-opacity="0.25" stroke="green"/><polygon points="206.98496483945897,0.0 350.70815518567116,400.0 " stroke-opacity="0.25" stroke="green"/><polygon points="209.14387496773037,0.0 352.0944162083026,400.0 " stroke-opacity="0.25" stroke="green"/><polygon points="211.07314791780325,0.0 353.33322455779364,400.0 " stroke-opacity="0.25" stroke="green"/><polygon points="212.8075722947615,0.0 354.4469183975665,400.0 " stroke-opacity="0.25" stroke="green"/><polygon points="153.41664967758837,-5.684341886080802e-14 283.38452817075097,400.00000000000006 " stroke-opacity="0.25" stroke="green"/><polygon points="166.5599274805667,0.0 296.5278059737293,400.0 " stroke-opacity="0.25" stroke="green"/><polygon points="176.41738583280048,5.684341886080802e-14 306.3852643259631,399.99999999999994 " stroke-opacity="0.25" stroke="green"/><polygon points="184.08429788453782,5.684341886080802e-14 314.05217637770045,399.99999999999994 " stroke-opacity="0.25" stroke="green"/><polygon points="190.21782752592773,-5.684341886080802e-14 320.1857060190904,400.00000000000006 " stroke-opacity="0.25" stroke="green"/><polygon points="195.23616995979216,0.0 325.2040484529548,400.0 " stroke-opacity="0.25" stroke="green"/><polygon points="199.41812198801256,0.0 329.3860004811752,400.0 " stroke-opacity="0.25" stroke="green"/><polygon points="202.9566967811221,0.0 332.92457527428473,400.0 " stroke-opacity="0.25" stroke="green"/><polygon points="205.98976088950172,0.0 335.95763938266435,400.0 " stroke-opacity="0.25" stroke="green"/><polygon points="208.61841645009738,-5.684341886080802e-14 338.58629494326,400.00000000000006 " stroke-opacity="0.25" stroke="green"/><polygon points="210.91849006561858,0.0 340.8863685587812,400.0 " stroke-opacity="0.25" stroke="green"/><polygon points="212.94796678519614,0.0 342.9158452783588,400.0 " stroke-opacity="0.25" stroke="green"/><polygon points="214.7519460914873,0.0 344.7198245846499,400.0 " stroke-opacity="0.25" stroke="green"/><polygon points="216.36603283922148,-5.684341886080802e-14 346.3339113323841,400.00000000000006 " stroke-opacity="0.25" stroke="green"/><polygon points="217.81871091218224,5.684341886080802e-14 347.78658940534484,399.99999999999994 " stroke-opacity="0.25" stroke="green"/><polygon points="171.80402543604714,-5.684341886080802e-14 264.14383258640305,400.00000000000006 " stroke-opacity="0.25" stroke="green"/><polygon points="182.11082682086072,-5.684341886080802e-14 279.7188817592474,400.00000000000006 " stroke-opacity="0.25" stroke="green"/><polygon points="189.88599916628752,0.0 291.46827782171465,400.0 " stroke-opacity="0.25" stroke="green"/><polygon points="195.96027240140566,5.684341886080802e-14 300.64737236268974,399.99999999999994 " stroke-opacity="0.25" stroke="green"/><polygon points="200.8367507342585,0.0 308.01642770670776,400.0 " stroke-opacity="0.25" stroke="green"/><polygon points="204.83792987835642,5.684341886080802e-14 314.0627809439503,399.99999999999994 " stroke-opacity="0.25" stroke="green"/><polygon points="208.18006789532112,5.684341886080802e-14 319.1132288970229,399.99999999999994 " stroke-opacity="0.25" stroke="green"/><polygon points="211.013603017969,0.0 323.3951052251384,400.0 " stroke-opacity="0.25" stroke="green"/><polygon points="213.44642399572345,0.0 327.07144524010016,400.0 " stroke-opacity="0.25" stroke="green"/><polygon points="215.55791985211863,0.0 330.26221709683426,400.0 " stroke-opacity="0.25" stroke="green"/><polygon points="217.40780746915118,0.0 333.0576615343268,400.0 " stroke-opacity="0.25" stroke="green"/><polygon points="219.04186943944865,0.0 335.52696258987623,400.0 " stroke-opacity="0.25" stroke="green"/><polygon points="220.4957943159612,5.684341886080802e-14 337.72405076494,399.99999999999994 " stroke-opacity="0.25" stroke="green"/><polygon points="221.79781317420813,0.0 339.69158724731034,400.0 " stroke-opacity="0.25" stroke="green"/><polygon points="222.9705507987573,-5.684341886080802e-14 341.4637613183186,400.00000000000006 " stroke-opacity="0.25" stroke="green"/><polygon points="189.64629973842105,0.0 245.80471999215075,400.0 " stroke-opacity="0.25" stroke="green"/><polygon points="197.36203737783555,-5.684341886080802e-14 263.73133758003183,400.00000000000006 " stroke-opacity="0.25" stroke="green"/><polygon points="203.20240835129505,0.0 277.30075918370807,400.0 " stroke-opacity="0.25" stroke="green"/><polygon points="207.7770559680172,-5.684341886080802e-14 287.9294200139269,400.00000000000006 " stroke-opacity="0.25" stroke="green"/><polygon points="211.45721413120603,0.0 296.47983879921514,400.0 " stroke-opacity="0.25" stroke="green"/><polygon points="214.48186985843063,0.0 303.5072740349555,400.0 " stroke-opacity="0.25" stroke="green"/><polygon points="217.01183645758678,0.0 309.38535670867196,400.0 " stroke-opacity="0.25" stroke="green"/><polygon points="219.15930096029678,0.0 314.3747403195113,400.0 " stroke-opacity="0.25" stroke="green"/><polygon points="221.0049117413387,-5.684341886080802e-14 318.6628019714262,400.00000000000006 " stroke-opacity="0.25" stroke="green"/><polygon points="222.60813365343307,0.0 322.38770132256695,400.0 " stroke-opacity="0.25" stroke="green"/><polygon points="224.0137746648471,0.0 325.65354446745823,400.0 " stroke-opacity="0.25" stroke="green"/><polygon points="225.25623953065943,-5.684341886080802e-14 328.54026684666627,400.00000000000006 " stroke-opacity="0.25" stroke="green"/><polygon points="226.36238334815405,0.0 331.1102631503417,400.0 " stroke-opacity="0.25" stroke="green"/><polygon points="227.35347469837248,0.0 333.4129484489273,400.0 " stroke-opacity="0.25" stroke="green"/><polygon points="228.24657649817863,5.684341886080802e-14 335.4879664420725,399.99999999999994 " stroke-opacity="0.25" stroke="green"/></svg>
