<?xml version="1.0" encoding="UTF-8"?>
<!DOCTYPE svg PUBLIC "-//W3C//DTD SVG 1.1//EN"
    "http://www.w3.org/Graphics/SVG/1.1/DTD/svg11.dtd"><svg width="400" height="400" stroke="black" fill="none" fill-opacity="0.75" font-size="14" font-style="italic" font-family="sans-serif" xmlns="http://www.w3.org/2000/svg" xmlns:xlink="http://www.w3.org/1999/xlink" version="1.1"><filter id="blur1"><feGaussianBlur stdDeviation="0.5"/></filter><rect width="100%" height="100%" fill="white" stroke="none" fill-opacity="1"/><rect class="bg" fill="black" width="100%" height="100%" stroke="none" fill-opacity="1"/><polyline class="polyline" opacity="0.5" stroke="blue" points="200.0,129.83763425461515 200.73705355147962,59.26529937007007 "/><polyline class="polyline" opacity="0.5" stroke="blue" points="200.0,129.67710291204617 201.48276680984856,58.53557280614757 "/><polyline class="polyline" opacity="0.5" stroke="blue" points="200.0,129.5467422262767 202.23719686089302,57.86835735214436 "/><polyline class="polyline" opacity="0.5" stroke="blue" points="200.0,129.4468790321805 203.0003909593512,57.265184486682244 "/><polyline class="polyline" opacity="0.5" stroke="blue" points="200.0,129.37783017344765 203.77238595142344,56.727577199920205 "/><polyline class="polyline" opacity="0.5" stroke="blue" points="200.0,129.33990191891715 204.5532076887895,56.257046893360695 "/><polyline class="polyline" opacity="0.5" stroke="blue" points="200.0,129.33338936800297 205.34287043578104,55.8550901018362 "/><polyline class="polyline" opacity="0.5" stroke="blue" points="200.0,129.35857584596536 206.1413762715423,55.52318503775041 "/><polyline class="polyline" opacity="0.5" stroke="blue" points="200.0,129.41573228984834 206.94871448920077,55.26278795861825 "/><polyline class="polyline" opacity="0.5" stroke="blue" points="200.0,129.5051166259729 207.76486099426194,55.07532935999495 "/><polyline class="polyline" opacity="0.5" stroke="blue" points="200.0,129.62697313994525 208.58977770463886,54.962209997024985 "/><polyline class="polyline" opacity="0.5" stroke="blue" points="200.0,129.78153184021085 209.4234119549236,54.92479673906624 "/><polyline class="polyline" opacity="0.5" stroke="blue" points="200.0,129.9690078162556 210.2656959077055,54.96441826315251 "/><polyline class="polyline" opacity="0.5" stroke="blue" points="200.0,130.18960059262884 211.1165459749343,55.08236059344924 "/><polyline class="polyline" opacity="0.5" stroke="blue" points="200.0,130.44349348003243 211.9758622525192,55.27986249532313 "/><polyline class="polyline" opacity="0.5" stroke="blue" points="200.0,130.7308529247939 212.84352797153593,55.558110734187494 "/><polyline class="polyline" opacity="0.5" stroke="blue" points="200.0,131.05182785811 213.71940896959262,55.918235210884774 "/><polyline class="polyline" opacity="0.5" stroke="blue" points="200.0,131.40654904651842 214.60335318606684,56.36130398703028 "/><polyline class="polyline" opacity="0.5" stroke="blue" points="200.0,131.7951284451224 215.49519018507814,56.8883182154394 "/><polyline class="polyline" opacity="0.5" stroke="blue" points="200.0,132.217658555159 216.39473071019273,57.50020699250234 "/><polyline class="polyline" opacity="0.5" stroke="blue" points="200.0,132.67421178756666 217.30176627497073,58.19782215112127 "/><polyline class="polyline" opacity="0.5" stroke="blue" points="200.0,133.1648398342677 218.21606879355753,58.98193301458639 "/><polyline class="polyline" opacity="0.5" stroke="blue" points="200.0,133.689573048939 219.13739025558502,59.853221133513244 "/><polyline class="polyline" opacity="0.5" stroke="blue" points="200.0,134.24841983909977 220.06546244968558,60.812275029676755 "/><polyline class="polyline" opacity="0.5" stroke="blue" points="200.0,134.84136607139277 220.99999673992374,61.85958497223757 "/><polyline class="polyline" opacity="0.5" stroke="blue" points="200.0,135.46837449198233 221.94068389942203,62.995537813445765 "/><polyline class="polyline" opacity="0.5" stroke="blue" points="200.0,136.129384164032 222.88719400538685,64.22041191239498 "/><polyline class="polyline" opacity="0.5" stroke="blue" points="200.0,136.82430992425844 223.8391763996328,65.53437217676935 "/><polyline class="polyline" opacity="0.5" stroke="blue" points="200.0,137.55304186058655 224.796259718552,66.93746525374965 "/><polyline class="polyline" opacity="0.5" stroke="blue" points="200.0,138.3154448129527 225.75805199627908,68.42961490229746 "/><polyline class="polyline" opacity="0.5" stroke="blue" points="200.0,139.11135789931663 226.7241408445612,70.01061757989328 "/><polyline class="polyline" opacity="0.5" stroke="blue" points="200.0,139.94059406894948 227.69409371255236,71.68013827744039 "/><polyline class="polyline" opacity="0.5" stroke="blue" points="200.0,140.80293968506493 228.66745822941547,73.43770663643838 "/><polyline class="polyline" opacity="0.5" stroke="blue" points="200.0,141.6981541388489 229.64376263222945,75.28271338265233 "/><polyline class="polyline" opacity="0.5" stroke="blue" points="200.0,142.6259694969276 230.62251628126813,77.21440711034064 "/><polyline class="polyline" opacity="0.5" stroke="blue" points="200.0,143.58609018428302 231.60321026423833,79.23189145062778 "/><polyline class="polyline" opacity="0.5" stroke="blue" points="200.0,144.57819270459026 232.5853180905435,81.3341226568094 "/><polyline class="polyline" opacity="0.5" stroke="blue" points="200.0,145.6019253999033 233.56829647607577,83.51990763824304 "/><polyline class="polyline" opacity="0.5" stroke="blue" points="200.0,146.65690825155926 234.55158621843827,85.7879024729855 "/><polyline class="polyline" opacity="0.5" stroke="blue" points="200.0,147.74273272410397 235.53461316186667,88.13661142750433 "/><polyline class="polyline" opacity="0.5" stroke="blue" points="200.0,148.8589616539661 236.51678925045417,90.56438650958891 "/><polyline class="polyline" opacity="0.5" stroke="blue" points="200.0,150.0051291845175 237.49751366760185,93.06942757804362 "/><polyline class="polyline" opacity="0.5" stroke="blue" points="200.0,151.18074074906255 238.4761740589134,95.6497830298499 "/><polyline class="polyline" opacity="0.5" stroke="blue" points="200.0,152.38527310318935 239.45214783504383,98.30335108226487 "/><polyline class="polyline" opacity="0.5" stroke="blue" points="200.0,153.61817440779956 240.4248035503012,101.02788166379104 "/><polyline class="polyline" opacity="0.5" stroke="blue" points="200.0,154.87886436400532 241.39350235209457,103.82097892413343 "/><polyline class="polyline" opacity="0.5" stroke="blue" points="200.0,156.16673440094507 242.35759949563365,106.68010436918986 "/><polyline class="polyline" opacity="0.5" stroke="blue" points="200.0,157.48114791742452 243.31644591761938,109.60258062282276 "/><polyline class="polyline" opacity="0.5" stroke="blue" points="200.0,158.8214405781328 244.26938986203288,112.58559581268977 "/><polyline class="polyline" opacity="0.5" stroke="blue" points="200.0,160.18692066502348 245.2157785505387,115.62620857280322 "/><polyline class="polyline" opacity="0.5" stroke="blue" points="200.0,161.5768694842773 246.15495988947703,118.72135365079029 "/><polyline class="polyline" opacity="0.5" stroke="blue" points="200.0,162.9905418290871 247.0862842049379,121.86784810309612 "/><polyline class="polyline" opacity="0.5" stroke="blue" points="200.0,164.42716649832366 248.0091059969905,125.06239805666436 "/><polyline class="polyline" opacity="0.5" stroke="blue" points="200.0,165.88594687094874 248.92278570379926,128.3016060109903 "/><polyline class="polyline" opacity="0.5" stroke="blue" points="200.0,167.36606153585268 249.82669146609038,131.5819786499409 "/><polyline class="polyline" opacity="0.5" stroke="blue" points="200.0,168.8666649765942 250.72020088225088,134.899935128422 "/><polyline class="polyline" opacity="0.5" stroke="blue" points="200.0,170.3868883103213 251.60270274425028,138.25181579490027 "/><polyline class="polyline" opacity="0.5" stroke="blue" points="200.0,171.92584007995347 252.47359874457007,141.6338913070177 "/><polyline class="polyline" opacity="0.5" stroke="blue" points="200.0,173.4826070985008 253.3323051444179,145.04237209410735 "/><polyline class="polyline" opacity="0.5" stroke="blue" points="200.0,175.05625534419772 254.17825439368661,148.47341811738778 "/><polyline class="polyline" opacity="0.5" stroke="blue" points="200.0,176.64583090492937 255.01089669339237,151.92314887601583 "/><polyline class="polyline" opacity="0.5" stroke="blue" points="200.0,178.25036097023184 255.82970149169336,155.38765360504638 "/><polyline class="polyline" opacity="0.5" stroke="blue" points="200.0,179.86885486895778 256.63415890504064,158.86300160971845 "/><polyline class="polyline" opacity="0.5" stroke="blue" points="200.0,181.50030515050943 257.4237810565461,162.34525267937408 "/><polyline class="polyline" opacity="0.5" stroke="blue" points="200.0,183.14368870736374 258.19810332426124,165.830467523742 "/><polyline class="polyline" opacity="0.5" stroke="blue" points="200.0,184.797967936439 258.9566854927348,169.31471817428007 "/><polyline class="polyline" opacity="0.5" stroke="blue" points="200.0,186.46209193669011 259.699112801957,172.7940982937765 "/><polyline class="polyline" opacity="0.5" stroke="blue" points="200.0,188.1349977401629 260.424996888581,176.26473333844356 "/><polyline class="polyline" opacity="0.5" stroke="blue" points="200.0,189.81561157359596 261.1339766151431,179.72279051828963 "/><polyline class="polyline" opacity="0.5" stroke="blue" points="200.0,191.50285014752396 261.8257187838635,183.16448850359444 "/><polyline class="polyline" opacity="0.5" stroke="blue" points="200.0,193.19562196971773 262.49991873248695,186.58610682781568 "/><polyline class="polyline" opacity="0.5" stroke="blue" points="200.0,194.8928286796882 263.1563008105157,189.9839949401814 "/><polyline class="polyline" opacity="0.5" stroke="blue" points="200.0,196.59336640088893 263.79461873507637,193.35458086453121 "/><polyline class="polyline" opacity="0.5" stroke="blue" points="200.0,198.29612710717356 264.41465582654087,196.69437942461653 "/><polyline class="polyline" opacity="0.5" stroke="blue" points="200.0,200.0 265.01622512488245,200.0 "/><polyline class="polyline" opacity="0.5" stroke="blue" points="200.0,201.7038728928264 265.59916938857435,203.2681537808637 "/><polyline class="polyline" opacity="0.5" stroke="blue" points="200.0,203.40663359911107 266.1633609786327,206.4956604943801 "/><polyline class="polyline" opacity="0.5" stroke="blue" points="200.0,205.10717132031178 266.7087016311451,209.67945457977055 "/><polyline class="polyline" opacity="0.5" stroke="blue" points="200.0,206.80437803028224 267.2351221223204,212.81659079372054 "/><polyline class="polyline" opacity="0.5" stroke="blue" points="200.0,208.497149852476 267.74258183072595,215.9042492323737 "/><polyline class="polyline" opacity="0.5" stroke="blue" points="200.0,210.18438842640404 268.23106820194636,218.93973976065246 "/><polyline class="polyline" opacity="0.5" stroke="blue" points="200.0,211.8650022598371 268.7005961213963,221.9205058440883 "/><polyline class="polyline" opacity="0.5" stroke="blue" points="200.0,213.53790806330986 269.1512072014518,224.84412778265155 "/><polyline class="polyline" opacity="0.5" stroke="blue" points="200.0,215.20203206356095 269.58296898941865,227.70832535020614 "/><polyline class="polyline" opacity="0.5" stroke="blue" points="200.0,216.85631129263624 269.9959741031437,230.5109598471377 "/><polyline class="polyline" opacity="0.5" stroke="blue" points="200.0,218.49969484949054 270.39033930128363,233.25003557738677 "/><polyline class="polyline" opacity="0.5" stroke="blue" points="200.0,220.1311451310422 270.7662044953916,235.92370076453128 "/><polyline class="polyline" opacity="0.5" stroke="blue" points="200.0,221.74963902976813 271.12373171104895,238.53024792468074 "/><polyline class="polyline" opacity="0.5" stroke="blue" points="200.0,223.35416909507063 271.46310400528154,241.06811371675502 "/><polyline class="polyline" opacity="0.5" stroke="blue" points="200.0,224.94374465580225 271.78452434744116,243.53587829320787 "/><polyline class="polyline" opacity="0.5" stroke="blue" points="200.0,226.5173929014992 272.0882144706215,245.93226417641227 "/><polyline class="polyline" opacity="0.5" stroke="blue" points="200.0,228.0741599200465 272.37441370051147,248.25613468775035 "/><polyline class="polyline" opacity="0.5" stroke="blue" points="200.0,229.61311168967865 272.6433777683751,250.50649195794625 "/><polyline class="polyline" opacity="0.5" stroke="blue" points="200.0,231.1333350234058 272.8953776145891,252.68247454834906 "/><polyline class="polyline" opacity="0.5" stroke="blue" points="200.0,232.63393846414726 273.13069818887817,254.78335471372975 "/><polyline class="polyline" opacity="0.5" stroke="blue" points="200.0,234.11405312905126 273.34963725305886,256.8085353377081 "/><polyline class="polyline" opacity="0.5" stroke="blue" points="200.0,235.57283350167634 273.5525041917532,258.75754657219085 "/><polyline class="polyline" opacity="0.5" stroke="blue" points="200.0,237.0094581709129 273.739618836161,260.6300422121998 "/><polyline class="polyline" opacity="0.5" stroke="blue" points="200.0,238.4231305157227 273.91131030558904,262.4257958372167 "/><polyline class="polyline" opacity="0.5" stroke="blue" points="200.0,239.81307933497646 274.06791587103936,264.14469674968865 "/><polyline class="polyline" opacity="0.5" stroke="blue" points="200.0,241.17855942186716 274.20977984475275,265.78674574065155 "/><polyline class="polyline" opacity="0.5" stroke="blue" points="200.0,242.51885208257548 274.33725249919684,267.3520507115581 "/><polyline class="polyline" opacity="0.5" stroke="blue" points="200.0,243.8332655990549 274.45068901858616,268.8408221803646 "/><polyline class="polyline" opacity="0.5" stroke="blue" points="200.0,245.12113563599468 274.55044848562255,270.2533686987616 "/><polyline class="polyline" opacity="0.5" stroke="blue" points="200.0,246.38182559220044 274.6368929057565,271.5900922061455 "/><polyline class="polyline" opacity="0.5" stroke="blue" points="200.0,247.61472689681065 274.7103862708955,272.8514833445513 "/><polyline class="polyline" opacity="0.5" stroke="blue" points="200.0,248.81925925093745 274.771293664122,274.0381167573108 "/><polyline class="polyline" opacity="0.5" stroke="blue" points="200.0,249.99487081548247 274.8199804066414,275.150646392694 "/><polyline class="polyline" opacity="0.5" stroke="blue" points="200.0,251.14103834603387 274.8568112478531,276.1898008322496 "/><polyline class="polyline" opacity="0.5" stroke="blue" points="200.0,252.257267275896 274.8821495991328,277.15637866199575 "/><polyline class="polyline" opacity="0.5" stroke="blue" points="200.0,253.3430917484407 274.89635681162656,278.0512439030516 "/><polyline class="polyline" opacity="0.5" stroke="blue" points="200.0,254.39807460009666 274.89979149809625,278.8753215167435 "/><polyline class="polyline" opacity="0.5" stroke="blue" points="200.0,255.4218072954097 274.89280889861095,279.6295929976901 "/><polyline class="polyline" opacity="0.5" stroke="blue" points="200.0,256.4139098157169 274.8757602896584,280.31509206687554 "/><polyline class="polyline" opacity="0.5" stroke="blue" points="200.0,257.3740305030724 274.8489924360548,280.9329004752674 "/><polyline class="polyline" opacity="0.5" stroke="blue" points="200.0,258.3018458611511 274.8128470848503,281.4841439271361 "/><polyline class="polyline" opacity="0.5" stroke="blue" points="200.0,259.1970603149351 274.76766050027146,281.96998813089226 "/><polyline class="polyline" opacity="0.5" stroke="blue" points="200.0,260.0594059310505 274.713763038608,282.3916349839823 "/><polyline class="polyline" opacity="0.5" stroke="blue" points="200.0,260.8886421006834 274.6514787618306,282.7503188971727 "/><polyline class="polyline" opacity="0.5" stroke="blue" points="200.0,261.6845551870473 274.5811250886294,283.04730326241787 "/><polyline class="polyline" opacity="0.5" stroke="blue" points="200.0,262.4469581394134 274.503012481481,283.28387706744553 "/><polyline class="polyline" opacity="0.5" stroke="blue" points="200.0,263.17569007574156 274.41744416828726,283.4613516592011 "/><polyline class="polyline" opacity="0.5" stroke="blue" points="200.0,263.870615835968 274.3247158970773,283.5810576573833 "/><polyline class="polyline" opacity="0.5" stroke="blue" points="200.0,264.53162550801767 274.2251157222305,283.6443420184628 "/><polyline class="polyline" opacity="0.5" stroke="blue" points="200.0,265.1586339286073 274.11892382065474,283.65256524981055 "/><polyline class="polyline" opacity="0.5" stroke="blue" points="200.0,265.75158016090023 274.0064123363414,283.6070987728701 "/><polyline class="polyline" opacity="0.5" stroke="blue" points="200.0,266.310426951061 273.88784525172144,283.5093224336828 "/><polyline class="polyline" opacity="0.5" stroke="blue" points="200.0,266.8351601657323 273.7634782842528,283.3606221585196 "/><polyline class="polyline" opacity="0.5" stroke="blue" points="200.0,267.3257882124333 273.63355880668985,283.1623877518798 "/><polyline class="polyline" opacity="0.5" stroke="blue" points="200.0,267.782341444841 273.4983257895101,282.9160108336858 "/><polyline class="polyline" opacity="0.5" stroke="blue" points="200.0,268.20487155487757 273.3580097640046,282.6228829121297 "/><polyline class="polyline" opacity="0.5" stroke="blue" points="200.0,268.5934509534816 273.2128328045784,282.2843935883084 "/><polyline class="polyline" opacity="0.5" stroke="blue" points="200.0,268.94817214189004 273.06300852884755,281.90192888851436 "/><polyline class="polyline" opacity="0.5" stroke="blue" points="200.0,269.2691470752061 272.9087421141681,281.4768697198303 "/><polyline class="polyline" opacity="0.5" stroke="blue" points="200.0,269.55650651996757 272.75023032928175,281.01059044449767 "/><polyline class="polyline" opacity="0.5" stroke="blue" points="200.0,269.81039940737116 272.5876615798146,280.5044575683928 "/><polyline class="polyline" opacity="0.5" stroke="blue" points="200.0,270.0309921837444 272.4212159664225,279.959828538844 "/><polyline class="polyline" opacity="0.5" stroke="blue" points="200.0,270.21846815978915 272.2510653544301,279.3780506469583 "/><polyline class="polyline" opacity="0.5" stroke="blue" points="200.0,270.3730268600547 272.0773734538708,278.7604600295899 "/><polyline class="polyline" opacity="0.5" stroke="blue" points="200.0,270.4948833740271 271.9002959088893,278.1083807660763 "/><polyline class="polyline" opacity="0.5" stroke="blue" points="200.0,270.58426771015166 271.7199803955291,277.42312406487997 "/><polyline class="polyline" opacity="0.5" stroke="blue" points="200.0,270.6414241540346 271.53656672698355,276.70598753531885 "/><polyline class="polyline" opacity="0.5" stroke="blue" points="200.0,270.666610631997 271.3501869654455,275.95825453961976 "/><polyline class="polyline" opacity="0.5" stroke="blue" points="200.0,270.6600980810829 271.16096553974825,275.1811936206069 "/><polyline class="polyline" opacity="0.5" stroke="blue" points="200.0,270.6221698265524 270.96901936804335,274.3760580004251 "/><polyline class="polyline" opacity="0.5" stroke="blue" points="200.0,270.5531209678195 270.7744579848171,273.5440851457983 "/><polyline class="polyline" opacity="0.5" stroke="blue" points="200.0,270.4532577737233 270.57738367159715,272.68649639543594 "/><polyline class="polyline" opacity="0.5" stroke="blue" points="200.0,270.32289708795383 270.3778915907528,271.80449664531943 "/><polyline class="polyline" opacity="0.5" stroke="blue" points="200.0,270.1623657453848 270.1760699218416,270.8992740877287 "/><polyline class="polyline" opacity="0.5" stroke="blue" points="200.0,269.972 269.972,269.972 "/><polyline class="polyline" opacity="0.5" stroke="blue" points="200.0,269.75214496503474 269.7657564559245,269.02382857914586 "/><polyline class="polyline" opacity="0.5" stroke="blue" points="200.0,269.50315406589226 269.5574073570284,268.0558968186043 "/><polyline class="polyline" opacity="0.5" stroke="blue" points="200.0,269.22538850633265 269.347014349405,267.069324423529 "/><polyline class="polyline" opacity="0.5" stroke="blue" points="200.0,268.9192167483744 269.1346328002644,266.0652137611745 "/><polyline class="polyline" opacity="0.5" stroke="blue" points="200.0,268.5850140062913 268.92031194054977,265.0446498430715 "/><polyline class="polyline" opacity="0.5" stroke="blue" points="200.0,268.2231617550332 268.7040950074744,264.00870033583175 "/><polyline class="polyline" opacity="0.5" stroke="blue" points="200.0,267.83404725334816 268.4860193867539,262.95841559756224 "/><polyline class="polyline" opacity="0.5" stroke="blue" points="200.0,267.41806308183163 268.2661167543397,261.8948287370077 "/><polyline class="polyline" opacity="0.5" stroke="blue" points="200.0,266.9756066960834 268.04441321749005,260.81895569267704 "/><polyline class="polyline" opacity="0.5" stroke="blue" points="200.0,266.507079995107 267.82092945504246,259.731795329345 "/><polyline class="polyline" opacity="0.5" stroke="blue" points="200.0,266.0128889050429 267.59568085677756,258.63432954945057 "/><polyline class="polyline" opacity="0.5" stroke="blue" points="200.0,265.4934429782894 267.3686776617891,257.52752341704274 "/><polyline class="polyline" opacity="0.5" stroke="blue" points="200.0,264.9491550080238 267.1399250957973,256.41232529204916 "/><polyline class="polyline" opacity="0.5" stroke="blue" points="200.0,264.3804406581054 266.9094235073648,255.2896669727657 "/><polyline class="polyline" opacity="0.5" stroke="blue" points="200.0,263.7877181083035 266.67716850299234,254.16046384458042 "/><polyline class="polyline" opacity="0.5" stroke="blue" points="200.0,263.1714077147694 266.4431510810913,253.02561503306387 "/><polyline class="polyline" opacity="0.5" stroke="blue" points="200.0,262.53193168563564 266.2073577648458,251.8860035596649 "/><polyline class="polyline" opacity="0.5" stroke="blue" points="200.0,261.8697137716065 265.96977073399256,250.74249649836108 "/><polyline class="polyline" opacity="0.5" stroke="blue" points="200.0,261.185178971373 265.73036795556015,249.5959451317151 "/><polyline class="polyline" opacity="0.5" stroke="blue" points="200.0,260.478753251669 265.48912331362345,248.44718510489074 "/><polyline class="polyline" opacity="0.5" stroke="blue" points="200.0,259.750863281761 265.2460067381376,247.2970365762773 "/><polyline class="polyline" opacity="0.5" stroke="blue" points="200.0,259.0019361821473 265.0009843329293,246.14630436346732 "/><polyline class="polyline" opacity="0.5" stroke="blue" points="200.0,258.2323992872262 264.7540185029288,244.99577808342246 "/><polyline class="polyline" opacity="0.5" stroke="blue" points="200.0,257.44267992167687 264.5050680807362,243.84623228575066 "/><polyline class="polyline" opacity="0.5" stroke="blue" points="200.0,256.6332051902848 264.254088452622,242.69842657810443 "/><polyline class="polyline" opacity="0.5" stroke="blue" points="200.0,255.8044017809305 264.00103168406514,241.55310574279122 "/><polyline class="polyline" opacity="0.5" stroke="blue" points="200.0,254.95669578045243 263.74584664494034,240.4109998437696 "/><polyline class="polyline" opacity="0.5" stroke="blue" points="200.0,254.0905125030843 263.48847913446616,239.2728243232823 "/><polyline class="polyline" opacity="0.5" stroke="blue" points="200.0,253.20627633116106 263.22887200603077,238.13928008745393 "/><polyline class="polyline" opacity="0.5" stroke="blue" points="200.0,252.30441056778096 262.96696529201154,237.01105358025643 "/><polyline class="polyline" opacity="0.5" stroke="blue" points="200.0,251.3853373011075 262.70269632870856,235.8888168453179 "/><polyline class="polyline" opacity="0.5" stroke="blue" points="200.0,250.44947727999033 262.4359998815073,234.77322757512306 "/><polyline class="polyline" opacity="0.5" stroke="blue" points="200.0,249.49724980058122 262.1668082703899,233.66492914722252 "/><polyline class="polyline" opacity="0.5" stroke="blue" points="200.0,248.52907260362144 261.89505149590735,232.56455064713938 "/><polyline class="polyline" opacity="0.5" stroke="blue" points="200.0,247.54536178207363 261.6206573657269,231.4727068777279 "/><polyline class="polyline" opacity="0.5" stroke="blue" points="200.0,246.5465316987732 261.34355162186085,230.38999835480806 "/><polyline class="polyline" opacity="0.5" stroke="blue" points="200.0,245.53299491377368 261.0636580686817,229.31701128896557 "/><polyline class="polyline" opacity="0.5" stroke="blue" points="200.0,244.50516212106325 260.7808987018216,228.25431755347353 "/><polyline class="polyline" opacity="0.5" stroke="blue" points="200.0,243.46344209433028 260.4951938380483,227.20247463835733 "/><polyline class="polyline" opacity="0.5" stroke="blue" points="200.0,242.40824164145965 260.2064622462025,226.16202559068944 "/><polyline class="polyline" opacity="0.5" stroke="blue" points="200.0,241.33996556744404 259.91462127927514,225.13349894126569 "/><polyline class="polyline" opacity="0.5" stroke="blue" points="200.0,240.25901664539796 259.619587007693,224.11740861787933 "/><polyline class="polyline" opacity="0.5" stroke="blue" points="200.0,239.16579559536694 259.32127435387133,223.1142538454725 "/><polyline class="polyline" opacity="0.5" stroke="blue" points="200.0,238.06070107062786 259.019597228086,222.12451903350959 "/><polyline class="polyline" opacity="0.5" stroke="blue" points="200.0,236.94412965118138 258.7144686657025,221.14867365098036 "/><polyline class="polyline" opacity="0.5" stroke="blue" points="200.0,235.8164758441427 258.4058009657891,220.1871720895029 "/><polyline class="polyline" opacity="0.5" stroke="blue" points="200.0,234.6781320907413 258.0935058311329,219.24045351506146 "/><polyline class="polyline" opacity="0.5" stroke="blue" points="200.0,233.5294887796458 257.7774945096584,218.30894170897471 "/><polyline class="polyline" opacity="0.5" stroke="blue" points="200.0,232.37093426633663 257.45767793724195,217.3930448987535 "/><polyline class="polyline" opacity="0.5" stroke="blue" points="200.0,231.202854898252 257.13396688189573,216.49315557956683 "/><polyline class="polyline" opacity="0.5" stroke="blue" points="200.0,230.02563504544207 256.80627208928524,215.60965032709848 "/><polyline class="polyline" opacity="0.5" stroke="blue" points="200.0,228.83965713646765 256.4745044295261,214.74288960263175 "/><polyline class="polyline" opacity="0.5" stroke="blue" points="200.0,227.645301699289 256.138575045193,213.89321755126363 "/><polyline class="polyline" opacity="0.5" stroke="blue" points="200.0,226.44294740689418 255.79839550045642,213.06096179420348 "/><polyline class="polyline" opacity="0.5" stroke="blue" points="200.0,225.23297112742048 255.45387793124797,212.24643321616787 "/><polyline class="polyline" opacity="0.5" stroke="blue" points="200.0,224.01574797853232 255.10493519633883,211.44992574893962 "/><polyline class="polyline" opacity="0.5" stroke="blue" points="200.0,222.7916513858188 254.75148102919775,210.67171615220823 "/><polyline class="polyline" opacity="0.5" stroke="blue" points="200.0,221.56105314498416 254.3934301904818,209.9120637928618 "/><polyline class="polyline" opacity="0.5" stroke="blue" points="200.0,220.32432348760608 254.03069862099233,209.1712104239456 "/><polyline class="polyline" opacity="0.5" stroke="blue" points="200.0,219.0818311502442 253.66320359491579,208.44937996455064 "/><polyline class="polyline" opacity="0.5" stroke="blue" points="200.0,217.8339434466834 253.29086387314987,207.74677828193308 "/><polyline class="polyline" opacity="0.5" stroke="blue" points="200.0,216.58102634310447 252.91359985650047,207.06359297720837 "/><polyline class="polyline" opacity="0.5" stroke="blue" points="200.0,215.32344453597457 252.53133373851864,206.39999317599495 "/><polyline class="polyline" opacity="0.5" stroke="blue" points="200.0,214.06156153245917 252.14398965773054,205.7561293254156 "/><polyline class="polyline" opacity="0.5" stroke="blue" points="200.0,212.7957397331562 251.75149384899908,205.1321329988892 "/><polyline class="polyline" opacity="0.5" stroke="blue" points="200.0,211.52634051696083 251.3537747937404,204.52811671016923 "/><polyline class="polyline" opacity="0.5" stroke="blue" points="200.0,210.25372432787012 250.95076336870497,203.94417373810046 "/><polyline class="polyline" opacity="0.5" stroke="blue" points="200.0,208.97825076354067 250.54239299301958,203.3803779635772 "/><polyline class="polyline" opacity="0.5" stroke="blue" points="200.0,207.70027866541665 250.12859977317447,202.83678372019378 "/><polyline class="polyline" opacity="0.5" stroke="blue" points="200.0,206.42016621024536 249.70932264562816,202.31342566007564 "/><polyline class="polyline" opacity="0.5" stroke="blue" points="200.0,205.13827100280335 249.2845035166925,201.81031863637565 "/><polyline class="polyline" opacity="0.5" stroke="blue" points="200.0,203.85495016965473 248.85408739935167,201.32745760390583 "/><polyline class="polyline" opacity="0.5" stroke="blue" points="200.0,202.57056045376834 248.41802254666072,200.8648175393576 "/><polyline class="polyline" opacity="0.5" stroke="blue" points="200.0,201.28545830981864 247.97626058136288,200.42235338253568 "/><polyline class="polyline" opacity="0.5" stroke="blue" points="200.0,200.0 247.52875662136074,200.0 "/><polyline class="polyline" opacity="0.5" stroke="blue" points="200.0,198.71454169018142 247.07546940067226,199.5976721724685 "/><polyline class="polyline" opacity="0.5" stroke="blue" points="200.0,197.42943954623178 246.6163613855017,199.21526460728734 "/><polyline class="polyline" opacity="0.5" stroke="blue" points="200.0,196.14504983034533 246.15139888505485,198.852651977221 "/><polyline class="polyline" opacity="0.5" stroke="blue" points="200.0,194.8617289971968 245.68055215673115,198.50968898675234 "/><polyline class="polyline" opacity="0.5" stroke="blue" points="200.0,193.5798337897548 245.2037955053286,198.18621046701426 "/><polyline class="polyline" opacity="0.5" stroke="blue" points="200.0,192.29972133458347 244.72110737590185,197.88203150039968 "/><polyline class="polyline" opacity="0.5" stroke="blue" points="200.0,191.02174923645947 244.23247043992484,197.59694757581195 "/><polyline class="polyline" opacity="0.5" stroke="blue" points="200.0,189.74627567213 243.73787167441492,197.33073477542965 "/><polyline class="polyline" opacity="0.5" stroke="blue" points="200.0,188.47365948303928 243.2373024336914,197.08314999376307 "/><polyline class="polyline" opacity="0.5" stroke="blue" points="200.0,187.2042602668439 242.7307585134518,196.85393118967727 "/><polyline class="polyline" opacity="0.5" stroke="blue" points="200.0,185.93843846754098 242.2182402068671,196.64279767194827 "/><polyline class="polyline" opacity="0.5" stroke="blue" points="200.0,184.6765554640255 241.69975235241427,196.44945041880547 "/><polyline class="polyline" opacity="0.5" stroke="blue" points="200.0,183.41897365689564 241.17530437318365,196.27357243179466 "/><polyline class="polyline" opacity="0.5" stroke="blue" points="200.0,182.16605655331665 240.6449103074217,196.11482912417236 "/><polyline class="polyline" opacity="0.5" stroke="blue" points="200.0,180.91816884975594 240.10858883009197,195.97286874391537 "/><polyline class="polyline" opacity="0.5" stroke="blue" points="200.0,179.67567651239398 239.56636326526234,195.84732283129873 "/><polyline class="polyline" opacity="0.5" stroke="blue" points="200.0,178.43894685501596 239.01826158915443,195.7378067108623 "/><polyline class="polyline" opacity="0.5" stroke="blue" points="200.0,177.20834861418135 238.46431642371869,195.64392001745023 "/><polyline class="polyline" opacity="0.5" stroke="blue" points="200.0,175.9842520214678 237.90456502062807,195.56524725587204 "/><polyline class="polyline" opacity="0.5" stroke="blue" points="200.0,174.76702887257963 237.33904923561616,195.50135839359552 "/><polyline class="polyline" opacity="0.5" stroke="blue" points="200.0,173.55705259310594 236.7678154931149,195.45180948574637 "/><polyline class="polyline" opacity="0.5" stroke="blue" points="200.0,172.3546983007111 236.19091474118315,195.41614333155198 "/><polyline class="polyline" opacity="0.5" stroke="blue" points="200.0,171.1603428635325 235.60840239674903,195.39389016123354 "/><polyline class="polyline" opacity="0.5" stroke="blue" points="200.0,169.97436495455804 235.02033828122538,195.38456835221908 "/><polyline class="polyline" opacity="0.5" stroke="blue" points="200.0,168.79714510174804 234.4267865465904,195.38768517342123 "/><polyline class="polyline" opacity="0.5" stroke="blue" points="200.0,167.62906573366354 233.82781559206327,195.40273755620018 "/><polyline class="polyline" opacity="0.5" stroke="blue" points="200.0,166.47051122035427 233.22349797153754,195.42921289051296 "/><polyline class="polyline" opacity="0.5" stroke="blue" points="200.0,165.32186790925883 232.6139102919713,195.466589844637 "/><polyline class="polyline" opacity="0.5" stroke="blue" points="200.0,164.18352415585738 231.99913310296728,195.5143392067488 "/><polyline class="polyline" opacity="0.5" stroke="blue" points="200.0,163.05587034881873 231.37925077781009,195.57192474653908 "/><polyline class="polyline" opacity="0.5" stroke="blue" points="200.0,161.93929892937223 230.75435138626082,195.63880409495385 "/><polyline class="polyline" opacity="0.5" stroke="blue" points="200.0,160.83420440463314 230.12452655944185,195.71442964006687 "/><polyline class="polyline" opacity="0.5" stroke="blue" points="200.0,159.74098335460212 229.48987134717476,195.79824943701456 "/><polyline class="polyline" opacity="0.5" stroke="blue" points="200.0,158.66003443255605 228.8504840681645,195.88970812985943 "/><polyline class="polyline" opacity="0.5" stroke="blue" points="200.0,157.59175835854043 228.20646615345117,195.9882478831919 "/><polyline class="polyline" opacity="0.5" stroke="blue" points="200.0,156.53655790566978 227.55792198357537,196.09330932123606 "/><polyline class="polyline" opacity="0.5" stroke="blue" points="200.0,155.49483787893683 226.90495871992982,196.2043324721891 "/><polyline class="polyline" opacity="0.5" stroke="blue" points="200.0,154.46700508622635 226.24768613078962,196.32075771550095 "/><polyline class="polyline" opacity="0.5" stroke="blue" points="200.0,153.45346830122688 225.58621641253595,196.44202672978636 "/><polyline class="polyline" opacity="0.5" stroke="blue" points="200.0,152.45463821792643 224.9206640066033,196.56758343906023 "/><polyline class="polyline" opacity="0.5" stroke="blue" points="200.0,151.47092739637867 224.2511454126983,196.69687495499403 "/><polyline class="polyline" opacity="0.5" stroke="blue" points="200.0,150.50275019941887 223.57777899884883,196.8293525129113 "/><polyline class="polyline" opacity="0.5" stroke="blue" points="200.0,149.55052272000975 222.9006848088538,196.964472399269 "/><polyline class="polyline" opacity="0.5" stroke="blue" points="200.0,148.61466269889254 222.21998436771125,197.10169686841164 "/><polyline class="polyline" opacity="0.5" stroke="blue" points="200.0,147.69558943221912 221.5358004856076,197.24049504643492 "/><polyline class="polyline" opacity="0.5" stroke="blue" points="200.0,146.79372366883896 220.84825706105357,197.3803438200546 "/><polyline class="polyline" opacity="0.5" stroke="blue" points="200.0,145.90948749691574 220.15747888375205,197.52072870844526 "/><polyline class="polyline" opacity="0.5" stroke="blue" points="200.0,145.04330421954762 219.46359143778048,197.66114471609004 "/><polyline class="polyline" opacity="0.5" stroke="blue" points="200.0,144.19559821906955 218.76672070566588,197.8010971647679 "/><polyline class="polyline" opacity="0.5" stroke="blue" points="200.0,143.36679480971526 218.06699297392169,197.94010250289716 "/><polyline class="polyline" opacity="0.5" stroke="blue" points="200.0,142.55732007832316 217.36453464060702,198.0776890905528 "/><polyline class="polyline" opacity="0.5" stroke="blue" points="200.0,141.76760071277388 216.65947202545564,198.21339795858086 "/><polyline class="polyline" opacity="0.5" stroke="blue" points="200.0,140.99806381785277 215.95193118310817,198.34678354034253 "/><polyline class="polyline" opacity="0.5" stroke="blue" points="200.0,140.24913671823907 215.24203771996415,198.47741437473672 "/><polyline class="polyline" opacity="0.5" stroke="blue" points="200.0,139.52124674833107 214.52991661515236,198.60487377926677 "/><polyline class="polyline" opacity="0.5" stroke="blue" points="200.0,138.81482102862705 213.8156920460978,198.72876049204007 "/><polyline class="polyline" opacity="0.5" stroke="blue" points="200.0,138.13028622839352 213.09948721914162,198.84868928171196 "/><polyline class="polyline" opacity="0.5" stroke="blue" points="200.0,137.4680683143644 212.38142420564725,198.96429152451066 "/><polyline class="polyline" opacity="0.5" stroke="blue" points="200.0,136.82859228523068 211.66162378400185,199.0752157476053 "/><polyline class="polyline" opacity="0.5" stroke="blue" points="200.0,136.2122818916966 210.94020528789594,199.18112813820497 "/><polyline class="polyline" opacity="0.5" stroke="blue" points="200.0,135.61955934189473 210.21728646123793,199.2817130179005 "/><polyline class="polyline" opacity="0.5" stroke="blue" points="200.0,135.05084499197622 209.4929833200333,199.3766732818841 "/><polyline class="polyline" opacity="0.5" stroke="blue" points="200.0,134.50655702171068 208.76741002152932,199.46573080280174 "/><polyline class="polyline" opacity="0.5" stroke="blue" points="200.0,133.98711109495707 208.04067874089907,199.5486267991117 "/><polyline class="polyline" opacity="0.5" stroke="blue" points="200.0,133.49292000489305 207.3128995557094,199.6251221679354 "/><polyline class="polyline" opacity="0.5" stroke="blue" points="200.0,133.0243933039166 206.58418033838834,199.69499778249676 "/><polyline class="polyline" opacity="0.5" stroke="blue" points="200.0,132.58193691816842 205.8546266568805,199.7580547543527 "/><polyline class="polyline" opacity="0.5" stroke="blue" points="200.0,132.16595274665187 205.1243416836486,199.81411466071432 "/><polyline class="polyline" opacity="0.5" stroke="blue" points="200.0,131.7768382449668 204.39342611315328,199.86301973725597 "/><polyline class="polyline" opacity="0.5" stroke="blue" points="200.0,131.4149859937087 203.66197808791443,199.9046330368957 "/><polyline class="polyline" opacity="0.5" stroke="blue" points="200.0,131.08078325162558 202.93009313323154,199.93883855511297 "/><polyline class="polyline" opacity="0.5" stroke="blue" points="200.0,130.77461149366735 202.19786410061369,199.96554132244606 "/><polyline class="polyline" opacity="0.5" stroke="blue" points="200.0,130.49684593410774 201.46538111994516,199.98466746487912 "/><polyline class="polyline" opacity="0.5" stroke="blue" points="200.0,130.24785503496526 200.732731560388,199.99616423289206 "/><polyline class="polyline" opacity="0.5" stroke="blue" points="200.0,130.028 200.0,200.0 "/><polyline class="polyline" opacity="0.5" stroke="blue" points="200.0,129.83763425461518 199.2672682040241,199.99616423165875 "/><polyline class="polyline" opacity="0.5" stroke="blue" points="200.0,129.67710291204617 198.5346151117838,199.98466742545108 "/><polyline class="polyline" opacity="0.5" stroke="blue" points="200.0,129.5467422262767 197.80211683210143,199.9655410235043 "/><polyline class="polyline" opacity="0.5" stroke="blue" points="200.0,129.44687903218053 197.0698466471336,199.93883729811543 "/><polyline class="polyline" opacity="0.5" stroke="blue" points="200.0,129.37783017344765 196.33787502450602,199.90462921157996 "/><polyline class="polyline" opacity="0.5" stroke="blue" points="200.0,129.33990191891715 195.60626963760862,199.8630102512331 "/><polyline class="polyline" opacity="0.5" stroke="blue" points="200.0,129.333389368003 194.87509539390177,199.81409424071953 "/><polyline class="polyline" opacity="0.5" stroke="blue" points="200.0,129.3585758459654 194.14441447106722,199.75801512850674 "/><polyline class="polyline" opacity="0.5" stroke="blue" points="200.0,129.41573228984834 193.41428636082813,199.69492675465202 "/><polyline class="polyline" opacity="0.5" stroke="blue" points="200.0,129.5051166259729 192.68476792024902,199.62500259682008 "/><polyline class="polyline" opacity="0.5" stroke="blue" points="200.0,129.62697313994525 191.95591343031936,199.54843549653208 "/><polyline class="polyline" opacity="0.5" stroke="blue" points="200.0,129.78153184021085 191.22777466161324,199.46543736660277 "/><polyline class="polyline" opacity="0.5" stroke="blue" points="200.0,129.9690078162556 190.50040094681233,199.37623888069578 "/><polyline class="polyline" opacity="0.5" stroke="blue" points="200.0,130.18960059262884 189.77383925987152,199.28108914589433 "/><polyline class="polyline" opacity="0.5" stroke="blue" points="200.0,130.44349348003243 189.04813430160183,199.1802553591477 "/><polyline class="polyline" opacity="0.5" stroke="blue" points="200.0,130.73085292479388 188.32332859144088,199.07402244841435 "/><polyline class="polyline" opacity="0.5" stroke="blue" points="200.0,131.05182785811 187.59946256517654,198.96269269927674 "/><polyline class="polyline" opacity="0.5" stroke="blue" points="200.0,131.40654904651842 186.8765746783884,198.84658536775808 "/><polyline class="polyline" opacity="0.5" stroke="blue" points="200.0,131.7951284451224 186.15470151536795,198.72603628001875 "/><polyline class="polyline" opacity="0.5" stroke="blue" points="200.0,132.217658555159 185.43387790327762,198.6013974195594 "/><polyline class="polyline" opacity="0.5" stroke="blue" points="200.0,132.67421178756666 184.71413703130855,198.47303650250194 "/><polyline class="polyline" opacity="0.5" stroke="blue" points="200.0,133.16483983426764 183.99551057459533,198.3413365414646 "/><polyline class="polyline" opacity="0.5" stroke="blue" points="200.0,133.689573048939 183.27802882264697,198.2066953984879 "/><polyline class="polyline" opacity="0.5" stroke="blue" points="200.0,134.24841983909974 182.5617208120541,198.0695253274117 "/><polyline class="polyline" opacity="0.5" stroke="blue" points="200.0,134.8413660713927 181.84661446323094,197.93025250604188 "/><polyline class="polyline" opacity="0.5" stroke="blue" points="200.0,135.46837449198227 181.13273672095457,197.7893165583885 "/><polyline class="polyline" opacity="0.5" stroke="blue" points="200.0,136.129384164032 180.42011369846165,197.64717006719437 "/><polyline class="polyline" opacity="0.5" stroke="blue" points="200.0,136.8243099242584 179.7087708248662,197.5042780769168 "/><polyline class="polyline" opacity="0.5" stroke="blue" points="200.0,137.55304186058652 178.99873299566107,197.36111758726466 "/><polyline class="polyline" opacity="0.5" stroke="blue" points="200.0,138.3154448129527 178.29002472606732,197.21817703733697 "/><polyline class="polyline" opacity="0.5" stroke="blue" points="200.0,139.11135789931654 177.58267030699653,197.07595578035176 "/><polyline class="polyline" opacity="0.5" stroke="blue" points="200.0,139.94059406894942 176.87669396338944,196.93496354890033 "/><polyline class="polyline" opacity="0.5" stroke="blue" points="200.0,140.80293968506484 176.1721200146969,196.79571991060988 "/><polyline class="polyline" opacity="0.5" stroke="blue" points="200.0,141.69815413884882 175.46897303726584,196.65875371404536 "/><polyline class="polyline" opacity="0.5" stroke="blue" points="200.0,142.62596949692755 174.76727802839397,196.52460252463658 "/><polyline class="polyline" opacity="0.5" stroke="blue" points="200.0,143.586090184283 174.0670605718143,196.39381205036835 "/><polyline class="polyline" opacity="0.5" stroke="blue" points="200.0,144.5781927045902 173.3683470043688,196.26693555693305 "/><polyline class="polyline" opacity="0.5" stroke="blue" points="200.0,145.60192539990328 172.67116458362807,196.1445332720034 "/><polyline class="polyline" opacity="0.5" stroke="blue" points="200.0,146.65690825155923 171.97554165621045,196.02717177825153 "/><polyline class="polyline" opacity="0.5" stroke="blue" points="200.0,147.74273272410392 171.2815078265495,195.91542339470692 "/><polyline class="polyline" opacity="0.5" stroke="blue" points="200.0,148.85896165396605 170.58909412585547,195.80986554602177 "/><polyline class="polyline" opacity="0.5" stroke="blue" points="200.0,150.00512918451744 169.89833318100955,195.71108011918776 "/><polyline class="polyline" opacity="0.5" stroke="blue" points="200.0,151.1807407490625 169.20925938312496,195.6196528072336 "/><polyline class="polyline" opacity="0.5" stroke="blue" points="200.0,152.38527310318926 168.52190905550077,195.5361724394178 "/><polyline class="polyline" opacity="0.5" stroke="blue" points="200.0,153.6181744077995 167.8363206206882,195.46123029742645 "/><polyline class="polyline" opacity="0.5" stroke="blue" points="200.0,154.8788643640052 167.15253476638082,195.39541941708214 "/><polyline class="polyline" opacity="0.5" stroke="blue" points="200.0,156.16673440094502 166.47059460982905,195.33933387507653 "/><polyline class="polyline" opacity="0.5" stroke="blue" points="200.0,157.48114791742444 165.79054586047363,195.29356806024785 "/><polyline class="polyline" opacity="0.5" stroke="blue" points="200.0,158.82144057813272 165.11243698047863,195.25871592894174 "/><polyline class="polyline" opacity="0.5" stroke="blue" points="200.0,160.18692066502342 164.4363193428369,195.2353702440174 "/><polyline class="polyline" opacity="0.5" stroke="blue" points="200.0,161.57686948427718 163.7622473867068,195.2241217970897 "/><polyline class="polyline" opacity="0.5" stroke="blue" points="200.0,162.990541829087 163.09027876962983,195.22555861363617 "/><polyline class="polyline" opacity="0.5" stroke="blue" points="200.0,164.42716649832357 162.4204745162643,195.24026514064002 "/><polyline class="polyline" opacity="0.5" stroke="blue" points="200.0,165.88594687094866 161.75289916325903,195.26882141649287 "/><polyline class="polyline" opacity="0.5" stroke="blue" points="200.0,167.36606153585265 161.08762089987752,195.31180222293875 "/><polyline class="polyline" opacity="0.5" stroke="blue" points="200.0,168.8666649765941 160.42471170397013,195.36977621890762 "/><polyline class="polyline" opacity="0.5" stroke="blue" points="200.0,170.38688831032118 159.76424747287896,195.44330505616006 "/><polyline class="polyline" opacity="0.5" stroke="blue" points="200.0,171.92584007995336 159.10630814884644,195.53294247674782 "/><polyline class="polyline" opacity="0.5" stroke="blue" points="200.0,173.4826070985007 158.45097783848684,195.63923339238352 "/><polyline class="polyline" opacity="0.5" stroke="blue" points="200.0,175.05625534419767 157.7983449258661,195.7627129459105 "/><polyline class="polyline" opacity="0.5" stroke="blue" points="200.0,176.64583090492923 157.1485021787247,195.9039055551708 "/><polyline class="polyline" opacity="0.5" stroke="blue" points="200.0,178.25036097023178 156.501546847365,196.0633239396808 "/><polyline class="polyline" opacity="0.5" stroke="blue" points="200.0,179.8688548689577 155.85758075571647,196.2414681306463 "/><polyline class="polyline" opacity="0.5" stroke="blue" points="200.0,181.50030515050938 155.2167103840791,196.4388244649778 "/><polyline class="polyline" opacity="0.5" stroke="blue" points="200.0,183.14368870736362 154.5790469430404,196.655864564102 "/><polyline class="polyline" opacity="0.5" stroke="blue" points="200.0,184.79796793643894 153.94470643805047,196.89304429850972 "/><polyline class="polyline" opacity="0.5" stroke="blue" points="200.0,186.46209193669 153.3138097241375,197.15080273912977 "/><polyline class="polyline" opacity="0.5" stroke="blue" points="200.0,188.13499774016282 152.68648255023848,197.42956109677542 "/><polyline class="polyline" opacity="0.5" stroke="blue" points="200.0,189.81561157359585 152.062855592621,197.7297216510714 "/><polyline class="polyline" opacity="0.5" stroke="blue" points="200.0,191.5028501475239 151.44306447686967,198.0516666704384 "/><polyline class="polyline" opacity="0.5" stroke="blue" points="200.0,193.19562196971765 150.82724978791475,198.3957573248827 "/><polyline class="polyline" opacity="0.5" stroke="blue" points="200.0,194.89282867968805 150.21555706758394,198.76233259351625 "/><polyline class="polyline" opacity="0.5" stroke="blue" points="200.0,196.5933664008888 149.60813679916822,199.15170816891066 "/><polyline class="polyline" opacity="0.5" stroke="blue" points="200.0,198.29612710717342 149.0051443785004,199.5641753605713 "/><polyline class="polyline" opacity="0.5" stroke="blue" points="200.0,200.0 148.4067400710617,200.0 "/><polyline class="polyline" opacity="0.5" stroke="blue" points="200.0,201.70387289282633 147.81308895464764,200.45942134999686 "/><polyline class="polyline" opacity="0.5" stroke="blue" points="200.0,203.406633599111 147.22436084714437,200.94265102103685 "/><polyline class="polyline" opacity="0.5" stroke="blue" points="200.0,205.10717132031166 146.64073021899355,201.44987189773187 "/><polyline class="polyline" opacity="0.5" stroke="blue" points="200.0,206.80437803028215 146.06237608994985,201.98123707856993 "/><polyline class="polyline" opacity="0.5" stroke="blue" points="200.0,208.4971498524759 145.48948190976884,202.53686883229025 "/><polyline class="polyline" opacity="0.5" stroke="blue" points="200.0,210.18438842640396 144.92223542249928,203.11685757442055 "/><polyline class="polyline" opacity="0.5" stroke="blue" points="200.0,211.86500225983707 144.3608285140947,203.72126086765658 "/><polyline class="polyline" opacity="0.5" stroke="blue" points="200.0,213.53790806330986 143.80545704310322,204.35010244991315 "/><polyline class="polyline" opacity="0.5" stroke="blue" points="200.0,215.20203206356103 143.25632065424603,205.0033712940088 "/><polyline class="polyline" opacity="0.5" stroke="blue" points="200.0,216.85631129263618 142.71362257474541,205.68102070307006 "/><polyline class="polyline" opacity="0.5" stroke="blue" points="200.0,218.4996948494905 142.1775693933241,206.38296744584733 "/><polyline class="polyline" opacity="0.5" stroke="blue" points="200.0,220.1311451310422 141.64837082185824,207.10909093622467 "/><polyline class="polyline" opacity="0.5" stroke="blue" points="200.0,221.74963902976802 141.126239439732,207.8592324612793 "/><polyline class="polyline" opacity="0.5" stroke="blue" points="200.0,223.35416909507057 140.6113904210127,208.63319446229696 "/><polyline class="polyline" opacity="0.5" stroke="blue" points="200.0,224.94374465580225 140.10404124463963,209.4307398731789 "/><polyline class="polyline" opacity="0.5" stroke="blue" points="200.0,226.51739290149922 139.6044113878944,210.2515915206854 "/><polyline class="polyline" opacity="0.5" stroke="blue" points="200.0,228.07415992004644 139.1127220035038,211.09543159093843 "/><polyline class="polyline" opacity="0.5" stroke="blue" points="200.0,229.61311168967865 138.629195580807,211.96190116656484 "/><polyline class="polyline" opacity="0.5" stroke="blue" points="200.0,231.13333502340578 138.15405559150645,212.85059983878438 "/><polyline class="polyline" opacity="0.5" stroke="blue" points="200.0,232.63393846414732 137.6875261206057,213.7610853986498 "/><polyline class="polyline" opacity="0.5" stroke="blue" points="200.0,234.1140531290512 137.2298314832308,214.6928736115096 "/><polyline class="polyline" opacity="0.5" stroke="blue" points="200.0,235.5728335016763 136.78119582811684,215.6454380786053 "/><polyline class="polyline" opacity="0.5" stroke="blue" points="200.0,237.0094581709129 136.3418427286349,216.61821018951747 "/><polyline class="polyline" opacity="0.5" stroke="blue" points="200.0,238.4231305157228 135.91199476232174,217.61057916895248 "/><polyline class="polyline" opacity="0.5" stroke="blue" points="200.0,239.8130793349764 135.49187307996414,218.6218922211006 "/><polyline class="polyline" opacity="0.5" stroke="blue" points="200.0,241.17855942186716 135.08169696537684,219.65145477451017 "/><polyline class="polyline" opacity="0.5" stroke="blue" points="200.0,242.51885208257548 134.68168338709705,220.6985308300982 "/><polyline class="polyline" opacity="0.5" stroke="blue" points="200.0,243.8332655990548 134.29204654330033,221.76234341457013 "/><polyline class="polyline" opacity="0.5" stroke="blue" points="200.0,245.12113563599462 133.91299740131842,222.84207514113973 "/><polyline class="polyline" opacity="0.5" stroke="blue" points="200.0,246.3818255922004 133.54474323321608,223.93686887902965 "/><polyline class="polyline" opacity="0.5" stroke="blue" points="200.0,247.61472689681065 133.18748714894622,225.04582853280309 "/><polyline class="polyline" opacity="0.5" stroke="blue" points="200.0,248.8192592509374 132.84142762866833,226.1680199321137 "/><polyline class="polyline" opacity="0.5" stroke="blue" points="200.0,249.99487081548244 132.50675805586684,227.30247183198384 "/><polyline class="polyline" opacity="0.5" stroke="blue" points="200.0,251.1410383460339 132.18366625295357,228.44817702321842 "/><polyline class="polyline" opacity="0.5" stroke="blue" points="200.0,252.25726727589603 131.872334021077,229.6040935520497 "/><polyline class="polyline" opacity="0.5" stroke="blue" points="200.0,253.34309174844068 131.57293668589006,230.7691460475763 "/><polyline class="polyline" opacity="0.5" stroke="blue" points="200.0,254.39807460009666 131.28564265104924,231.94222715502434 "/><polyline class="polyline" opacity="0.5" stroke="blue" points="200.0,255.4218072954097 131.0106129612272,233.1221990723128 "/><polyline class="polyline" opacity="0.5" stroke="blue" points="200.0,256.41390981571686 130.7480008764211,234.30789518686308 "/><polyline class="polyline" opacity="0.5" stroke="blue" points="200.0,257.37403050307233 130.49795145932842,235.49812180904775 "/><polyline class="polyline" opacity="0.5" stroke="blue" points="200.0,258.3018458611511 130.2606011775407,236.6916599981372 "/><polyline class="polyline" opacity="0.5" stroke="blue" points="200.0,259.19706031493513 130.03607752227094,237.8872674760812 "/><polyline class="polyline" opacity="0.5" stroke="blue" points="200.0,260.0594059310505 129.82449864528877,239.0836806239486 "/><polyline class="polyline" opacity="0.5" stroke="blue" points="200.0,260.88864210068334 129.6259730156812,240.27961655536183 "/><polyline class="polyline" opacity="0.5" stroke="blue" points="200.0,261.6845551870473 129.44059909799057,241.47377526079333 "/><polyline class="polyline" opacity="0.5" stroke="blue" points="200.0,262.4469581394135 129.26846505320447,242.6648418161575 "/><polyline class="polyline" opacity="0.5" stroke="blue" points="200.0,263.1756900757415 129.10964846398628,243.8514886487207 "/><polyline class="polyline" opacity="0.5" stroke="blue" points="200.0,263.870615835968 128.9642160854363,245.0323778529864 "/><polyline class="polyline" opacity="0.5" stroke="blue" points="200.0,264.53162550801767 128.8322236225684,246.20616354887633 "/><polyline class="polyline" opacity="0.5" stroke="blue" points="200.0,265.1586339286073 128.7137155355706,247.37149427424643 "/><polyline class="polyline" opacity="0.5" stroke="blue" points="200.0,265.7515801609002 128.60872487379683,248.52701540352686 "/><polyline class="polyline" opacity="0.5" stroke="blue" points="200.0,266.310426951061 128.5172731393049,249.67137158408568 "/><polyline class="polyline" opacity="0.5" stroke="blue" points="200.0,266.8351601657323 128.43937018062155,250.8032091817652 "/><polyline class="polyline" opacity="0.5" stroke="blue" points="200.0,267.3257882124333 128.3750141172714,251.92117872695195 "/><polyline class="polyline" opacity="0.5" stroke="blue" points="200.0,267.782341444841 128.3241912954647,253.0239373524945 "/><polyline class="polyline" opacity="0.5" stroke="blue" points="200.0,268.20487155487757 128.2868762751864,254.11015121479915 "/><polyline class="polyline" opacity="0.5" stroke="blue" points="200.0,268.5934509534816 128.2630318487815,255.17849788949746 "/><polyline class="polyline" opacity="0.5" stroke="blue" points="200.0,268.94817214189 128.25260909097886,256.2276687331989 "/><polyline class="polyline" opacity="0.5" stroke="blue" points="200.0,269.2691470752061 128.25554744014528,257.2563712030119 "/><polyline class="polyline" opacity="0.5" stroke="blue" points="200.0,269.55650651996757 128.2717748104135,258.2633311257387 "/><polyline class="polyline" opacity="0.5" stroke="blue" points="200.0,269.81039940737116 128.30120773417906,259.2472949089212 "/><polyline class="polyline" opacity="0.5" stroke="blue" points="200.0,270.0309921837444 128.34375153432097,260.20703168623004 "/><polyline class="polyline" opacity="0.5" stroke="blue" points="200.0,270.21846815978915 128.39930052536147,261.1413353900543 "/><polyline class="polyline" opacity="0.5" stroke="blue" points="200.0,270.3730268600548 128.46773824264884,262.04902674454746 "/><polyline class="polyline" opacity="0.5" stroke="blue" points="200.0,270.4948833740271 128.54893769852345,262.9289551728306 "/><polyline class="polyline" opacity="0.5" stroke="blue" points="200.0,270.58426771015166 128.64276166430795,263.7800006125224 "/><polyline class="polyline" opacity="0.5" stroke="blue" points="200.0,270.6414241540346 128.74906297685618,264.6010752342736 "/><polyline class="polyline" opacity="0.5" stroke="blue" points="200.0,270.66661063199706 128.86768486829297,265.39112505851017 "/><polyline class="polyline" opacity="0.5" stroke="blue" points="200.0,270.6600980810829 128.99846131749126,266.14913146614094 "/><polyline class="polyline" opacity="0.5" stroke="blue" points="200.0,270.6221698265524 129.1412174217503,266.8741125995522 "/><polyline class="polyline" opacity="0.5" stroke="blue" points="200.0,270.5531209678195 129.29576978707146,267.56512465078936 "/><polyline class="polyline" opacity="0.5" stroke="blue" points="200.0,270.4532577737233 129.4619269353717,268.2212630344155 "/><polyline class="polyline" opacity="0.5" stroke="blue" points="200.0,270.32289708795383 129.6394897269265,268.8416634431212 "/><polyline class="polyline" opacity="0.5" stroke="blue" points="200.0,270.1623657453848 129.8282517963005,269.4255027847523 "/><polyline class="polyline" opacity="0.5" stroke="blue" points="200.0,269.972 130.028,269.972 "/><polyline class="polyline" opacity="0.5" stroke="blue" points="200.0,269.75214496503474 130.2385148740685,270.48041676057187 "/><polyline class="polyline" opacity="0.5" stroke="blue" points="200.0,269.50315406589226 130.45957109984522,270.95005804821983 "/><polyline class="polyline" opacity="0.5" stroke="blue" points="200.0,269.2253885063327 130.69093797611478,271.3802726155401 "/><polyline class="polyline" opacity="0.5" stroke="blue" points="200.0,268.9192167483744 130.93237989589608,271.77045332997886 "/><polyline class="polyline" opacity="0.5" stroke="blue" points="200.0,268.5850140062913 131.18365682614623,272.1200374029745 "/><polyline class="polyline" opacity="0.5" stroke="blue" points="200.0,268.22316175503323 131.4445247886939,272.42850650663263 "/><polyline class="polyline" opacity="0.5" stroke="blue" points="200.0,267.83404725334816 131.71473634076287,272.69538678077083 "/><polyline class="polyline" opacity="0.5" stroke="blue" points="200.0,267.41806308183163 131.99404105349973,272.9202487335754 "/><polyline class="polyline" opacity="0.5" stroke="blue" points="200.0,266.97560669608345 132.2821859869831,273.10270703948913 "/><polyline class="polyline" opacity="0.5" stroke="blue" points="200.0,266.507079995107 132.57891616025833,273.24242023828754 "/><polyline class="polyline" opacity="0.5" stroke="blue" points="200.0,266.0128889050429 132.88397501501476,273.33909033960515 "/><polyline class="polyline" opacity="0.5" stroke="blue" points="200.0,265.4934429782894 133.19710487160336,273.3924623374453 "/><polyline class="polyline" opacity="0.5" stroke="blue" points="200.0,264.94915500802387 133.5180473761727,273.4023236394353 "/><polyline class="polyline" opacity="0.5" stroke="blue" points="200.0,264.3804406581054 133.84654393778965,273.36850341578884 "/><polyline class="polyline" opacity="0.5" stroke="blue" points="200.0,263.78771810830347 134.18233615449782,273.2908718730958 "/><polyline class="polyline" opacity="0.5" stroke="blue" points="200.0,263.1714077147693 134.52516622735936,273.16933945818704 "/><polyline class="polyline" opacity="0.5" stroke="blue" points="200.0,262.5319316856357 134.87477736161617,273.0038559974107 "/><polyline class="polyline" opacity="0.5" stroke="blue" points="200.0,261.86971377160654 135.23091415419992,272.794409776717 "/><polyline class="polyline" opacity="0.5" stroke="blue" points="200.0,261.185178971373 135.59332296691065,272.5410265679732 "/><polyline class="polyline" opacity="0.5" stroke="blue" points="200.0,260.478753251669 135.9617522846779,272.243768606927 "/><polyline class="polyline" opacity="0.5" stroke="blue" points="200.0,259.750863281761 136.33595305840547,271.90273352820407 "/><polyline class="polyline" opacity="0.5" stroke="blue" points="200.0,259.0019361821473 136.715679031991,271.5180532626658 "/><polyline class="polyline" opacity="0.5" stroke="blue" points="200.0,258.2323992872262 137.10068705319546,271.0898929023707 "/><polyline class="polyline" opacity="0.5" stroke="blue" points="200.0,257.4426799216769 137.4907373681231,270.61844953827375 "/><polyline class="polyline" opacity="0.5" stroke="blue" points="200.0,256.63320519028485 137.88559389915005,270.10395107567126 "/><polyline class="polyline" opacity="0.5" stroke="blue" points="200.0,255.8044017809305 138.28502450621588,269.5466550322544 "/><polyline class="polyline" opacity="0.5" stroke="blue" points="200.0,254.95669578045243 138.68880123146778,268.9468473234688 "/><polyline class="polyline" opacity="0.5" stroke="blue" points="200.0,254.09051250308443 139.09670052731212,268.30484103970036 "/><polyline class="polyline" opacity="0.5" stroke="blue" points="200.0,253.20627633116106 139.50850346799388,267.62097521962187 "/><polyline class="polyline" opacity="0.5" stroke="blue" points="200.0,252.30441056778093 139.92399594488506,266.8956136238286 "/><polyline class="polyline" opacity="0.5" stroke="blue" points="200.0,251.38533730110748 140.3429688457178,266.1291435126873 "/><polyline class="polyline" opacity="0.5" stroke="blue" points="200.0,250.44947727999036 140.76521821804914,265.32197443210555 "/><polyline class="polyline" opacity="0.5" stroke="blue" points="200.0,249.49724980058122 141.19054541729133,264.474537010709 "/><polyline class="polyline" opacity="0.5" stroke="blue" points="200.0,248.52907260362144 141.6187572396824,263.58728177169075 "/><polyline class="polyline" opacity="0.5" stroke="blue" points="200.0,247.54536178207366 142.04966604061144,262.6606779623728 "/><polyline class="polyline" opacity="0.5" stroke="blue" points="200.0,246.54653169877324 142.4830898387447,261.69521240429344 "/><polyline class="polyline" opacity="0.5" stroke="blue" points="200.0,245.5329949137737 142.91885240642694,260.6913883664151 "/><polyline class="polyline" opacity="0.5" stroke="blue" points="200.0,244.50516212106325 143.35678334686014,259.6497244638194 "/><polyline class="polyline" opacity="0.5" stroke="blue" points="200.0,243.46344209433033 143.79671815857938,258.5707535840475 "/><polyline class="polyline" opacity="0.5" stroke="blue" points="200.0,242.40824164145968 144.23849828776494,257.45502184302364 "/><polyline class="polyline" opacity="0.5" stroke="blue" points="200.0,241.33996556744404 144.68197116894154,256.3030875722998 "/><polyline class="polyline" opacity="0.5" stroke="blue" points="200.0,240.25901664539794 145.1269902546272,255.11552033915422 "/><polyline class="polyline" opacity="0.5" stroke="blue" points="200.0,239.16579559536697 145.57341503449953,253.89290000088613 "/><polyline class="polyline" opacity="0.5" stroke="blue" points="200.0,238.06070107062786 146.02111104465178,252.63581579446173 "/><polyline class="polyline" opacity="0.5" stroke="blue" points="200.0,236.94412965118136 146.46994986751014,251.3448654624927 "/><polyline class="polyline" opacity="0.5" stroke="blue" points="200.0,235.81647584414267 146.91980912298533,250.02065441635438 "/><polyline class="polyline" opacity="0.5" stroke="blue" points="200.0,234.67813209074131 147.37057245142302,248.6637949370959 "/><polyline class="polyline" opacity="0.5" stroke="blue" points="200.0,233.52948877964582 147.8221294889143,247.27490541464024 "/><polyline class="polyline" opacity="0.5" stroke="blue" points="200.0,232.37093426633658 148.27437583551708,245.85460962563351 "/><polyline class="polyline" opacity="0.5" stroke="blue" points="200.0,231.20285489825207 148.7272130169302,244.40353605016662 "/><polyline class="polyline" opacity="0.5" stroke="blue" points="200.0,230.02563504544207 149.18054844014875,242.92231722747186 "/><polyline class="polyline" opacity="0.5" stroke="blue" points="200.0,228.8396571364676 149.63429534361677,241.41158915058315 "/><polyline class="polyline" opacity="0.5" stroke="blue" points="200.0,227.645301699289 150.08837274237789,239.87199069984047 "/><polyline class="polyline" opacity="0.5" stroke="blue" points="200.0,226.44294740689418 150.54270536870962,238.30416311502543 "/><polyline class="polyline" opacity="0.5" stroke="blue" points="200.0,225.2329711274205 150.9972236087094,236.70874950582558 "/><polyline class="polyline" opacity="0.5" stroke="blue" points="200.0,224.0157479785323 151.45186343528295,235.086394400248 "/><polyline class="polyline" opacity="0.5" stroke="blue" points="200.0,222.79165138581877 151.90656633796874,233.43774333052656 "/><polyline class="polyline" opacity="0.5" stroke="blue" points="200.0,221.5610531449842 152.36127925001125,231.76344245600905 "/><polyline class="polyline" opacity="0.5" stroke="blue" points="200.0,220.3243234876061 152.81595447307953,230.06413822244994 "/><polyline class="polyline" opacity="0.5" stroke="blue" points="200.0,219.08183115024417 153.27054960000487,228.34047705708878 "/><polyline class="polyline" opacity="0.5" stroke="blue" points="200.0,217.83394344668338 153.725027435896,226.59310509884776 "/><polyline class="polyline" opacity="0.5" stroke="blue" points="200.0,216.5810263431045 154.17935591796623,224.82266796295025 "/><polyline class="polyline" opacity="0.5" stroke="blue" points="200.0,215.3234445359746 154.6335080343912,223.0298105392268 "/><polyline class="polyline" opacity="0.5" stroke="blue" points="200.0,214.06156153245914 155.08746174249342,221.21517682335718 "/><polyline class="polyline" opacity="0.5" stroke="blue" points="200.0,212.79573973315624 155.54119988653315,219.379409780269 "/><polyline class="polyline" opacity="0.5" stroke="blue" points="200.0,211.52634051696086 155.99471011536363,217.5231512389054 "/><polyline class="polyline" opacity="0.5" stroke="blue" points="200.0,210.2537243278701 156.44798480019116,215.6470418175624 "/><polyline class="polyline" opacity="0.5" stroke="blue" points="200.0,208.97825076354064 156.90102095266218,213.75172087898628 "/><polyline class="polyline" opacity="0.5" stroke="blue" points="200.0,207.70027866541668 157.35382014347996,211.83782651442408 "/><polyline class="polyline" opacity="0.5" stroke="blue" points="200.0,206.42016621024536 157.8063884217376,209.90599555581582 "/><polyline class="polyline" opacity="0.5" stroke="blue" points="200.0,205.13827100280332 158.25873623513377,207.9568636153254 "/><polyline class="polyline" opacity="0.5" stroke="blue" points="200.0,203.8549501696547 158.71087835122438,205.99106515140681 "/><polyline class="polyline" opacity="0.5" stroke="blue" points="200.0,202.57056045376837 159.16283377984297,204.00923356061648 "/><polyline class="polyline" opacity="0.5" stroke="blue" points="200.0,201.28545830981867 159.6146256968089,202.01200129438783 "/><polyline class="polyline" opacity="0.5" stroke="blue" points="200.0,200.0 160.0662813690254,200.0 "/><polyline class="polyline" opacity="0.5" stroke="blue" points="200.0,198.7145416901814 160.51783208105496,197.97386068498042 "/><polyline class="polyline" opacity="0.5" stroke="blue" points="200.0,197.4294395462318 160.96931306324382,195.93421390419897 "/><polyline class="polyline" opacity="0.5" stroke="blue" points="200.0,196.14504983034536 161.4207634214536,193.88168996892364 "/><polyline class="polyline" opacity="0.5" stroke="blue" points="200.0,194.86172899719676 161.87222606844318,191.81691917712448 "/><polyline class="polyline" opacity="0.5" stroke="blue" points="200.0,193.5798337897548 162.32374765693072,189.7405320643234 "/><polyline class="polyline" opacity="0.5" stroke="blue" points="200.0,192.2997213345835 162.77537851435233,187.6531596743066 "/><polyline class="polyline" opacity="0.5" stroke="blue" points="200.0,191.0217492364594 163.2271725793199,185.55543384903058 "/><polyline class="polyline" opacity="0.5" stroke="blue" points="200.0,189.74627567212997 163.6791873397698,183.44798753706127 "/><polyline class="polyline" opacity="0.5" stroke="blue" points="200.0,188.4736594830393 164.13148377277898,181.33145511990656 "/><polyline class="polyline" opacity="0.5" stroke="blue" points="200.0,187.20426026684393 164.58412628601562,179.20647275560682 "/><polyline class="polyline" opacity="0.5" stroke="blue" points="200.0,185.93843846754095 165.037182660777,177.07367873896635 "/><polyline class="polyline" opacity="0.5" stroke="blue" points="200.0,184.67655546402545 165.4907239965576,174.93371387780883 "/><polyline class="polyline" opacity="0.5" stroke="blue" points="200.0,183.41897365689567 165.94482465707716,172.7872218846559 "/><polyline class="polyline" opacity="0.5" stroke="blue" points="200.0,182.16605655331668 166.39956221768847,170.63484978322646 "/><polyline class="polyline" opacity="0.5" stroke="blue" points="200.0,180.9181688497559 166.8550174140717,168.47724832916356 "/><polyline class="polyline" opacity="0.5" stroke="blue" points="200.0,179.67567651239395 167.31127409211257,166.31507244439024 "/><polyline class="polyline" opacity="0.5" stroke="blue" points="200.0,178.43894685501598 167.76841915884958,164.14898166450055 "/><polyline class="polyline" opacity="0.5" stroke="blue" points="200.0,177.2083486141813 168.22654253436437,161.97964059858143 "/><polyline class="polyline" opacity="0.5" stroke="blue" points="200.0,175.98425202146774 168.6857371044781,159.80771940086106 "/><polyline class="polyline" opacity="0.5" stroke="blue" points="200.0,174.76702887257966 169.14609867410658,157.63389425356087 "/><polyline class="polyline" opacity="0.5" stroke="blue" points="200.0,173.55705259310596 169.6077259211146,155.45884786032 "/><polyline class="polyline" opacity="0.5" stroke="blue" points="200.0,172.35469830071105 170.07072035049882,153.2832699495449 "/><polyline class="polyline" opacity="0.5" stroke="blue" points="200.0,171.16034286353243 170.5351862487184,151.1078577870094 "/><polyline class="polyline" opacity="0.5" stroke="blue" points="200.0,169.97436495455804 171.00123063797903,148.93331669701305 "/><polyline class="polyline" opacity="0.5" stroke="blue" points="200.0,168.79714510174807 171.46896323026738,146.76036059137118 "/><polyline class="polyline" opacity="0.5" stroke="blue" points="200.0,167.62906573366348 171.93849638091766,144.58971250548234 "/><polyline class="polyline" opacity="0.5" stroke="blue" points="200.0,166.47051122035424 172.40994504148387,142.4221051406745 "/><polyline class="polyline" opacity="0.5" stroke="blue" points="200.0,165.32186790925886 172.8834267116765,140.25828141199537 "/><polyline class="polyline" opacity="0.5" stroke="blue" points="200.0,164.18352415585736 173.35906139011186,138.09899500056105 "/><polyline class="polyline" opacity="0.5" stroke="blue" points="200.0,163.05587034881867 173.83697152360878,135.94501090952855 "/><polyline class="polyline" opacity="0.5" stroke="blue" points="200.0,161.93929892937228 174.31728195475597,133.79710602269546 "/><polyline class="polyline" opacity="0.5" stroke="blue" points="200.0,160.83420440463317 174.8001198674599,131.65606966467215 "/><polyline class="polyline" opacity="0.5" stroke="blue" points="200.0,159.74098335460212 175.28561473017007,129.52270416150262 "/><polyline class="polyline" opacity="0.5" stroke="blue" points="200.0,158.66003443255602 175.77389823646632,127.3978254005324 "/><polyline class="polyline" opacity="0.5" stroke="blue" points="200.0,157.59175835854046 176.26510424267897,125.28226338824746 "/><polyline class="polyline" opacity="0.5" stroke="blue" points="200.0,156.53655790566978 176.75936870219994,123.17686280471747 "/><polyline class="polyline" opacity="0.5" stroke="blue" points="200.0,155.4948378789368 177.25682959612874,121.08248355319003 "/><polyline class="polyline" opacity="0.5" stroke="blue" points="200.0,154.46700508622632 177.75762685988528,119.00000130327693 "/><polyline class="polyline" opacity="0.5" stroke="blue" points="200.0,153.4534683012269 178.26190230540746,116.93030802607689 "/><polyline class="polyline" opacity="0.5" stroke="blue" points="200.0,152.45463821792646 178.76979953853794,114.87431251946147 "/><polyline class="polyline" opacity="0.5" stroke="blue" points="200.0,151.4709273963786 179.28146387119205,112.83294092164034 "/><polyline class="polyline" opacity="0.5" stroke="blue" points="200.0,150.5027501994188 179.79704222788615,110.80713721099023 "/><polyline class="polyline" opacity="0.5" stroke="blue" points="200.0,149.55052272000978 180.31668304619274,108.79786369000944 "/><polyline class="polyline" opacity="0.5" stroke="blue" points="200.0,148.61466269889257 180.84053617067693,106.80610145111778 "/><polyline class="polyline" opacity="0.5" stroke="blue" points="200.0,147.6955894322191 181.36875273985692,104.83285082188495 "/><polyline class="polyline" opacity="0.5" stroke="blue" points="200.0,146.79372366883902 181.9014850657213,102.87913178711406 "/><polyline class="polyline" opacity="0.5" stroke="blue" points="200.0,145.90948749691574 182.43888650532466,100.9459843850608 "/><polyline class="polyline" opacity="0.5" stroke="blue" points="200.0,145.0433042195476 182.98111132397455,99.03446907490499 "/><polyline class="polyline" opacity="0.5" stroke="blue" points="200.0,144.19559821906955 183.52831454951487,97.14566707242658 "/><polyline class="polyline" opacity="0.5" stroke="blue" points="200.0,143.36679480971526 184.0806518172037,95.28068065067154 "/><polyline class="polyline" opacity="0.5" stroke="blue" points="200.0,142.55732007832313 184.63827920467844,93.4406334022166 "/><polyline class="polyline" opacity="0.5" stroke="blue" points="200.0,141.76760071277386 185.2013530564978,91.62667045947185 "/><polyline class="polyline" opacity="0.5" stroke="blue" points="200.0,140.99806381785274 185.77002979774767,89.83995866927327 "/><polyline class="polyline" opacity="0.5" stroke="blue" points="200.0,140.24913671823907 186.34446573620002,88.08168671784426 "/><polyline class="polyline" opacity="0.5" stroke="blue" points="200.0,139.52124674833107 186.92481685251522,86.35306520202097 "/><polyline class="polyline" opacity="0.5" stroke="blue" points="200.0,138.81482102862705 187.51123857798424,84.65532664245896 "/><polyline class="polyline" opacity="0.5" stroke="blue" points="200.0,138.13028622839352 188.10388555931718,82.98972543435701 "/><polyline class="polyline" opacity="0.5" stroke="blue" points="200.0,137.46806831436442 188.70291140999424,81.3575377310636 "/><polyline class="polyline" opacity="0.5" stroke="blue" points="200.0,136.82859228523068 189.3084684477127,79.76006125575972 "/><polyline class="polyline" opacity="0.5" stroke="blue" points="200.0,136.21228189169653 189.92070741748174,78.19861503625194 "/><polyline class="polyline" opacity="0.5" stroke="blue" points="200.0,135.61955934189473 190.5397771999418,76.67453905775284 "/><polyline class="polyline" opacity="0.5" stroke="blue" points="200.0,135.05084499197622 191.165824504513,75.18919382838654 "/><polyline class="polyline" opacity="0.5" stroke="blue" points="200.0,134.50655702171065 191.7989935470104,73.74395985203057 "/><polyline class="polyline" opacity="0.5" stroke="blue" points="200.0,133.98711109495707 192.43942571140428,72.3402370029857 "/><polyline class="polyline" opacity="0.5" stroke="blue" points="200.0,133.49292000489305 193.08725919544688,70.97944379688147 "/><polyline class="polyline" opacity="0.5" stroke="blue" points="200.0,133.0243933039166 193.74262863993889,69.66301655214534 "/><polyline class="polyline" opacity="0.5" stroke="blue" points="200.0,132.58193691816842 194.4056647414661,68.39240843632433 "/><polyline class="polyline" opacity="0.5" stroke="blue" points="200.0,132.16595274665184 195.0764938485017,67.1690883915229 "/><polyline class="polyline" opacity="0.5" stroke="blue" points="200.0,131.77683824496683 195.7552375408408,65.99453993324258 "/><polyline class="polyline" opacity="0.5" stroke="blue" points="200.0,131.41498599370874 196.4420121924137,64.87025981695206 "/><polyline class="polyline" opacity="0.5" stroke="blue" points="200.0,131.08078325162558 197.1369285176106,63.79775656681238 "/><polyline class="polyline" opacity="0.5" stroke="blue" points="200.0,130.77461149366735 197.84009110134812,62.77854886111015 "/><polyline class="polyline" opacity="0.5" stroke="blue" points="200.0,130.49684593410774 198.55159791320878,61.81416376913654 "/><polyline class="polyline" opacity="0.5" stroke="blue" points="200.0,130.24785503496526 199.2715398061004,60.906134834480895 "/><polyline class="polyline" opacity="0.5" stroke="blue" points="200.0,130.028 200.0,60.05599999999998 "/></svg>
