<?xml version="1.0" encoding="UTF-8"?>
<!DOCTYPE svg PUBLIC "-//W3C//DTD SVG 1.1//EN"
    "http://www.w3.org/Graphics/SVG/1.1/DTD/svg11.dtd"><svg width="400" height="400" stroke="black" fill="none" fill-opacity="0.75" font-size="14" font-style="italic" font-family="sans-serif" xmlns="http://www.w3.org/2000/svg" xmlns:xlink="http://www.w3.org/1999/xlink" version="1.1"><filter id="blur1"><feGaussianBlur stdDeviation="0.5"/></filter><rect width="100%" height="100%" fill="white" stroke="none" fill-opacity="1"/><rect class="bg" fill="black" width="100%" height="100%" stroke="none" fill-opacity="1"/><polyline class="polyline" opacity="0.5" stroke="blue" points="200.33562115937562,129.39317603072485 201.43199751253903,56.78666062226392 "/><polyline class="polyline" opacity="0.5" stroke="blue" points="200.45335380214146,129.34809328750123 202.4334344353947,56.285438245033845 "/><polyline class="polyline" opacity="0.5" stroke="blue" points="200.57158055930876,129.33435666257304 203.44599593185086,55.85220461799244 "/><polyline class="polyline" opacity="0.5" stroke="blue" points="200.69025083210235,129.35225132224923 204.46957904832416,55.48845173755467 "/><polyline class="polyline" opacity="0.5" stroke="blue" points="200.80931289309254,129.40205017440468 205.504062600598,55.195651470913674 "/><polyline class="polyline" opacity="0.5" stroke="blue" points="200.92871389439637,129.48401324980796 206.5493064801061,54.97525184120127 "/><polyline class="polyline" opacity="0.5" stroke="blue" points="201.04839987793736,129.59838707583685 207.6051509723316,54.82867313974799 "/><polyline class="polyline" opacity="0.5" stroke="blue" points="201.16831578783868,129.74540404359456 208.67141609102492,54.757303869239024 "/><polyline class="polyline" opacity="0.5" stroke="blue" points="201.28840548502333,129.92528176950924 209.74790093216927,54.762496522830304 "/><polyline class="polyline" opacity="0.5" stroke="blue" points="201.40861176409166,130.13822245257177 210.8343830518382,54.845563205627116 "/><polyline class="polyline" opacity="0.5" stroke="blue" points="201.52887637254435,130.38441222843767 211.93061787229934,55.00777110635096 "/><polyline class="polyline" opacity="0.5" stroke="blue" points="201.6491400324154,130.66402052168993 213.03633812090956,55.25033782851742 "/><polyline class="polyline" opacity="0.5" stroke="blue" points="201.76934246437585,130.97719939762888 214.1512533065258,55.57442659200976 "/><polyline class="polyline" opacity="0.5" stroke="blue" points="201.88942241436524,131.32408291502645 215.27504923831432,55.98114131755813 "/><polyline class="polyline" opacity="0.5" stroke="blue" points="202.0093176828028,131.70478648134824 216.4073875919737,56.4715216083072 "/><polyline class="polyline" opacity="0.5" stroke="blue" points="202.1289651564257,132.11940621201367 217.54790552849698,57.04653764436898 "/><polyline class="polyline" opacity="0.5" stroke="blue" points="202.24830084279625,132.5680182953276 218.6962153706746,57.70708500799677 "/><polyline class="polyline" opacity="0.5" stroke="blue" points="202.36725990751322,133.05067836477892 219.8519043425833,58.45397945876894 "/><polyline class="polyline" opacity="0.5" stroke="blue" points="202.48577671415748,133.5674208804587 221.01453437731195,59.28795167991717 "/><polyline class="polyline" opacity="0.5" stroke="blue" points="202.60378486699418,134.1182585214051 222.1836419981389,60.209642018661754 "/><polyline class="polyline" opacity="0.5" stroke="blue" points="202.72121725644638,134.70318159073204 223.35873827829465,61.21959524510021 "/><polyline class="polyline" opacity="0.5" stroke="blue" points="202.83800610734858,135.322157435446 224.53930888431472,62.31825535581527 "/><polyline class="polyline" opacity="0.5" stroke="blue" points="202.95408302997885,135.97512988289276 225.72481420780707,63.50596044991238 "/><polyline class="polyline" opacity="0.5" stroke="blue" points="203.06937907386074,136.66201869581505 226.9146895902242,64.78293770662128 "/><polyline class="polyline" opacity="0.5" stroke="blue" points="203.18382478431712,137.38271904802696 228.10834564493987,66.14929849489903 "/><polyline class="polyline" opacity="0.5" stroke="blue" points="203.29735026174802,138.13710102273748 229.3051686805822,67.60503364661483 "/><polyline class="polyline" opacity="0.5" stroke="blue" points="203.40988522359626,138.925009135567 230.50452122916818,69.15000892585596 "/><polyline class="polyline" opacity="0.5" stroke="blue" points="203.5213590689532,139.7462618843133 231.7057426821181,70.78396072765207 "/><polyline class="polyline" opacity="0.5" stroke="blue" points="203.6317009457479,140.60065132751907 232.90815003670224,72.50649203993949 "/><polyline class="polyline" opacity="0.5" stroke="blue" points="203.74083982045178,141.48794269388966 234.1110387548892,74.31706870285724 "/><polyline class="polyline" opacity="0.5" stroke="blue" points="203.84870455022053,142.40787402458872 235.3136837359258,76.21501599945981 "/><polyline class="polyline" opacity="0.5" stroke="blue" points="203.95522395738408,143.3601558504176 236.51534040328303,78.19951561163366 "/><polyline class="polyline" opacity="0.5" stroke="blue" points="204.06032690618457,144.3444709058468 237.7152459058631,80.2696029743814 "/><polyline class="polyline" opacity="0.5" stroke="blue" points="204.16394238165117,145.36047388182425 238.9126204325711,82.42416506069729 "/><polyline class="polyline" opacity="0.5" stroke="blue" points="204.2659995704896,146.40779121923083 240.10666863853115,84.66193862796416 "/><polyline class="polyline" opacity="0.5" stroke="blue" points="204.36642794385364,147.4860209447895 241.29658118036468,86.98150895517023 "/><polyline class="polyline" opacity="0.5" stroke="blue" points="204.46515734185417,148.59473255115836 242.4815363570656,89.3813090982446 "/><polyline class="polyline" opacity="0.5" stroke="blue" points="204.56211805965197,149.7334669228564 243.66070185210472,91.85961968847623 "/><polyline class="polyline" opacity="0.5" stroke="blue" points="204.6572409349688,150.90173630957224 244.83323657148765,94.4145692962808 "/><polyline class="polyline" opacity="0.5" stroke="blue" points="204.75045743684197,152.09902434830474 245.99829257158382,97.0441353795594 "/><polyline class="polyline" opacity="0.5" stroke="blue" points="204.84169975543767,153.32478613566713 247.15501706965117,99.74614583254058 "/><polyline class="polyline" opacity="0.5" stroke="blue" points="204.93090089272903,154.57844835156288 248.30255452911052,102.5182811473543 "/><polyline class="polyline" opacity="0.5" stroke="blue" points="205.0179947538359,155.8594094353077 249.44004881079053,105.35807719666694 "/><polyline class="polyline" opacity="0.5" stroke="blue" points="205.10291623881542,157.16703981512774 250.56664538057424,108.2629286415503 "/><polyline class="polyline" opacity="0.5" stroke="blue" points="205.18560133468486,158.500682191814 251.68149356314797,111.23009296439822 "/><polyline class="polyline" opacity="0.5" stroke="blue" points="205.26598720745096,159.859651877151 252.78374883089086,114.25669512218526 "/><polyline class="polyline" opacity="0.5" stroke="blue" points="205.34401229391403,161.24323718757222 253.87257511635886,117.33973281073021 "/><polyline class="polyline" opacity="0.5" stroke="blue" points="205.4196163930104,162.65069989331795 254.94714713632226,120.47608232592833 "/><polyline class="polyline" opacity="0.5" stroke="blue" points="205.49274075645087,164.08127572319304 256.0066527149183,123.66250500320822 "/><polyline class="polyline" opacity="0.5" stroke="blue" points="205.5633281784115,165.53417492483294 257.05029509318763,126.89565421180522 "/><polyline class="polyline" opacity="0.5" stroke="blue" points="205.6313230840277,167.008582880198 258.07729521208216,130.17208287587573 "/><polyline class="polyline" opacity="0.5" stroke="blue" points="205.69667161644446,168.50366077581984 259.0868939559705,133.48825149006578 "/><polyline class="polyline" opacity="0.5" stroke="blue" points="205.75932172217162,170.01854632712696 260.07835434372214,136.84053659295128 "/><polyline class="polyline" opacity="0.5" stroke="blue" points="205.8192232344966,171.5523545559774 261.0509636546338,140.22523965783034 "/><polyline class="polyline" opacity="0.5" stroke="blue" points="205.8763279547069,173.10417862032708 262.0040354767625,143.63859635673506 "/><polyline class="polyline" opacity="0.5" stroke="blue" points="205.93058973087827,174.6730906947622 262.9369116656569,147.07678615027774 "/><polyline class="polyline" opacity="0.5" stroke="blue" points="205.98196453398853,176.25814290042703 263.8489642020203,150.5359421531049 "/><polyline class="polyline" opacity="0.5" stroke="blue" points="206.03041053112173,177.85836828268282 264.7395969374948,154.01216122233944 "/><polyline class="polyline" opacity="0.5" stroke="blue" points="206.0758881555341,179.47278183464283 265.60824721852214,157.50151421447396 "/><polyline class="polyline" opacity="0.5" stroke="blue" points="206.11836017335997,181.10038156454033 266.4543873790933,161.00005635477123 "/><polyline class="polyline" opacity="0.5" stroke="blue" points="206.15779174674557,182.74014960470834 267.2775260941546,164.50383766234145 "/><polyline class="polyline" opacity="0.5" stroke="blue" points="206.19415049320648,184.39105335977425 268.0772095864618,168.00891337371544 "/><polyline class="polyline" opacity="0.5" stroke="blue" points="206.2274065410168,186.0520466915091 268.85302268076816,171.51135430792283 "/><polyline class="polyline" opacity="0.5" stroke="blue" points="206.2575325804485,187.72207113761436 269.6045897003779,175.00725711680423 "/><polyline class="polyline" opacity="0.5" stroke="blue" points="206.284503910693,189.40005716158424 270.3315752022796,178.49275436553526 "/><polyline class="polyline" opacity="0.5" stroke="blue" points="206.30829848230948,191.08492543064696 271.0336845482829,181.9640243900851 "/><polyline class="polyline" opacity="0.5" stroke="blue" points="206.32889693505936,192.77558811866592 271.7106643107994,185.41730088055883 "/><polyline class="polyline" opacity="0.5" stroke="blue" points="206.34628263100151,194.47095023077316 272.36230251312315,188.84888214204238 "/><polyline class="polyline" opacity="0.5" stroke="blue" points="206.36044168273793,196.16991094641062 272.9884287052603,192.25513998764276 "/><polyline class="polyline" opacity="0.5" stroke="blue" points="206.37136297671637,197.8713649773748 273.58891387752203,195.6325282218548 "/><polyline class="polyline" opacity="0.5" stroke="blue" points="206.37903819151302,199.5742039373923 274.16367021521467,198.97759067613785 "/><polyline class="polyline" opacity="0.5" stroke="blue" points="206.38346181103572,201.27731771970326 274.71265069882077,202.28696876260156 "/><polyline class="polyline" opacity="0.5" stroke="blue" points="206.38463113260545,202.97959587909412 275.23584855506346,205.55740851592972 "/><polyline class="polyline" opacity="0.5" stroke="blue" points="206.38254626989215,204.67992901480054 275.733296565165,208.7857670980543 "/><polyline class="polyline" opacity="0.5" stroke="blue" points="206.37721015069786,206.37721015069786 276.20506623744456,211.969018744579 "/><polyline class="polyline" opacity="0.5" stroke="blue" points="206.36862850959946,208.0703361092089 276.6512668521445,215.10426013648788 "/><polyline class="polyline" opacity="0.5" stroke="blue" points="206.35680987547957,209.7582088753865 277.0720443870233,218.1887151852043 "/><polyline class="polyline" opacity="0.5" stroke="blue" points="206.34176555399333,211.43973694767163 277.46758033280094,221.21973922353936 "/><polyline class="polyline" opacity="0.5" stroke="blue" points="206.32350960503473,213.11383667188923 277.8380904079879,224.1948225994454 "/><polyline class="polyline" opacity="0.5" stroke="blue" points="206.30205881528468,214.77943355511502 278.18382318297625,227.11159367371107 "/><polyline class="polyline" opacity="0.5" stroke="blue" points="206.2774326659382,216.43546355613833 278.5050586235118,229.96782122677828 "/><polyline class="polyline" opacity="0.5" stroke="blue" points="206.24965329572484,218.08087434934725 278.80210656381166,232.76141628367571 "/><polyline class="polyline" opacity="0.5" stroke="blue" points="206.21874545935194,219.71462655897867 279.0753051196382,235.4904333696294 "/><polyline class="polyline" opacity="0.5" stroke="blue" points="206.18473648151442,221.3356949608048 279.3250190515987,238.15307121219885 "/><polyline class="polyline" opacity="0.5" stroke="blue" points="206.14765620662928,222.94306964846768 279.5516380888081,240.74767290877423 "/><polyline class="polyline" opacity="0.5" stroke="blue" points="206.10753694446538,224.53575716182377 279.7555752228449,243.27272558094478 "/><polyline class="polyline" opacity="0.5" stroke="blue" points="206.06441341185194,226.11278157482252 279.93726498164574,245.72685953960212 "/><polyline class="polyline" opacity="0.5" stroke="blue" points="206.0183226706594,227.67318554061072 280.09716169263794,248.10884698666055 "/><polyline class="polyline" opacity="0.5" stroke="blue" points="205.96930406225746,229.21603129173326 280.23573774399983,250.41760028096922 "/><polyline class="polyline" opacity="0.5" stroke="blue" points="205.91739913866326,230.740401593483 280.3534818524858,252.6521697973563 "/><polyline class="polyline" opacity="0.5" stroke="blue" points="205.86265159060108,232.2454006486433 280.45089734575026,254.81174140878784 "/><polyline class="polyline" opacity="0.5" stroke="blue" points="205.805107172702,233.73015495205826 280.52850046657505,256.8956336223623 "/><polyline class="polyline" opacity="0.5" stroke="blue" points="205.7448136260773,235.1938140936645 280.58681870584184,258.9032944002996 "/><polyline class="polyline" opacity="0.5" stroke="blue" points="205.68182059850415,236.63555150881564 280.6263891705152,260.8342976972481 "/><polyline class="polyline" opacity="0.5" stroke="blue" points="205.61617956246596,238.05456517493036 280.64775699230955,262.6883397451308 "/><polyline class="polyline" opacity="0.5" stroke="blue" points="205.54794373129178,239.45007825369578 280.6514737821169,264.4652351164163 "/><polyline class="polyline" opacity="0.5" stroke="blue" points="205.4771679736403,240.82133967825368 280.63809613468,266.16491259613787 "/><polyline class="polyline" opacity="0.5" stroke="blue" points="205.40390872657483,242.1676246849962 280.6081841874037,267.7874108922325 "/><polyline class="polyline" opacity="0.5" stroke="blue" points="205.32822390747418,243.48823528978727 280.5623002366249,269.33287421283933 "/><polyline class="polyline" opacity="0.5" stroke="blue" points="205.25017282502253,244.7825007086176 280.5010074140971,270.80154773811864 "/><polyline class="polyline" opacity="0.5" stroke="blue" points="205.16981608951903,246.0497777228819 280.4248684259128,272.19377301293935 "/><polyline class="polyline" opacity="0.5" stroke="blue" points="205.0872155227434,247.28945098964658 280.33444435556225,273.50998328546905 "/><polyline class="polyline" opacity="0.5" stroke="blue" points="205.0024340676095,248.5009332974465 280.23029353234756,274.75069881529487 "/><polyline class="polyline" opacity="0.5" stroke="blue" points="204.91553569783352,249.68366576831292 280.11297046590363,275.91652217323514 "/><polyline class="polyline" opacity="0.5" stroke="blue" points="204.82658532783634,250.83711800689107 279.983024847151,277.0081335534863 "/><polyline class="polyline" opacity="0.5" stroke="blue" points="204.73564872309368,251.96078819765262 279.8410006156089,278.0262861172042 "/><polyline class="polyline" opacity="0.5" stroke="blue" points="204.64279241113894,253.0542031513474 279.68743509262674,278.97180138506025 "/><polyline class="polyline" opacity="0.5" stroke="blue" points="204.54808359341655,254.11691830196727 279.5228581797662,279.84556469475814 "/><polyline class="polyline" opacity="0.5" stroke="blue" points="204.45159005817308,255.14851765561508 279.34779162126,280.6485207379573 "/><polyline class="polyline" opacity="0.5" stroke="blue" points="204.3533800945665,256.1486136927808 279.1627483292114,281.38166918953385 "/><polyline class="polyline" opacity="0.5" stroke="blue" points="204.25352240816167,257.1168472256272 278.968231769959,282.04606044063775 "/><polyline class="polyline" opacity="0.5" stroke="blue" points="204.15208603797296,258.0528872119763 278.76473540982875,282.642791445576 "/><polyline class="polyline" opacity="0.5" stroke="blue" points="204.04914027520158,258.95643052776745 278.5527422183196,283.17300169117584 "/><polyline class="polyline" opacity="0.5" stroke="blue" points="203.94475458380774,259.82720169982764 278.33272422662134,283.63786929597217 "/><polyline class="polyline" opacity="0.5" stroke="blue" points="203.83899852304486,260.6649526008524 278.1051421392432,284.0386072453133 "/><polyline class="polyline" opacity="0.5" stroke="blue" points="203.73194167207373,261.4694621085463 277.87044499643775,284.3764597673004 "/><polyline class="polyline" opacity="0.5" stroke="blue" points="203.62365355676283,262.24053573091123 277.629069885032,284.6526988533734 "/><polyline class="polyline" opacity="0.5" stroke="blue" points="203.5142035787714,262.9780051997001 277.3814416952264,284.86862092631804 "/><polyline class="polyline" opacity="0.5" stroke="blue" points="203.4036609470001,263.68172803407583 277.12797292089704,285.0255436575154 "/><polyline class="polyline" opacity="0.5" stroke="blue" points="203.29209461148434,264.35158707652556 276.8690635009187,285.124802934369 "/><polyline class="polyline" opacity="0.5" stroke="blue" points="203.1795731997949,264.9874900030869 276.60510069903586,285.1677499780358 "/><polyline class="polyline" opacity="0.5" stroke="blue" points="203.06616495600008,265.58936880993497 276.3364590198271,285.15574861085105 "/><polyline class="polyline" opacity="0.5" stroke="blue" points="202.95193768223388,266.1571792783695 276.0635001583398,285.0901726721678 "/><polyline class="polyline" opacity="0.5" stroke="blue" points="202.83695868290553,266.69090042022174 275.7865729810202,284.9724035807373 "/><polyline class="polyline" opacity="0.5" stroke="blue" points="202.72129471157535,267.19053390567365 275.5060135356121,284.80382804122183 "/><polyline class="polyline" opacity="0.5" stroke="blue" points="202.60501192051456,267.6561034754506 275.2221450877702,284.5858358919627 "/><polyline class="polyline" opacity="0.5" stroke="blue" points="202.48817581295614,268.0876543393117 274.9352781821939,284.31981809071715 "/><polyline class="polyline" opacity="0.5" stroke="blue" points="202.3708511980379,268.4852525627159 274.645710726174,284.0071648347229 "/><polyline class="polyline" opacity="0.5" stroke="blue" points="202.25310214842887,268.8489844434978 274.3537280935186,283.6492638111511 "/><polyline class="polyline" opacity="0.5" stroke="blue" points="202.13499196062435,269.17895588033 274.05960324691546,283.24749857375446 "/><polyline class="polyline" opacity="0.5" stroke="blue" points="202.01658311788756,269.47529173469786 273.76359687687346,282.8032470413154 "/><polyline class="polyline" opacity="0.5" stroke="blue" points="201.89793725580893,269.7381351880472 273.46595755547736,282.31788011333435 "/><polyline class="polyline" opacity="0.5" stroke="blue" points="201.7791151304485,269.9676470957089 273.1669219032809,281.7927603982755 "/><polyline class="polyline" opacity="0.5" stroke="blue" points="201.66017658902115,270.16400533913446 272.8667147677568,281.2292410496005 "/><polyline class="polyline" opacity="0.5" stroke="blue" points="201.5411805430786,270.3274041779121 272.5655494118116,280.62866470476285 "/><polyline class="polyline" opacity="0.5" stroke="blue" points="201.42218494413885,270.4580536029643 272.2636277109676,279.99236252231293 "/><polyline class="polyline" opacity="0.5" stroke="blue" points="201.30324676170733,270.5561786922568 271.9611403579007,279.3216533122612 "/><polyline class="polyline" opacity="0.5" stroke="blue" points="201.18442196363173,270.62201897027956 271.6582670731138,278.61784275487184 "/><polyline class="polyline" opacity="0.5" stroke="blue" points="201.06576549872895,270.65582777248864 271.3551768206116,277.882222703104 "/><polyline class="polyline" opacity="0.5" stroke="blue" points="200.9473312816178,270.65787161582637 271.05202802752336,277.11607056398066 "/><polyline class="polyline" opacity="0.5" stroke="blue" points="200.82917217969103,270.6284295763665 270.74896880670735,276.3206487542427 "/><polyline class="polyline" opacity="0.5" stroke="blue" points="200.7113400021555,270.5677926750609 270.4461371814426,275.4972042257396 "/><polyline class="polyline" opacity="0.5" stroke="blue" points="200.5938854910692,270.47626327249316 270.14366131139576,274.6469680561112 "/><polyline class="polyline" opacity="0.5" stroke="blue" points="200.4768583143006,270.35415447347737 269.8416597191187,273.7711551004293 "/><polyline class="polyline" opacity="0.5" stroke="blue" points="200.36030706033654,270.2017895422708 269.54024151640533,272.8709636995901 "/><polyline class="polyline" opacity="0.5" stroke="blue" points="200.24427923486144,270.0195013291048 269.2395066298999,271.9475754413746 "/><polyline class="polyline" opacity="0.5" stroke="blue" points="200.12882125903266,269.80763170867215 268.9395460254152,271.00215497023066 "/><polyline class="polyline" opacity="0.5" stroke="blue" points="200.01397846937394,269.56653103114695 268.6404419304765,270.0358498419657 "/><polyline class="polyline" opacity="0.5" stroke="blue" points="199.89979511921078,269.2965575862516 268.3422680546658,269.0497904196774 "/><polyline class="polyline" opacity="0.5" stroke="blue" points="199.7863143815707,268.9980770808278 268.04508980739394,268.04508980739394 "/><polyline class="polyline" opacity="0.5" stroke="blue" points="199.67357835347158,268.67146213030935 267.7489645127796,267.0228438180353 "/><polyline class="polyline" opacity="0.5" stroke="blue" points="199.56162806152298,268.3170917644416 267.45394162136057,265.9841309724482 "/><polyline class="polyline" opacity="0.5" stroke="blue" points="199.45050346876462,267.93535094754003 267.16006291841,264.9300125264107 "/><polyline class="polyline" opacity="0.5" stroke="blue" points="199.34024348266868,267.52663011352917 266.8673627286698,263.8615325226388 "/><polyline class="polyline" opacity="0.5" stroke="blue" points="199.2308859642324,267.09132471595615 266.5758681173539,262.77971786496744 "/><polyline class="polyline" opacity="0.5" stroke="blue" points="199.12246773809,266.629834793128 266.28559908731256,261.6855784120113 "/><polyline class="polyline" opacity="0.5" stroke="blue" points="199.01502460357287,266.14256454847794 265.9965687722788,260.580107087744 "/><polyline class="polyline" opacity="0.5" stroke="blue" points="198.90859134665044,265.6299219462268 265.70878362615423,259.46428000656493 "/><polyline class="polyline" opacity="0.5" stroke="blue" points="198.80320175268392,265.09231832236514 265.4222436083193,258.3390566105451 "/><polyline class="polyline" opacity="0.5" stroke="blue" points="198.69888861992777,264.53016801094947 265.1369423649792,257.2053798166702 "/><polyline class="polyline" opacity="0.5" stroke="blue" points="198.59568377371593,263.94388798566695 264.85286740658336,256.06417617201555 "/><polyline class="polyline" opacity="0.5" stroke="blue" points="198.49361808127063,263.33389751659854 264.57000028138026,254.91635601490384 "/><polyline class="polyline" opacity="0.5" stroke="blue" points="198.39272146707455,262.7006178420746 264.28831674518744,253.76281364020733 "/><polyline class="polyline" opacity="0.5" stroke="blue" points="198.2930229287484,262.0444718554955 264.00778692747997,252.6044274670669 "/><polyline class="polyline" opacity="0.5" stroke="blue" points="198.19455055337846,261.36588380696156 263.72837549391596,251.4420602074012 "/><polyline class="polyline" opacity="0.5" stroke="blue" points="198.09733153424045,260.6652790195357 263.45004180543407,250.27655903368313 "/><polyline class="polyline" opacity="0.5" stroke="blue" points="198.00139218786774,259.94308361994075 263.1727400740733,249.10875574455767 "/><polyline class="polyline" opacity="0.5" stroke="blue" points="197.90675797141492,259.1997242834743 262.89641951567825,247.93946692696812 "/><polyline class="polyline" opacity="0.5" stroke="blue" points="197.8134535002689,258.4356279929084 262.6210244996639,246.76949411355096 "/><polyline class="polyline" opacity="0.5" stroke="blue" points="197.72150256586193,257.651221811123 262.34649469602584,245.59962393414614 "/><polyline class="polyline" opacity="0.5" stroke="blue" points="197.63092815364325,256.8469326672129 262.0727652197885,244.43062826035504 "/><polyline class="polyline" opacity="0.5" stroke="blue" points="197.54175246116813,256.02318715579173 261.7997667730956,243.26326434216182 "/><polyline class="polyline" opacity="0.5" stroke="blue" points="197.45399691626403,255.1804113492089 261.52742578514983,242.09827493571245 "/><polyline class="polyline" opacity="0.5" stroke="blue" points="197.36768219523705,254.31903062238467 261.2556645502156,240.9363884214242 "/><polyline class="polyline" opacity="0.5" stroke="blue" points="197.28282824108257,253.4394694899621 260.9844013639057,239.77831891167392 "/><polyline class="polyline" opacity="0.5" stroke="blue" points="197.19945428166616,252.5421514554676 260.7135506579715,238.62476634738627 "/><polyline class="polyline" opacity="0.5" stroke="blue" points="197.11757884784308,251.6274988721662 260.4430231338231,237.47641658291525 "/><polyline class="polyline" opacity="0.5" stroke="blue" points="197.03721979148537,250.69593281529495 260.1727258950046,236.33394145868272 "/><polyline class="polyline" opacity="0.5" stroke="blue" points="196.95839430338867,249.74787296535322 259.9025625788508,235.19799886110494 "/><polyline class="polyline" opacity="0.5" stroke="blue" points="196.88111893103152,248.7837375021277 259.63243348755213,234.06923276940734 "/><polyline class="polyline" opacity="0.5" stroke="blue" points="196.8054095961613,247.80394300912906 259.3622357188519,232.94827328899225 "/><polyline class="polyline" opacity="0.5" stroke="blue" points="196.73128161218398,246.8089043881152 259.091863296598,231.83573667109104 "/><polyline class="polyline" opacity="0.5" stroke="blue" points="196.6587497013343,245.799034783379 258.821207301369,230.7322253184949 "/><polyline class="polyline" opacity="0.5" stroke="blue" points="196.5878280116064,244.77474551547715 258.5501560013894,229.6383277772244 "/><polyline class="polyline" opacity="0.5" stroke="blue" points="196.51853013342452,243.73644602408075 258.27859498394344,228.55461871405913 "/><polyline class="polyline" opacity="0.5" stroke="blue" points="196.45086911603627,242.6845438196288 258.00640728749374,227.48165887991283 "/><polyline class="polyline" opacity="0.5" stroke="blue" points="196.38485748361103,241.61944444347026 257.7334735346998,226.4199950591012 "/><polyline class="polyline" opacity="0.5" stroke="blue" points="196.3205072510279,240.5415514361822 257.45967206652915,225.37016000461193 "/><polyline class="polyline" opacity="0.5" stroke="blue" points="196.25782993933845,239.45126631375712 257.1848790776403,224.33267235954844 "/><polyline class="polyline" opacity="0.5" stroke="blue" points="196.1968365908909,238.34898855135512 256.9089687532119,223.30803656498009 "/><polyline class="polyline" opacity="0.5" stroke="blue" points="196.13753778410324,237.23511557432172 256.6318134073792,222.29674275449435 "/><polyline class="polyline" opacity="0.5" stroke="blue" points="196.07994364787305,236.11004275617745 256.3532836234288,221.29926663580625 "/><polyline class="polyline" opacity="0.5" stroke="blue" points="196.02406387561467,234.97416342328887 256.0732483958921,220.31606935984306 "/><polyline class="polyline" opacity="0.5" stroke="blue" points="195.96990773891275,233.82786886593775 255.79157527466296,219.3475973777832 "/><polyline class="polyline" opacity="0.5" stroke="blue" points="195.91748410078375,232.67154835550872 255.50813051125348,218.39428228658838 "/><polyline class="polyline" opacity="0.5" stroke="blue" points="195.86680142853731,231.50558916752163 255.22277920728587,217.45654066362968 "/><polyline class="polyline" opacity="0.5" stroke="blue" points="195.81786780622969,230.33037661024173 254.93538546530473,216.5347738910682 "/><polyline class="polyline" opacity="0.5" stroke="blue" points="195.7706909467027,229.14629405860336 254.6458125419768,215.62936797071012 "/><polyline class="polyline" opacity="0.5" stroke="blue" points="195.72527820320198,227.9537229931922 254.35392300372922,214.74069333011715 "/><polyline class="polyline" opacity="0.5" stroke="blue" points="195.68163658056866,226.7530430440324 254.05957888485975,213.86910462080837 "/><polyline class="polyline" opacity="0.5" stroke="blue" points="195.63977274599984,225.54463203893505 253.7626418481342,213.0149405094514 "/><polyline class="polyline" opacity="0.5" stroke="blue" points="195.59969303937288,224.32886605616483 253.46297334786732,212.17852346299293 "/><polyline class="polyline" opacity="0.5" stroke="blue" points="195.56140348312974,223.1061194811919 253.16043479546425,211.36015952873697 "/><polyline class="polyline" opacity="0.5" stroke="blue" points="195.52490979171728,221.876765067298 252.85488772737932,210.56013811043124 "/><polyline class="polyline" opacity="0.5" stroke="blue" points="195.49021738058056,220.641173999811 252.54619397542862,209.7787317414734 "/><polyline class="polyline" opacity="0.5" stroke="blue" points="195.457331374706,219.39971596374988 252.2342158393713,209.01619585640015 "/><polyline class="polyline" opacity="0.5" stroke="blue" points="195.42625661671173,218.1527592146631 251.91881626165386,208.27276856186813 "/><polyline class="polyline" opacity="0.5" stroke="blue" points="195.39699767448275,216.9006706524505 251.5998590041891,207.54867040838081 "/><polyline class="polyline" opacity="0.5" stroke="blue" points="195.3695588483491,215.6438158979625 251.27720882702008,206.84410416405737 "/><polyline class="polyline" opacity="0.5" stroke="blue" points="195.34394417780447,214.38255937217428 250.95073166869656,206.1592545917785 "/><polyline class="polyline" opacity="0.5" stroke="blue" points="195.3201574477645,213.11726437773635 250.6202948281701,205.4942882310782 "/><polyline class="polyline" opacity="0.5" stroke="blue" points="195.29820219436237,211.8482931827084 250.28576714799075,204.8493531861829 "/><polyline class="polyline" opacity="0.5" stroke="blue" points="195.27808171028104,210.57600710628344 249.94701919856678,204.22457892162524 "/><polyline class="polyline" opacity="0.5" stroke="blue" points="195.25979904962043,209.30076660631659 249.60392346322732,203.6200760668836 "/><polyline class="polyline" opacity="0.5" stroke="blue" points="195.24335703229906,208.02293136847183 249.25635452380524,203.03593623151428 "/><polyline class="polyline" opacity="0.5" stroke="blue" points="195.22875824798842,206.74286039680572 248.90418924643814,202.4722318322576 "/><polyline class="polyline" opacity="0.5" stroke="blue" points="195.21600505957983,205.46091210560846 248.54730696726335,201.9290159336053 "/><polyline class="polyline" opacity="0.5" stroke="blue" points="195.20509960618278,204.1774444123232 248.18558967766444,201.40632210331754 "/><polyline class="polyline" opacity="0.5" stroke="blue" points="195.19604380565377,202.8928148313701 247.8189222087074,200.90416428437445 "/><polyline class="polyline" opacity="0.5" stroke="blue" points="195.18883935665536,201.60738056869857 247.4471924143868,200.4225366848347 "/><polyline class="polyline" opacity="0.5" stroke="blue" points="195.18348774024454,200.32149861689723 247.0702913532855,199.96141368705713 "/><polyline class="polyline" opacity="0.5" stroke="blue" points="195.17999022098977,199.03552585068672 246.6881134682369,199.5207497777167 "/><polyline class="polyline" opacity="0.5" stroke="blue" points="195.17834784761632,197.7498191226273 246.30055676356355,199.10047950001564 "/><polyline class="polyline" opacity="0.5" stroke="blue" points="195.17856145317913,196.4647353588671 245.9075229794541,198.7005174294515 "/><polyline class="polyline" opacity="0.5" stroke="blue" points="195.180631654763,195.180631654763 245.50891776303,198.3207581744601 "/><polyline class="polyline" opacity="0.5" stroke="blue" points="195.18455885270907,193.89786537020098 245.10465083564395,197.9610764031974 "/><polyline class="polyline" opacity="0.5" stroke="blue" points="195.19034322936773,192.61679422444496 244.69463615594432,197.62132689766605 "/><polyline class="polyline" opacity="0.5" stroke="blue" points="195.19798474737706,191.33777639034258 244.27879207823665,197.3013446363249 "/><polyline class="polyline" opacity="0.5" stroke="blue" points="195.20748314746672,190.06117058771312 243.8570415056678,197.00094490624625 "/><polyline class="polyline" opacity="0.5" stroke="blue" points="195.2188379457866,188.78733617574275 243.42931203775942,196.7199234458042 "/><polyline class="polyline" opacity="0.5" stroke="blue" points="195.23204843076013,187.51663324421142 242.99553611181798,196.4580566187909 "/><polyline class="polyline" opacity="0.5" stroke="blue" points="195.24711365946214,186.24942270337152 242.55565113775265,196.215101620762 "/><polyline class="polyline" opacity="0.5" stroke="blue" points="195.26403245352057,184.98606637229787 242.1095996258387,195.99079671831328 "/><polyline class="polyline" opacity="0.5" stroke="blue" points="195.28280339454238,183.72692706552587 241.6573293069727,195.78486152188287 "/><polyline class="polyline" opacity="0.5" stroke="blue" points="195.30342481906345,182.47236867779043 241.19879324497657,195.5969972925627 "/><polyline class="polyline" opacity="0.5" stroke="blue" points="195.32589481302264,181.22275626667775 240.73394994052265,195.42688728328432 "/><polyline class="polyline" opacity="0.5" stroke="blue" points="195.35021120576008,179.97845613299546 240.2627634262664,195.27419711462335 "/><polyline class="polyline" opacity="0.5" stroke="blue" points="195.37637156354023,178.73983589866646 239.785203352793,195.13857518534087 "/><polyline class="polyline" opacity="0.5" stroke="blue" points="195.40437318260018,177.5072645819445 239.30124506500573,195.01965311764994 "/><polyline class="polyline" opacity="0.5" stroke="blue" points="195.43421308172393,176.28111266974906 238.81086966860641,194.9170462370639 "/><polyline class="polyline" opacity="0.5" stroke="blue" points="195.46588799434343,175.06175218690927 238.31406408634498,194.83035408654837 "/><polyline class="polyline" opacity="0.5" stroke="blue" points="195.499394360168,173.8495567621051 237.810821103743,194.7591609745626 "/><polyline class="polyline" opacity="0.5" stroke="blue" points="195.53472831634315,172.64490169028699 237.30113940402615,194.7030365564393 "/><polyline class="polyline" opacity="0.5" stroke="blue" points="195.5718856881407,171.4481639913527 236.78502359203299,194.66153644841484 "/><polyline class="polyline" opacity="0.5" stroke="blue" points="195.61086197918257,170.25972246485247 236.26248420690186,194.63420287348652 "/><polyline class="polyline" opacity="0.5" stroke="blue" points="195.65165236120023,169.07995774049022 235.7335377233719,194.62056533813762 "/><polyline class="polyline" opacity="0.5" stroke="blue" points="195.69425166333312,167.90925232418334 235.19820654157405,194.62014133884023 "/><polyline class="polyline" opacity="0.5" stroke="blue" points="195.73865436096915,166.74799063943647 234.65651896522368,194.632437097116 "/><polyline class="polyline" opacity="0.5" stroke="blue" points="195.78485456413122,165.5965590637818 234.10850916816858,194.6569483218096 "/><polyline class="polyline" opacity="0.5" stroke="blue" points="195.83284600541376,164.4553459600302 233.5542171492849,194.6931609971103 "/><polyline class="polyline" opacity="0.5" stroke="blue" points="195.88262202747464,163.32474170207428 232.99368867575615,194.74055219474062 "/><polyline class="polyline" opacity="0.5" stroke="blue" points="195.93417557008766,162.20513869497694 232.42697521481108,194.7985909086241 "/><polyline class="polyline" opacity="0.5" stroke="blue" points="195.9874991567619,161.09693138907573 231.8541338540394,194.86673891024037 "/><polyline class="polyline" opacity="0.5" stroke="blue" points="196.04258488093473,160.00051628782498 231.27522721044497,194.94445162278322 "/><polyline class="polyline" opacity="0.5" stroke="blue" points="196.099424391746,158.9162919490953 230.69032332843858,195.03117901214992 "/><polyline class="polyline" opacity="0.5" stroke="blue" points="196.15800887940236,157.84465897964213 230.09949556701326,195.1263664927135 "/><polyline class="polyline" opacity="0.5" stroke="blue" points="196.2183290601402,156.78602002245256 229.50282247638557,195.2294558457609 "/><polyline class="polyline" opacity="0.5" stroke="blue" points="196.2803751607982,155.74077973667187 228.90038766442515,195.33988614842187 "/><polyline class="polyline" opacity="0.5" stroke="blue" points="196.34413690301005,154.70934476980932 228.2922796532336,195.45709471086468 "/><polyline class="polyline" opacity="0.5" stroke="blue" points="196.4096034870301,153.69212372191703 227.67859172626999,195.58051801949674 "/><polyline class="polyline" opacity="0.5" stroke="blue" points="196.47676357520484,152.68952710143083 227.05942176645485,195.70959268388071 "/><polyline class="polyline" opacity="0.5" stroke="blue" points="196.54560527510478,151.70196727236151 226.4348720857188,195.84375638505932 "/><polyline class="polyline" opacity="0.5" stroke="blue" points="196.61611612233241,150.72985839251774 225.80504924649077,195.98244882297737 "/><polyline class="polyline" opacity="0.5" stroke="blue" points="196.6882830630234,149.7736163424425 225.17006387565212,196.12511266069208 "/><polyline class="polyline" opacity="0.5" stroke="blue" points="196.76209243605857,148.83365864474092 224.5300304715064,196.27119446308063 "/><polyline class="polyline" opacity="0.5" stroke="blue" points="196.83752995500728,147.9104043734767 223.88506720434088,196.42014562777803 "/><polyline class="polyline" opacity="0.5" stroke="blue" points="196.91458068982257,147.00427405331305 223.2352957111745,196.57142330611615 "/><polyline class="polyline" opacity="0.5" stroke="blue" points="196.99322904831084,146.11568954807447 222.58084088530714,196.7244913118797 "/><polyline class="polyline" opacity="0.5" stroke="blue" points="197.07345875740052,145.24507393840557 221.92183066129883,196.87882101575272 "/><polyline class="polyline" opacity="0.5" stroke="blue" points="197.1552528442352,144.3928513882059 221.25839579602138,197.03389222339294 "/><polyline class="polyline" opacity="0.5" stroke="blue" points="197.2385936171192,143.55944699952107 220.5906696464326,197.18919403514613 "/><polyline class="polyline" opacity="0.5" stroke="blue" points="197.32346264634407,142.74528665557494 219.91878794473172,197.34422568549482 "/><polyline class="polyline" opacity="0.5" stroke="blue" points="197.4098407449281,141.9507968516312 219.24288857155605,197.49849736042472 "/><polyline class="polyline" opacity="0.5" stroke="blue" points="197.49770794930086,141.17640451338036 218.56311132788062,197.65153099099015 "/><polyline class="polyline" opacity="0.5" stroke="blue" points="197.5870434999684,140.42253680255254 217.87959770628035,197.80286102146096 "/><polyline class="polyline" opacity="0.5" stroke="blue" points="197.67782582219508,139.68962090946718 217.19249066220698,197.9520351505434 "/><polyline class="polyline" opacity="0.5" stroke="blue" points="197.7700325067419,138.97808383223935 216.50193438592802,198.0986150442797 "/><polyline class="polyline" opacity="0.5" stroke="blue" points="197.86364029070108,138.28835214237404 215.80807407576063,198.24217701934776 "/><polyline class="polyline" opacity="0.5" stroke="blue" points="197.95862503847073,137.6208517364918 215.11105571322352,198.38231269560364 "/><polyline class="polyline" opacity="0.5" stroke="blue" points="198.0549617229141,136.9760075739448 214.41102584071098,198.5186296168317 "/><polyline class="polyline" opacity="0.5" stroke="blue" points="198.15262440675087,136.35424340009777 213.70813134227788,198.65075183879117 "/><polyline class="polyline" opacity="0.5" stroke="blue" points="198.25158622422975,135.7559814550662 213.0025192281019,198.77832048377377 "/><polyline class="polyline" opacity="0.5" stroke="blue" points="198.3518193631339,135.1816421677242 212.29433642316906,198.90099426101165 "/><polyline class="polyline" opacity="0.5" stroke="blue" points="198.4532950471728,134.63164383481595 211.58372956070312,199.01844995239966 "/><polyline class="polyline" opacity="0.5" stroke="blue" points="198.55598351881645,134.10640228502928 210.87084478083554,199.1303828631193 "/><polyline class="polyline" opacity="0.5" stroke="blue" points="198.65985402263,133.6063305279146 210.1558275349836,199.23650723687172 "/><polyline class="polyline" opacity="0.5" stroke="blue" points="198.76487478916857,133.13183838756095 209.4388223963783,199.3365566355471 "/><polyline class="polyline" opacity="0.5" stroke="blue" points="198.87101301949497,132.68333212097178 208.7199728771534,199.43028428327102 "/><polyline class="polyline" opacity="0.5" stroke="blue" points="198.978234870384,132.26121402111394 207.9994212523762,199.51746337488004 "/><polyline class="polyline" opacity="0.5" stroke="blue" points="199.08650544028023,131.86588200465008 207.2773083913721,199.59788734898564 "/><polyline class="polyline" opacity="0.5" stroke="blue" points="199.19578875607672,131.49772918439993 206.55377359666105,199.67137012588574 "/><polyline class="polyline" opacity="0.5" stroke="blue" points="199.30604776078522,131.15714342661727 205.82895445079572,199.73774631068105 "/><polyline class="polyline" opacity="0.5" stroke="blue" points="199.41724430216934,130.84450689320857 205.1029866713565,199.79687136204132 "/><polyline class="polyline" opacity="0.5" stroke="blue" points="199.52933912241411,130.5601955690666 204.37600397433,199.84862172715327 "/><polyline class="polyline" opacity="0.5" stroke="blue" points="199.64229184890692,130.3045787747363 203.64813794606368,199.89289494345755 "/><polyline class="polyline" opacity="0.5" stroke="blue" points="199.75606098620574,130.07801866468157 202.9195179239617,199.929609707854 "/><polyline class="polyline" opacity="0.5" stroke="blue" points="199.87060390927255,129.8808697114694 202.19027088605284,199.9587059141192 "/><polyline class="polyline" opacity="0.5" stroke="blue" points="199.98587685805012,129.71347817624599 201.460521349536,199.9801446593358 "/><polyline class="polyline" opacity="0.5" stroke="blue" points="200.1018349334615,129.57618156593122 200.73039127837637,199.99390822018572 "/><polyline class="polyline" opacity="0.5" stroke="blue" points="200.21843209491223,129.46930807761845 200.0,200.0 "/><polyline class="polyline" opacity="0.5" stroke="blue" points="200.3356211593756,129.39317603072485 199.26946413110596,199.99844444749587 "/><polyline class="polyline" opacity="0.5" stroke="blue" points="200.45335380214144,129.34809328750123 198.53889751259027,199.98928694815962 "/><polyline class="polyline" opacity="0.5" stroke="blue" points="200.57158055930876,129.33435666257301 197.80841115355182,199.97259368925634 "/><polyline class="polyline" opacity="0.5" stroke="blue" points="200.69025083210235,129.35225132224923 197.07811318432465,199.94845149946283 "/><polyline class="polyline" opacity="0.5" stroke="blue" points="200.8093128930925,129.40205017440468 196.34810881846226,199.91696766412886 "/><polyline class="polyline" opacity="0.5" stroke="blue" points="200.92871389439634,129.48401324980796 195.61850032357572,199.87826971717337 "/><polyline class="polyline" opacity="0.5" stroke="blue" points="201.04839987793736,129.59838707583685 194.88938700090966,199.83250521061981 "/><polyline class="polyline" opacity="0.5" stroke="blue" points="201.16831578783868,129.7454040435946 194.1608651735218,199.7798414627634 "/><polyline class="polyline" opacity="0.5" stroke="blue" points="201.28840548502333,129.92528176950918 193.43302818291468,199.72046528594856 "/><polyline class="polyline" opacity="0.5" stroke="blue" points="201.40861176409163,130.1382224525717 192.70596639395225,199.6545826949133 "/><polyline class="polyline" opacity="0.5" stroke="blue" points="201.52887637254435,130.38441222843767 191.97976720788233,199.58241859663235 "/><polyline class="polyline" opacity="0.5" stroke="blue" points="201.6491400324154,130.66402052168993 191.25451508326952,199.5042164625587 "/><polyline class="polyline" opacity="0.5" stroke="blue" points="201.76934246437585,130.97719939762885 190.53029156463586,199.4202379841301 "/><polyline class="polyline" opacity="0.5" stroke="blue" points="201.88942241436524,131.3240829150264 189.8071753185925,199.33076271236632 "/><polyline class="polyline" opacity="0.5" stroke="blue" points="202.0093176828028,131.7047864813482 189.08524217724005,199.236087682342 "/><polyline class="polyline" opacity="0.5" stroke="blue" points="202.1289651564257,132.11940621201367 188.36456518860507,199.1365270232724 "/><polyline class="polyline" opacity="0.5" stroke="blue" points="202.24830084279623,132.5680182953276 187.64521467387482,199.0324115549019 "/><polyline class="polyline" opacity="0.5" stroke="blue" points="202.3672599075132,133.0506783647789 186.92725829118632,198.92408837083323 "/><polyline class="polyline" opacity="0.5" stroke="blue" points="202.48577671415748,133.5674208804587 186.2107611057208,198.81192040938168 "/><polyline class="polyline" opacity="0.5" stroke="blue" points="202.60378486699418,134.11825852140507 185.49578566585205,198.69628601248374 "/><polyline class="polyline" opacity="0.5" stroke="blue" points="202.72121725644638,134.70318159073204 184.7823920850921,198.57757847313198 "/><polyline class="polyline" opacity="0.5" stroke="blue" points="202.83800610734858,135.32215743544597 184.07063812957844,198.45620557175206 "/><polyline class="polyline" opacity="0.5" stroke="blue" points="202.95408302997885,135.97512988289276 183.36057931084187,198.33258910187672 "/><polyline class="polyline" opacity="0.5" stroke="blue" points="203.06937907386074,136.662018695815 182.65226898359728,198.20716438541484 "/><polyline class="polyline" opacity="0.5" stroke="blue" points="203.18382478431712,137.38271904802696 181.94575844829524,198.0803797777537 "/><polyline class="polyline" opacity="0.5" stroke="blue" points="203.29735026174802,138.1371010227374 181.24109705817568,197.95269616287462 "/><polyline class="polyline" opacity="0.5" stroke="blue" points="203.40988522359626,138.92500913556697 180.53833233056295,197.82458643860343 "/><polyline class="polyline" opacity="0.5" stroke="blue" points="203.5213590689532,139.7462618843132 179.83751006214405,197.69653499206203 "/><polyline class="polyline" opacity="0.5" stroke="blue" points="203.6317009457479,140.60065132751902 179.13867444797143,197.56903716532952 "/><polyline class="polyline" opacity="0.5" stroke="blue" points="203.74083982045178,141.48794269388964 178.44186820393375,197.44259871126948 "/><polyline class="polyline" opacity="0.5" stroke="blue" points="203.84870455022053,142.40787402458864 177.7471326924387,197.31773523942718 "/><polyline class="polyline" opacity="0.5" stroke="blue" points="203.95522395738408,143.36015585041758 177.05450805105298,197.1949716518505 "/><polyline class="polyline" opacity="0.5" stroke="blue" points="204.06032690618457,144.34447090584675 176.3640333238466,197.07484156864217 "/><polyline class="polyline" opacity="0.5" stroke="blue" points="204.16394238165117,145.3604738818242 175.67574659518775,196.9578867430058 "/><polyline class="polyline" opacity="0.5" stroke="blue" points="204.26599957048958,146.40779121923077 174.98968512573794,196.8446564655076 "/><polyline class="polyline" opacity="0.5" stroke="blue" points="204.36642794385364,147.4860209447894 174.30588549039462,196.73570695723782 "/><polyline class="polyline" opacity="0.5" stroke="blue" points="204.46515734185417,148.59473255115827 173.62438371793158,196.63160075152206 "/><polyline class="polyline" opacity="0.5" stroke="blue" points="204.56211805965197,149.73346692285634 172.94521543208512,196.53290606380264 "/><polyline class="polyline" opacity="0.5" stroke="blue" points="204.6572409349688,150.9017363095722 172.26841599383533,196.4401961492845 "/><polyline class="polyline" opacity="0.5" stroke="blue" points="204.75045743684197,152.0990243483047 171.5940206446294,196.35404864791906 "/><polyline class="polyline" opacity="0.5" stroke="blue" points="204.84169975543767,153.32478613566707 170.92206465029395,196.27504491628343 "/><polyline class="polyline" opacity="0.5" stroke="blue" points="204.93090089272903,154.57844835156283 170.25258344538037,196.2037693459002 "/><polyline class="polyline" opacity="0.5" stroke="blue" points="205.0179947538359,155.8594094353076 169.5856127776867,196.1408086675387 "/><polyline class="polyline" opacity="0.5" stroke="blue" points="205.1029162388154,157.16703981512768 168.92118885269417,196.08675124103684 "/><polyline class="polyline" opacity="0.5" stroke="blue" points="205.18560133468486,158.50068219181392 168.2593484776562,196.04218633018917 "/><polyline class="polyline" opacity="0.5" stroke="blue" points="205.26598720745096,159.85965187715092 167.6001292050722,196.00770336225835 "/><polyline class="polyline" opacity="0.5" stroke="blue" points="205.34401229391403,161.24323718757216 166.94356947527416,195.98389117168486 "/><polyline class="polyline" opacity="0.5" stroke="blue" points="205.4196163930104,162.6506998933179 166.28970875785092,195.97133722759463 "/><polyline class="polyline" opacity="0.5" stroke="blue" points="205.49274075645087,164.081275723193 165.63858769162752,195.97062684473605 "/><polyline class="polyline" opacity="0.5" stroke="blue" points="205.56332817841147,165.53417492483283 164.99024822291415,195.98234237751518 "/><polyline class="polyline" opacity="0.5" stroke="blue" points="205.6313230840277,167.00858288019793 164.34473374172993,196.00706239684462 "/><polyline class="polyline" opacity="0.5" stroke="blue" points="205.69667161644446,168.50366077581972 163.70208921570446,196.04536084957329 "/><polyline class="polyline" opacity="0.5" stroke="blue" points="205.75932172217162,170.01854632712687 163.0623613213488,196.09780620032637 "/><polyline class="polyline" opacity="0.5" stroke="blue" points="205.8192232344966,171.5523545559773 162.42559857238496,196.1649605556502 "/><polyline class="polyline" opacity="0.5" stroke="blue" points="205.8763279547069,173.10417862032702 161.7918514448127,196.2473787704355 "/><polyline class="polyline" opacity="0.5" stroke="blue" points="205.93058973087827,174.67309069476215 161.1611724983868,196.34560753667387 "/><polyline class="polyline" opacity="0.5" stroke="blue" points="205.98196453398853,176.25814290042692 160.53361649417047,196.4601844546946 "/><polyline class="polyline" opacity="0.5" stroke="blue" points="206.03041053112173,177.85836828268273 159.90924050782252,196.59163708712853 "/><polyline class="polyline" opacity="0.5" stroke="blue" points="206.07588815553407,179.47278183464272 159.2881040382707,196.74048199595208 "/><polyline class="polyline" opacity="0.5" stroke="blue" points="206.11836017335997,181.10038156454024 158.67026911141403,196.90722376308045 "/><polyline class="polyline" opacity="0.5" stroke="blue" points="206.15779174674557,182.74014960470822 158.05580037849396,197.09235399510032 "/><polyline class="polyline" opacity="0.5" stroke="blue" points="206.19415049320648,184.3910533597742 157.4447652087643,197.29635031286375 "/><polyline class="polyline" opacity="0.5" stroke="blue" points="206.2274065410168,186.05204669150902 156.8372337760887,197.51967532680084 "/><polyline class="polyline" opacity="0.5" stroke="blue" points="206.2575325804485,187.7220711376143 156.23327913908582,197.76277559895377 "/><polyline class="polyline" opacity="0.5" stroke="blue" points="206.284503910693,189.40005716158413 155.63297731444192,198.02608059288536 "/><polyline class="polyline" opacity="0.5" stroke="blue" points="206.30829848230948,191.08492543064688 155.0364073430056,198.31000161277103 "/><polyline class="polyline" opacity="0.5" stroke="blue" points="206.32889693505936,192.7755881186658 154.44365134827902,198.61493073314716 "/><polyline class="polyline" opacity="0.5" stroke="blue" points="206.34628263100151,194.47095023077307 153.8547945869191,198.94123972095414 "/><polyline class="polyline" opacity="0.5" stroke="blue" points="206.36044168273793,196.1699109464105 153.26992549086435,199.28927895168573 "/><polyline class="polyline" opacity="0.5" stroke="blue" points="206.37136297671637,197.87136497737478 152.68913570070376,199.65937632163036 "/><polyline class="polyline" opacity="0.5" stroke="blue" points="206.37903819151302,199.57420393739224 152.1125200899118,200.05183615836825 "/><polyline class="polyline" opacity="0.5" stroke="blue" points="206.38346181103572,201.27731771970312 151.5401767795771,200.46693813186826 "/><polyline class="polyline" opacity="0.5" stroke="blue" points="206.38463113260545,202.97959587909403 150.97220714326258,200.9049361687078 "/><polyline class="polyline" opacity="0.5" stroke="blue" points="206.38254626989215,204.6799290148004 150.40871580164594,201.36605737212008 "/><polyline class="polyline" opacity="0.5" stroke="blue" points="206.37721015069786,206.37721015069786 149.84981060660095,201.85050095075113 "/><polyline class="polyline" opacity="0.5" stroke="blue" points="206.36862850959946,208.07033610920882 149.2956026143972,202.35843715918378 "/><polyline class="polyline" opacity="0.5" stroke="blue" points="206.35680987547957,209.7582088753864 148.7462060477134,202.89000625345906 "/><polyline class="polyline" opacity="0.5" stroke="blue" points="206.34176555399333,211.43973694767152 148.2017382461801,203.44531746498825 "/><polyline class="polyline" opacity="0.5" stroke="blue" points="206.32350960503473,213.11383667188915 147.66231960519252,204.02444799641077 "/><polyline class="polyline" opacity="0.5" stroke="blue" points="206.30205881528468,214.7794335551149 147.12807350275926,204.6274420430993 "/><polyline class="polyline" opacity="0.5" stroke="blue" points="206.27743266593822,216.43546355613825 146.59912621418297,205.25430984415573 "/><polyline class="polyline" opacity="0.5" stroke="blue" points="206.24965329572484,218.08087434934723 146.0756068144028,205.90502676686654 "/><polyline class="polyline" opacity="0.5" stroke="blue" points="206.21874545935194,219.71462655897867 145.55764706786113,206.57953242870124 "/><polyline class="polyline" opacity="0.5" stroke="blue" points="206.18473648151442,221.33569496080486 145.04538130579905,207.27772986103398 "/><polyline class="polyline" opacity="0.5" stroke="blue" points="206.14765620662928,222.94306964846763 144.53894629092326,207.99948471884994 "/><polyline class="polyline" opacity="0.5" stroke="blue" points="206.1075369444654,224.53575716182377 144.03848106943428,208.74462454075945 "/><polyline class="polyline" opacity="0.5" stroke="blue" points="206.06441341185194,226.11278157482255 143.54412681045147,209.51293806368275 "/><polyline class="polyline" opacity="0.5" stroke="blue" points="206.0183226706594,227.67318554061063 143.05602663292024,210.30417459658852 "/><polyline class="polyline" opacity="0.5" stroke="blue" points="205.96930406225746,229.2160312917332 142.57432542013953,211.11804345766234 "/><polyline class="polyline" opacity="0.5" stroke="blue" points="205.91739913866326,230.740401593483 142.09916962210394,211.95421347925065 "/><polyline class="polyline" opacity="0.5" stroke="blue" points="205.86265159060105,232.24540064864334 141.63070704590808,212.81231258486912 "/><polyline class="polyline" opacity="0.5" stroke="blue" points="205.805107172702,233.73015495205823 141.16908663452332,213.69192744247744 "/><polyline class="polyline" opacity="0.5" stroke="blue" points="205.7448136260773,235.19381409366449 140.71445823431463,214.5926031981088 "/><polyline class="polyline" opacity="0.5" stroke="blue" points="205.68182059850415,236.6355515088156 140.26697235172895,215.51384329379613 "/><polyline class="polyline" opacity="0.5" stroke="blue" points="205.61617956246596,238.0545651749304 139.82677989964654,216.45510937356391 "/><polyline class="polyline" opacity="0.5" stroke="blue" points="205.54794373129178,239.45007825369572 139.39403193395162,217.41582128104545 "/><polyline class="polyline" opacity="0.5" stroke="blue" points="205.4771679736403,240.82133967825365 138.96887938094022,218.39535715204929 "/><polyline class="polyline" opacity="0.5" stroke="blue" points="205.40390872657483,242.1676246849962 138.5514727562475,219.39305360512662 "/><polyline class="polyline" opacity="0.5" stroke="blue" points="205.32822390747418,243.48823528978733 138.14196187603545,220.4082060328946 "/><polyline class="polyline" opacity="0.5" stroke="blue" points="205.25017282502253,244.78250070861753 137.74049556124567,221.44006899653567 "/><polyline class="polyline" opacity="0.5" stroke="blue" points="205.16981608951903,246.04977772288188 137.34722133577793,222.48785672553547 "/><polyline class="polyline" opacity="0.5" stroke="blue" points="205.0872155227434,247.28945098964658 136.96228511951327,223.5507437243303 "/><polyline class="polyline" opacity="0.5" stroke="blue" points="205.00243406760953,248.5009332974464 136.5858309171515,224.62786548712248 "/><polyline class="polyline" opacity="0.5" stroke="blue" points="204.91553569783352,249.68366576831286 136.21800050388524,225.71831932167922 "/><polyline class="polyline" opacity="0.5" stroke="blue" points="204.82658532783634,250.83711800689105 135.85893310897654,226.8211652824662 "/><polyline class="polyline" opacity="0.5" stroke="blue" points="204.73564872309365,251.96078819765262 135.5087650983449,227.9354272129882 "/><polyline class="polyline" opacity="0.5" stroke="blue" points="204.64279241113894,253.05420315134734 135.16762965731158,229.06009389670112 "/><polyline class="polyline" opacity="0.5" stroke="blue" points="204.54808359341655,254.11691830196725 134.83565647467555,230.19412031535154 "/><polyline class="polyline" opacity="0.5" stroke="blue" points="204.4515900581731,255.14851765561508 134.51297142932356,231.33642901306638 "/><polyline class="polyline" opacity="0.5" stroke="blue" points="204.3533800945665,256.1486136927808 134.19969628059363,232.4859115639872 "/><polyline class="polyline" opacity="0.5" stroke="blue" points="204.25352240816167,257.11684722562717 133.8959483636248,233.64143014070208 "/><polyline class="polyline" opacity="0.5" stroke="blue" points="204.15208603797296,258.05288721197627 133.60184029093173,234.80181918019224 "/><polyline class="polyline" opacity="0.5" stroke="blue" points="204.04914027520158,258.95643052776745 133.3174796614398,235.96588714347638 "/><polyline class="polyline" opacity="0.5" stroke="blue" points="203.94475458380774,259.82720169982764 133.0429687782083,237.1324183646131 "/><polyline class="polyline" opacity="0.5" stroke="blue" points="203.83899852304486,260.66495260085236 132.77840437605147,238.30017498420835 "/><polyline class="polyline" opacity="0.5" stroke="blue" points="203.73194167207373,261.4694621085463 132.52387736024394,239.46789896208 "/><polyline class="polyline" opacity="0.5" stroke="blue" points="203.62365355676283,262.2405357309112 132.2794725574639,240.63431416326134 "/><polyline class="polyline" opacity="0.5" stroke="blue" points="203.51420357877143,262.9780051997001 132.04526848008737,241.79812851107408 "/><polyline class="polyline" opacity="0.5" stroke="blue" points="203.4036609470001,263.6817280340758 131.82133710490245,242.9580362005863 "/><polyline class="polyline" opacity="0.5" stroke="blue" points="203.29209461148434,264.35158707652556 131.6077436672533,244.11271996538326 "/><polyline class="polyline" opacity="0.5" stroke="blue" points="203.1795731997949,264.987490003087 131.40454647156696,245.26085339023433 "/><polyline class="polyline" opacity="0.5" stroke="blue" points="203.06616495600008,265.5893688099349 131.21179671914516,246.40110326192908 "/><polyline class="polyline" opacity="0.5" stroke="blue" points="202.95193768223388,266.1571792783695 131.02953835402934,247.53213195029397 "/><polyline class="polyline" opacity="0.5" stroke="blue" points="202.83695868290553,266.69090042022174 130.85780792766806,248.65259981117927 "/><polyline class="polyline" opacity="0.5" stroke="blue" points="202.72129471157535,267.1905339056737 130.6966344830302,249.7611676030407 "/><polyline class="polyline" opacity="0.5" stroke="blue" points="202.60501192051456,267.6561034754506 130.54603945871693,250.85649890861623 "/><polyline class="polyline" opacity="0.5" stroke="blue" points="202.48817581295614,268.0876543393117 130.40603661353268,251.93726255313214 "/><polyline class="polyline" opacity="0.5" stroke="blue" points="202.3708511980379,268.4852525627159 130.27663197187843,253.0021350104548 "/><polyline class="polyline" opacity="0.5" stroke="blue" points="202.2531021484289,268.8489844434978 130.1578237902291,254.04980278864332 "/><polyline class="polyline" opacity="0.5" stroke="blue" points="202.13499196062435,269.17895588033 130.04960254485843,255.07896478644525 "/><polyline class="polyline" opacity="0.5" stroke="blue" points="202.01658311788756,269.47529173469786 129.95195094087103,256.0883346124188 "/><polyline class="polyline" opacity="0.5" stroke="blue" points="201.89793725580893,269.7381351880472 129.86484394249743,257.0766428585596 "/><polyline class="polyline" opacity="0.5" stroke="blue" points="201.77911513044853,269.9676470957089 129.7882488245088,258.0426393205486 "/><polyline class="polyline" opacity="0.5" stroke="blue" points="201.66017658902115,270.1640053391344 129.7221252445055,258.98509515703 "/><polyline class="polyline" opacity="0.5" stroke="blue" points="201.5411805430786,270.3274041779121 129.66642533573557,259.90280498065823 "/><polyline class="polyline" opacity="0.5" stroke="blue" points="201.42218494413885,270.45805360296436 129.62109382000412,260.7945888740338 "/><polyline class="polyline" opacity="0.5" stroke="blue" points="201.30324676170733,270.55617869225676 129.58606814014195,261.65929432406034 "/><polyline class="polyline" opacity="0.5" stroke="blue" points="201.18442196363173,270.62201897027956 129.56127861141402,262.495798068706 "/><polyline class="polyline" opacity="0.5" stroke="blue" points="201.06576549872895,270.65582777248864 129.5466485911661,263.3030078506351 "/><polyline class="polyline" opacity="0.5" stroke="blue" points="200.9473312816178,270.65787161582637 129.54209466592908,264.0798640726858 "/><polyline class="polyline" opacity="0.5" stroke="blue" points="200.82917217969103,270.6284295763665 129.54752685512966,264.82534135070284 "/><polyline class="polyline" opacity="0.5" stroke="blue" points="200.7113400021555,270.5677926750609 129.5628488304912,265.538449959784 "/><polyline class="polyline" opacity="0.5" stroke="blue" points="200.5938854910692,270.4762632724932 129.58795815014759,266.21823717056776 "/><polyline class="polyline" opacity="0.5" stroke="blue" points="200.4768583143006,270.35415447347737 129.6227465064452,266.8637884727646 "/><polyline class="polyline" opacity="0.5" stroke="blue" points="200.36030706033654,270.20178954227083 129.66709998635957,267.4742286837141 "/><polyline class="polyline" opacity="0.5" stroke="blue" points="200.24427923486144,270.01950132910474 129.72089934341992,268.04872294033413 "/><polyline class="polyline" opacity="0.5" stroke="blue" points="200.12882125903266,269.80763170867215 129.78402028000255,268.5864775734056 "/><polyline class="polyline" opacity="0.5" stroke="blue" points="200.01397846937394,269.56653103114695 129.85633373883445,269.08674086370735 "/><polyline class="polyline" opacity="0.5" stroke="blue" points="199.89979511921078,269.2965575862516 129.9377062025331,269.5488036800749 "/><polyline class="polyline" opacity="0.5" stroke="blue" points="199.7863143815707,268.9980770808278 130.02800000000002,269.972 "/><polyline class="polyline" opacity="0.5" stroke="blue" points="199.67357835347158,268.67146213030935 130.12707361848936,270.35570731391266 "/><polyline class="polyline" opacity="0.5" stroke="blue" points="199.56162806152298,268.3170917644416 130.23478202017623,270.6993469147905 "/><polyline class="polyline" opacity="0.5" stroke="blue" points="199.45050346876462,267.93535094754003 130.35097696206486,271.00238407521636 "/><polyline class="polyline" opacity="0.5" stroke="blue" points="199.34024348266868,267.52663011352917 130.47550731809758,271.26432811445517 "/><polyline class="polyline" opacity="0.5" stroke="blue" points="199.2308859642324,267.09132471595615 130.6082194023499,271.48473235854186 "/><polyline class="polyline" opacity="0.5" stroke="blue" points="199.12246773809,266.629834793128 130.74895729222993,271.663193996759 "/><polyline class="polyline" opacity="0.5" stroke="blue" points="199.01502460357287,266.14256454847794 130.8975631506363,271.79935383823823 "/><polyline class="polyline" opacity="0.5" stroke="blue" points="198.90859134665044,265.6299219462268 131.0538775460704,271.8928959727397 "/><polyline class="polyline" opacity="0.5" stroke="blue" points="198.80320175268392,265.0923183223652 131.21773976974384,271.9435473399505 "/><polyline class="polyline" opacity="0.5" stroke="blue" points="198.69888861992777,264.5301680109495 131.3889881487715,271.95107721189004 "/><polyline class="polyline" opacity="0.5" stroke="blue" points="198.59568377371593,263.943887985667 131.5674603545921,271.91529659322714 "/><polyline class="polyline" opacity="0.5" stroke="blue" points="198.49361808127063,263.33389751659854 131.75299370581388,271.8360575444897 "/><polyline class="polyline" opacity="0.5" stroke="blue" points="198.39272146707455,262.7006178420746 131.94542546473798,271.7132524332923 "/><polyline class="polyline" opacity="0.5" stroke="blue" points="198.2930229287484,262.04447185549554 132.14459312687356,271.54681311881654 "/><polyline class="polyline" opacity="0.5" stroke="blue" points="198.19455055337846,261.36588380696156 132.35033470281468,271.3367100748509 "/><polyline class="polyline" opacity="0.5" stroke="blue" points="198.09733153424045,260.66527901953566 132.56248899191246,271.08295145674566 "/><polyline class="polyline" opacity="0.5" stroke="blue" points="198.00139218786774,259.94308361994075 132.780895847234,270.7855821176465 "/><polyline class="polyline" opacity="0.5" stroke="blue" points="197.90675797141492,259.1997242834744 133.00539643136145,270.4446825793553 "/><polyline class="polyline" opacity="0.5" stroke="blue" points="197.8134535002689,258.4356279929084 133.23583346264283,270.0603679631235 "/><polyline class="polyline" opacity="0.5" stroke="blue" points="197.72150256586193,257.6512218111229 133.47205145156636,269.63278688561314 "/><polyline class="polyline" opacity="0.5" stroke="blue" points="197.63092815364325,256.8469326672129 133.71389692698625,269.1621203251659 "/><polyline class="polyline" opacity="0.5" stroke="blue" points="197.54175246116813,256.02318715579173 133.96121865198373,268.64858046340896 "/><polyline class="polyline" opacity="0.5" stroke="blue" points="197.45399691626403,255.1804113492089 134.2138678292017,268.0924095070884 "/><polyline class="polyline" opacity="0.5" stroke="blue" points="197.36768219523705,254.3190306223847 134.4716982955424,267.4938784948718 "/><polyline class="polyline" opacity="0.5" stroke="blue" points="197.28282824108257,253.43946948996214 134.73456670616764,266.85328609369174 "/><polyline class="polyline" opacity="0.5" stroke="blue" points="197.1994542816662,252.5421514554676 135.00233270778693,266.17095738902356 "/><polyline class="polyline" opacity="0.5" stroke="blue" points="197.11757884784308,251.6274988721662 135.27485910126438,265.44724267329536 "/><polyline class="polyline" opacity="0.5" stroke="blue" points="197.03721979148537,250.69593281529507 135.55201199361653,264.68251623643084 "/><polyline class="polyline" opacity="0.5" stroke="blue" points="196.95839430338867,249.74787296535322 135.83366093951133,263.8771751623109 "/><polyline class="polyline" opacity="0.5" stroke="blue" points="196.88111893103152,248.78373750212768 136.11967907241433,263.0316381347308 "/><polyline class="polyline" opacity="0.5" stroke="blue" points="196.8054095961613,247.80394300912903 136.40994322556293,262.14634425620574 "/><polyline class="polyline" opacity="0.5" stroke="blue" points="196.73128161218398,246.80890438811525 136.70433404297657,261.22175188275935 "/><polyline class="polyline" opacity="0.5" stroke="blue" points="196.6587497013343,245.799034783379 137.00273608074048,260.25833747760703 "/><polyline class="polyline" opacity="0.5" stroke="blue" points="196.5878280116064,244.77474551547715 137.3050378988222,259.2565944864232 "/><polyline class="polyline" opacity="0.5" stroke="blue" points="196.51853013342452,243.7364460240808 137.61113214370528,258.2170322366634 "/><polyline class="polyline" opacity="0.5" stroke="blue" points="196.45086911603627,242.68454381962886 137.92091562213804,257.14017486319375 "/><polyline class="polyline" opacity="0.5" stroke="blue" points="196.38485748361103,241.61944444347026 138.23428936631623,256.0265602622702 "/><polyline class="polyline" opacity="0.5" stroke="blue" points="196.3205072510279,240.54155143618217 138.5511586908284,254.87673907569982 "/><polyline class="polyline" opacity="0.5" stroke="blue" points="196.25782993933845,239.45126631375717 138.8714332417049,253.69127370681582 "/><polyline class="polyline" opacity="0.5" stroke="blue" points="196.19683659089094,238.34898855135518 139.19502703792062,252.4707373697044 "/><polyline class="polyline" opacity="0.5" stroke="blue" points="196.13753778410322,237.23511557432175 139.52185850570615,251.2157131729325 "/><polyline class="polyline" opacity="0.5" stroke="blue" points="196.07994364787302,236.1100427561774 139.85185050602783,249.92679323884502 "/><polyline class="polyline" opacity="0.5" stroke="blue" points="196.02406387561467,234.97416342328887 140.18493035559857,248.60457785933033 "/><polyline class="polyline" opacity="0.5" stroke="blue" points="195.96990773891275,233.82786886593777 140.52102984178185,247.24967468878876 "/><polyline class="polyline" opacity="0.5" stroke="blue" points="195.91748410078375,232.6715483555087 140.8600852317496,245.8626979748853 "/><polyline class="polyline" opacity="0.5" stroke="blue" points="195.86680142853731,231.5055891675216 141.202037276252,244.4442678275206 "/><polyline class="polyline" opacity="0.5" stroke="blue" points="195.81786780622969,230.33037661024176 141.54683120835318,242.99500952632124 "/><polyline class="polyline" opacity="0.5" stroke="blue" points="195.7706909467027,229.1462940586034 141.8944167374797,241.51555286681946 "/><polyline class="polyline" opacity="0.5" stroke="blue" points="195.72527820320198,227.95372299319217 142.24474803912284,240.00653154537963 "/><polyline class="polyline" opacity="0.5" stroke="blue" points="195.68163658056866,226.75304304403247 142.59778374052797,238.468582582813 "/><polyline class="polyline" opacity="0.5" stroke="blue" points="195.63977274599984,225.54463203893505 142.95348690269327,236.90234578652758 "/><polyline class="polyline" opacity="0.5" stroke="blue" points="195.59969303937288,224.32886605616477 143.31182499899228,235.30846325096678 "/><polyline class="polyline" opacity="0.5" stroke="blue" points="195.56140348312974,223.10611948119188 143.6727698907227,233.68757889600508 "/><polyline class="polyline" opacity="0.5" stroke="blue" points="195.52490979171728,221.876765067298 144.03629779987347,232.04033804289654 "/><polyline class="polyline" opacity="0.5" stroke="blue" points="195.49021738058056,220.641173999811 144.40238927938879,230.36738702730273 "/><polyline class="polyline" opacity="0.5" stroke="blue" points="195.457331374706,219.39971596374986 144.77102918119706,228.66937284886913 "/><polyline class="polyline" opacity="0.5" stroke="blue" points="195.42625661671173,218.15275921466304 145.1422066222587,226.9469428567623 "/><polyline class="polyline" opacity="0.5" stroke="blue" points="195.39699767448275,216.90067065245051 145.51591494887361,225.20074447053904 "/><polyline class="polyline" opacity="0.5" stroke="blue" points="195.3695588483491,215.6438158979625 145.8921516994773,223.43142493567436 "/><polyline class="polyline" opacity="0.5" stroke="blue" points="195.34394417780447,214.38255937217423 146.27091856613774,221.63963111304759 "/><polyline class="polyline" opacity="0.5" stroke="blue" points="195.3201574477645,213.11726437773632 146.65222135495586,219.82600930165066 "/><polyline class="polyline" opacity="0.5" stroke="blue" points="195.29820219436237,211.84829318270843 147.03606994555403,217.9912050937677 "/><polyline class="polyline" opacity="0.5" stroke="blue" points="195.27808171028104,210.57600710628347 147.42247824982704,216.1358632618505 "/><polyline class="polyline" opacity="0.5" stroke="blue" points="195.25979904962043,209.30076660631656 147.8114641701125,214.2606276763089 "/><polyline class="polyline" opacity="0.5" stroke="blue" points="195.24335703229906,208.02293136847183 148.2030495569278,212.36614125341765 "/><polyline class="polyline" opacity="0.5" stroke="blue" points="195.22875824798842,206.74286039680575 148.5972601664031,210.45304593254258 "/><polyline class="polyline" opacity="0.5" stroke="blue" points="195.21600505957983,205.46091210560843 148.99412561752825,208.52198268188576 "/><polyline class="polyline" opacity="0.5" stroke="blue" points="195.20509960618278,204.17744441232315 149.39367934931803,206.57359153194685 "/><polyline class="polyline" opacity="0.5" stroke="blue" points="195.19604380565377,202.8928148313701 149.7959585779851,204.608511635907 "/><polyline class="polyline" opacity="0.5" stroke="blue" points="195.18883935665536,201.6073805686986 150.20100425419832,202.62738135614282 "/><polyline class="polyline" opacity="0.5" stroke="blue" points="195.18348774024454,200.32149861689717 150.60886102048926,200.63083837609167 "/><polyline class="polyline" opacity="0.5" stroke="blue" points="195.17999022098977,199.03552585068667 151.0195771688584,198.61951983669223 "/><polyline class="polyline" opacity="0.5" stroke="blue" points="195.17834784761632,197.7498191226273 151.4332045986173,196.5940624966422 "/><polyline class="polyline" opacity="0.5" stroke="blue" points="195.17856145317913,196.4647353588671 151.84979877449234,194.5551029157224 "/><polyline class="polyline" opacity="0.5" stroke="blue" points="195.180631654763,195.180631654763 152.2694186850013,192.5032776604535 "/><polyline class="polyline" opacity="0.5" stroke="blue" points="195.18455885270907,193.89786537020092 152.69212680110167,190.43922353136043 "/><polyline class="polyline" opacity="0.5" stroke="blue" points="195.19034322936773,192.61679422444496 153.11798903509805,188.36357781113634 "/><polyline class="polyline" opacity="0.5" stroke="blue" points="195.19798474737706,191.33777639034258 153.54707469978234,186.27697853301137 "/><polyline class="polyline" opacity="0.5" stroke="blue" points="195.20748314746672,190.06117058771306 153.97945646776816,184.1800647686437 "/><polyline class="polyline" opacity="0.5" stroke="blue" points="195.2188379457866,188.78733617574278 154.41521033096924,182.07347693486219 "/><polyline class="polyline" opacity="0.5" stroke="blue" points="195.23204843076013,187.51663324421142 154.8544155601595,179.95785711860293 "/><polyline class="polyline" opacity="0.5" stroke="blue" points="195.24711365946214,186.2494227033715 155.29715466453808,177.83384941939443 "/><polyline class="polyline" opacity="0.5" stroke="blue" points="195.26403245352057,184.98606637229784 155.7435133512139,175.70210030875032 "/><polyline class="polyline" opacity="0.5" stroke="blue" points="195.28280339454238,183.7269270655259 156.1935804845082,173.56325900584267 "/><polyline class="polyline" opacity="0.5" stroke="blue" points="195.30342481906345,182.47236867779043 156.64744804496524,171.41797786882924 "/><polyline class="polyline" opacity="0.5" stroke="blue" points="195.32589481302264,181.22275626667772 157.10521108794427,169.26691280121932 "/><polyline class="polyline" opacity="0.5" stroke="blue" points="195.35021120576008,179.97845613299543 157.56696770165877,167.11072367265578 "/><polyline class="polyline" opacity="0.5" stroke="blue" points="195.37637156354023,178.73983589866646 158.03281896451176,164.9500747534998 "/><polyline class="polyline" opacity="0.5" stroke="blue" points="195.40437318260018,177.5072645819445 158.50286890156673,162.78563516259456 "/><polyline class="polyline" opacity="0.5" stroke="blue" points="195.43421308172393,176.28111266974904 158.97722443997878,160.61807932758558 "/><polyline class="polyline" opacity="0.5" stroke="blue" points="195.46588799434343,175.06175218690925 159.4559953631994,158.44808745715852 "/><polyline class="polyline" opacity="0.5" stroke="blue" points="195.499394360168,173.8495567621051 159.93929426375414,156.27634602455197 "/><polyline class="polyline" opacity="0.5" stroke="blue" points="195.53472831634315,172.64490169028696 160.42723649438042,154.1035482616806 "/><polyline class="polyline" opacity="0.5" stroke="blue" points="195.57188568814072,171.44816399135266 160.91994011729753,151.9303946631924 "/><polyline class="polyline" opacity="0.5" stroke="blue" points="195.61086197918257,170.25972246485247 161.4175258513701,149.75759349975306 "/><polyline class="polyline" opacity="0.5" stroke="blue" points="195.6516523612002,169.07995774049022 161.92011701691058,147.5858613398314 "/><polyline class="polyline" opacity="0.5" stroke="blue" points="195.69425166333312,167.90925232418329 162.42783947785267,145.41592357922684 "/><polyline class="polyline" opacity="0.5" stroke="blue" points="195.73865436096915,166.7479906394364 162.94082158101514,143.2485149775426 "/><polyline class="polyline" opacity="0.5" stroke="blue" points="195.78485456413122,165.59655906378185 163.45919409215927,141.0843802007727 "/><polyline class="polyline" opacity="0.5" stroke="blue" points="195.83284600541376,164.45534596003023 163.98309012853105,138.92427436912362 "/><polyline class="polyline" opacity="0.5" stroke="blue" points="195.88262202747464,163.32474170207425 164.51264508756248,136.76896360914702 "/><polyline class="polyline" opacity="0.5" stroke="blue" points="195.93417557008766,162.20513869497688 165.04799657139384,134.61922560919797 "/><polyline class="polyline" opacity="0.5" stroke="blue" points="195.9874991567619,161.09693138907573 165.58928430686328,132.4758501771825 "/><polyline class="polyline" opacity="0.5" stroke="blue" points="196.04258488093473,160.00051628782498 166.1366500605955,130.33963979948646 "/><polyline class="polyline" opacity="0.5" stroke="blue" points="196.099424391746,158.91629194909524 166.69023754880618,128.21141019991336 "/><polyline class="polyline" opacity="0.5" stroke="blue" points="196.15800887940236,157.84465897964216 167.25019234142565,126.09199089737574 "/><polyline class="polyline" opacity="0.5" stroke="blue" points="196.2183290601402,156.78602002245256 167.81666176012897,123.98222576100744 "/><polyline class="polyline" opacity="0.5" stroke="blue" points="196.2803751607982,155.74077973667184 168.38979476984656,121.88297356127683 "/><polyline class="polyline" opacity="0.5" stroke="blue" points="196.34413690301005,154.7093447698093 168.9697418633151,119.79510851557977 "/><polyline class="polyline" opacity="0.5" stroke="blue" points="196.4096034870301,153.69212372191706 169.5566549382142,117.71952082669894 "/><polyline class="polyline" opacity="0.5" stroke="blue" points="196.47676357520484,152.68952710143083 170.15068716642202,115.65711721240243 "/><polyline class="polyline" opacity="0.5" stroke="blue" points="196.54560527510478,151.7019672723615 170.75199285490888,113.6088214243466 "/><polyline class="polyline" opacity="0.5" stroke="blue" points="196.61611612233241,150.7298583925177 171.36072729777715,111.57557475432247 "/><polyline class="polyline" opacity="0.5" stroke="blue" points="196.6882830630234,149.77361634244252 171.97704661894377,109.55833652576472 "/><polyline class="polyline" opacity="0.5" stroke="blue" points="196.76209243605854,148.83365864474092 172.60110760495144,107.55808456830516 "/><polyline class="polyline" opacity="0.5" stroke="blue" points="196.83752995500728,147.91040437347667 173.2330675273845,105.57581567301847 "/><polyline class="polyline" opacity="0.5" stroke="blue" points="196.91458068982257,147.00427405331303 173.87308395435966,103.61254602585743 "/><polyline class="polyline" opacity="0.5" stroke="blue" points="196.99322904831084,146.1156895480745 174.52131455055292,101.66931161663119 "/><polyline class="polyline" opacity="0.5" stroke="blue" points="197.07345875740052,145.24507393840557 175.17791686522085,99.74716862071766 "/><polyline class="polyline" opacity="0.5" stroke="blue" points="197.1552528442352,144.39285138820588 175.84304810767006,97.84719375054682 "/><polyline class="polyline" opacity="0.5" stroke="blue" points="197.2385936171192,143.55944699952113 176.51686490963,95.970484573718 "/><polyline class="polyline" opacity="0.5" stroke="blue" points="197.32346264634407,142.74528665557494 177.19952307398438,94.11815979445113 "/><polyline class="polyline" opacity="0.5" stroke="blue" points="197.4098407449281,141.9507968516312 177.89117730932094,92.2913594948954 "/><polyline class="polyline" opacity="0.5" stroke="blue" points="197.4977079493009,141.17640451338036 178.59198094976787,90.49124533264138 "/><polyline class="polyline" opacity="0.5" stroke="blue" points="197.5870434999684,140.42253680255254 179.30208565959526,88.71900069060617 "/><polyline class="polyline" opacity="0.5" stroke="blue" points="197.67782582219508,139.68962090946718 180.02164112207436,86.97583077528017 "/><polyline class="polyline" opacity="0.5" stroke="blue" points="197.7700325067419,138.97808383223935 180.75079471210566,85.26296265914858 "/><polyline class="polyline" opacity="0.5" stroke="blue" points="197.86364029070108,138.28835214237404 181.4896911521511,83.5816452629157 "/><polyline class="polyline" opacity="0.5" stroke="blue" points="197.95862503847073,137.62085173649183 182.23847215103092,81.93314927299184 "/><polyline class="polyline" opacity="0.5" stroke="blue" points="198.0549617229141,136.9760075739448 182.99727602518112,80.31876698952793 "/><polyline class="polyline" opacity="0.5" stroke="blue" points="198.15262440675087,136.35424340009774 183.76623730200302,78.73981210012076 "/><polyline class="polyline" opacity="0.5" stroke="blue" points="198.25158622422975,135.7559814550662 184.54548630498363,77.19761937415063 "/><polyline class="polyline" opacity="0.5" stroke="blue" points="198.3518193631339,135.18164216772422 185.33514872031378,75.69354427257116 "/><polyline class="polyline" opacity="0.5" stroke="blue" points="198.4532950471728,134.63164383481595 186.13534514479022,74.22896246783243 "/><polyline class="polyline" opacity="0.5" stroke="blue" points="198.55598351881645,134.10640228502925 186.9461906148511,72.80526926850348 "/><polyline class="polyline" opacity="0.5" stroke="blue" points="198.65985402263,133.6063305279146 187.76779411666857,71.42387894305159 "/><polyline class="polyline" opacity="0.5" stroke="blue" points="198.76487478916857,133.13183838756095 188.60025807730136,70.08622393715856 "/><polyline class="polyline" opacity="0.5" stroke="blue" points="198.87101301949497,132.68333212097178 189.44367783699877,68.79375397889612 "/><polyline class="polyline" opacity="0.5" stroke="blue" points="198.97823487038403,132.26121402111391 190.29814110284724,67.5479350660456 "/><polyline class="polyline" opacity="0.5" stroke="blue" points="199.08650544028023,131.86588200465008 191.16372738405548,66.3502483298507 "/><polyline class="polyline" opacity="0.5" stroke="blue" points="199.19578875607672,131.49772918439993 192.0405074092918,65.20218876952057 "/><polyline class="polyline" opacity="0.5" stroke="blue" points="199.30604776078522,131.15714342661727 192.92854252661186,64.105263851872 "/><polyline class="polyline" opacity="0.5" stroke="blue" points="199.41724430216934,130.84450689320857 193.82788408665334,63.060991970609024 "/><polyline class="polyline" opacity="0.5" stroke="blue" points="199.52933912241411,130.5601955690666 194.73857280991686,62.07090075989501 "/><polyline class="polyline" opacity="0.5" stroke="blue" points="199.64229184890692,130.30457877473634 195.66063813911097,61.136525257078546 "/><polyline class="polyline" opacity="0.5" stroke="blue" points="199.75606098620574,130.07801866468157 196.59409757770229,60.25940590969506 "/><polyline class="polyline" opacity="0.5" stroke="blue" points="199.87060390927255,129.88086971146936 197.53895601598984,59.441086422182025 "/><polyline class="polyline" opacity="0.5" stroke="blue" points="199.98587685805012,129.71347817624599 198.49520504620605,58.68311143812707 "/><polyline class="polyline" opacity="0.5" stroke="blue" points="200.1018349334615,129.57618156593122 199.46282226834134,57.98702405431496 "/><polyline class="polyline" opacity="0.5" stroke="blue" points="200.21843209491223,129.46930807761845 200.4417705885915,57.354363163355515 "/></svg>
