<?xml version="1.0" encoding="UTF-8"?>
<!DOCTYPE svg PUBLIC "-//W3C//DTD SVG 1.1//EN"
    "http://www.w3.org/Graphics/SVG/1.1/DTD/svg11.dtd"><svg width="400" height="400" stroke="black" fill="none" fill-opacity="0.75" font-size="14" font-style="italic" font-family="sans-serif" xmlns="http://www.w3.org/2000/svg" xmlns:xlink="http://www.w3.org/1999/xlink" version="1.1"><filter id="blur1"><feGaussianBlur stdDeviation="0.5"/></filter><rect width="100%" height="100%" fill="white" stroke="none" fill-opacity="1"/><rect class="bg" fill="black" width="100%" height="100%" stroke="none" fill-opacity="1"/><polyline class="polyline" opacity="0.5" stroke="blue" points="201.1236164148777,129.39132700378576 203.0662972723039,55.13451766400297 "/><polyline class="polyline" opacity="0.5" stroke="blue" points="201.36193662973372,129.46721506091325 204.332774223912,54.88205709190589 "/><polyline class="polyline" opacity="0.5" stroke="blue" points="201.60103566142374,129.5754562748784 205.61211295846164,54.702942288398816 "/><polyline class="polyline" opacity="0.5" stroke="blue" points="201.84080557384345,129.71628292210045 206.9040172733633,54.598571923279934 "/><polyline class="polyline" opacity="0.5" stroke="blue" points="202.08113619867342,129.8899125977713 208.20816434339417,54.5703102510455 "/><polyline class="polyline" opacity="0.5" stroke="blue" points="202.32191516486114,130.09654758046474 209.52420403321722,54.61948282914949 "/><polyline class="polyline" opacity="0.5" stroke="blue" points="202.56302793269296,130.33637419366886 210.851758251371,54.747372085758116 "/><polyline class="polyline" opacity="0.5" stroke="blue" points="202.80435783259082,130.60956216551813 212.19042035141183,54.95521274566656 "/><polyline class="polyline" opacity="0.5" stroke="blue" points="203.04578610876024,130.9162639880666 213.53975458607636,55.24418712455355 "/><polyline class="polyline" opacity="0.5" stroke="blue" points="203.28719196781014,131.25661427751572 214.8992956204945,55.61542030332265 "/><polyline class="polyline" opacity="0.5" stroke="blue" points="203.52845263245513,131.63072913687267 216.26854811061182,56.0699751958993 "/><polyline class="polyline" opacity="0.5" stroke="blue" points="203.7694434004018,132.03870552258243 217.6469863530742,56.60884752551786 "/><polyline class="polyline" opacity="0.5" stroke="blue" points="204.0100377085113,132.48062061673807 219.03405401288256,57.232960726231596 "/><polyline class="polyline" opacity="0.5" stroke="blue" points="204.2501072023177,132.95653120653287 220.42916393513454,57.94316078808498 "/><polyline class="polyline" opacity="0.5" stroke="blue" points="204.4895218109706,133.46647307267642 221.8316980471327,58.74021106610607 "/><polyline class="polyline" opacity="0.5" stroke="blue" points="204.72814982765698,134.01046038854858 223.24100735704542,59.62478707497311 "/><polyline class="polyline" opacity="0.5" stroke="blue" points="204.96585799554404,134.58848513191379 224.65641205516022,60.597471292875014 "/><polyline class="polyline" opacity="0.5" stroke="blue" points="205.20251159926866,135.20051651106564 226.0772017235601,61.65874799969646 "/><polyline class="polyline" opacity="0.5" stroke="blue" points="205.4379745619852,135.84650040730804 227.50263565978025,62.808998176196695 "/><polyline class="polyline" opacity="0.5" stroke="blue" points="205.6721095479654,136.5263588357162 228.9319433196636,64.04849449229485 "/><polyline class="polyline" opacity="0.5" stroke="blue" points="205.9047780707279,137.23998942614847 230.364324884227,65.37739641389138 "/><polyline class="polyline" opacity="0.5" stroke="blue" points="206.13584060665656,137.9872649265018 231.79895195486847,66.79574545883807 "/><polyline class="polyline" opacity="0.5" stroke="blue" points="206.3651567140474,138.76803273021935 233.2349683806985,68.30346063367699 "/><polyline class="polyline" opacity="0.5" stroke="blue" points="206.59258515750633,139.58211443006715 234.6714912211539,69.90033408359281 "/><polyline class="polyline" opacity="0.5" stroke="blue" points="206.8179840375978,140.4293054001975 236.10761184636348,71.58602698861779 "/><polyline class="polyline" opacity="0.5" stroke="blue" points="207.04121092562542,141.30937440850795 237.5423971769698,73.36006573950336 "/><polyline class="polyline" opacity="0.5" stroke="blue" points="207.26212300340478,142.22206326129037 238.97489106428776,75.22183842676607 "/><polyline class="polyline" opacity="0.5" stroke="blue" points="207.480577207866,143.1670864821392 240.40411581078808,77.17059167624552 "/><polyline class="polyline" opacity="0.5" stroke="blue" points="207.69643038030384,144.14413102705376 241.82907382995094,79.20542786402704 "/><polyline class="polyline" opacity="0.5" stroke="blue" points="207.90953942007047,145.1528560376276 243.2487494435361,81.32530274279368 "/><polyline class="polyline" opacity="0.5" stroke="blue" points="208.11976144248405,146.19289263416317 244.66211081327802,83.52902351054463 "/><polyline class="polyline" opacity="0.5" stroke="blue" points="208.32695394070532,147.26384375049125 246.06811200293973,85.81524735116048 "/><polyline class="polyline" opacity="0.5" stroke="blue" points="208.53097495131223,148.36528401219712 247.46569516556193,88.18248047448944 "/><polyline class="polyline" opacity="0.5" stroke="blue" points="208.7316832232817,149.4967596598792 248.85379284962968,90.6290776814799 "/><polyline class="polyline" opacity="0.5" stroke="blue" points="208.92893839006615,150.65778851896897 250.2313304167659,93.1532424773974 "/><polyline class="polyline" opacity="0.5" stroke="blue" points="209.12260114443325,151.84786001754202 251.59722856245466,95.75302775333748 "/><polyline class="polyline" opacity="0.5" stroke="blue" points="209.31253341571576,153.06643525343733 252.95040593021724,98.42633705310723 "/><polyline class="polyline" opacity="0.5" stroke="blue" points="209.49859854910147,154.3129471118812 254.28978180861583,101.17092643910532 "/><polyline class="polyline" opacity="0.5" stroke="blue" points="209.68066148657365,155.58680043468115 255.61427889946836,103.98440696710765 "/><polyline class="polyline" opacity="0.5" stroke="blue" points="209.85858894909603,156.88737224191738 256.9228261447238,106.86424777590516 "/><polyline class="polyline" opacity="0.5" stroke="blue" points="210.0322496196208,158.2140120069095 258.2143615985957,109.80777979355337 "/><polyline class="polyline" opacity="0.5" stroke="blue" points="210.20151432648314,159.56604198508217 259.4878353307883,112.81220005764379 "/><polyline class="polyline" opacity="0.5" stroke="blue" points="210.36625622673245,160.94275759718965 260.7422123459919,115.87457664251745 "/><polyline class="polyline" opacity="0.5" stroke="blue" points="210.52635098894038,162.34342786718807 261.9764755042768,118.99185418177112 "/><polyline class="polyline" opacity="0.5" stroke="blue" points="210.68167697501354,163.76729591486946 263.18962842660034,122.16085996979882 "/><polyline class="polyline" opacity="0.5" stroke="blue" points="210.83211542053286,165.21357950318924 264.38069836935387,125.37831062152546 "/><polyline class="polyline" opacity="0.5" stroke="blue" points="210.97755061313367,166.68147164003182 265.54873905173514,128.64081926496684 "/><polyline class="polyline" opacity="0.5" stroke="blue" points="211.1178700684375,168.170141233971 266.69283341973755,131.9449032368642 "/><polyline class="polyline" opacity="0.5" stroke="blue" points="211.25296470304306,169.67873380338688 267.8120963307033,135.2869922474251 "/><polyline class="polyline" opacity="0.5" stroke="blue" points="211.38272900408467,171.20637223810806 268.90567714269787,138.6634369762294 "/><polyline class="polyline" opacity="0.5" stroke="blue" points="211.50706119486773,172.75215761255197 269.9727621934243,142.07051805766528 "/><polyline class="polyline" opacity="0.5" stroke="blue" points="211.62586339609533,174.3151700491408 271.0125771540121,145.50445541090082 "/><polyline class="polyline" opacity="0.5" stroke="blue" points="211.73904178220565,175.8944696305778 272.02438924376753,148.96141786642045 "/><polyline class="polyline" opacity="0.5" stroke="blue" points="211.84650673234987,177.48909735937605 273.0075092928739,152.43753303859012 "/><polyline class="polyline" opacity="0.5" stroke="blue" points="211.9481729755492,179.0980761628454 273.9612936410517,155.9288973916075 "/><polyline class="polyline" opacity="0.5" stroke="blue" points="212.0439597295842,180.7204119415591 274.8851458613345,159.43158644456537 "/><polyline class="polyline" opacity="0.5" stroke="blue" points="212.1337908331842,182.35509465914453 275.7785182993632,162.9416650602274 "/><polyline class="polyline" opacity="0.5" stroke="blue" points="212.21759487110154,184.0010994710729 276.6409134199439,166.45519776150974 "/><polyline class="polyline" opacity="0.5" stroke="blue" points="212.29530529167562,185.6573878899579 277.47188495402816,169.96825901957166 "/><polyline class="polyline" opacity="0.5" stroke="blue" points="212.36686051651256,187.32290898472183 278.27103884074984,173.47694345785897 "/><polyline class="polyline" opacity="0.5" stroke="blue" points="212.43220404193008,188.99660061084228 279.0380339606686,176.97737591739664 "/><polyline class="polyline" opacity="0.5" stroke="blue" points="212.49128453184161,190.6773906687596 279.772582657909,180.4657213300793 "/><polyline class="polyline" opacity="0.5" stroke="blue" points="212.54405590178166,192.36419838740463 280.4744510504287,183.93819434864378 "/><polyline class="polyline" opacity="0.5" stroke="blue" points="212.5904773938018,194.05593562969554 281.14345912918157,187.391068684387 "/><polyline class="polyline" opacity="0.5" stroke="blue" points="212.63051364199703,195.75150821675865 281.7794806484441,190.82068610649435 "/><polyline class="polyline" opacity="0.5" stroke="blue" points="212.66413472845335,197.44981726754472 282.3824428110265,194.22346506001603 "/><polyline class="polyline" opacity="0.5" stroke="blue" points="212.69131622943942,199.14976055044463 282.95232575348496,197.5959088630361 "/><polyline class="polyline" opacity="0.5" stroke="blue" points="212.71203925169834,200.850233843456 283.4891618377663,200.9346134473713 "/><polyline class="polyline" opacity="0.5" stroke="blue" points="212.7262904587295,202.55013229941397 283.99303475694205,204.2362746111605 "/><polyline class="polyline" opacity="0.5" stroke="blue" points="212.73406208698486,204.24835181277734 284.4640784638126,207.49769475591438 "/><polyline class="polyline" opacity="0.5" stroke="blue" points="212.735351951939,205.94379038445445 284.90247593217674,210.71578908493154 "/><polyline class="polyline" opacity="0.5" stroke="blue" points="212.73016344402689,207.63534948116157 285.3084577614551,213.88759124439875 "/><polyline class="polyline" opacity="0.5" stroke="blue" points="212.71850551447835,209.32193538583192 285.6823006361264,217.01025839293234 "/><polyline class="polyline" opacity="0.5" stroke="blue" points="212.7003926511138,211.0024605356321 286.02432565207613,220.0810756897259 "/><polyline class="polyline" opacity="0.5" stroke="blue" points="212.67584484419837,212.67584484419837 286.3348965224686,223.09746019580862 "/><polyline class="polyline" opacity="0.5" stroke="blue" points="212.6448875424876,214.34101700477436 286.6144176761305,226.05696418713558 "/><polyline class="polyline" opacity="0.5" stroke="blue" points="212.6075515996287,215.99691577101646 286.8633322616877,228.95727788229004 "/><polyline class="polyline" opacity="0.5" stroke="blue" points="212.563873211115,217.64249121232916 287.0821200708189,231.79623159143998 "/><polyline class="polyline" opacity="0.5" stroke="blue" points="212.5138938420213,219.27670594070588 287.271295393992,234.57179729682406 "/><polyline class="polyline" opacity="0.5" stroke="blue" points="212.45766014577768,220.8985363061707 287.4314048219384,237.28208967841812 "/><polyline class="polyline" opacity="0.5" stroke="blue" points="212.39522387426774,222.5069735580544 287.56302500590016,239.9253666015315 "/><polyline class="polyline" opacity="0.5" stroke="blue" points="212.32664177956363,224.10102496947997 287.66676038936055,242.50002908588124 "/><polyline class="polyline" opacity="0.5" stroke="blue" points="212.25197550763517,225.6797149225908 287.7432409235632,245.0046207781833 "/><polyline class="polyline" opacity="0.5" stroke="blue" points="212.17129148439392,227.24208595221654 287.79311977862653,247.43782695247205 "/><polyline class="polyline" opacity="0.5" stroke="blue" points="212.0846607944539,228.78719974584376 287.8170710615018,249.7984730642095 "/><polyline class="polyline" opacity="0.5" stroke="blue" points="211.99215905300977,230.3141380979365 287.8157875513932,252.08552288577573 "/><polyline class="polyline" opacity="0.5" stroke="blue" points="211.89386627125154,231.82200381683592 287.78997846258807,254.2980762521476 "/><polyline class="polyline" opacity="0.5" stroke="blue" points="211.78986671574833,233.30992158265568 287.7403672439234,256.43536644647645 "/><polyline class="polyline" opacity="0.5" stroke="blue" points="211.68024876224837,234.7770387547819 287.66768942337507,258.4967572558882 "/><polyline class="polyline" opacity="0.5" stroke="blue" points="211.5651047443517,236.22252612778016 287.57269050548234,260.48173972815766 "/><polyline class="polyline" opacity="0.5" stroke="blue" points="211.444530797522,237.64557863470708 287.45612392854565,262.38992865997074 "/><polyline class="polyline" opacity="0.5" stroke="blue" points="211.31862669890907,239.0454159970189 287.3187490877497,264.2210588473073 "/><polyline class="polyline" opacity="0.5" stroke="blue" points="211.187495703459,240.4212833204644 287.16132942958876,265.9749811280656 "/><polyline class="polyline" opacity="0.5" stroke="blue" points="211.0512443767899,241.7724516365408 286.98463062220173,267.6516582464359 "/><polyline class="polyline" opacity="0.5" stroke="blue" points="210.90998242531253,243.0982183892816 286.78941880548024,269.2511605677297 "/><polyline class="polyline" opacity="0.5" stroke="blue" points="210.76382252407186,244.39790786733047 286.576458924085,270.77366167141093 "/><polyline class="polyline" opacity="0.5" stroke="blue" points="210.61288014278233,245.67087158143602 286.34651314581384,272.21943384897486 "/><polyline class="polyline" opacity="0.5" stroke="blue" points="210.45727337052412,246.91648858767778 286.1003393671011,273.58884353209874 "/><polyline class="polyline" opacity="0.5" stroke="blue" points="210.2971227395589,248.13416575690331 285.8386898068019,274.88234667517366 "/><polyline class="polyline" opacity="0.5" stroke="blue" points="210.13255104871575,249.32333799101775 285.56230968883096,276.10048411493415 "/><polyline class="polyline" opacity="0.5" stroke="blue" points="209.9636831867858,250.48346838692217 285.27193601367605,277.243876928444 "/><polyline class="polyline" opacity="0.5" stroke="blue" points="209.79064595635253,251.61404834904405 284.96829641830897,278.313221809216 "/><polyline class="polyline" opacity="0.5" stroke="blue" points="209.61356789847068,252.71459765154057 284.6521081235508,279.30928647971587 "/><polyline class="polyline" opacity="0.5" stroke="blue" points="209.43257911859155,253.78466445138446 284.3240769675391,280.23290515698926 "/><polyline class="polyline" opacity="0.5" stroke="blue" points="209.2478111141169,254.82382525366324 283.98489652356756,281.08497408662777 "/><polyline class="polyline" opacity="0.5" stroke="blue" points="209.05939660394606,255.83168483053055 283.6352473002401,281.8664471587946 "/><polyline class="polyline" opacity="0.5" stroke="blue" points="208.86746936036292,256.8078760953513 283.2757960215937,282.57833161856337 "/><polyline class="polyline" opacity="0.5" stroke="blue" points="208.67216404359152,257.7520599336711 282.9071949845943,283.2216838813953 "/><polyline class="polyline" opacity="0.5" stroke="blue" points="208.47361603932802,258.6639249927229 282.53008149120444,283.7976054632007 "/><polyline class="polyline" opacity="0.5" stroke="blue" points="208.27196129953927,259.5431874312527 282.14507735204114,284.3072390331025 "/><polyline class="polyline" opacity="0.5" stroke="blue" points="208.0673361867956,260.3895906315092 281.75278845851267,284.75176459575977 "/><polyline class="polyline" opacity="0.5" stroke="blue" points="207.85987732238652,261.2029048752924 281.3538044202105,285.13239580890473 "/><polyline class="polyline" opacity="0.5" stroke="blue" points="207.64972143844756,261.9829269859986 280.9486982642588,285.45037644061694 "/><polyline class="polyline" opacity="0.5" stroke="blue" points="207.43700523430377,262.7294799386316 280.53802619327706,285.7069769697978 "/><polyline class="polyline" opacity="0.5" stroke="blue" points="207.22186523721774,263.4424124397733 280.1223273985877,285.90349133231877 "/><polyline class="polyline" opacity="0.5" stroke="blue" points="207.00443766770715,264.1215984795224 279.7021239253,286.04123381440013 "/><polyline class="polyline" opacity="0.5" stroke="blue" points="206.78485830957752,264.7669368574153 279.2779205859252,286.1215360939332 "/><polyline class="polyline" opacity="0.5" stroke="blue" points="206.56326238479642,265.37835068434384 278.8502049192173,286.14574442968757 "/><polyline class="polyline" opacity="0.5" stroke="blue" points="206.33978443331506,265.9557868624717 278.4194471909882,286.115216997641 "/><polyline class="polyline" opacity="0.5" stroke="blue" points="206.1145581979245,266.4992155451399 277.9861004337209,286.03132137303544 "/><polyline class="polyline" opacity="0.5" stroke="blue" points="205.8877165142157,267.0086295787249 277.5506005218826,285.89543215619676 "/><polyline class="polyline" opacity="0.5" stroke="blue" points="205.6593912056942,267.4840439283847 277.11336627993796,285.7089287396476 "/><polyline class="polyline" opacity="0.5" stroke="blue" points="205.4297129840832,267.92549508959564 276.6747996201635,285.4731932136027 "/><polyline class="polyline" opacity="0.5" stroke="blue" points="205.1988113548327,268.33304048733703 276.23528570747226,285.18960840654256 "/><polyline class="polyline" opacity="0.5" stroke="blue" points="204.96681452783588,268.70675786474186 275.7951931485757,284.85955605723626 "/><polyline class="polyline" opacity="0.5" stroke="blue" points="204.7338493333396,269.0467446629768 275.35487420292986,284.4844151142945 "/><polyline class="polyline" opacity="0.5" stroke="blue" points="204.50004114302152,269.3531173940646 274.9146650130318,284.0655601591044 "/><polyline class="polyline" opacity="0.5" stroke="blue" points="204.26551379619278,269.6260110083033 274.47488585176137,283.60435994780283 "/><polyline class="polyline" opacity="0.5" stroke="blue" points="204.03038953107256,269.86557825787713 274.03584138458666,283.1021760677975 "/><polyline class="polyline" opacity="0.5" stroke="blue" points="203.79478892106994,270.07198905819246 273.59782094457677,282.5603617042294 "/><polyline class="polyline" opacity="0.5" stroke="blue" points="203.55883081599634,270.24542984840457 273.16109881829095,281.9802605116937 "/><polyline class="polyline" opacity="0.5" stroke="blue" points="203.32263228812303,270.3861029525391 272.72593454073643,281.36320558648464 "/><polyline class="polyline" opacity="0.5" stroke="blue" points="203.08630858298795,270.49422594253923 272.29257319770716,280.71051853461324 "/><polyline class="polyline" opacity="0.5" stroke="blue" points="202.84997307484878,270.57003100450515 271.8612457339349,280.0235086308491 "/><polyline class="polyline" opacity="0.5" stroke="blue" points="202.61373722667057,270.61376430932074 271.43216926559836,279.303472064065 "/><polyline class="polyline" opacity="0.5" stroke="blue" points="202.3777105545303,270.62568538879316 271.00554739584993,278.55169126420986 "/><polyline class="polyline" opacity="0.5" stroke="blue" points="202.14200059631435,270.6060665183626 270.5815705321237,277.76943430630183 "/><polyline class="polyline" opacity="0.5" stroke="blue" points="201.9067128845796,270.5551921073683 270.1604162040966,276.9579543869073 "/><polyline class="polyline" opacity="0.5" stroke="blue" points="201.67195092344468,270.47335809779065 269.7422493812707,276.11848936866977 "/><polyline class="polyline" opacity="0.5" stroke="blue" points="201.4378161693734,270.3608713723195 269.3272227892438,275.25226138855135 "/><polyline class="polyline" opacity="0.5" stroke="blue" points="201.2044080157105,270.2180491725332 268.91547722382217,274.3604765255635 "/><polyline class="polyline" opacity="0.5" stroke="blue" points="200.97182378082545,270.0452185279076 268.5071418622203,273.4443245238838 "/><polyline class="polyline" opacity="0.5" stroke="blue" points="200.74015869972018,269.8427156963094 268.10233457067295,272.5049785673791 "/><polyline class="polyline" opacity="0.5" stroke="blue" points="200.5095059189538,269.610885616568 267.7011622078618,271.54359510169047 "/><polyline class="polyline" opacity="0.5" stroke="blue" points="200.27995649473715,269.3500813736557 267.30372092363467,270.56131370016294 "/><polyline class="polyline" opacity="0.5" stroke="blue" points="200.05159939404982,269.06066367695377 266.91009645256406,269.55925697004557 "/><polyline class="polyline" opacity="0.5" stroke="blue" points="199.82452149863227,268.74300035201793 266.5203644019561,268.5385304955205 "/><polyline class="polyline" opacity="0.5" stroke="blue" points="199.5988076117065,268.3974658462086 266.13459053398395,267.50022281426027 "/><polyline class="polyline" opacity="0.5" stroke="blue" points="199.37454046727942,268.0244407484956 265.75283104167573,266.44540542434925 "/><polyline class="polyline" opacity="0.5" stroke="blue" points="199.15180074188527,267.62431132369824 265.37513281854217,265.37513281854217 "/><polyline class="polyline" opacity="0.5" stroke="blue" points="198.93066706862425,267.1974690613732 265.00153372167756,264.2904425429693 "/><polyline class="polyline" opacity="0.5" stroke="blue" points="198.7112160533571,266.7443102395183 264.632062828216,263.19235527752846 "/><polyline class="polyline" opacity="0.5" stroke="blue" points="198.49352229291839,266.26523550321576 264.26674068506776,262.081874935339 "/><polyline class="polyline" opacity="0.5" stroke="blue" points="198.2776583952122,265.7606494582991 263.90557955189865,260.95998877875587 "/><polyline class="polyline" opacity="0.5" stroke="blue" points="198.06369500105907,265.2309602800887 263.5485836373579,259.8276675495737 "/><polyline class="polyline" opacity="0.5" stroke="blue" points="197.85170080766383,264.676579337204 263.1957493285874,258.68586561116535 "/><polyline class="polyline" opacity="0.5" stroke="blue" points="197.64174259357887,264.0979208304285 262.84706541408303,257.5355211004249 "/><polyline class="polyline" opacity="0.5" stroke="blue" points="197.43388524504016,263.4954014465704 262.5025133000046,256.3775560874951 "/><polyline class="polyline" opacity="0.5" stroke="blue" points="197.2281917835567,262.8694400272316 262.1620672200586,255.2128767413735 "/><polyline class="polyline" opacity="0.5" stroke="blue" points="197.0247233946381,262.22045725237314 261.8256944391026,254.04237349959814 "/><polyline class="polyline" opacity="0.5" stroke="blue" points="196.82353945754838,261.5488753385368 261.49335545064264,252.86692124031973 "/><polyline class="polyline" opacity="0.5" stroke="blue" points="196.62469757597802,260.8551177515618 261.1650041684153,251.68737945516534 "/><polyline class="polyline" opacity="0.5" stroke="blue" points="196.4282536095305,260.1396089336122 260.84058811226384,250.5045924213992 "/><polyline class="polyline" opacity="0.5" stroke="blue" points="196.234261705922,259.4027740443122 260.520048588537,249.3193893719777 "/><polyline class="polyline" opacity="0.5" stroke="blue" points="196.04277433379923,258.64503871577034 260.20332086525,248.132584662188 "/><polyline class="polyline" opacity="0.5" stroke="blue" points="195.85384231608143,257.86682882125405 259.890334342266,246.94497793164638 "/><polyline class="polyline" opacity="0.5" stroke="blue" points="195.66751486373883,257.0685702572661 259.58101271676327,245.7573542605184 "/><polyline class="polyline" opacity="0.5" stroke="blue" points="195.48383960992194,256.2506887387587 259.2752741442681,244.57048431890308 "/><polyline class="polyline" opacity="0.5" stroke="blue" points="195.30286264436114,255.41360960721192 258.9730313955394,243.38512450840386 "/><polyline class="polyline" opacity="0.5" stroke="blue" points="195.1246285479585,254.55775765129206 258.6741920096023,242.20201709498565 "/><polyline class="polyline" opacity="0.5" stroke="blue" points="194.9491804274987,253.68355693979905 258.3786584432314,241.0218903322912 "/><polyline class="polyline" opacity="0.5" stroke="blue" points="194.77655995040823,252.79143066660276 258.0863282171938,239.84545857466253 "/><polyline class="polyline" opacity="0.5" stroke="blue" points="194.606807379497,251.88180100726476 257.7970940595633,238.67342237918447 "/><polyline class="polyline" opacity="0.5" stroke="blue" points="194.4399616076184,250.95508898703557 257.51084404642324,237.50646859613363 "/><polyline class="polyline" opacity="0.5" stroke="blue" points="194.27606019218837,250.01171435991466 257.22746174027617,236.34527044728628 "/><polyline class="polyline" opacity="0.5" stroke="blue" points="194.11513938950694,249.0520954984585 256.94682632648187,235.1904875916014 "/><polyline class="polyline" opacity="0.5" stroke="blue" points="193.95723418882824,248.07664929401884 256.668812748045,234.04276617786155 "/><polyline class="polyline" opacity="0.5" stroke="blue" points="193.80237834612953,247.08579106709396 256.39329183907233,232.90273888391616 "/><polyline class="polyline" opacity="0.5" stroke="blue" points="193.65060441753064,246.07993448747504 256.1201304572209,231.7710249422351 "/><polyline class="polyline" opacity="0.5" stroke="blue" points="193.5019437923204,245.05949150387025 255.8491916154535,230.6482301515417 "/><polyline class="polyline" opacity="0.5" stroke="blue" points="193.35642672554718,244.02487228269203 255.580334613417,229.53494687435534 "/><polyline class="polyline" opacity="0.5" stroke="blue" points="193.2140823701351,242.97648515569196 255.31341516875366,228.43175402033404 "/><polyline class="polyline" opacity="0.5" stroke="blue" points="193.0749388084886,241.91473657613372 255.0482855486513,227.33921701536826 "/><polyline class="polyline" opacity="0.5" stroke="blue" points="192.93902308355163,240.84003108319519 254.78479470193253,226.25788775643616 "/><polyline class="polyline" opacity="0.5" stroke="blue" points="192.8063612292889,239.75277127429496 254.5227883919763,225.18830455229016 "/><polyline class="polyline" opacity="0.5" stroke="blue" points="192.67697830055994,238.65335778504237 254.2621093307572,224.13099205010525 "/><polyline class="polyline" opacity="0.5" stroke="blue" points="192.55089840235777,237.5421892765142 254.00259731428005,223.0864611482771 "/><polyline class="polyline" opacity="0.5" stroke="blue" points="192.42814471838693,236.41966242956568 253.74408935967728,222.05520889561916 "/><polyline class="polyline" opacity="0.5" stroke="blue" points="192.30873953895647,235.2861719458879 253.48641984422568,221.03771837726558 "/><polyline class="polyline" opacity="0.5" stroke="blue" points="192.19270428816648,234.14211055552906 253.2294206465293,220.0344585876481 "/><polyline class="polyline" opacity="0.5" stroke="blue" points="192.0800595503671,232.98786903060136 252.97292129010066,219.04588429097225 "/><polyline class="polyline" opacity="0.5" stroke="blue" points="191.97082509587187,231.82383620490097 252.71674908956132,218.07243586967934 "/><polyline class="polyline" opacity="0.5" stroke="blue" points="191.8650199059072,230.65039899917392 252.46072929966562,217.1145391614384 "/><polyline class="polyline" opacity="0.5" stroke="blue" points="191.76266219678314,229.46794245176505 252.20468526733978,216.17260528527265 "/><polyline class="polyline" opacity="0.5" stroke="blue" points="191.66376944326973,228.27684975439436 251.94843858690848,215.24703045748277 "/><polyline class="polyline" opacity="0.5" stroke="blue" points="191.56835840116617,227.07750229280768 251.69180925866567,214.33819579808764 "/><polyline class="polyline" opacity="0.5" stroke="blue" points="191.47644512905026,225.8702796920574 251.43461585092788,213.44646712856226 "/><polyline class="polyline" opacity="0.5" stroke="blue" points="191.38804500919682,224.6555598661703 251.17667566568812,212.572194761708 "/><polyline class="polyline" opacity="0.5" stroke="blue" points="191.30317276765496,223.4337190719685 250.9178049079693,211.71571328454874 "/><polyline class="polyline" opacity="0.5" stroke="blue" points="191.22184249347453,222.2051319668115 250.6578188589532,210.87734133519945 "/><polyline class="polyline" opacity="0.5" stroke="blue" points="191.14406765707344,220.97017167003432 250.3965320529409,210.05738137471099 "/><polyline class="polyline" opacity="0.5" stroke="blue" points="191.06986112773802,219.7292098278605 250.13375845817592,209.2561194549439 "/><polyline class="polyline" opacity="0.5" stroke="blue" points="190.99923519024892,218.4826166815735 249.8693116615379,208.4738249835789 "/><polyline class="polyline" opacity="0.5" stroke="blue" points="190.93220156062645,217.23076113873535 249.60300505709057,207.7107504874176 "/><polyline class="polyline" opacity="0.5" stroke="blue" points="190.86877140098935,215.9740108472439 249.33465203844156,206.9671313751756 "/><polyline class="polyline" opacity="0.5" stroke="blue" points="190.80895533352125,214.71273227202653 249.06406619484574,206.24318570101428 "/><polyline class="polyline" opacity="0.5" stroke="blue" points="190.75276345354035,213.4472907741695 248.79106151095812,205.53911393009824 "/><polyline class="polyline" opacity="0.5" stroke="blue" points="190.70020534166716,212.17805069228825 248.515452570113,204.85509870750514 "/><polyline class="polyline" opacity="0.5" stroke="blue" points="190.6512900750867,210.90537542594515 248.2370547609815,204.19130463184774 "/><polyline class="polyline" opacity="0.5" stroke="blue" points="190.60602623790098,209.62962752092622 247.9556844874283,203.5478780350019 "/><polyline class="polyline" opacity="0.5" stroke="blue" points="190.56442193056807,208.3511687561894 247.67115938136394,202.92494676935786 "/><polyline class="polyline" opacity="0.5" stroke="blue" points="190.5264847784247,207.07036023230233 247.3832985183573,202.32262000403887 "/><polyline class="polyline" opacity="0.5" stroke="blue" points="190.49222193928918,205.78756246118635 247.0919226357477,201.74098803154519 "/><polyline class="polyline" opacity="0.5" stroke="blue" points="190.46164011014156,204.50313545698916 246.79685435296585,201.18012208629847 "/><polyline class="polyline" opacity="0.5" stroke="blue" points="190.43474553287854,203.2174388279077 246.4979183937469,200.6400741765654 "/><polyline class="polyline" opacity="0.5" stroke="blue" points="190.4115439991402,201.93083186878624 246.19494180989,200.12087693124468 "/><polyline class="polyline" opacity="0.5" stroke="blue" points="190.3920408542063,200.64367365431502 245.88775420619308,199.6225434629953 "/><polyline class="polyline" opacity="0.5" stroke="blue" points="190.3762409999596,199.35632313265515 245.57618796616575,199.14506724917533 "/><polyline class="polyline" opacity="0.5" stroke="blue" points="190.364148896914,198.06913921931846 245.26007847809745,198.68842203204326 "/><polyline class="polyline" opacity="0.5" stroke="blue" points="190.3557685653051,196.7824808911285 244.93926436103408,198.25256173965167 "/><polyline class="polyline" opacity="0.5" stroke="blue" points="190.35110358524125,195.49670728009153 244.613587690195,197.83742042883196 "/><polyline class="polyline" opacity="0.5" stroke="blue" points="190.3501570959128,194.21217776700396 244.28289422133827,197.44291225163363 "/><polyline class="polyline" opacity="0.5" stroke="blue" points="190.35293179385766,192.92925207462477 243.94703361356576,197.06893144653662 "/><polyline class="polyline" opacity="0.5" stroke="blue" points="190.3594299302813,191.64829036023752 243.6058596500378,196.71535235570485 "/><polyline class="polyline" opacity="0.5" stroke="blue" points="190.369653307429,190.369653307429 243.2592304560545,196.3820294694911 "/><polyline class="polyline" opacity="0.5" stroke="blue" points="190.38360327400912,189.0937022169071 242.9070087139444,196.06879749933822 "/><polyline class="polyline" opacity="0.5" stroke="blue" points="190.4012807196652,187.82079909618065 242.54906187419004,195.77547148014887 "/><polyline class="polyline" opacity="0.5" stroke="blue" points="190.4226860684957,186.55130674792227 242.18526236221044,195.5018469031185 "/><polyline class="polyline" opacity="0.5" stroke="blue" points="190.44781927161966,185.28558885683162 241.81548778021374,195.247699879938 "/><polyline class="polyline" opacity="0.5" stroke="blue" points="190.47667979878767,184.02401007481492 241.43962110352766,195.01278733918247 "/><polyline class="polyline" opacity="0.5" stroke="blue" points="190.50926662903606,182.76693610429456 241.05755087081516,194.79684725560136 "/><polyline class="polyline" opacity="0.5" stroke="blue" points="190.54557824038443,181.51473377945803 240.6691713675825,194.5995989129234 "/><polyline class="polyline" opacity="0.5" stroke="blue" points="190.5856125985756,180.26777114525328 240.27438280239122,194.420743200676 "/><polyline class="polyline" opacity="0.5" stroke="blue" points="190.62936714485744,179.02641753393448 239.873091475193,194.2599629454066 "/><polyline class="polyline" opacity="0.5" stroke="blue" points="190.67683878280695,177.79104363895652 239.46520993721498,194.11692327657104 "/><polyline class="polyline" opacity="0.5" stroke="blue" points="190.72802386419684,176.56202158601582 239.0506571418377,193.9912720272302 "/><polyline class="polyline" opacity="0.5" stroke="blue" points="190.78291817390533,175.33972500102692 238.62935858592164,193.8826401695689 "/><polyline class="polyline" opacity="0.5" stroke="blue" points="190.8415169138708,174.1245290748244 238.20124644106033,193.79064228511945 "/><polyline class="polyline" opacity="0.5" stroke="blue" points="190.90381468609266,172.91681062437064 237.7662596742566,193.71487706943836 "/><polyline class="polyline" opacity="0.5" stroke="blue" points="190.96980547468118,171.71694815024927 237.3243441575462,193.65492787085142 "/><polyline class="polyline" opacity="0.5" stroke="blue" points="191.0394826269591,170.5253218902161 236.87545276611985,193.61036326274464 "/><polyline class="polyline" opacity="0.5" stroke="blue" points="191.11283883361898,169.34231386857707 236.41954546452493,193.58073764874374 "/><polyline class="polyline" opacity="0.5" stroke="blue" points="191.18986610794045,168.16830794115444 235.95658938056255,193.56559189998845 "/><polyline class="polyline" opacity="0.5" stroke="blue" points="191.27055576407335,167.0036898356014 235.48655886653066,193.5644540235749 "/><polyline class="polyline" opacity="0.5" stroke="blue" points="191.35489839439245,165.84884718681582 235.0094355475023,193.5768398611057 "/><polyline class="polyline" opacity="0.5" stroke="blue" points="191.44288384593136,164.7041695672008 234.5252083563688,193.60225381615973 "/><polyline class="polyline" opacity="0.5" stroke="blue" points="191.53450119590406,163.5700485115151 234.03387355541997,193.64018960936764 "/><polyline class="polyline" opacity="0.5" stroke="blue" points="191.62973872632367,162.44687753604796 233.53543474427715,193.69013105965794 "/><polyline class="polyline" opacity="0.5" stroke="blue" points="191.72858389772904,161.33505215185153 233.02990285404204,193.7515528901233 "/><polyline class="polyline" opacity="0.5" stroke="blue" points="191.83102332203197,160.23496987175534 232.51729612756913,193.8239215568471 "/><polyline class="polyline" opacity="0.5" stroke="blue" points="191.93704273449794,159.14703021088465 231.99764008582028,193.90669609892666 "/><polyline class="polyline" opacity="0.5" stroke="blue" points="192.04662696487662,158.07163468039727 231.4709674803064,193.99932900783466 "/><polyline class="polyline" opacity="0.5" stroke="blue" points="192.15975990769817,157.00918677415143 230.93731823167258,194.10126711417178 "/><polyline class="polyline" opacity="0.5" stroke="blue" points="192.27642449175465,155.96009194800845 230.39673935453123,194.21195248978503 "/><polyline class="polyline" opacity="0.5" stroke="blue" points="192.39660264878688,154.9247575914748 229.84928486869813,194.33082336315573 "/><polyline class="polyline" opacity="0.5" stroke="blue" points="192.52027528139968,153.9035929913784 229.29501569703513,194.45731504590026 "/><polyline class="polyline" opacity="0.5" stroke="blue" points="192.6474222302297,152.8970092872754 228.73399955015182,194.5908608681759 "/><polyline class="polyline" opacity="0.5" stroke="blue" points="192.77802224039334,151.90541941827587 228.1663107982662,194.7308931207438 "/><polyline class="polyline" opacity="0.5" stroke="blue" points="192.912052927244,150.9292380609775 227.59203033057034,194.87684400141006 "/><polyline class="polyline" opacity="0.5" stroke="blue" points="193.04949074146998,149.96888155819119 227.01124540249282,195.02814656354715 "/><polyline class="polyline" opacity="0.5" stroke="blue" points="193.19031093356847,149.0247678381418 226.42404947129137,195.18423566438761 "/><polyline class="polyline" opacity="0.5" stroke="blue" points="193.33448751773142,148.09731632382665 225.83054202045207,195.3445489107854 "/><polyline class="polyline" opacity="0.5" stroke="blue" points="193.4819932351848,147.1869478322111 225.2308283734086,195.50852760015093 "/><polyline class="polyline" opacity="0.5" stroke="blue" points="193.6327995170229,146.29408446294465 224.62501949713328,195.6756176542899 "/><polyline class="polyline" opacity="0.5" stroke="blue" points="193.78687644658453,145.41914947627694 224.01323179618328,195.84527054390853 "/><polyline class="polyline" opacity="0.5" stroke="blue" points="193.94419272142022,144.56256715986007 223.39558689781907,196.01694420159112 "/><polyline class="polyline" opacity="0.5" stroke="blue" points="194.10471561490297,143.72476268412126 222.7722114288372,196.1901039211095 "/><polyline class="polyline" opacity="0.5" stroke="blue" points="194.26841093753865,142.9061619458978 222.14323678478704,196.36422324098467 "/><polyline class="polyline" opacity="0.5" stroke="blue" points="194.43524299803585,142.10719140002746 221.50879889226067,196.53878481029324 "/><polyline class="polyline" opacity="0.5" stroke="blue" points="194.60517456419836,141.32827787859645 220.86903796496532,196.71328123478983 "/><polyline class="polyline" opacity="0.5" stroke="blue" points="194.77816682370752,140.56984839755143 220.2240982543005,196.88721590150342 "/><polyline class="polyline" opacity="0.5" stroke="blue" points="194.95417934486534,139.8323299503927 219.57412779517625,197.06010378006007 "/><polyline class="polyline" opacity="0.5" stroke="blue" points="195.13317003737367,139.116149288674 218.91927814781388,197.23147219908404 "/><polyline class="polyline" opacity="0.5" stroke="blue" points="195.315095113228,138.42173268904577 218.25970413627817,197.4008615961357 "/><polyline class="polyline" opacity="0.5" stroke="blue" points="195.49990904780964,137.74950570659314 217.5955635844894,197.56782623975585 "/><polyline class="polyline" opacity="0.5" stroke="blue" points="195.68756454126333,137.0998929142308 216.92701705046204,197.7319349222999 "/><polyline class="polyline" opacity="0.5" stroke="blue" points="195.87801248025212,136.47331762793732 216.2542275595121,197.89277162236567 "/><polyline class="polyline" opacity="0.5" stroke="blue" points="196.0712019001856,135.87020161762558 215.57736033716574,198.0499361357373 "/><polyline class="polyline" opacity="0.5" stroke="blue" points="196.2670799480214,135.29096480346757 214.89658254249147,198.20304467389326 "/><polyline class="polyline" opacity="0.5" stroke="blue" points="196.46559184574548,134.73602493751335 214.21206300256216,198.35173042924814 "/><polyline class="polyline" opacity="0.5" stroke="blue" points="196.66668085463934,134.20579727046652 213.52397194873816,198.49564410642375 "/><polyline class="polyline" opacity="0.5" stroke="blue" points="196.8702882404483,133.70069420350472 212.83248075544066,198.63445441896803 "/><polyline class="polyline" opacity="0.5" stroke="blue" points="197.07635323956802,133.22112492506164 212.13776168206462,198.76784855106354 "/><polyline class="polyline" opacity="0.5" stroke="blue" points="197.28481302637186,132.76749503251625 211.43998761865387,198.89553258388761 "/><polyline class="polyline" opacity="0.5" stroke="blue" points="197.49560268180437,132.34020613876726 210.7393318359372,199.01723188640514 "/><polyline class="polyline" opacity="0.5" stroke="blue" points="197.7086551633721,131.93965546370458 210.03596774029367,199.13269147048953 "/><polyline class="polyline" opacity="0.5" stroke="blue" points="197.9239012766651,131.56623541062748 209.33006863418706,199.24167631037923 "/><polyline class="polyline" opacity="0.5" stroke="blue" points="198.14126964854768,131.22033312769616 208.62180748257805,199.34397162658422 "/><polyline class="polyline" opacity="0.5" stroke="blue" points="198.36068670215957,130.90233005454544 207.91135668578974,199.43938313445926 "/><polyline class="polyline" opacity="0.5" stroke="blue" points="198.5820766338731,130.61260145423358 207.19888785926977,199.5277372577581 "/><polyline class="polyline" opacity="0.5" stroke="blue" points="198.80536139235394,130.35151593074318 206.48457162065694,199.60888130757343 "/><polyline class="polyline" opacity="0.5" stroke="blue" points="199.03046065987712,130.11943493230103 205.768577384528,199.68268362715452 "/><polyline class="polyline" opacity="0.5" stroke="blue" points="199.25729183605213,129.91671224083336 205.05107316516202,199.7490337031722 "/><polyline class="polyline" opacity="0.5" stroke="blue" points="199.4857700241125,129.74369344792458 204.33222538762868,199.80784224407444 "/><polyline class="polyline" opacity="0.5" stroke="blue" points="199.71580801992903,129.60071541770532 203.61219870746805,199.85904122624203 "/><polyline class="polyline" opacity="0.5" stroke="blue" points="199.9473163039051,129.48810573714843 202.89115583919795,199.90258390871193 "/><polyline class="polyline" opacity="0.5" stroke="blue" points="200.1802030359157,129.4061821543143 202.16925739384834,199.93844481728976 "/><polyline class="polyline" opacity="0.5" stroke="blue" points="200.4143740534507,129.35525200514525 201.44666172569,199.96661969891628 "/><polyline class="polyline" opacity="0.5" stroke="blue" points="200.64973287312463,129.33561162947183 200.72352478829052,199.98712544719282 "/><polyline class="polyline" opacity="0.5" stroke="blue" points="200.8861806957133,129.34754577695932 200.0,200.0 "/><polyline class="polyline" opacity="0.5" stroke="blue" points="201.12361641487766,129.39132700378576 199.27623811893582,200.00530221017013 "/><polyline class="polyline" opacity="0.5" stroke="blue" points="201.3619366297337,129.4672150609132 198.552387127507,200.00311169018983 "/><polyline class="polyline" opacity="0.5" stroke="blue" points="201.60103566142374,129.57545627487843 197.82859212649035,199.99352863192175 "/><polyline class="polyline" opacity="0.5" stroke="blue" points="201.84080557384343,129.71628292210048 197.1049952386404,199.9766736023372 "/><polyline class="polyline" opacity="0.5" stroke="blue" points="202.0811361986734,129.88991259777134 196.38173552179217,199.95268731625208 "/><polyline class="polyline" opacity="0.5" stroke="blue" points="202.3219151648611,130.09654758046474 195.65894889138775,199.92173038704803 "/><polyline class="polyline" opacity="0.5" stroke="blue" points="202.56302793269296,130.33637419366892 194.93676805233753,199.88398305635027 "/><polyline class="polyline" opacity="0.5" stroke="blue" points="202.8043578325908,130.60956216551813 194.21532244010083,199.83964490361302 "/><polyline class="polyline" opacity="0.5" stroke="blue" points="203.0457861087602,130.9162639880666 193.49473817085504,199.7889345365403 "/><polyline class="polyline" opacity="0.5" stroke="blue" points="203.28719196781014,131.25661427751572 192.77513800059864,199.73208926324082 "/><polyline class="polyline" opacity="0.5" stroke="blue" points="203.5284526324551,131.63072913687262 192.05664129301994,199.66936474698426 "/><polyline class="polyline" opacity="0.5" stroke="blue" points="203.76944340040177,132.03870552258243 191.3393639959448,199.60103464438663 "/><polyline class="polyline" opacity="0.5" stroke="blue" points="204.01003770851128,132.48062061673804 190.62341862616407,199.52739022781432 "/><polyline class="polyline" opacity="0.5" stroke="blue" points="204.2501072023177,132.95653120653276 189.9089142624262,199.4487399927503 "/><polyline class="polyline" opacity="0.5" stroke="blue" points="204.4895218109706,133.46647307267637 189.19595654637217,199.36540925082008 "/><polyline class="polyline" opacity="0.5" stroke="blue" points="204.72814982765695,134.0104603885485 188.48464769117615,199.27773970912497 "/><polyline class="polyline" opacity="0.5" stroke="blue" points="204.965857995544,134.58848513191379 187.77508649764917,199.18608903647797 "/><polyline class="polyline" opacity="0.5" stroke="blue" points="205.20251159926863,135.20051651106564 187.06736837755432,199.09083041708413 "/><polyline class="polyline" opacity="0.5" stroke="blue" points="205.4379745619852,135.84650040730799 186.36158538387562,198.9923520921527 "/><polyline class="polyline" opacity="0.5" stroke="blue" points="205.67210954796536,136.52635883571617 185.65782624777833,198.89105688986976 "/><polyline class="polyline" opacity="0.5" stroke="blue" points="205.9047780707279,137.23998942614844 184.956176421993,198.7873617441059 "/><polyline class="polyline" opacity="0.5" stroke="blue" points="206.13584060665653,137.98726492650178 184.25671813035444,198.68169720217327 "/><polyline class="polyline" opacity="0.5" stroke="blue" points="206.3651567140474,138.76803273021932 183.55953042322255,198.5745069218904 "/><polyline class="polyline" opacity="0.5" stroke="blue" points="206.59258515750633,139.58211443006707 182.86468923851248,198.46624715815517 "/><polyline class="polyline" opacity="0.5" stroke="blue" points="206.8179840375978,140.42930540019748 182.1722674680598,198.35738623916976 "/><polyline class="polyline" opacity="0.5" stroke="blue" points="207.04121092562542,141.30937440850786 181.48233502904807,198.24840403240566 "/><polyline class="polyline" opacity="0.5" stroke="blue" points="207.26212300340478,142.22206326129032 180.79495894022511,198.13979140034286 "/><polyline class="polyline" opacity="0.5" stroke="blue" points="207.48057720786596,143.16708648213913 180.1102034026384,198.03204964596358 "/><polyline class="polyline" opacity="0.5" stroke="blue" points="207.6964303803038,144.14413102705373 179.42812988461912,197.92568994793166 "/><polyline class="polyline" opacity="0.5" stroke="blue" points="207.90953942007044,145.15285603762754 178.74879721074922,197.82123278533825 "/><polyline class="polyline" opacity="0.5" stroke="blue" points="208.11976144248402,146.19289263416312 178.0722616545476,197.7192073518504 "/><polyline class="polyline" opacity="0.5" stroke="blue" points="208.3269539407053,147.2638437504912 177.39857703461348,197.62015095905446 "/><polyline class="polyline" opacity="0.5" stroke="blue" points="208.53097495131223,148.36528401219704 176.72779481397137,197.5246084287473 "/><polyline class="polyline" opacity="0.5" stroke="blue" points="208.73168322328166,149.49675965987913 176.05996420236107,197.43313147389136 "/><polyline class="polyline" opacity="0.5" stroke="blue" points="208.92893839006615,150.65778851896889 175.3951322612242,197.34627806791713 "/><polyline class="polyline" opacity="0.5" stroke="blue" points="209.12260114443325,151.84786001754196 174.7333440111384,197.26461180202742 "/><polyline class="polyline" opacity="0.5" stroke="blue" points="209.31253341571573,153.06643525343725 174.07464254145674,197.1887012301344 "/><polyline class="polyline" opacity="0.5" stroke="blue" points="209.49859854910147,154.31294711188113 173.41906912191084,197.11911920103938 "/><polyline class="polyline" opacity="0.5" stroke="blue" points="209.68066148657365,155.5868004346811 172.7666633159421,197.05644217745146 "/><polyline class="polyline" opacity="0.5" stroke="blue" points="209.85858894909603,156.88737224191735 172.11746309552558,197.0012495414304 "/><polyline class="polyline" opacity="0.5" stroke="blue" points="210.0322496196208,158.2140120069094 171.47150495725666,196.9541228858359 "/><polyline class="polyline" opacity="0.5" stroke="blue" points="210.2015143264831,159.56604198508214 170.8288240394719,196.91564529136497 "/><polyline class="polyline" opacity="0.5" stroke="blue" points="210.36625622673245,160.94275759718957 170.18945424017784,196.886400588768 "/><polyline class="polyline" opacity="0.5" stroke="blue" points="210.52635098894035,162.34342786718796 169.5534283355638,196.8669726058462 "/><polyline class="polyline" opacity="0.5" stroke="blue" points="210.68167697501354,163.7672959148694 168.92077809887755,196.85794439885294 "/><polyline class="polyline" opacity="0.5" stroke="blue" points="210.83211542053286,165.21357950318912 168.29153441944206,196.85989746794806 "/><polyline class="polyline" opacity="0.5" stroke="blue" points="210.97755061313367,166.68147164003176 167.6657274215944,196.87341095638672 "/><polyline class="polyline" opacity="0.5" stroke="blue" points="211.1178700684375,168.17014123397092 167.0433865833283,196.8990608331647 "/><polyline class="polyline" opacity="0.5" stroke="blue" points="211.25296470304306,169.67873380338682 166.42454085442117,196.93741905888922 "/><polyline class="polyline" opacity="0.5" stroke="blue" points="211.38272900408464,171.20637223810797 165.8092187738288,196.9890527346981 "/><polyline class="polyline" opacity="0.5" stroke="blue" points="211.50706119486773,172.75215761255188 165.19744858612725,197.05452323411342 "/><polyline class="polyline" opacity="0.5" stroke="blue" points="211.62586339609533,174.31517004914068 164.58925835678517,197.13438531778348 "/><polyline class="polyline" opacity="0.5" stroke="blue" points="211.73904178220565,175.8944696305777 163.98467608604423,197.22918623114612 "/><polyline class="polyline" opacity="0.5" stroke="blue" points="211.84650673234987,177.48909735937593 163.38372982118898,197.33946478512945 "/><polyline class="polyline" opacity="0.5" stroke="blue" points="211.9481729755492,179.09807616284536 162.7864477669818,197.46575042009994 "/><polyline class="polyline" opacity="0.5" stroke="blue" points="212.0439597295842,180.72041194155898 162.19285839404031,197.60856225336775 "/><polyline class="polyline" opacity="0.5" stroke="blue" points="212.1337908331842,182.3550946591444 161.60299054493086,197.7684081106672 "/><polyline class="polyline" opacity="0.5" stroke="blue" points="212.21759487110154,184.00109947107282 161.01687353775117,197.94578354214585 "/><polyline class="polyline" opacity="0.5" stroke="blue" points="212.2953052916756,185.6573878899578 160.43453726697248,198.1411708235192 "/><polyline class="polyline" opacity="0.5" stroke="blue" points="212.36686051651256,187.32290898472175 159.8560123013104,198.35503794317708 "/><polyline class="polyline" opacity="0.5" stroke="blue" points="212.43220404193008,188.99660061084214 159.28132997839157,198.58783757616644 "/><polyline class="polyline" opacity="0.5" stroke="blue" points="212.49128453184161,190.67739066875953 158.7105224959811,198.84000604611776 "/><polyline class="polyline" opacity="0.5" stroke="blue" points="212.54405590178166,192.36419838740454 158.1436229995365,199.11196227633272 "/><polyline class="polyline" opacity="0.5" stroke="blue" points="212.5904773938018,194.05593562969545 157.58066566584867,199.40410673140653 "/><polyline class="polyline" opacity="0.5" stroke="blue" points="212.63051364199703,195.75150821675854 157.0216857825352,199.71682035091894 "/><polyline class="polyline" opacity="0.5" stroke="blue" points="212.66413472845332,197.44981726754466 156.46671982314547,200.05046347689338 "/><polyline class="polyline" opacity="0.5" stroke="blue" points="212.69131622943942,199.1497605504445 155.91580551764164,200.40537477689287 "/><polyline class="polyline" opacity="0.5" stroke="blue" points="212.71203925169834,200.85023384345592 155.3689819180181,200.7818701647938 "/><polyline class="polyline" opacity="0.5" stroke="blue" points="212.7262904587295,202.5501322994139 154.8262894588248,201.18024172145255 "/><polyline class="polyline" opacity="0.5" stroke="blue" points="212.73406208698486,204.24835181277732 154.2877700123608,201.6007566176568 "/><polyline class="polyline" opacity="0.5" stroke="blue" points="212.735351951939,205.94379038445436 153.75346693831102,202.04365604192753 "/><polyline class="polyline" opacity="0.5" stroke="blue" points="212.73016344402686,207.63534948116143 153.22342512759897,202.5091541359141 "/><polyline class="polyline" opacity="0.5" stroke="blue" points="212.71850551447835,209.3219353858318 152.69769104023794,202.9974369402967 "/><polyline class="polyline" opacity="0.5" stroke="blue" points="212.7003926511138,211.00246053563197 152.17631273696767,203.5086613542796 "/><polyline class="polyline" opacity="0.5" stroke="blue" points="212.67584484419837,212.67584484419837 151.65933990447132,204.0429541119239 "/><polyline class="polyline" opacity="0.5" stroke="blue" points="212.6448875424876,214.34101700477424 151.14682387397806,204.60041077872447 "/><polyline class="polyline" opacity="0.5" stroke="blue" points="212.6075515996287,215.99691577101638 150.6388176330661,205.18109477198956 "/><polyline class="polyline" opacity="0.5" stroke="blue" points="212.563873211115,217.64249121232908 150.13537583049452,205.78503640871764 "/><polyline class="polyline" opacity="0.5" stroke="blue" points="212.5138938420213,219.2767059407058 149.63655477390367,206.41223198480057 "/><polyline class="polyline" opacity="0.5" stroke="blue" points="212.45766014577768,220.8985363061706 149.14241242024275,207.06264288949563 "/><polyline class="polyline" opacity="0.5" stroke="blue" points="212.39522387426774,222.50697355805434 148.65300835879594,207.73619475921473 "/><polyline class="polyline" opacity="0.5" stroke="blue" points="212.32664177956363,224.10102496947997 148.1684037867008,208.43277667476286 "/><polyline class="polyline" opacity="0.5" stroke="blue" points="212.25197550763517,225.6797149225908 147.68866147687055,209.15224040623 "/><polyline class="polyline" opacity="0.5" stroke="blue" points="212.17129148439392,227.2420859522166 147.21384573825455,209.89439970978765 "/><polyline class="polyline" opacity="0.5" stroke="blue" points="212.0846607944539,228.78719974584368 146.74402236839484,210.65902968067152 "/><polyline class="polyline" opacity="0.5" stroke="blue" points="211.99215905300977,230.31413809793648 146.2792585982615,211.44586616663736 "/><polyline class="polyline" opacity="0.5" stroke="blue" points="211.89386627125154,231.82200381683595 145.81962302937734,212.254605246158 "/><polyline class="polyline" opacity="0.5" stroke="blue" points="211.78986671574833,233.3099215826556 145.36518556326843,213.0849027755879 "/><polyline class="polyline" opacity="0.5" stroke="blue" points="211.68024876224837,234.77703875478184 144.91601732330864,213.9363740094497 "/><polyline class="polyline" opacity="0.5" stroke="blue" points="211.5651047443517,236.22252612778016 144.47219056905743,214.8085932978993 "/><polyline class="polyline" opacity="0.5" stroke="blue" points="211.444530797522,237.6455786347071 144.0337786032191,215.70109386529967 "/><polyline class="polyline" opacity="0.5" stroke="blue" points="211.31862669890907,239.04541599701884 143.60085567138955,216.6133676736761 "/><polyline class="polyline" opacity="0.5" stroke="blue" points="211.187495703459,240.4212833204644 143.17349685478533,217.54486537463964 "/><polyline class="polyline" opacity="0.5" stroke="blue" points="211.0512443767899,241.77245163654078 142.75177795618964,218.49499635314618 "/><polyline class="polyline" opacity="0.5" stroke="blue" points="210.90998242531253,243.0982183892816 142.33577537937958,219.4631288662136 "/><polyline class="polyline" opacity="0.5" stroke="blue" points="210.76382252407186,244.39790786733042 141.92556600233917,220.44859027943764 "/><polyline class="polyline" opacity="0.5" stroke="blue" points="210.61288014278233,245.67087158143596 141.5212270445939,221.45066740384124 "/><polyline class="polyline" opacity="0.5" stroke="blue" points="210.45727337052412,246.91648858767778 141.12283592904117,222.4686069352516 "/><polyline class="polyline" opacity="0.5" stroke="blue" points="210.2971227395589,248.13416575690337 140.73047013868234,223.5016159980356 "/><polyline class="polyline" opacity="0.5" stroke="blue" points="210.13255104871575,249.3233379910177 140.3442070686977,224.54886279462954 "/><polyline class="polyline" opacity="0.5" stroke="blue" points="209.9636831867858,250.48346838692217 139.96412387433844,225.6094773618812 "/><polyline class="polyline" opacity="0.5" stroke="blue" points="209.79064595635253,251.61404834904405 139.59029731514045,226.68255243477964 "/><polyline class="polyline" opacity="0.5" stroke="blue" points="209.61356789847068,252.7145976515405 139.2228035959939,227.76714441768723 "/><polyline class="polyline" opacity="0.5" stroke="blue" points="209.43257911859155,253.7846644513844 138.8617182056321,228.8622744627064 "/><polyline class="polyline" opacity="0.5" stroke="blue" points="209.2478111141169,254.82382525366324 138.50711575312747,229.96692965431416 "/><polyline class="polyline" opacity="0.5" stroke="blue" points="209.05939660394606,255.83168483053058 138.15906980300554,231.08006429889292 "/><polyline class="polyline" opacity="0.5" stroke="blue" points="208.86746936036295,256.8078760953512 137.817652709609,232.20060131726333 "/><polyline class="polyline" opacity="0.5" stroke="blue" points="208.67216404359152,257.7520599336711 137.48293545136025,233.3274337378028 "/><polyline class="polyline" opacity="0.5" stroke="blue" points="208.47361603932802,258.6639249927229 137.15498746558677,234.45942628720599 "/><polyline class="polyline" opacity="0.5" stroke="blue" points="208.27196129953927,259.54318743125276 136.83387648458176,235.59541707542226 "/><polyline class="polyline" opacity="0.5" stroke="blue" points="208.0673361867956,260.3895906315091 136.51966837358194,236.73421937078388 "/><polyline class="polyline" opacity="0.5" stroke="blue" points="207.85987732238652,261.20290487529235 136.21242697134642,237.87462346083498 "/><polyline class="polyline" opacity="0.5" stroke="blue" points="207.64972143844756,261.98292698599863 135.9122139340201,239.0153985938747 "/><polyline class="polyline" opacity="0.5" stroke="blue" points="207.43700523430377,262.7294799386316 135.61908858296067,240.15529499575743 "/><polyline class="polyline" opacity="0.5" stroke="blue" points="207.22186523721777,263.4424124397733 135.33310775719895,241.29304595603918 "/><polyline class="polyline" opacity="0.5" stroke="blue" points="207.00443766770715,264.12159847952233 135.0543256711905,242.42736997713257 "/><polyline class="polyline" opacity="0.5" stroke="blue" points="206.78485830957752,264.7669368574153 134.78279377849742,243.55697297974405 "/><polyline class="polyline" opacity="0.5" stroke="blue" points="206.56326238479645,265.3783506843438 134.5185606420203,244.68055055750003 "/><polyline class="polyline" opacity="0.5" stroke="blue" points="206.33978443331506,265.95578686247165 134.26167181137419,245.79679027335126 "/><polyline class="polyline" opacity="0.5" stroke="blue" points="206.1145581979245,266.4992155451399 134.01216970797304,246.9043739900586 "/><polyline class="polyline" opacity="0.5" stroke="blue" points="205.8877165142157,267.0086295787249 133.7700935183554,248.00198022682835 "/><polyline class="polyline" opacity="0.5" stroke="blue" points="205.6593912056942,267.4840439283847 133.53547909624714,249.0882865339703 "/><polyline class="polyline" opacity="0.5" stroke="blue" points="205.4297129840832,267.92549508959564 133.30835887381886,250.16197187730688 "/><polyline class="polyline" opacity="0.5" stroke="blue" points="205.1988113548327,268.333040487337 133.08876178255076,251.22171902396707 "/><polyline class="polyline" opacity="0.5" stroke="blue" points="204.96681452783588,268.70675786474186 132.87671318407575,252.2662169211539 "/><polyline class="polyline" opacity="0.5" stroke="blue" points="204.7338493333396,269.0467446629768 132.67223481132174,253.2941630594799 "/><polyline class="polyline" opacity="0.5" stroke="blue" points="204.50004114302152,269.3531173940646 132.47534472022483,254.30426581252445 "/><polyline class="polyline" opacity="0.5" stroke="blue" points="204.26551379619278,269.6260110083033 132.28605725223642,255.29524674437243 "/><polyline class="polyline" opacity="0.5" stroke="blue" points="204.03038953107256,269.86557825787713 132.10438300779015,256.265842877059 "/><polyline class="polyline" opacity="0.5" stroke="blue" points="203.79478892106994,270.0719890581924 131.93032883084618,257.21480891004734 "/><polyline class="polyline" opacity="0.5" stroke="blue" points="203.55883081599634,270.24542984840457 131.76389780457401,258.14091938412696 "/><polyline class="polyline" opacity="0.5" stroke="blue" points="203.32263228812303,270.3861029525391 131.6050892581808,259.0429707824206 "/><polyline class="polyline" opacity="0.5" stroke="blue" points="203.08630858298798,270.4942259425392 131.4538987848407,259.9197835615299 "/><polyline class="polyline" opacity="0.5" stroke="blue" points="202.8499730748488,270.57003100450515 131.31031827062577,260.77020410623885 "/><polyline class="polyline" opacity="0.5" stroke="blue" points="202.61373722667057,270.6137643093207 131.17433593429115,261.5931066016077 "/><polyline class="polyline" opacity="0.5" stroke="blue" points="202.3777105545303,270.62568538879316 131.04593637771112,262.3873948167528 "/><polyline class="polyline" opacity="0.5" stroke="blue" points="202.14200059631435,270.6060665183626 130.92510064672194,263.152003795083 "/><polyline class="polyline" opacity="0.5" stroke="blue" points="201.9067128845796,270.55519210736827 130.81180630207524,263.88590144627614 "/><polyline class="polyline" opacity="0.5" stroke="blue" points="201.67195092344465,270.47335809779065 130.70602750016633,264.5880900358068 "/><polyline class="polyline" opacity="0.5" stroke="blue" points="201.4378161693734,270.36087137231954 130.60773508315958,265.2576075683818 "/><polyline class="polyline" opacity="0.5" stroke="blue" points="201.2044080157105,270.21804917253326 130.51689667809558,265.89352906220097 "/><polyline class="polyline" opacity="0.5" stroke="blue" points="200.97182378082545,270.0452185279076 130.43347680453164,266.49496771152144 "/><polyline class="polyline" opacity="0.5" stroke="blue" points="200.74015869972015,269.8427156963095 130.35743699023476,267.0610759355786 "/><polyline class="polyline" opacity="0.5" stroke="blue" points="200.5095059189538,269.610885616568 130.28873589442154,267.59104631248124 "/><polyline class="polyline" opacity="0.5" stroke="blue" points="200.27995649473715,269.3500813736557 130.22732943801245,268.08411239726564 "/><polyline class="polyline" opacity="0.5" stroke="blue" points="200.05159939404982,269.06066367695377 130.1731709403527,268.5395494238423 "/><polyline class="polyline" opacity="0.5" stroke="blue" points="199.82452149863227,268.74300035201793 130.126211261832,268.95667489111764 "/><polyline class="polyline" opacity="0.5" stroke="blue" points="199.5988076117065,268.3974658462086 130.08639895182623,269.33484903409226 "/><polyline class="polyline" opacity="0.5" stroke="blue" points="199.37454046727942,268.0244407484956 130.0536804013743,269.6734751812457 "/><polyline class="polyline" opacity="0.5" stroke="blue" points="199.15180074188527,267.62431132369824 130.02800000000002,269.972 "/><polyline class="polyline" opacity="0.5" stroke="blue" points="198.93066706862425,267.1974690613732 130.00930029608665,270.22991363251094 "/><polyline class="polyline" opacity="0.5" stroke="blue" points="198.71121605335713,266.74431023951837 129.99752216021596,270.4467497244655 "/><polyline class="polyline" opacity="0.5" stroke="blue" points="198.49352229291839,266.26523550321576 129.99260495088785,270.622085349965 "/><polyline class="polyline" opacity="0.5" stroke="blue" points="198.2776583952122,265.7606494582991 129.994486682047,270.75554083593795 "/><polyline class="polyline" opacity="0.5" stroke="blue" points="198.06369500105907,265.23096028008865 130.00310419185462,270.8467794898671 "/><polyline class="polyline" opacity="0.5" stroke="blue" points="197.85170080766383,264.676579337204 130.01839331215785,270.89550723491146 "/><polyline class="polyline" opacity="0.5" stroke="blue" points="197.64174259357887,264.0979208304285 130.04028903812736,270.9014721567728 "/><polyline class="polyline" opacity="0.5" stroke="blue" points="197.43388524504016,263.4954014465704 130.06872569755328,270.86446396688984 "/><polyline class="polyline" opacity="0.5" stroke="blue" points="197.22819178355672,262.8694400272317 130.10363711931043,270.7843133867375 "/><polyline class="polyline" opacity="0.5" stroke="blue" points="197.0247233946381,262.22045725237314 130.1449568005287,270.66089145817176 "/><polyline class="polyline" opacity="0.5" stroke="blue" points="196.82353945754838,261.5488753385368 130.1926180720289,270.49410878489084 "/><polyline class="polyline" opacity="0.5" stroke="blue" points="196.62469757597802,260.8551177515618 130.24655426161047,270.2839147101764 "/><polyline class="polyline" opacity="0.5" stroke="blue" points="196.4282536095305,260.1396089336122 130.30669885480546,270.0302964361422 "/><polyline class="polyline" opacity="0.5" stroke="blue" points="196.234261705922,259.40277404431225 130.37298565274153,269.7332780897504 "/><polyline class="polyline" opacity="0.5" stroke="blue" points="196.04277433379923,258.64503871577034 130.44534892678473,269.3929197408564 "/><polyline class="polyline" opacity="0.5" stroke="blue" points="195.85384231608143,257.86682882125405 130.52372356966345,269.0093163775208 "/><polyline class="polyline" opacity="0.5" stroke="blue" points="195.66751486373883,257.0685702572661 130.60804524280275,268.5825968437711 "/><polyline class="polyline" opacity="0.5" stroke="blue" points="195.48383960992194,256.2506887387587 130.6982505196292,268.11292274492405 "/><polyline class="polyline" opacity="0.5" stroke="blue" points="195.30286264436114,255.41360960721192 130.794277024633,267.60048732547966 "/><polyline class="polyline" opacity="0.5" stroke="blue" points="195.1246285479585,254.55775765129204 130.89606356800624,267.0455143244774 "/><polyline class="polyline" opacity="0.5" stroke="blue" points="194.9491804274987,253.68355693979908 131.0035502757005,266.4482568130701 "/><polyline class="polyline" opacity="0.5" stroke="blue" points="194.77655995040823,252.79143066660276 131.11667871477633,265.8089960189165 "/><polyline class="polyline" opacity="0.5" stroke="blue" points="194.60680737949698,251.88180100726478 131.23539201394354,265.128040141825 "/><polyline class="polyline" opacity="0.5" stroke="blue" points="194.43996160761841,250.95508898703562 131.3596349792152,264.4057231649007 "/><polyline class="polyline" opacity="0.5" stroke="blue" points="194.2760601921884,250.01171435991466 131.48935420462416,263.6424036652555 "/><polyline class="polyline" opacity="0.5" stroke="blue" points="194.11513938950694,249.05209549845853 131.6244981779722,262.8384636281455 "/><polyline class="polyline" opacity="0.5" stroke="blue" points="193.95723418882824,248.07664929401884 131.76501738160593,261.9943072681857 "/><polyline class="polyline" opacity="0.5" stroke="blue" points="193.80237834612953,247.08579106709408 131.91086438823152,261.1103598610887 "/><polyline class="polyline" opacity="0.5" stroke="blue" points="193.65060441753064,246.07993448747501 132.06199395180167,260.1870665891531 "/><polyline class="polyline" opacity="0.5" stroke="blue" points="193.5019437923204,245.05949150387025 132.2183630935242,259.2248914035139 "/><polyline class="polyline" opacity="0.5" stroke="blue" points="193.35642672554718,244.024872282692 132.3799311830597,258.224315905947 "/><polyline class="polyline" opacity="0.5" stroke="blue" points="193.2140823701351,242.976485155692 132.54666001498884,257.1858382528066 "/><polyline class="polyline" opacity="0.5" stroke="blue" points="193.0749388084886,241.91473657613372 132.71851388064502,256.1099720834576 "/><polyline class="polyline" opacity="0.5" stroke="blue" points="192.93902308355163,240.84003108319519 132.89545963541832,254.99724547535595 "/><polyline class="polyline" opacity="0.5" stroke="blue" points="192.8063612292889,239.75277127429501 133.0774667616498,253.84819992772174 "/><polyline class="polyline" opacity="0.5" stroke="blue" points="192.67697830055994,238.65335778504243 133.26450742724236,252.66338937555008 "/><polyline class="polyline" opacity="0.5" stroke="blue" points="192.5508984023578,237.54218927651422 133.45655654012316,251.44337923550864 "/><polyline class="polyline" opacity="0.5" stroke="blue" points="192.42814471838693,236.41966242956565 133.65359179870032,250.18874548508117 "/><polyline class="polyline" opacity="0.5" stroke="blue" points="192.30873953895647,235.28617194588796 133.85559373846033,248.90007377613674 "/><polyline class="polyline" opacity="0.5" stroke="blue" points="192.19270428816648,234.1421105555291 134.06254577485885,247.57795858392873 "/><polyline class="polyline" opacity="0.5" stroke="blue" points="192.0800595503671,232.98786903060136 134.27443424265888,246.2230023923646 "/><polyline class="polyline" opacity="0.5" stroke="blue" points="191.97082509587185,231.82383620490094 134.4912484318741,244.83581491622667 "/><polyline class="polyline" opacity="0.5" stroke="blue" points="191.8650199059072,230.65039899917394 134.71298062047535,243.4170123608791 "/><polyline class="polyline" opacity="0.5" stroke="blue" points="191.76266219678314,229.46794245176508 134.9396261040186,241.96721671985443 "/><polyline class="polyline" opacity="0.5" stroke="blue" points="191.6637694432697,228.2768497543943 135.17118322235154,240.48705511058367 "/><polyline class="polyline" opacity="0.5" stroke="blue" points="191.56835840116617,227.07750229280765 135.40765338355567,238.97715914840978 "/><polyline class="polyline" opacity="0.5" stroke="blue" points="191.47644512905026,225.87027969205744 135.64904108527605,237.43816435891375 "/><polyline class="polyline" opacity="0.5" stroke="blue" points="191.38804500919684,224.6555598661703 135.89535393359074,235.87070962847523 "/><polyline class="polyline" opacity="0.5" stroke="blue" points="191.30317276765496,223.43371907196848 136.1466026595644,234.27543669289722 "/><polyline class="polyline" opacity="0.5" stroke="blue" points="191.22184249347453,222.20513196681154 136.40280113363048,232.65298966383205 "/><polyline class="polyline" opacity="0.5" stroke="blue" points="191.14406765707344,220.97017167003432 136.66396637793648,231.00401459267005 "/><polyline class="polyline" opacity="0.5" stroke="blue" points="191.06986112773802,219.72920982786044 136.93011857678582,229.32915907147998 "/><polyline class="polyline" opacity="0.5" stroke="blue" points="190.99923519024892,218.48261668157343 137.20128108530014,227.62907187052343 "/><polyline class="polyline" opacity="0.5" stroke="blue" points="190.93220156062645,217.23076113873535 137.4774804364215,225.90440261181183 "/><polyline class="polyline" opacity="0.5" stroke="blue" points="190.86877140098935,215.9740108472439 137.7587463463662,224.15580147812156 "/><polyline class="polyline" opacity="0.5" stroke="blue" points="190.80895533352125,214.71273227202647 138.0451117186344,222.3839189568428 "/><polyline class="polyline" opacity="0.5" stroke="blue" points="190.75276345354035,213.44729077416943 138.33661264667273,220.5894056179943 "/><polyline class="polyline" opacity="0.5" stroke="blue" points="190.70020534166716,212.17805069228828 138.63328841527868,218.7729119257111 "/><polyline class="polyline" opacity="0.5" stroke="blue" points="190.6512900750867,210.90537542594518 138.93518150082716,216.93508808248055 "/><polyline class="polyline" opacity="0.5" stroke="blue" points="190.60602623790098,209.6296275209262 139.2423375703915,215.07658390538512 "/><polyline class="polyline" opacity="0.5" stroke="blue" points="190.56442193056807,208.35116875618934 139.5548054798223,213.19804873358896 "/><polyline class="polyline" opacity="0.5" stroke="blue" points="190.5264847784247,207.07036023230236 139.87263727083862,211.30013136629728 "/><polyline class="polyline" opacity="0.5" stroke="blue" points="190.49222193928918,205.78756246118638 140.19588816717607,209.38348003040537 "/><polyline class="polyline" opacity="0.5" stroke="blue" points="190.46164011014156,204.50313545698913 140.52461656982848,207.4487423770532 "/><polyline class="polyline" opacity="0.5" stroke="blue" points="190.43474553287854,203.2174388279077 140.85888405140932,205.49656550629388 "/><polyline class="polyline" opacity="0.5" stroke="blue" points="190.4115439991402,201.93083186878627 141.19875534964913,203.52759601908997 "/><polyline class="polyline" opacity="0.5" stroke="blue" points="190.3920408542063,200.643673654315 141.54429836003573,201.5424800958547 "/><polyline class="polyline" opacity="0.5" stroke="blue" points="190.3762409999596,199.3563231326551 141.89558412759484,199.54186360075596 "/><polyline class="polyline" opacity="0.5" stroke="blue" points="190.364148896914,198.06913921931846 142.2526868377964,197.52639221101413 "/><polyline class="polyline" opacity="0.5" stroke="blue" points="190.3557685653051,196.7824808911285 142.61568380656377,195.49671157042866 "/><polyline class="polyline" opacity="0.5" stroke="blue" points="190.35110358524125,195.4967072800915 142.98465546935074,193.4534674663824 "/><polyline class="polyline" opacity="0.5" stroke="blue" points="190.3501570959128,194.2121777670039 143.3596853692423,191.3973060295782 "/><polyline class="polyline" opacity="0.5" stroke="blue" points="190.35293179385766,192.92925207462477 143.74086014402243,189.32887395577845 "/><polyline class="polyline" opacity="0.5" stroke="blue" points="190.3594299302813,191.64829036023752 144.12826951214265,187.2488187488257 "/><polyline class="polyline" opacity="0.5" stroke="blue" points="190.369653307429,190.369653307429 144.522006257513,185.1577889842385 "/><polyline class="polyline" opacity="0.5" stroke="blue" points="190.38360327400912,189.09370221690705 144.92216621302626,183.05643459268134 "/><polyline class="polyline" opacity="0.5" stroke="blue" points="190.4012807196652,187.82079909618068 145.32884824271372,180.9454071626244 "/><polyline class="polyline" opacity="0.5" stroke="blue" points="190.42268606849566,186.5513067479223 145.74215422242116,178.82536026151504 "/><polyline class="polyline" opacity="0.5" stroke="blue" points="190.44781927161966,185.2855888568316 146.16218901887763,176.6969497747941 "/><polyline class="polyline" opacity="0.5" stroke="blue" points="190.47667979878767,184.02401007481495 146.5890604670225,174.56083426209432 "/><polyline class="polyline" opacity="0.5" stroke="blue" points="190.50926662903603,182.76693610429456 147.02287934543995,172.4176753299675 "/><polyline class="polyline" opacity="0.5" stroke="blue" points="190.5455782403844,181.51473377945797 147.46375934973733,170.26813802049168 "/><polyline class="polyline" opacity="0.5" stroke="blue" points="190.5856125985756,180.26777114525322 147.9118170636948,168.11289121510728 "/><polyline class="polyline" opacity="0.5" stroke="blue" points="190.62936714485744,179.0264175339345 148.3671719279945,165.95260805303826 "/><polyline class="polyline" opacity="0.5" stroke="blue" points="190.67683878280695,177.79104363895655 148.82994620632954,163.787966363645 "/><polyline class="polyline" opacity="0.5" stroke="blue" points="190.72802386419684,176.5620215860158 149.30026494867496,161.61964911205993 "/><polyline class="polyline" opacity="0.5" stroke="blue" points="190.78291817390533,175.3397250010269 149.77825595149147,159.44834485743766 "/><polyline class="polyline" opacity="0.5" stroke="blue" points="190.8415169138708,174.12452907482444 150.26404971461722,157.27474822315347 "/><polyline class="polyline" opacity="0.5" stroke="blue" points="190.90381468609266,172.91681062437067 150.7577793945888,155.09956037825958 "/><polyline class="polyline" opacity="0.5" stroke="blue" points="190.96980547468118,171.71694815024924 151.25958075411643,152.92348952950084 "/><polyline class="polyline" opacity="0.5" stroke="blue" points="191.0394826269591,170.52532189021608 151.76959210742496,150.74725142316186 "/><polyline class="polyline" opacity="0.5" stroke="blue" points="191.11283883361898,169.34231386857707 152.28795426115624,148.57156985600153 "/><polyline class="polyline" opacity="0.5" stroke="blue" points="191.18986610794045,168.1683079411544 152.8148104505112,146.39717719449467 "/><polyline class="polyline" opacity="0.5" stroke="blue" points="191.27055576407335,167.0036898356014 153.35030627029641,144.2248149015765 "/><polyline class="polyline" opacity="0.5" stroke="blue" points="191.35489839439245,165.84884718681582 153.89458960052266,142.05523407003898 "/><polyline class="polyline" opacity="0.5" stroke="blue" points="191.44288384593136,164.70416956720084 154.44781052618674,139.88919596169384 "/><polyline class="polyline" opacity="0.5" stroke="blue" points="191.53450119590406,163.57004851151507 155.0101212508511,137.72747255136906 "/><polyline class="polyline" opacity="0.5" stroke="blue" points="191.62973872632367,162.4468775360479 155.5816760036211,135.57084707475036 "/><polyline class="polyline" opacity="0.5" stroke="blue" points="191.72858389772904,161.33505215185153 156.1626309391002,133.4201145790285 "/><polyline class="polyline" opacity="0.5" stroke="blue" points="191.83102332203197,160.23496987175537 156.75314402989082,131.27608247524608 "/><polyline class="polyline" opacity="0.5" stroke="blue" points="191.93704273449794,159.1470302108846 157.3533749511878,129.13957109117615 "/><polyline class="polyline" opacity="0.5" stroke="blue" points="192.04662696487665,158.07163468039727 157.96348495699982,127.01141422348459 "/><polyline class="polyline" opacity="0.5" stroke="blue" points="192.15975990769817,157.00918677415143 158.5836367475142,124.8924596878567 "/><polyline class="polyline" opacity="0.5" stroke="blue" points="192.27642449175465,155.96009194800845 159.21399432710777,122.78356986567793 "/><polyline class="polyline" opacity="0.5" stroke="blue" points="192.39660264878688,154.92475759147476 159.85472285248926,120.6856222457745 "/><polyline class="polyline" opacity="0.5" stroke="blue" points="192.52027528139968,153.90359299137845 160.5059884704463,118.59950995961489 "/><polyline class="polyline" opacity="0.5" stroke="blue" points="192.6474222302297,152.8970092872754 161.16795814465453,116.5261423082762 "/><polyline class="polyline" opacity="0.5" stroke="blue" points="192.77802224039334,151.90541941827584 161.84079947099383,114.46644527937077 "/><polyline class="polyline" opacity="0.5" stroke="blue" points="192.912052927244,150.92923806097747 162.5246804808058,112.42136205200597 "/><polyline class="polyline" opacity="0.5" stroke="blue" points="193.04949074146998,149.96888155819119 163.21976943151458,110.39185348773654 "/><polyline class="polyline" opacity="0.5" stroke="blue" points="193.19031093356847,149.02476783814183 163.9262345840247,108.37889860533537 "/><polyline class="polyline" opacity="0.5" stroke="blue" points="193.33448751773142,148.09731632382662 164.6442439663017,106.38349503707909 "/><polyline class="polyline" opacity="0.5" stroke="blue" points="193.4819932351848,147.1869478322111 165.3739651225354,104.40665946409838 "/><polyline class="polyline" opacity="0.5" stroke="blue" points="193.6327995170229,146.29408446294468 166.11556484728283,102.44942802820528 "/><polyline class="polyline" opacity="0.5" stroke="blue" points="193.78687644658453,145.41914947627694 166.86920890398503,100.51285671745127 "/><polyline class="polyline" opacity="0.5" stroke="blue" points="193.94419272142022,144.56256715986004 167.63506172725482,98.59802172252053 "/><polyline class="polyline" opacity="0.5" stroke="blue" points="194.10471561490297,143.72476268412126 168.41328610833597,96.70601976089395 "/><polyline class="polyline" opacity="0.5" stroke="blue" points="194.26841093753865,142.90616194589782 169.20404286314266,94.83796836556225 "/><polyline class="polyline" opacity="0.5" stroke="blue" points="194.43524299803585,142.1071914000275 170.00749048229878,92.99500613489103 "/><polyline class="polyline" opacity="0.5" stroke="blue" points="194.60517456419836,141.32827787859642 170.82378476261138,91.17829294007527 "/><polyline class="polyline" opacity="0.5" stroke="blue" points="194.77816682370752,140.56984839755143 171.65307841943468,89.38901008643998 "/><polyline class="polyline" opacity="0.5" stroke="blue" points="194.95417934486534,139.8323299503927 172.4955206794026,87.62836042467386 "/><polyline class="polyline" opacity="0.5" stroke="blue" points="195.13317003737367,139.11614928867397 173.351256853039,85.89756840790699 "/><polyline class="polyline" opacity="0.5" stroke="blue" points="195.315095113228,138.42173268904577 174.2204278867908,84.19788009036608 "/><polyline class="polyline" opacity="0.5" stroke="blue" points="195.49990904780964,137.74950570659314 175.1031698940695,82.53056306317355 "/><polyline class="polyline" opacity="0.5" stroke="blue" points="195.68756454126333,137.0998929142308 175.9996136649357,80.89690632268376 "/><polyline class="polyline" opacity="0.5" stroke="blue" points="195.87801248025212,136.47331762793732 176.90988415411488,79.29822006659404 "/><polyline class="polyline" opacity="0.5" stroke="blue" points="196.0712019001856,135.87020161762558 177.8340999470984,77.73583541290515 "/><polyline class="polyline" opacity="0.5" stroke="blue" points="196.2670799480214,135.29096480346757 178.7723727041512,76.21110403666513 "/><polyline class="polyline" opacity="0.5" stroke="blue" points="196.46559184574548,134.73602493751338 179.72480658212936,74.72539771929574 "/><polyline class="polyline" opacity="0.5" stroke="blue" points="196.66668085463934,134.20579727046652 180.69149763409683,73.28010780517833 "/><polyline class="polyline" opacity="0.5" stroke="blue" points="196.8702882404483,133.7006942035047 181.67253318683137,71.87664456007269 "/><polyline class="polyline" opacity="0.5" stroke="blue" points="197.07635323956802,133.22112492506164 182.66799119641345,70.51643642585776 "/><polyline class="polyline" opacity="0.5" stroke="blue" points="197.28481302637186,132.76749503251625 183.6779395822137,69.2009291660201 "/><polyline class="polyline" opacity="0.5" stroke="blue" points="197.49560268180437,132.34020613876726 184.7024355397193,67.93158489627885 "/><polyline class="polyline" opacity="0.5" stroke="blue" points="197.70865516337207,131.93965546370458 185.7415248327821,66.70988099472416 "/><polyline class="polyline" opacity="0.5" stroke="blue" points="197.92390127666508,131.56623541062748 186.79524106602094,65.53730888587336 "/><polyline class="polyline" opacity="0.5" stroke="blue" points="198.14126964854768,131.2203331276962 187.86360493827146,64.41537269310481 "/><polyline class="polyline" opacity="0.5" stroke="blue" points="198.3606867021596,130.90233005454544 188.94662347815293,63.34558775402593 "/><polyline class="polyline" opacity="0.5" stroke="blue" points="198.5820766338731,130.61260145423358 190.0442892630052,62.32947899347752 "/><polyline class="polyline" opacity="0.5" stroke="blue" points="198.80536139235394,130.35151593074318 191.15657962264646,61.368579149062015 "/><polyline class="polyline" opacity="0.5" stroke="blue" points="199.03046065987712,130.11943493230103 192.2834558296094,60.464426844323356 "/><polyline class="polyline" opacity="0.5" stroke="blue" points="199.25729183605213,129.91671224083336 193.4248622777349,59.6185645050038 "/><polyline class="polyline" opacity="0.5" stroke="blue" points="199.4857700241125,129.7436934479246 194.58072565122959,58.83253611415563 "/><polyline class="polyline" opacity="0.5" stroke="blue" points="199.71580801992903,129.60071541770535 195.75095408653516,58.107884802306785 "/><polyline class="polyline" opacity="0.5" stroke="blue" points="199.9473163039051,129.48810573714843 196.93543632960294,57.44615026936353 "/><polyline class="polyline" opacity="0.5" stroke="blue" points="200.1802030359157,129.4061821543143 198.13404089142804,56.84886603549114 "/><polyline class="polyline" opacity="0.5" stroke="blue" points="200.4143740534507,129.35525200514525 199.34661520495686,56.31755651884558 "/><polyline class="polyline" opacity="0.5" stroke="blue" points="200.64973287312463,129.33561162947183 200.57298478675276,55.853733938737605 "/><polyline class="polyline" opacity="0.5" stroke="blue" points="200.8861806957133,129.34754577695932 201.8129524070752,55.458895043600535 "/></svg>
