<?xml version="1.0" encoding="UTF-8"?>
<!DOCTYPE svg PUBLIC "-//W3C//DTD SVG 1.1//EN"
    "http://www.w3.org/Graphics/SVG/1.1/DTD/svg11.dtd"><svg width="400" height="400" stroke="black" fill="none" fill-opacity="0.75" font-size="14" font-style="italic" font-family="sans-serif" xmlns="http://www.w3.org/2000/svg" xmlns:xlink="http://www.w3.org/1999/xlink" version="1.1"><filter id="blur1"><feGaussianBlur stdDeviation="0.5"/></filter><rect width="100%" height="100%" fill="white" stroke="none" fill-opacity="1"/><rect class="bg" fill="black" width="100%" height="100%" stroke="none" fill-opacity="1"/><polyline class="polyline" opacity="0.5" stroke="blue" points="202.38609263777806,129.85983003101006 205.71842787496587,54.40629202759163 "/><polyline class="polyline" opacity="0.5" stroke="blue" points="202.74693063094463,130.0615418304294 207.2569298551101,54.42257041711906 "/><polyline class="polyline" opacity="0.5" stroke="blue" points="203.10857151148986,130.296390359607 208.8091024824634,54.517198871224224 "/><polyline class="polyline" opacity="0.5" stroke="blue" points="203.470843171984,130.5645429316388 210.3744084642074,54.69141682575906 "/><polyline class="polyline" opacity="0.5" stroke="blue" points="203.83357028770067,130.8661496885473 211.95227559385037,54.946412605809 "/><polyline class="polyline" opacity="0.5" stroke="blue" points="204.19657438384715,131.20134297367616 213.54209624525097,55.283318707536836 "/><polyline class="polyline" opacity="0.5" stroke="blue" points="204.5596739102573,131.5702367067774 215.1432269481053,55.70320697423847 "/><polyline class="polyline" opacity="0.5" stroke="blue" points="204.9226843237046,131.97292576330256 216.7549880522088,56.20708368097678 "/><polyline class="polyline" opacity="0.5" stroke="blue" points="205.2854181779791,132.40948535946944 218.3766634878399,56.795884543794045 "/><polyline class="polyline" opacity="0.5" stroke="blue" points="205.64768522185477,132.87997044473218 220.0075006295949,57.470469671147924 "/><polyline class="polyline" opacity="0.5" stroke="blue" points="206.00929250505757,133.38441510333678 221.64671027092615,58.231618476865606 "/><polyline class="polyline" opacity="0.5" stroke="blue" points="206.37004449232575,133.92283196669527 223.2934667164995,59.080024575552955 "/><polyline class="polyline" opacity="0.5" stroke="blue" points="206.72974318563345,134.4952116383569 224.9469079992784,60.016290683000676 "/><polyline class="polyline" opacity="0.5" stroke="blue" points="207.0881882546288,135.1015221333985 226.60613622896673,61.04092354569261 "/><polyline class="polyline" opacity="0.5" stroke="blue" points="207.44517717531323,135.74170833409255 228.27021807809,62.15432892501224 "/><polyline class="polyline" opacity="0.5" stroke="blue" points="207.8005053769679,136.41569146374385 229.93818541156418,63.35680666314943 "/><polyline class="polyline" opacity="0.5" stroke="blue" points="208.1539663973049,137.1233685806122 231.6090360650913,64.64854585900031 "/><polyline class="polyline" opacity="0.5" stroke="blue" points="208.5053520457987,137.8646120938584 233.2817347771305,66.02962018351482 "/><polyline class="polyline" opacity="0.5" stroke="blue" points="208.85445257512276,138.63926930346517 234.95521427851506,67.4999833649467 "/><polyline class="polyline" opacity="0.5" stroke="blue" points="209.20105686059102,139.44716196609008 236.62837654303274,69.05946487528988 "/><polyline class="polyline" opacity="0.5" stroke="blue" points="209.54495258747338,140.28808588880818 238.30009420144674,70.70776584980217 "/><polyline class="polyline" opacity="0.5" stroke="blue" points="209.88592644602565,141.16181055269215 239.96921212051745,72.44445527191492 "/><polyline class="polyline" opacity="0.5" stroke="blue" points="210.22376433404347,142.06807876816163 241.634549147597,74.26896645598202 "/><polyline class="polyline" opacity="0.5" stroke="blue" points="210.55825156671915,143.0066063640089 243.29490002030303,76.18059386020666 "/><polyline class="polyline" opacity="0.5" stroke="blue" points="210.889173093549,143.97708191197228 244.94903743965827,78.17849026168287 "/><polyline class="polyline" opacity="0.5" stroke="blue" points="211.21631372200702,144.97916648868795 246.59571430389875,80.26166432479988 "/><polyline class="polyline" opacity="0.5" stroke="blue" points="211.53945834766873,146.0124934767974 248.23366609892764,82.42897859324407 "/><polyline class="polyline" opacity="0.5" stroke="blue" points="211.85839219043805,147.07666840692625 249.86161344012794,84.67914793450491 "/><polyline class="polyline" opacity="0.5" stroke="blue" points="212.17290103649722,148.17126884218004 251.4782647589573,87.01073846413776 "/><polyline class="polyline" opacity="0.5" stroke="blue" points="212.4827714855695,149.2958443067224 253.08231912644692,89.42216697504509 "/><polyline class="polyline" opacity="0.5" stroke="blue" points="212.78779120305293,150.4499162599089 254.67246920442676,91.91170089472776 "/><polyline class="polyline" opacity="0.5" stroke="blue" points="213.08774917655407,151.63297811735472 256.2474043140114,94.47745879082352 "/><polyline class="polyline" opacity="0.5" stroke="blue" points="213.38243597632,152.84449532020074 257.8058136096294,97.11741144230488 "/><polyline class="polyline" opacity="0.5" stroke="blue" points="213.67164401904068,154.08390545372941 259.3463893456686,99.82938349047525 "/><polyline class="polyline" opacity="0.5" stroke="blue" points="213.95516783446482,155.3506184163523 260.867830221664,102.61105568039585 "/><polyline class="polyline" opacity="0.5" stroke="blue" points="214.2328043342484,156.64401663985754 262.36884479088724,105.45996769962416 "/><polyline class="polyline" opacity="0.5" stroke="blue" points="214.50435308243036,157.9634553616616 263.84815491622317,108.3735216171814 "/><polyline class="polyline" opacity="0.5" stroke="blue" points="214.76961656690776,159.30826294965982 265.3044992563503,111.34898592152489 "/><polyline class="polyline" opacity="0.5" stroke="blue" points="215.02840047126355,160.67774128011126 266.7366367645059,114.38350015201978 "/><polyline class="polyline" opacity="0.5" stroke="blue" points="215.280513946281,162.07116616882993 268.14335018150393,117.47408011403311 "/><polyline class="polyline" opacity="0.5" stroke="blue" points="215.52576988046394,163.48778785578332 269.52344950422344,120.61762366334604 "/><polyline class="polyline" opacity="0.5" stroke="blue" points="215.76398516886877,164.92683154302455 270.8757754104811,123.81091704116413 "/><polyline class="polyline" opacity="0.5" stroke="blue" points="215.99498097954336,166.38749798570447 272.1992026210761,127.05064173663129 "/><polyline class="polyline" opacity="0.5" stroke="blue" points="216.2185830168604,167.86896413572643 273.4926431798315,130.33338184949008 "/><polyline class="polyline" opacity="0.5" stroke="blue" points="216.4346217810284,169.37038383742112 274.75504963268213,133.65563192141798 "/><polyline class="polyline" opacity="0.5" stroke="blue" points="216.64293282306008,170.89088857443141 275.9854180872548,137.01380520066837 "/><polyline class="polyline" opacity="0.5" stroke="blue" points="216.84335699448147,172.42958826680797 277.1827911349649,140.40424230099336 "/><polyline class="polyline" opacity="0.5" stroke="blue" points="217.03574069106668,173.9855721171298 278.3462606184076,143.82322021248532 "/><polyline class="polyline" opacity="0.5" stroke="blue" points="217.21993608989294,175.55790950427624 279.47497022774405,147.26696161897112 "/><polyline class="polyline" opacity="0.5" stroke="blue" points="217.39580137902004,177.1456509232929 280.5681179108659,150.73164447398534 "/><polyline class="polyline" opacity="0.5" stroke="blue" points="217.5632009791124,178.74782896961307 281.62495808335575,154.213411785156 "/><polyline class="polyline" opacity="0.5" stroke="blue" points="217.7220057563393,180.36345936572005 282.64480362563324,157.70838155509247 "/><polyline class="polyline" opacity="0.5" stroke="blue" points="217.87209322590954,181.99154202816453 283.62702765616854,161.21265682560082 "/><polyline class="polyline" opacity="0.5" stroke="blue" points="218.01334774561866,183.63106217268626 284.5710650712464,164.722335771266 "/><polyline class="polyline" opacity="0.5" stroke="blue" points="218.14566069881562,185.28099145503373 285.47641384344786,168.233521788162 "/><polyline class="polyline" opacity="0.5" stroke="blue" points="218.2689306662231,186.9402891449259 286.3426360727726,171.74233352366713 "/><polyline class="polyline" opacity="0.5" stroke="blue" points="218.38306358607923,188.60790333046108 287.16935878612605,175.24491479407556 "/><polyline class="polyline" opacity="0.5" stroke="blue" points="218.48797290210317,190.28277215015046 287.95627448272086,178.73744433789614 "/><polyline class="polyline" opacity="0.5" stroke="blue" points="218.58357969882354,191.9638250496357 288.703141424778,182.21614535439338 "/><polyline class="polyline" opacity="0.5" stroke="blue" points="218.66981282385035,193.6499840600432 289.40978367472553,185.67729477903026 "/><polyline class="polyline" opacity="0.5" stroke="blue" points="218.7466089967106,195.34016509483723 290.0760908818772,189.11723224999344 "/><polyline class="polyline" opacity="0.5" stroke="blue" points="218.8139129039144,197.03327926195126 290.7020178232911,192.53236872287087 "/><polyline class="polyline" opacity="0.5" stroke="blue" points="218.87167727996112,198.72823418791327 291.2875837051664,195.91919469378468 "/><polyline class="polyline" opacity="0.5" stroke="blue" points="218.9198629740447,200.42393535062703 291.83287123268354,199.27428799479938 "/><polyline class="polyline" opacity="0.5" stroke="blue" points="218.95843900226373,202.11928741743472 292.3380254576553,202.59432112919603 "/><polyline class="polyline" opacity="0.5" stroke="blue" points="218.98738258519234,203.8131955850635 292.80325241467636,205.8760681181623 "/><polyline class="polyline" opacity="0.5" stroke="blue" points="219.00667917071678,205.50456691805013 293.22881755766736,209.11641083456038 "/><polyline class="polyline" opacity="0.5" stroke="blue" points="219.01632244209384,207.19231168224596 293.6150440097594,212.31234480364006 "/><polyline class="polyline" opacity="0.5" stroke="blue" points="219.0163143112372,208.87534467002519 293.9623106403819,215.46098445481633 "/><polyline class="polyline" opacity="0.5" stroke="blue" points="219.00666489728832,210.55258651385734 294.2710499841685,218.559567812883 "/><polyline class="polyline" opacity="0.5" stroke="blue" points="218.98739249057772,212.2229649849555 294.5417460169049,221.60546062123458 "/><polyline class="polyline" opacity="0.5" stroke="blue" points="218.95852350213335,213.88541627377685 294.77493180418105,224.59615989377915 "/><polyline class="polyline" opacity="0.5" stroke="blue" points="218.9200923989389,215.5388862492323 294.9711870387124,227.5292968962023 "/><polyline class="polyline" opacity="0.5" stroke="blue" points="218.87214162519336,217.18233169355318 295.1311354824328,230.4026395610486 "/><polyline class="polyline" opacity="0.5" stroke="blue" points="218.81472150986872,218.81472150986872 295.25544232946186,233.21409434469058 "/><polyline class="polyline" opacity="0.5" stroke="blue" points="218.7478901609056,220.43503789966397 295.3448115059124,235.9617075376294 "/><polyline class="polyline" opacity="0.5" stroke="blue" points="218.6717133464296,222.0422775074169 295.3999829222358,238.6436660426873 "/><polyline class="polyline" opacity="0.5" stroke="blue" points="218.58626436341115,223.63545252985068 295.42172969341607,241.258297638495 "/><polyline class="polyline" opacity="0.5" stroke="blue" points="218.49162389422736,225.2135917873857 295.4108553418289,243.80407074823168 "/><polyline class="polyline" opacity="0.5" stroke="blue" points="218.38787985162273,226.77574175553104 295.368190996988,246.27959373582775 "/><polyline class="polyline" opacity="0.5" stroke="blue" points="218.27512721259473,228.32096755412098 295.2945926057264,248.68361375379115 "/><polyline class="polyline" opacity="0.5" stroke="blue" points="218.15346784176222,229.8483538924698 295.19093816560434,251.01501516845946 "/><polyline class="polyline" opacity="0.5" stroke="blue" points="218.0230103048002,231.35700596869603 295.0581249935261,253.27281758981928 "/><polyline class="polyline" opacity="0.5" stroke="blue" points="217.88386967254976,232.8460503216477 294.8970670406854,255.45617353407505 "/><polyline class="polyline" opacity="0.5" stroke="blue" points="217.73616731643074,234.31463563404182 294.7086922640599,257.56436574790064 "/><polyline class="polyline" opacity="0.5" stroke="blue" points="217.58003069580488,235.76193348562043 294.4939400637517,259.5968042237818 "/><polyline class="polyline" opacity="0.5" stroke="blue" points="217.41559313794983,237.18713905531098 294.2537587945309,261.5530229360721 "/><polyline class="polyline" opacity="0.5" stroke="blue" points="217.24299361131736,238.58947177156745 293.98910335899456,263.4326763273495 "/><polyline class="polyline" opacity="0.5" stroke="blue" points="217.06237649275678,239.96817591025564 293.70093288881645,265.2355355744012 "/><polyline class="polyline" opacity="0.5" stroke="blue" points="216.87389132939023,241.32252113963165 293.39020851963636,266.9614846626967 "/><polyline class="polyline" opacity="0.5" stroke="blue" points="216.67769259582911,242.6518030121457 293.057891264233,268.61051629755036 "/><polyline class="polyline" opacity="0.5" stroke="blue" points="216.4739394474197,243.9553434029822 292.7049399877507,270.18272767935036 "/><polyline class="polyline" opacity="0.5" stroke="blue" points="216.2627954702037,245.23249089542315 292.33230948790793,271.6783161692618 "/><polyline class="polyline" opacity="0.5" stroke="blue" points="216.04442842827208,246.48262111329146 291.94094868231156,273.0975748707135 "/><polyline class="polyline" opacity="0.5" stroke="blue" points="215.81901000918236,247.70513700089484 291.531798904247,274.4408881507757 "/><polyline class="polyline" opacity="0.5" stroke="blue" points="215.58671556809844,248.89946905105003 291.1057923075974,275.70872712424875 "/><polyline class="polyline" opacity="0.5" stroke="blue" points="215.34772387129811,250.06507548191564 290.66385038088686,276.90164512192507 "/><polyline class="polyline" opacity="0.5" stroke="blue" points="215.10221683967683,251.20144236350768 290.20688256982874,278.0202731630856 "/><polyline class="polyline" opacity="0.5" stroke="blue" points="214.85037929285977,252.30808369490472 289.7357850072047,279.06531545084994 "/><polyline class="polyline" opacity="0.5" stroke="blue" points="214.59239869451326,253.3845414332782 289.25143934838843,280.03754490754926 "/><polyline class="polyline" opacity="0.5" stroke="blue" points="214.328464899425,254.43038547599878 288.7547117103798,280.93779876582926 "/><polyline class="polyline" opacity="0.5" stroke="blue" points="214.0587699029004,255.4452135971816 288.2464517118086,281.7669742297462 "/><polyline class="polyline" opacity="0.5" stroke="blue" points="213.7835075929965,256.42865134013005 287.72749161101575,282.5260242186888 "/><polyline class="polyline" opacity="0.5" stroke="blue" points="213.50287350609037,257.380351867229 287.19864553901755,283.21595320556503 "/><polyline class="polyline" opacity="0.5" stroke="blue" points="213.21706458625115,258.29999576891987 286.66070882390056,283.8378131593386 "/><polyline class="polyline" opacity="0.5" stroke="blue" points="212.92627894885808,259.18729083345875 286.1144574029825,284.3926996006872 "/><polyline class="polyline" opacity="0.5" stroke="blue" points="212.63071564887795,260.04197177922435 285.5606473189057,284.88174777830534 "/><polyline class="polyline" opacity="0.5" stroke="blue" points="212.33057445418726,260.8637999513907 285.00001429569716,285.3061289721757 "/><polyline class="polyline" opacity="0.5" stroke="blue" points="212.02605562429423,261.65256298482694 284.4332733907376,285.6670469290011 "/><polyline class="polyline" opacity="0.5" stroke="blue" points="211.71735969478775,262.408074435118 283.86111871852046,285.96573443392015 "/><polyline class="polyline" opacity="0.5" stroke="blue" points="211.40468726780978,263.1301733796273 283.28422324205275,286.20345002163197 "/><polyline class="polyline" opacity="0.5" stroke="blue" points="211.0882388088189,263.818723990539 282.7032386277525,286.38147482912336 "/><polyline class="polyline" opacity="0.5" stroke="blue" points="210.76821444988394,264.473615081827 282.11879515971805,286.5011095913265 "/><polyline class="polyline" opacity="0.5" stroke="blue" points="210.44481379971754,265.0947596320998 281.53150170929666,286.56367178024834 "/><polyline class="polyline" opacity="0.5" stroke="blue" points="210.11823576063082,265.68209428526166 280.9419457559463,286.57049288738006 "/><polyline class="polyline" opacity="0.5" stroke="blue" points="209.78867835256418,266.23557883092184 280.3506934554707,286.5229158485399 "/><polyline class="polyline" opacity="0.5" stroke="blue" points="209.45633854432032,266.7551956664602 279.75828975180906,286.4222926097075 "/><polyline class="polyline" opacity="0.5" stroke="blue" points="209.12141209210117,267.2409492426332 279.16525852867727,286.26998183187334 "/><polyline class="polyline" opacity="0.5" stroke="blue" points="208.78409338542392,267.69286549457325 278.5721027974811,286.06734673245586 "/><polyline class="polyline" opacity="0.5" stroke="blue" points="208.44457530046736,268.1109912599975 277.97930491805766,285.8157530604222 "/><polyline class="polyline" opacity="0.5" stroke="blue" points="208.10304906087663,268.4953936863995 277.38732684894046,285.51656720188566 "/><polyline class="polyline" opacity="0.5" stroke="blue" points="207.75970410603125,268.84615962895225 276.7966104239932,285.1711544126442 "/><polyline class="polyline" opacity="0.5" stroke="blue" points="207.41472796676118,269.16339504080156 276.2075776524044,284.78087717385733 "/><polyline class="polyline" opacity="0.5" stroke="blue" points="207.06830614847445,269.44722435737367 275.6206310391909,284.34709366684365 "/><polyline class="polyline" opacity="0.5" stroke="blue" points="206.7206220216415,269.69778987626705 275.0361539235096,283.87115636280083 "/><polyline class="polyline" opacity="0.5" stroke="blue" points="206.37185671956317,269.91525113423626 274.45451083223224,283.3544107231113 "/><polyline class="polyline" opacity="0.5" stroke="blue" points="206.022189043333,270.09978428271796 273.8760478463925,282.7981940057939 "/><polyline class="polyline" opacity="0.5" stroke="blue" points="205.6717953738884,270.2515814632829 273.30109297826186,282.20383417358573 "/><polyline class="polyline" opacity="0.5" stroke="blue" points="205.32084959103176,270.3708501843349 272.7299565569638,281.57264889909936 "/><polyline class="polyline" opacity="0.5" stroke="blue" points="204.96952299928867,270.4578127003121 272.1629316206786,280.9059446624799 "/><polyline class="polyline" opacity="0.5" stroke="blue" points="204.61798426045848,270.5127053945787 271.60029431363336,280.20501593699476 "/><polyline class="polyline" opacity="0.5" stroke="blue" points="204.2663993327024,270.5357781671296 271.0423042862099,279.4711444580149 "/><polyline class="polyline" opacity="0.5" stroke="blue" points="203.91493141600367,270.5272938281626 270.4892050966347,278.70559857089347 "/><polyline class="polyline" opacity="0.5" stroke="blue" points="203.56374090382582,270.48752749850655 269.94122461284417,277.9096326533079 "/><polyline class="polyline" opacity="0.5" stroke="blue" points="203.21298534078824,270.4167660178279 269.3985754132409,277.0844866077109 "/><polyline class="polyline" opacity="0.5" stroke="blue" points="202.8628193861704,270.3153073614724 268.8614551851739,276.23138541961987 "/><polyline class="polyline" opacity="0.5" stroke="blue" points="202.5133947830519,270.1834600667333 268.3300471200882,275.351538777577 "/><polyline class="polyline" opacity="0.5" stroke="blue" points="202.1648603328894,270.02154266927573 267.8045203043961,274.44614075071684 "/><polyline class="polyline" opacity="0.5" stroke="blue" points="201.81736187532923,269.8298831503831 267.28503010522377,273.5163695199938 "/><polyline class="polyline" opacity="0.5" stroke="blue" points="201.47104227305024,269.6088183956317 266.7717185502825,272.56338715924267 "/><polyline class="polyline" opacity="0.5" stroke="blue" points="201.1260414014304,269.35869366553993 266.26471470120487,271.5883394623669 "/><polyline class="polyline" opacity="0.5" stroke="blue" points="200.7824961428285,269.07986207868214 265.76413501977174,270.59235581308087 "/><polyline class="polyline" opacity="0.5" stroke="blue" points="200.44054038527258,268.77268410770205 265.27008372653603,269.57654909376004 "/><polyline class="polyline" opacity="0.5" stroke="blue" points="200.10030502534613,268.4375270886046 264.7826531514258,268.5420156300833 "/><polyline class="polyline" opacity="0.5" stroke="blue" points="199.76191797506374,268.07476474365757 264.3019240759776,267.48983516828616 "/><polyline class="polyline" opacity="0.5" stroke="blue" points="199.42550417253028,267.684776718182 263.8279660669195,266.4210708819718 "/><polyline class="polyline" opacity="0.5" stroke="blue" points="199.09118559617787,267.26794813146535 263.36083780088427,265.33676940555915 "/><polyline class="polyline" opacity="0.5" stroke="blue" points="198.75908128237853,266.82466914198443 262.9005873800891,264.2379608915767 "/><polyline class="polyline" opacity="0.5" stroke="blue" points="198.4293073462329,266.355334527084 262.44725263887415,263.1256590891349 "/><polyline class="polyline" opacity="0.5" stroke="blue" points="198.10197700533794,265.8603432772161 262.000861441039,262.000861441039 "/><polyline class="polyline" opacity="0.5" stroke="blue" points="197.77720060634138,265.3400982048065 261.56143196796495,260.8645491971225 "/><polyline class="polyline" opacity="0.5" stroke="blue" points="197.455085654093,264.7950055677777 261.128972997551,259.7176875415036 "/><polyline class="polyline" opacity="0.5" stroke="blue" points="197.13573684320855,264.2254747077268 260.7034841740308,258.56122573158126 "/><polyline class="polyline" opacity="0.5" stroke="blue" points="196.81925609186533,263.6319177027211 260.2849562687765,257.39609724670197 "/><polyline class="polyline" opacity="0.5" stroke="blue" points="196.50574257765416,263.01474903464776 259.8733714322247,256.22321994453716 "/><polyline class="polyline" opacity="0.5" stroke="blue" points="196.1952927753163,262.3743852710238 259.468703437093,255.04349622331847 "/><polyline class="polyline" opacity="0.5" stroke="blue" points="195.88800049619954,261.7112447611496 259.07091791308227,253.85781318817922 "/><polyline class="polyline" opacity="0.5" stroke="blue" points="195.58395692927314,261.02574734646265 258.679972573286,252.6670428199531 "/><polyline class="polyline" opacity="0.5" stroke="blue" points="195.2832506835454,260.3183140849294 258.29581743255017,251.4720421448737 "/><polyline class="polyline" opacity="0.5" stroke="blue" points="194.9859678317337,259.589366989291 257.918395018049,250.27365340371418 "/><polyline class="polyline" opacity="0.5" stroke="blue" points="194.69219195504286,258.8393287789618 257.5476405723616,249.072704218995 "/><polyline class="polyline" opacity="0.5" stroke="blue" points="194.40200418891146,258.06862264536267 257.1834822493506,247.87000775897397 "/><polyline class="polyline" opacity="0.5" stroke="blue" points="194.1154832695921,257.2776720304573 256.82584130316,246.6663628972171 "/><polyline class="polyline" opacity="0.5" stroke="blue" points="193.8327055814375,256.46690041824456 256.4746322706642,245.46255436663 "/><polyline class="polyline" opacity="0.5" stroke="blue" points="193.55374520476823,255.63673113895098 256.1297631477117,244.25935290690546 "/><polyline class="polyline" opacity="0.5" stroke="blue" points="193.27867396420447,254.78758718565456 255.79113555951807,243.0575154044219 "/><polyline class="polyline" opacity="0.5" stroke="blue" points="193.00756147734845,253.91989104306458 255.45864492557376,241.85778502369737 "/><polyline class="polyline" opacity="0.5" stroke="blue" points="192.74047520371036,253.03406452817237 255.1321806194392,240.660891329577 "/><polyline class="polyline" opacity="0.5" stroke="blue" points="192.47748049377427,252.13052864248328 254.81162612380774,239.46755039939907 "/><polyline class="polyline" opacity="0.5" stroke="blue" points="192.21864063810708,251.20970343553398 254.49685918122424,238.27846492445434 "/><polyline class="polyline" opacity="0.5" stroke="blue" points="191.96401691641682,250.27200787939458 254.18775194084935,237.09432430011566 "/><polyline class="polyline" opacity="0.5" stroke="blue" points="191.7136686464727,249.31785975385364 253.88417110166762,235.915804704082 "/><polyline class="polyline" opacity="0.5" stroke="blue" points="191.4676532328029,248.3476755419794 253.58597805253655,234.7435691622416 "/><polyline class="polyline" opacity="0.5" stroke="blue" points="191.2260262150909,247.36187033575095 253.29302900947948,233.578267601721 "/><polyline class="polyline" opacity="0.5" stroke="blue" points="190.98884131619616,246.36085775145182 253.00517515062302,232.42053689074748 "/><polyline class="polyline" opacity="0.5" stroke="blue" points="190.75615048972747,245.3450498545186 252.72226274918344,231.27100086501187 "/><polyline class="polyline" opacity="0.5" stroke="blue" points="190.52800396710313,244.31485709353765 252.44413330490272,230.1302703402779 "/><polyline class="polyline" opacity="0.5" stroke="blue" points="190.30445030403513,243.2706882430847 252.17062367433522,228.9989431110413 "/><polyline class="polyline" opacity="0.5" stroke="blue" points="190.085536426378,242.21295035510423 251.90156620038272,227.87760393510234 "/><polyline class="polyline" opacity="0.5" stroke="blue" points="189.87130767528726,241.1420487185272 251.63678884147265,226.7668245039699 "/><polyline class="polyline" opacity="0.5" stroke="blue" points="189.66180785163527,240.0583868268297 251.37611530076936,225.66716339907595 "/><polyline class="polyline" opacity="0.5" stroke="blue" points="189.4570792596362,238.9623663532367 251.11936515580317,224.5791660338329 "/><polyline class="polyline" opacity="0.5" stroke="blue" points="189.25716274963392,237.85438713328065 250.8663539888964,223.503364581627 "/><polyline class="polyline" opacity="0.5" stroke="blue" points="189.0620977600111,236.734847154427 250.61689351875725,222.44027788989558 "/><polyline class="polyline" opacity="0.5" stroke="blue" points="188.87192235817903,235.6041425524839 250.37079173360502,221.39041138049436 "/><polyline class="polyline" opacity="0.5" stroke="blue" points="188.68667328061161,234.4626676145169 250.12785302618016,220.35425693661813 "/><polyline class="polyline" opacity="0.5" stroke="blue" points="188.50638597188896,233.31081478799504 249.88787833098363,219.33229277659578 "/><polyline class="polyline" opacity="0.5" stroke="blue" points="188.33109462271855,232.14897469589835 249.65066526407665,218.32498331493744 "/><polyline class="polyline" opacity="0.5" stroke="blue" points="188.16083220690402,230.9775361575225 249.41600826576177,217.33277901107056 "/><polyline class="polyline" opacity="0.5" stroke="blue" points="187.99563051723428,229.79688621472087 249.1836987464506,216.35611620625747 "/><polyline class="polyline" opacity="0.5" stroke="blue" points="187.8355202002669,228.60741016332918 248.95352523601045,215.39541694924694 "/><polyline class="polyline" opacity="0.5" stroke="blue" points="187.68053078998244,227.4094915895227 248.7252735368649,214.4510888112672 "/><polyline class="polyline" opacity="0.5" stroke="blue" points="187.53069074028747,226.2035124108618 248.49872688110702,213.523524691028 "/><polyline class="polyline" opacity="0.5" stroke="blue" points="187.38602745634603,224.98985292178543 248.27366609186612,212.61310261045418 "/><polyline class="polyline" opacity="0.5" stroke="blue" points="187.2465673247208,223.7688918433176 248.0498697491482,211.72018550193107 "/><polyline class="polyline" opacity="0.5" stroke="blue" points="187.11233574230621,222.54100637675646 247.82711436035086,210.84512098789756 "/><polyline class="polyline" opacity="0.5" stroke="blue" points="186.98335714403817,221.30657226112123 247.60517453563088,209.98824115367867 "/><polyline class="polyline" opacity="0.5" stroke="blue" points="186.8596550293645,220.0659638341343 247.38382316828023,209.14986231450231 "/><polyline class="polyline" opacity="0.5" stroke="blue" points="186.74125198746327,218.8195540965237 247.1628316202414,208.33028477770054 "/><polyline class="polyline" opacity="0.5" stroke="blue" points="186.6281697211957,217.5677147794321 246.94196991286844,207.52979260114446 "/><polyline class="polyline" opacity="0.5" stroke="blue" points="186.52042906978187,216.31081641472548 246.72100692301206,206.74865334901494 "/><polyline class="polyline" opacity="0.5" stroke="blue" points="186.4180500301888,215.04922840799526 246.49971058448233,205.98711784605698 "/><polyline class="polyline" opacity="0.5" stroke="blue" points="186.32105177721965,213.78331911405513 246.2778480949105,205.245419931514 "/><polyline class="polyline" opacity="0.5" stroke="blue" points="186.2294526822959,212.51345591473452 246.05518612800492,204.52377621398034 "/><polyline class="polyline" opacity="0.5" stroke="blue" points="186.1432703309223,211.240005298774 245.83149105116317,203.82238582845142 "/><polyline class="polyline" opacity="0.5" stroke="blue" points="186.06252153882713,209.96333294363376 245.60652914837277,203.14143019688993 "/><polyline class="polyline" opacity="0.5" stroke="blue" points="185.98722236677003,208.68380379902482 245.38006684830032,202.48107279365914 "/><polyline class="polyline" opacity="0.5" stroke="blue" points="185.91738813400914,207.4017821719796 245.1518709574347,201.8414589172072 "/><polyline class="polyline" opacity="0.5" stroke="blue" points="185.85303343042173,206.11763181327674 244.92170889811996,201.22271546941096 "/><polyline class="polyline" opacity="0.5" stroke="blue" points="185.7941721272708,204.83171600504082 244.68934895127552,200.62495074401235 "/><polyline class="polyline" opacity="0.5" stroke="blue" points="185.74081738661204,203.54439764933565 244.4545605035706,200.04825422559662 "/><polyline class="polyline" opacity="0.5" stroke="blue" points="185.69298166933456,202.25603935757556 244.21711429878405,199.49269640057562 "/><polyline class="polyline" opacity="0.5" stroke="blue" points="185.65067674183007,200.96700354057555 243.9767826930469,198.95832858164624 "/><polyline class="polyline" opacity="0.5" stroke="blue" points="185.61391368128466,199.6776524990672 243.73333991362995,198.44518274719684 "/><polyline class="polyline" opacity="0.5" stroke="blue" points="185.58270287958788,198.38834851450284 243.48656232090644,197.95327139713027 "/><polyline class="polyline" opacity="0.5" stroke="blue" points="185.55705404585422,197.09945393997543 243.2362286730853,197.48258742656256 "/><polyline class="polyline" opacity="0.5" stroke="blue" points="185.5369762075513,195.8113312910789 242.9821203932775,197.03310401884036 "/><polyline class="polyline" opacity="0.5" stroke="blue" points="185.5224777102309,194.52434333653335 242.72402183842783,196.60477455929714 "/><polyline class="polyline" opacity="0.5" stroke="blue" points="185.51356621585697,193.2388531884021 242.4617205696113,196.19753257113987 "/><polyline class="polyline" opacity="0.5" stroke="blue" points="185.5102486997272,191.9552243917227 242.19500762316557,195.8112916748205 "/><polyline class="polyline" opacity="0.5" stroke="blue" points="185.51253144598297,190.6738210133768 241.92367778210206,195.44594557220472 "/><polyline class="polyline" opacity="0.5" stroke="blue" points="185.52042004170366,189.39500773001885 241.6475298472112,195.1013680567999 "/><polyline class="polyline" opacity="0.5" stroke="blue" points="185.5339193695816,188.1191499148863 241.3663669072536,194.77741305124715 "/><polyline class="polyline" opacity="0.5" stroke="blue" points="185.55303359917366,186.84661372330748 241.0799966076049,194.4739146732178 "/><polyline class="polyline" opacity="0.5" stroke="blue" points="185.57776617672545,185.57776617672545 240.78823141670352,194.1906873307854 "/><polyline class="polyline" opacity="0.5" stroke="blue" points="185.608119813566,184.31297524505044 240.49088888963016,193.92752584826374 "/><polyline class="polyline" opacity="0.5" stroke="blue" points="185.6440964730685,183.0526099271529 240.18779192813372,193.68420562341882 "/><polyline class="polyline" opacity="0.5" stroke="blue" points="185.68569735617558,181.7970403293061 239.87876903640546,193.4604828168716 "/><polyline class="polyline" opacity="0.5" stroke="blue" points="185.7329228854864,180.54663774138328 239.56365457189327,193.2560945744092 "/><polyline class="polyline" opacity="0.5" stroke="blue" points="185.7857726879036,179.3017747106108 239.2422889904401,193.07075928282154 "/><polyline class="polyline" opacity="0.5" stroke="blue" points="185.84424557583935,178.0628251126775 238.9145190850294,192.90417685976945 "/><polyline class="polyline" opacity="0.5" stroke="blue" points="185.90833952697906,176.83016421999372 238.58019821741738,192.7560290780779 "/><polyline class="polyline" opacity="0.5" stroke="blue" points="185.9780516626033,175.6041687668907 238.2391865419362,192.62597992472806 "/><polyline class="polyline" opacity="0.5" stroke="blue" points="186.05337822446805,174.38521701154866 237.89135122076055,192.5136759947009 "/><polyline class="polyline" opacity="0.5" stroke="blue" points="186.1343145502452,173.1736887944334 237.53656662993603,192.4187469196962 "/><polyline class="polyline" opacity="0.5" stroke="blue" points="186.22085504752457,171.96996559302158 237.1747145554861,192.3408058316241 "/><polyline class="polyline" opacity="0.5" stroke="blue" points="186.31299316638203,170.77443057258628 236.80568437892828,192.27944986063227 "/><polyline class="polyline" opacity="0.5" stroke="blue" points="186.41072137051674,169.58746863281223 236.42937325155327,192.2342606673 "/><polyline class="polyline" opacity="0.5" stroke="blue" points="186.5140311069638,168.4094664500035 236.04568625684385,192.20480500849447 "/><polyline class="polyline" opacity="0.5" stroke="blue" points="186.62291277438834,167.24081251464304 235.65453656043883,192.19063533625138 "/><polyline class="polyline" opacity="0.5" stroke="blue" points="186.7373556899695,166.081897164057 235.25584554707962,192.19129042890603 "/><polyline class="polyline" opacity="0.5" stroke="blue" points="186.85734805488391,164.93311260993298 234.84954294400916,192.20629605356947 "/><polyline class="polyline" opacity="0.5" stroke="blue" points="186.9828769183994,163.7948529604348 234.43556693033415,192.2351656589119 "/><polyline class="polyline" opacity="0.5" stroke="blue" points="187.11392814059218,162.6675142366535 234.01386423189913,192.27740109708844 "/><polyline class="polyline" opacity="0.5" stroke="blue" points="187.25048635370206,161.5514943831268 233.5843902012668,192.33249337351663 "/><polyline class="polyline" opacity="0.5" stroke="blue" points="187.3925349221427,160.44719327215589 233.14710888244431,192.39992342309557 "/><polyline class="polyline" opacity="0.5" stroke="blue" points="187.54005590118555,159.35501270164355 232.70199306004346,192.47916291134013 "/><polyline class="polyline" opacity="0.5" stroke="blue" points="187.69302999433899,158.27535638617186 232.24902429261482,192.56967505879533 "/><polyline class="polyline" opacity="0.5" stroke="blue" points="187.85143650944605,157.20862994103464 231.78819292994686,192.6709154869919 "/><polyline class="polyline" opacity="0.5" stroke="blue" points="188.0152533135274,156.15524085893398 231.3194981141763,192.78233308410873 "/><polyline class="polyline" opacity="0.5" stroke="blue" points="188.18445678639827,155.11559847904778 230.842947764611,192.90337088841903 "/><polyline class="polyline" opacity="0.5" stroke="blue" points="188.35902177309188,154.0901139481696 230.3585585462232,193.03346698751784 "/><polyline class="polyline" opacity="0.5" stroke="blue" points="188.53892153512396,153.07920017362113 229.86635582182805,193.17205543125675 "/><polyline class="polyline" opacity="0.5" stroke="blue" points="188.72412770063718,152.08327176763163 229.36637358801923,193.31856715625003 "/><polyline class="polyline" opacity="0.5" stroke="blue" points="188.91461021346737,151.10274498287927 228.85865439499176,193.47243091976466 "/><polyline class="polyline" opacity="0.5" stroke="blue" points="189.1103372811771,150.13803763888433 228.343249250438,193.6330742407632 "/><polyline class="polyline" opacity="0.5" stroke="blue" points="189.3112753221057,149.18956903894525 227.82021750776025,193.79992434583812 "/><polyline class="polyline" opacity="0.5" stroke="blue" points="189.51738891148975,148.25775987730572 227.28962673889737,193.97240911775307 "/><polyline class="polyline" opacity="0.5" stroke="blue" points="189.72864072671106,147.34303213624156 226.75155259211868,194.14995804429654 "/><polyline class="polyline" opacity="0.5" stroke="blue" points="189.94499149173447,146.44580897275713 226.20607863518848,194.332003165152 "/><polyline class="polyline" opacity="0.5" stroke="blue" points="190.16639992080195,145.56651459458107 225.65329618435706,194.51798001449944 "/><polyline class="polyline" opacity="0.5" stroke="blue" points="190.3928226614541,144.70557412515439 225.09330411968094,194.70732855708238 "/><polyline class="polyline" opacity="0.5" stroke="blue" points="190.6242142369557,143.86341345730668 224.5262086872211,194.8994941155065 "/><polyline class="polyline" opacity="0.5" stroke="blue" points="190.86052698820626,143.04045909532005 223.9521232887114,195.0939282865747 "/><polyline class="polyline" opacity="0.5" stroke="blue" points="191.101711015222,142.23713798508544 223.3711682593286,195.29008984451553 "/><polyline class="polyline" opacity="0.5" stroke="blue" points="191.3477141182821,141.4538773320635 222.7834706342333,195.48744562901905 "/><polyline class="polyline" opacity="0.5" stroke="blue" points="191.59848173883577,140.69110440676724 222.18916390458304,195.68547141606462 "/><polyline class="polyline" opacity="0.5" stroke="blue" points="191.85395690027423,139.94924633749497 221.58838776375092,195.88365276959902 "/><polyline class="polyline" opacity="0.5" stroke="blue" points="192.1140801486767,139.2287298900509 220.98128784450722,196.0814858722096 "/><polyline class="polyline" opacity="0.5" stroke="blue" points="192.37878949364526,138.52998123420164 220.36801544794648,196.2784783330264 "/><polyline class="polyline" opacity="0.5" stroke="blue" points="192.6480203493509,137.85342569663186 219.7487272649584,196.47414997118585 "/><polyline class="polyline" opacity="0.5" stroke="blue" points="192.92170547591698,137.19948750017517 219.1235850910598,196.66803357329195 "/><polyline class="polyline" opacity="0.5" stroke="blue" points="193.19977492127555,136.56858948911278 218.49275553541156,196.85967562341784 "/><polyline class="polyline" opacity="0.5" stroke="blue" points="193.48215596363582,135.96115284035236 217.8564097248559,197.04863700430514 "/><polyline class="polyline" opacity="0.5" stroke="blue" points="193.768773054712,135.3775967603163 217.21472300380958,197.23449366853316 "/><polyline class="polyline" opacity="0.5" stroke="blue" points="194.0595477638638,134.81833816739223 216.56787463085027,197.41683727854945 "/><polyline class="polyline" opacity="0.5" stroke="blue" points="194.3543987233092,134.2837913598227 215.91604747282844,197.59527581457417 "/><polyline class="polyline" opacity="0.5" stroke="blue" points="194.65324157457593,133.77436766893385 215.25942769732947,197.76943414951288 "/><polyline class="polyline" opacity="0.5" stroke="blue" points="194.9559889163639,133.29047509763373 214.59820446430058,197.9389545901349 "/><polyline class="polyline" opacity="0.5" stroke="blue" points="195.26255025399843,132.8325179441374 213.93256961764126,198.1034973838969 "/><polyline class="polyline" opacity="0.5" stroke="blue" points="195.57283195065838,132.40089641091083 213.2627173775402,198.26274119091298 "/><polyline class="polyline" opacity="0.5" stroke="blue" points="195.8867371805717,131.99600619885666 212.58884403431983,198.41638352069208 "/><polyline class="polyline" opacity="0.5" stroke="blue" points="196.2041658843749,131.6182380868037 211.91114764452757,198.56414113338138 "/><polyline class="polyline" opacity="0.5" stroke="blue" points="196.52501472684006,131.2679774963973 211.22982772998603,198.70575040536897 "/><polyline class="polyline" opacity="0.5" stroke="blue" points="196.84917705717757,130.94560404253232 210.54508498048773,198.84096765920967 "/><polyline class="polyline" opacity="0.5" stroke="blue" points="197.17654287212852,130.65149106950915 209.8571209607885,198.96956945794565 "/><polyline class="polyline" opacity="0.5" stroke="blue" points="197.5069987820654,130.38600517314097 209.16613782252261,199.0913528639958 "/><polyline class="polyline" opacity="0.5" stroke="blue" points="197.84042798032402,130.14950570908735 208.47233802162887,199.20613566288455 "/><polyline class="polyline" opacity="0.5" stroke="blue" points="198.17671021599426,129.9423442877369 207.77592404184117,199.31375655217397 "/><polyline class="polyline" opacity="0.5" stroke="blue" points="198.5157217703999,129.76486425601587 207.0770981247627,199.414075296049 "/><polyline class="polyline" opacity="0.5" stroke="blue" points="198.85733543750192,129.61740016655153 206.37606200700336,199.5069728460846 "/><polyline class="polyline" opacity="0.5" stroke="blue" points="199.20142050846147,129.5002772346749 205.6730166648248,199.59235142880001 "/><polyline class="polyline" opacity="0.5" stroke="blue" points="199.54784276060056,129.41381078380522 204.9681620666968,199.67013460066963 "/><polyline class="polyline" opacity="0.5" stroke="blue" points="199.89646445100058,129.3583056798182 204.2616969341331,199.7402672713232 "/><polyline class="polyline" opacity="0.5" stroke="blue" points="200.2471443149781,129.33405575505998 203.5538185111328,199.80271569572028 "/><polyline class="polyline" opacity="0.5" stroke="blue" points="200.5997375696779,129.34134322273246 202.84472234251893,199.85746743613123 "/><polyline class="polyline" opacity="0.5" stroke="blue" points="200.95409592302204,129.380438082438 202.1346020614247,199.9045312947972 "/><polyline class="polyline" opacity="0.5" stroke="blue" points="201.31006758825131,129.45159751773775 201.42364918614268,199.9439372181747 "/><polyline class="polyline" opacity="0.5" stroke="blue" points="201.667497304293,129.55506528664344 200.71205292651393,199.97573617369642 "/><polyline class="polyline" opacity="0.5" stroke="blue" points="202.02622636218453,129.69107110602818 200.0,200.0 "/><polyline class="polyline" opacity="0.5" stroke="blue" points="202.38609263777803,129.85983003101006 199.28767445754414,200.0168212315894 "/><polyline class="polyline" opacity="0.5" stroke="blue" points="202.74693063094463,130.06154183042938 198.57525751929538,200.0263128989001 "/><polyline class="polyline" opacity="0.5" stroke="blue" points="203.10857151148983,130.296390359607 197.86292742023764,200.02860830474046 "/><polyline class="polyline" opacity="0.5" stroke="blue" points="203.47084317198397,130.56454293163875 197.1508592657322,200.0238607780753 "/><polyline class="polyline" opacity="0.5" stroke="blue" points="203.83357028770064,130.86614968854727 196.43922489695612,200.0122434061083 "/><polyline class="polyline" opacity="0.5" stroke="blue" points="204.19657438384712,131.20134297367616 195.7281927661869,199.99394874560127 "/><polyline class="polyline" opacity="0.5" stroke="blue" points="204.55967391025726,131.5702367067774 195.01792782186175,199.96918851434882 "/><polyline class="polyline" opacity="0.5" stroke="blue" points="204.92268432370457,131.97292576330256 194.30859140331023,199.93819326369967 "/><polyline class="polyline" opacity="0.5" stroke="blue" points="205.2854181779791,132.4094853594694 193.6003411450401,199.9012120329852 "/><polyline class="polyline" opacity="0.5" stroke="blue" points="205.64768522185477,132.87997044473212 192.8933308904314,199.85851198668118 "/><polyline class="polyline" opacity="0.5" stroke="blue" points="206.00929250505757,133.38441510333672 192.1877106146765,199.81037803509048 "/><polyline class="polyline" opacity="0.5" stroke="blue" points="206.37004449232572,133.92283196669524 191.48362635678316,199.75711243929143 "/><polyline class="polyline" opacity="0.5" stroke="blue" points="206.72974318563342,134.49521163835686 190.7812201604444,199.69903440105344 "/><polyline class="polyline" opacity="0.5" stroke="blue" points="207.08818825462873,135.10152213339842 190.0806300235606,199.63647963837164 "/><polyline class="polyline" opacity="0.5" stroke="blue" points="207.44517717531323,135.7417083340925 189.38198985618934,199.5697999472247 "/><polyline class="polyline" opacity="0.5" stroke="blue" points="207.80050537696786,136.41569146374383 188.6854294466851,199.49936275010668 "/><polyline class="polyline" opacity="0.5" stroke="blue" points="208.15396639730488,137.12336858061218 187.99107443578123,199.42555063183076 "/><polyline class="polyline" opacity="0.5" stroke="blue" points="208.50535204579867,137.8646120938584 187.29904629835895,199.34876086304905 "/><polyline class="polyline" opacity="0.5" stroke="blue" points="208.85445257512276,138.63926930346514 186.6094623326405,199.2694049118765 "/><polyline class="polyline" opacity="0.5" stroke="blue" points="209.201056860591,139.44716196609005 185.92243565653817,199.18790794395156 "/><polyline class="polyline" opacity="0.5" stroke="blue" points="209.54495258747335,140.28808588880818 185.23807521088662,199.10470831121057 "/><polyline class="polyline" opacity="0.5" stroke="blue" points="209.88592644602562,141.1618105526921 184.55648576928382,199.0202570295975 "/><polyline class="polyline" opacity="0.5" stroke="blue" points="210.22376433404344,142.0680787681616 183.87776795426242,198.9350172458753 "/><polyline class="polyline" opacity="0.5" stroke="blue" points="210.55825156671912,143.0066063640088 183.20201825951506,198.84946369365161 "/><polyline class="polyline" opacity="0.5" stroke="blue" points="210.889173093549,143.97708191197216 182.5293290778956,198.76408213867887 "/><polyline class="polyline" opacity="0.5" stroke="blue" points="211.216313722007,144.97916648868787 181.85978873492135,198.6793688134376 "/><polyline class="polyline" opacity="0.5" stroke="blue" points="211.5394583476687,146.01249347679737 181.19348152750214,198.59582984096318 "/><polyline class="polyline" opacity="0.5" stroke="blue" points="211.85839219043802,147.07666840692616 180.5304877676272,198.51398064782865 "/><polyline class="polyline" opacity="0.5" stroke="blue" points="212.1729010364972,148.17126884217996 179.87088383074274,198.43434536615283 "/><polyline class="polyline" opacity="0.5" stroke="blue" points="212.48277148556946,149.29584430672233 179.21474220855976,198.35745622446112 "/><polyline class="polyline" opacity="0.5" stroke="blue" points="212.7877912030529,150.44991625990883 178.56213156603573,198.28385292718826 "/><polyline class="polyline" opacity="0.5" stroke="blue" points="213.08774917655404,151.63297811735464 177.9131168022794,198.21408202257757 "/><polyline class="polyline" opacity="0.5" stroke="blue" points="213.38243597631998,152.8444953202006 177.26775911513593,198.14869625870057 "/><polyline class="polyline" opacity="0.5" stroke="blue" points="213.67164401904066,154.0839054537293 176.62611606921382,198.08825392729338 "/><polyline class="polyline" opacity="0.5" stroke="blue" points="213.9551678344648,155.3506184163522 175.98824166712484,198.0333181950847 "/><polyline class="polyline" opacity="0.5" stroke="blue" points="214.2328043342484,156.64401663985745 175.35418642371297,197.98445642227065 "/><polyline class="polyline" opacity="0.5" stroke="blue" points="214.50435308243036,157.96345536166152 174.72399744305818,197.94223946778075 "/><polyline class="polyline" opacity="0.5" stroke="blue" points="214.76961656690776,159.30826294965976 174.09771849804625,197.90724098096936 "/><polyline class="polyline" opacity="0.5" stroke="blue" points="215.02840047126352,160.6777412801112 173.47539011230617,197.88003667936584 "/><polyline class="polyline" opacity="0.5" stroke="blue" points="215.28051394628096,162.0711661688299 172.8570496443218,197.8612036121188 "/><polyline class="polyline" opacity="0.5" stroke="blue" points="215.5257698804639,163.48778785578324 172.24273137353475,197.85131940877957 "/><polyline class="polyline" opacity="0.5" stroke="blue" points="215.76398516886877,164.9268315430245 171.63246658826094,197.8509615130847 "/><polyline class="polyline" opacity="0.5" stroke="blue" points="215.99498097954333,166.38749798570439 171.02628367525324,197.8607064014185 "/><polyline class="polyline" opacity="0.5" stroke="blue" points="216.2185830168604,167.86896413572632 170.42420821074734,197.88112878566557 "/><polyline class="polyline" opacity="0.5" stroke="blue" points="216.43462178102837,169.37038383742106 169.82626305283807,197.91280080019718 "/><polyline class="polyline" opacity="0.5" stroke="blue" points="216.64293282306008,170.8908885744313 169.23246843503858,197.95629117277716 "/><polyline class="polyline" opacity="0.5" stroke="blue" points="216.84335699448147,172.42958826680788 168.64284206088195,198.01216437922244 "/><polyline class="polyline" opacity="0.5" stroke="blue" points="217.03574069106665,173.98557211712972 168.05739919943167,198.08097978170832 "/><polyline class="polyline" opacity="0.5" stroke="blue" points="217.21993608989294,175.55790950427618 167.4761527815736,198.1632907506731 "/><polyline class="polyline" opacity="0.5" stroke="blue" points="217.39580137902004,177.1456509232928 166.8991134969674,198.25964377034666 "/><polyline class="polyline" opacity="0.5" stroke="blue" points="217.56320097911237,178.74782896961298 166.32628989154048,198.37057752800618 "/><polyline class="polyline" opacity="0.5" stroke="blue" points="217.72200575633929,180.36345936571993 165.7576884654148,198.4966219871485 "/><polyline class="polyline" opacity="0.5" stroke="blue" points="217.87209322590954,181.99154202816445 165.19331377115753,198.6382974448614 "/><polyline class="polyline" opacity="0.5" stroke="blue" points="218.01334774561866,183.63106217268614 164.63316851225582,198.7961135737773 "/><polyline class="polyline" opacity="0.5" stroke="blue" points="218.14566069881562,185.2809914550337 164.07725364171392,198.97056844910156 "/><polyline class="polyline" opacity="0.5" stroke="blue" points="218.2689306662231,186.94028914492583 163.52556846068038,199.16214756132243 "/><polyline class="polyline" opacity="0.5" stroke="blue" points="218.38306358607923,188.60790333046094 162.9781107170106,199.37132281533314 "/><polyline class="polyline" opacity="0.5" stroke="blue" points="218.48797290210317,190.28277215015035 162.43487670367563,199.59855151682544 "/><polyline class="polyline" opacity="0.5" stroke="blue" points="218.58357969882354,191.96382504963557 161.89586135692937,199.84427534695072 "/><polyline class="polyline" opacity="0.5" stroke="blue" points="218.66981282385035,193.64998406004312 161.36105835414716,200.10891932638634 "/><polyline class="polyline" opacity="0.5" stroke="blue" points="218.7466089967106,195.34016509483712 160.83046021125088,200.39289077009335 "/><polyline class="polyline" opacity="0.5" stroke="blue" points="218.8139129039144,197.03327926195118 160.30405837963525,200.6965782342045 "/><polyline class="polyline" opacity="0.5" stroke="blue" points="218.8716772799611,198.7282341879132 159.78184334251256,201.02035045663982 "/><polyline class="polyline" opacity="0.5" stroke="blue" points="218.9198629740447,200.42393535062698 159.26380471058843,201.3645552932085 "/><polyline class="polyline" opacity="0.5" stroke="blue" points="218.95843900226373,202.11928741743463 158.74993131698727,201.72951865112077 "/><polyline class="polyline" opacity="0.5" stroke="blue" points="218.98738258519234,203.81319558506343 158.24021131133858,202.11554342200208 "/><polyline class="polyline" opacity="0.5" stroke="blue" points="219.00667917071678,205.50456691805002 157.73463225293898,202.5229084166694 "/><polyline class="polyline" opacity="0.5" stroke="blue" points="219.01632244209384,207.1923116822459 157.23318120290094,202.9518673041006 "/><polyline class="polyline" opacity="0.5" stroke="blue" points="219.0163143112372,208.87534467002507 156.73584481519845,203.4026475571964 "/><polyline class="polyline" opacity="0.5" stroke="blue" points="219.00666489728832,210.5525865138573 156.2426094265172,203.8754494081019 "/><polyline class="polyline" opacity="0.5" stroke="blue" points="218.98739249057772,212.22296498495544 155.75346114481619,204.3704448160198 "/><polyline class="polyline" opacity="0.5" stroke="blue" points="218.95852350213335,213.88541627377674 155.26838593650325,204.88777645060784 "/><polyline class="polyline" opacity="0.5" stroke="blue" points="218.9200923989389,215.53888624923218 154.7873697121272,205.42755669420754 "/><polyline class="polyline" opacity="0.5" stroke="blue" points="218.87214162519336,217.18233169355307 154.3103984104847,205.98986666630043 "/><polyline class="polyline" opacity="0.5" stroke="blue" points="218.81472150986872,218.81472150986872 153.837458081039,206.57475527372702 "/><polyline class="polyline" opacity="0.5" stroke="blue" points="218.7478901609056,220.43503789966385 153.3685349645453,207.1822382903326 "/><polyline class="polyline" opacity="0.5" stroke="blue" points="218.67171334642964,222.04227750741683 152.90361557177414,207.81229746982473 "/><polyline class="polyline" opacity="0.5" stroke="blue" points="218.58626436341115,223.6354525298506 152.44268676022395,208.4648796957278 "/><polyline class="polyline" opacity="0.5" stroke="blue" points="218.49162389422736,225.2135917873856 151.98573580871056,209.13989617241563 "/><polyline class="polyline" opacity="0.5" stroke="blue" points="218.38787985162273,226.77574175553093 151.53275048972148,209.83722166127157 "/><polyline class="polyline" opacity="0.5" stroke="blue" points="218.27512721259475,228.3209675541209 151.08371913941934,210.55669376608523 "/><polyline class="polyline" opacity="0.5" stroke="blue" points="218.15346784176222,229.84835389246976 150.63863072518132,211.2981122718281 "/><polyline class="polyline" opacity="0.5" stroke="blue" points="218.0230103048002,231.35700596869603 150.1974749105579,212.06123854096762 "/><polyline class="polyline" opacity="0.5" stroke="blue" points="217.88386967254976,232.84605032164777 149.76024211753668,212.8457949714699 "/><polyline class="polyline" opacity="0.5" stroke="blue" points="217.73616731643074,234.31463563404174 149.32692358599675,213.65146452060972 "/><polyline class="polyline" opacity="0.5" stroke="blue" points="217.58003069580488,235.7619334856204 148.89751143024046,214.47789029865135 "/><polyline class="polyline" opacity="0.5" stroke="blue" points="217.41559313794983,237.187139055311 148.47199869249283,215.32467523637655 "/><polyline class="polyline" opacity="0.5" stroke="blue" points="217.24299361131736,238.5894717715674 148.05037939325916,216.19138183033024 "/><polyline class="polyline" opacity="0.5" stroke="blue" points="217.06237649275678,239.9681759102556 147.63264857843706,217.077531969511 "/><polyline class="polyline" opacity="0.5" stroke="blue" points="216.87389132939023,241.32252113963165 147.21880236308294,217.98260684706744 "/><polyline class="polyline" opacity="0.5" stroke="blue" points="216.6776925958291,242.65180301214576 146.80883797173703,218.90604696036553 "/><polyline class="polyline" opacity="0.5" stroke="blue" points="216.4739394474197,243.95534340298215 146.4027537752184,219.84725220256217 "/><polyline class="polyline" opacity="0.5" stroke="blue" points="216.2627954702037,245.23249089542315 146.00054932380698,220.80558204856774 "/><polyline class="polyline" opacity="0.5" stroke="blue" points="216.04442842827208,246.48262111329143 145.60222537673815,221.7803558379908 "/><polyline class="polyline" opacity="0.5" stroke="blue" points="215.81901000918234,247.70513700089487 145.2077839279435,222.77085315734942 "/><polyline class="polyline" opacity="0.5" stroke="blue" points="215.58671556809847,248.89946905104998 144.81722822798037,223.77631432348625 "/><polyline class="polyline" opacity="0.5" stroke="blue" points="215.34772387129811,250.0650754819156 144.43056280210357,224.79594096976163 "/><polyline class="polyline" opacity="0.5" stroke="blue" points="215.10221683967683,251.20144236350768 144.04779346444366,225.82889673620025 "/><polyline class="polyline" opacity="0.5" stroke="blue" points="214.85037929285977,252.3080836949048 143.6689273282665,226.87430806435552 "/><polyline class="polyline" opacity="0.5" stroke="blue" points="214.5923986945133,253.3845414332782 143.2939728123033,227.93126509721318 "/><polyline class="polyline" opacity="0.5" stroke="blue" points="214.328464899425,254.43038547599878 142.92293964315132,228.99882268400162 "/><polyline class="polyline" opacity="0.5" stroke="blue" points="214.05876990290037,255.44521359718158 142.5558388537613,230.07600148930015 "/><polyline class="polyline" opacity="0.5" stroke="blue" points="213.7835075929965,256.42865134012993 142.1926827780391,231.161789205352 "/><polyline class="polyline" opacity="0.5" stroke="blue" points="213.50287350609037,257.38035186722897 141.83348504160648,232.2551418659898 "/><polyline class="polyline" opacity="0.5" stroke="blue" points="213.21706458625115,258.2999957689198 141.47826054877856,233.35498526007513 "/><polyline class="polyline" opacity="0.5" stroke="blue" points="212.92627894885808,259.18729083345875 141.12702546583236,234.4602164418494 "/><polyline class="polyline" opacity="0.5" stroke="blue" points="212.63071564887798,260.0419717792243 140.77979720065534,235.56970533508093 "/><polyline class="polyline" opacity="0.5" stroke="blue" points="212.33057445418726,260.86379995139066 140.43659437887757,236.68229642739192 "/><polyline class="polyline" opacity="0.5" stroke="blue" points="212.02605562429423,261.65256298482694 140.09743681660888,237.79681055065035 "/><polyline class="polyline" opacity="0.5" stroke="blue" points="211.71735969478775,262.40807443511807 139.76234548991374,238.91204674282977 "/><polyline class="polyline" opacity="0.5" stroke="blue" points="211.40468726780978,263.1301733796273 139.43134250117566,240.0267841862691 "/><polyline class="polyline" opacity="0.5" stroke="blue" points="211.0882388088189,263.81872399053896 139.10445104251318,241.13978421681722 "/><polyline class="polyline" opacity="0.5" stroke="blue" points="210.76821444988394,264.473615081827 138.78169535642598,242.24979239792043 "/><polyline class="polyline" opacity="0.5" stroke="blue" points="210.44481379971754,265.0947596320998 138.46310069386266,243.35554065331547 "/><polyline class="polyline" opacity="0.5" stroke="blue" points="210.11823576063082,265.6820942852616 138.14869326991166,244.45574945162213 "/><polyline class="polyline" opacity="0.5" stroke="blue" points="209.78867835256418,266.23557883092184 137.8385002173319,245.54913003579682 "/><polyline class="polyline" opacity="0.5" stroke="blue" points="209.4563385443203,266.7551956664603 137.53254953814664,246.6343866901171 "/><polyline class="polyline" opacity="0.5" stroke="blue" points="209.1214120921012,267.2409492426332 137.23087005353622,247.71021903710815 "/><polyline class="polyline" opacity="0.5" stroke="blue" points="208.78409338542394,267.6928654945732 136.933491352271,248.77532435661593 "/><polyline class="polyline" opacity="0.5" stroke="blue" points="208.4445753004674,268.1109912599975 136.6404437379361,249.82839991906013 "/><polyline class="polyline" opacity="0.5" stroke="blue" points="208.10304906087663,268.4953936863995 136.35175817519973,250.86814532478581 "/><polyline class="polyline" opacity="0.5" stroke="blue" points="207.75970410603125,268.84615962895225 136.06746623538825,251.89326484135734 "/><polyline class="polyline" opacity="0.5" stroke="blue" points="207.41472796676118,269.16339504080156 135.78760004162712,252.90246973061866 "/><polyline class="polyline" opacity="0.5" stroke="blue" points="207.06830614847445,269.44722435737367 135.51219221381209,253.89448055736887 "/><polyline class="polyline" opacity="0.5" stroke="blue" points="206.72062202164147,269.69778987626705 135.24127581367424,254.8680294715817 "/><polyline class="polyline" opacity="0.5" stroke="blue" points="206.3718567195632,269.9152511342362 134.9748842901996,255.82186245622077 "/><polyline class="polyline" opacity="0.5" stroke="blue" points="206.022189043333,270.09978428271796 134.71305142566212,256.7547415328786 "/><polyline class="polyline" opacity="0.5" stroke="blue" points="205.67179537388836,270.2515814632829 134.45581128252405,257.6654469176855 "/><polyline class="polyline" opacity="0.5" stroke="blue" points="205.3208495910318,270.3708501843349 134.2031981514511,258.5527791202043 "/><polyline class="polyline" opacity="0.5" stroke="blue" points="204.96952299928867,270.4578127003121 133.9552465006828,259.4155609783312 "/><polyline class="polyline" opacity="0.5" stroke="blue" points="204.61798426045848,270.5127053945787 133.71199092699084,260.25263962257304 "/><polyline class="polyline" opacity="0.5" stroke="blue" points="204.2663993327024,270.53577816712965 133.47346610844608,261.0628883634597 "/><polyline class="polyline" opacity="0.5" stroke="blue" points="203.9149314160037,270.5272938281626 133.2397067592059,261.8452084962663 "/><polyline class="polyline" opacity="0.5" stroke="blue" points="203.56374090382585,270.48752749850655 133.0107475865201,262.5985310176728 "/><polyline class="polyline" opacity="0.5" stroke="blue" points="203.21298534078824,270.4167660178279 132.78662325014318,263.3218182494647 "/><polyline class="polyline" opacity="0.5" stroke="blue" points="202.8628193861704,270.3153073614724 132.56736832432136,264.01406536487843 "/><polyline class="polyline" opacity="0.5" stroke="blue" points="202.51339478305192,270.1834600667333 132.35301726251555,264.6743018137146 "/><polyline class="polyline" opacity="0.5" stroke="blue" points="202.1648603328894,270.02154266927573 132.1436043650001,265.3015926428724 "/><polyline class="polyline" opacity="0.5" stroke="blue" points="201.81736187532923,269.8298831503831 131.93916374946429,265.8950397095055 "/><polyline class="polyline" opacity="0.5" stroke="blue" points="201.47104227305024,269.6088183956318 131.73972932472805,266.45378278454535 "/><polyline class="polyline" opacity="0.5" stroke="blue" points="201.1260414014304,269.35869366553993 131.5453347676651,266.97700054489167 "/><polyline class="polyline" opacity="0.5" stroke="blue" points="200.7824961428285,269.07986207868214 131.35601350341165,267.4639114531168 "/><polyline class="polyline" opacity="0.5" stroke="blue" points="200.44054038527258,268.7726841077021 131.17179868892214,267.9137745240748 "/><polyline class="polyline" opacity="0.5" stroke="blue" points="200.10030502534616,268.43752708860467 130.99272319991832,268.32588997833795 "/><polyline class="polyline" opacity="0.5" stroke="blue" points="199.76191797506374,268.0747647436575 130.81881962125897,268.6995997829016 "/><polyline class="polyline" opacity="0.5" stroke="blue" points="199.42550417253028,267.684776718182 130.6501202407454,269.03428808010347 "/><polyline class="polyline" opacity="0.5" stroke="blue" points="199.09118559617787,267.26794813146535 130.4866570463609,269.3293815061823 "/><polyline class="polyline" opacity="0.5" stroke="blue" points="198.75908128237856,266.82466914198443 130.32846172692734,269.58434940136203 "/><polyline class="polyline" opacity="0.5" stroke="blue" points="198.4293073462329,266.355334527084 130.175565676149,269.798703913782 "/><polyline class="polyline" opacity="0.5" stroke="blue" points="198.10197700533794,265.8603432772161 130.02800000000002,269.972 "/><polyline class="polyline" opacity="0.5" stroke="blue" points="197.77720060634138,265.34009820480645 129.8857955273988,270.10383532517176 "/><polyline class="polyline" opacity="0.5" stroke="blue" points="197.455085654093,264.7950055677777 129.74898282410186,270.19385006635844 "/><polyline class="polyline" opacity="0.5" stroke="blue" points="197.13573684320855,264.2254747077268 129.61759220973727,270.24172662272815 "/><polyline class="polyline" opacity="0.5" stroke="blue" points="196.81925609186533,263.6319177027211 129.4916537778903,270.24718923669764 "/><polyline class="polyline" opacity="0.5" stroke="blue" points="196.50574257765416,263.01474903464776 129.37119741914108,270.21000353031127 "/><polyline class="polyline" opacity="0.5" stroke="blue" points="196.1952927753163,262.37438527102387 129.25625284695036,270.12997596136756 "/><polyline class="polyline" opacity="0.5" stroke="blue" points="195.88800049619954,261.7112447611496 129.14684962627814,270.00695320398523 "/><polyline class="polyline" opacity="0.5" stroke="blue" points="195.58395692927314,261.02574734646265 129.04301720481712,269.8408214584488 "/><polyline class="polyline" opacity="0.5" stroke="blue" points="195.2832506835454,260.31831408492945 128.9447849467152,269.6315056952892 "/><polyline class="polyline" opacity="0.5" stroke="blue" points="194.9859678317337,259.5893669892911 128.85218216865823,269.3789688386395 "/><polyline class="polyline" opacity="0.5" stroke="blue" points="194.6921919550429,258.8393287789618 128.76523817818122,269.083210893956 "/><polyline class="polyline" opacity="0.5" stroke="blue" points="194.40200418891146,258.06862264536267 128.68398231407167,268.7442680252235 "/><polyline class="polyline" opacity="0.5" stroke="blue" points="194.11548326959212,257.2776720304573 128.6084439887298,268.3622115867528 "/><polyline class="polyline" opacity="0.5" stroke="blue" points="193.8327055814375,256.4669004182446 128.5386527323467,267.9371471146537 "/><polyline class="polyline" opacity="0.5" stroke="blue" points="193.55374520476823,255.63673113895098 128.47463823876504,267.46921328300635 "/><polyline class="polyline" opacity="0.5" stroke="blue" points="193.27867396420444,254.78758718565453 128.41643041288268,266.95858082967766 "/><polyline class="polyline" opacity="0.5" stroke="blue" points="193.00756147734845,253.9198910430646 128.3640594194656,266.40545145662895 "/><polyline class="polyline" opacity="0.5" stroke="blue" points="192.74047520371036,253.0340645281724 128.31755573323625,265.8100567094406 "/><polyline class="polyline" opacity="0.5" stroke="blue" points="192.47748049377427,252.13052864248328 128.27695019010469,265.17265684064597 "/><polyline class="polyline" opacity="0.5" stroke="blue" points="192.21864063810708,251.20970343553392 128.24227403941666,264.4935396613113 "/><polyline class="polyline" opacity="0.5" stroke="blue" points="191.96401691641685,250.27200787939458 128.2135589970917,263.77301938513494 "/><polyline class="polyline" opacity="0.5" stroke="blue" points="191.71366864647274,249.31785975385364 128.1908372995318,263.0114354691634 "/><polyline class="polyline" opacity="0.5" stroke="blue" points="191.4676532328029,248.3476755419794 128.1741417581832,262.20915145503136 "/><polyline class="polyline" opacity="0.5" stroke="blue" points="191.2260262150909,247.36187033575098 128.16350581463934,261.36655381444257 "/><polyline class="polyline" opacity="0.5" stroke="blue" points="190.9888413161962,246.36085775145185 128.1589635961772,260.48405080240366 "/><polyline class="polyline" opacity="0.5" stroke="blue" points="190.75615048972747,245.3450498545186 128.16054997162445,259.56207132152116 "/><polyline class="polyline" opacity="0.5" stroke="blue" points="190.52800396710313,244.31485709353765 128.16830060745949,258.6010638004611 "/><polyline class="polyline" opacity="0.5" stroke="blue" points="190.30445030403513,243.27068824308475 128.18225202405176,257.60149508946085 "/><polyline class="polyline" opacity="0.5" stroke="blue" points="190.085536426378,242.21295035510423 128.20244165195442,256.5638493755752 "/><polyline class="polyline" opacity="0.5" stroke="blue" points="189.87130767528726,241.14204871852718 128.22890788816676,255.4886271201273 "/><polyline class="polyline" opacity="0.5" stroke="blue" points="189.66180785163527,240.05838682682966 128.26169015228922,254.3763440206289 "/><polyline class="polyline" opacity="0.5" stroke="blue" points="189.4570792596362,238.96236635323675 128.30082894249767,253.22752999923262 "/><polyline class="polyline" opacity="0.5" stroke="blue" points="189.25716274963392,237.85438713328065 128.3463658912692,252.04272821957812 "/><polyline class="polyline" opacity="0.5" stroke="blue" points="189.0620977600111,236.734847154427 128.39834382079573,250.82249413370224 "/><polyline class="polyline" opacity="0.5" stroke="blue" points="188.87192235817903,235.60414255248395 128.45680679802737,249.56739456049263 "/><polyline class="polyline" opacity="0.5" stroke="blue" points="188.68667328061161,234.46266761451696 128.52180018928962,248.27800679698527 "/><polyline class="polyline" opacity="0.5" stroke="blue" points="188.50638597188896,233.31081478799504 128.59337071442394,246.95491776363224 "/><polyline class="polyline" opacity="0.5" stroke="blue" points="188.33109462271852,232.14897469589835 128.67156650040494,245.59872318449587 "/><polyline class="polyline" opacity="0.5" stroke="blue" points="188.16083220690405,230.97753615752256 128.75643713438967,244.21002680317036 "/><polyline class="polyline" opacity="0.5" stroke="blue" points="187.99563051723428,229.79688621472093 128.84803371615897,242.78943963507854 "/><polyline class="polyline" opacity="0.5" stroke="blue" points="187.8355202002669,228.60741016332918 128.946408909912,241.33757925665086 "/><polyline class="polyline" opacity="0.5" stroke="blue" points="187.6805307899824,227.40949158952264 129.05161699537916,239.85506913175723 "/><polyline class="polyline" opacity="0.5" stroke="blue" points="187.53069074028747,226.20351241086183 129.1637139182199,238.3425379756386 "/><polyline class="polyline" opacity="0.5" stroke="blue" points="187.38602745634603,224.98985292178543 129.28275733967274,236.80061915646715 "/><polyline class="polyline" opacity="0.5" stroke="blue" points="187.2465673247208,223.76889184331756 129.4088066854282,235.22995013455724 "/><polyline class="polyline" opacity="0.5" stroke="blue" points="187.1123357423062,222.54100637675643 129.54192319369466,233.631171939145 "/><polyline class="polyline" opacity="0.5" stroke="blue" points="186.98335714403817,221.3065722611213 129.68216996242808,232.0049286825662 "/><polyline class="polyline" opacity="0.5" stroke="blue" points="186.8596550293645,220.06596383413432 129.82961199569763,230.35186711157573 "/><polyline class="polyline" opacity="0.5" stroke="blue" points="186.74125198746327,218.81955409652366 129.9843162491578,228.6726361954772 "/><polyline class="polyline" opacity="0.5" stroke="blue" points="186.6281697211957,217.56771477943215 130.14635167459832,226.96788675065915 "/><polyline class="polyline" opacity="0.5" stroke="blue" points="186.52042906978187,216.31081641472548 130.31578926354115,225.23827110107553 "/><polyline class="polyline" opacity="0.5" stroke="blue" points="186.41805003018877,215.0492284079952 130.49270208985314,223.48444277415294 "/><polyline class="polyline" opacity="0.5" stroke="blue" points="186.32105177721965,213.7833191140551 130.6771653513415,221.7070562315558 "/><polyline class="polyline" opacity="0.5" stroke="blue" points="186.2294526822959,212.51345591473455 130.86925641029592,219.90676663420209 "/><polyline class="polyline" opacity="0.5" stroke="blue" points="186.14327033092226,211.24000529877404 131.0690548329399,218.08422964088183 "/><polyline class="polyline" opacity="0.5" stroke="blue" points="186.06252153882713,209.96333294363373 131.276642427751,216.2401012398058 "/><polyline class="polyline" opacity="0.5" stroke="blue" points="185.98722236677003,208.68380379902476 131.49210328260432,214.37503761237687 "/><polyline class="polyline" opacity="0.5" stroke="blue" points="185.91738813400914,207.40178217197962 131.71552380069335,212.48969502846472 "/><polyline class="polyline" opacity="0.5" stroke="blue" points="185.85303343042173,206.11763181327674 131.94699273517466,210.58472977244048 "/><polyline class="polyline" opacity="0.5" stroke="blue" points="185.7941721272708,204.8317160050408 132.18660122248082,208.66079809922127 "/><polyline class="polyline" opacity="0.5" stroke="blue" points="185.74081738661204,203.54439764933562 132.43444281423984,206.71855621955865 "/><polyline class="polyline" opacity="0.5" stroke="blue" points="185.69298166933456,202.2560393575756 132.6906135077347,204.7586603138061 "/><polyline class="polyline" opacity="0.5" stroke="blue" points="185.6506767418301,200.96700354057558 132.9552117748298,202.78176657339114 "/><polyline class="polyline" opacity="0.5" stroke="blue" points="185.61391368128466,199.67765249906716 133.2283385892864,200.78853126922417 "/><polyline class="polyline" opacity="0.5" stroke="blue" points="185.58270287958788,198.38834851450284 133.5100974523817,198.77961084627032 "/><polyline class="polyline" opacity="0.5" stroke="blue" points="185.55705404585422,197.09945393997546 133.800594416739,196.75566204351952 "/><polyline class="polyline" opacity="0.5" stroke="blue" points="185.5369762075513,195.81133129107886 134.09993810826893,194.7173420385957 "/><polyline class="polyline" opacity="0.5" stroke="blue" points="185.5224777102309,194.5243433365333 134.4082397461156,192.66530861624665 "/><polyline class="polyline" opacity="0.5" stroke="blue" points="185.51356621585697,193.23885318840212 134.72561316048996,190.6002203599712 "/><polyline class="polyline" opacity="0.5" stroke="blue" points="185.5102486997272,191.95522439172274 135.05217480826718,188.52273686604084 "/><polyline class="polyline" opacity="0.5" stroke="blue" points="185.51253144598297,190.67382101337677 135.38804378621305,186.43351897918996 "/><polyline class="polyline" opacity="0.5" stroke="blue" points="185.52042004170366,189.3950077300188 135.73334184169727,184.33322904924682 "/><polyline class="polyline" opacity="0.5" stroke="blue" points="185.5339193695816,188.1191499148863 136.0881933807386,182.22253120799593 "/><polyline class="polyline" opacity="0.5" stroke="blue" points="185.55303359917363,186.84661372330748 136.45272547321875,180.10209166556197 "/><polyline class="polyline" opacity="0.5" stroke="blue" points="185.57776617672545,185.57776617672545 136.82706785508935,177.97257902562038 "/><polyline class="polyline" opacity="0.5" stroke="blue" points="185.608119813566,184.3129752450504 137.21135292738558,175.83466461873695 "/><polyline class="polyline" opacity="0.5" stroke="blue" points="185.6440964730685,183.0526099271529 137.60571575184719,173.68902285315144 "/><polyline class="polyline" opacity="0.5" stroke="blue" points="185.68569735617558,181.7970403293061 138.0102940429373,171.53633158231884 "/><polyline class="polyline" opacity="0.5" stroke="blue" points="185.7329228854864,180.54663774138322 138.4252281560328,169.37727248852735 "/><polyline class="polyline" opacity="0.5" stroke="blue" points="185.7857726879036,179.30177471061083 138.85066107155103,167.21253148190675 "/><polyline class="polyline" opacity="0.5" stroke="blue" points="185.84424557583935,178.06282511267753 139.28673837476086,165.0427991141434 "/><polyline class="polyline" opacity="0.5" stroke="blue" points="185.90833952697906,176.83016421999366 139.73360823101183,162.8687710062125 "/><polyline class="polyline" opacity="0.5" stroke="blue" points="185.9780516626033,175.60416876689067 140.19142135610295,160.69114828942736 "/><polyline class="polyline" opacity="0.5" stroke="blue" points="186.05337822446808,174.3852170115487 140.660330981494,158.51063805910007 "/><polyline class="polyline" opacity="0.5" stroke="blue" points="186.1343145502452,173.1736887944334 141.1404928140498,156.3279538400905 "/><polyline class="polyline" opacity="0.5" stroke="blue" points="186.22085504752457,171.96996559302156 141.63206498998932,154.1438160635101 "/><polyline class="polyline" opacity="0.5" stroke="blue" points="186.31299316638203,170.77443057258623 142.13520802269736,151.95895255381845 "/><polyline class="polyline" opacity="0.5" stroke="blue" points="186.41072137051674,169.58746863281226 142.65008474403783,149.7740990255361 "/><polyline class="polyline" opacity="0.5" stroke="blue" points="186.5140311069638,168.4094664500035 143.17686023879216,147.58999958876305 "/><polyline class="polyline" opacity="0.5" stroke="blue" points="186.62291277438834,167.240812514643 143.71570177182753,145.40740726266722 "/><polyline class="polyline" opacity="0.5" stroke="blue" points="186.7373556899695,166.08189716405698 144.26677870758382,143.2270844960643 "/><polyline class="polyline" opacity="0.5" stroke="blue" points="186.85734805488391,164.93311260993298 144.83026242144848,141.04980369417783 "/><polyline class="polyline" opacity="0.5" stroke="blue" points="186.98287691839943,163.79485296043475 145.40632620257202,138.8763477506178 "/><polyline class="polyline" opacity="0.5" stroke="blue" points="187.11392814059218,162.66751423665346 145.99514514765733,136.7075105835728 "/><polyline class="polyline" opacity="0.5" stroke="blue" points="187.25048635370206,161.55149438312682 146.5968960452405,134.54409767514912 "/><polyline class="polyline" opacity="0.5" stroke="blue" points="187.3925349221427,160.44719327215589 147.21175724995942,132.38692661273683 "/><polyline class="polyline" opacity="0.5" stroke="blue" points="187.54005590118555,159.35501270164355 147.8399085462916,130.236827631217 "/><polyline class="polyline" opacity="0.5" stroke="blue" points="187.69302999433899,158.27535638617184 148.48153100122408,128.09464415474986 "/><polyline class="polyline" opacity="0.5" stroke="blue" points="187.85143650944605,157.20862994103467 149.13680680530007,125.96123333681413 "/><polyline class="polyline" opacity="0.5" stroke="blue" points="188.0152533135274,156.155240858934 149.80591910147314,123.83746659708004 "/><polyline class="polyline" opacity="0.5" stroke="blue" points="188.18445678639827,155.11559847904772 150.48905180118015,121.72423015361844 "/><polyline class="polyline" opacity="0.5" stroke="blue" points="188.3590217730919,154.09011394816957 151.18638938703265,119.62242554884605 "/><polyline class="polyline" opacity="0.5" stroke="blue" points="188.53892153512396,153.07920017362113 151.89811670150957,117.53297016751605 "/><polyline class="polyline" opacity="0.5" stroke="blue" points="188.72412770063718,152.08327176763163 152.62441872102298,115.45679774495214 "/><polyline class="polyline" opacity="0.5" stroke="blue" points="188.91461021346737,151.10274498287922 153.36548031471514,113.39485886361757 "/><polyline class="polyline" opacity="0.5" stroke="blue" points="189.1103372811771,150.13803763888438 154.1214859873375,111.34812143598782 "/><polyline class="polyline" opacity="0.5" stroke="blue" points="189.3112753221057,149.1895690389453 154.89261960555248,109.3175711715762 "/><polyline class="polyline" opacity="0.5" stroke="blue" points="189.51738891148975,148.25775987730572 155.67906410699243,107.30421202583355 "/><polyline class="polyline" opacity="0.5" stroke="blue" points="189.72864072671106,147.34303213624153 156.48100119140892,105.30906662850244 "/><polyline class="polyline" opacity="0.5" stroke="blue" points="189.94499149173447,146.44580897275713 157.29861099324154,103.33317668887213 "/><polyline class="polyline" opacity="0.5" stroke="blue" points="190.16639992080192,145.56651459458107 158.1320717349406,101.37760337523144 "/><polyline class="polyline" opacity="0.5" stroke="blue" points="190.3928226614541,144.70557412515439 158.9815593603796,99.4434276656679 "/><polyline class="polyline" opacity="0.5" stroke="blue" points="190.6242142369557,143.86341345730668 159.8472471477072,97.53175066720333 "/><polyline class="polyline" opacity="0.5" stroke="blue" points="190.86052698820623,143.04045909532005 160.72930530099796,95.64369390010287 "/><polyline class="polyline" opacity="0.5" stroke="blue" points="191.101711015222,142.23713798508544 161.62790052008057,93.7803995440236 "/><polyline class="polyline" opacity="0.5" stroke="blue" points="191.3477141182821,141.4538773320635 162.5431955479445,91.94303064251407 "/><polyline class="polyline" opacity="0.5" stroke="blue" points="191.5984817388358,140.6911044067672 163.4753486951549,90.13277126219783 "/><polyline class="polyline" opacity="0.5" stroke="blue" points="191.85395690027423,139.949246337495 164.42451334073886,88.35082660281448 "/><polyline class="polyline" opacity="0.5" stroke="blue" points="192.11408014867666,139.22872989005094 165.39083740904732,86.59842305411883 "/><polyline class="polyline" opacity="0.5" stroke="blue" points="192.3787894936453,138.5299812342016 166.37446282214256,84.87680819547403 "/><polyline class="polyline" opacity="0.5" stroke="blue" points="192.64802034935087,137.8534256966319 167.37552492731882,83.18725073380597 "/><polyline class="polyline" opacity="0.5" stroke="blue" points="192.92170547591698,137.19948750017517 168.39415189942403,81.53104037543022 "/><polyline class="polyline" opacity="0.5" stroke="blue" points="193.19977492127558,136.56858948911275 169.43046411772102,79.90948762710275 "/><polyline class="polyline" opacity="0.5" stroke="blue" points="193.48215596363585,135.96115284035236 170.48457351711033,78.32392352150053 "/><polyline class="polyline" opacity="0.5" stroke="blue" points="193.768773054712,135.3775967603163 171.55658291362204,76.77569926219441 "/><polyline class="polyline" opacity="0.5" stroke="blue" points="194.0595477638638,134.81833816739223 172.6465853041874,75.2661857830529 "/><polyline class="polyline" opacity="0.5" stroke="blue" points="194.35439872330923,134.28379135982263 173.75466314080808,73.79677321689904 "/><polyline class="polyline" opacity="0.5" stroke="blue" points="194.65324157457593,133.77436766893385 174.88088757936583,72.3688702681401 "/><polyline class="polyline" opacity="0.5" stroke="blue" points="194.9559889163639,133.29047509763373 176.0253177034452,70.98390348401486 "/><polyline class="polyline" opacity="0.5" stroke="blue" points="195.26255025399843,132.8325179441374 177.18799972368902,69.64331641903874 "/><polyline class="polyline" opacity="0.5" stroke="blue" points="195.57283195065838,132.40089641091078 178.36896615336124,68.3485686871974 "/><polyline class="polyline" opacity="0.5" stroke="blue" points="195.8867371805717,131.99600619885666 179.56823496096587,67.10113489642598 "/><polyline class="polyline" opacity="0.5" stroke="blue" points="196.20416588437487,131.6182380868037 180.7858087009478,65.90250345993798 "/><polyline class="polyline" opacity="0.5" stroke="blue" points="196.52501472684006,131.26797749639732 182.02167362370344,64.75417527902582 "/><polyline class="polyline" opacity="0.5" stroke="blue" points="196.84917705717757,130.94560404253232 183.27579876633197,63.657662292048855 "/><polyline class="polyline" opacity="0.5" stroke="blue" points="197.17654287212852,130.65149106950912 184.54813502578594,62.614485884460066 "/><polyline class="polyline" opacity="0.5" stroke="blue" points="197.5069987820654,130.38600517314097 185.83861421631087,61.62617515490919 "/><polyline class="polyline" opacity="0.5" stroke="blue" points="197.84042798032405,130.14950570908735 187.147148113312,60.69426503268923 "/><polyline class="polyline" opacity="0.5" stroke="blue" points="198.17671021599426,129.9423442877369 188.4736274860481,59.82029424207556 "/><polyline class="polyline" opacity="0.5" stroke="blue" points="198.5157217703999,129.76486425601587 189.81792112181992,59.00580310945463 "/><polyline class="polyline" opacity="0.5" stroke="blue" points="198.85733543750192,129.61740016655156 191.1798748446066,58.25233120953669 "/><polyline class="polyline" opacity="0.5" stroke="blue" points="199.20142050846147,129.5002772346749 192.55931053138855,57.56141484741585 "/><polyline class="polyline" opacity="0.5" stroke="blue" points="199.5478427606006,129.41381078380522 193.95602512970297,56.934584373776886 "/><polyline class="polyline" opacity="0.5" stroke="blue" points="199.89646445100058,129.35830567981822 195.3697896802754,56.37336133115275 "/><polyline class="polyline" opacity="0.5" stroke="blue" points="200.2471443149781,129.33405575505998 196.800348348889,55.8792554298181 "/><polyline class="polyline" opacity="0.5" stroke="blue" points="200.5997375696779,129.3413432227325 198.24741747196,55.453761352662724 "/><polyline class="polyline" opacity="0.5" stroke="blue" points="200.95409592302204,129.380438082438 199.71068462060902,55.098355389219904 "/><polyline class="polyline" opacity="0.5" stroke="blue" points="201.3100675882513,129.45159751773775 201.1898076883234,54.81449189994851 "/><polyline class="polyline" opacity="0.5" stroke="blue" points="201.667497304293,129.5550652866434 202.68441400761694,54.60359961285371 "/><polyline class="polyline" opacity="0.5" stroke="blue" points="202.02622636218453,129.69107110602818 204.1940995013877,54.4670777556224 "/></svg>
