<?xml version="1.0" encoding="UTF-8"?>
<!DOCTYPE svg PUBLIC "-//W3C//DTD SVG 1.1//EN"
    "http://www.w3.org/Graphics/SVG/1.1/DTD/svg11.dtd"><svg width="400" height="400" stroke="black" fill="none" fill-opacity="0.75" font-size="14" font-style="italic" font-family="sans-serif" xmlns="http://www.w3.org/2000/svg" xmlns:xlink="http://www.w3.org/1999/xlink" version="1.1"><filter id="blur1"><feGaussianBlur stdDeviation="0.5"/></filter><rect width="100%" height="100%" fill="white" stroke="none" fill-opacity="1"/><rect class="bg" fill="black" width="100%" height="100%" stroke="none" fill-opacity="1"/><polyline class="polyline" opacity="0.5" stroke="blue" points="206.44632498627888,132.35028628365146 214.45369324582046,56.221102196820965 "/><polyline class="polyline" opacity="0.5" stroke="blue" points="207.05248555916666,132.81393718110763 216.54068519993604,56.82839808730756 "/><polyline class="polyline" opacity="0.5" stroke="blue" points="207.65847571311193,133.31135142574658 218.63892056362573,57.52172031522608 "/><polyline class="polyline" opacity="0.5" stroke="blue" points="208.26397666879797,133.8425285993657 220.7472342175802,58.30174754413173 "/><polyline class="polyline" opacity="0.5" stroke="blue" points="208.86866532017618,134.40744646835134 222.8644144004161,59.16906976656588 "/><polyline class="polyline" opacity="0.5" stroke="blue" points="209.47221443652143,135.0060604705938 224.98920333716734,60.12418355063923 "/><polyline class="polyline" opacity="0.5" stroke="blue" points="210.07429287753638,135.63830321949908 227.12029804745742,61.16748734632381 "/><polyline class="polyline" opacity="0.5" stroke="blue" points="210.67456582151746,136.30408402684841 229.2563513399569,62.29927687638289 "/><polyline class="polyline" opacity="0.5" stroke="blue" points="211.27269500655552,137.0032884462741 231.395972999023,63.519740637968226 "/><polyline class="polyline" opacity="0.5" stroke="blue" points="211.86833898470573,137.7357778391305 233.53773116861635,64.82895554187925 "/><polyline class="polyline" opacity="0.5" stroke="blue" points="212.46115338901967,138.50138896454422 235.680153937689,66.22688271730769 "/><polyline class="polyline" opacity="0.5" stroke="blue" points="213.05079121328922,139.29993359542505 237.82173113024126,67.7133635105458 "/><polyline class="polyline" opacity="0.5" stroke="blue" points="213.6369031043094,140.13119816221004 239.96091630215398,69.2881157066187 "/><polyline class="polyline" opacity="0.5" stroke="blue" points="214.21913766642075,140.99494342609785 242.0961289457255,70.95073000307048 "/><polyline class="polyline" opacity="0.5" stroke="blue" points="214.79714177804618,141.89090418350636 244.22575690157774,72.70066676518965 "/><polyline class="polyline" opacity="0.5" stroke="blue" points="215.3705609198913,142.81878900345492 246.3481589762563,74.53725309177696 "/><polyline class="polyline" opacity="0.5" stroke="blue" points="215.9390395144276,143.77827999953436 248.4616677624407,76.45968022012437 "/><polyline class="polyline" opacity="0.5" stroke="blue" points="216.5022212762322,144.76903263807958 250.56459265721503,78.46700129817852 "/><polyline class="polyline" opacity="0.5" stroke="blue" points="217.05974957270806,145.79067558410577 252.6552230723326,80.55812955089301 "/><polyline class="polyline" opacity="0.5" stroke="blue" points="217.61126779466093,146.84281058650234 254.73183182886322,82.73183686652104 "/><polyline class="polyline" opacity="0.5" stroke="blue" points="218.1564197361619,147.9250124039114 256.79267872704054,84.986752827071 "/><polyline class="polyline" opacity="0.5" stroke="blue" points="218.6948499830761,149.0368287726323 258.83601428055584,87.3213642053202 "/><polyline class="polyline" opacity="0.5" stroke="blue" points="219.22620430959242,150.17778041780886 260.8600836029825,89.73401494868907 "/><polyline class="polyline" opacity="0.5" stroke="blue" points="219.75013008204292,151.34736110905706 262.8631304324844,92.22290666789328 "/><polyline class="polyline" opacity="0.5" stroke="blue" points="220.26627666925643,152.5450377615876 264.84340127947587,94.78609964565392 "/><polyline class="polyline" opacity="0.5" stroke="blue" points="220.77429585864863,153.7702505837641 266.799149680481,97.4215143778537 "/><polyline class="polyline" opacity="0.5" stroke="blue" points="221.27384227720924,155.02241327191928 268.7286405401067,100.12693365640368 "/><polyline class="polyline" opacity="0.5" stroke="blue" points="221.76457381650894,156.3009132531232 270.6301545418086,102.90000519975756 "/><polyline class="polyline" opacity="0.5" stroke="blue" points="222.24615206081188,157.60511197646466 272.5019926070172,105.73824483350036 "/><polyline class="polyline" opacity="0.5" stroke="blue" points="222.71824271734602,158.93434525326708 274.34248038121586,108.63904021977679 "/><polyline class="polyline" opacity="0.5" stroke="blue" points="223.1805160477529,160.28792364651414 276.14997272474204,111.59965513055278 "/><polyline class="polyline" opacity="0.5" stroke="blue" points="223.63264729971058,161.6651329096101 277.92285818542763,114.6172342558477 "/><polyline class="polyline" opacity="0.5" stroke="blue" points="224.07431713769964,163.06523447444337 279.6595634297229,117.68880853418216 "/><polyline class="polyline" opacity="0.5" stroke="blue" points="224.50521207186105,164.48746598856457 281.3585576086717,120.81130098859619 "/><polyline class="polyline" opacity="0.5" stroke="blue" points="224.92502488387822,165.93104190112555 283.0183566350224,123.9815330477511 "/><polyline class="polyline" opacity="0.5" stroke="blue" points="225.3334550488033,167.39515409706283 284.6375273478951,127.19623132786933 "/><polyline class="polyline" opacity="0.5" stroke="blue" points="225.73020915173782,168.87897257884188 286.2146915417601,130.45203484764744 "/><polyline class="polyline" opacity="0.5" stroke="blue" points="226.11500129827562,170.38164619491056 287.74852983704534,133.74550264483327 "/><polyline class="polyline" opacity="0.5" stroke="blue" points="226.487553517614,171.9023034138446 289.23778537044734,137.0731217599294 "/><polyline class="polyline" opacity="0.5" stroke="blue" points="226.84759615724633,173.44005314299963 290.68126728399784,140.43131554951887 "/><polyline class="polyline" opacity="0.5" stroke="blue" points="227.1948682681563,174.9939855903217 292.0778539931058,143.81645228903386 "/><polyline class="polyline" opacity="0.5" stroke="blue" points="227.5291179794505,176.56317316780456 293.4264962151545,147.2248540224456 "/><polyline class="polyline" opacity="0.5" stroke="blue" points="227.85010286138282,178.1466714349261 294.72621974176514,150.6528056143659 "/><polyline class="polyline" opacity="0.5" stroke="blue" points="228.15759027575018,179.74352008023965 295.976127939535,154.09656395844718 "/><polyline class="polyline" opacity="0.5" stroke="blue" points="228.45135771266413,181.3527439391508 297.1754039658899,157.55236729477122 "/><polyline class="polyline" opacity="0.5" stroke="blue" points="228.7311931127392,182.97335404576614 298.32331268865113,161.0164445881306 "/><polyline class="polyline" opacity="0.5" stroke="blue" points="228.99689517377303,184.60434871656554 299.4192022999704,164.4850249187548 "/><polyline class="polyline" opacity="0.5" stroke="blue" points="229.2482736410374,186.24471466352426 300.46250561742477,167.9543468371068 "/><polyline class="polyline" opacity="0.5" stroke="blue" points="229.48514958034323,187.8934281341905 301.4527410672495,171.42066763487855 "/><polyline class="polyline" opacity="0.5" stroke="blue" points="229.70735563309353,189.54945607611694 302.3895133469015,174.88027248523386 "/><polyline class="polyline" opacity="0.5" stroke="blue" points="229.91473625259107,191.21175732294464 303.2725137663711,178.32948340667724 "/><polyline class="polyline" opacity="0.5" stroke="blue" points="230.10714792092557,192.8792837993499 304.10152026985816,181.76466800663442 "/><polyline class="polyline" opacity="0.5" stroke="blue" points="230.28445934582393,194.55098174198847 304.876397141585,185.18224796291045 "/><polyline class="polyline" opacity="0.5" stroke="blue" points="230.44655163691152,196.22579293350435 305.59709440160884,188.57870720359386 "/><polyline class="polyline" opacity="0.5" stroke="blue" points="230.59331846089805,197.902655946619 306.2636468994983,191.9505997486869 "/><polyline class="polyline" opacity="0.5" stroke="blue" points="230.72466617526905,199.5805073952757 306.87617311563145,195.29455717971422 "/><polyline class="polyline" opacity="0.5" stroke="blue" points="230.84051394013466,201.25828318978446 307.43487368163653,198.6072957067627 "/><polyline class="polyline" opacity="0.5" stroke="blue" points="230.94079380795887,202.93491979289993 307.940029633127,201.88562280579174 "/><polyline class="polyline" opacity="0.5" stroke="blue" points="231.0254507909647,204.60935547376087 308.3920004093448,205.12644340258583 "/><polyline class="polyline" opacity="0.5" stroke="blue" points="231.09444290608477,206.28053155663096 308.79122161563305,208.32676558335302 "/><polyline class="polyline" opacity="0.5" stroke="blue" points="231.14774119740082,207.94739366140539 309.1382025657835,211.48370581567093 "/><polyline class="polyline" opacity="0.5" stroke="blue" points="231.18532973608916,209.60889293288233 309.43352362225164,214.59449366719326 "/><polyline class="polyline" opacity="0.5" stroke="blue" points="231.20720559796308,211.2639872558494 309.6778333529942,217.65647601322564 "/><polyline class="polyline" opacity="0.5" stroke="blue" points="231.2133788187761,212.91164245309457 309.8718455242588,220.66712072791168 "/><polyline class="polyline" opacity="0.5" stroke="blue" points="231.20387232752142,214.5508334635249 310.0163359490513,223.62401985731543 "/><polyline class="polyline" opacity="0.5" stroke="blue" points="231.17872185803353,216.18054549766072 310.11213921121686,226.52489227609541 "/><polyline class="polyline" opacity="0.5" stroke="blue" points="231.137975839266,217.79977516786724 310.16014528511164,229.36758583272686 "/><polyline class="polyline" opacity="0.5" stroke="blue" points="231.08169526468586,219.40753159079114 310.1612960707161,232.15007899130143 "/><polyline class="polyline" opacity="0.5" stroke="blue" points="231.00995354128838,221.0028374595848 310.11658186375587,234.87048198080498 "/><polyline class="polyline" opacity="0.5" stroke="blue" points="230.92283631879735,222.58473008362344 310.0270377799688,237.5270374654193 "/><polyline class="polyline" opacity="0.5" stroke="blue" points="230.82044129967343,224.15226239355252 309.8937401520935,240.11812075180342 "/><polyline class="polyline" opacity="0.5" stroke="blue" points="230.70287803060737,225.70450390964183 309.71780291747217,242.6422395514656 "/><polyline class="polyline" opacity="0.5" stroke="blue" points="230.57026767622617,227.24054167156717 309.5003740133704,245.0980333182429 "/><polyline class="polyline" opacity="0.5" stroke="blue" points="230.4227427757868,228.7594811278918 309.2426317962321,247.48427218254167 "/><polyline class="polyline" opacity="0.5" stroke="blue" points="230.26044698367562,230.26044698367562 308.9457815001291,249.79985550537694 "/><polyline class="polyline" opacity="0.5" stroke="blue" points="230.08353479457028,231.7425840047981 308.61105174863474,252.043810076367 "/><polyline class="polyline" opacity="0.5" stroke="blue" points="229.89217125415536,233.20505777774497 308.23969113327837,254.2152879807117 "/><polyline class="polyline" opacity="0.5" stroke="blue" points="229.68653165631423,234.64705542377095 307.83296487062256,256.31356416080513 "/><polyline class="polyline" opacity="0.5" stroke="blue" points="229.46680122774484,236.06778626651794 307.39215154886733,258.33803369852836 "/><polyline class="polyline" opacity="0.5" stroke="blue" points="229.23317480096892,237.46648245233195 306.9185399737394,260.28820884443195 "/><polyline class="polyline" opacity="0.5" stroke="blue" points="228.98585647672144,238.8423995226891 306.41342612227606,262.1637158199852 "/><polyline class="polyline" opacity="0.5" stroke="blue" points="228.72505927672015,240.1948169383025 305.8781102119749,263.96429141883425 "/><polyline class="polyline" opacity="0.5" stroke="blue" points="228.45100478782257,241.52303855464456 305.31389389166753,265.68977943260643 "/><polyline class="polyline" opacity="0.5" stroke="blue" points="228.16392279858343,242.82639304877813 304.7220775593846,267.34012692623116 "/><polyline class="polyline" opacity="0.5" stroke="blue" points="227.86405092922365,244.1042342975433 304.1039578114336,268.9153803870396 "/><polyline class="polyline" opacity="0.5" stroke="blue" points="227.5516342560203,245.35594170729843 303.46082502589957,270.4156817710704 "/><polyline class="polyline" opacity="0.5" stroke="blue" points="227.2269249311166,246.58092049555933 302.7939610828269,271.841264469072 "/><polyline class="polyline" opacity="0.5" stroke="blue" points="226.89018179874083,247.77860192502 302.10463722243094,273.19244921365424 "/><polyline class="polyline" opacity="0.5" stroke="blue" points="226.54167000880793,248.94844349057337 301.39411204184603,274.46963994794237 "/><polyline class="polyline" opacity="0.5" stroke="blue" points="226.1816606288574,250.0899290600773 300.66362963012716,275.6733196749169 "/><polyline class="polyline" opacity="0.5" stroke="blue" points="225.8104302552611,251.20256896973203 299.91441784049726,276.80404630541864 "/><polyline class="polyline" opacity="0.5" stroke="blue" points="225.4282606246088,252.28590007504917 299.14768669817107,277.8624485215555 "/><polyline class="polyline" opacity="0.5" stroke="blue" points="225.0354382261518,253.33948575849746 298.36462694148383,278.84922167099785 "/><polyline class="polyline" opacity="0.5" stroke="blue" points="224.63225391615563,254.3629158950096 297.5664086935189,279.7651237063846 "/><polyline class="polyline" opacity="0.5" stroke="blue" points="224.21900253498018,255.3558067766239 296.7541802609478,280.61097118281197 "/><polyline class="polyline" opacity="0.5" stroke="blue" points="223.79598252767113,256.3178009976175 295.9290670563847,281.38763532513553 "/><polyline class="polyline" opacity="0.5" stroke="blue" points="223.36349556881146,257.24856730156137 295.092170640194,282.0960381756051 "/><polyline class="polyline" opacity="0.5" stroke="blue" points="222.92184619234308,258.1478003917931 294.24456787738984,282.7371488311669 "/><polyline class="polyline" opacity="0.5" stroke="blue" points="222.4713414270312,259.0152207068622 293.38731020501416,283.311979778626 "/><polyline class="polyline" opacity="0.5" stroke="blue" points="222.01229043820288,259.85057416255114 292.5214230051812,283.8215833347607 "/><polyline class="polyline" opacity="0.5" stroke="blue" points="221.54500417635137,260.6536318621179 291.6479050788204,284.2670481974278 "/><polyline class="polyline" opacity="0.5" stroke="blue" points="221.06979503315662,261.4241897764394 290.7677282150419,284.64949611269935 "/><polyline class="polyline" opacity="0.5" stroke="blue" points="220.58697650543027,262.16206839576205 289.88183685097954,284.9700786621239 "/><polyline class="polyline" opacity="0.5" stroke="blue" points="220.09686286745162,262.8671123547836 288.99114781693015,285.2299741733173 "/><polyline class="polyline" opacity="0.5" stroke="blue" points="219.59976885212023,263.5391900328036 288.0965501616153,285.430384756256 "/><polyline class="polyline" opacity="0.5" stroke="blue" points="219.09600934130788,264.1781931306838 287.1989050524173,285.57253346687116 "/><polyline class="polyline" opacity="0.5" stroke="blue" points="218.58589906575278,264.7840362263591 286.2990457455047,285.6576615988291 "/><polyline class="polyline" opacity="0.5" stroke="blue" points="218.0697523147976,265.35665631063114 285.3977776208439,285.68702610372367 "/><polyline class="polyline" opacity="0.5" stroke="blue" points="217.547882656233,265.8960123049634 284.495878277198,285.66189713930527 "/><polyline class="polyline" opacity="0.5" stroke="blue" points="217.02060266647058,266.40208456297785 283.5940976823383,285.58355574482727 "/><polyline class="polyline" opacity="0.5" stroke="blue" points="216.48822367122895,266.8748743573286 282.69315837383124,285.45329164209636 "/><polyline class="polyline" opacity="0.5" stroke="blue" points="215.95105549688216,267.3144033535986 281.7937557059162,285.27240116037353 "/><polyline class="polyline" opacity="0.5" stroke="blue" points="215.40940623258254,267.7207130728325 280.89655813815284,285.0421852828821 "/><polyline class="polyline" opacity="0.5" stroke="blue" points="214.86358200323616,268.09386434428194 280.0022075616861,284.76394781233284 "/><polyline class="polyline" opacity="0.5" stroke="blue" points="214.31388675337615,268.4339367498963 279.11131965915956,284.4389936525805 "/><polyline class="polyline" opacity="0.5" stroke="blue" points="213.7606220419475,268.74102806205 278.2244842944851,284.0686272032636 "/><polyline class="polyline" opacity="0.5" stroke="blue" points="213.2040868479874,269.015253675949 277.34226592886745,283.6541508640658 "/><polyline class="polyline" opacity="0.5" stroke="blue" points="212.64457738715586,269.2567460381084 276.46520405966885,283.19686364505435 "/><polyline class="polyline" opacity="0.5" stroke="blue" points="212.08238693904522,269.465654072244 275.59381367888557,282.6980598794011 "/><polyline class="polyline" opacity="0.5" stroke="blue" points="211.517805685172,269.64214260386234 274.7285857481977,282.1590280346811 "/><polyline class="polyline" opacity="0.5" stroke="blue" points="210.95112055753012,269.7863917847841 273.8699876877366,281.5810496188526 "/><polyline class="polyline" opacity="0.5" stroke="blue" points="210.38261509756327,269.89859651877265 273.01846387589865,280.9653981769635 "/><polyline class="polyline" opacity="0.5" stroke="blue" points="209.81256932539335,269.97896588938846 272.17443615771015,280.3133383745943 "/><polyline class="polyline" opacity="0.5" stroke="blue" points="209.2412596191237,270.027722591128 271.3383043594259,279.62612516403044 "/><polyline class="polyline" opacity="0.5" stroke="blue" points="208.66895860401772,270.04510236484765 270.5104468072096,278.9050030291649 "/><polyline class="polyline" opacity="0.5" stroke="blue" points="208.0959350513389,270.0313534384178 269.69122084791076,278.15120530515185 "/><polyline class="polyline" opacity="0.5" stroke="blue" points="207.52245378662332,269.9867359734902 268.88096337010984,277.36595356887216 "/><polyline class="polyline" opacity="0.5" stroke="blue" points="206.94877560714352,269.9115215192061 268.07999132375556,276.5504570963218 "/><polyline class="polyline" opacity="0.5" stroke="blue" points="206.37515720831198,269.80599247361516 267.28860223686524,275.70591238309873 "/><polyline class="polyline" opacity="0.5" stroke="blue" points="205.8018511187608,269.67044155351863 266.507074727896,274.8335027242359 "/><polyline class="polyline" opacity="0.5" stroke="blue" points="205.2291056438289,269.5051712733934 265.7356690125309,273.93439784971355 "/><polyline class="polyline" opacity="0.5" stroke="blue" points="204.65716481717743,269.31049343400196 264.97462740374823,273.00975361206935 "/><polyline class="polyline" opacity="0.5" stroke="blue" points="204.08626836025155,269.0867286212377 264.22417480416317,272.06071172262546 "/><polyline class="polyline" opacity="0.5" stroke="blue" points="203.5166516492992,268.8342057157043 263.4845191897446,271.0883995329485 "/><polyline class="polyline" opacity="0.5" stroke="blue" points="202.94854568965627,268.55326141347757 262.75585208411724,270.09392985826605 "/><polyline class="polyline" opacity="0.5" stroke="blue" points="202.38217709700365,268.2442397584499 262.0383490227604,269.0784008396684 "/><polyline class="polyline" opacity="0.5" stroke="blue" points="201.81776808530074,267.90749168660943 261.3321700065104,268.0428958420352 "/><polyline class="polyline" opacity="0.5" stroke="blue" points="201.2555364610994,267.5433745825618 260.63745994386136,266.9884833847374 "/><polyline class="polyline" opacity="0.5" stroke="blue" points="200.695695623943,267.1522518485585 259.954349081647,265.91621710227554 "/><polyline class="polyline" opacity="0.5" stroke="blue" points="200.1384545725556,266.73449248625417 259.28295342375804,264.82713573212686 "/><polyline class="polyline" opacity="0.5" stroke="blue" points="199.58401791652938,266.29047069137545 258.62337513763026,263.72226312718544 "/><polyline class="polyline" opacity="0.5" stroke="blue" points="199.03258589322013,265.82056546144577 257.9757029483002,262.6026082902871 "/><polyline class="polyline" opacity="0.5" stroke="blue" points="198.48435438956452,265.3251602166755 257.34001251989343,261.4691654284217 "/><polyline class="polyline" opacity="0.5" stroke="blue" points="197.93951496853632,264.8046424340907 256.71636682446825,260.3229140243403 "/><polyline class="polyline" opacity="0.5" stroke="blue" points="197.39825489996392,264.25940329494455 256.10481649818985,259.1648189233685 "/><polyline class="polyline" opacity="0.5" stroke="blue" points="196.86075719543527,263.68983734542144 255.5054001848659,257.99583043334195 "/><polyline class="polyline" opacity="0.5" stroke="blue" points="196.32720064702272,263.0963421706182 254.91814486691607,256.8168844356771 "/><polyline class="polyline" opacity="0.5" stroke="blue" points="195.79775986956574,262.4793180817589 254.34306618389658,255.62890250568964 "/><polyline class="polyline" opacity="0.5" stroke="blue" points="195.2726053462549,261.83916781657484 253.7801687387364,254.43279204036526 "/><polyline class="polyline" opacity="0.5" stroke="blue" points="194.75190347726777,261.1762962527573 253.22944639188216,253.22944639188216 "/><polyline class="polyline" opacity="0.5" stroke="blue" points="194.23581663121348,260.4911101343715 252.69088254358152,252.01974500527123 "/><polyline class="polyline" opacity="0.5" stroke="blue" points="193.72450319914913,259.78401781109727 252.16445040456568,250.80455355868665 "/><polyline class="polyline" opacity="0.5" stroke="blue" points="193.2181176509393,259.0554289901464 251.65011325542187,249.5847241048454 "/><polyline class="polyline" opacity="0.5" stroke="blue" points="192.71681059373554,258.30575450068756 251.14782469497194,248.36109521227132 "/><polyline class="polyline" opacity="0.5" stroke="blue" points="192.2207288323614,257.53540607059574 250.65752887799744,247.13449210506096 "/><polyline class="polyline" opacity="0.5" stroke="blue" points="191.73001543139407,256.7447961153304 250.17916074267578,245.905726799963 "/><polyline class="polyline" opacity="0.5" stroke="blue" points="191.244809778743,255.93433753873077 249.71264622810838,244.67559823963532 "/><polyline class="polyline" opacity="0.5" stroke="blue" points="190.76524765053122,255.10444354550884 249.2579024823451,243.4448924210173 "/><polyline class="polyline" opacity="0.5" stroke="blue" points="190.2914612770938,254.25552746520933 248.8148380613223,242.21438251782092 "/><polyline class="polyline" opacity="0.5" stroke="blue" points="189.8235794099138,253.38800258739687 248.38335311914915,240.9848289962136 "/><polyline class="polyline" opacity="0.5" stroke="blue" points="189.36172738932476,252.5022820078238 247.96333959019069,239.75697972282856 "/><polyline class="polyline" opacity="0.5" stroke="blue" points="188.90602721281402,251.598778485325 247.55468136340778,238.5315700643029 "/><polyline class="polyline" opacity="0.5" stroke="blue" points="188.45659760377004,250.6779043091808 247.15725444942694,237.3093229776046 "/><polyline class="polyline" opacity="0.5" stroke="blue" points="188.01355408052163,249.74007117668427 246.7709271408223,236.09094909046934 "/><polyline class="polyline" opacity="0.5" stroke="blue" points="187.57700902552617,248.7856900806458 246.39556016610095,234.87714677132715 "/><polyline class="polyline" opacity="0.5" stroke="blue" points="187.14707175456755,247.8151712065643 246.03100683789205,233.66860218815617 "/><polyline class="polyline" opacity="0.5" stroke="blue" points="186.72384858583405,246.8289238391935 245.67711319584583,232.46598935575776 "/><polyline class="polyline" opacity="0.5" stroke="blue" points="186.30744290875003,245.8273562782287 245.33371814475626,231.269970171001 "/><polyline class="polyline" opacity="0.5" stroke="blue" points="185.89795525244278,244.8108757628402 245.00065358842406,230.08119443564226 "/><polyline class="polyline" opacity="0.5" stroke="blue" points="185.49548335373154,243.77988840477838 244.67774455978437,228.90029986637725 "/><polyline class="polyline" opacity="0.5" stroke="blue" points="185.10012222453105,242.73479912977618 244.36480934782264,227.72791209183796 "/><polyline class="polyline" opacity="0.5" stroke="blue" points="184.71196421856786,241.67601162697594 244.0616596218084,226.56464463629962 "/><polyline class="polyline" opacity="0.5" stroke="blue" points="184.33109909731255,240.60392830610866 243.76810055337572,225.41109888991707 "/><polyline class="polyline" opacity="0.5" stroke="blue" points="183.95761409503663,239.51895026215453 243.4839309369811,224.26786406536095 "/><polyline class="polyline" opacity="0.5" stroke="blue" points="183.5915939829075,238.42147724721815 243.20894330926785,223.1355171407796 "/><polyline class="polyline" opacity="0.5" stroke="blue" points="183.23312113203914,237.3119076493519 242.94292406786656,222.01462278906303 "/><polyline class="polyline" opacity="0.5" stroke="blue" points="182.88227557542197,236.19063847806447 242.68565359015727,220.9057332934406 "/><polyline class="polyline" opacity="0.5" stroke="blue" points="182.5391350686579,235.05806535625544 242.43690635251644,219.80938844949605 "/><polyline class="polyline" opacity="0.5" stroke="blue" points="182.20377514943237,233.91458251831875 242.1964510505676,218.72611545373744 "/><polyline class="polyline" opacity="0.5" stroke="blue" points="181.8762691956579,232.76058281416178 241.96405072094845,217.65642877891315 "/><polyline class="polyline" opacity="0.5" stroke="blue" points="181.55668848222794,231.59645771889063 241.7394628651018,216.60083003632045 "/><polyline class="polyline" opacity="0.5" stroke="blue" points="181.2451022363235,230.4225973479152 241.52243957558807,215.55980782540524 "/><polyline class="polyline" opacity="0.5" stroke="blue" points="180.94157769121762,229.2393904772319 241.31272766540994,214.5338375710085 "/><polyline class="polyline" opacity="0.5" stroke="blue" points="180.64618013852677,228.04722456864522 241.11006880082874,213.5233813486682 "/><polyline class="polyline" opacity="0.5" stroke="blue" points="180.35897297886112,226.84648579969343 240.91419963813993,212.5288876984424 "/><polyline class="polyline" opacity="0.5" stroke="blue" points="180.08001777082737,225.63755909804738 240.72485196486306,211.55079142777208 "/><polyline class="polyline" opacity="0.5" stroke="blue" points="179.80937427834223,224.4208281801554 240.5417528457867,210.58951340396052 "/><polyline class="polyline" opacity="0.5" stroke="blue" points="179.5471005162158,223.19667559391053 240.36462477429262,209.6454603368985 "/><polyline class="polyline" opacity="0.5" stroke="blue" points="179.29325279396656,221.9654827651202 240.19318582936683,208.7190245527224 "/><polyline class="polyline" opacity="0.5" stroke="blue" points="179.04788575783257,220.72763004756268 240.02714983868555,207.81058375914515 "/><polyline class="polyline" opacity="0.5" stroke="blue" points="178.8110524309448,219.48349677641716 239.86622654814383,206.92050080325586 "/><polyline class="polyline" opacity="0.5" stroke="blue" points="178.5828042516306,218.23346132485813 239.7101217981724,206.04912342263728 "/><polyline class="polyline" opacity="0.5" stroke="blue" points="178.36319110981705,216.9779011636083 239.5585377071644,205.1967839907034 "/><polyline class="polyline" opacity="0.5" stroke="blue" points="178.15226138150587,215.71719292324673 239.4111728623081,204.36379925721192 "/><polyline class="polyline" opacity="0.5" stroke="blue" points="177.95006196129242,214.45171245907264 239.26772251809564,203.5504700849575 "/><polyline class="polyline" opacity="0.5" stroke="blue" points="177.75663829290323,213.18183491832696 239.12787880274635,202.7570811837003 "/><polyline class="polyline" opacity="0.5" stroke="blue" points="177.57203439772778,211.9079348095777 238.99133093275626,201.98390084243368 "/><polyline class="polyline" opacity="0.5" stroke="blue" points="177.39629290132086,210.63038607407623 238.85776543575022,201.23118066113963 "/><polyline class="polyline" opacity="0.5" stroke="blue" points="177.22945505785364,209.3495621588952 238.72686638178146,200.49915528322518 "/><polyline class="polyline" opacity="0.5" stroke="blue" points="177.0715607724922,208.06583609165895 238.59831562318644,199.78804212987342 "/><polyline class="polyline" opacity="0.5" stroke="blue" points="176.92264862168312,206.77958055668174 238.4717930430674,199.09804113758224 "/><polyline class="polyline" opacity="0.5" stroke="blue" points="176.78275587132654,205.49116797232693 238.346976812436,198.4293345001986 "/><polyline class="polyline" opacity="0.5" stroke="blue" points="176.6519184928186,204.20097056940585 238.2235436560115,197.78208641678808 "/><polyline class="polyline" opacity="0.5" stroke="blue" points="176.53017117694444,202.90936047043283 238.1011691266271,197.1564428467092 "/><polyline class="polyline" opacity="0.5" stroke="blue" points="176.4175473456051,201.6167097695548 237.9795278881545,196.55253127328325 "/><polyline class="polyline" opacity="0.5" stroke="blue" points="176.3140791613614,200.32339061297577 237.85829400681484,195.9704604774746 "/><polyline class="polyline" opacity="0.5" stroke="blue" points="176.21979753477862,199.0297752796941 237.73714125069924,195.41032032300774 "/><polyline class="polyline" opacity="0.5" stroke="blue" points="176.13473212955643,197.73623626237395 237.6157433972776,194.8721815543609 "/><polyline class="polyline" opacity="0.5" stroke="blue" points="176.05891136542917,196.4431463481688 237.49377454862918,194.3560956090795 "/><polyline class="polyline" opacity="0.5" stroke="blue" points="175.99236241882176,195.15087869931762 237.37090945408153,193.86209444585324 "/><polyline class="polyline" opacity="0.5" stroke="blue" points="175.93511122124724,193.85980693333087 237.24682383989995,193.39019038979538 "/><polyline class="polyline" opacity="0.5" stroke="blue" points="175.88718245543257,192.57030520258562 237.12119474562132,192.94037599634925 "/><polyline class="polyline" opacity="0.5" stroke="blue" points="175.84859954915947,191.28274827314436 236.99370086658206,192.51262393523098 "/><polyline class="polyline" opacity="0.5" stroke="blue" points="175.81938466680785,189.99751160261496 236.86402290214343,192.1068868957921 "/><polyline class="polyline" opacity="0.5" stroke="blue" points="175.79955869859,188.71497141686342 236.7318439090723,191.72309751515456 "/><polyline class="polyline" opacity="0.5" stroke="blue" points="175.78914124746416,187.43550478539242 236.5968496594922,191.36116833043448 "/><polyline class="polyline" opacity="0.5" stroke="blue" points="175.78815061371637,186.15948969519565 236.45872900277556,191.02099175632566 "/><polyline class="polyline" opacity="0.5" stroke="blue" points="175.7966037772013,184.88730512289365 236.31717423070754,190.70244008926306 "/><polyline class="polyline" opacity="0.5" stroke="blue" points="175.81451637723177,183.61933110495897 236.1718814452111,190.4053655393305 "/><polyline class="polyline" opacity="0.5" stroke="blue" points="175.84190269010924,182.35594880583028 236.02255092788528,190.12960029100887 "/><polyline class="polyline" opacity="0.5" stroke="blue" points="175.8787756042869,181.0975405837166 235.8688875105728,189.87495659379474 "/><polyline class="polyline" opacity="0.5" stroke="blue" points="175.92514659315913,179.84449005388723 235.71060094614043,189.64122688363673 "/><polyline class="polyline" opacity="0.5" stroke="blue" points="175.9810256854713,178.5971821492409 235.5474062786232,189.4281839360572 "/><polyline class="polyline" opacity="0.5" stroke="blue" points="176.04642143334524,177.3560031779428 235.3790242118573,189.23558105173342 "/><polyline class="polyline" opacity="0.5" stroke="blue" points="176.12134087791736,176.12134087791736 235.2051814757017,189.06315227521873 "/><polyline class="polyline" opacity="0.5" stroke="blue" points="176.20578951258693,174.8935844679769 235.0256111889266,188.91061264738028 "/><polyline class="polyline" opacity="0.5" stroke="blue" points="176.29977124387466,173.67312469536597 234.84005321782968,188.7776584920251 "/><polyline class="polyline" opacity="0.5" stroke="blue" points="176.40328834989174,172.46035387949567 234.64825452962782,188.66396773707274 "/><polyline class="polyline" opacity="0.5" stroke="blue" points="176.51634143642292,171.25566595163806 234.44996953966154,188.56920027051797 "/><polyline class="polyline" opacity="0.5" stroke="blue" points="176.638929390628,170.05945649034635 234.24496045144414,188.4929983313057 "/><polyline class="polyline" opacity="0.5" stroke="blue" points="176.7710493323686,168.8721227523642 234.03299758858614,188.43498693511816 "/><polyline class="polyline" opacity="0.5" stroke="blue" points="176.91269656316896,167.6940636987809 233.8138597176292,188.39477433494767 "/><polyline class="polyline" opacity="0.5" stroke="blue" points="177.0638645128227,166.52568001618545 233.58733436083025,188.3719525161994 "/><polyline class="polyline" opacity="0.5" stroke="blue" points="177.22454468365905,165.36737413257077 233.35321809795053,188.36609772594065 "/><polyline class="polyline" opacity="0.5" stroke="blue" points="177.3947265924853,164.2195502277303 233.111316856119,188.37677103578014 "/><polyline class="polyline" opacity="0.5" stroke="blue" points="177.57439771022595,163.08261423789068 232.86144618686308,188.40351893773226 "/><polyline class="polyline" opacity="0.5" stroke="blue" points="177.76354339928042,161.95697385431495 232.6034315294237,188.4458739722894 "/><polyline class="polyline" opacity="0.5" stroke="blue" points="177.96214684862684,160.84303851561134 232.337108459504,188.50335538779802 "/><polyline class="polyline" opacity="0.5" stroke="blue" points="178.1701890067011,159.74121939347478 232.0623229226348,188.57546983010602 "/><polyline class="polyline" opacity="0.5" stroke="blue" points="178.38764851208546,158.6519293715886 231.7789314513791,188.66171206132566 "/><polyline class="polyline" opacity="0.5" stroke="blue" points="178.61450162204517,157.5755830174073 231.48680136564295,188.7615657064361 "/><polyline class="polyline" opacity="0.5" stroke="blue" points="178.85072213895435,156.51259654654052 231.18581095540503,188.8745040263318 "/><polyline class="polyline" opacity="0.5" stroke="blue" points="179.09628133465975,155.4633877794542 230.8758496452306,188.9999907158134 "/><polyline class="polyline" opacity="0.5" stroke="blue" points="179.351147872833,154.42837609020307 230.55681813998868,189.13748072491077 "/><polyline class="polyline" opacity="0.5" stroke="blue" points="179.61528772936953,153.40798234690737 230.2286285512502,189.2864211018282 "/><polyline class="polyline" opacity="0.5" stroke="blue" points="179.8886641108959,152.40262884368258 229.89120450390527,189.44625185571013 "/><polyline class="polyline" opacity="0.5" stroke="blue" points="180.17123737145428,151.41273922373378 229.54448122260078,189.6164068373387 "/><polyline class="polyline" opacity="0.5" stroke="blue" points="180.46296492743875,150.43873839332204 229.18840559766699,189.7963146357991 "/><polyline class="polyline" opacity="0.5" stroke="blue" points="180.76380117086282,149.48105242631294 228.8229362302674,189.98539948907788 "/><polyline class="polyline" opacity="0.5" stroke="blue" points="181.07369738104654,148.5401084590161 228.4480434565767,190.1830822065007 "/><polyline class="polyline" opacity="0.5" stroke="blue" points="181.39260163481657,147.61633457502833 228.06370935086218,190.38878110086424 "/><polyline class="polyline" opacity="0.5" stroke="blue" points="181.72045871532032,146.71015967979227 227.66992770741436,190.60191292807625 "/><polyline class="polyline" opacity="0.5" stroke="blue" points="182.05721001956283,145.82201336458868 227.26670400134523,190.8218938320856 "/><polyline class="polyline" opacity="0.5" stroke="blue" points="182.4027934647828,144.95232575968143 226.8540553283431,191.0481402928631 "/><polyline class="polyline" opacity="0.5" stroke="blue" points="182.7571433937913,144.10152737634166 226.43201032354483,191.28007007518164 "/><polyline class="polyline" opacity="0.5" stroke="blue" points="183.12019047940663,143.2700489374814 226.00060905975633,191.5171031759429 "/><polyline class="polyline" opacity="0.5" stroke="blue" points="183.49186162812498,142.45832119663555 225.55990292532147,191.7586627678065 "/><polyline class="polyline" opacity="0.5" stroke="blue" points="183.87207988317778,141.66677474503783 225.10995448200606,192.00417613689513 "/><polyline class="polyline" opacity="0.5" stroke="blue" points="184.2607643271336,140.89583980654635 224.65083730333066,192.25307561237818 "/><polyline class="polyline" opacity="0.5" stroke="blue" points="184.6578299842125,140.1459460201856 224.18263579384757,192.50479948577288 "/><polyline class="polyline" opacity="0.5" stroke="blue" points="185.06318772249062,139.41752221008113 223.7054449899179,192.7587929178497 "/><polyline class="polyline" opacity="0.5" stroke="blue" points="185.47674415618113,138.71099614258011 223.21937034260375,193.01450883108348 "/><polyline class="polyline" opacity="0.5" stroke="blue" points="185.89840154818884,138.02679427036216 222.72452748334138,193.27140878565646 "/><polyline class="polyline" opacity="0.5" stroke="blue" points="186.3280577131444,137.36534146336336 222.22104197311558,193.5289638370902 "/><polyline class="polyline" opacity="0.5" stroke="blue" points="186.76560592113532,136.7270607263531 221.7090490358988,193.786655373664 "/><polyline class="polyline" opacity="0.5" stroke="blue" points="187.21093480235976,136.11237290302373 221.18869327716376,194.04397593186198 "/><polyline class="polyline" opacity="0.5" stroke="blue" points="187.66392825294076,135.52169636647258 220.66012838831512,194.30042998818473 "/><polyline class="polyline" opacity="0.5" stroke="blue" points="188.12446534214746,134.9554466959814 220.12351683792144,194.55553472575772 "/><polyline class="polyline" opacity="0.5" stroke="blue" points="188.59242022128072,134.41403634001983 219.57902955065668,194.80882077427313 "/><polyline class="polyline" opacity="0.5" stroke="blue" points="189.0676620344909,133.89787426542853 219.0268455748878,195.0598329219073 "/><polyline class="polyline" opacity="0.5" stroke="blue" points="189.55005483180508,133.40736559276485 218.46715173986317,195.30813079796684 "/><polyline class="polyline" opacity="0.5" stroke="blue" points="190.03945748465105,132.94291121782453 217.90014230347518,195.55328952513088 "/><polyline class="polyline" opacity="0.5" stroke="blue" points="190.53572360417576,132.504907419385 217.3260185915791,195.79490034026972 "/><polyline class="polyline" opacity="0.5" stroke="blue" points="191.0387014626644,132.09374545324977 216.74498862985985,196.0325711829402 "/><polyline class="polyline" opacity="0.5" stroke="blue" points="191.54823391837624,131.7098111327109 216.15726676923816,196.26592725077214 "/><polyline class="polyline" opacity="0.5" stroke="blue" points="192.06415834412235,131.3534843955827 215.56307330580748,196.49461152108066 "/><polyline class="polyline" opacity="0.5" stroke="blue" points="192.58630655991752,131.025138858001 214.9626340962858,196.71828523815262 "/><polyline class="polyline" opacity="0.5" stroke="blue" points="193.11450477004874,130.72514135522513 214.35618016995653,196.9366283657741 "/><polyline class="polyline" opacity="0.5" stroke="blue" points="193.64857350490763,130.45385146972205 213.74394733805798,197.1493400046759 "/><polyline class="polyline" opacity="0.5" stroke="blue" points="194.1883275679435,130.2116210468585 213.1261758015633,197.356138774687 "/><polyline class="polyline" opacity="0.5" stroke="blue" points="194.73357598809733,129.9987936985762 212.50310975827117,197.55676316149257 "/><polyline class="polyline" opacity="0.5" stroke="blue" points="195.28412197808478,129.81570429547162 211.87499701010188,197.75097182799686 "/><polyline class="polyline" opacity="0.5" stroke="blue" points="195.83976289889893,129.6626784477565 211.24208857146735,197.93854389039112 "/><polyline class="polyline" opacity="0.5" stroke="blue" points="196.4002902309083,129.5400319756248 210.6046382795502,198.1192791591224 "/><polyline class="polyline" opacity="0.5" stroke="blue" points="196.96548955192776,129.44807036960816 209.96290240729687,198.29299834504846 "/><polyline class="polyline" opacity="0.5" stroke="blue" points="197.53514052264202,129.38708824155702 209.3171392798911,198.4595432311488 "/><polyline class="polyline" opacity="0.5" stroke="blue" points="198.10901687976133,129.35736876694057 208.66760889543926,198.61877681024208 "/><polyline class="polyline" opacity="0.5" stroke="blue" points="198.68688643728842,129.3591831192183 208.01457255055803,198.77058338923177 "/><polyline class="polyline" opacity="0.5" stroke="blue" points="199.26851109627424,129.39278989709283 207.35829247151435,198.91486866047094 "/><polyline class="polyline" opacity="0.5" stroke="blue" points="199.85364686343547,129.45843454551505 206.6990314515271,199.0515597408963 "/><polyline class="polyline" opacity="0.5" stroke="blue" points="200.44204387900317,129.55634877137112 206.0370524947948,199.1806051796368 "/><polyline class="polyline" opacity="0.5" stroke="blue" points="201.03344645416436,129.68674995484244 205.37261846777253,199.30197493485124 "/><polyline class="polyline" opacity="0.5" stroke="blue" points="201.6275931184513,129.84984055749015 204.70599175817532,199.41566032058816 "/><polyline class="polyline" opacity="0.5" stroke="blue" points="202.2242166774228,130.04580752817373 204.03743394214348,199.5216739244996 "/><polyline class="polyline" opacity="0.5" stroke="blue" points="202.82304428097115,130.2748217079767 203.3672054599587,199.62004949726676 "/><polyline class="polyline" opacity="0.5" stroke="blue" points="203.42379750257427,130.53703723536825 202.69556530065938,199.7108418146184 "/><polyline class="polyline" opacity="0.5" stroke="blue" points="204.02619242979893,130.83259095288827 202.022770695857,199.79412651283948 "/><polyline class="polyline" opacity="0.5" stroke="blue" points="204.62993976634206,131.1616018167009 201.34907682301693,199.86999989867678 "/><polyline class="polyline" opacity="0.5" stroke="blue" points="205.23474494588106,131.5241703104146 200.6747365184221,199.93857873455326 "/><polyline class="polyline" opacity="0.5" stroke="blue" points="205.84030825797998,131.92037786462063 200.0,200.0 "/><polyline class="polyline" opacity="0.5" stroke="blue" points="206.44632498627882,132.3502862836514 199.32511460015382,200.05442063020953 "/><polyline class="polyline" opacity="0.5" stroke="blue" points="207.05248555916663,132.81393718110763 198.6503245087001,200.1020172326001 "/><polyline class="polyline" opacity="0.5" stroke="blue" points="207.6584757131119,133.31135142574652 197.97587052598115,200.14298578226538 "/><polyline class="polyline" opacity="0.5" stroke="blue" points="208.26397666879794,133.8425285993657 197.3019898261833,200.1775412971604 "/><polyline class="polyline" opacity="0.5" stroke="blue" points="208.86866532017615,134.40744646835134 196.62891573086225,200.20591749385108 "/><polyline class="polyline" opacity="0.5" stroke="blue" points="209.4722144365214,135.0060604705938 195.95687749264343,200.22836642462227 "/><polyline class="polyline" opacity="0.5" stroke="blue" points="210.07429287753635,135.63830321949905 195.2861000890387,200.24515809670746 "/><polyline class="polyline" opacity="0.5" stroke="blue" points="210.67456582151746,136.3040840268484 194.6168040262914,200.25658007436613 "/><polyline class="polyline" opacity="0.5" stroke="blue" points="211.27269500655547,137.00328844627404 193.9492051531387,200.26293706449448 "/><polyline class="polyline" opacity="0.5" stroke="blue" points="211.8683389847057,137.73577783913046 193.28351448435663,200.2645504864135 "/><polyline class="polyline" opacity="0.5" stroke="blue" points="212.46115338901964,138.5013889645442 192.6199380339321,200.2617580264342 "/><polyline class="polyline" opacity="0.5" stroke="blue" points="213.0507912132892,139.29993359542505 191.9586766576878,200.25491317775226 "/><polyline class="polyline" opacity="0.5" stroke="blue" points="213.63690310430937,140.13119816221 191.29992590516943,200.2443847661778 "/><polyline class="polyline" opacity="0.5" stroke="blue" points="214.2191376664207,140.9949434260978 190.64387588058992,200.23055646215656 "/><polyline class="polyline" opacity="0.5" stroke="blue" points="214.79714177804615,141.89090418350634 189.9907111126125,200.21382627948847 "/><polyline class="polyline" opacity="0.5" stroke="blue" points="215.37056091989126,142.81878900345487 189.34061043274502,200.19460606110076 "/><polyline class="polyline" opacity="0.5" stroke="blue" points="215.93903951442758,143.77827999953428 188.69374686210813,200.17332095218077 "/><polyline class="polyline" opacity="0.5" stroke="blue" points="216.50222127623218,144.76903263807958 188.05028750633505,200.15040886092567 "/><polyline class="polyline" opacity="0.5" stroke="blue" points="217.05974957270806,145.7906755841057 187.41039345835415,200.1263199071154 "/><polyline class="polyline" opacity="0.5" stroke="blue" points="217.6112677946609,146.84281058650228 186.77421970880482,200.10151585866777 "/><polyline class="polyline" opacity="0.5" stroke="blue" points="218.15641973616187,147.9250124039114 186.14191506383486,200.07646955628687 "/><polyline class="polyline" opacity="0.5" stroke="blue" points="218.69484998307604,149.03682877263228 185.51362207002916,200.05166432627195 "/><polyline class="polyline" opacity="0.5" stroke="blue" points="219.22620430959242,150.1777804178088 184.88947694622098,200.0275933815083 "/><polyline class="polyline" opacity="0.5" stroke="blue" points="219.7501300820429,151.34736110905698 184.2696095219432,200.00475921062318 "/><polyline class="polyline" opacity="0.5" stroke="blue" points="220.26627666925643,152.5450377615875 183.6541431822801,199.9836729552486 "/><polyline class="polyline" opacity="0.5" stroke="blue" points="220.7742958586486,153.77025058376398 183.0431948188891,199.96485377529942 "/><polyline class="polyline" opacity="0.5" stroke="blue" points="221.2738422772092,155.02241327191925 182.43687478696972,199.94882820214082 "/><polyline class="polyline" opacity="0.5" stroke="blue" points="221.7645738165089,156.30091325312313 181.8352868679671,199.93612947949208 "/><polyline class="polyline" opacity="0.5" stroke="blue" points="222.24615206081185,157.60511197646457 181.2385282378074,199.92729689188604 "/><polyline class="polyline" opacity="0.5" stroke="blue" points="222.718242717346,158.934345253267 180.64668944047594,199.9228750804851 "/><polyline class="polyline" opacity="0.5" stroke="blue" points="223.18051604775286,160.28792364651406 180.05985436676156,199.9234133460353 "/><polyline class="polyline" opacity="0.5" stroke="blue" points="223.63264729971058,161.66513290961 179.47810023800352,199.92946493872924 "/><polyline class="polyline" opacity="0.5" stroke="blue" points="224.0743171376996,163.0652344744433 178.90149759469466,199.94158633474098 "/><polyline class="polyline" opacity="0.5" stroke="blue" points="224.50521207186102,164.4874659885645 178.330110289808,199.96033649919278 "/><polyline class="polyline" opacity="0.5" stroke="blue" points="224.9250248838782,165.93104190112544 177.7639954867319,199.98627613531758 "/><polyline class="polyline" opacity="0.5" stroke="blue" points="225.3334550488033,167.39515409706274 177.20320366171478,200.01996691958925 "/><polyline class="polyline" opacity="0.5" stroke="blue" points="225.73020915173782,168.87897257884177 176.64777861073946,200.0619707226064 "/><polyline class="polyline" opacity="0.5" stroke="blue" points="226.11500129827562,170.3816461949105 176.0977574607631,200.11284881553706 "/><polyline class="polyline" opacity="0.5" stroke="blue" points="226.487553517614,171.90230341384452 175.55317068527864,200.1731610619565 "/><polyline class="polyline" opacity="0.5" stroke="blue" points="226.84759615724633,173.44005314299957 175.01404212417154,200.2434650949443 "/><polyline class="polyline" opacity="0.5" stroke="blue" points="227.1948682681563,174.99398559032159 174.48038900786392,200.32431547934584 "/><polyline class="polyline" opacity="0.5" stroke="blue" points="227.52911797945046,176.56317316780454 173.95222198575684,200.41626285914887 "/><polyline class="polyline" opacity="0.5" stroke="blue" points="227.8501028613828,178.14667143492602 173.42954515900067,200.5198530899791 "/><polyline class="polyline" opacity="0.5" stroke="blue" points="228.15759027575015,179.7435200802395 172.91235611764054,200.63562635677764 "/><polyline class="polyline" opacity="0.5" stroke="blue" points="228.45135771266413,181.35274393915074 172.40064598220297,200.76411627679028 "/><polyline class="polyline" opacity="0.5" stroke="blue" points="228.73119311273916,182.97335404576603 171.8943994498069,200.90584898807106 "/><polyline class="polyline" opacity="0.5" stroke="blue" points="228.996895173773,184.60434871656545 171.39359484489873,201.06134222378384 "/><polyline class="polyline" opacity="0.5" stroke="blue" points="229.2482736410374,186.24471466352415 170.8982041747291,201.23110437267192 "/><polyline class="polyline" opacity="0.5" stroke="blue" points="229.48514958034323,187.89342813419043 170.4081931897026,201.41563352616026 "/><polyline class="polyline" opacity="0.5" stroke="blue" points="229.7073556330935,189.54945607611685 169.92352144874818,201.61541651265566 "/><polyline class="polyline" opacity="0.5" stroke="blue" points="229.91473625259107,191.21175732294455 169.44414238987068,201.83092791971725 "/><polyline class="polyline" opacity="0.5" stroke="blue" points="230.10714792092557,192.87928379934976 168.9700034060572,202.06262910488363 "/><polyline class="polyline" opacity="0.5" stroke="blue" points="230.2844593458239,194.5509817419884 168.50104592672295,202.3109671960621 "/><polyline class="polyline" opacity="0.5" stroke="blue" points="230.44655163691152,196.22579293350424 168.03720550489174,202.57637408251236 "/><polyline class="polyline" opacity="0.5" stroke="blue" points="230.59331846089805,197.90265594661895 167.57841191031446,202.85926539758557 "/><polyline class="polyline" opacity="0.5" stroke="blue" points="230.72466617526902,199.58050739527562 167.12458922873634,203.1600394945182 "/><polyline class="polyline" opacity="0.5" stroke="blue" points="230.84051394013466,201.25828318978435 166.6756559675286,203.4790764167181 "/><polyline class="polyline" opacity="0.5" stroke="blue" points="230.94079380795887,202.93491979289985 166.2315251679035,203.81673686412586 "/><polyline class="polyline" opacity="0.5" stroke="blue" points="231.0254507909647,204.60935547376076 165.79210452393423,204.1733611573809 "/><polyline class="polyline" opacity="0.5" stroke="blue" points="231.09444290608477,206.28053155663088 165.35729650859872,204.54926820167265 "/><polyline class="polyline" opacity="0.5" stroke="blue" points="231.14774119740082,207.94739366140527 164.92699850706583,204.9447544523077 "/><polyline class="polyline" opacity="0.5" stroke="blue" points="231.18532973608916,209.60889293288224 164.50110295743517,205.36009288417716 "/><polyline class="polyline" opacity="0.5" stroke="blue" points="231.20720559796308,211.26398725584932 164.07949749913672,205.79553196746068 "/><polyline class="polyline" opacity="0.5" stroke="blue" points="231.2133788187761,212.9116424530945 163.6620651291842,206.2512946520552 "/><polyline class="polyline" opacity="0.5" stroke="blue" points="231.20387232752142,214.55083346352478 163.24868436646614,206.72757736336544 "/><polyline class="polyline" opacity="0.5" stroke="blue" points="231.17872185803353,216.18054549766066 162.83922942424107,207.2245490122399 "/><polyline class="polyline" opacity="0.5" stroke="blue" points="231.137975839266,217.79977516786712 162.43357039098916,207.74235002197733 "/><polyline class="polyline" opacity="0.5" stroke="blue" points="231.0816952646859,219.40753159079105 162.03157341974827,208.28109137546525 "/><polyline class="polyline" opacity="0.5" stroke="blue" points="231.00995354128838,221.00283745958473 161.63310092604306,208.84085368564033 "/><polyline class="polyline" opacity="0.5" stroke="blue" points="230.92283631879735,222.5847300836234 161.23801179448822,209.42168629258236 "/><polyline class="polyline" opacity="0.5" stroke="blue" points="230.82044129967343,224.15226239355246 160.84616159411922,210.0236063906632 "/><polyline class="polyline" opacity="0.5" stroke="blue" points="230.7028780306074,225.70450390964172 160.4574028024728,210.6465981892731 "/><polyline class="polyline" opacity="0.5" stroke="blue" points="230.57026767622617,227.2405416715671 160.07158503840645,211.29061211073412 "/><polyline class="polyline" opacity="0.5" stroke="blue" points="230.4227427757868,228.7594811278917 159.6885553036101,211.95556402908207 "/><polyline class="polyline" opacity="0.5" stroke="blue" points="230.26044698367562,230.26044698367562 159.3081582327236,212.6413345534594 "/><polyline class="polyline" opacity="0.5" stroke="blue" points="230.08353479457028,231.742584004798 158.9302363519354,213.34776835989842 "/><polyline class="polyline" opacity="0.5" stroke="blue" points="229.89217125415536,233.2050577777449 158.5546303458929,214.07467357530214 "/><polyline class="polyline" opacity="0.5" stroke="blue" points="229.68653165631423,234.6470554237709 158.18117933271117,214.82182121742733 "/><polyline class="polyline" opacity="0.5" stroke="blue" points="229.46680122774484,236.06778626651786 157.80972114682095,215.58894469466296 "/><polyline class="polyline" opacity="0.5" stroke="blue" points="229.23317480096892,237.46648245233183 157.44009262934784,216.3757393693531 "/><polyline class="polyline" opacity="0.5" stroke="blue" points="228.98585647672147,238.84239952268905 157.0721299256669,217.18186218835353 "/><polyline class="polyline" opacity="0.5" stroke="blue" points="228.72505927672015,240.1948169383025 156.70566878972548,218.00693138442298 "/><polyline class="polyline" opacity="0.5" stroke="blue" points="228.45100478782257,241.52303855464456 156.3405448946781,218.85052625194075 "/><polyline class="polyline" opacity="0.5" stroke="blue" points="228.1639227985834,242.8263930487782 155.9765941493249,219.71218700030352 "/><polyline class="polyline" opacity="0.5" stroke="blue" points="227.86405092922365,244.10423429754323 155.61365301979586,220.59141468819317 "/><polyline class="polyline" opacity="0.5" stroke="blue" points="227.55163425602032,245.3559417072984 155.25155885587088,221.48767124171746 "/><polyline class="polyline" opacity="0.5" stroke="blue" points="227.22692493111657,246.58092049555933 154.89015022127862,222.4003795592103 "/><polyline class="polyline" opacity="0.5" stroke="blue" points="226.89018179874085,247.77860192501993 154.52926722726653,223.328923705238 "/><polyline class="polyline" opacity="0.5" stroke="blue" points="226.54167000880796,248.94844349057337 154.16875186868947,224.27264919608925 "/><polyline class="polyline" opacity="0.5" stroke="blue" points="226.1816606288574,250.0899290600773 153.80844836181961,225.2308633787341 "/><polyline class="polyline" opacity="0.5" stroke="blue" points="225.8104302552611,251.20256896973206 153.4482034830377,226.2028359049221 "/><polyline class="polyline" opacity="0.5" stroke="blue" points="225.42826062460884,252.2859000750491 153.0878669075279,227.18779930174696 "/><polyline class="polyline" opacity="0.5" stroke="blue" points="225.03543822615183,253.33948575849746 152.72729154706167,228.1849496396455 "/><polyline class="polyline" opacity="0.5" stroke="blue" points="224.63225391615566,254.3629158950096 152.3663338859256,229.19344729841364 "/><polyline class="polyline" opacity="0.5" stroke="blue" points="224.21900253498018,255.35580677662392 152.00485431401967,230.21241783142418 "/><polyline class="polyline" opacity="0.5" stroke="blue" points="223.79598252767116,256.3178009976175 151.64271745612967,231.2409529278113 "/><polyline class="polyline" opacity="0.5" stroke="blue" points="223.36349556881146,257.24856730156137 151.27979249635976,232.27811147195757 "/><polyline class="polyline" opacity="0.5" stroke="blue" points="222.92184619234308,258.1478003917931 150.91595349669765,233.3229206991748 "/><polyline class="polyline" opacity="0.5" stroke="blue" points="222.4713414270312,259.01522070686224 150.55107970867888,234.37437744602082 "/><polyline class="polyline" opacity="0.5" stroke="blue" points="222.0122904382029,259.8505741625511 150.18505587711383,235.43144949323596 "/><polyline class="polyline" opacity="0.5" stroke="blue" points="221.54500417635137,260.6536318621179 149.81777253484688,236.4930769988253 "/><polyline class="polyline" opacity="0.5" stroke="blue" points="221.06979503315662,261.4241897764394 149.44912628752786,237.55817401835156 "/><polyline class="polyline" opacity="0.5" stroke="blue" points="220.5869765054303,262.162068395762 149.07902008739222,238.6256301090526 "/><polyline class="polyline" opacity="0.5" stroke="blue" points="220.09686286745165,262.8671123547836 148.70736349507078,239.6943120139487 "/><polyline class="polyline" opacity="0.5" stroke="blue" points="219.59976885212023,263.5391900328036 148.3340729284804,240.7630654216682 "/><polyline class="polyline" opacity="0.5" stroke="blue" points="219.09600934130788,264.1781931306838 147.95907189788147,241.83071679730273 "/><polyline class="polyline" opacity="0.5" stroke="blue" points="218.5858990657528,264.7840362263591 147.58229122623246,242.89607527919617 "/><polyline class="polyline" opacity="0.5" stroke="blue" points="218.0697523147976,265.35665631063114 147.2036692540198,243.95793463619282 "/><polyline class="polyline" opacity="0.5" stroke="blue" points="217.547882656233,265.8960123049634 146.82315202779512,245.0150752795122 "/><polyline class="polyline" opacity="0.5" stroke="blue" points="217.02060266647055,266.40208456297785 146.44069347171427,246.06626632309002 "/><polyline class="polyline" opacity="0.5" stroke="blue" points="216.48822367122898,266.87487435732857 146.0562555414341,247.11026768592663 "/><polyline class="polyline" opacity="0.5" stroke="blue" points="215.95105549688216,267.31440335359855 145.66980835979768,248.14583222971874 "/><polyline class="polyline" opacity="0.5" stroke="blue" points="215.40940623258254,267.7207130728325 145.28133033380942,249.17170792482395 "/><polyline class="polyline" opacity="0.5" stroke="blue" points="214.86358200323622,268.09386434428194 144.8908082524825,250.18664003741608 "/><polyline class="polyline" opacity="0.5" stroke="blue" points="214.31388675337615,268.4339367498963 144.49823736522097,251.18937333053987 "/><polyline class="polyline" opacity="0.5" stroke="blue" points="213.7606220419475,268.7410280620501 144.10362144048628,252.17865427166424 "/><polyline class="polyline" opacity="0.5" stroke="blue" points="213.2040868479874,269.015253675949 143.70697280458117,253.15323323927063 "/><polyline class="polyline" opacity="0.5" stroke="blue" points="212.6445773871559,269.2567460381084 143.3083123604758,254.11186672098657 "/><polyline class="polyline" opacity="0.5" stroke="blue" points="212.08238693904522,269.4656540722439 142.90766958668831,255.05331949580162 "/><polyline class="polyline" opacity="0.5" stroke="blue" points="211.517805685172,269.64214260386234 142.50508251632274,255.9763667929642 "/><polyline class="polyline" opacity="0.5" stroke="blue" points="210.95112055753012,269.78639178478414 142.10059769645525,256.87979642027176 "/><polyline class="polyline" opacity="0.5" stroke="blue" points="210.38261509756327,269.89859651877265 141.69427012814944,257.76241085461623 "/><polyline class="polyline" opacity="0.5" stroke="blue" points="209.81256932539335,269.9789658893885 141.2861631874671,258.62302928784277 "/><polyline class="polyline" opacity="0.5" stroke="blue" points="209.2412596191237,270.027722591128 140.87634852792453,259.4604896212129 "/><polyline class="polyline" opacity="0.5" stroke="blue" points="208.66895860401772,270.04510236484765 140.46490596492748,260.2736504020371 "/><polyline class="polyline" opacity="0.5" stroke="blue" points="208.09593505133893,270.0313534384178 140.05192334279351,261.06139269634986 "/><polyline class="polyline" opacity="0.5" stroke="blue" points="207.52245378662332,269.9867359734902 139.6374963850451,261.8226218918421 "/><polyline class="polyline" opacity="0.5" stroke="blue" points="206.94877560714352,269.9115215192061 139.22172852872768,262.55626942563936 "/><polyline class="polyline" opacity="0.5" stroke="blue" points="206.375157208312,269.80599247361516 138.80473074356672,263.261294431914 "/><polyline class="polyline" opacity="0.5" stroke="blue" points="205.80185111876082,269.67044155351863 138.38662133684073,263.93668530474605 "/><polyline class="polyline" opacity="0.5" stroke="blue" points="205.2291056438289,269.5051712733934 137.9675257448988,264.58146117209014 "/><polyline class="polyline" opacity="0.5" stroke="blue" points="204.65716481717743,269.31049343400196 137.54757631229603,265.1946732771728 "/><polyline class="polyline" opacity="0.5" stroke="blue" points="204.08626836025158,269.0867286212377 137.1269120595637,265.7754062641188 "/><polyline class="polyline" opacity="0.5" stroke="blue" points="203.5166516492992,268.8342057157043 136.70567844066272,266.32277936509405 "/><polyline class="polyline" opacity="0.5" stroke="blue" points="202.94854568965627,268.55326141347757 136.28402709119905,266.83594748674346 "/><polyline class="polyline" opacity="0.5" stroke="blue" points="202.38217709700365,268.2442397584499 135.86211556849616,267.31410219420263 "/><polyline class="polyline" opacity="0.5" stroke="blue" points="201.81776808530077,267.90749168660943 135.4401070846391,267.7564725914528 "/><polyline class="polyline" opacity="0.5" stroke="blue" points="201.2555364610994,267.5433745825618 135.01817023360763,268.16232609728286 "/><polyline class="polyline" opacity="0.5" stroke="blue" points="200.695695623943,267.1522518485585 134.5964787136201,268.5309691166039 "/><polyline class="polyline" opacity="0.5" stroke="blue" points="200.1384545725556,266.7344924862541 134.17521104580277,268.8617476073336 "/><polyline class="polyline" opacity="0.5" stroke="blue" points="199.5840179165294,266.29047069137545 133.75455029028896,269.154047543528 "/><polyline class="polyline" opacity="0.5" stroke="blue" points="199.03258589322013,265.82056546144577 133.33468376083476,269.4072952758775 "/><polyline class="polyline" opacity="0.5" stroke="blue" points="198.4843543895645,265.3251602166755 132.91580273901562,269.6209577911074 "/><polyline class="polyline" opacity="0.5" stroke="blue" points="197.93951496853634,264.80464243409074 132.4981021890407,269.79454287222495 "/><polyline class="polyline" opacity="0.5" stroke="blue" points="197.39825489996394,264.2594032949446 132.08178047418835,269.9275991619302 "/><polyline class="polyline" opacity="0.5" stroke="blue" points="196.86075719543527,263.68983734542144 131.66703907583098,270.01971613186214 "/><polyline class="polyline" opacity="0.5" stroke="blue" points="196.32720064702272,263.0963421706182 131.2540823159739,270.07052396067536 "/><polyline class="polyline" opacity="0.5" stroke="blue" points="195.79775986956577,262.47931808175895 130.84311708419125,270.07969332424057 "/><polyline class="polyline" opacity="0.5" stroke="blue" points="195.27260534625492,261.8391678165749 130.43435256979183,270.04693510153174 "/><polyline class="polyline" opacity="0.5" stroke="blue" points="194.75190347726777,261.1762962527573 130.02800000000002,269.972 "/><polyline class="polyline" opacity="0.5" stroke="blue" points="194.23581663121348,260.49111013437147 129.6242723848817,269.85467810444686 "/><polyline class="polyline" opacity="0.5" stroke="blue" points="193.72450319914915,259.7840178110973 129.22338426969358,269.6947983535864 "/><polyline class="polyline" opacity="0.5" stroke="blue" points="193.2181176509393,259.0554289901465 128.82555149527627,269.4922279486391 "/><polyline class="polyline" opacity="0.5" stroke="blue" points="192.71681059373554,258.30575450068756 128.43099096705774,269.24687169841843 "/><polyline class="polyline" opacity="0.5" stroke="blue" points="192.2207288323614,257.5354060705957 128.0399204331742,268.95867130546657 "/><polyline class="polyline" opacity="0.5" stroke="blue" points="191.73001543139407,256.7447961153304 127.65255827215984,268.6276045978587 "/><polyline class="polyline" opacity="0.5" stroke="blue" points="191.244809778743,255.93433753873077 127.26912329060009,268.2536847113331 "/><polyline class="polyline" opacity="0.5" stroke="blue" points="190.76524765053122,255.10444354550884 126.88983453108683,267.83695922641976 "/><polyline class="polyline" opacity="0.5" stroke="blue" points="190.29146127709382,254.2555274652094 126.51491109075754,267.3775092652244 "/><polyline class="polyline" opacity="0.5" stroke="blue" points="189.82357940991383,253.3880025873969 126.14457195064873,266.8754485524922 "/><polyline class="polyline" opacity="0.5" stroke="blue" points="189.36172738932476,252.50228200782382 125.77903581603948,266.33092244552097 "/><polyline class="polyline" opacity="0.5" stroke="blue" points="188.90602721281402,251.598778485325 125.41852096791112,265.74410693741345 "/><polyline class="polyline" opacity="0.5" stroke="blue" points="188.45659760377004,250.67790430918083 125.06324512560002,265.11520763806845 "/><polyline class="polyline" opacity="0.5" stroke="blue" points="188.01355408052166,249.7400711766843 124.71342532067365,264.444458737197 "/><polyline class="polyline" opacity="0.5" stroke="blue" points="187.57700902552617,248.7856900806458 124.36927778201652,263.7321219535261 "/><polyline class="polyline" opacity="0.5" stroke="blue" points="187.14707175456752,247.81517120656423 124.03101783206971,262.9784854742114 "/><polyline class="polyline" opacity="0.5" stroke="blue" points="186.72384858583408,246.82892383919352 123.69885979412774,262.1838628883334 "/><polyline class="polyline" opacity="0.5" stroke="blue" points="186.30744290875003,245.82735627822873 123.37301691056189,261.3485921181875 "/><polyline class="polyline" opacity="0.5" stroke="blue" points="185.89795525244278,244.8108757628402 123.05370127180248,260.47303435191395 "/><polyline class="polyline" opacity="0.5" stroke="blue" points="185.49548335373152,243.77988840477835 122.74112375588156,259.5575729808346 "/><polyline class="polyline" opacity="0.5" stroke="blue" points="185.10012222453108,242.73479912977618 122.43549397830978,258.6026125446866 "/><polyline class="polyline" opacity="0.5" stroke="blue" points="184.71196421856786,241.67601162697596 122.13702025203283,257.6085776877563 "/><polyline class="polyline" opacity="0.5" stroke="blue" points="184.33109909731255,240.60392830610866 121.84590955719082,256.5759121287318 "/><polyline class="polyline" opacity="0.5" stroke="blue" points="183.95761409503666,239.5189502621546 121.56236752038147,255.50507764690354 "/><polyline class="polyline" opacity="0.5" stroke="blue" points="183.5915939829075,238.4214772472182 121.2865984031105,254.39655308715496 "/><polyline class="polyline" opacity="0.5" stroke="blue" points="183.23312113203914,237.3119076493519 121.01880509909424,253.25083338599924 "/><polyline class="polyline" opacity="0.5" stroke="blue" points="182.88227557542197,236.19063847806447 120.75918914006803,252.06842862073194 "/><polyline class="polyline" opacity="0.5" stroke="blue" points="182.53913506865794,235.05806535625553 120.50795070973955,250.84986308358893 "/><polyline class="polyline" opacity="0.5" stroke="blue" points="182.2037751494324,233.91458251831878 120.26528866551809,249.59567438261996 "/><polyline class="polyline" opacity="0.5" stroke="blue" points="181.8762691956579,232.76058281416178 120.03140056764168,248.3064125708172 "/><polyline class="polyline" opacity="0.5" stroke="blue" points="181.55668848222794,231.59645771889058 119.80648271531926,246.98263930486553 "/><polyline class="polyline" opacity="0.5" stroke="blue" points="181.2451022363235,230.42259734791526 119.59073018949888,245.62492703472375 "/><polyline class="polyline" opacity="0.5" stroke="blue" points="180.94157769121762,229.23939047723192 119.38433690187192,244.2338582250855 "/><polyline class="polyline" opacity="0.5" stroke="blue" points="180.64618013852677,228.04722456864522 119.18749564972067,242.81002460962213 "/><polyline class="polyline" opacity="0.5" stroke="blue" points="180.35897297886115,226.84648579969348 119.00039817621719,241.35402647876373 "/><polyline class="polyline" opacity="0.5" stroke="blue" points="180.08001777082737,225.63755909804743 118.82323523578154,239.86647200164032 "/><polyline class="polyline" opacity="0.5" stroke="blue" points="179.80937427834223,224.42082818015544 118.65619666411116,238.3479765826781 "/><polyline class="polyline" opacity="0.5" stroke="blue" points="179.5471005162158,223.19667559391053 118.49947145249425,236.79916225321992 "/><polyline class="polyline" opacity="0.5" stroke="blue" points="179.29325279396656,221.96548276512027 118.35324782602514,235.22065709843054 "/><polyline class="polyline" opacity="0.5" stroke="blue" points="179.04788575783257,220.72763004756274 118.21771332534323,233.61309471963648 "/><polyline class="polyline" opacity="0.5" stroke="blue" points="178.8110524309448,219.48349677641716 118.09305489152291,231.9771137321552 "/><polyline class="polyline" opacity="0.5" stroke="blue" points="178.5828042516306,218.2334613248581 117.97945895374559,230.3133572985719 "/><polyline class="polyline" opacity="0.5" stroke="blue" points="178.36319110981705,216.9779011636083 117.87711151939287,228.622472697342 "/><polyline class="polyline" opacity="0.5" stroke="blue" points="178.15226138150587,215.71719292324673 117.78619826620366,226.9051109265157 "/><polyline class="polyline" opacity="0.5" stroke="blue" points="177.9500619612924,214.4517124590726 117.7069046361447,225.16192634231442 "/><polyline class="polyline" opacity="0.5" stroke="blue" points="177.7566382929032,213.18183491832693 117.63941593065125,223.39357633221852 "/><polyline class="polyline" opacity="0.5" stroke="blue" points="177.57203439772778,211.90793480957774 117.58391740689731,221.60072102217282 "/><polyline class="polyline" opacity="0.5" stroke="blue" points="177.39629290132086,210.63038607407626 117.54059437476441,219.78402301745987 "/><polyline class="polyline" opacity="0.5" stroke="blue" points="177.22945505785364,209.34956215889514 117.50963229418026,217.9441471767487 "/><polyline class="polyline" opacity="0.5" stroke="blue" points="177.07156077249223,208.065836091659 117.49121687250519,216.0817604187789 "/><polyline class="polyline" opacity="0.5" stroke="blue" points="176.92264862168312,206.77958055668174 117.48553416164874,214.19753156110963 "/><polyline class="polyline" opacity="0.5" stroke="blue" points="176.78275587132654,205.4911679723269 117.49277065460288,212.29213119032923 "/><polyline class="polyline" opacity="0.5" stroke="blue" points="176.6519184928186,204.20097056940583 117.51311338108259,210.36623156309153 "/><polyline class="polyline" opacity="0.5" stroke="blue" points="176.53017117694444,202.90936047043286 117.54675000196647,208.42050653732542 "/><polyline class="polyline" opacity="0.5" stroke="blue" points="176.4175473456051,201.61670976955483 117.59386890223459,206.45563153294117 "/><polyline class="polyline" opacity="0.5" stroke="blue" points="176.3140791613614,200.32339061297574 117.65465928210064,204.47228352134488 "/><polyline class="polyline" opacity="0.5" stroke="blue" points="176.21979753477862,199.02977527969404 117.72931124603816,202.47114104305334 "/><polyline class="polyline" opacity="0.5" stroke="blue" points="176.13473212955643,197.73623626237395 117.81801588940054,200.45288425269692 "/><polyline class="polyline" opacity="0.5" stroke="blue" points="176.05891136542917,196.4431463481688 117.92096538233358,198.41819499068512 "/><polyline class="polyline" opacity="0.5" stroke="blue" points="175.99236241882176,195.1508786993176 118.03835305068014,196.36775688080792 "/><polyline class="polyline" opacity="0.5" stroke="blue" points="175.93511122124724,193.85980693333084 118.17037345357208,194.30225545303563 "/><polyline class="polyline" opacity="0.5" stroke="blue" points="175.88718245543257,192.57030520258564 118.31722245740389,192.222378290783 "/><polyline class="polyline" opacity="0.5" stroke="blue" points="175.84859954915945,191.2827482731444 118.47909730587801,190.12881520189555 "/><polyline class="polyline" opacity="0.5" stroke="blue" points="175.81938466680785,189.99751160261494 118.65619668580747,188.02225841262114 "/><polyline class="polyline" opacity="0.5" stroke="blue" points="175.79955869859,188.71497141686342 118.84872078835545,185.90340278382203 "/><polyline class="polyline" opacity="0.5" stroke="blue" points="175.78914124746416,187.43550478539245 119.05687136538737,183.77294604868626 "/><polyline class="polyline" opacity="0.5" stroke="blue" points="175.78815061371637,186.1594896951956 119.28085178060049,181.63158907119856 "/><polyline class="polyline" opacity="0.5" stroke="blue" points="175.7966037772013,184.8873051228936 119.52086705509102,179.4800361246222 "/><polyline class="polyline" opacity="0.5" stroke="blue" points="175.81451637723177,183.619331104959 119.77712390700886,177.3189951892505 "/><polyline class="polyline" opacity="0.5" stroke="blue" points="175.84190269010924,182.35594880583028 120.04983078493903,175.14917826867654 "/><polyline class="polyline" opacity="0.5" stroke="blue" points="175.8787756042869,181.09754058371658 120.3391978946401,172.97130172383282 "/><polyline class="polyline" opacity="0.5" stroke="blue" points="175.92514659315913,179.8444900538872 120.64543721875744,170.78608662403946 "/><polyline class="polyline" opacity="0.5" stroke="blue" points="175.9810256854713,178.5971821492409 120.96876252911638,168.5942591143001 "/><polyline class="polyline" opacity="0.5" stroke="blue" points="176.04642143334524,177.3560031779428 121.30938939118785,166.3965507980705 "/><polyline class="polyline" opacity="0.5" stroke="blue" points="176.12134087791733,176.12134087791733 121.66753516030514,164.19369913471866 "/><polyline class="polyline" opacity="0.5" stroke="blue" points="176.20578951258693,174.89358446797686 122.04341896919448,161.98644785087606 "/><polyline class="polyline" opacity="0.5" stroke="blue" points="176.29977124387466,173.673124695366 122.43726170636856,159.77554736486906 "/><polyline class="polyline" opacity="0.5" stroke="blue" points="176.40328834989174,172.4603538794957 122.84928598491408,157.5617552233981 "/><polyline class="polyline" opacity="0.5" stroke="blue" points="176.51634143642292,171.255665951638 123.27971610118882,155.34583654961227 "/><polyline class="polyline" opacity="0.5" stroke="blue" points="176.638929390628,170.05945649034635 123.72877798292603,153.12856450169855 "/><polyline class="polyline" opacity="0.5" stroke="blue" points="176.7710493323686,168.8721227523642 124.19669912622628,150.91072074107956 "/><polyline class="polyline" opacity="0.5" stroke="blue" points="176.91269656316896,167.69406369878087 124.68370852089731,148.69309590928265 "/><polyline class="polyline" opacity="0.5" stroke="blue" points="177.06386451282273,166.52568001618545 125.19003656358628,146.4764901125014 "/><polyline class="polyline" opacity="0.5" stroke="blue" points="177.22454468365905,165.36737413257083 125.71591495812739,144.26171341283776 "/><polyline class="polyline" opacity="0.5" stroke="blue" points="177.3947265924853,164.21955022773034 126.26157660251022,142.04958632516178 "/><polyline class="polyline" opacity="0.5" stroke="blue" points="177.57439771022595,163.08261423789065 126.82725546185412,139.84094031848576 "/><polyline class="polyline" opacity="0.5" stroke="blue" points="177.76354339928042,161.95697385431492 127.4131864267557,137.6366183206851 "/><polyline class="polyline" opacity="0.5" stroke="blue" points="177.96214684862684,160.84303851561137 128.01960515635704,135.43747522535176 "/><polyline class="polyline" opacity="0.5" stroke="blue" points="178.1701890067011,159.7412193934748 128.64674790546388,133.24437839949374 "/><polyline class="polyline" opacity="0.5" stroke="blue" points="178.3876485120855,158.6519293715886 129.29485133502433,131.0582081907348 "/><polyline class="polyline" opacity="0.5" stroke="blue" points="178.61450162204517,157.5755830174073 129.96415230526293,128.8798584325864 "/><polyline class="polyline" opacity="0.5" stroke="blue" points="178.85072213895435,156.51259654654052 130.6548876507468,126.710236946294 "/><polyline class="polyline" opacity="0.5" stroke="blue" points="179.09628133465975,155.46338777945414 131.36729393664592,124.55026603767043 "/><polyline class="polyline" opacity="0.5" stroke="blue" points="179.35114787283302,154.42837609020302 132.1016071954353,122.40088298724487 "/><polyline class="polyline" opacity="0.5" stroke="blue" points="179.61528772936953,153.40798234690737 132.85806264327454,120.26304053195668 "/><polyline class="polyline" opacity="0.5" stroke="blue" points="179.88866411089586,152.40262884368258 133.636894375291,118.13770733652683 "/><polyline class="polyline" opacity="0.5" stroke="blue" points="180.1712373714543,151.41273922373375 134.4383350389798,116.02586845253676 "/><polyline class="polyline" opacity="0.5" stroke="blue" points="180.46296492743878,150.438738393322 135.26261548493403,113.9285257631269 "/><polyline class="polyline" opacity="0.5" stroke="blue" points="180.76380117086282,149.48105242631294 136.1099643941109,111.8466984111197 "/><polyline class="polyline" opacity="0.5" stroke="blue" points="181.07369738104654,148.54010845901612 136.9806078808404,109.78142320824509 "/><polyline class="polyline" opacity="0.5" stroke="blue" points="181.3926016348166,147.6163345750283 137.87476907078727,107.73375502302669 "/><polyline class="polyline" opacity="0.5" stroke="blue" points="181.72045871532032,146.71015967979227 138.79266765308356,105.70476714474957 "/><polyline class="polyline" opacity="0.5" stroke="blue" points="182.05721001956283,145.8220133645887 139.73451940586148,103.69555162080415 "/><polyline class="polyline" opacity="0.5" stroke="blue" points="182.40279346478277,144.95232575968143 140.70053569443186,101.70721956455517 "/><polyline class="polyline" opacity="0.5" stroke="blue" points="182.75714339379132,144.1015273763416 141.6909229413755,99.74090143075011 "/><polyline class="polyline" opacity="0.5" stroke="blue" points="183.12019047940663,143.27004893748142 142.70588206784308,97.79774725532953 "/><polyline class="polyline" opacity="0.5" stroke="blue" points="183.49186162812498,142.45832119663558 143.74560790539277,95.8789268563598 "/><polyline class="polyline" opacity="0.5" stroke="blue" points="183.8720798831778,141.6667747450378 144.8102885777335,93.9856299926605 "/><polyline class="polyline" opacity="0.5" stroke="blue" points="184.26076432713361,140.89583980654635 145.9001048517944,92.1190664765441 "/><polyline class="polyline" opacity="0.5" stroke="blue" points="184.6578299842125,140.1459460201856 147.0152294575921,90.28046623694289 "/><polyline class="polyline" opacity="0.5" stroke="blue" points="185.0631877224906,139.41752221008113 148.15582637643683,88.47107932904498 "/><polyline class="polyline" opacity="0.5" stroke="blue" points="185.47674415618116,138.71099614258011 149.3220500970877,86.69217588642053 "/><polyline class="polyline" opacity="0.5" stroke="blue" points="185.89840154818884,138.02679427036216 150.51404483955702,84.9450460114698 "/><polyline class="polyline" opacity="0.5" stroke="blue" points="186.3280577131444,137.36534146336336 151.7319437463521,83.23099959989597 "/><polyline class="polyline" opacity="0.5" stroke="blue" points="186.76560592113532,136.7270607263531 152.97586804105362,81.55136609476834 "/><polyline class="polyline" opacity="0.5" stroke="blue" points="187.21093480235976,136.11237290302367 154.24592615424132,79.90749416562379 "/><polyline class="polyline" opacity="0.5" stroke="blue" points="187.6639282529408,135.52169636647255 155.54221281691366,78.30075130793752 "/><polyline class="polyline" opacity="0.5" stroke="blue" points="188.12446534214746,134.95544669598144 156.86480812168452,76.73252335819836 "/><polyline class="polyline" opacity="0.5" stroke="blue" points="188.59242022128072,134.41403634001983 158.21377655220002,75.20421391973416 "/><polyline class="polyline" opacity="0.5" stroke="blue" points="189.06766203449092,133.89787426542853 159.58916598138467,73.71724369436679 "/><polyline class="polyline" opacity="0.5" stroke="blue" points="189.55005483180506,133.40736559276485 160.9910066393138,72.27304971492097 "/><polyline class="polyline" opacity="0.5" stroke="blue" points="190.03945748465105,132.94291121782453 162.41931005170647,70.87308447358649 "/><polyline class="polyline" opacity="0.5" stroke="blue" points="190.5357236041758,132.504907419385 163.8740679502443,69.5188149411272 "/><polyline class="polyline" opacity="0.5" stroke="blue" points="191.0387014626644,132.09374545324977 165.35525115615673,68.21172147194986 "/><polyline class="polyline" opacity="0.5" stroke="blue" points="191.54823391837624,131.7098111327109 166.86280843875284,66.95329659010477 "/><polyline class="polyline" opacity="0.5" stroke="blue" points="192.06415834412235,131.3534843955827 168.39666535084217,65.74504365136642 "/><polyline class="polyline" opacity="0.5" stroke="blue" points="192.58630655991755,131.02513885800096 169.95672304326126,64.58847537667754 "/><polyline class="polyline" opacity="0.5" stroke="blue" points="193.11450477004874,130.72514135522513 171.5428570610155,63.48511225238914 "/><polyline class="polyline" opacity="0.5" stroke="blue" points="193.64857350490763,130.45385146972205 173.15491612384648,62.436480792942945 "/><polyline class="polyline" opacity="0.5" stroke="blue" points="194.18832756794347,130.2116210468585 174.7927208943586,61.44411166189278 "/><polyline class="polyline" opacity="0.5" stroke="blue" points="194.73357598809733,129.9987936985762 176.45606273716487,60.509537647460974 "/><polyline class="polyline" opacity="0.5" stroke="blue" points="195.2841219780848,129.81570429547156 178.14470247286124,59.63429148918243 "/><polyline class="polyline" opacity="0.5" stroke="blue" points="195.83976289889893,129.6626784477565 179.85836913098774,58.81990355259944 "/><polyline class="polyline" opacity="0.5" stroke="blue" points="196.4002902309083,129.5400319756248 181.59675870650108,58.06789934944024 "/><polyline class="polyline" opacity="0.5" stroke="blue" points="196.96548955192776,129.44807036960816 183.35953292464987,57.37979690124865 "/><polyline class="polyline" opacity="0.5" stroke="blue" points="197.535140522642,129.38708824155702 185.14631801952234,56.757103945024 "/><polyline class="polyline" opacity="0.5" stroke="blue" points="198.10901687976133,129.35736876694057 186.95670353191068,56.20131498010005 "/><polyline class="polyline" opacity="0.5" stroke="blue" points="198.68688643728845,129.3591831192183 188.79024113251072,55.71390815621987 "/><polyline class="polyline" opacity="0.5" stroke="blue" points="199.26851109627427,129.39278989709285 190.6464434768543,55.29634200356753 "/><polyline class="polyline" opacity="0.5" stroke="blue" points="199.85364686343547,129.4584345455151 192.52478309873084,54.95005200638724 "/><polyline class="polyline" opacity="0.5" stroke="blue" points="200.44204387900317,129.55634877137112 194.42469134921262,54.67644702276891 "/><polyline class="polyline" opacity="0.5" stroke="blue" points="201.03344645416436,129.68674995484247 196.34555738873564,54.476905554187766 "/><polyline class="polyline" opacity="0.5" stroke="blue" points="201.6275931184513,129.84984055749015 198.2867272400097,54.35277186946911 "/><polyline class="polyline" opacity="0.5" stroke="blue" points="202.2242166774228,130.04580752817373 200.24750290982448,54.305351989000854 "/><polyline class="polyline" opacity="0.5" stroke="blue" points="202.82304428097115,130.2748217079767 202.22714158808537,54.33590953622297 "/><polyline class="polyline" opacity="0.5" stroke="blue" points="203.4237975025743,130.53703723536825 204.22485493264134,54.44566146469748 "/><polyline class="polyline" opacity="0.5" stroke="blue" points="204.02619242979895,130.83259095288827 206.23980844866298,54.635773670386754 "/><polyline class="polyline" opacity="0.5" stroke="blue" points="204.62993976634206,131.16160181670085 208.2711209714672,54.90735650013386 "/><polyline class="polyline" opacity="0.5" stroke="blue" points="205.23474494588103,131.5241703104146 210.31786426178417,55.26146016875552 "/><polyline class="polyline" opacity="0.5" stroke="blue" points="205.84030825797998,131.92037786462063 212.3790627224915,55.69907009859199 "/></svg>
