<?xml version="1.0" encoding="UTF-8"?>
<!DOCTYPE svg PUBLIC "-//W3C//DTD SVG 1.1//EN"
    "http://www.w3.org/Graphics/SVG/1.1/DTD/svg11.dtd"><svg width="400" height="400" stroke="black" fill="none" fill-opacity="0.75" font-size="14" font-style="italic" font-family="sans-serif" xmlns="http://www.w3.org/2000/svg" xmlns:xlink="http://www.w3.org/1999/xlink" version="1.1"><filter id="blur1"><feGaussianBlur stdDeviation="0.5"/></filter><rect width="100%" height="100%" fill="white" stroke="none" fill-opacity="1"/><rect class="bg" fill="black" width="100%" height="100%" stroke="none" fill-opacity="1"/><polyline class="polyline" opacity="0.5" stroke="blue" points="209.30696880773058,134.45642638732403 220.74373725791412,59.06753655732933 "/><polyline class="polyline" opacity="0.5" stroke="blue" points="210.03187825069554,135.05283527054772 223.09375516452317,59.98956596620485 "/><polyline class="polyline" opacity="0.5" stroke="blue" points="210.7554875014839,135.68269143660234 225.45106705715742,60.99946753848201 "/><polyline class="polyline" opacity="0.5" stroke="blue" points="211.47739838646862,136.34589261641509 227.81413606048795,62.09750482637449 "/><polyline class="polyline" opacity="0.5" stroke="blue" points="212.1972085977652,137.0423129454392 230.1813785251473,63.28383486936167 "/><polyline class="polyline" opacity="0.5" stroke="blue" points="212.91451199274476,137.7718025675678 232.5511656783319,64.55850408953049 "/><polyline class="polyline" opacity="0.5" stroke="blue" points="213.62889890832133,138.53418726378624 234.92182549400732,65.92144435987228 "/><polyline class="polyline" opacity="0.5" stroke="blue" points="214.3399564898199,139.32926810722682 237.29164478531436,67.37246927248967 "/><polyline class="polyline" opacity="0.5" stroke="blue" points="215.04726903418083,140.15682114627535 239.65887152056155,68.91127063398906 "/><polyline class="polyline" opacity="0.5" stroke="blue" points="215.75041834720403,141.01659711735596 242.0217173628883,70.53741521545126 "/><polyline class="polyline" opacity="0.5" stroke="blue" points="216.44898411448594,141.9083211889907 244.3783604322983,72.25034178428254 "/><polyline class="polyline" opacity="0.5" stroke="blue" points="217.1425442856475,142.83169273869294 246.72694828730687,74.0493584449349 "/><polyline class="polyline" opacity="0.5" stroke="blue" points="217.83067547139837,143.7863851642107 249.06560112192489,75.93364031493188 "/><polyline class="polyline" opacity="0.5" stroke="blue" points="218.51295335292895,144.77204573058182 251.39241517212815,77.90222756184117 "/><polyline class="polyline" opacity="0.5" stroke="blue" points="219.18895310306715,145.78829545440558 253.7054663243502,79.95402382578325 "/><polyline class="polyline" opacity="0.5" stroke="blue" points="219.8582498185836,146.8347290266666 256.00281391689623,82.08779505076107 "/><polyline class="polyline" opacity="0.5" stroke="blue" points="220.5204189629753,147.91091477537324 258.28250472352823,84.30216874652703 "/><polyline class="polyline" opacity="0.5" stroke="blue" points="221.17503681900504,149.01639466918945 260.5425771068296,86.5956337008782 "/><polyline class="polyline" opacity="0.5" stroke="blue" points="221.82168095022303,150.1506843631504 262.7810653273371,88.96654016019458 "/><polyline class="polyline" opacity="0.5" stroke="blue" points="222.4599306706455,151.31327328745425 264.99600399285396,91.4131004937109 "/><polyline class="polyline" opacity="0.5" stroke="blue" points="223.08936752171823,152.50362478021947 267.185432630837,93.93339035445752 "/><polyline class="polyline" opacity="0.5" stroke="blue" points="223.7095757556442,153.72117626498525 269.34740036531787,96.52535034703061 "/><polyline class="polyline" opacity="0.5" stroke="blue" points="224.32014282411214,154.9653394736162 271.47997067847615,99.18678820938314 "/><polyline class="polyline" opacity="0.5" stroke="blue" points="224.9206598714183,156.23550071514876 273.58122623575935,101.91538151267912 "/><polyline class="polyline" opacity="0.5" stroke="blue" points="225.5107222309372,157.53102119098725 275.649273752358,104.70868087995603 "/><polyline class="polyline" opacity="0.5" stroke="blue" points="226.0899299238582,158.85123735672448 277.68224887790456,107.5641137209263 "/><polyline class="polyline" opacity="0.5" stroke="blue" points="226.65788815907428,160.19546133072066 279.6783210754975,110.47898847673945 "/><polyline class="polyline" opacity="0.5" stroke="blue" points="227.21420783307872,161.56298134943376 281.63569847055925,113.45049936496994 "/><polyline class="polyline" opacity="0.5" stroke="blue" points="227.7585060287003,162.9530622693447 283.552632644645,116.4757316115174 "/><polyline class="polyline" opacity="0.5" stroke="blue" points="228.29040651148708,164.3649461151741 285.4274233491216,119.55166715254852 "/><polyline class="polyline" opacity="0.5" stroke="blue" points="228.80954022253087,165.79785267393217 287.2584231136613,122.6751907861138 "/><polyline class="polyline" opacity="0.5" stroke="blue" points="229.31554576651294,167.25098013419296 289.0440417247241,125.84309674967187 "/><polyline class="polyline" opacity="0.5" stroke="blue" points="229.80806989374338,168.7235057698266 290.78275054966167,129.0520956964919 "/><polyline class="polyline" opacity="0.5" stroke="blue" points="230.2867679749635,170.21458666727165 292.4730866827455,132.29882204081935 "/><polyline class="polyline" opacity="0.5" stroke="blue" points="230.75130446768313,171.72336049527382 294.1136568903135,135.5798416388142 "/><polyline class="polyline" opacity="0.5" stroke="blue" points="231.20135337283136,173.24894631586665 295.7031413333249,138.8916597696463 "/><polyline class="polyline" opacity="0.5" stroke="blue" points="231.6365986805121,174.79044543521906 297.24029704691327,142.23072937877825 "/><polyline class="polyline" opacity="0.5" stroke="blue" points="232.05673480367201,176.34694229282854 298.7239611580151,145.59345954342984 "/><polyline class="polyline" opacity="0.5" stroke="blue" points="232.4614669985126,177.91750538739586 300.15305382381086,148.97622411850438 "/><polyline class="polyline" opacity="0.5" stroke="blue" points="232.85051177050428,179.5011882375795 301.52658087553675,152.37537051990188 "/><polyline class="polyline" opacity="0.5" stroke="blue" points="233.22359726489367,181.09703037569525 302.84363615418204,155.78722860115354 "/><polyline class="polyline" opacity="0.5" stroke="blue" points="233.58046364063372,182.70405837230072 304.1034035266604,159.208119578708 "/><polyline class="polyline" opacity="0.5" stroke="blue" points="233.92086342670697,184.32128688948566 305.3051585732175,162.63436496097358 "/><polyline class="polyline" opacity="0.5" stroke="blue" points="234.24456185986134,185.94771976057675 306.4482699390751,166.06229543639068 "/><polyline class="polyline" opacity="0.5" stroke="blue" points="234.55133720282822,187.5823510938639 307.53220034560263,169.48825967635727 "/><polyline class="polyline" opacity="0.5" stroke="blue" points="234.8409810421497,189.22416639786022 308.55650725861824,172.908633009756 "/><polyline class="polyline" opacity="0.5" stroke="blue" points="235.1132985648001,190.87214372552359 309.5208432137274,176.31982592711873 "/><polyline class="polyline" opacity="0.5" stroke="blue" points="235.36810881285254,192.5252548347942 310.42495580089053,179.7182923740943 "/><polyline class="polyline" opacity="0.5" stroke="blue" points="235.60524491550728,194.18246636273778 311.2686873126356,183.10053779583555 "/><polyline class="polyline" opacity="0.5" stroke="blue" points="235.8245542978689,195.8427410105317 312.0519740624918,186.46312689616778 "/><polyline class="polyline" opacity="0.5" stroke="blue" points="236.0258988659325,197.50503873648987 312.7748453822727,189.80269107791054 "/><polyline class="polyline" opacity="0.5" stroke="blue" points="236.20915516731503,199.16831795429133 313.43742230878763,193.11593553346717 "/><polyline class="polyline" opacity="0.5" stroke="blue" points="236.37421452734418,200.83153673356023 314.0399159723653,196.39964595773944 "/><polyline class="polyline" opacity="0.5" stroke="blue" points="236.5209831601972,202.49365399993656 314.5826257012378,199.650694858526 "/><polyline class="polyline" opacity="0.5" stroke="blue" points="236.649382254862,204.15363073178312 315.0659368573334,202.86604744279302 "/><polyline class="polyline" opacity="0.5" stroke="blue" points="236.75934803577303,205.81043115069104 315.4903184203527,206.04276706052258 "/><polyline class="polyline" opacity="0.5" stroke="blue" points="236.85083179805792,207.46302390297336 315.8563203381531,209.17802019120936 "/><polyline class="polyline" opacity="0.5" stroke="blue" points="236.9237999174093,209.11038322937748 316.164570662423,212.2690809614584 "/><polyline class="polyline" opacity="0.5" stroke="blue" points="236.9782338346798,210.75149012029758 316.4157724894036,215.31333518549684 "/><polyline class="polyline" opacity="0.5" stroke="blue" points="237.0141300153766,212.38533345382947 316.6107007259978,218.30828392371487 "/><polyline class="polyline" opacity="0.5" stroke="blue" points="237.03149988431056,214.01091111408394 316.7501987019973,221.25154655757365 "/><polyline class="polyline" opacity="0.5" stroke="blue" points="237.0303697357338,215.6272310872553 316.83517464937586,224.14086338231817 "/><polyline class="polyline" opacity="0.5" stroke="blue" points="237.01078061937176,217.23331253303536 316.86659806962666,226.97409772189968 "/><polyline class="polyline" opacity="0.5" stroke="blue" points="236.97278820283097,218.82818682906228 316.8454960099873,229.74923757330734 "/><polyline class="polyline" opacity="0.5" stroke="blue" points="236.91646261093243,220.41089858620342 316.7729492691029,232.46439679012863 "/><polyline class="polyline" opacity="0.5" stroke="blue" points="236.84188824258672,221.98050663258852 316.65008855223,235.1178158175698 "/><polyline class="polyline" opacity="0.5" stroke="blue" points="236.749163565892,223.53608496443147 316.4780905955092,237.70786199337124 "/><polyline class="polyline" opacity="0.5" stroke="blue" points="236.6384008921939,225.07672366181086 316.25817427812643,240.23302943103187 "/><polyline class="polyline" opacity="0.5" stroke="blue" points="236.50972612990432,226.60152976771278 315.9915967403715,242.69193850350445 "/><polyline class="polyline" opacity="0.5" stroke="blue" points="236.36327851892577,228.10962812878108 315.67964952469487,245.08333494704172 "/><polyline class="polyline" opacity="0.5" stroke="blue" points="236.1992103465771,229.60016219636273 315.3236547558736,247.40608860615367 "/><polyline class="polyline" opacity="0.5" stroke="blue" points="236.01768664595926,231.0722947865837 314.92496137534016,249.6591918416888 "/><polyline class="polyline" opacity="0.5" stroke="blue" points="235.818884877737,232.52520879834017 314.4849414436227,251.8417576248755 "/><polyline class="polyline" opacity="0.5" stroke="blue" points="235.60299459634857,233.9581078882401 314.00498652369413,253.9530173407648 "/><polyline class="polyline" opacity="0.5" stroke="blue" points="235.37021710168233,235.37021710168233 313.4865041568587,255.9923183249089 "/><polyline class="polyline" opacity="0.5" stroke="blue" points="235.12076507728543,236.76078345941144 312.93091444161564,257.9591211573038 "/><polyline class="polyline" opacity="0.5" stroke="blue" points="234.85486221618794,238.12907649903786 312.339646724756,259.85299673763063 "/><polyline class="polyline" opacity="0.5" stroke="blue" points="234.57274283544237,239.47438877116156 311.7141364127691,261.6736231656603 "/><polyline class="polyline" opacity="0.5" stroke="blue" points="234.27465148048682,240.79603628988474 311.0558219104786,263.4207824503578 "/><polyline class="polyline" opacity="0.5" stroke="blue" points="233.96084252044736,242.0933589376435 310.366141692698,265.0943570707461 "/><polyline class="polyline" opacity="0.5" stroke="blue" points="233.6315797354954,243.3657208244287 309.6465315136038,266.6943264109842 "/><polyline class="polyline" opacity="0.5" stroke="blue" points="233.28713589737313,244.61251060160345 308.8984217574719,268.2207630913929 "/><polyline class="polyline" opacity="0.5" stroke="blue" points="232.92779234419197,245.83314173065585 308.1232349334243,269.67382921633964 "/><polyline class="polyline" opacity="0.5" stroke="blue" points="232.55383855059864,247.02705270735441 307.32238331588314,271.0537725589877 "/><polyline class="polyline" opacity="0.5" stroke="blue" points="232.1655716943867,248.19370724189218 306.4972667315396,272.3609227019372 "/><polyline class="polyline" opacity="0.5" stroke="blue" points="231.7632962206132,249.3325943957243 305.6492704928157,273.595687151751 "/><polyline class="polyline" opacity="0.5" stroke="blue" points="231.34732340425813,250.44322867591072 304.7797634770275,274.7585474442825 "/><polyline class="polyline" opacity="0.5" stroke="blue" points="230.91797091243683,251.52515008787955 303.8900963497549,275.85005525661234 "/><polyline class="polyline" opacity="0.5" stroke="blue" points="230.47556236714877,252.57792414762184 302.98159993028196,276.8708285402744 "/><polyline class="polyline" opacity="0.5" stroke="blue" points="230.0204269095136,253.60114185441785 302.0555836963948,277.8215476893159 "/><polyline class="polyline" opacity="0.5" stroke="blue" points="229.55289876641194,254.59441962527663 301.1133344253095,278.70295175560193 "/><polyline class="polyline" opacity="0.5" stroke="blue" points="229.07331682041138,255.55739919234426 300.1561149670498,279.5158347226503 "/><polyline class="polyline" opacity="0.5" stroke="blue" points="228.58202418382137,256.48974746460453 299.18516314620086,280.2610418481796 "/><polyline class="polyline" opacity="0.5" stroke="blue" points="228.07936777767944,257.391156355254 298.20169078762854,280.9394660844688 "/><polyline class="polyline" opacity="0.5" stroke="blue" points="227.56569791643108,258.2613425761874 297.2068828614739,281.5520445845839 "/><polyline class="polyline" opacity="0.5" stroke="blue" points="227.0413678990216,259.1000474010728 296.20189674250173,282.09975530151115 "/><polyline class="polyline" opacity="0.5" stroke="blue" points="226.50673360707682,259.90703639853535 295.1878615787013,282.5836136862659 "/><polyline class="polyline" opacity="0.5" stroke="blue" points="225.96215311080277,260.6820991369988 294.1658777639056,283.0046694901215 "/><polyline class="polyline" opacity="0.5" stroke="blue" points="225.40798628319192,261.425048862758 293.1370165090982,283.3640036752216 "/><polyline class="polyline" opacity="0.5" stroke="blue" points="224.844594423077,262.13572215287303 292.10231950702973,283.6627254370108 "/><polyline class="polyline" opacity="0.5" stroke="blue" points="224.27233988752957,262.8139785444881 291.0627986847436,283.90196934113567 "/><polyline class="polyline" opacity="0.5" stroke="blue" points="223.69158573405397,263.45970014218017 290.0194360386299,284.08289257674494 "/><polyline class="polyline" opacity="0.5" stroke="blue" points="223.1026953729848,264.0727912049455 288.9731835466696,284.2066723274376 "/><polyline class="polyline" opacity="0.5" stroke="blue" points="222.5060322304496,264.6531777144222 287.92496315260234,284.27450326048313 "/><polyline class="polyline" opacity="0.5" stroke="blue" points="221.9019594222169,265.20080692593734 286.87566681684643,284.2875951343651 "/><polyline class="polyline" opacity="0.5" stroke="blue" points="221.29083943870643,265.7156469039479 285.82615662911303,284.2471705241742 "/><polyline class="polyline" opacity="0.5" stroke="blue" points="220.6730338413963,266.19768604342744 284.7772649777901,284.1544626639 "/><polyline class="polyline" opacity="0.5" stroke="blue" points="220.0489029708221,266.64693257872 283.7297947713172,284.0107134042432 "/><polyline class="polyline" opacity="0.5" stroke="blue" points="219.41880566632358,267.06341408135563 282.68451970693434,283.8171712841845 "/><polyline class="polyline" opacity="0.5" stroke="blue" points="218.78309899765597,267.44717694828904 281.64218458235416,283.57508971420714 "/><polyline class="polyline" opacity="0.5" stroke="blue" points="218.14213800854702,267.798285881983 280.6035056460889,283.285725268768 "/><polyline class="polyline" opacity="0.5" stroke="blue" points="217.49627547224574,268.11682336372235 279.5691709823435,282.95033608535437 "/><polyline class="polyline" opacity="0.5" stroke="blue" points="216.84586165907496,268.40288912149873 278.5398409265788,282.57018036723554 "/><polyline class="polyline" opacity="0.5" stroke="blue" points="216.19124411596852,268.6565995937639 277.516148508034,282.1465149868314 "/><polyline class="polyline" opacity="0.5" stroke="blue" points="215.53276745794287,268.8780873903004 276.49869991569767,281.6805941864604 "/><polyline class="polyline" opacity="0.5" stroke="blue" points="214.87077317142538,269.0675007514126 275.4880749844016,281.17366837310124 "/><polyline class="polyline" opacity="0.5" stroke="blue" points="214.20559942933355,269.2250030065883 274.48482769790644,280.6269830037026 "/><polyline class="polyline" opacity="0.5" stroke="blue" points="213.53758091777536,269.3507720337328 273.48948670603824,280.04177755749686 "/><polyline class="polyline" opacity="0.5" stroke="blue" points="212.86704867421682,269.44499972002296 272.50255585311595,279.41928459172533 "/><polyline class="polyline" opacity="0.5" stroke="blue" points="212.19432993694127,269.5078914253784 271.52451471509886,278.760728877147 "/><polyline class="polyline" opacity="0.5" stroke="blue" points="211.51974800560515,269.5396654494929 270.5558191430529,278.06732660969163 "/><polyline class="polyline" opacity="0.5" stroke="blue" points="210.84362211267643,269.5405525033158 269.596901810713,277.3402846946224 "/><polyline class="polyline" opacity="0.5" stroke="blue" points="210.1662673055253,269.51079518582196 268.6481727640833,276.580800099594 "/><polyline class="polyline" opacity="0.5" stroke="blue" points="209.48799433892125,269.4506474668539 267.7100199711768,275.79005927302205 "/><polyline class="polyline" opacity="0.5" stroke="blue" points="208.8091095776783,269.3603741767696 266.78280987015415,274.9692376242295 "/><polyline class="polyline" opacity="0.5" stroke="blue" points="208.12991490917622,269.24025050357653 265.8668879142674,274.1194990618866 "/><polyline class="polyline" opacity="0.5" stroke="blue" points="207.45070766547715,269.0905614981831 264.9625791121574,273.24199558732937 "/><polyline class="polyline" opacity="0.5" stroke="blue" points="206.7717805547465,268.91160158834685 264.07018856219054,272.33786693941124 "/><polyline class="polyline" opacity="0.5" stroke="blue" points="206.09342160167986,268.70367410185327 263.19000197964726,271.4082402876236 "/><polyline class="polyline" opacity="0.5" stroke="blue" points="205.41591409663098,268.4670907994076 262.3222862157011,270.4542299703023 "/><polyline class="polyline" opacity="0.5" stroke="blue" points="204.73953655313122,268.20217141767944 261.4672897672394,269.47693727483073 "/><polyline class="polyline" opacity="0.5" stroke="blue" points="204.06456267348605,267.90924322289317 260.62524327668916,268.4774502568349 "/><polyline class="polyline" opacity="0.5" stroke="blue" points="203.39126132213218,267.5886405753133 259.796360021117,267.4568435954694 "/><polyline class="polyline" opacity="0.5" stroke="blue" points="202.7198965064366,267.2407045049347 258.98083638996485,266.41617848198234 "/><polyline class="polyline" opacity="0.5" stroke="blue" points="202.050727364618,266.86578229864335 258.178852350881,265.3565025388496 "/><polyline class="polyline" opacity="0.5" stroke="blue" points="201.3840081604715,266.46422709907927 257.39057190318846,264.27884976686573 "/><polyline class="polyline" opacity="0.5" stroke="blue" points="200.71998828457816,266.03639751539095 256.61614351861476,263.1842405176776 "/><polyline class="polyline" opacity="0.5" stroke="blue" points="200.05891226168333,265.58265724604075 255.85570056898484,262.0736814893452 "/><polyline class="polyline" opacity="0.5" stroke="blue" points="199.40101976392924,265.10337471378216 255.10936174064585,260.94816574261074 "/><polyline class="polyline" opacity="0.5" stroke="blue" points="198.74654562963184,264.59892271290124 254.3772314354624,259.80867273565497 "/><polyline class="polyline" opacity="0.5" stroke="blue" points="198.0957198872947,264.0696780687825 253.65940015828045,258.6561683752129 "/><polyline class="polyline" opacity="0.5" stroke="blue" points="197.44876778455776,263.51602130983065 252.95594489081566,257.491605082015 "/><polyline class="polyline" opacity="0.5" stroke="blue" points="196.8059098217837,262.9383363517544 252.26692945197524,256.31592186861036 "/><polyline class="polyline" opacity="0.5" stroke="blue" points="196.16736178998968,262.33701019419095 251.592404844673,255.13004442772083 "/><polyline class="polyline" opacity="0.5" stroke="blue" points="195.5333348128388,261.71243262962673 250.93240958924108,253.9348852293561 "/><polyline class="polyline" opacity="0.5" stroke="blue" points="194.90403539241066,261.0649959645496 250.28697004358636,252.73134362501133 "/><polyline class="polyline" opacity="0.5" stroke="blue" points="194.27966545847846,260.39509475274315 249.65610071027822,251.52030595734675 "/><polyline class="polyline" opacity="0.5" stroke="blue" points="193.66042242102517,259.7031255406188 249.03980453079035,250.30264567383048 "/><polyline class="polyline" opacity="0.5" stroke="blue" points="193.04649922573975,258.98948662446054 248.438073167154,249.079223442905 "/><polyline class="polyline" opacity="0.5" stroke="blue" points="192.4380844122406,258.25457781944226 247.85088727131046,247.85088727131046 "/><polyline class="polyline" opacity="0.5" stroke="blue" points="191.83536217478135,257.49880024026277 247.27821674248014,246.6184726212741 "/><polyline class="polyline" opacity="0.5" stroke="blue" points="191.238512425201,256.72255609322883 246.72002097289112,245.3828025263448 "/><polyline class="polyline" opacity="0.5" stroke="blue" points="190.64771085788874,255.92624847960585 246.17624908223576,244.14468770472084 "/><polyline class="polyline" opacity="0.5" stroke="blue" points="190.06312901654036,255.11028121004227 245.6468401412461,242.90492666898672 "/><polyline class="polyline" opacity="0.5" stroke="blue" points="189.48493436249163,254.27505862986658 245.13172338479941,241.66430583123844 "/><polyline class="polyline" opacity="0.5" stroke="blue" points="188.91329034442117,253.4209854550443 244.63081841498519,240.4235996026418 "/><polyline class="polyline" opacity="0.5" stroke="blue" points="188.3483564692228,252.54846661857593 244.1440353945817,239.183570486528 "/><polyline class="polyline" opacity="0.5" stroke="blue" points="187.7902883738552,251.6579071271094 243.6712752314076,237.94496916419186 "/><polyline class="polyline" opacity="0.5" stroke="blue" points="187.23923789798377,250.7497119275346 243.21242975402828,236.70853457261535 "/><polyline class="polyline" opacity="0.5" stroke="blue" points="186.69535315723724,249.82428578332218 242.76738187931048,235.47499397339732 "/><polyline class="polyline" opacity="0.5" stroke="blue" points="186.15877861690842,248.88203316036572 242.33600577233187,234.24506301222561 "/><polyline class="polyline" opacity="0.5" stroke="blue" points="185.62965516593593,247.92335812208074 241.91816699916296,233.01944576828222 "/><polyline class="polyline" opacity="0.5" stroke="blue" points="185.1081201910102,246.9486642335132 241.5137226730501,231.79883479302651 "/><polyline class="polyline" opacity="0.5" stroke="blue" points="184.5943076506545,245.95835447420762 241.12252159453675,230.5839111378549 "/><polyline class="polyline" opacity="0.5" stroke="blue" points="184.0883481491377,244.95283115958173 240.74440438606976,229.37534437018664 "/><polyline class="polyline" opacity="0.5" stroke="blue" points="183.59036901008196,243.93249587055644 240.37920362164397,228.1737925775782 "/><polyline class="polyline" opacity="0.5" stroke="blue" points="183.10049434963577,242.89774939118746 240.02674395204602,226.97990235952045 "/><polyline class="polyline" opacity="0.5" stroke="blue" points="182.61884514908712,241.84899165404542 239.6868422262635,225.79430880662233 "/><polyline class="polyline" opacity="0.5" stroke="blue" points="182.14553932679905,240.78662169309266 239.3593076096301,224.6176354669378 "/><polyline class="polyline" opacity="0.5" stroke="blue" points="181.68069180935473,239.71103760380458 239.04394169928236,223.4504942992417 "/><polyline class="polyline" opacity="0.5" stroke="blue" points="181.22441460180454,238.622636510286 238.7405386375057,222.29348561311303 "/><polyline class="polyline" opacity="0.5" stroke="blue" points="180.77681685691343,237.5218145391332 238.44888522354984,221.14719799573285 "/><polyline class="polyline" opacity="0.5" stroke="blue" points="180.3380049433116,236.40896679979613 238.1687610244949,220.01220822535737 "/><polyline class="polyline" opacity="0.5" stroke="blue" points="179.90808251245625,235.28448737119473 237.89993848574994,218.8890811714764 "/><polyline class="polyline" opacity="0.5" stroke="blue" points="179.48715056431712,234.14876929434863 237.6421830417632,217.77836968172022 "/><polyline class="polyline" opacity="0.5" stroke="blue" points="179.07530751170268,233.00220457077978 237.39525322752365,216.68061445562893 "/><polyline class="polyline" opacity="0.5" stroke="blue" points="178.67264924314847,231.84518416645125 237.15890079142906,215.59634390545165 "/><polyline class="polyline" opacity="0.5" stroke="blue" points="178.27926918429253,230.67809802100817 236.9328708100901,214.52607400419492 "/><polyline class="polyline" opacity="0.5" stroke="blue" points="177.8952583576673,229.50133506208968 236.71690180563792,213.47030812119306 "/><polyline class="polyline" opacity="0.5" stroke="blue" points="177.52070544084066,228.31528322448315 236.51072586609234,212.4295368455266 "/><polyline class="polyline" opacity="0.5" stroke="blue" points="177.1556968228424,227.1203294738963 236.31406876934147,211.40423779766954 "/><polyline class="polyline" opacity="0.5" stroke="blue" points="176.8003166588155,225.9168598351242 236.12665011127368,210.39487542979873 "/><polyline class="polyline" opacity="0.5" stroke="blue" points="176.45464692283488,224.70525942439238 235.9481834385913,209.40190081525418 "/><polyline class="polyline" opacity="0.5" stroke="blue" points="176.1187674588392,223.48591248565984 235.77837638682348,208.42575142769408 "/><polyline class="polyline" opacity="0.5" stroke="blue" points="175.7927560296237,222.2592024306688 235.61693082404116,207.466850910541 "/><polyline class="polyline" opacity="0.5" stroke="blue" points="175.47668836384528,221.02551188253076 235.4635430007604,206.52560883737266 "/><polyline class="polyline" opacity="0.5" stroke="blue" points="175.17063820099278,219.78522272264158 235.31790370650498,205.6024204639629 "/><polyline class="polyline" opacity="0.5" stroke="blue" points="174.87467733427786,218.53871614072048 235.17969843347726,204.69766647273417 "/><polyline class="polyline" opacity="0.5" stroke="blue" points="174.58887565140444,217.28637268777123 235.04860754776723,203.81171271043544 "/><polyline class="polyline" opacity="0.5" stroke="blue" points="174.31330117317628,216.02857233176567 234.92430646850553,202.94490991991265 "/><polyline class="polyline" opacity="0.5" stroke="blue" points="174.0480200899037,214.7656945158521 234.80646585534237,202.09759346689108 "/><polyline class="polyline" opacity="0.5" stroke="blue" points="173.79309679557323,213.4981182188936 234.69475180460654,201.27008306273973 "/><polyline class="polyline" opacity="0.5" stroke="blue" points="173.54859391974452,212.22622201814346 234.58882605447124,200.46268248423743 "/><polyline class="polyline" opacity="0.5" stroke="blue" points="173.31457235714117,210.95038415386588 234.48834619942193,199.67567929140938 "/><polyline class="polyline" opacity="0.5" stroke="blue" points="173.09109129490272,209.67098259571318 234.39296591428993,198.90934454454816 "/><polyline class="polyline" opacity="0.5" stroke="blue" points="172.87820823746725,208.3883951106707 234.3023351880803,198.16393252157775 "/><polyline class="polyline" opacity="0.5" stroke="blue" points="172.67597902905442,207.10299933238394 234.21610056778673,197.4396804369626 "/><polyline class="polyline" opacity="0.5" stroke="blue" points="172.48445787372037,205.81517283168068 234.13390541234833,196.73680816340075 "/><polyline class="polyline" opacity="0.5" stroke="blue" points="172.303697352957,204.5252931881054 234.0553901568632,196.05551795757924 "/><polyline class="polyline" opacity="0.5" stroke="blue" points="172.13374844080874,203.23373806227994 233.9801925871317,195.39599419130053 "/><polyline class="polyline" opacity="0.5" stroke="blue" points="171.97466051648135,201.94088526890926 233.9079481245595,194.75840308932155 "/><polyline class="polyline" opacity="0.5" stroke="blue" points="171.8264813744177,200.64711285024651 233.83829012140671,194.14289247527037 "/><polyline class="polyline" opacity="0.5" stroke="blue" points="171.68925723181707,199.35279914983678 233.7708501663206,193.54959152702924 "/><polyline class="polyline" opacity="0.5" stroke="blue" points="171.56303273357392,198.05832288635457 233.70525840004547,192.97861054298943 "/><polyline class="polyline" opacity="0.5" stroke="blue" points="171.44785095461503,196.76406322735144 233.64114384115098,192.4300407205963 "/><polyline class="polyline" opacity="0.5" stroke="blue" points="171.34375339961235,195.4703998627305 233.57813472157383,191.90395394861156 "/><polyline class="polyline" opacity="0.5" stroke="blue" points="171.2507800000515,194.1777130777612 233.51585883171472,191.4004026145214 "/><polyline class="polyline" opacity="0.5" stroke="blue" points="171.1689691086356,192.8863838254495 233.4539438747826,190.91941942851716 "/><polyline class="polyline" opacity="0.5" stroke="blue" points="171.09835749100552,191.5967937980747 233.39201783002682,190.46101726546644 "/><polyline class="polyline" opacity="0.5" stroke="blue" points="171.0389803147579,190.30932549770506 233.32970932444508,190.02518902627824 "/><polyline class="polyline" opacity="0.5" stroke="blue" points="170.99087113574373,189.02436230550032 233.2666480125041,189.61190752004435 "/><polyline class="polyline" opacity="0.5" stroke="blue" points="170.9540618816306,187.74228854961015 233.20246496335807,189.22112536831438 "/><polyline class="polyline" opacity="0.5" stroke="blue" points="170.92858283271335,186.46348957147165 233.13679305499892,188.85277493282535 "/><polyline class="polyline" opacity="0.5" stroke="blue" points="170.91446259995783,185.18835179031103 233.0692673747222,188.5067682679707 "/><polyline class="polyline" opacity="0.5" stroke="blue" points="170.91172810026524,183.91726276564833 232.99952562524348,188.18299709924375 "/><polyline class="polyline" opacity="0.5" stroke="blue" points="170.92040452894318,182.65061125760377 232.9272085357518,187.8813328288399 "/><polyline class="polyline" opacity="0.5" stroke="blue" points="170.9405153293737,181.3887872848011 232.85196027714028,187.6016265695414 "/><polyline class="polyline" opacity="0.5" stroke="blue" points="170.97208215986737,180.1321821796583 232.77342888061148,187.34370920794177 "/><polyline class="polyline" opacity="0.5" stroke="blue" points="171.0151248576956,178.8811886408564 232.6912666588094,187.10739149799576 "/><polyline class="polyline" opacity="0.5" stroke="blue" points="171.06966140029428,177.63620078277057 232.60513062859437,186.89246418579972 "/><polyline class="polyline" opacity="0.5" stroke="blue" points="171.13570786363314,176.3976141816463 232.51468293453712,186.69869816642435 "/><polyline class="polyline" opacity="0.5" stroke="blue" points="171.21327837774842,175.16582591829862 232.41959127217578,186.52584467352838 "/><polyline class="polyline" opacity="0.5" stroke="blue" points="171.30238507943662,173.94123461711033 232.31952931004923,186.3736355023872 "/><polyline class="polyline" opacity="0.5" stroke="blue" points="171.40303806211074,172.72424048109892 232.2141771094918,186.2417832668668 "/><polyline class="polyline" opacity="0.5" stroke="blue" points="171.5152453228219,171.5152453228219 232.10322154115323,186.12998169076738 "/><polyline class="polyline" opacity="0.5" stroke="blue" points="171.63901270645204,170.31465259088205 231.9863566971869,186.0379059338492 "/><polyline class="polyline" opacity="0.5" stroke="blue" points="171.77434384708607,169.12286739179376 231.86328429803504,185.96521295273743 "/><polyline class="polyline" opacity="0.5" stroke="blue" points="171.9212401065746,167.94029650696675 231.73371409273005,185.91154189678443 "/><polyline class="polyline" opacity="0.5" stroke="blue" points="172.0797005103015,166.76734840455887 231.59736425162356,185.87651453884462 "/><polyline class="polyline" opacity="0.5" stroke="blue" points="172.24972168017405,165.60443324594672 231.45396175045556,185.8597357407938 "/><polyline class="polyline" opacity="0.5" stroke="blue" points="172.43129776485685,164.4519628865596 231.30324274467853,185.86079395349705 "/><polyline class="polyline" opacity="0.5" stroke="blue" points="172.6244203672742,163.31035087081813 231.14495293296108,185.8792617508028 "/><polyline class="polyline" opacity="0.5" stroke="blue" points="172.82907846941043,162.18001242091472 230.97884790880897,185.91469639701182 "/><polyline class="polyline" opacity="0.5" stroke="blue" points="173.04525835444048,161.06136441917272 230.8046934992601,185.96664044714174 "/><polyline class="polyline" opacity="0.5" stroke="blue" points="173.27294352623016,159.95482538371397 230.622266089635,186.03462237918123 "/><polyline class="polyline" opacity="0.5" stroke="blue" points="173.51211462624727,158.86081543716583 230.43135293335155,186.11815725740124 "/><polyline class="polyline" opacity="0.5" stroke="blue" points="173.76274934793196,157.77975626813245 230.2317524458484,186.2167474256677 "/><polyline class="polyline" opacity="0.5" stroke="blue" points="174.02482234858005,156.7120710851571 230.02327448169828,186.32988322957988 "/><polyline class="polyline" opacity="0.5" stroke="blue" points="174.29830515879752,155.65818456289583 229.8057405940371,186.45704376614106 "/><polyline class="polyline" opacity="0.5" stroke="blue" points="174.5831660895912,154.61852278022545 229.57898427548218,186.5976976595556 "/><polyline class="polyline" opacity="0.5" stroke="blue" points="174.87937013716785,153.59351315000552 229.34285117976447,186.75130386163974 "/><polyline class="polyline" opacity="0.5" stroke="blue" points="175.18687888551818,152.58358434021477 229.097199323356,186.91731247523052 "/><polyline class="polyline" opacity="0.5" stroke="blue" points="175.50565040687184,151.58916618618053 228.84189926643435,187.09516559888158 "/><polyline class="polyline" opacity="0.5" stroke="blue" points="175.8356391601152,150.61068959362393 228.57683427258817,187.28429819104701 "/><polyline class="polyline" opacity="0.5" stroke="blue" points="176.17679588727117,149.64858643224113 228.30190044673463,187.48413895187068 "/><polyline class="polyline" opacity="0.5" stroke="blue" points="176.52906750814995,148.70328941954506 228.0170068507897,187.69411122062706 "/><polyline class="polyline" opacity="0.5" stroke="blue" points="176.89239701328532,147.77523199469465 227.7220755967021,187.91363388679255 "/><polyline class="polyline" opacity="0.5" stroke="blue" points="177.2667233552821,146.8648481820415 227.4170419165378,188.1421223126706 "/><polyline class="polyline" opacity="0.5" stroke="blue" points="177.65198133870743,145.9725724441288 227.10185420937495,188.37898926544574 "/><polyline class="polyline" opacity="0.5" stroke="blue" points="178.0481015086691,145.09883952388233 226.77647406484698,188.62364585650354 "/><polyline class="polyline" opacity="0.5" stroke="blue" points="178.4550100382323,144.2440842757403 226.44087626324895,188.87550248582443 "/><polyline class="polyline" opacity="0.5" stroke="blue" points="178.87262861483742,143.40874148547448 226.09504875219926,189.13396978924027 "/><polyline class="polyline" opacity="0.5" stroke="blue" points="179.30087432589025,142.59324567846696 225.73899259992655,189.39845958633296 "/><polyline class="polyline" opacity="0.5" stroke="blue" points="179.73965954370738,141.79803091621105 225.3727219253288,189.66838582675433 "/><polyline class="polyline" opacity="0.5" stroke="blue" points="180.188891810009,141.02353058082184 224.9962638050282,189.94316553275706 "/><polyline class="polyline" opacity="0.5" stroke="blue" points="180.64847372016385,140.2701771473486 224.60965815771863,190.222219735745 "/><polyline class="polyline" opacity="0.5" stroke="blue" points="181.11830280739946,139.53840194369786 224.21295760617735,190.50497440468067 "/><polyline class="polyline" opacity="0.5" stroke="blue" points="181.5982714272056,138.82863489799 223.80622731738188,190.79086136422526 "/><polyline class="polyline" opacity="0.5" stroke="blue" points="182.0882666421666,138.1413042731876 223.3895448212415,191.07931920053383 "/><polyline class="polyline" opacity="0.5" stroke="blue" points="182.58817010747205,137.47683638885178 222.96299980851944,191.36979415268206 "/><polyline class="polyline" opacity="0.5" stroke="blue" points="183.09785795736695,136.83565532990377 222.52669390858136,191.66174098776636 "/><polyline class="polyline" opacity="0.5" stroke="blue" points="183.61720069281222,136.21818264228648 222.08074044766732,191.95462385778748 "/><polyline class="polyline" opacity="0.5" stroke="blue" points="184.14606307064068,135.62483701544608 221.62526418843603,192.24791713650794 "/><polyline class="polyline" opacity="0.5" stroke="blue" points="184.68430399450332,135.0560339515767 221.16040105158424,192.54110623455537 "/><polyline class="polyline" opacity="0.5" stroke="blue" points="185.2317764079138,134.5121854215974 220.68629782038695,192.83368839113692 "/><polyline class="polyline" opacity="0.5" stroke="blue" points="185.7883271897091,133.9936995078575 220.20311182904953,193.1251734408223 "/><polyline class="polyline" opacity="0.5" stroke="blue" points="186.3537970522577,133.50098003359716 219.7110106357972,193.41508455395612 "/><polyline class="polyline" opacity="0.5" stroke="blue" points="186.92802044275552,133.03442617921954 219.21017168166236,193.70295894936186 "/><polyline class="polyline" opacity="0.5" stroke="blue" points="187.51082544796282,132.59443208546583 218.70078193595575,193.9883485781091 "/><polyline class="polyline" opacity="0.5" stroke="blue" points="188.1020337027444,132.1813864436171 218.18303752943336,194.27082077722417 "/><polyline class="polyline" opacity="0.5" stroke="blue" points="188.7014603027868,131.79567207288525 217.65714337618516,194.54995889233763 "/><polyline class="polyline" opacity="0.5" stroke="blue" points="189.30891372187435,131.43766548519355 217.12331278528904,194.82536286837424 "/><polyline class="polyline" opacity="0.5" stroke="blue" points="189.92419573411723,131.10773643758552 216.58176706327833,195.09664980750557 "/><polyline class="polyline" opacity="0.5" stroke="blue" points="190.54710134153137,130.80624747254637 216.032735108477,195.3634544936986 "/><polyline class="polyline" opacity="0.5" stroke="blue" points="191.1774187073788,130.5335534465616 215.4764529982554,195.6254298833072 "/><polyline class="polyline" opacity="0.5" stroke="blue" points="191.81492909568442,130.29000104728402 214.91316357025258,195.88224756126425 "/><polyline class="polyline" opacity="0.5" stroke="blue" points="192.459406817351,130.0759282997284 214.34311599860317,196.13359816254282 "/><polyline class="polyline" opacity="0.5" stroke="blue" points="193.11061918329955,129.8916640619593 213.76656536619177,196.3791917586612 "/><polyline class="polyline" opacity="0.5" stroke="blue" points="193.76832646506674,129.73752751078877 213.18377223394037,196.61875820911067 "/><polyline class="polyline" opacity="0.5" stroke="blue" points="194.43228186329497,129.61382761805237 212.59500220811222,196.85204747768674 "/><polyline class="polyline" opacity="0.5" stroke="blue" points="195.10223148455114,129.52086261808267 212.00052550659083,197.07882991379915 "/><polyline class="polyline" opacity="0.5" stroke="blue" points="195.77791432691257,129.45891946705416 211.40061652506435,197.29889649892993 "/><polyline class="polyline" opacity="0.5" stroke="blue" points="196.45906227475731,129.42827329492792 210.7955534040143,197.5120590584951 "/><polyline class="polyline" opacity="0.5" stroke="blue" points="197.14540010319385,129.42918685077854 210.18561759737264,197.7181504394484 "/><polyline class="polyline" opacity="0.5" stroke="blue" points="197.8366454925621,129.46190994234246 209.5710934436769,197.91702465404202 "/><polyline class="polyline" opacity="0.5" stroke="blue" points="198.53250905343248,129.52667887068287 208.9522677405113,198.10855699023054 "/><polyline class="polyline" opacity="0.5" stroke="blue" points="199.23269436252224,129.6237158609223 208.32942932298494,198.29264408926986 "/><polyline class="polyline" opacity="0.5" stroke="blue" points="199.93689800994065,129.7532284900504 207.70286864695254,198.46920399112167 "/><polyline class="polyline" opacity="0.5" stroke="blue" points="200.64480965816367,129.91540911287038 207.072877377643,198.63817614832837 "/><polyline class="polyline" opacity="0.5" stroke="blue" points="201.35611211312568,130.11043428720336 206.43974798431458,198.7995214090688 "/><polyline class="polyline" opacity="0.5" stroke="blue" points="202.07048140780327,130.3384641995236 205.8037733415115,198.95322197014755 "/><polyline class="polyline" opacity="0.5" stroke="blue" points="202.787586898647,130.59964209225183 205.1652463374513,199.0992813007042 "/><polyline class="polyline" opacity="0.5" stroke="blue" points="203.50709137520158,130.8940936939859 204.52445949002606,199.23772403745758 "/><polyline class="polyline" opacity="0.5" stroke="blue" points="204.22865118323148,131.22192665399768 203.88170457085593,199.36859585232295 "/><polyline class="polyline" opacity="0.5" stroke="blue" points="204.95191636164787,131.58322998237435 203.23727223778658,199.49196329325582 "/><polyline class="polyline" opacity="0.5" stroke="blue" points="205.6765307935074,131.97807349722711 202.59145167617964,199.60791359918719 "/><polyline class="polyline" opacity="0.5" stroke="blue" points="206.4021323713255,132.40650728043542 201.9445302492989,199.71655448991982 "/><polyline class="polyline" opacity="0.5" stroke="blue" points="207.12835317691818,132.868561143432 201.2967931580536,199.81801393185486 "/><polyline class="polyline" opacity="0.5" stroke="blue" points="207.85481967595433,133.3642441045746 200.64852311031711,199.91243988041262 "/><polyline class="polyline" opacity="0.5" stroke="blue" points="208.5811529273661,133.8935438796795 200.0,200.0 "/><polyline class="polyline" opacity="0.5" stroke="blue" points="209.30696880773053,134.45642638732397 199.35150059601528,200.0808813623635 "/><polyline class="polyline" opacity="0.5" stroke="blue" points="210.03187825069548,135.05283527054766 198.70329824123797,200.15529012414495 "/><polyline class="polyline" opacity="0.5" stroke="blue" points="210.75548750148386,135.68269143660225 198.05566256152494,200.2234511844354 "/><polyline class="polyline" opacity="0.5" stroke="blue" points="211.4773983864686,136.34589261641503 197.4088591848252,200.28560782309341 "/><polyline class="polyline" opacity="0.5" stroke="blue" points="212.19720859776518,137.0423129454391 196.76314947038188,200.34202132056492 "/><polyline class="polyline" opacity="0.5" stroke="blue" points="212.91451199274474,137.77180256756776 196.11879024799393,200.39297055990545 "/><polyline class="polyline" opacity="0.5" stroke="blue" points="213.62889890832125,138.5341872637862 195.47603356728024,200.4387516116712 "/><polyline class="polyline" opacity="0.5" stroke="blue" points="214.33995648981988,139.3292681072268 194.83512645686127,200.4796773023039 "/><polyline class="polyline" opacity="0.5" stroke="blue" points="215.0472690341808,140.15682114627526 194.1963106933513,200.51607676659506 "/><polyline class="polyline" opacity="0.5" stroke="blue" points="215.750418347204,141.01659711735593 193.55982258003127,200.54829498476994 "/><polyline class="polyline" opacity="0.5" stroke="blue" points="216.44898411448588,141.9083211889906 192.92589273505558,200.57669230468971 "/><polyline class="polyline" opacity="0.5" stroke="blue" points="217.14254428564746,142.83169273869294 192.29474588902664,200.60164394962212 "/><polyline class="polyline" opacity="0.5" stroke="blue" points="217.8306754713983,143.78638516421069 191.66660069175933,200.62353951198716 "/><polyline class="polyline" opacity="0.5" stroke="blue" points="218.5129533529289,144.77204573058177 191.04166952804263,200.64278243343568 "/><polyline class="polyline" opacity="0.5" stroke="blue" points="219.18895310306712,145.78829545440553 190.42015834219794,200.6597894715741 "/><polyline class="polyline" opacity="0.5" stroke="blue" points="219.85824981858354,146.83472902666654 189.80226647122447,200.6749901536013 "/><polyline class="polyline" opacity="0.5" stroke="blue" points="220.52041896297527,147.91091477537316 189.18818648631685,200.6888262170783 "/><polyline class="polyline" opacity="0.5" stroke="blue" points="221.17503681900502,149.0163946691894 188.5781040425372,200.70175103800753 "/><polyline class="polyline" opacity="0.5" stroke="blue" points="221.821680950223,150.15068436315033 187.9721977364215,200.71422904635517 "/><polyline class="polyline" opacity="0.5" stroke="blue" points="222.45993067064546,151.3132732874542 187.37063897130216,200.72673512910796 "/><polyline class="polyline" opacity="0.5" stroke="blue" points="223.0893675217182,152.5036247802194 186.77359183013004,200.73975402091793 "/><polyline class="polyline" opacity="0.5" stroke="blue" points="223.70957575564418,153.72117626498516 186.1812129555851,200.75377968234997 "/><polyline class="polyline" opacity="0.5" stroke="blue" points="224.3201428241121,154.96533947361618 185.59365143726953,200.7693146657138 "/><polyline class="polyline" opacity="0.5" stroke="blue" points="224.92065987141828,156.23550071514867 185.01104870578794,200.78686946842967 "/><polyline class="polyline" opacity="0.5" stroke="blue" points="225.5107222309372,157.5310211909872 184.43353843352665,200.80696187384873 "/><polyline class="polyline" opacity="0.5" stroke="blue" points="226.08992992385816,158.85123735672437 183.86124644195687,200.83011627942506 "/><polyline class="polyline" opacity="0.5" stroke="blue" points="226.65788815907428,160.19546133072063 183.29429061529993,200.85686301211356 "/><polyline class="polyline" opacity="0.5" stroke="blue" points="227.2142078330787,161.56298134943367 182.7327808204062,200.88773763085274 "/><polyline class="polyline" opacity="0.5" stroke="blue" points="227.75850602870025,162.95306226934463 182.17681883271584,200.92328021597714 "/><polyline class="polyline" opacity="0.5" stroke="blue" points="228.29040651148705,164.364946115174 181.62649826818657,200.96403464539642 "/><polyline class="polyline" opacity="0.5" stroke="blue" points="228.8095402225308,165.79785267393206 181.08190452109176,201.01054785737514 "/><polyline class="polyline" opacity="0.5" stroke="blue" points="229.3155457665129,167.25098013419287 180.54311470761107,201.0633690997478 "/><polyline class="polyline" opacity="0.5" stroke="blue" points="229.80806989374338,168.7235057698265 180.01019761515684,201.12304916541152 "/><polyline class="polyline" opacity="0.5" stroke="blue" points="230.2867679749635,170.21458666727156 179.4832136573997,201.19013961395038 "/><polyline class="polyline" opacity="0.5" stroke="blue" points="230.7513044676831,171.7233604952737 178.9622148349791,201.26519197926353 "/><polyline class="polyline" opacity="0.5" stroke="blue" points="231.20135337283136,173.24894631586656 178.44724470190658,201.34875696309297 "/><polyline class="polyline" opacity="0.5" stroke="blue" points="231.63659868051207,174.79044543521894 177.93833833769224,201.44138361437655 "/><polyline class="polyline" opacity="0.5" stroke="blue" points="232.056734803672,176.34694229282846 177.43552232524866,201.54361849438774 "/><polyline class="polyline" opacity="0.5" stroke="blue" points="232.4614669985126,177.91750538739578 176.9388147346492,201.6560048276658 "/><polyline class="polyline" opacity="0.5" stroke="blue" points="232.85051177050426,179.50118823757944 176.44822511284121,201.77908163878843 "/><polyline class="polyline" opacity="0.5" stroke="blue" points="233.22359726489364,181.09703037569514 175.96375447943856,201.91338287509421 "/><polyline class="polyline" opacity="0.5" stroke="blue" points="233.58046364063372,182.70405837230066 175.48539532874065,202.05943651552369 "/><polyline class="polyline" opacity="0.5" stroke="blue" points="233.92086342670694,184.32128688948558 175.01313163814825,202.21776366581554 "/><polyline class="polyline" opacity="0.5" stroke="blue" points="234.24456185986128,185.94771976057663 174.54693888316802,202.38887764036957 "/><polyline class="polyline" opacity="0.5" stroke="blue" points="234.55133720282822,187.58235109386385 174.08678405922126,202.57328303116907 "/><polyline class="polyline" opacity="0.5" stroke="blue" points="234.8409810421497,189.2241663978601 173.63262571049137,202.77147476424227 "/><polyline class="polyline" opacity="0.5" stroke="blue" points="235.11329856480006,190.8721437255235 173.18441396606482,202.98393714423744 "/><polyline class="polyline" opacity="0.5" stroke="blue" points="235.3681088128525,192.5252548347941 172.74209058364121,203.21114288778477 "/><polyline class="polyline" opacity="0.5" stroke="blue" points="235.60524491550728,194.18246636273773 172.30558900110225,203.45355214642598 "/><polyline class="polyline" opacity="0.5" stroke="blue" points="235.82455429786887,195.8427410105316 171.87483439624876,203.711611520002 "/><polyline class="polyline" opacity="0.5" stroke="blue" points="236.0258988659325,197.50503873648978 171.44974375502704,203.98575306150852 "/><polyline class="polyline" opacity="0.5" stroke="blue" points="236.209155167315,199.16831795429118 171.03022594857933,204.2763932745489 "/><polyline class="polyline" opacity="0.5" stroke="blue" points="236.37421452734415,200.83153673356014 170.61618181946372,204.58393210464274 "/><polyline class="polyline" opacity="0.5" stroke="blue" points="236.5209831601972,202.49365399993644 170.2075042773971,204.9087519257773 "/><polyline class="polyline" opacity="0.5" stroke="blue" points="236.649382254862,204.15363073178307 169.8040784048807,205.2512165237249 "/><polyline class="polyline" opacity="0.5" stroke="blue" points="236.75934803577303,205.81043115069096 169.40578157307112,205.6116700777858 "/><polyline class="polyline" opacity="0.5" stroke="blue" points="236.8508317980579,207.46302390297325 169.01248356826125,205.9904361427557 "/><polyline class="polyline" opacity="0.5" stroke="blue" points="236.9237999174093,209.1103832293774 168.62404672933204,206.3878166330595 "/><polyline class="polyline" opacity="0.5" stroke="blue" points="236.9782338346798,210.75149012029743 168.2403260965326,206.804090811133 "/><polyline class="polyline" opacity="0.5" stroke="blue" points="237.0141300153766,212.3853334538294 167.86116957193622,207.2395142822783 "/><polyline class="polyline" opacity="0.5" stroke="blue" points="237.03149988431056,214.0109111140838 167.48641809190946,207.6943179983577 "/><polyline class="polyline" opacity="0.5" stroke="blue" points="237.0303697357338,215.6272310872552 167.11590581191516,208.16870727283163 "/><polyline class="polyline" opacity="0.5" stroke="blue" points="237.01078061937176,217.23331253303527 166.7494603039541,208.66286080978037 "/><polyline class="polyline" opacity="0.5" stroke="blue" points="236.97278820283097,218.8281868290622 166.38690276692313,209.17692974968287 "/><polyline class="polyline" opacity="0.5" stroke="blue" points="236.91646261093243,220.41089858620333 166.02804825014707,209.71103673485047 "/><polyline class="polyline" opacity="0.5" stroke="blue" points="236.84188824258672,221.98050663258846 165.67270589030733,210.26527499753513 "/><polyline class="polyline" opacity="0.5" stroke="blue" points="236.749163565892,223.53608496443138 165.32067916195925,210.83970747384254 "/><polyline class="polyline" opacity="0.5" stroke="blue" points="236.6384008921939,225.07672366181077 164.97176614179105,211.43436594668452 "/><polyline class="polyline" opacity="0.5" stroke="blue" points="236.50972612990435,226.6015297677127 164.62575978673726,212.0492502210971 "/><polyline class="polyline" opacity="0.5" stroke="blue" points="236.36327851892577,228.10962812878103 164.2824482260129,212.68432733533308 "/><polyline class="polyline" opacity="0.5" stroke="blue" points="236.1992103465771,229.60016219636265 163.9416150670869,213.33953081120384 "/><polyline class="polyline" opacity="0.5" stroke="blue" points="236.01768664595926,231.07229478658357 163.6030397155611,214.01475994720175 "/><polyline class="polyline" opacity="0.5" stroke="blue" points="235.818884877737,232.5252087983401 163.2664977088635,214.7098791579702 "/><polyline class="polyline" opacity="0.5" stroke="blue" points="235.6029945963486,233.95810788824 162.9317610636073,215.4247173637114 "/><polyline class="polyline" opacity="0.5" stroke="blue" points="235.37021710168236,235.37021710168236 162.5985986364037,216.15906743312473 "/><polyline class="polyline" opacity="0.5" stroke="blue" points="235.12076507728545,236.76078345941136 162.2667764978521,216.9126856834521 "/><polyline class="polyline" opacity="0.5" stroke="blue" points="234.85486221618794,238.1290764990378 161.93605831936293,217.68529144117204 "/><polyline class="polyline" opacity="0.5" stroke="blue" points="234.5727428354424,239.47438877116147 161.60620577239973,218.47656666682437 "/><polyline class="polyline" opacity="0.5" stroke="blue" points="234.27465148048685,240.79603628988468 161.27697893965416,219.28615564737032 "/><polyline class="polyline" opacity="0.5" stroke="blue" points="233.9608425204474,242.09335893764342 160.94813673759586,220.11366475938854 "/><polyline class="polyline" opacity="0.5" stroke="blue" points="233.63157973549542,243.36572082442865 160.61943734976364,220.95866230628204 "/><polyline class="polyline" opacity="0.5" stroke="blue" points="233.28713589737316,244.61251060160345 160.2906386700917,221.8206784325211 "/><polyline class="polyline" opacity="0.5" stroke="blue" points="232.92779234419197,245.83314173065585 159.96149875548812,222.69920511777346 "/><polyline class="polyline" opacity="0.5" stroke="blue" points="232.55383855059864,247.02705270735447 159.63177628680998,223.59369625357323 "/><polyline class="polyline" opacity="0.5" stroke="blue" points="232.16557169438667,248.19370724189213 159.30123103730668,224.50356780495864 "/><polyline class="polyline" opacity="0.5" stroke="blue" points="231.7632962206132,249.33259439572424 158.9696243475297,225.4281980592618 "/><polyline class="polyline" opacity="0.5" stroke="blue" points="231.34732340425813,250.44322867591075 158.63671960564153,226.36692796396204 "/><polyline class="polyline" opacity="0.5" stroke="blue" points="230.91797091243683,251.5251500878795 158.30228273198526,227.31906155522415 "/><polyline class="polyline" opacity="0.5" stroke="blue" points="230.47556236714877,252.57792414762181 157.96608266671856,228.28386647842748 "/><polyline class="polyline" opacity="0.5" stroke="blue" points="230.0204269095136,253.60114185441785 157.6278918592533,229.26057460165518 "/><polyline class="polyline" opacity="0.5" stroke="blue" points="229.55289876641191,254.59441962527663 157.28748675818883,230.24838272276344 "/><polyline class="polyline" opacity="0.5" stroke="blue" points="229.07331682041138,255.5573991923442 156.9446483003792,231.24645337027496 "/><polyline class="polyline" opacity="0.5" stroke="blue" points="228.58202418382137,256.4897474646045 156.59916239772966,232.25391569795812 "/><polyline class="polyline" opacity="0.5" stroke="blue" points="228.07936777767944,257.391156355254 156.2508204202823,233.26986647255046 "/><polyline class="polyline" opacity="0.5" stroke="blue" points="227.56569791643105,258.2613425761874 155.89941967412008,234.29337115367787 "/><polyline class="polyline" opacity="0.5" stroke="blue" points="227.04136789902162,259.10004740107274 155.5447638725961,235.3234650645987 "/><polyline class="polyline" opacity="0.5" stroke="blue" points="226.50673360707685,259.9070363985353 155.18666359938004,236.35915465197934 "/><polyline class="polyline" opacity="0.5" stroke="blue" points="225.96215311080277,260.6820991369988 154.82493676180812,237.3994188324782 "/><polyline class="polyline" opacity="0.5" stroke="blue" points="225.40798628319192,261.425048862758 154.4594090330221,238.44321042349023 "/><polyline class="polyline" opacity="0.5" stroke="blue" points="224.84459442307704,262.13572215287303 154.08991428139683,239.48945765497564 "/><polyline class="polyline" opacity="0.5" stroke="blue" points="224.27233988752957,262.8139785444881 153.71629498577215,240.53706575888268 "/><polyline class="polyline" opacity="0.5" stroke="blue" points="223.69158573405397,263.45970014218017 153.33840263503603,241.58491863226106 "/><polyline class="polyline" opacity="0.5" stroke="blue" points="223.10269537298484,264.0727912049454 152.956098110641,242.6318805697698 "/><polyline class="polyline" opacity="0.5" stroke="blue" points="222.5060322304496,264.6531777144222 152.56925205068444,243.67679806090229 "/><polyline class="polyline" opacity="0.5" stroke="blue" points="221.9019594222169,265.20080692593734 152.17774519423767,244.71850164688712 "/><polyline class="polyline" opacity="0.5" stroke="blue" points="221.29083943870643,265.7156469039479 151.781468704673,245.75580783188877 "/><polyline class="polyline" opacity="0.5" stroke="blue" points="220.6730338413963,266.19768604342744 151.3803244708108,246.78752104281295 "/><polyline class="polyline" opacity="0.5" stroke="blue" points="220.0489029708221,266.64693257871994 150.97422538478924,247.8124356317373 "/><polyline class="polyline" opacity="0.5" stroke="blue" points="219.41880566632358,267.06341408135563 150.5630955956472,248.82933791472942 "/><polyline class="polyline" opacity="0.5" stroke="blue" points="218.78309899765594,267.44717694828904 150.14687073770622,249.8370082405919 "/><polyline class="polyline" opacity="0.5" stroke="blue" points="218.14213800854705,267.79828588198296 149.72549813293944,250.8342230828824 "/><polyline class="polyline" opacity="0.5" stroke="blue" points="217.49627547224574,268.11682336372235 149.29893696662282,251.81975714840394 "/><polyline class="polyline" opacity="0.5" stroke="blue" points="216.84586165907496,268.40288912149873 148.86715843567666,252.79238549524501 "/><polyline class="polyline" opacity="0.5" stroke="blue" points="216.19124411596854,268.6565995937639 148.4301458692225,253.75088565337308 "/><polyline class="polyline" opacity="0.5" stroke="blue" points="215.5327674579429,268.8780873903004 147.98789482100105,254.69403974074754 "/><polyline class="polyline" opacity="0.5" stroke="blue" points="214.87077317142538,269.0675007514126 147.54041313342012,255.62063656792196 "/><polyline class="polyline" opacity="0.5" stroke="blue" points="214.20559942933355,269.2250030065883 147.08772097312698,256.52947372415053 "/><polyline class="polyline" opacity="0.5" stroke="blue" points="213.5375809177754,269.3507720337328 146.62985083812418,257.419359638097 "/><polyline class="polyline" opacity="0.5" stroke="blue" points="212.86704867421685,269.4449997200229 146.16684753657563,258.28911560637056 "/><polyline class="polyline" opacity="0.5" stroke="blue" points="212.19432993694127,269.5078914253784 145.69876813757378,259.13757778327266 "/><polyline class="polyline" opacity="0.5" stroke="blue" points="211.51974800560512,269.5396654494929 145.22568189426156,259.96359912534433 "/><polyline class="polyline" opacity="0.5" stroke="blue" points="210.84362211267646,269.5405525033158 144.7476701398241,260.76605128453633 "/><polyline class="polyline" opacity="0.5" stroke="blue" points="210.16626730552528,269.51079518582196 144.26482615698217,261.5438264440968 "/><polyline class="polyline" opacity="0.5" stroke="blue" points="209.48799433892125,269.45064746685387 143.77725502173095,262.29583909157384 "/><polyline class="polyline" opacity="0.5" stroke="blue" points="208.8091095776783,269.3603741767696 143.28507342217628,263.0210277236619 "/><polyline class="polyline" opacity="0.5" stroke="blue" points="208.12991490917625,269.2402505035765 142.7884094534215,263.7183564779807 "/><polyline class="polyline" opacity="0.5" stroke="blue" points="207.45070766547715,269.09056149818304 142.28740238955342,264.3868166872579 "/><polyline class="polyline" opacity="0.5" stroke="blue" points="206.7717805547465,268.91160158834685 141.78220243386363,265.02542835178946 "/><polyline class="polyline" opacity="0.5" stroke="blue" points="206.0934216016799,268.70367410185327 141.27297044852253,265.6332415264752 "/><polyline class="polyline" opacity="0.5" stroke="blue" points="205.415914096631,268.46709079940763 140.75987766499395,266.2093376191614 "/><polyline class="polyline" opacity="0.5" stroke="blue" points="204.73953655313125,268.20217141767944 140.2431053765452,266.75283059746926 "/><polyline class="polyline" opacity="0.5" stroke="blue" points="204.06456267348605,267.9092432228931 139.72284461425906,267.2628681017444 "/><polyline class="polyline" opacity="0.5" stroke="blue" points="203.3912613221322,267.5886405753133 139.19929580800317,267.7386324622197 "/><polyline class="polyline" opacity="0.5" stroke="blue" points="202.71989650643664,267.2407045049347 138.6726684338479,268.1793416189454 "/><polyline class="polyline" opacity="0.5" stroke="blue" points="202.05072736461804,266.86578229864335 138.14318064945354,268.5842499434984 "/><polyline class="polyline" opacity="0.5" stroke="blue" points="201.3840081604715,266.46422709907927 137.6110589189641,268.95264896193487 "/><polyline class="polyline" opacity="0.5" stroke="blue" points="200.7199882845782,266.036397515391 137.076537628958,269.28386797889647 "/><polyline class="polyline" opacity="0.5" stroke="blue" points="200.05891226168333,265.58265724604075 136.53985869700549,269.577274603211 "/><polyline class="polyline" opacity="0.5" stroke="blue" points="199.4010197639292,265.10337471378216 136.001271174376,269.832275175753 "/><polyline class="polyline" opacity="0.5" stroke="blue" points="198.7465456296318,264.59892271290124 135.46103084442348,270.0483151007278 "/><polyline class="polyline" opacity="0.5" stroke="blue" points="198.0957198872947,264.0696780687825 134.91939981815426,270.224879081933 "/><polyline class="polyline" opacity="0.5" stroke="blue" points="197.44876778455776,263.51602130983065 134.37664612845126,270.36149126591266 "/><polyline class="polyline" opacity="0.5" stroke="blue" points="196.80590982178367,262.93833635175446 133.83304332439167,270.457715294265 "/><polyline class="polyline" opacity="0.5" stroke="blue" points="196.16736178998974,262.33701019419095 133.28887006705054,270.5131542676813 "/><polyline class="polyline" opacity="0.5" stroke="blue" points="195.53333481283883,261.71243262962673 132.74440972813238,270.5274506245908 "/><polyline class="polyline" opacity="0.5" stroke="blue" points="194.9040353924107,261.0649959645496 132.19994999271944,270.50028593755303 "/><polyline class="polyline" opacity="0.5" stroke="blue" points="194.27966545847846,260.39509475274315 131.655782467363,270.4313806307819 "/><polyline class="polyline" opacity="0.5" stroke="blue" points="193.6604224210252,259.7031255406189 131.11220229468225,270.3204936224027 "/><polyline class="polyline" opacity="0.5" stroke="blue" points="193.04649922573975,258.9894866244606 130.5695077755656,270.1674218952274 "/><polyline class="polyline" opacity="0.5" stroke="blue" points="192.4380844122406,258.25457781944226 130.028,269.972 "/><polyline class="polyline" opacity="0.5" stroke="blue" points="191.83536217478135,257.49880024026277 129.48798248748014,269.734099495192 "/><polyline class="polyline" opacity="0.5" stroke="blue" points="191.23851242520104,256.7225560932289 128.94976083787452,269.45362832753915 "/><polyline class="polyline" opacity="0.5" stroke="blue" points="190.64771085788874,255.92624847960587 128.41364239354954,269.13053015758965 "/><polyline class="polyline" opacity="0.5" stroke="blue" points="190.06312901654033,255.11028121004227 127.87993591347603,268.76478363459296 "/><polyline class="polyline" opacity="0.5" stroke="blue" points="189.4849343624916,254.27505862986655 127.34895125996488,268.3564016250855 "/><polyline class="polyline" opacity="0.5" stroke="blue" points="188.91329034442117,253.4209854550443 126.82099909860291,267.90543039954315 "/><polyline class="polyline" opacity="0.5" stroke="blue" points="188.3483564692228,252.54846661857596 126.29639061188279,267.4119487814538 "/><polyline class="polyline" opacity="0.5" stroke="blue" points="187.7902883738552,251.6579071271094 125.77543722694783,266.87606726313027 "/><polyline class="polyline" opacity="0.5" stroke="blue" points="187.2392378979838,250.74971192753466 125.25845035779692,266.2979270925298 "/><polyline class="polyline" opacity="0.5" stroke="blue" points="186.69535315723724,249.82428578332224 124.74574116222608,265.6776993352757 "/><polyline class="polyline" opacity="0.5" stroke="blue" points="186.15877861690842,248.88203316036575 124.23762031371265,265.0155839159878 "/><polyline class="polyline" opacity="0.5" stroke="blue" points="185.6296551659359,247.92335812208074 123.73439778838097,264.31180864292645 "/><polyline class="polyline" opacity="0.5" stroke="blue" points="185.10812019101022,246.94866423351326 123.23638266712723,263.5666282198362 "/><polyline class="polyline" opacity="0.5" stroke="blue" points="184.5943076506545,245.95835447420768 122.74388295291679,262.7803232487514 "/><polyline class="polyline" opacity="0.5" stroke="blue" points="184.0883481491377,244.95283115958173 122.25720540321325,261.953199227382 "/><polyline class="polyline" opacity="0.5" stroke="blue" points="183.59036901008196,243.93249587055638 121.7766553774411,261.08558554455345 "/><polyline class="polyline" opacity="0.5" stroke="blue" points="183.1004943496358,242.8977493911875 121.3025366993346,260.17783447701896 "/><polyline class="polyline" opacity="0.5" stroke="blue" points="182.61884514908712,241.84899165404542 120.83515153397687,259.2303201908 "/><polyline class="polyline" opacity="0.5" stroke="blue" points="182.14553932679905,240.78662169309266 120.3748002792904,258.2434377500467 "/><polyline class="polyline" opacity="0.5" stroke="blue" points="181.6806918093547,239.71103760380458 119.92178147169687,257.21760213623764 "/><polyline class="polyline" opacity="0.5" stroke="blue" points="181.22441460180454,238.62263651028601 119.47639170563029,256.1532472803695 "/><polyline class="polyline" opacity="0.5" stroke="blue" points="180.77681685691343,237.52181453913323 119.03892556655022,255.05082511061232 "/><polyline class="polyline" opacity="0.5" stroke="blue" points="180.3380049433116,236.40896679979613 118.60967557707465,253.9108046177345 "/><polyline class="polyline" opacity="0.5" stroke="blue" points="179.90808251245628,235.28448737119479 118.1889321558214,252.73367094042771 "/><polyline class="polyline" opacity="0.5" stroke="blue" points="179.48715056431712,234.14876929434865 117.776983588526,251.5199244724928 "/><polyline class="polyline" opacity="0.5" stroke="blue" points="179.0753075117027,233.00220457077978 117.37411601098066,250.270079993682 "/><polyline class="polyline" opacity="0.5" stroke="blue" points="178.67264924314847,231.84518416645125 116.98061340332198,248.98466582582375 "/><polyline class="polyline" opacity="0.5" stroke="blue" points="178.27926918429253,230.67809802100825 116.59675759517928,247.66422301570114 "/><polyline class="polyline" opacity="0.5" stroke="blue" points="177.8952583576673,229.50133506208968 116.22282828118206,246.30930454599584 "/><polyline class="polyline" opacity="0.5" stroke="blue" points="177.52070544084066,228.31528322448312 115.85910304631646,244.92047457546226 "/><polyline class="polyline" opacity="0.5" stroke="blue" points="177.1556968228424,227.12032947389625 115.50585740061024,243.49830770934696 "/><polyline class="polyline" opacity="0.5" stroke="blue" points="176.80031665881552,225.91685983512426 115.16336482262197,242.0433883009341 "/><polyline class="polyline" opacity="0.5" stroke="blue" points="176.45464692283488,224.7052594243924 114.83189681120444,240.55630978496114 "/><polyline class="polyline" opacity="0.5" stroke="blue" points="176.1187674588392,223.48591248565984 114.5117229450114,239.03767404352527 "/><polyline class="polyline" opacity="0.5" stroke="blue" points="175.79275602962372,222.25920243066884 114.20311094921576,237.48809080497733 "/><polyline class="polyline" opacity="0.5" stroke="blue" points="175.47668836384528,221.02551188253082 113.90632676890729,235.9081770761903 "/><polyline class="polyline" opacity="0.5" stroke="blue" points="175.1706382009928,219.7852227226416 113.62163464864159,234.29855660848065 "/><polyline class="polyline" opacity="0.5" stroke="blue" points="174.87467733427786,218.53871614072045 113.34929721761394,232.65985939736026 "/><polyline class="polyline" opacity="0.5" stroke="blue" points="174.58887565140446,217.2863726877713 113.08957557993666,230.99272121620442 "/><polyline class="polyline" opacity="0.5" stroke="blue" points="174.31330117317628,216.02857233176573 112.84272940950308,229.29778318383293 "/><polyline class="polyline" opacity="0.5" stroke="blue" points="174.0480200899037,214.76569451585206 112.60901704892703,227.57569136592363 "/><polyline class="polyline" opacity="0.5" stroke="blue" points="173.7930967955732,213.49811821889355 112.38869561205249,225.82709641009865 "/><polyline class="polyline" opacity="0.5" stroke="blue" points="173.54859391974452,212.2262220181435 112.18202108953538,224.05265321445933 "/><polyline class="polyline" opacity="0.5" stroke="blue" points="173.31457235714117,210.9503841538659 111.98924845700512,222.25302062928145 "/><polyline class="polyline" opacity="0.5" stroke="blue" points="173.0910912949027,209.67098259571313 111.8106317853205,220.4288611915274 "/><polyline class="polyline" opacity="0.5" stroke="blue" points="172.87820823746725,208.38839511067064 111.64642435244228,218.58084089177612 "/><polyline class="polyline" opacity="0.5" stroke="blue" points="172.67597902905442,207.10299933238394 111.49687875645,216.70962897313058 "/><polyline class="polyline" opacity="0.5" stroke="blue" points="172.48445787372037,205.8151728316807 111.36224702923775,214.81589776161664 "/><polyline class="polyline" opacity="0.5" stroke="blue" points="172.303697352957,204.52529318810534 111.24278075043001,212.9003225275535 "/><polyline class="polyline" opacity="0.5" stroke="blue" points="172.13374844080874,203.23373806228003 111.13873116106348,210.96358137733876 "/><polyline class="polyline" opacity="0.5" stroke="blue" points="171.97466051648135,201.94088526890926 111.05034927658656,209.00635517506558 "/><polyline class="polyline" opacity="0.5" stroke="blue" points="171.8264813744177,200.64711285024646 110.9778859987327,207.02932749336352 "/><polyline class="polyline" opacity="0.5" stroke="blue" points="171.68925723181707,199.35279914983676 110.9215922258277,205.03318459282974 "/><polyline class="polyline" opacity="0.5" stroke="blue" points="171.56303273357392,198.05832288635457 110.88171896109417,203.0186154294006 "/><polyline class="polyline" opacity="0.5" stroke="blue" points="171.44785095461503,196.76406322735144 110.85851741851882,200.9863116889952 "/><polyline class="polyline" opacity="0.5" stroke="blue" points="171.34375339961235,195.47039986273046 110.85223912585047,198.93696784875127 "/><polyline class="polyline" opacity="0.5" stroke="blue" points="171.25078000005146,194.17771307776115 110.86313602429641,196.87128126415482 "/><polyline class="polyline" opacity="0.5" stroke="blue" points="171.1689691086356,192.88638382544954 110.89146056448558,194.78995228136182 "/><polyline class="polyline" opacity="0.5" stroke="blue" points="171.09835749100552,191.5967937980747 110.93746579826596,192.6936843739942 "/><polyline class="polyline" opacity="0.5" stroke="blue" points="171.0389803147579,190.309325497705 111.00140546590025,190.58318430369079 "/><polyline class="polyline" opacity="0.5" stroke="blue" points="170.99087113574373,189.0243623055003 111.08353407822337,188.45916230367806 "/><polyline class="polyline" opacity="0.5" stroke="blue" points="170.95406188163062,187.74228854961018 111.1841069933183,186.32233228462655 "/><polyline class="polyline" opacity="0.5" stroke="blue" points="170.92858283271335,186.46348957147168 111.30338048726452,184.17341206204517 "/><polyline class="polyline" opacity="0.5" stroke="blue" points="170.91446259995783,185.188351790311 111.44161181850578,182.01312360446533 "/><polyline class="polyline" opacity="0.5" stroke="blue" points="170.9117281002652,183.91726276564833 111.59905928537648,179.8421933016517 "/><polyline class="polyline" opacity="0.5" stroke="blue" points="170.92040452894318,182.6506112576038 111.77598227632032,177.66135225207398 "/><polyline class="polyline" opacity="0.5" stroke="blue" points="170.94051532937368,181.38878728480108 111.97264131232144,175.47133656886564 "/><polyline class="polyline" opacity="0.5" stroke="blue" points="170.97208215986737,180.13218217965826 112.18929808106355,173.27288770347886 "/><polyline class="polyline" opacity="0.5" stroke="blue" points="171.0151248576956,178.88118864085644 112.42621546231672,171.06675278624144 "/><polyline class="polyline" opacity="0.5" stroke="blue" points="171.06966140029428,177.63620078277057 112.68365754404289,168.85368498300167 "/><polyline class="polyline" opacity="0.5" stroke="blue" points="171.13570786363314,176.39761418164628 112.96188962869557,166.63444386703839 "/><polyline class="polyline" opacity="0.5" stroke="blue" points="171.21327837774842,175.1658259182986 113.26117822917834,164.40979580538763 "/><polyline class="polyline" opacity="0.5" stroke="blue" points="171.30238507943662,173.94123461711033 113.58179105390897,162.18051435872675 "/><polyline class="polyline" opacity="0.5" stroke="blue" points="171.40303806211074,172.72424048109892 113.92399698042365,159.94738069392685 "/><polyline class="polyline" opacity="0.5" stroke="blue" points="171.5152453228219,171.5152453228219 114.28806601693748,157.71118400836593 "/><polyline class="polyline" opacity="0.5" stroke="blue" points="171.63901270645204,170.31465259088202 114.67426925126163,155.4727219650602 "/><polyline class="polyline" opacity="0.5" stroke="blue" points="171.77434384708607,169.12286739179376 115.08287878646047,153.23280113764434 "/><polyline class="polyline" opacity="0.5" stroke="blue" points="171.9212401065746,167.94029650696677 115.51416766261437,150.99223746419472 "/><polyline class="polyline" opacity="0.5" stroke="blue" points="172.0797005103015,166.76734840455885 115.96840976403439,148.75185670885247 "/><polyline class="polyline" opacity="0.5" stroke="blue" points="172.24972168017405,165.60443324594675 116.44587971125875,146.512494930157 "/><polyline class="polyline" opacity="0.5" stroke="blue" points="172.43129776485682,164.4519628865596 116.94685273714246,144.27499895495777 "/><polyline class="polyline" opacity="0.5" stroke="blue" points="172.6244203672742,163.3103508708181 117.47160454632974,142.04022685672203 "/><polyline class="polyline" opacity="0.5" stroke="blue" points="172.82907846941043,162.1800124209147 118.02041115738629,139.80904843699636 "/><polyline class="polyline" opacity="0.5" stroke="blue" points="173.04525835444045,161.06136441917275 118.59354872684517,137.58234570872563 "/><polyline class="polyline" opacity="0.5" stroke="blue" points="173.27294352623016,159.954825383714 119.19129335440675,135.36101338006455 "/><polyline class="polyline" opacity="0.5" stroke="blue" points="173.51211462624727,158.8608154371658 119.81392086851311,133.14595933725366 "/><polyline class="polyline" opacity="0.5" stroke="blue" points="173.76274934793196,157.7797562681324 120.46170659150465,130.93810512504967 "/><polyline class="polyline" opacity="0.5" stroke="blue" points="174.02482234858007,156.71207108515716 121.13492508355034,128.73838642313 "/><polyline class="polyline" opacity="0.5" stroke="blue" points="174.29830515879752,155.65818456289583 121.83384986453008,126.54775351680115 "/><polyline class="polyline" opacity="0.5" stroke="blue" points="174.5831660895912,154.61852278022542 122.55875311303603,124.36717176025695 "/><polyline class="polyline" opacity="0.5" stroke="blue" points="174.87937013716785,153.59351315000552 123.30990534165183,122.19762203053499 "/><polyline class="polyline" opacity="0.5" stroke="blue" points="175.18687888551815,152.58358434021477 124.0875750476594,120.04010117022356 "/><polyline class="polyline" opacity="0.5" stroke="blue" points="175.50565040687187,151.58916618618048 124.89202833831988,117.89562241686673 "/><polyline class="polyline" opacity="0.5" stroke="blue" points="175.83563916011522,150.6106895936239 125.72352852987274,115.76521581690903 "/><polyline class="polyline" opacity="0.5" stroke="blue" points="176.17679588727117,149.64858643224113 126.58233571940013,113.64992862190422 "/><polyline class="polyline" opacity="0.5" stroke="blue" points="176.52906750814995,148.70328941954506 127.4687063287095,111.55082566459897 "/><polyline class="polyline" opacity="0.5" stroke="blue" points="176.89239701328535,147.77523199469462 128.38289261939343,109.46898971238038 "/><polyline class="polyline" opacity="0.5" stroke="blue" points="177.2667233552821,146.86484818204147 129.32514217824783,107.40552179544741 "/><polyline class="polyline" opacity="0.5" stroke="blue" points="177.65198133870743,145.97257244412884 130.29569737224068,105.36154150694202 "/><polyline class="polyline" opacity="0.5" stroke="blue" points="178.0481015086691,145.0988395238824 131.29479477225755,103.33818727213885 "/><polyline class="polyline" opacity="0.5" stroke="blue" points="178.4550100382323,144.24408427574025 132.32266454487285,101.33661658366348 "/><polyline class="polyline" opacity="0.5" stroke="blue" points="178.87262861483742,143.40874148547445 133.37952981144355,99.35800619956426 "/><polyline class="polyline" opacity="0.5" stroke="blue" points="179.30087432589025,142.59324567846696 134.46560597386073,97.4035523009339 "/><polyline class="polyline" opacity="0.5" stroke="blue" points="179.73965954370738,141.79803091621105 135.58110000635185,95.47447060562959 "/><polyline class="polyline" opacity="0.5" stroke="blue" points="180.18889181000904,141.02353058082184 136.72620971278712,93.57199643451087 "/><polyline class="polyline" opacity="0.5" stroke="blue" points="180.64847372016382,140.27017714734862 137.90112294901758,91.69738472646756 "/><polyline class="polyline" opacity="0.5" stroke="blue" points="181.11830280739946,139.53840194369786 139.10601680985064,89.85190999838298 "/><polyline class="polyline" opacity="0.5" stroke="blue" points="181.59827142720562,138.82863489799 140.3410567803626,88.03686624604492 "/><polyline class="polyline" opacity="0.5" stroke="blue" points="182.0882666421666,138.14130427318753 141.6063958513513,86.25356678188538 "/><polyline class="polyline" opacity="0.5" stroke="blue" points="182.58817010747205,137.47683638885178 142.90217359884488,84.50334400531668 "/><polyline class="polyline" opacity="0.5" stroke="blue" points="183.09785795736695,136.8356553299038 144.2285152277126,82.78754910131471 "/><polyline class="polyline" opacity="0.5" stroke="blue" points="183.61720069281225,136.21818264228648 145.58553057955973,81.10755166280002 "/><polyline class="polyline" opacity="0.5" stroke="blue" points="184.14606307064068,135.62483701544605 146.97331310524822,79.46473923227235 "/><polyline class="polyline" opacity="0.5" stroke="blue" points="184.6843039945033,135.0560339515767 148.39193880254714,77.86051675808187 "/><polyline class="polyline" opacity="0.5" stroke="blue" points="185.23177640791377,134.5121854215974 149.8414651196043,76.29630596065134 "/><polyline class="polyline" opacity="0.5" stroke="blue" points="185.7883271897091,133.99369950785749 151.32192982512368,74.77354460392573 "/><polyline class="polyline" opacity="0.5" stroke="blue" points="186.35379705225773,133.50098003359713 152.83334984635206,73.29368566729396 "/><polyline class="polyline" opacity="0.5" stroke="blue" points="186.92802044275552,133.03442617921957 154.37572007620253,71.85819641323167 "/><polyline class="polyline" opacity="0.5" stroke="blue" points="187.51082544796282,132.59443208546583 155.9490121510917,70.46855734593379 "/><polyline class="polyline" opacity="0.5" stroke="blue" points="188.10203370274442,132.18138644361704 157.55317320132446,69.12626105625992 "/><polyline class="polyline" opacity="0.5" stroke="blue" points="188.70146030278678,131.79567207288528 159.18812457614288,67.83281094839276 "/><polyline class="polyline" opacity="0.5" stroke="blue" points="189.30891372187435,131.43766548519355 160.85376054584566,66.58971984373474 "/><polyline class="polyline" opacity="0.5" stroke="blue" points="189.92419573411726,131.10773643758552 162.54994698369234,65.39850845771201 "/><polyline class="polyline" opacity="0.5" stroke="blue" points="190.5471013415314,130.80624747254637 164.27652003063608,64.26070374535414 "/><polyline class="polyline" opacity="0.5" stroke="blue" points="191.17741870737876,130.5335534465616 166.0332847462604,63.1778371117521 "/><polyline class="polyline" opacity="0.5" stroke="blue" points="191.81492909568442,130.290001047284 167.82001374965293,62.15144248377666 "/><polyline class="polyline" opacity="0.5" stroke="blue" points="192.45940681735104,130.0759282997284 169.63644585430748,61.183054239775686 "/><polyline class="polyline" opacity="0.5" stroke="blue" points="193.11061918329958,129.89166406195932 171.4822847015274,60.27420499434396 "/><polyline class="polyline" opacity="0.5" stroke="blue" points="193.76832646506674,129.73752751078877 173.35719739718004,59.42642323570283 "/><polyline class="polyline" opacity="0.5" stroke="blue" points="194.43228186329497,129.61382761805237 175.26081315704988,58.64123081371733 "/><polyline class="polyline" opacity="0.5" stroke="blue" points="195.10223148455114,129.52086261808265 177.1927219664264,57.9201402771327 "/><polyline class="polyline" opacity="0.5" stroke="blue" points="195.7779143269126,129.45891946705416 179.15247325996975,57.264652059227444 "/><polyline class="polyline" opacity="0.5" stroke="blue" points="196.4590622747573,129.42827329492795 181.13957462828614,56.67625151175611 "/><polyline class="polyline" opacity="0.5" stroke="blue" points="197.14540010319385,129.42918685077854 183.15349055804523,56.15640578779781 "/><polyline class="polyline" opacity="0.5" stroke="blue" points="197.83664549256213,129.46190994234246 185.193641212851,55.706560574934144 "/><polyline class="polyline" opacity="0.5" stroke="blue" points="198.53250905343248,129.52667887068287 187.25940126245928,55.32813668104697 "/><polyline class="polyline" opacity="0.5" stroke="blue" points="199.23269436252224,129.6237158609223 189.35009876828846,55.02252647596683 "/><polyline class="polyline" opacity="0.5" stroke="blue" points="199.93689800994068,129.7532284900504 191.46501413350677,54.791090193200944 "/><polyline class="polyline" opacity="0.5" stroke="blue" points="200.6448096581637,129.91540911287038 193.60337912629942,54.63515209702359 "/><polyline class="polyline" opacity="0.5" stroke="blue" points="201.35611211312568,130.11043428720336 195.7643759851929,54.55599652133938 "/><polyline class="polyline" opacity="0.5" stroke="blue" points="202.07048140780327,130.33846419952363 197.94713661556622,54.55486378789351 "/><polyline class="polyline" opacity="0.5" stroke="blue" points="202.78758689864702,130.59964209225183 200.15074188667793,54.632946012629134 "/><polyline class="polyline" opacity="0.5" stroke="blue" points="203.5070913752016,130.8940936939859 202.37422103870207,54.79138281025641 "/><polyline class="polyline" opacity="0.5" stroke="blue" points="204.22865118323145,131.22192665399768 204.61655120936373,55.03125690839963 "/><polyline class="polyline" opacity="0.5" stroke="blue" points="204.95191636164787,131.58322998237435 206.8766570898141,55.35358968401974 "/><polyline class="polyline" opacity="0.5" stroke="blue" points="205.67653079350742,131.97807349722714 209.1534107193608,55.759336636159645 "/><polyline class="polyline" opacity="0.5" stroke="blue" points="206.40213237132554,132.40650728043542 211.44563142858314,56.249382810417416 "/><polyline class="polyline" opacity="0.5" stroke="blue" points="207.12835317691818,132.86856114343198 213.7520859401887,56.824538191911444 "/><polyline class="polyline" opacity="0.5" stroke="blue" points="207.8548196759543,133.3642441045746 216.07148863672293,57.48553308484091 "/><polyline class="polyline" opacity="0.5" stroke="blue" points="208.5811529273661,133.8935438796795 218.40250200390145,58.23301349805695 "/></svg>
