<?xml version="1.0" encoding="UTF-8"?>
<!DOCTYPE svg PUBLIC "-//W3C//DTD SVG 1.1//EN"
    "http://www.w3.org/Graphics/SVG/1.1/DTD/svg11.dtd"><svg width="400" height="400" stroke="black" fill="none" fill-opacity="0.75" font-size="14" font-style="italic" font-family="sans-serif" xmlns="http://www.w3.org/2000/svg" xmlns:xlink="http://www.w3.org/1999/xlink" version="1.1"><filter id="blur1"><feGaussianBlur stdDeviation="0.5"/></filter><rect width="100%" height="100%" fill="white" stroke="none" fill-opacity="1"/><rect class="bg" fill="black" width="100%" height="100%" stroke="none" fill-opacity="1"/><polyline class="polyline" opacity="0.5" stroke="blue" points="212.76202195099017,137.1969953039777 228.44690177072528,63.43628095585731 "/><polyline class="polyline" opacity="0.5" stroke="blue" points="213.59918855516403,137.92394893383317 231.03884269642793,64.67641825335005 "/><polyline class="polyline" opacity="0.5" stroke="blue" points="214.4334079176321,138.68349716425732 233.63183393761278,66.00428664923706 "/><polyline class="polyline" opacity="0.5" stroke="blue" points="215.26420246933301,139.47542637324472 236.2239554916755,67.41964886804968 "/><polyline class="polyline" opacity="0.5" stroke="blue" points="216.09109143531384,140.29949824325368 238.81324697800966,68.922147092834 "/><polyline class="polyline" opacity="0.5" stroke="blue" points="216.91359124629548,141.15544952412048 241.3977105641409,70.51130007966964 "/><polyline class="polyline" opacity="0.5" stroke="blue" points="217.73121596511294,142.0429918275111 243.97531412431158,72.18650056043987 "/><polyline class="polyline" opacity="0.5" stroke="blue" points="218.5434777275371,142.96181145430086 246.54399462610542,73.94701295839599 "/><polyline class="polyline" opacity="0.5" stroke="blue" points="219.34988719692848,143.91156925621752 249.10166173908948,75.79197144032528 "/><polyline class="polyline" opacity="0.5" stroke="blue" points="220.1499540321133,144.8919005330272 251.64620165779337,77.72037832818035 "/><polyline class="polyline" opacity="0.5" stroke="blue" points="220.94318736781548,145.9024149664775 254.1754811296694,79.73110289182883 "/><polyline class="polyline" opacity="0.5" stroke="blue" points="221.72909630692044,146.94269659213816 256.6873516769854,81.82288054316629 "/><polyline class="polyline" opacity="0.5" stroke="blue" points="222.50719042378975,148.01230381020525 259.1796539999208,83.99431245017688 "/><polyline class="polyline" opacity="0.5" stroke="blue" points="223.27698027779059,149.11076943624386 261.65022254647874,86.24386558764232 "/><polyline class="polyline" opacity="0.5" stroke="blue" points="224.03797793614962,150.23760079275843 264.0968902332074,88.56987323909942 "/><polyline class="polyline" opacity="0.5" stroke="blue" points="224.78969750518874,151.39227984237795 266.5174932991691,90.97053596233309 "/><polyline class="polyline" opacity="0.5" stroke="blue" points="225.53165566894984,152.5742633633406 268.9098762741203,93.44392302818206 "/><polyline class="polyline" opacity="0.5" stroke="blue" points="226.2633722341676,153.78298316785347 271.2718970404817,95.98797433975076 "/><polyline class="polyline" opacity="0.5" stroke="blue" points="226.98437068050464,155.01784636378682 273.60143196741956,98.60050283627022 "/><polyline class="polyline" opacity="0.5" stroke="blue" points="227.69417871492027,156.27823566004355 275.8963810942257,101.27919738287477 "/><polyline class="polyline" opacity="0.5" stroke="blue" points="228.39232882900558,157.56350971581952 278.15467333920975,104.02162614446347 "/><polyline class="polyline" opacity="0.5" stroke="blue" points="229.07835885808214,158.87300353384185 280.3742717095002,106.82524043864375 "/><polyline class="polyline" opacity="0.5" stroke="blue" points="229.75181254082943,160.20602889754073 282.55317848652487,109.6873790595262 "/><polyline class="polyline" opacity="0.5" stroke="blue" points="230.41224007817897,161.56187485197535 284.68944036149685,112.60527306089416 "/><polyline class="polyline" opacity="0.5" stroke="blue" points="231.0591986901896,162.93980822819634 286.78115349500206,115.57605098403498 "/><polyline class="polyline" opacity="0.5" stroke="blue" points="231.69225316959947,164.339074210589 288.8264684747544,118.59674451233514 "/><polyline class="polyline" opacity="0.5" stroke="blue" points="232.31097643073707,165.75889694660063 290.82359514578155,121.66429453163457 "/><polyline class="polyline" opacity="0.5" stroke="blue" points="232.91495005246287,167.19848019811482 292.77080728771216,124.77555757234757 "/><polyline class="polyline" opacity="0.5" stroke="blue" points="233.50376481381127,168.65700803359437 294.6664471144679,127.92731260651739 "/><polyline class="polyline" opacity="0.5" stroke="blue" points="234.07702122100176,170.13364555997546 296.50892957251193,131.11626817031504 "/><polyline class="polyline" opacity="0.5" stroke="blue" points="234.63433002449617,171.6275396931574 298.2967464148643,134.33906978004796 "/><polyline class="polyline" opacity="0.5" stroke="blue" points="235.17531272478942,173.13781996579627 300.0284700293572,137.59230760754446 "/><polyline class="polyline" opacity="0.5" stroke="blue" points="235.69960206563974,174.6635993709783 301.7027570010598,140.87252437884024 "/><polyline class="polyline" opacity="0.5" stroke="blue" points="236.2068425134658,176.20397524021922 303.31835139043244,144.17622345845356 "/><polyline class="polyline" opacity="0.5" stroke="blue" points="236.69669072166684,177.75803015411276 304.87408771056835,147.4998770801958 "/><polyline class="polyline" opacity="0.5" stroke="blue" points="237.16881597865512,179.3248328838301 306.3688935888212,150.83993468445587 "/><polyline class="polyline" opacity="0.5" stroke="blue" points="237.62290063842846,180.9034393615598 307.8017921001799,154.1928313212186 "/><polyline class="polyline" opacity="0.5" stroke="blue" points="238.05864053255425,182.49289367787043 309.17190376191974,157.5549960777471 "/><polyline class="polyline" opacity="0.5" stroke="blue" points="238.47574536248533,184.09222910387706 310.4784481813063,160.92286048986784 "/><polyline class="polyline" opacity="0.5" stroke="blue" points="238.87393907118044,185.70046913600203 311.7207453504295,164.2928668961548 "/><polyline class="polyline" opacity="0.5" stroke="blue" points="239.25296019306094,187.31662856103364 312.8982165845804,167.66147669499793 "/><polyline class="polyline" opacity="0.5" stroke="blue" points="239.6125621813969,188.93971453911288 314.0103851029206,171.02517846556174 "/><polyline class="polyline" opacity="0.5" stroke="blue" points="239.95251371228179,190.56872770221065 315.0568762525228,174.3804959149671 "/><polyline class="polyline" opacity="0.5" stroke="blue" points="240.27259896442484,192.2026632656002 316.03741737913316,177.72399561565362 "/><polyline class="polyline" opacity="0.5" stroke="blue" points="240.57261787406338,193.84051214978334 316.95183735023267,181.05229449877385 "/><polyline class="polyline" opacity="0.5" stroke="blue" points="240.8523863643731,195.4812621102907 317.80006573809766,184.36206707161364 "/><polyline class="polyline" opacity="0.5" stroke="blue" points="241.11173654883308,197.1238988727491 318.5821316725901,187.65005232939313 "/><polyline class="polyline" opacity="0.5" stroke="blue" points="241.35051690808396,198.76740727059328 319.29816237530434,190.91306033435743 "/><polyline class="polyline" opacity="0.5" stroke="blue" points="241.56859243989885,200.41077238279206 319.94838138846274,194.1479784377763 "/><polyline class="polyline" opacity="0.5" stroke="blue" points="241.76584478197213,202.0529806689639 320.5331065135516,197.35177712331412 "/><polyline class="polyline" opacity="0.5" stroke="blue" points="241.94217230731613,203.69302109927145 321.0527474761343,200.52151545316613 "/><polyline class="polyline" opacity="0.5" stroke="blue" points="242.09749019214007,205.3298862765098 321.5078033345404,203.65434610135355 "/><polyline class="polyline" opacity="0.5" stroke="blue" points="242.2317304561739,206.96257354783876 321.89885965121226,206.74751996160262 "/><polyline class="polyline" opacity="0.5" stroke="blue" points="242.3448419754825,208.5900861036545 322.22658544638557,209.79839032025606 "/><polyline class="polyline" opacity="0.5" stroke="blue" points="242.43679046790197,210.2114340611508 322.49172995449226,212.80441658766506 "/><polyline class="polyline" opacity="0.5" stroke="blue" points="242.50755845131377,211.82563553018565 322.69511920418944,215.76316758444773 "/><polyline class="polyline" opacity="0.5" stroke="blue" points="242.55714517505294,213.43171765913982 322.83765244325986,218.67232438184942 "/><polyline class="polyline" opacity="0.5" stroke="blue" points="242.5855665248282,215.0287176585391 322.9202984297778,221.52968269818595 "/><polyline class="polyline" opacity="0.5" stroke="blue" points="242.5928549016091,216.61568380029854 322.94409161092716,224.3331548559596 "/><polyline class="polyline" opacity="0.5" stroke="blue" points="242.57905907501032,218.19167639054604 322.91012821066573,227.08077130669787 "/><polyline class="polyline" opacity="0.5" stroke="blue" points="242.54424401177593,219.7557687140865 322.8195622471015,229.77068173286108 "/><polyline class="polyline" opacity="0.5" stroke="blue" points="242.4884906800346,221.30704794867765 322.673601499962,232.40115573827683 "/><polyline class="polyline" opacity="0.5" stroke="blue" points="242.4118958300626,222.84461604740474 322.4735034479272,234.97058314048465 "/><polyline class="polyline" opacity="0.5" stroke="blue" points="242.31457175235272,224.3675905875629 322.2205711948661,237.47747388009822 "/><polyline class="polyline" opacity="0.5" stroke="blue" points="242.19664601384432,225.87510558458024 321.9161494031832,239.92045756381754 "/><polyline class="polyline" opacity="0.5" stroke="blue" points="242.05826117322235,227.36631226964496 321.56162025155265,242.29828265903816 "/><polyline class="polyline" opacity="0.5" stroke="blue" points="241.89957447624343,228.8403798298297 321.15839943331844,244.60981535911958 "/><polyline class="polyline" opacity="0.5" stroke="blue" points="241.72075753208816,230.29649610964248 320.7079322107693,246.85403813928167 "/><polyline class="polyline" opacity="0.5" stroke="blue" points="241.52199597178068,231.73386827306757 320.21168953938434,249.03004802381196 "/><polyline class="polyline" opacity="0.5" stroke="blue" points="241.30348908974958,233.15172342529667 319.6711642749934,251.13705458578434 "/><polyline class="polyline" opacity="0.5" stroke="blue" points="241.06544946963336,234.54930919348726 319.08786747562135,253.17437770082725 "/><polyline class="polyline" opacity="0.5" stroke="blue" points="240.80810259545947,235.92589426602115 318.46332480859866,255.1414450766383 "/><polyline class="polyline" opacity="0.5" stroke="blue" points="240.53168644934453,237.28076888987044 317.79907307233697,257.0377895799445 "/><polyline class="polyline" opacity="0.5" stroke="blue" points="240.23645109687874,238.61324532581295 317.0966568409908,258.8630463824484 "/><polyline class="polyline" opacity="0.5" stroke="blue" points="239.92265826136764,239.92265826136764 316.35762523907084,260.6169499470104 "/><polyline class="polyline" opacity="0.5" stroke="blue" points="239.590580888109,241.20836518145097 315.58352885194745,262.2993308748934 "/><polyline class="polyline" opacity="0.5" stroke="blue" points="239.24050269988444,242.46974669687756 314.775916777091,263.9101126343629 "/><polyline class="polyline" opacity="0.5" stroke="blue" points="238.87271774484128,243.70620683095115 313.9363338198482,265.44930819029963 "/><polyline class="polyline" opacity="0.5" stroke="blue" points="238.48752993793119,244.9171732645063 313.0663178365469,266.917016553757 "/><polyline class="polyline" opacity="0.5" stroke="blue" points="238.0852525970617,246.10209753987434 312.1673972267804,268.31341926959794 "/><polyline class="polyline" opacity="0.5" stroke="blue" points="237.66620797509955,247.2604552243531 311.24108857582496,269.6387768594865 "/><polyline class="polyline" opacity="0.5" stroke="blue" points="237.2307267888454,248.3917460338609 310.28889444730976,270.8934252365944 "/><polyline class="polyline" opacity="0.5" stroke="blue" points="236.77914774607547,249.49549391755045 309.3123013254909,272.0777721074377 "/><polyline class="polyline" opacity="0.5" stroke="blue" points="236.31181707172084,250.57124710424893 308.3127777057647,273.19229337527827 "/><polyline class="polyline" opacity="0.5" stroke="blue" points="235.82908803422305,251.6185781116726 307.2917723314108,274.2375295585287 "/><polyline class="polyline" opacity="0.5" stroke="blue" points="235.33132047307464,252.6370837194414 306.25071257396974,275.21408223659586 "/><polyline class="polyline" opacity="0.5" stroke="blue" points="234.81888032851683,253.62638490699166 305.1910029541339,276.1226105345952 "/><polyline class="polyline" opacity="0.5" stroke="blue" points="234.2921391743296,254.58612675754586 304.1140237995678,276.96382765736894 "/><polyline class="polyline" opacity="0.5" stroke="blue" points="233.75147375461088,255.51597832935965 303.0211300356703,277.73849748226115 "/><polyline class="polyline" opacity="0.5" stroke="blue" points="233.19726552539967,256.4156324955151 301.9136501049392,278.4474312191426 "/><polyline class="polyline" opacity="0.5" stroke="blue" points="232.62990020195608,257.2848057535757 300.79288501030777,279.09148414524094 "/><polyline class="polyline" opacity="0.5" stroke="blue" points="232.0497673124671,258.12323800645515 299.66010747757645,279.6715524214313 "/><polyline class="polyline" opacity="0.5" stroke="blue" points="231.45725975890235,258.93069231588646 298.5165612318728,280.1885699957703 "/><polyline class="polyline" opacity="0.5" stroke="blue" points="230.85277338569864,259.7069546299029 297.36346038291805,280.64350559922576 "/><polyline class="polyline" opacity="0.5" stroke="blue" points="230.23670655690538,260.451833485761 296.20198891377845,281.0373598377656 "/><polyline class="polyline" opacity="0.5" stroke="blue" points="229.60945974237796,261.16515968975364 295.03330026770817,281.37116238421606 "/><polyline class="polyline" opacity="0.5" stroke="blue" points="228.97143511355802,261.84678597536606 293.85851702766047,281.6459692725982 "/><polyline class="polyline" opacity="0.5" stroke="blue" points="228.32303614933397,262.49658664123353 292.6787306830481,281.8628602969878 "/><polyline class="polyline" opacity="0.5" stroke="blue" points="227.66466725242975,263.1144571703578 291.4950014783611,282.02293651632885 "/><polyline class="polyline" opacity="0.5" stroke="blue" points="226.99673337672252,263.7003138320304 290.3083583383141,282.1273178660598 "/><polyline class="polyline" opacity="0.5" stroke="blue" points="226.31963966584664,264.2540932679026 289.1197988642732,282.1771408768807 "/><polyline class="polyline" opacity="0.5" stroke="blue" points="225.63379110339608,264.7757520636248 287.9302893968174,282.1735565005119 "/><polyline class="polyline" opacity="0.5" stroke="blue" points="224.93959217499486,265.26526630745775 286.7407651394118,282.1177280418468 "/><polyline class="polyline" opacity="0.5" stroke="blue" points="224.2374465424625,265.72263113723756 285.55213033830637,282.01082919650634 "/><polyline class="polyline" opacity="0.5" stroke="blue" points="223.527756730261,266.1478602770459 284.3652585139252,281.8540421924398 "/><polyline class="polyline" opacity="0.5" stroke="blue" points="222.8109238243698,266.5409855649094 283.1809927391704,281.64855603389486 "/><polyline class="polyline" opacity="0.5" stroke="blue" points="222.0873471836972,266.9020564728196 282.0001459602404,281.39556484579606 "/><polyline class="polyline" opacity="0.5" stroke="blue" points="221.3574241641004,267.2311396203266 280.8235013557345,281.0962663163166 "/><polyline class="polyline" opacity="0.5" stroke="blue" points="220.62154985504955,267.5283182829256 279.65181273000144,280.75186023521314 "/><polyline class="polyline" opacity="0.5" stroke="blue" points="219.88011682894046,267.7936918964126 278.48580493687643,280.36354712530556 "/><polyline class="polyline" opacity="0.5" stroke="blue" points="219.13351490302495,268.02737555834483 277.3261743301364,279.9325269643217 "/><polyline class="polyline" opacity="0.5" stroke="blue" points="218.38213091390134,268.22949952770045 276.17358923719587,279.45999799420105 "/><polyline class="polyline" opacity="0.5" stroke="blue" points="217.62634850447583,268.40020872378386 275.02869045275384,278.9471556148392 "/><polyline class="polyline" opacity="0.5" stroke="blue" points="216.86654792328113,268.5396622253816 273.89209174928664,278.3951913591751 "/><polyline class="polyline" opacity="0.5" stroke="blue" points="216.10310583601188,268.6480327711246 272.76438040147104,277.8052919464581 "/><polyline class="polyline" opacity="0.5" stroke="blue" points="215.3363951491139,268.725506261968 271.64611772180035,277.1786384104899 "/><polyline class="polyline" opacity="0.5" stroke="blue" points="214.56678484524252,268.77228126665267 270.5378396048351,276.5164052996105 "/><polyline class="polyline" opacity="0.5" stroke="blue" points="213.79463983038497,268.7885685309625 269.4400570777039,275.81975994518876 "/><polyline class="polyline" opacity="0.5" stroke="blue" points="213.02032079242377,268.77459049155004 268.3532568546374,275.08986179538016 "/><polyline class="polyline" opacity="0.5" stroke="blue" points="212.24418407090138,268.73058079505046 267.27790189348235,274.3278618109355 "/><polyline class="polyline" opacity="0.5" stroke="blue" points="211.4665815377312,268.65678382316116 266.2144319522997,273.5349019198712 "/><polyline class="polyline" opacity="0.5" stroke="blue" points="210.6878604885861,268.55345422431714 265.16326414430165,272.71211452785053 "/><polyline class="polyline" opacity="0.5" stroke="blue" points="209.9083635446849,268.42085645254696 264.1247934895299,271.8606220811755 "/><polyline class="polyline" opacity="0.5" stroke="blue" points="209.1284285646852,268.2592643140498 263.09939346181363,270.9815366793417 "/><polyline class="polyline" opacity="0.5" stroke="blue" points="208.34838856638254,268.06896052199124 262.08741652968223,270.07595973417244 "/><polyline class="polyline" opacity="0.5" stroke="blue" points="207.56857165790836,267.85023625997144 261.08919469003155,269.1449816726163 "/><polyline class="polyline" opacity="0.5" stroke="blue" points="206.78930097811212,267.6033907545804 260.10503999346463,268.18968168036287 "/><polyline class="polyline" opacity="0.5" stroke="blue" points="206.0108946458082,267.328730857411 259.1352450603425,267.2111274835086 "/><polyline class="polyline" opacity="0.5" stroke="blue" points="205.23366571756372,267.0265706368667 258.18008358668794,266.2103751655852 "/><polyline class="polyline" opacity="0.5" stroke="blue" points="204.45792215370088,266.6972309800576 257.2398108391878,265.1884690173404 "/><polyline class="polyline" opacity="0.5" stroke="blue" points="203.68396679218523,266.34103920504674 256.3146641386377,264.1464414167489 "/><polyline class="polyline" opacity="0.5" stroke="blue" points="202.9120973300703,265.9583286836712 255.40486333126262,263.0853127368109 "/><polyline class="polyline" opacity="0.5" stroke="blue" points="202.14260631216936,265.5494384751287 254.510611247432,262.0060912787835 "/><polyline class="polyline" opacity="0.5" stroke="blue" points="201.37578112662553,265.11471297049144 253.6320941473712,260.9097732285741 "/><polyline class="polyline" opacity="0.5" stroke="blue" points="200.61190400705357,264.65450154827386 252.7694821535447,259.79734263410955 "/><polyline class="polyline" opacity="0.5" stroke="blue" points="199.85125204092873,264.1691582411553 251.92292966945732,258.6697714015778 "/><polyline class="polyline" opacity="0.5" stroke="blue" points="199.0940971839011,263.6590414139301 251.09257578468757,257.52801930852524 "/><polyline class="polyline" opacity="0.5" stroke="blue" points="198.34070627971815,263.12451345273 250.2785446660282,256.37303403187076 "/><polyline class="polyline" opacity="0.5" stroke="blue" points="197.59134108544168,262.5659404655405 249.48094593466652,255.20575118898256 "/><polyline class="polyline" opacity="0.5" stroke="blue" points="196.8462583016511,261.9836919940091 248.69987502939307,254.0270943900391 "/><polyline class="polyline" opacity="0.5" stroke="blue" points="196.10570960732892,261.37814073652146 247.93541355587527,252.837975299977 "/><polyline class="polyline" opacity="0.5" stroke="blue" points="195.3699416991318,260.7496622824995 247.1876296220819,251.63929370840154 "/><polyline class="polyline" opacity="0.5" stroke="blue" points="194.63919633475467,260.09863485785917 246.45657815998638,250.43193760591174 "/><polyline class="polyline" opacity="0.5" stroke="blue" points="193.91371038010328,259.42543908154477 245.74230123371922,249.21678326536315 "/><polyline class="polyline" opacity="0.5" stroke="blue" points="193.1937158599963,258.73045773304165 245.0448283343762,247.99469532666262 "/><polyline class="polyline" opacity="0.5" stroke="blue" points="192.47944001212528,258.01407553075364 244.36417666172593,246.76652688375714 "/><polyline class="polyline" opacity="0.5" stroke="blue" points="191.7711053440079,257.2766789211166 243.70035139309232,245.53311957254675 "/><polyline class="polyline" opacity="0.5" stroke="blue" points="191.06892969267696,256.51865587830764 243.0533459397185,244.29530365851528 "/><polyline class="polyline" opacity="0.5" stroke="blue" points="190.37312628685493,255.74039571439602 242.42314219094678,243.05389812293686 "/><polyline class="polyline" opacity="0.5" stroke="blue" points="189.68390381137155,254.94228889977256 241.80971074657683,241.80971074657683 "/><polyline class="polyline" opacity="0.5" stroke="blue" points="189.00146647358906,254.12472689368423 241.2130111377876,240.56353818986625 "/><polyline class="polyline" opacity="0.5" stroke="blue" points="188.32601407160755,253.28810198468955 240.63299203703255,239.31616606858722 "/><polyline class="polyline" opacity="0.5" stroke="blue" points="187.65774206402997,252.4328071408468 240.06959145733907,238.06836902416325 "/><polyline class="polyline" opacity="0.5" stroke="blue" points="186.99684164107427,251.55923586943547 239.52273694146234,236.82091078770424 "/><polyline class="polyline" opacity="0.5" stroke="blue" points="186.34349979682736,250.66778208600834 238.9923457413629,235.57454423701103 "/><polyline class="polyline" opacity="0.5" stroke="blue" points="185.69789940244277,249.75883999256496 238.4783249884954,234.3300114457959 "/><polyline class="polyline" opacity="0.5" stroke="blue" points="185.06021928009167,248.83280396463243 237.98057185540995,233.08804372442984 "/><polyline class="polyline" opacity="0.5" stroke="blue" points="184.43063427748342,247.89006844703638 237.49897370918518,231.84936165157754 "/><polyline class="polyline" opacity="0.5" stroke="blue" points="183.80931534277963,246.93102785814054 237.03340825722415,230.61467509613098 "/><polyline class="polyline" opacity="0.5" stroke="blue" points="183.19642959973163,245.95607650233183 236.58374368595793,229.3846832289055 "/><polyline class="polyline" opacity="0.5" stroke="blue" points="182.59214042287948,244.9656084905249 236.14983879301383,228.16007452360748 "/><polyline class="polyline" opacity="0.5" stroke="blue" points="181.99660751265546,243.9600176684585 235.73154311341608,226.94152674663582 "/><polyline class="polyline" opacity="0.5" stroke="blue" points="181.4099869702432,242.93969755255623 235.3286970403969,225.72970693532562 "/><polyline class="polyline" opacity="0.5" stroke="blue" points="180.83243137204846,241.90504127312133 234.94113194140516,224.5252713642922 "/><polyline class="polyline" opacity="0.5" stroke="blue" points="180.26408984364457,240.85644152463715 234.5686702699085,223.3288654995818 "/><polyline class="polyline" opacity="0.5" stroke="blue" points="179.70510813306117,239.7942905229433 234.21112567359154,222.14112394038412 "/><polyline class="polyline" opacity="0.5" stroke="blue" points="179.15562868329047,238.71897996905994 233.8683030995605,220.9626703481101 "/><polyline class="polyline" opacity="0.5" stroke="blue" points="178.61579070389078,237.63090101943067 233.53999889716874,219.7941173626873 "/><polyline class="polyline" opacity="0.5" stroke="blue" points="178.08573024157286,236.5304442623583 233.2260009190836,218.636066505975 "/><polyline class="polyline" opacity="0.5" stroke="blue" points="177.5655802496588,235.41799970040768 232.92608862121847,217.48910807224908 "/><polyline class="polyline" opacity="0.5" stroke="blue" points="177.05547065630938,234.2939567385506 232.6400331621553,216.35382100575825 "/><polyline class="polyline" opacity="0.5" stroke="blue" points="176.55552843141913,233.15870417783148 232.367597502687,215.23077276540192 "/><polyline class="polyline" opacity="0.5" stroke="blue" points="176.06587765208403,232.01263021433184 232.10853650610684,214.12051917663211 "/><polyline class="polyline" opacity="0.5" stroke="blue" points="175.58663956655042,230.8561224432159 231.86259703987312,213.0236042707313 "/><polyline class="polyline" opacity="0.5" stroke="blue" points="175.11793265655825,229.68956786763957 231.62951807927485,211.94056011167143 "/><polyline class="polyline" opacity="0.5" stroke="blue" points="174.65987269799516,228.51335291230868 231.4090308137209,210.87190661080993 "/><polyline class="polyline" opacity="0.5" stroke="blue" points="174.21257281978237,227.32786344147388 231.20085875627086,209.81815132973244 "/><polyline class="polyline" opacity="0.5" stroke="blue" points="173.77614356091635,226.13348478115137 231.00471785701887,208.77978927160387 "/><polyline class="polyline" opacity="0.5" stroke="blue" points="173.35069292559388,224.93060174536166 230.82031662093576,207.75730266144328 "/><polyline class="polyline" opacity="0.5" stroke="blue" points="172.936326436351,223.7195986661801 230.647356230764,206.75116071579197 "/><polyline class="polyline" opacity="0.5" stroke="blue" points="172.53314718515037,222.50085942739548 230.48553067555076,205.76181940229742 "/><polyline class="polyline" opacity="0.5" stroke="blue" points="172.14125588235262,221.27476750157422 230.3345268853906,204.7897211897905 "/><polyline class="polyline" opacity="0.5" stroke="blue" points="171.76075090351193,220.0417059903309 230.19402487293613,203.83529478948623 "/><polyline class="polyline" opacity="0.5" stroke="blue" points="171.39172833393752,218.80205766760727 230.06369788221804,202.8989548879943 "/><polyline class="polyline" opacity="0.5" stroke="blue" points="171.03428201096494,217.55620502576284 229.94321254529896,201.98110187287685 "/><polyline class="polyline" opacity="0.5" stroke="blue" points="170.68850356388455,216.30453032428377 229.83222904726398,201.08212155154598 "/><polyline class="polyline" opacity="0.5" stroke="blue" points="170.35448245147515,215.04741564091682 229.73040130003085,200.2023848643457 "/><polyline class="polyline" opacity="0.5" stroke="blue" points="170.0323059970941,213.78524292503698 229.6373771254366,199.34224759271427 "/><polyline class="polyline" opacity="0.5" stroke="blue" points="169.72205942127619,212.51839405305938 229.5527984480327,198.5020500633747 "/><polyline class="polyline" opacity="0.5" stroke="blue" points="169.42382587179566,211.2472508857065 229.47630149799227,197.68211684955003 "/><polyline class="polyline" opacity="0.5" stroke="blue" points="169.13768645114794,209.97219532694336 229.40751702450157,196.88275647024886 "/><polyline class="polyline" opacity="0.5" stroke="blue" points="168.86372024140823,208.69360938439362 229.34607051997634,196.1042610887124 "/><polyline class="polyline" opacity="0.5" stroke="blue" points="168.6020043264262,207.41187523105106 229.29158245540856,195.34690621115925 "/><polyline class="polyline" opacity="0.5" stroke="blue" points="168.35261381131778,206.1273752681006 229.24366852711148,194.6109503870069 "/><polyline class="polyline" opacity="0.5" stroke="blue" points="168.11562183921592,204.8404921886643 229.20193991509313,193.89663491178723 "/><polyline class="polyline" opacity="0.5" stroke="blue" points="167.89109960524272,203.5516090422866 229.16600355324562,193.20418353401183 "/><polyline class="polyline" opacity="0.5" stroke="blue" points="167.67911636766894,202.26110929997517 229.13546241149584,192.53380216727626 "/><polyline class="polyline" opacity="0.5" stroke="blue" points="167.47973945622527,200.96937691961074 229.10991579001728,191.88567860892215 "/><polyline class="polyline" opacity="0.5" stroke="blue" points="167.29303427753274,199.67679641154223 229.08895962555573,191.2599822666045 "/><polyline class="polyline" opacity="0.5" stroke="blue" points="167.11906431762037,198.38375290417906 229.0721868098726,190.65686389413267 "/><polyline class="polyline" opacity="0.5" stroke="blue" points="166.95789114149912,197.09063220939606 229.05918752026008,190.07645533797327 "/><polyline class="polyline" opacity="0.5" stroke="blue" points="166.80957438976213,195.79782088756087 229.04954956202937,189.51886929581678 "/><polyline class="polyline" opacity="0.5" stroke="blue" points="166.67417177218314,194.50570631199668 229.04285872282009,188.98419908861933 "/><polyline class="polyline" opacity="0.5" stroke="blue" points="166.5517390582852,193.21467673268944 229.0386991385252,188.4725184475345 "/><polyline class="polyline" opacity="0.5" stroke="blue" points="166.4423300648535,191.92512133904665 229.03665367056954,187.9838813171496 "/><polyline class="polyline" opacity="0.5" stroke="blue" points="166.34599664036762,190.6374303215161 229.03630429422387,187.51832167643414 "/><polyline class="polyline" opacity="0.5" stroke="blue" points="166.26278864632866,189.35199493186695 229.03723249758008,187.0758533787946 "/><polyline class="polyline" opacity="0.5" stroke="blue" points="166.19275393545942,188.0692075419376 229.0390196907552,186.65647001261303 "/><polyline class="polyline" opacity="0.5" stroke="blue" points="166.13593832675625,186.78946170064856 229.0412476248354,186.2601447836205 "/><polyline class="polyline" opacity="0.5" stroke="blue" points="166.0923855773728,185.5131521890801 229.04349882001355,185.88683042042692 "/><polyline class="polyline" opacity="0.5" stroke="blue" points="166.06213735131763,184.24067507340774 229.0453570023178,185.5364591044908 "/><polyline class="polyline" opacity="0.5" stroke="blue" points="166.04523318494952,182.97242775549074 229.04640754827187,185.2089424257694 "/><polyline class="polyline" opacity="0.5" stroke="blue" points="166.0417104492551,181.70880902090016 229.04623793677482,184.90417136523877 "/><polyline class="polyline" opacity="0.5" stroke="blue" points="166.05160430889686,180.45021908417664 229.04443820743222,184.62201630541773 "/><polyline class="polyline" opacity="0.5" stroke="blue" points="166.0749476780196,179.1970596310985 229.0406014245211,184.36232706996594 "/><polyline class="polyline" opacity="0.5" stroke="blue" points="166.1117711728083,177.94973385774293 229.03432414571972,184.12493299335665 "/><polyline class="polyline" opacity="0.5" stroke="blue" points="166.16210306078892,176.7086465061167 229.02520689468656,183.90964302155058 "/><polyline class="polyline" opacity="0.5" stroke="blue" points="166.22596920687067,175.47420389613015 229.01285463652803,183.71624584451328 "/><polyline class="polyline" opacity="0.5" stroke="blue" points="166.3033930161265,174.24681395368603 228.9968772551519,183.54451006133408 "/><polyline class="polyline" opacity="0.5" stroke="blue" points="166.39439537331492,173.0268862346494 228.97689003146508,183.39418437860786 "/><polyline class="polyline" opacity="0.5" stroke="blue" points="166.49899457914705,171.81483194446398 228.9525141213395,183.26499784264638 "/><polyline class="polyline" opacity="0.5" stroke="blue" points="166.61720628330744,170.61106395317358 228.92337703223768,183.15666010597954 "/><polyline class="polyline" opacity="0.5" stroke="blue" points="166.74904341423974,169.4159968056082 228.88911309736292,183.0688617285013 "/><polyline class="polyline" opacity="0.5" stroke="blue" points="166.89451610571294,168.2300467264864 228.8493639461749,183.00127451350153 "/><polyline class="polyline" opacity="0.5" stroke="blue" points="167.05363162018682,167.05363162018682 228.80377897009487,182.95355187871107 "/><polyline class="polyline" opacity="0.5" stroke="blue" points="167.22639426900065,165.88717106493505 228.75201578220887,182.92532926236692 "/><polyline class="polyline" opacity="0.5" stroke="blue" points="167.41280532941283,164.73108630115107 228.69374066976968,182.91622456418492 "/><polyline class="polyline" opacity="0.5" stroke="blue" points="167.61286295852418,163.58580021369994 228.62862903829412,182.925838621003 "/><polyline class="polyline" opacity="0.5" stroke="blue" points="167.82656210412267,162.45173730778438 228.5563658460543,182.95375571673378 "/><polyline class="polyline" opacity="0.5" stroke="blue" points="168.05389441249332,161.32932367821604 228.4766460277674,182.99954412613994 "/><polyline class="polyline" opacity="0.5" stroke="blue" points="168.29484813324135,160.21898697180174 228.38917490630192,183.06275669182043 "/><polyline class="polyline" opacity="0.5" stroke="blue" points="168.54940802118392,159.12115634257685 228.29366859123476,183.14293143367024 "/><polyline class="polyline" opacity="0.5" stroke="blue" points="168.81755523537205,158.03626239961798 228.1898543631173,183.23959218995327 "/><polyline class="polyline" opacity="0.5" stroke="blue" points="169.09926723530936,156.964737147166 228.07747104233766,183.35224928900533 "/><polyline class="polyline" opacity="0.5" stroke="blue" points="169.39451767444393,155.90701391678923 227.9562693414984,183.48040025046615 "/><polyline class="polyline" opacity="0.5" stroke="blue" points="169.70327629101428,154.86352729131707 227.82601220026993,183.62353051482148 "/><polyline class="polyline" opacity="0.5" stroke="blue" points="170.02550879633998,153.83471302027425 227.68647510172215,183.78111419992658 "/><polyline class="polyline" opacity="0.5" stroke="blue" points="170.36117676065425,152.82100792654768 227.53744636918756,183.95261488307304 "/><polyline class="polyline" opacity="0.5" stroke="blue" points="170.7102374965854,151.82284980401738 227.37872744276086,184.1374864070592 "/><polyline class="polyline" opacity="0.5" stroke="blue" points="171.07264394040124,150.8406773058882 227.21013313459991,184.33517370862845 "/><polyline class="polyline" opacity="0.5" stroke="blue" points="171.44834453114117,149.87492982345844 227.03149186225323,184.54511366754843 "/><polyline class="polyline" opacity="0.5" stroke="blue" points="171.8372830877691,148.9260473550686 226.8426458593073,184.76673597452208 "/><polyline class="polyline" opacity="0.5" stroke="blue" points="172.23939868449017,147.9944703649743 226.6434513627145,184.99946401604484 "/><polyline class="polyline" opacity="0.5" stroke="blue" points="172.65462552438535,147.0806396318963 226.43377877623618,185.24271577425404 "/><polyline class="polyline" opacity="0.5" stroke="blue" points="173.08289281152653,146.18499608700398 226.21351280951123,185.4959047397579 "/><polyline class="polyline" opacity="0.5" stroke="blue" points="173.52412462174777,145.30798064109644 225.98255259233653,185.75844083537865 "/><polyline class="polyline" opacity="0.5" stroke="blue" points="173.97823977225744,144.45003400075487 225.74081176382734,186.02973134870325 "/><polyline class="polyline" opacity="0.5" stroke="blue" points="174.4451516902888,143.61159647324743 225.4882185362049,186.30918187130086 "/><polyline class="polyline" opacity="0.5" stroke="blue" points="174.9247682809973,142.79310775997882 225.22471573304276,186.5961972424425 "/><polyline class="polyline" opacity="0.5" stroke="blue" points="175.41699179482512,141.99500673828823 224.9502608018835,186.89018249514368 "/><polyline class="polyline" opacity="0.5" stroke="blue" points="175.92171869456573,141.2177312314127 224.66482580122297,187.19054380234476 "/><polyline class="polyline" opacity="0.5" stroke="blue" points="176.4388395223739,140.4617177664452 224.3683973619399,187.49668942104847 "/><polyline class="polyline" opacity="0.5" stroke="blue" points="176.96823876697783,139.72740132013482 224.06097662333113,187.8080306322465 "/><polyline class="polyline" opacity="0.5" stroke="blue" points="177.5097947313647,139.0152150523898 223.74257914399328,188.12398267448984 "/><polyline class="polyline" opacity="0.5" stroke="blue" points="178.06337940122222,138.325590027366 223.41323478787035,188.44396566898877 "/><polyline class="polyline" opacity="0.5" stroke="blue" points="178.6288583144327,137.6589549220392 223.07298758586353,188.7674055341678 "/><polyline class="polyline" opacity="0.5" stroke="blue" points="179.2060904319281,137.01573572218453 222.72189557347417,189.09373488764976 "/><polyline class="polyline" opacity="0.5" stroke="blue" points="179.79492801022897,136.3963554057052 222.36003060502128,189.4223939336987 "/><polyline class="polyline" opacity="0.5" stroke="blue" points="180.39521647600174,135.80123361328077 221.98747814504503,189.75283133421547 "/><polyline class="polyline" opacity="0.5" stroke="blue" points="181.00679430298206,135.23078630632742 221.60433703757013,190.08450506145027 "/><polyline class="polyline" opacity="0.5" stroke="blue" points="181.62949289162546,134.68542541229255 221.2107192539659,190.41688323067405 "/><polyline class="polyline" opacity="0.5" stroke="blue" points="182.26313645185778,134.16555845733487 220.8067496201952,190.7494449111336 "/><polyline class="polyline" opacity="0.5" stroke="blue" points="182.90754188931092,133.6715881864704 220.39256552429782,191.08168091370464 "/><polyline class="polyline" opacity="0.5" stroke="blue" points="183.5625186954413,133.2039121712993 219.96831660500072,191.41309455374972 "/><polyline class="polyline" opacity="0.5" stroke="blue" points="184.22786884193937,132.7629224054602 219.53416442239165,191.743202387787 "/><polyline class="polyline" opacity="0.5" stroke="blue" points="184.9033866798504,132.34900488799718 219.09028211163064,192.07153492267628 "/><polyline class="polyline" opacity="0.5" stroke="blue" points="185.5888588438365,131.96253919485915 218.63685402070655,192.39763729613372 "/><polyline class="polyline" opacity="0.5" stroke="blue" points="186.28406416202034,131.60389803879247 218.1740753332753,192.72106992749292 "/><polyline class="polyline" opacity="0.5" stroke="blue" points="186.9887735718598,131.27344681792619 217.70215167763828,193.04140913773887 "/><polyline class="polyline" opacity="0.5" stroke="blue" points="187.702750042511,130.97154315339353 217.22129872293866,193.35824773795034 "/><polyline class="polyline" opacity="0.5" stroke="blue" points="188.425748504146,130.69853641637474 216.73174176366587,193.67119558539576 "/><polyline class="polyline" opacity="0.5" stroke="blue" points="189.1575157846953,130.45476724499235 216.23371529356672,193.97988010663767 "/><polyline class="polyline" opacity="0.5" stroke="blue" points="189.89779055449503,130.2405670515355 215.7274625700646,194.28394678710853 "/><polyline class="polyline" opacity="0.5" stroke="blue" points="190.64630327931778,130.05625752053783 215.21323517028736,194.58305962672912 "/><polyline class="polyline" opacity="0.5" stroke="blue" points="191.40277618227412,129.90215009828185 214.6912925397976,194.87690156124393 "/><polyline class="polyline" opacity="0.5" stroke="blue" points="192.166923215071,129.7785454743509 214.1619015351086,195.16517484905282 "/><polyline class="polyline" opacity="0.5" stroke="blue" points="192.93845003911352,129.68573305590252 213.62533596105538,195.44760142341596 "/><polyline class="polyline" opacity="0.5" stroke="blue" points="193.71705401693717,129.6239904353856 213.08187610406907,195.72392321000575 "/><polyline class="polyline" opacity="0.5" stroke="blue" points="194.5024242144531,129.59358285247635 212.5318082623836,195.99390240987216 "/><polyline class="polyline" opacity="0.5" stroke="blue" points="195.2942414144861,129.59476265106002 211.97542427417417,196.257321747975 "/><polyline class="polyline" opacity="0.5" stroke="blue" points="196.0921781420773,129.62776873213738 211.4130210445998,196.51398468752018 "/><polyline class="polyline" opacity="0.5" stroke="blue" points="196.8958987020174,129.69282600358613 210.8449000726887,196.76371561041563 "/><polyline class="polyline" opacity="0.5" stroke="blue" points="197.70505922906392,129.79014482776006 210.2713669789709,197.00635996423526 "/><polyline class="polyline" opacity="0.5" stroke="blue" points="198.51930775128673,129.91992046796025 209.69273103472364,197.2417843761474 "/><polyline class="polyline" opacity="0.5" stroke="blue" points="199.33828426696917,130.08233253486202 209.1093046936572,197.46987673432605 "/><polyline class="polyline" opacity="0.5" stroke="blue" points="200.16162083547823,130.27754443403174 208.52140312682536,197.69054623741988 "/><polyline class="polyline" opacity="0.5" stroke="blue" points="200.98894168249723,130.50570281571694 207.9293437615032,197.90372341270444 "/><polyline class="polyline" opacity="0.5" stroke="blue" points="201.81986331999394,130.76693702813682 207.33344582472978,198.10936010358753 "/><polyline class="polyline" opacity="0.5" stroke="blue" points="202.65399468127544,131.06135857554938 206.7340298921678,198.30742942717717 "/><polyline class="polyline" opacity="0.5" stroke="blue" points="203.49093727145282,131.3890605824113 206.13141744288737,198.4979257026538 "/><polyline class="polyline" opacity="0.5" stroke="blue" points="204.33028533361443,131.75011726498843 205.5259304206333,198.6808643512157 "/><polyline class="polyline" opacity="0.5" stroke="blue" points="205.1716260309732,132.14458341181262 204.9178908020902,198.8562817683885 "/><polyline class="polyline" opacity="0.5" stroke="blue" points="206.0145396452232,132.5724938744146 204.307620172612,199.02423516950472 "/><polyline class="polyline" opacity="0.5" stroke="blue" points="206.85859979130484,133.03386306979587 203.69543930983778,199.18480240917006 "/><polyline class="polyline" opacity="0.5" stroke="blue" points="207.70337364874058,133.52868449612782 203.08166777556917,199.33808177553792 "/><polyline class="polyline" opacity="0.5" stroke="blue" points="208.54842220966475,134.0569302631926 202.46662351624116,199.4841917602138 "/><polyline class="polyline" opacity="0.5" stroke="blue" points="209.39330054362813,134.61855063909852 201.85062247227316,199.62327080460625 "/><polyline class="polyline" opacity="0.5" stroke="blue" points="210.23755807921432,135.21347361481722 201.23397819654684,199.75547702353083 "/><polyline class="polyline" opacity="0.5" stroke="blue" points="211.08073890246047,135.84160448810258 200.61700148221394,199.880987906861 "/><polyline class="polyline" opacity="0.5" stroke="blue" points="211.92238207202388,136.50282546835254 200.0,200.0 "/><polyline class="polyline" opacity="0.5" stroke="blue" points="212.76202195099012,137.19699530397762 199.3832779451308,200.11272856392742 "/><polyline class="polyline" opacity="0.5" stroke="blue" points="213.59918855516398,137.92394893383312 198.76713569397293,200.2194072155482 "/><polyline class="polyline" opacity="0.5" stroke="blue" points="214.43340791763205,138.6834971642573 198.151869470447,200.32028754904303 "/><polyline class="polyline" opacity="0.5" stroke="blue" points="215.26420246933296,139.47542637324466 197.5377710222378,200.41563873888808 "/><polyline class="polyline" opacity="0.5" stroke="blue" points="216.09109143531376,140.29949824325365 196.92512730679917,200.5057471251781 "/><polyline class="polyline" opacity="0.5" stroke="blue" points="216.91359124629545,141.15544952412046 196.31422018712084,200.59091578185027 "/><polyline class="polyline" opacity="0.5" stroke="blue" points="217.73121596511288,142.04299182751103 195.70532613720223,200.6714640683686 "/><polyline class="polyline" opacity="0.5" stroke="blue" points="218.54347772753707,142.96181145430083 195.09871595715276,200.74772716538902 "/><polyline class="polyline" opacity="0.5" stroke="blue" points="219.34988719692842,143.91156925621743 194.49465449782036,200.8200555948842 "/><polyline class="polyline" opacity="0.5" stroke="blue" points="220.14995403211327,144.89190053302718 193.89340039482957,200.88881472516587 "/><polyline class="polyline" opacity="0.5" stroke="blue" points="220.94318736781543,145.90241496647738 193.29520581189718,200.95438426120063 "/><polyline class="polyline" opacity="0.5" stroke="blue" points="221.72909630692044,146.94269659213813 192.70031619327858,201.0171577205713 "/><polyline class="polyline" opacity="0.5" stroke="blue" points="222.5071904237897,148.01230381020525 192.10897002518865,201.07754189539617 "/><polyline class="polyline" opacity="0.5" stroke="blue" points="223.27698027779053,149.11076943624374 191.52139860603157,201.13595630047425 "/><polyline class="polyline" opacity="0.5" stroke="blue" points="224.03797793614956,150.23760079275837 190.93782582526924,201.19283260788598 "/><polyline class="polyline" opacity="0.5" stroke="blue" points="224.78969750518868,151.39227984237786 190.35846795075406,201.24861406823712 "/><polyline class="polyline" opacity="0.5" stroke="blue" points="225.5316556689498,152.57426336334055 189.78353342434997,201.30375491869702 "/><polyline class="polyline" opacity="0.5" stroke="blue" points="226.26337223416755,153.7829831678534 189.21322266566833,201.3587197779444 "/><polyline class="polyline" opacity="0.5" stroke="blue" points="226.9843706805046,155.01784636378673 188.64772788374682,201.41398302810038 "/><polyline class="polyline" opacity="0.5" stroke="blue" points="227.6941787149202,156.2782356600435 188.08723289650695,201.47002818369577 "/><polyline class="polyline" opacity="0.5" stroke="blue" points="228.39232882900552,157.5635097158195 187.53191295783134,201.5273472476904 "/><polyline class="polyline" opacity="0.5" stroke="blue" points="229.07835885808208,158.87300353384177 186.9819345921136,201.58644005453553 "/><polyline class="polyline" opacity="0.5" stroke="blue" points="229.7518125408294,160.20602889754065 186.43745543614335,201.64781360024776 "/><polyline class="polyline" opacity="0.5" stroke="blue" points="230.41224007817897,161.56187485197526 185.89862408820446,201.7119813594416 "/><polyline class="polyline" opacity="0.5" stroke="blue" points="231.05919869018956,162.93980822819626 185.36557996427732,201.77946258925368 "/><polyline class="polyline" opacity="0.5" stroke="blue" points="231.69225316959944,164.33907421058888 184.83845316125553,201.85078162007798 "/><polyline class="polyline" opacity="0.5" stroke="blue" points="232.31097643073707,165.75889694660057 184.31736432710352,201.9264671330244 "/><polyline class="polyline" opacity="0.5" stroke="blue" points="232.91495005246287,167.19848019811474 183.80242453790356,202.00705142400975 "/><polyline class="polyline" opacity="0.5" stroke="blue" points="233.50376481381122,168.65700803359425 183.29373518175987,202.09306965439103 "/><polyline class="polyline" opacity="0.5" stroke="blue" points="234.07702122100176,170.13364555997538 182.7913878495524,202.18505908805804 "/><polyline class="polyline" opacity="0.5" stroke="blue" points="234.6343300244961,171.62753969315727 182.29546423255448,202.2835583149131 "/><polyline class="polyline" opacity="0.5" stroke="blue" points="235.17531272478936,173.13781996579618 181.80603602695436,202.38910646068285 "/><polyline class="polyline" opacity="0.5" stroke="blue" points="235.69960206563968,174.66359937097818 181.32316484534584,202.50224238302903 "/><polyline class="polyline" opacity="0.5" stroke="blue" points="236.2068425134658,176.2039752402191 180.8469021352795,202.6235038539534 "/><polyline class="polyline" opacity="0.5" stroke="blue" points="236.6966907216668,177.75803015411265 180.37728910499234,202.75342672852517 "/><polyline class="polyline" opacity="0.5" stroke="blue" points="237.16881597865512,179.32483288383003 179.91435665646205,202.8925440999992 "/><polyline class="polyline" opacity="0.5" stroke="blue" points="237.6229006384284,180.90343936155972 179.45812532595806,203.0413854414385 "/><polyline class="polyline" opacity="0.5" stroke="blue" points="238.05864053255422,182.49289367787034 179.00860523229025,203.20047573400598 "/><polyline class="polyline" opacity="0.5" stroke="blue" points="238.47574536248533,184.09222910387697 178.5657960329831,203.37033458214833 "/><polyline class="polyline" opacity="0.5" stroke="blue" points="238.87393907118042,185.70046913600197 178.12968688863057,203.55147531595892 "/><polyline class="polyline" opacity="0.5" stroke="blue" points="239.25296019306091,187.31662856103353 177.70025643571375,203.74440408107486 "/><polyline class="polyline" opacity="0.5" stroke="blue" points="239.6125621813969,188.93971453911283 177.27747276818874,203.9496189165417 "/><polyline class="polyline" opacity="0.5" stroke="blue" points="239.95251371228176,190.56872770221057 176.86129342817935,204.1676088211584 "/><polyline class="polyline" opacity="0.5" stroke="blue" points="240.27259896442484,192.20266326560005 176.45166540613093,204.39885280890508 "/><polyline class="polyline" opacity="0.5" stroke="blue" points="240.57261787406338,193.84051214978325 176.04852515080717,204.64381895414743 "/><polyline class="polyline" opacity="0.5" stroke="blue" points="240.8523863643731,195.48126211029057 175.6517985895319,204.9029634274119 "/><polyline class="polyline" opacity="0.5" stroke="blue" points="241.11173654883305,197.123898872749 175.26140115909735,205.1767295226287 "/><polyline class="polyline" opacity="0.5" stroke="blue" points="241.35051690808393,198.76740727059317 174.87723784778052,205.46554667684904 "/><polyline class="polyline" opacity="0.5" stroke="blue" points="241.56859243989882,200.410772382792 174.49920324892267,205.76982948355564 "/><polyline class="polyline" opacity="0.5" stroke="blue" points="241.76584478197213,202.0529806689638 174.12718162654215,206.08997670080427 "/><polyline class="polyline" opacity="0.5" stroke="blue" points="241.94217230731613,203.69302109927136 173.76104699346115,206.42637025555385 "/><polyline class="polyline" opacity="0.5" stroke="blue" points="242.09749019214001,205.32988627650968 173.40066320243545,206.77937424566812 "/><polyline class="polyline" opacity="0.5" stroke="blue" points="242.2317304561739,206.9625735478387 173.0458840507807,207.1493339411979 "/><polyline class="polyline" opacity="0.5" stroke="blue" points="242.34484197548247,208.5900861036544 172.69655339899202,207.5365747866824 "/><polyline class="polyline" opacity="0.5" stroke="blue" points="242.43679046790197,210.21143406115078 172.35250530385042,207.94140140633795 "/><polyline class="polyline" opacity="0.5" stroke="blue" points="242.50755845131377,211.82563553018556 172.01356416650617,208.3640966141332 "/><polyline class="polyline" opacity="0.5" stroke="blue" points="242.55714517505294,213.4317176591397 171.67954489601868,208.80492043087997 "/><polyline class="polyline" opacity="0.5" stroke="blue" points="242.5855665248282,215.028717658539 171.35025308881993,209.26410911059864 "/><polyline class="polyline" opacity="0.5" stroke="blue" points="242.59285490160906,216.6156838002984 171.02548522455152,209.7418741785427 "/><polyline class="polyline" opacity="0.5" stroke="blue" points="242.57905907501032,218.19167639054595 170.70502887870333,210.23840148339355 "/><polyline class="polyline" opacity="0.5" stroke="blue" points="242.54424401177593,219.7557687140864 170.38866295245478,210.75385026625352 "/><polyline class="polyline" opacity="0.5" stroke="blue" points="242.4884906800346,221.3070479486776 170.07615792009022,211.2883522491825 "/><polyline class="polyline" opacity="0.5" stroke="blue" points="242.41189583006258,222.84461604740466 169.7672760943242,211.84201074613034 "/><polyline class="polyline" opacity="0.5" stroke="blue" points="242.31457175235272,224.3675905875628 169.46177190982957,212.41489979921928 "/><polyline class="polyline" opacity="0.5" stroke="blue" points="242.19664601384432,225.87510558458015 169.1593922252205,213.00706334342283 "/><polyline class="polyline" opacity="0.5" stroke="blue" points="242.05826117322235,227.36631226964488 168.8598766436882,213.61851440277047 "/><polyline class="polyline" opacity="0.5" stroke="blue" points="241.89957447624346,228.84037982982957 168.56295785243486,214.24923432127935 "/><polyline class="polyline" opacity="0.5" stroke="blue" points="241.72075753208816,230.2964961096424 168.268361980991,214.8991720318738 "/><polyline class="polyline" opacity="0.5" stroke="blue" points="241.5219959717807,231.7338682730675 167.97580897843724,215.5682433666003 "/><polyline class="polyline" opacity="0.5" stroke="blue" points="241.30348908974958,233.1517234252966 167.685013009483,216.2563304114772 "/><polyline class="polyline" opacity="0.5" stroke="blue" points="241.06544946963336,234.5493091934872 167.3956828692813,216.96328090933434 "/><polyline class="polyline" opacity="0.5" stroke="blue" points="240.80810259545947,235.925894266021 167.10752241678284,217.68890771399873 "/><polyline class="polyline" opacity="0.5" stroke="blue" points="240.53168644934453,237.28076888987036 166.82023102635065,218.4329882991625 "/><polyline class="polyline" opacity="0.5" stroke="blue" points="240.2364510968788,238.61324532581284 166.53350405727417,219.19526432523426 "/><polyline class="polyline" opacity="0.5" stroke="blue" points="239.92265826136764,239.92265826136764 166.2470333407319,219.9754412674176 "/><polyline class="polyline" opacity="0.5" stroke="blue" points="239.59058088810897,241.20836518145086 165.96050768366524,220.7731881081842 "/><polyline class="polyline" opacity="0.5" stroke="blue" points="239.24050269988444,242.4697466968775 165.6736133889316,221.588137097212 "/><polyline class="polyline" opacity="0.5" stroke="blue" points="238.8727177448413,243.7062068309511 165.38603479101278,222.4198835817384 "/><polyline class="polyline" opacity="0.5" stroke="blue" points="238.4875299379312,244.91717326450623 165.09745480645933,223.2679859101395 "/><polyline class="polyline" opacity="0.5" stroke="blue" points="238.08525259706173,246.10209753987425 164.80755549815746,224.13196541138194 "/><polyline class="polyline" opacity="0.5" stroke="blue" points="237.6662079750996,247.26045522435308 164.51601865240866,225.01130645280966 "/><polyline class="polyline" opacity="0.5" stroke="blue" points="237.23072678884543,248.3917460338609 164.22252636771975,225.90545657852016 "/><polyline class="polyline" opacity="0.5" stroke="blue" points="236.77914774607547,249.49549391755045 163.9267616541076,226.813826730357 "/><polyline class="polyline" opacity="0.5" stroke="blue" points="236.31181707172084,250.57124710424898 163.62840904163187,227.73579155329426 "/><polyline class="polyline" opacity="0.5" stroke="blue" points="235.82908803422305,251.61857811167255 163.3271551967838,228.6706897867192 "/><polyline class="polyline" opacity="0.5" stroke="blue" points="235.33132047307464,252.6370837194414 163.02268954527253,229.6178247428286 "/><polyline class="polyline" opacity="0.5" stroke="blue" points="234.81888032851683,253.6263849069917 162.71470489967425,230.57646487304515 "/><polyline class="polyline" opacity="0.5" stroke="blue" points="234.29213917432963,254.5861267575458 162.40289809033237,231.54584442303732 "/><polyline class="polyline" opacity="0.5" stroke="blue" points="233.7514737546109,255.5159783293596 162.08697059783185,232.52516417658092 "/><polyline class="polyline" opacity="0.5" stroke="blue" points="233.19726552539967,256.4156324955151 161.76662918530727,233.51359228814763 "/><polyline class="polyline" opacity="0.5" stroke="blue" points="232.62990020195608,257.28480575357577 161.44158652879108,234.51026520373938 "/><polyline class="polyline" opacity="0.5" stroke="blue" points="232.0497673124671,258.1232380064551 161.11156184376244,235.51428866910697 "/><polyline class="polyline" opacity="0.5" stroke="blue" points="231.4572597589024,258.93069231588646 160.77628150601888,236.52473882411104 "/><polyline class="polyline" opacity="0.5" stroke="blue" points="230.8527733856986,259.70695462990284 160.4354796649668,237.54066338158782 "/><polyline class="polyline" opacity="0.5" stroke="blue" points="230.23670655690535,260.451833485761 160.08889884740543,238.56108288869623 "/><polyline class="polyline" opacity="0.5" stroke="blue" points="229.609459742378,261.1651596897536 159.73629054987327,239.58499206832278 "/><polyline class="polyline" opacity="0.5" stroke="blue" points="228.971435113558,261.846785975366 159.37741581762643,240.6113612377374 "/><polyline class="polyline" opacity="0.5" stroke="blue" points="228.32303614933397,262.49658664123353 159.0120458083323,241.63913780130247 "/><polyline class="polyline" opacity="0.5" stroke="blue" points="227.6646672524297,263.1144571703578 158.63996233858575,242.66724781366705 "/><polyline class="polyline" opacity="0.5" stroke="blue" points="226.99673337672255,263.7003138320304 158.26095841138965,243.69459760950872 "/><polyline class="polyline" opacity="0.5" stroke="blue" points="226.31963966584664,264.2540932679026 157.87483872278926,244.72007549553723 "/><polyline class="polyline" opacity="0.5" stroke="blue" points="225.63379110339605,264.77575206362474 157.48142014590604,245.74255350013811 "/><polyline class="polyline" opacity="0.5" stroke="blue" points="224.93959217499489,265.2652663074577 157.08053219068586,246.76088917572227 "/><polyline class="polyline" opacity="0.5" stroke="blue" points="224.23744654246252,265.72263113723756 156.67201743775522,247.77392744855356 "/><polyline class="polyline" opacity="0.5" stroke="blue" points="223.52775673026102,266.1478602770459 156.25573194486918,248.78050251055782 "/><polyline class="polyline" opacity="0.5" stroke="blue" points="222.81092382436978,266.5409855649094 155.8315456245327,249.7794397473796 "/><polyline class="polyline" opacity="0.5" stroke="blue" points="222.08734718369723,266.9020564728196 155.39934259148754,250.76955769673663 "/><polyline class="polyline" opacity="0.5" stroke="blue" points="221.3574241641004,267.2311396203266 154.95902147887182,251.74967003094577 "/><polyline class="polyline" opacity="0.5" stroke="blue" points="220.62154985504955,267.5283182829256 154.51049572198812,252.7185875573414 "/><polyline class="polyline" opacity="0.5" stroke="blue" points="219.88011682894043,267.7936918964126 154.05369380874362,253.67512023019756 "/><polyline class="polyline" opacity="0.5" stroke="blue" points="219.13351490302497,268.02737555834483 153.58855949596892,254.61807916768248 "/><polyline class="polyline" opacity="0.5" stroke="blue" points="218.38213091390134,268.2294995277004 153.11505199096374,255.5462786673337 "/><polyline class="polyline" opacity="0.5" stroke="blue" points="217.62634850447583,268.40020872378386 152.63314609776646,256.45853821353154 "/><polyline class="polyline" opacity="0.5" stroke="blue" points="216.8665479232812,268.53966222538156 152.1428323277969,257.3536844704835 "/><polyline class="polyline" opacity="0.5" stroke="blue" points="216.1031058360119,268.6480327711246 151.64411697467452,258.23055325429357 "/><polyline class="polyline" opacity="0.5" stroke="blue" points="215.3363951491139,268.725506261968 151.13702215317102,259.08799147779496 "/><polyline class="polyline" opacity="0.5" stroke="blue" points="214.56678484524252,268.7722812666527 150.62158580240978,259.92485906196384 "/><polyline class="polyline" opacity="0.5" stroke="blue" points="213.794639830385,268.7885685309625 150.09786165358034,260.74003080789953 "/><polyline class="polyline" opacity="0.5" stroke="blue" points="213.0203207924238,268.77459049155004 149.56591916258742,261.5323982235661 "/><polyline class="polyline" opacity="0.5" stroke="blue" points="212.2441840709014,268.73058079505046 149.02584340820425,262.3008712997221 "/><polyline class="polyline" opacity="0.5" stroke="blue" points="211.4665815377312,268.65678382316116 148.47773495644253,263.0443802297351 "/><polyline class="polyline" opacity="0.5" stroke="blue" points="210.6878604885861,268.55345422431714 147.9217096919943,263.76187706826636 "/><polyline class="polyline" opacity="0.5" stroke="blue" points="209.9083635446849,268.42085645254696 147.35789861773262,264.4523373241324 "/><polyline class="polyline" opacity="0.5" stroke="blue" points="209.12842856468518,268.2592643140498 146.786447623385,265.11476148298993 "/><polyline class="polyline" opacity="0.5" stroke="blue" points="208.3483885663825,268.06896052199124 146.20751722461415,265.74817645584926 "/><polyline class="polyline" opacity="0.5" stroke="blue" points="207.5685716579084,267.8502362599715 145.6212822738492,266.3516369498017 "/><polyline class="polyline" opacity="0.5" stroke="blue" points="206.78930097811215,267.6033907545804 145.02793164431395,266.9242267577374 "/><polyline class="polyline" opacity="0.5" stroke="blue" points="206.0108946458082,267.328730857411 144.4276678887912,267.4650599642314 "/><polyline class="polyline" opacity="0.5" stroke="blue" points="205.23366571756375,267.0265706368667 143.82070687474155,267.9732820651906 "/><polyline class="polyline" opacity="0.5" stroke="blue" points="204.4579221537009,266.6972309800576 143.20727739747,268.4480709992688 "/><polyline class="polyline" opacity="0.5" stroke="blue" points="203.68396679218526,266.3410392050468 142.58762077309353,268.88863808947644 "/><polyline class="polyline" opacity="0.5" stroke="blue" points="202.9120973300703,265.9583286836712 141.96199041311212,269.2942288938312 "/><polyline class="polyline" opacity="0.5" stroke="blue" points="202.1426063121694,265.5494384751287 141.3306513824259,269.66412396431144 "/><polyline class="polyline" opacity="0.5" stroke="blue" points="201.37578112662553,265.11471297049144 140.69387994267038,269.9976395137822 "/><polyline class="polyline" opacity="0.5" stroke="blue" points="200.61190400705357,264.6545015482738 140.05196308275788,270.29412799096536 "/><polyline class="polyline" opacity="0.5" stroke="blue" points="199.85125204092873,264.1691582411553 139.40519803852106,270.55297856391564 "/><polyline class="polyline" opacity="0.5" stroke="blue" points="199.09409718390114,263.65904141393014 138.75389180335162,270.7736175128398 "/><polyline class="polyline" opacity="0.5" stroke="blue" points="198.34070627971815,263.12451345273 138.09836063171355,270.9555085334571 "/><polyline class="polyline" opacity="0.5" stroke="blue" points="197.59134108544168,262.5659404655405 137.4389295373883,271.0981529524447 "/><polyline class="polyline" opacity="0.5" stroke="blue" points="196.84625830165106,261.9836919940091 136.77593178827664,271.2010898568337 "/><polyline class="polyline" opacity="0.5" stroke="blue" points="196.10570960732895,261.37814073652146 136.10970839954277,271.2638961395288 "/><polyline class="polyline" opacity="0.5" stroke="blue" points="195.3699416991318,260.7496622824995 135.4406076268366,271.28618646340647 "/><polyline class="polyline" opacity="0.5" stroke="blue" points="194.63919633475467,260.09863485785917 134.76898446127717,271.26761314670523 "/><polyline class="polyline" opacity="0.5" stroke="blue" points="193.91371038010334,259.4254390815448 134.09520012781388,271.2078659726619 "/><polyline class="polyline" opacity="0.5" stroke="blue" points="193.19371585999633,258.73045773304165 133.41962158851837,271.10667192655905 "/><polyline class="polyline" opacity="0.5" stroke="blue" points="192.4794400121253,258.01407553075364 132.74262105228337,270.9637948635358 "/><polyline class="polyline" opacity="0.5" stroke="blue" points="191.7711053440079,257.2766789211166 132.0645754923272,270.7790351106831 "/><polyline class="polyline" opacity="0.5" stroke="blue" points="191.06892969267702,256.5186558783077 131.38586617282147,270.55222900708077 "/><polyline class="polyline" opacity="0.5" stroke="blue" points="190.37312628685495,255.74039571439604 130.70687818587228,270.28324838555176 "/><polyline class="polyline" opacity="0.5" stroke="blue" points="189.68390381137155,254.94228889977256 130.02800000000002,269.972 "/><polyline class="polyline" opacity="0.5" stroke="blue" points="189.00146647358903,254.12472689368423 129.34962302116907,269.6184249022699 "/><polyline class="polyline" opacity="0.5" stroke="blue" points="188.32601407160757,253.2881019846896 128.67214116733155,269.2224977725095 "/><polyline class="polyline" opacity="0.5" stroke="blue" points="187.65774206402997,252.43280714084685 127.9959504573547,268.78422620704686 "/><polyline class="polyline" opacity="0.5" stroke="blue" points="186.99684164107427,251.55923586943547 127.32144861511132,268.30364996779394 "/><polyline class="polyline" opacity="0.5" stroke="blue" points="186.34349979682733,250.66778208600832 126.64903468941945,267.78084019717653 "/><polyline class="polyline" opacity="0.5" stroke="blue" points="185.69789940244277,249.75883999256496 125.97910869042967,267.2158986025568 "/><polyline class="polyline" opacity="0.5" stroke="blue" points="185.06021928009167,248.83280396463243 125.31207124296688,266.60895661406516 "/><polyline class="polyline" opacity="0.5" stroke="blue" points="184.43063427748345,247.89006844703636 124.64832325724903,265.9601745196913 "/><polyline class="polyline" opacity="0.5" stroke="blue" points="183.80931534277966,246.9310278581406 123.98826561731816,265.26974058140524 "/><polyline class="polyline" opacity="0.5" stroke="blue" points="183.19642959973166,245.95607650233188 123.33229888743847,264.5378701359838 "/><polyline class="polyline" opacity="0.5" stroke="blue" points="182.59214042287948,244.96560849052491 122.68082303663822,263.76480468411444 "/><polyline class="polyline" opacity="0.5" stroke="blue" points="181.99660751265546,243.9600176684585 122.03423718149318,262.95081097123136 "/><polyline class="polyline" opacity="0.5" stroke="blue" points="181.40998697024327,242.93969755255628 121.39293934718157,262.0961800634115 "/><polyline class="polyline" opacity="0.5" stroke="blue" points="180.83243137204846,241.90504127312136 120.75732624676611,261.20122642153035 "/><polyline class="polyline" opacity="0.5" stroke="blue" points="180.26408984364457,240.85644152463715 120.12779307860096,260.26628697673107 "/><polyline class="polyline" opacity="0.5" stroke="blue" points="179.70510813306115,239.7942905229433 119.50473334169281,259.29172021012016 "/><polyline class="polyline" opacity="0.5" stroke="blue" points="179.15562868329047,238.71897996906 118.88853866879424,258.27790523945083 "/><polyline class="polyline" opacity="0.5" stroke="blue" points="178.6157907038908,237.6309010194307 118.27959867695157,257.22524091540305 "/><polyline class="polyline" opacity="0.5" stroke="blue" points="178.08573024157286,236.53044426235832 117.67830083518047,256.13414492991626 "/><polyline class="polyline" opacity="0.5" stroke="blue" points="177.56558024965878,235.41799970040765 117.08503034889857,255.0050529388716 "/><polyline class="polyline" opacity="0.5" stroke="blue" points="177.0554706563094,234.29395673855066 116.50017006070277,253.83841770126799 "/><polyline class="polyline" opacity="0.5" stroke="blue" points="176.55552843141913,233.15870417783148 115.92410036703986,252.6347082368789 "/><polyline class="polyline" opacity="0.5" stroke="blue" points="176.065877652084,232.01263021433184 115.35719915028973,251.394409004225 "/><polyline class="polyline" opacity="0.5" stroke="blue" points="175.58663956655045,230.85612244321598 114.79984172574504,250.11801910054368 "/><polyline class="polyline" opacity="0.5" stroke="blue" points="175.11793265655825,229.6895678676396 114.25240080294931,248.8060514852903 "/><polyline class="polyline" opacity="0.5" stroke="blue" points="174.65987269799516,228.5133529123087 113.7152464608296,247.45903222856157 "/><polyline class="polyline" opacity="0.5" stroke="blue" points="174.21257281978237,227.32786344147388 113.18874613604153,246.0774997856855 "/><polyline class="polyline" opacity="0.5" stroke="blue" points="173.77614356091638,226.13348478115142 112.67326462392603,244.66200429909247 "/><polyline class="polyline" opacity="0.5" stroke="blue" points="173.35069292559388,224.93060174536166 112.16916409146414,243.21310692844406 "/><polyline class="polyline" opacity="0.5" stroke="blue" points="172.936326436351,223.7195986661801 111.67680410160463,241.7313792098742 "/><polyline class="polyline" opacity="0.5" stroke="blue" points="172.53314718515037,222.50085942739545 111.19654164832994,240.2174024450706 "/><polyline class="polyline" opacity="0.5" stroke="blue" points="172.14125588235262,221.27476750157425 110.728731201818,238.67176712081408 "/><polyline class="polyline" opacity="0.5" stroke="blue" points="171.76075090351196,220.04170599033094 110.27372476305575,237.09507235947774 "/><polyline class="polyline" opacity="0.5" stroke="blue" points="171.39172833393752,218.80205766760727 109.83187192725399,235.48792540088834 "/><polyline class="polyline" opacity="0.5" stroke="blue" points="171.03428201096497,217.5562050257629 109.40351995541381,233.8509411158489 "/><polyline class="polyline" opacity="0.5" stroke="blue" points="170.68850356388455,216.30453032428383 108.98901385339506,232.18474155153126 "/><polyline class="polyline" opacity="0.5" stroke="blue" points="170.35448245147515,215.04741564091685 108.58869645783817,230.48995550886116 "/><polyline class="polyline" opacity="0.5" stroke="blue" points="170.03230599709408,213.78524292503698 108.20290852829378,228.76721815193312 "/><polyline class="polyline" opacity="0.5" stroke="blue" points="169.72205942127619,212.51839405305947 107.83198884491829,227.01717064942008 "/><polyline class="polyline" opacity="0.5" stroke="blue" points="169.42382587179566,211.24725088570656 107.47627431109757,225.2404598478698 "/><polyline class="polyline" opacity="0.5" stroke="blue" points="169.13768645114794,209.97219532694336 107.13610006036602,223.43773797671827 "/><polyline class="polyline" opacity="0.5" stroke="blue" points="168.86372024140823,208.6936093843936 106.81179956699344,221.60966238478443 "/><polyline class="polyline" opacity="0.5" stroke="blue" points="168.6020043264262,207.41187523105108 106.5037047596187,219.7568953079612 "/><polyline class="polyline" opacity="0.5" stroke="blue" points="168.35261381131778,206.12737526810062 106.21214613731371,217.8801036677629 "/><polyline class="polyline" opacity="0.5" stroke="blue" points="168.1156218392159,204.84049218866426 105.93745288746774,215.97995890034673 "/><polyline class="polyline" opacity="0.5" stroke="blue" points="167.89109960524272,203.55160904228657 105.6799530048884,214.05713681557827 "/><polyline class="polyline" opacity="0.5" stroke="blue" points="167.67911636766894,202.26110929997517 105.43997341151949,212.11231748567943 "/><polyline class="polyline" opacity="0.5" stroke="blue" points="167.47973945622527,200.96937691961077 105.21784007618292,210.14618516295585 "/><polyline class="polyline" opacity="0.5" stroke="blue" points="167.29303427753274,199.67679641154217 105.01387813375489,208.15942822607659 "/><polyline class="polyline" opacity="0.5" stroke="blue" points="167.1190643176204,198.38375290417915 104.82841200319267,206.15273915434219 "/><polyline class="polyline" opacity="0.5" stroke="blue" points="166.95789114149915,197.0906322093961 104.66176550382878,204.12681452935874 "/><polyline class="polyline" opacity="0.5" stroke="blue" points="166.80957438976213,195.79782088756082 104.51426196935635,202.08235506350934 "/><polyline class="polyline" opacity="0.5" stroke="blue" points="166.67417177218314,194.50570631199665 104.38622435892701,200.02006565459186 "/><polyline class="polyline" opacity="0.5" stroke="blue" points="166.5517390582852,193.21467673268944 104.27797536478775,197.9406554659754 "/><polyline class="polyline" opacity="0.5" stroke="blue" points="166.44233006485354,191.92512133904665 104.18983751588071,195.84483803160717 "/><polyline class="polyline" opacity="0.5" stroke="blue" points="166.34599664036762,190.63743032151606 104.1221332768307,193.73333138518973 "/><polyline class="polyline" opacity="0.5" stroke="blue" points="166.26278864632866,189.3519949318669 104.07518514174376,191.6068582128253 "/><polyline class="polyline" opacity="0.5" stroke="blue" points="166.1927539354594,188.0692075419376 104.04931572223586,189.466146028417 "/><polyline class="polyline" opacity="0.5" stroke="blue" points="166.13593832675625,186.7894617006486 104.04484782910953,187.31192737109606 "/><polyline class="polyline" opacity="0.5" stroke="blue" points="166.0923855773728,185.51315218908007 104.06210454708955,185.14494002393533 "/><polyline class="polyline" opacity="0.5" stroke="blue" points="166.06213735131763,184.24067507340771 104.10140930202412,182.96592725318763 "/><polyline class="polyline" opacity="0.5" stroke="blue" points="166.04523318494952,182.97242775549077 104.16308591995109,180.77563806728003 "/><polyline class="polyline" opacity="0.5" stroke="blue" points="166.04171044925513,181.7088090209002 104.24745867741976,178.57482749477236 "/><polyline class="polyline" opacity="0.5" stroke="blue" points="166.05160430889686,180.4502190841766 104.35485234245255,176.36425688047905 "/><polyline class="polyline" opacity="0.5" stroke="blue" points="166.07494767801964,179.1970596310985 104.48559220551766,174.14469419892637 "/><polyline class="polyline" opacity="0.5" stroke="blue" points="166.1117711728083,177.94973385774296 104.64000409987501,171.91691438430476 "/><polyline class="polyline" opacity="0.5" stroke="blue" points="166.16210306078892,176.70864650611665 104.81841441064603,169.68169967605348 "/><polyline class="polyline" opacity="0.5" stroke="blue" points="166.22596920687067,175.47420389613012 105.02115007194361,167.4398399791871 "/><polyline class="polyline" opacity="0.5" stroke="blue" points="166.3033930161265,174.24681395368603 105.24853855138646,165.1921332384536 "/><polyline class="polyline" opacity="0.5" stroke="blue" points="166.39439537331492,173.02688623464942 105.50090782130722,162.9393858253817 "/><polyline class="polyline" opacity="0.5" stroke="blue" points="166.49899457914705,171.81483194446395 105.77858631594788,160.68241293724859 "/><polyline class="polyline" opacity="0.5" stroke="blue" points="166.61720628330744,170.61106395317353 106.08190287392253,158.42203900696043 "/><polyline class="polyline" opacity="0.5" stroke="blue" points="166.74904341423976,169.4159968056082 106.41118666520863,156.1590981228066 "/><polyline class="polyline" opacity="0.5" stroke="blue" points="166.89451610571294,168.2300467264864 106.76676710191373,153.89443445700482 "/><polyline class="polyline" opacity="0.5" stroke="blue" points="167.0536316201868,167.0536316201868 107.14897373204651,151.62890270191605 "/><polyline class="polyline" opacity="0.5" stroke="blue" points="167.22639426900065,165.88717106493502 107.55813611550514,149.3633685127541 "/><polyline class="polyline" opacity="0.5" stroke="blue" points="167.41280532941283,164.73108630115104 107.99458368147678,147.0987089555703 "/><polyline class="polyline" opacity="0.5" stroke="blue" points="167.61286295852418,163.58580021369997 108.45864556643036,144.8358129592359 "/><polyline class="polyline" opacity="0.5" stroke="blue" points="167.82656210412267,162.45173730778436 108.95065043186136,142.5755817700884 "/><polyline class="polyline" opacity="0.5" stroke="blue" points="168.05389441249332,161.32932367821607 109.47092626093855,140.31892940784024 "/><polyline class="polyline" opacity="0.5" stroke="blue" points="168.29484813324132,160.21898697180174 110.01980013318418,138.06678312128605 "/><polyline class="polyline" opacity="0.5" stroke="blue" points="168.54940802118392,159.1211563425768 110.59759797630426,135.8200838422718 "/><polyline class="polyline" opacity="0.5" stroke="blue" points="168.81755523537205,158.03626239961793 111.20464429427778,133.57978663630922 "/><polyline class="polyline" opacity="0.5" stroke="blue" points="169.09926723530936,156.96473714716606 111.84126187079688,131.3468611481428 "/><polyline class="polyline" opacity="0.5" stroke="blue" points="169.39451767444393,155.90701391678923 112.50777144714652,129.12229204048742 "/><polyline class="polyline" opacity="0.5" stroke="blue" points="169.7032762910143,154.86352729131704 113.20449137360089,126.90707942406964 "/><polyline class="polyline" opacity="0.5" stroke="blue" points="170.02550879633998,153.8347130202742 113.93173723341283,124.70223927700297 "/><polyline class="polyline" opacity="0.5" stroke="blue" points="170.36117676065425,152.82100792654768 114.68982143846958,122.50880385143859 "/><polyline class="polyline" opacity="0.5" stroke="blue" points="170.7102374965854,151.82284980401738 115.47905279569119,120.3278220653202 "/><polyline class="polyline" opacity="0.5" stroke="blue" points="171.07264394040124,150.84067730588816 116.29973604325207,118.16035987697336 "/><polyline class="polyline" opacity="0.5" stroke="blue" points="171.44834453114117,149.87492982345842 117.15217135571876,116.00750064013909 "/><polyline class="polyline" opacity="0.5" stroke="blue" points="171.83728308776907,148.9260473550686 118.03665381720955,113.87034543695445 "/><polyline class="polyline" opacity="0.5" stroke="blue" points="172.23939868449017,147.99447036497423 118.95347286170231,111.75001338625853 "/><polyline class="polyline" opacity="0.5" stroke="blue" points="172.65462552438538,147.08063963189628 119.9029116796417,109.64764192448641 "/><polyline class="polyline" opacity="0.5" stroke="blue" points="173.08289281152656,146.18499608700404 120.88524659003006,107.56438705628229 "/><polyline class="polyline" opacity="0.5" stroke="blue" points="173.52412462174777,145.30798064109644 121.90074637722404,105.50142357184453 "/><polyline class="polyline" opacity="0.5" stroke="blue" points="173.97823977225747,144.45003400075487 122.94967159170331,103.45994522788352 "/><polyline class="polyline" opacity="0.5" stroke="blue" points="174.44515169028884,143.6115964732474 124.03227381413492,101.44116488894412 "/><polyline class="polyline" opacity="0.5" stroke="blue" points="174.9247682809973,142.79310775997885 125.14879488211689,99.44631462572026 "/><polyline class="polyline" opacity="0.5" stroke="blue" points="175.41699179482512,141.99500673828828 126.29946607905713,97.47664576685628 "/><polyline class="polyline" opacity="0.5" stroke="blue" points="175.92171869456575,141.21773123141264 127.48450728472474,95.53342890060983 "/><polyline class="polyline" opacity="0.5" stroke="blue" points="176.43883952237394,140.4617177664452 128.70412608710507,93.61795382262126 "/><polyline class="polyline" opacity="0.5" stroke="blue" points="176.96823876697783,139.72740132013482 129.95851685529033,91.7315294259216 "/><polyline class="polyline" opacity="0.5" stroke="blue" points="177.5097947313647,139.01521505238983 131.24785977325683,89.87548352919259 "/><polyline class="polyline" opacity="0.5" stroke="blue" points="178.06337940122225,138.32559002736596 132.57231983450174,88.05116263918964 "/><polyline class="polyline" opacity="0.5" stroke="blue" points="178.62885831443268,137.65895492203924 133.93204579766137,86.25993164313348 "/><polyline class="polyline" opacity="0.5" stroke="blue" points="179.20609043192806,137.0157357221845 135.32716910338084,84.50317342679206 "/><polyline class="polyline" opacity="0.5" stroke="blue" points="179.794928010229,136.3963554057052 136.75780275287727,82.78228841389628 "/><polyline class="polyline" opacity="0.5" stroke="blue" points="180.3952164760018,135.80123361328083 138.22404014882358,81.09869402246228 "/><polyline class="polyline" opacity="0.5" stroke="blue" points="181.00679430298206,135.23078630632742 139.72595389937675,79.4538240335529 "/><polyline class="polyline" opacity="0.5" stroke="blue" points="181.62949289162546,134.68542541229257 141.26359458639405,77.84912786797204 "/><polyline class="polyline" opacity="0.5" stroke="blue" points="182.26313645185778,134.16555845733484 142.83698949910487,76.2860697663792 "/><polyline class="polyline" opacity="0.5" stroke="blue" points="182.90754188931095,133.6715881864704 144.44614133476404,74.76612786831507 "/><polyline class="polyline" opacity="0.5" stroke="blue" points="183.5625186954413,133.20391217129932 146.09102686806702,73.29079318567233 "/><polyline class="polyline" opacity="0.5" stroke="blue" points="184.22786884193937,132.7629224054602 147.7715955913952,71.86156846619872 "/><polyline class="polyline" opacity="0.5" stroke="blue" points="184.9033866798504,132.34900488799713 149.48776832825203,70.47996694271893 "/><polyline class="polyline" opacity="0.5" stroke="blue" points="185.58885884383653,131.96253919485915 151.23943582257024,69.14751096387835 "/><polyline class="polyline" opacity="0.5" stroke="blue" points="186.28406416202034,131.60389803879252 153.0264573068934,67.86573050237698 "/><polyline class="polyline" opacity="0.5" stroke="blue" points="186.9887735718598,131.27344681792619 154.84865905278548,66.63616153685379 "/><polyline class="polyline" opacity="0.5" stroke="blue" points="187.70275004251107,130.9715431533935 156.70583290717485,65.46034430382349 "/><polyline class="polyline" opacity="0.5" stroke="blue" points="188.42574850414593,130.69853641637474 158.5977348187185,64.33982141634257 "/><polyline class="polyline" opacity="0.5" stroke="blue" points="189.1575157846953,130.45476724499238 160.52408335864996,63.27613584641455 "/><polyline class="polyline" opacity="0.5" stroke="blue" points="189.89779055449506,130.2405670515355 162.48455824097033,62.27082876851392 "/><polyline class="polyline" opacity="0.5" stroke="blue" points="190.6463032793178,130.05625752053783 164.47879884724816,61.32543726203781 "/><polyline class="polyline" opacity="0.5" stroke="blue" points="191.40277618227412,129.90215009828185 166.50640276169668,60.44149187096946 "/><polyline class="polyline" opacity="0.5" stroke="blue" points="192.166923215071,129.7785454743509 168.5669243226161,59.62051401957444 "/><polyline class="polyline" opacity="0.5" stroke="blue" points="192.93845003911355,129.68573305590252 170.65987319669603,58.86401328354003 "/><polyline class="polyline" opacity="0.5" stroke="blue" points="193.7170540169372,129.6239904353856 172.78471298309202,58.173484516613314 "/><polyline class="polyline" opacity="0.5" stroke="blue" points="194.5024242144531,129.5935828524763 174.94085985458975,57.55040483350342 "/><polyline class="polyline" opacity="0.5" stroke="blue" points="195.2942414144861,129.59476265106002 177.12768124357277,56.996230450579446 "/><polyline class="polyline" opacity="0.5" stroke="blue" points="196.09217814207733,129.62776873213738 179.34449458088739,56.512393386715814 "/><polyline class="polyline" opacity="0.5" stroke="blue" points="196.89589870201743,129.69282600358613 181.59056609607111,56.100298027525554 "/><polyline class="polyline" opacity="0.5" stroke="blue" points="197.7050592290639,129.79014482776006 183.86510968774718,55.761317557157014 "/><polyline class="polyline" opacity="0.5" stroke="blue" points="198.5193077512867,129.91992046796025 186.167285873307,55.496790262826465 "/><polyline class="polyline" opacity="0.5" stroke="blue" points="199.3382842669692,130.08233253486202 188.49620082728185,55.30801571830628 "/><polyline class="polyline" opacity="0.5" stroke="blue" points="200.16162083547823,130.27754443403177 190.85090551805206,55.19625085367733 "/><polyline class="polyline" opacity="0.5" stroke="blue" points="200.98894168249723,130.50570281571694 193.23039495273858,55.162705919799976 "/><polyline class="polyline" opacity="0.5" stroke="blue" points="201.81986331999397,130.76693702813682 195.63360754026937,55.20854035712685 "/><polyline class="polyline" opacity="0.5" stroke="blue" points="202.65399468127546,131.0613585755494 198.0594245827123,55.334858579688415 "/><polyline class="polyline" opacity="0.5" stroke="blue" points="203.4909372714528,131.3890605824113 200.50666990498956,55.542705686318385 "/><polyline class="polyline" opacity="0.5" stroke="blue" points="204.33028533361443,131.7501172649885 202.9741096330575,55.83306311242262 "/><polyline class="polyline" opacity="0.5" stroke="blue" points="205.17162603097321,132.14458341181268 205.46045213051917,56.2068442368537 "/><polyline class="polyline" opacity="0.5" stroke="blue" points="206.01453964522324,132.57249387441465 207.96434810345355,56.66488995969496 "/><polyline class="polyline" opacity="0.5" stroke="blue" points="206.8585997913048,133.03386306979587 210.48439088296402,57.20796426798978 "/><polyline class="polyline" opacity="0.5" stroke="blue" points="207.70337364874058,133.52868449612782 213.01911689458993,57.83674980765031 "/><polyline class="polyline" opacity="0.5" stroke="blue" points="208.54842220966478,134.05693026319267 215.56700632326192,58.55184348093749 "/><polyline class="polyline" opacity="0.5" stroke="blue" points="209.39330054362813,134.61855063909854 218.126483981935,59.35375209000705 "/><polyline class="polyline" opacity="0.5" stroke="blue" points="210.23755807921432,135.2134736148172 220.69592039137123,60.242888048044705 "/><polyline class="polyline" opacity="0.5" stroke="blue" points="211.08073890246047,135.84160448810258 223.27363307779376,61.21956518045698 "/><polyline class="polyline" opacity="0.5" stroke="blue" points="211.92238207202388,136.50282546835254 225.85788809426973,62.283994639425714 "/></svg>
