<?xml version="1.0" encoding="UTF-8"?>
<!DOCTYPE svg PUBLIC "-//W3C//DTD SVG 1.1//EN"
    "http://www.w3.org/Graphics/SVG/1.1/DTD/svg11.dtd"><svg width="400" height="400" stroke="black" fill="none" fill-opacity="0.75" font-size="14" font-style="italic" font-family="sans-serif" xmlns="http://www.w3.org/2000/svg" xmlns:xlink="http://www.w3.org/1999/xlink" version="1.1"><filter id="blur1"><feGaussianBlur stdDeviation="0.5"/></filter><rect width="100%" height="100%" fill="white" stroke="none" fill-opacity="1"/><rect class="bg" fill="black" width="100%" height="100%" stroke="none" fill-opacity="1"/><polyline class="polyline" opacity="0.5" stroke="blue" points="216.83371810149916,140.61446205535776 237.6322836466923,69.50375549429185 "/><polyline class="polyline" opacity="0.5" stroke="blue" points="217.77261525669877,141.46602124033953 240.43050037249338,71.0536547533383 "/><polyline class="polyline" opacity="0.5" stroke="blue" points="218.70634629017127,142.34869929408978 243.22097396209895,72.68863868365776 "/><polyline class="polyline" opacity="0.5" stroke="blue" points="219.63435922763887,143.26216568793194 246.00142812298552,74.40790379132287 "/><polyline class="polyline" opacity="0.5" stroke="blue" points="220.55610071924968,144.20606504815032 248.76956101476446,76.21051894498707 "/><polyline class="polyline" opacity="0.5" stroke="blue" points="221.47101656712908,145.180017114848 251.52304953840064,78.09542427327088 "/><polyline class="polyline" opacity="0.5" stroke="blue" points="222.3785522655185,146.18361673712158 254.25955382447802,80.06143044231547 "/><polyline class="polyline" opacity="0.5" stroke="blue" points="223.27815355264804,147.21643390546464 256.9767219069239,82.10721833009154 "/><polyline class="polyline" opacity="0.5" stroke="blue" points="224.1692669734324,148.2780138222265 259.6721945669444,84.23133911226242 "/><polyline class="polyline" opacity="0.5" stroke="blue" points="225.0513404520235,149.3678770108657 262.3436103303149,86.43221477242413 "/><polyline class="polyline" opacity="0.5" stroke="blue" points="225.92382387320055,150.48551946464232 264.98861059962667,88.70813904738087 "/><polyline class="polyline" opacity="0.5" stroke="blue" points="226.78616967152678,151.6304128352954 267.6048449016395,91.0572788157844 "/><polyline class="polyline" opacity="0.5" stroke="blue" points="227.63783342715323,152.80200466214671 270.1899762285333,93.47767593598742 "/><polyline class="polyline" opacity="0.5" stroke="blue" points="228.47827446710514,153.99971864196408 272.74168645062895,95.96724953633829 "/><polyline class="polyline" opacity="0.5" stroke="blue" points="229.30695647084332,155.22295493980604 275.2576817770546,98.52379875842203 "/><polyline class="polyline" opacity="0.5" stroke="blue" points="230.1233480788544,156.47109054095236 277.73569823989936,101.14500595092942 "/><polyline class="polyline" opacity="0.5" stroke="blue" points="230.926923502989,157.74347964390674 280.1735071766321,103.8284403089565 "/><polyline class="polyline" opacity="0.5" stroke="blue" points="231.71716313723553,159.03945409433592 282.56892068497666,106.57156195061674 "/><polyline class="polyline" opacity="0.5" stroke="blue" points="232.49355416759053,160.3583238596861 284.91979702404956,109.37172641991842 "/><polyline class="polyline" opacity="0.5" stroke="blue" points="233.25559117966472,161.69937754409048 287.2240459353751,112.22618960195682 "/><polyline class="polyline" opacity="0.5" stroke="blue" points="234.00277676264645,163.06188294305758 289.4796338574195,115.13211303361031 "/><polyline class="polyline" opacity="0.5" stroke="blue" points="234.7346221082311,164.44508763730033 291.68458900752296,118.08656959015605 "/><polyline class="polyline" opacity="0.5" stroke="blue" points="235.45064760311874,165.84821962494067 293.83700630556154,121.08654952555675 "/><polyline class="polyline" opacity="0.5" stroke="blue" points="236.15038341367944,167.27048799119768 295.9350521143424,124.12896684164465 "/><polyline class="polyline" opacity="0.5" stroke="blue" points="236.83337006138848,168.7110836145418 297.9769687726181,127.210665959072 "/><polyline class="polyline" opacity="0.5" stroke="blue" points="237.49915898764405,170.16917990817583 299.9610788976939,130.32842866073537 "/><polyline class="polyline" opacity="0.5" stroke="blue" points="238.1473131065917,171.64393359558187 301.88578943589096,133.4789812764363 "/><polyline class="polyline" opacity="0.5" stroke="blue" points="238.77740734460173,173.134485518757 303.74959544059783,136.65900207583658 "/><polyline class="polyline" opacity="0.5" stroke="blue" points="239.389029165069,174.6399614776471 305.55108355929246,139.86512883532268 "/><polyline class="polyline" opacity="0.5" stroke="blue" points="239.98177907723647,176.15947309917877 307.2889352127165,143.09396654322262 "/><polyline class="polyline" opacity="0.5" stroke="blue" points="240.55527112777895,177.69211873418604 308.9619294513275,146.34209520693818 "/><polyline class="polyline" opacity="0.5" stroke="blue" points="241.10913337392492,179.23698438043002 310.5689454762132,149.60607772496917 "/><polyline class="polyline" opacity="0.5" stroke="blue" points="241.64300833693997,180.79314462981705 312.10896481381394,152.88246778652336 "/><polyline class="polyline" opacity="0.5" stroke="blue" points="242.15655343484798,182.35966363783604 313.58107313603045,156.16781776142648 "/><polyline class="polyline" opacity="0.5" stroke="blue" points="242.64944139332022,183.935596113156 314.9844617195845,159.45868654336837 "/><polyline class="polyline" opacity="0.5" stroke="blue" points="243.12136063372424,185.51998832525513 316.3184285408142,162.75164731013987 "/><polyline class="polyline" opacity="0.5" stroke="blue" points="243.57201563738832,187.11187912788796 317.5823790044111,166.04329516541583 "/><polyline class="polyline" opacity="0.5" stroke="blue" points="244.0011272852063,188.71030099614396 318.7758263069049,169.33025462782098 "/><polyline class="polyline" opacity="0.5" stroke="blue" points="244.40843317177905,190.314281074803 319.89839143797235,172.60918693444464 "/><polyline class="polyline" opacity="0.5" stroke="blue" points="244.7936878933647,191.9228422356564 320.9498028248403,175.8767971276477 "/><polyline class="polyline" opacity="0.5" stroke="blue" points="245.15666330898836,193.53500414143346 321.9298956271773,179.12984089589006 "/><polyline class="polyline" opacity="0.5" stroke="blue" points="245.4971487741418,195.14978431395346 322.83861069187844,182.36513114139493 "/><polyline class="polyline" opacity="0.5" stroke="blue" points="245.8149513465879,196.76619920411414 323.6759931790456,185.57954424971422 "/><polyline class="polyline" opacity="0.5" stroke="blue" points="246.1098959638684,198.38326526132445 324.44219087222444,188.77002603865438 "/><polyline class="polyline" opacity="0.5" stroke="blue" points="246.3818255922004,200.0 325.13745218757066,191.93359736652965 "/><polyline class="polyline" opacity="0.5" stroke="blue" points="246.63060134653307,201.61542306075572 325.7621238980665,195.06735938230253 "/><polyline class="polyline" opacity="0.5" stroke="blue" points="246.85610258162427,203.22855726395684 326.31664859019253,198.1684984028244 "/><polyline class="polyline" opacity="0.5" stroke="blue" points="247.05822695408472,204.8384296533247 326.8015618715615,201.23429040507102 "/><polyline class="polyline" opacity="0.5" stroke="blue" points="247.2368904554225,206.44407252733856 327.2174893489498,204.26210512395375 "/><polyline class="polyline" opacity="0.5" stroke="blue" points="247.39202741621017,208.04452445622587 327.56514339690216,207.24940974895097 "/><polyline class="polyline" opacity="0.5" stroke="blue" points="247.52359048157922,209.6388312823948 327.84531973764604,210.19377221542064 "/><polyline class="polyline" opacity="0.5" stroke="blue" points="247.63155055833164,211.22604710222993 328.05889385343613,213.0928640890005 "/><polyline class="polyline" opacity="0.5" stroke="blue" points="247.71589673404023,212.80523522724906 328.2068172526525,215.94446304395987 "/><polyline class="polyline" opacity="0.5" stroke="blue" points="247.7766361685878,214.37546912269883 328.29011361101345,218.7464549387103 "/><polyline class="polyline" opacity="0.5" stroke="blue" points="247.81379395867265,215.93583332175777 328.309874809138,221.49683549390235 "/><polyline class="polyline" opacity="0.5" stroke="blue" points="247.82741297588137,217.4854243136082 328.26725688741897,224.19371158061494 "/><polyline class="polyline" opacity="0.5" stroke="blue" points="247.81755367900047,219.02335140373847 328.16347593874264,226.83530212806488 "/><polyline class="polyline" opacity="0.5" stroke="blue" points="247.78429390130478,220.54873754494196 327.99980395904515,229.41993866203077 "/><polyline class="polyline" opacity="0.5" stroke="blue" points="247.727728613624,222.06072013758688 327.7775646750246,231.94606548677544 "/><polyline class="polyline" opacity="0.5" stroke="blue" points="247.6479696640469,223.55845179784393 327.49812936755404,234.41223952466783 "/><polyline class="polyline" opacity="0.5" stroke="blue" points="247.54514549517873,225.0411010926733 327.16291270847137,236.8171298289485 "/><polyline class="polyline" opacity="0.5" stroke="blue" points="247.4194008399156,226.50785324049082 326.77336862747813,239.1595167861418 "/><polyline class="polyline" opacity="0.5" stroke="blue" points="247.27089639674722,227.9579107765514 326.33098622486307,241.43829102550646 "/><polyline class="polyline" opacity="0.5" stroke="blue" points="247.0998084856385,229.39049418220912 325.83728574470024,243.652452053625 "/><polyline class="polyline" opacity="0.5" stroke="blue" points="246.90632868557782,230.80484247733472 325.29381462206663,245.80110663278077 "/><polyline class="polyline" opacity="0.5" stroke="blue" points="246.69066345491103,232.2002137752911 324.7021436166874,247.88346692214864 "/><polyline class="polyline" opacity="0.5" stroke="blue" points="246.45303373560517,233.5758857999893 324.0638630442651,249.89884840105486 "/><polyline class="polyline" opacity="0.5" stroke="blue" points="246.1936745426101,234.93115636466663 323.3805791155934,251.84666759364188 "/><polyline class="polyline" opacity="0.5" stroke="blue" points="245.9128345395005,236.26534381214603 322.65391039240274,253.72643961421738 "/><polyline class="polyline" opacity="0.5" stroke="blue" points="245.6107756015939,237.5777874164524 321.8854843677471,255.53777555238617 "/><polyline class="polyline" opacity="0.5" stroke="blue" points="245.2877723677477,238.8678477457741 321.0769341776253,257.28037971676395 "/><polyline class="polyline" opacity="0.5" stroke="blue" points="244.94411178204058,240.13490698686905 320.22989544944414,258.9540467556703 "/><polyline class="polyline" opacity="0.5" stroke="blue" points="244.58009262654198,241.37836923112033 319.3460032918833,260.55865867270063 "/><polyline class="polyline" opacity="0.5" stroke="blue" points="244.19602504636725,242.5976607225512 318.42688942971256,262.09418175450026 "/><polyline class="polyline" opacity="0.5" stroke="blue" points="243.79223006820632,243.79223006820632 317.4741794861582,263.5606634274086 "/><polyline class="polyline" opacity="0.5" stroke="blue" points="243.3690391134988,244.9615484114021 316.48949041450055,264.95822905893493 "/><polyline class="polyline" opacity="0.5" stroke="blue" points="242.92679350741156,246.1051095684383 315.4744280797391,266.2870787192628 "/><polyline class="polyline" opacity="0.5" stroke="blue" points="242.4658439847522,247.22243012944733 314.43058499036033,267.54748391717817 "/><polyline class="polyline" opacity="0.5" stroke="blue" points="241.98655019392828,248.31304952413868 313.3595381795083,268.7397843239849 "/><polyline class="polyline" opacity="0.5" stroke="blue" points="241.4892802000328,249.37653005326925 312.26284723417655,269.8643844981153 "/><polyline class="polyline" opacity="0.5" stroke="blue" points="240.97440998810745,250.4124568867397 311.14205247042565,270.9217506222763 "/><polyline class="polyline" opacity="0.5" stroke="blue" points="240.44232296760043,251.42043802928063 309.9986732520673,271.9124072640972 "/><polyline class="polyline" opacity="0.5" stroke="blue" points="239.89340947900007,252.40010425474983 308.8342064497551,272.8369341703736 "/><polyline class="polyline" opacity="0.5" stroke="blue" points="239.32806630358849,253.35110901011456 307.6501250369794,273.69596310413436 "/><polyline class="polyline" opacity="0.5" stroke="blue" points="238.74669617721867,254.27312829023882 306.44787681907576,274.4901747329118 "/><polyline class="polyline" opacity="0.5" stroke="blue" points="238.14970730897767,255.1658604846376 305.22888329101715,275.22029557575485 "/><polyline class="polyline" opacity="0.5" stroke="blue" points="237.53751290555599,256.02902619739416 303.9945386194819,275.8870950157228 "/><polyline class="polyline" opacity="0.5" stroke="blue" points="236.91053070209858,256.86236804146836 302.74620874444844,276.4913823838053 "/><polyline class="polyline" opacity="0.5" stroke="blue" points="236.26918250026887,257.66565040864657 301.4852305953825,277.03400411946495 "/><polyline class="polyline" opacity="0.5" stroke="blue" points="235.6138937142115,258.43865921640554 300.21291141693433,277.51584101227616 "/><polyline class="polyline" opacity="0.5" stroke="blue" points="234.94509292505347,259.1812016329752 298.93052819895644,277.9378055284435 "/><polyline class="polyline" opacity="0.5" stroke="blue" points="234.26321144453703,259.8931057818959 297.6393272055859,278.300839225333 "/><polyline class="polyline" opacity="0.5" stroke="blue" points="233.568682888332,260.57422042737073 296.3405235980982,278.6059102565358 "/><polyline class="polyline" opacity="0.5" stroke="blue" points="232.86194275952892,261.2244146417131 295.03530114623754,278.85401096940365 "/><polyline class="polyline" opacity="0.5" stroke="blue" points="232.14342804276782,261.8435774561866 293.7248120227544,279.04615559645777 "/><polyline class="polyline" opacity="0.5" stroke="blue" points="231.41357680941417,262.43161749652654 292.4101766759293,279.1833780415732 "/><polyline class="polyline" opacity="0.5" stroke="blue" points="230.67282783414666,262.9884626044196 291.09248377493776,279.266729761373 "/><polyline class="polyline" opacity="0.5" stroke="blue" points="229.92162022327977,263.51405944620393 289.77279022300564,279.29727774184374 "/><polyline class="polyline" opacity="0.5" stroke="blue" points="229.1603930550996,264.00837311003295 288.45212123341116,279.2761025697909 "/><polyline class="polyline" opacity="0.5" stroke="blue" points="228.38958503245104,264.47138669272414 287.1314704635236,279.2042965983993 "/><polyline class="polyline" opacity="0.5" stroke="blue" points="227.60963414777277,264.90310087748946 285.81180020220177,279.0829622058401 "/><polyline class="polyline" opacity="0.5" stroke="blue" points="226.82097736073817,265.30353350371774 284.49404160603035,278.9132101455795 "/><polyline class="polyline" opacity="0.5" stroke="blue" points="226.02405028862114,265.67271912994806 283.17909498003075,278.6961579867856 "/><polyline class="polyline" opacity="0.5" stroke="blue" points="225.2192869094709,266.0107085911431 281.8678300986489,278.43292864300133 "/><polyline class="polyline" opacity="0.5" stroke="blue" points="224.40711927814306,266.31756855133676 280.5610865629957,278.1246489870554 "/><polyline class="polyline" opacity="0.5" stroke="blue" points="223.58797725520245,266.59338105269575 279.259674190493,277.77244855000447 "/><polyline class="polyline" opacity="0.5" stroke="blue" points="222.76228824868014,266.83824306199807 277.96437343325283,277.37745830175714 "/><polyline class="polyline" opacity="0.5" stroke="blue" points="221.93047696863752,267.05226601549214 276.6759358217018,276.9408095109028 "/><polyline class="polyline" opacity="0.5" stroke="blue" points="221.0929651944614,267.2355753630642 275.3950844301403,276.4636326811647 "/><polyline class="polyline" opacity="0.5" stroke="blue" points="220.25017155478764,267.38831011259896 274.12251436110495,275.94705656181725 "/><polyline class="polyline" opacity="0.5" stroke="blue" points="219.40251131992466,267.5106223753802 272.85889324557985,275.3922072293368 "/><polyline class="polyline" opacity="0.5" stroke="blue" points="218.5503962066259,267.6026769133364 271.6048617562785,274.8002072375157 "/><polyline class="polyline" opacity="0.5" stroke="blue" points="217.69423419503724,267.6646506888953 270.3610341313871,274.17217483322923 "/><polyline class="polyline" opacity="0.5" stroke="blue" points="216.83442935762562,267.69673241817236 269.1279987063286,273.50922323503505 "/><polyline class="polyline" opacity="0.5" stroke="blue" points="215.97138169987645,267.69912212817337 267.9063184512703,272.81245997177336 "/><polyline class="polyline" opacity="0.5" stroke="blue" points="215.1054870125302,267.67203071865464 266.69653151225464,272.0829862783461 "/><polyline class="polyline" opacity="0.5" stroke="blue" points="214.23713673511318,267.6156795292413 265.4991517539876,271.3218965458709 "/><polyline class="polyline" opacity="0.5" stroke="blue" points="213.36671783050318,267.5302999123653 264.31466930246637,270.53027782342804 "/><polyline class="polyline" opacity="0.5" stroke="blue" points="212.49461267025833,267.41613281254575 263.14355108576945,269.70920936865656 "/><polyline class="polyline" opacity="0.5" stroke="blue" points="211.621198930427,267.27342835249414 261.9862413714708,268.8597622444943 "/><polyline class="polyline" opacity="0.5" stroke="blue" points="210.74684949754516,267.1024454264918 260.8431622992697,267.9829989594051 "/><polyline class="polyline" opacity="0.5" stroke="blue" points="209.87193238452105,266.9034513014464 259.7147144075519,267.0799731484891 "/><polyline class="polyline" opacity="0.5" stroke="blue" points="208.99681065609906,266.6767212260023 258.60127715272074,266.15172929292726 "/><polyline class="polyline" opacity="0.5" stroke="blue" points="208.12184236358814,266.422538048041 257.5032094202458,265.19930247527464 "/><polyline class="polyline" opacity="0.5" stroke="blue" points="207.2473804885367,266.1411918408763 256.42085002648946,264.22371816817923 "/><polyline class="polyline" opacity="0.5" stroke="blue" points="206.37377289503053,265.83297953841486 255.35451821047064,263.22599205416833 "/><polyline class="polyline" opacity="0.5" stroke="blue" points="205.50136229028976,265.4982045795223 254.30451411482483,262.2071298742154 "/><polyline class="polyline" opacity="0.5" stroke="blue" points="204.63048619323652,265.1371765618019 253.2711192553093,261.1681273028662 "/><polyline class="polyline" opacity="0.5" stroke="blue" points="203.76147691070693,264.7502109049676 252.2545969782916,260.10996984777705 "/><polyline class="polyline" opacity="0.5" stroke="blue" points="202.89466152097907,264.3376285239606 251.25519290573848,259.0336327715852 "/><polyline class="polyline" opacity="0.5" stroke="blue" points="202.0303618642906,263.89975551193595 250.27313536730267,257.940081034106 "/><polyline class="polyline" opacity="0.5" stroke="blue" points="201.1688945400208,263.43692283321684 249.30863581917487,256.83026925291904 "/><polyline class="polyline" opacity="0.5" stroke="blue" points="200.31057091021475,262.94946602629153 248.36188924943866,255.70514168047842 "/><polyline class="polyline" opacity="0.5" stroke="blue" points="199.45569710912926,262.43772491690487 247.43307456972934,254.56563219595142 "/><polyline class="polyline" opacity="0.5" stroke="blue" points="198.60457405848499,261.90204334127264 246.52235499305763,253.4126643100577 "/><polyline class="polyline" opacity="0.5" stroke="blue" points="197.75749748811248,261.3427688794294 245.6298783977169,252.24715118125096 "/><polyline class="polyline" opacity="0.5" stroke="blue" points="196.91475796168422,260.76025259869687 244.75577767724457,251.06999564165068 "/><polyline class="polyline" opacity="0.5" stroke="blue" points="196.07664090723068,260.1548488072459 243.9001710764584,249.88209023119757 "/><polyline class="polyline" opacity="0.5" stroke="blue" points="195.2434266521428,259.5269148177042 243.06316251363597,248.68431723857037 "/><polyline class="polyline" opacity="0.5" stroke="blue" points="194.4153904623695,258.8768107207485 242.24484188894672,247.47754874746562 "/><polyline class="polyline" opacity="0.5" stroke="blue" points="193.5928025855248,258.2048991686027 241.44528537929097,246.26264668690197 "/><polyline class="polyline" opacity="0.5" stroke="blue" points="192.77592829762511,257.5115451683524 240.66455571973376,245.04046288427207 "/><polyline class="polyline" opacity="0.5" stroke="blue" points="191.96502795318438,256.7971158849692 239.9027024717627,243.81183911992383 "/><polyline class="polyline" opacity="0.5" stroke="blue" points="191.1603570384005,256.06198045393154 239.15976227862774,242.57760718210912 "/><polyline class="polyline" opacity="0.5" stroke="blue" points="190.3621662271738,255.30650980331228 238.43575910805635,241.33858892119517 "/><polyline class="polyline" opacity="0.5" stroke="blue" points="189.57070143970566,254.53107648519764 237.73070448266498,240.0955963020886 "/><polyline class="polyline" opacity="0.5" stroke="blue" points="188.78620390343124,253.7360545162904 237.04459769841708,238.84943145387456 "/><polyline class="polyline" opacity="0.5" stroke="blue" points="188.0089102160485,252.92181922754318 236.37742603150323,237.60088671572734 "/><polyline class="polyline" opacity="0.5" stroke="blue" points="187.23905241041163,252.0887471226589 235.7291649340442,236.35074467819874 "/><polyline class="polyline" opacity="0.5" stroke="blue" points="186.47685802106588,251.23721574529037 235.0997782190416,235.09977821904164 "/><polyline class="polyline" opacity="0.5" stroke="blue" points="185.7225501522051,250.3676035547633 234.48921823502138,233.84875053277523 "/><polyline class="polyline" opacity="0.5" stroke="blue" points="184.97634754684307,249.4802898101422 233.89742603083766,232.59841515324746 "/><polyline class="polyline" opacity="0.5" stroke="blue" points="184.2384646569954,248.5756544624553 233.32433151112315,231.34951596849703 "/><polyline class="polyline" opacity="0.5" stroke="blue" points="183.50911171467482,247.65407805488763 232.76985358289113,230.10278722726594 "/><polyline class="polyline" opacity="0.5" stroke="blue" points="182.7884948035116,246.71594163075048 232.23390029381096,228.8589535365595 "/><polyline class="polyline" opacity="0.5" stroke="blue" points="182.07681593081543,245.76162664903134 231.7163689626966,227.61872984969665 "/><polyline class="polyline" opacity="0.5" stroke="blue" points="181.37427309990272,244.79151490732576 231.21714630276216,226.38282144434126 "/><polyline class="polyline" opacity="0.5" stroke="blue" points="180.68106038251983,243.80598847195094 230.73610853821293,225.15192389004872 "/><polyline class="polyline" opacity="0.5" stroke="blue" points="179.99736799119808,242.80542961503883 230.27312151475545,223.9267230049093 "/><polyline class="polyline" opacity="0.5" stroke="blue" points="179.32338235138366,241.790220758406 229.82804080462142,222.70789480091548 "/><polyline class="polyline" opacity="0.5" stroke="blue" points="178.6592861731906,240.76074442399522 229.40071180671308,221.49610541772546 "/><polyline class="polyline" opacity="0.5" stroke="blue" points="178.00525852263127,239.71738319068493 228.99096984248834,220.29201104454194 "/><polyline class="polyline" opacity="0.5" stroke="blue" points="177.36147489218422,238.6605196572611 228.5986402482149,219.09625782987123 "/><polyline class="polyline" opacity="0.5" stroke="blue" points="176.72810727056498,237.59053641134676 228.22353846423061,217.9094817789741 "/><polyline class="polyline" opacity="0.5" stroke="blue" points="176.1053242115701,236.5078160040842 227.8654701218569,216.73230863886693 "/><polyline class="polyline" opacity="0.5" stroke="blue" points="175.4932909018706,235.4127409303655 227.52423112861885,215.56535377077984 "/><polyline class="polyline" opacity="0.5" stroke="blue" points="174.89216922763512,234.30569361440826 227.1996077524317,214.40922201002522 "/><polyline class="polyline" opacity="0.5" stroke="blue" points="174.30211783986812,233.18705640047267 226.89137670541948,213.26450751327957 "/><polyline class="polyline" opacity="0.5" stroke="blue" points="173.72329221835327,232.05721154851892 226.59930522803535,212.13179359333023 "/><polyline class="polyline" opacity="0.5" stroke="blue" points="173.15584473409592,230.91654123460313 226.32315117415553,211.0116525413884 "/><polyline class="polyline" opacity="0.5" stroke="blue" points="172.59992471016344,229.76542755581255 226.06266309782202,209.9046454371199 "/><polyline class="polyline" opacity="0.5" stroke="blue" points="172.05567848082535,228.60425253954074 225.8175803423082,208.81132194659662 "/><polyline class="polyline" opacity="0.5" stroke="blue" points="171.52324944889966,227.43339815690618 225.58763313218148,207.73222010842224 "/><polyline class="polyline" opacity="0.5" stroke="blue" points="171.0027781412153,226.25324634011685 225.37254266903417,206.66786610833813 "/><polyline class="polyline" opacity="0.5" stroke="blue" points="170.4944022621039,225.06417900358684 225.17202123155036,205.61877404266866 "/><polyline class="polyline" opacity="0.5" stroke="blue" points="169.99825674483736,223.86657806861083 224.98577228057027,204.58544567101637 "/><polyline class="polyline" opacity="0.5" stroke="blue" points="169.51447380093134,222.66082549140393 224.81349056980756,203.5683701586726 "/><polyline class="polyline" opacity="0.5" stroke="blue" points="169.0431829672367,221.44730329431553 224.65486226286396,202.56802380926143 "/><polyline class="polyline" opacity="0.5" stroke="blue" points="168.58451115074539,220.22639360002748 224.50956505717727,201.5848697881895 "/><polyline class="polyline" opacity="0.5" stroke="blue" points="168.13858267103836,218.9984786685462 224.3772683155235,200.6193578375271 "/><polyline class="polyline" opacity="0.5" stroke="blue" points="167.7055193003067,217.76394093680258 224.25763320568078,199.67192398300094 "/><polyline class="polyline" opacity="0.5" stroke="blue" points="167.28544030087903,216.5231630606703 224.1503128488444,198.74299023383094 "/><polyline class="polyline" opacity="0.5" stroke="blue" points="166.87846246019126,215.27652795921756 224.05495247736442,197.83296427619783 "/><polyline class="polyline" opacity="0.5" stroke="blue" points="166.4847001231356,214.0244188610058 223.9711896023545,196.94223916118023 "/><polyline class="polyline" opacity="0.5" stroke="blue" points="166.10426522172992,212.7672193522506 223.8986541916985,196.07119298805125 "/><polyline class="polyline" opacity="0.5" stroke="blue" points="165.73726730204828,211.50531342665928 223.8369688589538,195.22018858387608 "/><polyline class="polyline" opacity="0.5" stroke="blue" points="165.38381354835715,210.2390855367618 223.78574906362326,194.38957318040107 "/><polyline class="polyline" opacity="0.5" stroke="blue" points="165.04400880440244,208.96892064654952 223.7446033232362,193.57967808927265 "/><polyline class="polyline" opacity="0.5" stroke="blue" points="164.71795559179532,207.69520428523825 223.71313343764538,192.79081837667124 "/><polyline class="polyline" opacity="0.5" stroke="blue" points="164.40575412544524,206.41832260197094 223.69093472591254,192.02329253848924 "/><polyline class="polyline" opacity="0.5" stroke="blue" points="164.1075023259915,205.1386624212752 223.67759627611522,191.27738217722418 "/><polyline class="polyline" opacity="0.5" stroke="blue" points="163.82329582918484,203.85661129909045 223.67270120836886,190.55335168179832 "/><polyline class="polyline" opacity="0.5" stroke="blue" points="163.55322799217413,202.57255757917895 223.67582695131387,189.85144791155165 "/><polyline class="polyline" opacity="0.5" stroke="blue" points="163.2973898966522,201.2868904497344 223.68654553227339,189.1718998856904 "/><polyline class="polyline" opacity="0.5" stroke="blue" points="163.05587034881864,200.0 223.70442388123945,188.51491847950194 "/><polyline class="polyline" opacity="0.5" stroke="blue" points="162.8287558761179,198.71227727670805 223.72902414879587,187.88069612867446 "/><polyline class="polyline" opacity="0.5" stroke="blue" points="162.61613072071168,197.4241143401502 223.75990403803394,187.26940654308285 "/><polyline class="polyline" opacity="0.5" stroke="blue" points="162.41807682964856,196.13590431968848 223.79661715046535,186.68120443141964 "/><polyline class="polyline" opacity="0.5" stroke="blue" points="162.23467384169263,194.8480414685131 223.83871334587855,186.11622523806454 "/><polyline class="polyline" opacity="0.5" stroke="blue" points="162.06599907077631,193.56092121745237 223.88573911603032,185.57458489359527 "/><polyline class="polyline" opacity="0.5" stroke="blue" points="161.91212748604352,192.27494022763943 223.93723797200448,185.05637958034626 "/><polyline class="polyline" opacity="0.5" stroke="blue" points="161.77313168845092,190.99049644183538 223.99275084501036,184.5616855144207 "/><polyline class="polyline" opacity="0.5" stroke="blue" points="161.6490818838974,189.70798913420995 224.0518165003322,184.0905587455554 "/><polyline class="polyline" opacity="0.5" stroke="blue" points="161.54004585285284,188.42781895837552 224.11397196408035,183.64303497622456 "/><polyline class="polyline" opacity="0.5" stroke="blue" points="161.44608891646027,187.15038799346905 224.17875296233166,183.21912940135138 "/><polyline class="polyline" opacity="0.5" stroke="blue" points="161.36727389908646,185.87609978807495 224.24569437218398,182.8188365699718 "/><polyline class="polyline" opacity="0.5" stroke="blue" points="161.3036610872989,184.60535940177652 224.31433068418812,182.44213027016423 "/><polyline class="polyline" opacity="0.5" stroke="blue" points="161.25530818524993,183.33857344412453 224.3841964755571,182.08896343852277 "/><polyline class="polyline" opacity="0.5" stroke="blue" points="161.22227026644902,182.0761501108047 224.45482689349123,181.75926809540832 "/><polyline class="polyline" opacity="0.5" stroke="blue" points="161.20459972191009,180.81849921678673 224.52575814789677,181.452955307163 "/><polyline class="polyline" opacity="0.5" stroke="blue" points="161.2023462046606,179.56603222623116 224.59652801271608,181.16991517641688 "/><polyline class="polyline" opacity="0.5" stroke="blue" points="161.21555657060375,178.31916227893058 224.66667633502817,180.9100168615558 "/><polyline class="polyline" opacity="0.5" stroke="blue" points="161.2442748157278,177.07830421305516 224.73574555102402,180.67310862634866 "/><polyline class="polyline" opacity="0.5" stroke="blue" points="161.2885420096598,175.84387458397325 224.8032812079047,180.45901792066098 "/><polyline class="polyline" opacity="0.5" stroke="blue" points="161.34839622556487,174.61629167891124 224.86883249069996,180.26755149309872 "/><polyline class="polyline" opacity="0.5" stroke="blue" points="161.42387246639555,173.39597552721642 224.9319527529567,180.09849553634348 "/><polyline class="polyline" opacity="0.5" stroke="blue" points="161.5150025875003,172.18334790598283 224.99220005019873,179.95161586584635 "/><polyline class="polyline" opacity="0.5" stroke="blue" points="161.62181521560416,170.97883234079583 225.04913767502055,179.82665813245325 "/><polyline class="polyline" opacity="0.5" stroke="blue" points="161.74433566417898,169.7828541013514 225.10233469263642,179.72334806943246 "/><polyline class="polyline" opacity="0.5" stroke="blue" points="161.8825858452264,168.59584019170023 225.15136647567417,179.6413917742698 "/><polyline class="polyline" opacity="0.5" stroke="blue" points="162.0365841775006,167.41821933486725 225.1958152369719,179.58047602548777 "/><polyline class="polyline" opacity="0.5" stroke="blue" points="162.20634549120422,166.25042195159136 225.235270559112,179.54026863463065 "/><polyline class="polyline" opacity="0.5" stroke="blue" points="162.39188092919608,165.0928801329328 225.26932991940555,179.52041883344333 "/><polyline class="polyline" opacity="0.5" stroke="blue" points="162.59319784475613,163.94602760648837 225.29759920902535,179.5205576961511 "/><polyline class="polyline" opacity="0.5" stroke="blue" points="162.8102996959581,162.8102996959581 225.3196932449774,179.54029859662825 "/><polyline class="polyline" opacity="0.5" stroke="blue" points="163.04318593670843,161.6861332738018 225.3352362735942,179.57923770012127 "/><polyline class="polyline" opacity="0.5" stroke="blue" points="163.29185190451665,160.57396670672574 225.34386246423617,179.63695448906853 "/><polyline class="polyline" opacity="0.5" stroke="blue" points="163.55628870506916,159.47423979373758 225.3452163918939,179.7130123224377 "/><polyline class="polyline" opacity="0.5" stroke="blue" points="163.83648309368726,158.3873936965088 225.33895350739678,179.80695902787696 "/><polyline class="polyline" opacity="0.5" stroke="blue" points="164.13241735375777,157.31387086178236 225.32474059395207,179.91832752585748 "/><polyline class="polyline" opacity="0.5" stroke="blue" points="164.44406917223284,156.2541149355669 225.30225620876274,180.04663648486314 "/><polyline class="polyline" opacity="0.5" stroke="blue" points="164.77141151230558,155.20857066885748 225.27119110850262,180.1913910065678 "/><polyline class="polyline" opacity="0.5" stroke="blue" points="165.11441248337582,154.17768381462685 225.23124865746257,180.35208333982592 "/><polyline class="polyline" opacity="0.5" stroke="blue" points="165.4730352084314,153.161901015833 225.18214521722354,180.52819362219188 "/><polyline class="polyline" opacity="0.5" stroke="blue" points="165.8472376889795,152.16166968419185 225.12361051675754,180.71919064757859 "/><polyline class="polyline" opacity="0.5" stroke="blue" points="166.23697266767311,151.17743786946866 225.05538800191042,180.92453265856386 "/><polyline class="polyline" opacity="0.5" stroke="blue" points="166.64218748878912,150.20965411904632 224.97723516327662,181.14366816175857 "/><polyline class="polyline" opacity="0.5" stroke="blue" points="167.06282395672426,149.2587673275342 224.8889238415367,181.37603676456098 "/><polyline class="polyline" opacity="0.5" stroke="blue" points="167.49881819268808,148.3252265761872 224.79024050939506,181.62107003153903 "/><polyline class="polyline" opacity="0.5" stroke="blue" points="167.950100489783,147.409480961914 224.68098652932437,181.8781923586067 "/><polyline class="polyline" opacity="0.5" stroke="blue" points="168.41659516667386,146.5119794156593 224.5609783863963,182.14682186309275 "/><polyline class="polyline" opacity="0.5" stroke="blue" points="168.89822042006165,145.6331705099564 224.4300478955555,182.42637128773927 "/><polyline class="polyline" opacity="0.5" stroke="blue" points="169.3948881761898,144.77350225545524 224.2880423827728,182.7162489166161 "/><polyline class="polyline" opacity="0.5" stroke="blue" points="169.90650394162245,143.93342188624527 224.134824839595,183.01585950089307 "/><polyline class="polyline" opacity="0.5" stroke="blue" points="170.43296665354936,143.11337563380135 223.9702740506942,183.32460519237688 "/><polyline class="polyline" opacity="0.5" stroke="blue" points="170.97416852988493,142.31380848939818 223.79428469410306,183.6418864826948 "/><polyline class="polyline" opacity="0.5" stroke="blue" points="171.52999491944124,141.53516395485292 223.60676741391072,183.96710314598783 "/><polyline class="polyline" opacity="0.5" stroke="blue" points="172.10032415247144,140.77788378147153 223.40764886528024,184.29965518297058 "/><polyline class="polyline" opacity="0.5" stroke="blue" points="172.68502739189077,140.04240769709298 223.1968717317364,184.6389437642134 "/><polyline class="polyline" opacity="0.5" stroke="blue" points="173.28396848549895,139.3291731211439 222.9743947147592,184.9843721705147 "/><polyline class="polyline" opacity="0.5" stroke="blue" points="173.89700381954037,138.63861486763832 222.74019249580542,185.33534672824754 "/><polyline class="polyline" opacity="0.5" stroke="blue" points="174.52398217395327,137.9711648360765 222.49425567096466,185.6912777375941 "/><polyline class="polyline" opacity="0.5" stroke="blue" points="175.16474457967215,137.3272516902239 222.23659065854034,186.05158039161458 "/><polyline class="polyline" opacity="0.5" stroke="blue" points="175.8191241783632,136.7073005247724 221.9672195799271,186.41567568414374 "/><polyline class="polyline" opacity="0.5" stroke="blue" points="176.48694608498442,136.11173251991596 221.68618011423445,186.78299130455719 "/><polyline class="polyline" opacity="0.5" stroke="blue" points="177.16802725357695,135.5409645838976 221.3935253271825,187.15296251750914 "/><polyline class="polyline" opacity="0.5" stroke="blue" points="177.86217634670655,134.99540898361693 221.08932347486825,187.5250330258095 "/><polyline class="polyline" opacity="0.5" stroke="blue" points="178.56919360898746,134.4754729634157 220.7736577830692,187.89865581467893 "/><polyline class="polyline" opacity="0.5" stroke="blue" points="179.2888707451333,133.98155835219407 220.44662620281622,188.27329397569972 "/><polyline class="polyline" opacity="0.5" stroke="blue" points="180.02099080299058,133.5140611590412 220.10834114302844,188.6484215088627 "/><polyline class="polyline" opacity="0.5" stroke="blue" points="180.76532806202403,133.07337115760225 219.7589291810592,189.0235241011994 "/><polyline class="polyline" opacity="0.5" stroke="blue" points="181.5216479277302,132.65987145943853 219.39853075205275,189.3980998805798 "/><polyline class="polyline" opacity="0.5" stroke="blue" points="182.28970683246934,132.2739380766759 219.0272998180596,189.77166014335404 "/><polyline class="polyline" opacity="0.5" stroke="blue" points="183.0692521432112,131.91593947427805 218.64540351789879,190.1437300546133 "/><polyline class="polyline" opacity="0.5" stroke="blue" points="183.86002207670202,131.58623611231928 218.25302179879273,190.51384931994838 "/><polyline class="polyline" opacity="0.5" stroke="blue" points="184.6617456225629,131.28517997867607 217.85034703083136,190.88157282768674 "/><polyline class="polyline" opacity="0.5" stroke="blue" points="185.47414247484053,131.01311411259763 217.43758360534883,191.2464712606938 "/><polyline class="polyline" opacity="0.5" stroke="blue" points="186.29692297253115,130.7703721196621 217.0149475183169,191.60813167692896 "/><polyline class="polyline" opacity="0.5" stroke="blue" points="187.1297880496064,130.55727767866802 216.5826659398747,191.96615805805288 "/><polyline class="polyline" opacity="0.5" stroke="blue" points="187.97242919506843,130.37414404105868 216.14097677112628,192.32017182548523 "/><polyline class="polyline" opacity="0.5" stroke="blue" points="188.82452842356437,130.22127352352177 215.69012818934144,192.6698123234179 "/><polyline class="polyline" opacity="0.5" stroke="blue" points="189.6857582570884,130.0989569944557 215.23037818269805,193.01473726838813 "/><polyline class="polyline" opacity="0.5" stroke="blue" points="190.55578171829623,130.00747335503976 214.76199407569834,193.35462316511723 "/><polyline class="polyline" opacity="0.5" stroke="blue" points="191.4342523359543,129.94708901569572 214.2852520463843,193.68916568841672 "/><polyline class="polyline" opacity="0.5" stroke="blue" points="192.32081416303706,129.91805736877274 213.80043663646427,194.01808003105708 "/><polyline class="polyline" opacity="0.5" stroke="blue" points="193.21510180797975,129.9206182583393 213.30784025544466,194.3411012175862 "/><polyline class="polyline" opacity="0.5" stroke="blue" points="194.1167404795818,129.9549974480098 212.80776267984146,194.65798438416897 "/><polyline class="polyline" opacity="0.5" stroke="blue" points="195.02534604604512,130.02140608778345 212.30051054851955,194.96850502460353 "/><polyline class="polyline" opacity="0.5" stroke="blue" points="195.94052510861476,130.1200401809162 211.786396855182,195.27245920274603 "/><polyline class="polyline" opacity="0.5" stroke="blue" points="196.86187509027567,130.25108005189477 211.26574043899734,195.5696637316496 "/><polyline class="polyline" opacity="0.5" stroke="blue" points="197.78898433993584,130.41468981662334 210.73886547432176,195.85995631979057 "/><polyline class="polyline" opacity="0.5" stroke="blue" points="198.7214322525087,130.61101685597703 210.20610096043433,196.14319568481812 "/><polyline class="polyline" opacity="0.5" stroke="blue" points="199.65878940528012,130.84019129391726 209.66778021216527,196.4192616353206 "/><polyline class="polyline" opacity="0.5" stroke="blue" points="200.6006177109216,131.10232548140203 209.12424035225618,196.68805512115387 "/><polyline class="polyline" opacity="0.5" stroke="blue" points="201.54647058747963,131.39751348736166 208.57582180624908,196.94949825292395 "/><polyline class="polyline" opacity="0.5" stroke="blue" points="202.4958931456428,131.725830598043 208.022867800656,197.20353429125606 "/><polyline class="polyline" opacity="0.5" stroke="blue" points="203.4484223935515,132.08733282605792 207.46572386511738,197.4501276065189 "/><polyline class="polyline" opacity="0.5" stroke="blue" points="204.40358745937996,132.4820564304988 206.90473733921053,197.68926360970164 "/><polyline class="polyline" opacity="0.5" stroke="blue" points="205.36090983188265,132.91001744950813 206.3402568845234,197.92094865516705 "/><polyline class="polyline" opacity="0.5" stroke="blue" points="206.3199036190534,133.37121124671117 205.7726320025632,198.14520991602137 "/><polyline class="polyline" opacity="0.5" stroke="blue" points="207.28007582500462,133.86561207293732 205.2022125590214,198.36209523285714 "/><polyline class="polyline" opacity="0.5" stroke="blue" points="208.24092664512605,134.39317264466814 204.62934831487206,198.57167293663372 "/><polyline class="polyline" opacity="0.5" stroke="blue" points="209.20194977953736,134.95382374065838 204.0543884647333,198.77403164646296 "/><polyline class="polyline" opacity="0.5" stroke="blue" points="210.16263276479492,135.54747381818157 203.4776811828785,198.96928004306886 "/><polyline class="polyline" opacity="0.5" stroke="blue" points="211.12245732376616,136.17400865034733 202.89957317723776,199.15754661868283 "/><polyline class="polyline" opacity="0.5" stroke="blue" points="212.08089973352622,136.83329098593452 202.32040925168963,199.33897940412825 "/><polyline class="polyline" opacity="0.5" stroke="blue" points="213.03743121108099,137.52516023317014 201.74053187690004,199.51374567383397 "/><polyline class="polyline" opacity="0.5" stroke="blue" points="213.99151831665938,138.24943216886663 201.1602807699266,199.68203162949902 "/><polyline class="polyline" opacity="0.5" stroke="blue" points="214.94262337426414,139.0058986743094 200.57999248276772,199.8440420631117 "/><polyline class="polyline" opacity="0.5" stroke="blue" points="215.8902049091073,139.79432749925354 200.0,200.0 "/><polyline class="polyline" opacity="0.5" stroke="blue" points="216.8337181014991,140.6144620553577 199.42063234561334,200.1501463225671 "/><polyline class="polyline" opacity="0.5" stroke="blue" points="217.7726152566987,141.46602124033947 198.84221419911987,200.29473937533376 "/><polyline class="polyline" opacity="0.5" stroke="blue" points="218.7063462901712,142.34869929408973 198.26506552098513,200.43405455187968 "/><polyline class="polyline" opacity="0.5" stroke="blue" points="219.6343592276388,143.26216568793188 197.68950118739937,200.56838386424295 "/><polyline class="polyline" opacity="0.5" stroke="blue" points="220.55610071924963,144.20606504815026 197.115830634384,200.69803549530127 "/><polyline class="polyline" opacity="0.5" stroke="blue" points="221.47101656712903,145.18001711484794 196.54435751120383,200.82333333462267 "/><polyline class="polyline" opacity="0.5" stroke="blue" points="222.3785522655184,146.18361673712153 195.97537934303665,200.9446164982377 "/><polyline class="polyline" opacity="0.5" stroke="blue" points="223.278153552648,147.2164339054646 195.4091872028319,201.06223883274615 "/><polyline class="polyline" opacity="0.5" stroke="blue" points="224.16926697343234,148.27801382222646 194.8460653922776,201.17656840413466 "/><polyline class="polyline" opacity="0.5" stroke="blue" points="225.05134045202345,149.36787701086567 194.2862911317794,201.28798697164325 "/><polyline class="polyline" opacity="0.5" stroke="blue" points="225.9238238732005,150.48551946464224 193.730134259347,201.39688944698196 "/><polyline class="polyline" opacity="0.5" stroke="blue" points="226.78616967152672,151.63041283529537 193.17785693827534,201.50368333916168 "/><polyline class="polyline" opacity="0.5" stroke="blue" points="227.63783342715317,152.80200466214666 192.62971337350245,201.6087881851676 "/><polyline class="polyline" opacity="0.5" stroke="blue" points="228.4782744671051,153.99971864196397 192.08594953652394,201.7126349666699 "/><polyline class="polyline" opacity="0.5" stroke="blue" points="229.3069564708433,155.22295493980596 191.5468028987436,201.8156655129323 "/><polyline class="polyline" opacity="0.5" stroke="blue" points="230.12334807885435,156.47109054095228 191.01250217314288,201.9183318900498 "/><polyline class="polyline" opacity="0.5" stroke="blue" points="230.92692350298898,157.74347964390665 190.4832670641552,202.02109577661645 "/><polyline class="polyline" opacity="0.5" stroke="blue" points="231.71716313723547,159.03945409433587 189.95930802564064,202.12442782589855 "/><polyline class="polyline" opacity="0.5" stroke="blue" points="232.4935541675905,160.35832385968604 189.4408260268633,202.2288070145661 "/><polyline class="polyline" opacity="0.5" stroke="blue" points="233.2555911796647,161.69937754409037 188.9280123263882,202.33471997801217 "/><polyline class="polyline" opacity="0.5" stroke="blue" points="234.00277676264642,163.06188294305753 188.42104825382526,202.44266033227518 "/><polyline class="polyline" opacity="0.5" stroke="blue" points="234.73462210823106,164.44508763730025 187.92010499936669,202.55312798256384 "/><polyline class="polyline" opacity="0.5" stroke="blue" points="235.45064760311874,165.8482196249406 187.42534341107975,202.66662841837464 "/><polyline class="polyline" opacity="0.5" stroke="blue" points="236.15038341367938,167.27048799119757 186.93691379993734,202.7836719951862 "/><polyline class="polyline" opacity="0.5" stroke="blue" points="236.83337006138845,168.7110836145417 186.4549557525901,202.90477320271202 "/><polyline class="polyline" opacity="0.5" stroke="blue" points="237.49915898764402,170.16917990817572 185.97959795190664,203.03044991969674 "/><polyline class="polyline" opacity="0.5" stroke="blue" points="238.1473131065917,171.6439335955818 185.51095800533224,203.16122265524754 "/><polyline class="polyline" opacity="0.5" stroke="blue" points="238.77740734460173,173.1344855187569 185.04914228114362,203.29761377670428 "/><polyline class="polyline" opacity="0.5" stroke="blue" points="239.38902916506896,174.63996147764698 184.59424575270222,203.44014672406888 "/><polyline class="polyline" opacity="0.5" stroke="blue" points="239.9817790772364,176.1594730991787 184.14635185083813,203.58934521103694 "/><polyline class="polyline" opacity="0.5" stroke="blue" points="240.55527112777892,177.69211873418593 183.70553232452505,203.74573241270107 "/><polyline class="polyline" opacity="0.5" stroke="blue" points="241.1091333739249,179.2369843804299 183.27184711003588,203.90983014002865 "/><polyline class="polyline" opacity="0.5" stroke="blue" points="241.64300833693994,180.79314462981694 182.84534420879936,204.08215800125456 "/><polyline class="polyline" opacity="0.5" stroke="blue" points="242.15655343484798,182.35966363783595 182.42605957420832,204.26323255037295 "/><polyline class="polyline" opacity="0.5" stroke="blue" points="242.6494413933202,183.93559611315592 182.0140170076609,204.4535664229617 "/><polyline class="polyline" opacity="0.5" stroke="blue" points="243.12136063372424,185.51998832525504 181.6092280641467,204.65366745962746 "/><polyline class="polyline" opacity="0.5" stroke="blue" points="243.5720156373883,187.11187912788785 181.21169196772092,204.86403781742013 "/><polyline class="polyline" opacity="0.5" stroke="blue" points="244.0011272852063,188.7103009961439 180.82139553723837,205.08517306963122 "/><polyline class="polyline" opacity="0.5" stroke="blue" points="244.408433171779,190.31428107480292 180.43831312275017,205.31756129446222 "/><polyline class="polyline" opacity="0.5" stroke="blue" points="244.79368789336468,191.92284223565633 180.06240655299314,205.56168215312587 "/><polyline class="polyline" opacity="0.5" stroke="blue" points="245.15666330898833,193.53500414143335 179.69362509443033,205.8180059580254 "/><polyline class="polyline" opacity="0.5" stroke="blue" points="245.4971487741418,195.14978431395343 179.33190542232634,206.086992731744 "/><polyline class="polyline" opacity="0.5" stroke="blue" points="245.8149513465879,196.7661992041141 178.97717160436665,206.36909125766903 "/><polyline class="polyline" opacity="0.5" stroke="blue" points="246.10989596386838,198.3832652613243 178.62933509735078,206.66473812317187 "/><polyline class="polyline" opacity="0.5" stroke="blue" points="246.38182559220044,200.0 178.28829475751243,206.9743567563655 "/><polyline class="polyline" opacity="0.5" stroke="blue" points="246.63060134653304,201.6154230607556 177.9539368650349,207.29835645756674 "/><polyline class="polyline" opacity="0.5" stroke="blue" points="246.85610258162427,203.22855726395676 177.62613516334736,207.63713142669903 "/><polyline class="polyline" opacity="0.5" stroke="blue" points="247.05822695408466,204.8384296533246 177.3047509137993,207.9910597879821 "/><polyline class="polyline" opacity="0.5" stroke="blue" points="247.23689045542244,206.4440725273385 176.98963296632033,208.36050261337041 "/><polyline class="polyline" opacity="0.5" stroke="blue" points="247.39202741621014,208.0445244562258 176.68061784667736,208.74580294631744 "/><polyline class="polyline" opacity="0.5" stroke="blue" points="247.5235904815792,209.6388312823947 176.3775298609442,209.14728482756112 "/><polyline class="polyline" opacity="0.5" stroke="blue" points="247.63155055833164,211.2260471022298 176.080181217797,209.56525232474362 "/><polyline class="polyline" opacity="0.5" stroke="blue" points="247.71589673404023,212.80523522724897 175.78837216924103,209.99998856779806 "/><polyline class="polyline" opacity="0.5" stroke="blue" points="247.7766361685878,214.37546912269872 175.50189117036723,210.45175479215118 "/><polyline class="polyline" opacity="0.5" stroke="blue" points="247.81379395867265,215.9358333217577 175.22051505871787,210.9207893919089 "/><polyline class="polyline" opacity="0.5" stroke="blue" points="247.82741297588137,217.48542431360812 174.9440092538237,211.4073069853041 "/><polyline class="polyline" opacity="0.5" stroke="blue" points="247.8175536790004,219.02335140373836 174.6721279774485,211.91149749479766 "/><polyline class="polyline" opacity="0.5" stroke="blue" points="247.78429390130478,220.54873754494187 174.4046144950466,212.4335252443302 "/><polyline class="polyline" opacity="0.5" stroke="blue" points="247.727728613624,222.06072013758677 174.1412013789041,212.97352807632245 "/><polyline class="polyline" opacity="0.5" stroke="blue" points="247.6479696640469,223.55845179784384 173.88161079339275,213.5316164911184 "/><polyline class="polyline" opacity="0.5" stroke="blue" points="247.54514549517873,225.0411010926732 173.62555480271877,214.10787281165238 "/><polyline class="polyline" opacity="0.5" stroke="blue" points="247.4194008399156,226.50785324049076 173.3727357014968,214.70235037620188 "/><polyline class="polyline" opacity="0.5" stroke="blue" points="247.27089639674722,227.95791077655127 173.12284636842236,215.3150727621566 "/><polyline class="polyline" opacity="0.5" stroke="blue" points="247.0998084856385,229.39049418220904 172.87557064325023,215.94603304379655 "/><polyline class="polyline" opacity="0.5" stroke="blue" points="246.90632868557788,230.80484247733463 172.63058372722008,216.59519308711765 "/><polyline class="polyline" opacity="0.5" stroke="blue" points="246.69066345491103,232.20021377529105 172.38755260699463,217.26248288478217 "/><polyline class="polyline" opacity="0.5" stroke="blue" points="246.45303373560517,233.57588579998924 172.14613650209665,217.9477999342911 "/><polyline class="polyline" opacity="0.5" stroke="blue" points="246.19367454261013,234.93115636466658 171.90598733574666,218.65100866248588 "/><polyline class="polyline" opacity="0.5" stroke="blue" points="245.91283453950052,236.26534381214594 171.66675022891386,219.37193989947733 "/><polyline class="polyline" opacity="0.5" stroke="blue" points="245.6107756015939,237.57778741645234 171.42806401729896,220.11039040507822 "/><polyline class="polyline" opacity="0.5" stroke="blue" points="245.2877723677477,238.86784774577404 171.1895617908704,220.86612245077177 "/><polyline class="polyline" opacity="0.5" stroke="blue" points="244.9441117820406,240.13490698686894 170.9508714554734,221.63886346019353 "/><polyline class="polyline" opacity="0.5" stroke="blue" points="244.580092626542,241.37836923112025 170.71161631592736,222.42830571102337 "/><polyline class="polyline" opacity="0.5" stroke="blue" points="244.1960250463673,242.5976607225511 170.47141567992,223.23410610109013 "/><polyline class="polyline" opacity="0.5" stroke="blue" points="243.79223006820632,243.79223006820632 170.22988548189625,224.0558859813757 "/><polyline class="polyline" opacity="0.5" stroke="blue" points="243.36903911349881,244.96154841140202 169.98663892603167,224.89323105846842 "/><polyline class="polyline" opacity="0.5" stroke="blue" points="242.92679350741156,246.10510956843825 169.74128714726618,225.74569136886382 "/><polyline class="polyline" opacity="0.5" stroke="blue" points="242.46584398475224,247.22243012944725 169.49343988926398,226.61278132733116 "/><polyline class="polyline" opacity="0.5" stroke="blue" points="241.9865501939283,248.31304952413862 169.24270619805478,227.49397985137523 "/><polyline class="polyline" opacity="0.5" stroke="blue" points="241.48928020003285,249.37653005326916 168.98869513000128,228.38873056360396 "/><polyline class="polyline" opacity="0.5" stroke="blue" points="240.97440998810748,250.41245688673962 168.73101647263172,229.29644207358382 "/><polyline class="polyline" opacity="0.5" stroke="blue" points="240.44232296760043,251.42043802928063 168.46928147677195,230.21648834051146 "/><polyline class="polyline" opacity="0.5" stroke="blue" points="239.89340947900007,252.40010425474983 168.2031035983118,231.14820911776474 "/><polyline class="polyline" opacity="0.5" stroke="blue" points="239.32806630358846,253.35110901011456 167.93209924784514,232.0909104801097 "/><polyline class="polyline" opacity="0.5" stroke="blue" points="238.74669617721867,254.2731282902388 167.6558885463338,233.0438654340438 "/><polyline class="polyline" opacity="0.5" stroke="blue" points="238.14970730897767,255.1658604846376 167.37409608486186,234.00631461144116 "/><polyline class="polyline" opacity="0.5" stroke="blue" points="237.53751290555599,256.02902619739416 167.08635168647237,234.97746704634164 "/><polyline class="polyline" opacity="0.5" stroke="blue" points="236.9105307020986,256.8623680414683 166.79229116800937,235.9565010343921 "/><polyline class="polyline" opacity="0.5" stroke="blue" points="236.26918250026887,257.66565040864657 166.49155709983006,236.9425650741038 "/><polyline class="polyline" opacity="0.5" stroke="blue" points="235.6138937142115,258.43865921640554 166.1837995612036,237.93477888874042 "/><polyline class="polyline" opacity="0.5" stroke="blue" points="234.94509292505344,259.1812016329752 165.86867688917178,238.93223452729944 "/><polyline class="polyline" opacity="0.5" stroke="blue" points="234.26321144453703,259.8931057818959 165.54585641862127,239.933997542692 "/><polyline class="polyline" opacity="0.5" stroke="blue" points="233.56868288833203,260.57422042737073 165.21501521129758,240.9391082448734 "/><polyline class="polyline" opacity="0.5" stroke="blue" points="232.86194275952892,261.2244146417131 164.87584077148898,241.9465830263218 "/><polyline class="polyline" opacity="0.5" stroke="blue" points="232.14342804276782,261.8435774561866 164.52803174611222,242.9554157569199 "/><polyline class="polyline" opacity="0.5" stroke="blue" points="231.41357680941417,262.4316174965265 164.1712986069543,243.96457924495036 "/><polyline class="polyline" opacity="0.5" stroke="blue" points="230.67282783414666,262.98846260441957 163.805364312855,244.97302676059257 "/><polyline class="polyline" opacity="0.5" stroke="blue" points="229.92162022327977,263.51405944620393 163.42996494966079,245.97969361798764 "/><polyline class="polyline" opacity="0.5" stroke="blue" points="229.16039305509958,264.00837311003306 163.044850345837,246.98349881164253 "/><polyline class="polyline" opacity="0.5" stroke="blue" points="228.38958503245104,264.4713866927241 162.64978466169654,247.98334670265817 "/><polyline class="polyline" opacity="0.5" stroke="blue" points="227.60963414777277,264.90310087748946 162.24454695028413,248.97812875000614 "/><polyline class="polyline" opacity="0.5" stroke="blue" points="226.82097736073814,265.30353350371774 161.82893168805168,249.96672528183495 "/><polyline class="polyline" opacity="0.5" stroke="blue" points="226.02405028862117,265.67271912994806 161.4027492735627,250.94800730157306 "/><polyline class="polyline" opacity="0.5" stroke="blue" points="225.21928690947092,266.0107085911431 160.96582649258323,251.92083832340387 "/><polyline class="polyline" opacity="0.5" stroke="blue" points="224.40711927814306,266.31756855133676 160.51800694804257,252.88407623152258 "/><polyline class="polyline" opacity="0.5" stroke="blue" points="223.58797725520242,266.59338105269575 160.05915145348288,253.8365751574547 "/><polyline class="polyline" opacity="0.5" stroke="blue" points="222.7622882486802,266.838243061998 159.58913838876245,254.77718736960725 "/><polyline class="polyline" opacity="0.5" stroke="blue" points="221.93047696863752,267.05226601549214 159.10786401692954,255.70476516915403 "/><polyline class="polyline" opacity="0.5" stroke="blue" points="221.0929651944614,267.2355753630642 158.6152427613444,256.61816278631227 "/><polyline class="polyline" opacity="0.5" stroke="blue" points="220.2501715547876,267.38831011259896 158.11120744229038,257.51623827106073 "/><polyline class="polyline" opacity="0.5" stroke="blue" points="219.40251131992468,267.5106223753802 157.59570947248605,258.3978553723729 "/><polyline class="polyline" opacity="0.5" stroke="blue" points="218.5503962066259,267.6026769133363 157.06871901108326,259.26188540009076 "/><polyline class="polyline" opacity="0.5" stroke="blue" points="217.6942341950372,267.6646506888952 156.53022507591072,260.10720906365873 "/><polyline class="polyline" opacity="0.5" stroke="blue" points="216.83442935762565,267.69673241817236 155.98023561390022,260.9327182820486 "/><polyline class="polyline" opacity="0.5" stroke="blue" points="215.97138169987645,267.69912212817337 155.41877752980685,261.7373179593633 "/><polyline class="polyline" opacity="0.5" stroke="blue" points="215.1054870125302,267.6720307186547 154.8458966735122,262.51992772077796 "/><polyline class="polyline" opacity="0.5" stroke="blue" points="214.23713673511318,267.6156795292413 154.26165778636954,263.27948360369095 "/><polyline class="polyline" opacity="0.5" stroke="blue" points="213.3667178305032,267.5302999123653 153.66614440721906,264.01493969918397 "/><polyline class="polyline" opacity="0.5" stroke="blue" points="212.49461267025836,267.41613281254575 153.0594587388661,264.72526973915154 "/><polyline class="polyline" opacity="0.5" stroke="blue" points="211.621198930427,267.27342835249414 152.44172147597249,265.40946862473754 "/><polyline class="polyline" opacity="0.5" stroke="blue" points="210.74684949754513,267.1024454264918 151.81307159546094,266.06655389201893 "/><polyline class="polyline" opacity="0.5" stroke="blue" points="209.87193238452107,266.9034513014464 151.17366611067905,266.6955671111924 "/><polyline class="polyline" opacity="0.5" stroke="blue" points="208.99681065609906,266.6767212260023 150.52367979069993,267.29557521585565 "/><polyline class="polyline" opacity="0.5" stroke="blue" points="208.12184236358814,266.422538048041 149.86330484626552,267.8656717593206 "/><polyline class="polyline" opacity="0.5" stroke="blue" points="207.24738048853666,266.1411918408762 149.1927505839913,268.40497809525516 "/><polyline class="polyline" opacity="0.5" stroke="blue" points="206.37377289503058,265.83297953841486 148.5122430305566,268.9126444803137 "/><polyline class="polyline" opacity="0.5" stroke="blue" points="205.50136229028976,265.4982045795223 147.82202452869768,269.3878510967907 "/><polyline class="polyline" opacity="0.5" stroke="blue" points="204.63048619323652,265.1371765618019 147.1223533069047,269.8298089937027 "/><polyline class="polyline" opacity="0.5" stroke="blue" points="203.761476910707,264.7502109049676 146.41350302478952,270.2377609450815 "/><polyline class="polyline" opacity="0.5" stroke="blue" points="202.8946615209791,264.3376285239606 145.69576229615393,270.61098222463204 "/><polyline class="polyline" opacity="0.5" stroke="blue" points="202.0303618642906,263.89975551193595 144.96943419183236,270.9487812962768 "/><polyline class="polyline" opacity="0.5" stroke="blue" points="201.1688945400208,263.43692283321684 144.23483572441592,271.2505004204708 "/><polyline class="polyline" opacity="0.5" stroke="blue" points="200.3105709102148,262.9494660262916 143.49229731698904,271.51551617652194 "/><polyline class="polyline" opacity="0.5" stroke="blue" points="199.4556971091293,262.43772491690487 142.7421622580197,271.74323990149514 "/><polyline class="polyline" opacity="0.5" stroke="blue" points="198.60457405848499,261.90204334127264 141.9847861445444,271.933118046605 "/><polyline class="polyline" opacity="0.5" stroke="blue" points="197.75749748811245,261.3427688794294 141.22053631577472,272.0846324523183 "/><polyline class="polyline" opacity="0.5" stroke="blue" points="196.91475796168424,260.76025259869687 140.449791279234,272.1973005436852 "/><polyline class="polyline" opacity="0.5" stroke="blue" points="196.07664090723068,260.1548488072459 139.67294013149686,272.2706754476978 "/><polyline class="polyline" opacity="0.5" stroke="blue" points="195.2434266521428,259.5269148177042 138.8903819755653,272.3043460347407 "/><polyline class="polyline" opacity="0.5" stroke="blue" points="194.4153904623695,258.8768107207485 138.1025253368623,272.2979368864378 "/><polyline class="polyline" opacity="0.5" stroke="blue" points="193.59280258552482,258.20489916860276 137.30978757976635,272.25110819242553 "/><polyline class="polyline" opacity="0.5" stroke="blue" points="192.77592829762511,257.5115451683524 136.51259432654433,272.16355557878444 "/><polyline class="polyline" opacity="0.5" stroke="blue" points="191.96502795318438,256.79711588496923 135.71137888046616,272.0350098710425 "/><polyline class="polyline" opacity="0.5" stroke="blue" points="191.16035703840052,256.0619804539316 134.90658165480585,271.8652367948232 "/><polyline class="polyline" opacity="0.5" stroke="blue" points="190.36216622717382,255.30650980331234 134.09864960934976,271.65403661735184 "/><polyline class="polyline" opacity="0.5" stroke="blue" points="189.57070143970566,254.53107648519764 133.2880356959439,271.40124373315007 "/><polyline class="polyline" opacity="0.5" stroke="blue" points="188.78620390343124,253.73605451629038 132.47519831451757,271.1067261973452 "/><polyline class="polyline" opacity="0.5" stroke="blue" points="188.00891021604852,252.9218192275432 131.6606007809284,270.77038521009797 "/><polyline class="polyline" opacity="0.5" stroke="blue" points="187.23905241041166,252.08874712265893 130.84471080787165,270.39215455570906 "/><polyline class="polyline" opacity="0.5" stroke="blue" points="186.47685802106588,251.23721574529037 130.02800000000002,269.972 "/><polyline class="polyline" opacity="0.5" stroke="blue" points="185.72255015220506,250.36760355476326 129.2109433642973,269.5099186495845 "/><polyline class="polyline" opacity="0.5" stroke="blue" points="184.9763475468431,249.48028981014224 128.39401883664922,269.0059382766458 "/><polyline class="polyline" opacity="0.5" stroke="blue" points="184.2384646569954,248.5756544624553 127.57770682545267,268.4601166128209 "/><polyline class="polyline" opacity="0.5" stroke="blue" points="183.50911171467482,247.65407805488763 126.76248977300631,267.8725406157598 "/><polyline class="polyline" opacity="0.5" stroke="blue" points="182.78849480351158,246.71594163075045 125.94885173532361,267.2433257118827 "/><polyline class="polyline" opacity="0.5" stroke="blue" points="182.07681593081546,245.76162664903137 125.1372779809162,266.5726150187966 "/><polyline class="polyline" opacity="0.5" stroke="blue" points="181.37427309990275,244.79151490732576 124.32825460899546,265.8605785507638 "/><polyline class="polyline" opacity="0.5" stroke="blue" points="180.68106038251983,243.8059884719509 123.52226818745484,265.10741241052716 "/><polyline class="polyline" opacity="0.5" stroke="blue" points="179.9973679911981,242.80542961503886 122.71980541089896,264.3133379707064 "/><polyline class="polyline" opacity="0.5" stroke="blue" points="179.32338235138366,241.79022075840606 121.92135277890401,263.4786010478751 "/><polyline class="polyline" opacity="0.5" stroke="blue" points="178.6592861731906,240.76074442399522 121.12739629461136,262.6034710723193 "/><polyline class="polyline" opacity="0.5" stroke="blue" points="178.00525852263127,239.71738319068493 120.33842118367494,261.68824025635934 "/><polyline class="polyline" opacity="0.5" stroke="blue" points="177.36147489218428,238.66051965726112 119.55491163351084,260.7332227639943 "/><polyline class="polyline" opacity="0.5" stroke="blue" points="176.72810727056498,237.5905364113468 118.77735055272494,259.73875388450085 "/><polyline class="polyline" opacity="0.5" stroke="blue" points="176.1053242115701,236.5078160040842 118.00621935052916,258.7051892124875 "/><polyline class="polyline" opacity="0.5" stroke="blue" points="175.4932909018706,235.41274093036546 117.2419977358935,257.63290383676866 "/><polyline class="polyline" opacity="0.5" stroke="blue" points="174.89216922763515,234.30569361440828 116.48516353612253,256.5222915402907 "/><polyline class="polyline" opacity="0.5" stroke="blue" points="174.30211783986812,233.18705640047267 115.73619253449273,255.37376401320043 "/><polyline class="polyline" opacity="0.5" stroke="blue" points="173.72329221835324,232.05721154851892 114.99555832653505,254.1877500810158 "/><polyline class="polyline" opacity="0.5" stroke="blue" points="173.1558447340959,230.9165412346031 114.26373219450254,252.9646949497148 "/><polyline class="polyline" opacity="0.5" stroke="blue" points="172.5999247101635,229.76542755581255 113.54118299952161,251.70505946942907 "/><polyline class="polyline" opacity="0.5" stroke="blue" points="172.05567848082538,228.60425253954077 112.82837709088574,250.40931941829135 "/><polyline class="polyline" opacity="0.5" stroke="blue" points="171.52324944889966,227.43339815690618 112.12577823191914,249.07796480785817 "/><polyline class="polyline" opacity="0.5" stroke="blue" points="171.00277814121532,226.2532463401169 111.43384754180532,247.71149921139687 "/><polyline class="polyline" opacity="0.5" stroke="blue" points="170.4944022621039,225.0641790035869 110.75304345274878,246.31043911620398 "/><polyline class="polyline" opacity="0.5" stroke="blue" points="169.9982567448374,223.86657806861083 110.0838216818168,244.8753133010014 "/><polyline class="polyline" opacity="0.5" stroke="blue" points="169.51447380093134,222.66082549140393 109.42663521678367,243.40666223933496 "/><polyline class="polyline" opacity="0.5" stroke="blue" points="169.0431829672367,221.44730329431562 108.78193431528665,241.90503752979237 "/><polyline class="polyline" opacity="0.5" stroke="blue" points="168.58451115074539,220.22639360002748 108.15016651658367,240.37100135374448 "/><polyline class="polyline" opacity="0.5" stroke="blue" points="168.13858267103836,218.99847866854617 107.53177666519532,238.80512596121372 "/><polyline class="polyline" opacity="0.5" stroke="blue" points="167.70551930030666,217.76394093680256 106.9272069456984,237.20799318536984 "/><polyline class="polyline" opacity="0.5" stroke="blue" points="167.28544030087906,216.52316306067036 106.33689692793492,235.58019398606257 "/><polyline class="polyline" opacity="0.5" stroke="blue" points="166.87846246019126,215.27652795921756 105.76128362189179,233.92232802270829 "/><polyline class="polyline" opacity="0.5" stroke="blue" points="166.4847001231356,214.0244188610058 105.20080154150335,232.23500325676656 "/><polyline class="polyline" opacity="0.5" stroke="blue" points="166.10426522172995,212.76721935225066 104.6558827766258,230.51883558395738 "/><polyline class="polyline" opacity="0.5" stroke="blue" points="165.7372673020483,211.50531342665934 104.1269570724307,228.7744484962985 "/><polyline class="polyline" opacity="0.5" stroke="blue" points="165.38381354835715,210.23908553676182 103.61445191546613,227.0024727739726 "/><polyline class="polyline" opacity="0.5" stroke="blue" points="165.04400880440244,208.9689206465495 103.11879262563195,225.20354620696259 "/><polyline class="polyline" opacity="0.5" stroke="blue" points="164.71795559179532,207.6952042852383 102.6404024533201,223.37831334633753 "/><polyline class="polyline" opacity="0.5" stroke="blue" points="164.40575412544527,206.418322601971 102.17970268097008,221.52742528501017 "/><polyline class="polyline" opacity="0.5" stroke="blue" points="164.10750232599148,205.13866242127523 101.73711272829493,219.65153946773694 "/><polyline class="polyline" opacity="0.5" stroke="blue" points="163.82329582918484,203.85661129909042 101.3130502604327,217.75131953007687 "/><polyline class="polyline" opacity="0.5" stroke="blue" points="163.55322799217413,202.57255757917898 100.90793129828428,215.82743516598492 "/><polyline class="polyline" opacity="0.5" stroke="blue" points="163.2973898966522,201.28689044973441 100.5221703302992,213.8805620236677 "/><polyline class="polyline" opacity="0.5" stroke="blue" points="163.05587034881864,200.0 100.15618042497405,211.9113816292953 "/><polyline class="polyline" opacity="0.5" stroke="blue" points="162.8287558761179,198.71227727670802 99.81037334333192,209.92058133811932 "/><polyline class="polyline" opacity="0.5" stroke="blue" points="162.61613072071168,197.42411434015023 99.48515965065128,207.90885431251886 "/><polyline class="polyline" opacity="0.5" stroke="blue" points="162.41807682964856,196.1359043196885 99.18094882671585,205.87689952646102 "/><polyline class="polyline" opacity="0.5" stroke="blue" points="162.23467384169263,194.84804146851303 98.89814937385732,203.825421795835 "/><polyline class="polyline" opacity="0.5" stroke="blue" points="162.06599907077634,193.56092121745243 98.63716892206398,201.75513183408728 "/><polyline class="polyline" opacity="0.5" stroke="blue" points="161.91212748604352,192.27494022763943 98.39841433042511,199.66674633256187 "/><polyline class="polyline" opacity="0.5" stroke="blue" points="161.77313168845092,190.99049644183535 98.18229178418551,197.56098806492525 "/><polyline class="polyline" opacity="0.5" stroke="blue" points="161.6490818838974,189.70798913420992 97.98920688667549,195.43858601502612 "/><polyline class="polyline" opacity="0.5" stroke="blue" points="161.54004585285284,188.42781895837552 97.81956474538424,193.30027552752253 "/><polyline class="polyline" opacity="0.5" stroke="blue" points="161.44608891646027,187.15038799346908 97.67377005143827,191.14679848058094 "/><polyline class="polyline" opacity="0.5" stroke="blue" points="161.36727389908646,185.87609978807492 97.55222715174176,188.9789034799339 "/><polyline class="polyline" opacity="0.5" stroke="blue" points="161.3036610872989,184.6053594017765 97.45534011303101,186.79734607355257 "/><polyline class="polyline" opacity="0.5" stroke="blue" points="161.25530818524993,183.33857344412456 97.38351277708685,184.60288898617483 "/><polyline class="polyline" opacity="0.5" stroke="blue" points="161.22227026644902,182.0761501108047 97.33714880634281,182.3963023728985 "/><polyline class="polyline" opacity="0.5" stroke="blue" points="161.20459972191009,180.81849921678668 97.31665171911703,180.17836409103097 "/><polyline class="polyline" opacity="0.5" stroke="blue" points="161.2023462046606,179.56603222623113 97.32242491368692,177.94985998935272 "/><polyline class="polyline" opacity="0.5" stroke="blue" points="161.21555657060378,178.3191622789306 97.3548716804141,175.71158421393173 "/><polyline class="polyline" opacity="0.5" stroke="blue" points="161.2442748157278,177.0783042130552 97.41439520111663,173.4643395295904 "/><polyline class="polyline" opacity="0.5" stroke="blue" points="161.2885420096598,175.84387458397322 97.50139853487445,171.20893765610285 "/><polyline class="polyline" opacity="0.5" stroke="blue" points="161.34839622556484,174.61629167891124 97.61628458943696,168.94619961815744 "/><polyline class="polyline" opacity="0.5" stroke="blue" points="161.42387246639555,173.39597552721645 97.75945607739406,166.67695610809264 "/><polyline class="polyline" opacity="0.5" stroke="blue" points="161.5150025875003,172.1833479059828 97.93131545625211,164.40204786037324 "/><polyline class="polyline" opacity="0.5" stroke="blue" points="161.62181521560416,170.9788323407958 98.13226485154634,162.12232603672982 "/><polyline class="polyline" opacity="0.5" stroke="blue" points="161.74433566417898,169.7828541013514 98.36270596210308,159.83865262084626 "/><polyline class="polyline" opacity="0.5" stroke="blue" points="161.8825858452264,168.59584019170026 98.62303994655232,157.55190082142786 "/><polyline class="polyline" opacity="0.5" stroke="blue" points="162.0365841775006,167.41821933486722 98.91366729017523,155.26295548243888 "/><polyline class="polyline" opacity="0.5" stroke="blue" points="162.20634549120422,166.2504219515913 99.2349876511565,152.97271349923585 "/><polyline class="polyline" opacity="0.5" stroke="blue" points="162.39188092919608,165.0928801329328 99.58739968529697,150.68208423927416 "/><polyline class="polyline" opacity="0.5" stroke="blue" points="162.5931978447561,163.94602760648837 99.97130084822841,148.3919899659993 "/><polyline class="polyline" opacity="0.5" stroke="blue" points="162.81029969595807,162.81029969595807 100.38708717415857,146.1033662644724 "/><polyline class="polyline" opacity="0.5" stroke="blue" points="163.04318593670843,161.68613327380177 100.8351530301631,143.81716246720714 "/><polyline class="polyline" opacity="0.5" stroke="blue" points="163.29185190451665,160.57396670672574 101.31589084503003,141.5343420786259 "/><polyline class="polyline" opacity="0.5" stroke="blue" points="163.55628870506916,159.47423979373755 101.82969081165375,139.25588319646397 "/><polyline class="polyline" opacity="0.5" stroke="blue" points="163.8364830936873,158.38739369650878 102.37694056196702,136.98277892837194 "/><polyline class="polyline" opacity="0.5" stroke="blue" points="164.13241735375775,157.31387086178242 102.95802481339538,134.71603780187604 "/><polyline class="polyline" opacity="0.5" stroke="blue" points="164.44406917223282,156.2541149355669 103.5733249858182,132.45668416577334 "/><polyline class="polyline" opacity="0.5" stroke="blue" points="164.77141151230558,155.20857066885742 104.22321878801488,130.20575858094196 "/><polyline class="polyline" opacity="0.5" stroke="blue" points="165.11441248337584,154.17768381462682 104.90807977258754,127.96431819844835 "/><polyline class="polyline" opacity="0.5" stroke="blue" points="165.4730352084314,153.16190101583305 105.62827685835131,125.73343712273577 "/><polyline class="polyline" opacity="0.5" stroke="blue" points="165.8472376889795,152.16166968419185 106.38417381920162,123.51420675757001 "/><polyline class="polyline" opacity="0.5" stroke="blue" points="166.23697266767314,151.17743786946863 107.17612873848053,121.30773613231567 "/><polyline class="polyline" opacity="0.5" stroke="blue" points="166.64218748878915,150.2096541190463 108.00449342788976,119.1151522059978 "/><polyline class="polyline" opacity="0.5" stroke="blue" points="167.06282395672426,149.25876732753417 108.86961281002435,116.93760014649749 "/><polyline class="polyline" opacity="0.5" stroke="blue" points="167.49881819268808,148.3252265761872 109.77182426363598,114.77624358210885 "/><polyline class="polyline" opacity="0.5" stroke="blue" points="167.950100489783,147.409480961914 110.71145693077638,112.63226482257103 "/><polyline class="polyline" opacity="0.5" stroke="blue" points="168.41659516667386,146.5119794156593 111.68883098502072,110.50686504656497 "/><polyline class="polyline" opacity="0.5" stroke="blue" points="168.89822042006165,145.6331705099564 112.70425686002872,108.40126445254961 "/><polyline class="polyline" opacity="0.5" stroke="blue" points="169.3948881761898,144.77350225545518 113.75803443776601,106.31670236968883 "/><polyline class="polyline" opacity="0.5" stroke="blue" points="169.90650394162247,143.93342188624524 114.85045219578475,104.25443732550494 "/><polyline class="polyline" opacity="0.5" stroke="blue" points="170.43296665354936,143.11337563380138 115.98178631304921,102.2157470667731 "/><polyline class="polyline" opacity="0.5" stroke="blue" points="170.9741685298849,142.31380848939818 117.15229973388857,100.20192853005885 "/><polyline class="polyline" opacity="0.5" stroke="blue" points="171.52999491944126,141.5351639548529 118.36224118976479,98.21429775819178 "/><polyline class="polyline" opacity="0.5" stroke="blue" points="172.10032415247147,140.7778837814715 119.61184417866917,96.2541897588577 "/><polyline class="polyline" opacity="0.5" stroke="blue" points="172.68502739189074,140.04240769709298 120.901325902089,94.3229583013951 "/><polyline class="polyline" opacity="0.5" stroke="blue" points="173.28396848549895,139.32917312114392 122.23088615963748,92.42197564778837 "/><polyline class="polyline" opacity="0.5" stroke="blue" points="173.89700381954043,138.6386148676383 123.60070620159571,90.55263221376859 "/><polyline class="polyline" opacity="0.5" stroke="blue" points="174.5239821739533,137.9711648360765 125.0109475397976,88.71633615585499 "/><polyline class="polyline" opacity="0.5" stroke="blue" points="175.16474457967215,137.3272516902239 126.46175071747379,86.9145128801164 "/><polyline class="polyline" opacity="0.5" stroke="blue" points="175.8191241783632,136.7073005247724 127.95323403888094,85.1486044683798 "/><polyline class="polyline" opacity="0.5" stroke="blue" points="176.48694608498442,136.1117325199159 129.48549225976305,83.42006901758907 "/><polyline class="polyline" opacity="0.5" stroke="blue" points="177.16802725357692,135.54096458389762 131.0585952399339,81.73037988799696 "/><polyline class="polyline" opacity="0.5" stroke="blue" points="177.86217634670655,134.99540898361693 132.67258655952313,80.08102485588981 "/><polyline class="polyline" opacity="0.5" stroke="blue" points="178.5691936089875,134.47547296341577 134.327482100701,78.4735051665707 "/><polyline class="polyline" opacity="0.5" stroke="blue" points="179.2888707451333,133.98155835219407 136.0232685969909,76.90933448338141 "/><polyline class="polyline" opacity="0.5" stroke="blue" points="180.02099080299055,133.5140611590412 137.75990215258022,75.39003772862974 "/><polyline class="polyline" opacity="0.5" stroke="blue" points="180.76532806202403,133.07337115760228 139.53730673436755,73.91714981239761 "/><polyline class="polyline" opacity="0.5" stroke="blue" points="181.5216479277302,132.65987145943853 141.3553726398195,72.492214245353 "/><polyline class="polyline" opacity="0.5" stroke="blue" points="182.28970683246934,132.2739380766759 143.2139549440702,71.11678163186173 "/><polyline class="polyline" opacity="0.5" stroke="blue" points="183.0692521432112,131.91593947427805 145.1128719300608,69.79240803991956 "/><polyline class="polyline" opacity="0.5" stroke="blue" points="183.860022076702,131.58623611231928 147.05190350590377,68.52065324467017 "/><polyline class="polyline" opacity="0.5" stroke="blue" points="184.66174562256293,131.28517997867607 149.03078961404657,67.3030788425815 "/><polyline class="polyline" opacity="0.5" stroke="blue" points="185.4741424748406,131.01311411259763 151.0492286372214,66.14124623368437 "/><polyline class="polyline" opacity="0.5" stroke="blue" points="186.29692297253115,130.77037211966214 153.10687580657736,65.03671446967297 "/><polyline class="polyline" opacity="0.5" stroke="blue" points="187.12978804960642,130.55727767866807 155.20334161781452,63.99103796609489 "/><polyline class="polyline" opacity="0.5" stroke="blue" points="187.97242919506843,130.37414404105868 157.33819026156388,63.005764077351245 "/><polyline class="polyline" opacity="0.5" stroke="blue" points="188.82452842356435,130.2212735235218 159.5109380746856,62.08243053375463 "/><polyline class="polyline" opacity="0.5" stroke="blue" points="189.68575825708837,130.0989569944557 161.72105201958325,61.22256274049238 "/><polyline class="polyline" opacity="0.5" stroke="blue" points="190.55578171829626,130.0074733550398 163.96794819904653,60.42767093897629 "/><polyline class="polyline" opacity="0.5" stroke="blue" points="191.43425233595434,129.94708901569572 166.25099041455582,59.699247231762 "/><polyline class="polyline" opacity="0.5" stroke="blue" points="192.32081416303703,129.91805736877274 168.56948877637114,59.038762472969495 "/><polyline class="polyline" opacity="0.5" stroke="blue" points="193.21510180797975,129.9206182583393 170.92269837411555,58.4476630269387 "/><polyline class="polyline" opacity="0.5" stroke="blue" points="194.11674047958184,129.95499744800983 173.30981801691615,57.92736739871066 "/><polyline class="polyline" opacity="0.5" stroke="blue" points="195.02534604604514,130.02140608778345 175.72998905250543,57.47926274083085 "/><polyline class="polyline" opacity="0.5" stroke="blue" points="195.94052510861476,130.1200401809162 178.18229427497818,57.10470124192025 "/><polyline class="polyline" opacity="0.5" stroke="blue" points="196.86187509027567,130.25108005189475 180.66575693116658,56.804996403462894 "/><polyline class="polyline" opacity="0.5" stroke="blue" points="197.78898433993587,130.41468981662334 183.17933983581005,56.58141921229151 "/><polyline class="polyline" opacity="0.5" stroke="blue" points="198.72143225250872,130.61101685597703 185.72194460587173,56.435194217328586 "/><polyline class="polyline" opacity="0.5" stroke="blue" points="199.65878940528012,130.84019129391723 188.29241102446207,56.36749552024173 "/><polyline class="polyline" opacity="0.5" stroke="blue" points="200.60061771092157,131.10232548140203 190.88951654488798,56.37944269080123 "/><polyline class="polyline" opacity="0.5" stroke="blue" points="201.54647058747963,131.39751348736166 193.51197594532715,56.47209661886521 "/><polyline class="polyline" opacity="0.5" stroke="blue" points="202.4958931456428,131.725830598043 196.15844114454754,56.64645531607232 "/><polyline class="polyline" opacity="0.5" stroke="blue" points="203.4484223935515,132.08733282605792 198.82750118892307,56.90344968146508 "/><polyline class="polyline" opacity="0.5" stroke="blue" points="204.40358745938,132.4820564304988 201.51768242074672,57.24393924640651 "/><polyline class="polyline" opacity="0.5" stroke="blue" points="205.3609098318827,132.91001744950813 204.22744883751417,57.66870791526185 "/><polyline class="polyline" opacity="0.5" stroke="blue" points="206.3199036190534,133.37121124671117 206.95520265141337,58.178459719398916 "/><polyline class="polyline" opacity="0.5" stroke="blue" points="207.2800758250046,133.86561207293735 209.69928505773692,58.77381460309033 "/><polyline class="polyline" opacity="0.5" stroke="blue" points="208.24092664512608,134.39317264466814 212.45797722030494,59.45530426087154 "/><polyline class="polyline" opacity="0.5" stroke="blue" points="209.2019497795374,134.95382374065844 215.22950148126642,60.223368046810094 "/><polyline class="polyline" opacity="0.5" stroke="blue" points="210.16263276479492,135.54747381818157 218.01202280181295,61.07834897695008 "/><polyline class="polyline" opacity="0.5" stroke="blue" points="211.12245732376613,136.17400865034733 220.80365043941222,62.0204898469093 "/><polyline class="polyline" opacity="0.5" stroke="blue" points="212.08089973352625,136.83329098593455 223.60243986613133,63.049929487198426 "/><polyline class="polyline" opacity="0.5" stroke="blue" points="213.037431211081,137.52516023317017 226.40639493149405,64.16669917930446 "/><polyline class="polyline" opacity="0.5" stroke="blue" points="213.99151831665935,138.24943216886663 229.21347027208094,65.37071925590078 "/><polyline class="polyline" opacity="0.5" stroke="blue" points="214.94262337426414,139.0058986743094 232.02157396876692,66.66179590872113 "/><polyline class="polyline" opacity="0.5" stroke="blue" points="215.8902049091073,139.79432749925354 234.82857045108014,68.03961822763506 "/></svg>
