<?xml version="1.0" encoding="UTF-8"?>
<!DOCTYPE svg PUBLIC "-//W3C//DTD SVG 1.1//EN"
    "http://www.w3.org/Graphics/SVG/1.1/DTD/svg11.dtd"><svg width="400" height="400" stroke="black" fill="none" fill-opacity="0.75" font-size="14" font-style="italic" font-family="sans-serif" xmlns="http://www.w3.org/2000/svg" xmlns:xlink="http://www.w3.org/1999/xlink" version="1.1"><filter id="blur1"><feGaussianBlur stdDeviation="0.5"/></filter><rect width="100%" height="100%" fill="white" stroke="none" fill-opacity="1"/><rect class="bg" fill="black" width="100%" height="100%" stroke="none" fill-opacity="1"/><polyline class="polyline" opacity="0.5" stroke="blue" points="221.52836398475534,144.7405817958404 248.31370539927698,77.42404957596665 "/><polyline class="polyline" opacity="0.5" stroke="blue" points="222.55338835350176,145.70592166849917 251.2642871251562,79.25895472473408 "/><polyline class="polyline" opacity="0.5" stroke="blue" points="223.570427029746,146.70021092744497 254.19572972925846,81.17335526327538 "/><polyline class="polyline" opacity="0.5" stroke="blue" points="224.57886544684942,147.7230027229512 257.10548157622344,83.16585620274752 "/><polyline class="polyline" opacity="0.5" stroke="blue" points="225.57809050201297,148.7738264155883 259.99098972886435,85.23493788731335 "/><polyline class="polyline" opacity="0.5" stroke="blue" points="226.56749118639,149.85218775474706 262.84970538869436,87.37895707850691 "/><polyline class="polyline" opacity="0.5" stroke="blue" points="227.54645922251817,150.95756909495776 265.67908944202173,89.59614845744062 "/><polyline class="polyline" opacity="0.5" stroke="blue" points="228.51438970786165,152.0894296502707 268.47661808916746,91.8846265484931 "/><polyline class="polyline" opacity="0.5" stroke="blue" points="229.4706817632105,153.2472057868607 271.23978853324127,94.24238806566991 "/><polyline class="polyline" opacity="0.5" stroke="blue" points="230.41473918464612,154.4303113539114 273.96612470394956,96.66731468029175 "/><polyline class="polyline" opacity="0.5" stroke="blue" points="231.34597109774492,155.6381380527278 276.6531829911073,99.15717620607114 "/><polyline class="polyline" opacity="0.5" stroke="blue" points="232.26379261266362,156.87005584391386 279.298557961904,101.70963419500822 "/><polyline class="polyline" opacity="0.5" stroke="blue" points="233.1676254787207,158.12541339233968 281.8998880355409,104.32224593489383 "/><polyline class="polyline" opacity="0.5" stroke="blue" points="234.05689873706777,159.40353854951096 284.45486108862065,106.99246883658176 "/><polyline class="polyline" opacity="0.5" stroke="blue" points="234.93104937002715,160.70373887283705 286.9612199646373,109.71766519660213 "/><polyline class="polyline" opacity="0.5" stroke="blue" points="235.7895229456595,162.02530218118142 289.41676786109656,112.49510731816983 "/><polyline class="polyline" opacity="0.5" stroke="blue" points="236.6317742561184,163.36749714596405 291.81937356818077,115.32198297121296 "/><polyline class="polyline" opacity="0.5" stroke="blue" points="237.45726794834647,164.72957391697193 294.166976533479,118.19540116973484 "/><polyline class="polyline" opacity="0.5" stroke="blue" points="238.26547914567215,166.11076478192345 296.4575917281082,121.11239824266022 "/><polyline class="polyline" opacity="0.5" stroke="blue" points="239.0558940588737,167.510284858722 298.6893142905658,124.06994417231212 "/><polyline class="polyline" opacity="0.5" stroke="blue" points="239.8280105852926,168.92733281922813 300.86032392586065,127.0649491728543 "/><polyline class="polyline" opacity="0.5" stroke="blue" points="240.58133889459765,170.36109164327507 302.9688890388638,130.09427047942611 "/><polyline class="polyline" opacity="0.5" stroke="blue" points="241.31540199982675,171.81072940155286 305.01337058238255,133.1547193173172 "/><polyline class="polyline" opacity="0.5" stroke="blue" points="242.02973631236367,173.27540006589024 306.9922256021865,136.24306801938138 "/><polyline class="polyline" opacity="0.5" stroke="blue" points="242.7238921795434,174.75424434537152 308.9040104630752,139.35605725899947 "/><polyline class="polyline" opacity="0.5" stroke="blue" points="243.39743440362093,176.24639054664001 310.74738374206396,142.4904033652606 "/><polyline class="polyline" opacity="0.5" stroke="blue" points="244.04994274088398,177.75095545665803 312.5211087768523,145.64280568666584 "/><polyline class="polyline" opacity="0.5" stroke="blue" points="244.68101237974236,179.26704524611958 314.22405585990924,148.8099539695493 "/><polyline class="polyline" opacity="0.5" stroke="blue" points="245.29025439668118,180.7937563916422 315.8552040707367,151.98853571757587 "/><polyline class="polyline" opacity="0.5" stroke="blue" points="245.87729618902637,182.3301766148038 317.4136427411436,155.17524349909624 "/><polyline class="polyline" opacity="0.5" stroke="blue" points="246.44178188353513,183.8753858360342 318.89857255064067,158.366782169818 "/><polyline class="polyline" opacity="0.5" stroke="blue" points="246.98337271989124,185.4284571413254 320.30930625134107,161.55987597917397 "/><polyline class="polyline" opacity="0.5" stroke="blue" points="247.50174740825892,186.98845775968257 321.6452690239972,164.751275529922 "/><polyline class="polyline" opacity="0.5" stroke="blue" points="247.99660246012212,188.55445004920742 322.9059984689976,167.93776456188087 "/><polyline class="polyline" opacity="0.5" stroke="blue" points="248.46765249171528,190.12549248968014 324.0911442382687,171.11616653227654 "/><polyline class="polyline" opacity="0.5" stroke="blue" points="248.91463049943158,191.70064067949042 325.2004673160619,174.2833509669216 "/><polyline class="polyline" opacity="0.5" stroke="blue" points="249.33728810667773,193.27894833475955 326.2338389585294,177.4362395583563 "/><polyline class="polyline" opacity="0.5" stroke="blue" points="249.7353957817287,194.85946828849578 327.19123930379925,180.5718119891252 "/><polyline class="polyline" opacity="0.5" stroke="blue" points="250.10874302622085,196.44125348763262 328.072755665921,183.6871114605163 "/><polyline class="polyline" opacity="0.5" stroke="blue" points="250.4571385340106,198.02335798581657 328.878580527578,186.77924990933664 "/><polyline class="polyline" opacity="0.5" stroke="blue" points="250.7804103202099,199.6048379298332 329.6090092478177,189.84541289760656 "/><polyline class="polyline" opacity="0.5" stroke="blue" points="251.07840582030136,201.18475253759365 330.26443750225167,192.88286416240558 "/><polyline class="polyline" opacity="0.5" stroke="blue" points="251.35099195931815,202.76216506564148 330.8453584741967,195.88894981547185 "/><polyline class="polyline" opacity="0.5" stroke="blue" points="251.59805519116543,204.33614376418626 331.35235981608525,198.8611021845182 "/><polyline class="polyline" opacity="0.5" stroke="blue" points="251.81950150824068,205.90576281772402 331.7861204011468,201.79684329056613 "/><polyline class="polyline" opacity="0.5" stroke="blue" points="252.0152564215979,207.47010326936444 332.1474068858648,204.6937879578856 "/><polyline class="polyline" opacity="0.5" stroke="blue" points="252.18526491198082,209.02825392705003 332.43707010405103,207.5496465553514 "/><polyline class="polyline" opacity="0.5" stroke="blue" points="252.32949135213028,210.5793122499261 332.65604131353774,210.36222737016695 "/><polyline class="polyline" opacity="0.5" stroke="blue" points="252.44791940084968,212.12238521319682 332.8053283165042,213.1294386169442 "/><polyline class="polyline" opacity="0.5" stroke="blue" points="252.54055186938558,213.6565901498855 332.8860114743015,215.84929008705618 "/><polyline class="polyline" opacity="0.5" stroke="blue" points="252.60741056075244,215.18105556800504 332.899239637354,218.51989444498227 "/><polyline class="polyline" opacity="0.5" stroke="blue" points="252.64853608269902,216.69492194173517 332.8462260102974,221.13946818003387 "/><polyline class="polyline" opacity="0.5" stroke="blue" points="252.66398763507758,218.19734247529888 332.7282439719627,223.7063322233765 "/><polyline class="polyline" opacity="0.5" stroke="blue" points="252.65384277243845,219.68748383832786 332.5466228691689,226.21891224164503 "/><polyline class="polyline" opacity="0.5" stroke="blue" points="252.61819714272792,221.16452687160785 332.3027438025282,228.67573861967688 "/><polyline class="polyline" opacity="0.5" stroke="blue" points="252.55716420302053,222.62766726219854 331.9980354216325,231.07544614596733 "/><polyline class="polyline" opacity="0.5" stroke="blue" points="252.4708749132642,224.07611618702543 331.6339697460725,233.416773415372 "/><polyline class="polyline" opacity="0.5" stroke="blue" points="252.3594774090596,225.5091009241484 331.21205802776933,235.69856196435754 "/><polyline class="polyline" opacity="0.5" stroke="blue" points="252.22313665453487,226.92586543101726 330.73384666907225,237.919755154724 "/><polyline class="polyline" opacity="0.5" stroke="blue" points="252.06203407640945,228.3256708891306 330.20091321001433,240.0793968222015 "/><polyline class="polyline" opacity="0.5" stroke="blue" points="251.8763671803713,229.7077962146209 329.6148623970287,242.17662970666862 "/><polyline class="polyline" opacity="0.5" stroke="blue" points="251.6663491509156,231.0715385343937 328.97732234432584,244.21069368094447 "/><polyline class="polyline" opacity="0.5" stroke="blue" points="251.43220843581338,232.4162136275526 328.2899407980212,246.1809237951948 "/><polyline class="polyline" opacity="0.5" stroke="blue" points="251.1741883163935,233.74115633194333 327.554381511999,248.08674815395622 "/><polyline class="polyline" opacity="0.5" stroke="blue" points="250.89254646483244,235.04572091575227 326.7723207434038,249.92768564264316 "/><polyline class="polyline" opacity="0.5" stroke="blue" points="250.58755448965243,236.32928141419 325.9454438745809,251.70334352016073 "/><polyline class="polyline" opacity="0.5" stroke="blue" points="250.2594974706298,237.5912319313863 325.0754421672443,253.4134148939155 "/><polyline class="polyline" opacity="0.5" stroke="blue" points="249.90867348431397,238.83098690771584 324.1640096536352,255.0576760931038 "/><polyline class="polyline" opacity="0.5" stroke="blue" points="249.53539312135007,240.04798135285975 323.2128401684719,256.63598395567396 "/><polyline class="polyline" opacity="0.5" stroke="blue" points="249.13997899678844,241.24167104499435 322.22362452455525,258.14827304381237 "/><polyline class="polyline" opacity="0.5" stroke="blue" points="248.722765254549,242.41153269657912 321.1980478340231,259.5945528022036 "/><polyline class="polyline" opacity="0.5" stroke="blue" points="248.28409706719242,243.55706408729043 320.13778697641203,260.9749046726711 "/><polyline class="polyline" opacity="0.5" stroke="blue" points="247.82433013212685,244.67778416472248 319.0445082139124,262.28947917812496 "/><polyline class="polyline" opacity="0.5" stroke="blue" points="247.34383016535563,245.77323311354158 317.9198649534784,263.53849298803465 "/><polyline class="polyline" opacity="0.5" stroke="blue" points="246.84297239384517,246.84297239384517 316.765495654792,264.7222259769148 "/><polyline class="polyline" opacity="0.5" stroke="blue" points="246.32214104755968,247.886584749534 315.583021882464,265.84101828657293 "/><polyline class="polyline" opacity="0.5" stroke="blue" points="245.78172885217964,248.90367418755977 314.37404650030527,266.89526740211414 "/><polyline class="polyline" opacity="0.5" stroke="blue" points="245.22213652348452,249.89386592895895 313.140152004998,267.88542525095176 "/><polyline class="polyline" opacity="0.5" stroke="blue" points="244.6437722643442,250.85680633262842 311.88289899605047,268.811995333325 "/><polyline class="polyline" opacity="0.5" stroke="blue" points="244.047051265225,251.79216279283645 310.6038247785256,269.675529892088 "/><polyline class="polyline" opacity="0.5" stroke="blue" points="243.4323952090762,252.69962361149746 309.3044420946901,270.4766271288139 "/><polyline class="polyline" opacity="0.5" stroke="blue" points="242.8002317814215,253.57889784626883 307.98623798043315,271.21592847255135 "/><polyline class="polyline" opacity="0.5" stroke="blue" points="242.1509941864377,254.42971513555315 306.65067274205944,271.89411590688576 "/><polyline class="polyline" opacity="0.5" stroke="blue" points="241.4851206697594,255.25182550150961 305.299179048852,272.5119093603007 "/><polyline class="polyline" opacity="0.5" stroke="blue" points="240.80305404870415,256.044999132194 303.93316113663934,273.0700641641958 "/><polyline class="polyline" opacity="0.5" stroke="blue" points="240.10524125056972,256.80902614396 302.5539941174768,273.5693685823149 "/><polyline class="polyline" opacity="0.5" stroke="blue" points="239.3921328596078,257.5437163252612 301.1630233904607,274.01064141476 "/><polyline class="polyline" opacity="0.5" stroke="blue" points="238.66418267323655,258.2488988629967 299.76156414864204,274.39472967921864 "/><polyline class="polyline" opacity="0.5" stroke="blue" points="237.92184726800778,258.92442205254554 298.35090097697935,274.7225063715189 "/><polyline class="polyline" opacity="0.5" stroke="blue" points="237.1655855758017,259.57015299262804 296.9322875362746,274.9948683071427 "/><polyline class="polyline" opacity="0.5" stroke="blue" points="236.39585847067676,260.18597726612916 295.50694632806426,275.21273404487425 "/><polyline class="polyline" opacity="0.5" stroke="blue" points="235.61312836676052,260.77179860800567 294.0760685354902,275.377041893342 "/><polyline class="polyline" opacity="0.5" stroke="blue" points="234.817858827524,261.3275385613871 292.6408139352447,275.48874800082376 "/><polyline class="polyline" opacity="0.5" stroke="blue" points="234.0105141867397,261.8531361229657 291.2023108757775,275.54882452832476 "/><polyline class="polyline" opacity="0.5" stroke="blue" points="233.19155918138497,262.34854737874855 289.7616563170541,275.55825790561244 "/><polyline class="polyline" opacity="0.5" stroke="blue" points="232.36145859670987,262.81374513122825 288.31991592727695,275.51804716959003 "/><polyline class="polyline" opacity="0.5" stroke="blue" points="231.52067692365276,263.2487185190022 286.87812423211204,275.4292023841233 "/><polyline class="polyline" opacity="0.5" stroke="blue" points="230.66967802874802,263.65347262984596 285.43728481210087,275.2927431401867 "/><polyline class="polyline" opacity="0.5" stroke="blue" points="229.8089248366356,264.0280281082214 283.9983705440915,275.10969713498133 "/><polyline class="polyline" opacity="0.5" stroke="blue" points="228.9388790252465,264.37242075816823 282.5623238826724,274.88109882847925 "/><polyline class="polyline" opacity="0.5" stroke="blue" points="228.06000073370612,264.68670114250006 281.1300571777563,274.6079881756816 "/><polyline class="polyline" opacity="0.5" stroke="blue" points="227.17274828296567,264.9709341791944 279.70245302462337,274.29140943272705 "/><polyline class="polyline" opacity="0.5" stroke="blue" points="226.27757790914183,265.2251987358326 278.2803646428974,273.93241003486014 "/><polyline class="polyline" opacity="0.5" stroke="blue" points="225.3749435095156,265.44958722291494 276.86461628109856,273.53203954416153 "/><polyline class="polyline" opacity="0.5" stroke="blue" points="224.46529640111584,265.6442051868392 275.45600364358086,273.09134866484914 "/><polyline class="polyline" opacity="0.5" stroke="blue" points="223.54908509178637,265.80917090329956 274.0552943368278,272.61138832388673 "/><polyline class="polyline" opacity="0.5" stroke="blue" points="222.626755063612,265.9446149718264 272.6632283322481,272.0932088145786 "/><polyline class="polyline" opacity="0.5" stroke="blue" points="221.69874856855733,266.0506799121525 271.2805184427713,271.5378590007821 "/><polyline class="polyline" opacity="0.5" stroke="blue" points="220.76550443614994,266.12751976305697 269.9078508107051,270.94638557934087 "/><polyline class="polyline" opacity="0.5" stroke="blue" points="219.8274578930224,266.1752996843031 268.54588540447145,270.31983239832124 "/><polyline class="polyline" opacity="0.5" stroke="blue" points="218.88504039410805,266.19419556224994 267.1952565219909,269.659239828624 "/><polyline class="polyline" opacity="0.5" stroke="blue" points="217.9386794652703,266.1843936196848 265.8565732986322,268.96564418654725 "/><polyline class="polyline" opacity="0.5" stroke="blue" points="216.98879855713014,266.14609003038856 264.5304202177875,268.24007720488237 "/><polyline class="polyline" opacity="0.5" stroke="blue" points="216.03581690984367,266.07949053891235 263.21735762227297,267.4835655501465 "/><polyline class="polyline" opacity="0.5" stroke="blue" points="215.0801494285682,265.98481008600925 261.91792222488823,266.6971303835745 "/><polyline class="polyline" opacity="0.5" stroke="blue" points="214.1222065693466,265.86227244013537 260.6326276165955,265.88178696352725 "/><polyline class="polyline" opacity="0.5" stroke="blue" points="213.16239423512818,265.71210983539873 259.3619647709044,265.0385442870075 "/><polyline class="polyline" opacity="0.5" stroke="blue" points="212.20111368163853,265.53456261630686 258.10640254316655,264.16840476801383 "/><polyline class="polyline" opacity="0.5" stroke="blue" points="211.238761432801,265.3298788896307 256.86638816359704,263.272363950509 "/><polyline class="polyline" opacity="0.5" stroke="blue" points="210.27572920540908,265.0983141836741 255.6423477229476,262.35141025382455 "/><polyline class="polyline" opacity="0.5" stroke="blue" points="209.3124038427428,264.8401311152115 254.43468664986082,261.40652474837566 "/><polyline class="polyline" opacity="0.5" stroke="blue" points="208.3491672568185,264.5555990643236 253.243790179031,260.4386809596105 "/><polyline class="polyline" opacity="0.5" stroke="blue" points="207.3863963789589,264.24499385734043 252.0700238093923,259.44884469817464 "/><polyline class="polyline" opacity="0.5" stroke="blue" points="206.42446311836852,263.9085974580705 250.9137337516422,258.4379739143251 "/><polyline class="polyline" opacity="0.5" stroke="blue" points="205.46373432839778,263.54669766747253 249.77524736449243,257.40701857468605 "/><polyline class="polyline" opacity="0.5" stroke="blue" points="204.5045717801793,263.1595878319017 248.65487357911903,256.3569205594949 "/><polyline class="polyline" opacity="0.5" stroke="blue" points="203.54733214332063,262.7475665600402 247.55290331135933,255.28861357854535 "/><polyline class="polyline" opacity="0.5" stroke="blue" points="202.59236697333796,262.3109374485995 246.4696098612724,254.20302310409207 "/><polyline class="polyline" opacity="0.5" stroke="blue" points="201.6400227055182,261.850008816862 245.4052492997493,253.10106631903813 "/><polyline class="polyline" opacity="0.5" stroke="blue" points="200.69064065489815,261.3650934501086 244.36006084192144,251.98365207878513 "/><polyline class="polyline" opacity="0.5" stroke="blue" points="199.74455702205353,260.8565083519628 243.33426720717492,250.8516808851813 "/><polyline class="polyline" opacity="0.5" stroke="blue" points="198.80210290439294,260.3245745056609 242.3280749656365,249.70604487106004 "/><polyline class="polyline" opacity="0.5" stroke="blue" points="197.86360431265672,259.7696166442444 241.34167487104844,248.54762779391612 "/><polyline class="polyline" opacity="0.5" stroke="blue" points="196.92938219232445,259.19196302965264 240.37524218000135,247.3773050373219 "/><polyline class="polyline" opacity="0.5" stroke="blue" points="195.99975244963935,258.5919452406805 239.4289369575399,246.19594361873956 "/><polyline class="polyline" opacity="0.5" stroke="blue" points="195.07502598196325,257.969897969752 238.50290436920244,245.00440220243763 "/><polyline class="polyline" opacity="0.5" stroke="blue" points="194.15550871218136,257.32615882844675 237.59727495959663,243.8035311162727 "/><polyline class="polyline" opacity="0.5" stroke="blue" points="193.24150162687994,256.6610681617045 236.71216491765372,242.5941723711472 "/><polyline class="polyline" opacity="0.5" stroke="blue" points="192.3333008180286,255.97496887062377 235.84767632874178,241.37715968200564 "/><polyline class="polyline" opacity="0.5" stroke="blue" points="191.43119752790156,255.26820624375654 235.00389741385288,240.15331848927792 "/><polyline class="polyline" opacity="0.5" stroke="blue" points="190.53547819698113,254.54112779679488 234.1809027561147,238.92346597972923 "/><polyline class="polyline" opacity="0.5" stroke="blue" points="189.646424514591,253.79408312053386 233.37875351490698,237.68841110572157 "/><polyline class="polyline" opacity="0.5" stroke="blue" points="188.76431347201424,253.02742373698865 232.59749762789502,236.44895460193837 "/><polyline class="polyline" opacity="0.5" stroke="blue" points="187.8894174178565,252.2415029635361 231.83717000132097,235.20588899866965 "/><polyline class="polyline" opacity="0.5" stroke="blue" points="187.02200411542205,251.43667578494296 231.09779268892035,233.95999863079993 "/><polyline class="polyline" opacity="0.5" stroke="blue" points="186.16233680187605,250.61329873313804 230.37937505985798,232.7120596416849 "/><polyline class="polyline" opacity="0.5" stroke="blue" points="185.3106742489734,249.77172977457994 229.6819139561023,231.46283998114706 "/><polyline class="polyline" opacity="0.5" stroke="blue" points="184.46727082513996,248.9123282050664 229.00539383968066,230.21309939686358 "/><polyline class="polyline" opacity="0.5" stroke="blue" points="183.63237655869983,248.03545455182672 228.34978693028015,228.96358941846182 "/><polyline class="polyline" opacity="0.5" stroke="blue" points="182.80623720204687,247.14147048273577 227.71505333368177,227.71505333368177 "/><polyline class="polyline" opacity="0.5" stroke="blue" points="181.98909429656604,246.23073872248324 227.10114116153454,226.46822615600558 "/><polyline class="polyline" opacity="0.5" stroke="blue" points="181.18118523811594,245.3036229755294 226.5079866429973,225.22383458319746 "/><polyline class="polyline" opacity="0.5" stroke="blue" points="180.38274334288974,244.36048785567633 225.9355142287941,223.9825969462394 "/><polyline class="polyline" opacity="0.5" stroke="blue" points="179.59399791347758,243.40169882208 225.38363668824735,222.7452231481894 "/><polyline class="polyline" opacity="0.5" stroke="blue" points="178.8151743049597,242.4276221215276 224.85225519987017,221.51241459253308 "/><polyline class="polyline" opacity="0.5" stroke="blue" points="178.04649399086475,241.43862473680346 224.3412594361157,220.28486410064 "/><polyline class="polyline" opacity="0.5" stroke="blue" points="177.2881746288333,240.43507434096307 223.8505276428962,219.06325581798143 "/><polyline class="polyline" opacity="0.5" stroke="blue" points="176.54043012583253,239.41733925733672 223.37992671450084,217.84826510880708 "/><polyline class="polyline" opacity="0.5" stroke="blue" points="175.80347070277188,238.3857884250814 222.92931226455303,216.64055843902455 "/><polyline class="polyline" opacity="0.5" stroke="blue" points="175.07750295837633,237.34079137009934 222.4985286936628,215.44079324706726 "/><polyline class="polyline" opacity="0.5" stroke="blue" points="174.36272993217753,236.28271818114112 222.0874092544408,214.24961780258442 "/><polyline class="polyline" opacity="0.5" stroke="blue" points="173.65935116648797,235.21193949091213 221.69577611455207,213.06767105282853 "/><polyline class="polyline" opacity="0.5" stroke="blue" points="172.9675627672287,234.1288264619986 221.32344041849763,211.895582456666 "/><polyline class="polyline" opacity="0.5" stroke="blue" points="172.28755746348455,233.03375077743223 220.97020234882095,210.73397180618048 "/><polyline class="polyline" opacity="0.5" stroke="blue" points="171.6195246656655,231.92708463570992 220.6358511874447,209.58344903588775 "/><polyline class="polyline" opacity="0.5" stroke="blue" points="170.96365052215745,230.80920075008737 220.32016537784904,208.4446140196289 "/><polyline class="polyline" opacity="0.5" stroke="blue" points="170.32011797434842,229.68047235196468 220.02291258880916,207.31805635525845 "/><polyline class="polyline" opacity="0.5" stroke="blue" points="169.68910680992119,228.54127319818124 219.7438497804136,206.2043551372927 "/><polyline class="polyline" opacity="0.5" stroke="blue" points="169.0707937143062,227.39197758204054 219.48272327308644,205.1040787177359 "/><polyline class="polyline" opacity="0.5" stroke="blue" points="168.46535232019244,226.23296034788197 219.23926882034013,204.01778445535155 "/><polyline class="polyline" opacity="0.5" stroke="blue" points="167.87295325499719,225.06459690902082 219.01321168598236,202.94601845370005 "/><polyline class="polyline" opacity="0.5" stroke="blue" points="167.29376418619916,223.88726326887473 218.80426672650046,201.88931528831432 "/><polyline class="polyline" opacity="0.5" stroke="blue" points="166.72794986444111,222.70133604509772 218.61213847934218,200.84819772344025 "/><polyline class="polyline" opacity="0.5" stroke="blue" points="166.17567216431394,221.50719249654145 218.4365212578051,199.8231764188204 "/><polyline class="polyline" opacity="0.5" stroke="blue" points="165.63709012273304,220.3052105528643 218.27709925324095,198.81474962705488 "/><polyline class="polyline" opacity="0.5" stroke="blue" points="165.11235997482424,219.0957688466093 218.13354664526884,197.82340288212595 "/><polyline class="polyline" opacity="0.5" stroke="blue" points="164.60163518723692,217.87924674757093 218.0055277206824,196.84960867972762 "/><polyline class="polyline" opacity="0.5" stroke="blue" points="164.10506648880434,216.65602439927207 217.89269700171852,195.89382615009546 "/><polyline class="polyline" opacity="0.5" stroke="blue" points="163.62280189847564,215.42648275737145 217.79469938434048,194.95650072408515 "/><polyline class="polyline" opacity="0.5" stroke="blue" points="163.15498675044338,214.19100362982175 217.71117028716972,194.0380637933014 "/><polyline class="polyline" opacity="0.5" stroke="blue" points="162.70176371639485,212.9499697185991 217.64173581167717,193.13893236513235 "/><polyline class="polyline" opacity="0.5" stroke="blue" points="162.26327282481708,211.7037646628227 217.58601291422272,192.25950871359467 "/><polyline class="polyline" opacity="0.5" stroke="blue" points="161.8396514772864,210.45277308308442 217.54360959050405,191.40018002694674 "/><polyline class="polyline" opacity="0.5" stroke="blue" points="161.43103446167717,209.19738062680676 217.5141250729465,190.5613180530755 "/><polyline class="polyline" opacity="0.5" stroke="blue" points="161.0375539622245,207.93797401444627 217.4971500415345,189.74327874371107 "/><polyline class="polyline" opacity="0.5" stroke="blue" points="160.65933956637926,206.67494108636 217.49226684854935,188.94640189856833 "/><polyline class="polyline" opacity="0.5" stroke="blue" points="160.29651826839455,205.40867085015023 217.49904975764193,188.1710108105593 "/><polyline class="polyline" opacity="0.5" stroke="blue" points="159.94921446958492,204.13955352830206 217.51706519762766,187.4174119132614 "/><polyline class="polyline" opacity="0.5" stroke="blue" points="159.6175499752019,202.8679806059274 217.54587203134898,186.6858944318649 "/><polyline class="polyline" opacity="0.5" stroke="blue" points="159.3016439878705,201.5943448784268 217.58502183990504,185.97673003885998 "/><polyline class="polyline" opacity="0.5" stroke="blue" points="159.0016130975343,200.31904049887976 217.63405922250018,185.2901725157554 "/><polyline class="polyline" opacity="0.5" stroke="blue" points="158.71757126785738,199.04246302497182 217.69252211211207,184.62645742215105 "/><polyline class="polyline" opacity="0.5" stroke="blue" points="158.4496298190349,197.76500946526497 217.7599421071275,183.9858017735112 "/><polyline class="polyline" opacity="0.5" stroke="blue" points="158.1978974069641,196.4870783246168 217.8358448190388,183.36840372900747 "/><polyline class="polyline" opacity="0.5" stroke="blue" points="157.96247999873185,195.2090696485504 217.91975023623596,182.77444229081703 "/><polyline class="polyline" opacity="0.5" stroke="blue" points="157.74348084437506,193.93138506637592 218.01117310386948,182.2040770162748 "/><polyline class="polyline" opacity="0.5" stroke="blue" points="157.54100044487376,192.65442783286178 218.10962331969895,181.65744774428498 "/><polyline class="polyline" opacity="0.5" stroke="blue" points="157.3551365163385,191.37860286825128 218.21460634577792,181.13467433740084 "/><polyline class="polyline" opacity="0.5" stroke="blue" points="157.18598395035582,190.1043167964187 218.32562363576122,180.6358564409785 "/><polyline class="polyline" opacity="0.5" stroke="blue" points="157.0336347704594,188.831977980954 218.44217307755528,180.16107326080163 "/><polyline class="polyline" opacity="0.5" stroke="blue" points="156.89817808469508,187.56199655896654 218.56374945096553,179.71038336056142 "/><polyline class="polyline" opacity="0.5" stroke="blue" points="156.7797000342531,186.29478447239043 218.6898448999263,179.2838244805542 "/><polyline class="polyline" opacity="0.5" stroke="blue" points="156.67828373814234,185.03075549657655 218.81994941883084,178.88141337893504 "/><polyline class="polyline" opacity="0.5" stroke="blue" points="156.59400923388503,183.77032526594988 218.95355135241184,178.503145696833 "/><polyline class="polyline" opacity="0.5" stroke="blue" points="156.5269534142139,182.51391129650878 219.09013790855332,178.14899584859427 "/><polyline class="polyline" opacity="0.5" stroke="blue" points="156.47718995975694,181.26193300494145 219.22919568334785,177.81891693837733 "/><polyline class="polyline" opacity="0.5" stroke="blue" points="156.44478926769983,180.01481172412952 219.37021119764634,177.51284070427127 "/><polyline class="polyline" opacity="0.5" stroke="blue" points="156.42981837641813,178.77297071480865 219.5126714442813,177.23067749105257 "/><polyline class="polyline" opacity="0.5" stroke="blue" points="156.43234088607738,177.5368351731503 219.65606444508163,176.97231625263225 "/><polyline class="polyline" opacity="0.5" stroke="blue" points="156.45241687520348,176.30683223402954 219.79987981673278,176.73762458517632 "/><polyline class="polyline" opacity="0.5" stroke="blue" points="156.49010281322953,175.0833909697369 219.94360934447838,176.5264487918064 "/><polyline class="polyline" opacity="0.5" stroke="blue" points="156.54545146903132,173.86694238389504 220.08674756259958,176.33861397970844 "/><polyline class="polyline" opacity="0.5" stroke="blue" points="156.61851181546885,172.6579194003325 220.22879234055628,176.17392419038856 "/><polyline class="polyline" opacity="0.5" stroke="blue" points="156.7093289299568,171.4567568466711 220.36924547362096,176.03216256372622 "/><polyline class="polyline" opacity="0.5" stroke="blue" points="156.81794389109245,170.26389143237563 220.5076132767902,175.91309153637604 "/><polyline class="polyline" opacity="0.5" stroke="blue" points="156.94439367137704,169.07976172101638 220.64340718071398,175.8164530749702 "/><polyline class="polyline" opacity="0.5" stroke="blue" points="157.08871102607154,167.90480809649313 220.77614432834412,175.7419689444675 "/><polyline class="polyline" opacity="0.5" stroke="blue" points="157.25092437823645,166.7394727229651 220.90534817096935,175.68934101188586 "/><polyline class="polyline" opacity="0.5" stroke="blue" points="157.4310577000116,165.58419949823485 221.0305490622732,175.6582515855438 "/><polyline class="polyline" opacity="0.5" stroke="blue" points="157.6291303901993,164.43943400032887 221.15128484902698,175.64836378982025 "/><polyline class="polyline" opacity="0.5" stroke="blue" points="157.84515714822382,163.30562342702146 221.26710145701176,175.65932197532533 "/><polyline class="polyline" opacity="0.5" stroke="blue" points="158.079147844547,162.18321652804465 221.3775534707476,175.69075216425574 "/><polyline class="polyline" opacity="0.5" stroke="blue" points="158.33110738762934,161.0726635297317 221.4822047056027,175.74226253058828 "/><polyline class="polyline" opacity="0.5" stroke="blue" points="158.6010355875353,159.97441605183823 221.58062877085013,175.81344391464347 "/><polyline class="polyline" opacity="0.5" stroke="blue" points="158.88892701629103,158.88892701629103 221.6724096222477,175.90387037143196 "/><polyline class="polyline" opacity="0.5" stroke="blue" points="159.19477086511222,157.81665054761328 221.75714210272275,176.01309975207514 "/><polyline class="polyline" opacity="0.5" stroke="blue" points="159.51855079863174,156.7580418647796 221.83443246976185,176.1406743174734 "/><polyline class="polyline" opacity="0.5" stroke="blue" points="159.86024480626494,155.71355716425728 221.9038989081278,176.28612138327887 "/><polyline class="polyline" opacity="0.5" stroke="blue" points="160.21982505086476,154.68365349399392 221.9651720265538,176.4489539951143 "/><polyline class="polyline" opacity="0.5" stroke="blue" points="160.59725771482772,153.66878861811603 222.01789533709953,176.62867163287035 "/><polyline class="polyline" opacity="0.5" stroke="blue" points="160.9925028438258,152.66942087211086 222.0617257158939,176.82476094280474 "/><polyline class="polyline" opacity="0.5" stroke="blue" points="161.4055141883498,151.68600900826723 222.09633384403583,177.0366964960652 "/><polyline class="polyline" opacity="0.5" stroke="blue" points="161.8362390432642,150.71901203116016 222.1214046274745,177.26394157215933 "/><polyline class="polyline" opacity="0.5" stroke="blue" points="162.28461808558512,149.76888902297299 222.13663759474943,177.50594896580313 "/><polyline class="polyline" opacity="0.5" stroke="blue" points="162.75058521070747,148.83609895845694 222.14174727153033,177.76216181549265 "/><polyline class="polyline" opacity="0.5" stroke="blue" points="163.23406736731977,147.92110050934224 222.13646353096453,178.03201445206383 "/><polyline class="polyline" opacity="0.5" stroke="blue" points="163.73498439126053,147.02435183802208 222.12053191891067,178.31493326543293 "/><polyline class="polyline" opacity="0.5" stroke="blue" points="164.2532488385832,146.14631038034625 222.09371395321187,178.6103375876439 "/><polyline class="polyline" opacity="0.5" stroke="blue" points="164.78876581811173,145.2874326173721 222.05578739623996,178.91764059029123 "/><polyline class="polyline" opacity="0.5" stroke="blue" points="165.34143282378284,144.44817383593735 222.00654650002522,179.23625019433666 "/><polyline class="polyline" opacity="0.5" stroke="blue" points="165.9111395670868,143.62898787793273 221.94580222336938,179.56556999029743 "/><polyline class="polyline" opacity="0.5" stroke="blue" points="166.49776780993253,142.8303268781714 221.87338242042748,179.90500016674807 "/><polyline class="polyline" opacity="0.5" stroke="blue" points="167.10119119827874,142.0526409907689 221.78913200033244,180.25393844505612 "/><polyline class="polyline" opacity="0.5" stroke="blue" points="167.7212750968869,141.29637810396758 221.69291305752665,180.61178101825288 "/><polyline class="polyline" opacity="0.5" stroke="blue" points="168.3578764255681,140.56198354336064 221.58460497255604,180.9779234919349 "/><polyline class="polyline" opacity="0.5" stroke="blue" points="169.01084349730993,139.84989976349158 221.46410448317295,181.35176182509227 "/><polyline class="polyline" opacity="0.5" stroke="blue" points="169.6800158586848,139.1605660278307 221.33132572568644,181.73269326876937 "/><polyline class="polyline" opacity="0.5" stroke="blue" points="170.365224132956,138.49441807715303 221.18620024658907,182.1201173004821 "/><polyline class="polyline" opacity="0.5" stroke="blue" points="171.06628986631196,137.85188778636956 221.02867698457857,182.5134365523416 "/><polyline class="polyline" opacity="0.5" stroke="blue" points="171.78302537767377,137.23340280989115 220.8587222231823,182.9120577308696 "/><polyline class="polyline" opacity="0.5" stroke="blue" points="172.51523361253456,136.639386215633 220.67631951427765,183.31539252653124 "/><polyline class="polyline" opacity="0.5" stroke="blue" points="173.26270800130294,136.0702561077988 220.4814695728864,183.7228585110618 "/><polyline class="polyline" opacity="0.5" stroke="blue" points="174.0252323226354,135.52642523861465 220.2741901437017,184.13388002071915 "/><polyline class="polyline" opacity="0.5" stroke="blue" points="174.80258057225518,135.0083006092164 220.05451583988497,184.54788902365786 "/><polyline class="polyline" opacity="0.5" stroke="blue" points="175.59451683776626,134.51628305992858 219.8224979547442,184.96432596968828 "/><polyline class="polyline" opacity="0.5" stroke="blue" points="176.40079517998217,134.05076685020745 219.5782042469761,185.3826406207601 "/><polyline class="polyline" opacity="0.5" stroke="blue" points="177.22115952129963,133.61213922856 219.32171870022123,185.8022928605886 "/><polyline class="polyline" opacity="0.5" stroke="blue" points="178.05534354165516,133.20077999278598 219.05314125774268,186.22275348192684 "/><polyline class="polyline" opacity="0.5" stroke="blue" points="178.90307058261214,132.8170610409312 218.7725875330979,186.643504950075 "/><polyline class="polyline" opacity="0.5" stroke="blue" points="179.76405356013032,132.4613459133792 218.48018849772407,187.06404214131 "/><polyline class="polyline" opacity="0.5" stroke="blue" points="180.637994886579,132.13398932655008 218.17609014640678,187.48387305501353 "/><polyline class="polyline" opacity="0.5" stroke="blue" points="181.52458640255466,131.83533669871662 217.86045314164318,187.9025194983728 "/><polyline class="polyline" opacity="0.5" stroke="blue" points="182.42350931907146,131.56572366849105 217.53345243794868,188.3195177426289 "/><polyline class="polyline" opacity="0.5" stroke="blue" points="183.3344341706901,131.32547560657835 217.195276887188,188.7344191499448 "/><polyline class="polyline" opacity="0.5" stroke="blue" points="184.25702078015362,131.11490712143558 216.84612882603818,189.14679077006883 "/><polyline class="polyline" opacity="0.5" stroke="blue" points="185.19091823509362,130.93432155952166 216.48622364671303,189.55621590606654 "/><polyline class="polyline" opacity="0.5" stroke="blue" points="186.1357648773692,130.78401050086524 216.11578935209303,189.96229464849714 "/><polyline class="polyline" opacity="0.5" stroke="blue" points="187.09118830559288,130.66425325072242 215.73506609641868,190.36464437750698 "/><polyline class="polyline" opacity="0.5" stroke="blue" points="188.05680539139135,130.57531632814158 215.34430571270735,190.76290023241197 "/><polyline class="polyline" opacity="0.5" stroke="blue" points="189.0322223099384,130.51745295229438 214.9437712280586,191.15671554843468 "/><polyline class="polyline" opacity="0.5" stroke="blue" points="190.01703458528544,130.4909025274765 214.53373636800558,191.54576226035653 "/><polyline class="polyline" opacity="0.5" stroke="blue" points="191.01082715100046,130.49589012772475 214.1144850510646,191.92973127293357 "/><polyline class="polyline" opacity="0.5" stroke="blue" points="192.0131744266103,130.5326259820365 213.68631087461986,192.30833279801323 "/><polyline class="polyline" opacity="0.5" stroke="blue" points="193.02364041032104,130.60130496122082 213.24951659326524,192.6812966583713 "/><polyline class="polyline" opacity="0.5" stroke="blue" points="194.041778788471,130.7021060674477 212.80441359070284,193.04837255836804 "/><polyline class="polyline" opacity="0.5" stroke="blue" points="195.06713306214638,130.83519192760068 212.35132134627366,193.40933032159776 "/><polyline class="polyline" opacity="0.5" stroke="blue" points="196.09923669136296,131.00070829157235 211.89056689716872,193.7639600957766 "/><polyline class="polyline" opacity="0.5" stroke="blue" points="197.13761325718906,131.1987835366783 211.4224842973364,194.1120725251792 "/><polyline class="polyline" opacity="0.5" stroke="blue" points="198.18177664215247,131.42952817939351 210.94741407406923,194.4534988909962 "/><polyline class="polyline" opacity="0.5" stroke="blue" points="199.23123122924187,131.69303439564715 210.4657026832159,194.7880912200405 "/><polyline class="polyline" opacity="0.5" stroke="blue" points="200.28547211977377,131.9893755509347 209.97770196392668,195.11572236228218 "/><polyline class="polyline" opacity="0.5" stroke="blue" points="201.34398537036088,132.3186057415322 209.48376859379823,195.43628603773598 "/><polyline class="polyline" opacity="0.5" stroke="blue" points="202.40624824917225,132.6807593481143 208.98426354524378,195.74969685326874 "/><polyline class="polyline" opacity="0.5" stroke="blue" points="203.47172951163523,133.07585060309705 208.47955154386875,196.0558902899275 "/><polyline class="polyline" opacity="0.5" stroke="blue" points="204.5398896956804,133.50387317303517 207.9700005295896,196.35482266142037 "/><polyline class="polyline" opacity="0.5" stroke="blue" points="205.61018143658407,133.96479975741605 207.45598112118597,196.64647104440806 "/><polyline class="polyline" opacity="0.5" stroke="blue" points="206.682049801411,134.45858170519244 206.9378660849328,196.9308331812834 "/><polyline class="polyline" opacity="0.5" stroke="blue" points="207.7549326430081,134.98514865040022 206.4160298079117,197.20792735613233 "/><polyline class="polyline" opacity="0.5" stroke="blue" points="208.8282609734455,135.5444081681983 205.89084777655455,197.47779224458083 "/><polyline class="polyline" opacity="0.5" stroke="blue" points="209.90145935674428,136.13624545266188 205.3626960609288,197.74048673823737 "/><polyline class="polyline" opacity="0.5" stroke="blue" points="210.9739463206736,136.76052301764304 204.83195080522643,197.9960897444433 "/><polyline class="polyline" opacity="0.5" stroke="blue" points="212.0451347873392,137.41708042199434 204.2989877248764,198.24469996204098 "/><polyline class="polyline" opacity="0.5" stroke="blue" points="213.11443252222688,138.10573402042573 203.764181610656,198.48643563386238 "/><polyline class="polyline" opacity="0.5" stroke="blue" points="214.18124260130062,138.82627674123438 203.2279058401354,198.7214342766318 "/><polyline class="polyline" opacity="0.5" stroke="blue" points="215.2449638956964,139.5784778921127 202.6905318967486,198.9498523889618 "/><polyline class="polyline" opacity="0.5" stroke="blue" points="216.30499157348578,140.36208299519666 202.15242889674562,199.17186513810515 "/><polyline class="polyline" opacity="0.5" stroke="blue" points="217.3607176179254,141.1768136524724 201.61396312424307,199.38766602610573 "/><polyline class="polyline" opacity="0.5" stroke="blue" points="218.41153136154117,142.0223674426041 201.07549757455618,199.59746653596855 "/><polyline class="polyline" opacity="0.5" stroke="blue" points="219.4568200353376,142.89841785019146 200.5373915059601,199.80149575844482 "/><polyline class="polyline" opacity="0.5" stroke="blue" points="220.4959693323569,143.80461422840003 200.0,200.0 "/><polyline class="polyline" opacity="0.5" stroke="blue" points="221.5283639847553,144.74058179584034 199.4636735304385,200.1932423725056 "/><polyline class="polyline" opacity="0.5" stroke="blue" points="222.5533883535017,145.70592166849912 198.9287575409037,200.38150236516364 "/><polyline class="polyline" opacity="0.5" stroke="blue" points="223.57042702974596,146.7002109274449 198.39559203127746,200.56507539914207 "/><polyline class="polyline" opacity="0.5" stroke="blue" points="224.57886544684933,147.72300272295115 197.8645111528412,200.74427236536786 "/><polyline class="polyline" opacity="0.5" stroke="blue" points="225.57809050201288,148.77382641558825 197.33584281217884,200.91941914588995 "/><polyline class="polyline" opacity="0.5" stroke="blue" points="226.56749118638996,149.85218775474704 196.80990828381908,201.0908561191928 "/><polyline class="polyline" opacity="0.5" stroke="blue" points="227.5464592225181,150.95756909495768 196.28702183158754,201.2589376498069 "/><polyline class="polyline" opacity="0.5" stroke="blue" points="228.5143897078616,152.08942965027063 195.76749033862592,201.42403156253127 "/><polyline class="polyline" opacity="0.5" stroke="blue" points="229.47068176321045,153.2472057868606 195.25161294602972,201.58651860154916 "/><polyline class="polyline" opacity="0.5" stroke="blue" points="230.41473918464607,154.43031135391135 194.73968070004886,201.74679187468854 "/><polyline class="polyline" opacity="0.5" stroke="blue" points="231.34597109774487,155.63813805272775 194.231976207793,201.90525628304846 "/><polyline class="polyline" opacity="0.5" stroke="blue" points="232.26379261266356,156.87005584391383 193.7287733013839,202.06232793618324 "/><polyline class="polyline" opacity="0.5" stroke="blue" points="233.16762547872065,158.1254133923396 193.23033671049873,202.21843355301135 "/><polyline class="polyline" opacity="0.5" stroke="blue" points="234.05689873706768,159.40353854951087 192.7369217432532,202.3740098485896 "/><polyline class="polyline" opacity="0.5" stroke="blue" points="234.9310493700271,160.70373887283696 192.2487739753816,202.52950290687198 "/><polyline class="polyline" opacity="0.5" stroke="blue" points="235.78952294565946,162.02530218118133 191.76612894768002,202.6853675395528 "/><polyline class="polyline" opacity="0.5" stroke="blue" points="236.63177425611832,163.36749714596402 191.28921187169115,202.84206663107625 "/><polyline class="polyline" opacity="0.5" stroke="blue" points="237.45726794834638,164.72957391697184 190.81823734362456,203.0000704698813 "/><polyline class="polyline" opacity="0.5" stroke="blue" points="238.2654791456721,166.11076478192336 190.35340906652158,203.15985606594074 "/><polyline class="polyline" opacity="0.5" stroke="blue" points="239.05589405887366,167.51028485872192 189.8949195806949,203.3219064546445 "/><polyline class="polyline" opacity="0.5" stroke="blue" points="239.82801058529256,168.92733281922807 189.44295000249133,203.48670998707684 "/><polyline class="polyline" opacity="0.5" stroke="blue" points="240.5813388945976,170.36109164327502 188.99766977145083,203.6547596067351 "/><polyline class="polyline" opacity="0.5" stroke="blue" points="241.31540199982675,171.81072940155278 188.5592364059586,203.82655211274474 "/><polyline class="polyline" opacity="0.5" stroke="blue" points="242.02973631236364,173.27540006589015 188.12779526751322,204.00258740963264 "/><polyline class="polyline" opacity="0.5" stroke="blue" points="242.7238921795434,174.75424434537146 187.7034793337611,204.18336774373626 "/><polyline class="polyline" opacity="0.5" stroke="blue" points="243.39743440362088,176.24639054663993 187.28640898047718,204.36939692634283 "/><polyline class="polyline" opacity="0.5" stroke="blue" points="244.04994274088398,177.75095545665798 186.87669177270053,204.56117954367687 "/><polyline class="polyline" opacity="0.5" stroke="blue" points="244.68101237974233,179.26704524611947 186.47442226526636,204.75922015388153 "/><polyline class="polyline" opacity="0.5" stroke="blue" points="245.2902543966811,180.79375639164212 186.07968181300558,204.96402247117268 "/><polyline class="polyline" opacity="0.5" stroke="blue" points="245.87729618902634,182.33017661480375 185.69253839091755,205.17608853738204 "/><polyline class="polyline" opacity="0.5" stroke="blue" points="246.4417818835351,183.87538583603407 185.31304642465312,205.39591788114873 "/><polyline class="polyline" opacity="0.5" stroke="blue" points="246.98337271989124,185.4284571413253 184.94124663167844,205.62400666506647 "/><polyline class="polyline" opacity="0.5" stroke="blue" points="247.5017474082589,186.98845775968246 184.5771658735234,205.8608468211474 "/><polyline class="polyline" opacity="0.5" stroke="blue" points="247.99660246012212,188.55445004920733 184.22081701955105,206.10692517502056 "/><polyline class="polyline" opacity="0.5" stroke="blue" points="248.46765249171526,190.12549248968003 183.87219882271623,206.36272255934728 "/><polyline class="polyline" opacity="0.5" stroke="blue" points="248.91463049943158,191.70064067949033 183.531295807814,206.628712917003 "/><polyline class="polyline" opacity="0.5" stroke="blue" points="249.33728810667773,193.27894833475946 183.198078172748,206.90536239464862 "/><polyline class="polyline" opacity="0.5" stroke="blue" points="249.73539578172864,194.85946828849572 182.8725017033792,207.19312842739114 "/><polyline class="polyline" opacity="0.5" stroke="blue" points="250.10874302622085,196.44125348763257 182.5545077025418,207.49245881531618 "/><polyline class="polyline" opacity="0.5" stroke="blue" points="250.45713853401057,198.02335798581652 182.24402293384054,207.80379079276042 "/><polyline class="polyline" opacity="0.5" stroke="blue" points="250.7804103202099,199.60483792983308 181.94095958086598,208.12755009128188 "/><polyline class="polyline" opacity="0.5" stroke="blue" points="251.07840582030133,201.1847525375936 181.64521522248657,208.46414999738082 "/><polyline class="polyline" opacity="0.5" stroke="blue" points="251.35099195931815,202.76216506564143 181.35667282489499,208.81399040611913 "/><polyline class="polyline" opacity="0.5" stroke="blue" points="251.59805519116543,204.33614376418615 181.07520075110074,209.17745687188764 "/><polyline class="polyline" opacity="0.5" stroke="blue" points="251.81950150824065,205.90576281772397 180.80065278857575,209.5549196576713 "/><polyline class="polyline" opacity="0.5" stroke="blue" points="252.0152564215979,207.47010326936436 180.5328681957655,209.94673278426748 "/><polyline class="polyline" opacity="0.5" stroke="blue" points="252.18526491198082,209.02825392704995 180.27167176818622,210.3532330810175 "/><polyline class="polyline" opacity="0.5" stroke="blue" points="252.32949135213025,210.579312249926 180.01687392482668,210.77473923971735 "/><polyline class="polyline" opacity="0.5" stroke="blue" points="252.44791940084966,212.12238521319676 179.76827081557184,211.21155087348095 "/><polyline class="polyline" opacity="0.5" stroke="blue" points="252.54055186938558,213.6565901498854 179.5256444503555,211.66394758243374 "/><polyline class="polyline" opacity="0.5" stroke="blue" points="252.60741056075244,215.18105556800495 179.2887628507367,212.13218802822018 "/><polyline class="polyline" opacity="0.5" stroke="blue" points="252.648536082699,216.69492194173506 179.05738022457635,212.61650901941084 "/><polyline class="polyline" opacity="0.5" stroke="blue" points="252.66398763507758,218.19734247529883 178.83123716446497,213.11712460999416 "/><polyline class="polyline" opacity="0.5" stroke="blue" points="252.65384277243845,219.68748383832775 178.6100608705257,213.63422521323503 "/><polyline class="polyline" opacity="0.5" stroke="blue" points="252.61819714272792,221.1645268716078 178.39356539817874,214.16797673327318 "/><polyline class="polyline" opacity="0.5" stroke="blue" points="252.55716420302053,222.62766726219846 178.18145193141368,214.7185197169216 "/><polyline class="polyline" opacity="0.5" stroke="blue" points="252.4708749132642,224.07611618702532 177.97340908206843,215.28596852820408 "/><polyline class="polyline" opacity="0.5" stroke="blue" points="252.3594774090596,225.50910092414833 177.7691132155602,215.8704105482454 "/><polyline class="polyline" opacity="0.5" stroke="blue" points="252.22313665453487,226.92586543101717 177.56822880345436,216.47190540319056 "/><polyline class="polyline" opacity="0.5" stroke="blue" points="252.06203407640945,228.32567088913052 177.3704088031913,217.0904842228877 "/><polyline class="polyline" opacity="0.5" stroke="blue" points="251.8763671803713,229.70779621462077 177.1752950652199,217.72614893311174 "/><polyline class="polyline" opacity="0.5" stroke="blue" points="251.6663491509156,231.07153853439368 176.98251876770735,218.37887158414384 "/><polyline class="polyline" opacity="0.5" stroke="blue" points="251.43220843581338,232.4162136275525 176.7917008789139,219.0485937185423 "/><polyline class="polyline" opacity="0.5" stroke="blue" points="251.1741883163935,233.74115633194327 176.60245264722784,219.73522578095273 "/><polyline class="polyline" opacity="0.5" stroke="blue" points="250.89254646483246,235.0457209157522 176.41437611876532,220.43864657279983 "/><polyline class="polyline" opacity="0.5" stroke="blue" points="250.58755448965243,236.32928141418992 176.22706468233676,221.1587027546884 "/><polyline class="polyline" opacity="0.5" stroke="blue" points="250.25949747062987,237.59123193138623 176.04010364147808,221.89520839930634 "/><polyline class="polyline" opacity="0.5" stroke="blue" points="249.90867348431402,238.8309869077158 175.85307081313573,222.64794459757584 "/><polyline class="polyline" opacity="0.5" stroke="blue" points="249.53539312135013,240.04798135285967 175.66553715248205,223.41665912073353 "/><polyline class="polyline" opacity="0.5" stroke="blue" points="249.13997899678844,241.24167104499435 175.47706740321937,224.20106614094055 "/><polyline class="polyline" opacity="0.5" stroke="blue" points="248.72276525454902,242.41153269657906 175.28722077261457,225.0008460129244 "/><polyline class="polyline" opacity="0.5" stroke="blue" points="248.28409706719248,243.55706408729037 175.09555163038246,225.81564511903952 "/><polyline class="polyline" opacity="0.5" stroke="blue" points="247.82433013212687,244.67778416472242 174.9016102304145,226.64507578000143 "/><polyline class="polyline" opacity="0.5" stroke="blue" points="247.34383016535566,245.7732331135415 174.7049434542257,227.48871623339718 "/><polyline class="polyline" opacity="0.5" stroke="blue" points="246.84297239384517,246.84297239384517 174.5050955748688,228.34611068190952 "/><polyline class="polyline" opacity="0.5" stroke="blue" points="246.3221410475597,247.88658474953394 174.3016090399416,229.21676941300555 "/><polyline class="polyline" opacity="0.5" stroke="blue" points="245.78172885217964,248.90367418755972 174.09402527219422,230.10016899164086 "/><polyline class="polyline" opacity="0.5" stroke="blue" points="245.22213652348455,249.89386592895886 173.88188548612086,230.99575252730995 "/><polyline class="polyline" opacity="0.5" stroke="blue" points="244.64377226434422,250.85680633262837 173.6647315188096,231.90293001654496 "/><polyline class="polyline" opacity="0.5" stroke="blue" points="244.04705126522504,251.7921627928364 173.4421066732098,232.82107876171227 "/><polyline class="polyline" opacity="0.5" stroke="blue" points="243.43239520907622,252.6996236114974 173.2135565718725,233.7495438666995 "/><polyline class="polyline" opacity="0.5" stroke="blue" points="242.80023178142153,253.5788978462688 172.97863001911912,234.68763880980856 "/><polyline class="polyline" opacity="0.5" stroke="blue" points="242.1509941864377,254.42971513555315 172.73687986950216,235.6346460938889 "/><polyline class="polyline" opacity="0.5" stroke="blue" points="241.48512066975934,255.25182550150964 172.48786390033493,236.58981797344774 "/><polyline class="polyline" opacity="0.5" stroke="blue" points="240.80305404870418,256.044999132194 172.2311456859944,237.55237725817358 "/><polyline class="polyline" opacity="0.5" stroke="blue" points="240.10524125056972,256.80902614396 171.9662954716315,238.52151819200077 "/><polyline class="polyline" opacity="0.5" stroke="blue" points="239.39213285960778,257.5437163252612 171.69289104387033,239.49640740652694 "/><polyline class="polyline" opacity="0.5" stroke="blue" points="238.66418267323655,258.2488988629966 171.41051859602948,240.47618494728295 "/><polyline class="polyline" opacity="0.5" stroke="blue" points="237.9218472680078,258.9244220525455 171.1187735853675,241.45996537103605 "/><polyline class="polyline" opacity="0.5" stroke="blue" points="237.1655855758017,259.57015299262804 170.81726157983204,242.44683891199077 "/><polyline class="polyline" opacity="0.5" stroke="blue" points="236.39585847067673,260.1859772661292 170.50559909178304,243.4358727144445 "/><polyline class="polyline" opacity="0.5" stroke="blue" points="235.61312836676058,260.77179860800567 170.1834143961654,244.42611212914377 "/><polyline class="polyline" opacity="0.5" stroke="blue" points="234.81785882752402,261.3275385613871 169.85034833062355,245.41658207029346 "/><polyline class="polyline" opacity="0.5" stroke="blue" points="234.0105141867397,261.8531361229657 169.5060550750813,246.4062884298798 "/><polyline class="polyline" opacity="0.5" stroke="blue" points="233.19155918138497,262.34854737874855 169.15020290835514,247.3942195456949 "/><polyline class="polyline" opacity="0.5" stroke="blue" points="232.36145859670992,262.8137451312283 168.78247493942717,248.3793477191865 "/><polyline class="polyline" opacity="0.5" stroke="blue" points="231.52067692365276,263.2487185190022 168.40256981107484,249.3606307790125 "/><polyline class="polyline" opacity="0.5" stroke="blue" points="230.66967802874802,263.65347262984596 168.01020237364122,250.3370136859511 "/><polyline class="polyline" opacity="0.5" stroke="blue" points="229.80892483663558,264.0280281082214 167.60510432682366,251.30743017461185 "/><polyline class="polyline" opacity="0.5" stroke="blue" points="228.93887902524654,264.37242075816823 167.1870248274726,252.27080442720393 "/><polyline class="polyline" opacity="0.5" stroke="blue" points="228.06000073370612,264.6867011425001 166.75573106151037,253.22605277445768 "/><polyline class="polyline" opacity="0.5" stroke="blue" points="227.17274828296564,264.9709341791944 166.31100877821527,254.17208541865446 "/><polyline class="polyline" opacity="0.5" stroke="blue" points="226.27757790914188,265.2251987358326 165.852662785257,255.10780817360805 "/><polyline class="polyline" opacity="0.5" stroke="blue" points="225.37494350951562,265.4495872229149 165.38051740302404,256.03212421635476 "/><polyline class="polyline" opacity="0.5" stroke="blue" points="224.46529640111586,265.6442051868392 164.89441687694313,256.94393584524624 "/><polyline class="polyline" opacity="0.5" stroke="blue" points="223.54908509178634,265.80917090329956 164.39422574666008,257.8421462391133 "/><polyline class="polyline" opacity="0.5" stroke="blue" points="222.62675506361205,265.9446149718264 163.87982917112646,258.72566121215823 "/><polyline class="polyline" opacity="0.5" stroke="blue" points="221.69874856855733,266.0506799121525 163.3511332088153,259.59339095926475 "/><polyline class="polyline" opacity="0.5" stroke="blue" points="220.76550443614994,266.12751976305697 162.8080650524761,260.4442517864603 "/><polyline class="polyline" opacity="0.5" stroke="blue" points="219.82745789302237,266.1752996843031 162.25057321802294,261.2771678213504 "/><polyline class="polyline" opacity="0.5" stroke="blue" points="218.8850403941081,266.19419556225 161.6786276873406,262.09107269845043 "/><polyline class="polyline" opacity="0.5" stroke="blue" points="217.9386794652703,266.1843936196848 161.09222000498232,262.88491121447163 "/><polyline class="polyline" opacity="0.5" stroke="blue" points="216.9887985571301,266.14609003038856 160.49136332892027,263.6576409487796 "/><polyline class="polyline" opacity="0.5" stroke="blue" points="216.0358169098437,266.07949053891235 159.87609243569577,264.4082338444234 "/><polyline class="polyline" opacity="0.5" stroke="blue" points="215.08014942856826,265.98481008600925 159.24646368050014,265.13567774534096 "/><polyline class="polyline" opacity="0.5" stroke="blue" points="214.1222065693466,265.86227244013537 158.60255491289445,265.8389778855696 "/><polyline class="polyline" opacity="0.5" stroke="blue" points="213.16239423512818,265.71210983539873 157.9444653490488,266.5171583265395 "/><polyline class="polyline" opacity="0.5" stroke="blue" points="212.2011136816386,265.5345626163069 157.2723154015483,267.1692633387882 "/><polyline class="polyline" opacity="0.5" stroke="blue" points="211.23876143280103,265.32987888963066 156.58624646797156,267.79435872471294 "/><polyline class="polyline" opacity="0.5" stroke="blue" points="210.27572920540908,265.0983141836741 155.8864206795967,268.39153307927234 "/><polyline class="polyline" opacity="0.5" stroke="blue" points="209.3124038427428,264.8401311152115 155.17302061173024,268.95989898584867 "/><polyline class="polyline" opacity="0.5" stroke="blue" points="208.34916725681853,264.5555990643236 154.44624895728512,269.4985941447973 "/><polyline class="polyline" opacity="0.5" stroke="blue" points="207.38639637895892,264.24499385734043 153.70632816535354,270.00678243252884 "/><polyline class="polyline" opacity="0.5" stroke="blue" points="206.4244631183685,263.9085974580705 152.95350004662856,270.4836548892937 "/><polyline class="polyline" opacity="0.5" stroke="blue" points="205.46373432839772,263.54669766747253 152.18802534762466,270.92843063416655 "/><polyline class="polyline" opacity="0.5" stroke="blue" points="204.50457178017933,263.1595878319017 151.41018329573234,271.3403577060563 "/><polyline class="polyline" opacity="0.5" stroke="blue" points="203.54733214332063,262.7475665600402 150.62027111721397,271.7187138298923 "/><polyline class="polyline" opacity="0.5" stroke="blue" points="202.59236697333796,262.3109374485995 149.81860353030848,272.0628071074618 "/><polyline class="polyline" opacity="0.5" stroke="blue" points="201.64002270551825,261.850008816862 149.00551221565783,272.3719766326894 "/><polyline class="polyline" opacity="0.5" stroke="blue" points="200.69064065489817,261.3650934501086 148.1813452663052,272.6455930314603 "/><polyline class="polyline" opacity="0.5" stroke="blue" points="199.74455702205356,260.85650835196276 147.34646661953747,272.88305892639005 "/><polyline class="polyline" opacity="0.5" stroke="blue" points="198.8021029043929,260.3245745056609 146.5012554728524,273.0838093272321 "/><polyline class="polyline" opacity="0.5" stroke="blue" points="197.86360431265678,259.7696166442445 145.64610568633387,273.2473119478951 "/><polyline class="polyline" opacity="0.5" stroke="blue" points="196.92938219232448,259.19196302965264 144.78142517370196,273.3730674513062 "/><polyline class="polyline" opacity="0.5" stroke="blue" points="195.99975244963935,258.5919452406805 143.9076352842869,273.4606096236042 "/><polyline class="polyline" opacity="0.5" stroke="blue" points="195.07502598196325,257.969897969752 143.02517017813528,273.50950547938703 "/><polyline class="polyline" opacity="0.5" stroke="blue" points="194.1555087121814,257.32615882844675 142.13447619642076,273.51935529995046 "/><polyline class="polyline" opacity="0.5" stroke="blue" points="193.24150162687997,256.6610681617045 141.23601122927454,273.4897926066616 "/><polyline class="polyline" opacity="0.5" stroke="blue" points="192.3333008180286,255.97496887062374 140.3302440830933,273.42048407179146 "/><polyline class="polyline" opacity="0.5" stroke="blue" points="191.43119752790153,255.26820624375654 139.41765384931108,273.31112936929935 "/><polyline class="polyline" opacity="0.5" stroke="blue" points="190.53547819698116,254.54112779679494 138.498729276549,273.1614609682086 "/><polyline class="polyline" opacity="0.5" stroke="blue" points="189.64642451459102,253.79408312053386 137.57396814797357,272.9712438713437 "/><polyline class="polyline" opacity="0.5" stroke="blue" points="188.7643134720142,253.02742373698865 136.6438766656086,272.7402753023114 "/><polyline class="polyline" opacity="0.5" stroke="blue" points="187.88941741785652,252.24150296353616 135.7089688432518,272.46838434370017 "/><polyline class="polyline" opacity="0.5" stroke="blue" points="187.02200411542208,251.436675784943 134.76976590955474,272.1554315295516 "/><polyline class="polyline" opacity="0.5" stroke="blue" points="186.16233680187608,250.61329873313804 133.82679572272292,271.8013083952137 "/><polyline class="polyline" opacity="0.5" stroke="blue" points="185.31067424897338,249.77172977457994 132.88059219819306,271.40593698773006 "/><polyline class="polyline" opacity="0.5" stroke="blue" points="184.46727082514002,248.91232820506644 131.93169475054037,270.96926933994456 "/><polyline class="polyline" opacity="0.5" stroke="blue" points="183.63237655869986,248.03545455182675 130.9806477507648,270.49128691151157 "/><polyline class="polyline" opacity="0.5" stroke="blue" points="182.80623720204687,247.14147048273577 130.02800000000002,269.972 "/><polyline class="polyline" opacity="0.5" stroke="blue" points="181.989094296566,246.23073872248318 129.0743042205838,269.41144712525755 "/><polyline class="polyline" opacity="0.5" stroke="blue" points="181.18118523811597,245.30362297552944 128.1201165653239,268.8096943901763 "/><polyline class="polyline" opacity="0.5" stroke="blue" points="180.38274334288977,244.36048785567635 127.16599614569087,268.1668348209532 "/><polyline class="polyline" opacity="0.5" stroke="blue" points="179.59399791347758,243.40169882207996 126.21250457956774,267.482987689889 "/><polyline class="polyline" opacity="0.5" stroke="blue" points="178.81517430495967,242.42762212152758 125.26020555908623,266.75829782370033 "/><polyline class="polyline" opacity="0.5" stroke="blue" points="178.04649399086475,241.4386247368035 124.30966443898288,265.99293490025275 "/><polyline class="polyline" opacity="0.5" stroke="blue" points="177.2881746288333,240.43507434096307 123.36144784581332,265.18709273653315 "/><polyline class="polyline" opacity="0.5" stroke="blue" points="176.54043012583253,239.4173392573367 122.41612330827446,264.34098857059814 "/><polyline class="polyline" opacity="0.5" stroke="blue" points="175.8034707027719,238.38578842508144 121.47425890879175,263.4548623401329 "/><polyline class="polyline" opacity="0.5" stroke="blue" points="175.07750295837639,237.34079137009934 120.53642295644995,262.5289759601583 "/><polyline class="polyline" opacity="0.5" stroke="blue" points="174.36272993217753,236.28271818114115 119.60318368126227,261.5636126023175 "/><polyline class="polyline" opacity="0.5" stroke="blue" points="173.65935116648797,235.21193949091213 118.67510894969658,260.5590759780605 "/><polyline class="polyline" opacity="0.5" stroke="blue" points="172.96756276722874,234.12882646199867 117.75276600130728,259.51568962793624 "/><polyline class="polyline" opacity="0.5" stroke="blue" points="172.28755746348457,233.03375077743226 116.83672120624907,258.4337962190857 "/><polyline class="polyline" opacity="0.5" stroke="blue" points="171.6195246656655,231.9270846357099 115.92753984339066,257.3137568529115 "/><polyline class="polyline" opacity="0.5" stroke="blue" points="170.96365052215742,230.80920075008737 115.02578589868018,256.15595038478403 "/><polyline class="polyline" opacity="0.5" stroke="blue" points="170.32011797434845,229.6804723519647 114.13202188336254,254.96077275752697 "/><polyline class="polyline" opacity="0.5" stroke="blue" points="169.68910680992119,228.54127319818127 113.2468086715958,253.72863635030524 "/><polyline class="polyline" opacity="0.5" stroke="blue" points="169.0707937143062,227.3919775820405 112.37070535696667,252.45996934442718 "/><polyline class="polyline" opacity="0.5" stroke="blue" points="168.46535232019238,226.23296034788194 111.50426912735844,251.15521510745288 "/><polyline class="polyline" opacity="0.5" stroke="blue" points="167.87295325499724,225.06459690902085 110.64805515758952,249.81483159689174 "/><polyline class="polyline" opacity="0.5" stroke="blue" points="167.29376418619916,223.88726326887473 109.80261651919925,248.43929078465953 "/><polyline class="polyline" opacity="0.5" stroke="blue" points="166.72794986444111,222.70133604509772 108.96850410672823,247.0290781033606 "/><polyline class="polyline" opacity="0.5" stroke="blue" points="166.175672164314,221.5071924965415 108.1462665798087,245.58469191535067 "/><polyline class="polyline" opacity="0.5" stroke="blue" points="165.63709012273304,220.30521055286437 107.33645032035476,244.10664300543908 "/><polyline class="polyline" opacity="0.5" stroke="blue" points="165.11235997482424,219.09576884660933 106.53959940411848,242.59545409798935 "/><polyline class="polyline" opacity="0.5" stroke="blue" points="164.6016351872369,217.8792467475709 105.75625558585733,241.05165939908034 "/><polyline class="polyline" opacity="0.5" stroke="blue" points="164.10506648880437,216.65602439927216 104.9869582973389,239.47580416430156 "/><polyline class="polyline" opacity="0.5" stroke="blue" points="163.62280189847567,215.42648275737145 104.23224465739531,237.86844429266745 "/><polyline class="polyline" opacity="0.5" stroke="blue" points="163.15498675044338,214.19100362982175 103.49264949322341,236.23014594705373 "/><polyline class="polyline" opacity="0.5" stroke="blue" points="162.70176371639482,212.94996971859908 102.76870537211667,234.56148520147553 "/><polyline class="polyline" opacity="0.5" stroke="blue" points="162.26327282481708,211.70376466282272 102.06094264280452,232.86304771545582 "/><polyline class="polyline" opacity="0.5" stroke="blue" points="161.83965147728642,210.45277308308445 101.36988948556535,231.13542843565602 "/><polyline class="polyline" opacity="0.5" stroke="blue" points="161.43103446167717,209.19738062680676 100.69607197027428,229.37923132487742 "/><polyline class="polyline" opacity="0.5" stroke="blue" points="161.0375539622245,207.93797401444633 100.04001412153913,227.5950691184708 "/><polyline class="polyline" opacity="0.5" stroke="blue" points="160.6593395663793,206.67494108636006 99.40223799007346,225.78356310813615 "/><polyline class="polyline" opacity="0.5" stroke="blue" points="160.29651826839455,205.40867085015023 98.78326372945317,223.94534295303458 "/><polyline class="polyline" opacity="0.5" stroke="blue" points="159.94921446958494,204.13955352830203 98.18360967739721,222.0810465180771 "/><polyline class="polyline" opacity="0.5" stroke="blue" points="159.61754997520194,202.86798060592744 97.60379244071208,220.19131973920804 "/><polyline class="polyline" opacity="0.5" stroke="blue" points="159.30164398787053,201.59434487842682 97.04432698303607,218.2768165154474 "/><polyline class="polyline" opacity="0.5" stroke="blue" points="159.0016130975343,200.3190404988798 96.50572671451829,216.3381986274156 "/><polyline class="polyline" opacity="0.5" stroke="blue" points="158.71757126785735,199.0424630249718 95.98850358256247,214.37613568201357 "/><polyline class="polyline" opacity="0.5" stroke="blue" points="158.4496298190349,197.765009465265 95.4931681627667,212.39130508289594 "/><polyline class="polyline" opacity="0.5" stroke="blue" points="158.1978974069641,196.4870783246168 95.02022974918467,210.3843920263314 "/><polyline class="polyline" opacity="0.5" stroke="blue" points="157.96247999873185,195.20906964855038 94.57019644303304,208.35608952201048 "/><polyline class="polyline" opacity="0.5" stroke="blue" points="157.74348084437506,193.9313850663759 94.1435752389658,206.30709843831917 "/><polyline class="polyline" opacity="0.5" stroke="blue" points="157.5410004448738,192.6544278328618 93.7408721080307,204.23812757156804 "/><polyline class="polyline" opacity="0.5" stroke="blue" points="157.3551365163385,191.3786028682513 93.36259207642334,202.14989373862724 "/><polyline class="polyline" opacity="0.5" stroke="blue" points="157.18598395035582,190.10431679641863 93.00923929914421,200.0431218923907 "/><polyline class="polyline" opacity="0.5" stroke="blue" points="157.0336347704594,188.83197798095406 92.68131712766157,197.91854525945269 "/><polyline class="polyline" opacity="0.5" stroke="blue" points="156.89817808469505,187.56199655896654 92.37932817067542,195.7769054993534 "/><polyline class="polyline" opacity="0.5" stroke="blue" points="156.77970003425307,186.29478447239038 92.10377434707264,193.61895288471808 "/><polyline class="polyline" opacity="0.5" stroke="blue" points="156.67828373814234,185.0307554965765 91.85515693015161,191.44544650157587 "/><polyline class="polyline" opacity="0.5" stroke="blue" points="156.59400923388503,183.77032526594988 91.63397658219021,189.25715446911877 "/><polyline class="polyline" opacity="0.5" stroke="blue" points="156.52695341421386,182.5139112965088 91.4407333784195,187.05485417812167 "/><polyline class="polyline" opacity="0.5" stroke="blue" points="156.4771899597569,181.26193300494143 91.27592681945464,184.8393325472152 "/><polyline class="polyline" opacity="0.5" stroke="blue" points="156.44478926769983,180.0148117241295 91.14005583122622,182.61138629616053 "/><polyline class="polyline" opacity="0.5" stroke="blue" points="156.42981837641815,178.77297071480865 91.03361875143972,180.37182223524482 "/><polyline class="polyline" opacity="0.5" stroke="blue" points="156.43234088607738,177.53683517315034 90.95711330158336,178.12145756987104 "/><polyline class="polyline" opacity="0.5" stroke="blue" points="156.45241687520348,176.3068322340295 90.91103654348782,175.86112021938152 "/><polyline class="polyline" opacity="0.5" stroke="blue" points="156.49010281322953,175.08339096973688 90.89588481942985,173.5916491491037 "/><polyline class="polyline" opacity="0.5" stroke="blue" points="156.54545146903132,173.86694238389504 90.91215367475894,171.31389471456865 "/><polyline class="polyline" opacity="0.5" stroke="blue" points="156.61851181546885,172.6579194003325 90.9603377620111,169.0287190167994 "/><polyline class="polyline" opacity="0.5" stroke="blue" points="156.7093289299568,171.45675684667108 91.04093072546114,166.73699626752204 "/><polyline class="polyline" opacity="0.5" stroke="blue" points="156.81794389109245,170.26389143237563 91.15442506505,164.43961316308992 "/><polyline class="polyline" opacity="0.5" stroke="blue" points="156.94439367137704,169.07976172101638 91.30131197861222,162.1374692658638 "/><polyline class="polyline" opacity="0.5" stroke="blue" points="157.08871102607154,167.90480809649313 91.48208118131298,159.8314773917284 "/><polyline class="polyline" opacity="0.5" stroke="blue" points="157.25092437823648,166.7394727229651 91.69722070119477,157.5225640023579 "/><polyline class="polyline" opacity="0.5" stroke="blue" points="157.4310577000116,165.58419949823485 91.94721664972035,155.21166960078452 "/><polyline class="polyline" opacity="0.5" stroke="blue" points="157.6291303901993,164.43943400032887 92.23255296618949,152.89974912874794 "/><polyline class="polyline" opacity="0.5" stroke="blue" points="157.84515714822382,163.3056234270214 92.55371113489785,150.58777236423515 "/><polyline class="polyline" opacity="0.5" stroke="blue" points="158.07914784454704,162.18321652804462 92.91116987390117,148.27672431753683 "/><polyline class="polyline" opacity="0.5" stroke="blue" points="158.33110738762934,161.07266352973173 93.30540479423956,145.9676056240713 "/><polyline class="polyline" opacity="0.5" stroke="blue" points="158.6010355875353,159.97441605183826 93.73688802847964,143.66143293213818 "/><polyline class="polyline" opacity="0.5" stroke="blue" points="158.888927016291,158.888927016291 94.20608782742792,141.3592392836806 "/><polyline class="polyline" opacity="0.5" stroke="blue" points="159.19477086511222,157.81665054761322 94.7134681238764,139.0620744860355 "/><polyline class="polyline" opacity="0.5" stroke="blue" points="159.51855079863174,156.7580418647796 95.25948806224665,136.77100547256296 "/><polyline class="polyline" opacity="0.5" stroke="blue" points="159.86024480626494,155.7135571642573 95.84460149301246,134.48711664994335 "/><polyline class="polyline" opacity="0.5" stroke="blue" points="160.21982505086476,154.6836534939939 96.46925643079558,132.21151022983142 "/><polyline class="polyline" opacity="0.5" stroke="blue" points="160.59725771482772,153.66878861811605 97.1338944750523,129.94530654244744 "/><polyline class="polyline" opacity="0.5" stroke="blue" points="160.99250284382578,152.66942087211086 97.8389501922965,127.68964432958188 "/><polyline class="polyline" opacity="0.5" stroke="blue" points="161.4055141883498,151.6860090082672 98.58485045883516,125.44568101438142 "/><polyline class="polyline" opacity="0.5" stroke="blue" points="161.8362390432642,150.71901203116013 99.3720137630379,123.21459294516542 "/><polyline class="polyline" opacity="0.5" stroke="blue" points="162.28461808558512,149.768889022973 100.20084946620585,120.99757561041808 "/><polyline class="polyline" opacity="0.5" stroke="blue" points="162.75058521070747,148.83609895845694 101.07175702116422,118.79584382197888 "/><polyline class="polyline" opacity="0.5" stroke="blue" points="163.23406736731977,147.92110050934224 101.98512514776553,116.61063186334806 "/><polyline class="polyline" opacity="0.5" stroke="blue" points="163.73498439126055,147.02435183802208 102.94133096456734,114.44319359990047 "/><polyline class="polyline" opacity="0.5" stroke="blue" points="164.2532488385832,146.14631038034628 103.94073907603098,112.29480254769756 "/><polyline class="polyline" opacity="0.5" stroke="blue" points="164.78876581811173,145.2874326173721 104.98370061468428,110.16675189746887 "/><polyline class="polyline" opacity="0.5" stroke="blue" points="165.34143282378284,144.44817383593735 106.07055223779645,108.06035449023375 "/><polyline class="polyline" opacity="0.5" stroke="blue" points="165.91113956708682,143.62898787793267 107.2016150782353,105.97694274092233 "/><polyline class="polyline" opacity="0.5" stroke="blue" points="166.49776780993255,142.83032687817143 108.37719364930581,103.91786850626306 "/><polyline class="polyline" opacity="0.5" stroke="blue" points="167.10119119827874,142.05264099076885 109.59757470351651,101.88450289310659 "/><polyline class="polyline" opacity="0.5" stroke="blue" points="167.72127509688693,141.29637810396756 110.86302604537772,99.87823600327583 "/><polyline class="polyline" opacity="0.5" stroke="blue" points="168.3578764255681,140.56198354336064 112.17379529851374,97.90047661095028 "/><polyline class="polyline" opacity="0.5" stroke="blue" points="169.0108434973099,139.84989976349155 113.53010862755725,95.95265176853293 "/><polyline class="polyline" opacity="0.5" stroke="blue" points="169.6800158586848,139.16056602783067 114.93216941550021,94.03620633689358 "/><polyline class="polyline" opacity="0.5" stroke="blue" points="170.36522413295603,138.494418077153 116.38015689740175,92.1526024358412 "/><polyline class="polyline" opacity="0.5" stroke="blue" points="171.06628986631193,137.8518877863696 117.874224751586,90.30331881065827 "/><polyline class="polyline" opacity="0.5" stroke="blue" points="171.78302537767377,137.23340280989117 119.41449964972519,88.48985011052122 "/><polyline class="polyline" opacity="0.5" stroke="blue" points="172.5152336125346,136.639386215633 121.00107976747024,86.7137060746504 "/><polyline class="polyline" opacity="0.5" stroke="blue" points="173.26270800130294,136.07025610779874 122.63403325758756,84.9764106220606 "/><polyline class="polyline" opacity="0.5" stroke="blue" points="174.02523232263536,135.5264252386146 124.31339668786437,83.27950084085248 "/><polyline class="polyline" opacity="0.5" stroke="blue" points="174.80258057225518,135.0083006092164 126.0391734463716,81.62452587306366 "/><polyline class="polyline" opacity="0.5" stroke="blue" points="175.5945168377663,134.51628305992858 127.81133211701436,80.01304569121861 "/><polyline class="polyline" opacity="0.5" stroke="blue" points="176.40079517998214,134.05076685020748 129.62980482865916,78.44662976285464 "/><polyline class="polyline" opacity="0.5" stroke="blue" points="177.2211595212996,133.61213922856 131.49448558150007,76.92685559948535 "/><polyline class="polyline" opacity="0.5" stroke="blue" points="178.0553435416552,133.20077999278598 133.40522855471121,75.45530718667341 "/><polyline class="polyline" opacity="0.5" stroke="blue" points="178.90307058261214,132.8170610409312 135.36184639984003,74.03357329213154 "/><polyline class="polyline" opacity="0.5" stroke="blue" points="179.76405356013032,132.46134591337923 137.36410852480367,72.66324564906623 "/><polyline class="polyline" opacity="0.5" stroke="blue" points="180.637994886579,132.13398932655008 139.41173937377755,71.34591701230346 "/><polyline class="polyline" opacity="0.5" stroke="blue" points="181.5245864025547,131.83533669871662 141.5044167086935,70.083179085116 "/><polyline class="polyline" opacity="0.5" stroke="blue" points="182.42350931907148,131.56572366849107 143.64176989850816,68.87662031508427 "/><polyline class="polyline" opacity="0.5" stroke="blue" points="183.3344341706901,131.32547560657835 145.82337822283694,67.72782355779648 "/><polyline class="polyline" opacity="0.5" stroke="blue" points="184.2570207801536,131.11490712143555 148.04876919699487,66.6383636077 "/><polyline class="polyline" opacity="0.5" stroke="blue" points="185.19091823509365,130.93432155952166 150.31741692592075,65.60980459598375 "/><polyline class="polyline" opacity="0.5" stroke="blue" points="186.13576487736927,130.7840105008652 152.62874049489744,64.64369725598024 "/><polyline class="polyline" opacity="0.5" stroke="blue" points="187.09118830559288,130.66425325072242 154.98210240539908,63.741576057236614 "/><polyline class="polyline" opacity="0.5" stroke="blue" points="188.05680539139135,130.57531632814158 157.37680706480717,62.904956210117234 "/><polyline class="polyline" opacity="0.5" stroke="blue" points="189.03222230993842,130.51745295229432 159.81209933912146,62.135330543556904 "/><polyline class="polyline" opacity="0.5" stroke="blue" points="190.0170345852854,130.49090252747652 162.28716317816298,61.43416625938909 "/><polyline class="polyline" opacity="0.5" stroke="blue" points="191.01082715100046,130.49589012772475 164.80112032309808,60.80290156752898 "/><polyline class="polyline" opacity="0.5" stroke="blue" points="192.0131744266103,130.5326259820365 167.35302910641298,60.242942207180704 "/><polyline class="polyline" opacity="0.5" stroke="blue" points="193.02364041032106,130.60130496122082 169.94188335473746,59.7556578601766 "/><polyline class="polyline" opacity="0.5" stroke="blue" points="194.04177878847096,130.7021060674477 172.56661140512549,59.34237846352332 "/><polyline class="polyline" opacity="0.5" stroke="blue" points="195.06713306214638,130.83519192760068 175.22607524557253,59.004390429231194 "/><polyline class="polyline" opacity="0.5" stroke="blue" points="196.099236691363,131.00070829157235 177.91906979065163,58.74293278053284 "/><polyline class="polyline" opacity="0.5" stroke="blue" points="197.1376132571891,131.1987835366783 180.64432230320494,58.559193214641056 "/><polyline class="polyline" opacity="0.5" stroke="blue" points="198.18177664215247,131.42952817939351 183.40049197299476,58.454304103255794 "/><polyline class="polyline" opacity="0.5" stroke="blue" points="199.23123122924184,131.69303439564712 186.18616966312942,58.42933844309559 "/><polyline class="polyline" opacity="0.5" stroke="blue" points="200.2854721197738,131.9893755509347 188.9998778348938,58.48530576979084 "/><polyline class="polyline" opacity="0.5" stroke="blue" points="201.34398537036094,132.31860574153217 191.84007066136226,58.62314804952072 "/><polyline class="polyline" opacity="0.5" stroke="blue" points="202.40624824917222,132.6807593481143 194.70513433981094,58.84373556380524 "/><polyline class="polyline" opacity="0.5" stroke="blue" points="203.4717295116352,133.07585060309702 197.59338761250868,59.14786280385289 "/><polyline class="polyline" opacity="0.5" stroke="blue" points="204.53988969568042,133.50387317303523 200.5030825049168,59.53624439181527 "/><polyline class="polyline" opacity="0.5" stroke="blue" points="205.61018143658404,133.96479975741602 203.43240528969443,60.00951104718669 "/><polyline class="polyline" opacity="0.5" stroke="blue" points="206.68204980141098,134.45858170519244 206.37947768415603,60.56820561741546 "/><polyline class="polyline" opacity="0.5" stroke="blue" points="207.75493264300815,134.98514865040022 209.34235828798052,61.21277919253208 "/><polyline class="polyline" opacity="0.5" stroke="blue" points="208.82826097344554,135.5444081681983 212.3190442670306,61.943587324250075 "/><polyline class="polyline" opacity="0.5" stroke="blue" points="209.90145935674425,136.13624545266185 215.30747328808025,62.760886370542096 "/><polyline class="polyline" opacity="0.5" stroke="blue" points="210.9739463206736,136.76052301764304 218.30552570810676,63.66482998711632 "/><polyline class="polyline" opacity="0.5" stroke="blue" points="212.04513478733924,137.41708042199437 221.3110270205514,64.65546578751841 "/><polyline class="polyline" opacity="0.5" stroke="blue" points="213.1144325222269,138.10573402042576 224.32175055962597,65.73273219374104 "/><polyline class="polyline" opacity="0.5" stroke="blue" points="214.1812426013006,138.82627674123438 227.33542046231554,66.89645549922645 "/><polyline class="polyline" opacity="0.5" stroke="blue" points="215.24496389569637,139.5784778921127 230.3497148862363,68.14634716599446 "/><polyline class="polyline" opacity="0.5" stroke="blue" points="216.3049915734858,140.36208299519666 233.36226947994174,69.48200137730177 "/><polyline class="polyline" opacity="0.5" stroke="blue" points="217.36071761792542,141.17681365247245 236.3706811006559,70.90289286674158 "/><polyline class="polyline" opacity="0.5" stroke="blue" points="218.41153136154117,142.0223674426041 239.37251177274297,72.40837504400577 "/><polyline class="polyline" opacity="0.5" stroke="blue" points="219.45682003533759,142.89841785019146 242.36529287853168,73.99767843667013 "/><polyline class="polyline" opacity="0.5" stroke="blue" points="220.4959693323569,143.80461422840003 245.34652957139485,75.66990946630365 "/></svg>
