<?xml version="1.0" encoding="UTF-8"?>
<!DOCTYPE svg PUBLIC "-//W3C//DTD SVG 1.1//EN"
    "http://www.w3.org/Graphics/SVG/1.1/DTD/svg11.dtd"><svg width="400" height="400" stroke="black" fill="none" fill-opacity="0.75" font-size="14" font-style="italic" font-family="sans-serif" xmlns="http://www.w3.org/2000/svg" xmlns:xlink="http://www.w3.org/1999/xlink" version="1.1"><filter id="blur1"><feGaussianBlur stdDeviation="0.5"/></filter><rect width="100%" height="100%" fill="white" stroke="none" fill-opacity="1"/><rect class="bg" fill="black" width="100%" height="100%" stroke="none" fill-opacity="1"/><polyline class="polyline" opacity="0.5" stroke="blue" points="226.82515529760894,149.58556687107605 260.41191171307383,87.29297283086972 "/><polyline class="polyline" opacity="0.5" stroke="blue" points="227.91458268973867,150.64771697370637 263.4395856259315,89.36672894415922 "/><polyline class="polyline" opacity="0.5" stroke="blue" points="228.9926207571179,151.73591798216478 266.43441467474054,91.51123416302669 "/><polyline class="polyline" opacity="0.5" stroke="blue" points="230.05861268322963,152.84961585213836 269.393718847801,93.72453860827854 "/><polyline class="polyline" opacity="0.5" stroke="blue" points="231.11190694948004,153.98823518451522 272.31484953907886,96.00458291870537 "/><polyline class="polyline" opacity="0.5" stroke="blue" points="232.1518580307759,155.15117962444825 275.1951955231096,98.34920157743927 "/><polyline class="polyline" opacity="0.5" stroke="blue" points="233.17782709007213,156.33783229534194 278.03218888507223,100.75612661411209 "/><polyline class="polyline" opacity="0.5" stroke="blue" points="234.18918267043574,157.54755626730883 280.8233108790103,103.22299167152119 "/><polyline class="polyline" opacity="0.5" stroke="blue" points="235.18530138315754,158.77969505953703 283.5660976872062,105.7473364231716 "/><polyline class="polyline" opacity="0.5" stroke="blue" points="236.16556859043453,160.03357317590954 286.2581460539583,108.32661132579163 "/><polyline class="polyline" opacity="0.5" stroke="blue" points="237.1293790811455,161.3084966731138 288.89711876745935,110.95818268874031 "/><polyline class="polyline" opacity="0.5" stroke="blue" points="238.0761377382412,162.60375376038002 291.4807499641314,113.63933804016055 "/><polyline class="polyline" opacity="0.5" stroke="blue" points="239.00526019628228,163.91861542988855 294.00685023063363,116.36729176780113 "/><polyline class="polyline" opacity="0.5" stroke="blue" points="239.916173487668,165.25233611679175 296.4733114798159,119.13919101065507 "/><polyline class="polyline" opacity="0.5" stroke="blue" points="240.80831667611955,166.60415438770121 298.8781115781388,121.9521217759603 "/><polyline class="polyline" opacity="0.5" stroke="blue" points="241.68114147600477,167.97329365640277 301.21931870350227,124.80311525469486 "/><polyline class="polyline" opacity="0.5" stroke="blue" points="242.5341128561219,169.3589629254757 303.49509541401375,127.68915430749007 "/><polyline class="polyline" opacity="0.5" stroke="blue" points="243.36670962659213,170.76035755241008 305.70370240996584,130.60718009188918 "/><polyline class="polyline" opacity="0.5" stroke="blue" points="244.17842500755347,172.17666003873936 307.84350197316076,133.5540988011117 "/><polyline class="polyline" opacity="0.5" stroke="blue" points="244.96876717839106,173.60704084063298 309.9129610697046,136.5267884839443 "/><polyline class="polyline" opacity="0.5" stroke="blue" points="245.73725980628973,175.05065919932667 311.9106541044739,139.52210591507534 "/><polyline class="polyline" opacity="0.5" stroke="blue" points="246.48344255294845,176.50666398970645 313.8352653176093,142.5368934851242 "/><polyline class="polyline" opacity="0.5" stroke="blue" points="247.2068715583556,177.97419458530723 315.6855908155981,145.5679860797852 "/><polyline class="polyline" opacity="0.5" stroke="blue" points="247.9071199005852,179.4523817379371 317.46054023174514,148.6122179179029 "/><polyline class="polyline" opacity="0.5" stroke="blue" points="248.58377803064369,180.940348470096 319.1591380130791,151.66642931891965 "/><polyline class="polyline" opacity="0.5" stroke="blue" points="249.2364541814633,182.4372109783209 320.78052433297745,154.72747337096996 "/><polyline class="polyline" opacity="0.5" stroke="blue" points="249.86477475021556,183.94207954555992 322.3239556309975,157.7922224719382 "/><polyline class="polyline" opacity="0.5" stroke="blue" points="250.4683846531916,185.4540594606558 323.78880478355137,160.8575747170207 "/><polyline class="polyline" opacity="0.5" stroke="blue" points="251.04694765257696,186.97225194300324 325.17456091114326,163.92046010773603 "/><polyline class="polyline" opacity="0.5" stroke="blue" points="251.60014665452832,188.49575507043627 326.4808288298767,166.9778465588828 "/><polyline class="polyline" opacity="0.5" stroke="blue" points="252.12768397804427,190.02366470840002 327.70732815682817,170.02674568163803 "/><polyline class="polyline" opacity="0.5" stroke="blue" points="252.62928159420449,191.55507543846778 328.85389208064134,173.06421832280313 "/><polyline class="polyline" opacity="0.5" stroke="blue" points="253.10468133543938,193.08908148427597 329.920465810338,176.08737984211044 "/><polyline class="polyline" opacity="0.5" stroke="blue" points="253.55364507457648,194.62477763296917 330.9071047168228,179.09340511149406 "/><polyline class="polyline" opacity="0.5" stroke="blue" points="253.97595487349807,196.16126015027461 331.8139721828991,182.07953322226828 "/><polyline class="polyline" opacity="0.5" stroke="blue" points="254.3714131013285,197.69762768735694 332.6413371787899,185.04307188823773 "/><polyline class="polyline" opacity="0.5" stroke="blue" points="254.73984252215888,199.232982177644 333.38957158117137,187.98140153485622 "/><polyline class="polyline" opacity="0.5" stroke="blue" points="255.0810863523975,200.76642972185954 334.05914725457245,190.89197906664168 "/><polyline class="polyline" opacity="0.5" stroke="blue" points="255.39500828792137,202.29708145954945 334.65063291467425,193.77234130712202 "/><polyline class="polyline" opacity="0.5" stroke="blue" points="255.68149250128508,203.82405442544518 335.1646907935543,196.6201081076139 "/><polyline class="polyline" opacity="0.5" stroke="blue" points="255.94044360932196,205.3464723890692 335.60207312727306,199.4329851231072 "/><polyline class="polyline" opacity="0.5" stroke="blue" points="256.1717866115536,206.86346667605454 335.9636184863841,202.20876625542712 "/><polyline class="polyline" opacity="0.5" stroke="blue" points="256.3754667998943,208.37417696972125 336.2502479699947,204.94533576566263 "/><polyline class="polyline" opacity="0.5" stroke="blue" points="256.551449640214,209.87775209152758 336.462961283886,207.6406700595657 "/><polyline class="polyline" opacity="0.5" stroke="blue" points="256.6997206263892,211.37335075909309 336.6028327229608,210.29283915124168 "/><polyline class="polyline" opacity="0.5" stroke="blue" points="256.8202851075382,212.8601423205726 336.6710070779103,212.90000781194743 "/><polyline class="polyline" opacity="0.5" stroke="blue" points="256.9131680891991,214.33730746424493 336.66869548549755,215.4604364121906 "/><polyline class="polyline" opacity="0.5" stroke="blue" points="256.97841400926734,215.8040389022677 336.597171241255,217.97248146657466 "/><polyline class="polyline" opacity="0.5" stroke="blue" points="257.01608648956375,217.2595420276392 336.45776559270155,220.43459589195584 "/><polyline class="polyline" opacity="0.5" stroke="blue" points="257.0262680639532,218.7030355434989 336.2518635303951,222.84532899046656 "/><polyline class="polyline" opacity="0.5" stroke="blue" points="257.0090598839825,220.13375206398982 335.98089959329235,225.20332616981963 "/><polyline class="polyline" opacity="0.5" stroke="blue" points="256.964581403044,221.55093868599948 335.6463537039665,227.50732841403294 "/><polyline class="polyline" opacity="0.5" stroke="blue" points="256.8929700401121,222.95385753118924 335.2497470482701,229.75617151831548 "/><polyline class="polyline" opacity="0.5" stroke="blue" points="256.79438082412895,224.34178625781286 334.79263801302756,231.94878510232743 "/><polyline class="polyline" opacity="0.5" stroke="blue" points="256.6689860201469,225.71401854191993 334.2766181943082,234.08419141638052 "/><polyline class="polyline" opacity="0.5" stroke="blue" points="256.51697473835657,227.06986452762965 333.7033084877818,236.1615039553838 "/><polyline class="polyline" opacity="0.5" stroke="blue" points="256.3385525271492,228.4086512462507 333.07435527159987,238.17992589546594 "/><polyline class="polyline" opacity="0.5" stroke="blue" points="256.133940951377,229.72972300411175 332.39142669118803,240.1387483682316 "/><polyline class="polyline" opacity="0.5" stroke="blue" points="255.90337715698493,231.03244173905392 331.65620905428693,242.03734858753936 "/><polyline class="polyline" opacity="0.5" stroke="blue" points="255.64711342319418,232.31618734561965 330.8704033435448,243.87518784352739 "/><polyline class="polyline" opacity="0.5" stroke="blue" points="255.36541670341768,233.58035796905597 330.03572185295843,245.651809378376 "/><polyline class="polyline" opacity="0.5" stroke="blue" points="255.05856815608837,234.82437026832724 329.15388495347577,247.36683615798114 "/><polyline class="polyline" opacity="0.5" stroke="blue" points="254.72686266657354,236.04765964840954 328.2266179921316,249.01996855333726 "/><polyline class="polyline" opacity="0.5" stroke="blue" points="254.37060836133776,237.24968046221122 327.25564832817827,250.6109819449909 "/><polyline class="polyline" opacity="0.5" stroke="blue" points="253.99012611550617,238.42990618253296 326.2427025088111,252.13972426344318 "/><polyline class="polyline" opacity="0.5" stroke="blue" points="253.585749054961,239.58782954454728 325.1895035862699,253.60611347785277 "/><polyline class="polyline" opacity="0.5" stroke="blue" points="253.15782205408482,240.72296265933778 324.09776857732885,255.01013504482813 "/><polyline class="polyline" opacity="0.5" stroke="blue" points="252.70670123024212,241.83483709909794 322.96920606546456,256.351839328509 "/><polyline class="polyline" opacity="0.5" stroke="blue" points="252.23275343606429,242.92300395464252 321.80551394532836,257.6313390025263 "/><polyline class="polyline" opacity="0.5" stroke="blue" points="251.73635575057415,243.9870338659348 320.6083773085255,258.8488064438014 "/><polyline class="polyline" opacity="0.5" stroke="blue" points="251.21789497015786,245.02651702637905 319.37946646914406,260.0044711275121 "/><polyline class="polyline" opacity="0.5" stroke="blue" points="250.67776710035685,246.0410631616696 318.12043512695953,261.09861703190893 "/><polyline class="polyline" opacity="0.5" stroke="blue" points="250.11637684941917,247.0303014840252 316.8329186657785,262.1315800610276 "/><polyline class="polyline" opacity="0.5" stroke="blue" points="249.5341371245132,247.99388062267218 315.5185325839706,263.1037454927065 "/><polyline class="polyline" opacity="0.5" stroke="blue" points="248.9314685314685,248.9314685314685 314.17887105387473,264.01554545869146 "/><polyline class="polyline" opacity="0.5" stroke="blue" points="248.30879887886994,249.84275237458766 312.81550560644126,264.8674564629964 "/><polyline class="polyline" opacity="0.5" stroke="blue" points="247.66656268728977,250.72743839120216 311.4299839372037,265.6599969440868 "/><polyline class="polyline" opacity="0.5" stroke="blue" points="247.00520070440422,251.5852517401257 310.0238288294362,266.39372488587367 "/><polyline class="polyline" opacity="0.5" stroke="blue" points="246.32515942669568,252.415936325387 308.59853719016223,267.0692354819429 "/><polyline class="polyline" opacity="0.5" stroke="blue" points="245.62689062840235,253.2192546037178 307.1555791945268,267.68715885690403 "/><polyline class="polyline" opacity="0.5" stroke="blue" points="244.9108508983338,253.9949873749474 305.69639753392573,268.2481578482299 "/><polyline class="polyline" opacity="0.5" stroke="blue" points="244.17750118512782,254.74293355629828 304.2224067631967,268.7529258514612 "/><polyline class="polyline" opacity="0.5" stroke="blue" points="243.42730635148226,255.46290994157744 302.7349927421264,269.2021847311895 "/><polyline class="polyline" opacity="0.5" stroke="blue" points="242.66073473785295,256.15475094625924 301.2355121664965,269.59668279978825 "/><polyline class="polyline" opacity="0.5" stroke="blue" points="241.8782577360666,256.81830833944576 299.72529218389286,269.9371928654479 "/><polyline class="polyline" opacity="0.5" stroke="blue" points="241.0803493732567,257.45345096368686 298.2056300895223,270.22451035068536 "/><polyline class="polyline" opacity="0.5" stroke="blue" points="240.26748590648938,258.0600644436293 296.67779309732543,270.459451482134 "/><polyline class="polyline" opacity="0.5" stroke="blue" points="239.4401454284055,258.6380508844521 295.14301818173533,270.6428515520875 "/><polyline class="polyline" opacity="0.5" stroke="blue" points="238.5988074841676,259.1873285610313 293.6025119855101,270.7755632519601 "/><polyline class="polyline" opacity="0.5" stroke="blue" points="237.74395269996057,259.70783159875793 292.0574507891613,270.8584550775399 "/><polyline class="polyline" opacity="0.5" stroke="blue" points="236.87606242325836,260.1995096469167 290.50898053760477,270.89240980565324 "/><polyline class="polyline" opacity="0.5" stroke="blue" points="235.99561837503305,260.6623275455099 288.9582169197795,270.8783230416195 "/><polyline class="polyline" opacity="0.5" stroke="blue" points="235.10310231404753,261.0962649863909 287.40624549710304,270.8171018366603 "/><polyline class="polyline" opacity="0.5" stroke="blue" points="234.1989957133398,261.501316169545 285.85412187676945,270.709663374236 "/><polyline class="polyline" opacity="0.5" stroke="blue" points="233.28377944897346,261.87748945533497 284.3028719260323,270.556933724108 "/><polyline class="polyline" opacity="0.5" stroke="blue" points="232.35793350109998,262.22480701349775 282.7534920237619,270.35984666277113 "/><polyline class="polyline" opacity="0.5" stroke="blue" points="231.42193666734664,262.5433044696558 281.20694934571515,270.1193425587696 "/><polyline class="polyline" opacity="0.5" stroke="blue" points="230.47626628851697,262.8330305500766 279.6641821801038,269.8363673212867 "/><polyline class="polyline" opacity="0.5" stroke="blue" points="229.52139798656424,263.0940467253869 278.12610027020344,269.5118714103028 "/><polyline class="polyline" opacity="0.5" stroke="blue" points="228.55780541477168,263.3264268539185 276.59358518089505,269.1468089065271 "/><polyline class="polyline" opacity="0.5" stroke="blue" points="227.58596002005075,263.5302568253343 275.0674906861842,268.7421366392363 "/><polyline class="polyline" opacity="0.5" stroke="blue" points="226.6063308172455,263.7056342051521 273.54864317489626,268.2988133700977 "/><polyline class="polyline" opacity="0.5" stroke="blue" points="225.61938417531033,263.8526678807569 272.03784207189125,267.81779903100346 "/><polyline class="polyline" opacity="0.5" stroke="blue" points="224.62558361520888,263.9714777094598 270.53586027229466,267.30005401391094 "/><polyline class="polyline" opacity="0.5" stroke="blue" points="223.6253896193636,264.06219416913416 269.0434445863806,266.7465385106576 "/><polyline class="polyline" opacity="0.5" stroke="blue" points="222.6192594524682,264.12495801192904 267.5613161928873,266.15821190069994 "/><polyline class="polyline" opacity="0.5" stroke="blue" points="221.60764699346123,264.15991992153215 266.09017109868194,265.53603218472415 "/><polyline class="polyline" opacity="0.5" stroke="blue" points="220.59100257844244,264.16724017442436 264.63068060282666,264.8809554620709 "/><polyline class="polyline" opacity="0.5" stroke="blue" points="219.5697728543035,264.14708830553946 263.1834917632255,264.1939354499266 "/><polyline class="polyline" opacity="0.5" stroke="blue" points="218.5444006428309,264.0996427787171 261.74922786416045,263.4759230422452 "/><polyline class="polyline" opacity="0.5" stroke="blue" points="217.515324815029,264.025090662306 260.3284888831433,262.72786590638333 "/><polyline class="polyline" opacity="0.5" stroke="blue" points="216.48298017540296,263.92362731025 258.92185195562814,261.9507081154554 "/><polyline class="polyline" opacity="0.5" stroke="blue" points="215.44779735593156,263.79545604896344 257.5298718362421,261.1453898144413 "/><polyline class="polyline" opacity="0.5" stroke="blue" points="214.41020271945402,263.64078787027523 256.15308135529733,260.3128469181116 "/><polyline class="polyline" opacity="0.5" stroke="blue" points="213.37061827218855,263.45984113069755 254.79199186945377,259.4540108388693 "/><polyline class="polyline" opacity="0.5" stroke="blue" points="212.32946158509506,263.2528412572504 253.44709370549768,258.5698082426429 "/><polyline class="polyline" opacity="0.5" stroke="blue" points="211.28714572379067,263.0200204600502 252.1188565962966,257.66116083100553 "/><polyline class="polyline" opacity="0.5" stroke="blue" points="210.24407918672352,262.761617451848 250.80773010808196,256.7289851477356 "/><polyline class="polyline" opacity="0.5" stroke="blue" points="209.20066585130755,262.4778771746808 249.51414405829476,255.77419240807734 "/><polyline class="polyline" opacity="0.5" stroke="blue" points="208.15730492771957,262.1690505337799 248.23850892331222,254.79768834900068 "/><polyline class="polyline" opacity="0.5" stroke="blue" points="207.11439092005938,261.8353941388578 246.9812162354504,253.80037309880805 "/><polyline class="polyline" opacity="0.5" stroke="blue" points="206.07231359457273,261.47717005287865 245.742638968712,252.78314106447715 "/><polyline class="polyline" opacity="0.5" stroke="blue" points="205.0314579546384,261.09464554839695 244.52313191281732,251.74688083517555 "/><polyline class="polyline" opacity="0.5" stroke="blue" points="203.9922042222209,260.6880928715321 243.3230320351253,250.6924751004298 "/><polyline class="polyline" opacity="0.5" stroke="blue" points="202.95492782549218,260.25778901363043 242.14265883011066,249.62080058147384 "/><polyline class="polyline" opacity="0.5" stroke="blue" points="201.91999939232846,259.80401549064936 240.9823146561273,248.53272797435008 "/><polyline class="polyline" opacity="0.5" stroke="blue" points="200.88778474938968,259.3270581302836 239.84228505924145,247.4291219033804 "/><polyline class="polyline" opacity="0.5" stroke="blue" points="199.85864492649355,258.8272068668399 238.72283908397367,246.3108408836678 "/><polyline class="polyline" opacity="0.5" stroke="blue" points="198.83293616599852,258.30475554385185 237.6242295708398,245.17873729133666 "/><polyline class="polyline" opacity="0.5" stroke="blue" points="197.8110099369139,257.7600017244143 236.54669344062808,244.03365734025965 "/><polyline class="polyline" opacity="0.5" stroke="blue" points="196.7932129534607,257.1932465092051 235.49045196539757,242.87644106406577 "/><polyline class="polyline" opacity="0.5" stroke="blue" points="195.77988719780882,256.6047943621505 234.45571102622588,241.70792230226448 "/><polyline class="polyline" opacity="0.5" stroke="blue" points="194.7713699467233,255.99495294367964 233.44266135777502,240.52892868936368 "/><polyline class="polyline" opacity="0.5" stroke="blue" points="193.76799380185545,255.3640329515029 232.45147877978593,239.3402816459009 "/><polyline class="polyline" opacity="0.5" stroke="blue" points="192.7700867234205,254.7123479688431 231.48232441564812,238.1427963703469 "/><polyline class="polyline" opacity="0.5" stroke="blue" points="191.77797206700833,254.04021432003464 230.53534489822766,236.93728183088237 "/><polyline class="polyline" opacity="0.5" stroke="blue" points="190.79196862327933,253.3479509334025 229.61067256317173,235.72454075608707 "/><polyline class="polyline" opacity="0.5" stroke="blue" points="189.8123906603023,252.63587921132245 228.70842562994,234.50536962362023 "/><polyline class="polyline" opacity="0.5" stroke="blue" points="188.83954796829784,251.90432290735913 227.8287083708458,233.28055864601026 "/><polyline class="polyline" opacity="0.5" stroke="blue" points="187.87374590655497,251.15360801037045 226.9716112684193,232.05089175270916 "/><polyline class="polyline" opacity="0.5" stroke="blue" points="186.91528545229494,250.3840626354627 226.1372111614353,230.81714656760607 "/><polyline class="polyline" opacity="0.5" stroke="blue" points="185.96446325126203,249.59601692167394 225.3255713799747,229.58009438123165 "/><polyline class="polyline" opacity="0.5" stroke="blue" points="185.02157166982602,248.78980293625975 224.5367418699184,228.34050011692224 "/><polyline class="polyline" opacity="0.5" stroke="blue" points="184.08689884838682,247.96575458545 223.7707593072953,227.09912229025122 "/><polyline class="polyline" opacity="0.5" stroke="blue" points="183.16072875587778,247.12420753154137 223.02764720293396,225.85671296107108 "/><polyline class="polyline" opacity="0.5" stroke="blue" points="182.24334124516864,246.26549911618756 222.30741599789076,224.61401767754884 "/><polyline class="polyline" opacity="0.5" stroke="blue" points="181.3350121091754,245.38996828974444 221.61006315015038,223.3717754116131 "/><polyline class="polyline" opacity="0.5" stroke="blue" points="180.4360131374894,244.49795554652624 220.93557321311926,222.13071848527093 "/><polyline class="polyline" opacity="0.5" stroke="blue" points="179.5466121733425,243.58980286582386 220.28391790645207,220.89157248728935 "/><polyline class="polyline" opacity="0.5" stroke="blue" points="178.66707317073173,242.6658536585366 219.6550561797753,219.6550561797753 "/><polyline class="polyline" opacity="0.5" stroke="blue" points="177.79765625153033,241.72645271926453 219.04893426989037,218.4218813942274 "/><polyline class="polyline" opacity="0.5" stroke="blue" points="176.93861776241818,240.7719461837076 218.46548575206035,217.19275291667094 "/><polyline class="polyline" opacity="0.5" stroke="blue" points="176.09021033146868,239.8026814912162 217.90463158600244,215.96836836152985 "/><polyline class="polyline" opacity="0.5" stroke="blue" points="175.2526829242341,238.8190073523357 217.36628015722698,214.7494180339275 "/><polyline class="polyline" opacity="0.5" stroke="blue" points="174.4262808991761,237.8212737211869 216.85032731438176,213.53658478015186 "/><polyline class="polyline" opacity="0.5" stroke="blue" points="173.61124606229217,236.80983177252273 216.35665640327665,212.33054382606198 "/><polyline class="polyline" opacity="0.5" stroke="blue" points="172.80781672079354,235.7850338833004 215.8851382982797,211.13196260325566 "/><polyline class="polyline" opacity="0.5" stroke="blue" points="172.01622773569352,234.7472336186086 215.43563143179057,209.94150056286256 "/><polyline class="polyline" opacity="0.5" stroke="blue" points="171.2367105731704,233.69678572178577 215.00798182251148,208.75980897687185 "/><polyline class="polyline" opacity="0.5" stroke="blue" points="170.46949335457128,232.6340461085687 214.60202310324863,207.5875307269491 "/><polyline class="polyline" opacity="0.5" stroke="blue" points="169.71480090492906,231.55937186510573 214.21757654898818,206.4253000807443 "/><polyline class="polyline" opacity="0.5" stroke="blue" points="168.97285479986618,230.47312124967235 213.85445110600236,205.27374245574026 "/><polyline class="polyline" opacity="0.5" stroke="blue" points="168.24387341076417,229.37565369792281 213.51244342274964,204.13347417073936 "/><polyline class="polyline" opacity="0.5" stroke="blue" points="167.52807194808003,228.26732983151376 213.19133788334153,203.00510218513676 "/><polyline class="polyline" opacity="0.5" stroke="blue" points="166.82566250269463,227.1485114699334 212.89090664435372,201.88922382617773 "/><polyline class="polyline" opacity="0.5" stroke="blue" points="166.13685408518097,226.01956164537 212.61090967576527,200.78642650444883 "/><polyline class="polyline" opacity="0.5" stroke="blue" points="165.4618526628829,224.88084462045316 212.35109480681126,199.69728741790527 "/><polyline class="polyline" opacity="0.5" stroke="blue" points="164.80086119469897,223.73272590869993 212.11119777753694,198.6223732447877 "/><polyline class="polyline" opacity="0.5" stroke="blue" points="164.1540796634672,222.57557229749807 211.8909422968388,197.56223982583802 "/><polyline class="polyline" opacity="0.5" stroke="blue" points="163.52170510585069,221.40975187345748 211.69004010777726,196.51743183627505 "/><polyline class="polyline" opacity="0.5" stroke="blue" points="162.903931639626,220.23563404996054 211.50819106093874,195.48848244804796 "/><polyline class="polyline" opacity="0.5" stroke="blue" points="162.3009504882786,219.05358959674095 211.34508319661947,194.47591298293756 "/><polyline class="polyline" opacity="0.5" stroke="blue" points="161.71295000281253,217.86399067132 211.20039283659233,193.48023255713312 "/><polyline class="polyline" opacity="0.5" stroke="blue" points="161.14011568068327,216.6672108521283 211.07378468620715,192.501937717965 "/><polyline class="polyline" opacity="0.5" stroke="blue" points="160.58263018176646,215.46362517313958 210.96491194755941,191.5415120735298 "/><polyline class="polyline" opacity="0.5" stroke="blue" points="160.0406733412747,214.253610159843 210.87341644444587,190.59942591599804 "/><polyline class="polyline" opacity="0.5" stroke="blue" points="159.51442217954047,213.0375438663778 210.79892875980508,189.67613583944924 "/><polyline class="polyline" opacity="0.5" stroke="blue" points="159.00405090858197,211.81580591365406 210.7410683863181,188.7720843531309 "/><polyline class="polyline" opacity="0.5" stroke="blue" points="158.50973093537345,210.58877752828138 210.699443890819,187.88769949109167 "/><polyline class="polyline" opacity="0.5" stroke="blue" points="158.03163086174192,209.35684158212555 210.67365309313655,187.02339441918812 "/><polyline class="polyline" opacity="0.5" stroke="blue" points="157.56991648081555,208.12038263231236 210.66328325995622,186.1795670405151 "/><polyline class="polyline" opacity="0.5" stroke="blue" points="157.12475076995042,206.8797869614951 210.6679113142569,185.3565996003563 "/><polyline class="polyline" opacity="0.5" stroke="blue" points="156.69629388006496,205.63544261820127 210.68710406084045,184.5548582917976 "/><polyline class="polyline" opacity="0.5" stroke="blue" points="156.28470312131304,204.38773945707132 210.72041842842867,183.77469286318882 "/><polyline class="polyline" opacity="0.5" stroke="blue" points="155.89013294502968,203.13706917880103 210.767401728762,183.01643622868042 "/><polyline class="polyline" opacity="0.5" stroke="blue" points="155.5127349218849,201.88382536959597 210.82759193308405,182.28040408309826 "/><polyline class="polyline" opacity="0.5" stroke="blue" points="155.15265771618417,200.62840353994557 210.90051796634884,181.56689452245604 "/><polyline class="polyline" opacity="0.5" stroke="blue" points="154.8100470562556,199.3712011625201 210.9857000194333,180.8761876714336 "/><polyline class="polyline" opacity="0.5" stroke="blue" points="154.48504570086774,198.11261770899358 211.08264987958293,180.20854531917934 "/><polyline class="polyline" opacity="0.5" stroke="blue" points="154.17779340162315,196.8530546855916 211.19087127926014,179.56421056481577 "/><polyline class="polyline" opacity="0.5" stroke="blue" points="153.88842686127637,195.59291566716058 211.30986026350385,178.94340747404786 "/><polyline class="polyline" opacity="0.5" stroke="blue" points="153.61707968792783,194.33260632955336 211.43910557584587,178.34634074828753 "/><polyline class="polyline" opacity="0.5" stroke="blue" points="153.36388234504793,193.0725344801218 211.57808906276406,177.7731954077176 "/><polyline class="polyline" opacity="0.5" stroke="blue" points="153.1289620972888,191.81311008610567 211.7262860965845,177.2241364897221 "/><polyline class="polyline" opacity="0.5" stroke="blue" points="152.9124429520447,190.55474530070356 211.88316601667654,176.69930876411047 "/><polyline class="polyline" opacity="0.5" stroke="blue" points="152.71444559672526,189.29785448660806 212.04819258871206,176.19883646655518 "/><polyline class="polyline" opacity="0.5" stroke="blue" points="152.5350873317099,188.0428542367868 212.220824481689,175.7228230516517 "/><polyline class="polyline" opacity="0.5" stroke="blue" points="152.37448199895505,186.79016339228497 212.4005157623461,175.27135096699044 "/><polyline class="polyline" opacity="0.5" stroke="blue" points="152.23273990623076,185.54020305682525 212.5867164065202,174.84448144960763 "/><polyline class="polyline" opacity="0.5" stroke="blue" points="152.10996774696693,184.2933966079755 212.7788728269245,174.44225434615103 "/><polyline class="polyline" opacity="0.5" stroke="blue" points="152.00626851569425,183.0501697046542 212.97642841675014,174.0646879580606 "/><polyline class="polyline" opacity="0.5" stroke="blue" points="151.92174141907023,181.8109502907385 213.1788241084196,173.71177891302142 "/><polyline class="polyline" opacity="0.5" stroke="blue" points="151.85648178248542,180.57616859453972 213.3854989467462,173.38350206389785 "/><polyline class="polyline" opacity="0.5" stroke="blue" points="151.81058095225035,179.34625712390653 213.59589067568072,173.0798104163025 "/><polyline class="polyline" opacity="0.5" stroke="blue" points="151.78412619336976,178.1216506567141 213.80943633775496,172.8006350858921 "/><polyline class="polyline" opacity="0.5" stroke="blue" points="151.77720058291735,176.90278622649714 214.02557288526165,172.54588528641648 "/><polyline class="polyline" opacity="0.5" stroke="blue" points="151.7898828990288,175.69010310297907 214.24373780214236,172.3154483494715 "/><polyline class="polyline" opacity="0.5" stroke="blue" points="151.8222475055402,174.48404276725188 214.46336973548898,172.10918977683076 "/><polyline class="polyline" opacity="0.5" stroke="blue" points="151.87436423230366,173.28504888135615 214.68390913550357,171.92695332614315 "/><polyline class="polyline" opacity="0.5" stroke="blue" points="151.9462982512219,172.0935672520118 214.90479890269944,171.76856113069678 "/><polyline class="polyline" opacity="0.5" stroke="blue" points="152.0381099480481,170.91004578824692 215.12548504107326,171.63381385385296 "/><polyline class="polyline" opacity="0.5" stroke="blue" points="152.14985479001004,169.7349344526743 215.34541731592392,171.52249087865607 "/><polyline class="polyline" opacity="0.5" stroke="blue" points="152.28158318932154,168.56868520616075 215.56404991494898,171.4343505330209 "/><polyline class="polyline" opacity="0.5" stroke="blue" points="152.43334036265648,167.41175194563874 215.7808421112043,171.36913035079186 "/><polyline class="polyline" opacity="0.5" stroke="blue" points="152.6051661866693,166.2645904348068 215.9952589264774,171.32654736885874 "/><polyline class="polyline" opacity="0.5" stroke="blue" points="152.79709504965484,165.1276582274681 216.20677179359024,171.30629846039855 "/><polyline class="polyline" opacity="0.5" stroke="blue" points="153.00915569945164,164.00141458325726 216.4148592161222,171.30806070419902 "/><polyline class="polyline" opacity="0.5" stroke="blue" points="153.2413710877035,162.88632037550673 216.61900742402236,171.33149178989993 "/><polyline class="polyline" opacity="0.5" stroke="blue" points="153.49375821060474,161.7828379910086 216.81871102356453,171.37623045887074 "/><polyline class="polyline" opacity="0.5" stroke="blue" points="153.76632794626585,160.69143122142773 217.013473640091,171.44189698032275 "/><polyline class="polyline" opacity="0.5" stroke="blue" points="154.05908488884978,159.6125651461294 217.20280855198706,171.52809366213432 "/><polyline class="polyline" opacity="0.5" stroke="blue" points="154.3720271796394,158.54670600618527 217.38623931433335,171.6344053957487 "/><polyline class="polyline" opacity="0.5" stroke="blue" points="154.7051463352105,157.4943210693305 217.56330037069307,171.7604002343858 "/><polyline class="polyline" opacity="0.5" stroke="blue" points="155.05842707289835,156.45587848564693 217.73353765150728,171.90563000369303 "/><polyline class="polyline" opacity="0.5" stroke="blue" points="155.43184713375797,155.43184713375797 217.89650915759677,172.06963094384585 "/><polyline class="polyline" opacity="0.5" stroke="blue" points="155.82537710323354,154.4226964573244 218.05178552729691,172.25192438199866 "/><polyline class="polyline" opacity="0.5" stroke="blue" points="156.23898022976596,153.4288962916419 218.1989505857888,172.45201743387804 "/><polyline class="polyline" opacity="0.5" stroke="blue" points="156.67261224158204,152.4509166801491 218.33760187523308,172.6694037332079 "/><polyline class="polyline" opacity="0.5" stroke="blue" points="157.12622116192415,151.48922768066552 218.4673511643603,172.90356418755715 "/><polyline class="polyline" opacity="0.5" stroke="blue" points="157.59974712299436,150.54429916118988 218.58782493622624,173.153967759107 "/><polyline class="polyline" opacity="0.5" stroke="blue" points="158.09312217890187,149.61660058510262 218.69866485290066,173.4200722687473 "/><polyline class="polyline" opacity="0.5" stroke="blue" points="158.6062701179191,148.70660078562904 218.79952819592307,173.70132522183036 "/><polyline class="polyline" opacity="0.5" stroke="blue" points="159.1391062743674,147.81476772943412 218.8900882814281,173.99716465383483 "/><polyline class="polyline" opacity="0.5" stroke="blue" points="159.69153734046887,146.94156826923705 218.97003484891962,174.30701999412537 "/><polyline class="polyline" opacity="0.5" stroke="blue" points="160.2634611785176,146.08746788534847 219.0390744227493,174.63031294593296 "/><polyline class="polyline" opacity="0.5" stroke="blue" points="160.8547666337396,145.25293041605354 219.09693064543978,174.96645838062722 "/><polyline class="polyline" opacity="0.5" stroke="blue" points="161.4653333482272,144.4384177767816 219.14334458207702,175.31486524430855 "/><polyline class="polyline" opacity="0.5" stroke="blue" points="162.09503157634884,143.644389668026 219.17807499508646,175.67493747470962 "/><polyline class="polyline" opacity="0.5" stroke="blue" points="162.74372200205323,142.87130327199668 219.200898588798,176.0460749263685 "/><polyline class="polyline" opacity="0.5" stroke="blue" points="163.41125555850033,142.11961293801295 219.21161022329807,176.427674302014 "/><polyline class="polyline" opacity="0.5" stroke="blue" points="164.09747325047056,141.3897698566699 219.2100230971621,176.81913008809363 "/><polyline class="polyline" opacity="0.5" stroke="blue" points="164.80220598001512,140.68222172283348 219.19596889875527,177.21983549236995 "/><polyline class="polyline" opacity="0.5" stroke="blue" points="165.52527437582938,139.99741238754973 219.16929792588647,177.6291833815163 "/><polyline class="polyline" opacity="0.5" stroke="blue" points="166.26648862684328,139.3357814989812 219.1298791736948,178.0465672166561 "/><polyline class="polyline" opacity="0.5" stroke="blue" points="167.02564832053787,138.697764132512 219.07760039074498,178.4713819848106 "/><polyline class="polyline" opacity="0.5" stroke="blue" points="167.80254228651103,138.0837904101943 219.0123681033998,178.90302512424987 "/><polyline class="polyline" opacity="0.5" stroke="blue" points="168.5969484458273,137.49428510974184 218.93410760863307,179.34089744177655 "/><polyline class="polyline" opacity="0.5" stroke="blue" points="169.40863366670035,136.92966726330783 218.84276293553467,179.78440402001743 "/><polyline class="polyline" opacity="0.5" stroke="blue" points="170.23735362706608,136.3903497463196 218.7382967758489,180.23295511284692 "/><polyline class="polyline" opacity="0.5" stroke="blue" points="171.08285268461685,135.87673885667743 218.62069038397277,180.68596702712486 "/><polyline class="polyline" opacity="0.5" stroke="blue" points="171.9448637548745,135.38923388466196 218.48994344692133,181.1428629889931 "/><polyline class="polyline" opacity="0.5" stroke="blue" points="172.8231081978898,134.92822667393017 218.3460739248479,181.60307399304514 "/><polyline class="polyline" opacity="0.5" stroke="blue" points="173.71729571416174,134.49410117402076 218.1891178627794,182.0660396327561 "/><polyline class="polyline" opacity="0.5" stroke="blue" points="174.62712425037606,134.08723298482568 218.01912917429883,182.53120891063915 "/><polyline class="polyline" opacity="0.5" stroke="blue" points="175.55227991556663,133.70798889352682 217.83617939797156,182.9980410266782 "/><polyline class="polyline" opacity="0.5" stroke="blue" points="176.49243690830593,133.35672640453478 217.6403574273742,183.46600614367114 "/><polyline class="polyline" opacity="0.5" stroke="blue" points="177.44725745553143,133.0337932630096 217.43176921563946,183.93458612820842 "/><polyline class="polyline" opacity="0.5" stroke="blue" points="178.4163917636147,132.73952697258233 217.21053745548295,184.40327526610417 "/><polyline class="polyline" opacity="0.5" stroke="blue" points="179.39947798227658,132.47425430793828 216.97680123572223,184.87158095118906 "/><polyline class="polyline" opacity="0.5" stroke="blue" points="180.39614218194734,132.23829082296476 216.73071567533964,185.3390243464708 "/><polyline class="polyline" opacity="0.5" stroke="blue" points="181.4059983451658,132.03194035520642 216.4724515361747,185.80514101676445 "/><polyline class="polyline" opacity="0.5" stroke="blue" points="182.4286483725995,131.8554945274123 216.20219481536253,186.26948153198867 "/><polyline class="polyline" opacity="0.5" stroke="blue" points="183.4636821042604,131.70923224699925 215.92014631865746,186.73161204042432 "/><polyline class="polyline" opacity="0.5" stroke="blue" points="184.51067735647558,131.59341920429742 215.62652121580118,187.19111481132296 "/><polyline class="polyline" opacity="0.5" stroke="blue" points="185.56919997515743,131.50830737048068 215.3215485791074,187.6475887463507 "/><polyline class="polyline" opacity="0.5" stroke="blue" points="186.63880390589955,131.4541344961245 215.0054709064439,188.1006498594431 "/><polyline class="polyline" opacity="0.5" stroke="blue" points="187.71903128140562,131.43112361137037 214.6785436297957,188.54993172473922 "/><polyline class="polyline" opacity="0.5" stroke="blue" points="188.80941252673296,131.4394825287112 214.3410346105927,188.9950858923496 "/><polyline class="polyline" opacity="0.5" stroke="blue" points="189.90946648281044,131.47940334944644 213.9932236229764,189.43578227180004 "/><polyline class="polyline" opacity="0.5" stroke="blue" points="191.01870054865907,131.55106197488772 213.63540182617328,189.87170948307292 "/><polyline class="polyline" opacity="0.5" stroke="blue" points="192.13661084271584,131.65461762342585 213.26787122712383,190.30257517524913 "/><polyline class="polyline" opacity="0.5" stroke="blue" points="193.2626823836258,131.79021235459854 212.89094413449968,190.72810631282604 "/><polyline class="polyline" opacity="0.5" stroke="blue" points="194.3963892908336,131.9579706013222 212.5049426052174,191.1480494298594 "/><polyline class="polyline" opacity="0.5" stroke="blue" points="195.53719500526586,132.15799871147584 212.11019788453171,191.562170852143 "/><polyline class="polyline" opacity="0.5" stroke="blue" points="196.68455253035484,132.39038450004347 211.70704984076139,191.97025688770202 "/><polyline class="polyline" opacity="0.5" stroke="blue" points="197.83790469361267,132.65519681303834 211.29584639566863,192.37211398593396 "/><polyline class="polyline" opacity="0.5" stroke="blue" points="198.99668442891542,132.95248510444614 210.87694295147787,192.76756886578318 "/><polyline class="polyline" opacity="0.5" stroke="blue" points="200.16031507961281,133.2822790274343 210.4507018154828,193.1564686133839 "/><polyline class="polyline" opacity="0.5" stroke="blue" points="201.32821072252466,133.64458804107906 210.0174916231509,193.53868074964953 "/><polyline class="polyline" opacity="0.5" stroke="blue" points="202.49977651283626,134.0394010338662 209.5776867605939,193.9140932683241 "/><polyline class="polyline" opacity="0.5" stroke="blue" points="203.67440904984656,134.4666859652176 209.1316667872303,194.2826146450463 "/><polyline class="polyline" opacity="0.5" stroke="blue" points="204.85149676347072,134.92638952629127 208.67981585942226,194.6441738180038 "/><polyline class="polyline" opacity="0.5" stroke="blue" points="206.03042032133558,135.4184368212887 208.22252215582537,194.99872014078144 "/><polyline class="polyline" opacity="0.5" stroke="blue" points="207.210553056252,135.9427310704933 207.76017730514397,195.3462233080248 "/><polyline class="polyline" opacity="0.5" stroke="blue" points="208.39126141378208,136.49915333623755 207.2931758169413,195.68667325455624 "/><polyline class="polyline" opacity="0.5" stroke="blue" points="209.5719054195609,137.08756227297758 206.8219145161064,196.02008002859105 "/><polyline class="polyline" opacity="0.5" stroke="blue" points="210.7518391659667,137.70779390261973 206.3467919815369,196.3464736397077 "/><polyline class="polyline" opacity="0.5" stroke="blue" points="211.93041131767083,138.35966141621276 205.86820798955142,196.66590388222798 "/><polyline class="polyline" opacity="0.5" stroke="blue" points="213.10696563553478,139.04295500307788 205.3865629625017,196.97844013466192 "/><polyline class="polyline" opacity="0.5" stroke="blue" points="214.28084151825536,139.75744170840446 204.90225742301303,197.284171135867 "/><polyline class="polyline" opacity="0.5" stroke="blue" points="215.45137456109762,140.50286532029233 204.41569145423867,197.58320473856196 "/><polyline class="polyline" opacity="0.5" stroke="blue" points="216.61789713098796,141.27894628716447 203.92726416647548,197.87566764082482 "/><polyline class="polyline" opacity="0.5" stroke="blue" points="217.77973895717997,142.08538166641708 203.43737317044847,198.16170509618902 "/><polyline class="polyline" opacity="0.5" stroke="blue" points="218.9362277366393,142.92184510510964 202.94641405753595,198.44148060293523 "/><polyline class="polyline" opacity="0.5" stroke="blue" points="220.08668975323752,143.78798685343023 202.45477988717172,198.71517557315534 "/><polyline class="polyline" opacity="0.5" stroke="blue" points="221.23045050978033,144.68343381159735 201.962860681629,198.98298898214472 "/><polyline class="polyline" opacity="0.5" stroke="blue" points="222.36683537184277,145.60778961078506 201.47104292835863,199.24513699865426 "/><polyline class="polyline" opacity="0.5" stroke="blue" points="223.49517022232465,146.56063472857454 200.97970909002785,199.50185259650846 "/><polyline class="polyline" opacity="0.5" stroke="blue" points="224.61478212558984,147.5415266393543 200.48923712237834,199.75338514806953 "/><polyline class="polyline" opacity="0.5" stroke="blue" points="225.725,148.55 200.0,200.0 "/><polyline class="polyline" opacity="0.5" stroke="blue" points="226.8251552976089,149.585566871076 199.51236525009597,200.24197803174775 "/><polyline class="polyline" opacity="0.5" stroke="blue" points="227.9145826897386,150.6477169737063 199.02669449429527,200.47961519714906 "/><polyline class="polyline" opacity="0.5" stroke="blue" points="228.9926207571178,151.73591798216472 198.54334299855594,200.71322204951608 "/><polyline class="polyline" opacity="0.5" stroke="blue" points="230.05861268322954,152.8496158521383 198.06265923118644,200.9431232505468 "/><polyline class="polyline" opacity="0.5" stroke="blue" points="231.11190694948,153.98823518451513 197.58498442900463,201.16965706336762 "/><polyline class="polyline" opacity="0.5" stroke="blue" points="232.15185803077588,155.1511796244482 197.110652171646,201.3931748299902 "/><polyline class="polyline" opacity="0.5" stroke="blue" points="233.17782709007204,156.33783229534185 196.63998796402785,201.61404043343865 "/><polyline class="polyline" opacity="0.5" stroke="blue" points="234.1891826704357,157.5475562673088 196.1733088269745,201.83262974477765 "/><polyline class="polyline" opacity="0.5" stroke="blue" points="235.18530138315748,158.77969505953695 195.7109228960101,202.04933005524805 "/><polyline class="polyline" opacity="0.5" stroke="blue" points="236.1655685904345,160.03357317590948 195.25312902832792,202.2645394936944 "/><polyline class="polyline" opacity="0.5" stroke="blue" points="237.12937908114543,161.30849667311372 194.80021641795295,202.47866642944993 "/><polyline class="polyline" opacity="0.5" stroke="blue" points="238.07613773824113,162.60375376037996 194.35246421912163,202.69212886082533 "/><polyline class="polyline" opacity="0.5" stroke="blue" points="239.00526019628222,163.91861542988846 193.91014117791534,202.90535378933365 "/><polyline class="polyline" opacity="0.5" stroke="blue" points="239.91617348766795,165.25233611679167 193.4735052721976,203.11877657977072 "/><polyline class="polyline" opacity="0.5" stroke="blue" points="240.8083166761195,166.60415438770116 193.04280335992087,203.332840306261 "/><polyline class="polyline" opacity="0.5" stroke="blue" points="241.6811414760047,167.9732936564027 192.61827083588747,203.5479950843727 "/><polyline class="polyline" opacity="0.5" stroke="blue" points="242.53411285612188,169.35896292547565 192.2001312970702,203.76469738940256 "/><polyline class="polyline" opacity="0.5" stroke="blue" points="243.36670962659207,170.76035755241 191.7885962166204,203.9834093609318 "/><polyline class="polyline" opacity="0.5" stroke="blue" points="244.17842500755344,172.1766600387393 191.38386462671593,204.20459809375905 "/><polyline class="polyline" opacity="0.5" stroke="blue" points="244.96876717839103,173.6070408406329 190.9861228104284,204.42873491532325 "/><polyline class="polyline" opacity="0.5" stroke="blue" points="245.73725980628967,175.05065919932662 190.5955440028164,204.65629464974367 "/><polyline class="polyline" opacity="0.5" stroke="blue" points="246.48344255294842,176.50666398970637 190.21228810148193,204.88775486861854 "/><polyline class="polyline" opacity="0.5" stroke="blue" points="247.20687155835554,177.97419458530717 189.8365013868571,205.12359512874585 "/><polyline class="polyline" opacity="0.5" stroke="blue" points="247.9071199005852,179.452381737937 189.46831625252105,205.36429619695463 "/><polyline class="polyline" opacity="0.5" stroke="blue" points="248.58377803064366,180.94034847009593 189.10785094588022,205.610339262264 "/><polyline class="polyline" opacity="0.5" stroke="blue" points="249.23645418146327,182.43721097832082 188.75520931957735,205.86220513562262 "/><polyline class="polyline" opacity="0.5" stroke="blue" points="249.86477475021553,183.94207954555986 188.41048059403116,206.12037343751797 "/><polyline class="polyline" opacity="0.5" stroke="blue" points="250.4683846531916,185.4540594606557 188.07373913154143,206.3853217737903 "/><polyline class="polyline" opacity="0.5" stroke="blue" points="251.0469476525769,186.97225194300313 187.74504422242967,206.657524900032 "/><polyline class="polyline" opacity="0.5" stroke="blue" points="251.6001466545283,188.4957550704362 187.42443988372042,206.9374538750065 "/><polyline class="polyline" opacity="0.5" stroke="blue" points="252.12768397804422,190.02366470839988 187.1119546709017,207.2255752035775 "/><polyline class="polyline" opacity="0.5" stroke="blue" points="252.62928159420449,191.5550754384677 186.8076015033367,207.5223499697006 "/><polyline class="polyline" opacity="0.5" stroke="blue" points="253.10468133543935,193.08908148427585 186.5113775039324,207.82823296009445 "/><polyline class="polyline" opacity="0.5" stroke="blue" points="253.55364507457648,194.62477763296909 186.22326385369996,208.1436717792788 "/><polyline class="polyline" opacity="0.5" stroke="blue" points="253.97595487349804,196.1612601502745 185.94322566187358,208.46910595674 "/><polyline class="polyline" opacity="0.5" stroke="blue" points="254.37141310132853,197.69762768735686 185.67121185228152,208.8049660470619 "/><polyline class="polyline" opacity="0.5" stroke="blue" points="254.73984252215888,199.2329821776439 185.40715506668795,209.15167272394078 "/><polyline class="polyline" opacity="0.5" stroke="blue" points="255.08108635239748,200.76642972185948 185.15097158584973,209.50963586908694 "/><polyline class="polyline" opacity="0.5" stroke="blue" points="255.39500828792137,202.29708145954936 184.9025612690503,209.87925365710208 "/><polyline class="polyline" opacity="0.5" stroke="blue" points="255.68149250128502,203.82405442544513 184.66180751289232,210.26091163751119 "/><polyline class="polyline" opacity="0.5" stroke="blue" points="255.94044360932196,205.3464723890691 184.4285772301437,210.65498181521838 "/><polyline class="polyline" opacity="0.5" stroke="blue" points="256.1717866115536,206.86346667605451 184.2027208494426,211.06182173074941 "/><polyline class="polyline" opacity="0.5" stroke="blue" points="256.3754667998943,208.37417696972116 183.98407233667317,211.48177354173748 "/><polyline class="polyline" opacity="0.5" stroke="blue" points="256.551449640214,209.87775209152747 183.77244923882515,211.915163107203 "/><polyline class="polyline" opacity="0.5" stroke="blue" points="256.6997206263892,211.373350759093 183.5676527511496,212.3622990762734 "/><polyline class="polyline" opacity="0.5" stroke="blue" points="256.82028510753815,212.8601423205725 183.36946780841402,212.82347198308207 "/><polyline class="polyline" opacity="0.5" stroke="blue" points="256.9131680891991,214.33730746424487 183.177663201047,213.29895334967958 "/><polyline class="polyline" opacity="0.5" stroke="blue" points="256.97841400926734,215.8040389022676 182.99199171694724,213.7889947988789 "/><polyline class="polyline" opacity="0.5" stroke="blue" points="257.0160864895637,217.25954202763916 182.81219030970385,214.29382717904775 "/><polyline class="polyline" opacity="0.5" stroke="blue" points="257.0262680639532,218.70303554349883 182.63798029394945,214.81365970294306 "/><polyline class="polyline" opacity="0.5" stroke="blue" points="257.0090598839825,220.13375206398973 182.46906756852792,215.34867910276517 "/><polyline class="polyline" opacity="0.5" stroke="blue" points="256.964581403044,221.55093868599937 182.3051428681198,215.89904880368482 "/><polyline class="polyline" opacity="0.5" stroke="blue" points="256.8929700401121,222.9538575311892 182.14588204391762,216.46490811816608 "/><polyline class="polyline" opacity="0.5" stroke="blue" points="256.79438082412895,224.34178625781277 181.99094637389058,217.04637146347207 "/><polyline class="polyline" opacity="0.5" stroke="blue" points="256.6689860201469,225.71401854191987 181.8399829031145,217.6435276047973 "/><polyline class="polyline" opacity="0.5" stroke="blue" points="256.5169747383566,227.0698645276296 181.69262481457744,218.2564389265183 "/><polyline class="polyline" opacity="0.5" stroke="blue" points="256.3385525271492,228.4086512462506 181.54849183079483,218.885140734094 "/><polyline class="polyline" opacity="0.5" stroke="blue" points="256.133940951377,229.7297230041117 181.40719064648908,219.52964058917644 "/><polyline class="polyline" opacity="0.5" stroke="blue" points="255.90337715698493,231.0324417390538 181.26831539250009,220.18991768051282 "/><polyline class="polyline" opacity="0.5" stroke="blue" points="255.6471134231942,232.31618734561957 181.1314481310009,220.86592223322694 "/><polyline class="polyline" opacity="0.5" stroke="blue" points="255.36541670341768,233.58035796905588 180.99615938199366,221.55757495906437 "/><polyline class="polyline" opacity="0.5" stroke="blue" points="255.0585681560884,234.8243702683272 180.8620086809559,222.26476655016972 "/><polyline class="polyline" opacity="0.5" stroke="blue" points="254.72686266657354,236.04765964840948 180.72854516739883,222.9873572189344 "/><polyline class="polyline" opacity="0.5" stroke="blue" points="254.37060836133776,237.24968046221113 180.59530820398246,223.72517628640975 "/><polyline class="polyline" opacity="0.5" stroke="blue" points="253.99012611550623,238.42990618253287 180.46182802571684,224.4780218217233 "/><polyline class="polyline" opacity="0.5" stroke="blue" points="253.58574905496104,239.58782954454722 180.32762641865295,225.24566033486363 "/><polyline class="polyline" opacity="0.5" stroke="blue" points="253.15782205408485,240.72296265933772 180.19221742734265,226.02782652511152 "/><polyline class="polyline" opacity="0.5" stroke="blue" points="252.70670123024215,241.8348370990979 180.05510809021862,226.82422308729457 "/><polyline class="polyline" opacity="0.5" stroke="blue" points="252.2327534360643,242.92300395464247 179.91579920191438,227.63452057792324 "/><polyline class="polyline" opacity="0.5" stroke="blue" points="251.73635575057415,243.98703386593476 179.77378610141324,228.45835734313505 "/><polyline class="polyline" opacity="0.5" stroke="blue" points="251.2178949701579,245.026517026379 179.6285594847829,229.29533951022523 "/><polyline class="polyline" opacity="0.5" stroke="blue" points="250.6777671003569,246.0410631616695 179.47960624112218,230.14504104437998 "/><polyline class="polyline" opacity="0.5" stroke="blue" points="250.11637684941923,247.03030148402513 179.32641031021404,231.0070038720514 "/><polyline class="polyline" opacity="0.5" stroke="blue" points="249.53413712451322,247.9938806226721 179.16845356025337,231.88073807222125 "/><polyline class="polyline" opacity="0.5" stroke="blue" points="248.93146853146854,248.93146853146854 179.0052166838912,232.76572213659847 "/><polyline class="polyline" opacity="0.5" stroke="blue" points="248.30879887886996,249.8427523745876 178.8361801107177,233.66140329957463 "/><polyline class="polyline" opacity="0.5" stroke="blue" points="247.6665626872898,250.7274383912021 178.66082493418892,234.56719793853702 "/><polyline class="polyline" opacity="0.5" stroke="blue" points="247.00520070440427,251.58525174012564 178.47863385089275,235.48249204489446 "/><polyline class="polyline" opacity="0.5" stroke="blue" points="246.32515942669573,252.41593632538695 178.28909210994604,236.40664176592628 "/><polyline class="polyline" opacity="0.5" stroke="blue" points="245.6268906284024,253.2192546037177 178.09168847021925,237.3389740173032 "/><polyline class="polyline" opacity="0.5" stroke="blue" points="244.91085089833382,253.99498737494739 177.88591616299672,238.2787871658664 "/><polyline class="polyline" opacity="0.5" stroke="blue" points="244.17750118512782,254.74293355629828 177.67127385760435,239.22535178197901 "/><polyline class="polyline" opacity="0.5" stroke="blue" points="243.42730635148226,255.46290994157744 177.4472666274672,240.1779114604907 "/><polyline class="polyline" opacity="0.5" stroke="blue" points="242.66073473785292,256.15475094625924 177.21340691400349,241.1356837090774 "/><polyline class="polyline" opacity="0.5" stroke="blue" points="241.8782577360666,256.8183083394457 176.9692154857159,242.0978609024424 "/><polyline class="polyline" opacity="0.5" stroke="blue" points="241.08034937325675,257.45345096368686 176.71422238980796,243.06361130058562 "/><polyline class="polyline" opacity="0.5" stroke="blue" points="240.26748590648938,258.0600644436293 176.44796789363286,244.03208012907513 "/><polyline class="polyline" opacity="0.5" stroke="blue" points="239.44014542840551,258.63805088445207 176.1700034132744,245.0023907189855 "/><polyline class="polyline" opacity="0.5" stroke="blue" points="238.5988074841676,259.1873285610313 175.87989242656624,245.97364570390351 "/><polyline class="polyline" opacity="0.5" stroke="blue" points="237.74395269996057,259.70783159875793 175.57721136787606,246.94492827114595 "/><polyline class="polyline" opacity="0.5" stroke="blue" points="236.87606242325836,260.1995096469166 175.26155050201334,247.91530346409243 "/><polyline class="polyline" opacity="0.5" stroke="blue" points="235.99561837503308,260.6623275455099 174.93251477466896,248.8838195322985 "/><polyline class="polyline" opacity="0.5" stroke="blue" points="235.1031023140476,261.0962649863909 174.58972463685527,249.8495093258383 "/><polyline class="polyline" opacity="0.5" stroke="blue" points="234.1989957133398,261.501316169545 174.23281684089108,250.81139173011834 "/><polyline class="polyline" opacity="0.5" stroke="blue" points="233.28377944897343,261.87748945533497 173.86144520556434,251.76847313721873 "/><polyline class="polyline" opacity="0.5" stroke="blue" points="232.35793350110004,262.22480701349775 173.475281348207,252.71974894964563 "/><polyline class="polyline" opacity="0.5" stroke="blue" points="231.42193666734664,262.5433044696558 173.0740153815307,253.66420511222958 "/><polyline class="polyline" opacity="0.5" stroke="blue" points="230.47626628851697,262.8330305500766 172.65735657319834,254.60081966777278 "/><polyline class="polyline" opacity="0.5" stroke="blue" points="229.52139798656418,263.0940467253869 172.22503396624322,255.52856433194123 "/><polyline class="polyline" opacity="0.5" stroke="blue" points="228.5578054147717,263.3264268539185 171.77679695859524,256.4464060828096 "/><polyline class="polyline" opacity="0.5" stroke="blue" points="227.58596002005075,263.5302568253343 171.31241584013122,257.35330876040507 "/><polyline class="polyline" opacity="0.5" stroke="blue" points="226.60633081724546,263.705634205152 170.83168228583224,258.24823467155403 "/><polyline class="polyline" opacity="0.5" stroke="blue" points="225.61938417531036,263.8526678807568 170.3344098038021,259.1301461953219 "/><polyline class="polyline" opacity="0.5" stroke="blue" points="224.62558361520894,263.9714777094598 169.82043413708413,259.9980073843439 "/><polyline class="polyline" opacity="0.5" stroke="blue" points="223.6253896193636,264.06219416913416 169.28961361839518,260.85078555737374 "/><polyline class="polyline" opacity="0.5" stroke="blue" points="222.6192594524682,264.12495801192904 168.74182947708613,261.68745287843774 "/><polyline class="polyline" opacity="0.5" stroke="blue" points="221.6076469934613,264.15991992153215 168.17698609783037,262.5069879180558 "/><polyline class="polyline" opacity="0.5" stroke="blue" points="220.59100257844244,264.1672401744243 167.59501123073343,263.308377192095 "/><polyline class="polyline" opacity="0.5" stroke="blue" points="219.5697728543035,264.14708830553946 166.99585615275356,264.09061667394434 "/><polyline class="polyline" opacity="0.5" stroke="blue" points="218.54440064283085,264.0996427787171 166.37949578051297,264.85271327584314 "/><polyline class="polyline" opacity="0.5" stroke="blue" points="217.51532481502903,264.025090662306 165.74592873477255,265.59368629536016 "/><polyline class="polyline" opacity="0.5" stroke="blue" points="216.48298017540296,263.92362731024997 165.0951773570298,266.3125688232035 "/><polyline class="polyline" opacity="0.5" stroke="blue" points="215.44779735593156,263.79545604896344 164.42728767888335,267.00840910874 "/><polyline class="polyline" opacity="0.5" stroke="blue" points="214.41020271945408,263.64078787027523 163.7423293449845,267.68027187982193 "/><polyline class="polyline" opacity="0.5" stroke="blue" points="213.3706182721886,263.45984113069755 163.04039549056876,268.3272396137451 "/><polyline class="polyline" opacity="0.5" stroke="blue" points="212.3294615850951,263.2528412572504 162.32160257472307,268.94841375640704 "/><polyline class="polyline" opacity="0.5" stroke="blue" points="211.28714572379067,263.0200204600502 161.5860901707007,269.54291588698914 "/><polyline class="polyline" opacity="0.5" stroke="blue" points="210.24407918672358,262.761617451848 160.83402071474137,270.10988882574475 "/><polyline class="polyline" opacity="0.5" stroke="blue" points="209.20066585130758,262.4778771746808 160.06557921499075,270.64849768275025 "/><polyline class="polyline" opacity="0.5" stroke="blue" points="208.1573049277196,262.1690505337799 159.2809729222399,271.1579308457467 "/><polyline class="polyline" opacity="0.5" stroke="blue" points="207.11439092005935,261.8353941388578 158.4804309643181,271.6374009054827 "/><polyline class="polyline" opacity="0.5" stroke="blue" points="206.07231359457276,261.47717005287865 157.6642039460776,272.08614551724656 "/><polyline class="polyline" opacity="0.5" stroke="blue" points="205.03145795463843,261.09464554839695 156.83256351699856,272.5034281975594 "/><polyline class="polyline" opacity="0.5" stroke="blue" points="203.9922042222209,260.6880928715321 155.98580190852232,272.88853905527736 "/><polyline class="polyline" opacity="0.5" stroke="blue" points="202.95492782549215,260.25778901363043 155.12423144328724,273.2407954566304 "/><polyline class="polyline" opacity="0.5" stroke="blue" points="201.9199993923285,259.80401549064936 154.2481840184962,273.55954262399274 "/><polyline class="polyline" opacity="0.5" stroke="blue" points="200.8877847493897,259.3270581302836 153.35801056568584,273.84415416844786 "/><polyline class="polyline" opacity="0.5" stroke="blue" points="199.85864492649355,258.8272068668399 152.4540804892004,274.09403255646583 "/><polyline class="polyline" opacity="0.5" stroke="blue" points="198.83293616599858,258.3047555438519 151.53678108568562,274.3086095112604 "/><polyline class="polyline" opacity="0.5" stroke="blue" points="197.81100993691393,257.7600017244143 150.60651694693007,274.4873463496305 "/><polyline class="polyline" opacity="0.5" stroke="blue" points="196.7932129534607,257.1932465092051 149.66370934837263,274.62973425531794 "/><polyline class="polyline" opacity="0.5" stroke="blue" points="195.7798871978088,256.6047943621505 148.70879562557886,274.73529449012653 "/><polyline class="polyline" opacity="0.5" stroke="blue" points="194.77136994672335,255.99495294367964 147.74222854096467,274.8035785442524 "/><polyline class="polyline" opacity="0.5" stroke="blue" points="193.76799380185548,255.36403295150294 146.76447564300594,274.83416822745977 "/><polyline class="polyline" opacity="0.5" stroke="blue" points="192.77008672342052,254.7123479688431 145.77601862013256,274.8266757029128 "/><polyline class="polyline" opacity="0.5" stroke="blue" points="191.77797206700833,254.04021432003464 144.7773526514434,274.78074346563346 "/><polyline class="polyline" opacity="0.5" stroke="blue" points="190.7919686232794,253.3479509334025 143.76898575632435,274.69604426769837 "/><polyline class="polyline" opacity="0.5" stroke="blue" points="189.81239066030233,252.63587921132245 142.75143814497616,274.5722809924181 "/><polyline class="polyline" opacity="0.5" stroke="blue" points="188.83954796829784,251.90432290735913 141.72524157178668,274.40918647985717 "/><polyline class="polyline" opacity="0.5" stroke="blue" points="187.87374590655492,251.15360801037042 140.69093869339687,274.20652330615104 "/><polyline class="polyline" opacity="0.5" stroke="blue" points="186.91528545229497,250.38406263546273 139.64908243322532,273.96408351916136 "/><polyline class="polyline" opacity="0.5" stroke="blue" points="185.96446325126203,249.59601692167394 138.60023535412265,273.68168833308 "/><polyline class="polyline" opacity="0.5" stroke="blue" points="185.021571669826,248.78980293625975 137.54496904073346,273.3591877846489 "/><polyline class="polyline" opacity="0.5" stroke="blue" points="184.08689884838688,247.96575458545004 136.48386349304306,272.99646035370205 "/><polyline class="polyline" opacity="0.5" stroke="blue" points="183.1607287558778,247.1242075315414 135.41750653248636,272.5934125507648 "/><polyline class="polyline" opacity="0.5" stroke="blue" points="182.24334124516864,246.26549911618756 134.34649322189568,272.1499784744618 "/><polyline class="polyline" opacity="0.5" stroke="blue" points="181.3350121091754,245.38996828974444 133.27142530045626,271.66611934148426 "/><polyline class="polyline" opacity="0.5" stroke="blue" points="180.43601313748945,244.49795554652627 132.1929106347386,271.14182299186143 "/><polyline class="polyline" opacity="0.5" stroke="blue" points="179.54661217334254,243.58980286582386 131.11156268676902,270.5771033722594 "/><polyline class="polyline" opacity="0.5" stroke="blue" points="178.66707317073173,242.6658536585366 130.02800000000002,269.972 "/><polyline class="polyline" opacity="0.5" stroke="blue" points="177.7976562515303,241.7264527192645 128.94284570393506,269.3265774104527 "/><polyline class="polyline" opacity="0.5" stroke="blue" points="176.9386177624182,240.77194618370763 127.85672703806578,268.64092459040427 "/><polyline class="polyline" opacity="0.5" stroke="blue" points="176.09021033146868,239.80268149121622 126.77027489567662,267.9151543999528 "/><polyline class="polyline" opacity="0.5" stroke="blue" points="175.25268292423408,238.8190073523357 125.68412338797967,267.1494029854118 "/><polyline class="polyline" opacity="0.5" stroke="blue" points="174.42628089917605,237.82127372118688 124.5989094289425,266.343829185635 "/><polyline class="polyline" opacity="0.5" stroke="blue" points="173.6112460622922,236.80983177252273 123.5152723410858,265.4986139341001 "/><polyline class="polyline" opacity="0.5" stroke="blue" points="172.80781672079354,235.78503388330043 122.43385348243578,264.61395965900687 "/><polyline class="polyline" opacity="0.5" stroke="blue" points="172.01622773569352,234.74723361860856 121.35529589473443,263.6900896835604 "/><polyline class="polyline" opacity="0.5" stroke="blue" points="171.23671057317043,233.69678572178583 120.28024397292528,262.72724762851936 "/><polyline class="polyline" opacity="0.5" stroke="blue" points="170.4694933545713,232.63404610856873 119.20934315585873,261.7256968189988 "/><polyline class="polyline" opacity="0.5" stroke="blue" points="169.7148009049291,231.55937186510576 118.14323963808505,260.6857196974232 "/><polyline class="polyline" opacity="0.5" stroke="blue" points="168.97285479986618,230.47312124967235 117.0825801025319,259.607617244427 "/><polyline class="polyline" opacity="0.5" stroke="blue" points="168.2438734107642,229.37565369792287 116.02801147379911,258.49170840940434 "/><polyline class="polyline" opacity="0.5" stroke="blue" points="167.52807194808003,228.2673298315138 114.98018069173781,257.3383295523133 "/><polyline class="polyline" opacity="0.5" stroke="blue" points="166.82566250269463,227.1485114699334 113.9397345049271,256.14783389823845 "/><polyline class="polyline" opacity="0.5" stroke="blue" points="166.13685408518094,226.01956164536998 112.90731928359938,254.92059100612144 "/><polyline class="polyline" opacity="0.5" stroke="blue" points="165.46185266288293,224.88084462045322 111.88358085152042,253.65698625297105 "/><polyline class="polyline" opacity="0.5" stroke="blue" points="164.80086119469897,223.73272590869996 110.8691643362788,252.35742033476745 "/><polyline class="polyline" opacity="0.5" stroke="blue" points="164.1540796634672,222.57557229749807 109.864714037397,251.0223087851845 "/><polyline class="polyline" opacity="0.5" stroke="blue" points="163.52170510585066,221.40975187345742 108.87087331163265,249.65208151315719 "/><polyline class="polyline" opacity="0.5" stroke="blue" points="162.90393163962602,220.23563404996057 107.88828447480468,248.24718236023404 "/><polyline class="polyline" opacity="0.5" stroke="blue" points="162.3009504882786,219.05358959674095 106.91758871943969,246.8080686785641 "/><polyline class="polyline" opacity="0.5" stroke="blue" points="161.71295000281253,217.86399067132 105.95942604750688,245.33521093028486 "/><polyline class="polyline" opacity="0.5" stroke="blue" points="161.14011568068332,216.66721085212836 105.01443521747588,243.82909230898952 "/><polyline class="polyline" opacity="0.5" stroke="blue" points="160.5826301817665,215.46362517313963 104.08325370490931,242.290208383876 "/><polyline class="polyline" opacity="0.5" stroke="blue" points="160.04067334127473,214.25361015984302 103.16651767577503,240.7190667671006 "/><polyline class="polyline" opacity="0.5" stroke="blue" points="159.51442217954047,213.03754386637777 102.26486197164186,239.1161868047814 "/><polyline class="polyline" opacity="0.5" stroke="blue" points="159.004050908582,211.81580591365412 101.37892010590322,237.48209929202847 "/><polyline class="polyline" opacity="0.5" stroke="blue" points="158.50973093537345,210.58877752828138 100.50932427015233,235.8173462123048 "/><polyline class="polyline" opacity="0.5" stroke="blue" points="158.03163086174192,209.35684158212553 99.65670534982036,234.1224805013576 "/><polyline class="polyline" opacity="0.5" stroke="blue" points="157.56991648081552,208.12038263231233 98.82169294816845,232.39806583589296 "/><polyline class="polyline" opacity="0.5" stroke="blue" points="157.12475076995042,206.87978696149514 98.0049154177147,230.64467644710757 "/><polyline class="polyline" opacity="0.5" stroke="blue" points="156.69629388006496,205.6354426182013 97.20699989816215,228.86289695913018 "/><polyline class="polyline" opacity="0.5" stroke="blue" points="156.28470312131304,204.38773945707132 96.42857235988322,227.05332225237254 "/><polyline class="polyline" opacity="0.5" stroke="blue" points="155.8901329450297,203.13706917880108 95.67025765200303,225.21655735172945 "/><polyline class="polyline" opacity="0.5" stroke="blue" points="155.51273492188494,201.88382536959602 94.93267955411477,223.35321733952046 "/><polyline class="polyline" opacity="0.5" stroke="blue" points="155.1526577161842,200.6284035399456 94.2164608306515,221.463927293015 "/><polyline class="polyline" opacity="0.5" stroke="blue" points="154.8100470562556,199.37120116252007 93.52222328692368,219.5493222463307 "/><polyline class="polyline" opacity="0.5" stroke="blue" points="154.48504570086777,198.11261770899367 92.85058782583002,217.61004717645218 "/><polyline class="polyline" opacity="0.5" stroke="blue" points="154.17779340162318,196.85305468559164 92.20217450423114,215.64675701306948 "/><polyline class="polyline" opacity="0.5" stroke="blue" points="153.88842686127637,195.59291566716058 91.57760258797292,213.66011667189434 "/><polyline class="polyline" opacity="0.5" stroke="blue" points="153.61707968792783,194.33260632955333 90.9774906045318,211.65080111106414 "/><polyline class="polyline" opacity="0.5" stroke="blue" points="153.36388234504793,193.0725344801218 90.40245639224757,209.61949541020718 "/><polyline class="polyline" opacity="0.5" stroke="blue" points="153.12896209728882,191.81311008610567 89.85311714509537,207.566894871696 "/><polyline class="polyline" opacity="0.5" stroke="blue" points="152.91244295204467,190.55474530070353 89.33008945194227,205.4937051435795 "/><polyline class="polyline" opacity="0.5" stroke="blue" points="152.71444559672526,189.297854486608 88.83398932921858,203.40064236363654 "/><polyline class="polyline" opacity="0.5" stroke="blue" points="152.5350873317099,188.04285423678684 88.36543224592445,201.28843332395937 "/><polyline class="polyline" opacity="0.5" stroke="blue" points="152.37448199895505,186.79016339228497 87.92503313988023,199.15781565542787 "/><polyline class="polyline" opacity="0.5" stroke="blue" points="152.23273990623076,185.5402030568252 87.51340642411645,197.00953803139893 "/><polyline class="polyline" opacity="0.5" stroke="blue" points="152.10996774696693,184.29339660797555 87.13116598228518,194.84436038988562 "/><polyline class="polyline" opacity="0.5" stroke="blue" points="152.00626851569422,183.05016970465417 86.7789251519624,192.66305417346226 "/><polyline class="polyline" opacity="0.5" stroke="blue" points="151.92174141907023,181.81095029073845 86.45729669469655,190.46640258608542 "/><polyline class="polyline" opacity="0.5" stroke="blue" points="151.85648178248545,180.5761685945397 86.16689275164384,188.25520086597004 "/><polyline class="polyline" opacity="0.5" stroke="blue" points="151.81058095225035,179.34625712390653 85.90832478361712,186.03025657361712 "/><polyline class="polyline" opacity="0.5" stroke="blue" points="151.78412619336976,178.1216506567141 85.68220349435893,183.7923898940341 "/><polyline class="polyline" opacity="0.5" stroke="blue" points="151.77720058291735,176.9027862264971 85.48913873583699,181.54243395214203 "/><polyline class="polyline" opacity="0.5" stroke="blue" points="151.7898828990288,175.690103102979 85.32973939434238,179.28123514030185 "/><polyline class="polyline" opacity="0.5" stroke="blue" points="151.82224750554016,174.4840427672519 85.2046132561589,177.00965345684273 "/><polyline class="polyline" opacity="0.5" stroke="blue" points="151.8743642323037,173.28504888135618 85.11436685155611,174.7285628544085 "/><polyline class="polyline" opacity="0.5" stroke="blue" points="151.9462982512219,172.09356725201175 85.05960527584584,172.4388515968829 "/><polyline class="polyline" opacity="0.5" stroke="blue" points="152.0381099480481,170.9100457882469 85.0409319862282,170.14142262358058 "/><polyline class="polyline" opacity="0.5" stroke="blue" points="152.14985479001004,169.73493445267434 85.05894857314185,167.83719391933036 "/><polyline class="polyline" opacity="0.5" stroke="blue" points="152.28158318932154,168.56868520616075 85.11425450482292,165.52709888899784 "/><polyline class="polyline" opacity="0.5" stroke="blue" points="152.43334036265648,167.41175194563868 85.2074468437666,163.21208673492845 "/><polyline class="polyline" opacity="0.5" stroke="blue" points="152.6051661866693,166.2645904348068 85.33911993378021,160.89312283570294 "/><polyline class="polyline" opacity="0.5" stroke="blue" points="152.79709504965484,165.12765822746812 85.50986505630931,158.57118912452336 "/><polyline class="polyline" opacity="0.5" stroke="blue" points="153.00915569945164,164.00141458325723 85.72027005471823,156.24728446546237 "/><polyline class="polyline" opacity="0.5" stroke="blue" points="153.24137108770353,162.88632037550667 85.97091892520604,153.9224250257132 "/><polyline class="polyline" opacity="0.5" stroke="blue" points="153.49375821060474,161.78283799100862 86.26239137304175,151.59764464189402 "/><polyline class="polyline" opacity="0.5" stroke="blue" points="153.76632794626582,160.69143122142773 86.59526233281292,149.27399517835875 "/><polyline class="polyline" opacity="0.5" stroke="blue" points="154.05908488884978,159.61256514612938 86.97010145139245,146.95254687537462 "/><polyline class="polyline" opacity="0.5" stroke="blue" points="154.3720271796394,158.54670600618525 87.38747253234531,144.6343886849171 "/><polyline class="polyline" opacity="0.5" stroke="blue" points="154.7051463352105,157.4943210693305 87.84793294051974,142.3206285917364 "/><polyline class="polyline" opacity="0.5" stroke="blue" points="155.05842707289835,156.45587848564693 88.35203296559678,140.01239391723828 "/><polyline class="polyline" opacity="0.5" stroke="blue" points="155.43184713375797,155.43184713375797 88.90031514340426,137.710831603617 "/><polyline class="polyline" opacity="0.5" stroke="blue" points="155.82537710323354,154.42269645732438 89.49331353384697,135.4171084755626 "/><polyline class="polyline" opacity="0.5" stroke="blue" points="156.23898022976596,153.4288962916419 90.13155295435105,133.1324114767563 "/><polyline class="polyline" opacity="0.5" stroke="blue" points="156.67261224158202,152.45091668014908 90.81554816778272,130.85794787825466 "/><polyline class="polyline" opacity="0.5" stroke="blue" points="157.12622116192418,151.4892276806655 91.54580302386366,128.59494545574864 "/><polyline class="polyline" opacity="0.5" stroke="blue" points="157.59974712299436,150.54429916118988 92.32280955318868,126.34465263256914 "/><polyline class="polyline" opacity="0.5" stroke="blue" points="158.09312217890187,149.61660058510262 93.14704701303545,124.1083385852013 "/><polyline class="polyline" opacity="0.5" stroke="blue" points="158.6062701179191,148.706600785629 94.018980884254,121.88729330795958 "/><polyline class="polyline" opacity="0.5" stroke="blue" points="159.13910627436744,147.8147677294341 94.93906181863936,119.68282763336306 "/><polyline class="polyline" opacity="0.5" stroke="blue" points="159.69153734046887,146.9415682692371 95.90772453630937,117.49627320465314 "/><polyline class="polyline" opacity="0.5" stroke="blue" points="160.26346117851756,146.0874678853485 96.92538667275126,115.32898239678974 "/><polyline class="polyline" opacity="0.5" stroke="blue" points="160.85476663373962,145.2529304160535 97.99244757534717,113.18232818217582 "/><polyline class="polyline" opacity="0.5" stroke="blue" points="161.46533334822723,144.43841777678153 99.10928704936104,111.05770393726392 "/><polyline class="polyline" opacity="0.5" stroke="blue" points="162.09503157634884,143.64438966802607 100.27626405354371,108.95652318612962 "/><polyline class="polyline" opacity="0.5" stroke="blue" points="162.7437220020532,142.87130327199668 101.49371534571804,106.88021927702154 "/><polyline class="polyline" opacity="0.5" stroke="blue" points="163.41125555850033,142.11961293801292 102.76195407891254,104.8302449878452 "/><polyline class="polyline" opacity="0.5" stroke="blue" points="164.09747325047059,141.3897698566699 104.08126834885094,102.8080720564896 "/><polyline class="polyline" opacity="0.5" stroke="blue" points="164.80220598001512,140.68222172283348 105.45191969384797,100.81519063187952 "/><polyline class="polyline" opacity="0.5" stroke="blue" points="165.52527437582938,139.99741238754967 106.87414154843174,98.8531086416201 "/><polyline class="polyline" opacity="0.5" stroke="blue" points="166.26648862684334,139.3357814989812 108.34813765229552,96.92335107211095 "/><polyline class="polyline" opacity="0.5" stroke="blue" points="167.02564832053787,138.69776413251202 109.87408041648779,95.02745915702488 "/><polyline class="polyline" opacity="0.5" stroke="blue" points="167.80254228651103,138.08379041019427 111.45210924906831,93.166989470101 "/><polyline class="polyline" opacity="0.5" stroke="blue" points="168.59694844582734,137.49428510974184 113.08232884279577,91.34351291827136 "/><polyline class="polyline" opacity="0.5" stroke="blue" points="169.40863366670038,136.9296672633078 114.76480742777349,89.55861363123847 "/><polyline class="polyline" opacity="0.5" stroke="blue" points="170.23735362706606,136.3903497463196 116.49957499234984,87.81388774374936 "/><polyline class="polyline" opacity="0.5" stroke="blue" points="171.08285268461685,135.87673885667743 118.28662147596197,86.11094206696845 "/><polyline class="polyline" opacity="0.5" stroke="blue" points="171.94486375487452,135.38923388466193 120.12589493801566,84.45139264554639 "/><polyline class="polyline" opacity="0.5" stroke="blue" points="172.82310819788984,134.9282266739301 122.01729970731576,82.83686319719901 "/><polyline class="polyline" opacity="0.5" stroke="blue" points="173.71729571416174,134.49410117402076 123.96069451699337,81.26898343188427 "/><polyline class="polyline" opacity="0.5" stroke="blue" points="174.62712425037606,134.08723298482568 125.95589063032004,79.74938724795526 "/><polyline class="polyline" opacity="0.5" stroke="blue" points="175.55227991556666,133.70798889352682 128.00264996324893,78.27971080301946 "/><polyline class="polyline" opacity="0.5" stroke="blue" points="176.49243690830588,133.3567264045348 130.10068320998928,76.8615904576091 "/><polyline class="polyline" opacity="0.5" stroke="blue" points="177.44725745553143,133.0337932630096 132.24964797837706,75.49666059020184 "/><polyline class="polyline" opacity="0.5" stroke="blue" points="178.41639176361474,132.73952697258233 134.44914694227165,74.18655128260183 "/><polyline class="polyline" opacity="0.5" stroke="blue" points="179.3994779822766,132.47425430793822 136.6987260186749,72.93288587520628 "/><polyline class="polyline" opacity="0.5" stroke="blue" points="180.3961421819473,132.23829082296473 138.99787257771993,71.73727839225285 "/><polyline class="polyline" opacity="0.5" stroke="blue" points="181.4059983451658,132.03194035520644 141.34601369413036,70.60133083774903 "/><polyline class="polyline" opacity="0.5" stroke="blue" points="182.42864837259953,131.8554945274123 143.74251444917832,69.52663036344711 "/><polyline class="polyline" opacity="0.5" stroke="blue" points="183.46368210426044,131.70923224699925 146.18667629259184,68.51474631092702 "/><polyline class="polyline" opacity="0.5" stroke="blue" points="184.51067735647558,131.59341920429742 148.67773547424918,67.5672271306033 "/><polyline class="polyline" opacity="0.5" stroke="blue" points="185.56919997515743,131.50830737048065 151.214861555864,66.68559718125795 "/><polyline class="polyline" opacity="0.5" stroke="blue" points="186.6388039058996,131.45413449612448 153.79715601319305,65.87135341453993 "/><polyline class="polyline" opacity="0.5" stroke="blue" points="187.71903128140568,131.43112361137037 156.42365093959398,65.12596194973565 "/><polyline class="polyline" opacity="0.5" stroke="blue" points="188.80941252673296,131.43948252871124 159.09330786200047,64.45085454502657 "/><polyline class="polyline" opacity="0.5" stroke="blue" points="189.90946648281044,131.47940334944644 161.805016680583,63.84742497238267 "/><polyline class="polyline" opacity="0.5" stroke="blue" points="191.01870054865913,131.55106197488772 164.55759474349412,63.3170253042031 "/><polyline class="polyline" opacity="0.5" stroke="blue" points="192.13661084271578,131.65461762342585 167.3497860681819,62.86096212079573 "/><polyline class="polyline" opacity="0.5" stroke="blue" points="193.2626823836258,131.79021235459854 170.18026072075554,62.48049264878861 "/><polyline class="polyline" opacity="0.5" stroke="blue" points="194.39638929083364,131.95797060132216 173.04761436481755,62.17682084156314 "/><polyline class="polyline" opacity="0.5" stroke="blue" points="195.5371950052659,132.1579987114759 175.95036799103846,61.95109341380535 "/><polyline class="polyline" opacity="0.5" stroke="blue" points="196.68455253035484,132.39038450004347 178.8869678385069,61.80439584326501 "/><polyline class="polyline" opacity="0.5" stroke="blue" points="197.83790469361264,132.65519681303834 181.85578551857355,61.73774835378748 "/><polyline class="polyline" opacity="0.5" stroke="blue" points="198.99668442891547,132.95248510444617 184.8551183514828,61.75210189463098 "/><polyline class="polyline" opacity="0.5" stroke="blue" points="200.16031507961284,133.2822790274343 187.8831899255818,61.848334131995784 "/><polyline class="polyline" opacity="0.5" stroke="blue" points="201.32821072252466,133.64458804107906 190.93815088827085,62.027245469550536 "/><polyline class="polyline" opacity="0.5" stroke="blue" points="202.49977651283623,134.03940103386614 194.0180799771497,62.2895551155477 "/><polyline class="polyline" opacity="0.5" stroke="blue" points="203.67440904984662,134.46668596521764 197.1209852989839,62.63589721485323 "/><polyline class="polyline" opacity="0.5" stroke="blue" points="204.85149676347075,134.92638952629127 200.24480586319967,63.0668170648666 "/><polyline class="polyline" opacity="0.5" stroke="blue" points="206.03042032133555,135.41843682128874 203.3874133755754,63.58276743486749 "/><polyline class="polyline" opacity="0.5" stroke="blue" points="207.210553056252,135.9427310704933 206.54661429667567,64.18410500878039 "/><polyline class="polyline" opacity="0.5" stroke="blue" points="208.3912614137821,136.4991533362376 209.7201521683367,64.87108697169035 "/><polyline class="polyline" opacity="0.5" stroke="blue" points="209.57190541956086,137.08756227297758 212.9057102101996,65.64386776065538 "/><polyline class="polyline" opacity="0.5" stroke="blue" points="210.75183916596666,137.70779390261973 216.10091418687077,66.50249600044594 "/><polyline class="polyline" opacity="0.5" stroke="blue" points="211.93041131767086,138.35966141621282 219.30333554479947,67.4469116447739 "/><polyline class="polyline" opacity="0.5" stroke="blue" points="213.10696563553483,139.0429550030779 222.51049481640922,68.47694334336092 "/><polyline class="polyline" opacity="0.5" stroke="blue" points="214.28084151825536,139.75744170840443 225.71986528738773,69.59230605482387 "/><polyline class="polyline" opacity="0.5" stroke="blue" points="215.4513745610976,140.50286532029233 228.92887692137631,70.79259892481198 "/><polyline class="polyline" opacity="0.5" stroke="blue" points="216.617897130988,141.2789462871645 232.13492053458276,72.0773034481297 "/><polyline class="polyline" opacity="0.5" stroke="blue" points="217.77973895717997,142.0853816664171 235.33535221111734,73.44578193270199 "/><polyline class="polyline" opacity="0.5" stroke="blue" points="218.93622773663927,142.92184510510964 238.52749794810197,74.89727628219059 "/><polyline class="polyline" opacity="0.5" stroke="blue" points="220.0866897532375,143.78798685343023 241.70865851787408,76.43090711285683 "/><polyline class="polyline" opacity="0.5" stroke="blue" points="221.23045050978038,144.68343381159738 244.87611453288883,78.04567321888132 "/><polyline class="polyline" opacity="0.5" stroke="blue" points="222.3668353718428,145.60778961078512 248.0271316972606,79.74045139881522 "/><polyline class="polyline" opacity="0.5" stroke="blue" points="223.49517022232465,146.56063472857454 251.15896622726476,81.51399665413517 "/><polyline class="polyline" opacity="0.5" stroke="blue" points="224.6147821255898,147.5415266393543 254.26887042158668,83.36494276904449 "/><polyline class="polyline" opacity="0.5" stroke="blue" points="225.725,148.55 257.3540983606557,85.29180327868846 "/></svg>
