<?xml version="1.0" encoding="UTF-8"?>
<!DOCTYPE svg PUBLIC "-//W3C//DTD SVG 1.1//EN"
    "http://www.w3.org/Graphics/SVG/1.1/DTD/svg11.dtd"><svg width="400" height="400" stroke="black" fill="none" fill-opacity="0.75" font-size="14" font-style="italic" font-family="sans-serif" xmlns="http://www.w3.org/2000/svg" xmlns:xlink="http://www.w3.org/1999/xlink" version="1.1"><filter id="blur1"><feGaussianBlur stdDeviation="0.5"/></filter><rect width="100%" height="100%" fill="white" stroke="none" fill-opacity="1"/><rect class="bg" fill="black" width="100%" height="100%" stroke="none" fill-opacity="1"/><polyline class="polyline" opacity="0.5" stroke="blue" points="232.6620144754862,155.12353282843338 273.7089514996884,99.09809838892383 "/><polyline class="polyline" opacity="0.5" stroke="blue" points="233.7871610946318,156.25819728310276 276.71590829875464,101.33895353961468 "/><polyline class="polyline" opacity="0.5" stroke="blue" points="234.89701657431436,157.41531131985806 279.6747873015565,103.63884540120557 "/><polyline class="polyline" opacity="0.5" stroke="blue" points="235.99091171331452,158.59423346903878 282.58299281906415,105.99538444627883 "/><polyline class="polyline" opacity="0.5" stroke="blue" points="237.06818722859052,159.79430473001105 285.4379979007198,108.40609889056539 "/><polyline class="polyline" opacity="0.5" stroke="blue" points="238.12819445249872,161.0148491602107 288.2373498308738,110.86843981581372 "/><polyline class="polyline" opacity="0.5" stroke="blue" points="239.17029601832385,162.25517449154026 290.9786754038714,113.37978654272611 "/><polyline class="polyline" opacity="0.5" stroke="blue" points="240.19386653265332,163.5145727730195 293.65968595433594,115.93745223084302 "/><polyline class="polyline" opacity="0.5" stroke="blue" points="241.19829323315918,164.79232103851132 296.27818212060987,118.53868968090877 "/><polyline class="polyline" opacity="0.5" stroke="blue" points="242.18297663038385,166.08768199826972 298.83205832089357,121.18069731408654 "/><polyline class="polyline" opacity="0.5" stroke="blue" points="243.14733113216215,167.39990475298418 301.3193069233578,123.86062530141875 "/><polyline class="polyline" opacity="0.5" stroke="blue" points="244.09078564935723,168.72822552892978 303.7380220933686,126.57558181616399 "/><polyline class="polyline" opacity="0.5" stroke="blue" points="245.01278418163398,170.07186843276918 306.0864033029485,129.32263938108673 "/><polyline class="polyline" opacity="0.5" stroke="blue" points="245.91278638204668,171.43004622449575 308.3627584896747,132.09884128242976 "/><polyline class="polyline" opacity="0.5" stroke="blue" points="246.79026809927427,172.80196110695576 310.5655068543723,134.9012080221754 "/><polyline class="polyline" opacity="0.5" stroke="blue" points="247.64472189639798,174.1868055303409 312.69318128916944,137.72674378028486 "/><polyline class="polyline" opacity="0.5" stroke="blue" points="248.47565754518004,175.58376301000195 314.7444304297252,140.5724428589008 "/><polyline class="polyline" opacity="0.5" stroke="blue" points="249.28260249487246,176.99200895589934 316.7180203277013,143.43529608099837 "/><polyline class="polyline" opacity="0.5" stroke="blue" points="250.06510231465455,178.4107115119789 318.61283574179214,146.31229711666433 "/><polyline class="polyline" opacity="0.5" stroke="blue" points="250.8227211088749,179.8390324037362 320.42788104785075,149.20044871106452 "/><polyline class="polyline" opacity="0.5" stroke="blue" points="251.55504190434954,181.27612779222008 322.16228077081587,152.09676878921388 "/><polyline class="polyline" opacity="0.5" stroke="blue" points="252.2616670090487,182.72114913271156 323.8152797432497,154.99829641387524 "/><polyline class="polyline" opacity="0.5" stroke="blue" points="252.94221834158606,184.17324403631483 325.386242897311,157.9020975742726 "/><polyline class="polyline" opacity="0.5" stroke="blue" points="253.59633773100768,185.6315571326961 326.8746546989049,160.80527078478968 "/><polyline class="polyline" opacity="0.5" stroke="blue" points="254.22368718646294,187.09523093221713 328.2801182345512,163.70495247441985 "/><polyline class="polyline" opacity="0.5" stroke="blue" points="254.82394913642375,188.5634066857234 329.60235396318194,166.59832214942523 "/><polyline class="polyline" opacity="0.5" stroke="blue" points="255.39682663720637,190.03522524026823 330.84119814661597,169.4826073134254 "/><polyline class="polyline" opacity="0.5" stroke="blue" points="255.9420435506337,191.5098278890814 331.9966009738372,172.35508813095703 "/><polyline class="polyline" opacity="0.5" stroke="blue" points="256.45934469076263,192.9863572141216 333.0686243954355,175.21310182240475 "/><polyline class="polyline" opacity="0.5" stroke="blue" points="256.9484959396859,194.4639579195912 334.0574396856378,178.05404678008065 "/><polyline class="polyline" opacity="0.5" stroke="blue" points="257.40928433250133,195.94177765483326 334.9633247502622,180.87538639711218 "/><polyline class="polyline" opacity="0.5" stroke="blue" points="257.8415181116233,197.41896782508024 335.786661199671,183.67465260266408 "/><polyline class="polyline" opacity="0.5" stroke="blue" points="258.24502675069294,198.89468438857455 336.5279312063763,186.44944909885749 "/><polyline class="polyline" opacity="0.5" stroke="blue" points="258.6196609484211,200.36808863863914 337.18771416737036,189.1974542965415 "/><polyline class="polyline" opacity="0.5" stroke="blue" points="258.96529259277446,201.83834796933706 337.76668319151224,191.91642394880847 "/><polyline class="polyline" opacity="0.5" stroke="blue" points="259.28181469598957,203.30463662342308 338.26560143241136,194.60419348280783 "/><polyline class="polyline" opacity="0.5" stroke="blue" points="259.56914130096857,204.7661364213589 338.6853182872145,197.25868003199795 "/><polyline class="polyline" opacity="0.5" stroke="blue" points="259.82720735967956,206.22203747023423 339.02676548152556,199.8778841724711 "/><polyline class="polyline" opacity="0.5" stroke="blue" points="260.05596858424667,207.67153885150992 339.29095306039073,202.45989136838068 "/><polyline class="polyline" opacity="0.5" stroke="blue" points="260.2554012714776,209.113849286575 339.4789653048565,205.00287313279532 "/><polyline class="polyline" opacity="0.5" stroke="blue" points="260.4255021016301,210.54818777918726 339.591956593084,207.50508791148542 "/><polyline class="polyline" opacity="0.5" stroke="blue" points="260.5662879122756,211.97378423394665 339.631147224372,209.96488169822095 "/><polyline class="polyline" opacity="0.5" stroke="blue" points="260.6777954481615,213.38988005003125 339.5978192237317,212.38068839111466 "/><polyline class="polyline" opacity="0.5" stroke="blue" points="260.7600810880241,214.79572868950632 339.4933121438621,214.7510299003858 "/><polyline class="polyline" opacity="0.5" stroke="blue" points="260.81322054933923,216.19059621959926 339.31901888052676,217.0745160186473 "/><polyline class="polyline" opacity="0.5" stroke="blue" points="260.8373085720373,217.57376182841523 339.07638151641896,219.34984406542912 "/><polyline class="polyline" opacity="0.5" stroke="blue" points="260.8324585822381,218.94451831364856 338.7668872076568,221.57579831815417 "/><polyline class="polyline" opacity="0.5" stroke="blue" points="260.79880233709173,220.3021725439277 338.39206412606154,223.7512492421753 "/><polyline class="polyline" opacity="0.5" stroke="blue" points="260.73648955183,221.64604589250968 337.95347746937176,225.87515253277266 "/><polyline class="polyline" opacity="0.5" stroke="blue" points="260.6456875101564,222.9754746431204 337.45272555052287,227.946547982201 "/><polyline class="polyline" opacity="0.5" stroke="blue" points="260.52658065911316,224.28981036781306 336.8914359760978,229.96455818497532 "/><polyline class="polyline" opacity="0.5" stroke="blue" points="260.3793701895771,225.5884202767929 336.2712619230389,231.9283870945921 "/><polyline class="polyline" opacity="0.5" stroke="blue" points="260.2042736035397,226.8706875402309 335.5938785216971,233.8373184448145 "/><polyline class="polyline" opacity="0.5" stroke="blue" points="260.0015242693312,228.13601158215783 334.86097935230725,235.69071404850143 "/><polyline class="polyline" opacity="0.5" stroke="blue" points="259.77137096594447,229.38380834660157 334.07427306101135,237.48801198674855 "/><polyline class="polyline" opacity="0.5" stroke="blue" points="259.51407741761255,230.6135105361945 333.2354801006139,239.22872470083314 "/><polyline class="polyline" opacity="0.5" stroke="blue" points="259.2299218197806,231.82456782354163 332.3463296003505,240.91243699912408 "/><polyline class="polyline" opacity="0.5" stroke="blue" points="258.9191963576043,233.01644703570105 331.4085563680877,242.53880399074043 "/><polyline class="polyline" opacity="0.5" stroke="blue" points="258.5822067180891,234.1886323121837 330.4238980275472,244.10754895732313 "/><polyline class="polyline" opacity="0.5" stroke="blue" points="258.21927159696776,235.34062523693495 329.3940922923691,245.61846117382638 "/><polyline class="polyline" opacity="0.5" stroke="blue" points="257.83072220139024,236.47194494481 328.3208743780956,247.07139368875477 "/><polyline class="polyline" opacity="0.5" stroke="blue" points="257.4169017494785,237.58212820310226 327.2059745524691,248.46626107376025 "/><polyline class="polyline" opacity="0.5" stroke="blue" points="256.9781649677696,238.67072946872813 326.05111582380624,249.80303715199125 "/><polyline class="polyline" opacity="0.5" stroke="blue" points="256.514877587545,239.7373209217108 324.8580117666147,251.08175271404318 "/><polyline class="polyline" opacity="0.5" stroke="blue" points="256.02741584100903,240.7814924756434 323.6283644830838,252.30249322981675 "/><polyline class="polyline" opacity="0.5" stroke="blue" points="255.51616595825146,241.80285176584485 322.3638626985881,253.46539656403672 "/><polyline class="polyline" opacity="0.5" stroke="blue" points="254.98152366589127,242.8010241159501 321.0661799888993,254.57065070263542 "/><polyline class="polyline" opacity="0.5" stroke="blue" points="254.42389368826525,243.77565248370544 319.7369731364035,255.6184914966578 "/><polyline class="polyline" opacity="0.5" stroke="blue" points="253.8436892519866,244.72639738675974 318.3778806122699,256.60920042980626 "/><polyline class="polyline" opacity="0.5" stroke="blue" points="253.2413315946624,245.65293680926405 316.9905211812074,257.54310241521307 "/><polyline class="polyline" opacity="0.5" stroke="blue" points="252.6172494785183,246.55496609010743 315.5764926251802,258.420563626515 "/><polyline class="polyline" opacity="0.5" stroke="blue" points="251.97187870964115,247.4321977936304 314.13737058222296,259.24198936779754 "/><polyline class="polyline" opacity="0.5" stroke="blue" points="251.30566166350826,248.28436156366715 312.67470749630985,260.00782198649694 "/><polyline class="polyline" opacity="0.5" stroke="blue" points="250.61904681743363,249.1112039617759 311.19003167407504,260.7185388328775 "/><polyline class="polyline" opacity="0.5" stroke="blue" points="249.9124882905201,249.9124882905201 309.6848464440625,261.3746502692561 "/><polyline class="polyline" opacity="0.5" stroke="blue" points="249.1864453916657,250.68799440266477 308.16062941409166,261.9766977317178 "/><polyline class="polyline" opacity="0.5" stroke="blue" points="248.4413821761332,251.43751849715278 306.61883182226575,262.5252518466628 "/><polyline class="polyline" opacity="0.5" stroke="blue" points="247.67776701115088,252.1608729027206 305.06087797711393,263.0209106041384 "/><polyline class="polyline" opacity="0.5" stroke="blue" points="246.89607215097334,252.8578858500085 303.48816478234636,263.46429758955094 "/><polyline class="polyline" opacity="0.5" stroke="blue" points="246.09677332179245,253.52840123301198 301.9020613417157,263.85606027500836 "/><polyline class="polyline" opacity="0.5" stroke="blue" points="245.2803493168496,254.172278360711 300.30390863950674,264.196868371232 "/><polyline class="polyline" opacity="0.5" stroke="blue" points="244.44728160206316,254.78939169970243 298.6950192922282,264.4874122406748 "/><polyline class="polyline" opacity="0.5" stroke="blue" points="243.59805393244824,255.3796306086459 297.0766773671428,264.7284013722126 "/><polyline class="polyline" opacity="0.5" stroke="blue" points="242.73315197956964,255.94289906532018 295.4501382633543,264.9205629175184 "/><polyline class="polyline" opacity="0.5" stroke="blue" points="241.85306297023436,256.47911538706853 293.81662865125884,265.0646402889995 "/><polyline class="polyline" opacity="0.5" stroke="blue" points="240.95827533659667,256.9882119453941 292.17734646627355,265.1613918189611 "/><polyline class="polyline" opacity="0.5" stroke="blue" points="240.0492783778147,257.4701348754477 290.53346095286275,265.211589479468 "/><polyline class="polyline" opacity="0.5" stroke="blue" points="239.1265619333677,257.9248437811283 288.88611275500534,265.2160176621978 "/><polyline class="polyline" opacity="0.5" stroke="blue" points="238.1906160681121,258.35231143649696 287.236414049369,265.1754720174224 "/><polyline class="polyline" opacity="0.5" stroke="blue" points="237.2419307691248,258.75252348418167 285.58544871758903,265.09075835111094 "/><polyline class="polyline" opacity="0.5" stroke="blue" points="236.28099565435613,259.1254781314274 283.9342725541827,264.96269157902157 "/><polyline class="polyline" opacity="0.5" stroke="blue" points="235.30829969308695,259.4711858444237 282.28391350676765,264.79209473653884 "/><polyline class="polyline" opacity="0.5" stroke="blue" points="234.3243309381599,259.7896690415159 280.6353719453905,264.5797980429145 "/><polyline class="polyline" opacity="0.5" stroke="blue" points="233.32957626993147,260.0809617858836 278.9896209579131,264.3266380184857 "/><polyline class="polyline" opacity="0.5" stroke="blue" points="232.32452115186797,260.34510947824504 277.34760666854174,264.03345665337395 "/><polyline class="polyline" opacity="0.5" stroke="blue" points="231.309649397689,260.5821685501196 275.710248576725,263.70110062610377 "/><polyline class="polyline" opacity="0.5" stroke="blue" points="230.28544294994018,260.79220615815814 274.07843991378405,263.3304205705348 "/><polyline class="polyline" opacity="0.5" stroke="blue" points="229.25238166986085,260.9752998800246 272.4530480147746,262.92227038945475 "/><polyline class="polyline" opacity="0.5" stroke="blue" points="228.2109431383927,261.1315374122871 270.8349147032148,262.47750661315524 "/><polyline class="polyline" opacity="0.5" stroke="blue" points="227.16160246816116,261.26101627075377 269.2248566864446,261.9969878012832 "/><polyline class="polyline" opacity="0.5" stroke="blue" points="226.10483212624612,261.3638434936619 267.6236659595098,261.48157398624966 "/><polyline class="polyline" opacity="0.5" stroke="blue" points="225.0411017675444,261.44013534810654 266.03211021559173,260.9321261564655 "/><polyline class="polyline" opacity="0.5" stroke="blue" points="223.9708780785151,261.49001704007094 264.4509332611217,260.34950577767125 "/><polyline class="polyline" opacity="0.5" stroke="blue" points="222.89462463108677,261.5136224283954 262.88085543384153,259.7345743506331 "/><polyline class="polyline" opacity="0.5" stroke="blue" points="221.81280174649575,261.5110937430019 261.3225740221834,259.08819300348034 "/><polyline class="polyline" opacity="0.5" stroke="blue" points="220.72586636881607,261.48258130766516 259.7767636844529,258.4112221169759 "/><polyline class="polyline" opacity="0.5" stroke="blue" points="219.63427194793252,261.4282432676034 258.24407686640734,257.70452098102476 "/><polyline class="polyline" opacity="0.5" stroke="blue" points="218.5384683317024,261.348245322136 256.72514421592194,256.96894748074453 "/><polyline class="polyline" opacity="0.5" stroke="blue" points="217.43890166704475,261.2427604626374 255.22057499353616,256.20535781044583 "/><polyline class="polyline" opacity="0.5" stroke="blue" points="216.3360143096904,261.11196871599697 253.73095747776713,255.41460621389436 "/><polyline class="polyline" opacity="0.5" stroke="blue" points="215.2302447423229,260.95605689377027 252.25685936416718,254.59754474925205 "/><polyline class="polyline" opacity="0.5" stroke="blue" points="214.1220275008351,260.77521834719556 250.79882815718906,253.75502307712713 "/><polyline class="polyline" opacity="0.5" stroke="blue" points="213.0117931084253,260.5696527282231 249.35739155400623,252.88788827018843 "/><polyline class="polyline" opacity="0.5" stroke="blue" points="211.89996801725306,260.3395657566944 247.93305781951358,251.99698464283586 "/><polyline class="polyline" opacity="0.5" stroke="blue" points="210.7869745573746,260.0851689937855 246.52631615181113,251.08315359944802 "/><polyline class="polyline" opacity="0.5" stroke="blue" points="209.67323089267632,259.8066796218168 245.1376370375436,250.1472334997628 "/><polyline class="polyline" opacity="0.5" stroke="blue" points="208.5591509835249,259.5043202305134 243.76747259653894,249.19005953998106 "/><polyline class="polyline" opacity="0.5" stroke="blue" points="207.44514455585306,259.1783186097864 242.4162569152539,248.21246364821732 "/><polyline class="polyline" opacity="0.5" stroke="blue" points="206.33161707640093,258.8289075490908 241.08440636859712,247.21527439295596 "/><polyline class="polyline" opacity="0.5" stroke="blue" points="205.21896973383372,258.4563246434014 239.77231992976033,246.19931690320672 "/><polyline class="polyline" opacity="0.5" stroke="blue" points="204.10759942545934,258.0608121058379 238.48037946774423,245.16541279908802 "/><polyline class="polyline" opacity="0.5" stroke="blue" points="202.99789874927075,257.6426165869535 237.20895003232067,244.11438013160006 "/><polyline class="polyline" opacity="0.5" stroke="blue" points="201.89025600104128,257.2019890006946 235.95838012622352,243.04703333038597 "/><polyline class="polyline" opacity="0.5" stroke="blue" points="200.7850551762032,256.73918435702393 234.72900196441117,241.96418315831255 "/><polyline class="polyline" opacity="0.5" stroke="blue" points="199.682675976244,256.25446160119213 233.52113172028902,240.86663667173517 "/><polyline class="polyline" opacity="0.5" stroke="blue" points="198.58349381935756,255.7480834596313 232.33506975882727,239.75519718534716 "/><polyline class="polyline" opacity="0.5" stroke="blue" points="197.48787985509108,255.22031629243446 231.17110085655082,238.63066424054557 "/><polyline class="polyline" opacity="0.5" stroke="blue" points="196.39620098273355,254.67142995237785 230.02949440842087,237.49383357627812 "/><polyline class="polyline" opacity="0.5" stroke="blue" points="195.30881987319452,254.10169765043287 228.9105046216666,236.34549710137094 "/><polyline class="polyline" opacity="0.5" stroke="blue" points="194.22609499412638,253.51139582770796 227.81437069666362,235.18644286736534 "/><polyline class="polyline" opacity="0.5" stroke="blue" points="193.1483806380485,252.9008040337532 226.74131699499333,234.01745504092798 "/><polyline class="polyline" opacity="0.5" stroke="blue" points="192.0760269532353,252.27020481115338 225.69155319485205,232.8393138749272 "/><polyline class="polyline" opacity="0.5" stroke="blue" points="191.0093799771349,251.61988358632982 224.66527443401336,231.65279567730144 "/><polyline class="polyline" opacity="0.5" stroke="blue" points="189.94878167209038,250.95012856646395 223.66266144058062,230.45867277687788 "/><polyline class="polyline" opacity="0.5" stroke="blue" points="188.89456996313933,250.26123064245226 222.6838806517981,229.25771348532828 "/><polyline class="polyline" opacity="0.5" stroke="blue" points="187.84707877767306,249.55348329779477 221.72908432122122,228.05068205448296 "/><polyline class="polyline" opacity="0.5" stroke="blue" points="186.80663808674058,248.82718252331702 220.79841061457654,226.83833862825347 "/><polyline class="polyline" opacity="0.5" stroke="blue" points="185.773573947788,248.08262673761877 219.89198369467093,225.62143918844623 "/><polyline class="polyline" opacity="0.5" stroke="blue" points="184.74820854862867,247.32011671314098 219.0099137957406,224.40073549378207 "/><polyline class="polyline" opacity="0.5" stroke="blue" points="183.73086025244248,246.53995550773652 218.1522972876557,223.1769750114668 "/><polyline class="polyline" opacity="0.5" stroke="blue" points="182.72184364361033,245.74244840162908 217.31921673042686,221.9509008406912 "/><polyline class="polyline" opacity="0.5" stroke="blue" points="181.7214695741909,244.92790283963942 216.51074091948487,220.72325162747154 "/><polyline class="polyline" opacity="0.5" stroke="blue" points="180.73004521085426,244.09662837855663 215.72692492223268,219.4947614702741 "/><polyline class="polyline" opacity="0.5" stroke="blue" points="179.74787408208908,243.24893663952906 214.96781010639376,218.26615981590112 "/><polyline class="polyline" opacity="0.5" stroke="blue" points="178.77525612550613,242.38514126534625 214.23342416070682,217.03817134515052 "/><polyline class="polyline" opacity="0.5" stroke="blue" points="177.81248773506388,241.50555788248263 213.52378110854124,215.81151584779553 "/><polyline class="polyline" opacity="0.5" stroke="blue" points="176.85986180804682,240.61050406776937 212.83888131503224,214.58690808646753 "/><polyline class="polyline" opacity="0.5" stroke="blue" points="175.91766779163086,239.70029931956122 212.17871148835837,213.3650576490612 "/><polyline class="polyline" opacity="0.5" stroke="blue" points="174.98619172887408,238.77526503326118 211.5432446758061,212.1466687893189 "/><polyline class="polyline" opacity="0.5" stroke="blue" points="174.06571630397528,237.83572448106594 210.93244025528998,210.93244025528998 "/><polyline class="polyline" opacity="0.5" stroke="blue" points="173.15652088664604,236.88200279579152 210.34624392301757,209.7230651054004 "/><polyline class="polyline" opacity="0.5" stroke="blue" points="172.25888157544603,235.91442695863907 209.7845876780091,208.51923051190852 "/><polyline class="polyline" opacity="0.5" stroke="blue" points="171.37307123993443,234.93332579075775 209.24738980420264,207.3216175515652 "/><polyline class="polyline" opacity="0.5" stroke="blue" points="170.4993595614944,233.93902994846098 208.73455485089377,206.1309009833389 "/><polyline class="polyline" opacity="0.5" stroke="blue" points="169.63801307268972,232.93187192195057 208.2459736122775,204.94774901311135 "/><polyline class="polyline" opacity="0.5" stroke="blue" points="168.78929519501713,231.91218603740245 207.78152310687693,203.77282304529422 "/><polyline class="polyline" opacity="0.5" stroke="blue" points="167.95346627492023,230.8803084622659 207.34106655765913,202.60677742136437 "/><polyline class="polyline" opacity="0.5" stroke="blue" points="167.13078361793413,229.83657721362732 206.92445337365314,201.45025914536293 "/><polyline class="polyline" opacity="0.5" stroke="blue" points="166.32150152083236,228.7813321694879 206.53151913389848,200.3039075964523 "/><polyline class="polyline" opacity="0.5" stroke="blue" points="165.52587130165162,227.71491508280337 206.16208557456383,199.16835422867575 "/><polyline class="polyline" opacity="0.5" stroke="blue" points="164.74414132747103,226.63766959813302 205.81596058008586,198.0442222581159 "/><polyline class="polyline" opacity="0.5" stroke="blue" points="163.97655703982645,225.54994127074335 205.49293817918672,196.93212633769954 "/><polyline class="polyline" opacity="0.5" stroke="blue" points="163.22336097764233,224.45207758801027 205.19279854663452,195.83267221995106 "/><polyline class="polyline" opacity="0.5" stroke="blue" points="162.48479279756666,223.3444279929631 204.915308011616,194.7464564080505 "/><polyline class="polyline" opacity="0.5" stroke="blue" points="161.76108929159574,222.227343909811 204.66021907359286,193.67406579560657 "/><polyline class="polyline" opacity="0.5" stroke="blue" points="161.05248440187964,221.1011787712916 204.4272704265133,192.6160772956123 "/><polyline class="polyline" opacity="0.5" stroke="blue" points="160.35920923260042,219.96628804768 204.21618699224712,191.57305745910608 "/><polyline class="polyline" opacity="0.5" stroke="blue" points="159.68149205881681,218.82302927729435 204.0266799641095,190.54556208411756 "/><polyline class="polyline" opacity="0.5" stroke="blue" points="159.0195583321737,217.67176209833195 203.8584468613288,189.53413581553644 "/><polyline class="polyline" opacity="0.5" stroke="blue" points="158.3736306833738,216.51284828186937 203.71117159530576,188.5393117365968 "/><polyline class="polyline" opacity="0.5" stroke="blue" points="157.74392892131422,215.34665176585622 203.58452454849586,187.56161095272924 "/><polyline class="polyline" opacity="0.5" stroke="blue" points="157.13067002879052,214.17353868993226 203.47816266673223,186.60154216858717 "/><polyline class="polyline" opacity="0.5" stroke="blue" points="156.5340681546741,212.99387743089304 203.39172956578602,185.65960125911252 "/><polyline class="polyline" opacity="0.5" stroke="blue" points="155.9543346024712,211.80803863862957 203.32485565293888,184.73627083555834 "/><polyline class="polyline" opacity="0.5" stroke="blue" points="155.39167781517355,210.61639527236275 203.2771582643164,183.83201980744323 "/><polyline class="polyline" opacity="0.5" stroke="blue" points="154.84630335631317,209.41932263699292 203.24824181870193,182.94730294146297 "/><polyline class="polyline" opacity="0.5" stroke="blue" points="154.31841388713627,208.21719841938105 203.23769798851768,182.08256041843825 "/><polyline class="polyline" opacity="0.5" stroke="blue" points="153.80820913981387,207.01040272437626 203.2451058886235,181.2382173894257 "/><polyline class="polyline" opacity="0.5" stroke="blue" points="153.3158858866088,205.79931811040098 203.27003228354482,180.41468353216789 "/><polyline class="polyline" opacity="0.5" stroke="blue" points="152.84163790492167,204.58432962440327 203.3120318136973,179.61235260910257 "/><polyline class="polyline" opacity="0.5" stroke="blue" points="152.38565593814096,203.36582483598218 203.3706472411297,178.83160202819474 "/><polyline class="polyline" opacity="0.5" stroke="blue" points="151.94812765222585,202.14419387048937 203.44540971525578,178.07279240789322 "/><polyline class="polyline" opacity="0.5" stroke="blue" points="151.52923758795197,200.9198294409075 203.53583905899353,177.3362671475516 "/><polyline class="polyline" opacity="0.5" stroke="blue" points="151.12916710875518,199.6931268783024 203.6414440756717,176.62235200468373 "/><polyline class="polyline" opacity="0.5" stroke="blue" points="150.74809434411017,198.4644841606437 203.7617228770052,175.93135468045486 "/><polyline class="polyline" opacity="0.5" stroke="blue" points="150.38619412838523,197.2343019397847 203.89616323237595,175.2635644148319 "/><polyline class="polyline" opacity="0.5" stroke="blue" points="150.04363793511754,196.00298356638967 204.04424293959113,174.61925159283854 "/><polyline class="polyline" opacity="0.5" stroke="blue" points="149.72059380665797,194.7709351125933 204.20543021722065,173.9986673633735 "/><polyline class="polyline" opacity="0.5" stroke="blue" points="149.41722627913708,193.53856539217446 204.37918411854403,173.40204327206334 "/><polyline class="polyline" opacity="0.5" stroke="blue" points="149.13369630270986,192.3062859780224 204.5649549670636,172.82959090962353 "/><polyline class="polyline" opacity="0.5" stroke="blue" points="148.8701611570405,191.07451121667108 204.76218481346356,172.28150157720316 "/><polyline class="polyline" opacity="0.5" stroke="blue" points="148.6267743619931,189.8436582396744 204.97030791381675,171.75794597018015 "/><polyline class="polyline" opacity="0.5" stroke="blue" points="148.40368558350056,188.61414697159114 205.18875122876122,171.25907388186437 "/><polyline class="polyline" opacity="0.5" stroke="blue" points="148.201040534587,187.3864001343467 205.41693494328692,170.78501392854486 "/><polyline class="polyline" opacity="0.5" stroke="blue" points="148.01898087152804,186.16084324773527 205.65427300669148,170.33587329729545 "/><polyline class="polyline" opacity="0.5" stroke="blue" points="147.85764408513572,184.93790462582265 205.90017369218032,169.9117375179207 "/><polyline class="polyline" opacity="0.5" stroke="blue" points="147.71716338716428,183.71801536900963 206.15404017550333,169.51267026038832 "/><polyline class="polyline" opacity="0.5" stroke="blue" points="147.59766759183793,182.50160935151 206.41527113193848,169.1387131590491 "/><polyline class="polyline" opacity="0.5" stroke="blue" points="147.49928099250926,181.28912320399894 206.68326135084783,168.78988566489753 "/><polyline class="polyline" opacity="0.5" stroke="blue" points="147.42212323346482,180.08099629118175 206.9574023669523,168.46618492706838 "/><polyline class="polyline" opacity="0.5" stroke="blue" points="147.366309176902,178.87767068403429 207.23708310738903,168.16758570470307 "/><polyline class="polyline" opacity="0.5" stroke="blue" points="147.33194876510944,177.67959112646258 207.5216905535384,167.8940403102502 "/><polyline class="polyline" opacity="0.5" stroke="blue" points="147.31914687789188,176.4872049961295 207.81061041652978,167.64547858519103 "/><polyline class="polyline" opacity="0.5" stroke="blue" points="147.32800318529019,175.3009622591948 208.10322782526202,167.42180790909904 "/><polyline class="polyline" opacity="0.5" stroke="blue" points="147.3586119956558,174.12131541871355 208.3989280257041,167.22291324285732 "/><polyline class="polyline" opacity="0.5" stroke="blue" points="147.4110620991491,172.94871945644022 208.69709709017337,167.04865720676662 "/><polyline class="polyline" opacity="0.5" stroke="blue" points="147.4854366067429,171.78363176778248 208.99712263522562,166.89888019417964 "/><polyline class="polyline" opacity="0.5" stroke="blue" points="147.58181278482053,170.62651208965332 209.29839454673188,166.7734005211974 "/><polyline class="polyline" opacity="0.5" stroke="blue" points="147.7002618854721,169.47782242096775 209.60030571066292,166.67201461285708 "/><polyline class="polyline" opacity="0.5" stroke="blue" points="147.84084897260232,168.3380269355353 209.90225274805138,166.594497226134 "/><polyline class="polyline" opacity="0.5" stroke="blue" points="148.0036327439767,167.20759188709889 210.20363675255902,166.54060170996564 "/><polyline class="polyline" opacity="0.5" stroke="blue" points="148.18866534934486,166.08698550627662 210.50386402903675,166.51006030239347 "/><polyline class="polyline" opacity="0.5" stroke="blue" points="148.39599220479312,164.97667788916337 210.8023468314334,166.5025844647983 "/><polyline class="polyline" opacity="0.5" stroke="blue" points="148.62565180349264,163.87714087735662 211.0985040983822,166.51786525308876 "/><polyline class="polyline" opacity="0.5" stroke="blue" points="148.87767552302265,162.78884792917302 211.39176218477508,166.5555737255802 "/><polyline class="polyline" opacity="0.5" stroke="blue" points="149.15208742946285,161.71227398182975 211.68155558762075,166.61536138718157 "/><polyline class="polyline" opacity="0.5" stroke="blue" points="149.44890407846464,160.64789530437133 211.96732766447667,166.69686066938735 "/><polyline class="polyline" opacity="0.5" stroke="blue" points="149.76813431352562,159.59618934112765 212.24853134274608,166.79968544545136 "/><polyline class="polyline" opacity="0.5" stroke="blue" points="150.1097790617074,158.55763454550095 212.52462981813818,166.9234315800001 "/><polyline class="polyline" opacity="0.5" stroke="blue" points="150.47383112705282,157.53271020388473 212.79509724060415,167.06767751222725 "/><polyline class="polyline" opacity="0.5" stroke="blue" points="150.86027498197575,156.5218962495312 213.05941938608464,167.23198487169583 "/><polyline class="polyline" opacity="0.5" stroke="blue" points="151.26908655691201,155.5256730661914 213.3170943124312,167.41589912566354 "/><polyline class="polyline" opacity="0.5" stroke="blue" points="151.7002330285383,154.54452128136825 213.5676329979015,167.61895025673897 "/><polyline class="polyline" opacity="0.5" stroke="blue" points="152.15367260688225,153.57892154903197 213.81055996066874,167.84065346957289 "/><polyline class="polyline" opacity="0.5" stroke="blue" points="152.62935432166466,152.62935432166466 214.04541385783637,168.0805099251903 "/><polyline class="polyline" opacity="0.5" stroke="blue" points="153.1272178082325,151.6962996115143 214.27174806250244,168.33800750147574 "/><polyline class="polyline" opacity="0.5" stroke="blue" points="153.64719309345872,150.78023674095567 214.48913121748075,168.61262157823543 "/><polyline class="polyline" opacity="0.5" stroke="blue" points="154.18920038200267,149.8816440818737 214.69714776435166,168.90381584518116 "/><polyline class="polyline" opacity="0.5" stroke="blue" points="154.75314984334364,149.00099878400286 214.89539844658862,169.2110431311026 "/><polyline class="polyline" opacity="0.5" stroke="blue" points="155.3389414000163,148.13877649217588 215.0835007855834,169.53374625243032 "/><polyline class="polyline" opacity="0.5" stroke="blue" points="155.94646451749583,147.29545105245856 215.261089528475,169.87135887932894 "/><polyline class="polyline" opacity="0.5" stroke="blue" points="156.5755979961969,146.47149420716724 215.4278170667733,170.22330641740848 "/><polyline class="polyline" opacity="0.5" stroke="blue" points="157.22620976606933,145.66737527879002 215.58335382485856,170.5890069030967 "/><polyline class="polyline" opacity="0.5" stroke="blue" points="157.89815668428855,144.88356084286 215.72738861753092,170.9678719106782 "/><polyline class="polyline" opacity="0.5" stroke="blue" points="158.59128433655704,144.12051438985023 215.8596289758792,171.35930746897768 "/><polyline class="polyline" opacity="0.5" stroke="blue" points="159.30542684254786,143.3786959761933 215.97980144083738,171.76271498564375 "/><polyline class="polyline" opacity="0.5" stroke="blue" points="160.04040666603822,142.65856186455133 216.08765182389587,172.17749217697866 "/><polyline class="polyline" opacity="0.5" stroke="blue" points="160.79603443029433,141.96056415349676 216.18294543453587,172.60303400125392 "/><polyline class="polyline" opacity="0.5" stroke="blue" points="161.5721087392848,141.28515039679115 216.26546727405693,173.03873359345693 "/><polyline class="polyline" opacity="0.5" stroke="blue" points="162.36841600531164,140.6327632124848 216.3350221955684,173.4839831994261 "/><polyline class="polyline" opacity="0.5" stroke="blue" points="163.18473028366165,140.0038398820895 216.39143503001785,173.93817510735164 "/><polyline class="polyline" opacity="0.5" stroke="blue" points="164.0208131148911,139.39881194011446 216.43455067822833,174.4007025746467 "/><polyline class="polyline" opacity="0.5" stroke="blue" points="164.87641337536894,138.81810475428657 216.46423416901672,174.87096074822986 "/><polyline class="polyline" opacity="0.5" stroke="blue" points="165.75126713671,138.26213709681542 216.48037068356015,175.3483475763006 "/><polyline class="polyline" opacity="0.5" stroke="blue" points="166.64509753474033,137.73132070709855 216.48286554627418,175.83226470973955 "/><polyline class="polyline" opacity="0.5" stroke="blue" points="167.55761464864207,137.22605984629877 216.47164418255633,176.32211839131975 "/><polyline class="polyline" opacity="0.5" stroke="blue" points="168.4885153909282,136.74675084426656 216.44665204383713,176.81732033097632 "/><polyline class="polyline" opacity="0.5" stroke="blue" points="169.43748340890482,136.2937816393151 216.40785450046698,177.31728856544942 "/><polyline class="polyline" opacity="0.5" stroke="blue" points="170.40418899827557,135.86753131139832 216.35523670304573,177.82144830068495 "/><polyline class="polyline" opacity="0.5" stroke="blue" points="171.3882890295457,135.4683696092778 216.28880341288027,178.329232735456 "/><polyline class="polyline" opacity="0.5" stroke="blue" points="172.38942688787898,135.09665647230736 216.20857880232595,178.8400838647458 "/><polyline class="polyline" opacity="0.5" stroke="blue" points="173.40723242705775,134.7527415475006 216.11460622583562,179.35345326151818 "/><polyline class="polyline" opacity="0.5" stroke="blue" points="174.44132193818774,134.43696370258817 216.00694796260154,179.8688028355867 "/><polyline class="polyline" opacity="0.5" stroke="blue" points="175.4912981337834,134.14965053580823 215.88568493173207,180.38560556838345 "/><polyline class="polyline" opacity="0.5" stroke="blue" points="176.55675014785527,133.8911178832152 215.75091638095725,180.90334622251865 "/><polyline class="polyline" opacity="0.5" stroke="blue" points="177.63725355261013,133.66166932432625 215.60275954990215,181.42152202511477 "/><polyline class="polyline" opacity="0.5" stroke="blue" points="178.73237039235656,133.46159568696555 215.4413493090083,181.93964332399145 "/><polyline class="polyline" opacity="0.5" stroke="blue" points="179.84164923519194,133.29117455219978 215.26683777521757,182.45723421587093 "/><polyline class="polyline" opacity="0.5" stroke="blue" points="180.9646252430241,133.1506697602954 215.07939390556234,182.97383314586725 "/><polyline class="polyline" opacity="0.5" stroke="blue" points="182.10082026045788,133.04033091866017 214.87920306982983,183.48899347761397 "/><polyline class="polyline" opacity="0.5" stroke="blue" points="183.24974292305157,132.96039291276554 214.66646660348596,184.00228403347813 "/><polyline class="polyline" opacity="0.5" stroke="blue" points="184.41088878541635,132.91107542107483 214.44140134205782,184.51328960439582 "/><polyline class="polyline" opacity="0.5" stroke="blue" points="185.58374046960313,132.89258243503167 214.20423913818053,185.02161142895537 "/><polyline class="polyline" opacity="0.5" stroke="blue" points="186.76776783418418,132.9051017851901 213.95522636251775,185.52686764143678 "/><polyline class="polyline" opacity="0.5" stroke="blue" points="187.9624281644017,132.9488046745899 213.69462338976183,186.0286936886018 "/><polyline class="polyline" opacity="0.5" stroke="blue" points="189.16716638371335,133.02384522050326 213.42270407091343,186.52674271510634 "/><polyline class="polyline" opacity="0.5" stroke="blue" points="190.381415287025,133.13036000569804 213.13975519302787,187.0206859174856 "/><polyline class="polyline" opacity="0.5" stroke="blue" points="191.60459579585242,133.26846764037657 212.84607592760094,187.51021286673333 "/><polyline class="polyline" opacity="0.5" stroke="blue" points="192.8361172356099,133.4382683359637 212.54197726874563,187.995031799568 "/><polyline class="polyline" opacity="0.5" stroke="blue" points="194.07537763516902,133.6398434919248 212.22778146228958,188.47486987854123 "/><polyline class="polyline" opacity="0.5" stroke="blue" points="195.3217640487836,133.87325529680248 211.90382142689427,188.94947342120702 "/><polyline class="polyline" opacity="0.5" stroke="blue" points="196.57465290041694,134.1385463446599 211.57044016826885,189.41860809862575 "/><polyline class="polyline" opacity="0.5" stroke="blue" points="197.8334103504553,134.435739268119 211.22799018751687,189.88205910352917 "/><polyline class="polyline" opacity="0.5" stroke="blue" points="199.09739268472933,134.76483638917557 210.87683288462057,190.33963128852093 "/><polyline class="polyline" opacity="0.5" stroke="blue" points="200.36594672570695,135.1258193889617 210.5173379580285,190.79114927472915 "/><polyline class="polyline" opacity="0.5" stroke="blue" points="201.6384102656586,135.51864899761358 210.14988280127307,191.23645753136765 "/><polyline class="polyline" opacity="0.5" stroke="blue" points="202.91411252153125,135.94326470538394 209.7748518975046,191.67542042669484 "/><polyline class="polyline" opacity="0.5" stroke="blue" points="204.1923746112053,136.3995844961144 209.39263621278405,192.10792225088986 "/><polyline class="polyline" opacity="0.5" stroke="blue" points="205.47251005073986,136.88750460415568 209.00363258893557,192.53386721139 "/><polyline class="polyline" opacity="0.5" stroke="blue" points="206.75382527214947,137.4068992957937 208.60824313671372,192.95317940125415 "/><polyline class="polyline" opacity="0.5" stroke="blue" points="208.03562016118428,137.95762067619964 208.20687462999774,193.36580274113356 "/><polyline class="polyline" opacity="0.5" stroke="blue" points="209.31718861452373,138.5394985228848 207.79993790167873,193.77170089544336 "/><polyline class="polyline" opacity="0.5" stroke="blue" points="210.59781911572168,139.15234014659188 207.387847241863,194.1708571633357 "/><polyline class="polyline" opacity="0.5" stroke="blue" points="211.8767953291802,139.79593028050755 206.97101979896865,194.56327434508194 "/><polyline class="polyline" opacity="0.5" stroke="blue" points="213.15339671135828,140.4700309986249 206.54987498425118,194.94897458446883 "/><polyline class="polyline" opacity="0.5" stroke="blue" points="214.42689913836142,141.17438166402573 206.12483388024907,195.32799918781456 "/><polyline class="polyline" opacity="0.5" stroke="blue" points="215.6965755489912,141.90869890779143 205.696318653601,195.70040842020143 "/><polyline class="polyline" opacity="0.5" stroke="blue" points="216.9616966022748,142.6726766391822 205.26475197264386,196.0662812795154 "/><polyline class="polyline" opacity="0.5" stroke="blue" points="218.22153134843276,143.46598608765603 204.83055643016405,196.42571524886998 "/><polyline class="polyline" opacity="0.5" stroke="blue" points="219.47534791218618,144.28827587722253 204.3941539716359,196.7788260279772 "/><polyline class="polyline" opacity="0.5" stroke="blue" points="220.72241418725034,145.13917213355094 203.95596532924696,197.12574724401398 "/><polyline class="polyline" opacity="0.5" stroke="blue" points="221.96199854080646,146.0182786241699 203.5164094619761,197.466630142511 "/><polyline class="polyline" opacity="0.5" stroke="blue" points="223.1933705266991,146.92517693201285 203.07590300195915,197.80164325877325 "/><polyline class="polyline" opacity="0.5" stroke="blue" points="224.41580160605466,147.85942666247757 202.6348597073489,198.13097207031822 "/><polyline class="polyline" opacity="0.5" stroke="blue" points="225.62856587398022,148.82056568407995 202.1936899218488,198.4548186307955 "/><polyline class="polyline" opacity="0.5" stroke="blue" points="226.83094079095912,149.80811040269066 201.7528000410764,198.7734011858268 "/><polyline class="polyline" opacity="0.5" stroke="blue" points="228.02220791752913,150.8215560692534 201.31259198589123,199.08695377118195 "/><polyline class="polyline" opacity="0.5" stroke="blue" points="229.20165365079635,151.86037712078866 200.87346268280294,199.3957257936799 "/><polyline class="polyline" opacity="0.5" stroke="blue" points="230.3685699613161,152.9240275543951 200.43580355155908,199.6999815951796 "/><polyline class="polyline" opacity="0.5" stroke="blue" points="231.52225512884877,154.01194133386437 200.0,200.0 "/><polyline class="polyline" opacity="0.5" stroke="blue" points="232.6620144754861,155.12353282843327 199.56643092625634,200.29607384608386 "/><polyline class="polyline" opacity="0.5" stroke="blue" points="233.78716109463176,156.25819728310273 199.1354682283575,200.5885095001954 "/><polyline class="polyline" opacity="0.5" stroke="blue" points="234.89701657431428,157.41531131985795 198.7074763213155,200.8776263574195 "/><polyline class="polyline" opacity="0.5" stroke="blue" points="235.99091171331446,158.59423346903873 198.28281166174514,201.16375632520644 "/><polyline class="polyline" opacity="0.5" stroke="blue" points="237.06818722859043,159.79430473001096 197.86182228008306,201.4472432921879 "/><polyline class="polyline" opacity="0.5" stroke="blue" points="238.1281944524987,161.01484916021064 197.44484732047198,201.7284425819677 "/><polyline class="polyline" opacity="0.5" stroke="blue" points="239.1702960183238,162.2551744915402 197.0322165883822,202.00772039207595 "/><polyline class="polyline" opacity="0.5" stroke="blue" points="240.19386653265326,163.51457277301944 196.62425010605145,202.2854532182591 "/><polyline class="polyline" opacity="0.5" stroke="blue" points="241.19829323315915,164.79232103851123 196.22125767583677,202.56202726426517 "/><polyline class="polyline" opacity="0.5" stroke="blue" points="242.1829766303838,166.08768199826966 195.82353845158454,202.8378378372733 "/><polyline class="polyline" opacity="0.5" stroke="blue" points="243.1473311321621,167.3999047529841 195.43138051814347,203.1132887291098 "/><polyline class="polyline" opacity="0.5" stroke="blue" points="244.09078564935717,168.72822552892976 195.04506047916263,203.38879158338628 "/><polyline class="polyline" opacity="0.5" stroke="blue" points="245.01278418163395,170.07186843276912 194.66484305333944,203.6647652486954 "/><polyline class="polyline" opacity="0.5" stroke="blue" points="245.9127863820466,171.43004622449567 194.29098067930465,203.9416351180008 "/><polyline class="polyline" opacity="0.5" stroke="blue" points="246.79026809927424,172.80196110695567 193.92371312935808,204.21983245436158 "/><polyline class="polyline" opacity="0.5" stroke="blue" points="247.64472189639793,174.1868055303408 193.5632671322958,204.4997937031422 "/><polyline class="polyline" opacity="0.5" stroke="blue" points="248.47565754518,175.5837630100019 193.20985600559803,204.7819597908688 "/><polyline class="polyline" opacity="0.5" stroke="blue" points="249.2826024948724,176.99200895589928 192.8636792972792,205.06677541091 "/><polyline class="polyline" opacity="0.5" stroke="blue" points="250.06510231465452,178.4107115119788 192.52492243773202,205.35468829617994 "/><polyline class="polyline" opacity="0.5" stroke="blue" points="250.82272110887487,179.83903240373613 192.19375640193246,205.64614847908476 "/><polyline class="polyline" opacity="0.5" stroke="blue" points="251.5550419043495,181.27612779222002 191.87033738240558,205.94160753896136 "/><polyline class="polyline" opacity="0.5" stroke="blue" points="252.26166700904867,182.7211491327115 191.55480647338786,206.24151783729053 "/><polyline class="polyline" opacity="0.5" stroke="blue" points="252.94221834158603,184.17324403631474 191.24728936665764,206.54633174100047 "/><polyline class="polyline" opacity="0.5" stroke="blue" points="253.59633773100768,185.631557132696 190.9478960595408,206.85650083421868 "/><polyline class="polyline" opacity="0.5" stroke="blue" points="254.2236871864629,187.09523093221708 190.65672057563563,207.17247511887356 "/><polyline class="polyline" opacity="0.5" stroke="blue" points="254.82394913642372,188.5634066857233 190.37384069883603,207.49470220459528 "/><polyline class="polyline" opacity="0.5" stroke="blue" points="255.39682663720637,190.03522524026818 190.0993177212687,207.8236264884183 "/><polyline class="polyline" opacity="0.5" stroke="blue" points="255.9420435506337,191.5098278890813 189.83319620579388,208.15968832484327 "/><polyline class="polyline" opacity="0.5" stroke="blue" points="256.4593446907626,192.9863572141215 189.5755037637538,208.50332318687677 "/><polyline class="polyline" opacity="0.5" stroke="blue" points="256.94849593968587,194.46395791959114 189.326250848685,208.85496081873004 "/><polyline class="polyline" opacity="0.5" stroke="blue" points="257.4092843325013,195.94177765483315 189.08543056674196,209.21502438092523 "/><polyline class="polyline" opacity="0.5" stroke="blue" points="257.84151811162326,197.4189678250802 188.85301850460831,209.58392958862785 "/><polyline class="polyline" opacity="0.5" stroke="blue" points="258.2450267506929,198.89468438857443 188.62897257569813,209.9620838440964 "/><polyline class="polyline" opacity="0.5" stroke="blue" points="258.6196609484211,200.36808863863908 188.41323288547525,210.3498853642172 "/><polyline class="polyline" opacity="0.5" stroke="blue" points="258.9652925927744,201.83834796933695 188.20572161673826,210.74772230416858 "/><polyline class="polyline" opacity="0.5" stroke="blue" points="259.28181469598957,203.30463662342302 188.00634293573796,211.15597187834115 "/><polyline class="polyline" opacity="0.5" stroke="blue" points="259.56914130096857,204.7661364213588 187.81498292000757,211.57499947971942 "/><polyline class="polyline" opacity="0.5" stroke="blue" points="259.82720735967956,206.22203747023417 187.63150950879782,212.00515779901602 "/><polyline class="polyline" opacity="0.5" stroke="blue" points="260.05596858424667,207.67153885150987 187.45577247701357,212.44678594493075 "/><polyline class="polyline" opacity="0.5" stroke="blue" points="260.2554012714776,209.11384928657495 187.287603433552,212.90020856699243 "/><polyline class="polyline" opacity="0.5" stroke="blue" points="260.42550210163006,210.54818777918715 187.12681584493836,213.36573498252363 "/><polyline class="polyline" opacity="0.5" stroke="blue" points="260.5662879122756,211.9737842339466 186.97320508514747,213.84365830935232 "/><polyline class="polyline" opacity="0.5" stroke="blue" points="260.6777954481615,213.3898800500312 186.82654851248532,214.33425460597437 "/><polyline class="polyline" opacity="0.5" stroke="blue" points="260.7600810880241,214.7957286895062 186.6866055743856,214.8377820209523 "/><polyline class="polyline" opacity="0.5" stroke="blue" points="260.81322054933923,216.1905962195992 186.55311794095158,215.35447995340982 "/><polyline class="polyline" opacity="0.5" stroke="blue" points="260.8373085720373,217.57376182841512 186.42580966804113,215.884568226557 "/><polyline class="polyline" opacity="0.5" stroke="blue" points="260.8324585822381,218.9445183136485 186.30438739065568,216.4282462762499 "/><polyline class="polyline" opacity="0.5" stroke="blue" points="260.79880233709173,220.3021725439276 186.1885405473501,216.98569235665275 "/><polyline class="polyline" opacity="0.5" stroke="blue" points="260.73648955183006,221.64604589250962 186.07794163632812,217.55706276513084 "/><polyline class="polyline" opacity="0.5" stroke="blue" points="260.6456875101564,222.97547464312032 185.97224650383248,218.1424910885553 "/><polyline class="polyline" opacity="0.5" stroke="blue" points="260.52658065911316,224.289810367813 185.8710946653729,218.7420874732482 "/><polyline class="polyline" opacity="0.5" stroke="blue" points="260.3793701895771,225.58842027679282 185.77410966026503,219.35593792083455 "/><polyline class="polyline" opacity="0.5" stroke="blue" points="260.2042736035398,226.87068754023085 185.68089943987496,219.98410361230006 "/><polyline class="polyline" opacity="0.5" stroke="blue" points="260.0015242693312,228.13601158215775 185.59105678988107,220.6266202625752 "/><polyline class="polyline" opacity="0.5" stroke="blue" points="259.77137096594447,229.3838083466015 185.50415978677194,221.2834975079785 "/><polyline class="polyline" opacity="0.5" stroke="blue" points="259.51407741761255,230.6135105361944 185.41977228870437,221.95471832885602 "/><polyline class="polyline" opacity="0.5" stroke="blue" points="259.2299218197806,231.82456782354154 185.33744446074058,222.64023850974434 "/><polyline class="polyline" opacity="0.5" stroke="blue" points="258.9191963576043,233.016447035701 185.2567133343762,223.3399861393672 "/><polyline class="polyline" opacity="0.5" stroke="blue" points="258.5822067180891,234.18863231218359 185.17710340115573,224.0538611527433 "/><polyline class="polyline" opacity="0.5" stroke="blue" points="258.21927159696776,235.3406252369349 185.09812724005366,224.78173491764147 "/><polyline class="polyline" opacity="0.5" stroke="blue" points="257.83072220139024,236.47194494480988 185.0192861781759,225.5234498675626 "/><polyline class="polyline" opacity="0.5" stroke="blue" points="257.4169017494785,237.58212820310223 184.9400709842082,226.27881918336138 "/><polyline class="polyline" opacity="0.5" stroke="blue" points="256.97816496776966,238.67072946872804 184.85996259390927,227.04762652553762 "/><polyline class="polyline" opacity="0.5" stroke="blue" points="256.5148775875451,239.73732092171073 184.77843286681045,227.8296258191348 "/><polyline class="polyline" opacity="0.5" stroke="blue" points="256.0274158410091,240.78149247564335 184.6949453731513,228.62454109307453 "/><polyline class="polyline" opacity="0.5" stroke="blue" points="255.51616595825146,241.8028517658448 184.60895620994222,229.43206637563634 "/><polyline class="polyline" opacity="0.5" stroke="blue" points="254.9815236658913,242.80102411595004 184.5199148449085,230.2518656476578 "/><polyline class="polyline" opacity="0.5" stroke="blue" points="254.42389368826528,243.7756524837054 184.42726498693474,231.08357285488475 "/><polyline class="polyline" opacity="0.5" stroke="blue" points="253.84368925198663,244.72639738675966 184.3304454814922,231.92679198074194 "/><polyline class="polyline" opacity="0.5" stroke="blue" points="253.24133159466243,245.65293680926402 184.22889122939924,232.78109718062575 "/><polyline class="polyline" opacity="0.5" stroke="blue" points="252.61724947851835,246.5549660901074 184.12203412713424,233.64603297863653 "/><polyline class="polyline" opacity="0.5" stroke="blue" points="251.9718787096412,247.4321977936303 184.0093040267957,234.5211145274787 "/><polyline class="polyline" opacity="0.5" stroke="blue" points="251.3056616635083,248.2843615636671 183.89012971368066,235.4058279320526 "/><polyline class="polyline" opacity="0.5" stroke="blue" points="250.61904681743368,249.11120396177586 183.76393989934036,236.29963063705176 "/><polyline class="polyline" opacity="0.5" stroke="blue" points="249.9124882905201,249.9124882905201 183.63016422785944,237.20195187866085 "/><polyline class="polyline" opacity="0.5" stroke="blue" points="249.18644539166576,250.6879944026647 183.48823429300802,238.1121932002229 "/><polyline class="polyline" opacity="0.5" stroke="blue" points="248.44138217613323,251.43751849715278 183.33758466381983,239.02972903151382 "/><polyline class="polyline" opacity="0.5" stroke="blue" points="247.67776701115093,252.16087290272057 183.17765391606855,239.95390733102482 "/><polyline class="polyline" opacity="0.5" stroke="blue" points="246.8960721509734,252.85788585000847 183.00788566704028,240.88405029041638 "/><polyline class="polyline" opacity="0.5" stroke="blue" points="246.09677332179248,253.5284012330119 182.827729610938,241.81945510006494 "/><polyline class="polyline" opacity="0.5" stroke="blue" points="245.2803493168496,254.17227836071098 182.63664255220226,242.75939477438317 "/><polyline class="polyline" opacity="0.5" stroke="blue" points="244.44728160206319,254.78939169970243 182.43408943399484,243.70311903535443 "/><polyline class="polyline" opacity="0.5" stroke="blue" points="243.59805393244824,255.3796306086459 182.2195443590646,244.64985525248585 "/><polyline class="polyline" opacity="0.5" stroke="blue" points="242.7331519795696,255.94289906532018 181.99249160020207,245.59880943714978 "/><polyline class="polyline" opacity="0.5" stroke="blue" points="241.85306297023442,256.4791153870685 181.75242659748997,246.54916728905866 "/><polyline class="polyline" opacity="0.5" stroke="blue" points="240.95827533659667,256.9882119453941 181.49885693956983,247.50009529239605 "/><polyline class="polyline" opacity="0.5" stroke="blue" points="240.04927837781466,257.4701348754477 181.23130332617382,248.4507418589165 "/><polyline class="polyline" opacity="0.5" stroke="blue" points="239.12656193336773,257.92484378112823 180.949300509211,249.4002385151275 "/><polyline class="polyline" opacity="0.5" stroke="blue" points="238.19061606811212,258.35231143649696 180.65239820975432,250.34770113047486 "/><polyline class="polyline" opacity="0.5" stroke="blue" points="237.2419307691248,258.75252348418167 180.34016200834247,251.29223118327775 "/><polyline class="polyline" opacity="0.5" stroke="blue" points="236.2809956543561,259.1254781314274 180.01217420609402,252.23291706099948 "/><polyline class="polyline" opacity="0.5" stroke="blue" points="235.30829969308698,259.4711858444237 179.66803465422635,253.16883539128932 "/><polyline class="polyline" opacity="0.5" stroke="blue" points="234.32433093815996,259.7896690415159 179.30736154968045,254.09905240010482 "/><polyline class="polyline" opacity="0.5" stroke="blue" points="233.32957626993147,260.0809617858836 178.92979219467279,255.0226252931073 "/><polyline class="polyline" opacity="0.5" stroke="blue" points="232.32452115186794,260.3451094782451 178.53498371812688,255.9386036564316 "/><polyline class="polyline" opacity="0.5" stroke="blue" points="231.30964939768901,260.5821685501196 178.1226137570788,256.84603087285285 "/><polyline class="polyline" opacity="0.5" stroke="blue" points="230.2854429499402,260.79220615815814 177.69238109630427,257.7439455493186 "/><polyline class="polyline" opacity="0.5" stroke="blue" points="229.25238166986085,260.9752998800246 177.2440062645739,258.6313829517759 "/><polyline class="polyline" opacity="0.5" stroke="blue" points="228.21094313839268,261.1315374122871 176.77723208611283,259.5073764432081 "/><polyline class="polyline" opacity="0.5" stroke="blue" points="227.16160246816122,261.26101627075377 176.2918241860163,260.370958920799 "/><polyline class="polyline" opacity="0.5" stroke="blue" points="226.10483212624612,261.3638434936619 175.78757144855308,261.22116424816465 "/><polyline class="polyline" opacity="0.5" stroke="blue" points="225.04110176754438,261.44013534810654 175.2642864274758,262.0570286786384 "/><polyline class="polyline" opacity="0.5" stroke="blue" points="223.97087807851517,261.49001704007094 174.7218057076447,262.87759226565623 "/><polyline class="polyline" opacity="0.5" stroke="blue" points="222.8946246310868,261.5136224283954 174.15999021746347,263.681900256373 "/><polyline class="polyline" opacity="0.5" stroke="blue" points="221.81280174649575,261.5110937430019 173.5787254918191,264.4690044647376 "/><polyline class="polyline" opacity="0.5" stroke="blue" points="220.72586636881604,261.48258130766516 172.97792188540834,265.23796462037876 "/><polyline class="polyline" opacity="0.5" stroke="blue" points="219.63427194793255,261.4282432676034 172.35751473652505,265.98784968978055 "/><polyline class="polyline" opacity="0.5" stroke="blue" points="218.53846833170243,261.348245322136 171.71746448157188,266.7177391663852 "/><polyline class="polyline" opacity="0.5" stroke="blue" points="217.43890166704472,261.2427604626374 171.05775672074407,267.4267243264178 "/><polyline class="polyline" opacity="0.5" stroke="blue" points="216.33601430969037,261.1119687159969 170.37840223551294,268.1139094474144 "/><polyline class="polyline" opacity="0.5" stroke="blue" points="215.23024474232292,260.95605689377027 169.67943695871216,268.77841298661787 "/><polyline class="polyline" opacity="0.5" stroke="blue" points="214.12202750083512,260.7752183471955 168.96092189819774,269.4193687166136 "/><polyline class="polyline" opacity="0.5" stroke="blue" points="213.01179310842528,260.5696527282231 168.2229430152133,270.0359268157836 "/><polyline class="polyline" opacity="0.5" stroke="blue" points="211.89996801725312,260.33956575669447 167.4656110587428,270.62725491137974 "/><polyline class="polyline" opacity="0.5" stroke="blue" points="210.78697455737466,260.0851689937855 166.68906135727832,271.19253907323935 "/><polyline class="polyline" opacity="0.5" stroke="blue" points="209.67323089267634,259.8066796218168 165.89345356956295,271.7309847563985 "/><polyline class="polyline" opacity="0.5" stroke="blue" points="208.55915098352486,259.5043202305134 165.07897139598973,272.2418176910919 "/><polyline class="polyline" opacity="0.5" stroke="blue" points="207.44514455585312,259.1783186097864 164.24582225245376,272.724284718863 "/><polyline class="polyline" opacity="0.5" stroke="blue" points="206.33161707640096,258.8289075490908 163.39423690855176,273.1776545737468 "/><polyline class="polyline" opacity="0.5" stroke="blue" points="205.21896973383375,258.4563246434014 162.52446909211574,273.60121860772017 "/><polyline class="polyline" opacity="0.5" stroke="blue" points="204.1075994254593,258.0608121058379 161.63679506214294,273.9942914598521 "/><polyline class="polyline" opacity="0.5" stroke="blue" points="202.9978987492708,257.6426165869535 160.73151315225232,274.35621166881265 "/><polyline class="polyline" opacity="0.5" stroke="blue" points="201.89025600104128,257.20198900069465 159.80894328685002,274.6863422286282 "/><polyline class="polyline" opacity="0.5" stroke="blue" points="200.78505517620317,256.7391843570239 158.8694264722308,274.9840710877878 "/><polyline class="polyline" opacity="0.5" stroke="blue" points="199.68267597624398,256.25446160119213 157.91332426487077,275.2488115920199 "/><polyline class="polyline" opacity="0.5" stroke="blue" points="198.5834938193576,255.74808345963132 156.94101821918764,275.48000287126257 "/><polyline class="polyline" opacity="0.5" stroke="blue" points="197.48787985509108,255.2203162924345 155.95290931705222,275.6771101715489 "/><polyline class="polyline" opacity="0.5" stroke="blue" points="196.39620098273355,254.67142995237785 154.94941738133312,275.83962513271223 "/><polyline class="polyline" opacity="0.5" stroke="blue" points="195.30881987319458,254.10169765043293 153.93098047574097,275.96706601299604 "/><polyline class="polyline" opacity="0.5" stroke="blue" points="194.2260949941264,253.511395827708 152.898054293218,276.0589778618182 "/><polyline class="polyline" opacity="0.5" stroke="blue" points="193.1483806380485,252.9008040337532 151.85111153508626,276.11493264209184 "/><polyline class="polyline" opacity="0.5" stroke="blue" points="192.07602695323527,252.27020481115338 150.7906412831236,276.13452930364997 "/><polyline class="polyline" opacity="0.5" stroke="blue" points="191.00937997713496,251.61988358632982 149.71714836668986,276.11739380945244 "/><polyline class="polyline" opacity="0.5" stroke="blue" points="189.94878167209038,250.950128566464 148.6311527269666,276.0631791163693 "/><polyline class="polyline" opacity="0.5" stroke="blue" points="188.89456996313933,250.26123064245226 147.53318878031098,275.97156511244395 "/><polyline class="polyline" opacity="0.5" stroke="blue" points="187.84707877767306,249.55348329779477 146.4238047826501,275.8422585126325 "/><polyline class="polyline" opacity="0.5" stroke="blue" points="186.8066380867406,248.82718252331705 145.30356219677037,275.6749927150979 "/><polyline class="polyline" opacity="0.5" stroke="blue" points="185.77357394778804,248.0826267376188 144.17303506426936,275.4695276202054 "/><polyline class="polyline" opacity="0.5" stroke="blue" points="184.74820854862864,247.32011671314098 143.0328093838571,275.2256494144276 "/><polyline class="polyline" opacity="0.5" stroke="blue" points="183.73086025244245,246.53995550773652 141.88348249759886,274.94317032140845 "/><polyline class="polyline" opacity="0.5" stroke="blue" points="182.72184364361036,245.74244840162913 140.72566248660104,274.6219283224756 "/><polyline class="polyline" opacity="0.5" stroke="blue" points="181.7214695741909,244.92790283963942 139.55996757754616,274.26178684891033 "/><polyline class="polyline" opacity="0.5" stroke="blue" points="180.73004521085426,244.09662837855663 138.38702556138458,273.8626344483022 "/><polyline class="polyline" opacity="0.5" stroke="blue" points="179.74787408208914,243.24893663952912 137.2074732253919,273.4243844273142 "/><polyline class="polyline" opacity="0.5" stroke="blue" points="178.77525612550616,242.3851412653463 136.02195579970112,272.9469744731837 "/><polyline class="polyline" opacity="0.5" stroke="blue" points="177.81248773506388,241.50555788248263 134.83112641931993,272.43036625626746 "/><polyline class="polyline" opacity="0.5" stroke="blue" points="176.85986180804682,240.61050406776937 133.63564560254173,271.87454501591446 "/><polyline class="polyline" opacity="0.5" stroke="blue" points="175.91766779163092,239.70029931956125 132.4361807465609,271.2795191319235 "/><polyline class="polyline" opacity="0.5" stroke="blue" points="174.9861917288741,238.77526503326123 131.2334056410051,270.6453196838021 "/><polyline class="polyline" opacity="0.5" stroke="blue" points="174.06571630397528,237.83572448106594 130.02800000000002,269.972 "/><polyline class="polyline" opacity="0.5" stroke="blue" points="173.156520886646,236.8820027957915 128.8206490132873,269.25963519924045 "/><polyline class="polyline" opacity="0.5" stroke="blue" points="172.25888157544603,235.9144269586391 127.61204291682358,268.5083217260157 "/><polyline class="polyline" opacity="0.5" stroke="blue" points="171.37307123993443,234.93332579075775 126.4028765831981,267.718176882256 "/><polyline class="polyline" opacity="0.5" stroke="blue" points="170.49935956149437,233.93902994846098 125.19384913211951,266.8893383571128 "/><polyline class="polyline" opacity="0.5" stroke="blue" points="169.6380130726897,232.93187192195057 123.98566356113544,266.0219637567331 "/><polyline class="polyline" opacity="0.5" stroke="blue" points="168.78929519501713,231.91218603740248 122.77902639666775,265.1162301358273 "/><polyline class="polyline" opacity="0.5" stroke="blue" points="167.95346627492023,230.88030846226593 121.57464736536741,264.17233353276123 "/><polyline class="polyline" opacity="0.5" stroke="blue" points="167.13078361793413,229.83657721362732 120.37323908571737,263.1904885098276 "/><polyline class="polyline" opacity="0.5" stroke="blue" points="166.32150152083238,228.78133216948797 119.17551677973685,262.1709277002734 "/><polyline class="polyline" opacity="0.5" stroke="blue" points="165.52587130165165,227.71491508280337 117.98219800457487,261.11390136358176 "/><polyline class="polyline" opacity="0.5" stroke="blue" points="164.74414132747103,226.63766959813302 116.79400240371278,260.0196769504297 "/><polyline class="polyline" opacity="0.5" stroke="blue" points="163.97655703982645,225.54994127074335 115.6116514774326,258.88853867865924 "/><polyline class="polyline" opacity="0.5" stroke="blue" points="163.2233609776424,224.4520775880103 114.43586837214981,257.72078712152506 "/><polyline class="polyline" opacity="0.5" stroke="blue" points="162.48479279756668,223.34442799296312 113.26737768815202,256.51673880939745 "/><polyline class="polyline" opacity="0.5" stroke="blue" points="161.7610892915957,222.227343909811 112.1069053052341,255.27672584602547 "/><polyline class="polyline" opacity="0.5" stroke="blue" points="161.0524844018796,221.10117877129153 110.9551782256662,254.0010955403833 "/><polyline class="polyline" opacity="0.5" stroke="blue" points="160.35920923260045,219.96628804768002 109.81292443388921,252.6902100550477 "/><polyline class="polyline" opacity="0.5" stroke="blue" points="159.68149205881684,218.82302927729438 108.68087277228335,251.34444607197943 "/><polyline class="polyline" opacity="0.5" stroke="blue" points="159.0195583321737,217.67176209833195 107.55975283231855,249.96419447650703 "/><polyline class="polyline" opacity="0.5" stroke="blue" points="158.3736306833738,216.51284828186934 106.45029486035135,248.54986006023668 "/><polyline class="polyline" opacity="0.5" stroke="blue" points="157.74392892131425,215.34665176585628 105.35322967730193,247.10186124354436 "/><polyline class="polyline" opacity="0.5" stroke="blue" points="157.13067002879055,214.17353868993226 104.26928861140506,245.62062981823402 "/><polyline class="polyline" opacity="0.5" stroke="blue" points="156.5340681546741,212.99387743089304 103.19920344320259,244.10661071088109 "/><polyline class="polyline" opacity="0.5" stroke="blue" points="155.95433460247122,211.80803863862965 102.14370636190819,242.56026176731166 "/><polyline class="polyline" opacity="0.5" stroke="blue" points="155.39167781517358,210.61639527236278 101.10352993225302,240.98205355860534 "/><polyline class="polyline" opacity="0.5" stroke="blue" points="154.84630335631317,209.41932263699292 100.0794070708887,239.37246920895046 "/><polyline class="polyline" opacity="0.5" stroke="blue" points="154.31841388713627,208.21719841938105 99.07207103140287,237.73200424561333 "/><polyline class="polyline" opacity="0.5" stroke="blue" points="153.80820913981393,207.01040272437632 98.08225539697415,236.06116647123167 "/><polyline class="polyline" opacity="0.5" stroke="blue" points="153.31588588660884,205.799318110401 97.11069407967467,234.36047585858014 "/><polyline class="polyline" opacity="0.5" stroke="blue" points="152.84163790492167,204.58432962440327 96.1581213254028,232.63046446790477 "/><polyline class="polyline" opacity="0.5" stroke="blue" points="152.38565593814096,203.36582483598215 95.22527172340864,230.87167638686336 "/><polyline class="polyline" opacity="0.5" stroke="blue" points="151.94812765222585,202.14419387048943 94.3128802193544,229.08466769306239 "/><polyline class="polyline" opacity="0.5" stroke="blue" points="151.529237587952,200.9198294409075 93.42168213083146,227.2700064391237 "/><polyline class="polyline" opacity="0.5" stroke="blue" points="151.12916710875518,199.6931268783024 92.55241316423628,225.42827266016891 "/><polyline class="polyline" opacity="0.5" stroke="blue" points="150.7480943441102,198.46448416064376 91.70580943188786,223.56005840355357 "/><polyline class="polyline" opacity="0.5" stroke="blue" points="150.38619412838523,197.23430193978476 90.88260746824915,221.66596778063894 "/><polyline class="polyline" opacity="0.5" stroke="blue" points="150.04363793511754,196.00298356638967 90.08354424409934,219.74661704033923 "/><polyline class="polyline" opacity="0.5" stroke="blue" points="149.72059380665794,194.7709351125933 89.30935717747965,217.80263466413106 "/><polyline class="polyline" opacity="0.5" stroke="blue" points="149.4172262791371,193.53856539217452 88.56078414022038,215.83466148216758 "/><polyline class="polyline" opacity="0.5" stroke="blue" points="149.1336963027099,192.30628597802243 87.83856345883603,213.8433508100871 "/><polyline class="polyline" opacity="0.5" stroke="blue" points="148.87016115704049,191.07451121667108 87.1434339085554,211.82936860606316 "/><polyline class="polyline" opacity="0.5" stroke="blue" points="148.6267743619931,189.84365823967437 86.4761346992356,209.79339364758553 "/><polyline class="polyline" opacity="0.5" stroke="blue" points="148.40368558350056,188.61414697159117 85.83740545188753,207.73611772741947 "/><polyline class="polyline" opacity="0.5" stroke="blue" points="148.201040534587,187.38640013434673 85.22798616452103,205.65824586813395 "/><polyline class="polyline" opacity="0.5" stroke="blue" points="148.01898087152802,186.16084324773524 84.64861716599965,203.560496554543 "/><polyline class="polyline" opacity="0.5" stroke="blue" points="147.8576440851357,184.93790462582263 84.10003905657075,201.4436019833435 "/><polyline class="polyline" opacity="0.5" stroke="blue" points="147.71716338716428,183.71801536900963 83.58299263372011,199.3083083291858 "/><polyline class="polyline" opacity="0.5" stroke="blue" points="147.59766759183796,182.50160935151 83.09821880197852,197.1553760263494 "/><polyline class="polyline" opacity="0.5" stroke="blue" points="147.49928099250926,181.2891232039989 82.64645846528846,194.98558006514529 "/><polyline class="polyline" opacity="0.5" stroke="blue" points="147.42212323346482,180.0809962911818 82.22845240051757,192.79971030209617 "/><polyline class="polyline" opacity="0.5" stroke="blue" points="147.366309176902,178.87767068403429 81.8449411106871,190.59857178289028 "/><polyline class="polyline" opacity="0.5" stroke="blue" points="147.33194876510944,177.67959112646255 81.4966646564671,188.3829850770368 "/><polyline class="polyline" opacity="0.5" stroke="blue" points="147.31914687789188,176.48720499612946 81.18436246446667,186.15378662307927 "/><polyline class="polyline" opacity="0.5" stroke="blue" points="147.32800318529019,175.30096225919482 80.90877311083572,183.91182908315648 "/><polyline class="polyline" opacity="0.5" stroke="blue" points="147.3586119956558,174.12131541871358 80.67063407867647,181.6579817056227 "/><polyline class="polyline" opacity="0.5" stroke="blue" points="147.4110620991491,172.9487194564402 80.4706814877481,179.39313069436662 "/><polyline class="polyline" opacity="0.5" stroke="blue" points="147.4854366067429,171.78363176778242 80.30964979493757,177.11817958338008 "/><polyline class="polyline" opacity="0.5" stroke="blue" points="147.58181278482053,170.62651208965332 80.18827146395691,174.8340496150529 "/><polyline class="polyline" opacity="0.5" stroke="blue" points="147.70026188547212,169.47782242096775 80.10727660272072,172.54168012057528 "/><polyline class="polyline" opacity="0.5" stroke="blue" points="147.84084897260232,168.33802693553528 80.06739256685414,170.24202890074667 "/><polyline class="polyline" opacity="0.5" stroke="blue" points="148.00363274397674,167.20759188709886 80.06934352777593,167.93607260538755 "/><polyline class="polyline" opacity="0.5" stroke="blue" points="148.18866534934486,166.08698550627662 80.11385000380824,165.62480710946141 "/><polyline class="polyline" opacity="0.5" stroke="blue" points="148.39599220479306,164.9766778891634 80.20162835276774,163.30924788390837 "/><polyline class="polyline" opacity="0.5" stroke="blue" points="148.62565180349264,163.87714087735662 80.33339022450654,160.99043035909432 "/><polyline class="polyline" opacity="0.5" stroke="blue" points="148.87767552302265,162.78884792917302 80.50984197188475,158.66941027866505 "/><polyline class="polyline" opacity="0.5" stroke="blue" points="149.15208742946285,161.71227398182975 80.73168401868429,156.34726404149322 "/><polyline class="polyline" opacity="0.5" stroke="blue" points="149.44890407846464,160.6478953043713 80.99961018299686,154.02508902929227 "/><polyline class="polyline" opacity="0.5" stroke="blue" points="149.76813431352565,159.5961893411276 81.31430695466044,151.70400391735342 "/><polyline class="polyline" opacity="0.5" stroke="blue" points="150.10977906170737,158.55763454550095 81.67645272535906,149.38514896575214 "/><polyline class="polyline" opacity="0.5" stroke="blue" points="150.4738311270528,157.53271020388473 82.08671697005663,147.06968628824808 "/><polyline class="polyline" opacity="0.5" stroke="blue" points="150.86027498197575,156.52189624953115 82.5457593784955,144.75880009598998 "/><polyline class="polyline" opacity="0.5" stroke="blue" points="151.26908655691204,155.52567306619136 83.05422893556353,142.45369691301025 "/><polyline class="polyline" opacity="0.5" stroke="blue" points="151.7002330285383,154.54452128136825 83.61276294941663,140.1556057603833 "/><polyline class="polyline" opacity="0.5" stroke="blue" points="152.15367260688222,153.57892154903197 84.22198602633848,137.86577830579915 "/><polyline class="polyline" opacity="0.5" stroke="blue" points="152.62935432166466,152.62935432166466 84.88250899142444,135.58548897519086 "/><polyline class="polyline" opacity="0.5" stroke="blue" points="153.12721780823253,151.69629961151426 85.59492775430067,133.31603502293802 "/><polyline class="polyline" opacity="0.5" stroke="blue" points="153.6471930934587,150.78023674095567 86.35982211921822,131.05873655706006 "/><polyline class="polyline" opacity="0.5" stroke="blue" points="154.18920038200264,149.8816440818737 87.17775453901704,128.81493651570872 "/><polyline class="polyline" opacity="0.5" stroke="blue" points="154.75314984334366,149.00099878400283 88.04926881261241,126.58600059116826 "/><polyline class="polyline" opacity="0.5" stroke="blue" points="155.3389414000163,148.13877649217588 88.97488872584394,124.37331709747735 "/><polyline class="polyline" opacity="0.5" stroke="blue" points="155.94646451749583,147.29545105245856 89.95511663571966,122.17829677770513 "/><polyline class="polyline" opacity="0.5" stroke="blue" points="156.5755979961969,146.47149420716718 90.99043199830454,120.00237254683785 "/><polyline class="polyline" opacity="0.5" stroke="blue" points="157.22620976606936,145.66737527879002 92.0812898407387,117.84699916616684 "/><polyline class="polyline" opacity="0.5" stroke="blue" points="157.89815668428852,144.88356084286 93.22811917811768,115.71365284502001 "/><polyline class="polyline" opacity="0.5" stroke="blue" points="158.591284336557,144.12051438985023 94.43132137624481,113.60383076564007 "/><polyline class="polyline" opacity="0.5" stroke="blue" points="159.3054268425479,143.37869597619326 95.69126846155025,111.51905052699715 "/><polyline class="polyline" opacity="0.5" stroke="blue" points="160.04040666603825,142.6585618645513 97.00830137978764,109.46084950331203 "/><polyline class="polyline" opacity="0.5" stroke="blue" points="160.7960344302943,141.96056415349676 98.38272820544509,107.43078411309487 "/><polyline class="polyline" opacity="0.5" stroke="blue" points="161.5721087392848,141.28515039679118 99.81482230416302,105.43042899453516 "/><polyline class="polyline" opacity="0.5" stroke="blue" points="162.36841600531164,140.63276321248478 101.3048204508135,103.46137608314919 "/><polyline class="polyline" opacity="0.5" stroke="blue" points="163.18473028366165,140.0038398820895 102.85292090629443,101.52523358767503 "/><polyline class="polyline" opacity="0.5" stroke="blue" points="164.0208131148911,139.39881194011448 104.45928145649195,99.6236248603291 "/><polyline class="polyline" opacity="0.5" stroke="blue" points="164.87641337536897,138.81810475428654 106.12401741729404,97.75818715768136 "/><polyline class="polyline" opacity="0.5" stroke="blue" points="165.75126713671,138.26213709681542 107.84719960997847,95.93057028859361 "/><polyline class="polyline" opacity="0.5" stroke="blue" points="166.64509753474033,137.73132070709855 109.62885231175845,94.14243514587248 "/><polyline class="polyline" opacity="0.5" stroke="blue" points="167.55761464864204,137.22605984629877 111.46895118673896,92.39545211854772 "/><polyline class="polyline" opacity="0.5" stroke="blue" points="168.48851539092823,136.74675084426656 113.36742120301831,90.69129938197227 "/><polyline class="polyline" opacity="0.5" stroke="blue" points="169.43748340890488,136.2937816393151 115.3241345421681,89.03166106327195 "/><polyline class="polyline" opacity="0.5" stroke="blue" points="170.40418899827554,135.86753131139832 117.33890850781911,87.41822528004298 "/><polyline class="polyline" opacity="0.5" stroke="blue" points="171.38828902954566,135.4683696092778 119.41150344058894,85.85268205061027 "/><polyline class="polyline" opacity="0.5" stroke="blue" points="172.389426887879,135.0966564723073 121.54162064709003,84.33672107462091 "/><polyline class="polyline" opacity="0.5" stroke="blue" points="173.40723242705775,134.7527415475006 123.72890035126358,82.87202938324344 "/><polyline class="polyline" opacity="0.5" stroke="blue" points="174.4413219381877,134.43696370258817 125.97291967677842,81.46028885880143 "/><polyline class="polyline" opacity="0.5" stroke="blue" points="175.4912981337834,134.14965053580826 128.27319066972325,80.10317362425734 "/><polyline class="polyline" opacity="0.5" stroke="blue" points="176.55675014785533,133.8911178832152 130.6291583712866,78.80234730360733 "/><polyline class="polyline" opacity="0.5" stroke="blue" points="177.63725355261008,133.66166932432628 133.04019895057866,77.55946015493018 "/><polyline class="polyline" opacity="0.5" stroke="blue" points="178.73237039235653,133.46159568696555 135.50561790816806,76.37614607856351 "/><polyline class="polyline" opacity="0.5" stroke="blue" points="179.841649235192,133.2911745521998 138.02464836130204,75.25401950365314 "/><polyline class="polyline" opacity="0.5" stroke="blue" points="180.96462524302413,133.1506697602954 140.59644942214385,74.1946721571281 "/><polyline class="polyline" opacity="0.5" stroke="blue" points="182.10082026045785,133.04033091866015 143.22010468067,73.1996697200073 "/><polyline class="polyline" opacity="0.5" stroke="blue" points="183.24974292305154,132.96039291276554 145.89462080414341,72.27054837682286 "/><polyline class="polyline" opacity="0.5" stroke="blue" points="184.41088878541638,132.91107542107483 148.61892626528598,71.40881126485729 "/><polyline class="polyline" opacity="0.5" stroke="blue" points="185.58374046960316,132.89258243503167 151.39187021143522,70.61592483082956 "/><polyline class="polyline" opacity="0.5" stroke="blue" points="186.76776783418416,132.90510178519014 154.21222148704442,69.8933151036207 "/><polyline class="polyline" opacity="0.5" stroke="blue" points="187.96242816440167,132.94880467458987 157.07866782190638,69.24236389260062 "/><polyline class="polyline" opacity="0.5" stroke="blue" points="189.1671663837134,133.02384522050326 159.98981519740377,68.66440492209423 "/><polyline class="polyline" opacity="0.5" stroke="blue" points="190.38141528702502,133.13036000569804 162.94418740294785,68.16071991350043 "/><polyline class="polyline" opacity="0.5" stroke="blue" points="191.60459579585242,133.26846764037657 165.94022579451277,67.73253462754724 "/><polyline class="polyline" opacity="0.5" stroke="blue" points="192.8361172356099,133.4382683359637 168.97628926684266,67.38101488011517 "/><polyline class="polyline" opacity="0.5" stroke="blue" points="194.07537763516905,133.6398434919248 172.050654450463,67.10726254598538 "/><polyline class="polyline" opacity="0.5" stroke="blue" points="195.3217640487835,133.87325529680248 175.16151614409543,66.91231156575523 "/><polyline class="polyline" opacity="0.5" stroke="blue" points="196.5746529004169,134.13854634465986 178.30698799241995,66.79712397200959 "/><polyline class="polyline" opacity="0.5" stroke="blue" points="197.83341035045532,134.435739268119 181.48510341837414,66.76258595161443 "/><polyline class="polyline" opacity="0.5" stroke="blue" points="199.09739268472936,134.76483638917563 184.69381681831908,66.80950396172253 "/><polyline class="polyline" opacity="0.5" stroke="blue" points="200.36594672570692,135.12581938896165 187.93100502742087,66.93860091771793 "/><polyline class="polyline" opacity="0.5" stroke="blue" points="201.6384102656586,135.51864899761358 191.1944690615201,67.15051247187415 "/><polyline class="polyline" opacity="0.5" stroke="blue" points="202.9141125215313,135.94326470538397 194.481936140568,67.4457834019579 "/><polyline class="polyline" opacity="0.5" stroke="blue" points="204.19237461120537,136.39958449611441 197.79106199742654,67.82486412934739 "/><polyline class="polyline" opacity="0.5" stroke="blue" points="205.47251005073986,136.88750460415568 201.1194334744362,68.28810738645808 "/><polyline class="polyline" opacity="0.5" stroke="blue" points="206.75382527214944,137.40689929579366 204.46457140868336,68.83576505336535 "/><polyline class="polyline" opacity="0.5" stroke="blue" points="208.03562016118434,137.95762067619964 207.82393380533557,69.46798518346878 "/><polyline class="polyline" opacity="0.5" stroke="blue" points="209.31718861452376,138.53949852288486 211.19491929678844,70.18480923785947 "/><polyline class="polyline" opacity="0.5" stroke="blue" points="210.59781911572165,139.15234014659188 214.5748708836648,70.98616954771308 "/><polyline class="polyline" opacity="0.5" stroke="blue" points="211.8767953291802,139.79593028050755 217.9610799519684,71.87188702354393 "/><polyline class="polyline" opacity="0.5" stroke="blue" points="213.1533967113583,140.47003099862494 221.3507905589045,72.84166912950316 "/><polyline class="polyline" opacity="0.5" stroke="blue" points="214.4268991383614,141.17438166402573 224.74120397808312,73.89510814009557 "/><polyline class="polyline" opacity="0.5" stroke="blue" points="215.6965755489912,141.9086989077914 228.1294834929999,75.03167969572095 "/><polyline class="polyline" opacity="0.5" stroke="blue" points="216.96169660227483,142.67267663918224 231.51275942588367,76.25074167231276 "/><polyline class="polyline" opacity="0.5" stroke="blue" points="218.2215313484328,143.46598608765606 234.88813438722943,77.55153337906641 "/><polyline class="polyline" opacity="0.5" stroke="blue" points="219.47534791218618,144.28827587722247 238.2526887295869,78.93317509681157 "/><polyline class="polyline" opacity="0.5" stroke="blue" points="220.7224141872503,145.13917213355094 241.60348618750842,80.39466796800534 "/><polyline class="polyline" opacity="0.5" stroke="blue" points="221.96199854080652,146.01827862416994 244.93757968395295,81.93489424761002 "/><polyline class="polyline" opacity="0.5" stroke="blue" points="223.19337052669914,146.9251769320129 248.25201728195285,83.55261792228626 "/><polyline class="polyline" opacity="0.5" stroke="blue" points="224.41580160605463,147.85942666247755 251.54384825895016,85.24648570338628 "/><polyline class="polyline" opacity="0.5" stroke="blue" points="225.6285658739802,148.82056568407995 254.81012927996062,87.015028397192 "/><polyline class="polyline" opacity="0.5" stroke="blue" points="226.83094079095915,149.80811040269066 258.0479306446008,88.8566626537215 "/><polyline class="polyline" opacity="0.5" stroke="blue" points="228.02220791752916,150.82155606925343 261.25434258207457,90.76969309325251 "/><polyline class="polyline" opacity="0.5" stroke="blue" points="229.20165365079632,151.86037712078866 264.42648156742246,92.75231480748151 "/><polyline class="polyline" opacity="0.5" stroke="blue" points="230.36856996131607,152.92402755439508 267.56149663175273,94.80261622999694 "/><polyline class="polyline" opacity="0.5" stroke="blue" points="231.52225512884877,154.01194133386437 270.65657563876516,96.91858236849275 "/></svg>
