<?xml version="1.0" encoding="UTF-8"?>
<!DOCTYPE svg PUBLIC "-//W3C//DTD SVG 1.1//EN"
    "http://www.w3.org/Graphics/SVG/1.1/DTD/svg11.dtd"><svg width="400" height="400" stroke="black" fill="none" fill-opacity="0.75" font-size="14" font-style="italic" font-family="sans-serif" xmlns="http://www.w3.org/2000/svg" xmlns:xlink="http://www.w3.org/1999/xlink" version="1.1"><filter id="blur1"><feGaussianBlur stdDeviation="0.5"/></filter><rect width="100%" height="100%" fill="white" stroke="none" fill-opacity="1"/><rect class="bg" fill="black" width="100%" height="100%" stroke="none" fill-opacity="1"/><polyline class="polyline" opacity="0.5" stroke="blue" points="238.9195872190179,161.27483345494807 287.8025000481074,112.65850783977527 "/><polyline class="polyline" opacity="0.5" stroke="blue" points="240.04450203148951,162.44960283019375 290.67090128894256,114.9674953379496 "/><polyline class="polyline" opacity="0.5" stroke="blue" points="241.14990356803776,163.6426336382529 293.4758143976872,117.32160734146555 "/><polyline class="polyline" opacity="0.5" stroke="blue" points="242.2351490580581,164.85322834563047 296.2149845817604,119.71820953431266 "/><polyline class="polyline" opacity="0.5" stroke="blue" points="243.29961059619282,166.08067685549423 298.8862608506558,122.1546209848152 "/><polyline class="polyline" opacity="0.5" stroke="blue" points="244.34267575482397,167.3242572214167 301.48759983773647,124.62812012263771 "/><polyline class="polyline" opacity="0.5" stroke="blue" points="245.363748173781,168.58323637704396 304.01706925559967,127.13595078663548 "/><polyline class="polyline" opacity="0.5" stroke="blue" points="246.36224812611766,169.85687088019472 306.47285097425004,129.67532831667492 "/><polyline class="polyline" opacity="0.5" stroke="blue" points="247.33761305888402,171.14440766985487 308.8532437136352,132.2434456626669 "/><polyline class="polyline" opacity="0.5" stroke="blue" points="248.28929810788864,172.44508483450554 311.15666534444995,134.8374794843656 "/><polyline class="polyline" opacity="0.5" stroke="blue" points="249.21677658552136,173.75813239019573 313.38165479346134,137.45459621598462 "/><polyline class="polyline" opacity="0.5" stroke="blue" points="250.1195404407848,175.0827730667538 315.52687355193984,140.09195807036664 "/><polyline class="polyline" opacity="0.5" stroke="blue" points="250.99710069076207,176.41822310051793 317.5911067880693,142.7467289582922 "/><polyline class="polyline" opacity="0.5" stroke="blue" points="251.84898782283125,177.76369303195915 319.5732640664427,145.4160802995263 "/><polyline class="polyline" opacity="0.5" stroke="blue" points="252.67475216702027,179.11838850656798 321.4723796798993,148.09719670335602 "/><polyline class="polyline" opacity="0.5" stroke="blue" points="253.4739642379811,180.48151107738133 323.2876126010158,150.78728149766044 "/><polyline class="polyline" opacity="0.5" stroke="blue" points="254.24621504615007,181.85225900753443 325.01824606251097,153.4835620869541 "/><polyline class="polyline" opacity="0.5" stroke="blue" points="254.99111637774638,183.22982807123873 326.66368677763904,156.1832951213458 "/><polyline class="polyline" opacity="0.5" stroke="blue" points="255.70830104334846,184.61341235160737 328.22346381333114,158.88377145993704 "/><polyline class="polyline" opacity="0.5" stroke="blue" points="256.3974230948762,186.00220503377477 329.697227130378,161.58232091382897 "/><polyline class="polyline" opacity="0.5" stroke="blue" points="257.0581580108927,187.39539919178864 331.0847458063264,164.27631675560283 "/><polyline class="polyline" opacity="0.5" stroke="blue" points="257.69020285022424,188.7921885677879 332.3859059579799,166.9631799838608 "/><polyline class="polyline" opacity="0.5" stroke="blue" points="258.29327637398393,190.1917683420201 333.60070838144543,169.64038333315585 "/><polyline class="polyline" opacity="0.5" stroke="blue" points="258.8671191361656,191.59333589229735 334.7292659285537,172.30545502137508 "/><polyline class="polyline" opacity="0.5" stroke="blue" points="259.41149354305634,192.99609154153688 335.77180063919786,174.95598222836156 "/><polyline class="polyline" opacity="0.5" stroke="blue" points="259.9261838817946,194.39923929208723 336.72864064968775,177.58961430125137 "/><polyline class="polyline" opacity="0.5" stroke="blue" points="260.4109963184784,195.80198754559427 337.60021689760055,180.20406568364757 "/><polyline class="polyline" opacity="0.5" stroke="blue" points="260.8657588663,197.20354980722306 338.3870596438485,182.79711856734448 "/><polyline class="polyline" opacity="0.5" stroke="blue" points="261.29032132425596,198.6031453731118 339.08979483275243,185.36662526684051 "/><polyline class="polyline" opacity="0.5" stroke="blue" points="261.6845551870473,200.0 339.70914031085385,187.91051031832578 "/><polyline class="polyline" opacity="0.5" stroke="blue" points="262.0483535268491,201.39334655603886 340.24590192498994,190.42677230619734 "/><polyline class="polyline" opacity="0.5" stroke="blue" points="262.38163084769,202.78242565186204 340.7009695198317,192.91348542142967 "/><polyline class="polyline" opacity="0.5" stroke="blue" points="262.68432291323643,204.16648625106373 341.0753128546396,195.36880075730642 "/><polyline class="polyline" opacity="0.5" stroke="blue" points="262.956386548831,205.54478625930372 341.3699774584401,197.79094734910058 "/><polyline class="polyline" opacity="0.5" stroke="blue" points="263.197799418682,206.91659309133172 341.5860804421786,200.1782329652664 "/><polyline class="polyline" opacity="0.5" stroke="blue" points="263.4085597791449,208.28118421529513 341.7248062856788,202.52904465857947 "/><polyline class="polyline" opacity="0.5" stroke="blue" points="263.58868620907776,209.6378476737694 341.78740261642923,204.8418490864303 "/><polyline class="polyline" opacity="0.5" stroke="blue" points="263.738217318287,210.98588258102185 341.7751759963573,207.11519261014013 "/><polyline class="polyline" opacity="0.5" stroke="blue" points="263.857211435113,212.32459959609469 341.68948773183376,209.34770118373072 "/><polyline class="polyline" opacity="0.5" stroke="blue" points="263.94574627423077,213.65332137136295 341.53174972119297,211.53808004304153 "/><polyline class="polyline" opacity="0.5" stroke="blue" points="264.0039185857641,214.9713829762968 341.3034203530715,213.6851132064518 "/><polyline class="polyline" opacity="0.5" stroke="blue" points="264.0318437868319,216.27813229622652 341.0060004678562,215.78766279873952 "/><polyline class="polyline" opacity="0.5" stroke="blue" points="264.0296555766571,217.57293040597764 340.6410293935203,217.84466820979048 "/><polyline class="polyline" opacity="0.5" stroke="blue" points="263.99750553638114,218.85515191831152 340.210081066101,219.85514509997324 "/><polyline class="polyline" opacity="0.5" stroke="blue" points="263.93556271473346,220.1241853071708 339.7147602440609,221.81818426401622 "/><polyline class="polyline" opacity="0.5" stroke="blue" points="263.84401320070583,221.37943320579384 339.1566988247696,223.7329503651734 "/><polyline class="polyline" opacity="0.5" stroke="blue" points="263.72305968438314,222.62031267982266 338.53755227036083,225.59868055134794 "/><polyline class="polyline" opacity="0.5" stroke="blue" points="263.5729210070747,223.84625547558682 337.85899614925995,227.41468296466442 "/><polyline class="polyline" opacity="0.5" stroke="blue" points="263.3938317018843,225.05670824380397 337.1227227987498,229.18033515574757 "/><polyline class="polyline" opacity="0.5" stroke="blue" points="263.18604152584305,226.25113273898856 336.3304381130456,230.89508241368372 "/><polyline class="polyline" opacity="0.5" stroke="blue" points="262.94981498471725,227.42900599491358 335.48385846049604,232.55843602231573 "/><polyline class="polyline" opacity="0.5" stroke="blue" points="262.6854308515827,228.5898204765154 334.58470773271114,234.16997145316023 "/><polyline class="polyline" opacity="0.5" stroke="blue" points="262.3931816802399,229.73308420867963 333.634714527645,235.72932650484185 "/><polyline class="polyline" opacity="0.5" stroke="blue" points="262.07337331451856,230.85832088238516 332.6356094679371,237.23619939851915 "/><polyline class="polyline" opacity="0.5" stroke="blue" points="261.7263243944961,231.96506993872416 331.5891226551344,238.69034683833343 "/><polyline class="polyline" opacity="0.5" stroke="blue" points="261.35236586062666,233.05288663135116 330.496981259785,240.09158204545722 "/><polyline class="polyline" opacity="0.5" stroke="blue" points="260.951840456749,234.1213420679473 329.3609072468111,241.43977277384317 "/><polyline class="polyline" opacity="0.5" stroke="blue" points="260.52510223290733,235.17002323131533 328.18261523502946,242.73483931530205 "/><polyline class="polyline" opacity="0.5" stroke="blue" points="260.0725160488896,236.19853298074804 326.9638104892014,243.97675250105198 "/><polyline class="polyline" opacity="0.5" stroke="blue" points="259.5944570793516,237.20649003433655 325.70618704254946,245.16553170639997 "/><polyline class="polyline" opacity="0.5" stroke="blue" points="259.09131032135946,238.1935289329058 324.4114259472797,246.30124286473745 "/><polyline class="polyline" opacity="0.5" stroke="blue" points="258.56347010514764,239.15929998628164 323.0811936502975,247.38399649655636 "/><polyline class="polyline" opacity="0.5" stroke="blue" points="258.0113396088518,240.10346920261105 321.7171404909891,248.41394575872636 "/><polyline class="polyline" opacity="0.5" stroke="blue" points="257.4353303779373,241.0257182014669 320.3208993176749,249.39128451881808 "/><polyline class="polyline" opacity="0.5" stroke="blue" points="256.83586185000655,241.9257441114805 318.89408421910343,250.31624545881425 "/><polyline class="polyline" opacity="0.5" stroke="blue" points="256.2133608856281,242.80325945325131 317.4382893671633,251.18909821211975 "/><polyline class="polyline" opacity="0.5" stroke="blue" points="255.5682613057931,243.65799200828792 315.95508796682634,252.01014753736953 "/><polyline class="polyline" opacity="0.5" stroke="blue" points="254.9010034365644,244.48968467473722 314.4460313092085,252.7797315321332 "/><polyline class="polyline" opacity="0.5" stroke="blue" points="254.21203366144445,245.2980953106581 312.9126479235342,253.49821988923713 "/><polyline class="polyline" opacity="0.5" stroke="blue" points="253.50180398195116,246.08299656559478 311.35644282372243,254.16601219806094 "/><polyline class="polyline" opacity="0.5" stroke="blue" points="252.7707715868499,246.84417570120007 309.7788968452647,254.78353629282304 "/><polyline class="polyline" opacity="0.5" stroke="blue" points="252.0193984304545,247.58143440165335 308.181466068046,255.35124664954236 "/><polyline class="polyline" opacity="0.5" stroke="blue" points="251.2481508203709,248.29458857460966 306.56558132076145,255.8696228330619 "/><polyline class="polyline" opacity="0.5" stroke="blue" points="250.4574990150219,248.98346814340798 304.93264776259844,256.33916799522717 "/><polyline class="polyline" opacity="0.5" stroke="blue" points="249.64791683125475,249.64791683125475 303.284044537896,256.76040742504915 "/><polyline class="polyline" opacity="0.5" stroke="blue" points="248.8198812622984,250.28779193808606 301.62112449954355,257.1338871514283 "/><polyline class="polyline" opacity="0.5" stroke="blue" points="247.97387210630404,250.9029641108 299.94521399694975,257.4601725987862 "/><polyline class="polyline" opacity="0.5" stroke="blue" points="247.11037160566894,251.49331710753347 298.25761272449523,257.7398472957369 "/><polyline class="polyline" opacity="0.5" stroke="blue" points="246.2298640973107,252.05874755664294 296.5595936264684,257.97351163673295 "/><polyline class="polyline" opacity="0.5" stroke="blue" points="245.33283567403055,252.59916471103247 294.85240285458684,258.1617816964403 "/><polyline class="polyline" opacity="0.5" stroke="blue" points="244.41977385707162,253.11449019845222 293.137259774315,258.30528809643374 "/><polyline class="polyline" opacity="0.5" stroke="blue" points="243.49116727995266,253.6046577683745 291.4153570163002,258.4046749236525 "/><polyline class="polyline" opacity="0.5" stroke="blue" points="242.54750538362723,254.06961303603407 289.68786056937057,258.46059869992325 "/><polyline class="polyline" opacity="0.5" stroke="blue" points="241.58927812299441,254.50931322419933 287.9559099116609,258.4737274017351 "/><polyline class="polyline" opacity="0.5" stroke="blue" points="240.61697568476194,254.92372690322193 286.22061817656004,258.44473952934544 "/><polyline class="polyline" opacity="0.5" stroke="blue" points="239.63108821663752,255.31283372989063 284.4830723502994,258.3743232241963 "/><polyline class="polyline" opacity="0.5" stroke="blue" points="238.63210556780388,255.67662418559553 282.74433349813654,258.26317543354145 "/><polyline class="polyline" opacity="0.5" stroke="blue" points="237.62051704060934,256.01509931428683 281.00543701621393,258.1120011211075 "/><polyline class="polyline" opacity="0.5" stroke="blue" points="236.59681115338896,256.3282704606916 279.2673929063053,257.92151252255036 "/><polyline class="polyline" opacity="0.5" stroke="blue" points="235.56147541430894,256.6161590092311 277.53118607079296,257.6924284444159 "/><polyline class="polyline" opacity="0.5" stroke="blue" points="234.51499610611287,256.87879612405936 275.7977766253442,257.4254736052668 "/><polyline class="polyline" opacity="0.5" stroke="blue" points="233.4578580816295,257.11622249062333 274.06810022688506,257.12137801760116 "/><polyline class="polyline" opacity="0.5" stroke="blue" points="232.39054456988822,257.32848805912437 272.3430684145918,256.7808764091599 "/><polyline class="polyline" opacity="0.5" stroke="blue" points="231.31353699267342,257.5156517902382 270.623568961743,256.40470768219484 "/><polyline class="polyline" opacity="0.5" stroke="blue" points="230.2273147913367,257.67778140343313 268.9104662363942,255.99361440925585 "/><polyline class="polyline" opacity="0.5" stroke="blue" points="229.13235526367342,257.8149531282029 267.20460156895376,255.54834236404017 "/><polyline class="polyline" opacity="0.5" stroke="blue" points="228.02913341066002,257.9272514585136 265.5067936248485,255.06964008584535 "/><polyline class="polyline" opacity="0.5" stroke="blue" points="226.91812179283818,258.0147689107429 263.8178387805819,254.55825847616242 "/><polyline class="polyline" opacity="0.5" stroke="blue" points="225.79979039612329,258.07760578537074 262.13851150158763,254.01495042595013 "/><polyline class="polyline" opacity="0.5" stroke="blue" points="224.67460650680704,258.1158699326645 260.46956472038863,253.44047047213758 "/><polyline class="polyline" opacity="0.5" stroke="blue" points="223.54303459551693,258.1296765225792 258.8117302136669,252.83557448190976 "/><polyline class="polyline" opacity="0.5" stroke="blue" points="222.40553620988896,258.11914781908075 257.1657189769456,252.20101936334675 "/><polyline class="polyline" opacity="0.5" stroke="blue" points="221.26256987570557,258.0844129590792 255.53222159567622,251.53756280099753 "/><polyline class="polyline" opacity="0.5" stroke="blue" points="220.11459100624478,258.02560773614374 253.91190861161118,250.84596301498976 "/><polyline class="polyline" opacity="0.5" stroke="blue" points="218.96205181958487,257.94287438915705 252.30543088342552,250.12697854229444 "/><polyline class="polyline" opacity="0.5" stroke="blue" points="217.80540126360358,257.8363613960466 250.713419940633,249.38136803878345 "/><polyline class="polyline" opacity="0.5" stroke="blue" points="216.64508494841058,257.7062232727207 249.1364883299184,248.60989010074147 "/><polyline class="polyline" opacity="0.5" stroke="blue" points="215.48154508594862,257.5526203773193 247.57522995308153,247.8133031045154 "/><polyline class="polyline" opacity="0.5" stroke="blue" points="214.31522043649844,257.3757187198762 246.03022039585943,246.9923650630077 "/><polyline class="polyline" opacity="0.5" stroke="blue" points="213.146546261822,257.175689777478 244.50201724696052,246.1478334977449 "/><polyline class="polyline" opacity="0.5" stroke="blue" points="211.97595428467758,256.95271031498953 242.99116040670873,245.2804653252764 "/><polyline class="polyline" opacity="0.5" stroke="blue" points="210.80387265444176,256.7069622114058 241.4981723847579,244.39101675668496 "/><polyline class="polyline" opacity="0.5" stroke="blue" points="209.6307259185737,256.4386322918774 240.023558586395,243.4802432090135 "/><polyline class="polyline" opacity="0.5" stroke="blue" points="208.45693499965762,256.14791216544535 238.56780758700745,242.5488992274411 "/><polyline class="polyline" opacity="0.5" stroke="blue" points="207.28291717776258,255.83499806851216 237.13139139434406,241.5977384170634 "/><polyline class="polyline" opacity="0.5" stroke="blue" points="206.10908607785885,255.500090714064 235.71476569825018,240.62751338316025 "/><polyline class="polyline" opacity="0.5" stroke="blue" points="204.93585166203326,255.14339514664974 234.31837010760736,239.63897567885854 "/><polyline class="polyline" opacity="0.5" stroke="blue" points="203.76362022624886,254.7651206031152 232.94262837425575,238.63287575912176 "/><polyline class="polyline" opacity="0.5" stroke="blue" points="202.5927944013956,254.36548037907983 231.58794860372268,237.60996294002496 "/><polyline class="polyline" opacity="0.5" stroke="blue" points="201.42377315838314,253.94469170113717 230.25472345262463,236.57098536229662 "/><polyline class="polyline" opacity="0.5" stroke="blue" points="200.25695181702932,253.50297560475107 228.94333031265285,235.51668995813608 "/><polyline class="polyline" opacity="0.5" stroke="blue" points="199.09272205850067,253.04055681781358 227.65413148109286,234.4478224203362 "/><polyline class="polyline" opacity="0.5" stroke="blue" points="197.93147194106646,252.5576636498231 226.38747431786845,233.3651271727686 "/><polyline class="polyline" opacity="0.5" stroke="blue" points="196.77358591892926,252.05452788663476 225.14369138913827,232.26934734131106 "/><polyline class="polyline" opacity="0.5" stroke="blue" points="195.6194448639005,251.5313846907294 223.92310059751085,231.16122472432065 "/><polyline class="polyline" opacity="0.5" stroke="blue" points="194.46942608969186,250.98847250694178 222.72600529898017,230.04149976178098 "/><polyline class="polyline" opacity="0.5" stroke="blue" points="193.32390337859843,250.4260329735828 221.55269440671833,228.91091150227544 "/><polyline class="polyline" opacity="0.5" stroke="blue" points="192.1832470103523,249.844310838886 220.4034424818979,227.77019756696143 "/><polyline class="polyline" opacity="0.5" stroke="blue" points="191.0478237929299,249.24355388270405 219.27850981174873,226.62009410974656 "/><polyline class="polyline" opacity="0.5" stroke="blue" points="189.91799709510022,248.62401284337574 218.17814247508804,225.4613357728893 "/><polyline class="polyline" opacity="0.5" stroke="blue" points="188.79412688050434,247.98594134968099 217.1025723955954,224.29465563727345 "/><polyline class="polyline" opacity="0.5" stroke="blue" points="187.67656974306172,247.3295958577962 216.05201738313568,223.12078516662876 "/><polyline class="polyline" opacity="0.5" stroke="blue" points="186.56567894350133,246.65523559316026 215.0266811634653,221.94045414499544 "/><polyline class="polyline" opacity="0.5" stroke="blue" points="185.46180444682054,245.96312249715592 214.02675339668798,220.75439060675677 "/><polyline class="polyline" opacity="0.5" stroke="blue" points="184.3652929604778,245.25352117851085 213.05240968485782,219.56332075858845 "/><polyline class="polyline" opacity="0.5" stroke="blue" points="183.27648797312935,244.5266988693167 212.1038115691573,218.3679688927008 "/><polyline class="polyline" opacity="0.5" stroke="blue" points="182.19572979372336,243.78292538556428 211.1811065171093,217.16905729077774 "/><polyline class="polyline" opacity="0.5" stroke="blue" points="181.12335559076908,243.02247309208823 210.28442790031096,215.96730611804344 "/><polyline class="polyline" opacity="0.5" stroke="blue" points="180.05969943160198,242.24561687181347 209.41389496320875,214.7634333069173 "/><polyline class="polyline" opacity="0.5" stroke="blue" points="179.00509232146825,241.45263409919266 208.56961278346185,213.55815442974765 "/><polyline class="polyline" opacity="0.5" stroke="blue" points="177.9598622422575,240.64380461772123 207.75167222447175,212.3521825601453 "/><polyline class="polyline" opacity="0.5" stroke="blue" points="176.92433419071358,239.81941072141547 206.96014988068387,211.14622812247106 "/><polyline class="polyline" opacity="0.5" stroke="blue" points="175.89883021595824,238.97973714013602 206.19510801629627,209.94099872906236 "/><polyline class="polyline" opacity="0.5" stroke="blue" points="174.8836694561643,238.12507102863742 205.45659449803816,208.73719900482212 "/><polyline class="polyline" opacity="0.5" stroke="blue" points="173.87916817421896,237.2557019592222 204.7446427227093,207.53553039882496 "/><polyline class="polyline" opacity="0.5" stroke="blue" points="172.88563979221988,236.37192191787705 204.05927154019784,206.33669098263616 "/><polyline class="polyline" opacity="0.5" stroke="blue" points="171.90339492465048,235.47402530376488 203.4004851727212,205.1413752350756 "/><polyline class="polyline" opacity="0.5" stroke="blue" points="170.9327414100826,234.5623089319463 202.7682731310606,203.95027381319943 "/><polyline class="polyline" opacity="0.5" stroke="blue" points="169.97398434125802,233.63707203920154 202.16261012858453,202.76407330931428 "/><polyline class="polyline" opacity="0.5" stroke="blue" points="169.02742609340277,232.69861629282178 201.5834559938814,201.58345599388142 "/><polyline class="polyline" opacity="0.5" stroke="blue" points="168.0933663506306,231.74724580223773 201.03075558284388,200.40909954421284 "/><polyline class="polyline" opacity="0.5" stroke="blue" points="167.1721021302937,230.7832671333498 200.50443869107073,199.24167675890823 "/><polyline class="polyline" opacity="0.5" stroke="blue" points="166.2639278051432,229.80698932542475 200.00441996747196,198.0818552580287 "/><polyline class="polyline" opacity="0.5" stroke="blue" points="165.36913512316096,228.81872391041946 199.53059882998295,196.93029716905306 "/><polyline class="polyline" opacity="0.5" stroke="blue" points="164.48801322492972,227.818784934591 199.0828593843115,195.7876587987131 "/><polyline class="polyline" opacity="0.5" stroke="blue" points="163.6208486584085,226.8074889822516 198.66107034665743,194.65459029085605 "/><polyline class="polyline" opacity="0.5" stroke="blue" points="162.76792539098352,225.7851552015227 198.2650849713596,193.53173527053764 "/><polyline class="polyline" opacity="0.5" stroke="blue" points="161.92952481866612,224.75210533194192 197.89474098443708,192.41973047460192 "/><polyline class="polyline" opacity="0.5" stroke="blue" points="161.1059257723121,223.7086637337735 197.54986052400227,191.3192053690624 "/><polyline class="polyline" opacity="0.5" stroke="blue" points="160.297404520738,222.65515741887103 197.2302500885311,190.23078175365512 "/><polyline class="polyline" opacity="0.5" stroke="blue" points="159.5042347706129,221.59191608293816 196.93570049398198,189.15507335399326 "/><polyline class="polyline" opacity="0.5" stroke="blue" points="158.7266876630049,220.5192721390315 196.66598684075694,188.09268540181165 "/><polyline class="polyline" opacity="0.5" stroke="blue" points="157.96503176646522,219.43756075214677 196.42086849150002,187.0442142038505 "/><polyline class="polyline" opacity="0.5" stroke="blue" points="157.2195330665333,218.34711987472588 196.20008906072383,186.01024669998702 "/><polyline class="polyline" opacity="0.5" stroke="blue" points="156.49045495154925,217.24829028292177 196.0033764172503,184.99136001128545 "/><polyline class="polyline" opacity="0.5" stroke="blue" points="155.77805819466204,216.14141561345306 195.83044270044223,183.98812097869677 "/><polyline class="polyline" opacity="0.5" stroke="blue" points="155.08260093192348,215.02684240087865 195.68098435118873,183.00108569320022 "/><polyline class="polyline" opacity="0.5" stroke="blue" points="154.4043386363612,213.9049201151195 195.5546821585935,182.03079901823986 "/><polyline class="polyline" opacity="0.5" stroke="blue" points="153.74352408792464,212.77600119905094 195.4512013232931,181.07779410536926 "/><polyline class="polyline" opacity="0.5" stroke="blue" points="153.10040733920246,211.6404411059868 195.37019153831,180.1425919040771 "/><polyline class="polyline" opacity="0.5" stroke="blue" points="152.47523567681066,210.4985983368718 195.31128708831667,179.22570066682437 "/><polyline class="polyline" opacity="0.5" stroke="blue" points="151.86825357835355,209.35083447699765 195.27410696815747,178.32761545038133 "/><polyline class="polyline" opacity="0.5" stroke="blue" points="151.27970266486395,208.19751423205201 195.25825502143658,177.4488176146071 "/><polyline class="polyline" opacity="0.5" stroke="blue" points="150.70982164862966,207.03900546330894 195.26332009994348,176.58977431986824 "/><polyline class="polyline" opacity="0.5" stroke="blue" points="150.15884627631806,205.87567922176325 195.28887624464198,175.75093802434372 "/><polyline class="polyline" opacity="0.5" stroke="blue" points="149.62700926731355,204.70790978100968 195.33448288890153,174.9327459825122 "/><polyline class="polyline" opacity="0.5" stroke="blue" points="149.11454024718518,203.53607466866322 195.39968508459737,174.13561974616184 "/><polyline class="polyline" opacity="0.5" stroke="blue" points="148.621665676207,202.36055469611307 195.48401375164997,173.35996466930675 "/><polyline class="polyline" opacity="0.5" stroke="blue" points="148.14860877285622,201.18173398639962 195.58698595151392,172.606169418431 "/><polyline class="polyline" opacity="0.5" stroke="blue" points="147.6955894322191,200.0 195.70810518506283,171.87460548951637 "/><polyline class="polyline" opacity="0.5" stroke="blue" points="147.2628241392389,198.81574355830395 195.84686171524763,171.1656267333403 "/><polyline class="polyline" opacity="0.5" stroke="blue" points="146.85052587674454,197.6293588645575 196.00273291483575,170.47956889055624 "/><polyline class="polyline" opacity="0.5" stroke="blue" points="146.4589040282045,196.44124352205034 196.17518363946178,169.8167491380885 "/><polyline class="polyline" opacity="0.5" stroke="blue" points="146.08816427515438,195.2517985493163 196.36366662614276,169.1774656483909 "/><polyline class="polyline" opacity="0.5" stroke="blue" points="145.73850848925366,194.06142839211523 196.56762291732935,168.56199716312682 "/><polyline class="polyline" opacity="0.5" stroke="blue" points="145.41013461893246,192.87054093196 196.7864823104795,167.97060258283454 "/><polyline class="polyline" opacity="0.5" stroke="blue" points="145.1032365705953,191.67954749094937 197.01966383305452,167.4035205741385 "/><polyline class="polyline" opacity="0.5" stroke="blue" points="144.81800408435623,190.48886283266415 197.26657624274802,166.86096919606078 "/><polyline class="polyline" opacity="0.5" stroke="blue" points="144.55462260428612,189.29890515888104 197.52661855266692,166.3431455469724 "/><polyline class="polyline" opacity="0.5" stroke="blue" points="144.31327314316133,188.11009610185565 197.79918058109138,165.85022543370374 "/><polyline class="polyline" opacity="0.5" stroke="blue" points="144.09413214170962,186.92286071192413 198.08364352534608,165.38236306430613 "/><polyline class="polyline" opacity="0.5" stroke="blue" points="143.89737132235953,185.73762744016895 198.37938055922115,164.9396907659231 "/><polyline class="polyline" opacity="0.5" stroke="blue" points="143.7231575375061,184.55482811589408 198.68575745328582,164.52231872918912 "/><polyline class="polyline" opacity="0.5" stroke="blue" points="143.5716526123167,183.3748979186512 199.00213321734304,164.13033478052571 "/><polyline class="polyline" opacity="0.5" stroke="blue" points="143.44301318211092,182.19827534455828 199.32786076417895,163.76380418365207 "/><polyline class="polyline" opacity="0.5" stroke="blue" points="143.33739052435595,181.02540216664954 199.66228759366854,163.4227694715648 "/><polyline class="polyline" opacity="0.5" stroke="blue" points="143.25493038533395,179.856723388996 200.00475649620583,163.10725031017586 "/><polyline class="polyline" opacity="0.5" stroke="blue" points="143.19577280154542,178.69268719433418 200.35460627433918,162.81724339472237 "/><polyline class="polyline" opacity="0.5" stroke="blue" points="143.16005191592666,177.53374488494197 200.71117248140305,162.55272237998332 "/><polyline class="polyline" opacity="0.5" stroke="blue" points="143.14789578897094,176.3803508164991 201.07378817585567,162.31363784525172 "/><polyline class="polyline" opacity="0.5" stroke="blue" points="143.15942620485586,175.23296232467337 201.44178468994926,162.0999172949184 "/><polyline class="polyline" opacity="0.5" stroke="blue" points="143.19475847269297,174.09203964417202 201.81449241128522,161.91146519542875 "/><polyline class="polyline" opacity="0.5" stroke="blue" points="143.25400122302963,172.9580458200028 202.19124157573216,161.74816304926873 "/><polyline class="polyline" opacity="0.5" stroke="blue" points="143.33725619974783,171.83144661069048 202.57136307011916,161.60986950653287 "/><polyline class="polyline" opacity="0.5" stroke="blue" points="143.44461804751816,170.71271038319702 202.9541892430542,161.49642051451386 "/><polyline class="polyline" opacity="0.5" stroke="blue" points="143.57617409498562,169.60230799930096 203.33905472216068,161.40762950564064 "/><polyline class="polyline" opacity="0.5" stroke="blue" points="143.73200413387605,168.500712693192 203.72529723597663,161.34328762397305 "/><polyline class="polyline" opacity="0.5" stroke="blue" points="143.91218019423195,167.40839994004693 204.1122584387154,161.30316399034197 "/><polyline class="polyline" opacity="0.5" stroke="blue" points="144.11676631600142,166.32584731535542 204.49928473605232,161.2870060061005 "/><polyline class="polyline" opacity="0.5" stroke="blue" points="144.34581831722136,165.25353434477526 204.8857281100694,161.2945396953293 "/><polyline class="polyline" opacity="0.5" stroke="blue" points="144.59938355905513,164.19194234430097 205.27094694147027,161.32547008521345 "/><polyline class="polyline" opacity="0.5" stroke="blue" points="144.87750070796193,163.1415542505433 205.65430682716038,161.37948162418445 "/><polyline class="polyline" opacity="0.5" stroke="blue" points="145.18019949529423,162.10285444092227 206.03518139128235,161.45623863729531 "/><polyline class="polyline" opacity="0.5" stroke="blue" points="145.50750047463853,161.07632854359264 206.41295308779465,161.55538581817495 "/><polyline class="polyline" opacity="0.5" stroke="blue" points="145.85941477723404,160.0624632369286 206.78701399269255,161.67654875678488 "/><polyline class="polyline" opacity="0.5" stroke="blue" points="146.23594386582332,159.06174603841043 207.1567665839842,161.81933450208243 "/><polyline class="polyline" opacity="0.5" stroke="blue" points="146.63707928730875,158.0746650827692 207.52162450756026,161.98333215857892 "/><polyline class="polyline" opacity="0.5" stroke="blue" points="147.06280242460878,157.10170888926106 207.881013327127,162.16811351566662 "/><polyline class="polyline" opacity="0.5" stroke="blue" points="147.5130842481272,156.14336611795972 208.23437125641132,162.3732337084814 "/><polyline class="polyline" opacity="0.5" stroke="blue" points="147.98788506727075,155.2001253149732 208.58114987189413,162.59823190896236 "/><polyline class="polyline" opacity="0.5" stroke="blue" points="148.4871542824677,154.27247464651035 208.9208148043812,162.84263204567185 "/><polyline class="polyline" opacity="0.5" stroke="blue" points="149.01083013816285,153.3609016217421 209.25284640778278,163.10594355084544 "/><polyline class="polyline" opacity="0.5" stroke="blue" points="149.55883947728242,152.4658928044254 209.5767404035396,163.38766213305496 "/><polyline class="polyline" opacity="0.5" stroke="blue" points="150.13109749768358,151.58793351327833 209.8920084992071,163.6872705737871 "/><polyline class="polyline" opacity="0.5" stroke="blue" points="150.72750751112093,150.72750751112093 210.19817897978925,164.00423954616707 "/><polyline class="polyline" opacity="0.5" stroke="blue" points="151.34796070528364,149.88509668282018 210.49479727049828,164.33802845399077 "/><polyline class="polyline" opacity="0.5" stroke="blue" points="151.9923359094739,149.06118070210408 210.781426469706,164.68808628917043 "/><polyline class="polyline" opacity="0.5" stroke="blue" points="152.66049936451552,148.256236687338 211.05764785094746,165.05385250564922 "/><polyline class="polyline" opacity="0.5" stroke="blue" points="153.3523044975003,147.47073884638476 211.3230613329351,165.43475790779715 "/><polyline class="polyline" opacity="0.5" stroke="blue" points="154.06759170199547,146.70515811069873 211.5772859166442,165.83022555126757 "/><polyline class="polyline" opacity="0.5" stroke="blue" points="154.80618812435014,145.95996175883852 211.81996008863317,166.23967165426694 "/><polyline class="polyline" opacity="0.5" stroke="blue" points="155.56790745675738,145.23561302961076 212.0507421898711,166.66250651717468 "/><polyline class="polyline" opacity="0.5" stroke="blue" points="156.3525497377381,144.53257072509362 212.26931074945114,167.09813544843988 "/><polyline class="polyline" opacity="0.5" stroke="blue" points="157.159901160728,143.85128880382211 212.47536478267932,167.54595969468167 "/><polyline class="polyline" opacity="0.5" stroke="blue" points="157.98973389146076,143.1922159644513 212.66862405313773,168.00537737292808 "/><polyline class="polyline" opacity="0.5" stroke="blue" points="158.84180589484774,142.55579522025042 212.84882929843062,168.4757844029425 "/><polyline class="polyline" opacity="0.5" stroke="blue" points="159.7158607720673,141.94246346481717 213.0157424194322,168.95657543761226 "/><polyline class="polyline" opacity="0.5" stroke="blue" points="160.61162760857906,141.35265102943896 213.16914663296194,169.44714478940287 "/><polyline class="polyline" opacity="0.5" stroke="blue" points="161.52882083378773,140.78678123256495 213.30884658792058,169.94688735092114 "/><polyline class="polyline" opacity="0.5" stroke="blue" points="162.46714009308107,140.24526992189175 213.4346684450232,170.4551995076742 "/><polyline class="polyline" opacity="0.5" stroke="blue" points="163.42627013297053,139.72852500960425 213.5464599203688,170.97148004116417 "/><polyline class="polyline" opacity="0.5" stroke="blue" points="164.40588070005987,139.2369460013516 213.64409029318213,171.49513102051495 "/><polyline class="polyline" opacity="0.5" stroke="blue" points="165.40562645456689,138.7709235195767 213.72745037816046,172.0255586808911 "/><polyline class="polyline" opacity="0.5" stroke="blue" points="166.42514689911525,138.33083882185815 213.79645246294655,172.56217428703786 "/><polyline class="polyline" opacity="0.5" stroke="blue" points="167.46406632350775,137.9170633149605 213.85103021133762,173.10439498034302 "/><polyline class="polyline" opacity="0.5" stroke="blue" points="168.52199376618216,137.52995806532755 213.8911385329202,173.6516446079008 "/><polyline class="polyline" opacity="0.5" stroke="blue" points="169.5985229930362,137.16987330679166 213.91675341989833,174.2033545321365 "/><polyline class="polyline" opacity="0.5" stroke="blue" points="170.69323249429596,136.83714794630862 213.92787175195383,174.7589644196372 "/><polyline class="polyline" opacity="0.5" stroke="blue" points="171.80568550008056,136.5321090685634 213.9245110700436,175.31792300791815 "/><polyline class="polyline" opacity="0.5" stroke="blue" points="172.93543001529838,136.2550714403288 213.9067093200994,175.87968884894607 "/><polyline class="polyline" opacity="0.5" stroke="blue" points="174.0819988744828,136.00633701549066 213.87452456764993,176.44373102832816 "/><polyline class="polyline" opacity="0.5" stroke="blue" points="175.24490981715346,135.78619444168788 213.8280346844346,177.00952985916967 "/><polyline class="polyline" opacity="0.5" stroke="blue" points="176.42366558425374,135.59491856954526 213.76733700812065,177.576577549693 "/><polyline class="polyline" opacity="0.5" stroke="blue" points="177.61775403618896,135.43276996550546 213.69254797627298,178.14437884380467 "/><polyline class="polyline" opacity="0.5" stroke="blue" points="178.82664829294876,135.29999442929633 213.60380273575691,178.71245163388755 "/><polyline class="polyline" opacity="0.5" stroke="blue" points="180.04980689676293,135.19682251709003 213.50125472877974,179.2803275451866 "/><polyline class="polyline" opacity="0.5" stroke="blue" points="181.28667399769685,135.12346907143734 213.38507525679591,179.8475524912462 "/><polyline class="polyline" opacity="0.5" stroke="blue" points="182.53667956254816,135.08013275907723 213.2554530235157,180.41368719994426 "/><polyline class="polyline" opacity="0.5" stroke="blue" points="183.79923960736102,135.06699561774053 213.11259365826476,180.97830770975492 "/><polyline class="polyline" opacity="0.5" stroke="blue" points="185.07375645382297,135.0842226130789 212.95671922094564,181.54100583595323 "/><polyline class="polyline" opacity="0.5" stroke="blue" points="186.35961900975872,135.13196120686302 212.78806768985032,182.1013896065581 "/><polyline class="polyline" opacity="0.5" stroke="blue" points="187.65620307387795,135.21034093760002 212.60689243356592,182.65908366788366 "/><polyline class="polyline" opacity="0.5" stroke="blue" points="188.96287166488,135.3194730147245 212.41346166820423,183.21372965964684 "/><polyline class="polyline" opacity="0.5" stroke="blue" points="190.27897537495554,135.45944992751828 212.20805790117032,183.7649865596455 "/><polyline class="polyline" opacity="0.5" stroke="blue" points="191.60385274766622,135.63034506991062 211.99097736266472,184.31253099809135 "/><polyline class="polyline" opacity="0.5" stroke="blue" points="192.93683068011728,135.83221238230206 211.76252942609068,184.85605754174165 "/><polyline class="polyline" opacity="0.5" stroke="blue" points="194.27722484927486,136.06508601154636 211.52303601851023,185.3952789480339 "/><polyline class="polyline" opacity="0.5" stroke="blue" points="195.6243401622103,136.3289799902059 211.2728310222625,185.92992638948016 "/><polyline class="polyline" opacity="0.5" stroke="blue" points="196.97747122998797,136.62388793618018 211.0122596688243,186.4597496486293 "/><polyline class="polyline" opacity="0.5" stroke="blue" points="198.3359028648405,136.9497827737796 210.74167792595702,186.98451728394866 "/><polyline class="polyline" opacity="0.5" stroke="blue" points="199.6989106002088,137.30661647729144 210.4614518791454,187.50401676701975 "/><polyline class="polyline" opacity="0.5" stroke="blue" points="201.0657612331487,137.6943198380502 210.17195710829418,188.01805459147695 "/><polyline class="polyline" opacity="0.5" stroke="blue" points="202.43571338853994,138.11280225598867 209.8735780606064,188.52645635415226 "/><polyline class="polyline" opacity="0.5" stroke="blue" points="203.80801810445712,138.56195155660515 209.56670742052376,189.0290668089155 "/><polyline class="polyline" opacity="0.5" stroke="blue" points="205.1819194379946,139.0416338342361 209.25174547756643,189.52574989372363 "/><polyline class="polyline" opacity="0.5" stroke="blue" points="206.55665509076613,139.5516933224742 208.9290994928637,190.01638873141198 "/><polyline class="polyline" opacity="0.5" stroke="blue" points="207.93145705322897,140.09195229251836 208.5991830651226,190.50088560477573 "/><polyline class="polyline" opacity="0.5" stroke="blue" points="209.30555226691723,140.66221098018502 208.2624154967356,190.97916190650085 "/><polyline class="polyline" opacity="0.5" stroke="blue" points="210.6781633035987,141.262247542246 207.91922116068497,191.45115806451182 "/><polyline class="polyline" opacity="0.5" stroke="blue" points="212.04850906030836,141.891818042698 207.5700288688538,191.91683344330772 "/><polyline class="polyline" opacity="0.5" stroke="blue" points="213.41580546914594,142.55065646949402 207.21527124231326,192.37616622185809 "/><polyline class="polyline" opacity="0.5" stroke="blue" points="214.77926622066778,143.23847478220122 206.8553840841098,192.8291532486281 "/><polyline class="polyline" opacity="0.5" stroke="blue" points="216.13810349964334,143.95496299096942 206.49080575503575,193.27580987429693 "/><polyline class="polyline" opacity="0.5" stroke="blue" points="217.49152873189524,144.69978926712122 206.12197655282495,193.7161697627249 "/><polyline class="polyline" opacity="0.5" stroke="blue" points="218.83875334088864,145.4726000855911 205.74933809517796,194.1502846807134 "/><polyline class="polyline" opacity="0.5" stroke="blue" points="220.17898951269143,146.27302039936126 205.37333270698196,194.5782242670898 "/><polyline class="polyline" opacity="0.5" stroke="blue" points="221.5114509678813,147.10065384595526 204.9944028120568,195.00007578163252 "/><polyline class="polyline" opacity="0.5" stroke="blue" points="222.83535373893935,147.95508298596673 204.61299032972502,195.4159438343358 "/><polyline class="polyline" opacity="0.5" stroke="blue" points="224.14991695163494,148.83586957351224 204.22953607647239,195.82595009549445 "/><polyline class="polyline" opacity="0.5" stroke="blue" points="225.4543636088764,149.74255485840968 203.84447917293735,196.23023298706806 "/><polyline class="polyline" opacity="0.5" stroke="blue" points="226.74792137547996,150.6746599197967 203.45825645644135,196.6289473557646 "/><polyline class="polyline" opacity="0.5" stroke="blue" points="228.02982336228686,151.63168603081164 203.0713018992488,197.0222641282597 "/><polyline class="polyline" opacity="0.5" stroke="blue" points="229.29930890804835,152.61311505387658 202.6840460327241,197.4103699489467 "/><polyline class="polyline" opacity="0.5" stroke="blue" points="230.5556243574857,153.6184098660296 202.2969153775357,197.7934668005888 "/><polyline class="polyline" opacity="0.5" stroke="blue" points="231.798023833933,154.64701481367044 201.91033188004081,198.171771608222 "/><polyline class="polyline" opacity="0.5" stroke="blue" points="233.02577000496927,155.69835619599687 201.52471235497356,198.54551582663515 "/><polyline class="polyline" opacity="0.5" stroke="blue" points="234.23813483945798,156.7718427763273 201.1404679345476,198.9149450117301 "/><polyline class="polyline" opacity="0.5" stroke="blue" points="235.43440035442254,157.86686632042301 200.7580035240797,199.2803183760444 "/><polyline class="polyline" opacity="0.5" stroke="blue" points="236.6138593502078,158.98280216084672 200.37771726423577,199.64190832869716 "/><polyline class="polyline" opacity="0.5" stroke="blue" points="237.77581613240122,160.11900978631706 200.0,200.0 "/><polyline class="polyline" opacity="0.5" stroke="blue" points="238.91958721901779,161.274833454948 199.6252347564707,200.35489075095566 "/><polyline class="polyline" opacity="0.5" stroke="blue" points="240.04450203148946,162.4496028301937 199.25379622159014,200.70688966785124 "/><polyline class="polyline" opacity="0.5" stroke="blue" points="241.14990356803764,163.64263363825285 198.8860502359251,201.05631704213658 "/><polyline class="polyline" opacity="0.5" stroke="blue" points="242.23514905805806,164.8532283456304 198.52235328962342,201.40350383576728 "/><polyline class="polyline" opacity="0.5" stroke="blue" points="243.29961059619274,166.08067685549415 198.16305202668661,201.7487911321792 "/><polyline class="polyline" opacity="0.5" stroke="blue" points="244.34267575482394,167.32425722141664 197.8084827567141,202.092529573054 "/><polyline class="polyline" opacity="0.5" stroke="blue" points="245.36374817378092,168.58323637704387 197.45897097429315,202.43507878102903 "/><polyline class="polyline" opacity="0.5" stroke="blue" points="246.3622481261176,169.85687088019466 197.11483088622867,202.77680676850198 "/><polyline class="polyline" opacity="0.5" stroke="blue" points="247.337613058884,171.1444076698548 196.7763649468319,203.11808933268003 "/><polyline class="polyline" opacity="0.5" stroke="blue" points="248.2892981078886,172.44508483450548 196.4438634015112,203.4593094370267 "/><polyline class="polyline" opacity="0.5" stroke="blue" points="249.21677658552133,173.75813239019567 196.11760383893585,203.80085657926483 "/><polyline class="polyline" opacity="0.5" stroke="blue" points="250.11954044078476,175.08277306675376 195.7978507520738,204.14312614610398 "/><polyline class="polyline" opacity="0.5" stroke="blue" points="250.99710069076198,176.41822310051788 195.48485510843523,204.48651875487258 "/><polyline class="polyline" opacity="0.5" stroke="blue" points="251.8489878228312,177.76369303195906 195.1788539298862,204.83143958225216 "/><polyline class="polyline" opacity="0.5" stroke="blue" points="252.67475216702022,179.11838850656792 194.8800698824315,205.17829768032982 "/><polyline class="polyline" opacity="0.5" stroke="blue" points="253.47396423798102,180.48151107738124 194.5887108764009,205.52750528020866 "/><polyline class="polyline" opacity="0.5" stroke="blue" points="254.24621504615004,181.85225900753437 194.3049696775092,205.8794770834436 "/><polyline class="polyline" opacity="0.5" stroke="blue" points="254.99111637774632,183.22982807123861 194.02902352929806,206.2346295415995 "/><polyline class="polyline" opacity="0.5" stroke="blue" points="255.7083010433484,184.6134123516073 193.76103378750446,206.5933801242643 "/><polyline class="polyline" opacity="0.5" stroke="blue" points="256.3974230948762,186.0022050337747 193.50114556693975,206.9561465758866 "/><polyline class="polyline" opacity="0.5" stroke="blue" points="257.05815801089267,187.3953991917886 193.24948740149958,207.3233461618499 "/><polyline class="polyline" opacity="0.5" stroke="blue" points="257.6902028502242,188.79218856778783 193.0061709179638,207.69539490424074 "/><polyline class="polyline" opacity="0.5" stroke="blue" points="258.2932763739839,190.19176834202005 192.77129052428205,208.0727068078167 "/><polyline class="polyline" opacity="0.5" stroke="blue" points="258.8671191361656,191.59333589229726 192.54492311307666,208.45569307673242 "/><polyline class="polyline" opacity="0.5" stroke="blue" points="259.41149354305634,192.99609154153683 192.3271277811299,208.8447613226376 "/><polyline class="polyline" opacity="0.5" stroke="blue" points="259.9261838817946,194.39923929208715 192.11794556565556,209.240314764819 "/><polyline class="polyline" opacity="0.5" stroke="blue" points="260.4109963184784,195.80198754559422 191.91739919818747,209.64275142312096 "/><polyline class="polyline" opacity="0.5" stroke="blue" points="260.8657588663,197.20354980722297 191.7254928769454,210.05246330444118 "/><polyline class="polyline" opacity="0.5" stroke="blue" points="261.29032132425596,198.60314537311172 191.5422120585677,210.46983558366782 "/><polyline class="polyline" opacity="0.5" stroke="blue" points="261.6845551870473,200.0 191.36752327012326,210.89524577998978 "/><polyline class="polyline" opacity="0.5" stroke="blue" points="262.0483535268491,201.39334655603875 191.2013739423359,211.32906292958492 "/><polyline class="polyline" opacity="0.5" stroke="blue" points="262.38163084769,202.78242565186198 191.04369226497312,211.77164675576182 "/><polyline class="polyline" opacity="0.5" stroke="blue" points="262.6843229132364,204.16648625106362 190.8943870653638,212.22334683770384 "/><polyline class="polyline" opacity="0.5" stroke="blue" points="262.956386548831,205.54478625930366 190.753347711019,212.68450177903932 "/><polyline class="polyline" opacity="0.5" stroke="blue" points="263.19779941868194,206.91659309133163 190.6204440373358,213.1554383775339 "/><polyline class="polyline" opacity="0.5" stroke="blue" points="263.4085597791449,208.28118421529507 190.49552630136287,213.63647079727772 "/><polyline class="polyline" opacity="0.5" stroke="blue" points="263.58868620907776,209.63784767376927 190.37842516260253,214.1278997448109 "/><polyline class="polyline" opacity="0.5" stroke="blue" points="263.738217318287,210.9858825810218 190.26895169181347,214.6300116507052 "/><polyline class="polyline" opacity="0.5" stroke="blue" points="263.857211435113,212.32459959609463 190.16689740876123,215.14307785818926 "/><polyline class="polyline" opacity="0.5" stroke="blue" points="263.94574627423077,213.65332137136292 190.0720343498425,215.66735382047338 "/><polyline class="polyline" opacity="0.5" stroke="blue" points="264.0039185857641,214.97138297629672 189.9841151664799,216.2030783084957 "/><polyline class="polyline" opacity="0.5" stroke="blue" points="264.0318437868319,216.27813229622646 189.90287325515013,216.7504726308737 "/><polyline class="polyline" opacity="0.5" stroke="blue" points="264.0296555766571,217.5729304059776 189.8280229198659,217.30973986790318 "/><polyline class="polyline" opacity="0.5" stroke="blue" points="263.99750553638114,218.85515191831144 189.7592595678848,217.88106412150066 "/><polyline class="polyline" opacity="0.5" stroke="blue" points="263.93556271473346,220.1241853071707 189.69625993936288,218.46460978303384 "/><polyline class="polyline" opacity="0.5" stroke="blue" points="263.8440132007059,221.37943320579376 189.6386823716088,219.0605208210267 "/><polyline class="polyline" opacity="0.5" stroke="blue" points="263.7230596843831,222.62031267982258 189.58616709852637,219.66892009076398 "/><polyline class="polyline" opacity="0.5" stroke="blue" points="263.5729210070747,223.84625547558673 189.5383365857563,220.28990866784645 "/><polyline class="polyline" opacity="0.5" stroke="blue" points="263.3938317018843,225.05670824380388 189.494795901947,220.9235652077728 "/><polyline class="polyline" opacity="0.5" stroke="blue" points="263.1860415258431,226.2511327389885 189.45513312649427,221.56994533363584 "/><polyline class="polyline" opacity="0.5" stroke="blue" points="262.94981498471725,227.42900599491352 189.41891979399398,222.22908105402692 "/><polyline class="polyline" opacity="0.5" stroke="blue" points="262.6854308515827,228.5898204765153 189.38571137555056,222.90098021323686 "/><polyline class="polyline" opacity="0.5" stroke="blue" points="262.3931816802399,229.73308420867957 189.3550477969751,223.58562597583017 "/><polyline class="polyline" opacity="0.5" stroke="blue" points="262.07337331451856,230.8583208823851 189.3264539937949,224.28297634764286 "/><polyline class="polyline" opacity="0.5" stroke="blue" points="261.72632439449603,231.9650699387241 189.2994405028755,224.99296373522216 "/><polyline class="polyline" opacity="0.5" stroke="blue" points="261.35236586062666,233.0528866313511 189.27350409033437,225.71549454568026 "/><polyline class="polyline" opacity="0.5" stroke="blue" points="260.951840456749,234.12134206794724 189.2481284152962,226.45044882887868 "/><polyline class="polyline" opacity="0.5" stroke="blue" points="260.52510223290733,235.17002323131527 189.22278472890903,227.19767996379298 "/><polyline class="polyline" opacity="0.5" stroke="blue" points="260.0725160488896,236.19853298074796 189.19693260790547,227.9570143908287 "/><polyline class="polyline" opacity="0.5" stroke="blue" points="259.5944570793517,237.20649003433653 189.17002072185565,228.7282513917703 "/><polyline class="polyline" opacity="0.5" stroke="blue" points="259.0913103213595,238.1935289329057 189.14148763312096,229.51116291894328 "/><polyline class="polyline" opacity="0.5" stroke="blue" points="258.5634701051477,239.1592999862816 189.11076262837616,230.3054934750586 "/><polyline class="polyline" opacity="0.5" stroke="blue" points="258.0113396088518,240.103469202611 189.07726658042995,231.11096004508357 "/><polyline class="polyline" opacity="0.5" stroke="blue" points="257.43533037793736,241.02571820146687 189.04041283893204,231.92725208135255 "/><polyline class="polyline" opacity="0.5" stroke="blue" points="256.8358618500066,241.92574411148044 188.99960814842012,232.7540315429833 "/><polyline class="polyline" opacity="0.5" stroke="blue" points="256.2133608856281,242.80325945325126 188.95425359202272,233.59093299051457 "/><polyline class="polyline" opacity="0.5" stroke="blue" points="255.56826130579316,243.65799200828786 188.9037455590038,234.43756373651408 "/><polyline class="polyline" opacity="0.5" stroke="blue" points="254.90100343656442,244.4896846747372 188.8474767342061,235.29350405273811 "/><polyline class="polyline" opacity="0.5" stroke="blue" points="254.2120336614445,245.29809531065806 188.7848371073296,236.15830743424038 "/><polyline class="polyline" opacity="0.5" stroke="blue" points="253.50180398195118,246.08299656559475 188.71521499986312,237.0315009206459 "/><polyline class="polyline" opacity="0.5" stroke="blue" points="252.77077158684995,246.84417570120004 188.63799810738027,237.9125854746082 "/><polyline class="polyline" opacity="0.5" stroke="blue" points="252.01939843045454,247.58143440165327 188.55257455480748,238.80103641727513 "/><polyline class="polyline" opacity="0.5" stroke="blue" points="251.24815082037094,248.2945885746096 188.45833396218046,239.69630392038331 "/><polyline class="polyline" opacity="0.5" stroke="blue" points="250.457499015022,248.98346814340795 188.35466851832174,240.5978135543977 "/><polyline class="polyline" opacity="0.5" stroke="blue" points="249.64791683125475,249.64791683125475 188.2409740597987,241.50496689190678 "/><polyline class="polyline" opacity="0.5" stroke="blue" points="248.81988126229842,250.287791938086 188.11665115246007,242.41714216527475 "/><polyline class="polyline" opacity="0.5" stroke="blue" points="247.9738721063041,250.9029641108 187.98110617279733,243.33369497734776 "/><polyline class="polyline" opacity="0.5" stroke="blue" points="247.110371605669,251.49331710753341 187.83375238634028,244.2539590638033 "/><polyline class="polyline" opacity="0.5" stroke="blue" points="246.22986409731075,252.0587475566429 187.67401102026835,245.17724710553344 "/><polyline class="polyline" opacity="0.5" stroke="blue" points="245.33283567403058,252.59916471103242 187.50131232740821,246.1028515892521 "/><polyline class="polyline" opacity="0.5" stroke="blue" points="244.41977385707168,253.1144901984522 187.3150966387871,247.03004571432763 "/><polyline class="polyline" opacity="0.5" stroke="blue" points="243.49116727995272,253.6046577683745 187.11481540192557,247.958084343654 "/><polyline class="polyline" opacity="0.5" stroke="blue" points="242.54750538362723,254.06961303603407 186.89993220208123,248.8862049962005 "/><polyline class="polyline" opacity="0.5" stroke="blue" points="241.58927812299436,254.50931322419936 186.66992376369492,249.81362887870984 "/><polyline class="polyline" opacity="0.5" stroke="blue" points="240.61697568476194,254.9237269032219 186.424280929347,250.73956195385864 "/><polyline class="polyline" opacity="0.5" stroke="blue" points="239.63108821663755,255.31283372989063 186.1625096135972,251.66319604204946 "/><polyline class="polyline" opacity="0.5" stroke="blue" points="238.63210556780385,255.67662418559553 185.88413172916495,252.5837099538676 "/><polyline class="polyline" opacity="0.5" stroke="blue" points="237.6205170406094,256.0150993142868 185.58868608299818,253.50027065012068 "/><polyline class="polyline" opacity="0.5" stroke="blue" points="236.59681115338898,256.3282704606916 185.27572923988686,254.41203442626963 "/><polyline class="polyline" opacity="0.5" stroke="blue" points="235.56147541430894,256.6161590092311 184.9448363513934,255.31814811796994 "/><polyline class="polyline" opacity="0.5" stroke="blue" points="234.51499610611285,256.87879612405936 184.59560194800105,256.21775032436943 "/><polyline class="polyline" opacity="0.5" stroke="blue" points="233.45785808162955,257.11622249062333 184.22764069252082,257.1099726457451 "/><polyline class="polyline" opacity="0.5" stroke="blue" points="232.39054456988828,257.32848805912437 183.8405880929439,257.99394093202386 "/><polyline class="polyline" opacity="0.5" stroke="blue" points="231.31353699267345,257.5156517902382 183.43410117308562,258.868776538701 "/><polyline class="polyline" opacity="0.5" stroke="blue" points="230.22731479133668,257.67778140343313 183.0078590995288,259.7335975866651 "/><polyline class="polyline" opacity="0.5" stroke="blue" points="229.13235526367347,257.8149531282029 182.56156376354633,260.5875202224414 "/><polyline class="polyline" opacity="0.5" stroke="blue" points="228.02913341066002,257.9272514585136 182.09494031685972,261.42965987539463 "/><polyline class="polyline" opacity="0.5" stroke="blue" points="226.91812179283818,258.0147689107429 181.6077376602693,262.2591325084661 "/><polyline class="polyline" opacity="0.5" stroke="blue" points="225.79979039612326,258.07760578537074 181.09972888437727,263.07505585908336 "/><polyline class="polyline" opacity="0.5" stroke="blue" points="224.6746065068071,258.11586993266445 180.5707116618108,263.87655066694714 "/><polyline class="polyline" opacity="0.5" stroke="blue" points="223.54303459551693,258.1296765225792 180.02050859053847,264.66274188549187 "/><polyline class="polyline" opacity="0.5" stroke="blue" points="222.40553620988896,258.11914781908075 179.44896748806303,265.4327598739135 "/><polyline class="polyline" opacity="0.5" stroke="blue" points="221.26256987570562,258.0844129590792 178.8559616364565,266.1857415667768 "/><polyline class="polyline" opacity="0.5" stroke="blue" points="220.11459100624484,258.02560773614374 178.24138997838966,266.92083161834097 "/><polyline class="polyline" opacity="0.5" stroke="blue" points="218.96205181958487,257.94287438915705 177.60517726448853,267.63718351887974 "/><polyline class="polyline" opacity="0.5" stroke="blue" points="217.80540126360358,257.8363613960466 176.94727415252459,268.3339606804277 "/><polyline class="polyline" opacity="0.5" stroke="blue" points="216.64508494841064,257.7062232727207 176.26765725911903,269.01033748953944 "/><polyline class="polyline" opacity="0.5" stroke="blue" points="215.48154508594862,257.5526203773193 175.5663291648043,269.66550032481985 "/><polyline class="polyline" opacity="0.5" stroke="blue" points="214.31522043649844,257.3757187198762 174.8433183734453,270.29864853715924 "/><polyline class="polyline" opacity="0.5" stroke="blue" points="213.14654626182198,257.17568977747794 174.09867922717098,270.90899539079044 "/><polyline class="polyline" opacity="0.5" stroke="blue" points="211.9759542846776,256.95271031498953 173.33249177811078,271.49576896347105 "/><polyline class="polyline" opacity="0.5" stroke="blue" points="210.8038726544418,256.7069622114058 172.54486161836013,272.058213004287 "/><polyline class="polyline" opacity="0.5" stroke="blue" points="209.6307259185737,256.4386322918774 171.73591966972535,272.5955877477678 "/><polyline class="polyline" opacity="0.5" stroke="blue" points="208.45693499965768,256.14791216544535 170.90582193490718,273.10717068319866 "/><polyline class="polyline" opacity="0.5" stroke="blue" points="207.2829171777626,255.83499806851216 170.0547492118873,273.5922572782132 "/><polyline class="polyline" opacity="0.5" stroke="blue" points="206.10908607785888,255.50009071406402 169.18290677337322,274.0501616559423 "/><polyline class="polyline" opacity="0.5" stroke="blue" points="204.93585166203326,255.14339514664974 168.29052401323528,274.480217225194 "/><polyline class="polyline" opacity="0.5" stroke="blue" points="203.76362022624892,254.7651206031152 167.37785406194195,274.88177726332395 "/><polyline class="polyline" opacity="0.5" stroke="blue" points="202.59279440139562,254.36548037907986 166.4451733730549,275.2542154516493 "/><polyline class="polyline" opacity="0.5" stroke="blue" points="201.42377315838317,253.94469170113717 165.49278128289606,275.5969263634356 "/><polyline class="polyline" opacity="0.5" stroke="blue" points="200.2569518170293,253.50297560475104 164.52099954553006,275.90932590466934 "/><polyline class="polyline" opacity="0.5" stroke="blue" points="199.09272205850073,253.0405568178136 163.53017184523583,276.19085170799406 "/><polyline class="polyline" opacity="0.5" stroke="blue" points="197.93147194106646,252.5576636498231 162.52066328865175,276.4409634803542 "/><polyline class="polyline" opacity="0.5" stroke="blue" points="196.77358591892926,252.05452788663473 161.49285987878704,276.659143305048 "/><polyline class="polyline" opacity="0.5" stroke="blue" points="195.61944486390044,251.53138469072937 160.44716797308186,276.8448958990359 "/><polyline class="polyline" opacity="0.5" stroke="blue" points="194.4694260896919,250.98847250694178 159.3840137276882,276.9977488264913 "/><polyline class="polyline" opacity="0.5" stroke="blue" points="193.32390337859843,250.4260329735828 158.30384253011576,277.1172526697124 "/><polyline class="polyline" opacity="0.5" stroke="blue" points="192.1832470103523,249.844310838886 157.20711842235832,277.202981158631 "/><polyline class="polyline" opacity="0.5" stroke="blue" points="191.04782379292996,249.24355388270408 156.09432351656977,277.2545312602697 "/><polyline class="polyline" opacity="0.5" stroke="blue" points="189.91799709510025,248.62401284337577 154.965957405316,277.2715232295961 "/><polyline class="polyline" opacity="0.5" stroke="blue" points="188.79412688050434,247.98594134968099 153.82253656837156,277.2536006233179 "/><polyline class="polyline" opacity="0.5" stroke="blue" points="187.6765697430617,247.32959585779622 152.66459377796645,277.2004302782426 "/><polyline class="polyline" opacity="0.5" stroke="blue" points="186.56567894350138,246.65523559316028 151.49267750432432,277.1117022558978 "/><polyline class="polyline" opacity="0.5" stroke="blue" points="185.4618044468206,245.96312249715595 150.3073513232573,276.98712975517077 "/><polyline class="polyline" opacity="0.5" stroke="blue" points="184.36529296047783,245.25352117851085 149.10919332751024,276.8264489947783 "/><polyline class="polyline" opacity="0.5" stroke="blue" points="183.27648797312935,244.5266988693167 147.89879554345885,276.6294190674218 "/><polyline class="polyline" opacity="0.5" stroke="blue" points="182.1957297937234,243.7829253855643 146.67676335468886,276.3958217675158 "/><polyline class="polyline" opacity="0.5" stroke="blue" points="181.1233555907691,243.02247309208823 145.4437149338902,276.12546139440497 "/><polyline class="polyline" opacity="0.5" stroke="blue" points="180.05969943160196,242.24561687181347 144.20028068441465,275.81816453300087 "/><polyline class="polyline" opacity="0.5" stroke="blue" points="179.0050923214682,241.45263409919266 142.94710269274952,275.47377981377895 "/><polyline class="polyline" opacity="0.5" stroke="blue" points="177.95986224225751,240.64380461772126 141.68483419307054,275.09217765407766 "/><polyline class="polyline" opacity="0.5" stroke="blue" points="176.92433419071358,239.81941072141547 140.41413904494095,274.67324998263473 "/><polyline class="polyline" opacity="0.5" stroke="blue" points="175.8988302159582,238.97973714013605 139.13569122513232,274.21690994928645 "/><polyline class="polyline" opacity="0.5" stroke="blue" points="174.88366945616437,238.12507102863748 137.8501743344444,273.72309162172985 "/><polyline class="polyline" opacity="0.5" stroke="blue" points="173.879168174219,237.25570195922222 136.5582811203118,273.1917496712306 "/><polyline class="polyline" opacity="0.5" stroke="blue" points="172.88563979221988,236.37192191787705 135.26071301589087,272.6228590491233 "/><polyline class="polyline" opacity="0.5" stroke="blue" points="171.90339492465048,235.47402530376488 133.95817969622738,272.0164146559165 "/><polyline class="polyline" opacity="0.5" stroke="blue" points="170.93274141008263,234.56230893194635 132.65139865201735,271.3724310047773 "/><polyline class="polyline" opacity="0.5" stroke="blue" points="169.97398434125802,233.63707203920157 131.3410947813827,270.69094188112274 "/><polyline class="polyline" opacity="0.5" stroke="blue" points="169.02742609340277,232.69861629282178 130.02800000000002,269.972 "/><polyline class="polyline" opacity="0.5" stroke="blue" points="168.09336635063056,231.7472458022377 128.71285286983118,269.2156766628849 "/><polyline class="polyline" opacity="0.5" stroke="blue" points="167.17210213029372,230.78326713334982 127.3963982466279,268.4220614154757 "/><polyline class="polyline" opacity="0.5" stroke="blue" points="166.2639278051432,229.80698932542478 126.07938694629759,267.59126170800175 "/><polyline class="polyline" opacity="0.5" stroke="blue" points="165.36913512316096,228.81872391041946 124.76257543014509,266.72340255950996 "/><polyline class="polyline" opacity="0.5" stroke="blue" points="164.48801322492966,227.81878493459098 123.4467255089257,265.8186262275309 "/><polyline class="polyline" opacity="0.5" stroke="blue" points="163.62084865840853,226.80748898225164 122.13260406557647,264.87709188446524 "/><polyline class="polyline" opacity="0.5" stroke="blue" points="162.76792539098355,225.7851552015227 120.82098279642115,263.8989753019706 "/><polyline class="polyline" opacity="0.5" stroke="blue" points="161.92952481866612,224.75210533194192 119.51263797058009,262.88446854456527 "/><polyline class="polyline" opacity="0.5" stroke="blue" points="161.10592577231213,223.7086637337736 118.20835020724827,261.8337796736008 "/><polyline class="polyline" opacity="0.5" stroke="blue" points="160.29740452073804,222.65515741887108 116.90890427044764,260.7471324626937 "/><polyline class="polyline" opacity="0.5" stroke="blue" points="159.50423477061292,221.59191608293816 115.6150888808001,259.6247661256439 "/><polyline class="polyline" opacity="0.5" stroke="blue" points="158.7266876630049,220.5192721390315 114.32769654380817,258.46693505780104 "/><polyline class="polyline" opacity="0.5" stroke="blue" points="157.96503176646527,219.43756075214682 113.04752339408208,257.2739085917813 "/><polyline class="polyline" opacity="0.5" stroke="blue" points="157.21953306653333,218.3471198747259 111.77536905489521,256.0459707683711 "/><polyline class="polyline" opacity="0.5" stroke="blue" points="156.49045495154925,217.24829028292177 110.5120365124057,254.7834201233965 "/><polyline class="polyline" opacity="0.5" stroke="blue" points="155.778058194662,216.141415613453 109.2583320038306,253.48656949127337 "/><polyline class="polyline" opacity="0.5" stroke="blue" points="155.0826009319235,215.02684240087868 108.01506491881642,252.15574582589443 "/><polyline class="polyline" opacity="0.5" stroke="blue" points="154.40433863636122,213.9049201151195 106.78304771320688,250.79129003945042 "/><polyline class="polyline" opacity="0.5" stroke="blue" points="153.74352408792464,212.77600119905094 105.56309583436581,249.39355685972606 "/><polyline class="polyline" opacity="0.5" stroke="blue" points="153.10040733920246,211.64044110598675 104.35602765717435,247.96291470635043 "/><polyline class="polyline" opacity="0.5" stroke="blue" points="152.4752356768107,210.49859833687185 103.1626644297831,246.49974558642876 "/><polyline class="polyline" opacity="0.5" stroke="blue" points="151.86825357835357,209.35083447699765 101.98383022816158,245.00444500992603 "/><polyline class="polyline" opacity="0.5" stroke="blue" points="151.27970266486395,208.19751423205201 100.82035191845434,243.4774219251189 "/><polyline class="polyline" opacity="0.5" stroke="blue" points="150.70982164862968,207.039005463309 99.67305912611381,241.91909867437658 "/><polyline class="polyline" opacity="0.5" stroke="blue" points="150.15884627631812,205.87567922176328 98.54278421074993,240.32991097048048 "/><polyline class="polyline" opacity="0.5" stroke="blue" points="149.62700926731355,204.70790978100968 97.43036224560124,238.71030789364124 "/><polyline class="polyline" opacity="0.5" stroke="blue" points="149.11454024718518,203.53607466866322 96.33663100049952,237.06075190931472 "/><polyline class="polyline" opacity="0.5" stroke="blue" points="148.621665676207,202.36055469611313 95.26243092716862,235.38171890687283 "/><polyline class="polyline" opacity="0.5" stroke="blue" points="148.14860877285622,201.18173398639965 94.20860514566552,233.67369825912994 "/><polyline class="polyline" opacity="0.5" stroke="blue" points="147.6955894322191,200.0 93.17599943074184,231.93719290267666 "/><polyline class="polyline" opacity="0.5" stroke="blue" points="147.2628241392389,198.81574355830392 92.16546219686967,230.17271943891916 "/><polyline class="polyline" opacity="0.5" stroke="blue" points="146.85052587674454,197.62935886455753 91.17784448064899,228.3808082556729 "/><polyline class="polyline" opacity="0.5" stroke="blue" points="146.45890402820453,196.44124352205037 90.21399991927699,226.5620036691056 "/><polyline class="polyline" opacity="0.5" stroke="blue" points="146.08816427515438,195.2517985493163 89.27478472373673,224.7168640857757 "/><polyline class="polyline" opacity="0.5" stroke="blue" points="145.7385084892537,194.0614283921153 88.36105764532181,222.84596218445225 "/><polyline class="polyline" opacity="0.5" stroke="blue" points="145.41013461893246,192.87054093196002 87.47367993409136,220.94988511735448 "/><polyline class="polyline" opacity="0.5" stroke="blue" points="145.10323657059533,191.67954749094937 86.61351528781391,219.0292347303927 "/><polyline class="polyline" opacity="0.5" stroke="blue" points="144.8180040843562,190.48886283266415 85.78142978992838,217.08462780193008 "/><polyline class="polyline" opacity="0.5" stroke="blue" points="144.55462260428612,189.2989051588811 84.97829183502073,215.11669629953414 "/><polyline class="polyline" opacity="0.5" stroke="blue" points="144.3132731431613,188.1100961018557 84.20497204028217,213.12608765411952 "/><polyline class="polyline" opacity="0.5" stroke="blue" points="144.09413214170962,186.92286071192413 83.4623431413863,211.11346505082875 "/><polyline class="polyline" opacity="0.5" stroke="blue" points="143.89737132235953,185.73762744016892 82.75127987118881,209.0795077359248 "/><polyline class="polyline" opacity="0.5" stroke="blue" points="143.7231575375061,184.55482811589408 82.07265881962829,207.02491133891056 "/><polyline class="polyline" opacity="0.5" stroke="blue" points="143.5716526123167,183.3748979186512 81.42735827317087,204.95038820901505 "/><polyline class="polyline" opacity="0.5" stroke="blue" points="143.44301318211092,182.19827534455823 80.81625803211972,202.85666776512005 "/><polyline class="polyline" opacity="0.5" stroke="blue" points="143.33739052435595,181.02540216664949 80.24023920407679,200.7444968581191 "/><polyline class="polyline" opacity="0.5" stroke="blue" points="143.25493038533395,179.85672338899602 79.70018397182143,198.6146401446288 "/><polyline class="polyline" opacity="0.5" stroke="blue" points="143.19577280154542,178.6926871943342 79.19697533384387,196.46788047088754 "/><polyline class="polyline" opacity="0.5" stroke="blue" points="143.16005191592666,177.5337448849419 78.73149681574894,194.30501926559631 "/><polyline class="polyline" opacity="0.5" stroke="blue" points="143.14789578897097,176.38035081649915 78.30463215072467,192.12687694036183 "/><polyline class="polyline" opacity="0.5" stroke="blue" points="143.15942620485586,175.23296232467337 77.91726492724985,189.93429329631695 "/><polyline class="polyline" opacity="0.5" stroke="blue" points="143.19475847269297,174.09203964417196 77.57027820220341,187.72812793539725 "/><polyline class="polyline" opacity="0.5" stroke="blue" points="143.25400122302963,172.95804582000278 77.26455407752049,185.5092606746492 "/><polyline class="polyline" opacity="0.5" stroke="blue" points="143.33725619974783,171.83144661069048 77.00097323853652,183.27859196184966 "/><polyline class="polyline" opacity="0.5" stroke="blue" points="143.44461804751816,170.71271038319702 76.78041445215442,181.03704329060457 "/><polyline class="polyline" opacity="0.5" stroke="blue" points="143.57617409498562,169.60230799930093 76.60375402297048,178.78555761299128 "/><polyline class="polyline" opacity="0.5" stroke="blue" points="143.73200413387605,168.50071269319196 76.47186520550342,176.525099747688 "/><polyline class="polyline" opacity="0.5" stroke="blue" points="143.91218019423195,167.40839994004693 76.38561757067986,174.2566567814256 "/><polyline class="polyline" opacity="0.5" stroke="blue" points="144.11676631600142,166.32584731535542 76.34587632475314,171.9812384614703 "/><polyline class="polyline" opacity="0.5" stroke="blue" points="144.34581831722136,165.25353434477523 76.35350157885684,169.69987757673061 "/><polyline class="polyline" opacity="0.5" stroke="blue" points="144.59938355905513,164.19194234430097 76.40934756742936,167.4136303249477 "/><polyline class="polyline" opacity="0.5" stroke="blue" points="144.87750070796193,163.14155425054335 76.51426181379317,165.12357666331036 "/><polyline class="polyline" opacity="0.5" stroke="blue" points="145.18019949529423,162.10285444092227 76.669084241223,162.83082063969803 "/><polyline class="polyline" opacity="0.5" stroke="blue" points="145.50750047463856,161.0763285435926 76.8746462279051,160.53649070163317 "/><polyline class="polyline" opacity="0.5" stroke="blue" points="145.859414777234,160.0624632369286 77.1317696042654,158.24173997988356 "/><polyline class="polyline" opacity="0.5" stroke="blue" points="146.23594386582332,159.06174603841043 77.44126559123319,155.9477465435303 "/><polyline class="polyline" opacity="0.5" stroke="blue" points="146.63707928730878,158.07466508276917 77.80393367810994,153.6557136231859 "/><polyline class="polyline" opacity="0.5" stroke="blue" points="147.06280242460878,157.10170888926103 78.2205604388307,151.36686979891155 "/><polyline class="polyline" opacity="0.5" stroke="blue" points="147.5130842481272,156.14336611795974 78.69191828553477,149.08246914926127 "/><polyline class="polyline" opacity="0.5" stroke="blue" points="147.98788506727075,155.2001253149732 79.21876415851597,146.803791357753 "/><polyline class="polyline" opacity="0.5" stroke="blue" points="148.4871542824677,154.27247464651032 79.8018381517814,144.53214177295044 "/><polyline class="polyline" opacity="0.5" stroke="blue" points="149.01083013816285,153.36090162174204 80.44186207363802,142.26885141821788 "/><polyline class="polyline" opacity="0.5" stroke="blue" points="149.5588394772824,152.4658928044254 81.13953794192352,140.01527694711183 "/><polyline class="polyline" opacity="0.5" stroke="blue" points="150.13109749768356,151.58793351327833 81.89554641372254,137.77280054026596 "/><polyline class="polyline" opacity="0.5" stroke="blue" points="150.7275075111209,150.7275075111209 82.71054514965111,135.54282973954378 "/><polyline class="polyline" opacity="0.5" stroke="blue" points="151.34796070528364,149.88509668282015 83.5851671130555,133.32679721514614 "/><polyline class="polyline" opacity="0.5" stroke="blue" points="151.99233590947387,149.06118070210405 84.52001880475746,131.12616046130375 "/><polyline class="polyline" opacity="0.5" stroke="blue" points="152.6604993645155,148.25623668733803 85.51567843428558,128.9424014161287 "/><polyline class="polyline" opacity="0.5" stroke="blue" points="153.35230449750037,147.47073884638473 86.57269402886074,126.77702600116857 "/><polyline class="polyline" opacity="0.5" stroke="blue" points="154.06759170199547,146.7051581106988 87.69158148176012,124.63156357618752 "/><polyline class="polyline" opacity="0.5" stroke="blue" points="154.80618812435011,145.95996175883852 88.87282254205896,122.50756630470619 "/><polyline class="polyline" opacity="0.5" stroke="blue" points="155.5679074567574,145.2356130296107 90.11686274814441,120.40660842586234 "/><polyline class="polyline" opacity="0.5" stroke="blue" points="156.35254973773812,144.53257072509356 91.42410930782717,118.33028542820048 "/><polyline class="polyline" opacity="0.5" stroke="blue" points="157.15990116072803,143.85128880382214 92.79492892830848,116.28021312108537 "/><polyline class="polyline" opacity="0.5" stroke="blue" points="157.98973389146076,143.1922159644513 94.22964559973701,114.25802659953777 "/><polyline class="polyline" opacity="0.5" stroke="blue" points="158.84180589484777,142.5557952202504 95.72853833656627,112.26537909843756 "/><polyline class="polyline" opacity="0.5" stroke="blue" points="159.71586077206732,141.94246346481714 97.29183888143578,110.30394073220415 "/><polyline class="polyline" opacity="0.5" stroke="blue" points="160.61162760857903,141.35265102943896 98.91972937681793,108.37539711628416 "/><polyline class="polyline" opacity="0.5" stroke="blue" points="161.52882083378773,140.78678123256498 100.61234001021235,106.4814478670154 "/><polyline class="polyline" opacity="0.5" stroke="blue" points="162.46714009308113,140.2452699218917 102.36974663922028,104.62380497673077 "/><polyline class="polyline" opacity="0.5" stroke="blue" points="163.42627013297056,139.72852500960423 104.1919684033967,102.80419106128704 "/><polyline class="polyline" opacity="0.5" stroke="blue" points="164.40588070005984,139.2369460013516 106.07896533034824,101.02433747758329 "/><polyline class="polyline" opacity="0.5" stroke="blue" points="165.4056264545669,138.77092351957668 108.03063594411778,99.28598230904275 "/><polyline class="polyline" opacity="0.5" stroke="blue" points="166.4251468991153,138.33083882185815 110.04681488447619,97.59086821750338 "/><polyline class="polyline" opacity="0.5" stroke="blue" points="167.46406632350775,137.91706331496053 112.12727054631459,95.94074016046126 "/><polyline class="polyline" opacity="0.5" stroke="blue" points="168.52199376618213,137.52995806532752 114.271702748895,94.33734297317584 "/><polyline class="polyline" opacity="0.5" stroke="blue" points="169.59852299303623,137.1698733067917 116.47974044526738,92.78241881574696 "/><polyline class="polyline" opacity="0.5" stroke="blue" points="170.69323249429598,136.83714794630856 118.7509394827025,91.27770448592116 "/><polyline class="polyline" opacity="0.5" stroke="blue" points="171.80568550008056,136.5321090685634 121.08478042549437,89.8249285990891 "/><polyline class="polyline" opacity="0.5" stroke="blue" points="172.93543001529835,136.2550714403288 123.48066645197191,88.42580863767073 "/><polyline class="polyline" opacity="0.5" stroke="blue" points="174.08199887448285,136.00633701549063 125.93792133800044,87.08204787287823 "/><polyline class="polyline" opacity="0.5" stroke="blue" points="175.24490981715348,135.78619444168788 128.45578753966424,85.79533216266717 "/><polyline class="polyline" opacity="0.5" stroke="blue" points="176.42366558425374,135.5949185695452 131.0334243881672,84.56732663055635 "/><polyline class="polyline" opacity="0.5" stroke="blue" points="177.61775403618898,135.43276996550546 133.66990641029284,83.39967223089377 "/><polyline class="polyline" opacity="0.5" stroke="blue" points="178.8266482929488,135.29999442929633 136.36422178799342,82.29398220707766 "/><polyline class="polyline" opacity="0.5" stroke="blue" points="180.04980689676287,135.19682251709003 139.1152709708513,81.25183845019501 "/><polyline class="polyline" opacity="0.5" stroke="blue" points="181.28667399769682,135.12346907143734 141.92186545523577,80.27478776651526 "/><polyline class="polyline" opacity="0.5" stroke="blue" points="182.5366795625482,135.08013275907726 144.78272674398255,79.36433806326694 "/><polyline class="polyline" opacity="0.5" stroke="blue" points="183.79923960736105,135.06699561774053 147.69648550034412,78.52195446311332 "/><polyline class="polyline" opacity="0.5" stroke="blue" points="185.07375645382297,135.08422261307885 150.6616809097666,77.74905535874296 "/><polyline class="polyline" opacity="0.5" stroke="blue" points="186.3596190097587,135.13196120686302 153.67676026277036,77.04700841996737 "/><polyline class="polyline" opacity="0.5" stroke="blue" points="187.65620307387798,135.21034093760005 156.74007877181134,76.41712656668543 "/><polyline class="polyline" opacity="0.5" stroke="blue" points="188.96287166488003,135.3194730147245 159.8498996345049,75.86066392200743 "/><polyline class="polyline" opacity="0.5" stroke="blue" points="190.2789753749555,135.4594499275183 163.0043943549636,75.37881176073071 "/><polyline class="polyline" opacity="0.5" stroke="blue" points="191.6038527476662,135.6303450699106 166.2016433342685,74.97269446920576 "/><polyline class="polyline" opacity="0.5" stroke="blue" points="192.9368306801173,135.8322123823021 169.4396367402274,74.64336553342376 "/><polyline class="polyline" opacity="0.5" stroke="blue" points="194.2772248492749,136.06508601154636 172.71627566560414,74.39180357287269 "/><polyline class="polyline" opacity="0.5" stroke="blue" points="195.6243401622103,136.32897999020594 176.0293735828918,74.21890843835368 "/><polyline class="polyline" opacity="0.5" stroke="blue" points="196.97747122998797,136.62388793618018 179.37665810249447,74.12549739249266 "/><polyline class="polyline" opacity="0.5" stroke="blue" points="198.33590286484056,136.9497827737796 182.75577303984127,74.11230139213252 "/><polyline class="polyline" opacity="0.5" stroke="blue" points="199.69891060020873,137.30661647729144 186.16428079552392,74.17996149212462 "/><polyline class="polyline" opacity="0.5" stroke="blue" points="201.06576123314866,137.69431983805018 189.59966505099618,74.32902539025194 "/><polyline class="polyline" opacity="0.5" stroke="blue" points="202.43571338853997,138.11280225598867 193.05933378073274,74.55994413310196 "/><polyline class="polyline" opacity="0.5" stroke="blue" points="203.80801810445715,138.5619515566052 196.5406225800245,74.8730690026522 "/><polyline class="polyline" opacity="0.5" stroke="blue" points="205.1819194379946,139.0416338342361 200.04079830577672,75.26864860313418 "/><polyline class="polyline" opacity="0.5" stroke="blue" points="206.5566550907661,139.5516933224742 203.5570630258183,75.74682616739175 "/><polyline class="polyline" opacity="0.5" stroke="blue" points="207.931457053229,140.09195229251839 207.08655827030753,76.3076371014486 "/><polyline class="polyline" opacity="0.5" stroke="blue" points="209.30555226691726,140.66221098018502 210.62636957688346,76.95100678533792 "/><polyline class="polyline" opacity="0.5" stroke="blue" points="210.67816330359867,141.262247542246 214.17353131923386,77.67674864742811 "/><polyline class="polyline" opacity="0.5" stroke="blue" points="212.04850906030833,141.89181804269796 217.7250318067932,78.48456252850391 "/><polyline class="polyline" opacity="0.5" stroke="blue" points="213.41580546914597,142.55065646949402 221.2778186413254,79.37403335072469 "/><polyline class="polyline" opacity="0.5" stroke="blue" points="214.77926622066784,143.23847478220125 224.8288043142457,80.34463010530291 "/><polyline class="polyline" opacity="0.5" stroke="blue" points="216.1381034996433,143.95496299096942 228.37487202666398,81.39570517131172 "/><polyline class="polyline" opacity="0.5" stroke="blue" points="217.49152873189522,144.69978926712122 231.91288171235993,82.52649397646454 "/><polyline class="polyline" opacity="0.5" stroke="blue" points="218.83875334088867,145.47260008559113 235.43967624219917,83.73611500901465 "/><polyline class="polyline" opacity="0.5" stroke="blue" points="220.1789895126914,146.27302039936123 238.9520877869337,85.02357018810973 "/><polyline class="polyline" opacity="0.5" stroke="blue" points="221.5114509678813,147.10065384595526 242.44694431387325,86.3877455980242 "/><polyline class="polyline" opacity="0.5" stroke="blue" points="222.83535373893938,147.95508298596675 245.92107619161376,87.8274125896883 "/><polyline class="polyline" opacity="0.5" stroke="blue" points="224.14991695163496,148.83586957351224 249.37132287588386,89.34122925085917 "/><polyline class="polyline" opacity="0.5" stroke="blue" points="225.45436360887638,149.74255485840973 252.79453964859823,90.92774224415534 "/><polyline class="polyline" opacity="0.5" stroke="blue" points="226.74792137547993,150.6746599197967 256.1876043814518,92.58538901000905 "/><polyline class="polyline" opacity="0.5" stroke="blue" points="228.02982336228692,151.63168603081166 259.54742429481524,94.31250032941688 "/><polyline class="polyline" opacity="0.5" stroke="blue" points="229.29930890804837,152.6131150538766 262.8709426823496,96.1073032391965 "/><polyline class="polyline" opacity="0.5" stroke="blue" points="230.55562435748567,153.6184098660296 266.15514557161436,97.96792429030938 "/><polyline class="polyline" opacity="0.5" stroke="blue" points="231.79802383393297,154.64701481367044 269.3970682910379,99.89239313770963 "/><polyline class="polyline" opacity="0.5" stroke="blue" points="233.02577000496927,155.69835619599692 272.5938019139251,101.87864644814185 "/><polyline class="polyline" opacity="0.5" stroke="blue" points="234.23813483945804,156.77184277632733 275.74249955072173,103.92453211036846 "/><polyline class="polyline" opacity="0.5" stroke="blue" points="235.43440035442254,157.86686632042296 278.84038246150124,106.02781373045718 "/><polyline class="polyline" opacity="0.5" stroke="blue" points="236.6138593502078,158.98280216084672 281.8847459616203,108.18617539304532 "/><polyline class="polyline" opacity="0.5" stroke="blue" points="237.77581613240122,160.11900978631706 284.872965094654,110.3972266679128 "/></svg>
