<?xml version="1.0" encoding="UTF-8"?>
<!DOCTYPE svg PUBLIC "-//W3C//DTD SVG 1.1//EN"
    "http://www.w3.org/Graphics/SVG/1.1/DTD/svg11.dtd"><svg width="400" height="400" stroke="black" fill="none" fill-opacity="0.75" font-size="14" font-style="italic" font-family="sans-serif" xmlns="http://www.w3.org/2000/svg" xmlns:xlink="http://www.w3.org/1999/xlink" version="1.1"><filter id="blur1"><feGaussianBlur stdDeviation="0.5"/></filter><rect width="100%" height="100%" fill="white" stroke="none" fill-opacity="1"/><rect class="bg" fill="black" width="100%" height="100%" stroke="none" fill-opacity="1"/><polyline class="polyline" opacity="0.5" stroke="blue" points="245.4063627913879,167.88768215847523 302.0757907046238,127.56646079638494 "/><polyline class="polyline" opacity="0.5" stroke="blue" points="246.48847651680498,169.06208107643738 304.6756871548339,129.82060856689003 "/><polyline class="polyline" opacity="0.5" stroke="blue" points="247.5468162439312,170.25019440611408 307.1983358171256,132.10517106814342 "/><polyline class="polyline" opacity="0.5" stroke="blue" points="248.5808103502602,171.45131022567392 309.6420751607111,134.41751845319016 "/><polyline class="polyline" opacity="0.5" stroke="blue" points="249.5899066452921,172.66470961170856 312.0053717121045,136.755011279323 "/><polyline class="polyline" opacity="0.5" stroke="blue" points="250.57357280415894,173.8896673845993 314.28682124056684,139.1150061488494 "/><polyline class="polyline" opacity="0.5" stroke="blue" points="251.53129676974004,175.12545285675355 316.48514952565444,141.49486124771065 "/><polyline class="polyline" opacity="0.5" stroke="blue" points="252.46258712277438,176.37133058218484 318.5992127137925,143.8919417608398 "/><polyline class="polyline" opacity="0.5" stroke="blue" points="253.36697341956722,177.626561105924 320.6279972729337,146.30362514444946 "/><polyline class="polyline" opacity="0.5" stroke="blue" points="254.24400649698106,178.89040171176822 322.5706195563678,148.7273062368408 "/><polyline class="polyline" opacity="0.5" stroke="blue" points="255.09325874449326,180.16210716689721 324.4263249886069,151.16040219081498 "/><polyline class="polyline" opacity="0.5" stroke="blue" points="255.91432434319307,181.4409304619158 326.1944868879633,153.60035721232455 "/><polyline class="polyline" opacity="0.5" stroke="blue" points="256.7068194716826,182.72612354491324 327.87460494197165,156.04464709161184 "/><polyline class="polyline" opacity="0.5" stroke="blue" points="257.47038247893363,184.016938048169 329.46630335315086,158.49078351472605 "/><polyline class="polyline" opacity="0.5" stroke="blue" points="258.2046740242415,185.3126260061741 330.9693286737861,160.93631814497365 "/><polyline class="polyline" opacity="0.5" stroke="blue" points="258.9093771845005,186.61244056368292 332.38354734939213,163.37884646552584 "/><polyline class="polyline" opacity="0.5" stroke="blue" points="259.5841975291098,187.91563667256037 333.70894299133874,165.81601137606097 "/><polyline class="polyline" opacity="0.5" stroke="blue" points="260.2288631628983,189.22147177623825 334.9456133997437,168.24550653795362 "/><polyline class="polyline" opacity="0.5" stroke="blue" points="260.84312473753516,190.52920648065336 336.09376735819797,170.66507946411267 "/><polyline class="polyline" opacity="0.5" stroke="blue" points="261.42675543196447,191.83810521059365 337.1537212221676,173.0725343511173 "/><polyline class="polyline" opacity="0.5" stroke="blue" points="261.9795509024773,193.14743685044198 338.12589532304037,175.46573465278095 "/><polyline class="polyline" opacity="0.5" stroke="blue" points="262.5013292030959,194.45647536836648 339.0108102097489,177.84260539568837 "/><polyline class="polyline" opacity="0.5" stroke="blue" points="262.9919306770151,195.7645004230722 339.8090827497176,180.20113523858748 "/><polyline class="polyline" opacity="0.5" stroke="blue" points="263.45121781989644,197.07079795229242 340.5214221105623,182.53937827876996 "/><polyline class="polyline" opacity="0.5" stroke="blue" points="263.8790751158747,198.37466074226512 341.14862564353007,184.85545560973665 "/><polyline class="polyline" opacity="0.5" stroke="blue" points="264.27540884717916,199.67538897750725 341.69157468910316,187.14755663551404 "/><polyline class="polyline" opacity="0.5" stroke="blue" points="264.6401468783257,200.97229077026643 342.15123032453334,189.41394014795955 "/><polyline class="polyline" opacity="0.5" stroke="blue" points="264.9732384158703,202.26468266909816 342.5286290723184,191.65293517426818 "/><polyline class="polyline" opacity="0.5" stroke="blue" points="265.2746537447598,203.55189014608416 342.82487858780377,193.86294160266797 "/><polyline class="polyline" opacity="0.5" stroke="blue" points="265.5443839423428,204.83324806227483 343.0411533431954,196.04243059496804 "/><polyline class="polyline" opacity="0.5" stroke="blue" points="265.7824405711355,206.10810111100582 343.17869032431713,198.18994479520273 "/><polyline class="polyline" opacity="0.5" stroke="blue" points="265.9888553514612,207.37580423880448 343.23878475544996,200.30409834409963 "/><polyline class="polyline" opacity="0.5" stroke="blue" points="266.1636798151007,208.63572304366707 343.22278586656637,202.3835767094904 "/><polyline class="polyline" opacity="0.5" stroke="blue" points="266.3069849411082,209.88723415055085 343.13209271621713,204.42713634308737 "/><polyline class="polyline" opacity="0.5" stroke="blue" points="266.41886077495815,211.12972556398785 342.96815008226866,206.4336041742677 "/><polyline class="polyline" opacity="0.5" stroke="blue" points="266.49941603219384,212.36259699778617 342.7324444316231,208.40187695164474 "/><polyline class="polyline" opacity="0.5" stroke="blue" points="266.5487776877571,213.58526018184523 342.4264999789877,210.33092044327114 "/><polyline class="polyline" opacity="0.5" stroke="blue" points="266.56709055217016,214.7971391461649 342.051874843717,212.21976850631148 "/><polyline class="polyline" opacity="0.5" stroke="blue" points="266.55451683574483,215.99767048218567 341.61015731271686,214.06752203695186 "/><polyline class="polyline" opacity="0.5" stroke="blue" points="266.51123570197956,217.18630358164637 341.10296221639624,215.8733478111848 "/><polyline class="polyline" opacity="0.5" stroke="blue" points="266.4374428112983,218.36250085319693 340.53192742368236,217.63647722692497 "/><polyline class="polyline" opacity="0.5" stroke="blue" points="266.3333498562687,219.5257379170497 339.89871046117275,219.35620495768194 "/><polyline class="polyline" opacity="0.5" stroke="blue" points="266.1991840894202,220.67550377799787 339.2049852606015,221.03188752774264 "/><polyline class="polyline" opacity="0.5" stroke="blue" points="266.035187844763,221.81130097717025 338.4524390379419,222.66294181850824 "/><polyline class="polyline" opacity="0.5" stroke="blue" points="265.84161805408536,222.9326457229314 337.64276930665324,224.248843515289 "/><polyline class="polyline" opacity="0.5" stroke="blue" points="265.61874575908206,224.039068001372 336.777681026821,225.78912550349412 "/><polyline class="polyline" opacity="0.5" stroke="blue" points="265.36685562034,225.1301116668671 335.858883891218,227.28337622276405 "/><polyline class="polyline" opacity="0.5" stroke="blue" points="265.0862454241758,226.2053345132117 334.88808974865253,228.73123798718734 "/><polyline class="polyline" opacity="0.5" stroke="blue" points="264.777225588291,227.26430832587002 333.8670101643514,230.13240527932524 "/><polyline class="polyline" opacity="0.5" stroke="blue" points="264.44011866717676,228.30661891590017 332.79735411655696,231.48662302533833 "/><polyline class="polyline" opacity="0.5" stroke="blue" points="264.07525885816545,229.3318661361387 331.68082582799786,232.79368485807743 "/><polyline class="polyline" opacity="0.5" stroke="blue" points="263.6829915089918,230.3396638802487 330.5191227304286,234.05343137456444 "/><polyline class="polyline" opacity="0.5" stroke="blue" points="263.263672627689,231.32964006525293 329.31393356000046,235.26574839385472 "/><polyline class="polyline" opacity="0.5" stroke="blue" points="262.8176683956086,232.30143659818734 328.0669365808543,236.43056522084282 "/><polyline class="polyline" opacity="0.5" stroke="blue" points="262.3453546843143,233.25470932752296 326.77979793399027,237.54785292114653 "/><polyline class="polyline" opacity="0.5" stroke="blue" points="261.84711657706197,234.189127980014 325.4541701081732,238.61762261179135 "/><polyline class="polyline" opacity="0.5" stroke="blue" points="261.32334789553784,235.10437608363677 324.09169052938574,239.63992377200748 "/><polyline class="polyline" opacity="0.5" stroke="blue" points="260.7744507324902,236.00015087728957 322.6939802651204,240.61484257806057 "/><polyline class="polyline" opacity="0.5" stroke="blue" points="260.20083499084825,236.87616320792765 321.2626428396278,241.54250026565435 "/><polyline class="polyline" opacity="0.5" stroke="blue" points="259.60291792988437,237.73213741580605 319.7992631560901,242.4230515230759 "/><polyline class="polyline" opacity="0.5" stroke="blue" points="258.9811237189365,238.56781120850528 318.3054065215747,243.2566829179047 "/><polyline class="polyline" opacity="0.5" stroke="blue" points="258.33588299917005,239.38293552440905 316.78261777053984,244.04361135976706 "/><polyline class="polyline" opacity="0.5" stroke="blue" points="257.66763245381827,240.17727438630166 315.2324204826034,244.78408260130183 "/><polyline class="polyline" opacity="0.5" stroke="blue" points="256.97681438730643,240.9506047457438 313.6563162902547,245.4783697791962 "/><polyline class="polyline" opacity="0.5" stroke="blue" points="256.26387631362417,241.70271631888022 312.05578427217597,246.12677199686675 "/><polyline class="polyline" opacity="0.5" stroke="blue" points="255.5292705542782,242.43341141432305 310.43228042785074,246.72961295009077 "/><polyline class="polyline" opacity="0.5" stroke="blue" points="254.77345384611982,243.142504753743 308.78723722916476,247.28723959663913 "/><polyline class="polyline" opacity="0.5" stroke="blue" points="253.99688695930888,243.8298232857915 307.1220632447476,247.80002087072802 "/><polyline class="polyline" opacity="0.5" stroke="blue" points="253.2000343256421,244.4952059939626 305.4381428328627,248.2683464428841 "/><polyline class="polyline" opacity="0.5" stroke="blue" points="252.3833636774412,245.13850369899058 303.736835898727,248.69262552561682 "/><polyline class="polyline" opacity="0.5" stroke="blue" points="251.54734569716612,245.75957885636464 302.01947771222177,249.0732857251009 "/><polyline class="polyline" opacity="0.5" stroke="blue" points="250.69245367788764,246.35830534952743 300.2873787820508,249.41077193889896 "/><polyline class="polyline" opacity="0.5" stroke="blue" points="249.81916319472475,246.93456827930706 298.5418247825037,249.70554529959685 "/><polyline class="polyline" opacity="0.5" stroke="blue" points="248.9279517873259,247.48826375011774 296.7840765290879,249.95808216407613 "/><polyline class="polyline" opacity="0.5" stroke="blue" points="248.01929865344496,248.01929865344496 295.015369999409,250.16887314801863 "/><polyline class="polyline" opacity="0.5" stroke="blue" points="247.0936843536386,248.52759044911556 293.23691639579584,250.3384222051176 "/><polyline class="polyline" opacity="0.5" stroke="blue" points="246.15159052708708,249.0130669448347 291.44990224628907,250.467245750362 "/><polyline class="polyline" opacity="0.5" stroke="blue" points="245.19349961851933,249.4756660744533 289.6554895407369,250.55587182666562 "/><polyline class="polyline" opacity="0.5" stroke="blue" points="244.21989461619745,249.91533567541194 287.8548158988653,250.60483931402587 "/><polyline class="polyline" opacity="0.5" stroke="blue" points="243.2312588009017,250.33203326578888 286.04899476731896,250.61469718032134 "/><polyline class="polyline" opacity="0.5" stroke="blue" points="242.22807550583127,250.72572582136084 284.2391156427956,250.58600377279308 "/><polyline class="polyline" opacity="0.5" stroke="blue" points="241.21082788732295,251.09638955306798 282.42624431852187,250.51932614919374 "/><polyline class="polyline" opacity="0.5" stroke="blue" points="240.17999870627074,251.44400968525446 280.6114231514442,250.41523944754158 "/><polyline class="polyline" opacity="0.5" stroke="blue" points="239.13607012011403,251.76858023504005 278.7956713476344,250.27432629337346 "/><polyline class="polyline" opacity="0.5" stroke="blue" points="238.07952348524776,252.07010379315807 276.97998526352677,250.09717624335562 "/><polyline class="polyline" opacity="0.5" stroke="blue" points="237.01083916969486,252.3485913065777 275.16533872072813,249.88438526408174 "/><polyline class="polyline" opacity="0.5" stroke="blue" points="235.93049637586702,252.60406186321302 273.3526833322554,249.6365552448664 "/><polyline class="polyline" opacity="0.5" stroke="blue" points="234.83897297323153,252.83654247899958 271.54294883817096,249.35429354332143 "/><polyline class="polyline" opacity="0.5" stroke="blue" points="233.73674534068863,253.04606788760734 269.7370434486963,249.03821256249256 "/><polyline class="polyline" opacity="0.5" stroke="blue" points="232.62428821845583,253.23268033303796 267.9358541929922,248.68892935832213 "/><polyline class="polyline" opacity="0.5" stroke="blue" points="231.50207456924718,253.39642936534054 266.1402472718982,248.30706527620197 "/><polyline class="polyline" opacity="0.5" stroke="blue" points="230.37057544852746,253.5373716396629 264.3510684130237,247.8932456153753 "/><polyline class="polyline" opacity="0.5" stroke="blue" points="229.2302598836149,253.65557071884047 262.5691432266818,247.44809931995218 "/><polyline class="polyline" opacity="0.5" stroke="blue" points="228.0815947613991,253.75109687970962 260.7952775612485,246.97225869530388 "/><polyline class="polyline" opacity="0.5" stroke="blue" points="226.92504472443767,253.82402692331738 259.03025785662277,246.46635914861145 "/><polyline class="polyline" opacity="0.5" stroke="blue" points="225.76107207518825,253.87444398918558 257.2748514945455,245.93103895234975 "/><polyline class="polyline" opacity="0.5" stroke="blue" points="224.59013668813085,253.90243737377386 255.52980714462205,245.36693902950114 "/><polyline class="polyline" opacity="0.5" stroke="blue" points="223.41269592953105,253.908102353272 253.7958551049708,244.77470275930386 "/><polyline class="polyline" opacity="0.5" stroke="blue" points="222.22920458459305,253.89154001084003 252.0737076364953,244.15497580235427 "/><polyline class="polyline" opacity="0.5" stroke="blue" points="221.04011479174872,253.85285706840216 250.36405928985292,243.50840594389624 "/><polyline class="polyline" opacity="0.5" stroke="blue" points="219.8458759838289,253.7921657230879 248.66758722426047,242.83564295414658 "/><polyline class="polyline" opacity="0.5" stroke="blue" points="218.64693483586052,253.7095834884033 246.98495151734437,242.1373384645215 "/><polyline class="polyline" opacity="0.5" stroke="blue" points="217.44373521923444,253.60523304020387 245.31679546530762,241.41414585864538 "/><polyline class="polyline" opacity="0.5" stroke="blue" points="216.23671816198822,253.4792420675307 243.66374587274507,240.66672017704093 "/><polyline class="polyline" opacity="0.5" stroke="blue" points="215.02632181494823,253.3317431283603 242.0264133314982,239.89571803441586 "/><polyline class="polyline" opacity="0.5" stroke="blue" points="213.8129814234772,253.1628735103106 240.40539248799524,239.10179754847988 "/><polyline class="polyline" opacity="0.5" stroke="blue" points="212.59712930457385,252.972775096335 238.80126229857655,238.28561827924221 "/><polyline class="polyline" opacity="0.5" stroke="blue" points="211.3791948290729,252.761594235429 237.21458627235552,237.44784117775808 "/><polyline class="polyline" opacity="0.5" stroke="blue" points="210.15960440869583,252.5294816183644 235.64591270121494,236.5891285433098 "/><polyline class="polyline" opacity="0.5" stroke="blue" points="208.9387814877044,252.27659215845955 234.09577487658547,235.71014398802464 "/><polyline class="polyline" opacity="0.5" stroke="blue" points="207.7171465389115,252.00308487738556 232.56469129269834,234.81155240795044 "/><polyline class="polyline" opacity="0.5" stroke="blue" points="206.4951170638059,251.70912279600162 231.05316583604733,233.89401995962464 "/><polyline class="polyline" opacity="0.5" stroke="blue" points="205.27310759655128,251.3948728302065 229.56168796083887,232.95821404119107 "/><polyline class="polyline" opacity="0.5" stroke="blue" points="204.05152971162062,251.06050569178674 228.09073285024738,232.00480327713439 "/><polyline class="polyline" opacity="0.5" stroke="blue" points="202.8307920348324,250.70619579423442 226.6407615633352,231.03445750571822 "/><polyline class="polyline" opacity="0.5" stroke="blue" points="201.61130025755608,250.33212116350478 225.21222116753296,230.04784776823018 "/><polyline class="polyline" opacity="0.5" stroke="blue" points="200.39345715385846,249.93846335367635 223.80554485661455,229.04564629915194 "/><polyline class="polyline" opacity="0.5" stroke="blue" points="199.17766260036538,249.5254073674711 222.4211520541372,228.0285265163888 "/><polyline class="polyline" opacity="0.5" stroke="blue" points="197.96431359861663,249.0931415815891 221.05944850235397,226.99716301070964 "/><polyline class="polyline" opacity="0.5" stroke="blue" points="196.75380429969465,248.6418576768061 219.72082633663967,225.95223153356267 "/><polyline class="polyline" opacity="0.5" stroke="blue" points="195.54652603091188,248.1717505727788 218.40566414550798,224.89440898244987 "/><polyline class="polyline" opacity="0.5" stroke="blue" points="194.34286732434347,247.68301836749816 217.1143270163301,223.82437338305778 "/><polyline class="polyline" opacity="0.5" stroke="blue" points="193.14321394699698,247.1758622813283 215.84716656690114,222.74280386735845 "/><polyline class="polyline" opacity="0.5" stroke="blue" points="191.9479489324123,246.65048660556346 214.60452096303325,221.65038064691242 "/><polyline class="polyline" opacity="0.5" stroke="blue" points="190.7574526134894,246.10709865543345 213.38671492238825,220.54778498061992 "/><polyline class="polyline" opacity="0.5" stroke="blue" points="189.57210265634453,245.54590872748372 212.19405970479704,219.43569913618566 "/><polyline class="polyline" opacity="0.5" stroke="blue" points="188.39227409499765,244.96713006125435 211.02685308934585,218.3148063445792 "/><polyline class="polyline" opacity="0.5" stroke="blue" points="187.21833936669813,244.3709788051775 209.88537933854374,217.1857907467917 "/><polyline class="polyline" opacity="0.5" stroke="blue" points="186.0506683476986,243.75767398661222 208.76990914991907,216.0493373322085 "/><polyline class="polyline" opacity="0.5" stroke="blue" points="184.88962838928845,243.12743748593113 207.68069959542706,214.9061318679369 "/><polyline class="polyline" opacity="0.5" stroke="blue" points="183.7355843539031,242.48049401457166 206.61799404908402,213.7568608184493 "/><polyline class="polyline" opacity="0.5" stroke="blue" points="182.58889865112707,241.8170710969622 205.58202210327858,212.60221125492322 "/><polyline class="polyline" opacity="0.5" stroke="blue" points="181.4499312734109,241.13739905623058 204.57299947424406,211.44287075368243 "/><polyline class="polyline" opacity="0.5" stroke="blue" points="180.31903983132625,240.44171100360046 203.59112789721146,210.279527283168 "/><polyline class="polyline" opacity="0.5" stroke="blue" points="179.1965795881843,239.73024283137843 202.63659501179572,209.1128690788921 "/><polyline class="polyline" opacity="0.5" stroke="blue" points="178.08290349384612,239.00323320943312 201.709574238204,207.94358450585491 "/><polyline class="polyline" opacity="0.5" stroke="blue" points="176.97836221755531,238.2609235850644 200.810224644889,206.7723619079328 "/><polyline class="polyline" opacity="0.5" stroke="blue" points="175.88330417962615,237.50355818615935 199.93869080830447,205.5998894437746 "/><polyline class="polyline" opacity="0.5" stroke="blue" points="174.798075581822,236.73138402752954 199.09510266545612,204.42685490877557 "/><polyline class="polyline" opacity="0.5" stroke="blue" points="173.72302043626104,235.94465092032095 198.27957535997388,203.25394554273026 "/><polyline class="polyline" opacity="0.5" stroke="blue" points="172.65848059268853,235.14361148438692 197.49220908246735,202.08184782280009 "/><polyline class="polyline" opacity="0.5" stroke="blue" points="171.6047957639565,234.32852116351168 196.7330889059597,200.9112472414692 "/><polyline class="polyline" opacity="0.5" stroke="blue" points="170.56230354955375,233.49963824336942 196.0022846172282,199.742828069199 "/><polyline class="polyline" opacity="0.5" stroke="blue" points="169.53133945703078,232.65722387210246 195.29985054491385,198.5772731015331 "/><polyline class="polyline" opacity="0.5" stroke="blue" points="168.51223692116565,231.80154208339872 194.62582538529333,197.41526339044668 "/><polyline class="polyline" opacity="0.5" stroke="blue" points="167.50532732071937,230.93285982194718 193.9802320266392,196.25747795977745 "/><polyline class="polyline" opacity="0.5" stroke="blue" points="166.51093999262977,230.05144697114676 193.36307737312438,195.10459350462355 "/><polyline class="polyline" opacity="0.5" stroke="blue" points="165.529402243495,229.1575763829423 192.7743521692555,193.9572840746403 "/><polyline class="polyline" opacity="0.5" stroke="blue" points="164.56103935820008,228.25152390965806 192.2140308258484,192.81622074121952 "/><polyline class="polyline" opacity="0.5" stroke="blue" points="163.60617460553922,227.3335684376965 191.68207124858583,191.68207124858583 "/><polyline class="polyline" opacity="0.5" stroke="blue" points="162.6651292406913,226.40399192296826 191.178414670221,190.55549964890056 "/><polyline class="polyline" opacity="0.5" stroke="blue" points="161.73822250440372,225.4630794279147 190.70298548751398,189.43716592151807 "/><polyline class="polyline" opacity="0.5" stroke="blue" points="160.82577161874522,224.51111915998314 190.25569110400957,188.32772557659888 "/><polyline class="polyline" opacity="0.5" stroke="blue" points="159.9280917792857,223.54840251141084 189.83642177978146,187.22782924334223 "/><polyline class="polyline" opacity="0.5" stroke="blue" points="159.04549614356637,222.57522410017074 189.4450504892859,186.13812224316305 "/><polyline class="polyline" opacity="0.5" stroke="blue" points="158.17829581572252,221.59188181192889 189.08143278847922,185.05924414820043 "/><polyline class="polyline" opacity="0.5" stroke="blue" points="157.32679982712375,220.59867684286024 188.7454066923645,183.9918283256086 "/><polyline class="polyline" opacity="0.5" stroke="blue" points="156.49131511289835,219.59591374316597 188.43679256413992,182.93650146814727 "/><polyline class="polyline" opacity="0.5" stroke="blue" points="155.67214648421037,218.5839004611312 188.15539301712394,181.89388311165345 "/><polyline class="polyline" opacity="0.5" stroke="blue" points="154.86959659615857,217.56294838755989 187.9009928306336,180.8645851400447 "/><polyline class="polyline" opacity="0.5" stroke="blue" points="154.08396591117042,216.53337240041805 187.6733588809871,179.8492112785699 "/><polyline class="polyline" opacity="0.5" stroke="blue" points="153.31555265776456,215.49549090951425 187.47224008879513,178.8483565760933 "/><polyline class="polyline" opacity="0.5" stroke="blue" points="152.56465278455846,214.44962590104103 187.29736738369252,177.862606877263 "/><polyline class="polyline" opacity="0.5" stroke="blue" points="151.83155990940028,213.396102981798 187.1484536876459,176.89253828548482 "/><polyline class="polyline" opacity="0.5" stroke="blue" points="151.11656526350583,212.3352514229123 187.02519391795167,175.93871661768722 "/><polyline class="polyline" opacity="0.5" stroke="blue" points="150.41995763048521,211.26740420286836 186.92726501101325,175.00169685193134 "/><polyline class="polyline" opacity="0.5" stroke="blue" points="149.74202328014627,210.19289804965493 186.8543259679561,174.08202256898298 "/><polyline class="polyline" opacity="0.5" stroke="blue" points="149.0830458969648,209.11207348183223 186.8060179231037,173.18022538902818 "/><polyline class="polyline" opacity="0.5" stroke="blue" points="148.443306503116,208.02527484831825 186.7819642362968,172.2968244047746 "/><polyline class="polyline" opacity="0.5" stroke="blue" points="147.82308337596413,206.93285036668897 186.7817706099939,171.43232561224073 "/><polyline class="polyline" opacity="0.5" stroke="blue" points="147.22265195991213,205.83515215978196 186.8050252320391,170.58722134059136 "/><polyline class="polyline" opacity="0.5" stroke="blue" points="146.64228477251737,204.7325362903896 186.8512989449292,169.76198968243102 "/><polyline class="polyline" opacity="0.5" stroke="blue" points="146.0822513047832,203.6253627938224 186.92014544234985,168.957093926018 "/><polyline class="polyline" opacity="0.5" stroke="blue" points="145.54281791554317,202.51399570811952 187.0111014936859,168.17298199090686 "/><polyline class="polyline" opacity="0.5" stroke="blue" points="145.0242477198573,201.39880310167825 187.1236871971396,167.41008586857185 "/><polyline class="polyline" opacity="0.5" stroke="blue" points="144.52680047134822,200.28015709807082 187.25740626201505,166.66882106959832 "/><polyline class="polyline" opacity="0.5" stroke="blue" points="144.05073243840928,199.15843389781125 187.41174632064764,165.94958607906557 "/><polyline class="polyline" opacity="0.5" stroke="blue" points="143.59629627422413,198.03401379683254 187.5861792703706,165.2527618217697 "/><polyline class="polyline" opacity="0.5" stroke="blue" points="143.16374088054445,196.90728120142828 187.7801616458238,164.5787111389588 "/><polyline class="polyline" opacity="0.5" stroke="blue" points="142.7533112651791,195.77862463941054 187.9931350218161,163.92777827826825 "/><polyline class="polyline" opacity="0.5" stroke="blue" points="142.365248393157,194.648436767231 188.2245264468548,163.30028839855507 "/><polyline class="polyline" opacity="0.5" stroke="blue" points="141.99978903153425,193.51711437280917 188.47374890735648,162.6965470913322 "/><polyline class="polyline" opacity="0.5" stroke="blue" points="141.65716558782384,192.38505837380754 188.74020182245056,162.1168399205028 "/><polyline class="polyline" opacity="0.5" stroke="blue" points="141.337605942038,191.25267381109097 189.02327156917931,161.56143198208312 "/><polyline class="polyline" opacity="0.5" stroke="blue" points="141.04133327234146,190.1203698371041 189.32233203779163,161.03056748558592 "/><polyline class="polyline" opacity="0.5" stroke="blue" points="140.7685658743248,188.9885596988981 189.6367452167166,160.52446935871222 "/><polyline class="polyline" opacity="0.5" stroke="blue" points="140.5195169739203,187.8576607155359 189.9658618066925,160.04333887696797 "/><polyline class="polyline" opacity="0.5" stroke="blue" points="140.29439453399075,186.72809424960278 190.3090218634138,159.5873553197817 "/><polyline class="polyline" opacity="0.5" stroke="blue" points="140.0934010546384,185.60028567254764 190.6655554679479,159.15667565465486 "/><polyline class="polyline" opacity="0.5" stroke="blue" points="139.91673336729076,184.47466432357967 191.0347834240595,158.75143425082007 "/><polyline class="polyline" opacity="0.5" stroke="blue" points="139.76458242263607,183.35166346184354 191.41601798147076,158.37174262382365 "/><polyline class="polyline" opacity="0.5" stroke="blue" points="139.6371330724941,182.23172021159667 191.80856358397546,158.01768921237795 "/><polyline class="polyline" opacity="0.5" stroke="blue" points="139.53456384572357,181.11527550011263 192.2117176412166,157.68933918875476 "/><polyline class="polyline" opacity="0.5" stroke="blue" points="139.45704671828304,180.0027739880351 192.62477132283382,157.38673430390796 "/><polyline class="polyline" opacity="0.5" stroke="blue" points="139.40474687757816,178.8946639919092 193.04701037358302,157.109892768424 "/><polyline class="polyline" opacity="0.5" stroke="blue" points="139.37782248124523,177.79139739861776 193.47771594793466,156.85880917030386 "/><polyline class="polyline" opacity="0.5" stroke="blue" points="139.3764244105382,176.69342957145585 193.9161654625613,156.6334544304775 "/><polyline class="polyline" opacity="0.5" stroke="blue" points="139.40069601850496,175.6012192475767 194.36163346503938,156.43377579684636 "/><polyline class="polyline" opacity="0.5" stroke="blue" points="139.45077287315667,174.51522842655075 194.81339251700288,156.25969687753502 "/><polyline class="polyline" opacity="0.5" stroke="blue" points="139.52678249585418,173.43592224978136 195.27071408991426,156.11111771391805 "/><polyline class="polyline" opacity="0.5" stroke="blue" points="139.62884409515436,172.3637688705299 195.73286947154284,155.9879148938657 "/><polyline class="polyline" opacity="0.5" stroke="blue" points="139.757068296381,171.29923931430733 196.19913068118092,155.88994170552866 "/><polyline class="polyline" opacity="0.5" stroke="blue" points="139.91155686720407,170.24280732939988 196.6687713915689,155.81702833185273 "/><polyline class="polyline" opacity="0.5" stroke="blue" points="140.09240243953474,169.19494922730428 197.14106785545405,155.76898208588634 "/><polyline class="polyline" opacity="0.5" stroke="blue" points="140.2996882280636,168.15614371285739 197.61529983466696,155.7455876868104 "/><polyline class="polyline" opacity="0.5" stroke="blue" points="140.53348774579277,167.1268717038588 198.09075152956663,155.74660757648815 "/><polyline class="polyline" opacity="0.5" stroke="blue" points="140.79386451693583,166.10761613999443 198.56671250668472,155.77178227619942 "/><polyline class="polyline" opacity="0.5" stroke="blue" points="141.08087178758055,165.0988617808845 199.04247862238154,155.82083078309077 "/><polyline class="polyline" opacity="0.5" stroke="blue" points="141.39455223453552,164.101094993093 199.51735294032508,155.89345100574076 "/><polyline class="polyline" opacity="0.5" stroke="blue" points="141.7349376728024,163.11480352595237 199.9906466406053,155.98932023811057 "/><polyline class="polyline" opacity="0.5" stroke="blue" points="142.10204876214172,162.14047627607283 200.46167991831004,156.1080956710214 "/><polyline class="polyline" opacity="0.5" stroke="blue" points="142.49589471322187,161.17860304042657 200.9297828694117,156.24941494017608 "/><polyline class="polyline" opacity="0.5" stroke="blue" points="142.91647299386582,160.2296742579128 201.3942963618433,156.41289670962075 "/><polyline class="polyline" opacity="0.5" stroke="blue" points="143.3637690359335,159.29418073933522 201.8545728896844,156.59814128942674 "/><polyline class="polyline" opacity="0.5" stroke="blue" points="143.83775594340096,158.37261338574137 202.30997740842452,156.80473128626045 "/><polyline class="polyline" opacity="0.5" stroke="blue" points="144.33839420222125,157.46546289509934 202.7598881493295,157.03223228540304 "/><polyline class="polyline" opacity="0.5" stroke="blue" points="144.86563139257362,156.57321945731175 203.20369741100112,157.28019356268214 "/><polyline class="polyline" opacity="0.5" stroke="blue" points="145.41940190413226,155.69637243759158 203.6408123262935,157.54814882468384 "/><polyline class="polyline" opacity="0.5" stroke="blue" points="145.99962665500482,154.83541004825386 204.070655602829,157.8356169755275 "/><polyline class="polyline" opacity="0.5" stroke="blue" points="146.60621281501471,153.9908190090037 204.4926662354443,158.14210290840575 "/><polyline class="polyline" opacity="0.5" stroke="blue" points="147.23905353401983,153.16308419583322 204.90630018899026,158.46709832002307 "/><polyline class="polyline" opacity="0.5" stroke="blue" points="147.8980276759811,152.3526882786681 205.31103105000793,158.810082546001 "/><polyline class="polyline" opacity="0.5" stroke="blue" points="148.58299955951168,151.5601113479403 205.70635064590795,159.17052341526488 "/><polyline class="polyline" opacity="0.5" stroke="blue" points="149.2938187056555,150.78583053029288 206.0917696303887,159.54787812138088 "/><polyline class="polyline" opacity="0.5" stroke="blue" points="150.0303195936604,150.0303195936604 206.46681803394296,159.94159410877427 "/><polyline class="polyline" opacity="0.5" stroke="blue" points="150.7923214255246,149.29404854200234 206.83104577841715,160.3511099717318 "/><polyline class="polyline" opacity="0.5" stroke="blue" points="151.5796279001093,148.57748320000238 207.18402315470811,160.77585636407085 "/><polyline class="polyline" opacity="0.5" stroke="blue" points="152.39202699762117,147.88108478808584 207.5253412628023,161.2152569173482 "/><polyline class="polyline" opacity="0.5" stroke="blue" points="153.2292907752785,147.20530948814346 207.85461241348483,161.6687291654777 "/><polyline class="polyline" opacity="0.5" stroke="blue" points="154.0911751749822,146.55060800038814 208.17147049116983,162.13568547363383 "/><polyline class="polyline" opacity="0.5" stroke="blue" points="154.97741984381804,145.91742509181228 208.47557127742547,162.61553396933184 "/><polyline class="polyline" opacity="0.5" stroke="blue" points="155.88774796822122,145.3061991367508 208.76659273489096,163.10767947359915 "/><polyline class="polyline" opacity="0.5" stroke="blue" points="156.82186612263416,144.71736165009492 209.0442352514032,163.61152443018256 "/><polyline class="polyline" opacity="0.5" stroke="blue" points="157.7794641334869,144.15133681374343 209.30822184427117,164.12646983077408 "/><polyline class="polyline" opacity="0.5" stroke="blue" points="158.76021495932753,143.60854099691562 209.55829832475328,164.65191613428553 "/><polyline class="polyline" opacity="0.5" stroke="blue" points="159.76377458792,143.08938227099173 209.79423342290633,165.18726417825064 "/><polyline class="polyline" opacity="0.5" stroke="blue" points="160.78978195112123,142.5942599195857 210.01581887308714,165.731916080496 "/><polyline class="polyline" opacity="0.5" stroke="blue" points="161.83785885833285,142.1235639445935 210.22286946049317,166.28527612928315 "/><polyline class="polyline" opacity="0.5" stroke="blue" points="162.90760994931162,141.67767456899975 210.4152230292322,166.84675166019605 "/><polyline class="polyline" opacity="0.5" stroke="blue" points="163.99862266709997,141.25696173726197 210.5927404525077,167.4157539181208 "/><polyline class="polyline" opacity="0.5" stroke="blue" points="165.11046725182064,140.86178461412942 210.75530556560014,167.99169890274547 "/><polyline class="polyline" opacity="0.5" stroke="blue" points="166.24269675605052,140.49249108278767 210.90282506241022,168.57400819608793 "/><polyline class="polyline" opacity="0.5" stroke="blue" points="167.39484708246403,140.14941724325507 211.03522835641272,169.16210977064742 "/><polyline class="polyline" opacity="0.5" stroke="blue" points="168.56643704440222,139.83288691198942 211.1524674069429,169.7554387768627 "/><polyline class="polyline" opacity="0.5" stroke="blue" points="169.75696844999078,139.54321112369385 211.2545165118085,170.35343830865105 "/><polyline class="polyline" opacity="0.5" stroke="blue" points="170.96592621039161,139.28068763633917 211.3413720672812,170.95556014589363 "/><polyline class="polyline" opacity="0.5" stroke="blue" points="172.19277847272946,139.04560044044695 211.4130522965786,171.56126547282656 "/><polyline class="polyline" opacity="0.5" stroke="blue" points="173.4369767781937,138.83821927370184 211.46959694799705,172.1700255713906 "/><polyline class="polyline" opacity="0.5" stroke="blue" points="174.697956245763,138.6587991419825 211.51106696389886,172.7813224886854 "/><polyline class="polyline" opacity="0.5" stroke="blue" points="175.97513578195384,138.50757984791986 211.5375441217942,173.39464967776863 "/><polyline class="polyline" opacity="0.5" stroke="blue" points="177.26791831693464,138.38478552810645 211.54913064878733,174.0095126111314 "/><polyline class="polyline" opacity="0.5" stroke="blue" points="178.575691067295,138.29062420009473 211.54594881068203,174.62542936627338 "/><polyline class="polyline" opacity="0.5" stroke="blue" points="179.89782582569381,138.22528732033004 211.52814047705732,175.2419311828886 "/><polyline class="polyline" opacity="0.5" stroke="blue" points="181.23367927755172,138.1889493541697 211.4958666636368,175.85856299126235 "/><polyline class="polyline" opacity="0.5" stroke="blue" points="182.58259334488395,138.18176735914415 211.4493070532808,176.47488391156088 "/><polyline class="polyline" opacity="0.5" stroke="blue" points="183.9438955573041,138.20388058261088 211.38865949692968,177.09046772377994 "/><polyline class="polyline" opacity="0.5" stroke="blue" points="185.31689945015634,138.25541007495036 211.31413949582267,177.7049033081946 "/><polyline class="polyline" opacity="0.5" stroke="blue" points="186.70090498966425,138.33645831944 211.22597966630454,178.31779505622902 "/><polyline class="polyline" opacity="0.5" stroke="blue" points="188.0951990249072,138.4471088799316 211.12442918851897,178.92876325173512 "/><polyline class="polyline" opacity="0.5" stroke="blue" points="189.49905576636104,138.5874260674375 211.009753240266,179.5374444227372 "/><polyline class="polyline" opacity="0.5" stroke="blue" points="190.9117372906634,138.75745462671108 210.882232417278,180.14349166376294 "/><polyline class="polyline" opacity="0.5" stroke="blue" points="192.33249407118373,138.95721944387805 210.7421621411403,180.7465749289395 "/><polyline class="polyline" opacity="0.5" stroke="blue" points="193.76056553390205,139.18672527614683 210.58985205605165,181.3463812960901 "/><polyline class="polyline" opacity="0.5" stroke="blue" points="195.19518063801928,139.44595650458984 210.42562541558428,181.9426152021145 "/><polyline class="polyline" opacity="0.5" stroke="blue" points="196.6355584806447,139.73487691094908 210.24981846056647,182.53499864998628 "/><polyline class="polyline" opacity="0.5" stroke="blue" points="198.08090892482537,140.05342947937504 210.062779789171,183.12327138773784 "/><polyline class="polyline" opacity="0.5" stroke="blue" points="199.53043325010657,140.40153622396167 209.86486972024915,183.70719105984492 "/><polyline class="polyline" opacity="0.5" stroke="blue" points="200.98332482473253,140.77909804288623 209.65645965090823,184.28653333145218 "/><polyline class="polyline" opacity="0.5" stroke="blue" points="202.43876979852413,141.18599459991034 209.4379314092831,184.8610919859132 "/><polyline class="polyline" opacity="0.5" stroke="blue" points="203.89594781539245,141.62208423393542 209.2096766034071,185.430678996139 "/><polyline class="polyline" opacity="0.5" stroke="blue" points="205.35403274437917,142.08720389724581 208.97209596704005,185.9951245702735 "/><polyline class="polyline" opacity="0.5" stroke="blue" points="206.81219342804135,142.5811691230042 208.72559870326256,186.55427717222653 "/><polyline class="polyline" opacity="0.5" stroke="blue" points="208.26959444693534,143.10377402249537 208.4706018265991,187.10800351761034 "/><polyline class="polyline" opacity="0.5" stroke="blue" points="209.72539689888686,143.65479131254054 208.20752950438333,187.65618854563272 "/><polyline class="polyline" opacity="0.5" stroke="blue" points="211.17875919167784,144.23397237343067 207.93681239803223,188.1987353675048 "/><polyline class="polyline" opacity="0.5" stroke="blue" points="212.62883784772268,144.84104733764667 207.65888700484865,188.73556519192437 "/><polyline class="polyline" opacity="0.5" stroke="blue" points="214.07478831925332,145.47572520955723 207.37419500092642,189.26661722819225 "/><polyline class="polyline" opacity="0.5" stroke="blue" points="215.51576581248764,146.13769401620056 207.08318258568642,189.79184856751667 "/><polyline class="polyline" opacity="0.5" stroke="blue" points="216.95092611920967,146.82662098917427 206.78629982853022,190.31123404305174 "/><polyline class="polyline" opacity="0.5" stroke="blue" points="218.37942645415427,147.54215277757277 206.48400001805467,190.8247660692075 "/><polyline class="polyline" opacity="0.5" stroke="blue" points="219.8004262965542,148.2839156918253 206.17673901423257,191.33245446075563 "/><polyline class="polyline" opacity="0.5" stroke="blue" points="221.21308823418218,149.0515159782036 205.86497460392488,191.8343262322426 "/><polyline class="polyline" opacity="0.5" stroke="blue" points="222.61657880819553,149.8445401236793 205.54916586005652,192.33042537820344 "/><polyline class="polyline" opacity="0.5" stroke="blue" points="224.01006935707898,150.66255519072945 205.22977250475174,192.82081263465452 "/><polyline class="polyline" opacity="0.5" stroke="blue" points="225.3927368579663,151.50510918159893 204.90725427669705,193.3055652223219 "/><polyline class="polyline" opacity="0.5" stroke="blue" points="226.7637647636215,152.37173143144918 204.58207030296916,193.78477657204456 "/><polyline class="polyline" opacity="0.5" stroke="blue" points="228.12234383335883,153.2619330297364 204.2546784755409,194.2585560327683 "/><polyline class="polyline" opacity="0.5" stroke="blue" points="229.46767295618986,154.1752072690838 203.92553483265536,194.72702856252576 "/><polyline class="polyline" opacity="0.5" stroke="blue" points="230.79895996450156,155.1110301208338 203.59509294523787,195.19033440277684 "/><polyline class="polyline" opacity="0.5" stroke="blue" points="232.1154224365849,156.06886073638842 203.26380330849955,195.64862873645927 "/><polyline class="polyline" opacity="0.5" stroke="blue" points="233.4162884863652,157.04814197337652 202.93211273887124,196.10208133007976 "/><polyline class="polyline" opacity="0.5" stroke="blue" points="234.70079753871147,158.04830094561154 202.60046377639648,196.55087616015226 "/><polyline class="polyline" opacity="0.5" stroke="blue" points="235.9682010887451,159.0687495957428 202.26929409270392,196.99521102427022 "/><polyline class="polyline" opacity="0.5" stroke="blue" points="237.2177634436071,160.10888528943565 201.93903590467508,197.43529713707832 "/><polyline class="polyline" opacity="0.5" stroke="blue" points="238.44876244519486,161.16809142986187 201.61011539392155,197.87135871139031 "/><polyline class="polyline" opacity="0.5" stroke="blue" points="239.66049017243103,162.24573809122347 201.28295213218755,198.30363252468126 "/><polyline class="polyline" opacity="0.5" stroke="blue" points="240.8522536216883,163.34118266998772 200.95795851279755,198.7323674711655 "/><polyline class="polyline" opacity="0.5" stroke="blue" points="242.02337536405528,164.45377055246237 200.6355391882769,199.15782409965684 "/><polyline class="polyline" opacity="0.5" stroke="blue" points="243.17319417819817,165.58283579730488 200.31609051428316,199.5802741373936 "/><polyline class="polyline" opacity="0.5" stroke="blue" points="244.30106565764407,166.72770183151994 200.0,200.0 "/><polyline class="polyline" opacity="0.5" stroke="blue" points="245.4063627913878,167.88768215847512 199.68764576516074,200.4172942877466 "/><polyline class="polyline" opacity="0.5" stroke="blue" points="246.48847651680495,169.06208107643732 199.37939600388796,200.8324592682645 "/><polyline class="polyline" opacity="0.5" stroke="blue" points="247.54681624393115,170.250194406114 199.07560845555784,201.24580634586397 "/><polyline class="polyline" opacity="0.5" stroke="blue" points="248.58081035026012,171.45131022567386 198.77662988291993,201.65765551760765 "/><polyline class="polyline" opacity="0.5" stroke="blue" points="249.58990664529205,172.66470961170847 198.48279555773192,202.0683348162869 "/><polyline class="polyline" opacity="0.5" stroke="blue" points="250.5735728041589,173.88966738459925 198.19442875419546,202.4781797404562 "/><polyline class="polyline" opacity="0.5" stroke="blue" points="251.53129676973998,175.1254528567535 197.91184025051157,202.88753267168514 "/><polyline class="polyline" opacity="0.5" stroke="blue" points="252.46258712277432,176.37133058218478 197.6353278389052,203.29674227919963 "/><polyline class="polyline" opacity="0.5" stroke="blue" points="253.36697341956716,177.62656110592394 197.36517584450434,203.7061629120948 "/><polyline class="polyline" opacity="0.5" stroke="blue" points="254.24400649698103,178.89040171176816 197.10165465349382,204.1161539793206 "/><polyline class="polyline" opacity="0.5" stroke="blue" points="255.0932587444932,180.16210716689716 196.84502025100232,204.5270793176583 "/><polyline class="polyline" opacity="0.5" stroke="blue" points="255.91432434319304,181.44093046191574 196.5955137692182,204.93930654793218 "/><polyline class="polyline" opacity="0.5" stroke="blue" points="256.7068194716826,182.72612354491315 196.3533610462703,205.3532064197234 "/><polyline class="polyline" opacity="0.5" stroke="blue" points="257.4703824789336,184.01693804816892 196.11877219644865,205.76915214488616 "/><polyline class="polyline" opacity="0.5" stroke="blue" points="258.2046740242415,185.312626006174 195.8919411923811,206.18751872019686 "/><polyline class="polyline" opacity="0.5" stroke="blue" points="258.9093771845005,186.61244056368287 195.67304545982176,206.60868223950436 "/><polyline class="polyline" opacity="0.5" stroke="blue" points="259.58419752910976,187.91563667256028 195.4622454857471,207.03301919578936 "/><polyline class="polyline" opacity="0.5" stroke="blue" points="260.2288631628982,189.22147177623816 195.2596844404962,207.46090577358262 "/><polyline class="polyline" opacity="0.5" stroke="blue" points="260.8431247375351,190.5292064806533 195.0654878147287,207.89271713223872 "/><polyline class="polyline" opacity="0.5" stroke="blue" points="261.42675543196447,191.8381052105936 194.8797630720141,208.3288266806098 "/><polyline class="polyline" opacity="0.5" stroke="blue" points="261.97955090247723,193.14743685044192 194.70259931790005,208.76960534371653 "/><polyline class="polyline" opacity="0.5" stroke="blue" points="262.5013292030959,194.4564753683664 194.5340669863433,209.21542082206594 "/><polyline class="polyline" opacity="0.5" stroke="blue" points="262.9919306770151,195.76450042307215 194.3742175444187,209.66663684432473 "/><polyline class="polyline" opacity="0.5" stroke="blue" points="263.45121781989644,197.07079795229234 194.22308321625184,210.1236124141129 "/><polyline class="polyline" opacity="0.5" stroke="blue" points="263.8790751158746,198.37466074226506 194.08067672714745,210.58670105174534 "/><polyline class="polyline" opacity="0.5" stroke="blue" points="264.27540884717916,199.67538897750717 193.94699106891062,211.0562500318101 "/><polyline class="polyline" opacity="0.5" stroke="blue" points="264.6401468783257,200.9722907702664 193.82199928737685,211.53259961753636 "/><polyline class="polyline" opacity="0.5" stroke="blue" points="264.9732384158703,202.26468266909808 193.70565429318455,212.01608229296963 "/><polyline class="polyline" opacity="0.5" stroke="blue" points="265.2746537447598,203.55189014608405 193.59788869683538,212.50702199403727 "/><polyline class="polyline" opacity="0.5" stroke="blue" points="265.54438394234273,204.83324806227478 193.49861466909528,213.00573333965272 "/><polyline class="polyline" opacity="0.5" stroke="blue" points="265.7824405711355,206.10810111100574 193.407723827792,213.5125208640728 "/><polyline class="polyline" opacity="0.5" stroke="blue" points="265.9888553514612,207.37580423880442 193.32508715206242,214.02767825178734 "/><polyline class="polyline" opacity="0.5" stroke="blue" points="266.1636798151007,208.63572304366699 193.25055492509446,214.55148757628385 "/><polyline class="polyline" opacity="0.5" stroke="blue" points="266.3069849411083,209.88723415055082 193.1839567063954,215.08421854409315 "/><polyline class="polyline" opacity="0.5" stroke="blue" points="266.4188607749581,211.12972556398776 193.125101334597,215.62612774558207 "/><polyline class="polyline" opacity="0.5" stroke="blue" points="266.4994160321939,212.36259699778614 193.07377696178318,216.17745791401734 "/><polyline class="polyline" opacity="0.5" stroke="blue" points="266.5487776877571,213.58526018184514 193.02975112029145,216.7384371944799 "/><polyline class="polyline" opacity="0.5" stroke="blue" points="266.56709055217016,214.79713914616485 192.99277082290112,217.30927842426098 "/><polyline class="polyline" opacity="0.5" stroke="blue" points="266.55451683574483,215.9976704821856 192.96256269727357,217.89017842641758 "/><polyline class="polyline" opacity="0.5" stroke="blue" points="266.51123570197956,217.18630358164634 192.93883315545756,218.48131731821013 "/><polyline class="polyline" opacity="0.5" stroke="blue" points="266.4374428112983,218.36250085319688 192.9212685992107,219.0828578361805 "/><polyline class="polyline" opacity="0.5" stroke="blue" points="266.3333498562687,219.52573791704967 192.90953566182193,219.69494467966322 "/><polyline class="polyline" opacity="0.5" stroke="blue" points="266.1991840894202,220.67550377799782 192.90328148704438,220.3177038745475 "/><polyline class="polyline" opacity="0.5" stroke="blue" points="266.035187844763,221.81130097717013 192.9021340456654,220.95124215912784 "/><polyline class="polyline" opacity="0.5" stroke="blue" points="265.84161805408536,222.93264572293134 192.90570249015488,221.59564639389356 "/><polyline class="polyline" opacity="0.5" stroke="blue" points="265.61874575908206,224.03906800137193 192.91357754773378,222.2509829971124 "/><polyline class="polyline" opacity="0.5" stroke="blue" points="265.36685562034,225.13011166686704 192.9253319521066,222.91729740806076 "/><polyline class="polyline" opacity="0.5" stroke="blue" points="265.0862454241758,226.20533451321165 192.94052091399095,223.5946135797411 "/><polyline class="polyline" opacity="0.5" stroke="blue" points="264.777225588291,227.26430832587 192.95868263046546,224.28293350290807 "/><polyline class="polyline" opacity="0.5" stroke="blue" points="264.44011866717676,228.30661891590012 192.97933883303676,224.98223676319446 "/><polyline class="polyline" opacity="0.5" stroke="blue" points="264.07525885816545,229.33186613613867 193.00199537420286,225.69248013309164 "/><polyline class="polyline" opacity="0.5" stroke="blue" points="263.6829915089919,230.33966388024862 193.02614285216097,226.41359720048905 "/><polyline class="polyline" opacity="0.5" stroke="blue" points="263.263672627689,231.32964006525287 193.05125727317545,227.14549803542246 "/><polyline class="polyline" opacity="0.5" stroke="blue" points="262.8176683956086,232.30143659818728 193.07680075098588,227.8880688966112 "/><polyline class="polyline" opacity="0.5" stroke="blue" points="262.3453546843143,233.25470932752293 193.1022222424963,228.64117197928925 "/><polyline class="polyline" opacity="0.5" stroke="blue" points="261.84711657706197,234.18912798001395 193.12695831884582,229.40464520574824 "/><polyline class="polyline" opacity="0.5" stroke="blue" points="261.32334789553784,235.10437608363668 193.15043397082047,230.17830205991362 "/><polyline class="polyline" opacity="0.5" stroke="blue" points="260.77445073249027,236.0001508772895 193.17206344742274,230.96193146717096 "/><polyline class="polyline" opacity="0.5" stroke="blue" points="260.2008349908483,236.8761632079276 193.19125112627418,231.7552977205433 "/><polyline class="polyline" opacity="0.5" stroke="blue" points="259.60291792988437,237.73213741580605 193.2073924143868,232.55814045419888 "/><polyline class="polyline" opacity="0.5" stroke="blue" points="258.98112371893654,238.5678112085052 193.21987467769992,233.37017466513495 "/><polyline class="polyline" opacity="0.5" stroke="blue" points="258.33588299917005,239.38293552440902 193.22807819764478,234.1910907837458 "/><polyline class="polyline" opacity="0.5" stroke="blue" points="257.6676324538183,240.1772743863016 193.23137715286848,235.02055479383426 "/><polyline class="polyline" opacity="0.5" stroke="blue" points="256.9768143873065,240.95060474574373 193.22914062412175,235.8582084024747 "/><polyline class="polyline" opacity="0.5" stroke="blue" points="256.2638763136242,241.70271631888016 193.22073362019606,236.7036692599737 "/><polyline class="polyline" opacity="0.5" stroke="blue" points="255.52927055427824,242.43341141432302 193.20551812268064,237.5565312300124 "/><polyline class="polyline" opacity="0.5" stroke="blue" points="254.7734538461199,243.14250475374297 193.1828541472051,238.4163647098835 "/><polyline class="polyline" opacity="0.5" stroke="blue" points="253.99688695930897,243.8298232857915 193.15210081873414,239.2827170005649 "/><polyline class="polyline" opacity="0.5" stroke="blue" points="253.20003432564215,244.4952059939626 193.11261745839403,240.1551127261965 "/><polyline class="polyline" opacity="0.5" stroke="blue" points="252.3833636774412,245.13850369899058 193.06376467922968,241.03305430235025 "/><polyline class="polyline" opacity="0.5" stroke="blue" points="251.54734569716618,245.7595788563646 193.00490548822458,241.91602245230615 "/><polyline class="polyline" opacity="0.5" stroke="blue" points="250.69245367788773,246.35830534952737 192.9354063918582,242.8034767703718 "/><polyline class="polyline" opacity="0.5" stroke="blue" points="249.8191631947248,246.93456827930703 192.85463850242976,243.694856331106 "/><polyline class="polyline" opacity="0.5" stroke="blue" points="248.92795178732598,247.4882637501177 192.76197864234535,244.58958034313656 "/><polyline class="polyline" opacity="0.5" stroke="blue" points="248.01929865344496,248.01929865344496 192.65681044354324,245.48704884609245 "/><polyline class="polyline" opacity="0.5" stroke="blue" points="247.09368435363862,248.52759044911554 192.5385254392266,246.3866434490073 "/><polyline class="polyline" opacity="0.5" stroke="blue" points="246.15159052708714,249.0130669448347 192.406524145077,247.28772810839308 "/><polyline class="polyline" opacity="0.5" stroke="blue" points="245.19349961851935,249.47566607445324 192.26021712714183,248.18964994403044 "/><polyline class="polyline" opacity="0.5" stroke="blue" points="244.2198946161975,249.91533567541194 192.0990260536205,249.09174009038014 "/><polyline class="polyline" opacity="0.5" stroke="blue" points="243.2312588009018,250.33203326578885 191.92238472782083,249.9933145813837 "/><polyline class="polyline" opacity="0.5" stroke="blue" points="242.2280755058313,250.72572582136084 191.7297400996144,250.89367526629758 "/><polyline class="polyline" opacity="0.5" stroke="blue" points="241.21082788732295,251.09638955306798 191.52055325279204,251.7921107540878 "/><polyline class="polyline" opacity="0.5" stroke="blue" points="240.17999870627074,251.44400968525446 191.29430036580536,252.68789738381128 "/><polyline class="polyline" opacity="0.5" stroke="blue" points="239.13607012011397,251.76858023504008 191.05047364347413,253.58030021831487 "/><polyline class="polyline" opacity="0.5" stroke="blue" points="238.07952348524782,252.070103793158 190.78858221735055,254.46857405850642 "/><polyline class="polyline" opacity="0.5" stroke="blue" points="237.0108391696949,252.3485913065777 190.50815301254633,255.3519644753823 "/><polyline class="polyline" opacity="0.5" stroke="blue" points="235.930496375867,252.60406186321302 190.20873157896102,256.229708856945 "/><polyline class="polyline" opacity="0.5" stroke="blue" points="234.8389729732316,252.83654247899955 189.88988288498564,257.10103746710274 "/><polyline class="polyline" opacity="0.5" stroke="blue" points="233.73674534068869,253.0460678876073 189.5511920719047,257.96517451361746 "/><polyline class="polyline" opacity="0.5" stroke="blue" points="232.62428821845583,253.23268033303796 189.19226516737382,258.82133922215496 "/><polyline class="polyline" opacity="0.5" stroke="blue" points="231.50207456924713,253.39642936534054 188.81272975651166,259.6687469134935 "/><polyline class="polyline" opacity="0.5" stroke="blue" points="230.37057544852752,253.5373716396629 188.41223560931303,260.5066100809605 "/><polyline class="polyline" opacity="0.5" stroke="blue" points="229.23025988361493,253.65557071884047 187.9904552632619,261.3341394651995 "/><polyline class="polyline" opacity="0.5" stroke="blue" points="228.08159476139912,253.7510968797096 187.54708456019958,262.1505451234072 "/><polyline class="polyline" opacity="0.5" stroke="blue" points="226.92504472443764,253.82402692331738 187.0818431366817,262.9550374902418 "/><polyline class="polyline" opacity="0.5" stroke="blue" points="225.76107207518828,253.87444398918558 186.59447486723863,263.7468284276654 "/><polyline class="polyline" opacity="0.5" stroke="blue" points="224.59013668813088,253.90243737377386 186.084748260134,264.52513226106834 "/><polyline class="polyline" opacity="0.5" stroke="blue" points="223.41269592953105,253.908102353272 185.5524568053988,265.2891667991117 "/><polyline class="polyline" opacity="0.5" stroke="blue" points="222.229204584593,253.89154001084003 184.99741927509365,266.0381543348267 "/><polyline class="polyline" opacity="0.5" stroke="blue" points="221.04011479174875,253.85285706840216 184.41947997593297,266.7713226256221 "/><polyline class="polyline" opacity="0.5" stroke="blue" points="219.8458759838289,253.7921657230879 183.81850895457356,267.48790584997187 "/><polyline class="polyline" opacity="0.5" stroke="blue" points="218.6469348358605,253.70958348840327 183.1944021560421,268.18714553868267 "/><polyline class="polyline" opacity="0.5" stroke="blue" points="217.4437352192345,253.60523304020387 182.5470815359363,268.868291478779 "/><polyline class="polyline" opacity="0.5" stroke="blue" points="216.23671816198828,253.4792420675307 181.87649512719366,269.53060258818795 "/><polyline class="polyline" opacity="0.5" stroke="blue" points="215.02632181494826,253.3317431283603 181.18261706237195,270.17334775954953 "/><polyline class="polyline" opacity="0.5" stroke="blue" points="213.8129814234772,253.1628735103106 180.46544755252617,270.795806671637 "/><polyline class="polyline" opacity="0.5" stroke="blue" points="212.5971293045739,252.972775096335 179.725012823904,271.3972705670241 "/><polyline class="polyline" opacity="0.5" stroke="blue" points="211.3791948290729,252.76159423542896 178.96136501380516,271.97704299479693 "/><polyline class="polyline" opacity="0.5" stroke="blue" points="210.15960440869583,252.5294816183644 178.17458202706862,272.5344405172692 "/><polyline class="polyline" opacity="0.5" stroke="blue" points="208.93878148770438,252.27659215845955 177.36476735475662,273.0687933798205 "/><polyline class="polyline" opacity="0.5" stroke="blue" points="207.71714653891155,252.00308487738562 176.53204985670268,273.5794461431385 "/><polyline class="polyline" opacity="0.5" stroke="blue" points="206.49511706380594,251.70912279600162 175.6765835096774,274.0657582773075 "/><polyline class="polyline" opacity="0.5" stroke="blue" points="205.27310759655128,251.39487283020654 174.79854712300278,274.52710471734224 "/><polyline class="polyline" opacity="0.5" stroke="blue" points="204.05152971162067,251.06050569178677 173.89814402351027,274.96287637992316 "/><polyline class="polyline" opacity="0.5" stroke="blue" points="202.83079203483243,250.70619579423442 172.9756017117954,275.37248064124213 "/><polyline class="polyline" opacity="0.5" stroke="blue" points="201.61130025755608,250.33212116350478 172.03117149176668,275.7553417760129 "/><polyline class="polyline" opacity="0.5" stroke="blue" points="200.39345715385844,249.93846335367635 171.0651280755199,276.1109013578481 "/><polyline class="polyline" opacity="0.5" stroke="blue" points="199.17766260036544,249.52540736747113 170.07776916559627,276.4386186213396 "/><polyline class="polyline" opacity="0.5" stroke="blue" points="197.96431359861666,249.09314158158912 169.06941501669564,276.73797078631236 "/><polyline class="polyline" opacity="0.5" stroke="blue" points="196.75380429969465,248.6418576768061 168.04040797892458,277.00845334484916 "/><polyline class="polyline" opacity="0.5" stroke="blue" points="195.54652603091185,248.1717505727788 166.99111202465068,277.2495803118003 "/><polyline class="polyline" opacity="0.5" stroke="blue" points="194.34286732434353,247.68301836749816 165.92191226102744,277.46088443960656 "/><polyline class="polyline" opacity="0.5" stroke="blue" points="193.143213946997,247.1758622813283 164.833214430228,277.64191739836883 "/><polyline class="polyline" opacity="0.5" stroke="blue" points="191.94794893241226,246.65048660556346 163.7254443994015,277.79224992219355 "/><polyline class="polyline" opacity="0.5" stroke="blue" points="190.75745261348936,246.10709865543345 162.59904764232522,277.91147192293454 "/><polyline class="polyline" opacity="0.5" stroke="blue" points="189.57210265634458,245.54590872748375 161.45448871468528,277.99919257253237 "/><polyline class="polyline" opacity="0.5" stroke="blue" points="188.39227409499765,244.96713006125435 160.29225072486668,278.0550403552285 "/><polyline class="polyline" opacity="0.5" stroke="blue" points="187.21833936669813,244.3709788051775 159.11283480207956,278.07866309099495 "/><polyline class="polyline" opacity="0.5" stroke="blue" points="186.05066834769866,243.75767398661228 157.91675956358432,278.06972793158116 "/><polyline class="polyline" opacity="0.5" stroke="blue" points="184.88962838928848,243.12743748593115 156.70456058271367,278.02792133063065 "/><polyline class="polyline" opacity="0.5" stroke="blue" points="183.7355843539031,242.48049401457166 155.47678985932046,277.9529489893613 "/><polyline class="polyline" opacity="0.5" stroke="blue" points="182.58889865112704,241.8170710969622 154.23401529420116,277.84453577934056 "/><polyline class="polyline" opacity="0.5" stroke="blue" points="181.44993127341095,241.1373990562306 152.97682016897193,277.70242564391754 "/><polyline class="polyline" opacity="0.5" stroke="blue" points="180.31903983132628,240.44171100360046 151.70580263278913,277.52638147989194 "/><polyline class="polyline" opacity="0.5" stroke="blue" points="179.19657958818433,239.73024283137843 150.421575197228,277.31618500101916 "/><polyline class="polyline" opacity="0.5" stroke="blue" points="178.08290349384612,239.00323320943312 149.12476424054202,277.0716365849578 "/><polyline class="polyline" opacity="0.5" stroke="blue" points="176.97836221755534,238.26092358506443 147.8160095224453,276.7925551052693 "/><polyline class="polyline" opacity="0.5" stroke="blue" points="175.88330417962615,237.50355818615935 146.495963710468,276.47877775007845 "/><polyline class="polyline" opacity="0.5" stroke="blue" points="174.798075581822,236.73138402752954 145.16529191885132,276.1301598289924 "/><polyline class="polyline" opacity="0.5" stroke="blue" points="173.72302043626098,235.94465092032092 143.8246712608558,275.746574569867 "/><polyline class="polyline" opacity="0.5" stroke="blue" points="172.65848059268856,235.14361148438695 142.47479041527168,275.32791290698833 "/><polyline class="polyline" opacity="0.5" stroke="blue" points="171.6047957639565,234.32852116351168 141.11634920783152,274.87408326221777 "/><polyline class="polyline" opacity="0.5" stroke="blue" points="170.56230354955375,233.49963824336942 139.7500582081388,274.385011320622 "/><polyline class="polyline" opacity="0.5" stroke="blue" points="169.53133945703084,232.65722387210252 138.376638342638,273.8606398020811 "/><polyline class="polyline" opacity="0.5" stroke="blue" points="168.51223692116568,231.80154208339877 136.99682052406945,273.30092823033374 "/><polyline class="polyline" opacity="0.5" stroke="blue" points="167.5053273207194,230.93285982194718 135.61134529776882,272.7058527008866 "/><polyline class="polyline" opacity="0.5" stroke="blue" points="166.51093999262974,230.05144697114673 134.22096250508554,272.07540564917116 "/><polyline class="polyline" opacity="0.5" stroke="blue" points="165.52940224349507,229.15757638294235 132.82643096411948,271.4095956202981 "/><polyline class="polyline" opacity="0.5" stroke="blue" points="164.5610393582001,228.2515239096581 131.4285181678929,270.70844704171066 "/><polyline class="polyline" opacity="0.5" stroke="blue" points="163.60617460553922,227.3335684376965 130.028,269.972 "/><polyline class="polyline" opacity="0.5" stroke="blue" points="162.66512924069127,226.40399192296823 128.625660467702,269.2003100230954 "/><polyline class="polyline" opacity="0.5" stroke="blue" points="161.73822250440378,225.46307942791472 127.22229145236183,268.3934478689993 "/><polyline class="polyline" opacity="0.5" stroke="blue" points="160.82577161874522,224.51111915998314 125.81869247704405,267.5514993221879 "/><polyline class="polyline" opacity="0.5" stroke="blue" points="159.9280917792857,223.54840251141084 124.41567049103642,266.6745649987512 "/><polyline class="polyline" opacity="0.5" stroke="blue" points="159.04549614356634,222.57522410017071 123.01403967098246,265.7627601612952 "/><polyline class="polyline" opacity="0.5" stroke="blue" points="158.17829581572255,221.5918818119289 121.61462123825106,264.81621454458383 "/><polyline class="polyline" opacity="0.5" stroke="blue" points="157.32679982712375,220.59867684286027 120.21824329210646,263.8350721928434 "/><polyline class="polyline" opacity="0.5" stroke="blue" points="156.49131511289835,219.59591374316597 118.82574065818255,262.8194913096103 "/><polyline class="polyline" opacity="0.5" stroke="blue" points="155.6721464842104,218.58390046113126 117.43795475170329,261.7696441209452 "/><polyline class="polyline" opacity="0.5" stroke="blue" points="154.86959659615863,217.5629483875599 116.05573345483839,260.68571675279344 "/><polyline class="polyline" opacity="0.5" stroke="blue" points="154.08396591117042,216.53337240041807 114.67993100752561,259.56790912322106 "/><polyline class="polyline" opacity="0.5" stroke="blue" points="153.31555265776456,215.49549090951425 113.31140791103662,258.41643485020484 "/><polyline class="polyline" opacity="0.5" stroke="blue" points="152.5646527845585,214.4496259010411 111.95103084351284,257.2315211756078 "/><polyline class="polyline" opacity="0.5" stroke="blue" points="151.8315599094003,213.39610298179804 110.59967258664356,256.01340890592377 "/><polyline class="polyline" opacity="0.5" stroke="blue" points="151.11656526350586,212.33525142291228 109.25821196261293,254.76235237032577 "/><polyline class="polyline" opacity="0.5" stroke="blue" points="150.41995763048521,211.2674042028683 107.92753378038722,253.47861939650292 "/><polyline class="polyline" opacity="0.5" stroke="blue" points="149.7420232801463,210.19289804965496 106.60852879037093,252.16249130472792 "/><polyline class="polyline" opacity="0.5" stroke="blue" points="149.0830458969648,209.11207348183225 105.30209364640956,250.8142629205437 "/><polyline class="polyline" opacity="0.5" stroke="blue" points="148.443306503116,208.02527484831825 104.00913087407204,249.43424260641552 "/><polyline class="polyline" opacity="0.5" stroke="blue" points="147.82308337596407,206.93285036668894 102.73054884409636,248.0227523126431 "/><polyline class="polyline" opacity="0.5" stroke="blue" points="147.22265195991216,205.83515215978198 101.46726174984032,246.5801276477821 "/><polyline class="polyline" opacity="0.5" stroke="blue" points="146.6422847725174,204.7325362903896 100.220189587529,245.10671796877486 "/><polyline class="polyline" opacity="0.5" stroke="blue" points="146.0822513047832,203.62536279382238 98.99025813804869,243.60288649094514 "/><polyline class="polyline" opacity="0.5" stroke="blue" points="145.5428179155432,202.51399570811958 97.77839894898943,242.06901041795632 "/><polyline class="polyline" opacity="0.5" stroke="blue" points="145.02424771985733,201.3988031016783 96.58554931559311,240.50548109178968 "/><polyline class="polyline" opacity="0.5" stroke="blue" points="144.52680047134822,200.28015709807082 95.41265225922014,238.9127041627465 "/><polyline class="polyline" opacity="0.5" stroke="blue" points="144.05073243840928,199.15843389781125 94.26065650189955,237.29109977942338 "/><polyline class="polyline" opacity="0.5" stroke="blue" points="143.59629627422416,198.0340137968326 93.13051643548403,235.64110279856305 "/><polyline class="polyline" opacity="0.5" stroke="blue" points="143.16374088054448,196.9072812014283 92.02319208388387,233.96316301462363 "/><polyline class="polyline" opacity="0.5" stroke="blue" points="142.7533112651791,195.77862463941054 90.939649056809,232.2577454088588 "/><polyline class="polyline" opacity="0.5" stroke="blue" points="142.365248393157,194.64843676723098 89.88085849340082,230.52533041763866 "/><polyline class="polyline" opacity="0.5" stroke="blue" points="141.99978903153425,193.5171143728092 88.84779699409057,228.7664142196857 "/><polyline class="polyline" opacity="0.5" stroke="blue" points="141.6571655878239,192.38505837380757 87.84144653897235,226.9815090418371 "/><polyline class="polyline" opacity="0.5" stroke="blue" points="141.337605942038,191.25267381109097 86.86279439093718,225.17114348288212 "/><polyline class="polyline" opacity="0.5" stroke="blue" points="141.04133327234146,190.12036983710416 85.9128329817621,223.3358628549528 "/><polyline class="polyline" opacity="0.5" stroke="blue" points="140.76856587432482,188.98855969889814 84.99255977930724,221.47622954188182 "/><polyline class="polyline" opacity="0.5" stroke="blue" points="140.5195169739203,187.85766071553593 84.10297713392796,219.59282337386668 "/><polyline class="polyline" opacity="0.5" stroke="blue" points="140.29439453399075,186.72809424960275 83.24509210216131,217.6862420177019 "/><polyline class="polyline" opacity="0.5" stroke="blue" points="140.0934010546384,185.6002856725477 82.41991624570637,215.7571013817652 "/><polyline class="polyline" opacity="0.5" stroke="blue" points="139.91673336729076,184.47466432357973 81.62846540367275,213.80603603485795 "/><polyline class="polyline" opacity="0.5" stroke="blue" points="139.76458242263607,183.35166346184354 80.87175943603265,211.8336996379173 "/><polyline class="polyline" opacity="0.5" stroke="blue" points="139.63713307249412,182.23172021159664 80.15082193616989,209.84076538752169 "/><polyline class="polyline" opacity="0.5" stroke="blue" points="139.5345638457236,181.11527550011266 79.46667991038588,207.8279264700223 "/><polyline class="polyline" opacity="0.5" stroke="blue" points="139.45704671828304,180.00277398803513 78.82036342218647,205.7958965250299 "/><polyline class="polyline" opacity="0.5" stroke="blue" points="139.40474687757813,178.89466399190914 78.21290519914199,203.7454101168883 "/><polyline class="polyline" opacity="0.5" stroke="blue" points="139.37782248124523,177.79139739861773 77.6453402000882,201.67722321265182 "/><polyline class="polyline" opacity="0.5" stroke="blue" points="139.37642441053822,176.69342957145588 77.11870514040973,199.59211366497817 "/><polyline class="polyline" opacity="0.5" stroke="blue" points="139.40069601850496,175.60121924757672 76.6340379731324,197.49088169822815 "/><polyline class="polyline" opacity="0.5" stroke="blue" points="139.45077287315667,174.51522842655072 76.1923773235362,195.37435039594567 "/><polyline class="polyline" opacity="0.5" stroke="blue" points="139.52678249585415,173.4359222497814 75.7947618749967,193.24336618776198 "/><polyline class="polyline" opacity="0.5" stroke="blue" points="139.62884409515436,172.3637688705299 75.4422297037601,191.0987993336433 "/><polyline class="polyline" opacity="0.5" stroke="blue" points="139.75706829638102,171.29923931430727 75.13581756037158,188.94154440326588 "/><polyline class="polyline" opacity="0.5" stroke="blue" points="139.91155686720407,170.24280732939985 74.87656009548695,186.7725207481625 "/><polyline class="polyline" opacity="0.5" stroke="blue" points="140.09240243953474,169.19494922730428 74.66548902783197,184.59267296414737 "/><polyline class="polyline" opacity="0.5" stroke="blue" points="140.2996882280636,168.15614371285739 74.50363225210555,182.40297134137865 "/><polyline class="polyline" opacity="0.5" stroke="blue" points="140.5334877457928,167.12687170385877 74.39201288467665,180.2044122992744 "/><polyline class="polyline" opacity="0.5" stroke="blue" points="140.79386451693583,166.10761613999438 74.33164824498432,177.99801880334223 "/><polyline class="polyline" opacity="0.5" stroke="blue" points="141.08087178758055,165.09886178088453 74.32354877062797,175.78484076083808 "/><polyline class="polyline" opacity="0.5" stroke="blue" points="141.39455223453552,164.101094993093 74.36871686422278,173.56595539201064 "/><polyline class="polyline" opacity="0.5" stroke="blue" points="141.7349376728024,163.1148035259523 74.46814567020577,171.34246757354185 "/><polyline class="polyline" opacity="0.5" stroke="blue" points="142.10204876214172,162.1404762760728 74.62281777989834,169.11551015063225 "/><polyline class="polyline" opacity="0.5" stroke="blue" points="142.49589471322187,161.1786030404266 74.83370386327518,166.8862442140374 "/><polyline class="polyline" opacity="0.5" stroke="blue" points="142.91647299386582,160.22967425791282 75.10176122604899,164.65585933820495 "/><polyline class="polyline" opacity="0.5" stroke="blue" points="143.3637690359335,159.29418073933522 75.42793229086627,162.42557377652457 "/><polyline class="polyline" opacity="0.5" stroke="blue" points="143.83775594340096,158.37261338574137 75.81314300160793,160.19663460955204 "/><polyline class="polyline" opacity="0.5" stroke="blue" points="144.33839420222125,157.46546289509936 76.25830115002097,157.97031784194292 "/><polyline class="polyline" opacity="0.5" stroke="blue" points="144.86563139257362,156.57321945731175 76.76429462415327,155.74792844370194 "/><polyline class="polyline" opacity="0.5" stroke="blue" points="145.41940190413226,155.69637243759158 77.33198957834266,153.53080033123248 "/><polyline class="polyline" opacity="0.5" stroke="blue" points="145.99962665500482,154.83541004825386 77.96222852481027,151.3202962835695 "/><polyline class="polyline" opacity="0.5" stroke="blue" points="146.6062128150147,153.99081900900373 78.65582834723833,149.1178077890815 "/><polyline class="polyline" opacity="0.5" stroke="blue" points="147.23905353401983,153.1630841958332 79.41357823706548,146.92475481785283 "/><polyline class="polyline" opacity="0.5" stroke="blue" points="147.89802767598115,152.35268827866807 80.23623755361898,144.74258551488748 "/><polyline class="polyline" opacity="0.5" stroke="blue" points="148.58299955951165,151.56011134794034 81.12453360961065,142.5727758092417 "/><polyline class="polyline" opacity="0.5" stroke="blue" points="149.2938187056555,150.78583053029288 82.07915938396799,140.4168289341643 "/><polyline class="polyline" opacity="0.5" stroke="blue" points="150.03031959366038,150.03031959366038 83.10077116443489,138.27627485333008 "/><polyline class="polyline" opacity="0.5" stroke="blue" points="150.79232142552462,149.29404854200234 84.18998612287747,136.15266958827533 "/><polyline class="polyline" opacity="0.5" stroke="blue" points="151.57962790010927,148.57748320000238 85.34737982675142,134.047594442204 "/><polyline class="polyline" opacity="0.5" stroke="blue" points="152.39202699762117,147.88108478808587 86.5734836907402,131.96265511542026 "/><polyline class="polyline" opacity="0.5" stroke="blue" points="153.22929077527857,147.20530948814346 87.86878237314608,129.89948070776364 "/><polyline class="polyline" opacity="0.5" stroke="blue" points="154.09117517498217,146.55060800038814 89.2337111222218,127.85972260357792 "/><polyline class="polyline" opacity="0.5" stroke="blue" points="154.977419843818,145.91742509181228 90.66865307824958,125.84505323494305 "/><polyline class="polyline" opacity="0.5" stroke="blue" points="155.88774796822122,145.30619913675076 92.17393653781494,123.8571647191353 "/><polyline class="polyline" opacity="0.5" stroke="blue" points="156.82186612263416,144.7173616500949 93.74983218738937,121.89776736655571 "/><polyline class="polyline" opacity="0.5" stroke="blue" points="157.7794641334869,144.15133681374346 95.39655031400112,119.96858805569619 "/><polyline class="polyline" opacity="0.5" stroke="blue" points="158.76021495932753,143.60854099691562 97.11423800146501,118.07136847207795 "/><polyline class="polyline" opacity="0.5" stroke="blue" points="159.76377458792,143.08938227099173 98.90297632132636,116.20786320852392 "/><polyline class="polyline" opacity="0.5" stroke="blue" points="160.78978195112126,142.59425991958568 100.7627775283719,114.37983772458547 "/><polyline class="polyline" opacity="0.5" stroke="blue" points="161.83785885833285,142.12356394459354 102.69358227124499,112.58906616347515 "/><polyline class="polyline" opacity="0.5" stroke="blue" points="162.90760994931162,141.67767456899975 104.69525682938674,110.83732902542233 "/><polyline class="polyline" opacity="0.5" stroke="blue" points="163.9986226671,141.25696173726197 106.76759038818341,109.12641069699609 "/><polyline class="polyline" opacity="0.5" stroke="blue" points="165.11046725182067,140.86178461412942 108.91029236485326,107.45809683661408 "/><polyline class="polyline" opacity="0.5" stroke="blue" points="166.24269675605052,140.49249108278772 111.12298979821385,105.8341716171858 "/><polyline class="polyline" opacity="0.5" stroke="blue" points="167.39484708246405,140.14941724325504 113.40522481605421,104.2564148276124 "/><polyline class="polyline" opacity="0.5" stroke="blue" points="168.56643704440225,139.83288691198942 115.75645219437192,102.72659883569612 "/><polyline class="polyline" opacity="0.5" stroke="blue" points="169.75696844999078,139.54321112369385 118.17603702322246,101.24648541587588 "/><polyline class="polyline" opacity="0.5" stroke="blue" points="170.96592621039161,139.28068763633917 120.66325249435417,99.81782244612563 "/><polyline class="polyline" opacity="0.5" stroke="blue" points="172.19277847272951,139.0456004404469 123.21727782615437,98.44234047929947 "/><polyline class="polyline" opacity="0.5" stroke="blue" points="173.43697677819375,138.83821927370184 125.83719634172633,97.12174919519411 "/><polyline class="polyline" opacity="0.5" stroke="blue" points="174.69795624576298,138.65879914198254 128.52199371610246,95.8577337406123 "/><polyline class="polyline" opacity="0.5" stroke="blue" points="175.9751357819538,138.50757984791989 131.27055640871194,94.6519509657477 "/><polyline class="polyline" opacity="0.5" stroke="blue" points="177.2679183169347,138.38478552810642 134.08167029721722,93.50602556626121 "/><polyline class="polyline" opacity="0.5" stroke="blue" points="178.57569106729505,138.29062420009473 136.95401952873792,92.42154614147715 "/><polyline class="polyline" opacity="0.5" stroke="blue" points="179.8978258256938,138.22528732033004 139.88618560424987,91.40006118018577 "/><polyline class="polyline" opacity="0.5" stroke="blue" points="181.23367927755172,138.1889493541697 142.876646711612,90.44307498658488 "/><polyline class="polyline" opacity="0.5" stroke="blue" points="182.582593344884,138.18176735914412 145.92377732219185,89.55204355992201 "/><polyline class="polyline" opacity="0.5" stroke="blue" points="183.94389555730402,138.20388058261085 149.02584806546682,88.7283704423941 "/><polyline class="polyline" opacity="0.5" stroke="blue" points="185.3168994501563,138.25541007495036 152.1810258952268,87.97340255081969 "/><polyline class="polyline" opacity="0.5" stroke="blue" points="186.7009049896643,138.33645831944006 155.38737456012103,87.28842600850368 "/><polyline class="polyline" opacity="0.5" stroke="blue" points="188.09519902490723,138.4471088799316 158.64285539027574,86.67466199455329 "/><polyline class="polyline" opacity="0.5" stroke="blue" points="189.499055766361,138.5874260674375 161.94532841053444,86.13326262867342 "/><polyline class="polyline" opacity="0.5" stroke="blue" points="190.91173729066338,138.75745462671108 165.29255378957373,85.665306910148 "/><polyline class="polyline" opacity="0.5" stroke="blue" points="192.33249407118376,138.95721944387807 168.68219363269932,85.27179673029713 "/><polyline class="polyline" opacity="0.5" stroke="blue" points="193.76056553390208,139.18672527614683 172.11181412456102,84.95365297817143 "/><polyline class="polyline" opacity="0.5" stroke="blue" points="195.19518063801925,139.44595650458984 175.5788880263182,84.71171175960421 "/><polyline class="polyline" opacity="0.5" stroke="blue" points="196.63555848064468,139.73487691094908 179.08079752997844,84.54672074996124 "/><polyline class="polyline" opacity="0.5" stroke="blue" points="198.08090892482542,140.0534294793751 182.61483747070142,84.45933570102035 "/><polyline class="polyline" opacity="0.5" stroke="blue" points="199.53043325010663,140.40153622396167 186.1782188958561,84.45011712235248 "/><polyline class="polyline" opacity="0.5" stroke="blue" points="200.9833248247325,140.77909804288623 189.76807298750984,84.51952715736266 "/><polyline class="polyline" opacity="0.5" stroke="blue" points="202.43876979852413,141.18599459991032 193.38145533287624,84.66792667378205 "/><polyline class="polyline" opacity="0.5" stroke="blue" points="203.8959478153925,141.62208423393542 197.01535053502934,84.89557258786857 "/><polyline class="polyline" opacity="0.5" stroke="blue" points="205.35403274437908,142.0872038972458 200.66667715396446,85.20261544087533 "/><polyline class="polyline" opacity="0.5" stroke="blue" points="206.81219342804135,142.5811691230042 204.332292965828,85.58909724548865 "/><polyline class="polyline" opacity="0.5" stroke="blue" points="208.26959444693537,143.10377402249537 208.0090005259002,86.05494961890518 "/><polyline class="polyline" opacity="0.5" stroke="blue" points="209.72539689888688,143.65479131254057 211.69355301871948,86.5999922180387 "/><polyline class="polyline" opacity="0.5" stroke="blue" points="211.1787591916778,144.23397237343065 215.3826603765724,87.22393149100047 "/><polyline class="polyline" opacity="0.5" stroke="blue" points="212.62883784772268,144.84104733764667 219.07299564551113,87.92635975751062 "/><polyline class="polyline" opacity="0.5" stroke="blue" points="214.07478831925337,145.47572520955723 222.76120157607164,88.70675462927021 "/><polyline class="polyline" opacity="0.5" stroke="blue" points="215.5157658124877,146.13769401620058 226.4438974140254,89.56447877956772 "/><polyline class="polyline" opacity="0.5" stroke="blue" points="216.95092611920964,146.82662098917427 230.11768586477038,90.49878006952461 "/><polyline class="polyline" opacity="0.5" stroke="blue" points="218.37942645415424,147.54215277757277 233.77916020342565,91.50879203641682 "/><polyline class="polyline" opacity="0.5" stroke="blue" points="219.80042629655426,148.2839156918253 237.42491150131295,92.59353474745326 "/><polyline class="polyline" opacity="0.5" stroke="blue" points="221.21308823418224,149.0515159782036 241.05153593834757,93.75191602028026 "/><polyline class="polyline" opacity="0.5" stroke="blue" points="222.61657880819553,149.8445401236793 244.65564216988852,94.98273300931088 "/><polyline class="polyline" opacity="0.5" stroke="blue" points="224.01006935707898,150.66255519072945 248.23385871587323,96.28467415479105 "/><polyline class="polyline" opacity="0.5" stroke="blue" points="225.39273685796636,151.50510918159893 251.7828413395556,97.6563214893148 "/><polyline class="polyline" opacity="0.5" stroke="blue" points="226.7637647636215,152.37173143144918 255.299280382925,99.09615329432127 "/><polyline class="polyline" opacity="0.5" stroke="blue" points="228.1223438333588,153.26193302973638 258.77990802587254,100.60254709695806 "/><polyline class="polyline" opacity="0.5" stroke="blue" points="229.4676729561899,154.17520726908384 262.2215054364216,102.1737829956061 "/><polyline class="polyline" opacity="0.5" stroke="blue" points="230.7989599645016,155.11103012083382 265.620909779852,103.80804730035116 "/><polyline class="polyline" opacity="0.5" stroke="blue" points="232.1154224365849,156.06886073638842 268.97502105528656,105.50343647277076 "/><polyline class="polyline" opacity="0.5" stroke="blue" points="233.4162884863652,157.04814197337652 272.2808087293116,107.25796134760802 "/><polyline class="polyline" opacity="0.5" stroke="blue" points="234.7007975387115,158.04830094561157 275.53531813742455,109.06955161723471 "/><polyline class="polyline" opacity="0.5" stroke="blue" points="235.96820108874513,159.06874959574282 278.73567662555615,110.93606055829423 "/><polyline class="polyline" opacity="0.5" stroke="blue" points="237.21776344360708,160.10888528943562 281.879099405565,112.85526997855753 "/><polyline class="polyline" opacity="0.5" stroke="blue" points="238.44876244519486,161.16809142986187 284.96289510045233,114.82489536084725 "/><polyline class="polyline" opacity="0.5" stroke="blue" points="239.66049017243103,162.24573809122353 287.9844709570542,116.8425911798922 "/><polyline class="polyline" opacity="0.5" stroke="blue" points="240.85225362168833,163.34118266998775 290.9413377061464,118.90595636717427 "/><polyline class="polyline" opacity="0.5" stroke="blue" points="242.02337536405528,164.45377055246237 293.83111405218074,121.01253989822528 "/><polyline class="polyline" opacity="0.5" stroke="blue" points="243.17319417819817,165.58283579730485 296.65153077727973,123.1598464764325 "/><polyline class="polyline" opacity="0.5" stroke="blue" points="244.30106565764407,166.72770183151994 299.40043444658795,125.34534228720827 "/></svg>
