<?xml version="1.0" encoding="UTF-8"?>
<!DOCTYPE svg PUBLIC "-//W3C//DTD SVG 1.1//EN"
    "http://www.w3.org/Graphics/SVG/1.1/DTD/svg11.dtd"><svg width="400" height="400" stroke="black" fill="none" fill-opacity="0.75" font-size="14" font-style="italic" font-family="sans-serif" xmlns="http://www.w3.org/2000/svg" xmlns:xlink="http://www.w3.org/1999/xlink" version="1.1"><filter id="blur1"><feGaussianBlur stdDeviation="0.5"/></filter><rect width="100%" height="100%" fill="white" stroke="none" fill-opacity="1"/><rect class="bg" fill="black" width="100%" height="100%" stroke="none" fill-opacity="1"/><polyline class="polyline" opacity="0.5" stroke="blue" points="251.85024451478216,174.7240169043615 315.70587047824154,143.1536885872148 "/><polyline class="polyline" opacity="0.5" stroke="blue" points="252.84240344996022,175.85088962803667 317.9092036947068,145.2158929636576 "/><polyline class="polyline" opacity="0.5" stroke="blue" points="253.80686197725566,176.9869121847048 320.0251490862863,147.2948756285175 "/><polyline class="polyline" opacity="0.5" stroke="blue" points="254.7431642503367,178.13140588318834 322.0528206884235,149.38826201450127 "/><polyline class="polyline" opacity="0.5" stroke="blue" points="255.65087719780047,179.28369037876854 323.9914670351253,151.49369789459968 "/><polyline class="polyline" opacity="0.5" stroke="blue" points="256.52959070092845,180.44308434892204 325.8404694329595,153.60885369171626 "/><polyline class="polyline" opacity="0.5" stroke="blue" points="257.378917736472,181.6089061603919 327.5993398881291,155.73142857982793 "/><polyline class="polyline" opacity="0.5" stroke="blue" points="258.19849448480613,182.78047452640632 329.2677187082511,157.85915436705955 "/><polyline class="polyline" opacity="0.5" stroke="blue" points="258.98798040387965,183.95710915291045 330.8453718013681,159.98979915269507 "/><polyline class="polyline" opacity="0.5" stroke="blue" points="259.7470582694677,185.13813137272916 332.33218769543873,162.1211707517591 "/><polyline class="polyline" opacity="0.5" stroke="blue" points="260.4754341823188,186.32286476663504 333.72817430204907,164.25111988238584 "/><polyline class="polyline" opacity="0.5" stroke="blue" points="261.1728375428573,187.510635770353 335.0334554484044,166.37754311272286 "/><polyline class="polyline" opacity="0.5" stroke="blue" points="261.83902099417935,188.70077426659364 336.2482672017811,168.49838556559615 "/><polyline class="polyline" opacity="0.5" stroke="blue" points="262.473760334144,189.89261416126817 337.3729540105735,170.61164338056798 "/><polyline class="polyline" opacity="0.5" stroke="blue" points="263.0768543974246,191.08549394310077 338.40796468584756,172.7153659343556 "/><polyline class="polyline" opacity="0.5" stroke="blue" points="263.6481249084436,192.27875722591756 339.353848246953,174.80765782182783 "/><polyline class="polyline" opacity="0.5" stroke="blue" points="264.187416306168,193.47175327295568 340.21124965422916,176.88668060096182 "/><polyline class="polyline" opacity="0.5" stroke="blue" points="264.6945955417882,194.6638375026006 340.980905451212,178.95065430621295 "/><polyline class="polyline" opacity="0.5" stroke="blue" points="265.16955185035033,195.85437197502412 341.66363933799744,180.99785873572884 "/><polyline class="polyline" opacity="0.5" stroke="blue" points="265.6121964974474,197.04272585926088 342.2603576965713,183.0266345187189 "/><polyline class="polyline" opacity="0.5" stroke="blue" points="266.0224625021108,198.22827588032382 342.77204508798377,185.03538397007407 "/><polyline class="polyline" opacity="0.5" stroke="blue" points="266.4003043370699,199.4104067460234 343.19975974024476,187.022571740018 "/><polyline class="polyline" opacity="0.5" stroke="blue" points="266.7456976075755,200.58851155321784 343.5446290447524,188.98672526716308 "/><polyline class="polyline" opacity="0.5" stroke="blue" points="267.0586387099978,201.76199217328184 343.8078450779633,190.92643504384148 "/><polyline class="polyline" opacity="0.5" stroke="blue" points="267.33914447142837,202.9302596166421 343.9906601638703,192.84035470298943 "/><polyline class="polyline" opacity="0.5" stroke="blue" points="267.5872517715218,204.09273437628593 344.09438249169546,194.72720093618355 "/><polyline class="polyline" opacity="0.5" stroke="blue" points="267.803017147824,205.2488467502056 344.1203718020315,196.58575325266563 "/><polyline class="polyline" opacity="0.5" stroke="blue" points="267.9865163858295,206.39803714279572 344.07003515349345,198.41485358935205 "/><polyline class="polyline" opacity="0.5" stroke="blue" points="268.13784409501307,207.53975634527444 343.94482278077646,200.21340578191 "/><polyline class="polyline" opacity="0.5" stroke="blue" points="268.2571132720719,208.67346579524838 343.74622405387134,201.98037490700048 "/><polyline class="polyline" opacity="0.5" stroke="blue" points="268.3444548526045,209.7986378155903 343.47576354706166,203.7147865057434 "/><polyline class="polyline" opacity="0.5" stroke="blue" points="268.40001725244167,210.91475583284466 343.1349972252366,205.4157256983582 "/><polyline class="polyline" opacity="0.5" stroke="blue" points="268.4239658998245,212.02131457541827 342.72550875399673,207.08233619977764 "/><polyline class="polyline" opacity="0.5" stroke="blue" points="268.41648275960716,213.11782025185582 342.24890593901296,208.71381924583372 "/><polyline class="polyline" opacity="0.5" stroke="blue" points="268.37776585063887,214.20379070953715 341.7068172991302,210.30943243937134 "/><polyline class="polyline" opacity="0.5" stroke="blue" points="268.3080287574533,215.27875557416942 341.1008887767845,211.86848852536818 "/><polyline class="polyline" opacity="0.5" stroke="blue" points="268.20750013736733,216.34225637048044 340.43278058843276,213.39035410383164 "/><polyline class="polyline" opacity="0.5" stroke="blue" points="268.07642322405843,217.39384662454998 339.7041642168732,214.87444828890776 "/><polyline class="polyline" opacity="0.5" stroke="blue" points="267.91505532866216,218.43309194824343 338.91671954657227,216.32024132228347 "/><polyline class="polyline" opacity="0.5" stroke="blue" points="267.72366733939236,219.4595701062384 338.072132142403,217.7272531485894 "/><polyline class="polyline" opacity="0.5" stroke="blue" points="267.5025432206551,220.4728710661564 337.1720906715456,219.09505196012614 "/><polyline class="polyline" opacity="0.5" stroke="blue" points="267.25197951258986,221.472597032333 336.2182844676952,220.42325271784244 "/><polyline class="polyline" opacity="0.5" stroke="blue" points="266.9722848319308,222.4583624637775 335.2124012361807,221.71151565509368 "/><polyline class="polyline" opacity="0.5" stroke="blue" points="266.66377937504666,223.42979407688762 334.15612489809666,222.959544770307 "/><polyline class="polyline" opacity="0.5" stroke="blue" points="266.3267944239741,224.38653083349908 333.0511335711087,224.16708631427784 "/><polyline class="polyline" opacity="0.5" stroke="blue" points="265.96167185622176,225.32822391485985 331.89909768419625,225.33392727742438 "/><polyline class="polyline" opacity="0.5" stroke="blue" points="265.568763659079,226.2545366821271 330.70167822324566,226.4598938819326 "/><polyline class="polyline" opacity="0.5" stroke="blue" points="265.14843144912635,227.16514462399243 329.4605251041064,227.5448500833399 "/><polyline class="polyline" opacity="0.5" stroke="blue" points="264.70104599759856,228.05973529204408 328.1772756694581,228.588696085729 "/><polyline class="polyline" opacity="0.5" stroke="blue" points="264.22698676221506,228.93800822447812 326.85355330561754,229.5913668743376 "/><polyline class="polyline" opacity="0.5" stroke="blue" points="263.7266414260489,229.79967485877108 325.4909661752297,230.55283076903652 "/><polyline class="polyline" opacity="0.5" stroke="blue" points="263.20040544396585,230.6444584339248 324.09110606164154,231.473088001788 "/><polyline class="polyline" opacity="0.5" stroke="blue" points="262.6486815971256,231.47209388289224 322.6555473206399,232.35216932087005 "/><polyline class="polyline" opacity="0.5" stroke="blue" points="262.07187955599704,232.2823277157887 321.18584593515203,233.19013462434057 "/><polyline class="polyline" opacity="0.5" stroke="blue" points="261.47041545230195,233.0749178944858 319.6835386684497,233.98707162491698 "/><polyline class="polyline" opacity="0.5" stroke="blue" points="260.8447114602628,233.84963369918054 318.1501423113698,234.74309454816787 "/><polyline class="polyline" opacity="0.5" stroke="blue" points="260.1951953874929,234.60625558752173 316.58715301905113,235.45834286564454 "/><polyline class="polyline" opacity="0.5" stroke="blue" points="259.52230027583306,235.34457504686733 314.9960457327084,236.1329800643312 "/><polyline class="polyline" opacity="0.5" stroke="blue" points="258.826464012401,236.0643944402355 313.37827368198987,236.76719245355767 "/><polyline class="polyline" opacity="0.5" stroke="blue" points="258.1081289510887,236.76552684650113 311.73526796351854,237.36118801029704 "/><polyline class="polyline" opacity="0.5" stroke="blue" points="257.3677415447077,237.44779589537623 310.06843719127994,237.9151952635678 "/><polyline class="polyline" opacity="0.5" stroke="blue" points="256.6057519879516,238.11103559770078 308.3791672145964,238.4294622184677 "/><polyline class="polyline" opacity="0.5" stroke="blue" points="255.82261387131535,238.75509017155605 306.6688208995172,238.904255320193 "/><polyline class="polyline" opacity="0.5" stroke="blue" points="255.0187838460796,239.37981386469784 304.9387379695513,239.33985845823102 "/><polyline class="polyline" opacity="0.5" stroke="blue" points="254.1947213004422,239.9850707737931 303.19023490177705,239.73657201076904 "/><polyline class="polyline" opacity="0.5" stroke="blue" points="253.3508880468514,240.5707346609275 301.4246048744748,240.09471192922237 "/><polyline class="polyline" opacity="0.5" stroke="blue" points="252.4877480205694,241.1366887678357 299.64311776255005,240.41460886266276 "/><polyline class="polyline" opacity="0.5" stroke="blue" points="251.60576698947202,241.68282562829052 297.84702017713346,240.69660732181427 "/><polyline class="polyline" opacity="0.5" stroke="blue" points="250.70541227506496,242.20904687907142 296.0375355458754,240.94106488218313 "/><polyline class="polyline" opacity="0.5" stroke="blue" points="249.78715248467864,242.71526306991504 294.2158642305764,241.14835142579477 "/><polyline class="polyline" opacity="0.5" stroke="blue" points="248.85145725477952,243.2013934728363 292.3831836789287,241.3188484209322 "/><polyline class="polyline" opacity="0.5" stroke="blue" points="247.89879700531998,243.6673658911897 290.54064860727055,241.45294823919437 "/><polyline class="polyline" opacity="0.5" stroke="blue" points="246.92964270502847,244.11311646882632 288.6893912113899,241.55105350913226 "/><polyline class="polyline" opacity="0.5" stroke="blue" points="245.9444656475254,244.53858949968452 286.8305214025366,241.61357650566057 "/><polyline class="polyline" opacity="0.5" stroke="blue" points="244.94373723813584,244.94373723813584 284.9651270659388,241.64093857439815 "/><polyline class="polyline" opacity="0.5" stroke="blue" points="243.92792879125375,245.3285197103929 283.0942743392359,241.63356959004514 "/><polyline class="polyline" opacity="0.5" stroke="blue" points="242.89751133809995,245.69290452726875 281.21900790837185,241.59190744787077 "/><polyline class="polyline" opacity="0.5" stroke="blue" points="241.85295544470466,246.03686669856296 279.34035131861026,241.51639758735564 "/><polyline class="polyline" opacity="0.5" stroke="blue" points="240.79473103993172,246.36038844933287 277.4593072984494,241.40749254700717 "/><polyline class="polyline" opacity="0.5" stroke="blue" points="239.72330725335394,246.66345903829517 275.57685809433315,241.2656515493474 "/><polyline class="polyline" opacity="0.5" stroke="blue" points="238.63915226277817,246.94607457858604 273.69396581416447,241.09134011505714 "/><polyline class="polyline" opacity="0.5" stroke="blue" points="237.54273315121046,247.20823786109634 271.81157277773434,240.8850297052478 "/><polyline class="polyline" opacity="0.5" stroke="blue" points="236.43451577304484,247.44995818058158 269.93060187228514,240.6471973908257 "/><polyline class="polyline" opacity="0.5" stroke="blue" points="235.3149646292516,247.671251164735 268.051956911527,240.3783255479073 "/><polyline class="polyline" opacity="0.5" stroke="blue" points="234.18454275133627,247.8721386063974 266.17652299652303,240.07890157824232 "/><polyline class="polyline" opacity="0.5" stroke="blue" points="233.043711593834,248.05264829906494 264.3051668769512,239.74941765360185 "/><polyline class="polyline" opacity="0.5" stroke="blue" points="231.8929309351012,248.21281387584412 262.4387373113398,239.39037048309126 "/><polyline class="polyline" opacity="0.5" stroke="blue" points="230.7326587861611,248.35267465199 260.5780654249602,239.0022611023513 "/><polyline class="polyline" opacity="0.5" stroke="blue" points="229.56335130735835,248.4722754711534 258.7239650641401,238.58559468361722 "/><polyline class="polyline" opacity="0.5" stroke="blue" points="228.38546273257379,248.57166655545063 256.87723314583883,238.1408803656127 "/><polyline class="polyline" opacity="0.5" stroke="blue" points="227.19944530075014,248.65090335945865 255.03865000140252,237.66863110226373 "/><polyline class="polyline" opacity="0.5" stroke="blue" points="226.005749194477,248.71004642822902 253.20897971348495,237.16936352922642 "/><polyline class="polyline" opacity="0.5" stroke="blue" points="224.80482248538286,248.74916125940274 251.3889704451892,236.6435978472333 "/><polyline class="polyline" opacity="0.5" stroke="blue" points="223.59711108608184,248.7683181694998 249.57935476054985,236.0918577212719 "/><polyline class="polyline" opacity="0.5" stroke="blue" points="222.38305870842268,248.76759216444674 247.78084993553566,235.51467019462223 "/><polyline class="polyline" opacity="0.5" stroke="blue" points="221.1631068277876,248.7470628143991 245.99415825881147,234.91256561678807 "/><polyline class="polyline" opacity="0.5" stroke="blue" points="219.93769465318977,248.70681413290384 244.21996732155475,234.2860775843711 "/><polyline class="polyline" opacity="0.5" stroke="blue" points="218.70725910291935,248.646934460443 242.45895029567362,233.63574289394575 "/><polyline class="polyline" opacity="0.5" stroke="blue" points="217.47223478548884,248.56751635238834 240.71176619982455,232.96210150600538 "/><polyline class="polyline" opacity="0.5" stroke="blue" points="216.23305398563062,248.46865647139265 238.9790601526767,232.2656965190606 "/><polyline class="polyline" opacity="0.5" stroke="blue" points="214.99014665510146,248.35045548423474 237.2614636129157,231.54707415298185 "/><polyline class="polyline" opacity="0.5" stroke="blue" points="213.7439404080501,248.21301796312906 235.55959460552253,230.80678374068836 "/><polyline class="polyline" opacity="0.5" stroke="blue" points="212.49486052070745,248.05645229150542 233.87405793390894,230.0453777272968 "/><polyline class="polyline" opacity="0.5" stroke="blue" points="211.24332993516015,247.8808705742575 232.2054453775274,229.2634116758515 "/><polyline class="polyline" opacity="0.5" stroke="blue" points="209.98976926697165,247.68638855245362 230.55433587461707,228.46144427876996 "/><polyline class="polyline" opacity="0.5" stroke="blue" points="208.73459681641694,247.47312552249878 228.92129568978143,227.64003737414373 "/><polyline class="polyline" opacity="0.5" stroke="blue" points="207.47822858310045,247.24120425973027 227.30687856613378,226.79975596604626 "/><polyline class="polyline" opacity="0.5" stroke="blue" points="206.22107828372856,246.99075094642703 225.7116258617794,225.94116824800702 "/><polyline class="polyline" opacity="0.5" stroke="blue" points="204.96355737281212,246.72189510420552 224.13606667044058,225.06484562881877 "/><polyline class="polyline" opacity="0.5" stroke="blue" points="203.70607506607612,246.43476953077345 222.58071792606387,224.17136275985428 "/><polyline class="polyline" opacity="0.5" stroke="blue" points="202.44903836635723,246.12951024100698 221.04608449128304,223.26129756307563 "/><polyline class="polyline" opacity="0.5" stroke="blue" points="201.19285209177255,245.80625641231364 219.53265922964388,222.33523125892722 "/><polyline class="polyline" opacity="0.5" stroke="blue" points="199.93791890594605,245.46515033424032 218.04092306153225,221.39374839331157 "/><polyline class="polyline" opacity="0.5" stroke="blue" points="198.68463935008143,245.1063373622817 216.57134500377575,220.4374368628532 "/><polyline class="polyline" opacity="0.5" stroke="blue" points="197.4334118766738,244.7299658758408 215.12438219292673,219.46688793766535 "/><polyline class="polyline" opacity="0.5" stroke="blue" points="196.18463288465435,244.33618724029233 213.70047989226381,218.48269628083938 "/><polyline class="polyline" opacity="0.5" stroke="blue" points="194.93869675576576,243.92515577309348 212.3000714825837,217.485459963887 "/><polyline class="polyline" opacity="0.5" stroke="blue" points="193.69599589196812,243.4970287138874 210.92357843688833,216.47578047737142 "/><polyline class="polyline" opacity="0.5" stroke="blue" points="192.4569207536781,243.051966198539 209.57141027910603,215.45426273597292 "/><polyline class="polyline" opacity="0.5" stroke="blue" points="191.22185989864604,242.59013123704253 208.24396452701902,214.42151507724242 "/><polyline class="polyline" opacity="0.5" stroke="blue" points="189.99120002127876,242.11168969523638 206.94162661960522,213.37814925330736 "/><polyline class="polyline" opacity="0.5" stroke="blue" points="188.76532599221738,241.61681028025865 205.66476982903657,212.32478041480178 "/><polyline class="polyline" opacity="0.5" stroke="blue" points="187.5446208979824,241.105664529675 204.4137551576129,211.26202708630566 "/><polyline class="polyline" opacity="0.5" stroke="blue" points="186.3294660804997,240.57842680420794 203.1889312199462,210.19051113258882 "/><polyline class="polyline" opacity="0.5" stroke="blue" points="185.12024117632345,240.0352742839938 201.99063411074772,209.11085771496758 "/><polyline class="polyline" opacity="0.5" stroke="blue" points="183.91732415537385,239.47638696829247 200.8191872586086,208.0236952370959 "/><polyline class="polyline" opacity="0.5" stroke="blue" points="182.72109135900936,238.9019476785723 199.67490126620314,206.9296552795287 "/><polyline class="polyline" opacity="0.5" stroke="blue" points="181.53191753725446,238.3121420648902 198.5580737373832,205.82937252240973 "/><polyline class="polyline" opacity="0.5" stroke="blue" points="180.3501758850061,237.70715861548524 197.46898909167317,204.7234846556555 "/><polyline class="polyline" opacity="0.5" stroke="blue" points="179.17623807704288,237.0871886695016 196.40791836671485,203.61263227602538 "/><polyline class="polyline" opacity="0.5" stroke="blue" points="178.0104743016628,236.4524264327545 195.37511900925432,202.49745877048963 "/><polyline class="polyline" opacity="0.5" stroke="blue" points="176.85325329277669,235.80306899645075 194.37083465530384,201.37861018532936 "/><polyline class="polyline" opacity="0.5" stroke="blue" points="175.70494236028497,235.13931635877296 193.39529490015587,200.25673508042775 "/><polyline class="polyline" opacity="0.5" stroke="blue" points="174.56590741856772,234.46137144923426 192.4487150589684,199.1324843682383 "/><polyline class="polyline" opacity="0.5" stroke="blue" points="173.43651301291754,233.76944015570822 191.5312959186848,198.00651113694568 "/><polyline class="polyline" opacity="0.5" stroke="blue" points="172.31712234374703,233.0637313540353 190.6432234820955,196.87947045736456 "/><polyline class="polyline" opacity="0.5" stroke="blue" points="171.20809728840237,232.34445694010628 189.7846687048919,195.75201917315712 "/><polyline class="polyline" opacity="0.5" stroke="blue" points="170.10979842041638,231.61183186431853 188.95578722660792,194.6248156739842 "/><polyline class="polyline" opacity="0.5" stroke="blue" points="169.02258502603428,230.86607416829975 188.15671909638695,193.49851965124452 "/><polyline class="polyline" opacity="0.5" stroke="blue" points="167.94681511784674,230.1074050237905 187.3875884945569,192.37379183609767 "/><polyline class="polyline" opacity="0.5" stroke="blue" points="166.88284544536472,229.33604877357348 186.64850345103724,191.25129371950797 "/><polyline class="polyline" opacity="0.5" stroke="blue" points="165.83103150237247,228.5522329743354 185.9395555616456,190.1316872540959 "/><polyline class="polyline" opacity="0.5" stroke="blue" points="164.79172753089415,227.75618844134328 185.2608197034108,189.01563453762893 "/><polyline class="polyline" opacity="0.5" stroke="blue" points="163.76528652161153,226.94814929481467 184.61235375004145,187.90379747803755 "/><polyline class="polyline" opacity="0.5" stroke="blue" points="162.75206021057002,226.12835300785653 183.99419828873528,186.7968374398952 "/><polyline class="polyline" opacity="0.5" stroke="blue" points="161.75239907201114,225.2970404558459 183.4063763395531,185.69541487235742 "/><polyline class="polyline" opacity="0.5" stroke="blue" points="160.7666523071709,224.45445596712005 182.84889307861525,184.60018891861498 "/><polyline class="polyline" opacity="0.5" stroke="blue" points="159.79516782888246,223.60084737484132 182.32173556641152,183.51181700697703 "/><polyline class="polyline" opacity="0.5" stroke="blue" points="158.83829224182534,222.73646606989715 181.82487248254517,182.43095442376452 "/><polyline class="polyline" opacity="0.5" stroke="blue" points="157.8963708182608,221.86156705469253 181.35825386826028,181.3582538682603 "/><polyline class="polyline" opacity="0.5" stroke="blue" points="156.96974746909714,220.9764089976872 180.921810878124,180.29436499003032 "/><polyline class="polyline" opacity="0.5" stroke="blue" points="156.05876471012732,220.08125428852622 180.5154555422589,179.23993390900137 "/><polyline class="polyline" opacity="0.5" stroke="blue" points="155.1637636232847,219.17636909360814 180.13908054053562,178.19560271875233 "/><polyline class="polyline" opacity="0.5" stroke="blue" points="154.2850838127623,218.26202341192976 179.7925589901506,177.16200897354977 "/><polyline class="polyline" opacity="0.5" stroke="blue" points="153.42306335584408,217.33849113104284 179.4757442480229,176.139785159734 "/><polyline class="polyline" opacity="0.5" stroke="blue" points="152.5780387482967,216.40605008295267 179.18846972944786,175.12955815213732 "/><polyline class="polyline" opacity="0.5" stroke="blue" points="151.75034484417523,215.46498209978375 178.93054874444618,174.13194865629418 "/><polyline class="polyline" opacity="0.5" stroke="blue" points="150.9403147898945,214.51557306903268 178.70177435324075,173.1475706372796 "/><polyline class="polyline" opacity="0.5" stroke="blue" points="150.1482799524241,213.55811298822374 178.50191924228395,172.1770307360898 "/><polyline class="polyline" opacity="0.5" stroke="blue" points="149.3745698414653,212.59289601877703 178.33073562224092,171.22092767455803 "/><polyline class="polyline" opacity="0.5" stroke="blue" points="148.61951202547252,211.6202205388937 178.187955149313,170.27985164987422 "/><polyline class="polyline" opacity="0.5" stroke="blue" points="147.88343204138485,210.64038919525808 178.07328887125726,169.3543837198538 "/><polyline class="polyline" opacity="0.5" stroke="blue" points="147.16665329793693,209.6537089533504 177.98642719942393,168.4450951801764 "/><polyline class="polyline" opacity="0.5" stroke="blue" points="146.4694969724232,208.66049114615913 177.92703990809318,167.55254693488789 "/><polyline class="polyline" opacity="0.5" stroke="blue" points="145.7922819007932,207.6610515210758 177.89477616234555,166.67728886153117 "/><polyline class="polyline" opacity="0.5" stroke="blue" points="145.13532446096139,206.65571028475 177.88926457564693,165.81985917233806 "/><polyline class="polyline" opacity="0.5" stroke="blue" points="144.49893844921974,205.64479214567717 177.9101132982692,164.98078377298327 "/><polyline class="polyline" opacity="0.5" stroke="blue" points="143.88343494964823,204.62862635428553 177.95691013760106,164.1605756204595 "/><polyline class="polyline" opacity="0.5" stroke="blue" points="143.28912219642308,203.60754674028388 178.0292227113296,163.35973408169522 "/><polyline class="polyline" opacity="0.5" stroke="blue" points="142.71630542893195,202.58189174702616 178.12659863439515,162.57874429458707 "/><polyline class="polyline" opacity="0.5" stroke="blue" points="142.16528673960994,201.5520044626435 178.24856574053422,161.81807653317006 "/><polyline class="polyline" opacity="0.5" stroke="blue" points="141.63636491442148,200.5182326476898 178.39463233913412,161.0781855786915 "/><polyline class="polyline" opacity="0.5" stroke="blue" points="141.12983526591876,199.48092875904092 178.5642875080247,160.35951009839312 "/><polyline class="polyline" opacity="0.5" stroke="blue" points="140.64598945881892,198.4404499697836 178.75700142272774,159.66247203383742 "/><polyline class="polyline" opacity="0.5" stroke="blue" points="140.18511532805155,197.39715818482546 178.9722257225763,158.9874760006403 "/><polyline class="polyline" opacity="0.5" stroke="blue" points="139.7474966892381,196.35142005195212 179.20939391400057,158.33490870148995 "/><polyline class="polyline" opacity="0.5" stroke="blue" points="139.33341314157644,195.3036069680548 179.46792181115873,157.70513835434446 "/><polyline class="polyline" opacity="0.5" stroke="blue" points="138.94313986311698,194.2540950802462 179.7472080139662,157.09851413770258 "/><polyline class="polyline" opacity="0.5" stroke="blue" points="138.576947398427,193.20326528158046 180.04663442345102,156.5153656548406 "/><polyline class="polyline" opacity="0.5" stroke="blue" points="138.23510143865664,192.1515032010885 180.36556679423106,155.95600241889366 "/><polyline class="polyline" opacity="0.5" stroke="blue" points="137.9178625940312,191.09919918783848 180.70335532377607,155.42071336064205 "/><polyline class="polyline" opacity="0.5" stroke="blue" points="137.62548615881136,190.0467482887271 181.05933527798203,154.90976636083218 "/><polyline class="polyline" opacity="0.5" stroke="blue" points="137.35822186877877,188.9945502197075 181.43282765244837,154.42340780882637 "/><polyline class="polyline" opacity="0.5" stroke="blue" points="137.11631365131976,187.94300933015688 181.82313986871034,153.96186218932894 "/><polyline class="polyline" opacity="0.5" stroke="blue" points="136.89999936819902,186.8925345600863 182.22956650454228,153.52533169888267 "/><polyline class="polyline" opacity="0.5" stroke="blue" points="136.70951055113255,185.84353938989523 182.65139005730845,153.1139958937654 "/><polyline class="polyline" opacity="0.5" stroke="blue" points="136.54507213028808,184.7964417823743 183.08788173920422,152.72801137084804 "/><polyline class="polyline" opacity="0.5" stroke="blue" points="136.40690215586193,183.7516641166596 183.53830230309526,152.36751148289252 "/><polyline class="polyline" opacity="0.5" stroke="blue" points="136.29521151290118,182.70963311384492 184.00190289753164,152.03260608968424 "/><polyline class="polyline" opacity="0.5" stroke="blue" points="136.2102036295622,181.67077975396091 184.47792594938733,151.7233813462961 "/><polyline class="polyline" opacity="0.5" stroke="blue" points="136.1520741790181,180.63553918403326 184.96560607245144,151.4398995296799 "/><polyline class="polyline" opacity="0.5" stroke="blue" points="136.12101077525185,179.60435061693647 185.4641710001807,151.18219890467196 "/><polyline class="polyline" opacity="0.5" stroke="blue" points="136.1171926629947,178.57765722076584 185.97284254071008,150.95029363038287 "/><polyline class="polyline" opacity="0.5" stroke="blue" points="136.14079040209413,177.555905998456 186.4908375521128,150.74417370782012 "/><polyline class="polyline" opacity="0.5" stroke="blue" points="136.19196554662156,176.53954765738177 187.01736893580366,150.56380496946582 "/><polyline class="polyline" opacity="0.5" stroke="blue" points="136.27087031905523,175.52903646868592 187.55164664588773,150.409129111398 "/><polyline class="polyline" opacity="0.5" stroke="blue" points="136.37764727990003,174.52483011608837 188.09287871217515,150.2800637684092 "/><polyline class="polyline" opacity="0.5" stroke="blue" points="136.51242899313357,173.52738953394032 188.6402722745103,150.17650263243584 "/><polyline class="polyline" opacity="0.5" stroke="blue" points="136.6753376878949,172.53717873430213 189.19303462599765,150.09831561446865 "/><polyline class="polyline" opacity="0.5" stroke="blue" points="136.86648491686117,171.55466462283277 189.75037426265618,150.04534904997092 "/><polyline class="polyline" opacity="0.5" stroke="blue" points="137.08597121178306,170.58031680329734 190.31150193698704,150.01742594768447 "/><polyline class="polyline" opacity="0.5" stroke="blue" points="137.33388573668367,169.61460737051135 190.87563171290986,150.0143462815571 "/><polyline class="polyline" opacity="0.5" stroke="blue" points="137.6103059392476,168.65801069156083 191.44198201949752,150.03588732537932 "/><polyline class="polyline" opacity="0.5" stroke="blue" points="137.9152972009624,167.71100317515305 192.00977670093084,150.08180402957242 "/><polyline class="polyline" opacity="0.5" stroke="blue" points="138.24891248659887,166.77406302897435 192.57824606009348,150.1518294394274 "/><polyline class="polyline" opacity="0.5" stroke="blue" points="138.61119199364808,165.8476700049527 193.14662789323802,150.24567515395262 "/><polyline class="polyline" opacity="0.5" stroke="blue" points="139.00216280236143,164.93230513234425 193.71416851317778,150.36303182435213 "/><polyline class="polyline" opacity="0.5" stroke="blue" points="139.42183852706694,164.0284504385888 194.28012375849056,150.5035696910214 "/><polyline class="polyline" opacity="0.5" stroke="blue" points="139.8702189694659,163.13658865790353 194.84375998626646,150.6669391578214 "/><polyline class="polyline" opacity="0.5" stroke="blue" points="140.34728977463843,162.25720292761227 195.4043550459842,150.85277140226685 "/><polyline class="polyline" opacity="0.5" stroke="blue" points="140.85302209051605,161.39077647223482 195.96119923216727,151.06067902014956 "/><polyline class="polyline" opacity="0.5" stroke="blue" points="141.38737223160317,160.53779227539258 196.51359621354408,151.29025670300658 "/><polyline class="polyline" opacity="0.5" stroke="blue" points="141.95028134775674,159.6987327396152 197.0608639365215,151.54108194674188 "/><polyline class="polyline" opacity="0.5" stroke="blue" points="142.54167509885514,158.87407933416824 197.60233550087312,151.81271578961395 "/><polyline class="polyline" opacity="0.5" stroke="blue" points="143.16146333621202,158.06431223105398 198.13736000564435,152.10470357771706 "/><polyline class="polyline" opacity="0.5" stroke="blue" points="143.8095397916113,157.26990992937215 198.66530336338644,152.41657575600473 "/><polyline class="polyline" opacity="0.5" stroke="blue" points="144.485781774859,156.49134886826567 199.18554908094455,152.7478486828362 "/><polyline class="polyline" opacity="0.5" stroke="blue" points="145.19004988076705,155.7291030287105 199.6974990051503,153.09802546596703 "/><polyline class="polyline" opacity="0.5" stroke="blue" points="145.92218770649885,154.98364352445086 200.20057403189247,153.46659681785493 "/><polyline class="polyline" opacity="0.5" stroke="blue" points="146.6820215802218,154.25543818241567 200.69421477717535,153.85304192811154 "/><polyline class="polyline" opacity="0.5" stroke="blue" points="147.469360302023,153.54495111299747 201.17788220890748,154.2568293509004 "/><polyline class="polyline" opacity="0.5" stroke="blue" points="148.28399489805489,152.85264227060978 201.65105823830447,154.67741790506025 "/><polyline class="polyline" opacity="0.5" stroke="blue" points="149.12569838888356,152.17896700498625 202.11324626993004,155.11425758472103 "/><polyline class="polyline" opacity="0.5" stroke="blue" points="149.994225573018,151.52437560372132 202.56397170954284,155.56679047817903 "/><polyline class="polyline" opacity="0.5" stroke="blue" points="150.88931282659817,150.88931282659817 203.00278242906074,156.03445169280388 "/><polyline class="polyline" opacity="0.5" stroke="blue" points="151.8106779202209,150.27421743228984 203.42924918809763,156.5166702837675 "/><polyline class="polyline" opacity="0.5" stroke="blue" points="152.7580198538754,149.67952169806208 203.84296601167082,157.0128701844095 "/><polyline class="polyline" opacity="0.5" stroke="blue" points="153.7310187109532,149.10565093314932 204.24355052381867,157.52247113608888 "/><polyline class="polyline" opacity="0.5" stroke="blue" points="154.72933553228617,148.55302298651617 204.63064423700683,158.0448896154109 "/><polyline class="polyline" opacity="0.5" stroke="blue" points="155.75261221115093,148.0220477497582 205.0039127973384,158.57953975677088 "/><polyline class="polyline" opacity="0.5" stroke="blue" points="156.80047141015933,147.51312665593662 205.36304618571447,159.12583426820999 "/><polyline class="polyline" opacity="0.5" stroke="blue" points="157.87251650093168,147.02665217518125 205.7077588752218,159.68318533864317 "/><polyline class="polyline" opacity="0.5" stroke="blue" points="158.96833152742514,146.56300730793393 206.03778994514528,160.2510055345886 "/><polyline class="polyline" opacity="0.5" stroke="blue" points="160.0874811937568,146.12256507674297 206.35290315212364,160.8287086846018 "/><polyline class="polyline" opacity="0.5" stroke="blue" points="161.22951087732906,145.70568801755368 206.65288695907765,161.41571074969912 "/><polyline class="polyline" opacity="0.5" stroke="blue" points="162.39394666802576,145.31272767147516 206.93755452264617,162.01143067813723 "/><polyline class="polyline" opacity="0.5" stroke="blue" points="163.58029543420633,144.94402407803454 207.20674363996702,162.61529124300668 "/><polyline class="polyline" opacity="0.5" stroke="blue" points="164.7880449161772,144.59990527096073 207.46031665572932,163.2267198611852 "/><polyline class="polyline" opacity="0.5" stroke="blue" points="166.0166638477731,144.2806867775662 207.69816033051305,163.84514939229365 "/><polyline class="polyline" opacity="0.5" stroke="blue" points="167.26560210662248,143.98667112282055 207.92018567150723,164.4700189163907 "/><polyline class="polyline" opacity="0.5" stroke="blue" points="168.53429089361828,143.7181473392329 208.12632772677077,165.10077448924264 "/><polyline class="polyline" opacity="0.5" stroke="blue" points="169.8221429420488,143.47539048367645 208.31654534426286,165.7368698740995 "/><polyline class="polyline" opacity="0.5" stroke="blue" points="171.12855275678285,143.2586611623073 208.49082089692527,166.37776724901147 "/><polyline class="polyline" opacity="0.5" stroke="blue" points="172.45289688383087,143.06820506474037 208.64915997514788,167.0229378888135 "/><polyline class="polyline" opacity="0.5" stroke="blue" points="173.79453421053347,142.90425250865462 208.7915910479889,167.67186282100786 "/><polyline class="polyline" opacity="0.5" stroke="blue" points="175.15280629655456,142.76701799600485 208.9181650945548,168.32403345486767 "/><polyline class="polyline" opacity="0.5" stroke="blue" points="176.52703773577434,142.6566997820188 209.0289552069706,168.97895218318075 "/><polyline class="polyline" opacity="0.5" stroke="blue" points="177.91653654910215,142.57347945815508 209.12405616639046,169.6361329561466 "/><polyline class="polyline" opacity="0.5" stroke="blue" points="179.32059460813926,142.51752155019125 209.2035839935103,170.29510182702666 "/><polyline class="polyline" opacity="0.5" stroke="blue" points="180.73848808954313,142.4889731325992 209.2676754750491,170.95539746923947 "/><polyline class="polyline" opacity="0.5" stroke="blue" points="182.16947795985058,142.48796346034993 209.31648766766506,171.61657166467268 "/><polyline class="polyline" opacity="0.5" stroke="blue" points="183.6128104904344,142.51460361927062 209.35019738076556,172.27818976306742 "/><polyline class="polyline" opacity="0.5" stroke="blue" points="185.06771780217292,142.5689861960508 209.36900063965578,172.93983111240567 "/><polyline class="polyline" opacity="0.5" stroke="blue" points="186.53341843932463,142.6511849689668 209.37311213045487,173.60108946030587 "/><polyline class="polyline" opacity="0.5" stroke="blue" points="188.0091179720063,142.76125462036055 209.36276462818248,174.26157332649956 "/><polyline class="polyline" opacity="0.5" stroke="blue" points="189.49400962658333,142.8992304718691 209.33820840939265,174.92090634652754 "/><polyline class="polyline" opacity="0.5" stroke="blue" points="190.98727494318774,143.06512824336122 209.29971065069836,175.5787275868533 "/><polyline class="polyline" opacity="0.5" stroke="blue" points="192.48808445949135,143.2589438364902 209.24755481449446,176.23469183164826 "/><polyline class="polyline" opacity="0.5" stroke="blue" points="193.9955984197703,143.48065314371948 209.18204002314678,176.88846984155336 "/><polyline class="polyline" opacity="0.5" stroke="blue" points="195.50896750820996,143.7302118836254 209.1034804228725,177.53974858476852 "/><polyline class="polyline" opacity="0.5" stroke="blue" points="197.02733360531536,144.0075554632214 209.01220453849132,178.1882314408639 "/><polyline class="polyline" opacity="0.5" stroke="blue" points="198.54983056620517,144.31259886798415 208.90855462017907,178.833638377743 "/><polyline class="polyline" opacity="0.5" stroke="blue" points="200.0755850194915,144.64523658019863 208.79288598330604,179.47570610222218 "/><polyline class="polyline" opacity="0.5" stroke="blue" points="201.60371718536646,145.00534252616632 208.66556634239026,180.11418818471728 "/><polyline class="polyline" opacity="0.5" stroke="blue" points="203.1333417114465,145.3927700527513 208.52697514014477,180.74885515855448 "/><polyline class="polyline" opacity="0.5" stroke="blue" points="204.66356852485282,145.80735193366075 208.37750287254343,181.37949459444025 "/><polyline class="polyline" opacity="0.5" stroke="blue" points="206.1935036989448,146.24890040578026 208.2175504107771,182.00591115064248 "/><polyline class="polyline" opacity="0.5" stroke="blue" points="207.72225033305932,146.7172072358027 208.04752832091793,182.62792659944523 "/><polyline class="polyline" opacity="0.5" stroke="blue" points="209.24890944355795,147.21204381730897 207.86785618205576,183.24537983044902 "/><polyline class="polyline" opacity="0.5" stroke="blue" points="210.77258086443055,147.73316129837264 207.67896190361816,183.85812683129117 "/><polyline class="polyline" opacity="0.5" stroke="blue" points="212.29236415566405,148.28029073967886 207.48128104253314,184.46604064636387 "/><polyline class="polyline" opacity="0.5" stroke="blue" points="213.80735951754295,148.85314330305857 207.27525612084227,185.06901131410308 "/><polyline class="polyline" opacity="0.5" stroke="blue" points="215.31666870902203,149.45141047025643 207.0613359443231,185.6669457834182 "/><polyline class="polyline" opacity="0.5" stroke="blue" points="216.81939596828127,150.07476429166115 206.83997492263057,186.2597678098236 "/><polyline class="polyline" opacity="0.5" stroke="blue" points="218.31464893355857,150.72285766464418 206.61163239142195,186.84741783182182 "/><polyline class="polyline" opacity="0.5" stroke="blue" points="219.80153956234383,151.39532464106497 206.37677193688472,187.42985282807825 "/><polyline class="polyline" opacity="0.5" stroke="blue" points="221.27918504701023,152.0917807634179 206.1358607230461,188.00704615590863 "/><polyline class="polyline" opacity="0.5" stroke="blue" points="222.7467087249658,152.8118234290139 205.88936882220165,188.5789873715871 "/><polyline class="polyline" opacity="0.5" stroke="blue" points="224.20324098141262,153.55503228150775 205.6377685487655,189.14568203296264 "/><polyline class="polyline" opacity="0.5" stroke="blue" points="225.64792014282168,154.32096962900442 205.38153379680912,189.70715148485354 "/><polyline class="polyline" opacity="0.5" stroke="blue" points="227.07989335925004,155.10918088790123 205.12113938152476,190.2634326276668 "/><polyline class="polyline" opacity="0.5" stroke="blue" points="228.49831747366164,155.9191950515509 204.8570603848214,190.8145776696707 "/><polyline class="polyline" opacity="0.5" stroke="blue" points="229.90235987644493,156.75052518275874 204.58977150523611,191.36065386332427 "/><polyline class="polyline" opacity="0.5" stroke="blue" points="231.29119934336785,157.60266892906336 204.31974641232034,191.90174322604594 "/><polyline class="polyline" opacity="0.5" stroke="blue" points="232.66402685525662,158.47510905968642 204.04745710564387,192.43794224578122 "/><polyline class="polyline" opacity="0.5" stroke="blue" points="234.02004639774262,159.36731402298025 203.77337327854147,192.9693615717061 "/><polyline class="polyline" opacity="0.5" stroke="blue" points="235.3584757394822,160.27873852314718 203.49796168671642,193.49612569038052 "/><polyline class="polyline" opacity="0.5" stroke="blue" points="236.67854718731996,161.20882411495643 203.22168552180565,194.0183725876454 "/><polyline class="polyline" opacity="0.5" stroke="blue" points="237.97950831694067,162.15699981514064 202.9450037900053,194.53625339653408 "/><polyline class="polyline" opacity="0.5" stroke="blue" points="239.26062267762825,163.12268272911277 202.6683706958541,195.0499320314507 "/><polyline class="polyline" opacity="0.5" stroke="blue" points="240.52117046983537,164.10527869161402 202.39223503127212,195.55958480884726 "/><polyline class="polyline" opacity="0.5" stroke="blue" points="241.76044919434835,165.10418291987 202.11703956995757,196.06540005461454 "/><polyline class="polyline" opacity="0.5" stroke="blue" points="242.9777742719255,166.11878067781333 201.84322046725117,196.56757769838563 "/><polyline class="polyline" opacity="0.5" stroke="blue" points="244.17247963237455,167.14844794990955 201.5712066655895,197.0663288549354 "/><polyline class="polyline" opacity="0.5" stroke="blue" points="245.34391827213386,168.19255212311322 201.30141930568155,197.56187539284826 "/><polyline class="polyline" opacity="0.5" stroke="blue" points="246.49146277951553,169.2504526754718 201.03427114356035,198.0544494906138 "/><polyline class="polyline" opacity="0.5" stroke="blue" points="247.61450582687118,170.32150186989458 200.77016597368137,198.54429318030282 "/><polyline class="polyline" opacity="0.5" stroke="blue" points="248.71246062903765,171.40504545160667 200.50949805826244,199.03165787896953 "/><polyline class="polyline" opacity="0.5" stroke="blue" points="249.784761367525,172.50042334781747 200.25265156308413,199.51680390792183 "/><polyline class="polyline" opacity="0.5" stroke="blue" points="250.83086358000747,173.60697036814537 200.0,200.0 "/><polyline class="polyline" opacity="0.5" stroke="blue" points="251.85024451478208,174.72401690436143 199.75190567643403,200.48152279500613 "/><polyline class="polyline" opacity="0.5" stroke="blue" points="252.84240344996016,175.8508896280366 199.50871915217704,200.96165632343065 "/><polyline class="polyline" opacity="0.5" stroke="blue" points="253.8068619772556,176.98691218470472 199.2707787038281,201.4406914786281 "/><polyline class="polyline" opacity="0.5" stroke="blue" points="254.74316425033663,178.1314058831883 199.03840979726417,201.9189254776066 "/><polyline class="polyline" opacity="0.5" stroke="blue" points="255.6508771978004,179.28369037876845 198.81192456855817,202.39666131060534 "/><polyline class="polyline" opacity="0.5" stroke="blue" points="256.52959070092845,180.443084348922 198.5916213138084,202.87420717965333 "/><polyline class="polyline" opacity="0.5" stroke="blue" points="257.37891773647186,181.60890616039185 198.37778398838017,203.35187592631874 "/><polyline class="polyline" opacity="0.5" stroke="blue" points="258.19849448480613,182.7804745264063 198.1706817161052,203.82998444888295 "/><polyline class="polyline" opacity="0.5" stroke="blue" points="258.9879804038796,183.95710915291036 197.97056830902557,204.3088531091956 "/><polyline class="polyline" opacity="0.5" stroke="blue" points="259.7470582694677,185.1381313727291 197.77768179831364,204.78880512949826 "/><polyline class="polyline" opacity="0.5" stroke="blue" points="260.47543418231874,186.32286476663495 197.59224397704182,205.27016597953195 "/><polyline class="polyline" opacity="0.5" stroke="blue" points="261.1728375428572,187.51063577035296 197.4144599555201,205.75326275428148 "/><polyline class="polyline" opacity="0.5" stroke="blue" points="261.8390209941793,188.70077426659358 197.24451772996204,206.23842354274302 "/><polyline class="polyline" opacity="0.5" stroke="blue" points="262.47376033414395,189.89261416126809 197.0825877652821,206.7259767881441 "/><polyline class="polyline" opacity="0.5" stroke="blue" points="263.07685439742454,191.08549394310072 196.92882259286827,207.21625064008512 "/><polyline class="polyline" opacity="0.5" stroke="blue" points="263.6481249084436,192.27875722591747 196.78335642421368,207.70957229911818 "/><polyline class="polyline" opacity="0.5" stroke="blue" points="264.187416306168,193.47175327295565 196.64630478132895,208.2062673543252 "/><polyline class="polyline" opacity="0.5" stroke="blue" points="264.6945955417882,194.6638375026005 196.5177641448922,208.70665911450712 "/><polyline class="polyline" opacity="0.5" stroke="blue" points="265.1695518503503,195.85437197502407 196.39781162112737,209.21106793364729 "/><polyline class="polyline" opacity="0.5" stroke="blue" points="265.61219649744737,197.04272585926083 196.28650462843186,209.71981053136514 "/><polyline class="polyline" opacity="0.5" stroke="blue" points="266.0224625021107,198.22827588032376 196.18388060480106,210.23319930913115 "/><polyline class="polyline" opacity="0.5" stroke="blue" points="266.4003043370698,199.41040674602334 196.0899567371214,210.7515416630692 "/><polyline class="polyline" opacity="0.5" stroke="blue" points="266.7456976075755,200.5885115532178 196.00472971342256,211.27513929422997 "/><polyline class="polyline" opacity="0.5" stroke="blue" points="267.05863870999787,201.76199217328175 195.92817549919457,211.8042875172753 "/><polyline class="polyline" opacity="0.5" stroke="blue" points="267.33914447142837,202.93025961664205 195.86024913888696,212.33927456857197 "/><polyline class="polyline" opacity="0.5" stroke="blue" points="267.5872517715218,204.09273437628588 195.80088458371034,212.88038091474957 "/><polyline class="polyline" opacity="0.5" stroke="blue" points="267.803017147824,205.24884675020556 195.74999454686332,213.427878562835 "/><polyline class="polyline" opacity="0.5" stroke="blue" points="267.9865163858294,206.39803714279566 195.70747038729937,213.98203037313112 "/><polyline class="polyline" opacity="0.5" stroke="blue" points="268.13784409501307,207.53975634527436 195.67318202313905,214.5430893760629 "/><polyline class="polyline" opacity="0.5" stroke="blue" points="268.2571132720719,208.67346579524832 195.6469778758124,215.11129809426546 "/><polyline class="polyline" opacity="0.5" stroke="blue" points="268.3444548526045,209.7986378155902 195.62868484599397,215.6868878712409 "/><polyline class="polyline" opacity="0.5" stroke="blue" points="268.40001725244167,210.9147558328446 195.61810832236011,216.27007820795814 "/><polyline class="polyline" opacity="0.5" stroke="blue" points="268.42396589982457,212.0213145754182 195.61503222416076,216.86107610881365 "/><polyline class="polyline" opacity="0.5" stroke="blue" points="268.41648275960716,213.11782025185576 195.61921907855225,217.46007543841515 "/><polyline class="polyline" opacity="0.5" stroke="blue" points="268.37776585063887,214.20379070953706 195.63041013358514,218.0672562906841 "/><polyline class="polyline" opacity="0.5" stroke="blue" points="268.30802875745337,215.27875557416937 195.64832550768182,218.68278437180928 "/><polyline class="polyline" opacity="0.5" stroke="blue" points="268.20750013736733,216.34225637048038 195.67266437637034,219.30681039860852 "/><polyline class="polyline" opacity="0.5" stroke="blue" points="268.07642322405843,217.39384662454992 195.70310519696827,219.9394695138806 "/><polyline class="polyline" opacity="0.5" stroke="blue" points="267.91505532866216,218.43309194824337 195.73930597182695,220.58088072034445 "/><polyline class="polyline" opacity="0.5" stroke="blue" points="267.72366733939236,219.45957010623835 195.78090455065978,221.23114633477473 "/><polyline class="polyline" opacity="0.5" stroke="blue" points="267.5025432206551,220.4728710661563 195.82751897238083,221.8903514639451 "/><polyline class="polyline" opacity="0.5" stroke="blue" points="267.25197951258986,221.47259703233297 195.87874784677916,222.55856350399023 "/><polyline class="polyline" opacity="0.5" stroke="blue" points="266.97228483193084,222.45836246377743 195.9341707762457,223.23583166478397 "/><polyline class="polyline" opacity="0.5" stroke="blue" points="266.66377937504666,223.42979407688753 195.9933488176536,223.9221865209169 "/><polyline class="polyline" opacity="0.5" stroke="blue" points="266.32679442397415,224.38653083349902 196.05582498437474,224.6176395908279 "/><polyline class="polyline" opacity="0.5" stroke="blue" points="265.96167185622176,225.32822391485976 196.12112478828806,225.32218294561306 "/><polyline class="polyline" opacity="0.5" stroke="blue" points="265.5687636590791,226.25453668212705 196.1887568215069,226.03578884899247 "/><polyline class="polyline" opacity="0.5" stroke="blue" points="265.1484314491264,227.16514462399238 196.2582133774172,226.75840942986548 "/><polyline class="polyline" opacity="0.5" stroke="blue" points="264.7010459975986,228.05973529204402 196.32897111048197,227.4899763888273 "/><polyline class="polyline" opacity="0.5" stroke="blue" points="264.22698676221506,228.93800822447807 196.4004917341273,228.23040073995247 "/><polyline class="polyline" opacity="0.5" stroke="blue" points="263.7266414260489,229.79967485877106 196.47222275588206,228.97957258907738 "/><polyline class="polyline" opacity="0.5" stroke="blue" points="263.2004054439659,230.64445843392474 196.54359824880146,229.73736094972801 "/><polyline class="polyline" opacity="0.5" stroke="blue" points="262.64868159712563,231.4720938828922 196.61403965805928,230.50361359775277 "/><polyline class="polyline" opacity="0.5" stroke="blue" points="262.07187955599704,232.28232771578865 196.68295664145163,231.27815696561677 "/><polyline class="polyline" opacity="0.5" stroke="blue" points="261.470415452302,233.07491789448574 196.74974794241152,232.06079607721193 "/><polyline class="polyline" opacity="0.5" stroke="blue" points="260.84471146026283,233.84963369918052 196.81380229399414,232.8513145239217 "/><polyline class="polyline" opacity="0.5" stroke="blue" points="260.19519538749296,234.60625558752167 196.87449935215585,233.6494744825615 "/><polyline class="polyline" opacity="0.5" stroke="blue" points="259.5223002758331,235.3445750468673 196.93121065651582,234.45501677568905 "/><polyline class="polyline" opacity="0.5" stroke="blue" points="258.82646401240106,236.06439444023547 196.9833006166618,235.26766097464866 "/><polyline class="polyline" opacity="0.5" stroke="blue" points="258.10812895108876,236.7655268465011 197.03012752193882,236.08710554557763 "/><polyline class="polyline" opacity="0.5" stroke="blue" points="257.36774154470777,237.44779589537615 197.0710445725426,236.9130280384615 "/><polyline class="polyline" opacity="0.5" stroke="blue" points="256.60575198795163,238.11103559770075 197.10540092963203,237.7450853191841 "/><polyline class="polyline" opacity="0.5" stroke="blue" points="255.8226138713154,238.755090171556 197.13254278207435,238.58291384436833 "/><polyline class="polyline" opacity="0.5" stroke="blue" points="255.01878384607963,239.37981386469778 197.15181442734462,239.4261299786591 "/><polyline class="polyline" opacity="0.5" stroke="blue" points="254.19472130044224,239.98507077379304 197.16255936402047,240.27433035394773 "/><polyline class="polyline" opacity="0.5" stroke="blue" points="253.3508880468514,240.57073466092749 197.16412139324157,241.12709226988937 "/><polyline class="polyline" opacity="0.5" stroke="blue" points="252.48774802056948,241.13668876783566 197.15584572644306,241.9839741349147 "/><polyline class="polyline" opacity="0.5" stroke="blue" points="251.60576698947204,241.68282562829052 197.1370800966236,242.84451594679132 "/><polyline class="polyline" opacity="0.5" stroke="blue" points="250.70541227506502,242.20904687907137 197.10717587037297,243.708239811644 "/><polyline class="polyline" opacity="0.5" stroke="blue" points="249.78715248467864,242.71526306991507 197.0654891578589,244.57465050020238 "/><polyline class="polyline" opacity="0.5" stroke="blue" points="248.85145725477955,243.2013934728363 197.01138191796267,245.44323603990532 "/><polyline class="polyline" opacity="0.5" stroke="blue" points="247.8987970053201,243.66736589118963 196.94422305575443,246.31346834136218 "/><polyline class="polyline" opacity="0.5" stroke="blue" points="246.92964270502853,244.1131164688263 196.8633895095134,247.18480385754106 "/><polyline class="polyline" opacity="0.5" stroke="blue" points="245.94446564752548,244.5385894996845 196.76826732452716,248.05668427393613 "/><polyline class="polyline" opacity="0.5" stroke="blue" points="244.94373723813584,244.94373723813584 196.65825271094374,248.928537227854 "/><polyline class="polyline" opacity="0.5" stroke="blue" points="243.9279287912538,245.32851971039287 196.53275308300627,249.79977705485337 "/><polyline class="polyline" opacity="0.5" stroke="blue" points="242.8975113381,245.69290452726875 196.39118807706376,250.66980556027806 "/><polyline class="polyline" opacity="0.5" stroke="blue" points="241.85295544470472,246.0368666985629 196.23299054583322,251.5380128137365 "/><polyline class="polyline" opacity="0.5" stroke="blue" points="240.79473103993178,246.36038844933287 196.05760752647694,252.4037779643052 "/><polyline class="polyline" opacity="0.5" stroke="blue" points="239.72330725335405,246.66345903829514 195.86450118016242,253.266470074167 "/><polyline class="polyline" opacity="0.5" stroke="blue" points="238.63915226277823,246.94607457858604 195.65314970088392,254.12544896834112 "/><polyline class="polyline" opacity="0.5" stroke="blue" points="237.54273315121048,247.20823786109634 195.42304819144923,254.98006609811642 "/><polyline class="polyline" opacity="0.5" stroke="blue" points="236.43451577304484,247.44995818058158 195.1737095046661,255.82966541576826 "/><polyline class="polyline" opacity="0.5" stroke="blue" points="235.31496462925153,247.671251164735 194.90466504790433,256.6735842581161 "/><polyline class="polyline" opacity="0.5" stroke="blue" points="234.18454275133627,247.87213860639739 194.6154655493585,257.51115423647155 "/><polyline class="polyline" opacity="0.5" stroke="blue" points="233.04371159383402,248.05264829906497 194.30568178449045,258.34170213052596 "/><polyline class="polyline" opacity="0.5" stroke="blue" points="231.89293093510116,248.21281387584412 193.97490526129323,259.1645507837409 "/><polyline class="polyline" opacity="0.5" stroke="blue" points="230.73265878616115,248.35267465198996 193.6227488631828,259.97901999782937 "/><polyline class="polyline" opacity="0.5" stroke="blue" points="229.56335130735837,248.4722754711534 193.24884744849453,260.78442742395106 "/><polyline class="polyline" opacity="0.5" stroke="blue" points="228.38546273257379,248.57166655545063 192.8528584057338,261.58008944828777 "/><polyline class="polyline" opacity="0.5" stroke="blue" points="227.1994453007501,248.65090335945865 192.4344621639041,262.36532206972754 "/><polyline class="polyline" opacity="0.5" stroke="blue" points="226.00574919447706,248.71004642822902 191.9933626574115,263.13944176744445 "/><polyline class="polyline" opacity="0.5" stroke="blue" points="224.80482248538289,248.7491612594028 191.52928774521882,263.90176635624255 "/><polyline class="polyline" opacity="0.5" stroke="blue" points="223.59711108608184,248.7683181694998 191.04198958409728,264.6516158276113 "/><polyline class="polyline" opacity="0.5" stroke="blue" points="222.38305870842265,248.76759216444677 190.53124495599306,265.38831317453594 "/><polyline class="polyline" opacity="0.5" stroke="blue" points="221.16310682778766,248.7470628143991 189.99685554969625,266.11118519820167 "/><polyline class="polyline" opacity="0.5" stroke="blue" points="219.9376946531898,248.70681413290384 189.43864819716276,266.8195632948397 "/><polyline class="polyline" opacity="0.5" stroke="blue" points="218.70725910291935,248.646934460443 188.85647506499967,267.51278422107174 "/><polyline class="polyline" opacity="0.5" stroke="blue" points="217.47223478548878,248.56751635238834 188.25021380177708,268.1901908362304 "/><polyline class="polyline" opacity="0.5" stroke="blue" points="216.23305398563068,248.46865647139265 187.61976764197877,268.85113282025094 "/><polyline class="polyline" opacity="0.5" stroke="blue" points="214.99014665510146,248.35045548423474 186.96506546754165,269.49496736585746 "/><polyline class="polyline" opacity="0.5" stroke="blue" points="213.74394040805007,248.21301796312903 186.28606182806953,270.12105984389245 "/><polyline class="polyline" opacity="0.5" stroke="blue" points="212.4948605207075,248.05645229150542 185.58273692092848,270.7287844407707 "/><polyline class="polyline" opacity="0.5" stroke="blue" points="211.2433299351602,247.8808705742575 184.85509653254843,271.31752476716974 "/><polyline class="polyline" opacity="0.5" stroke="blue" points="209.98976926697165,247.68638855245362 184.1031719423626,271.8866744371985 "/><polyline class="polyline" opacity="0.5" stroke="blue" points="208.73459681641694,247.47312552249872 183.32701979091314,272.4356376174221 "/><polyline class="polyline" opacity="0.5" stroke="blue" points="207.4782285831005,247.24120425973027 182.52672191373986,272.9638295452476 "/><polyline class="polyline" opacity="0.5" stroke="blue" points="206.22107828372856,246.990750946427 181.70238514274666,273.4706770163079 "/><polyline class="polyline" opacity="0.5" stroke="blue" points="204.96355737281212,246.72189510420552 180.85414107681046,273.95561884060703 "/><polyline class="polyline" opacity="0.5" stroke="blue" points="203.7060750660761,246.43476953077345 179.98214582345364,274.4181062673156 "/><polyline class="polyline" opacity="0.5" stroke="blue" points="202.44903836635729,246.12951024100698 179.0865797134513,274.8576033782263 "/><polyline class="polyline" opacity="0.5" stroke="blue" points="201.19285209177255,245.80625641231367 178.16764699028423,275.2735874499965 "/><polyline class="polyline" opacity="0.5" stroke="blue" points="199.93791890594602,245.46515033424032 177.22557547637706,275.6655492854201 "/><polyline class="polyline" opacity="0.5" stroke="blue" points="198.68463935008148,245.10633736228172 176.2606162180813,276.03299351407793 "/><polyline class="polyline" opacity="0.5" stroke="blue" points="197.43341187667383,244.7299658758408 175.2730431113748,276.3754388628214 "/><polyline class="polyline" opacity="0.5" stroke="blue" points="196.18463288465435,244.33618724029233 174.26315251025153,276.69241839664085 "/><polyline class="polyline" opacity="0.5" stroke="blue" points="194.93869675576573,243.92515577309348 173.23126281976843,276.9834797305655 "/><polyline class="polyline" opacity="0.5" stroke="blue" points="193.69599589196818,243.4970287138874 172.17771407570274,277.2481852133269 "/><polyline class="polyline" opacity="0.5" stroke="blue" points="192.45692075367813,243.051966198539 171.1028675127511,277.48611208360114 "/><polyline class="polyline" opacity="0.5" stroke="blue" points="191.22185989864604,242.59013123704253 170.00710512317318,277.696852599717 "/><polyline class="polyline" opacity="0.5" stroke="blue" points="189.99120002127873,242.11168969523638 168.89082920774487,277.8800141437923 "/><polyline class="polyline" opacity="0.5" stroke="blue" points="188.7653259922174,241.61681028025865 167.75446192084564,278.03521930131643 "/><polyline class="polyline" opacity="0.5" stroke="blue" points="187.54462089798244,241.105664529675 166.59844481145552,278.16210591725894 "/><polyline class="polyline" opacity="0.5" stroke="blue" points="186.3294660804997,240.57842680420794 165.42323836178443,278.26032712983374 "/><polyline class="polyline" opacity="0.5" stroke="blue" points="185.12024117632342,240.03527428399377 164.22932152519655,278.3295513830916 "/><polyline class="polyline" opacity="0.5" stroke="blue" points="183.91732415537388,239.4763869682925 163.01719126503153,278.36946241955275 "/><polyline class="polyline" opacity="0.5" stroke="blue" points="182.72109135900936,238.9019476785723 161.7873620958556,278.37975925412695 "/><polyline class="polyline" opacity="0.5" stroke="blue" points="181.53191753725446,238.3121420648902 160.54036562860824,278.3601561305907 "/><polyline class="polyline" opacity="0.5" stroke="blue" points="180.35017588500617,237.70715861548527 159.27675012103265,278.3103824619184 "/><polyline class="polyline" opacity="0.5" stroke="blue" points="179.1762380770429,237.08718866950161 157.99708003470585,278.23018275577675 "/><polyline class="polyline" opacity="0.5" stroke="blue" points="178.01047430166284,236.4524264327545 156.70193559990636,278.1193165265061 "/><polyline class="polyline" opacity="0.5" stroke="blue" points="176.85325329277669,235.80306899645072 155.39191238947436,277.97755819491755 "/><polyline class="polyline" opacity="0.5" stroke="blue" points="175.70494236028503,235.139316358773 154.067620902742,277.80469697723834 "/><polyline class="polyline" opacity="0.5" stroke="blue" points="174.56590741856778,234.4613714492343 152.729686160527,277.6005367645349 "/><polyline class="polyline" opacity="0.5" stroke="blue" points="173.43651301291754,233.76944015570825 151.3787473121024,277.36489599393894 "/><polyline class="polyline" opacity="0.5" stroke="blue" points="172.31712234374703,233.0637313540353 150.01545725496905,277.09760751299007 "/><polyline class="polyline" opacity="0.5" stroke="blue" points="171.2080972884024,232.34445694010634 148.64048226817792,276.79851843839793 "/><polyline class="polyline" opacity="0.5" stroke="blue" points="170.10979842041638,231.61183186431853 147.25450165986354,276.4674900105092 "/><polyline class="polyline" opacity="0.5" stroke="blue" points="169.02258502603428,230.86607416829975 145.85820742957094,276.104397444747 "/><polyline class="polyline" opacity="0.5" stroke="blue" points="167.9468151178467,230.10740502379048 144.45230394587233,275.7091297812668 "/><polyline class="polyline" opacity="0.5" stroke="blue" points="166.88284544536478,229.3360487735735 143.03750763969344,275.28158973405215 "/><polyline class="polyline" opacity="0.5" stroke="blue" points="165.8310315023725,228.55223297433542 141.6145467136861,274.8216935406442 "/><polyline class="polyline" opacity="0.5" stroke="blue" points="164.79172753089415,227.75618844134328 140.18416086790802,274.3293708136737 "/><polyline class="polyline" opacity="0.5" stroke="blue" points="163.76528652161159,226.94814929481473 138.74710104199033,273.80456439533276 "/><polyline class="polyline" opacity="0.5" stroke="blue" points="162.75206021057005,226.12835300785656 137.3041291738986,273.2472302158942 "/><polyline class="polyline" opacity="0.5" stroke="blue" points="161.7523990720112,225.2970404558459 135.85601797532036,272.6573371573532 "/><polyline class="polyline" opacity="0.5" stroke="blue" points="160.7666523071709,224.45445596712005 134.403550723634,272.0348669232326 "/><polyline class="polyline" opacity="0.5" stroke="blue" points="159.7951678288825,223.60084737484138 132.9475210703469,271.37981391555985 "/><polyline class="polyline" opacity="0.5" stroke="blue" points="158.83829224182534,222.73646606989718 131.48873286581602,270.6921851199884 "/><polyline class="polyline" opacity="0.5" stroke="blue" points="157.8963708182608,221.86156705469253 130.02800000000002,269.972 "/><polyline class="polyline" opacity="0.5" stroke="blue" points="156.96974746909711,220.97640899768717 128.56614625891717,269.21929040109035 "/><polyline class="polyline" opacity="0.5" stroke="blue" points="156.05876471012735,220.08125428852625 127.10400519642418,268.43410046580186 "/><polyline class="polyline" opacity="0.5" stroke="blue" points="155.1637636232847,219.17636909360814 125.64242002085999,267.616486560433 "/><polyline class="polyline" opacity="0.5" stroke="blue" points="154.2850838127623,218.26202341192976 124.18224349603906,266.7665172142149 "/><polyline class="polyline" opacity="0.5" stroke="blue" points="153.42306335584402,217.33849113104282 122.72433785601122,265.8842730717112 "/><polyline class="polyline" opacity="0.5" stroke="blue" points="152.57803874829676,216.40605008295273 121.26957473294657,264.9698468591567 "/><polyline class="polyline" opacity="0.5" stroke="blue" points="151.75034484417526,215.46498209978378 119.81883509744024,264.02334336541634 "/><polyline class="polyline" opacity="0.5" stroke="blue" points="150.9403147898945,214.51557306903265 118.37300921047408,263.0448794382083 "/><polyline class="polyline" opacity="0.5" stroke="blue" points="150.14827995242413,213.5581129882238 116.93299658620751,262.0345839961945 "/><polyline class="polyline" opacity="0.5" stroke="blue" points="149.37456984146533,212.59289601877705 115.49970596471535,260.99259805750773 "/><polyline class="polyline" opacity="0.5" stroke="blue" points="148.61951202547255,211.62022053889373 114.07405529372936,259.9190747852459 "/><polyline class="polyline" opacity="0.5" stroke="blue" points="147.88343204138482,210.64038919525805 112.65697171837878,258.81417955042366 "/><polyline class="polyline" opacity="0.5" stroke="blue" points="147.16665329793696,209.65370895335045 111.24939157787126,257.6780900128359 "/><polyline class="polyline" opacity="0.5" stroke="blue" points="146.46949697242323,208.66049114615916 109.85226040799094,256.51099622024674 "/><polyline class="polyline" opacity="0.5" stroke="blue" points="145.7922819007932,207.6610515210758 108.46653294823754,255.31310072628034 "/><polyline class="polyline" opacity="0.5" stroke="blue" points="145.13532446096139,206.65571028474997 107.09317315236542,254.0846187273453 "/><polyline class="polyline" opacity="0.5" stroke="blue" points="144.49893844921976,205.6447921456772 105.73315420102463,252.82577821888924 "/><polyline class="polyline" opacity="0.5" stroke="blue" points="143.8834349496482,204.62862635428553 104.38745851514625,251.53682017123248 "/><polyline class="polyline" opacity="0.5" stroke="blue" points="143.28912219642308,203.60754674028388 103.05707776865312,250.21799872519117 "/><polyline class="polyline" opacity="0.5" stroke="blue" points="142.71630542893192,202.5818917470261 101.74301289901354,248.86958140765182 "/><polyline class="polyline" opacity="0.5" stroke="blue" points="142.16528673961,201.55200446264354 100.44627411409832,247.49184936721593 "/><polyline class="polyline" opacity="0.5" stroke="blue" points="141.6363649144215,200.51823264768984 99.16788089373361,246.0850976299838 "/><polyline class="polyline" opacity="0.5" stroke="blue" points="141.12983526591876,199.48092875904092 97.90886198428355,244.64963537549977 "/><polyline class="polyline" opacity="0.5" stroke="blue" points="140.64598945881895,198.44044996978366 96.6702553845288,243.18578623282423 "/><polyline class="polyline" opacity="0.5" stroke="blue" points="140.18511532805155,197.39715818482549 95.45310832104428,241.69388859664892 "/><polyline class="polyline" opacity="0.5" stroke="blue" points="139.74749668923812,196.35142005195215 94.25847721121494,240.1742959633135 "/><polyline class="polyline" opacity="0.5" stroke="blue" points="139.33341314157644,195.3036069680548 93.08742761195936,238.62737728651942 "/><polyline class="polyline" opacity="0.5" stroke="blue" points="138.94313986311698,194.25409508024626 91.9410341521693,237.05351735247777 "/><polyline class="polyline" opacity="0.5" stroke="blue" points="138.57694739842702,193.20326528158046 90.82038044680138,235.4531171741607 "/><polyline class="polyline" opacity="0.5" stroke="blue" points="138.23510143865667,192.1515032010885 89.72655899049707,233.82659440425695 "/><polyline class="polyline" opacity="0.5" stroke="blue" points="137.91786259403116,191.09919918783845 88.66067102853303,232.17438376635673 "/><polyline class="polyline" opacity="0.5" stroke="blue" points="137.62548615881138,190.04674828872714 87.6238264028453,230.49693750381732 "/><polyline class="polyline" opacity="0.5" stroke="blue" points="137.3582218687788,188.99455021970752 86.61714337079852,228.79472584567597 "/><polyline class="polyline" opacity="0.5" stroke="blue" points="137.11631365131976,187.94300933015688 85.64174839431425,227.0682374888948 "/><polyline class="polyline" opacity="0.5" stroke="blue" points="136.89999936819905,186.89253456008632 84.69877589690198,225.31798009612567 "/><polyline class="polyline" opacity="0.5" stroke="blue" points="136.70951055113255,185.84353938989526 83.78936798608119,223.54448080809308 "/><polyline class="polyline" opacity="0.5" stroke="blue" points="136.54507213028808,184.7964417823743 82.91467413862203,221.74828676959086 "/><polyline class="polyline" opacity="0.5" stroke="blue" points="136.40690215586193,183.75166411665958 82.07585084597564,219.92996566797885 "/><polyline class="polyline" opacity="0.5" stroke="blue" points="136.29521151290118,182.70963311384497 81.27406121721444,218.09010628296048 "/><polyline class="polyline" opacity="0.5" stroke="blue" points="136.2102036295622,181.67077975396094 80.51047453675406,216.22931904629868 "/><polyline class="polyline" opacity="0.5" stroke="blue" points="136.15207417901806,180.63553918403326 79.78626577408698,214.34823661001218 "/><polyline class="polyline" opacity="0.5" stroke="blue" points="136.12101077525185,179.60435061693642 79.10261504271658,212.4475144214571 "/><polyline class="polyline" opacity="0.5" stroke="blue" points="136.1171926629947,178.57765722076587 78.46070700545671,210.52783130357335 "/><polyline class="polyline" opacity="0.5" stroke="blue" points="136.14079040209413,177.555905998456 77.86173022323162,208.58989003842802 "/><polyline class="polyline" opacity="0.5" stroke="blue" points="136.19196554662156,176.53954765738175 77.30687644450252,206.6344179520503 "/><polyline class="polyline" opacity="0.5" stroke="blue" points="136.27087031905526,175.5290364686859 76.7973398324377,204.6621674983922 "/><polyline class="polyline" opacity="0.5" stroke="blue" points="136.37764727990003,174.52483011608837 76.33431612695276,202.67391684010173 "/><polyline class="polyline" opacity="0.5" stroke="blue" points="136.51242899313357,173.52738953394035 75.91900173876316,200.67047042362745 "/><polyline class="polyline" opacity="0.5" stroke="blue" points="136.67533768789494,172.5371787343021 75.55259277262383,198.65265954601293 "/><polyline class="polyline" opacity="0.5" stroke="blue" points="136.86648491686117,171.55466462283283 75.23628397697468,196.62134291056196 "/><polyline class="polyline" opacity="0.5" stroke="blue" points="137.08597121178306,170.58031680329734 74.97126761727502,194.5774071683877 "/><polyline class="polyline" opacity="0.5" stroke="blue" points="137.33388573668367,169.61460737051132 74.75873227038714,192.52176744267967 "/><polyline class="polyline" opacity="0.5" stroke="blue" points="137.6103059392476,168.6580106915608 74.59986153746718,190.4553678323386 "/><polyline class="polyline" opacity="0.5" stroke="blue" points="137.9152972009624,167.71100317515305 74.49583267294102,188.3791818914531 "/><polyline class="polyline" opacity="0.5" stroke="blue" points="138.24891248659884,166.77406302897435 74.44781512728184,186.29421308090477 "/><polyline class="polyline" opacity="0.5" stroke="blue" points="138.6111919936481,165.8476700049527 74.4569690014711,184.20149518821086 "/><polyline class="polyline" opacity="0.5" stroke="blue" points="139.00216280236145,164.93230513234423 74.52444341121125,182.10209271152584 "/><polyline class="polyline" opacity="0.5" stroke="blue" points="139.4218385270669,164.02845043858883 74.65137475917587,179.99710120355243 "/><polyline class="polyline" opacity="0.5" stroke="blue" points="139.8702189694659,163.13658865790353 74.83888491382548,177.88764757093165 "/><polyline class="polyline" opacity="0.5" stroke="blue" points="140.34728977463845,162.25720292761224 75.08807929359027,175.77489032452033 "/><polyline class="polyline" opacity="0.5" stroke="blue" points="140.85302209051605,161.3907764722348 75.40004485552419,173.66001977579444 "/><polyline class="polyline" opacity="0.5" stroke="blue" points="141.38737223160317,160.53779227539263 75.77584798787353,171.54425817447407 "/><polyline class="polyline" opacity="0.5" stroke="blue" points="141.95028134775674,159.6987327396152 76.21653230637027,169.42885978231718 "/><polyline class="polyline" opacity="0.5" stroke="blue" points="142.54167509885514,158.87407933416824 76.7231163544667,167.3151108779108 "/><polyline class="polyline" opacity="0.5" stroke="blue" points="143.161463336212,158.06431223105398 77.29659120816702,165.20432968716727 "/><polyline class="polyline" opacity="0.5" stroke="blue" points="143.8095397916113,157.26990992937215 77.93791798659038,163.09786623414846 "/><polyline class="polyline" opacity="0.5" stroke="blue" points="144.48578177485902,156.49134886826562 78.64802526990763,160.99710210676471 "/><polyline class="polyline" opacity="0.5" stroke="blue" points="145.19004988076708,155.72910302871048 79.42780642685099,158.90345013184557 "/><polyline class="polyline" opacity="0.5" stroke="blue" points="145.92218770649885,154.98364352445086 80.27811685457719,156.81835395405827 "/><polyline class="polyline" opacity="0.5" stroke="blue" points="146.6820215802218,154.2554381824157 81.19977113429138,154.74328751315414 "/><polyline class="polyline" opacity="0.5" stroke="blue" points="147.469360302023,153.54495111299744 82.19354010669726,152.67975441406605 "/><polyline class="polyline" opacity="0.5" stroke="blue" points="148.2839948980549,152.85264227060975 83.26014787203147,150.62928718444306 "/><polyline class="polyline" opacity="0.5" stroke="blue" points="149.12569838888356,152.17896700498625 84.40026872016966,148.59344641433032 "/><polyline class="polyline" opacity="0.5" stroke="blue" points="149.994225573018,151.52437560372132 85.61452399704596,146.57381977284507 "/><polyline class="polyline" opacity="0.5" stroke="blue" points="150.88931282659814,150.88931282659814 86.90347891441365,144.57202089690082 "/><polyline class="polyline" opacity="0.5" stroke="blue" points="151.81067792022094,150.27421743228984 88.26763931078719,142.58968814726745 "/><polyline class="polyline" opacity="0.5" stroke="blue" points="152.7580198538754,149.6795216980621 89.7074483722331,140.62848322755008 "/><polyline class="polyline" opacity="0.5" stroke="blue" points="153.7310187109532,149.10565093314932 91.22328332253038,138.69008966200994 "/><polyline class="polyline" opacity="0.5" stroke="blue" points="154.7293355322862,148.55302298651617 92.8154520930732,136.7762111285468 "/><polyline class="polyline" opacity="0.5" stroke="blue" points="155.75261221115093,148.02204774975823 94.48418998376462,134.88856964361224 "/><polyline class="polyline" opacity="0.5" stroke="blue" points="156.80047141015933,147.51312665593662 96.22965632700675,133.028903596335 "/><polyline class="polyline" opacity="0.5" stroke="blue" points="157.87251650093168,147.02665217518125 98.05193116775384,131.19896562970663 "/><polyline class="polyline" opacity="0.5" stroke="blue" points="158.96833152742516,146.56300730793393 99.95101197344295,129.40052036730026 "/><polyline class="polyline" opacity="0.5" stroke="blue" points="160.08748119375676,146.122565076743 101.92681038842994,127.63534198468476 "/><polyline class="polyline" opacity="0.5" stroke="blue" points="161.22951087732906,145.70568801755368 103.97914904835534,125.90521162544081 "/><polyline class="polyline" opacity="0.5" stroke="blue" points="162.39394666802582,145.31272767147516 106.10775847060596,124.21191466249229 "/><polyline class="polyline" opacity="0.5" stroke="blue" points="163.58029543420636,144.94402407803452 108.31227403774244,122.55723780632174 "/><polyline class="polyline" opacity="0.5" stroke="blue" points="164.78804491617717,144.59990527096073 110.59223309139469,120.94296606256061 "/><polyline class="polyline" opacity="0.5" stroke="blue" points="166.0166638477731,144.2806867775662 112.94707215469606,119.37087954240612 "/><polyline class="polyline" opacity="0.5" stroke="blue" points="167.2656021066225,143.98667112282052 115.37612430180599,117.84275013033373 "/><polyline class="polyline" opacity="0.5" stroke="blue" points="168.5342908936183,143.7181473392329 117.87861669346901,116.36033801462689 "/><polyline class="polyline" opacity="0.5" stroke="blue" points="169.8221429420488,143.47539048367645 120.45366829783637,114.92538808733983 "/><polyline class="polyline" opacity="0.5" stroke="blue" points="171.12855275678288,143.25866116230725 123.1002878159566,113.53962622143052 "/><polyline class="polyline" opacity="0.5" stroke="blue" points="172.4528968838309,143.06820506474037 125.81737183138173,112.20475543394747 "/><polyline class="polyline" opacity="0.5" stroke="blue" points="173.79453421053347,142.90425250865462 128.6037032032574,110.92245194530751 "/><polyline class="polyline" opacity="0.5" stroke="blue" points="175.15280629655453,142.76701799600485 131.4579497220306,109.69436114587137 "/><polyline class="polyline" opacity="0.5" stroke="blue" points="176.5270377357744,142.6566997820188 134.37866304652118,108.52209348217573 "/><polyline class="polyline" opacity="0.5" stroke="blue" points="177.91653654910218,142.57347945815505 137.36427794057383,107.40722027632683 "/><polyline class="polyline" opacity="0.5" stroke="blue" points="179.32059460813923,142.51752155019128 140.4131118267864,106.35126949317005 "/><polyline class="polyline" opacity="0.5" stroke="blue" points="180.7384880895431,142.4889731325992 143.52336467394164,105.35572147092871 "/><polyline class="polyline" opacity="0.5" stroke="blue" points="182.1694779598506,142.4879634603499 146.69311923370773,104.42200463202423 "/><polyline class="polyline" opacity="0.5" stroke="blue" points="183.61281049043447,142.51460361927062 149.92034164095656,103.5514911917476 "/><polyline class="polyline" opacity="0.5" stroke="blue" points="185.06771780217292,142.5689861960508 153.20288239063595,102.74549288333301 "/><polyline class="polyline" opacity="0.5" stroke="blue" points="186.53341843932463,142.6511849689668 156.53847770256257,102.00525671876963 "/><polyline class="polyline" opacity="0.5" stroke="blue" points="188.00911797200635,142.76125462036055 159.9247512837524,101.3319608053765 "/><polyline class="polyline" opacity="0.5" stroke="blue" points="189.49400962658325,142.89923047186903 163.35921649600957,100.72671023872908 "/><polyline class="polyline" opacity="0.5" stroke="blue" points="190.9872749431877,143.06512824336122 166.8392789344274,100.19053309297048 "/><polyline class="polyline" opacity="0.5" stroke="blue" points="192.4880844594914,143.25894383649023 170.36223942025782,99.72437652984046 "/><polyline class="polyline" opacity="0.5" stroke="blue" points="193.99559841977032,143.48065314371948 173.92529740928575,99.32910304790622 "/><polyline class="polyline" opacity="0.5" stroke="blue" points="195.50896750820993,143.7302118836254 177.52555481439546,99.00548689347568 "/><polyline class="polyline" opacity="0.5" stroke="blue" points="197.02733360531533,144.0075554632214 181.1600202384938,98.75421065449923 "/><polyline class="polyline" opacity="0.5" stroke="blue" points="198.54983056620523,144.31259886798418 184.82561361133892,98.57586205842604 "/><polyline class="polyline" opacity="0.5" stroke="blue" points="200.07558501949154,144.64523658019863 188.519171221178,98.47093099445681 "/><polyline class="polyline" opacity="0.5" stroke="blue" points="201.60371718536643,145.0053425261663 192.2374511294003,98.43980677994197 "/><polyline class="polyline" opacity="0.5" stroke="blue" points="203.13334171144646,145.3927700527513 195.97713895373306,98.48277568979368 "/><polyline class="polyline" opacity="0.5" stroke="blue" points="204.66356852485285,145.80735193366078 199.73485400283295,98.60001876672683 "/><polyline class="polyline" opacity="0.5" stroke="blue" points="206.19350369894485,146.2489004057803 203.50715574252453,98.7916099289188 "/><polyline class="polyline" opacity="0.5" stroke="blue" points="207.7222503330593,146.7172072358027 207.29055057138737,99.05751439028161 "/><polyline class="polyline" opacity="0.5" stroke="blue" points="209.24890944355792,147.21204381730894 211.08149888097074,99.39758740698788 "/><polyline class="polyline" opacity="0.5" stroke="blue" points="210.7725808644306,147.73316129837266 214.87642237360845,99.81157336219191 "/><polyline class="polyline" opacity="0.5" stroke="blue" points="212.29236415566396,148.2802907396788 218.67171160867534,100.29910519904945 "/><polyline class="polyline" opacity="0.5" stroke="blue" points="213.80735951754292,148.85314330305857 222.4637337461627,100.85970421018595 "/><polyline class="polyline" opacity="0.5" stroke="blue" points="215.31666870902208,149.45141047025643 226.24884045470068,101.49278018969854 "/><polyline class="polyline" opacity="0.5" stroke="blue" points="216.8193959682813,150.07476429166118 230.02337594964717,102.19763195163424 "/><polyline class="polyline" opacity="0.5" stroke="blue" points="218.31464893355857,150.72285766464418 233.78368512557824,102.97344821667286 "/><polyline class="polyline" opacity="0.5" stroke="blue" points="219.80153956234383,151.39532464106497 237.52612174652495,103.81930886648534 "/><polyline class="polyline" opacity="0.5" stroke="blue" points="221.27918504701026,152.09178076341792 241.24705665656234,104.73418656295826 "/><polyline class="polyline" opacity="0.5" stroke="blue" points="222.74670872496583,152.81182342901394 244.94288597293894,105.7169487271942 "/><polyline class="polyline" opacity="0.5" stroke="blue" points="224.2032409814126,153.55503228150775 248.61003922378302,106.76635987093567 "/><polyline class="polyline" opacity="0.5" stroke="blue" points="225.64792014282165,154.3209696290044 252.24498739260014,107.88108427084883 "/><polyline class="polyline" opacity="0.5" stroke="blue" points="227.0798933592501,155.10918088790123 255.8442508322292,109.05968897394965 "/><polyline class="polyline" opacity="0.5" stroke="blue" points="228.49831747366167,155.91919505155093 259.4044070117054,110.30064712040073 "/><polyline class="polyline" opacity="0.5" stroke="blue" points="229.9023598764449,156.75052518275874 262.9220980605188,111.60234156795103 "/><polyline class="polyline" opacity="0.5" stroke="blue" points="231.29119934336785,157.60266892906333 266.3940380761026,112.96306880047261 "/><polyline class="polyline" opacity="0.5" stroke="blue" points="232.66402685525665,158.47510905968642 269.81702016197926,114.38104310136555 "/><polyline class="polyline" opacity="0.5" stroke="blue" points="234.0200463977426,159.36731402298022 273.1879231658507,115.85440097109473 "/><polyline class="polyline" opacity="0.5" stroke="blue" points="235.35847573948217,160.27873852314718 276.50371808899246,117.3812057667764 "/><polyline class="polyline" opacity="0.5" stroke="blue" points="236.67854718732002,161.20882411495649 279.7614741405936,118.9594525405825 "/><polyline class="polyline" opacity="0.5" stroke="blue" points="237.97950831694072,162.15699981514064 282.9583644131601,120.58707305277449 "/><polyline class="polyline" opacity="0.5" stroke="blue" points="239.26062267762825,163.12268272911274 286.0916711577088,122.2619409344255 "/><polyline class="polyline" opacity="0.5" stroke="blue" points="240.52117046983534,164.10527869161402 289.15879064023255,123.98187697434226 "/><polyline class="polyline" opacity="0.5" stroke="blue" points="241.76044919434838,165.10418291987003 292.1572375637544,125.74465450435913 "/><polyline class="polyline" opacity="0.5" stroke="blue" points="242.97777427192554,166.11878067781336 295.08464904320886,127.548004857051 "/><polyline class="polyline" opacity="0.5" stroke="blue" points="244.17247963237452,167.14844794990952 297.93878812332485,129.3896228699808 "/><polyline class="polyline" opacity="0.5" stroke="blue" points="245.34391827213383,168.19255212311322 300.717546832655,131.26717241087348 "/><polyline class="polyline" opacity="0.5" stroke="blue" points="246.4914627795156,169.25045267547182 303.4189487698176,133.17829189856815 "/><polyline class="polyline" opacity="0.5" stroke="blue" points="247.6145058268712,170.32150186989463 306.0411512209222,135.12059979524966 "/><polyline class="polyline" opacity="0.5" stroke="blue" points="248.71246062903765,171.40504545160667 308.5824468099503,137.09170004626753 "/><polyline class="polyline" opacity="0.5" stroke="blue" points="249.784761367525,172.50042334781745 311.0412646865873,139.0891874448253 "/><polyline class="polyline" opacity="0.5" stroke="blue" points="250.83086358000747,173.60697036814537 313.41617125859113,141.11065289992746 "/></svg>
