<?xml version="1.0" encoding="UTF-8"?>
<!DOCTYPE svg PUBLIC "-//W3C//DTD SVG 1.1//EN"
    "http://www.w3.org/Graphics/SVG/1.1/DTD/svg11.dtd"><svg width="400" height="400" stroke="black" fill="none" fill-opacity="0.75" font-size="14" font-style="italic" font-family="sans-serif" xmlns="http://www.w3.org/2000/svg" xmlns:xlink="http://www.w3.org/1999/xlink" version="1.1"><filter id="blur1"><feGaussianBlur stdDeviation="0.5"/></filter><rect width="100%" height="100%" fill="white" stroke="none" fill-opacity="1"/><rect class="bg" fill="black" width="100%" height="100%" stroke="none" fill-opacity="1"/><polyline class="polyline" opacity="0.5" stroke="blue" points="257.9038470554832,181.45712658094055 327.7322860238821,158.51131548798008 "/><polyline class="polyline" opacity="0.5" stroke="blue" points="258.7579611534201,182.48573265360199 329.43130227973006,160.24685592346657 "/><polyline class="polyline" opacity="0.5" stroke="blue" points="259.5811972407813,183.51932655445557 331.0379612273881,161.9885045180748 "/><polyline class="polyline" opacity="0.5" stroke="blue" points="260.37325152934227,184.55730900704225 332.5522064816282,163.73432970142346 "/><polyline class="polyline" opacity="0.5" stroke="blue" points="261.13384437875004,185.59908333150844 333.9741029197597,165.48243672405388 "/><polyline class="polyline" opacity="0.5" stroke="blue" points="261.86272018607167,186.64405596952085 335.3038326425308,167.23097023522251 "/><polyline class="polyline" opacity="0.5" stroke="blue" points="262.5596472438014,187.69163699340635 336.54169075131904,168.97811663690476 "/><polyline class="polyline" opacity="0.5" stroke="blue" points="263.22441756742404,188.74124059888624 337.6880809682847,170.72210621499855 "/><polyline class="polyline" opacity="0.5" stroke="blue" points="263.8568466936825,189.79228558083724 338.7435111255562,172.46121504990444 "/><polyline class="polyline" opacity="0.5" stroke="blue" points="264.45677345074404,190.84419579157384 339.7085885487802,174.19376670975362 "/><polyline class="polyline" opacity="0.5" stroke="blue" points="265.0240597014992,191.8964005812088 340.5840153594861,175.91813373056002 "/><polyline class="polyline" opacity="0.5" stroke="blue" points="265.5585900612615,192.94833521970983 341.3705837197316,177.63273888848175 "/><polyline class="polyline" opacity="0.5" stroke="blue" points="266.06027159116655,193.99944130033208 342.069171041406,179.3360562701904 "/><polyline class="polyline" opacity="0.5" stroke="blue" points="266.52903346859017,195.0491671241649 342.68073518140534,181.02661214806454 "/><polyline class="polyline" opacity="0.5" stroke="blue" points="266.96482663592667,196.09696806559026 343.20630964265996,182.70298566754764 "/><polyline class="polyline" opacity="0.5" stroke="blue" points="267.36762342907815,197.1423069185075 343.6469987997197,184.36380935453985 "/><polyline class="polyline" opacity="0.5" stroke="blue" points="267.7374171870167,198.18465422323393 344.00397316628124,186.00776945113694 "/><polyline class="polyline" opacity="0.5" stroke="blue" points="268.07422184378254,199.22348857404486 344.27846472071485,187.63360608838016 "/><polyline class="polyline" opacity="0.5" stroke="blue" points="268.37807150428114,200.25829690736862 344.47176230429636,189.2401133049572 "/><polyline class="polyline" opacity="0.5" stroke="blue" points="268.6490200052358,201.28857477070093 344.5852071055156,190.82613892098496 "/><polyline class="polyline" opacity="0.5" stroke="blue" points="268.887140462643,202.3138265723517 344.6201882425003,192.39058427612895 "/><polyline class="polyline" opacity="0.5" stroke="blue" points="269.0925248070618,203.3335658121813 344.5781384542951,193.93240384136428 "/><polyline class="polyline" opacity="0.5" stroke="blue" points="269.2652833080544,204.34731529352732 344.46052991045997,195.45060471367609 "/><polyline class="polyline" opacity="0.5" stroke="blue" points="269.4055440890695,205.35460731656283 344.2688701472198,196.9442460029288 "/><polyline class="polyline" opacity="0.5" stroke="blue" points="269.51345263403954,206.3549838533651 344.00469813720713,198.41243812001463 "/><polyline class="polyline" opacity="0.5" stroke="blue" points="269.5891712869318,207.34799670500917 343.66958049870334,199.85434197522744 "/><polyline class="polyline" opacity="0.5" stroke="blue" points="269.632878745466,208.33320764103453 343.26510784919765,201.26916809560055 "/><polyline class="polyline" opacity="0.5" stroke="blue" points="269.6447695501769,209.3101885216624 342.79289130705797,202.65617566970505 "/><polyline class="polyline" opacity="0.5" stroke="blue" points="269.6250535699647,210.2785214031698 342.25455914414147,204.01467152813234 "/><polyline class="polyline" opacity="0.5" stroke="blue" points="269.5739554852404,211.23779862685217 341.6517535912682,205.3440090675838 "/><polyline class="polyline" opacity="0.5" stroke="blue" points="269.49171426973476,212.18762289202857 340.98612779764187,206.64358712617152 "/><polyline class="polyline" opacity="0.5" stroke="blue" points="269.37858267199556,213.1276073135649 340.25934294452054,207.9128488171935 "/><polyline class="polyline" opacity="0.5" stroke="blue" points="269.234826697563,214.0573754644079 339.4730655127297,209.1512803282975 "/><polyline class="polyline" opacity="0.5" stroke="blue" points="269.06072509276254,214.976561403639 338.6289647029532,210.3584096925847 "/><polyline class="polyline" opacity="0.5" stroke="blue" points="268.8565688310178,215.88480969057062 337.7287100071507,211.53380553783867 "/><polyline class="polyline" opacity="0.5" stroke="blue" points="268.6226606025371,216.78177538541826 336.7739689289109,212.6770758196947 "/><polyline class="polyline" opacity="0.5" stroke="blue" points="268.35931430818613,217.6671240370918 335.7664048500852,213.78786654419375 "/><polyline class="polyline" opacity="0.5" stroke="blue" points="268.0668545583118,218.54053165865588 334.70767504061547,214.86586048479882 "/><polyline class="polyline" opacity="0.5" stroke="blue" points="267.74561617723884,219.4016846910144 333.59942880811013,215.9107758985871 "/><polyline class="polyline" opacity="0.5" stroke="blue" points="267.39594371411647,220.25027995537823 332.44330578340373,216.92236524597521 "/><polyline class="polyline" opacity="0.5" stroke="blue" points="267.01819096074564,221.08602459507568 331.2409343380624,217.90041391798718 "/><polyline class="polyline" opacity="0.5" stroke="blue" points="266.61272047697605,221.90863600726618 329.99393012957717,218.84473897473575 "/><polyline class="polyline" opacity="0.5" stroke="blue" points="266.1799031242163,222.71784176511505 328.70389476979744,219.75518789846038 "/><polyline class="polyline" opacity="0.5" stroke="blue" points="265.72011760755953,223.5133795309842 327.37241461201626,220.63163736415012 "/><polyline class="polyline" opacity="0.5" stroke="blue" points="265.2337500269824,224.29499696118967 326.0010596520061,221.47399203047672 "/><polyline class="polyline" opacity="0.5" stroke="blue" points="264.7211934380373,225.06245160287 324.59138253822863,222.28218335347503 "/><polyline class="polyline" opacity="0.5" stroke="blue" points="264.1828474224136,225.81551078350287 323.1449176863937,223.05616842513092 "/><polyline class="polyline" opacity="0.5" stroke="blue" points="263.61911766870816,226.553951493599 321.66318049352367,223.79592883877797 "/><polyline class="polyline" opacity="0.5" stroke="blue" points="263.0304155637051,227.27756026309356 320.1476666466848,224.50146958295608 "/><polyline class="polyline" opacity="0.5" stroke="blue" points="262.4171577944275,227.98613303194458 318.59985152157316,225.1728179651532 "/><polyline class="polyline" opacity="0.5" stroke="blue" points="261.7797659611912,228.67947501543708 317.0211896661891,225.8100225666337 "/><polyline class="polyline" opacity="0.5" stroke="blue" points="261.11866620185236,229.3574005646804 315.4131143649017,226.41315222935248 "/><polyline class="polyline" opacity="0.5" stroke="blue" points="260.43428882741114,230.01973302277332 313.77703727827827,226.98229507576454 "/><polyline class="polyline" opacity="0.5" stroke="blue" points="259.7270679690994,230.66630457709863 312.1143481541528,227.51755756216255 "/><polyline class="polyline" opacity="0.5" stroke="blue" points="258.99744123705244,231.29695610819613 310.42641460550664,228.0190635660116 "/><polyline class="polyline" opacity="0.5" stroke="blue" points="258.24584939063425,231.91153703564848 308.71458195084995,228.48695350760102 "/><polyline class="polyline" opacity="0.5" stroke="blue" points="257.47273602045914,232.50990516140035 306.98017311291545,228.92138350619183 "/><polyline class="polyline" opacity="0.5" stroke="blue" points="256.6785472421261,233.09192651091723 305.22448857159947,229.3225245707152 "/><polyline class="polyline" opacity="0.5" stroke="blue" points="255.86373140165824,233.65747517257537 303.44880636722337,229.69056182495865 "/><polyline class="polyline" opacity="0.5" stroke="blue" points="255.02873879261597,234.20643313565935 301.6543821503209,230.0256937670734 "/><polyline class="polyline" opacity="0.5" stroke="blue" points="254.17402138483044,234.7386901273296 299.8424492742989,230.3281315631414 "/><polyline class="polyline" opacity="0.5" stroke="blue" points="253.30003256468373,235.25414344890638 298.0142189274574,230.59809837445405 "/><polyline class="polyline" opacity="0.5" stroke="blue" points="252.40722688684323,235.75269781180285 296.17088030099876,230.83582871807954 "/><polyline class="polyline" opacity="0.5" stroke="blue" points="251.49605983733866,236.2342651734241 294.3136007897949,231.04156786022656 "/><polyline class="polyline" opacity="0.5" stroke="blue" points="250.56698760785505,236.69876457333473 292.4435262228237,231.21557124185247 "/><polyline class="polyline" opacity="0.5" stroke="blue" points="249.62046688109822,237.14612196998394 290.5617811203214,231.35810393591078 "/><polyline class="polyline" opacity="0.5" stroke="blue" points="248.65695462707612,237.57627007825994 288.66946897483956,231.46944013558624 "/><polyline class="polyline" opacity="0.5" stroke="blue" points="247.67690791012552,237.98914820813525 286.7676725535229,231.54986267282646 "/><polyline class="polyline" opacity="0.5" stroke="blue" points="246.68078370650238,238.384702104647 284.8574542190614,231.59966256644395 "/><polyline class="polyline" opacity="0.5" stroke="blue" points="245.66903873234276,238.76288378944463 282.9398562668916,231.61913859903342 "/><polyline class="polyline" opacity="0.5" stroke="blue" points="244.64212928179145,239.12365140412356 281.0159012763518,231.60859692192582 "/><polyline class="polyline" opacity="0.5" stroke="blue" points="243.60051107508733,239.46696905555024 279.0865924736115,231.5683506873789 "/><polyline class="polyline" opacity="0.5" stroke="blue" points="242.54463911638513,239.79280666337118 277.1529141043137,231.4987197071905 "/><polyline class="polyline" opacity="0.5" stroke="blue" points="241.474967561088,240.1011398098869 275.2158318139782,231.4000301369049 "/><polyline class="polyline" opacity="0.5" stroke="blue" points="240.3919495924581,240.3919495924581 273.2762930343256,231.27261418477744 "/><polyline class="polyline" opacity="0.5" stroke="blue" points="239.29603730726708,240.66522247860217 271.33522737377854,231.11680984465227 "/><polyline class="polyline" opacity="0.5" stroke="blue" points="238.1876816102444,240.9209501639241 269.3935470105015,230.93296065190623 "/><polyline class="polyline" opacity="0.5" stroke="blue" points="237.06733211707743,241.15912943301709 267.4521470864306,230.72141546160992 "/><polyline class="polyline" opacity="0.5" stroke="blue" points="235.93543706571373,241.3797620234573 265.5119061008364,230.48252824805584 "/><polyline class="polyline" opacity="0.5" stroke="blue" points="234.79244323571362,241.58285449300527 263.5736863020481,230.2166579248067 "/><polyline class="polyline" opacity="0.5" stroke="blue" points="233.63879587539952,241.7684180901198 261.63833407604864,229.92416818441836 "/><polyline class="polyline" opacity="0.5" stroke="blue" points="232.47493863654728,241.93646862787818 259.7066803307285,229.60542735699792 "/><polyline class="polyline" opacity="0.5" stroke="blue" points="231.30131351636268,242.08702636138895 257.7795408746573,229.2608082867603 "/><polyline class="polyline" opacity="0.5" stroke="blue" points="230.11836080648783,242.2201158687746 255.8577167893038,228.89068822575456 "/><polyline class="polyline" opacity="0.5" stroke="blue" points="228.92651904878062,242.33576593579357 253.9419947936997,228.49544874393595 "/><polyline class="polyline" opacity="0.5" stroke="blue" points="227.72622499761172,242.43400944416243 252.03314760060485,228.07547565476716 "/><polyline class="polyline" opacity="0.5" stroke="blue" points="226.51791358842408,242.51488326363273 250.13193426328996,227.63115895553904 "/><polyline class="polyline" opacity="0.5" stroke="blue" points="225.3020179123013,242.5784281478687 248.2391005121089,227.16289278160755 "/><polyline class="polyline" opacity="0.5" stroke="blue" points="224.07896919629246,242.6246886341669 246.35537908008533,226.67107537375182 "/><polyline class="polyline" opacity="0.5" stroke="blue" points="222.84919678924288,242.6537129470502 244.48149001678644,226.15610905786352 "/><polyline class="polyline" opacity="0.5" stroke="blue" points="221.61312815288198,242.66555290576505 242.61814098980548,225.6184002361858 "/><polyline class="polyline" opacity="0.5" stroke="blue" points="220.37118885792185,242.6602638357027 240.7660275732176,225.05835938932552 "/><polyline class="polyline" opacity="0.5" stroke="blue" points="219.12380258492246,242.6379044837618 238.9258335224157,224.47640108826846 "/><polyline class="polyline" opacity="0.5" stroke="blue" points="217.87139112968123,242.59853693766308 237.09823103477328,223.87294401563335 "/><polyline class="polyline" opacity="0.5" stroke="blue" points="216.61437441290872,242.54222654922282 235.28388099561874,223.24841099540512 "/><polyline class="polyline" opacity="0.5" stroke="blue" points="215.3531704939527,242.4690418615865 233.48343320904135,222.603229030392 "/><polyline class="polyline" opacity="0.5" stroke="blue" points="214.08819558833824,242.37905454042084 231.69752661308422,221.93782934665592 "/><polyline class="polyline" opacity="0.5" stroke="blue" points="212.81986408889185,242.27233930905714 229.92678947891204,221.25264744416882 "/><polyline class="polyline" opacity="0.5" stroke="blue" points="211.54858859022227,242.14897388757538 228.17183959357328,220.5481231529493 "/><polyline class="polyline" opacity="0.5" stroke="blue" points="210.27477991633216,242.0090389358155 226.4332844260074,219.8247006939388 "/><polyline class="polyline" opacity="0.5" stroke="blue" points="208.99884715113922,241.85261800029826 224.7117212759773,219.08282874387547 "/><polyline class="polyline" opacity="0.5" stroke="blue" points="207.7211976716859,241.67979746503426 223.0077374056368,218.32296050342728 "/><polyline class="polyline" opacity="0.5" stroke="blue" points="206.44223718382275,241.49066650619858 221.32191015347047,217.54555376784572 "/><polyline class="polyline" opacity="0.5" stroke="blue" points="205.16236976014974,241.2853170506434 219.65480703037298,216.75107099940186 "/><polyline class="polyline" opacity="0.5" stroke="blue" points="203.88199788000574,241.06384373821993 218.0069857976622,215.93997940086726 "/><polyline class="polyline" opacity="0.5" stroke="blue" points="202.60152247129662,240.82634388787704 216.37899452684744,215.11275098929988 "/><polyline class="polyline" opacity="0.5" stroke="blue" points="201.32134295395647,240.57291746750312 214.77137164100526,214.269862669397 "/><polyline class="polyline" opacity="0.5" stroke="blue" points="200.04185728483824,240.30366706747355 213.1846459376399,213.41179630567385 "/><polyline class="polyline" opacity="0.5" stroke="blue" points="198.76346200383227,240.01869787786566 211.61933659293717,212.5390387927269 "/><polyline class="polyline" opacity="0.5" stroke="blue" points="197.48655228101424,239.7181176692997 210.07595314734854,211.65208212283946 "/><polyline class="polyline" opacity="0.5" stroke="blue" points="196.2115219646251,239.4020367773627 208.55499547247274,210.75142345018494 "/><polyline class="polyline" opacity="0.5" stroke="blue" points="194.93876362968862,239.07056809057053 207.0569537192322,209.837565150884 "/><polyline class="polyline" opacity="0.5" stroke="blue" points="193.66866862707334,238.7238270418207 205.58230824737524,208.91101487816866 "/><polyline class="polyline" opacity="0.5" stroke="blue" points="192.40162713280742,238.36193160328747 204.1315295363646,207.97228561190846 "/><polyline class="polyline" opacity="0.5" stroke="blue" points="191.13802819745743,237.9850022847083 202.70507807775084,207.0218957017512 "/><polyline class="polyline" opacity="0.5" stroke="blue" points="189.87825979538232,237.593162135009 201.30340424916017,206.06036890313288 "/><polyline class="polyline" opacity="0.5" stroke="blue" points="188.622708873676,237.18653674721372 199.92694817006577,205.0882344054123 "/><polyline class="polyline" opacity="0.5" stroke="blue" points="187.37176140061288,236.76525426658304 198.57613953954788,204.10602685138724 "/><polyline class="polyline" opacity="0.5" stroke="blue" points="186.12580241341203,236.3294454019226 197.25139745628752,203.11428634745275 "/><polyline class="polyline" opacity="0.5" stroke="blue" points="184.88521606513592,235.87924344000223 195.95313022107942,202.11355846366516 "/><polyline class="polyline" opacity="0.5" stroke="blue" points="183.65038567054128,235.41478426302396 194.68173512219218,201.1043942229822 "/><polyline class="polyline" opacity="0.5" stroke="blue" points="182.42169375069966,234.93620636907545 193.43759820394683,200.08735007895442 "/><polyline class="polyline" opacity="0.5" stroke="blue" points="181.19952207620614,234.44365089550297 192.22109401893096,199.06298788115225 "/><polyline class="polyline" opacity="0.5" stroke="blue" points="179.98425170879509,233.93726164513657 191.0325853643118,198.0318748276232 "/><polyline class="polyline" opacity="0.5" stroke="blue" points="178.77626304118158,233.41718511529774 189.87242300276043,196.9945834036844 "/><polyline class="polyline" opacity="0.5" stroke="blue" points="177.5759358349481,232.88357052951773 188.74094536854858,195.95169130636953 "/><polyline class="polyline" opacity="0.5" stroke="blue" points="176.38364925629543,232.3365698718921 187.6384782594313,194.90378135386584 "/><polyline class="polyline" opacity="0.5" stroke="blue" points="175.19978190947703,231.77633792399584 186.56533451498106,193.8514413792933 "/><polyline class="polyline" opacity="0.5" stroke="blue" points="174.02471186773627,231.20303230427902 185.5218136820921,192.79526410820026 "/><polyline class="polyline" opacity="0.5" stroke="blue" points="172.85881670156465,230.61681350986282 184.50820166843,191.73584701917076 "/><polyline class="polyline" opacity="0.5" stroke="blue" points="171.70247350410017,230.01784496065068 183.52477038465628,190.67379218696692 "/><polyline class="polyline" opacity="0.5" stroke="blue" points="170.55605891348375,229.40629304566826 182.57177737631525,189.6097061076552 "/><polyline class="polyline" opacity="0.5" stroke="blue" points="169.4199491319912,228.78232717154245 181.64946544632724,188.5441995051998 "/><polyline class="polyline" opacity="0.5" stroke="blue" points="168.29451994175847,228.14611981302596 180.75806226909123,187.47788711903843 "/><polyline class="polyline" opacity="0.5" stroke="blue" points="167.18014671691674,227.49784656547197 179.8977799972573,186.41138747219478 "/><polyline class="polyline" opacity="0.5" stroke="blue" points="166.07720443195336,226.83768619915924 179.0688148622877,185.34532261952185 "/><polyline class="polyline" opacity="0.5" stroke="blue" points="164.9860676661147,226.16582071536436 178.27134676998426,184.28031787571524 "/><polyline class="polyline" opacity="0.5" stroke="blue" points="163.90711060366618,225.4824354040751 177.50553889221598,183.2170015227818 "/><polyline class="polyline" opacity="0.5" stroke="blue" points="162.84070702982422,224.7877189032341 176.77153725613925,182.15600449670117 "/><polyline class="polyline" opacity="0.5" stroke="blue" points="161.78723032217417,224.0818632593988 176.06947033225694,181.09796005307072 "/><polyline class="polyline" opacity="0.5" stroke="blue" points="160.74705343738896,223.36506398969865 175.39944862271872,180.04350341158292 "/><polyline class="polyline" opacity="0.5" stroke="blue" points="159.72054889306145,222.63752014496745 174.7615642513163,178.99327137924445 "/><polyline class="polyline" opacity="0.5" stroke="blue" points="158.70808874446485,221.89943437392301 174.15589055667766,177.94790195231155 "/><polyline class="polyline" opacity="0.5" stroke="blue" points="157.7100445560539,221.15101298826258 173.58248169021363,176.90803389698274 "/><polyline class="polyline" opacity="0.5" stroke="blue" points="156.7267873675218,220.3924660285372 173.04137222041294,175.87430630896148 "/><polyline class="polyline" opacity="0.5" stroke="blue" points="155.75868765422524,219.6240073306637 172.53257674512537,174.84735815207523 "/><polyline class="polyline" opacity="0.5" stroke="blue" points="154.80611528179367,218.84585459292686 172.0560895135099,173.8278277762134 "/><polyline class="polyline" opacity="0.5" stroke="blue" points="153.86943945473683,218.05822944332087 171.61188405935857,172.81635241492685 "/><polyline class="polyline" opacity="0.5" stroke="blue" points="152.94902865886706,217.26135750707127 171.19991284753561,171.8135676631133 "/><polyline class="polyline" opacity="0.5" stroke="blue" points="152.04525059735394,216.45546847417583 170.8201069352969,170.82010693529693 "/><polyline class="polyline" opacity="0.5" stroke="blue" points="151.15847212022985,215.64079616679425 170.47237565027262,169.83660090509713 "/><polyline class="polyline" opacity="0.5" stroke="blue" points="150.28905914716717,214.81757860631308 170.15660628690918,168.863676926569 "/><polyline class="polyline" opacity="0.5" stroke="blue" points="149.43737658335039,213.98605807990498 169.8726638231746,167.90195843818742 "/><polyline class="polyline" opacity="0.5" stroke="blue" points="148.60378822826812,213.1464812063953 169.6203906593303,166.95206435033668 "/><polyline class="polyline" opacity="0.5" stroke="blue" points="147.78865667725418,212.2990990012436 169.39960638056655,166.0146084172594 "/><polyline class="polyline" opacity="0.5" stroke="blue" points="146.9923432156087,211.44416694044077 169.21010754528558,165.09019859450743 "/><polyline class="polyline" opacity="0.5" stroke="blue" points="146.21520770513655,210.58194502311574 169.05166750079326,164.1794363830313 "/><polyline class="polyline" opacity="0.5" stroke="blue" points="145.45760846294195,209.71269783264054 168.92403622813237,163.2829161611318 "/><polyline class="polyline" opacity="0.5" stroke="blue" points="144.7199021323257,208.83669459601447 168.82694021775285,162.40122450558798 "/><polyline class="polyline" opacity="0.5" stroke="blue" points="144.0024435456353,207.95420924130258 168.7600823776675,161.53493950336272 "/><polyline class="polyline" opacity="0.5" stroke="blue" points="143.3055855789251,207.0655204528969 168.72314197568824,160.6846300553712 "/><polyline class="polyline" opacity="0.5" stroke="blue" points="142.62967899829056,206.17091172436224 168.715774617275,159.8508551738803 "/><polyline class="polyline" opacity="0.5" stroke="blue" points="141.9750722977476,205.2706714086218 168.73761226045673,159.03416327518536 "/><polyline class="polyline" opacity="0.5" stroke="blue" points="141.34211152853658,204.36509276523154 168.7882632692038,158.23509146928575 "/><polyline class="polyline" opacity="0.5" stroke="blue" points="140.7311401197402,203.4544740044859 168.86731250654256,157.45416484835044 "/><polyline class="polyline" opacity="0.5" stroke="blue" points="140.14249869011178,202.53911832809086 168.97432146860294,156.69189577583063 "/><polyline class="polyline" opacity="0.5" stroke="blue" points="139.57652485102463,201.61933396613546 169.10882846068546,155.94878317813576 "/><polyline class="polyline" opacity="0.5" stroke="blue" points="139.03355300046084,200.69543421008427 169.2703488163183,155.2253118408424 "/><polyline class="polyline" opacity="0.5" stroke="blue" points="138.51391410797305,199.76773744151126 169.45837516015158,154.5219517114532 "/><polyline class="polyline" opacity="0.5" stroke="blue" points="138.0179354905636,198.83656715628678 169.67237771540726,153.83915721076107 "/><polyline class="polyline" opacity="0.5" stroke="blue" points="137.54594057944115,197.902251983926 169.9118046564634,153.17736655490796 "/><polyline class="polyline" opacity="0.5" stroke="blue" points="137.09824867762916,196.96512570180167 170.1760825070083,152.53700109024845 "/><polyline class="polyline" opacity="0.5" stroke="blue" points="136.6751747084161,196.0255272439197 170.46461658404877,151.9184646431463 "/><polyline class="polyline" opacity="0.5" stroke="blue" points="136.27702895465552,195.08380070395185 170.7767914878999,151.32214288683645 "/><polyline class="polyline" opacity="0.5" stroke="blue" points="135.90411678894083,194.1402953322161 171.1119716381233,150.7484027274828 "/><polyline class="polyline" opacity="0.5" stroke="blue" points="135.55673839469947,193.1953655262925 171.46950185521342,150.19759171154968 "/><polyline class="polyline" opacity="0.5" stroke="blue" points="135.23518847827066,192.2493708149589 171.8487079876648,149.67003745658144 "/><polyline class="polyline" opacity="0.5" stroke="blue" points="134.93975597205252,191.30267583513006 172.24889758387798,149.16604710745426 "/><polyline class="polyline" opacity="0.5" stroke="blue" points="134.67072372882626,190.35565030148112 172.66936060819168,148.68590682012 "/><polyline class="polyline" opacity="0.5" stroke="blue" points="134.42836820738881,189.4086689684363 173.10937020015135,148.22988127481096 "/><polyline class="polyline" opacity="0.5" stroke="blue" points="134.2129591496479,188.46211158420414 173.56818347595163,147.7982132206108 "/><polyline class="polyline" opacity="0.5" stroke="blue" points="134.02475924936243,187.51636283654048 174.04504237081588,147.39112305322598 "/><polyline class="polyline" opacity="0.5" stroke="blue" points="133.86402381273317,186.5718122899227 174.53917452090522,147.0088084277083 "/><polyline class="polyline" opacity="0.5" stroke="blue" points="133.73100041107978,185.62885431382182 175.04979418318032,146.65144390778786 "/><polyline class="polyline" opacity="0.5" stroke="blue" points="133.62592852586607,184.6878880017617 175.57610319147602,146.31918065337632 "/><polyline class="polyline" opacity="0.5" stroke="blue" points="133.54903918636705,183.7493170808596 176.1172919468882,146.01214614768728 "/><polyline class="polyline" opacity="0.5" stroke="blue" points="133.5005546002994,182.81354981154874 176.67254044042085,145.73044396530625 "/><polyline class="polyline" opacity="0.5" stroke="blue" points="133.48068777777013,181.88099887718894 177.24101930569327,145.47415358241307 "/><polyline class="polyline" opacity="0.5" stroke="blue" points="133.4896421489293,180.95208126328092 177.82189089937035,145.2433302302286 "/><polyline class="polyline" opacity="0.5" stroke="blue" points="133.52761117574607,180.02721812600794 178.41431040684907,145.03800479261636 "/><polyline class="polyline" opacity="0.5" stroke="blue" points="133.59477795836025,179.10683464983973 179.01742697061457,144.85818374862424 "/><polyline class="polyline" opacity="0.5" stroke="blue" points="133.69131483649647,178.19135989394502 179.6303848385699,144.7038491605992 "/><polyline class="polyline" opacity="0.5" stroke="blue" points="133.817382986463,177.2812266271726 180.25232452954606,144.5749587083544 "/><polyline class="polyline" opacity="0.5" stroke="blue" points="133.97313201429225,176.3768711513755 180.88238401311185,144.47144576970632 "/><polyline class="polyline" opacity="0.5" stroke="blue" points="134.1586995456147,175.4787331128684 181.51969990073098,144.3932195475396 "/><polyline class="polyline" opacity="0.5" stroke="blue" points="134.37421081289685,174.58725530182684 182.16340864525205,144.3401652433932 "/><polyline class="polyline" opacity="0.5" stroke="blue" points="134.61977824070624,173.70288343945546 182.81264774566984,144.31214427739596 "/><polyline class="polyline" opacity="0.5" stroke="blue" points="134.89550102970605,172.826065952773 183.46655695406494,144.30899455421755 "/><polyline class="polyline" opacity="0.5" stroke="blue" points="135.2014647401153,171.9572537368847 184.12427948160573,144.3305307745337 "/><polyline class="polyline" opacity="0.5" stroke="blue" points="135.5377408754085,171.0968999046355 184.78496320049595,144.3765447913479 "/><polyline class="polyline" opacity="0.5" stroke="blue" points="135.90438646706255,170.2454595235643 185.44776183875567,144.4468060103483 "/><polyline class="polyline" opacity="0.5" stroke="blue" points="136.30144366119484,169.40338934010498 186.11183616475049,144.54106183332772 "/><polyline class="polyline" opacity="0.5" stroke="blue" points="136.72893930796934,168.57114749100933 186.77635515841706,144.6590381435413 "/><polyline class="polyline" opacity="0.5" stroke="blue" points="137.18688455468228,167.74919320199785 187.44049716618716,144.80043983173428 "/><polyline class="polyline" opacity="0.5" stroke="blue" points="137.67527444347,166.9379864736734 188.10345103667453,144.96495136143193 "/><polyline class="polyline" opacity="0.5" stroke="blue" points="138.19408751461285,166.13798775477005 188.7644172342662,145.15223737195316 "/><polyline class="polyline" opacity="0.5" stroke="blue" points="138.74328541643942,165.3496576028396 189.42260892785004,145.36194331748626 "/><polyline class="polyline" opacity="0.5" stroke="blue" points="139.3228125228615,164.57345633251816 190.0772530520105,145.59369614044832 "/><polyline class="polyline" opacity="0.5" stroke="blue" points="139.93259555959816,163.8098436515493 190.72759133813835,145.84710497724524 "/><polyline class="polyline" opacity="0.5" stroke="blue" points="140.5725432401692,163.05927828478224 191.3728813130208,146.1217618944513 "/><polyline class="polyline" opacity="0.5" stroke="blue" points="141.2425459127624,162.32221758640026 192.01239726261286,146.41724265334125 "/><polyline class="polyline" opacity="0.5" stroke="blue" points="141.94247521909486,161.59911714067806 192.64543115882958,146.73310750062964 "/><polyline class="polyline" opacity="0.5" stroke="blue" points="142.67218376640912,160.8904303516068 193.27129354734922,147.06890198320826 "/><polyline class="polyline" opacity="0.5" stroke="blue" points="143.4315048137542,160.19660802176975 193.88931439457124,147.42415778461486 "/><polyline class="polyline" opacity="0.5" stroke="blue" points="144.22025197371616,159.51809792089466 194.49884389203518,147.7983935809234 "/><polyline class="polyline" opacity="0.5" stroke="blue" points="145.03821893076628,158.8553443445528 195.09925321677164,148.19111591371225 "/><polyline class="polyline" opacity="0.5" stroke="blue" points="145.8851791774006,158.20878766351953 195.68993524622618,148.6018200777433 "/><polyline class="polyline" opacity="0.5" stroke="blue" points="146.76088576924508,157.57886386435618 196.2703052265707,149.02999102097448 "/><polyline class="polyline" opacity="0.5" stroke="blue" points="147.66507110029323,156.96600408181882 196.83980139338783,149.47510425452612 "/><polyline class="polyline" opacity="0.5" stroke="blue" points="148.59744669943942,156.37063412374238 197.3978855438916,149.93662677023093 "/><polyline class="polyline" opacity="0.5" stroke="blue" points="149.55770304945457,155.79317398909637 197.94404356001974,150.41401796341773 "/><polyline class="polyline" opacity="0.5" stroke="blue" points="150.54550942953733,155.23403737994968 198.47778588190712,150.90673055860663 "/><polyline class="polyline" opacity="0.5" stroke="blue" points="151.5605137825496,154.69363120812832 198.99864793141933,151.4142115358332 "/><polyline class="polyline" opacity="0.5" stroke="blue" points="152.60234260802252,154.17235509739015 199.5061904855939,151.9359030553664 "/><polyline class="polyline" opacity="0.5" stroke="blue" points="153.6706008819845,153.6706008819845 200.0,152.47124337863926 "/><polyline class="polyline" opacity="0.5" stroke="blue" points="154.76487200463066,153.18875210250377 200.47968888218537,153.01966778327767 "/><polyline class="polyline" opacity="0.5" stroke="blue" points="155.88471777681107,152.72718349997248 200.94489571553353,153.58060947017918 "/><polyline class="polyline" opacity="0.5" stroke="blue" points="157.0296784062682,152.2862605091574 201.39528543400021,154.15350046067596 "/><polyline class="polyline" opacity="0.5" stroke="blue" points="158.19927254450693,151.86633875211658 201.83054944833924,154.73777248189387 "/><polyline class="polyline" opacity="0.5" stroke="blue" points="159.39299735512208,151.46776353303713 202.25040572455978,155.3328578385129 "/><polyline class="polyline" opacity="0.5" stroke="blue" points="160.61032861434995,151.09086933544359 202.65459881548276,155.93819026922358 "/><polyline class="polyline" opacity="0.5" stroke="blue" points="161.8507208445438,150.73597932288354 203.04289984638012,156.55320578627266 "/><polyline class="polyline" opacity="0.5" stroke="blue" points="163.1136074812053,150.40340484422427 203.41510645578978,157.17734349659128 "/><polyline class="polyline" opacity="0.5" stroke="blue" points="164.39840107412746,150.09344494471318 203.77104269269725,157.81004640310113 "/><polyline class="polyline" opacity="0.5" stroke="blue" points="165.7044935231272,149.80638588397372 204.11055887136615,158.450762184899 "/><polyline class="polyline" opacity="0.5" stroke="blue" points="167.03125634876136,149.54250066212273 204.43353138518015,159.0989439551256 "/><polyline class="polyline" opacity="0.5" stroke="blue" points="168.3780409983343,149.30204855520492 204.73986248093107,159.75405099543164 "/><polyline class="polyline" opacity="0.5" stroke="blue" points="169.7441791874122,149.08527466114705 205.02947999505042,160.4155494660598 "/><polyline class="polyline" opacity="0.5" stroke="blue" points="171.12898327696695,148.89240945743683 205.30233705333478,161.08291309066757 "/><polyline class="polyline" opacity="0.5" stroke="blue" points="172.53174668617254,148.72366837172848 205.55841173575962,161.7556238151209 "/><polyline class="polyline" opacity="0.5" stroke="blue" points="173.95174434077842,148.5792513665719 205.79770670801207,162.43317243959126 "/><polyline class="polyline" opacity="0.5" stroke="blue" points="175.3882331568794,148.4593425394501 206.02024882139864,163.11505922338978 "/><polyline class="polyline" opacity="0.5" stroke="blue" points="176.8404525597988,148.3641097392948 206.22608868280327,163.80079446207145 "/><polyline class="polyline" opacity="0.5" stroke="blue" points="178.3076250376911,148.29370420062907 206.41530019638012,164.48989903643664 "/><polyline class="polyline" opacity="0.5" stroke="blue" points="179.78895672936684,148.24826019646156 206.58798007866804,165.18190493314984 "/><polyline class="polyline" opacity="0.5" stroke="blue" points="181.28363804573036,148.2278947110264 206.74424734880864,165.8763557367849 "/><polyline class="polyline" opacity="0.5" stroke="blue" points="182.79084432411221,148.23270713342902 206.88424279553644,166.57280709318866 "/><polyline class="polyline" opacity="0.5" stroke="blue" points="184.30973651467176,148.26277897321802 207.00812842259234,167.2708271441375 "/><polyline class="polyline" opacity="0.5" stroke="blue" points="185.83946189793278,148.31817359886077 207.11608687418436,167.9699969333347 "/><polyline class="polyline" opacity="0.5" stroke="blue" points="187.37915483241315,148.39893600005036 207.20832084209087,168.66991078387025 "/><polyline class="polyline" opacity="0.5" stroke="blue" points="188.92793753119918,148.50509257472004 207.2850524559628,169.37017664732952 "/><polyline class="polyline" opacity="0.5" stroke="blue" points="190.4849208662174,148.6366509415841 207.34652265834308,170.07041642479948 "/><polyline class="polyline" opacity="0.5" stroke="blue" points="192.0492051988512,148.79359977896218 207.39299056587356,170.77026626007807 "/><polyline class="polyline" opacity="0.5" stroke="blue" points="193.61988123545808,148.97590869057981 207.4247328181128,171.46937680544437 "/><polyline class="polyline" opacity="0.5" stroke="blue" points="195.19603090624543,149.18352809896945 207.4420429153333,172.16741346039294 "/><polyline class="polyline" opacity="0.5" stroke="blue" points="196.7767282658786,149.4163891670235 207.44523054661389,172.8640565837796 "/><polyline class="polyline" opacity="0.5" stroke="blue" points="198.36104041410704,149.67440374817602 207.4346209094825,173.55900167986084 "/><polyline class="polyline" opacity="0.5" stroke="blue" points="199.9480284346193,149.9574643656126 207.410554022307,174.25195955874386 "/><polyline class="polyline" opacity="0.5" stroke="blue" points="201.53674835026266,150.26544422082597 207.37338403056899,174.94265647178887 "/><polyline class="polyline" opacity="0.5" stroke="blue" points="203.12625209269692,150.59819723175357 207.32347850809373,175.63083422253132 "/><polyline class="polyline" opacity="0.5" stroke="blue" points="204.71558848449322,150.95555810064914 207.2612177542463,176.31625025370906 "/><polyline class="polyline" opacity="0.5" stroke="blue" points="206.30380423163297,151.3373424117528 207.1869940880406,176.99867771099292 "/><polyline class="polyline" opacity="0.5" stroke="blue" points="207.88994492431928,151.74334675874002 207.10121114004437,177.67790548403227 "/><polyline class="polyline" opacity="0.5" stroke="blue" points="209.47305604397138,152.1733489018403 207.00428314290173,178.3537382254303 "/><polyline class="polyline" opacity="0.5" stroke="blue" points="211.05218397424545,152.62710795443022 206.89663422123147,179.02599634827007 "/><polyline class="polyline" opacity="0.5" stroke="blue" points="212.62637701389866,153.10436459881691 206.77869768159957,179.6945160028086 "/><polyline class="polyline" opacity="0.5" stroke="blue" points="214.19468638930297,153.60484133084327 206.65091530320487,180.35914903295503 "/><polyline class="polyline" opacity="0.5" stroke="blue" points="215.75616726440447,154.1282427328576 206.51373662985935,181.01976291314043 "/><polyline class="polyline" opacity="0.5" stroke="blue" points="217.30987974592983,154.6742557745094 206.36761826378864,181.6762406661781 "/><polyline class="polyline" opacity="0.5" stroke="blue" points="218.8548898816487,155.24255014074768 206.21302316172563,182.328480762701 "/><polyline class="polyline" opacity="0.5" stroke="blue" points="220.39027064952148,155.83277858632027 206.05041993371896,182.97639700274814 "/><polyline class="polyline" opacity="0.5" stroke="blue" points="221.91510293558687,156.44457731599314 205.88028214502984,183.61991838005622 "/><polyline class="polyline" opacity="0.5" stroke="blue" points="223.4284764984804,157.07756638963593 205.70308762144597,184.25898892959398 "/><polyline class="polyline" opacity="0.5" stroke="blue" points="224.92949091851546,157.73135015124706 205.5193177582984,184.89356755885726 "/><polyline class="polyline" opacity="0.5" stroke="blue" points="226.4172565293104,158.4055176809247 205.3294568334283,185.52362786342155 "/><polyline class="polyline" opacity="0.5" stroke="blue" points="227.89089533000333,159.0996432687277 205.13399132431547,186.14915792722763 "/><polyline class="polyline" opacity="0.5" stroke="blue" points="229.34954187615824,159.81328690930752 204.93340922954675,186.77016010805133 "/><polyline class="polyline" opacity="0.5" stroke="blue" points="230.79234414754282,160.5459948161422 204.72819939477472,187.386650808587 "/><polyline class="polyline" opacity="0.5" stroke="blue" points="232.21846439103024,161.297299954148 204.51885084329126,187.99866023354858 "/><polyline class="polyline" opacity="0.5" stroke="blue" points="233.62707993696756,162.06672258940384 204.30585211131864,188.60623213316947 "/><polyline class="polyline" opacity="0.5" stroke="blue" points="235.017383987437,162.85377085468 204.08969058810334,189.20942353345797 "/><polyline class="polyline" opacity="0.5" stroke="blue" points="236.3885863749365,163.65794132942946 203.87085186088288,189.8083044535413 "/><polyline class="polyline" opacity="0.5" stroke="blue" points="237.73991429010061,164.47871963286966 203.64981906478596,190.4029576104083 "/><polyline class="polyline" opacity="0.5" stroke="blue" points="239.07061297718982,165.3155810287597 203.42707223771814,190.9934781113388 "/><polyline class="polyline" opacity="0.5" stroke="blue" points="240.37994639618023,166.16799104045728 203.2030876802838,191.579973134285 "/><polyline class="polyline" opacity="0.5" stroke="blue" points="241.667197850398,167.03540607482842 202.97833732079403,192.16256159645118 "/><polyline class="polyline" opacity="0.5" stroke="blue" points="242.9316705787536,167.91727405357386 202.7532880854149,192.74137381129742 "/><polyline class="polyline" opacity="0.5" stroke="blue" points="244.1726883117451,168.81303505053472 202.5284012735183,193.31655113417597 "/><polyline class="polyline" opacity="0.5" stroke="blue" points="245.38959579051732,169.72212193354227 202.30413193830822,193.8882455967929 "/><polyline class="polyline" opacity="0.5" stroke="blue" points="246.5817592483767,170.643961009385 202.0809282728103,194.45661953067162 "/><polyline class="polyline" opacity="0.5" stroke="blue" points="247.748566854282,171.5779726704804 201.85923100133078,195.02184517978444 "/><polyline class="polyline" opacity="0.5" stroke="blue" points="248.88942911794328,172.52357204185546 201.63947277651073,195.58410430250515 "/><polyline class="polyline" opacity="0.5" stroke="blue" points="250.00377925628177,173.480169627065 201.4220775821273,196.1435877630295 "/><polyline class="polyline" opacity="0.5" stroke="blue" points="251.0910735211117,174.44717195170256 201.2074601418201,196.70049511240185 "/><polyline class="polyline" opacity="0.5" stroke="blue" points="252.15079148802317,175.423982203192 200.99602533395043,197.25503415928452 "/><polyline class="polyline" opacity="0.5" stroke="blue" points="253.1824363065505,176.41000086558287 200.788167612835,197.80742053060243 "/><polyline class="polyline" opacity="0.5" stroke="blue" points="254.18553491182115,177.4046263481137 200.58427043662914,198.35787722219922 "/><polyline class="polyline" opacity="0.5" stroke="blue" points="255.15963819798145,178.40725560634883 200.3847057021741,198.90663413964228 "/><polyline class="polyline" opacity="0.5" stroke="blue" points="256.1043211537992,179.41728475474332 200.18983318716002,199.45392762932227 "/><polyline class="polyline" opacity="0.5" stroke="blue" points="257.01918296093686,180.43410966953803 200.0,200.0 "/><polyline class="polyline" opacity="0.5" stroke="blue" points="257.9038470554832,181.45712658094047 199.81554003785163,200.54509903496697 "/><polyline class="polyline" opacity="0.5" stroke="blue" points="258.75796115342007,182.48573265360196 199.63677345326815,201.089477494999 "/><polyline class="polyline" opacity="0.5" stroke="blue" points="259.58119724078125,183.5193265544555 199.46400613000606,201.63339261229999 "/><polyline class="polyline" opacity="0.5" stroke="blue" points="260.3732515293422,184.5573090070422 199.297529168563,202.17710557565337 "/><polyline class="polyline" opacity="0.5" stroke="blue" points="261.13384437875,185.59908333150838 199.1376183820655,202.72088100702095 "/><polyline class="polyline" opacity="0.5" stroke="blue" points="261.86272018607167,186.64405596952082 198.98453380317542,203.2649864298546 "/><polyline class="polyline" opacity="0.5" stroke="blue" points="262.55964724380135,187.6916369934063 198.8385192027285,203.80969172941394 "/><polyline class="polyline" opacity="0.5" stroke="blue" points="263.22441756742404,188.7412405988862 198.69980162086705,204.35526860541478 "/><polyline class="polyline" opacity="0.5" stroke="blue" points="263.8568466936824,189.79228558083716 198.56859091147444,204.90199001736468 "/><polyline class="polyline" opacity="0.5" stroke="blue" points="264.456773450744,190.8441957915738 198.4450793007632,205.45012962297912 "/><polyline class="polyline" opacity="0.5" stroke="blue" points="265.02405970149914,191.89640058120875 198.329440960913,205.99996121010815 "/><polyline class="polyline" opacity="0.5" stroke="blue" points="265.5585900612615,192.9483352197098 198.22183159969583,206.5517581226442 "/><polyline class="polyline" opacity="0.5" stroke="blue" points="266.0602715911665,193.99944130033202 198.12238806706623,207.10579268092246 "/><polyline class="polyline" opacity="0.5" stroke="blue" points="266.5290334685901,195.0491671241648 198.03122797972952,207.66233559717006 "/><polyline class="polyline" opacity="0.5" stroke="blue" points="266.96482663592667,196.0969680655902 197.94844936473766,208.22165538660335 "/><polyline class="polyline" opacity="0.5" stroke="blue" points="267.36762342907815,197.14230691850744 197.87413032319023,208.7840177748207 "/><polyline class="polyline" opacity="0.5" stroke="blue" points="267.7374171870167,198.18465422323388 197.80832871514778,209.34968510218476 "/><polyline class="polyline" opacity="0.5" stroke="blue" points="268.07422184378254,199.22348857404478 197.75108186688533,209.91891572593516 "/><polyline class="polyline" opacity="0.5" stroke="blue" points="268.3780715042811,200.25829690736856 197.70240630163377,210.49196342082377 "/><polyline class="polyline" opacity="0.5" stroke="blue" points="268.6490200052358,201.28857477070088 197.6622974949702,211.06907677911036 "/><polyline class="polyline" opacity="0.5" stroke="blue" points="268.88714046264295,202.31382657235167 197.6307296560261,211.65049861080766 "/><polyline class="polyline" opacity="0.5" stroke="blue" points="269.0925248070618,203.3335658121812 197.60765553568527,212.2364653451113 "/><polyline class="polyline" opacity="0.5" stroke="blue" points="269.2652833080544,204.34731529352726 197.59300626294132,212.82720643399847 "/><polyline class="polyline" opacity="0.5" stroke="blue" points="269.4055440890695,205.35460731656278 197.5866912105734,213.4229437590247 "/><polyline class="polyline" opacity="0.5" stroke="blue" points="269.5134526340396,206.35498385336507 197.58859789128527,214.02389104239342 "/><polyline class="polyline" opacity="0.5" stroke="blue" points="269.5891712869318,207.3479967050091 197.59859188542856,214.63025326341483 "/><polyline class="polyline" opacity="0.5" stroke="blue" points="269.632878745466,208.3332076410345 197.6165168014028,215.2422260815121 "/><polyline class="polyline" opacity="0.5" stroke="blue" points="269.6447695501769,209.31018852166235 197.64219426978767,215.85999526696907 "/><polyline class="polyline" opacity="0.5" stroke="blue" points="269.6250535699647,210.27852140316972 197.67542397221945,216.4837361406506 "/><polyline class="polyline" opacity="0.5" stroke="blue" points="269.57395548524045,211.2377986268521 197.71598370597192,217.11361302395474 "/><polyline class="polyline" opacity="0.5" stroke="blue" points="269.49171426973476,212.1876228920285 197.7636294851434,217.74977870028587 "/><polyline class="polyline" opacity="0.5" stroke="blue" points="269.3785826719956,213.12760731356485 197.8180956792857,218.39237388935962 "/><polyline class="polyline" opacity="0.5" stroke="blue" points="269.234826697563,214.0573754644078 197.8790951902357,219.04152673566816 "/><polyline class="polyline" opacity="0.5" stroke="blue" points="269.0607250927626,214.97656140363895 197.94631966783106,219.69735231244974 "/><polyline class="polyline" opacity="0.5" stroke="blue" points="268.8565688310178,215.88480969057056 198.01943976510097,220.35995214251196 "/><polyline class="polyline" opacity="0.5" stroke="blue" points="268.6226606025371,216.7817753854182 198.0981054334288,221.02941373726276 "/><polyline class="polyline" opacity="0.5" stroke="blue" points="268.35931430818613,217.66712403709175 198.18194625808016,221.70581015529802 "/><polyline class="polyline" opacity="0.5" stroke="blue" points="268.0668545583118,218.54053165865585 198.27057183438154,222.38919958188634 "/><polyline class="polyline" opacity="0.5" stroke="blue" points="267.74561617723884,219.40168469101437 198.36357218471878,223.07962493067365 "/><polyline class="polyline" opacity="0.5" stroke="blue" points="267.3959437141165,220.25027995537818 198.46051821640492,223.77711346890982 "/><polyline class="polyline" opacity="0.5" stroke="blue" points="267.0181909607457,221.08602459507563 198.5609622203388,224.4816764674675 "/><polyline class="polyline" opacity="0.5" stroke="blue" points="266.61272047697605,221.90863600726618 198.66443841024736,225.19330887688926 "/><polyline class="polyline" opacity="0.5" stroke="blue" points="266.17990312421637,222.71784176511503 198.77046350216696,225.9119890306536 "/><polyline class="polyline" opacity="0.5" stroke="blue" points="265.7201176075596,223.51337953098414 198.8785373336824,226.6376783768022 "/><polyline class="polyline" opacity="0.5" stroke="blue" points="265.2337500269824,224.2949969611896 198.98814352229962,227.3703212390119 "/><polyline class="polyline" opacity="0.5" stroke="blue" points="264.72119343803735,225.06245160286997 199.09875016218518,228.1098446081309 "/><polyline class="polyline" opacity="0.5" stroke="blue" points="264.1828474224136,225.81551078350284 199.20981055836054,228.85615796512948 "/><polyline class="polyline" opacity="0.5" stroke="blue" points="263.6191176687082,226.55395149359896 199.32076399729402,229.60915313633504 "/><polyline class="polyline" opacity="0.5" stroke="blue" points="263.0304155637051,227.27756026309353 199.4310365526883,230.368704181741 "/><polyline class="polyline" opacity="0.5" stroke="blue" points="262.4171577944275,227.98613303194452 199.54004192511755,231.1346673170859 "/><polyline class="polyline" opacity="0.5" stroke="blue" points="261.7797659611912,228.67947501543705 199.64718231402696,231.9068808703065 "/><polyline class="polyline" opacity="0.5" stroke="blue" points="261.1186662018524,229.35740056468038 199.75184932046872,232.68516527286562 "/><polyline class="polyline" opacity="0.5" stroke="blue" points="260.4342888274112,230.01973302277332 199.8534248788139,233.46932308635118 "/><polyline class="polyline" opacity="0.5" stroke="blue" points="259.72706796909944,230.6663045770986 199.95128221555015,234.25913906463222 "/><polyline class="polyline" opacity="0.5" stroke="blue" points="258.99744123705244,231.2969561081961 200.04478683315102,235.0543802517443 "/><polyline class="polyline" opacity="0.5" stroke="blue" points="258.2458493906343,231.91153703564845 200.1332975168851,235.8547961155589 "/><polyline class="polyline" opacity="0.5" stroke="blue" points="257.4727360204592,232.5099051614003 200.2161673623238,236.66011871717248 "/><polyline class="polyline" opacity="0.5" stroke="blue" points="256.6785472421261,233.09192651091718 200.29274482120448,237.4700629158288 "/><polyline class="polyline" opacity="0.5" stroke="blue" points="255.8637314016583,233.65747517257535 200.36237476321293,238.2843266090648 "/><polyline class="polyline" opacity="0.5" stroke="blue" points="255.02873879261605,234.20643313565932 200.42439955116723,239.10259100764765 "/><polyline class="polyline" opacity="0.5" stroke="blue" points="254.1740213848305,234.73869012732956 200.47816012701125,239.92452094474527 "/><polyline class="polyline" opacity="0.5" stroke="blue" points="253.3000325646838,235.25414344890635 200.52299710596608,240.74976521865275 "/><polyline class="polyline" opacity="0.5" stroke="blue" points="252.40722688684326,235.75269781180282 200.55825187613686,241.57795696827245 "/><polyline class="polyline" opacity="0.5" stroke="blue" points="251.4960598373387,236.23426517342403 200.5832677008349,242.40871408043068 "/><polyline class="polyline" opacity="0.5" stroke="blue" points="250.5669876078551,236.69876457333473 200.59739082085005,243.24163962799418 "/><polyline class="polyline" opacity="0.5" stroke="blue" points="249.62046688109825,237.14612196998388 200.59997155389465,244.07632233764156 "/><polyline class="polyline" opacity="0.5" stroke="blue" points="248.6569546270762,237.57627007825988 200.59036538844148,244.91233708603338 "/><polyline class="polyline" opacity="0.5" stroke="blue" points="247.67690791012558,237.98914820813522 200.56793406919002,245.7492454230259 "/><polyline class="polyline" opacity="0.5" stroke="blue" points="246.68078370650244,238.38470210464698 200.5320466714227,246.5865961204738 "/><polyline class="polyline" opacity="0.5" stroke="blue" points="245.66903873234278,238.76288378944463 200.48208066155095,247.42392574507926 "/><polyline class="polyline" opacity="0.5" stroke="blue" points="244.64212928179148,239.12365140412354 200.41742294120235,248.2607592536594 "/><polyline class="polyline" opacity="0.5" stroke="blue" points="243.60051107508738,239.46696905555018 200.33747087226556,249.09661060912987 "/><polyline class="polyline" opacity="0.5" stroke="blue" points="242.54463911638516,239.79280666337115 200.2416332803847,249.93098341543373 "/><polyline class="polyline" opacity="0.5" stroke="blue" points="241.47496756108808,240.10113980988686 200.12933143448376,250.76337156958377 "/><polyline class="polyline" opacity="0.5" stroke="blue" points="240.3919495924581,240.3919495924581 200.0,251.59325992893827 "/><polyline class="polyline" opacity="0.5" stroke="blue" points="239.29603730726714,240.66522247860217 199.85308796361588,252.42012499178458 "/><polyline class="polyline" opacity="0.5" stroke="blue" points="238.18768161024443,240.92095016392406 199.68805952739797,253.2434355892746 "/><polyline class="polyline" opacity="0.5" stroke="blue" points="237.06733211707748,241.15912943301709 199.50439497038005,254.06265358673085 "/><polyline class="polyline" opacity="0.5" stroke="blue" points="235.93543706571378,241.3797620234573 199.3015914757652,254.8772345923282 "/><polyline class="polyline" opacity="0.5" stroke="blue" points="234.79244323571368,241.58285449300527 199.07916392206548,255.686628671151 "/><polyline class="polyline" opacity="0.5" stroke="blue" points="233.63879587539958,241.76841809011978 198.83664563664925,256.4902810626302 "/><polyline class="polyline" opacity="0.5" stroke="blue" points="232.4749386365473,241.93646862787818 198.57358911032327,257.28763289937723 "/><polyline class="polyline" opacity="0.5" stroke="blue" points="231.30131351636268,242.08702636138895 198.28956667173742,258.0781219254565 "/><polyline class="polyline" opacity="0.5" stroke="blue" points="230.11836080648777,242.2201158687746 197.98417112056526,258.86118321216685 "/><polyline class="polyline" opacity="0.5" stroke="blue" points="228.92651904878068,242.33576593579357 197.65701631858224,259.6362498694443 "/><polyline class="polyline" opacity="0.5" stroke="blue" points="227.72622499761172,242.43400944416246 197.30773773793115,260.4027537510469 "/><polyline class="polyline" opacity="0.5" stroke="blue" points="226.51791358842405,242.51488326363273 196.93599296603674,261.16012615173423 "/><polyline class="polyline" opacity="0.5" stroke="blue" points="225.30201791230135,242.5784281478687 196.54146216679945,261.9077984947247 "/><polyline class="polyline" opacity="0.5" stroke="blue" points="224.0789691962925,242.62468863416686 196.12384849786812,262.64520300777616 "/><polyline class="polyline" opacity="0.5" stroke="blue" points="222.84919678924288,242.6537129470502 195.68287848395784,263.37177338631545 "/><polyline class="polyline" opacity="0.5" stroke="blue" points="221.61312815288193,242.66555290576505 195.21830234634234,264.0869454421256 "/><polyline class="polyline" opacity="0.5" stroke="blue" points="220.3711888579219,242.6602638357027 194.72989428881021,264.79015773618346 "/><polyline class="polyline" opacity="0.5" stroke="blue" points="219.12380258492246,242.63790448376182 194.21745274052887,265.4808521943344 "/><polyline class="polyline" opacity="0.5" stroke="blue" points="217.87139112968123,242.5985369376631 193.6808005564105,266.15847470458596 "/><polyline class="polyline" opacity="0.5" stroke="blue" points="216.61437441290866,242.54222654922282 193.11978517571626,266.8224756949022 "/><polyline class="polyline" opacity="0.5" stroke="blue" points="215.35317049395275,242.4690418615865 192.53427873977293,267.47231069047984 "/><polyline class="polyline" opacity="0.5" stroke="blue" points="214.08819558833827,242.37905454042087 191.92417816980418,268.1074408495946 "/><polyline class="polyline" opacity="0.5" stroke="blue" points="212.81986408889185,242.27233930905714 191.2894052060022,268.7273334772088 "/><polyline class="polyline" opacity="0.5" stroke="blue" points="211.5485885902222,242.14897388757538 190.6299064090755,269.3314625156388 "/><polyline class="polyline" opacity="0.5" stroke="blue" points="210.27477991633222,242.00903893581554 189.94565312561704,269.919309011687 "/><polyline class="polyline" opacity="0.5" stroke="blue" points="208.99884715113922,241.85261800029826 189.23664141872882,270.4903615597498 "/><polyline class="polyline" opacity="0.5" stroke="blue" points="207.7211976716859,241.67979746503426 188.50289196542968,271.04411672051634 "/><polyline class="polyline" opacity="0.5" stroke="blue" points="206.4422371838228,241.49066650619858 187.74444992244665,271.5800794149817 "/><polyline class="polyline" opacity="0.5" stroke="blue" points="205.1623697601498,241.2853170506434 186.96138476206065,272.0977632935931 "/><polyline class="polyline" opacity="0.5" stroke="blue" points="203.88199788000577,241.06384373821993 186.15379007973598,272.596691080455 "/><polyline class="polyline" opacity="0.5" stroke="blue" points="202.6015224712966,240.82634388787704 185.32178337531053,273.07639489261123 "/><polyline class="polyline" opacity="0.5" stroke="blue" points="201.32134295395653,240.57291746750312 184.46550580956588,273.5364165345182 "/><polyline class="polyline" opacity="0.5" stroke="blue" points="200.04185728483827,240.30366706747353 183.58512193802588,273.9763077679142 "/><polyline class="polyline" opacity="0.5" stroke="blue" points="198.76346200383227,240.01869787786566 182.68081942385604,274.39563055737574 "/><polyline class="polyline" opacity="0.5" stroke="blue" points="197.48655228101418,239.7181176692997 181.75280873174717,274.7939572919357 "/><polyline class="polyline" opacity="0.5" stroke="blue" points="196.21152196462515,239.4020367773627 180.80132280467427,275.17087098321656 "/><polyline class="polyline" opacity="0.5" stroke="blue" points="194.93876362968865,239.07056809057053 179.82661672541656,275.525965440605 "/><polyline class="polyline" opacity="0.5" stroke="blue" points="193.66866862707334,238.7238270418207 178.82896736471622,275.85884542406654 "/><polyline class="polyline" opacity="0.5" stroke="blue" points="192.40162713280748,238.36193160328753 177.80867301793248,276.1691267752611 "/><polyline class="polyline" opacity="0.5" stroke="blue" points="191.1380281974575,237.98500228470832 176.76605303202476,276.45643652768206 "/><polyline class="polyline" opacity="0.5" stroke="blue" points="189.87825979538235,237.593162135009 175.701447424668,276.72041299659645 "/><polyline class="polyline" opacity="0.5" stroke="blue" points="188.62270887367598,237.18653674721372 174.61521649726208,276.96070584961456 "/><polyline class="polyline" opacity="0.5" stroke="blue" points="187.3717614006129,236.76525426658307 173.50774044355876,277.17697615876386 "/><polyline class="polyline" opacity="0.5" stroke="blue" points="186.12580241341206,236.32944540192264 172.37941895557714,277.36889643498057 "/><polyline class="polyline" opacity="0.5" stroke="blue" points="184.88521606513592,235.87924344000223 171.23067082842942,277.53615064597193 "/><polyline class="polyline" opacity="0.5" stroke="blue" points="183.65038567054125,235.41478426302396 170.06193356561772,277.67843421843173 "/><polyline class="polyline" opacity="0.5" stroke="blue" points="182.4216937506997,234.93620636907548 168.87366298630428,277.79545402562013 "/><polyline class="polyline" opacity="0.5" stroke="blue" points="181.19952207620614,234.44365089550297 167.6663328359911,277.88692836134055 "/><polyline class="polyline" opacity="0.5" stroke="blue" points="179.98425170879506,233.93726164513657 166.44043440197996,277.95258690136717 "/><polyline class="polyline" opacity="0.5" stroke="blue" points="178.77626304118155,233.41718511529774 165.1964761349095,277.9921706533894 "/><polyline class="polyline" opacity="0.5" stroke="blue" points="177.57593583494815,232.88357052951773 163.93498327759835,278.0054318965521 "/><polyline class="polyline" opacity="0.5" stroke="blue" points="176.38364925629543,232.33656987189212 162.65649750234502,277.9921341116782 "/><polyline class="polyline" opacity="0.5" stroke="blue" points="175.19978190947703,231.7763379239958 161.36157655776427,277.9520519032616 "/><polyline class="polyline" opacity="0.5" stroke="blue" points="174.02471186773633,231.20303230427905 160.05079392615718,277.88497091432424 "/><polyline class="polyline" opacity="0.5" stroke="blue" points="172.85881670156468,230.61681350986285 158.72473849233938,277.79068773522323 "/><polyline class="polyline" opacity="0.5" stroke="blue" points="171.7024735041002,230.01784496065068 157.38401422477287,277.66900980749364 "/><polyline class="polyline" opacity="0.5" stroke="blue" points="170.55605891348372,229.40629304566826 156.0292398697651,277.5197553238031 "/><polyline class="polyline" opacity="0.5" stroke="blue" points="169.41994913199122,228.78232717154248 154.66104865942512,277.34275312508527 "/><polyline class="polyline" opacity="0.5" stroke="blue" points="168.2945199417585,228.14611981302596 153.28008803398455,277.13784259590625 "/><polyline class="polyline" opacity="0.5" stroke="blue" points="167.18014671691677,227.497846565472 151.88701937901612,276.9048735591068 "/><polyline class="polyline" opacity="0.5" stroke="blue" points="166.07720443195336,226.83768619915924 150.4825177780015,276.64370617074457 "/><polyline class="polyline" opacity="0.5" stroke="blue" points="164.98606766611474,226.1658207153644 149.06727178062636,276.3542108163455 "/><polyline class="polyline" opacity="0.5" stroke="blue" points="163.90711060366618,225.4824354040751 147.64198318710166,276.03626800945574 "/><polyline class="polyline" opacity="0.5" stroke="blue" points="162.8407070298242,224.7877189032341 146.20736684873782,275.6897682934631 "/><polyline class="polyline" opacity="0.5" stroke="blue" points="161.78723032217414,224.08186325939877 144.76415048491918,275.3146121476399 "/><polyline class="polyline" opacity="0.5" stroke="blue" points="160.74705343738898,223.36506398969868 143.31307451655707,274.9107098983347 "/><polyline class="polyline" opacity="0.5" stroke="blue" points="159.72054889306148,222.63752014496745 141.85489191602278,274.4779816362203 "/><polyline class="polyline" opacity="0.5" stroke="blue" points="158.70808874446482,221.89943437392301 140.39036807349413,274.01635714048103 "/><polyline class="polyline" opacity="0.5" stroke="blue" points="157.71004455605396,221.1510129882626 138.92028067957256,273.5257758108002 "/><polyline class="polyline" opacity="0.5" stroke="blue" points="156.7267873675218,220.39246602853723 137.4454196239617,273.00618660798375 "/><polyline class="polyline" opacity="0.5" stroke="blue" points="155.75868765422524,219.6240073306637 135.96658690992842,272.45754800403313 "/><polyline class="polyline" opacity="0.5" stroke="blue" points="154.80611528179367,218.84585459292686 134.48459658419404,271.8798279424549 "/><polyline class="polyline" opacity="0.5" stroke="blue" points="153.86943945473686,218.0582294433209 133.00027468184118,271.27300380957115 "/><polyline class="polyline" opacity="0.5" stroke="blue" points="152.9490286588671,217.2613575070713 131.5144591857481,270.6370624175684 "/><polyline class="polyline" opacity="0.5" stroke="blue" points="152.04525059735394,216.45546847417583 130.02800000000002,269.972 "/><polyline class="polyline" opacity="0.5" stroke="blue" points="151.15847212022982,215.64079616679422 128.54175893665402,269.2778222204296 "/><polyline class="polyline" opacity="0.5" stroke="blue" points="150.28905914716717,214.81757860631313 127.05660971517212,268.55454419487904 "/><polyline class="polyline" opacity="0.5" stroke="blue" points="149.43737658335039,213.98605807990498 125.5734379737657,267.80219052871865 "/><polyline class="polyline" opacity="0.5" stroke="blue" points="148.60378822826812,213.1464812063953 124.09314129183086,267.0207953686123 "/><polyline class="polyline" opacity="0.5" stroke="blue" points="147.78865667725415,212.29909900124358 122.61662922258314,266.21040247010205 "/><polyline class="polyline" opacity="0.5" stroke="blue" points="146.99234321560874,211.4441669404408 121.14482333493316,265.37106528139293 "/><polyline class="polyline" opacity="0.5" stroke="blue" points="146.21520770513655,210.58194502311574 119.67865726357749,264.5028470438692 "/><polyline class="polyline" opacity="0.5" stroke="blue" points="145.45760846294192,209.71269783264054 118.21907676620769,263.60582090984957 "/><polyline class="polyline" opacity="0.5" stroke="blue" points="144.71990213232576,208.83669459601452 116.76703978666993,262.6800700780553 "/><polyline class="polyline" opacity="0.5" stroke="blue" points="144.00244354563532,207.9542092413026 115.32351652283758,261.72568794724134 "/><polyline class="polyline" opacity="0.5" stroke="blue" points="143.3055855789251,207.0655204528969 113.88948949788691,260.7427782884088 "/><polyline class="polyline" opacity="0.5" stroke="blue" points="142.62967899829056,206.17091172436224 112.46595363358945,259.73145543598406 "/><polyline class="polyline" opacity="0.5" stroke="blue" points="141.9750722977476,205.27067140862187 111.05391632416315,258.69184449832187 "/><polyline class="polyline" opacity="0.5" stroke="blue" points="141.34211152853663,204.36509276523157 109.65439750914456,257.62408158785115 "/><polyline class="polyline" opacity="0.5" stroke="blue" points="140.7311401197402,203.45447400448586 108.26842974367048,256.5283140711518 "/><polyline class="polyline" opacity="0.5" stroke="blue" points="140.14249869011175,202.53911832809086 106.89705826447164,255.40470083920803 "/><polyline class="polyline" opacity="0.5" stroke="blue" points="139.57652485102463,201.61933396613549 105.54134104980616,254.25341259804975 "/><polyline class="polyline" opacity="0.5" stroke="blue" points="139.03355300046084,200.69543421008427 104.20234887147298,253.0746321799473 "/><polyline class="polyline" opacity="0.5" stroke="blue" points="138.51391410797305,199.76773744151126 102.88116533696459,251.86855487528382 "/><polyline class="polyline" opacity="0.5" stroke="blue" points="138.0179354905636,198.83656715628675 101.57888691972857,250.63538878517994 "/><polyline class="polyline" opacity="0.5" stroke="blue" points="137.5459405794412,197.90225198392602 100.29662297542366,249.37535519489597 "/><polyline class="polyline" opacity="0.5" stroke="blue" points="137.09824867762921,196.96512570180167 99.0354957419636,248.0886889679835 "/><polyline class="polyline" opacity="0.5" stroke="blue" points="136.6751747084161,196.0255272439197 97.79664032105688,246.77563896110138 "/><polyline class="polyline" opacity="0.5" stroke="blue" points="136.27702895465552,195.0838007039519 96.58120463885298,245.43646845934703 "/><polyline class="polyline" opacity="0.5" stroke="blue" points="135.90411678894083,194.14029533221614 95.39034938321926,244.07145563189118 "/><polyline class="polyline" opacity="0.5" stroke="blue" points="135.55673839469947,193.1953655262925 94.22524791507834,242.68089400763407 "/><polyline class="polyline" opacity="0.5" stroke="blue" points="135.23518847827066,192.2493708149589 93.0870861511425,241.26509297052314 "/><polyline class="polyline" opacity="0.5" stroke="blue" points="134.9397559720525,191.30267583513012 91.97706241529006,239.8243782740953 "/><polyline class="polyline" opacity="0.5" stroke="blue" points="134.6707237288263,190.35565030148112 90.89638725573859,238.35909257471923 "/><polyline class="polyline" opacity="0.5" stroke="blue" points="134.42836820738881,189.40866896843627 89.84628322507709,236.8695959829245 "/><polyline class="polyline" opacity="0.5" stroke="blue" points="134.2129591496479,188.46211158420414 88.82798462013221,235.35626663210218 "/><polyline class="polyline" opacity="0.5" stroke="blue" points="134.02475924936243,187.5163628365405 87.84273717855862,233.81950126376378 "/><polyline class="polyline" opacity="0.5" stroke="blue" points="133.8640238127332,186.57181228992272 86.89179772895731,232.25971582843056 "/><polyline class="polyline" opacity="0.5" stroke="blue" points="133.73100041107978,185.62885431382182 85.97643379125309,230.67734610111356 "/><polyline class="polyline" opacity="0.5" stroke="blue" points="133.62592852586607,184.68788800176176 85.09792312398238,229.0728483102142 "/><polyline class="polyline" opacity="0.5" stroke="blue" points="133.54903918636705,183.74931708085967 84.25755321507889,227.44669977855156 "/><polyline class="polyline" opacity="0.5" stroke="blue" points="133.5005546002994,182.81354981154877 83.45662071268359,225.79939957508142 "/><polyline class="polyline" opacity="0.5" stroke="blue" points="133.48068777777013,181.88099887718894 82.69643079245195,224.13146917572527 "/><polyline class="polyline" opacity="0.5" stroke="blue" points="133.4896421489293,180.95208126328097 81.97829645778852,222.4434531315791 "/><polyline class="polyline" opacity="0.5" stroke="blue" points="133.5276111757461,180.02721812600797 81.3035377694091,220.73591974260773 "/><polyline class="polyline" opacity="0.5" stroke="blue" points="133.59477795836023,179.10683464983973 80.67348100060829,219.00946173476885 "/><polyline class="polyline" opacity="0.5" stroke="blue" points="133.69131483649647,178.191359893945 80.08945771460571,217.26469693832937 "/><polyline class="polyline" opacity="0.5" stroke="blue" points="133.81738298646303,177.28122662717263 79.55280376035448,215.50226896496403 "/><polyline class="polyline" opacity="0.5" stroke="blue" points="133.97313201429225,176.3768711513755 79.0648581832212,213.72284788103178 "/><polyline class="polyline" opacity="0.5" stroke="blue" points="134.1586995456147,175.47873311286838 78.62696204699387,211.92713087423823 "/><polyline class="polyline" opacity="0.5" stroke="blue" points="134.37421081289682,174.58725530182681 78.2404571637403,210.11584291068667 "/><polyline class="polyline" opacity="0.5" stroke="blue" points="134.61977824070624,173.7028834394555 77.90668472812983,208.28973737912276 "/><polyline class="polyline" opacity="0.5" stroke="blue" points="134.89550102970605,172.82606595277304 77.62698385294671,206.44959671896368 "/><polyline class="polyline" opacity="0.5" stroke="blue" points="135.20146474011534,171.95725373688467 77.40269000266426,204.59623302849698 "/><polyline class="polyline" opacity="0.5" stroke="blue" points="135.5377408754085,171.09689990463553 77.23513332212148,202.7304886494138 "/><polyline class="polyline" opacity="0.5" stroke="blue" points="135.90438646706255,170.2454595235643 77.12563685754455,200.85323672363066 "/><polyline class="polyline" opacity="0.5" stroke="blue" points="136.30144366119484,169.40338934010495 77.0755146673942,198.96538171813918 "/><polyline class="polyline" opacity="0.5" stroke="blue" points="136.72893930796934,168.57114749100933 77.08606982078817,197.0678599134047 "/><polyline class="polyline" opacity="0.5" stroke="blue" points="137.18688455468228,167.74919320199785 77.15859228156118,195.16163985063096 "/><polyline class="polyline" opacity="0.5" stroke="blue" points="137.67527444347,166.9379864736734 77.29435667636974,193.247722732998 "/><polyline class="polyline" opacity="0.5" stroke="blue" points="138.19408751461287,166.13798775477002 77.49461994564338,191.32714277578683 "/><polyline class="polyline" opacity="0.5" stroke="blue" points="138.74328541643942,165.3496576028396 77.7606188766153,189.40096750011045 "/><polyline class="polyline" opacity="0.5" stroke="blue" points="139.32281252286148,164.5734563325182 78.09356751814668,187.47029796479978 "/><polyline class="polyline" opacity="0.5" stroke="blue" points="139.93259555959816,163.8098436515493 78.49465447758173,185.5362689308245 "/><polyline class="polyline" opacity="0.5" stroke="blue" points="140.57254324016924,163.0592782847822 78.96504010044612,183.60004895248906 "/><polyline class="polyline" opacity="0.5" stroke="blue" points="141.2425459127624,162.32221758640026 79.5058535344219,181.66284038951133 "/><polyline class="polyline" opacity="0.5" stroke="blue" points="141.94247521909486,161.59911714067812 80.1181896797011,179.72587933399387 "/><polyline class="polyline" opacity="0.5" stroke="blue" points="142.6721837664091,160.8904303516068 80.80310602854202,177.7904354462161 "/><polyline class="polyline" opacity="0.5" stroke="blue" points="143.4315048137542,160.19660802176972 81.56161939761736,175.85781169313378 "/><polyline class="polyline" opacity="0.5" stroke="blue" points="144.22025197371613,159.51809792089466 82.39470255756167,173.9293439834483 "/><polyline class="polyline" opacity="0.5" stroke="blue" points="145.03821893076622,158.8553443445528 83.30328076498597,172.00640069313775 "/><polyline class="polyline" opacity="0.5" stroke="blue" points="145.88517917740063,158.2087876635195 84.28822820313432,170.09038207539982 "/><polyline class="polyline" opacity="0.5" stroke="blue" points="146.7608857692451,157.57886386435618 85.35036433830592,168.18271954905822 "/><polyline class="polyline" opacity="0.5" stroke="blue" points="147.6650711002932,156.96600408181882 86.490450200152,166.28487485964024 "/><polyline class="polyline" opacity="0.5" stroke="blue" points="148.5974466994394,156.37063412374238 87.70918459497874,164.39833910753 "/><polyline class="polyline" opacity="0.5" stroke="blue" points="149.5577030494546,155.79317398909635 89.0072002622357,162.52463163786433 "/><polyline class="polyline" opacity="0.5" stroke="blue" points="150.54550942953736,155.23403737994965 90.38505998544406,160.66529878713905 "/><polyline class="polyline" opacity="0.5" stroke="blue" points="151.5605137825496,154.69363120812832 91.84325266991003,158.82191248187746 "/><polyline class="polyline" opacity="0.5" stroke="blue" points="152.60234260802252,154.17235509739015 93.38218940066692,156.99606868513786 "/><polyline class="polyline" opacity="0.5" stroke="blue" points="153.67060088198448,153.67060088198448 95.00219949519074,155.18938568714196 "/><polyline class="polyline" opacity="0.5" stroke="blue" points="154.7648720046307,153.18875210250377 96.7035265665281,153.40350223686494 "/><polyline class="polyline" opacity="0.5" stroke="blue" points="155.88471777681104,152.72718349997248 98.48632461354796,151.64007551206618 "/><polyline class="polyline" opacity="0.5" stroke="blue" points="157.0296784062682,152.2862605091574 100.35065415607555,149.900778925937 "/><polyline class="polyline" opacity="0.5" stroke="blue" points="158.19927254450695,151.86633875211658 102.29647843366692,148.18729976931377 "/><polyline class="polyline" opacity="0.5" stroke="blue" points="159.39299735512208,151.46776353303716 104.3236596877389,146.50133668823736 "/><polyline class="polyline" opacity="0.5" stroke="blue" points="160.61032861434992,151.09086933544356 106.43195554764985,144.84459699754763 "/><polyline class="polyline" opacity="0.5" stroke="blue" points="161.85072084454382,150.7359793228835 108.62101554212606,143.21879383216628 "/><polyline class="polyline" opacity="0.5" stroke="blue" points="163.11360748120532,150.40340484422427 110.89037775815035,141.62564313874682 "/><polyline class="polyline" opacity="0.5" stroke="blue" points="164.39840107412743,150.0934449447132 113.23946567001528,140.06686051145658 "/><polyline class="polyline" opacity="0.5" stroke="blue" points="165.7044935231272,149.80638588397375 115.66758516173614,138.5441578767871 "/><polyline class="polyline" opacity="0.5" stroke="blue" points="167.03125634876136,149.54250066212273 118.1739217663473,137.0592400334716 "/><polyline class="polyline" opacity="0.5" stroke="blue" points="168.37804099833434,149.30204855520492 120.75753814580776,135.613801054797 "/><polyline class="polyline" opacity="0.5" stroke="blue" points="169.74417918741216,149.08527466114705 123.41737183525721,134.20952056184962 "/><polyline class="polyline" opacity="0.5" stroke="blue" points="171.12898327696695,148.89240945743683 126.15223327522281,132.84805987749206 "/><polyline class="polyline" opacity="0.5" stroke="blue" points="172.53174668617257,148.72366837172848 128.96080415502482,131.53105807214178 "/><polyline class="polyline" opacity="0.5" stroke="blue" points="173.95174434077842,148.5792513665719 131.8416360901047,130.2601279136915 "/><polyline class="polyline" opacity="0.5" stroke="blue" points="175.3882331568794,148.45934253945012 134.79314965523935,129.03685173516286 "/><polyline class="polyline" opacity="0.5" stroke="blue" points="176.84045255979885,148.36410973929478 137.81363379465128,127.86277723491165 "/><polyline class="polyline" opacity="0.5" stroke="blue" points="178.30762503769114,148.29370420062907 140.90124562883523,126.7394132253868 "/><polyline class="polyline" opacity="0.5" stroke="blue" points="179.78895672936684,148.24826019646156 144.0540106765232,125.66822534756649 "/><polyline class="polyline" opacity="0.5" stroke="blue" points="181.28363804573033,148.2278947110264 147.26982350857534,124.65063176925628 "/><polyline class="polyline" opacity="0.5" stroke="blue" points="182.79084432411227,148.23270713342902 150.54644884872988,123.6879988863994 "/><polyline class="polyline" opacity="0.5" stroke="blue" points="184.3097365146718,148.26277897321802 153.88152313408938,122.7816370474191 "/><polyline class="polyline" opacity="0.5" stroke="blue" points="185.83946189793278,148.31817359886077 157.27255654593148,121.93279632136604 "/><polyline class="polyline" opacity="0.5" stroke="blue" points="187.37915483241312,148.39893600005036 160.71693551897067,121.14266233126926 "/><polyline class="polyline" opacity="0.5" stroke="blue" points="188.92793753119923,148.50509257472004 164.2119257345311,120.41235217457078 "/><polyline class="polyline" opacity="0.5" stroke="blue" points="190.48492086621744,148.6366509415841 167.7546756002809,119.74291045285011 "/><polyline class="polyline" opacity="0.5" stroke="blue" points="192.04920519885118,148.79359977896218 171.34222021620008,119.13530543320974 "/><polyline class="polyline" opacity="0.5" stroke="blue" points="193.61988123545808,148.97590869057981 174.9714858233731,118.59042536367716 "/><polyline class="polyline" opacity="0.5" stroke="blue" points="195.1960309062455,149.18352809896948 178.63929472900293,118.10907496478362 "/><polyline class="polyline" opacity="0.5" stroke="blue" points="196.77672826587855,149.41638916702348 182.3423706978007,117.691972119095 "/><polyline class="polyline" opacity="0.5" stroke="blue" points="198.361040414107,149.67440374817602 186.0773447966041,117.33974477989035 "/><polyline class="polyline" opacity="0.5" stroke="blue" points="199.94802843461932,149.95746436561262 189.84076167578246,117.05292811941355 "/><polyline class="polyline" opacity="0.5" stroke="blue" points="201.5367483502627,150.26544422082597 193.6290862677279,116.83196193615422 "/><polyline class="polyline" opacity="0.5" stroke="blue" points="203.12625209269692,150.59819723175355 197.4387108795158,116.67718833945887 "/><polyline class="polyline" opacity="0.5" stroke="blue" points="204.7155884844932,150.95555810064914 201.2659626537236,116.5888497284294 "/><polyline class="polyline" opacity="0.5" stroke="blue" points="206.303804231633,151.3373424117528 205.107111368416,116.56708708055066 "/><polyline class="polyline" opacity="0.5" stroke="blue" points="207.8899449243193,151.74334675874002 208.9583775445158,116.61193856379948 "/><polyline class="polyline" opacity="0.5" stroke="blue" points="209.47305604397135,152.1733489018403 212.81594082616797,116.72333848415713 "/><polyline class="polyline" opacity="0.5" stroke="blue" points="211.05218397424545,152.62710795443022 216.67594859734996,116.90111657846762 "/><polyline class="polyline" opacity="0.5" stroke="blue" points="212.62637701389872,153.10436459881694 220.5345247958709,117.1449976604961 "/><polyline class="polyline" opacity="0.5" stroke="blue" points="214.19468638930303,153.60484133084327 224.38777888410704,117.45460162584648 "/><polyline class="polyline" opacity="0.5" stroke="blue" points="215.75616726440444,154.1282427328576 228.2318149343129,117.82944381912837 "/><polyline class="polyline" opacity="0.5" stroke="blue" points="217.30987974592983,154.6742557745094 232.0627407851993,118.26893576443658 "/><polyline class="polyline" opacity="0.5" stroke="blue" points="218.85488988164875,155.2425501407477 235.87667722565425,118.7723862578476 "/><polyline class="polyline" opacity="0.5" stroke="blue" points="220.3902706495214,155.83277858632025 239.66976716104887,119.33900281827384 "/><polyline class="polyline" opacity="0.5" stroke="blue" points="221.91510293558684,156.44457731599314 243.43818471748938,119.96789349066643 "/><polyline class="polyline" opacity="0.5" stroke="blue" points="223.42847649848045,157.07756638963596 247.17814423967803,120.65806899324897 "/><polyline class="polyline" opacity="0.5" stroke="blue" points="224.92949091851548,157.73135015124706 250.88590913872517,121.40844519822893 "/><polyline class="polyline" opacity="0.5" stroke="blue" points="226.4172565293104,158.40551768092467 254.55780054728092,122.21784593327698 "/><polyline class="polyline" opacity="0.5" stroke="blue" points="227.8908953300033,159.09964326872768 258.1902057407556,123.08500608902882 "/><polyline class="polyline" opacity="0.5" stroke="blue" points="229.3495418761583,159.81328690930758 261.7795862851124,124.00857501595505 "/><polyline class="polyline" opacity="0.5" stroke="blue" points="230.79234414754285,160.54599481614224 265.3224858737751,124.98712019219231 "/><polyline class="polyline" opacity="0.5" stroke="blue" points="232.2184643910302,161.297299954148 268.8155378185174,126.01913114233875 "/><polyline class="polyline" opacity="0.5" stroke="blue" points="233.62707993696756,162.06672258940384 272.255472161812,127.10302358581707 "/><polyline class="polyline" opacity="0.5" stroke="blue" points="235.01738398743703,162.85377085468002 275.63912238094866,128.23714379219646 "/><polyline class="polyline" opacity="0.5" stroke="blue" points="236.38858637493658,163.65794132942946 278.96343165727984,129.4197731198642 "/><polyline class="polyline" opacity="0.5" stroke="blue" points="237.73991429010061,164.47871963286966 282.225458687151,130.64913271364307 "/><polyline class="polyline" opacity="0.5" stroke="blue" points="239.07061297718982,165.3155810287597 285.42238301441887,131.923388336374 "/><polyline class="polyline" opacity="0.5" stroke="blue" points="240.37994639618026,166.1679910404573 288.5515098678887,133.2406553091221 "/><polyline class="polyline" opacity="0.5" stroke="blue" points="241.66719785039797,167.0354060748284 291.61027449049766,134.59900353451923 "/><polyline class="polyline" opacity="0.5" stroke="blue" points="242.9316705787536,167.91727405357383 294.59624595057994,135.99646257781865 "/><polyline class="polyline" opacity="0.5" stroke="blue" points="244.17268831174513,168.81303505053472 297.5071304290369,137.43102678050582 "/><polyline class="polyline" opacity="0.5" stroke="blue" points="245.38959579051735,169.7221219335423 300.34077397969435,138.90066038177392 "/><polyline class="polyline" opacity="0.5" stroke="blue" points="246.58175924837667,170.643961009385 303.0951647634741,140.4033026238169 "/><polyline class="polyline" opacity="0.5" stroke="blue" points="247.74856685428193,171.5779726704804 305.7684347602642,141.93687281771287 "/><polyline class="polyline" opacity="0.5" stroke="blue" points="248.8894291179433,172.5235720418555 308.35886096546903,143.49927534764194 "/><polyline class="polyline" opacity="0.5" stroke="blue" points="250.0037792562818,173.48016962706504 310.86486608116496,145.08840459230166 "/><polyline class="polyline" opacity="0.5" stroke="blue" points="251.0910735211117,174.44717195170256 313.2850187145289,146.7021497436183 "/><polyline class="polyline" opacity="0.5" stroke="blue" points="252.15079148802315,175.423982203192 315.6180330987516,148.3383995042008 "/><polyline class="polyline" opacity="0.5" stroke="blue" points="253.18243630655053,176.4100008655829 317.862768353961,149.99504664641546 "/><polyline class="polyline" opacity="0.5" stroke="blue" points="254.18553491182115,177.40462634811374 320.0182273077648,151.6699924174696 "/><polyline class="polyline" opacity="0.5" stroke="blue" points="255.15963819798142,178.40725560634883 322.0835548968605,153.3611507764445 "/><polyline class="polyline" opacity="0.5" stroke="blue" points="256.1043211537992,179.41728475474332 324.0580361727445,155.06645245081734 "/><polyline class="polyline" opacity="0.5" stroke="blue" points="257.01918296093686,180.43410966953803 325.9410939358938,156.78384880161707 "/></svg>
