<?xml version="1.0" encoding="UTF-8"?>
<!DOCTYPE svg PUBLIC "-//W3C//DTD SVG 1.1//EN"
    "http://www.w3.org/Graphics/SVG/1.1/DTD/svg11.dtd"><svg width="400" height="400" stroke="black" fill="none" fill-opacity="0.75" font-size="14" font-style="italic" font-family="sans-serif" xmlns="http://www.w3.org/2000/svg" xmlns:xlink="http://www.w3.org/1999/xlink" version="1.1"><filter id="blur1"><feGaussianBlur stdDeviation="0.5"/></filter><rect width="100%" height="100%" fill="white" stroke="none" fill-opacity="1"/><rect class="bg" fill="black" width="100%" height="100%" stroke="none" fill-opacity="1"/><polyline class="polyline" opacity="0.5" stroke="blue" points="263.170475652339,187.68929540771958 337.19246952823096,172.5848952234182 "/><polyline class="polyline" opacity="0.5" stroke="blue" points="263.8425452143432,188.5700730026182 338.3179455022678,173.8814376751742 "/><polyline class="polyline" opacity="0.5" stroke="blue" points="264.4816775093044,189.4525013875889 339.3518251923216,175.17769364151948 "/><polyline class="polyline" opacity="0.5" stroke="blue" points="265.0877404898414,190.33609675314509 340.2947889379716,176.47225303717062 "/><polyline class="polyline" opacity="0.5" stroke="blue" points="265.66062530017547,191.2203803629048 341.14761020152764,177.7637443168376 "/><polyline class="polyline" opacity="0.5" stroke="blue" points="266.2002459062527,192.10487889157463 341.9111504195407,179.05083559165334 "/><polyline class="polyline" opacity="0.5" stroke="blue" points="266.70653870389606,192.98912474574735 342.5863538523615,180.3322355730887 "/><polyline class="polyline" opacity="0.5" stroke="blue" points="267.1794621065138,193.87265636741455 343.17424245328806,181.606694350509 "/><polyline class="polyline" opacity="0.5" stroke="blue" points="267.6189961138865,194.75501852014648 343.6759107773242,182.8730040090333 "/><polyline class="polyline" opacity="0.5" stroke="blue" points="268.0251418635549,195.6357625579388 344.092520948015,184.1299990947797 "/><polyline class="polyline" opacity="0.5" stroke="blue" points="268.3979211663169,196.5144466767738 344.4252976992743,185.37655693492107 "/><polyline class="polyline" opacity="0.5" stroke="blue" points="268.7373760273309,197.3906361489873 344.6755235075549,186.61159782024163 "/><polyline class="polyline" opacity="0.5" stroke="blue" points="269.04356815430197,198.2639035405752 344.8445338281802,187.8340850580765 "/><polyline class="polyline" opacity="0.5" stroke="blue" points="269.3165784542041,199.1338289116129 344.9337124481409,189.04302490364316 "/><polyline class="polyline" opacity="0.5" stroke="blue" points="269.55650651996757,200.0 344.94448696618906,190.2374663778354 "/><polyline class="polyline" opacity="0.5" stroke="blue" points="269.76347010852567,200.8620123887762 344.87832440963564,191.41650097955628 "/><polyline class="polyline" opacity="0.5" stroke="blue" points="269.93760461158575,201.71946965728904 344.73672699588724,192.5792623006183 "/><polyline class="polyline" opacity="0.5" stroke="blue" points="270.0790625204501,202.57198351652264 344.5212280454431,193.72492555114462 "/><polyline class="polyline" opacity="0.5" stroke="blue" points="270.18801288617414,203.41917392892714 344.23338805183084,194.8527070032671 "/><polyline class="polyline" opacity="0.5" stroke="blue" points="270.26464077630715,204.2606692131116 343.8747909127801,195.9618633607431 "/><polyline class="polyline" opacity="0.5" stroke="blue" points="270.30914672941867,205.09610613378908 343.4470403258297,197.05169106190402 "/><polyline class="polyline" opacity="0.5" stroke="blue" points="270.32174620856546,205.92512997738092 342.95175635052993,198.12152552311477 "/><polyline class="polyline" opacity="0.5" stroke="blue" points="270.3026690548105,206.74739461370862 342.3905721384488,199.17074032966326 "/><polyline class="polyline" opacity="0.5" stroke="blue" points="270.2521589418535,207.56256254421578 341.7651308313039,200.19874638072133 "/><polyline class="polyline" opacity="0.5" stroke="blue" points="270.17047283278794,208.37030493717842 341.0770826267385,201.20499099472428 "/><polyline class="polyline" opacity="0.5" stroke="blue" points="270.0578804399448,209.17030165037318 340.3280820105216,202.18895698121187 "/><polyline class="polyline" opacity="0.5" stroke="blue" points="269.914663688737,209.96224124168353 339.5197851532922,203.15016168485818 "/><polyline class="polyline" opacity="0.5" stroke="blue" points="269.7411161863653,210.74582096813157 338.6538474693693,204.0881560071003 "/><polyline class="polyline" opacity="0.5" stroke="blue" points="269.53754269619765,211.52074677382993 337.7319213346249,205.00252341045325 "/><polyline class="polyline" opacity="0.5" stroke="blue" points="269.30425861858197,212.2867332673518 336.75565395995284,205.89287891027703 "/><polyline class="polyline" opacity="0.5" stroke="blue" points="269.04158947880313,213.0435036890205 335.72668541646203,206.75886805844334 "/><polyline class="polyline" opacity="0.5" stroke="blue" points="268.74987042284454,213.7907898686205 334.64664680817737,207.60016592303367 "/><polyline class="polyline" opacity="0.5" stroke="blue" points="268.42944572156716,214.52833217403162 333.5171585877414,208.41647606789218 "/><polyline class="polyline" opacity="0.5" stroke="blue" points="268.0806682838686,215.25587945128584 332.3398290103685,209.20752953555498 "/><polyline class="polyline" opacity="0.5" stroke="blue" points="267.70389917933846,215.97318895654286 331.11625272110757,209.97308383678563 "/><polyline class="polyline" opacity="0.5" stroke="blue" points="267.29950717088116,216.6800262804767 329.84800947032124,210.71292194966315 "/><polyline class="polyline" opacity="0.5" stroke="blue" points="266.8678682577304,217.3761652655584 328.53666295218017,211.42685133089734 "/><polyline class="polyline" opacity="0.5" stroke="blue" points="266.4093652292358,218.06138791671475 327.1837597608941,212.11470294178548 "/><polyline class="polyline" opacity="0.5" stroke="blue" points="265.92438722976226,218.73548430583392 325.7908284593659,212.7763302909758 "/><polyline class="polyline" opacity="0.5" stroke="blue" points="265.4133293349975,219.39825247058084 324.35937875494085,213.41160849596653 "/><polyline class="polyline" opacity="0.5" stroke="blue" points="264.87659213992663,220.0494983079757 322.89090077694493,214.02043336504536 "/><polyline class="polyline" opacity="0.5" stroke="blue" points="264.3145813586937,220.68903546317816 321.38686445074364,214.602720501163 "/><polyline class="polyline" opacity="0.5" stroke="blue" points="263.7277074365328,221.31668521390995 319.84871896311853,215.15840442903502 "/><polyline class="polyline" opacity="0.5" stroke="blue" points="263.11638517391646,221.9322763509365 318.27789231383935,215.6874377465807 "/><polyline class="polyline" opacity="0.5" stroke="blue" points="262.4810333630368,222.5356450550162 316.67579094840664,216.18979030163266 "/><polyline class="polyline" opacity="0.5" stroke="blue" points="261.8220744367013,223.1266347707151 315.04379946705455,216.66544839468915 "/><polyline class="polyline" opacity="0.5" stroke="blue" points="261.1399341296965,223.70509607746962 313.3832804052232,217.11441400833112 "/><polyline class="polyline" opacity="0.5" stroke="blue" points="260.43504115264176,224.2708865582698 311.6955740808468,217.5367040637861 "/><polyline class="polyline" opacity="0.5" stroke="blue" points="259.70782687833287,224.82387066632077 309.9819985039446,217.9323497049942 "/><polyline class="polyline" opacity="0.5" stroke="blue" points="258.9587250405428,225.3639195900273 308.2438493441474,218.30139561041258 "/><polyline class="polyline" opacity="0.5" stroke="blue" points="258.1881714452309,225.89091111663333 306.4823999519468,218.6438993326882 "/><polyline class="polyline" opacity="0.5" stroke="blue" points="257.39660369408296,226.40472949483427 304.6989014296112,218.9599306662306 "/><polyline class="polyline" opacity="0.5" stroke="blue" points="256.58446092028663,226.9052652966678 302.89458274786637,219.24957104262722 "/><polyline class="polyline" opacity="0.5" stroke="blue" points="255.7521835364281,227.39241527897383 301.07065090460225,219.51291295376424 "/><polyline class="polyline" opacity="0.5" stroke="blue" points="254.9002129943758,227.86608224470257 299.22829112202237,219.75005940244222 "/><polyline class="polyline" opacity="0.5" stroke="blue" points="254.02899155700075,228.32617490433572 297.3686670788128,219.96112338021408 "/><polyline class="polyline" opacity="0.5" stroke="blue" points="253.13896208157,228.77260773767335 295.4929211740625,220.14622737211187 "/><polyline class="polyline" opacity="0.5" stroke="blue" points="252.23056781463242,229.2053008562257 293.6021748198203,220.30550288788092 "/><polyline class="polyline" opacity="0.5" stroke="blue" points="251.30425219820606,229.62417986643743 291.6975287593252,220.4390900192937 "/><polyline class="polyline" opacity="0.5" stroke="blue" points="250.36045868706344,230.0291757339583 289.7800634080947,220.54713702307686 "/><polyline class="polyline" opacity="0.5" stroke="blue" points="249.39963057690113,230.42022464916428 287.8508392151955,220.6297999289514 "/><polyline class="polyline" opacity="0.5" stroke="blue" points="248.42221084317083,230.79726789411876 285.9108970421653,220.68724217225662 "/><polyline class="polyline" opacity="0.5" stroke="blue" points="247.42864199034045,231.1602517111546 283.96125855718435,220.71963425060395 "/><polyline class="polyline" opacity="0.5" stroke="blue" points="246.41936591134765,231.50912717324456 282.0029266422265,220.72715340398614 "/><polyline class="polyline" opacity="0.5" stroke="blue" points="245.3948237570002,231.84385005631893 280.0368858110454,220.70998331775013 "/><polyline class="polyline" opacity="0.5" stroke="blue" points="244.35545581507432,232.16438071367642 278.0641026359683,220.6683138478282 "/><polyline class="polyline" opacity="0.5" stroke="blue" points="243.30170139885539,232.47068395262667 276.08552618158785,220.60234076761105 "/><polyline class="polyline" opacity="0.5" stroke="blue" points="242.23399874486387,232.76272891349083 274.1020884435478,220.51226553583876 "/><polyline class="polyline" opacity="0.5" stroke="blue" points="241.1527849195043,233.04048895107917 272.11470479072545,220.39829508487816 "/><polyline class="polyline" opacity="0.5" stroke="blue" points="240.05849573437462,233.30394151875413 270.12427440921044,220.2606416287528 "/><polyline class="polyline" opacity="0.5" stroke="blue" points="238.95156566996968,233.55306805517947 268.1316807465755,220.09952249028908 "/><polyline class="polyline" opacity="0.5" stroke="blue" points="237.8324278075137,233.78785387384772 266.13779195502036,219.9151599467396 "/><polyline class="polyline" opacity="0.5" stroke="blue" points="236.70151376865422,234.00828805546982 264.1434613320571,219.70778109324874 "/><polyline class="polyline" opacity="0.5" stroke="blue" points="235.5592536627506,234.21436334330377 262.1495277574823,219.47761772352308 "/><polyline class="polyline" opacity="0.5" stroke="blue" points="234.4060760414914,234.4060760414914 260.15681612545563,219.224906227075 "/><polyline class="polyline" opacity="0.5" stroke="blue" points="233.24240786057445,234.58342591646567 258.16613777057546,218.94988750240844 "/><polyline class="polyline" opacity="0.5" stroke="blue" points="232.0686744481857,234.7464161014847 256.17829088690684,218.6528068855211 "/><polyline class="polyline" opacity="0.5" stroke="blue" points="230.88529948001445,234.89505300434183 254.19406093897973,218.3339140930995 "/><polyline class="polyline" opacity="0.5" stroke="blue" points="229.69270496054327,235.0293462182954 252.2142210638296,217.993463179789 "/><polyline class="polyline" opacity="0.5" stroke="blue" points="228.4913112103554,235.1493084362566 250.23953246321045,217.6317125089231 "/><polyline class="polyline" opacity="0.5" stroke="blue" points="227.28153685920213,235.2549553682682 248.27074478515755,217.24892473610254 "/><polyline class="polyline" opacity="0.5" stroke="blue" points="226.06379884457758,235.3463056623022 246.30859649412403,216.845366805016 "/><polyline class="polyline" opacity="0.5" stroke="blue" points="224.83851241554942,235.4233808283986 244.35381522895977,216.42130995489953 "/><polyline class="polyline" opacity="0.5" stroke="blue" points="223.60609114159826,235.48620516616575 242.4071181480409,215.97702973903432 "/><polyline class="polyline" opacity="0.5" stroke="blue" points="222.3669469262201,235.53480569565528 240.46921226089611,215.5128060536849 "/><polyline class="polyline" opacity="0.5" stroke="blue" points="221.12149002505112,235.5692120916229 238.5407947457108,215.0289231768821 "/><polyline class="polyline" opacity="0.5" stroke="blue" points="219.87012906827542,235.589456621182 236.62255325212294,214.52566981645688 "/><polyline class="polyline" opacity="0.5" stroke="blue" points="218.61327108708085,235.59557408485392 234.71516618875518,214.0033391667316 "/><polyline class="polyline" opacity="0.5" stroke="blue" points="217.351321543931,235.58760176101444 232.81930299495633,213.46222897327624 "/><polyline class="polyline" opacity="0.5" stroke="blue" points="216.08468436642417,235.5655793537346 230.93562439625194,212.90264160513576 "/><polyline class="polyline" opacity="0.5" stroke="blue" points="214.81376198451431,235.52954894400983 229.0647826430294,212.32488413393432 "/><polyline class="polyline" opacity="0.5" stroke="blue" points="213.53895537087075,235.47955494436957 227.20742173200603,211.72926841925977 "/><polyline class="polyline" opacity="0.5" stroke="blue" points="212.2606640841586,235.41564405685654 225.36417761005356,211.1161111997294 "/><polyline class="polyline" opacity="0.5" stroke="blue" points="210.97928631502225,235.3378652343628 223.53567835997154,210.48573418913415 "/><polyline class="polyline" opacity="0.5" stroke="blue" points="209.69521893456022,235.24626964530793 221.7225443678254,209.8384641770547 "/><polyline class="polyline" opacity="0.5" stroke="blue" points="208.40885754507948,235.14091064164163 219.9253884714849,209.17463313333798 "/><polyline class="polyline" opacity="0.5" stroke="blue" points="207.12059653292306,235.02184373015214 218.14481609001865,208.49457831581617 "/><polyline class="polyline" opacity="0.5" stroke="blue" points="205.8308291231648,234.88912654705985 216.38142533362145,207.79864238064548 "/><polyline class="polyline" opacity="0.5" stroke="blue" points="204.53994743596957,234.7428188358733 214.63580709377,207.0871734946337 "/><polyline class="polyline" opacity="0.5" stroke="blue" points="203.2483425444183,234.58298242848397 212.908545113324,206.36052544891874 "/><polyline class="polyline" opacity="0.5" stroke="blue" points="201.95640453360028,234.40968122947416 211.20021603631074,205.61905777335176 "/><polyline class="polyline" opacity="0.5" stroke="blue" points="200.66452256077633,234.22298120361074 209.5113894371509,204.86313585093103 "/><polyline class="polyline" opacity="0.5" stroke="blue" points="199.37308491641969,234.02295036649713 207.84262782910807,204.09313103162214 "/><polyline class="polyline" opacity="0.5" stroke="blue" points="198.08247908594115,233.80965877835314 206.19448665176466,203.30942074489204 "/><polyline class="polyline" opacity="0.5" stroke="blue" points="196.79309181190885,233.5831785408921 204.56751423735443,202.51238861027497 "/><polyline class="polyline" opacity="0.5" stroke="blue" points="195.50530915657245,233.34358379726285 202.9622517558034,201.70242454527707 "/><polyline class="polyline" opacity="0.5" stroke="blue" points="194.21951656450392,233.09095073502328 201.37923313836222,200.87992486991882 "/><polyline class="polyline" opacity="0.5" stroke="blue" points="192.9360989251676,232.82535759211066 199.8189849797372,200.04529240720333 "/><polyline class="polyline" opacity="0.5" stroke="blue" points="191.65544063523294,232.5468846657723 198.282026418661,199.19893657878893 "/><polyline class="polyline" opacity="0.5" stroke="blue" points="190.37792566044436,232.25561432442004 196.7688689968736,198.34127349513608 "/><polyline class="polyline" opacity="0.5" stroke="blue" points="189.10393759686292,231.95163102236944 195.2800164965201,197.472726039389 "/><polyline class="polyline" opacity="0.5" stroke="blue" points="187.83385973129424,231.63502131742376 193.81596475600523,196.59372394424423 "/><polyline class="polyline" opacity="0.5" stroke="blue" points="186.56807510071837,231.30587389126168 192.3772014643871,195.70470386105075 "/><polyline class="polyline" opacity="0.5" stroke="blue" points="185.30696655053583,230.96427957258592 190.96420593442858,194.80610942037976 "/><polyline class="polyline" opacity="0.5" stroke="blue" points="184.05091679144502,230.61033136298863 189.57744885447127,193.89839128329592 "/><polyline class="polyline" opacity="0.5" stroke="blue" points="182.80030845476463,230.24412446548763 188.21739201934108,192.98200718255728 "/><polyline class="polyline" opacity="0.5" stroke="blue" points="181.55552414601544,229.865756315686 186.8844880405416,192.0574219529685 "/><polyline class="polyline" opacity="0.5" stroke="blue" points="180.31694649657322,229.47532661550648 185.57918003604448,191.12510755010908 "/><polyline class="polyline" opacity="0.5" stroke="blue" points="179.0849582132059,229.07293736944865 184.3019013000356,190.18554305665947 "/><polyline class="polyline" opacity="0.5" stroke="blue" points="177.85994212530494,228.65869292331712 183.05307495303532,189.2392146755479 "/><polyline class="polyline" opacity="0.5" stroke="blue" points="176.64228122962106,228.23270000536482 181.83311357286544,188.28661570914736 "/><polyline class="polyline" opacity="0.5" stroke="blue" points="175.4323587323125,227.79506776979494 180.64241880699979,187.32824652375464 "/><polyline class="polyline" opacity="0.5" stroke="blue" points="174.230558088113,227.3459078425617 179.48138096689547,186.36461449859536 "/><polyline class="polyline" opacity="0.5" stroke="blue" points="173.03726303642463,226.88533436940824 178.35037860496976,185.39623395860758 "/><polyline class="polyline" opacity="0.5" stroke="blue" points="171.85285763413967,226.41346406607735 177.24977807495367,184.42362609027148 "/><polyline class="polyline" opacity="0.5" stroke="blue" points="170.67772628499293,225.93041627062746 176.1799330764241,183.44731883976948 "/><polyline class="polyline" opacity="0.5" stroke="blue" points="169.5122537652457,225.4363129977846 175.14118418438832,182.4678467927809 "/><polyline class="polyline" opacity="0.5" stroke="blue" points="168.35682524549944,224.93127899525638 174.13385836486776,181.48575103523928 "/><polyline class="polyline" opacity="0.5" stroke="blue" points="167.21182630843572,224.41544180193262 173.15826847750375,180.5015789944063 "/><polyline class="polyline" opacity="0.5" stroke="blue" points="166.07764296227734,223.88893180789236 172.2147127662844,179.51588425964843 "/><polyline class="polyline" opacity="0.5" stroke="blue" points="164.95466164976395,223.35188231613444 171.30347433956922,178.52922638233494 "/><polyline class="polyline" opacity="0.5" stroke="blue" points="163.84326925243272,222.80442960594448 170.42482064066675,177.54217065431575 "/><polyline class="polyline" opacity="0.5" stroke="blue" points="162.74385308999356,222.24671299780766 169.57900291029927,176.55528786447906 "/><polyline class="polyline" opacity="0.5" stroke="blue" points="161.65680091458677,221.67887491977226 168.766255642367,175.56915403293556 "/><polyline class="polyline" opacity="0.5" stroke="blue" points="160.5825008997084,221.10106097516467 167.98679603450364,174.5843501224266 "/><polyline class="polyline" opacity="0.5" stroke="blue" points="159.52134162358846,220.5134200115524 167.24082343499205,173.60146172660876 "/><polyline class="polyline" opacity="0.5" stroke="blue" points="158.4737120468041,219.91610419084626 166.5285187876857,172.62107873492664 "/><polyline class="polyline" opacity="0.5" stroke="blue" points="157.44000148391052,219.30926906042882 165.85004407665676,171.64379497384866 "/><polyline class="polyline" opacity="0.5" stroke="blue" points="156.42059956886908,218.69307362519072 165.20554177236397,170.67020782431013 "/><polyline class="polyline" opacity="0.5" stroke="blue" points="155.4158962140536,218.06768042035094 164.59513428120277,169.70091781527796 "/><polyline class="polyline" opacity="0.5" stroke="blue" points="154.42628156261316,217.4332555849323 164.01892340036906,168.73652819342936 "/><polyline class="polyline" opacity="0.5" stroke="blue" points="153.45214593397102,216.78996893575714 163.47698978002816,167.7776444690166 "/><polyline class="polyline" opacity="0.5" stroke="blue" points="152.4938797622383,216.1379940418227 162.96939239484098,166.82487393807384 "/><polyline class="polyline" opacity="0.5" stroke="blue" points="151.55187352732133,215.47750829890973 162.49616802695226,165.8788251812107 "/><polyline class="polyline" opacity="0.5" stroke="blue" points="150.6265176785036,214.8086930042711 162.05733076259375,164.9401075393281 "/><polyline class="polyline" opacity="0.5" stroke="blue" points="149.71820255028265,214.1317334312419 161.65287150449706,164.0093305666872 "/><polyline class="polyline" opacity="0.5" stroke="blue" points="148.827318270245,213.44681890360434 161.2827575023461,163.08710346185867 "/><polyline class="polyline" opacity="0.5" stroke="blue" points="147.95425465876386,212.75414286953594 160.94693190352638,162.17403447718112 "/><polyline class="polyline" opacity="0.5" stroke="blue" points="147.0994011203073,212.0539029749613 160.64531332644836,161.2707303074589 "/><polyline class="polyline" opacity="0.5" stroke="blue" points="146.26314652614732,211.34630113612113 160.37779545873337,160.3777954587334 "/><polyline class="polyline" opacity="0.5" stroke="blue" points="145.4458790882644,210.63154361116574 160.14424668255288,159.4958315980681 "/><polyline class="polyline" opacity="0.5" stroke="blue" points="144.64798622424644,209.90984107057182 159.9445097294036,158.6254368853933 "/><polyline class="polyline" opacity="0.5" stroke="blue" points="143.86985441298668,209.18140866617543 159.77840136658523,157.76720528856282 "/><polyline class="polyline" opacity="0.5" stroke="blue" points="143.11186904098938,208.4464660986057 159.64571211761807,156.9217258828813 "/><polyline class="polyline" opacity="0.5" stroke="blue" points="142.37441423910184,207.70523768289706 159.54620601879972,156.08958213646605 "/><polyline class="polyline" opacity="0.5" stroke="blue" points="141.65787270949528,206.95795241204985 159.47962041405012,155.27135118291034 "/><polyline class="polyline" opacity="0.5" stroke="blue" points="140.9626255427284,206.2048440183025 159.4456657901326,154.46760308281807 "/><polyline class="polyline" opacity="0.5" stroke="blue" points="140.2890520247348,205.4461510318703 159.44402565426552,153.67890007587673 "/><polyline class="polyline" opacity="0.5" stroke="blue" points="139.63752943358753,204.682116836899 159.47435645605367,152.9057958252318 "/><polyline class="polyline" opacity="0.5" stroke="blue" points="139.00843282590284,203.9129897243742 159.53628755557244,152.1488346560159 "/><polyline class="polyline" opacity="0.5" stroke="blue" points="138.40213481276083,203.13902294172 159.6294212393277,151.40855078997333 "/><polyline class="polyline" opacity="0.5" stroke="blue" points="137.8190053250305,202.36047473881408 159.75333278569545,150.68546757819885 "/><polyline class="polyline" opacity="0.5" stroke="blue" points="137.2594113680043,201.57760841013905 159.90757058131055,149.98009673408566 "/><polyline class="polyline" opacity="0.5" stroke="blue" points="136.7237167652615,200.79069233278346 160.09165628973275,149.29293756864305 "/><polyline class="polyline" opacity="0.5" stroke="blue" points="136.2122818916965,200.0 160.30508507356137,148.62447623040447 "/><polyline class="polyline" opacity="0.5" stroke="blue" points="135.7254633956671,199.20581005002197 160.54732587100645,147.97518495219674 "/><polyline class="polyline" opacity="0.5" stroke="blue" points="135.2636139102367,198.40840628983375 160.8178217277475,147.34552130708448 "/><polyline class="polyline" opacity="0.5" stroke="blue" points="134.82708175350547,197.60807771358606 161.1159901847279,146.73592747583496 "/><polyline class="polyline" opacity="0.5" stroke="blue" points="134.41621061804705,196.80511851534135 161.44122372233844,146.14682952827218 "/><polyline class="polyline" opacity="0.5" stroke="blue" points="134.03133924949162,195.99982809583125 161.79289026124405,145.57863672090002 "/><polyline class="polyline" opacity="0.5" stroke="blue" points="133.67280111431973,195.19251106290366 162.17033371989868,145.03174081317667 "/><polyline class="polyline" opacity="0.5" stroke="blue" points="133.34092405695858,194.38347722533493 162.57287462858085,144.50651540481113 "/><polyline class="polyline" opacity="0.5" stroke="blue" points="133.0360299462999,193.57304157967863 162.99981079956322,144.00331529643088 "/><polyline class="polyline" opacity="0.5" stroke="blue" points="132.7584343117859,192.76152428982283 163.4504180528088,143.5224758759378 "/><polyline class="polyline" opacity="0.5" stroke="blue" points="132.50844596924264,191.94925065892497 163.92395099636002,143.06431253282207 "/><polyline class="polyline" opacity="0.5" stroke="blue" points="132.28636663666964,191.13655109339473 164.41964386036477,142.6291201026478 "/><polyline class="polyline" opacity="0.5" stroke="blue" points="132.0924905402288,190.32376105859564 164.93671138345442,142.21717234385446 "/><polyline class="polyline" opacity="0.5" stroke="blue" points="131.92710401070917,189.51122102593803 165.4743497499686,141.82872144893713 "/><polyline class="polyline" opacity="0.5" stroke="blue" points="131.79048507078124,188.69927641103905 166.0317375762986,141.463997591977 "/><polyline class="polyline" opacity="0.5" stroke="blue" points="131.6829030133892,187.88827750262914 166.60803694440574,141.1232085143877 "/><polyline class="polyline" opacity="0.5" stroke="blue" points="131.60461797166943,187.07857938188997 167.20239448036006,140.8065391506314 "/><polyline class="polyline" opacity="0.5" stroke="blue" points="131.5558804808225,186.2705418319148 167.81394247554107,140.51415129553152 "/><polyline class="polyline" opacity="0.5" stroke="blue" points="131.53693103240533,185.46452923698953 168.44180004794657,140.2461833146747 "/><polyline class="polyline" opacity="0.5" stroke="blue" points="131.54799962155207,184.66091047140304 169.08507434087076,140.00274989925182 "/><polyline class="polyline" opacity="0.5" stroke="blue" points="131.58930528767505,183.86005877750375 169.7428617560371,139.78394186653426 "/><polyline class="polyline" opacity="0.5" stroke="blue" points="131.6610556492389,183.06235163273328 170.41424921811011,139.58982600702365 "/><polyline class="polyline" opacity="0.5" stroke="blue" points="131.76344643324592,182.2681706053793 171.0983154673604,139.42044497914517 "/><polyline class="polyline" opacity="0.5" stroke="blue" points="131.8966610001137,181.47790119880614 171.7941323771219,139.27581725218312 "/><polyline class="polyline" opacity="0.5" stroke="blue" points="132.06086986467187,180.6919326839371 172.5007662925624,139.1559370979814 "/><polyline class="polyline" opacity="0.5" stroke="blue" points="132.25623021404908,179.9106579197811 173.2172793871827,139.0607746317491 "/><polyline class="polyline" opacity="0.5" stroke="blue" points="132.48288542326657,179.13447316181504 173.94273103337574,138.9902759021296 "/><polyline class="polyline" opacity="0.5" stroke="blue" points="132.74096456939964,178.36377785805573 174.676179183305,138.94436303050588 "/><polyline class="polyline" opacity="0.5" stroke="blue" points="133.03058194521304,177.59897443267735 175.4166817563135,138.9229343993304 "/><polyline class="polyline" opacity="0.5" stroke="blue" points="133.35183657322102,176.84046805705574 176.1632980290383,138.92586488908154 "/><polyline class="polyline" opacity="0.5" stroke="blue" points="133.70481172116556,176.08866640814682 176.9150900243946,138.9530061632681 "/><polyline class="polyline" opacity="0.5" stroke="blue" points="134.08957441994988,175.3439794141345 177.67112389559503,139.00418700072134 "/><polyline class="polyline" opacity="0.5" stroke="blue" points="134.50617498510616,174.60681898731468 178.430471301393,139.07921367423953 "/><polyline class="polyline" opacity="0.5" stroke="blue" points="134.9546465429162,173.87759874421081 179.19221076878193,139.17787037447863 "/><polyline class="polyline" opacity="0.5" stroke="blue" points="135.43500456234193,173.15673371295264 179.9554290394377,139.2999196778174 "/><polyline class="polyline" opacity="0.5" stroke="blue" points="135.94724639396264,172.44464002798242 180.71922239627202,139.44510305676891 "/><polyline class="polyline" opacity="0.5" stroke="blue" points="136.4913508171463,171.74173461219024 181.4826979665545,139.61314143135866 "/><polyline class="polyline" opacity="0.5" stroke="blue" points="137.06727759671918,171.04843484661743 182.2449749981741,139.80373575975048 "/><polyline class="polyline" opacity="0.5" stroke="blue" points="137.67496705042439,170.36515822790668 183.0051861057322,140.01656766626775 "/><polyline class="polyline" opacity="0.5" stroke="blue" points="138.31433962849007,169.69232201371835 183.76247848330308,140.2513001048377 "/><polyline class="polyline" opacity="0.5" stroke="blue" points="138.98529550664907,169.03034285637256 184.51601508084687,140.50757805577572 "/><polyline class="polyline" opacity="0.5" stroke="blue" points="139.6877141939743,168.37963642502228 185.26497574142803,140.78502925372663 "/><polyline class="polyline" opacity="0.5" stroke="blue" points="140.42145415691056,167.74061701670422 186.00855829656754,141.0832649444931 "/><polyline class="polyline" opacity="0.5" stroke="blue" points="141.18635246089417,167.11369715666012 186.7459796172435,141.40188066840614 "/><polyline class="polyline" opacity="0.5" stroke="blue" points="141.98222443096387,166.4992871883664 187.47647661825084,141.74045706782908 "/><polyline class="polyline" opacity="0.5" stroke="blue" points="142.8088633327668,165.8977948537563 188.19930721383096,142.098560716336 "/><polyline class="polyline" opacity="0.5" stroke="blue" points="143.66604007536515,165.3096248641641 188.91375122269315,142.47574496706773 "/><polyline class="polyline" opacity="0.5" stroke="blue" points="144.5535029372411,164.73517846256942 189.61911122075907,142.87155081774256 "/><polyline class="polyline" opacity="0.5" stroke="blue" points="145.47097731688984,164.1748529777634 190.31471334018056,143.28550778978575 "/><polyline class="polyline" opacity="0.5" stroke="blue" points="146.4181655093692,163.62904137110795 190.99990801339615,143.71713481904033 "/><polyline class="polyline" opacity="0.5" stroke="blue" points="147.39474651015806,163.0981317766026 191.67407066121135,144.16594115553355 "/><polyline class="polyline" opacity="0.5" stroke="blue" points="148.40037584764266,162.58250703501983 192.33660232410426,144.63142726979262 "/><polyline class="polyline" opacity="0.5" stroke="blue" points="149.43468544552007,162.08254422291432 192.98693023617327,145.1130857632403 "/><polyline class="polyline" opacity="0.5" stroke="blue" points="150.4972835163662,161.59861417735345 193.62450834135595,145.61040228024027 "/><polyline class="polyline" opacity="0.5" stroke="blue" points="151.58775448757046,161.13108101725953 194.24881775175484,146.12285641941904 "/><polyline class="polyline" opacity="0.5" stroke="blue" points="152.70565896078807,160.68030166229315 194.85936714810802,146.64992264195095 "/><polyline class="polyline" opacity="0.5" stroke="blue" points="153.8505337060001,160.24662535024635 195.4556931226376,147.19107117456647 "/><polyline class="polyline" opacity="0.5" stroke="blue" points="155.0218916912113,159.83039315394865 196.0373604646971,147.74576890512114 "/><polyline class="polyline" opacity="0.5" stroke="blue" points="156.21922214874033,159.431937498725 196.6039623898178,148.31348026864958 "/><polyline class="polyline" opacity="0.5" stroke="blue" points="157.4419906789846,159.0515816814729 197.15512071292497,148.89366812192236 "/><polyline class="polyline" opacity="0.5" stroke="blue" points="158.68963939245623,158.68963939245623 197.690485966655,149.48579460461985 "/><polyline class="polyline" opacity="0.5" stroke="blue" points="159.96158709079964,158.3464142409369 198.20973746585577,150.08932198534285 "/><polyline class="polyline" opacity="0.5" stroke="blue" points="161.2572294874064,158.02219928578722 198.71258331949122,150.70371349078366 "/><polyline class="polyline" opacity="0.5" stroke="blue" points="162.5759394681425,157.71727657224406 199.19876039130003,151.32843411649608 "/><polyline class="polyline" opacity="0.5" stroke="blue" points="163.91706739260167,157.4319166759791 199.66803421067587,151.96295141781073 "/><polyline class="polyline" opacity="0.5" stroke="blue" points="165.2799414361872,157.16637825567022 200.12019883534154,152.60673627956135 "/><polyline class="polyline" opacity="0.5" stroke="blue" points="166.6638679732116,156.92090761526504 200.55507666748343,153.2592636633999 "/><polyline class="polyline" opacity="0.5" stroke="blue" points="168.06813200108593,156.69573827712708 200.97251822509483,153.92001333159726 "/><polyline class="polyline" opacity="0.5" stroke="blue" points="169.49199760555146,156.4910905672553 201.37240187034718,154.58847054633952 "/><polyline class="polyline" opacity="0.5" stroke="blue" points="170.93470846677837,156.3071712137561 201.75463349686675,155.26412674364624 "/><polyline class="polyline" opacity="0.5" stroke="blue" points="172.39548840603422,156.1441729597376 202.11914617784285,155.94648018115018 "/><polyline class="polyline" opacity="0.5" stroke="blue" points="173.8735419724916,156.00227419177656 202.4658997769286,156.6350365590871 "/><polyline class="polyline" opacity="0.5" stroke="blue" points="175.36805506961875,155.88163858508685 202.794880523923,157.32930961395587 "/><polyline class="polyline" opacity="0.5" stroke="blue" points="176.87819562046064,155.7824147664919 203.1061005572365,158.02882168441107 "/><polyline class="polyline" opacity="0.5" stroke="blue" points="178.4031142709929,155.7047359962695 203.39959743514984,158.7331042490541 "/><polyline class="polyline" opacity="0.5" stroke="blue" points="179.94194513059267,155.6487198699031 203.6754336178702,159.44169843588531 "/><polyline class="polyline" opacity="0.5" stroke="blue" points="181.4938065485479,155.61446804072978 203.93369592237698,160.15415550327467 "/><polyline class="polyline" opacity="0.5" stroke="blue" points="183.0578019253921,155.60206596443038 204.17449495202817,160.87003729239512 "/><polyline class="polyline" opacity="0.5" stroke="blue" points="184.63302055772917,155.6115826662548 204.39796450286858,161.58891665114945 "/><polyline class="polyline" opacity="0.5" stroke="blue" points="186.21853851508806,155.64307053182176 204.604260948546,162.31037782969818 "/><polyline class="polyline" opacity="0.5" stroke="blue" points="187.81341954722876,155.69656512227132 204.793562605697,163.03401684777225 "/><polyline class="polyline" opacity="0.5" stroke="blue" points="189.4167160202054,155.77208501448547 204.96606908161678,163.75944183402112 "/><polyline class="polyline" opacity="0.5" stroke="blue" points="191.027469879381,155.86963166702495 205.12200060597118,164.48627333771125 "/><polyline class="polyline" opacity="0.5" stroke="blue" points="192.64471363748663,155.98918931235903 205.26159734825137,165.21414461314782 "/><polyline class="polyline" opacity="0.5" stroke="blue" points="194.26747138571554,156.13072487589108 205.385118722607,165.94270187724453 "/><polyline class="polyline" opacity="0.5" stroke="blue" points="195.89475982575416,156.29418792220616 205.4928426816274,166.6716045407144 "/><polyline class="polyline" opacity="0.5" stroke="blue" points="197.5255893205654,156.47951062888666 205.58506500056941,167.40052541339594 "/><polyline class="polyline" opacity="0.5" stroke="blue" points="199.15896496166482,156.68660778816076 205.66209855345846,168.1291508842658 "/><polyline class="polyline" opacity="0.5" stroke="blue" points="200.79388765055853,156.9153768365652 205.7242725824146,168.85718107672085 "/><polyline class="polyline" opacity="0.5" stroke="blue" points="202.42935519195666,157.16569791271806 205.77193196147914,169.5843299797391 "/><polyline class="polyline" opacity="0.5" stroke="blue" points="204.06436339631998,157.43743394321223 205.8054364561409,170.31032555555154 "/><polyline class="polyline" opacity="0.5" stroke="blue" points="205.69790718926083,157.7304307565534 205.82515997968395,171.03490982447323 "/><polyline class="polyline" opacity="0.5" stroke="blue" points="207.32898172528354,158.0445172249796 205.83148984740083,171.7578389275557 "/><polyline class="polyline" opacity="0.5" stroke="blue" points="208.95658350333082,158.3795054339131 205.8248260296397,172.47888316773145 "/><polyline class="polyline" opacity="0.5" stroke="blue" points="210.5797114815878,158.73519087870994 205.80558040457703,173.19782703012572 "/><polyline class="polyline" opacity="0.5" stroke="blue" points="212.19736818899491,159.11135268828718 205.77417601153354,173.91446918221203 "/><polyline class="polyline" opacity="0.5" stroke="blue" points="213.80856083092976,159.507753875126 205.7310463055785,174.62862245448602 "/><polyline class="polyline" opacity="0.5" stroke="blue" points="215.41230238653293,159.92414161106655 205.67663441409627,175.34011380232468 "/><polyline class="polyline" opacity="0.5" stroke="blue" points="217.00761269518537,160.36024752823243 205.61139239592052,176.04878424969263 "/><polyline class="polyline" opacity="0.5" stroke="blue" points="218.59351952967853,160.81578804434685 205.53578050357658,176.75448881534135 "/><polyline class="polyline" opacity="0.5" stroke="blue" points="220.16905965367005,161.2904647116289 205.45026644910777,177.45709642213808 "/><polyline class="polyline" opacity="0.5" stroke="blue" points="221.73327986107023,161.7839645883898 205.3553246739032,178.1564897901406 "/><polyline class="polyline" opacity="0.5" stroke="blue" points="223.28523799507605,162.29596063238296 205.25143562288667,178.85256531401944 "/><polyline class="polyline" opacity="0.5" stroke="blue" points="224.82400394463738,162.82611211490007 205.13908502337426,179.54523292540665 "/><polyline class="polyline" opacity="0.5" stroke="blue" points="226.34866061622992,163.37406505454885 205.01876316885696,180.23441594073134 "/><polyline class="polyline" opacity="0.5" stroke="blue" points="227.85830487889348,163.93945266959452 204.89096420792112,180.92005089507668 "/><polyline class="polyline" opacity="0.5" stroke="blue" points="229.352048480597,164.5218958477007 204.75618543847523,181.60208736257303 "/><polyline class="polyline" opacity="0.5" stroke="blue" points="230.8290189340929,165.12100363186138 204.6149266074154,182.28048776381394 "/><polyline class="polyline" opacity="0.5" stroke="blue" points="232.28836037053625,165.73637372127894 204.4676892158273,182.95522716076 "/><polyline class="polyline" opacity="0.5" stroke="blue" points="233.72923435925836,166.36759298591073 204.3149758297921,183.62629303956825 "/><polyline class="polyline" opacity="0.5" stroke="blue" points="235.15082069220654,167.0142379933797 204.15728939683947,184.2936850817602 "/><polyline class="polyline" opacity="0.5" stroke="blue" points="236.55231813168777,167.67587554692327 203.9951325680682,184.9574149241172 "/><polyline class="polyline" opacity="0.5" stroke="blue" points="237.9329451201795,168.3520632330384 203.8290070259382,185.61750590766516 "/><polyline class="polyline" opacity="0.5" stroke="blue" points="239.2919404511071,169.04234997747102 203.65941281772527,186.27399281608862 "/><polyline class="polyline" opacity="0.5" stroke="blue" points="240.62856389961553,169.74627660819127 203.48684769461923,186.92692160388765 "/><polyline class="polyline" opacity="0.5" stroke="blue" points="241.94209681250464,170.46337642399837 203.311806456444,187.5763491145711 "/><polyline class="polyline" opacity="0.5" stroke="blue" points="243.23184265662607,171.19317576740198 203.134780301975,188.22234278915553 "/><polyline class="polyline" opacity="0.5" stroke="blue" points="244.49712752518326,171.93519460043962 202.95625618483433,188.86498036522 "/><polyline class="polyline" opacity="0.5" stroke="blue" points="245.73730060150496,172.68894708210277 202.7767161749508,189.50434956674616 "/><polyline class="polyline" opacity="0.5" stroke="blue" points="246.9517345800032,173.45394214606736 202.596636825583,190.14054778495736 "/><polyline class="polyline" opacity="0.5" stroke="blue" points="248.13982604415418,174.22968407744554 202.41648854591912,190.77368175035093 "/><polyline class="polyline" opacity="0.5" stroke="blue" points="249.30099580147447,175.01567308730833 202.23673497928522,191.40386719610706 "/><polyline class="polyline" opacity="0.5" stroke="blue" points="250.43468917559085,175.8114058837587 202.05783238701608,192.03122851304144 "/><polyline class="polyline" opacity="0.5" stroke="blue" points="251.54037625562611,176.61637623837336 201.88022903806825,192.65589839626026 "/><polyline class="polyline" opacity="0.5" stroke="blue" points="252.6175521032443,177.43007554687162 201.70436460448374,193.27801748366693 "/><polyline class="polyline" opacity="0.5" stroke="blue" points="253.66573691781255,178.2519933829127 201.53066956284417,193.89773398646207 "/><polyline class="polyline" opacity="0.5" stroke="blue" points="254.68447616025085,179.0816180439707 201.3595646018906,194.51520331177585 "/><polyline class="polyline" opacity="0.5" stroke="blue" points="255.67334063624304,179.91843708828372 201.19146003652105,195.13058767756743 "/><polyline class="polyline" opacity="0.5" stroke="blue" points="256.6319265395862,180.7619378619279 201.0267552284177,195.74405571992824 "/><polyline class="polyline" opacity="0.5" stroke="blue" points="257.55985545654715,181.61160801511798 200.86583801359853,196.35578209292677 "/><polyline class="polyline" opacity="0.5" stroke="blue" points="258.4567743321868,182.46693600689346 200.7090841372311,196.96594706113842 "/><polyline class="polyline" opacity="0.5" stroke="blue" points="259.3223553996902,183.32741159740442 200.55685669609377,197.5747360850108 "/><polyline class="polyline" opacity="0.5" stroke="blue" points="260.15629607382266,184.19252632707054 200.40950558911567,198.1823393992245 "/><polyline class="polyline" opacity="0.5" stroke="blue" points="260.95831880969604,185.0617739819437 200.26736697647658,198.78895158422168 "/><polyline class="polyline" opacity="0.5" stroke="blue" points="261.7281709280947,185.93465104466503 200.13076274779704,199.39477113108921 "/><polyline class="polyline" opacity="0.5" stroke="blue" points="262.46562440866717,186.81065713046556 200.0,200.0 "/><polyline class="polyline" opacity="0.5" stroke="blue" points="263.170475652339,187.6892954077195 199.87537052547538,200.60484317243524 "/><polyline class="polyline" opacity="0.5" stroke="blue" points="263.84254521434315,188.57007300261813 199.75715031123025,201.20950819743229 "/><polyline class="polyline" opacity="0.5" stroke="blue" points="264.4816775093044,189.45250138758885 199.64559904975786,201.81420473212543 "/><polyline class="polyline" opacity="0.5" stroke="blue" points="265.08774048984134,190.33609675314506 199.54095966240843,202.41914407687437 "/><polyline class="polyline" opacity="0.5" stroke="blue" points="265.6606253001754,191.22038036290473 199.44345783609296,203.02453870530107 "/><polyline class="polyline" opacity="0.5" stroke="blue" points="266.20024590625263,192.1048788915746 199.35330157420003,203.63060178958713 "/><polyline class="polyline" opacity="0.5" stroke="blue" points="266.706538703896,192.9891247457473 199.27068076264965,204.2375467214138 "/><polyline class="polyline" opacity="0.5" stroke="blue" points="267.17946210651377,193.87265636741452 199.19576675205246,204.84558662896106 "/><polyline class="polyline" opacity="0.5" stroke="blue" points="267.61899611388645,194.75501852014642 199.1287119569838,205.45493389041582 "/><polyline class="polyline" opacity="0.5" stroke="blue" points="268.0251418635549,195.63576255793876 199.06964947341913,206.06579964447553 "/><polyline class="polyline" opacity="0.5" stroke="blue" points="268.3979211663169,196.51444667677373 199.0186927154124,206.67839329837008 "/><polyline class="polyline" opacity="0.5" stroke="blue" points="268.7373760273309,197.39063614898728 198.9759350721302,207.29292203396318 "/><polyline class="polyline" opacity="0.5" stroke="blue" points="269.0435681543019,198.26390354057517 198.94144958637975,207.90959031253132 "/><polyline class="polyline" opacity="0.5" stroke="blue" points="269.31657845420403,199.13382891161285 198.91528865579244,208.52859937885927 "/><polyline class="polyline" opacity="0.5" stroke="blue" points="269.55650651996757,200.0 198.8974837578405,209.15014676532735 "/><polyline class="polyline" opacity="0.5" stroke="blue" points="269.76347010852567,200.86201238877615 198.88804519987693,209.7744257967066 "/><polyline class="polyline" opacity="0.5" stroke="blue" points="269.93760461158575,201.719469657289 198.8869618953946,210.40162509641502 "/><polyline class="polyline" opacity="0.5" stroke="blue" points="270.0790625204501,202.5719835165226 198.89420116770054,211.03192809502545 "/><polyline class="polyline" opacity="0.5" stroke="blue" points="270.1880128861741,203.41917392892708 198.9097085821955,211.66551254185333 "/><polyline class="polyline" opacity="0.5" stroke="blue" points="270.2646407763071,204.26066921311156 198.9334078084354,212.3025500204858 "/><polyline class="polyline" opacity="0.5" stroke="blue" points="270.3091467294186,205.09610613378905 198.9652005131328,212.94320546914932 "/><polyline class="polyline" opacity="0.5" stroke="blue" points="270.32174620856546,205.9251299773809 199.00496628522805,213.5876367068426 "/><polyline class="polyline" opacity="0.5" stroke="blue" points="270.3026690548105,206.7473946137086 199.05256259412656,214.2359939661921 "/><polyline class="polyline" opacity="0.5" stroke="blue" points="270.2521589418535,207.56256254421572 199.1078247821572,214.8884194340132 "/><polyline class="polyline" opacity="0.5" stroke="blue" points="270.170472832788,208.3703049371784 199.17056609225716,215.54504680058463 "/><polyline class="polyline" opacity="0.5" stroke="blue" points="270.0578804399449,209.17030165037312 199.2405777318309,216.20600081866309 "/><polyline class="polyline" opacity="0.5" stroke="blue" points="269.914663688737,209.9622412416835 199.3176289736682,216.87139687328315 "/><polyline class="polyline" opacity="0.5" stroke="blue" points="269.7411161863653,210.7458209681315 199.4014672947317,217.54134056339922 "/><polyline class="polyline" opacity="0.5" stroke="blue" points="269.5375426961976,211.52074677382987 199.4918185535461,218.21592729643666 "/><polyline class="polyline" opacity="0.5" stroke="blue" points="269.304258618582,212.28673326735176 199.5883872068331,218.89524189682228 "/><polyline class="polyline" opacity="0.5" stroke="blue" points="269.04158947880313,213.04350368902044 199.69085656594137,219.5793582295652 "/><polyline class="polyline" opacity="0.5" stroke="blue" points="268.74987042284454,213.79078986862046 199.79888909351985,220.26833883995425 "/><polyline class="polyline" opacity="0.5" stroke="blue" points="268.4294457215672,214.52833217403156 199.91212674077332,220.96223461042678 "/><polyline class="polyline" opacity="0.5" stroke="blue" points="268.08066828386865,215.2558794512858 200.030191325526,221.66108443564997 "/><polyline class="polyline" opacity="0.5" stroke="blue" points="267.70389917933846,215.9731889565428 200.1526849511963,222.36491491683407 "/><polyline class="polyline" opacity="0.5" stroke="blue" points="267.29950717088116,216.68002628047668 200.27919046666204,223.0737400762716 "/><polyline class="polyline" opacity="0.5" stroke="blue" points="266.8678682577304,217.37616526555837 200.40927196686258,223.78756109306363 "/><polyline class="polyline" opacity="0.5" stroke="blue" points="266.40936522923585,218.06138791671472 200.54247533385112,224.5063660609588 "/><polyline class="polyline" opacity="0.5" stroke="blue" points="265.92438722976226,218.7354843058339 200.67832881786956,225.23012976918625 "/><polyline class="polyline" opacity="0.5" stroke="blue" points="265.4133293349975,219.39825247058081 200.81634365787897,225.9588135071162 "/><polyline class="polyline" opacity="0.5" stroke="blue" points="264.87659213992663,220.04949830797568 200.95601474083287,226.69236489352753 "/><polyline class="polyline" opacity="0.5" stroke="blue" points="264.3145813586937,220.68903546317816 201.0968212988368,227.43071773120343 "/><polyline class="polyline" opacity="0.5" stroke="blue" points="263.72770743653285,221.31668521390992 201.23822764319158,228.1737918875105 "/><polyline class="polyline" opacity="0.5" stroke="blue" points="263.1163851739165,221.9322763509364 201.3796839341719,228.921493201549 "/><polyline class="polyline" opacity="0.5" stroke="blue" points="262.48103336303683,222.53564505501618 201.5206269852486,229.673713418387 "/><polyline class="polyline" opacity="0.5" stroke="blue" points="261.82207443670137,223.12663477071507 201.6604811003203,230.43033015081306 "/><polyline class="polyline" opacity="0.5" stroke="blue" points="261.1399341296965,223.7050960774696 201.79865894238148,231.1912068689611 "/><polyline class="polyline" opacity="0.5" stroke="blue" points="260.4350411526418,224.27088655826975 201.93456243191906,231.9561929180724 "/><polyline class="polyline" opacity="0.5" stroke="blue" points="259.70782687833287,224.82387066632074 202.067583673199,232.72512356457386 "/><polyline class="polyline" opacity="0.5" stroke="blue" points="258.95872504054284,225.3639195900273 202.19710590648089,233.49782007055728 "/><polyline class="polyline" opacity="0.5" stroke="blue" points="258.188171445231,225.8909111166333 202.32250448407936,234.2740897966513 "/><polyline class="polyline" opacity="0.5" stroke="blue" points="257.39660369408307,226.4047294948342 202.44314786808252,235.05372633318123 "/><polyline class="polyline" opacity="0.5" stroke="blue" points="256.58446092028663,226.90526529666778 202.55839864743345,235.83650965941519 "/><polyline class="polyline" opacity="0.5" stroke="blue" points="255.75218353642816,227.39241527897383 202.66761457199053,236.62220633059664 "/><polyline class="polyline" opacity="0.5" stroke="blue" points="254.9002129943758,227.86608224470254 202.770149601096,237.41056969236533 "/><polyline class="polyline" opacity="0.5" stroke="blue" points="254.0289915570008,228.3261749043357 202.8653549641119,238.20134012207137 "/><polyline class="polyline" opacity="0.5" stroke="blue" points="253.13896208157007,228.7726077376733 202.9525802303196,238.9942452963906 "/><polyline class="polyline" opacity="0.5" stroke="blue" points="252.23056781463248,229.2053008562257 203.03117438552817,239.7890004845537 "/><polyline class="polyline" opacity="0.5" stroke="blue" points="251.30425219820611,229.62417986643737 203.10048691270018,240.58530886641 "/><polyline class="polyline" opacity="0.5" stroke="blue" points="250.36045868706344,230.02917573395828 203.15986887387564,241.3828618744563 "/><polyline class="polyline" opacity="0.5" stroke="blue" points="249.3996305769012,230.42022464916425 203.20867399066265,242.1813395588736 "/><polyline class="polyline" opacity="0.5" stroke="blue" points="248.42221084317086,230.79726789411876 203.24625972056165,242.98041097453475 "/><polyline class="polyline" opacity="0.5" stroke="blue" points="247.4286419903405,231.16025171115456 203.27198832640343,243.77973458886333 "/><polyline class="polyline" opacity="0.5" stroke="blue" points="246.41936591134765,231.50912717324454 203.28522793620448,244.57895870935565 "/><polyline class="polyline" opacity="0.5" stroke="blue" points="245.39482375700027,231.8438500563189 203.28535359078273,245.37772192950482 "/><polyline class="polyline" opacity="0.5" stroke="blue" points="244.35545581507435,232.1643807136764 203.27174827652587,246.17565359180793 "/><polyline class="polyline" opacity="0.5" stroke="blue" points="243.30170139885547,232.47068395262664 203.24380394076752,246.97237426647797 "/><polyline class="polyline" opacity="0.5" stroke="blue" points="242.2339987448639,232.76272891349083 203.20092248730106,247.76749624443374 "/><polyline class="polyline" opacity="0.5" stroke="blue" points="241.15278491950437,233.04048895107917 203.14251674964711,248.56062404309833 "/><polyline class="polyline" opacity="0.5" stroke="blue" points="240.05849573437465,233.30394151875413 203.06801143978723,249.35135492350008 "/><polyline class="polyline" opacity="0.5" stroke="blue" points="238.9515656699697,233.55306805517947 202.976844070184,250.1392794171416 "/><polyline class="polyline" opacity="0.5" stroke="blue" points="237.8324278075138,233.7878538738477 202.86846584702508,250.92398186108068 "/><polyline class="polyline" opacity="0.5" stroke="blue" points="236.70151376865428,234.00828805546982 202.74234253275355,251.70504093965303 "/><polyline class="polyline" opacity="0.5" stroke="blue" points="235.5592536627507,234.21436334330377 202.59795527608244,252.48203023126015 "/><polyline class="polyline" opacity="0.5" stroke="blue" points="234.4060760414914,234.4060760414914 202.43480140783086,253.25451875864619 "/><polyline class="polyline" opacity="0.5" stroke="blue" points="233.2424078605745,234.58342591646561 202.2523952010687,254.0220715410956 "/><polyline class="polyline" opacity="0.5" stroke="blue" points="232.06867444818576,234.74641610148467 202.05026859420806,254.78425014699945 "/><polyline class="polyline" opacity="0.5" stroke="blue" points="230.8852994800145,234.89505300434183 201.82797187583893,255.54061324525853 "/><polyline class="polyline" opacity="0.5" stroke="blue" points="229.69270496054332,235.0293462182954 201.58507433026608,256.2907171540234 "/><polyline class="polyline" opacity="0.5" stroke="blue" points="228.4913112103555,235.14930843625658 201.32116484286968,257.03411638530395 "/><polyline class="polyline" opacity="0.5" stroke="blue" points="227.28153685920216,235.2549553682682 201.03585246457504,257.77036418402497 "/><polyline class="polyline" opacity="0.5" stroke="blue" points="226.06379884457758,235.3463056623022 200.72876693488536,258.4990130601511 "/><polyline class="polyline" opacity="0.5" stroke="blue" points="224.83851241554942,235.4233808283986 200.39955916309484,259.21961531255715 "/><polyline class="polyline" opacity="0.5" stroke="blue" points="223.6060911415982,235.48620516616575 200.04790166746432,259.93172354337923 "/><polyline class="polyline" opacity="0.5" stroke="blue" points="222.36694692622012,235.53480569565528 199.6734889723047,260.6348911616435 "/><polyline class="polyline" opacity="0.5" stroke="blue" points="221.12149002505114,235.5692120916229 199.27603796307056,261.32867287503854 "/><polyline class="polyline" opacity="0.5" stroke="blue" points="219.8701290682754,235.589456621182 198.85528819972353,262.01262516876454 "/><polyline class="polyline" opacity="0.5" stroke="blue" points="218.6132710870809,235.59557408485392 198.4110021887741,262.6863067704716 "/><polyline class="polyline" opacity="0.5" stroke="blue" points="217.35132154393102,235.5876017610144 197.94296561455627,263.3492791003715 "/><polyline class="polyline" opacity="0.5" stroke="blue" points="216.08468436642417,235.5655793537346 197.45098753042987,264.00110670568904 "/><polyline class="polyline" opacity="0.5" stroke="blue" points="214.81376198451426,235.52954894400983 196.93490051073545,264.64135767870016 "/><polyline class="polyline" opacity="0.5" stroke="blue" points="213.5389553708708,235.4795549443696 196.3945607644554,265.26960405768455 "/><polyline class="polyline" opacity="0.5" stroke="blue" points="212.26066408415863,235.41564405685654 195.82984821165036,265.8854222102049 "/><polyline class="polyline" opacity="0.5" stroke="blue" points="210.97928631502228,235.3378652343628 195.24066652385181,266.4883931982081 "/><polyline class="polyline" opacity="0.5" stroke="blue" points="209.6952189345602,235.24626964530793 194.62694312969242,267.0781031245265 "/><polyline class="polyline" opacity="0.5" stroke="blue" points="208.40885754507954,235.14091064164163 193.9886291871494,267.6541434604411 "/><polyline class="polyline" opacity="0.5" stroke="blue" points="207.1205965329231,235.02184373015214 193.3256995238602,268.2161113540501 "/><polyline class="polyline" opacity="0.5" stroke="blue" points="205.8308291231648,234.88912654705985 192.63815254704636,268.76360991926475 "/><polyline class="polyline" opacity="0.5" stroke="blue" points="204.53994743596954,234.7428188358733 191.9260101246456,269.29624850533924 "/><polyline class="polyline" opacity="0.5" stroke="blue" points="203.24834254441836,234.582982428484 191.18931743931282,269.8136429469095 "/><polyline class="polyline" opacity="0.5" stroke="blue" points="201.95640453360028,234.40968122947413 190.42814281699623,270.3154157945999 "/><polyline class="polyline" opacity="0.5" stroke="blue" points="200.66452256077633,234.22298120361074 189.64257753183747,270.80119652632095 "/><polyline class="polyline" opacity="0.5" stroke="blue" points="199.37308491641974,234.02295036649713 188.83273558917247,271.27062173945507 "/><polyline class="polyline" opacity="0.5" stroke="blue" points="198.0824790859412,233.80965877835317 187.99875348843509,271.72333532419316 "/><polyline class="polyline" opacity="0.5" stroke="blue" points="196.79309181190885,233.5831785408921 187.1407899677787,272.1589886183447 "/><polyline class="polyline" opacity="0.5" stroke="blue" points="195.50530915657242,233.34358379726285 186.25902573223644,272.5772405440083 "/><polyline class="polyline" opacity="0.5" stroke="blue" points="194.21951656450398,233.0909507350233 185.35366316724117,272.9777577265409 "/><polyline class="polyline" opacity="0.5" stroke="blue" points="192.93609892516764,232.82535759211066 184.4249260393152,273.36021459632184 "/><polyline class="polyline" opacity="0.5" stroke="blue" points="191.65544063523294,232.5468846657723 183.47305918572715,273.7242934738503 "/><polyline class="polyline" opacity="0.5" stroke="blue" points="190.37792566044433,232.25561432442004 182.49832819488748,274.0696846387665 "/><polyline class="polyline" opacity="0.5" stroke="blue" points="189.10393759686298,231.95163102236947 181.50101907922883,274.39608638342395 "/><polyline class="polyline" opacity="0.5" stroke="blue" points="187.83385973129424,231.63502131742376 180.4814379422807,274.7032050516797 "/><polyline class="polyline" opacity="0.5" stroke="blue" points="186.56807510071835,231.30587389126168 179.43991064161108,274.9907550636032 "/><polyline class="polyline" opacity="0.5" stroke="blue" points="185.3069665505359,230.96427957258595 178.37678244925928,275.2584589268364 "/><polyline class="polyline" opacity="0.5" stroke="blue" points="184.05091679144505,230.61033136298866 177.29241771123887,275.5060472353617 "/><polyline class="polyline" opacity="0.5" stroke="blue" points="182.80030845476466,230.24412446548763 176.1871995076351,275.7332586564617 "/><polyline class="polyline" opacity="0.5" stroke="blue" points="181.55552414601544,229.865756315686 175.06152931476302,275.9398399066729 "/><polyline class="polyline" opacity="0.5" stroke="blue" points="180.31694649657328,229.4753266155065 173.91582667079462,276.12554571755265 "/><polyline class="polyline" opacity="0.5" stroke="blue" points="179.08495821320594,229.07293736944868 172.75052884619888,276.29013879209407 "/><polyline class="polyline" opacity="0.5" stroke="blue" points="177.85994212530494,228.65869292331712 171.5660905202744,276.4333897526337 "/><polyline class="polyline" opacity="0.5" stroke="blue" points="176.64228122962103,228.23270000536482 170.36298346498484,276.55507708110576 "/><polyline class="polyline" opacity="0.5" stroke="blue" points="175.43235873231254,227.79506776979494 169.14169623723973,276.654987052503 "/><polyline class="polyline" opacity="0.5" stroke="blue" points="174.230558088113,227.3459078425617 167.90273388069113,276.73291366240693 "/><polyline class="polyline" opacity="0.5" stroke="blue" points="173.03726303642463,226.88533436940824 166.64661763804617,276.788658549452 "/><polyline class="polyline" opacity="0.5" stroke="blue" points="171.85285763413964,226.41346406607732 165.37388467481975,276.822030913588 "/><polyline class="polyline" opacity="0.5" stroke="blue" points="170.67772628499296,225.9304162706275 164.08508781538063,276.83284743100046 "/><polyline class="polyline" opacity="0.5" stroke="blue" points="169.5122537652457,225.43631299778463 162.78079529206835,276.82093216654727 "/><polyline class="polyline" opacity="0.5" stroke="blue" points="168.35682524549944,224.93127899525638 161.46159050808615,276.78611648456035 "/><polyline class="polyline" opacity="0.5" stroke="blue" points="167.21182630843577,224.41544180193264 160.12807181479735,276.7282389588567 "/><polyline class="polyline" opacity="0.5" stroke="blue" points="166.07764296227737,223.8889318078924 158.7808523039809,276.64714528279285 "/><polyline class="polyline" opacity="0.5" stroke="blue" points="164.95466164976398,223.35188231613446 157.42055961552865,276.5426881801874 "/><polyline class="polyline" opacity="0.5" stroke="blue" points="163.8432692524327,222.80442960594448 156.04783576098885,276.4147273179258 "/><polyline class="polyline" opacity="0.5" stroke="blue" points="162.74385308999362,222.2467129978077 154.66333696329175,276.2631292210499 "/><polyline class="polyline" opacity="0.5" stroke="blue" points="161.65680091458682,221.67887491977226 153.2677335129173,276.08776719112313 "/><polyline class="polyline" opacity="0.5" stroke="blue" points="160.58250089970844,221.10106097516467 151.86170964069424,275.88852122864716 "/><polyline class="polyline" opacity="0.5" stroke="blue" points="159.52134162358843,220.5134200115524 150.4459634073461,275.6652779602966 "/><polyline class="polyline" opacity="0.5" stroke="blue" points="158.47371204680417,219.91610419084628 149.02120660983002,275.41793057172134 "/><polyline class="polyline" opacity="0.5" stroke="blue" points="157.44000148391055,219.30926906042885 147.5881647044415,275.1463787466539 "/><polyline class="polyline" opacity="0.5" stroke="blue" points="156.42059956886908,218.69307362519072 146.14757674659063,274.8505286130444 "/><polyline class="polyline" opacity="0.5" stroke="blue" points="155.41589621405356,218.06768042035094 144.70019534708,274.53029269693263 "/><polyline class="polyline" opacity="0.5" stroke="blue" points="154.42628156261316,217.43325558493234 143.2467866446498,274.1855898847516 "/><polyline class="polyline" opacity="0.5" stroke="blue" points="153.45214593397105,216.78996893575714 141.7881302944815,273.8163453947428 "/><polyline class="polyline" opacity="0.5" stroke="blue" points="152.4938797622383,216.1379940418227 140.3250194722856,273.42249075815033 "/><polyline class="polyline" opacity="0.5" stroke="blue" points="151.55187352732136,215.47750829890975 138.8582608935241,273.00396381084465 "/><polyline class="polyline" opacity="0.5" stroke="blue" points="150.6265176785036,214.80869300427113 137.38867484725185,272.5607086960149 "/><polyline class="polyline" opacity="0.5" stroke="blue" points="149.71820255028268,214.1317334312419 135.91709524399033,272.09267587855334 "/><polyline class="polyline" opacity="0.5" stroke="blue" points="148.827318270245,213.44681890360434 134.4443696769725,271.5998221717414 "/><polyline class="polyline" opacity="0.5" stroke="blue" points="147.9542546587639,212.75414286953597 132.97135949603017,271.0821107768319 "/><polyline class="polyline" opacity="0.5" stroke="blue" points="147.09940112030733,212.05390297496132 131.49893989331804,270.5395113361103 "/><polyline class="polyline" opacity="0.5" stroke="blue" points="146.26314652614732,211.34630113612113 130.02800000000002,269.972 "/><polyline class="polyline" opacity="0.5" stroke="blue" points="145.44587908826435,210.6315436111657 128.5594429929415,269.37955950876415 "/><polyline class="polyline" opacity="0.5" stroke="blue" points="144.6479862242465,209.90984107057184 127.09418621038144,268.76217928934045 "/><polyline class="polyline" opacity="0.5" stroke="blue" points="143.86985441298668,209.18140866617543 125.63316127547444,268.1198555678312 "/><polyline class="polyline" opacity="0.5" stroke="blue" points="143.11186904098935,208.4464660986057 124.17731422651879,267.45259149815297 "/><polyline class="polyline" opacity="0.5" stroke="blue" points="142.3744142391018,207.70523768289704 122.7276056525976,266.76039730733464 "/><polyline class="polyline" opacity="0.5" stroke="blue" points="141.65787270949534,206.95795241204988 121.28501083328335,266.04329045793554 "/><polyline class="polyline" opacity="0.5" stroke="blue" points="140.9626255427284,206.2048440183025 119.85051988096463,265.30129582803545 "/><polyline class="polyline" opacity="0.5" stroke="blue" points="140.2890520247348,205.4461510318703 118.42513788426972,264.53444590922953 "/><polyline class="polyline" opacity="0.5" stroke="blue" points="139.63752943358753,204.68211683689904 117.00988505096636,263.7427810230402 "/><polyline class="polyline" opacity="0.5" stroke="blue" points="139.0084328259029,203.91298972437423 115.60579684862637,262.926349556134 "/><polyline class="polyline" opacity="0.5" stroke="blue" points="138.40213481276086,203.13902294172 114.21392414124905,262.08520821470944 "/><polyline class="polyline" opacity="0.5" stroke="blue" points="137.8190053250305,202.36047473881405 112.8353333199324,261.21942229839266 "/><polyline class="polyline" opacity="0.5" stroke="blue" points="137.25941136800432,201.57760841013908 111.47110642558751,260.3290659939509 "/><polyline class="polyline" opacity="0.5" stroke="blue" points="136.7237167652615,200.7906923327835 110.12234126157935,259.41422268910134 "/><polyline class="polyline" opacity="0.5" stroke="blue" points="136.2122818916965,200.0 108.79015149407772,258.4749853066607 "/><polyline class="polyline" opacity="0.5" stroke="blue" points="135.7254633956671,199.20581005002194 107.47566673778522,257.5114566592399 "/><polyline class="polyline" opacity="0.5" stroke="blue" points="135.2636139102367,198.40840628983375 106.18003262460209,256.5237498246529 "/><polyline class="polyline" opacity="0.5" stroke="blue" points="134.82708175350544,197.60807771358606 104.90441085267138,255.5119885421586 "/><polyline class="polyline" opacity="0.5" stroke="blue" points="134.41621061804705,196.80511851534135 103.64997921313129,254.47630762961325 "/><polyline class="polyline" opacity="0.5" stroke="blue" points="134.03133924949162,195.99982809583122 102.41793159178296,253.41685342155068 "/><polyline class="polyline" opacity="0.5" stroke="blue" points="133.67280111431973,195.1925110629037 101.2094779427632,252.3337842281565 "/><polyline class="polyline" opacity="0.5" stroke="blue" points="133.3409240569586,194.38347722533493 100.02584423118836,251.2272708150362 "/><polyline class="polyline" opacity="0.5" stroke="blue" points="133.0360299462999,193.57304157967863 98.8682723416179,250.09749690361303 "/><polyline class="polyline" opacity="0.5" stroke="blue" points="132.75843431178592,192.7615242898229 97.73801994905895,248.94465969191282 "/><polyline class="polyline" opacity="0.5" stroke="blue" points="132.50844596924264,191.949250658925 96.63636034911735,247.76897039541842 "/><polyline class="polyline" opacity="0.5" stroke="blue" points="132.28636663666967,191.13655109339473 95.56458224377819,246.570654807589 "/><polyline class="polyline" opacity="0.5" stroke="blue" points="132.09249054022877,190.32376105859564 94.5239894791807,245.3499538795444 "/><polyline class="polyline" opacity="0.5" stroke="blue" points="131.92710401070914,189.51122102593808 93.51590073163973,244.10712431831843 "/><polyline class="polyline" opacity="0.5" stroke="blue" points="131.7904850707813,188.69927641103905 92.54164913805343,242.8424392029753 "/><polyline class="polyline" opacity="0.5" stroke="blue" points="131.6829030133892,187.8882775026291 91.60258186673352,241.55618861777106 "/><polyline class="polyline" opacity="0.5" stroke="blue" points="131.60461797166943,187.07857938188997 90.70005962459278,240.24868030141533 "/><polyline class="polyline" opacity="0.5" stroke="blue" points="131.5558804808225,186.27054183191484 89.83545609653665,238.92024031136202 "/><polyline class="polyline" opacity="0.5" stroke="blue" points="131.53693103240533,185.46452923698956 89.01015731282054,237.57121370191453 "/><polyline class="polyline" opacity="0.5" stroke="blue" points="131.54799962155207,184.66091047140304 88.22556094006788,236.20196521478692 "/><polyline class="polyline" opacity="0.5" stroke="blue" points="131.58930528767505,183.8600587775038 87.48307549158088,234.81287998060134 "/><polyline class="polyline" opacity="0.5" stroke="blue" points="131.66105564923888,183.06235163273334 86.78411945253617,233.40436422964046 "/><polyline class="polyline" opacity="0.5" stroke="blue" points="131.76344643324592,182.26817060537934 86.13012031563048,231.97684600999975 "/><polyline class="polyline" opacity="0.5" stroke="blue" points="131.8966610001137,181.4779011988061 85.52251352272981,230.53077591109792 "/><polyline class="polyline" opacity="0.5" stroke="blue" points="132.06086986467187,180.69193268393715 84.96274130809331,229.06662779031805 "/><polyline class="polyline" opacity="0.5" stroke="blue" points="132.25623021404908,179.91065791978113 84.45225143877524,227.58489950034914 "/><polyline class="polyline" opacity="0.5" stroke="blue" points="132.48288542326657,179.13447316181504 83.99249584787334,226.08611361459424 "/><polyline class="polyline" opacity="0.5" stroke="blue" points="132.74096456939964,178.3637778580557 83.58492915638065,224.57081814779337 "/><polyline class="polyline" opacity="0.5" stroke="blue" points="133.03058194521304,177.59897443267735 83.23100707952086,223.039587268793 "/><polyline class="polyline" opacity="0.5" stroke="blue" points="133.35183657322102,176.84046805705577 82.93218471360382,221.49302200216397 "/><polyline class="polyline" opacity="0.5" stroke="blue" points="133.70481172116553,176.0886664081468 82.6899146996285,219.9317509151425 "/><polyline class="polyline" opacity="0.5" stroke="blue" points="134.08957441994983,175.34397941413448 82.50564526009501,218.35643078612844 "/><polyline class="polyline" opacity="0.5" stroke="blue" points="134.50617498510618,174.6068189873147 82.3808181057625,216.76774725074242 "/><polyline class="polyline" opacity="0.5" stroke="blue" points="134.9546465429162,173.87759874421081 82.31686620940815,215.16641542120124 "/><polyline class="polyline" opacity="0.5" stroke="blue" points="135.43500456234193,173.15673371295262 82.31521144401417,213.5531804745357 "/><polyline class="polyline" opacity="0.5" stroke="blue" points="135.94724639396264,172.44464002798247 82.37726208322793,211.9288182049349 "/><polyline class="polyline" opacity="0.5" stroke="blue" points="136.4913508171463,171.74173461219024 82.5044101624133,210.29413553527377 "/><polyline class="polyline" opacity="0.5" stroke="blue" points="137.06727759671918,171.0484348466174 82.69802869914254,208.64997098265437 "/><polyline class="polyline" opacity="0.5" stroke="blue" points="137.6749670504244,170.36515822790668 82.9594687725638,206.99719507257348 "/><polyline class="polyline" opacity="0.5" stroke="blue" points="138.31433962849007,169.69232201371838 83.29005646172787,205.33671069612853 "/><polyline class="polyline" opacity="0.5" stroke="blue" points="138.98529550664904,169.03034285637256 83.69108964366761,203.66945340448183 "/><polyline class="polyline" opacity="0.5" stroke="blue" points="139.68771419397436,168.37963642502228 84.16383465279331,201.9963916346346 "/><polyline class="polyline" opacity="0.5" stroke="blue" points="140.42145415691056,167.7406170167042 84.70952280400526,200.31852686040733 "/><polyline class="polyline" opacity="0.5" stroke="blue" points="141.1863524608941,167.11369715666012 85.32934678282147,198.63689366240268 "/><polyline class="polyline" opacity="0.5" stroke="blue" points="141.98222443096387,166.4992871883664 86.024456906781,196.95255971062403 "/><polyline class="polyline" opacity="0.5" stroke="blue" points="142.80886333276686,165.89779485375627 86.79595726340625,195.26662565336358 "/><polyline class="polyline" opacity="0.5" stroke="blue" points="143.66604007536517,165.3096248641641 87.64490173109117,193.5802249059368 "/><polyline class="polyline" opacity="0.5" stroke="blue" points="144.5535029372411,164.73517846256945 88.57228989042123,191.89452333285797 "/><polyline class="polyline" opacity="0.5" stroke="blue" points="145.4709773168898,164.1748529777634 89.5790628346243,190.21071881709892 "/><polyline class="polyline" opacity="0.5" stroke="blue" points="146.41816550936923,163.62904137110795 90.66609888909223,188.5300407101833 "/><polyline class="polyline" opacity="0.5" stroke="blue" points="147.39474651015803,163.0981317766026 91.83420925119776,186.85374915701433 "/><polyline class="polyline" opacity="0.5" stroke="blue" points="148.40037584764266,162.58250703501983 93.08413356294858,185.18313428955116 "/><polyline class="polyline" opacity="0.5" stroke="blue" points="149.43468544552007,162.0825442229143 94.41653543036719,183.5195152837175 "/><polyline class="polyline" opacity="0.5" stroke="blue" points="150.49728351636622,161.59861417735343 95.83199790485337,181.86423927425608 "/><polyline class="polyline" opacity="0.5" stroke="blue" points="151.58775448757046,161.13108101725953 97.3310189431533,180.21868012264525 "/><polyline class="polyline" opacity="0.5" stroke="blue" points="152.70565896078807,160.68030166229315 98.914006863934,178.58423703366032 "/><polyline class="polyline" opacity="0.5" stroke="blue" points="153.85053370600014,160.24662535024632 100.58127582030913,176.96233301670443 "/><polyline class="polyline" opacity="0.5" stroke="blue" points="155.02189169121132,159.83039315394865 102.33304130898911,175.35441318863988 "/><polyline class="polyline" opacity="0.5" stroke="blue" points="156.21922214874033,159.431937498725 104.16941573800116,173.7619429155451 "/><polyline class="polyline" opacity="0.5" stroke="blue" points="157.44199067898458,159.0515816814729 106.0904040761424,172.18640579157562 "/><polyline class="polyline" opacity="0.5" stroke="blue" points="158.6896393924562,158.6896393924562 108.09589960846269,170.6293014539488 "/><polyline class="polyline" opacity="0.5" stroke="blue" points="159.9615870907997,158.34641424093687 110.185679823118,169.0921432339702 "/><polyline class="polyline" opacity="0.5" stroke="blue" points="161.25722948740636,158.02219928578722 112.35940245585867,167.57645564500436 "/><polyline class="polyline" opacity="0.5" stroke="blue" points="162.57593946814248,157.7172765722441 114.61660171921115,166.08377170932903 "/><polyline class="polyline" opacity="0.5" stroke="blue" points="163.9170673926017,157.4319166759791 116.95668474405043,164.61563012692213 "/><polyline class="polyline" opacity="0.5" stroke="blue" points="165.2799414361872,157.16637825567025 119.37892826173737,163.1735722903857 "/><polyline class="polyline" opacity="0.5" stroke="blue" points="166.66386797321155,156.920907615265 121.8824755552731,161.75913915142615 "/><polyline class="polyline" opacity="0.5" stroke="blue" points="168.06813200108596,156.69573827712708 124.46633370799599,160.37386794555957 "/><polyline class="polyline" opacity="0.5" stroke="blue" points="169.4919976055515,156.4910905672553 127.12937117821053,159.0192887829924 "/><polyline class="polyline" opacity="0.5" stroke="blue" points="170.93470846677835,156.30717121375613 129.87031572774004,157.69692111493396 "/><polyline class="polyline" opacity="0.5" stroke="blue" points="172.3954884060342,156.1441729597376 132.68775273177022,156.4082700859098 "/><polyline class="polyline" opacity="0.5" stroke="blue" points="173.87354197249164,156.00227419177654 135.5801238964401,155.1548227839582 "/><polyline class="polyline" opacity="0.5" stroke="blue" points="175.36805506961878,155.88163858508685 138.54572640947714,153.93804440188123 "/><polyline class="polyline" opacity="0.5" stroke="blue" points="176.87819562046064,155.78241476649188 141.5827125477122,152.75937432399175 "/><polyline class="polyline" opacity="0.5" stroke="blue" points="178.40311427099286,155.7047359962695 144.68908976358625,151.62022215400896 "/><polyline class="polyline" opacity="0.5" stroke="blue" points="179.94194513059267,155.6487198699031 147.86272127073778,150.52196370091426 "/><polyline class="polyline" opacity="0.5" stroke="blue" points="181.49380654854792,155.61446804072978 151.10132714647796,149.46593694065473 "/><polyline class="polyline" opacity="0.5" stroke="blue" points="183.05780192539208,155.60206596443038 154.4024859663881,148.45343797256666 "/><polyline class="polyline" opacity="0.5" stroke="blue" points="184.6330205577292,155.61158266625478 157.76363698345557,147.48571699026468 "/><polyline class="polyline" opacity="0.5" stroke="blue" points="186.2185385150881,155.64307053182176 161.18208286109424,146.56397428749548 "/><polyline class="polyline" opacity="0.5" stroke="blue" points="187.81341954722876,155.69656512227135 164.65499296611057,145.68935632005991 "/><polyline class="polyline" opacity="0.5" stroke="blue" points="189.41671602020537,155.77208501448547 168.17940722417802,144.86295184536982 "/><polyline class="polyline" opacity="0.5" stroke="blue" points="191.02746987938104,155.86963166702498 171.75224053671747,144.08578816149438 "/><polyline class="polyline" opacity="0.5" stroke="blue" points="192.64471363748672,155.98918931235903 175.37028775428178,143.35882746766725 "/><polyline class="polyline" opacity="0.5" stroke="blue" points="194.2674713857155,156.13072487589108 179.03022919762037,142.6829633681543 "/><polyline class="polyline" opacity="0.5" stroke="blue" points="195.89475982575414,156.2941879222062 182.72863671362413,142.05901754111952 "/><polyline class="polyline" opacity="0.5" stroke="blue" points="197.52558932056544,156.47951062888666 186.46198024933085,141.48773659366498 "/><polyline class="polyline" opacity="0.5" stroke="blue" points="199.15896496166485,156.68660778816079 190.22663492318864,140.96978912355937 "/><polyline class="polyline" opacity="0.5" stroke="blue" points="200.79388765055853,156.9153768365652 194.0188885688212,140.50576300730918 "/><polyline class="polyline" opacity="0.5" stroke="blue" points="202.42935519195666,157.1656979127181 197.83494972271714,140.09616293316805 "/><polyline class="polyline" opacity="0.5" stroke="blue" points="204.06436339632006,157.43743394321223 201.67095602356727,139.74140819642912 "/><polyline class="polyline" opacity="0.5" stroke="blue" points="205.69790718926075,157.7304307565534 205.52298298749596,139.44183077291288 "/><polyline class="polyline" opacity="0.5" stroke="blue" points="207.32898172528354,158.0445172249796 209.3870531201673,139.19767368495616 "/><polyline class="polyline" opacity="0.5" stroke="blue" points="208.95658350333088,158.37950543391312 213.25914532377058,139.00908967244447 "/><polyline class="polyline" opacity="0.5" stroke="blue" points="210.57971148158785,158.73519087870994 217.13520455424205,138.87614017952234 "/><polyline class="polyline" opacity="0.5" stroke="blue" points="212.1973681889949,159.11135268828718 221.01115168176133,138.79879466558452 "/><polyline class="polyline" opacity="0.5" stroke="blue" points="213.80856083092974,159.507753875126 224.8828935056489,138.77693024701767 "/><polyline class="polyline" opacity="0.5" stroke="blue" points="215.41230238653296,159.92414161106655 228.74633287327234,138.81033167394372 "/><polyline class="polyline" opacity="0.5" stroke="blue" points="217.0076126951854,160.36024752823243 232.59737885150167,138.89869164394318 "/><polyline class="polyline" opacity="0.5" stroke="blue" points="218.59351952967853,160.81578804434685 236.43195689861093,139.04161145242753 "/><polyline class="polyline" opacity="0.5" stroke="blue" points="220.16905965367002,161.29046471162889 240.24601898436148,139.23860197701595 "/><polyline class="polyline" opacity="0.5" stroke="blue" points="221.73327986107032,161.78396458838984 244.0355536062811,139.4890849909712 "/><polyline class="polyline" opacity="0.5" stroke="blue" points="223.2852379950761,162.295960632383 247.79659565091256,139.79239479849514 "/><polyline class="polyline" opacity="0.5" stroke="blue" points="224.82400394463735,162.82611211490007 251.525236049993,140.14778018249845 "/><polyline class="polyline" opacity="0.5" stroke="blue" points="226.34866061622992,163.37406505454885 255.21763118316804,140.55440665335948 "/><polyline class="polyline" opacity="0.5" stroke="blue" points="227.85830487889353,163.93945266959452 258.87001198088547,141.01135898520883 "/><polyline class="polyline" opacity="0.5" stroke="blue" points="229.35204848059692,164.5218958477007 262.4786926835642,141.51764402442709 "/><polyline class="polyline" opacity="0.5" stroke="blue" points="230.82901893409286,165.12100363186138 266.0400792159215,142.0721937533527 "/><polyline class="polyline" opacity="0.5" stroke="blue" points="232.28836037053628,165.73637372127894 269.5506771384652,142.67386859066912 "/><polyline class="polyline" opacity="0.5" stroke="blue" points="233.72923435925838,166.36759298591076 273.0070991415691,143.32146090860766 "/><polyline class="polyline" opacity="0.5" stroke="blue" points="235.15082069220654,167.01423799337968 276.4060720511895,144.0136987459547 "/><polyline class="polyline" opacity="0.5" stroke="blue" points="236.55231813168774,167.67587554692327 279.7444433191341,144.74924969491403 "/><polyline class="polyline" opacity="0.5" stroke="blue" points="237.93294512017957,168.35206323303842 283.0191869747855,145.5267249391451 "/><polyline class="polyline" opacity="0.5" stroke="blue" points="239.2919404511071,169.04234997747105 286.22740901929484,146.34468341978112 "/><polyline class="polyline" opacity="0.5" stroke="blue" points="240.62856389961553,169.74627660819127 289.3663522474148,147.20163610592263 "/><polyline class="polyline" opacity="0.5" stroke="blue" points="241.94209681250462,170.46337642399837 292.43340048632103,148.09605034600847 "/><polyline class="polyline" opacity="0.5" stroke="blue" points="243.23184265662613,171.193175767402 295.42608224491096,149.02635427656972 "/><polyline class="polyline" opacity="0.5" stroke="blue" points="244.49712752518332,171.93519460043964 298.3420737711399,149.9909412651772 "/><polyline class="polyline" opacity="0.5" stroke="blue" points="245.7373006015049,172.68894708210277 301.17920151890394,150.98817436487832 "/><polyline class="polyline" opacity="0.5" stroke="blue" points="246.95173458000318,173.45394214606736 303.93544402978273,152.01639075808055 "/><polyline class="polyline" opacity="0.5" stroke="blue" points="248.1398260441542,174.22968407744557 306.60893323856357,153.07390616865877 "/><polyline class="polyline" opacity="0.5" stroke="blue" points="249.30099580147444,175.01567308730833 309.1979552148789,154.1590192220272 "/><polyline class="polyline" opacity="0.5" stroke="blue" points="250.43468917559085,175.8114058837587 311.700950356439,155.2700157340093 "/><polyline class="polyline" opacity="0.5" stroke="blue" points="251.54037625562614,176.6163762383734 314.1165130522394,156.40517291053925 "/><polyline class="polyline" opacity="0.5" stroke="blue" points="252.61755210324432,177.43007554687162 316.44339083674885,157.5627634415263 "/><polyline class="polyline" opacity="0.5" stroke="blue" points="253.66573691781252,178.2519933829127 318.6804830583998,158.741059473583 "/><polyline class="polyline" opacity="0.5" stroke="blue" points="254.68447616025082,179.0816180439707 320.8268390877382,159.93833644774554 "/><polyline class="polyline" opacity="0.5" stroke="blue" points="255.67334063624307,179.91843708828372 322.8816560923101,161.15287678978345 "/><polyline class="polyline" opacity="0.5" stroke="blue" points="256.6319265395862,180.76193786192792 324.84427640678405,162.38297344218793 "/><polyline class="polyline" opacity="0.5" stroke="blue" points="257.55985545654715,181.61160801511798 326.7141845279259,163.62693322842586 "/><polyline class="polyline" opacity="0.5" stroke="blue" points="258.45677433218674,182.46693600689346 328.4910037648742,164.8830800415381 "/><polyline class="polyline" opacity="0.5" stroke="blue" points="259.3223553996902,183.32741159740442 330.17449257569865,166.14975785062845 "/><polyline class="polyline" opacity="0.5" stroke="blue" points="260.1562960738227,184.19252632707057 331.76454062150856,167.4253335202263 "/><polyline class="polyline" opacity="0.5" stroke="blue" points="260.95831880969604,185.06177398194367 333.2611645693846,168.7081994388913 "/><polyline class="polyline" opacity="0.5" stroke="blue" points="261.72817092809464,185.93465104466503 334.6645036751902,169.99677595476288 "/><polyline class="polyline" opacity="0.5" stroke="blue" points="262.46562440866717,186.81065713046556 335.97481517687373,171.2895136170203 "/></svg>
