<?xml version="1.0" encoding="UTF-8"?>
<!DOCTYPE svg PUBLIC "-//W3C//DTD SVG 1.1//EN"
    "http://www.w3.org/Graphics/SVG/1.1/DTD/svg11.dtd"><svg width="400" height="400" stroke="black" fill="none" fill-opacity="0.75" font-size="14" font-style="italic" font-family="sans-serif" xmlns="http://www.w3.org/2000/svg" xmlns:xlink="http://www.w3.org/1999/xlink" version="1.1"><filter id="blur1"><feGaussianBlur stdDeviation="0.5"/></filter><rect width="100%" height="100%" fill="white" stroke="none" fill-opacity="1"/><rect class="bg" fill="black" width="100%" height="100%" stroke="none" fill-opacity="1"/><polyline class="polyline" opacity="0.5" stroke="blue" points="269.8191275969209,196.980397617427 345.60202213714183,192.94719146128588 "/><polyline class="polyline" opacity="0.5" stroke="blue" points="270.0381895994253,197.44981876495376 345.57467787551013,193.19711188484754 "/><polyline class="polyline" opacity="0.5" stroke="blue" points="270.2242241449518,197.91778660747806 345.4706590038709,193.4467218199442 "/><polyline class="polyline" opacity="0.5" stroke="blue" points="270.3774166166226,198.38408626865336 345.29147146866853,193.69548562079524 "/><polyline class="polyline" opacity="0.5" stroke="blue" points="270.49796811677317,198.84850728514215 345.0386498436943,193.94288330151818 "/><polyline class="polyline" opacity="0.5" stroke="blue" points="270.5860948534108,199.31084365895322 344.7137532358607,194.18841064872157 "/><polyline class="polyline" opacity="0.5" stroke="blue" points="270.642027529237,199.77089390135038 344.3183613778204,194.4315792833515 "/><polyline class="polyline" opacity="0.5" stroke="blue" points="270.66601073438505,200.2284610686081 343.85407090965606,194.67191667520814 "/><polyline class="polyline" opacity="0.5" stroke="blue" points="270.65830234396316,200.68335278989773 343.32249185072965,194.90896611352184 "/><polyline class="polyline" opacity="0.5" stroke="blue" points="270.61917292142493,201.1353812875945 342.7252442617446,195.14228663693177 "/><polyline class="polyline" opacity="0.5" stroke="blue" points="270.5489051287275,201.58436339030274 342.0639550961303,195.37145292614483 "/><polyline class="polyline" opacity="0.5" stroke="blue" points="270.4477931441727,202.03012053889873 341.340255239002,195.59605516247524 "/><polyline class="polyline" opacity="0.5" stroke="blue" points="270.3161420887636,202.472478785896 340.55577673118853,195.8156988553738 "/><polyline class="polyline" opacity="0.5" stroke="blue" points="270.15426746184653,202.91126878843846 339.71215017514066,196.03000464195438 "/><polyline class="polyline" opacity="0.5" stroke="blue" points="269.96249458674595,203.3463257952284 338.81100231893765,196.2386080614142 "/><polyline class="polyline" opacity="0.5" stroke="blue" points="269.7411580670422,203.777489627696 337.8539538140926,196.4411593071282 "/><polyline class="polyline" opacity="0.5" stroke="blue" points="269.4906012540815,204.204604655716 336.8426171424122,196.63732295907457 "/><polyline class="polyline" opacity="0.5" stroke="blue" points="269.21117572624985,204.62751976817518 335.7785947067962,196.8267776991219 "/><polyline class="polyline" opacity="0.5" stroke="blue" points="268.9032407804895,205.0460883386918 334.6634770805503,197.00921601157978 "/><polyline class="polyline" opacity="0.5" stroke="blue" points="268.567162936481,205.46016818678413 333.49884140953924,197.18434387128426 "/><polyline class="polyline" opacity="0.5" stroke="blue" points="268.20331545386233,205.86962153478177 332.28624996131464,197.35188042135798 "/><polyline class="polyline" opacity="0.5" stroke="blue" points="267.81207786280766,206.27431496076736 331.0272488152129,197.5115576426566 "/><polyline class="polyline" opacity="0.5" stroke="blue" points="267.39383550823965,206.67411934783235 329.7233666873211,197.66312001678293 "/><polyline class="polyline" opacity="0.5" stroke="blue" points="266.9489791079031,207.06890982992348 328.37611388416053,197.8063241844249 "/><polyline class="polyline" opacity="0.5" stroke="blue" points="266.47790432448613,207.4585657345506 326.98698137892245,197.94093860065087 "/><polyline class="polyline" opacity="0.5" stroke="blue" points="265.9810113519298,207.8429705226197 325.5574400041123,198.0667431886738 "/><polyline class="polyline" opacity="0.5" stroke="blue" points="265.45870451603196,208.22201172564795 324.0889397545097,198.18352899348295 "/><polyline class="polyline" opacity="0.5" stroke="blue" points="264.9113918894104,208.59558088060967 322.58290919443016,198.2910978366271 "/><polyline class="polyline" opacity="0.5" stroke="blue" points="264.33948492085676,208.9635734626555 321.04075496337504,198.3892619733276 "/><polyline class="polyline" opacity="0.5" stroke="blue" points="263.74339807907904,209.3258888159377 319.46386137427885,198.47784375299716 "/><polyline class="polyline" opacity="0.5" stroke="blue" points="263.1235485108002,209.6824300827678 317.8535900987008,198.55667528414165 "/><polyline class="polyline" opacity="0.5" stroke="blue" points="262.4803557131502,210.03310413132408 316.2112799334612,198.62559810453 "/><polyline class="polyline" opacity="0.5" stroke="blue" points="261.8142412202625,210.37782148211795 314.53824664338765,198.6844628574301 "/><polyline class="polyline" opacity="0.5" stroke="blue" points="261.12562830396155,210.71649623342063 312.83578287501064,198.73312897462426 "/><polyline class="polyline" opacity="0.5" stroke="blue" points="260.41494168840296,211.0490459858425 311.10515813622965,198.77146436684214 "/><polyline class="polyline" opacity="0.5" stroke="blue" points="259.68260727850827,211.37539176624995 309.34761883715714,198.79934512217432 "/><polyline class="polyline" opacity="0.5" stroke="blue" points="258.9290519020166,211.69545795119598 307.56438838753974,198.8166552129626 "/><polyline class="polyline" opacity="0.5" stroke="blue" points="258.15470306495627,212.00917219003227 305.7566673463473,198.8232862115993 "/><polyline class="polyline" opacity="0.5" stroke="blue" points="257.3599887203249,212.31646532786357 303.92563361931445,198.81913701560924 "/><polyline class="polyline" opacity="0.5" stroke="blue" points="256.545337049751,212.61727132849583 302.07244270041065,198.80411358233238 "/><polyline class="polyline" opacity="0.5" stroke="blue" points="255.71117625789788,212.91152719752293 300.19822795340855,198.7781286734769 "/><polyline class="polyline" opacity="0.5" stroke="blue" points="254.85793437935757,213.19917290568867 298.30410092990445,198.7411016097638 "/><polyline class="polyline" opacity="0.5" stroke="blue" points="253.98603909777432,213.4801513126532 296.39115172033405,198.6929580358425 "/><polyline class="polyline" opacity="0.5" stroke="blue" points="253.09591757692593,213.75440809128585 294.46044933470284,198.63362969561896 "/><polyline class="polyline" opacity="0.5" stroke="blue" points="252.1879963034868,214.02189165259963 292.51304210993,198.56305421809998 "/><polyline class="polyline" opacity="0.5" stroke="blue" points="251.2627009411858,214.2825530714351 290.54995814087243,198.4811749138277 "/><polyline class="polyline" opacity="0.5" stroke="blue" points="250.32045619607115,214.53634601299498 288.5722057322618,198.38794058194682 "/><polyline class="polyline" opacity="0.5" stroke="blue" points="249.36168569258655,214.7832266603246 286.58077386894576,198.28330532792214 "/><polyline class="polyline" opacity="0.5" stroke="blue" points="248.38681186016197,215.02315364282683 284.57663270197725,198.16722839189924 "/><polyline class="polyline" opacity="0.5" stroke="blue" points="247.39625583001845,215.25608796589412 282.56073404824065,198.03967398768063 "/><polyline class="polyline" opacity="0.5" stroke="blue" points="246.3904373418856,215.48199294173446 280.5340119014446,197.9006111522696 "/><polyline class="polyline" opacity="0.5" stroke="blue" points="245.3697746603287,215.700834121463 278.49738295244333,197.7500136059179 "/><polyline class="polyline" opacity="0.5" stroke="blue" points="244.3346845003836,215.91257922852495 276.4517471169728,197.58785962259793 "/><polyline class="polyline" opacity="0.5" stroke="blue" points="243.28558196219666,216.1171980935111 274.39798806901126,197.4141319108065 "/><polyline class="polyline" opacity="0.5" stroke="blue" points="242.22288047436888,216.31466259042205 272.3369737780814,197.22881750459558 "/><polyline class="polyline" opacity="0.5" stroke="blue" points="241.14699174570472,216.50494657443258 270.26955704892225,197.0319076647158 "/><polyline class="polyline" opacity="0.5" stroke="blue" points="240.05832572506944,216.68802582120358 268.1965760620553,196.82339778974784 "/><polyline class="polyline" opacity="0.5" stroke="blue" points="238.95729056905873,216.8638779677841 266.11885491386454,196.60328733709056 "/><polyline class="polyline" opacity="0.5" stroke="blue" points="237.84429261719072,217.03248245514342 264.03720415489653,196.37157975366637 "/><polyline class="polyline" opacity="0.5" stroke="blue" points="236.71973637433138,217.19382047236738 261.9524213251693,196.12828241619897 "/><polyline class="polyline" opacity="0.5" stroke="blue" points="235.58402450006864,217.34787490255184 259.8652914853524,195.87340658091318 "/><polyline class="polyline" opacity="0.5" stroke="blue" points="234.4375578047554,217.49463027042128 257.77658774275113,195.60696734250135 "/><polyline class="polyline" opacity="0.5" stroke="blue" points="233.28073525194398,217.6340726916979 255.68707177109394,195.32898360219681 "/><polyline class="polyline" opacity="0.5" stroke="blue" points="232.1139539669408,217.76618982424395 253.59749432317884,195.03947804479122 "/><polyline class="polyline" opacity="0.5" stroke="blue" points="230.9376092512129,217.89097082099718 251.50859573549025,194.73847712442853 "/><polyline class="polyline" opacity="0.5" stroke="blue" points="229.7520946023834,218.00840628471613 249.42110642394766,194.42601105900525 "/><polyline class="polyline" opacity="0.5" stroke="blue" points="228.55780173955782,218.11848822455065 247.3357473699915,194.1021138330033 "/><polyline class="polyline" opacity="0.5" stroke="blue" points="227.35512063372659,218.22121001445018 245.2532305962526,193.76682320857873 "/><polyline class="polyline" opacity="0.5" stroke="blue" points="226.14443954299614,218.31656635341997 243.1742596310886,193.42018074472514 "/><polyline class="polyline" opacity="0.5" stroke="blue" points="224.9261450524027,218.4045532276347 241.09952996130303,193.06223182432925 "/><polyline class="polyline" opacity="0.5" stroke="blue" points="223.7006221180703,218.48516787441574 239.02972947239147,192.6930256889302 "/><polyline class="polyline" opacity="0.5" stroke="blue" points="222.46825411547786,218.55840874807794 236.96553887568555,192.3126154809911 "/><polyline class="polyline" opacity="0.5" stroke="blue" points="221.22942289160446,218.6242754876494 234.90763212178763,191.9210582934879 "/><polyline class="polyline" opacity="0.5" stroke="blue" points="219.9845088207273,218.68276888646744 232.8566767997079,191.51841522661408 "/><polyline class="polyline" opacity="0.5" stroke="blue" points="218.7338908636508,218.7338908636508 230.81333452113353,191.10475145139583 "/><polyline class="polyline" opacity="0.5" stroke="blue" points="217.4779466301492,218.77764443745002 228.77826128927214,190.6801362800066 "/><polyline class="polyline" opacity="0.5" stroke="blue" points="216.21705244440952,218.8140337004735 226.75210785172484,190.24464324256272 "/><polyline class="polyline" opacity="0.5" stroke="blue" points="214.95158341326584,218.84306379678836 224.73552003685404,189.7983501701761 "/><polyline class="polyline" opacity="0.5" stroke="blue" points="213.6819134970185,218.86474090089368 222.72913907311678,189.3413392840314 "/><polyline class="polyline" opacity="0.5" stroke="blue" points="212.40841558263713,218.8790721985619 220.7336018908438,188.87369729024758 "/><polyline class="polyline" opacity="0.5" stroke="blue" points="211.13146155914768,218.88606586954523 218.74954140594704,188.39551548027438 "/><polyline class="polyline" opacity="0.5" stroke="blue" points="209.85142239500894,218.88573107214214 216.77758678504216,187.90688983656497 "/><polyline class="polyline" opacity="0.5" stroke="blue" points="208.5686682172851,218.87807792961843 214.81836369147632,187.40792114325487 "/><polyline class="polyline" opacity="0.5" stroke="blue" points="207.28356839242443,218.86311751847794 212.87249451175137,186.8987151015667 "/><polyline class="polyline" opacity="0.5" stroke="blue" points="205.99649160845692,218.84086185857618 210.94059856183577,186.37938244964766 "/><polyline class="polyline" opacity="0.5" stroke="blue" points="204.70780595842524,218.81132390507054 209.02329227285813,185.85003908653397 "/><polyline class="polyline" opacity="0.5" stroke="blue" points="203.41787902486556,218.77451754220056 207.1211893556764,185.3108061999229 "/><polyline class="polyline" opacity="0.5" stroke="blue" points="202.12707796515664,218.73045757889054 205.23490094381808,184.76181039741758 "/><polyline class="polyline" opacity="0.5" stroke="blue" points="200.83576959755706,218.6791597461675 203.36503571428787,184.20318384089612 "/><polyline class="polyline" opacity="0.5" stroke="blue" points="199.54432048775135,218.62064069638635 201.51219998574066,183.63506438363785 "/><polyline class="polyline" opacity="0.5" stroke="blue" points="198.25309703572665,218.55491800425435 199.67699779352142,183.0575957098247 "/><polyline class="polyline" opacity="0.5" stroke="blue" points="196.96246556280326,218.48201016964651 197.86003094107707,182.4709274760168 "/><polyline class="polyline" opacity="0.5" stroke="blue" points="195.67279239864075,218.40193662220327 196.0618990272499,181.87521545418275 "/><polyline class="polyline" opacity="0.5" stroke="blue" points="194.38444396804348,218.31471772770155 194.28319944897015,181.27062167584592 "/><polyline class="polyline" opacity="0.5" stroke="blue" points="193.09778687738844,218.22037479618987 192.5245273788729,180.6573145768889 "/><polyline class="polyline" opacity="0.5" stroke="blue" points="191.8131880004968,218.11893009187824 190.78647571737548,180.03546914253562 "/><polyline class="polyline" opacity="0.5" stroke="blue" points="190.5310145637724,218.01040684477266 189.0696350187645,179.40526705201262 "/><polyline class="polyline" opacity="0.5" stroke="blue" points="189.25163423042662,217.8948292640439 187.37459339085763,178.7668968223657 "/><polyline class="polyline" opacity="0.5" stroke="blue" points="187.9754151836101,217.77222255312034 185.7019363678222,178.1205539508897 "/><polyline class="polyline" opacity="0.5" stroke="blue" points="186.70272620826876,217.64261292649306 184.05224675575596,177.46644105560435 "/><polyline class="polyline" opacity="0.5" stroke="blue" points="185.43393677154103,217.50602762822203 182.42610445065827,176.80476801318753 "/><polyline class="polyline" opacity="0.5" stroke="blue" points="184.1694171015102,217.3624949521308 180.8240862284496,176.13575209375526 "/><polyline class="polyline" opacity="0.5" stroke="blue" points="182.90953826412454,217.212044263677 179.2467655067284,175.45961809185368 "/><polyline class="polyline" opacity="0.5" stroke="blue" points="181.65467223809446,217.05470602348504 177.69471207799043,174.77659845300764 "/><polyline class="polyline" opacity="0.5" stroke="blue" points="180.40519198757386,216.89051181252663 176.16849181407645,174.08693339514699 "/><polyline class="polyline" opacity="0.5" stroke="blue" points="179.16147153243034,216.71949435893387 174.66866634165777,173.39087102421053 "/><polyline class="polyline" opacity="0.5" stroke="blue" points="177.9238860159043,216.54168756642878 173.19579268861972,172.68866744320712 "/><polyline class="polyline" opacity="0.5" stroke="blue" points="176.69281176945557,216.35712654435213 171.75042290125606,171.9805868539922 "/><polyline class="polyline" opacity="0.5" stroke="blue" points="175.46862637459125,216.1658476392733 170.33310363224632,171.26690165099973 "/><polyline class="polyline" opacity="0.5" stroke="blue" points="174.25170872146566,215.9678884681615 168.9443756994535,170.54789250615076 "/><polyline class="polyline" opacity="0.5" stroke="blue" points="173.0424390640385,215.7632879530976 167.58477361564738,169.82384844414423 "/><polyline class="polyline" opacity="0.5" stroke="blue" points="171.8411990715748,215.55208635750415 166.25482508933328,169.0950669073196 "/><polyline class="polyline" opacity="0.5" stroke="blue" points="170.64837187626438,215.3343253238698 164.95505049694833,168.36185380926815 "/><polyline class="polyline" opacity="0.5" stroke="blue" points="169.46434211673574,215.11004791294238 163.68596232676933,167.62452357635993 "/><polyline class="polyline" opacity="0.5" stroke="blue" points="168.28949597723422,214.87929864436353 162.44806459497028,166.8833991763426 "/><polyline class="polyline" opacity="0.5" stroke="blue" points="167.12422122222986,214.642123538715 161.2418522343619,166.13881213316395 "/><polyline class="polyline" opacity="0.5" stroke="blue" points="165.96890722621634,214.39857016094564 160.06781045644777,165.3911025271666 "/><polyline class="polyline" opacity="0.5" stroke="blue" points="164.82394499845762,214.1486876651452 158.9264140875386,164.6406189798024 "/><polyline class="polyline" opacity="0.5" stroke="blue" points="163.68972720243394,213.8925268406285 157.81812687977708,163.88771862201847 "/><polyline class="polyline" opacity="0.5" stroke="blue" points="162.5666481697358,213.630140159292 156.74340079804352,163.13276704547246 "/><polyline class="polyline" opacity="0.5" stroke="blue" points="161.45510390814775,213.36158182420073 155.70267528383252,162.37613823574767 "/><polyline class="polyline" opacity="0.5" stroke="blue" points="160.3554921036621,213.08690781936141 154.6963764973164,161.61821448675067 "/><polyline class="polyline" opacity="0.5" stroke="blue" points="159.26821211615606,212.8061759606352 153.72491653894136,160.85938629549645 "/><polyline class="polyline" opacity="0.5" stroke="blue" points="158.1936649684636,212.51944594773852 152.78869265203303,160.10005223650796 "/><polyline class="polyline" opacity="0.5" stroke="blue" points="157.1322533285674,212.22677941727898 151.88808640802506,159.34061881508782 "/><polyline class="polyline" opacity="0.5" stroke="blue" points="156.08438148463517,211.92823999676844 151.02346287606153,158.58150029875173 "/><polyline class="polyline" opacity="0.5" stroke="blue" points="155.05045531261737,211.62389335955226 150.19516977886337,157.82311852615481 "/><polyline class="polyline" opacity="0.5" stroke="blue" points="154.03088223612485,211.31380728058983 149.40353663688995,157.06590269288526 "/><polyline class="polyline" opacity="0.5" stroke="blue" points="153.0260711782973,210.99805169301683 148.64887390296724,156.31028911355057 "/><polyline class="polyline" opacity="0.5" stroke="blue" points="152.03643250537442,210.67669874541636 147.93147208969492,155.5567209596378 "/><polyline class="polyline" opacity="0.5" stroke="blue" points="151.06237796167864,210.34982285972052 147.25160089208254,154.8056479726909 "/><polyline class="polyline" opacity="0.5" stroke="blue" points="150.10432059571457,210.01750078966037 146.60950830800266,154.05752615241622 "/><polyline class="polyline" opacity="0.5" stroke="blue" points="149.16267467709378,209.67981167967682 146.00541975918182,153.31281741940046 "/><polyline class="polyline" opacity="0.5" stroke="blue" points="148.23785560398767,209.33683712420023 145.43953721557776,152.571989252205 "/><polyline class="polyline" opacity="0.5" stroke="blue" points="147.3302798008162,208.98866122720125 144.9120383261164,151.8355142986853 "/><polyline class="polyline" opacity="0.5" stroke="blue" points="146.44036460587722,208.63537066191046 144.4230755588786,151.10386996147562 "/><polyline class="polyline" opacity="0.5" stroke="blue" points="145.56852814862583,208.27705473059814 143.97277535393516,150.37753795767472 "/><polyline class="polyline" opacity="0.5" stroke="blue" points="144.71518921631292,207.91380542430102 143.56123729212942,149.6570038528688 "/><polyline class="polyline" opacity="0.5" stroke="blue" points="143.8807671096977,207.54571748237598 143.18853328319753,148.94275656973744 "/><polyline class="polyline" opacity="0.5" stroke="blue" points="143.0656814875513,207.1728884517554 142.85470677669446,148.23528787159447 "/><polyline class="polyline" opacity="0.5" stroke="blue" points="142.2703521996753,206.7954187457728 142.5597719992615,147.53509182133516 "/><polyline class="polyline" opacity="0.5" stroke="blue" points="141.49519910816406,206.4134117024212 142.303713221823,146.84266421637713 "/><polyline class="polyline" opacity="0.5" stroke="blue" points="140.740641896648,206.0269736419 142.08648406033944,146.15850200030542 "/><polyline class="polyline" opacity="0.5" stroke="blue" points="140.00709986726343,205.63621392330106 141.90800681376493,145.48310265205654 "/><polyline class="polyline" opacity="0.5" stroke="blue" points="139.2949917251043,205.24124500027648 141.76817184286404,144.81696355360296 "/><polyline class="polyline" opacity="0.5" stroke="blue" points="138.60473534992238,204.84218247552622 141.66683699352927,144.1605813372275 "/><polyline class="polyline" opacity="0.5" stroke="blue" points="137.93674755485534,204.4391451539353 141.60382706821008,143.5144512136049 "/><polyline class="polyline" opacity="0.5" stroke="blue" points="137.2914438319767,204.03225509418562 141.5789333490123,142.8790662820365 "/><polyline class="polyline" opacity="0.5" stroke="blue" points="136.66923808447592,203.62163765865935 141.59191317595705,142.25491682431195 "/><polyline class="polyline" opacity="0.5" stroke="blue" points="136.0705423452959,203.2074215614463 141.64248958379451,141.64248958379454 "/><polyline class="polyline" opacity="0.5" stroke="blue" points="135.4957664820734,202.78973891425946 141.7303510006553,141.04226703145173 "/><polyline class="polyline" opacity="0.5" stroke="blue" points="134.9453178882477,202.36872527005826 141.85515101168653,140.45472662066976 "/><polyline class="polyline" opacity="0.5" stroke="blue" points="134.41960116022784,201.94451966417233 142.01650819066282,139.8803400328042 "/><polyline class="polyline" opacity="0.5" stroke="blue" points="133.91901776052956,201.51726465271267 142.21400600238297,139.3195724155285 "/><polyline class="polyline" opacity="0.5" stroke="blue" points="133.44396566682303,201.0871063480516 142.44719277846366,138.77288161614172 "/><polyline class="polyline" opacity="0.5" stroke="blue" points="132.99483900685817,200.65419445114767 142.7155817689187,138.24071741209193 "/><polyline class="polyline" opacity="0.5" stroke="blue" points="132.57202767926503,200.21868228048615 143.01865127167014,137.7235207410564 "/><polyline class="polyline" opacity="0.5" stroke="blue" points="132.17591696026017,199.780726797401 143.35584484187615,137.22172293299553 "/><polyline class="polyline" opacity="0.5" stroke="blue" points="131.80688709632233,199.34048862754034 143.7265715826785,136.73574494666252 "/><polyline class="polyline" opacity="0.5" stroke="blue" points="131.46531288293886,198.89813207823272 144.13020651867413,136.2659966131058 "/><polyline class="polyline" opacity="0.5" stroke="blue" points="131.1515632295612,198.45382515150845 144.566091053099,135.8128758887427 "/><polyline class="polyline" opacity="0.5" stroke="blue" points="130.86600071094955,198.00773955252677 145.03353350938448,135.37676812061247 "/><polyline class="polyline" opacity="0.5" stroke="blue" points="130.60898110512858,197.56005069315808 145.53180975740045,134.95804532643376 "/><polyline class="polyline" opacity="0.5" stroke="blue" points="130.38085291822117,197.11093769046744 146.06016392434722,134.55706549209336 "/><polyline class="polyline" opacity="0.5" stroke="blue" points="130.18195689647297,196.66058335984548 146.61780918989314,134.17417188918154 "/><polyline class="polyline" opacity="0.5" stroke="blue" points="130.0126255258312,196.20917420253184 147.2039286647855,133.80969241516306 "/><polyline class="polyline" opacity="0.5" stroke="blue" points="129.87318251948847,195.75690038727666 147.81767635178588,133.463938958732 "/><polyline class="polyline" opacity="0.5" stroke="blue" points="129.76394229385863,195.30395572588733 148.458178187405,133.13720679284143 "/><polyline class="polyline" opacity="0.5" stroke="blue" points="129.6852094335027,194.85053764240905 149.12453316253368,132.82977399782948 "/><polyline class="polyline" opacity="0.5" stroke="blue" points="129.63727814557978,194.3968471356916 149.81581451969421,132.54190091697575 "/><polyline class="polyline" opacity="0.5" stroke="blue" points="129.62043170445747,193.94308873509803 150.53107102426583,132.2738296467242 "/><polyline class="polyline" opacity="0.5" stroke="blue" points="129.63494188717016,193.48947044911694 151.26932830667965,132.02578356369136 "/><polyline class="polyline" opacity="0.5" stroke="blue" points="129.6810684004796,193.03620370664495 152.02959027222732,131.79796689045327 "/><polyline class="polyline" opacity="0.5" stroke="blue" points="129.75905830034822,192.58350329071504 152.81084057479308,131.59056430196193 "/><polyline class="polyline" opacity="0.5" stroke="blue" points="129.8691454047015,192.13158726445326 153.61204415049684,131.40374057429088 "/><polyline class="polyline" opacity="0.5" stroke="blue" points="130.01154970041608,191.68067688905745 154.43214880693685,131.23764027724258 "/><polyline class="polyline" opacity="0.5" stroke="blue" points="130.1864767455341,191.2309965336019 155.27008686343666,131.0923875121784 "/><polyline class="polyline" opacity="0.5" stroke="blue" points="130.3941170677693,190.7827735764846 156.12477683744527,130.96808569624673 "/><polyline class="polyline" opacity="0.5" stroke="blue" points="130.63464556043124,190.33623829834772 156.9951251720044,130.86481739399295 "/><polyline class="polyline" opacity="0.5" stroke="blue" points="130.90822087695935,189.89162376631631 157.8800279989917,130.7826441971376 "/><polyline class="polyline" opacity="0.5" stroke="blue" points="131.21498482531888,189.44916570941794 158.7783729326686,130.7216066531036 "/><polyline class="polyline" opacity="0.5" stroke="blue" points="131.5550617635754,189.00910238506276 159.68904088791498,130.68172424266697 "/><polyline class="polyline" opacity="0.5" stroke="blue" points="131.92855799802066,188.57167443648373 160.6109079174127,130.66299540689388 "/><polyline class="polyline" opacity="0.5" stroke="blue" points="132.3355611852853,188.13712474105702 161.54284706195554,130.66539762331644 "/><polyline class="polyline" opacity="0.5" stroke="blue" points="132.7761397399271,187.70569824944528 162.48373020800753,130.68888753108578 "/><polyline class="polyline" opacity="0.5" stroke="blue" points="133.25034224904027,187.27764181552948 163.43242994661156,130.7334011046356 "/><polyline class="polyline" opacity="0.5" stroke="blue" points="133.758196895481,186.85320401712096 164.38782142775966,130.7988538751783 "/><polyline class="polyline" opacity="0.5" stroke="blue" points="134.29971089135273,186.43263496747014 165.34878420438125,130.88514119915783 "/><polyline class="polyline" opacity="0.5" stroke="blue" points="134.87486992344145,186.0161861176183 166.31420406017935,130.99213857258565 "/><polyline class="polyline" opacity="0.5" stroke="blue" points="135.48363761232835,185.604110049665 167.28297481565326,131.11970198999845 "/><polyline class="polyline" opacity="0.5" stroke="blue" points="136.1259549869464,185.19666026105614 168.25400010677967,131.26766834659642 "/><polyline class="polyline" opacity="0.5" stroke="blue" points="136.80173997637755,184.79409094002725 169.22619513099306,131.43585588195023 "/><polyline class="polyline" opacity="0.5" stroke="blue" points="137.51088692071266,184.3966567323696 170.19848835529524,131.6240646635058 "/><polyline class="polyline" opacity="0.5" stroke="blue" points="138.2532661028186,184.00461249971988 171.16982318154538,131.83207710796847 "/><polyline class="polyline" opacity="0.5" stroke="blue" points="139.02872330286803,183.61821306960704 172.1391595642209,132.0596585385104 "/><polyline class="polyline" opacity="0.5" stroke="blue" points="139.83707937749966,183.23771297752612 173.10547557620654,132.3065577756277 "/><polyline class="polyline" opacity="0.5" stroke="blue" points="140.67812986547233,182.86336620134273 174.06776891844834,132.57250775935918 "/><polyline class="polyline" opacity="0.5" stroke="blue" points="141.55164462167556,182.4954258883679 175.025058369614,132.8572262004902 "/><polyline class="polyline" opacity="0.5" stroke="blue" points="142.45736748134024,182.13414407547918 175.97638517221162,133.16041625828208 "/><polyline class="polyline" opacity="0.5" stroke="blue" points="143.39501595627544,181.77977140269905 176.9208143519514,133.4817672422042 "/><polyline class="polyline" opacity="0.5" stroke="blue" points="144.36428096492494,181.43255682067812 177.8574359674669,133.82095533509528 "/><polyline class="polyline" opacity="0.5" stroke="blue" points="145.3648265980005,181.09274729256623 178.7853662878625,134.17764433514716 "/><polyline class="polyline" opacity="0.5" stroke="blue" points="146.39628992140075,180.76058749078928 179.70374889589846,134.55148641408135 "/><polyline class="polyline" opacity="0.5" stroke="blue" points="147.45828081806974,180.43631948928464 180.61175571497967,134.94212288888548 "/><polyline class="polyline" opacity="0.5" stroke="blue" points="148.55038187038593,180.12018245178095 181.5085879584651,135.3491850044828 "/><polyline class="polyline" opacity="0.5" stroke="blue" points="149.67214828459575,179.8124123167419 182.39347700016316,135.77229472473124 "/><polyline class="polyline" opacity="0.5" stroke="blue" points="150.82310785872852,179.51324147962356 183.26568516522437,136.21106552918218 "/><polyline class="polyline" opacity="0.5" stroke="blue" points="152.002760995333,179.2228984731258 184.12450644097822,136.66510321307533 "/><polyline class="polyline" opacity="0.5" stroke="blue" points="153.21058076028086,178.9416076461459 184.96926710759283,137.13400668810706 "/><polyline class="polyline" opacity="0.5" stroke="blue" points="154.44601298876995,178.66958884216922 185.79932628875065,137.61736878157564 "/><polyline class="polyline" opacity="0.5" stroke="blue" points="155.70847643954608,178.40705707785528 186.61407642284283,138.11477703158846 "/><polyline class="polyline" opacity="0.5" stroke="blue" points="156.99736299823422,178.1542222226007 187.41294365547373,138.62581447610296 "/><polyline class="polyline" opacity="0.5" stroke="blue" points="158.31203793054033,177.91128867987806 188.19538815434657,139.15006043366955 "/><polyline class="polyline" opacity="0.5" stroke="blue" points="159.6518401859412,177.67845507116837 188.96090434785867,139.68709127384886 "/><polyline class="polyline" opacity="0.5" stroke="blue" points="161.01608275233556,177.45591392331687 189.70902108898068,140.2364811753834 "/><polyline class="polyline" opacity="0.5" stroke="blue" points="162.4040530619738,177.24385136015377 190.43930174621636,140.7978028703206 "/><polyline class="polyline" opacity="0.5" stroke="blue" points="163.8150134488254,177.04244679922863 191.15134422364673,141.3706283724008 "/><polyline class="polyline" opacity="0.5" stroke="blue" points="165.24820165737898,176.85187265451097 191.84478091224963,141.95452968814777 "/><polyline class="polyline" opacity="0.5" stroke="blue" points="166.70283140269922,176.67229404591106 192.5192785748505,142.54907950922262 "/><polyline class="polyline" opacity="0.5" stroke="blue" points="168.17809298139434,176.50386851647102 193.1745381672103,143.15385188472854 "/><polyline class="polyline" opacity="0.5" stroke="blue" points="169.67315393297025,176.34674575807077 193.81029459788255,143.76842287227993 "/><polyline class="polyline" opacity="0.5" stroke="blue" points="171.18715975087238,176.20106734648226 194.4263164295796,144.3923711667765 "/><polyline class="polyline" opacity="0.5" stroke="blue" points="172.71923464233424,176.0669664865916 195.0224055248785,145.02527870594707 "/><polyline class="polyline" opacity="0.5" stroke="blue" points="174.26848233597667,175.94456776859099 195.59839663916568,145.66673125185312 "/><polyline class="polyline" opacity="0.5" stroke="blue" points="175.83398693592014,175.83398693592014 196.15415696377275,146.31631894766159 "/><polyline class="polyline" opacity="0.5" stroke="blue" points="177.41481382099852,175.7353306657122 196.6895856222901,146.9736368491164 "/><polyline class="polyline" opacity="0.5" stroke="blue" points="179.01001058748798,175.64869636246897 197.2046131230625,147.638285430251 "/><polyline class="polyline" opacity="0.5" stroke="blue" points="180.6186080335941,175.57417196565828 197.69920077087232,148.30987106299744 "/><polyline class="polyline" opacity="0.5" stroke="blue" points="182.23962118377577,175.5118357718896 198.17334004080433,148.9880064704509 "/><polyline class="polyline" opacity="0.5" stroke="blue" points="183.87205035082545,175.46175627228425 198.62705191725635,149.67231115365263 "/><polyline class="polyline" opacity="0.5" stroke="blue" points="185.51488223346922,175.42399200561348 199.0603862010212,150.36241179184816 "/><polyline class="polyline" opacity="0.5" stroke="blue" points="187.16709104710776,175.39859142773204 199.47342078731174,151.05794261627074 "/><polyline class="polyline" opacity="0.5" stroke="blue" points="188.82763968518083,175.38559279778516 199.86626091753723,151.75854575758308 "/><polyline class="polyline" opacity="0.5" stroke="blue" points="190.49548090850806,175.38502408161625 200.23903840756498,152.4638715671913 "/><polyline class="polyline" opacity="0.5" stroke="blue" points="192.1695585598456,175.3969028727477 200.5919108551191,153.1735789127183 "/><polyline class="polyline" opacity="0.5" stroke="blue" points="193.8488088007846,175.42123633125186 200.9250608288757,153.8873354479906 "/><polyline class="polyline" opacity="0.5" stroke="blue" points="195.5321613680294,175.45802114077094 201.23869504171782,154.6048178579556 "/><polyline class="polyline" opacity="0.5" stroke="blue" points="197.21854084600199,175.50724348388496 201.53304351050778,155.32571207900082 "/><polyline class="polyline" opacity="0.5" stroke="blue" points="198.9068679526568,175.56887903596675 201.80835870462724,156.04971349519835 "/><polyline class="polyline" opacity="0.5" stroke="blue" points="200.59606083532393,175.64289297760027 202.06491468542117,156.77652711103872 "/><polyline class="polyline" opacity="0.5" stroke="blue" points="202.28503637336271,175.7292400255781 202.30300623856706,157.50586770126154 "/><polyline class="polyline" opacity="0.5" stroke="blue" points="203.97271148437045,175.82786448242913 202.52294800127146,158.2374599384193 "/><polyline class="polyline" opacity="0.5" stroke="blue" points="205.65800443068028,175.9387003043671 202.7250735860772,158.9710384988411 "/><polyline class="polyline" opacity="0.5" stroke="blue" points="207.33983612287602,176.06167118748743 202.90973470294384,159.7063481476851 "/><polyline class="polyline" opacity="0.5" stroke="blue" points="209.01713141706622,176.1966906719792 203.07730028114355,160.44314380378665 "/><polyline class="polyline" opacity="0.5" stroke="blue" points="210.68882040268568,176.34366226405868 203.22815559239635,161.1811905850234 "/><polyline class="polyline" opacity="0.5" stroke="blue" points="212.35383967763002,176.50247957527168 203.36270137654867,161.92026383492532 "/><polyline class="polyline" opacity="0.5" stroke="blue" points="214.01113360758708,176.67302647875636 203.48135297098563,162.66014913126764 "/><polyline class="polyline" opacity="0.5" stroke="blue" points="215.6596555664908,176.85517728200108 203.5845394448515,163.40064227737935 "/><polyline class="polyline" opacity="0.5" stroke="blue" points="217.29836915510734,177.048796915581 203.6727027390445,164.14154927690484 "/><polyline class="polyline" opacity="0.5" stroke="blue" points="218.92624939485185,177.25374113730584 203.74629681284378,164.88268629274495 "/><polyline class="polyline" opacity="0.5" stroke="blue" points="220.54228389404176,177.46985675116463 203.8057867979233,165.62387959089978 "/><polyline class="polyline" opacity="0.5" stroke="blue" points="222.1454739839026,177.69698184040814 203.85164816040933,166.36496546992106 "/><polyline class="polyline" opacity="0.5" stroke="blue" points="223.7348358217736,177.93494601406974 203.88436587154254,167.10579017667197 "/><polyline class="polyline" opacity="0.5" stroke="blue" points="225.30940145908937,178.18357066618688 203.90443358741697,167.84620980907317 "/><polyline class="polyline" opacity="0.5" stroke="blue" points="226.8682198718626,178.4426692469521 203.91235283818258,168.58609020649928 "/><polyline class="polyline" opacity="0.5" stroke="blue" points="228.4103579515401,178.71204754499124 203.9086322270188,169.3253068284691 "/><polyline class="polyline" opacity="0.5" stroke="blue" points="229.93490145426603,178.99150397994174 203.89378663911273,170.06374462225392 "/><polyline class="polyline" opacity="0.5" stroke="blue" points="231.44095590674894,179.28082990447933 203.8683364608053,170.8012978800045 "/><polyline class="polyline" opacity="0.5" stroke="blue" points="232.9276474670985,179.5798099149242 203.83280680900714,171.53787008597735 "/><polyline class="polyline" opacity="0.5" stroke="blue" points="234.3941237391731,179.8882221695433 203.78772677092684,172.27337375441567 "/><polyline class="polyline" opacity="0.5" stroke="blue" points="235.83955453915274,180.20583871365304 203.73362865410226,173.0077302586177 "/><polyline class="polyline" opacity="0.5" stroke="blue" points="237.26313261323438,180.53242581062264 203.67104724667982,173.7408696517008 "/><polyline class="polyline" opacity="0.5" stroke="blue" points="238.6640743055217,180.86774427787287 203.60051908784453,174.47273047954488 "/><polyline class="polyline" opacity="0.5" stroke="blue" points="240.04162017536592,181.21154982696874 203.5225817482693,175.20325958637676 "/><polyline class="polyline" opacity="0.5" stroke="blue" points="241.39503556358872,181.5635934069064 203.43777312042127,175.93241191342986 "/><polyline class="polyline" opacity="0.5" stroke="blue" points="242.72361110719874,181.92362154970658 203.3466307185394,176.66015029109371 "/><polyline class="polyline" opacity="0.5" stroke="blue" points="244.0266632023857,182.29137671743513 203.24969098807776,177.3864452249421 "/><polyline class="polyline" opacity="0.5" stroke="blue" points="245.30353441574835,182.66659764978934 203.14748862439595,178.11127467600818 "/><polyline class="polyline" opacity="0.5" stroke="blue" points="246.55359384387904,183.0490197114056 203.040555900469,178.83462383565208 "/><polyline class="polyline" opacity="0.5" stroke="blue" points="247.77623742158949,183.4383752380656 202.9294220033862,179.55648489534718 "/><polyline class="polyline" opacity="0.5" stroke="blue" points="248.97088817921826,183.83439388100248 202.81461237940897,180.2768568116902 "/><polyline class="polyline" opacity="0.5" stroke="blue" points="250.1369964496126,184.2368029485356 202.69664808736513,180.99574506692375 "/><polyline class="polyline" opacity="0.5" stroke="blue" points="251.27404002551714,184.64532774429014 202.5760451601669,181.71316142524012 "/><polyline class="polyline" opacity="0.5" stroke="blue" points="252.38152426824118,185.05969190129048 202.45331397425585,182.42912368512145 "/><polyline class="polyline" opacity="0.5" stroke="blue" points="253.45898216860303,185.47961771124872 202.32895862679706,183.14365542795528 "/><polyline class="polyline" opacity="0.5" stroke="blue" points="254.50597436126975,185.90482644840372 202.20347632046938,183.8567857631511 "/><polyline class="polyline" opacity="0.5" stroke="blue" points="255.52208909372337,186.33503868730392 202.07735675572516,184.56854906997268 "/><polyline class="polyline" opacity="0.5" stroke="blue" points="256.5069421511871,186.769974613962 201.95108153042526,185.27898473628895 "/><polyline class="polyline" opacity="0.5" stroke="blue" points="257.4601767389401,187.20935432985073 201.82512354678906,185.98813689443872 "/><polyline class="polyline" opacity="0.5" stroke="blue" points="258.3814633235324,187.65289814824524 201.69994642563796,186.69605415439585 "/><polyline class="polyline" opacity="0.5" stroke="blue" points="259.27049943449265,188.10032688245948 201.57600392795166,187.4027893344163 "/><polyline class="polyline" opacity="0.5" stroke="blue" points="260.12700942818265,188.55136212556175 201.4537393838008,188.1083991893438 "/><polyline class="polyline" opacity="0.5" stroke="blue" points="260.9507442155161,189.00572652119672 201.33358512876544,188.81294413674823 "/><polyline class="polyline" opacity="0.5" stroke="blue" points="261.74148095530524,189.46314402517865 201.21596194799855,189.51648798106925 "/><polyline class="polyline" opacity="0.5" stroke="blue" points="262.4990227150418,189.92334015756254 201.10127852814392,190.21909763593797 "/><polyline class="polyline" opacity="0.5" stroke="blue" points="263.22319810094973,190.38604224493704 200.98993091737012,190.92084284485165 "/><polyline class="polyline" opacity="0.5" stroke="blue" points="263.91386085917134,190.85097965272263 200.88230199383773,191.62179590037826 "/><polyline class="polyline" opacity="0.5" stroke="blue" points="264.57088944996553,191.31788400729604 200.7787609429696,192.32203136207448 "/><polyline class="polyline" opacity="0.5" stroke="blue" points="265.1941865968025,191.78648940779814 200.67966274395258,193.02162577330392 "/><polyline class="polyline" opacity="0.5" stroke="blue" points="265.78367881224375,192.25653262751925 200.5853476659538,193.72065737715226 "/><polyline class="polyline" opacity="0.5" stroke="blue" points="266.33931590248545,192.72775330478925 200.49614077459134,194.41920583164242 "/><polyline class="polyline" opacity="0.5" stroke="blue" points="266.86107045243534,193.1998941233342 200.41235144925645,195.11735192446386 "/><polyline class="polyline" opacity="0.5" stroke="blue" points="267.3489372931695,193.6727009820924 200.33427291193908,195.8151772874401 "/><polyline class="polyline" opacity="0.5" stroke="blue" points="267.8029329535932,194.145923154514 200.26218176826407,196.51276411097098 "/><polyline class="polyline" opacity="0.5" stroke="blue" points="268.2230950980986,194.61931343739627 200.1963375614982,197.21019485869792 "/><polyline class="polyline" opacity="0.5" stroke="blue" points="268.60948195197716,195.0926282893355 200.136982340341,197.9075519826553 "/><polyline class="polyline" opacity="0.5" stroke="blue" points="268.96217171630167,195.56562795890113 200.08434024136076,198.6049176391832 "/><polyline class="polyline" opacity="0.5" stroke="blue" points="269.28126197395363,196.03807660266267 200.0386170869852,199.30237340589437 "/><polyline class="polyline" opacity="0.5" stroke="blue" points="269.5668690884181,196.5097423932223 200.0,200.0 "/><polyline class="polyline" opacity="0.5" stroke="blue" points="269.81912759692085,196.98039761742697 199.96865703554968,200.69787699831755 "/><polyline class="polyline" opacity="0.5" stroke="blue" points="270.03818959942527,197.44981876495373 199.94473683167192,201.39608255929798 "/><polyline class="polyline" opacity="0.5" stroke="blue" points="270.2242241449518,197.91778660747804 199.92836827943012,202.09469314742466 "/><polyline class="polyline" opacity="0.5" stroke="blue" points="270.3774166166226,198.38408626865333 199.91966021373753,202.7937832603544 "/><polyline class="polyline" opacity="0.5" stroke="blue" points="270.49796811677317,198.84850728514212 199.91870112598883,203.4934251591833 "/><polyline class="polyline" opacity="0.5" stroke="blue" points="270.5860948534109,199.3108436589532 199.9255588996352,204.19368860223787 "/><polyline class="polyline" opacity="0.5" stroke="blue" points="270.64202752923694,199.77089390135035 199.9402805698503,204.89464058280342 "/><polyline class="polyline" opacity="0.5" stroke="blue" points="270.66601073438505,200.2284610686081 199.96289210844154,205.59634507121788 "/><polyline class="polyline" opacity="0.5" stroke="blue" points="270.6583023439631,200.6833527898977 199.993398235162,206.29886276176964 "/><polyline class="polyline" opacity="0.5" stroke="blue" points="270.61917292142493,201.13538128759447 200.03178225657203,207.00225082485102 "/><polyline class="polyline" opacity="0.5" stroke="blue" points="270.5489051287275,201.5843633903027 200.07800593358584,207.7065626648285 "/><polyline class="polyline" opacity="0.5" stroke="blue" points="270.4477931441727,202.0301205388987 200.1320093788195,208.4118476841002 "/><polyline class="polyline" opacity="0.5" stroke="blue" points="270.3161420887636,202.47247878589596 200.1937109848284,209.11815105381746 "/><polyline class="polyline" opacity="0.5" stroke="blue" points="270.15426746184653,202.9112687884384 200.26300738428765,209.82551349175483 "/><polyline class="polyline" opacity="0.5" stroke="blue" points="269.96249458674595,203.34632579522838 200.33977344312643,210.53397104781416 "/><polyline class="polyline" opacity="0.5" stroke="blue" points="269.74115806704225,203.77748962769599 200.42386228757735,211.2435548976519 "/><polyline class="polyline" opacity="0.5" stroke="blue" points="269.4906012540815,204.204604655716 200.51510536604326,211.95429114491805 "/><polyline class="polyline" opacity="0.5" stroke="blue" points="269.21117572624985,204.62751976817515 200.61331254661974,212.66620063259145 "/><polyline class="polyline" opacity="0.5" stroke="blue" points="268.9032407804895,205.04608833869176 200.71827225103664,213.37929876389293 "/><polyline class="polyline" opacity="0.5" stroke="blue" points="268.567162936481,205.4601681867841 200.82975162570307,214.09359533324775 "/><polyline class="polyline" opacity="0.5" stroke="blue" points="268.20331545386233,205.86962153478174 200.9474967504513,214.80909436776196 "/><polyline class="polyline" opacity="0.5" stroke="blue" points="267.81207786280766,206.27431496076733 201.07123288548007,215.52579397966127 "/><polyline class="polyline" opacity="0.5" stroke="blue" points="267.39383550823965,206.67411934783235 201.20066475689694,216.2436862301286 "/><polyline class="polyline" opacity="0.5" stroke="blue" points="266.9489791079032,207.06890982992346 201.33547688114984,216.96275700495593 "/><polyline class="polyline" opacity="0.5" stroke="blue" points="266.4779043244862,207.4585657345506 201.47533392852546,217.68298590240812 "/><polyline class="polyline" opacity="0.5" stroke="blue" points="265.98101135192985,207.8429705226197 201.619881125771,218.40434613366978 "/><polyline class="polyline" opacity="0.5" stroke="blue" points="265.458704516032,208.22201172564792 201.76874469777266,219.12680443622338 "/><polyline class="polyline" opacity="0.5" stroke="blue" points="264.91139188941054,208.59558088060965 201.92153234809427,219.85032100047536 "/><polyline class="polyline" opacity="0.5" stroke="blue" points="264.3394849208568,208.96357346265546 202.07783377804753,220.57484940991804 "/><polyline class="polyline" opacity="0.5" stroke="blue" points="263.7433980790791,209.32588881593767 202.23722124382974,221.30033659507978 "/><polyline class="polyline" opacity="0.5" stroke="blue" points="263.1235485108003,209.68243008276778 202.39925015112587,222.02672280148028 "/><polyline class="polyline" opacity="0.5" stroke="blue" points="262.48035571315023,210.03310413132408 202.56345968643447,222.75394157177104 "/><polyline class="polyline" opacity="0.5" stroke="blue" points="261.81424122026255,210.37782148211795 202.72937348423415,223.48191974219802 "/><polyline class="polyline" opacity="0.5" stroke="blue" points="261.12562830396166,210.71649623342063 202.89650032896984,224.21057745348423 "/><polyline class="polyline" opacity="0.5" stroke="blue" points="260.414941688403,211.04904598584247 203.0643348906968,224.93982817618408 "/><polyline class="polyline" opacity="0.5" stroke="blue" points="259.6826072785083,211.37539176624995 203.23235849308506,225.66957875051793 "/><polyline class="polyline" opacity="0.5" stroke="blue" points="258.9290519020167,211.69545795119595 203.40003991235073,226.39972944064633 "/><polyline class="polyline" opacity="0.5" stroke="blue" points="258.1547030649563,212.00917219003225 203.56683620555177,227.13017400329926 "/><polyline class="polyline" opacity="0.5" stroke="blue" points="257.35998872032496,212.31646532786354 203.73219356655736,227.86079977062408 "/><polyline class="polyline" opacity="0.5" stroke="blue" points="256.545337049751,212.6172713284958 203.89554820788143,228.5914877470702 "/><polyline class="polyline" opacity="0.5" stroke="blue" points="255.71117625789793,212.9115271975229 204.05632726645428,229.32211272007754 "/><polyline class="polyline" opacity="0.5" stroke="blue" points="254.85793437935763,213.19917290568867 204.21394973129998,230.0525433842891 "/><polyline class="polyline" opacity="0.5" stroke="blue" points="253.98603909777435,213.4801513126532 204.36782739098703,230.78264247895737 "/><polyline class="polyline" opacity="0.5" stroke="blue" points="253.09591757692598,213.75440809128582 204.51736579862853,231.51226693817006 "/><polyline class="polyline" opacity="0.5" stroke="blue" points="252.18799630348684,214.02189165259963 204.66196525212678,232.2412680534707 "/><polyline class="polyline" opacity="0.5" stroke="blue" points="251.2627009411859,214.2825530714351 204.80102178728467,232.96949164840635 "/><polyline class="polyline" opacity="0.5" stroke="blue" points="250.32045619607118,214.53634601299495 204.93392818134518,233.69677826449217 "/><polyline class="polyline" opacity="0.5" stroke="blue" points="249.3616856925866,214.78322666032457 205.06007496446972,234.42296335803718 "/><polyline class="polyline" opacity="0.5" stroke="blue" points="248.386811860162,215.02315364282683 205.17885143662699,235.1478775072407 "/><polyline class="polyline" opacity="0.5" stroke="blue" points="247.3962558300185,215.2560879658941 205.2896466873365,235.8713466289271 "/><polyline class="polyline" opacity="0.5" stroke="blue" points="246.39043734188562,215.48199294173446 205.39185061569572,236.59319220425652 "/><polyline class="polyline" opacity="0.5" stroke="blue" points="245.36977466032874,215.700834121463 205.48485494811652,237.3132315127129 "/><polyline class="polyline" opacity="0.5" stroke="blue" points="244.33468450038364,215.91257922852495 205.5680542512054,238.03127787364653 "/><polyline class="polyline" opacity="0.5" stroke="blue" points="243.28558196219674,216.1171980935111 205.640846937244,238.7471408946194 "/><polyline class="polyline" opacity="0.5" stroke="blue" points="242.22288047436888,216.31466259042205 205.70263625975818,239.46062672578185 "/><polyline class="polyline" opacity="0.5" stroke="blue" points="241.1469917457048,216.50494657443258 205.75283129671163,240.17153831948923 "/><polyline class="polyline" opacity="0.5" stroke="blue" points="240.0583257250695,216.68802582120355 205.7908479189147,240.87967569435423 "/><polyline class="polyline" opacity="0.5" stroke="blue" points="238.95729056905878,216.8638779677841 205.81610974130894,241.5848362029173 "/><polyline class="polyline" opacity="0.5" stroke="blue" points="237.84429261719077,217.0324824551434 205.82804905486674,242.28681480211185 "/><polyline class="polyline" opacity="0.5" stroke="blue" points="236.71973637433143,217.19382047236735 205.826107736935,242.9854043256978 "/><polyline class="polyline" opacity="0.5" stroke="blue" points="235.58402450006872,217.34787490255184 205.80973813795103,243.68039575783533 "/><polyline class="polyline" opacity="0.5" stroke="blue" points="234.43755780475544,217.49463027042128 205.77840394256788,244.3715785069778 "/><polyline class="polyline" opacity="0.5" stroke="blue" points="233.28073525194404,217.6340726916979 205.73158100334322,245.05874067926754 "/><polyline class="polyline" opacity="0.5" stroke="blue" points="232.11395396694084,217.76618982424395 205.66875814527035,245.7416693506331 "/><polyline class="polyline" opacity="0.5" stroke="blue" points="230.937609251213,217.89097082099718 205.58943793956138,246.42015083679797 "/><polyline class="polyline" opacity="0.5" stroke="blue" points="229.75209460238347,218.0084062847161 205.49313744523133,247.09397096043307 "/><polyline class="polyline" opacity="0.5" stroke="blue" points="228.5578017395579,218.11848822455065 205.37938891717252,247.7629153147035 "/><polyline class="polyline" opacity="0.5" stroke="blue" points="227.35512063372667,218.22121001445018 205.24774047955822,248.4267695224878 "/><polyline class="polyline" opacity="0.5" stroke="blue" points="226.14443954299622,218.31656635341997 205.0977567635624,249.0853194905738 "/><polyline class="polyline" opacity="0.5" stroke="blue" points="224.92614505240272,218.4045532276347 204.9290195085371,249.7383516581666 "/><polyline class="polyline" opacity="0.5" stroke="blue" points="223.70062211807036,218.48516787441574 204.74112812594169,250.38565323907673 "/><polyline class="polyline" opacity="0.5" stroke="blue" points="222.46825411547795,218.5584087480779 204.53370022547458,251.0270124569914 "/><polyline class="polyline" opacity="0.5" stroke="blue" points="221.22942289160454,218.6242754876494 204.30637210301077,251.66221877327 "/><polyline class="polyline" opacity="0.5" stroke="blue" points="219.9845088207274,218.68276888646744 204.0587991901041,252.29106310674229 "/><polyline class="polyline" opacity="0.5" stroke="blue" points="218.73389086365083,218.73389086365083 203.7906564649622,252.91333804502958 "/><polyline class="polyline" opacity="0.5" stroke="blue" points="217.4779466301493,218.77764443745002 203.50163882495278,253.52883804694972 "/><polyline class="polyline" opacity="0.5" stroke="blue" points="216.21705244440957,218.8140337004735 203.19146142084332,254.13735963560995 "/><polyline class="polyline" opacity="0.5" stroke="blue" points="214.95158341326592,218.84306379678836 202.85985995311842,254.73870158183462 "/><polyline class="polyline" opacity="0.5" stroke="blue" points="213.68191349701857,218.86474090089368 202.5065909308535,255.33266507761812 "/><polyline class="polyline" opacity="0.5" stroke="blue" points="212.40841558263722,218.8790721985619 202.1314318937553,255.91905389933828 "/><polyline class="polyline" opacity="0.5" stroke="blue" points="211.13146155914774,218.88606586954523 201.73418159810254,256.49767456050864 "/><polyline class="polyline" opacity="0.5" stroke="blue" points="209.85142239500897,218.88573107214214 201.3146601674391,257.068336453891 "/><polyline class="polyline" opacity="0.5" stroke="blue" points="208.5686682172851,218.87807792961843 200.87270920898163,257.63085198283414 "/><polyline class="polyline" opacity="0.5" stroke="blue" points="207.28356839242437,218.86311751847796 200.40819189680803,258.1850366817465 "/><polyline class="polyline" opacity="0.5" stroke="blue" points="205.99649160845695,218.84086185857618 199.92099302298766,258.7307093256507 "/><polyline class="polyline" opacity="0.5" stroke="blue" points="204.70780595842524,218.81132390507054 199.41101901790302,259.26769202881036 "/><polyline class="polyline" opacity="0.5" stroke="blue" points="203.41787902486553,218.77451754220056 198.87819794109268,259.7958103324574 "/><polyline class="polyline" opacity="0.5" stroke="blue" points="202.1270779651567,218.73045757889054 198.32247944401496,260.3148932816859 "/><polyline class="polyline" opacity="0.5" stroke="blue" points="200.83576959755712,218.6791597461675 197.74383470619736,260.82477349161576 "/><polyline class="polyline" opacity="0.5" stroke="blue" points="199.54432048775135,218.62064069638635 197.14225634629122,261.3252872029612 "/><polyline class="polyline" opacity="0.5" stroke="blue" points="198.25309703572663,218.55491800425435 196.51775830959673,261.8162743271768 "/><polyline class="polyline" opacity="0.5" stroke="blue" points="196.96246556280332,218.48201016964651 195.87037573366416,262.2975784813788 "/><polyline class="polyline" opacity="0.5" stroke="blue" points="195.67279239864078,218.4019366222033 195.2001647936064,262.7690470132734 "/><polyline class="polyline" opacity="0.5" stroke="blue" points="194.3844439680435,218.31471772770155 194.50720252878236,263.23053101634764 "/><polyline class="polyline" opacity="0.5" stroke="blue" points="193.09778687738842,218.22037479618987 193.79158665252476,263.68188533560567 "/><polyline class="polyline" opacity="0.5" stroke="blue" points="191.81318800049684,218.11893009187827 193.05343534659545,264.1229685641539 "/><polyline class="polyline" opacity="0.5" stroke="blue" points="190.53101456377243,218.01040684477266 192.2928870420512,264.5536430309627 "/><polyline class="polyline" opacity="0.5" stroke="blue" points="189.25163423042662,217.8948292640439 191.5101001881996,264.97377478014766 "/><polyline class="polyline" opacity="0.5" stroke="blue" points="187.97541518361007,217.77222255312034 190.7052530113094,265.3832335421343 "/><polyline class="polyline" opacity="0.5" stroke="blue" points="186.7027262082688,217.6426129264931 189.87854326472558,265.7818926970813 "/><polyline class="polyline" opacity="0.5" stroke="blue" points="185.43393677154103,217.50602762822203 189.03018797201227,266.16962923095434 "/><polyline class="polyline" opacity="0.5" stroke="blue" points="184.1694171015102,217.3624949521308 188.16042316472138,266.54632368465127 "/><polyline class="polyline" opacity="0.5" stroke="blue" points="182.90953826412462,217.212044263677 187.26950361634755,266.91186009658855 "/><polyline class="polyline" opacity="0.5" stroke="blue" points="181.6546722380945,217.05470602348504 186.35770257399378,267.2661259391708 "/><polyline class="polyline" opacity="0.5" stroke="blue" points="180.4051919875739,216.89051181252663 185.42531148923086,267.6090120495653 "/><polyline class="polyline" opacity="0.5" stroke="blue" points="179.1614715324303,216.71949435893387 184.47263974958352,267.9404125552136 "/><polyline class="polyline" opacity="0.5" stroke="blue" points="177.92388601590434,216.54168756642878 183.50001441203125,268.26022479451245 "/><polyline class="polyline" opacity="0.5" stroke="blue" points="176.69281176945557,216.35712654435213 182.50777993985582,268.5683492330987 "/><polyline class="polyline" opacity="0.5" stroke="blue" points="175.46862637459125,216.1658476392733 181.49629794411481,268.8646893761738 "/><polyline class="polyline" opacity="0.5" stroke="blue" points="174.2517087214656,215.96788846816148 180.46594693095977,269.14915167730334 "/><polyline class="polyline" opacity="0.5" stroke="blue" points="173.04243906403855,215.7632879530976 179.4171220559614,269.4216454441242 "/><polyline class="polyline" opacity="0.5" stroke="blue" points="171.8411990715748,215.55208635750415 178.35023488653962,269.6820827413906 "/><polyline class="polyline" opacity="0.5" stroke="blue" points="170.64837187626435,215.3343253238698 177.26571317353645,269.9303782917866 "/><polyline class="polyline" opacity="0.5" stroke="blue" points="169.4643421167358,215.1100479129424 176.16400063290223,270.16644937492777 "/><polyline class="polyline" opacity="0.5" stroke="blue" points="168.28949597723425,214.87929864436356 175.04555673840343,270.39021572497177 "/><polyline class="polyline" opacity="0.5" stroke="blue" points="167.1242212222299,214.642123538715 173.9108565261937,270.60159942724977 "/><polyline class="polyline" opacity="0.5" stroke="blue" points="165.96890722621634,214.39857016094564 172.76039041202165,270.8005248143279 "/><polyline class="polyline" opacity="0.5" stroke="blue" points="164.82394499845765,214.1486876651452 171.59466402178515,270.98691836189914 "/><polyline class="polyline" opacity="0.5" stroke="blue" points="163.689727202434,213.8925268406285 170.41419803607087,271.16070858490195 "/><polyline class="polyline" opacity="0.5" stroke="blue" points="162.5666481697358,213.63014015929204 169.21952804925573,271.32182593425347 "/><polyline class="polyline" opacity="0.5" stroke="blue" points="161.45510390814772,213.36158182420073 168.01120444367325,271.4702026945819 "/><polyline class="polyline" opacity="0.5" stroke="blue" points="160.35549210366213,213.08690781936141 166.78979227928605,271.60577288333116 "/><polyline class="polyline" opacity="0.5" stroke="blue" points="159.26821211615606,212.8061759606352 165.5558711992344,271.72847215161 "/><polyline class="polyline" opacity="0.5" stroke="blue" points="158.1936649684636,212.51944594773852 164.31003535156708,271.83823768714717 "/><polyline class="polyline" opacity="0.5" stroke="blue" points="157.1322533285674,212.22677941727898 163.05289332738968,271.9350081197112 "/><polyline class="polyline" opacity="0.5" stroke="blue" points="156.0843814846352,211.92823999676844 161.7850681156013,272.01872342934513 "/><polyline class="polyline" opacity="0.5" stroke="blue" points="155.0504553126174,211.62389335955226 160.50719707432188,272.0893248577636 "/><polyline class="polyline" opacity="0.5" stroke="blue" points="154.03088223612485,211.3138072805898 159.21993191904713,272.14675482325197 "/><polyline class="polyline" opacity="0.5" stroke="blue" points="153.02607117829734,210.99805169301683 157.9239387274969,272.19095683940515 "/><polyline class="polyline" opacity="0.5" stroke="blue" points="152.03643250537448,210.67669874541636 156.61989796105894,272.2218754380377 "/><polyline class="polyline" opacity="0.5" stroke="blue" points="151.06237796167864,210.34982285972052 155.30850450266112,272.23945609659376 "/><polyline class="polyline" opacity="0.5" stroke="blue" points="150.10432059571457,210.01750078966037 153.99046771083397,272.24364517038214 "/><polyline class="polyline" opacity="0.5" stroke="blue" points="149.16267467709383,209.67981167967685 152.66651148966042,272.23438982996 "/><polyline class="polyline" opacity="0.5" stroke="blue" points="148.23785560398773,209.33683712420023 151.33737437423557,272.21163800398483 "/><polyline class="polyline" opacity="0.5" stroke="blue" points="147.3302798008162,208.98866122720128 150.00380963119238,272.1753383278538 "/><polyline class="polyline" opacity="0.5" stroke="blue" points="146.44036460587722,208.63537066191046 148.66658537377288,272.12544009844936 "/><polyline class="polyline" opacity="0.5" stroke="blue" points="145.5685281486259,208.27705473059814 147.3264846908536,272.0618932353073 "/><polyline class="polyline" opacity="0.5" stroke="blue" points="144.71518921631292,207.91380542430102 145.98430578925797,271.9846482485267 "/><polyline class="polyline" opacity="0.5" stroke="blue" points="143.8807671096977,207.54571748237598 144.64086214861237,271.8936562137376 "/><polyline class="polyline" opacity="0.5" stroke="blue" points="143.06568148755127,207.17288845175537 143.2969826879208,271.7888687544477 "/><polyline class="polyline" opacity="0.5" stroke="blue" points="142.27035219967536,206.79541874577282 141.9535119429556,271.6702380320877 "/><polyline class="polyline" opacity="0.5" stroke="blue" points="141.49519910816406,206.4134117024212 140.61131025347498,271.53771674407744 "/><polyline class="polyline" opacity="0.5" stroke="blue" points="140.74064189664796,206.0269736419 139.2712539591945,271.39125813023935 "/><polyline class="polyline" opacity="0.5" stroke="blue" points="140.00709986726346,205.63621392330109 137.93423560334674,271.2308159878847 "/><polyline class="polyline" opacity="0.5" stroke="blue" points="139.29499172510435,205.2412450002765 136.60116414257442,271.0563446959041 "/><polyline class="polyline" opacity="0.5" stroke="blue" points="138.60473534992238,204.84218247552622 135.27296516180607,270.867799248195 "/><polyline class="polyline" opacity="0.5" stroke="blue" points="137.93674755485534,204.4391451539353 133.95058109266108,270.6651352967625 "/><polyline class="polyline" opacity="0.5" stroke="blue" points="137.29144383197672,204.03225509418562 132.63497143383267,270.44830920483287 "/><polyline class="polyline" opacity="0.5" stroke="blue" points="136.66923808447592,203.62163765865935 131.32711297178554,270.2172781103212 "/><polyline class="polyline" opacity="0.5" stroke="blue" points="136.0705423452959,203.2074215614463 130.02800000000002,269.972 "/><polyline class="polyline" opacity="0.5" stroke="blue" points="135.49576648207335,202.78973891425943 128.73864453487283,269.7124337947141 "/><polyline class="polyline" opacity="0.5" stroke="blue" points="134.94531788824776,202.36872527005826 127.46007652627134,269.4385394459923 "/><polyline class="polyline" opacity="0.5" stroke="blue" points="134.41960116022784,201.94451966417233 126.19334406060983,269.15027804440615 "/><polyline class="polyline" opacity="0.5" stroke="blue" points="133.91901776052953,201.51726465271267 124.93951355419364,268.8476119400274 "/><polyline class="polyline" opacity="0.5" stroke="blue" points="133.44396566682303,201.08710634805158 123.69966993443826,268.53050487533415 "/><polyline class="polyline" opacity="0.5" stroke="blue" points="132.99483900685817,200.6541944511477 122.47491680643981,268.19892213091674 "/><polyline class="polyline" opacity="0.5" stroke="blue" points="132.57202767926503,200.21868228048618 121.2663766022288,267.85283068432835 "/><polyline class="polyline" opacity="0.5" stroke="blue" points="132.17591696026017,199.780726797401 120.07519070989707,267.492199382424 "/><polyline class="polyline" opacity="0.5" stroke="blue" points="131.80688709632238,199.34048862754037 118.90251957963565,267.11699912752465 "/><polyline class="polyline" opacity="0.5" stroke="blue" points="131.4653128829389,198.89813207823275 117.74954280357234,266.7272030777344 "/><polyline class="polyline" opacity="0.5" stroke="blue" points="131.1515632295612,198.45382515150845 116.61745916614214,266.32278686173026 "/><polyline class="polyline" opacity="0.5" stroke="blue" points="130.86600071094955,198.00773955252677 115.50748666156278,265.9037288083311 "/><polyline class="polyline" opacity="0.5" stroke="blue" points="130.60898110512858,197.5600506931581 114.42086247483141,265.4700101911355 "/><polyline class="polyline" opacity="0.5" stroke="blue" points="130.38085291822117,197.11093769046744 113.35884292249295,265.0216154885036 "/><polyline class="polyline" opacity="0.5" stroke="blue" points="130.18195689647303,196.66058335984548 112.32270334927341,264.55853265913345 "/><polyline class="polyline" opacity="0.5" stroke="blue" points="130.0126255258312,196.2091742025318 111.31373797650204,264.0807534334589 "/><polyline class="polyline" opacity="0.5" stroke="blue" points="129.87318251948847,195.7569003872767 110.33325969809177,263.5882736210665 "/><polyline class="polyline" opacity="0.5" stroke="blue" points="129.76394229385863,195.30395572588733 109.38259981968483,263.08109343429726 "/><polyline class="polyline" opacity="0.5" stroke="blue" points="129.68520943350268,194.85053764240905 108.46310773641615,262.5592178281597 "/><polyline class="polyline" opacity="0.5" stroke="blue" points="129.63727814557978,194.39684713569156 107.57615054459593,262.0226568566392 "/><polyline class="polyline" opacity="0.5" stroke="blue" points="129.6204317044575,193.94308873509806 106.72311258247167,261.47142604544 "/><polyline class="polyline" opacity="0.5" stroke="blue" points="129.6349418871702,193.48947044911694 105.90539489508947,260.905546781145 "/><polyline class="polyline" opacity="0.5" stroke="blue" points="129.68106840047955,193.03620370664495 105.1244146181557,260.3250467167162 "/><polyline class="polyline" opacity="0.5" stroke="blue" points="129.75905830034816,192.58350329071507 104.3816042756815,259.72996019319595 "/><polyline class="polyline" opacity="0.5" stroke="blue" points="129.8691454047015,192.1315872644533 103.67841098609772,259.1203286773948 "/><polyline class="polyline" opacity="0.5" stroke="blue" points="130.01154970041608,191.68067688905745 103.01629557144629,258.4962012152759 "/><polyline class="polyline" opacity="0.5" stroke="blue" points="130.18647674553404,191.23099653360188 102.39673156419313,257.8576349006549 "/><polyline class="polyline" opacity="0.5" stroke="blue" points="130.39411706776923,190.78277357648463 101.82120410616754,257.20469535874645 "/><polyline class="polyline" opacity="0.5" stroke="blue" points="130.63464556043127,190.33623829834772 101.29120873412344,256.53745724398243 "/><polyline class="polyline" opacity="0.5" stroke="blue" points="130.90822087695935,189.89162376631631 100.80825004643226,255.8560047514208 "/><polyline class="polyline" opacity="0.5" stroke="blue" points="131.21498482531894,189.44916570941794 100.37384024546613,255.1604321409447 "/><polyline class="polyline" opacity="0.5" stroke="blue" points="131.5550617635754,189.0091023850628 99.98949755031616,254.45084427332728 "/><polyline class="polyline" opacity="0.5" stroke="blue" points="131.92855799802066,188.57167443648373 99.65674447461423,253.72735715710417 "/><polyline class="polyline" opacity="0.5" stroke="blue" points="132.3355611852853,188.13712474105702 99.37710596439564,252.99009850505357 "/><polyline class="polyline" opacity="0.5" stroke="blue" points="132.7761397399271,187.70569824944528 99.15210739115525,252.23920829893245 "/><polyline class="polyline" opacity="0.5" stroke="blue" points="133.25034224904027,187.2776418155295 98.98327239551779,251.47483936096341 "/><polyline class="polyline" opacity="0.5" stroke="blue" points="133.75819689548098,186.85320401712096 98.87212057726545,250.6971579303982 "/><polyline class="polyline" opacity="0.5" stroke="blue" points="134.29971089135273,186.43263496747014 98.82016502784934,249.90634424331304 "/><polyline class="polyline" opacity="0.5" stroke="blue" points="134.87486992344142,186.0161861176183 98.82890970195723,249.10259311361258 "/><polyline class="polyline" opacity="0.5" stroke="blue" points="135.48363761232832,185.60411004966502 98.8998466252237,248.28611451303314 "/><polyline class="polyline" opacity="0.5" stroke="blue" points="136.1259549869464,185.19666026105614 99.03445293575497,247.45713414774897 "/><polyline class="polyline" opacity="0.5" stroke="blue" points="136.80173997637755,184.79409094002722 99.2341877577993,246.61589402898798 "/><polyline class="polyline" opacity="0.5" stroke="blue" points="137.51088692071266,184.39665673236962 99.5004889066325,245.76265303487008 "/><polyline class="polyline" opacity="0.5" stroke="blue" points="138.2532661028186,184.00461249971988 99.83476942454568,244.89768746048085 "/><polyline class="polyline" opacity="0.5" stroke="blue" points="139.02872330286806,183.61821306960704 100.23841394872248,244.02129155299832 "/><polyline class="polyline" opacity="0.5" stroke="blue" points="139.8370793774997,183.2377129775261 100.7127749127796,243.13377802848984 "/><polyline class="polyline" opacity="0.5" stroke="blue" points="140.67812986547233,182.86336620134273 101.25916858481393,242.235478566808 "/><polyline class="polyline" opacity="0.5" stroke="blue" points="141.55164462167556,182.4954258883679 101.87887094595496,241.32674428082447 "/><polyline class="polyline" opacity="0.5" stroke="blue" points="142.45736748134027,182.13414407547918 102.57311341466145,240.40794615606404 "/><polyline class="polyline" opacity="0.5" stroke="blue" points="143.39501595627542,181.77977140269905 103.34307842332564,239.479475456631 "/><polyline class="polyline" opacity="0.5" stroke="blue" points="144.36428096492494,181.43255682067812 104.18989485514783,238.54174409316624 "/><polyline class="polyline" opacity="0.5" stroke="blue" points="145.36482659800055,181.0927472925662 105.11463335072536,237.5951849484353 "/><polyline class="polyline" opacity="0.5" stroke="blue" points="146.39628992140075,180.76058749078928 106.11830149534583,236.64025215602544 "/><polyline class="polyline" opacity="0.5" stroke="blue" points="147.45828081806974,180.43631948928464 107.20183889958548,235.6774213275349 "/><polyline class="polyline" opacity="0.5" stroke="blue" points="148.5503818703859,180.12018245178095 108.36611218748003,234.70718972356457 "/><polyline class="polyline" opacity="0.5" stroke="blue" points="149.6721482845958,179.8124123167419 109.61190990824092,233.7300763637795 "/><polyline class="polyline" opacity="0.5" stroke="blue" points="150.82310785872858,179.51324147962356 110.93993738923521,232.74662207129606 "/><polyline class="polyline" opacity="0.5" stroke="blue" points="152.00276099533298,179.2228984731258 112.3508115497035,231.75738944667754 "/><polyline class="polyline" opacity="0.5" stroke="blue" points="153.21058076028086,178.9416076461459 113.84505569645484,230.76296276688169 "/><polyline class="polyline" opacity="0.5" stroke="blue" points="154.44601298877,178.66958884216922 115.42309432452555,229.76394780461408 "/><polyline class="polyline" opacity="0.5" stroke="blue" points="155.70847643954613,178.40705707785528 117.08524794750582,228.76097156368675 "/><polyline class="polyline" opacity="0.5" stroke="blue" points="156.99736299823422,178.1542222226007 118.831727983901,227.75468192618655 "/><polyline class="polyline" opacity="0.5" stroke="blue" points="158.31203793054033,177.91128867987808 120.66263172748258,226.74574720750235 "/><polyline class="polyline" opacity="0.5" stroke="blue" points="159.65184018594124,177.67845507116837 122.5779374310743,225.73485561556737 "/><polyline class="polyline" opacity="0.5" stroke="blue" points="161.01608275233554,177.45591392331687 124.57749953458872,224.72271461102503 "/><polyline class="polyline" opacity="0.5" stroke="blue" points="162.4040530619738,177.24385136015377 126.66104406934978,223.7100501654423 "/><polyline class="polyline" opacity="0.5" stroke="blue" points="163.81501344882543,177.04244679922863 128.82816427178233,222.69760591516334 "/><polyline class="polyline" opacity="0.5" stroke="blue" points="165.24820165737904,176.85187265451097 131.0783164404055,221.68614220891678 "/><polyline class="polyline" opacity="0.5" stroke="blue" points="166.70283140269922,176.67229404591106 133.41081607068338,220.67643504787503 "/><polyline class="polyline" opacity="0.5" stroke="blue" points="168.17809298139431,176.50386851647102 135.82483430266726,219.66927491749286 "/><polyline class="polyline" opacity="0.5" stroke="blue" points="169.6731539329703,176.34674575807077 138.31939471645816,218.66546551114155 "/><polyline class="polyline" opacity="0.5" stroke="blue" points="171.18715975087244,176.20106734648223 140.89337051032737,217.66582234628117 "/><polyline class="polyline" opacity="0.5" stroke="blue" points="172.71923464233421,176.0669664865916 143.5454820958122,216.67117127469626 "/><polyline class="polyline" opacity="0.5" stroke="blue" points="174.26848233597664,175.94456776859099 146.2742951432573,215.68234688912824 "/><polyline class="polyline" opacity="0.5" stroke="blue" points="175.83398693592014,175.83398693592014 149.07821911006593,214.7001908294884 "/><polyline class="polyline" opacity="0.5" stroke="blue" points="177.41481382099857,175.7353306657122 151.95550628236379,213.72554999270292 "/><polyline class="polyline" opacity="0.5" stroke="blue" points="179.01001058748795,175.64869636246897 154.9042513588399,212.75927465113168 "/><polyline class="polyline" opacity="0.5" stroke="blue" points="180.61860803359409,175.57417196565828 157.92239160321967,211.80221648539703 "/><polyline class="polyline" opacity="0.5" stroke="blue" points="182.23962118377582,175.5118357718896 161.0077075891422,210.85522653835497 "/><polyline class="polyline" opacity="0.5" stroke="blue" points="183.87205035082542,175.46175627228425 164.15782455817245,209.9191530978216 "/><polyline class="polyline" opacity="0.5" stroke="blue" points="185.5148822334692,175.42399200561348 167.3702144082768,208.99483951652883 "/><polyline class="polyline" opacity="0.5" stroke="blue" points="187.16709104710782,175.39859142773204 170.64219832635598,208.0831219786116 "/><polyline class="polyline" opacity="0.5" stroke="blue" points="188.82763968518086,175.38559279778516 173.97095007439972,207.1848272227059 "/><polyline class="polyline" opacity="0.5" stroke="blue" points="190.49548090850803,175.38502408161625 177.35349993449387,206.3007702324657 "/><polyline class="polyline" opacity="0.5" stroke="blue" points="192.16955855984557,175.3969028727477 180.78673931336158,205.4317519059601 "/><polyline class="polyline" opacity="0.5" stroke="blue" points="193.84880880078467,175.42123633125186 184.26742600234303,204.5785567159931 "/><polyline class="polyline" opacity="0.5" stroke="blue" points="195.53216136802945,175.45802114077094 187.79219008381313,203.74195037387287 "/><polyline class="polyline" opacity="0.5" stroke="blue" points="197.21854084600199,175.507243483885 191.3575404700003,202.92267750955028 "/><polyline class="polyline" opacity="0.5" stroke="blue" points="198.90686795265677,175.56887903596675 194.95987205510673,202.12145938132593 "/><polyline class="polyline" opacity="0.5" stroke="blue" points="200.59606083532395,175.64289297760027 198.59547345655707,201.3389916284927 "/><polyline class="polyline" opacity="0.5" stroke="blue" points="202.28503637336277,175.7292400255781 202.2605353162176,200.5759420803248 "/><polyline class="polyline" opacity="0.5" stroke="blue" points="203.97271148437045,175.82786448242913 205.9511591275542,199.83294863474447 "/><polyline class="polyline" opacity="0.5" stroke="blue" points="205.65800443068036,175.9387003043671 209.66336655003147,199.11061721978663 "/><polyline class="polyline" opacity="0.5" stroke="blue" points="207.33983612287608,176.06167118748743 213.39310916762994,198.40951985064328 "/><polyline class="polyline" opacity="0.5" stroke="blue" points="209.01713141706622,176.19669067197924 217.13627864426206,197.73019279459766 "/><polyline class="polyline" opacity="0.5" stroke="blue" points="210.68882040268565,176.34366226405868 220.88871722512332,197.07313485556296 "/><polyline class="polyline" opacity="0.5" stroke="blue" points="212.35383967763008,176.5024795752717 224.64622852969958,196.43880578922244 "/><polyline class="polyline" opacity="0.5" stroke="blue" points="214.01113360758717,176.67302647875636 228.40458857931517,195.8276248589295 "/><polyline class="polyline" opacity="0.5" stroke="blue" points="215.65965556649078,176.85517728200108 232.15955699975882,195.2399695415868 "/><polyline class="polyline" opacity="0.5" stroke="blue" points="217.2983691551073,177.048796915581 235.90688833774337,194.67617439167964 "/><polyline class="polyline" opacity="0.5" stroke="blue" points="218.9262493948519,177.25374113730584 239.6423434287268,194.1365300705137 "/><polyline class="polyline" opacity="0.5" stroke="blue" points="220.54228389404182,177.46985675116463 243.3617007530063,193.6212825465031 "/><polyline class="polyline" opacity="0.5" stroke="blue" points="222.14547398390258,177.69698184040814 247.06076771695626,193.13063247109642 "/><polyline class="polyline" opacity="0.5" stroke="blue" points="223.73483582177357,177.93494601406974 250.73539179686873,192.66473473362004 "/><polyline class="polyline" opacity="0.5" stroke="blue" points="225.30940145908943,178.1835706661869 254.38147148401376,192.22369819698523 "/><polyline class="polyline" opacity="0.5" stroke="blue" points="226.86821987186255,178.4426692469521 257.9949669713033,191.80758561485467 "/><polyline class="polyline" opacity="0.5" stroke="blue" points="228.4103579515401,178.71204754499124 261.5719105242366,191.41641372952057 "/><polyline class="polyline" opacity="0.5" stroke="blue" points="229.93490145426605,178.99150397994177 265.1084164816385,191.05015354841834 "/><polyline class="polyline" opacity="0.5" stroke="blue" points="231.44095590674897,179.28082990447933 268.60069083502674,190.70873079590805 "/><polyline class="polyline" opacity="0.5" stroke="blue" points="232.9276474670985,179.5798099149242 272.0450403391855,190.39202653571238 "/><polyline class="polyline" opacity="0.5" stroke="blue" points="234.39412373917307,179.8882221695433 275.43788111067636,190.09987795821823 "/><polyline class="polyline" opacity="0.5" stroke="blue" points="235.83955453915277,180.20583871365307 278.7757466754816,189.83207932574635 "/><polyline class="polyline" opacity="0.5" stroke="blue" points="237.2631326132344,180.53242581062264 282.05529543173384,189.5883830678726 "/><polyline class="polyline" opacity="0.5" stroke="blue" points="238.66407430552164,180.86774427787287 285.2733174984309,189.36850101796557 "/><polyline class="polyline" opacity="0.5" stroke="blue" points="240.0416201753659,181.2115498269687 288.4267409261524,189.17210578128734 "/><polyline class="polyline" opacity="0.5" stroke="blue" points="241.39503556358875,181.56359340690642 291.51263725097067,188.99883222429943 "/><polyline class="polyline" opacity="0.5" stroke="blue" points="242.7236111071988,181.92362154970658 294.52822637797726,188.84827907422743 "/><polyline class="polyline" opacity="0.5" stroke="blue" points="244.02666320238563,182.29137671743513 297.4708807860047,188.72001061746664 "/><polyline class="polyline" opacity="0.5" stroke="blue" points="245.30353441574832,182.66659764978934 300.33812905021057,188.6135584850612 "/><polyline class="polyline" opacity="0.5" stroke="blue" points="246.5535938438791,183.04901971140563 303.12765868411304,188.5284235132586 "/><polyline class="polyline" opacity="0.5" stroke="blue" points="247.77623742158943,183.43837523806556 305.8373183074016,188.46407766702652 "/><polyline class="polyline" opacity="0.5" stroke="blue" points="248.97088817921826,183.83439388100248 308.4651191503234,188.41996601441986 "/><polyline class="polyline" opacity="0.5" stroke="blue" points="250.13699644961264,184.23680294853563 311.00923590965203,188.39550873979255 "/><polyline class="polyline" opacity="0.5" stroke="blue" points="251.27404002551714,184.64532774429017 313.468006975129,188.3901031840592 "/><polyline class="polyline" opacity="0.5" stroke="blue" points="252.38152426824118,185.05969190129048 315.83993404880823,188.403125900516 "/><polyline class="polyline" opacity="0.5" stroke="blue" points="253.45898216860303,185.4796177112487 318.1236811829122,188.43393471512098 "/><polyline class="polyline" opacity="0.5" stroke="blue" points="254.50597436126978,185.90482644840372 320.3180732645999,188.48187078060263 "/><polyline class="polyline" opacity="0.5" stroke="blue" points="255.52208909372337,186.33503868730392 322.42209397846364,188.54626061430156 "/><polyline class="polyline" opacity="0.5" stroke="blue" points="256.5069421511871,186.769974613962 324.4348832795772,188.62641811024622 "/><polyline class="polyline" opacity="0.5" stroke="blue" points="257.4601767389401,187.20935432985073 326.3557344115492,188.72164651660634 "/><polyline class="polyline" opacity="0.5" stroke="blue" points="258.38146332353244,187.65289814824527 328.184090505272,188.83124037035043 "/><polyline class="polyline" opacity="0.5" stroke="blue" points="259.27049943449265,188.10032688245948 329.919540794932,188.95448738164566 "/><polyline class="polyline" opacity="0.5" stroke="blue" points="260.12700942818265,188.55136212556175 331.5618164883505,189.0906702612699 "/><polyline class="polyline" opacity="0.5" stroke="blue" points="260.9507442155161,189.00572652119672 333.1107863289064,189.23906848504777 "/><polyline class="polyline" opacity="0.5" stroke="blue" points="261.7414809553053,189.46314402517865 334.5664518861388,189.3989599900678 "/><polyline class="polyline" opacity="0.5" stroke="blue" points="262.49902271504175,189.92334015756254 335.9289426117021,189.56962279817816 "/><polyline class="polyline" opacity="0.5" stroke="blue" points="263.22319810094973,190.38604224493704 337.1985106966323,189.75033656298498 "/><polyline class="polyline" opacity="0.5" stroke="blue" points="263.91386085917134,190.85097965272266 338.37552576494227,189.94038403728683 "/><polyline class="polyline" opacity="0.5" stroke="blue" points="264.57088944996553,191.31788400729604 339.46046943740856,190.1390524585633 "/><polyline class="polyline" opacity="0.5" stroke="blue" points="265.19418659680247,191.78648940779814 340.45392979806314,190.34563485079133 "/><polyline class="polyline" opacity="0.5" stroke="blue" points="265.7836788122437,192.25653262751925 341.3565957944071,190.5594312414841 "/><polyline class="polyline" opacity="0.5" stroke="blue" points="266.33931590248545,192.72775330478925 342.1692516007284,190.77974979343412 "/><polyline class="polyline" opacity="0.5" stroke="blue" points="266.8610704524354,193.1998941233342 342.8927709721734,191.0059078511872 "/><polyline class="polyline" opacity="0.5" stroke="blue" points="267.34893729316946,193.67270098209238 343.5281116154023,191.23723290277977 "/><polyline class="polyline" opacity="0.5" stroke="blue" points="267.80293295359314,194.145923154514 344.07630959979224,191.4730634577343 "/><polyline class="polyline" opacity="0.5" stroke="blue" points="268.2230950980986,194.61931343739627 344.5384738312455,191.7127498427265 "/><polyline class="polyline" opacity="0.5" stroke="blue" points="268.60948195197716,195.09262828933552 344.91578060874167,191.95565491671513 "/><polyline class="polyline" opacity="0.5" stroke="blue" points="268.96217171630167,195.5656279589011 345.209468281868,192.20115470765708 "/><polyline class="polyline" opacity="0.5" stroke="blue" points="269.2812619739536,196.03807660266267 345.4208320256662,192.44863897322256 "/><polyline class="polyline" opacity="0.5" stroke="blue" points="269.5668690884181,196.5097423932223 345.55121874728644,192.6975116881743 "/></svg>
